<svg xmlns="http://www.w3.org/2000/svg" viewBox="0 0 1000.012 1145.021"><path d="M931.49 57.815h6.95c8.57 0 15.587-2.842 15.587-10.355 0-5.652-4.145-10.883-15.028-10.883-3.41 0-5.73 0-7.52.247v20.99zm0 36.505h-11.654V29.59c5.407-.77 10.85-1.826 19.41-1.826 10.356 0 16.815 2.106 20.955 5.232 3.62 2.84 5.69 7.194 5.69 13.444 0 8.285-5.44 13.69-12.39 15.515v.492c5.65 1.055 9.27 6.215 10.57 15.83 1.55 10.108 2.84 13.937 3.9 16.043h-11.91c-1.54-2.106-2.87-8.037-4.17-16.534-1.26-7.825-5.65-10.915-13.69-10.915h-6.7v27.45zm10.603-82.07c-25.627 0-46.337 21.48-46.337 48.406s20.71 48.408 46.58 48.408c25.623.28 46.09-21.482 46.09-48.408 0-26.925-20.467-48.407-46.09-48.407h-.243zm.244-9.828c32.048 0 57.675 25.906 57.675 57.99 0 32.613-25.627 58.483-57.92 58.483-32.332 0-58.482-25.87-58.482-58.482 0-32.085 26.15-57.99 58.483-57.99h.244zM111.377 1040.48l-9.723-57.598c-2.773-16.602-6.318-42.548-9.02-60.52H91.58c-2.843 18.108-6.812 44.79-9.725 60.66l-10.463 57.46h39.986zm-45.21 37.534l-12.636 63.922H6.85l58.235-265.94H122.3l52.9 265.94h-46.93l-12.358-63.922H66.168zm215.287-54.87c0-3.545 0-7.69-.703-11.482-1.85-13.13-8.84-24.955-20.07-24.955-19.27 0-26.36 27.764-26.36 60.237 0 37.312 10.11 58.55 25.7 58.55 7.13 0 15.34-3.652 19.8-19.31 1.09-3.123 1.65-7.3 1.65-12.18v-50.86zm47.916-154.206v217.848c0 17.266.88 38.508 1.583 55.11h-41.385l-2.702-22.154h-.983c-6.95 13.66-22.078 25.275-40.158 25.275-39.63 0-59.286-43.735-59.286-98.956 0-67.28 29.3-100 61.25-100 16.71 0 27.52 8.18 32.96 20.02h.8v-97.13h47.91zm99.796 239.33c18.288 0 22.816-34.47 22.816-63.01 0-27.134-4.528-62.488-23.62-62.488-20.223 0-24.47 35.354-24.47 62.487 0 32.753 5.335 63.01 24.85 63.01h.424zm-.912 36.753c-44.158 0-71.855-35.45-71.855-98.91 0-69.26 35.55-100.04 72.97-100.04 43.56 0 70.87 37.18 70.87 98.93 0 79.338-42.79 100.04-71.61 100.04h-.39zm146.696-71.92c0 4.81.88 9.31 1.9 12.32 4.807 16.12 12.952 20.09 19.48 20.09 18.535 0 26.013-23.49 26.013-61.05 0-34.19-7.902-57.74-26.226-57.74-9.09 0-16.742 9.87-19.376 20.47-.91 3.34-1.79 8.53-1.79 12.11v53.816zm-47.92-204.16h47.917v100.39h.77c9.44-14.81 22.01-23.27 40.263-23.27 36.122 0 54.27 41.08 54.27 94.78 0 67.86-27.065 104.19-62.135 104.19-16.71 0-27.837-7.41-37.876-26.18h-1.02l-2.67 23.06h-41.14c.7-15.97 1.61-37.84 1.61-55.11V868.94zm258.047 158.24c.248-27.06-7.69-46.02-22.888-46.02-17.35 0-24.72 25.39-25.24 46.03h48.12zm-48.303 33.88c.564 34.86 18.888 46.2 41.633 46.2 14.424 0 26.78-3.2 35.91-6.63l6.458 34.47c-12.71 5.48-32.333 8.92-51.15 8.92-51.423 0-79.508-35.14-79.508-95.16 0-64.413 32.577-103.1 75.12-103.1 41.106 0 63.887 34.19 63.887 90.003 0 12.777-.527 19.975-1.37 25.587l-90.98-.275z"/><path fill="#ed1c24" d="M522.647 0h306.517v733.828M306.694 0H0v733.828m280.647-147.643l134.06-315.79L609.98 733.788H482.034L423.62 586.185"/></svg>
