<svg xmlns="http://www.w3.org/2000/svg" viewBox="0 0 186 60"><path fill-rule="evenodd" d="M20.64 6.408c.043.128.064.224.064.288 0 .064-.064.14-.192.224-.555.384-1.26 1.216-2.112 2.496l-4.8 6.912v33.6c0 4.224-.096 6.645-.288 7.264-.192.62-.363.928-.512.928-.15 0-.267-.128-.352-.384l-2.56-6.08c.512-.768.843-1.536.992-2.304.15-.768.224-2.816.224-6.144V19.592C7.564 24.03 4.107 27.7.736 30.6l-.576-.64c5.632-6.357 9.845-11.776 12.64-16.256s4.192-8.66 4.192-12.544l.96-.384 2.688 5.632zm17.728 3.264c-.98 2.56-1.643 3.84-1.984 3.84-.128 0-.235-.085-.32-.256l-6.08-11.264.576-.576 7.808 8.256zM55.2 16.648c.128.085.192.18.192.288 0 .107-.107.18-.32.224l-24.128 2.432 2.112 2.304c.128.128.192.235.192.32 0 .085-.064.192-.192.32-.384.384-1.024 2.837-1.92 7.36l12.16-1.216 1.728-3.136 3.072 2.752c.128.128.192.256.192.384s-.085.235-.256.32c-.896.34-1.58 1.643-2.048 3.904-1.365 6.784-2.624 12.032-3.776 15.744-1.152 3.712-2.22 6.42-3.2 8.128-.98 1.707-1.62 2.56-1.92 2.56-.128 0-.256-.085-.384-.256-1.664-2.432-4.608-6.123-8.832-11.072l.768-.704 8.256 6.784c3.285-5.93 5.483-13.824 6.592-23.68l-12.672 1.344c-2.133 9.856-7.02 18.624-14.656 26.304l-.704-.704c5.077-6.357 8.64-12.63 10.688-18.816 2.048-6.187 3.072-11.755 3.072-16.704 0-.725-.02-1.408-.064-2.048-4.907.47-8.49 1.024-10.752 1.664l-2.624-2.432c11.35-.98 19.733-1.803 25.152-2.464 5.42-.66 8.683-1.504 9.792-2.528l4.48 2.624zm40.32-10.24c-.34 1.28-.747 2.38-1.216 3.296-.47.917-.79 1.376-.96 1.376-.17 0-.32-.15-.448-.448L88.16.52l.512-.448 6.848 6.336zm19.264 5.76c.128.17.192.3.192.384 0 .085-.128.213-.384.384-.896.555-1.813 1.408-2.752 2.56-.94 1.152-2.368 3.093-4.288 5.824l-1.024-.512 2.944-7.488L76 16.2c-.3 3.2-.832 5.483-1.6 6.848-.768 1.365-1.344 2.048-1.728 2.048-.128 0-.235-.107-.32-.32l-1.216-3.968c2.347-2.005 3.563-5.973 3.648-11.904l1.088-.128c.213 2.09.3 3.84.256 5.248l33.024-2.88 2.176-2.496 3.456 3.52zm3.584 39.04l-11.2.448-13.952-21.824h-.32v21.76c0 3.456-.107 5.696-.32 6.72-.213 1.024-.405 1.536-.576 1.536-.085 0-.192-.085-.32-.256l-2.624-4.16c.555-.98.94-1.94 1.152-2.88.213-.94.32-2.54.32-4.8V31.176c-6.485 9.387-14.7 17.28-24.64 23.68l-.512-.832c4.267-2.987 8.49-6.7 12.672-11.136 4.18-4.437 7.445-8.64 9.792-12.608-4.864.47-8.747 1.067-11.648 1.792l-3.136-2.624 17.472-1.408c0-3.84-.064-6.39-.192-7.648-.128-1.26-.363-2.4-.704-3.424l.512-.448 3.904 3.136c.213.17.32.34.32.512 0 .17-.085.363-.256.576-.81 1.024-1.216 3.392-1.216 7.104 8.02-.725 12.97-1.557 14.848-2.496l3.264 2.368c.256.17.384.31.384.416 0 .107-.213.18-.64.224l-15.616 1.28c4.053 5.93 7.125 10.165 9.216 12.704 2.09 2.54 4.02 4.33 5.792 5.376 1.77 1.045 4.512 1.867 8.224 2.464v1.024zm66.816-8.576l-.064 1.152-8.832.704-13.184-24.192v20.8c3.5-.427 6.08-1.003 7.744-1.728l2.368 1.984c.128.128.192.245.192.352 0 .107-.085.16-.256.16l-10.048 1.088v7.36c0 4.608-.075 7.307-.224 8.096-.15.79-.31 1.184-.48 1.184-.17 0-.363-.192-.576-.576l-2.304-4.352c.853-1.536 1.28-3.67 1.28-6.4v-5.056c-4.82.555-7.872 1.045-9.152 1.472l-3.008-2.368 12.16-1.024V20.744c-4.14 9.557-10.39 18.88-18.752 27.968l-.64-1.152c7.51-9.13 13.355-18.71 17.536-28.736-6.443.768-10.56 1.472-12.352 2.112l-2.944-2.368 17.152-1.984v-5.312c0-5.077-.576-8.62-1.728-10.624l.64-.576 4.16 3.392c.3.213.448.416.448.608s-.064.437-.192.736c-.683 1.62-1.024 4.245-1.024 7.872v3.648c6.784-.768 11.413-1.77 13.888-3.008l2.752 2.368c.213.17.32.3.32.384 0 .085-.15.15-.448.192l-15.744 1.92 5.696 10.112c3.456 6.1 6.09 9.9 7.904 11.392 1.813 1.493 4.384 2.475 7.712 2.944zM147.808 5.64c.043.128.064.224.064.288 0 .064-.064.14-.192.224-.34.256-.885.832-1.632 1.728-.747.896-1.44 1.877-2.08 2.944-.64 1.067-1.58 2.517-2.816 4.352V48.2c0 5.46-.085 8.672-.256 9.632-.17.96-.363 1.44-.576 1.44-.128 0-.277-.15-.448-.448l-2.56-4.224c1.024-1.536 1.536-3.883 1.536-7.04V18.504c-3.5 4.82-7.296 9.003-11.392 12.544l-.704-.768c5.845-6.656 10.325-12.66 13.44-18.016 3.115-5.355 4.5-9.14 4.16-11.36l.96-.256 2.496 4.992z"/></svg>
