<svg xmlns="http://www.w3.org/2000/svg" viewBox="0 0 125 56"><path fill-rule="evenodd" d="M21.488 16.208c.683 0 1.515.235 2.496.704.683.3 1.024.66 1.024 1.088 0 .427-.427.768-1.28 1.024-1.067.47-3.35 1.024-6.848 1.664-.085 1.835-.15 3.477-.192 4.928.128 0 .277.02.448.064 1.024.427 2.048.896 3.072 1.408 1.28.81 2.112 1.536 2.496 2.176.384.64.576 1.3.576 1.984 0 .47-.15.98-.448 1.536-.256.47-.62.704-1.088.704-.128 0-.384-.15-.768-.448-.512-.427-1.195-1.344-2.048-2.752-.98-1.536-1.728-2.624-2.24-3.264-.043.81-.064 1.536-.064 2.176l-.128 20.544c0 .98-.3 2.027-.896 3.136-.427.896-.875 1.344-1.344 1.344-.256 0-.64-.49-1.152-1.472-.725-1.664-1.088-2.923-1.088-3.776 0-.597.128-1.493.384-2.688.34-1.408.62-4.117.832-8.128.3-3.115.512-6.592.64-10.432-2.005 3.925-3.84 6.912-5.504 8.96-1.62 2.005-3.5 3.712-5.632 5.12-.853.597-1.6.896-2.24.896-.34 0-.512-.085-.512-.256 2.688-2.56 5.14-5.632 7.36-9.216 1.963-3.03 3.797-6.976 5.504-11.84-3.2.555-5.397.832-6.592.832-1.493 0-2.54-.15-3.136-.448-.597-.427-.896-.768-.896-1.024 0-.3.683-.512 2.048-.64 2.944-.34 6.187-.94 9.728-1.792v-.768c0-4.736-.128-7.957-.384-9.664-.17-1.408-.405-2.453-.704-3.136-.17-.47-.3-.896-.384-1.28 0-.683.32-1.024.96-1.024.512 0 1.536.448 3.072 1.344 1.11.725 1.664 1.45 1.664 2.176 0 .34-.064.747-.192 1.216-.3 1.11-.533 3.157-.704 6.144-.128 1.536-.213 2.965-.256 4.288 1.323-.34 2.453-.683 3.392-1.024.47-.256.81-.384 1.024-.384zm4.544-10.24c.81 0 1.58.256 2.304.768.896.597 1.365 1.173 1.408 1.728 0 .47-.043.96-.128 1.472-.128.768-.213 2.112-.256 4.032 2.347-.683 3.82-1.13 4.416-1.344.768-.256 1.173-.384 1.216-.384.17 0 .704.128 1.6.384.94.427 1.408.79 1.408 1.088 0 .427-.47.768-1.408 1.024l-4.096.768c-.683.128-1.344.192-1.984.192-.384 0-.768-.02-1.152-.064-.043 1.835-.085 4.032-.128 6.592 0 .512.17.768.512.768.34 0 2.41-.94 6.208-2.816.597-.3.94-.448 1.024-.448.17 0 .256.085.256.256 0 .256-.235.64-.704 1.152-3.925 3.37-6.464 5.61-7.616 6.72-.683.725-1.237 1.088-1.664 1.088-.512 0-.94-.3-1.28-.896-.47-1.024-.704-1.792-.704-2.304 0-.384.107-.79.32-1.216.213-.427.363-1.365.448-2.816.128-1.92.192-5.248.192-9.984 0-1.664-.256-2.944-.768-3.84-.256-.427-.405-.81-.448-1.152 0-.512.34-.768 1.024-.768zM39.984.72c.427 0 1.11.277 2.048.832 1.323.768 1.984 1.493 1.984 2.176 0 .213-.107.768-.32 1.664-.384 1.92-.64 4.075-.768 6.464 3.5-1.067 5.653-1.75 6.464-2.048 1.152-.384 1.77-.576 1.856-.576.17 0 .725.15 1.664.448 1.067.512 1.6.94 1.6 1.28 0 .64-.683 1.152-2.048 1.536-1.835.34-3.712.725-5.632 1.152-.98.213-1.92.32-2.816.32-.427 0-.832-.02-1.216-.064-.043 1.152-.064 2.347-.064 3.584s.192 2.197.576 2.88c.555.853 1.3 1.43 2.24 1.728.64.256 1.813.384 3.52.384 1.408 0 2.56-.107 3.456-.32 1.58-.725 2.56-1.877 2.944-3.456l.64-3.456c.128-.512.256-.768.384-.768.085 0 .213.235.384.704l.64 3.584c.256.94.49 1.536.704 1.792.34.597.512 1.067.512 1.408 0 .384-.213.917-.64 1.6-.555.725-1.515 1.387-2.88 1.984-1.58.597-3.307.896-5.184.896-1.62 0-3.264-.235-4.928-.704-1.792-.512-3.157-1.387-4.096-2.624-.853-1.195-1.28-3.072-1.28-5.632V4.944c0-1.024-.107-1.92-.32-2.688-.256-.555-.384-.896-.384-1.024 0-.34.32-.512.96-.512zm-3.968 24c.597 0 1.387.32 2.368.96 1.067.768 1.6 1.45 1.6 2.048 0 .128-.277.405-.832.832-.597.725-1.195 1.408-1.792 2.048-1.323 1.408-2.453 2.475-3.392 3.2 2.944-.427 6.144-1.003 9.6-1.728 1.75-.384 2.73-.576 2.944-.576.34 0 1.365.427 3.072 1.28 1.11.64 1.664 1.195 1.664 1.664 0 .384-.192 1.003-.576 1.856-.3.47-.448 2.027-.448 4.672 0 2.645.043 4.843.128 6.592.085 1.11.128 2.07.128 2.88 0 1.237-.277 2.304-.832 3.2-.64 1.067-1.28 1.6-1.92 1.6-.213 0-.49-.34-.832-1.024-.427-.896-.64-1.728-.64-2.496 0-.3.02-.683.064-1.152-1.493 0-2.837.064-4.032.192l-6.528.576c-1.195.085-2.112.128-2.752.128-.555 0-1.024-.043-1.408-.128 0 .47-.043.853-.128 1.152-.34.81-.66 1.216-.96 1.216-.384 0-.853-.47-1.408-1.408-.555-1.323-.832-2.347-.832-3.072 0-.085.043-.363.128-.832.3-1.067.47-2.155.512-3.264.043-1.365.064-2.923.064-4.672 0-2.432-.192-4.245-.576-5.44-.256-.47-.384-.81-.384-1.024 0-.47.17-.725.512-.768.725 0 1.43.192 2.112.576.213.128.405.256.576.384.085 0 .15-.02.192-.064 1.323-1.58 2.26-2.923 2.816-4.032.512-1.11.768-1.984.768-2.624 0-.34-.085-.917-.256-1.728.17-.683.597-1.024 1.28-1.024zm-4.288 24.192c2.987-.17 5.76-.448 8.32-.832 1.664-.256 2.73-.384 3.2-.384.64 0 1.58.32 2.816.96.17.085.3.17.384.256.043-.427.064-.832.064-1.216 0-2.26-.02-4.224-.064-5.888-.34.17-.832.32-1.472.448-1.067.128-1.963.256-2.688.384-.683.128-2.432.384-5.248.768-1.536.213-2.624.32-3.264.32-.81 0-1.45-.085-1.92-.256-.043 1.963-.085 3.776-.128 5.44zm.128-7.104c.213-.043.427-.064.64-.064 3.157-.34 6.208-.832 9.152-1.472.853-.213 1.3-.32 1.344-.32.384 0 1.173.107 2.368.32.427.17.768.32 1.024.448-.085-3.456-.3-5.46-.64-6.016-.256-.3-.747-.448-1.472-.448-1.58 0-3.86.277-6.848.832-2.56.555-4.373.853-5.44.896-.085 1.067-.107 2.048-.064 2.944 0 .98-.02 1.94-.064 2.88zM81.264 3.216c.512 0 1.173.235 1.984.704C85.083 5.115 86 6.14 86 6.992c0 .384-.256.81-.768 1.28-.512.725-1.045 1.6-1.6 2.624-2.176 3.925-4.31 7.275-6.4 10.048.128.128.235.256.32.384 1.152 1.408 1.728 2.368 1.728 2.88 0 .213-.128.853-.384 1.92-.256 1.45-.384 4.992-.384 10.624L78 46.736c0 .81-.235 1.9-.704 3.264-.34.98-.683 1.472-1.024 1.472-.555 0-1.088-.576-1.6-1.728-.768-1.792-1.152-3.05-1.152-3.776.043-.34.277-1.195.704-2.56 1.024-2.645 1.536-8.3 1.536-16.96 0-1.11-.107-2.22-.32-3.328-2.005 2.517-4.267 4.672-6.784 6.464-1.792 1.28-3.008 1.92-3.648 1.92-.34 0-.512-.085-.512-.256 0-.17.235-.47.704-.896 2.39-2.432 4.8-5.312 7.232-8.64 2.304-3.072 4.352-6.55 6.144-10.432 1.11-2.432 1.664-4.693 1.664-6.784 0-.853.34-1.28 1.024-1.28zm30.72 11.008c.3 0 1.13.256 2.496.768 1.664.94 2.496 1.685 2.496 2.24-.043.64-.79.98-2.24 1.024-3.797.128-8.192.512-13.184 1.152h-.064c0 .3-.02.576-.064.832.512.47 1.045 1.024 1.6 1.664 4.352 5.12 7.637 8.533 9.856 10.24 2.176 1.664 5.653 3.605 10.432 5.824.64.213.96.47.96.768 0 .3-.32.512-.96.64-3.5.725-5.93 1.088-7.296 1.088-.81 0-1.664-.34-2.56-1.024-.98-.853-3.755-4.65-8.32-11.392-1.365-2.005-2.645-3.712-3.84-5.12-.085 2.56-.128 4.63-.128 6.208 0 .085-.02 3.264-.064 9.536.853-.17 1.685-.34 2.496-.512 1.195-.3 1.835-.448 1.92-.448.47 0 1.493.15 3.072.448 1.45.512 2.176.96 2.176 1.344 0 .512-.832.917-2.496 1.216-1.493.213-2.752.405-3.776.576-.597.085-1.75.235-3.456.448 0 2.603-.02 5.59-.064 8.96 0 1.11-.3 2.283-.896 3.52-.427.98-.875 1.472-1.344 1.472-.256 0-.683-.533-1.28-1.6-.81-1.835-1.216-3.2-1.216-4.096 0-.64.15-1.6.448-2.88.256-.98.49-2.603.704-4.864-.128 0-.213.02-.256.064-2.133.256-3.67.384-4.608.384-1.11 0-1.984-.107-2.624-.32-1.11-.384-1.664-.768-1.664-1.152 0-.555.832-.896 2.496-1.024 2.347-.256 4.63-.576 6.848-.96.043-.213.064-.427.064-.64.427-4.352.683-9.344.768-14.976-1.024 1.835-2.22 3.733-3.584 5.696-2.005 2.688-4.053 4.928-6.144 6.72-1.963 1.62-3.82 2.88-5.568 3.776-1.75.768-2.795 1.152-3.136 1.152-.34 0-.512-.085-.512-.256 2.56-2.133 4.5-3.947 5.824-5.44 2.9-2.987 5.376-5.91 7.424-8.768 1.792-2.475 3.008-4.5 3.648-6.08.043-.043.064-.085.064-.128-1.792.34-3.776.768-5.952 1.28-.94.256-1.515.384-1.728.384-1.067 0-2.176-.3-3.328-.896-1.28-.512-1.92-1.045-1.92-1.6 0-.17.49-.34 1.472-.512 4.992-.725 9.493-1.43 13.504-2.112 0-4.992-.15-8.384-.448-10.176-.17-1.493-.448-2.624-.832-3.392-.17-.47-.32-.896-.448-1.28 0-.683.427-1.024 1.28-1.024.512 0 1.58.47 3.2 1.408 1.195.768 1.792 1.557 1.792 2.368 0 .34-.085.747-.256 1.216-.34 1.195-.62 3.35-.832 6.464-.085 1.365-.17 2.645-.256 3.84 2.347-.427 4.48-.832 6.4-1.216 2.133-.555 3.435-.832 3.904-.832z"/></svg>
