<svg xmlns="http://www.w3.org/2000/svg" viewBox="0 0 898 350" fill="none"><path fill="#fff" fill-rule="evenodd" stroke="#1D877A" stroke-linecap="square" stroke-width="3" d="M252.834 267.396c.823-.879-24.198-38.01-28.176-39.385-3.978-1.374-86.046-1.374-87.531 0-.72.666 9.413 14.452 12.236 19.373 3.003 5.235 10.253 20.012 10.912 20.012 1.277 0 91.737.879 92.559 0z" clip-rule="evenodd"/><path stroke="#000" stroke-linecap="round" stroke-width="5" d="M255.724 292.984s7.594-2.756 9.295-8.42c1.701-5.664 0-16.777 0-16.777M192.478 328.345s-5.362 3.377-6.895 6.36c-1.532 2.982-.987 9.955-.987 9.955l-7.646 2.822M212.224 328.345s5.362 3.377 6.894 6.36c1.533 2.982.987 9.955.987 9.955l7.646 2.822"/><path fill="#fff" stroke="#1D877A" stroke-width="3" d="M160.089 267.805l.03-.135c.12-.02.262-.041.427-.063.727-.095 1.772-.184 3.109-.266 2.667-.163 6.391-.292 10.832-.387 8.878-.192 20.556-.252 32.221-.211 11.665.04 23.305.182 32.103.394 4.401.106 8.08.229 10.693.365a67.55 67.55 0 0 1 3.037.21l.182.02c.071.479.146 1.146.224 1.991.166 1.819.334 4.37.492 7.424.314 6.104.581 14.165.707 22.294.127 8.132.111 16.308-.14 22.649-.125 3.174-.308 5.858-.556 7.834-.125.992-.261 1.768-.404 2.325a4.478 4.478 0 0 1-.176.562 6.453 6.453 0 0 1-.813.224c-.751.166-1.805.328-3.145.482-2.673.307-6.348.565-10.712.773-8.721.415-20.099.623-31.507.623-11.407 0-22.824-.208-31.621-.623-4.403-.208-8.127-.467-10.859-.774-1.369-.153-2.459-.316-3.247-.484a7.679 7.679 0 0 1-.885-.232 1.87 1.87 0 0 1-.106-.04 3.58 3.58 0 0 1-.223-.578c-.168-.538-.332-1.297-.484-2.275-.304-1.949-.536-4.6-.701-7.745-.33-6.282-.389-14.39-.267-22.477.123-8.084.427-16.119.819-22.245.197-3.066.414-5.635.64-7.486.113-.929.225-1.649.33-2.149zm.145-.546a.136.136 0 0 1 .011-.026.14.14 0 0 1-.011.026z"/><path stroke="#000" stroke-linecap="round" stroke-width="4" d="M195.318 310.033s7.227 4.646 11.085 4.646c3.857 0 11.085-4.646 11.085-4.646M193.478 292.984v4.5M218.988 292.984v4.5"/><path fill="#fff" fill-rule="evenodd" stroke="#1D877A" stroke-linecap="square" stroke-width="3" d="M137.152 229.652c-2.185.94 0 66.578 0 66.578s21.424 37.482 22.4 36.058c.976-1.424 0-12.136 0-30.174s.944-34.548.944-34.548-21.16-38.853-23.344-37.914z" clip-rule="evenodd"/><path stroke="#1D877A" stroke-linecap="square" stroke-width="3" d="M148.466 246.529h90.528"/><path stroke="#000" stroke-linecap="round" stroke-width="5" d="M147.332 286.888s-8.263-3.072-11.944-8.029c-3.68-4.957-10.6-13.628-10.6-13.628"/><path stroke="#372822" stroke-linecap="round" stroke-width="10" d="M111.921 181.834l15.018 94.818"/><path fill="#fff" stroke="#372822" stroke-width="4" d="M2.288 137.262l195.562-30.974 13.61 85.929L15.898 223.19z"/><path fill="#000" d="M39.084 191.502c-.442-.594-.828-1.435-1.159-2.521a56.93 56.93 0 0 1-.927-3.46c-.258-1.225-.51-2.419-.758-3.582-.252-1.194-.503-2.183-.754-2.966a2.713 2.713 0 0 1-1.14-.91 3.543 3.543 0 0 1-.584-1.284 4.25 4.25 0 0 1 .664-3.001 126.885 126.885 0 0 1-1.534-7.587c-.437-2.557-.83-5.137-1.178-7.739-.002-.411.317-.794.957-1.149.666-.39 1.514-.73 2.544-1.02a28.805 28.805 0 0 1 3.335-.813 44.93 44.93 0 0 1 3.465-.596 35.776 35.776 0 0 1 2.793-.347c.807-.096 1.306-.144 1.496-.142.637.025 1.108.204 1.414.535.336.327.525.724.568 1.192.073.463.023.945-.15 1.447a2.723 2.723 0 0 1-.858 1.18c-.54.181-1.325.321-2.353.42a51.08 51.08 0 0 0-3.178.314c-1.06.104-2.06.279-3.002.523-.916.208-1.528.542-1.835 1.002.085.936.224 1.911.416 2.924l.584 3.087.67 3.027c.248.973.485 1.869.71 2.687.467-.042 1.067-.153 1.798-.332.726-.21 1.485-.409 2.278-.598.788-.22 1.557-.357 2.308-.413.776-.091 1.433-.037 1.971.162.569.195.964.591 1.185 1.189.252.593.263 1.461.033 2.605l-8.333 2.222c-.003.38.13 1.023.4 1.929.297.871.612 1.865.947 2.983.33 1.087.604 2.214.82 3.382.248 1.163.32 2.212.214 3.146-.11.903-.457 1.607-1.042 2.111-.553.499-1.482.63-2.785.393zm21.586-5.744c.338.737.403 1.344.193 1.82-.214.446-.576.756-1.086.932-.51.175-1.104.222-1.781.139a4.305 4.305 0 0 1-1.782-.761l-6.546-31.141c-.304-.521-.395-.997-.274-1.428.148-.466.39-.837.726-1.112.362-.31.77-.533 1.223-.668.484-.14.926-.147 1.326-.02.425.091.763.322 1.011.694.275.336.371.843.289 1.521l6.7 30.024zm22.283-6.139a8.093 8.093 0 0 1-1.805 2.99 10.248 10.248 0 0 1-2.813 2.012 12.125 12.125 0 0 1-3.438 1.067c-1.209.16-2.414.145-3.614-.045a13.246 13.246 0 0 1-3.49-1.061 9.74 9.74 0 0 1-2.897-2.104 19.715 19.715 0 0 1-3.258-5.891c-.753-2.158-1.07-4.26-.951-6.303a11.38 11.38 0 0 1 1.818-5.604c1.092-1.692 2.788-2.973 5.086-3.843 2.229-.511 4.047-.514 5.456-.01 1.435.469 2.48 1.269 3.133 2.399.68 1.095.98 2.392.901 3.891-.048 1.495-.44 3.013-1.177 4.553-.742 1.51-1.814 2.929-3.218 4.259-1.407 1.299-3.114 2.313-5.118 3.041.779.921 1.59 1.552 2.435 1.893a6.842 6.842 0 0 0 2.625.391 7.943 7.943 0 0 0 2.525-.542c.83-.353 1.578-.725 2.243-1.115a91.922 91.922 0 0 0 1.813-1.142c.511-.365.883-.614 1.116-.746 1.057-.515 1.813-.635 2.268-.359.455.276.575 1.032.36 2.269zm-14.887-14.586c-.653.673-1.2 1.409-1.644 2.207a10.09 10.09 0 0 0-1.282 5.091 8.89 8.89 0 0 0 .496 2.532c1.267-.391 2.36-.975 3.282-1.754.951-.784 1.706-1.615 2.262-2.494.583-.915.963-1.814 1.14-2.696.176-.882.139-1.62-.113-2.213-.222-.597-.678-.984-1.37-1.159-.693-.175-1.616-.013-2.771.486zm18.546 18.515c-.516-.267-.879-.557-1.087-.872-.213-.346-.26-.845-.142-1.497.468-.643 1.035-1.556 1.702-2.737a67.794 67.794 0 0 0 1.972-3.729 57.129 57.129 0 0 0 1.633-3.771c.473-1.214.735-2.157.786-2.83l-7.262-6.301c-.433-.532-.616-1.089-.55-1.669a3.097 3.097 0 0 1 .7-1.582c.399-.474.864-.833 1.395-1.075a2.263 2.263 0 0 1 1.696-.079c.4.127.934.501 1.602 1.123.699.617 1.418 1.262 2.157 1.936a29.379 29.379 0 0 0 2.068 1.666c.674.463 1.187.603 1.538.421.16-.184.402-.554.725-1.112a45.868 45.868 0 0 1 2.491-4.048c.52-.716 1.046-1.289 1.579-1.722.558-.468 1.102-.728 1.632-.78.525-.083 1.023.17 1.497.759.43.723.581 1.474.451 2.254a6.977 6.977 0 0 1-.727 2.299 16.943 16.943 0 0 1-1.398 2.262c-.55.72-1.057 1.417-1.52 2.091-.431.67-.775 1.294-1.032 1.872-.225.574-.227 1.065-.004 1.472a26.077 26.077 0 0 0 2.226 2.068c.832.659 1.649 1.321 2.45 1.985a33.67 33.67 0 0 1 2.272 2.061 12.752 12.752 0 0 1 1.931 2.304c.412.599.522 1.199.333 1.798-.19.6-.541 1.083-1.052 1.448a3.308 3.308 0 0 1-1.755.61c-.658.041-1.247-.182-1.767-.669l-7.514-6.688c-.274.265-.571.786-.89 1.565-.325.747-.7 1.582-1.123 2.503a53.14 53.14 0 0 1-1.31 2.818 14.102 14.102 0 0 1-1.592 2.53c-.586.694-1.22 1.19-1.9 1.487-.68.298-1.418.241-2.21-.171zm40.32-8.522c-1.635 1.461-3.319 2.519-5.05 3.173-1.701.649-3.283.947-4.747.894-1.469-.084-2.719-.487-3.751-1.209-1.032-.723-1.684-1.743-1.956-3.06l-5.58-24.745c-.228-1.039-.225-2.02.008-2.943.234-.923.601-1.598 1.103-2.026.497-.458 1.063-.58 1.699-.364.63.185 1.213.868 1.748 2.049.111.9.179 1.727.203 2.483.02.724.055 1.447.106 2.166.082.715.214 1.453.398 2.215.179.731.481 1.538.906 2.42 2.124-2.172 4.199-3.45 6.227-3.834 2.027-.385 3.867-.154 5.519.692 1.653.845 3.063 2.157 4.23 3.933 1.168 1.777 1.938 3.743 2.311 5.899.399 2.12.346 4.28-.16 6.48-.48 2.164-1.551 4.09-3.214 5.777zm-13.538-12.663c-.106.333-.159.895-.16 1.686-.007.761.066 1.619.218 2.576.146.926.362 1.888.647 2.887.311.964.702 1.835 1.173 2.615.472.779 1.029 1.403 1.673 1.87.643.468 1.4.649 2.269.543 2.175-.851 3.827-1.904 4.958-3.158 1.161-1.26 1.916-2.582 2.266-3.966a8.604 8.604 0 0 0 .064-4.092c-.281-1.379-.791-2.596-1.527-3.65-.71-1.09-1.59-1.947-2.638-2.572-1.017-.63-2.071-.89-3.161-.781-1.064.074-2.121.589-3.172 1.547-1.025.922-1.895 2.42-2.61 4.495zm24.843 12.723c-1.497-.459-2.726-1.229-3.688-2.311a11.64 11.64 0 0 1-2.12-3.793 16.463 16.463 0 0 1-.726-4.583c-.007-1.644.15-3.251.471-4.821.316-1.6.777-3.081 1.384-4.443.607-1.362 1.312-2.502 2.116-3.42 1.492-1.565 2.944-2.586 4.356-3.063 1.411-.477 2.73-.543 3.955-.199 1.225.344 2.345 1.021 3.359 2.031 1.045 1.005 1.916 2.211 2.614 3.62.724 1.372 1.266 2.9 1.628 4.583.356 1.652.492 3.307.407 4.966a15.228 15.228 0 0 1-.91 4.748 9.875 9.875 0 0 1-2.466 3.902c-1.093 1.091-2.5 1.899-4.22 2.425-1.689.52-3.743.64-6.16.358zm2.956-4.407c1.316-.082 2.429-.543 3.34-1.383a8.895 8.895 0 0 0 2.16-3.143c.499-1.249.79-2.608.873-4.077.084-1.469-.069-2.837-.46-4.104-.395-1.297-1.015-2.417-1.861-3.359-.85-.973-1.942-1.575-3.276-1.807-.796-.032-1.575.345-2.336 1.13-.731.78-1.363 1.782-1.897 3.005-.508 1.188-.884 2.513-1.127 3.975a13.512 13.512 0 0 0-.002 4.177c.21 1.327.681 2.503 1.412 3.526.732 1.023 1.79 1.71 3.174 2.06zm15.098 1.833c-.517-.267-.88-.557-1.088-.872-.213-.346-.26-.845-.142-1.497.468-.643 1.035-1.556 1.702-2.737a66.78 66.78 0 0 0 1.972-3.729 56.937 56.937 0 0 0 1.634-3.771c.472-1.214.734-2.157.786-2.83l-7.263-6.301c-.432-.532-.615-1.089-.549-1.669a3.09 3.09 0 0 1 .699-1.582 3.96 3.96 0 0 1 1.395-1.075 2.262 2.262 0 0 1 1.696-.079c.4.127.934.501 1.602 1.123.699.617 1.418 1.262 2.158 1.936a29.105 29.105 0 0 0 2.067 1.666c.674.463 1.187.603 1.538.421.161-.184.403-.554.726-1.112a45.558 45.558 0 0 1 2.491-4.048c.519-.716 1.045-1.289 1.578-1.722.559-.468 1.103-.728 1.632-.78.525-.083 1.024.17 1.497.759.431.723.581 1.474.452 2.254a6.98 6.98 0 0 1-.728 2.299 17.037 17.037 0 0 1-1.397 2.262 50.448 50.448 0 0 0-1.52 2.091c-.432.67-.776 1.294-1.032 1.872-.226.574-.227 1.065-.005 1.472a26.167 26.167 0 0 0 2.226 2.068c.832.659 1.649 1.321 2.45 1.985a33.43 33.43 0 0 1 2.272 2.061 12.758 12.758 0 0 1 1.932 2.304c.411.599.522 1.199.332 1.798-.19.6-.541 1.083-1.052 1.448a3.308 3.308 0 0 1-1.754.61c-.658.041-1.247-.182-1.768-.669l-7.513-6.688c-.275.265-.572.787-.891 1.565-.325.747-.699 1.582-1.123 2.503a52.878 52.878 0 0 1-1.309 2.818 14.148 14.148 0 0 1-1.593 2.53c-.586.694-1.219 1.19-1.9 1.488-.681.297-1.417.24-2.21-.172z"/><path fill="#fff" fill-rule="evenodd" stroke="#1D877A" stroke-linecap="square" stroke-width="3" d="M502.736 158.716c.823-.878-24.198-38.01-28.176-39.384-3.978-1.375-86.045-1.375-87.531 0-.72.666 9.413 14.451 12.236 19.372 3.003 5.235 10.253 20.012 10.912 20.012 1.277 0 91.737.879 92.559 0z" clip-rule="evenodd"/><path stroke="#000" stroke-linecap="round" stroke-width="5" d="M504.626 169.304s5.521-7.135 7.222-12.799c1.701-5.664-2-23-2-23M442.38 219.666s-5.362 3.377-6.895 6.359c-1.532 2.983-.986 9.955-.986 9.955l-7.646 2.822M462.126 219.666s5.362 3.377 6.895 6.359c1.532 2.983.986 9.955.986 9.955l7.646 2.822"/><path fill="#fff" stroke="#1D877A" stroke-width="3" d="M409.992 159.126l.029-.136c.12-.02.262-.041.427-.062.727-.095 1.772-.185 3.109-.267 2.667-.163 6.391-.291 10.832-.387 8.878-.191 20.556-.252 32.221-.211 11.665.041 23.305.182 32.103.394 4.401.106 8.08.229 10.693.365 1.31.069 2.332.139 3.037.211l.182.019c.071.479.146 1.146.224 1.991.166 1.819.335 4.37.492 7.424.314 6.104.581 14.166.708 22.294.126 8.132.11 16.309-.141 22.649-.125 3.174-.308 5.858-.556 7.835-.125.992-.261 1.768-.404 2.324a4.478 4.478 0 0 1-.176.562 6.403 6.403 0 0 1-.813.224c-.75.166-1.805.328-3.145.482-2.673.307-6.348.565-10.712.773-8.721.415-20.099.623-31.507.623-11.407 0-22.824-.208-31.621-.623-4.403-.208-8.127-.466-10.859-.773-1.369-.154-2.459-.317-3.247-.484a7.851 7.851 0 0 1-.885-.233 1.983 1.983 0 0 1-.106-.039 3.624 3.624 0 0 1-.223-.578c-.168-.539-.332-1.298-.484-2.275-.304-1.949-.535-4.601-.701-7.746-.33-6.281-.389-14.39-.267-22.477.123-8.084.427-16.118.82-22.244.196-3.066.413-5.635.639-7.486.113-.93.225-1.649.331-2.149zm.144-.547l.011-.026a.14.14 0 0 1-.011.026z"/><path stroke="#000" stroke-linecap="round" stroke-width="4" d="M445.22 201.353S452.447 206 456.305 206c3.857 0 11.085-4.647 11.085-4.647M443.38 184.304v4.5M468.89 184.304v4.5"/><path fill="#fff" fill-rule="evenodd" stroke="#1D877A" stroke-linecap="square" stroke-width="3" d="M387.054 120.972c-2.184.94 0 66.578 0 66.578s21.425 37.482 22.401 36.059c.976-1.424 0-12.137 0-30.175 0-18.037.943-34.548.943-34.548s-21.159-38.853-23.344-37.914z" clip-rule="evenodd"/><path stroke="#1D877A" stroke-linecap="square" stroke-width="3" d="M398.369 137.849h90.527"/><path stroke="#000" stroke-linecap="round" stroke-width="5" d="M396.848 167.005s-7.819-8.043-11.5-13c-3.681-4.957-5-20.5-5-20.5"/><path fill="#fff" stroke="#372822" stroke-width="4" d="M319 2h229.519l4.787 4.791-5.863 117.76-224.711 5.432L319 125.75V2z"/><path fill="#fff" stroke="#372822" stroke-width="4" d="M324.348 7.505h228.348V130.01H324.348z"/><path fill="#000" d="M407.778 50.755c-.657-.656-1.079-1.828-1.266-3.516-.188-1.687-.281-3.78-.281-6.28 0-2.532-.016-5.407-.047-8.626 0-3.25-.172-6.75-.516-10.5a8.91 8.91 0 0 0-.422 2.953c.063.938.11 1.782.141 2.532.031.718-.031 1.296-.188 1.734-.125.406-.515.578-1.171.516-.875-.594-1.516-1.313-1.922-2.157a6.507 6.507 0 0 1-.563-2.672c0-.968.188-1.921.563-2.859a9.216 9.216 0 0 1 1.547-2.625 8.811 8.811 0 0 1 2.296-2.015 6.72 6.72 0 0 1 2.86-1.032c1.781-.25 3.484-.25 5.109 0 1.625.219 3.063.657 4.313 1.313 1.281.656 2.328 1.5 3.14 2.531a6.623 6.623 0 0 1 1.453 3.469c.157 1.312-.078 2.765-.703 4.36-.593 1.593-1.656 3.28-3.187 5.062 1.844.312 3.39.875 4.64 1.687 1.25.781 2.204 1.703 2.86 2.766a6.96 6.96 0 0 1 1.172 3.375 7.97 7.97 0 0 1-.422 3.515c-.406 1.125-1.078 2.188-2.016 3.188-.906.969-2.047 1.75-3.422 2.344-1.375.593-2.984.953-4.828 1.078-1.844.125-3.89-.11-6.14-.703-.282.093-.469.218-.563.375a1.24 1.24 0 0 1-.281.422c-.125.093-.344.14-.656.14-.282 0-.782-.125-1.5-.375zm2.812-5.39c2.281.78 4.266 1.187 5.953 1.218 1.688.032 3.078-.172 4.172-.61 1.094-.437 1.891-1.046 2.391-1.827.531-.782.765-1.578.703-2.39-.063-.845-.406-1.642-1.031-2.392-.594-.75-1.485-1.328-2.672-1.734-1.157-.406-2.594-.578-4.313-.516-1.687.063-3.64.516-5.859 1.36l.656 6.89zm-.281-12.704c.125.188.484.22 1.078.094.625-.156 1.328-.437 2.109-.844a13.539 13.539 0 0 0 2.297-1.64 7.343 7.343 0 0 0 1.828-2.25 5.492 5.492 0 0 0 .657-2.813c-.032-1.031-.454-2.11-1.266-3.234a3.92 3.92 0 0 0-1.406-1.031 6.889 6.889 0 0 0-1.782-.516 7.459 7.459 0 0 0-1.875-.047 15.6 15.6 0 0 0-1.781.188c0 1.968.031 3.921.094 5.859.062 1.938.078 4.016.047 6.234zm23.812 18c-1.406-.687-2.5-1.64-3.281-2.859-.75-1.25-1.25-2.61-1.5-4.078a16.467 16.467 0 0 1 0-4.64c.25-1.626.656-3.188 1.219-4.688a20.753 20.753 0 0 1 2.062-4.172c.813-1.25 1.688-2.266 2.625-3.047 1.719-1.313 3.313-2.094 4.782-2.344 1.468-.25 2.781-.11 3.937.422 1.156.531 2.156 1.375 3 2.531.875 1.157 1.547 2.485 2.016 3.985.5 1.468.797 3.062.89 4.781a18.83 18.83 0 0 1-.375 4.969 15.205 15.205 0 0 1-1.64 4.547 9.885 9.885 0 0 1-3.047 3.468c-1.25.907-2.766 1.485-4.547 1.735-1.75.25-3.797.047-6.141-.61zm3.61-3.89c1.312.125 2.484-.157 3.515-.844a8.876 8.876 0 0 0 2.625-2.766c.688-1.156 1.188-2.453 1.5-3.89.313-1.438.375-2.813.188-4.125-.188-1.344-.625-2.547-1.313-3.61-.687-1.093-1.672-1.859-2.953-2.297-.781-.156-1.609.094-2.484.75-.844.657-1.625 1.547-2.344 2.672-.687 1.094-1.266 2.344-1.734 3.75a13.524 13.524 0 0 0-.657 4.125c0 1.344.282 2.578.844 3.703.563 1.126 1.5 1.97 2.813 2.532zm14.625 4.172c-.469-.344-.782-.688-.938-1.032-.156-.375-.125-.875.094-1.5.562-.562 1.266-1.375 2.109-2.437a68.189 68.189 0 0 0 2.532-3.375 57.81 57.81 0 0 0 2.203-3.469c.656-1.125 1.062-2.016 1.218-2.672l-6.187-7.36c-.344-.593-.438-1.171-.281-1.733.187-.594.5-1.079.937-1.454a3.97 3.97 0 0 1 1.547-.843 2.26 2.26 0 0 1 1.688.187c.375.188.843.64 1.406 1.36.594.718 1.203 1.468 1.828 2.25.625.75 1.219 1.406 1.781 1.968.594.563 1.078.782 1.453.657.188-.157.485-.485.891-.985a45.316 45.316 0 0 1 3.094-3.61c.625-.624 1.234-1.109 1.828-1.452.625-.375 1.203-.547 1.734-.516.531 0 .985.328 1.36.984.312.782.343 1.547.093 2.297a6.963 6.963 0 0 1-1.078 2.157 17.01 17.01 0 0 1-1.734 2.015 50.142 50.142 0 0 0-1.828 1.828 13.82 13.82 0 0 0-1.313 1.688c-.312.531-.39 1.015-.234 1.453.562.812 1.187 1.61 1.875 2.39.719.782 1.422 1.563 2.109 2.344a33.786 33.786 0 0 1 1.922 2.39 12.812 12.812 0 0 1 1.547 2.579c.312.656.328 1.266.047 1.828a2.757 2.757 0 0 1-1.266 1.266 3.306 3.306 0 0 1-1.828.328c-.656-.063-1.203-.375-1.641-.938l-6.375-7.78c-.312.218-.687.687-1.125 1.405-.437.688-.937 1.453-1.5 2.297a53.152 53.152 0 0 1-1.734 2.578 14.073 14.073 0 0 1-1.969 2.25c-.687.594-1.39.985-2.109 1.172-.719.188-1.438.016-2.156-.515zm-108.61 51.859c-.531-.437-.875-1.031-1.031-1.781a9.295 9.295 0 0 1-.141-2.485c.094-.906.235-1.812.422-2.718a40.57 40.57 0 0 0 .516-2.532c.156-.75.219-1.359.187-1.828 0-.5-.171-.75-.515-.75l-1.875.235c-1.156-.657-1.922-1.297-2.297-1.922-.375-.656-.406-1.203-.094-1.64.313-.47.953-.798 1.922-.985.969-.219 2.219-.219 3.75 0 .156-.313.281-.688.375-1.125.125-.469.266-1.172.422-2.11.156-.968.359-2.265.609-3.89s.61-3.766 1.078-6.422c.219-1.5.579-2.64 1.079-3.422.531-.781 1.125-1.266 1.781-1.453.687-.219 1.39-.188 2.109.094.719.28 1.406.718 2.063 1.312a8.655 8.655 0 0 1 1.687 2.11c.5.812.844 1.64 1.031 2.484.094.219.235.64.422 1.266.188.625.375 1.343.563 2.156.219.781.437 1.625.656 2.531.25.875.484 1.719.703 2.531.219.782.406 1.485.563 2.11.187.593.328 1.015.422 1.265.187 0 .5-.062.937-.187.469-.125.984-.235 1.547-.328a10.348 10.348 0 0 1 1.641-.235c.531-.031.984.063 1.359.282.375.218.594.609.656 1.171.094.532-.047 1.313-.422 2.344l-4.593 1.125 1.921 12.422c.032.188-.14.359-.515.516a5.59 5.59 0 0 1-1.266.375c-.5.062-1 .062-1.5 0-.469-.094-.812-.282-1.031-.563-.219-.562-.406-1.359-.563-2.39a82.89 82.89 0 0 1-.421-3.235c-.125-1.156-.25-2.297-.375-3.422a34.192 34.192 0 0 0-.422-2.86l-.282-.28a10.018 10.018 0 0 0-1.921-.094c-.625.031-1.266.078-1.922.14-.657.063-1.36.157-2.11.282-.75.125-1.562.234-2.437.328l-1.594 11.109c-.094.282-.266.5-.516.657a2.047 2.047 0 0 1-.796.328c-.313.031-.625 0-.938-.094a2.675 2.675 0 0 1-.844-.422zm5.578-16.406c1.094 0 2.141-.031 3.141-.094 1.031-.063 2.109-.125 3.234-.188v-.28a14.081 14.081 0 0 1-.937-3 123.84 123.84 0 0 0-.703-3.282 25.779 25.779 0 0 0-.844-3.234c-.312-1.032-.781-1.922-1.406-2.672-.219.281-.422.75-.61 1.406a39.35 39.35 0 0 0-.562 2.25 46.664 46.664 0 0 0-.422 2.625c-.125.906-.25 1.781-.375 2.625-.094.844-.187 1.61-.281 2.297a37.852 37.852 0 0 1-.235 1.547zm23.813 14.672c.219.781.187 1.39-.094 1.828-.281.406-.687.656-1.219.75-.531.094-1.125.047-1.781-.141a4.293 4.293 0 0 1-1.64-1.031l-1.594-31.781c-.219-.563-.235-1.047-.047-1.453.219-.438.516-.766.891-.985.406-.25.843-.406 1.312-.469.5-.062.938 0 1.313.188.406.156.703.437.89.844.219.375.235.89.047 1.547l1.922 30.703zm8.297-1.688c.219.594.281 1.172.187 1.735a3.434 3.434 0 0 1-.515 1.5 3.107 3.107 0 0 1-1.078 1.031 2.09 2.09 0 0 1-1.266.328c-.438-.031-.859-.219-1.266-.563-.375-.375-.672-.968-.89-1.781-.063-.219-.125-.75-.188-1.594-.031-.875-.062-1.89-.094-3.046-.031-1.157-.062-2.391-.093-3.704-.032-1.343-.063-2.593-.094-3.75a304.868 304.868 0 0 0-.094-3c-.031-.875-.078-1.437-.14-1.687-.219-1.531-.235-2.766-.047-3.703.187-.969.468-1.688.843-2.156.407-.5.86-.766 1.36-.797.5-.063.953.062 1.359.375.438.312.781.797 1.031 1.453.25.625.329 1.375.235 2.25l.75 17.11zm-3.375-24.937c-.688-.532-1.11-1.11-1.266-1.735-.125-.656-.078-1.234.141-1.734.25-.5.625-.86 1.125-1.078.531-.219 1.094-.188 1.687.094.688.375 1.11.906 1.266 1.593.156.688.125 1.328-.094 1.922a2.355 2.355 0 0 1-1.125 1.266c-.5.25-1.078.14-1.734-.328zm20.765 48c-1.875-.438-3.437-1.141-4.687-2.11-1.25-.968-2.125-1.937-2.625-2.906-.5-.937-.578-1.766-.234-2.484.343-.688 1.171-.985 2.484-.891 1.469 1.406 2.875 2.344 4.219 2.813 1.375.5 2.625.593 3.75.281 1.125-.313 2.078-.985 2.859-2.016.781-1.031 1.313-2.344 1.594-3.937.281-1.594.265-3.453-.047-5.578-.281-2.094-.938-4.375-1.969-6.844a10.995 10.995 0 0 1-3.094 2.812 11.255 11.255 0 0 1-3.75 1.453c-1.312.25-2.64.266-3.984.047a10.282 10.282 0 0 1-3.75-1.5c-1.156-.781-2.187-1.812-3.094-3.093-.875-1.282-1.515-2.86-1.922-4.735-.187-2.312-.062-4.437.375-6.375.438-1.969 1.11-3.672 2.016-5.11.938-1.468 2.063-2.655 3.375-3.562a10.944 10.944 0 0 1 4.406-1.828c1.594-.281 3.282-.187 5.063.281 1.812.438 3.64 1.282 5.484 2.532.219 1.5.578 3.297 1.078 5.39a350.038 350.038 0 0 1 1.641 6.657 146.656 146.656 0 0 1 1.641 7.265c.5 2.5.843 4.922 1.031 7.266.219 2.344.219 4.547 0 6.609-.188 2.063-.719 3.844-1.594 5.344-.875 1.5-2.141 2.625-3.797 3.375-1.656.781-3.812 1.062-6.469.844zm-9.562-32.86c0 2.125.312 3.844.937 5.157.625 1.28 1.422 2.218 2.391 2.812.969.594 2.016.86 3.141.797a7.24 7.24 0 0 0 3.187-.938 7.827 7.827 0 0 0 2.625-2.343c.75-1 1.203-2.157 1.36-3.47a26.156 26.156 0 0 1-.422-2.062 61.97 61.97 0 0 0-.422-2.343 35.656 35.656 0 0 0-.516-2.297c-.187-.75-.39-1.406-.609-1.969-.625-.813-1.36-1.328-2.203-1.547-.813-.25-1.657-.265-2.532-.047-.843.188-1.687.563-2.531 1.125a10.074 10.074 0 0 0-2.203 1.969 9.935 9.935 0 0 0-1.594 2.484 6.289 6.289 0 0 0-.609 2.672zm28.312 11.578c0 .969-.265 1.625-.796 1.969-.5.313-1.063.422-1.688.328-.594-.125-1.156-.406-1.687-.843-.5-.438-.782-.954-.844-1.547a277.93 277.93 0 0 0 0-10.172 371.347 371.347 0 0 0-.281-11.39c.25-.845.671-1.376 1.265-1.595.625-.218 1.219-.14 1.781.235.563.344.985.984 1.266 1.922.313.906.281 2.078-.094 3.515 2-2.937 3.875-4.86 5.625-5.765 1.75-.907 3.36-1.094 4.828-.563 1.469.531 2.75 1.625 3.844 3.281 1.125 1.625 2.047 3.516 2.766 5.672a32.015 32.015 0 0 1 1.453 6.797c.281 2.344.297 4.5.047 6.469.031.812-.219 1.422-.75 1.828-.5.406-1.063.641-1.688.703a2.584 2.584 0 0 1-1.64-.469c-.5-.343-.719-.875-.657-1.593.219-3.938.125-7.125-.281-9.563-.375-2.437-.937-4.25-1.687-5.437-.719-1.22-1.563-1.891-2.532-2.016-.968-.125-1.953.14-2.953.797-.968.625-1.906 1.578-2.812 2.86-.875 1.28-1.594 2.718-2.156 4.312-.532 1.594-.86 3.297-.985 5.11-.125 1.78.094 3.5.656 5.155zm26.813.516c-.156.719-.516 1.234-1.078 1.547a3.71 3.71 0 0 1-1.828.469 3.884 3.884 0 0 1-1.828-.469c-.563-.313-.938-.75-1.125-1.313-.063-1.656-.11-3.53-.141-5.625 0-2.093-.031-4.187-.094-6.28a90.488 90.488 0 0 0-.375-6.095c-.156-1.937-.406-3.562-.75-4.875-.062-.687.047-1.265.328-1.734.282-.5.641-.844 1.078-1.031.469-.188.969-.172 1.5.047.563.187 1.063.609 1.5 1.265l.61 4.5c1.031-1.687 2.203-2.843 3.515-3.468 1.313-.625 2.547-.782 3.704-.47 1.187.313 2.218 1.063 3.093 2.25.875 1.188 1.407 2.75 1.594 4.688.063-.531.359-1.187.891-1.968.531-.782 1.203-1.563 2.015-2.344a16.864 16.864 0 0 1 2.766-2.156c1.031-.657 2.062-1.11 3.094-1.36 1.031-.281 2.031-.281 3 0 .968.25 1.812.89 2.531 1.922.375.594.687 1.422.937 2.484.282 1.063.5 2.25.657 3.563.187 1.281.343 2.64.468 4.078.157 1.406.297 2.766.422 4.078a86.24 86.24 0 0 0 .422 3.656c.156 1.125.36 2.032.61 2.72.093.937-.063 1.749-.469 2.437-.375.656-.844 1.093-1.406 1.312-.563.25-1.141.25-1.735 0-.594-.281-1.062-.875-1.406-1.781.125-4.75-.063-8.563-.563-11.438-.468-2.875-1.093-4.921-1.875-6.14-.781-1.219-1.656-1.672-2.625-1.36-.937.282-1.812 1.22-2.625 2.813-.781 1.594-1.437 3.766-1.968 6.516-.532 2.718-.766 5.906-.703 9.562-.219.625-.532 1.078-.938 1.359a2.053 2.053 0 0 1-1.266.422c-.468 0-.953-.125-1.453-.375a5.103 5.103 0 0 1-1.359-1.125c.094-3.281-.063-6.187-.469-8.718-.375-2.563-.875-4.594-1.5-6.094s-1.297-2.422-2.015-2.766c-.719-.375-1.36-.015-1.922 1.078-.563 1.063-.985 2.922-1.266 5.578-.25 2.625-.234 6.172.047 10.641zm50.297-3.188a8.1 8.1 0 0 1-2.25 2.672 10.243 10.243 0 0 1-3.094 1.547 12.114 12.114 0 0 1-3.562.516 12.52 12.52 0 0 1-3.563-.609 13.292 13.292 0 0 1-3.281-1.594 9.748 9.748 0 0 1-2.531-2.531 19.718 19.718 0 0 1-2.297-6.329c-.407-2.25-.391-4.375.047-6.375.437-2 1.328-3.75 2.671-5.25 1.344-1.5 3.219-2.5 5.625-3 2.282-.156 4.079.125 5.391.844 1.344.688 2.25 1.64 2.719 2.86.5 1.187.594 2.515.281 3.984-.281 1.469-.906 2.906-1.875 4.312-.969 1.375-2.25 2.61-3.844 3.704-1.593 1.062-3.437 1.796-5.531 2.203.625 1.03 1.328 1.78 2.109 2.25a6.841 6.841 0 0 0 2.532.797 7.916 7.916 0 0 0 2.578-.141 19.62 19.62 0 0 0 2.39-.75 91.68 91.68 0 0 0 1.969-.844c.563-.281.969-.469 1.219-.562 1.125-.344 1.891-.344 2.297 0 .406.343.406 1.109 0 2.297zm-12.422-16.734a10.456 10.456 0 0 0-1.969 1.922 10.132 10.132 0 0 0-1.359 2.297 10.144 10.144 0 0 0-.703 2.531 8.887 8.887 0 0 0 .093 2.578c1.313-.187 2.485-.593 3.516-1.218 1.063-.625 1.938-1.329 2.625-2.11.719-.812 1.234-1.64 1.547-2.484.312-.844.391-1.578.234-2.203-.125-.625-.515-1.078-1.172-1.36-.656-.281-1.593-.265-2.812.047zm20.016 19.406c0 .969-.266 1.625-.797 1.969-.5.313-1.063.422-1.688.328-.594-.125-1.156-.406-1.687-.843-.5-.438-.782-.954-.844-1.547a277.93 277.93 0 0 0 0-10.172 371.347 371.347 0 0 0-.281-11.39c.25-.845.672-1.376 1.265-1.595.625-.218 1.219-.14 1.782.235.562.344.984.984 1.265 1.922.313.906.281 2.078-.094 3.515 2-2.937 3.875-4.86 5.625-5.765 1.75-.907 3.36-1.094 4.829-.563 1.468.531 2.75 1.625 3.843 3.281 1.125 1.625 2.047 3.516 2.766 5.672a32.015 32.015 0 0 1 1.453 6.797c.281 2.344.297 4.5.047 6.469.031.812-.219 1.422-.75 1.828-.5.406-1.063.641-1.688.703a2.584 2.584 0 0 1-1.64-.469c-.5-.343-.719-.875-.656-1.593.218-3.938.125-7.125-.282-9.563-.375-2.437-.937-4.25-1.687-5.437-.719-1.22-1.563-1.891-2.531-2.016-.969-.125-1.954.14-2.954.797-.968.625-1.906 1.578-2.812 2.86-.875 1.28-1.594 2.718-2.156 4.312-.532 1.594-.86 3.297-.985 5.11-.125 1.78.094 3.5.657 5.155zm28.875-15.328c-.157.063-.219.422-.188 1.078.031.657.094 1.485.188 2.485l.421 3.375c.157 1.25.266 2.484.329 3.703a25.614 25.614 0 0 1-.047 3.469c-.063 1.062-.25 1.937-.563 2.625-.312.687-.781 1.109-1.406 1.265-.594.188-1.406 0-2.438-.562l-1.125-17.438c-.687-.125-1.25-.187-1.687-.187-.438 0-.859.031-1.266.094-.375.03-.797.078-1.265.14-.469.031-1.078.016-1.828-.047-.563-.343-.922-.781-1.079-1.312-.156-.531-.015-1.047.422-1.547.407-.531 1.141-.969 2.203-1.313 1.094-.375 2.594-.562 4.5-.562.219-.125.282-.594.188-1.406-.094-.844-.219-1.828-.375-2.953a58.197 58.197 0 0 1-.375-3.516c-.063-1.219.031-2.266.281-3.14.25-.876.719-1.47 1.406-1.782.719-.313 1.782-.14 3.188.516.031 1.75.062 3.218.094 4.406.031 1.187.062 2.187.093 3 .032.781.063 1.406.094 1.875.031.469.063.875.094 1.219.031.312.062.609.094.89.031.25.062.563.093.938.657.031 1.25.031 1.782 0 .562-.063 1.093-.11 1.593-.14.532-.063 1.063-.11 1.594-.141a17.836 17.836 0 0 1 1.828 0c.688.156 1.188.437 1.5.843.313.407.453.844.422 1.313 0 .469-.187.922-.562 1.36-.344.405-.813.718-1.407.937l-6.796.515z"/><path fill="#fff" fill-rule="evenodd" stroke="#1D877A" stroke-linecap="square" stroke-width="3" d="M746.047 262.396c.822-.879-24.198-38.01-28.177-39.385-3.978-1.374-86.045-1.374-87.531 0-.72.666 9.413 14.452 12.236 19.373 3.003 5.235 10.254 20.012 10.912 20.012 1.277 0 91.737.879 92.56 0z" clip-rule="evenodd"/><path stroke="#000" stroke-linecap="round" stroke-width="5" d="M748.936 287.984s8.295-.42 13.564-5.484 6-13 6-13M685.69 323.345s-5.362 3.377-6.895 6.36c-1.532 2.982-.986 9.955-.986 9.955l-7.646 2.822M705.436 323.345s5.362 3.377 6.895 6.36c1.532 2.982.986 9.955.986 9.955l7.646 2.822"/><path fill="#fff" stroke="#1D877A" stroke-width="3" d="M653.302 262.805l.03-.135c.12-.02.261-.041.426-.063.728-.095 1.773-.184 3.11-.266 2.666-.163 6.39-.292 10.832-.387 8.877-.192 20.555-.252 32.221-.211 11.664.04 23.304.182 32.102.394 4.401.106 8.081.229 10.693.365 1.31.068 2.333.139 3.038.21l.182.02c.071.479.146 1.146.223 1.991.167 1.819.335 4.37.492 7.424.314 6.104.582 14.165.708 22.294.126 8.132.11 16.308-.14 22.649-.126 3.174-.309 5.858-.557 7.834-.124.992-.261 1.768-.404 2.325a4.315 4.315 0 0 1-.176.562 6.403 6.403 0 0 1-.813.224c-.75.166-1.805.328-3.145.482-2.673.307-6.348.565-10.712.773-8.721.415-20.098.623-31.506.623-11.408 0-22.824-.208-31.622-.623-4.402-.208-8.127-.467-10.859-.774-1.369-.153-2.458-.316-3.247-.484a7.736 7.736 0 0 1-.885-.232c-.043-.015-.078-.029-.106-.04a3.58 3.58 0 0 1-.223-.578c-.168-.538-.332-1.297-.484-2.275-.303-1.949-.535-4.6-.701-7.745-.33-6.282-.389-14.39-.266-22.477.122-8.084.426-16.119.819-22.245.196-3.066.414-5.635.639-7.486.113-.929.225-1.649.331-2.149zm.144-.546a.136.136 0 0 1 .011-.026c.001.001-.003.01-.011.026z"/><path stroke="#000" stroke-linecap="round" stroke-width="4" d="M688.53 305.033s7.227 4.646 11.085 4.646c3.857 0 11.085-4.646 11.085-4.646M686.69 287.984v4.5M712.2 287.984v4.5"/><path fill="#fff" fill-rule="evenodd" stroke="#1D877A" stroke-linecap="square" stroke-width="3" d="M630.364 224.652c-2.184.94 0 66.578 0 66.578s21.425 37.482 22.401 36.058c.976-1.424 0-12.136 0-30.174s.943-34.548.943-34.548-21.159-38.853-23.344-37.914z" clip-rule="evenodd"/><path stroke="#1D877A" stroke-linecap="square" stroke-width="3" d="M641.679 241.529h90.527"/><path stroke="#000" stroke-linecap="round" stroke-width="5" d="M639.5 281.5s-10.5-3-14-7-5.5-14-5.5-14"/><path stroke="#372822" stroke-linecap="round" stroke-width="10" d="M785.828 180.834l-15.018 94.818"/><path fill="#fff" stroke="#372822" stroke-width="4" d="M895.46 137.262L699.897 106.29l-13.61 85.928 195.563 30.974z"/><path fill="#000" d="M751.095 176.164c-1.421-1.016-2.47-2.385-3.147-4.105-.676-1.721-1.044-3.599-1.101-5.633-.058-2.034.167-4.15.673-6.347a30.784 30.784 0 0 1 2.192-6.345 28.324 28.324 0 0 1 3.538-5.562c1.374-1.681 2.881-3.008 4.523-3.982 1.677-1 3.442-1.559 5.296-1.677 1.889-.143 3.84.324 5.853 1.402.355.151.653.467.893.948.276.455.404.95.382 1.485.015.508-.154.972-.505 1.391-.315.393-.868.59-1.66.591a7.35 7.35 0 0 0-1.944-1.209 5.652 5.652 0 0 0-2.254-.452c-.76.006-1.563.179-2.408.52-.814.346-1.613.899-2.398 1.661-2.587 3.545-4.46 6.681-5.619 9.409-1.155 2.696-1.809 5.028-1.963 6.997-.118 1.943.167 3.539.855 4.787.689 1.248 1.572 2.163 2.651 2.745a7.053 7.053 0 0 0 3.52.843c1.3-.016 2.482-.288 3.547-.815a6.489 6.489 0 0 0 2.562-2.394c.644-1.069.862-2.348.655-3.836-.221-.604-.658-1.037-1.313-1.299a14.166 14.166 0 0 0-1.971-.74 11.181 11.181 0 0 1-1.864-.817c-.552-.309-.854-.8-.906-1.472-.085-1.058.021-1.832.321-2.322.299-.491.723-.772 1.272-.843.554-.102 1.176-.035 1.867.201.726.21 1.442.481 2.149.815.742.307 1.435.623 2.08.946.676.329 1.24.56 1.694.696.742.307 1.483.424 2.222.352a22.803 22.803 0 0 1 2.164-.18c.673-.051 1.29.046 1.852.294.567.216 1.026.811 1.378 1.784.226.574.196 1.059-.088 1.457-.28.367-.691.666-1.234.896a7.73 7.73 0 0 1-1.638.453c-.584.097-1.052.15-1.401.158a3.738 3.738 0 0 1-.802-.032 2.633 2.633 0 0 0-.694-.11c.129 1.982-.142 3.695-.814 5.139-.636 1.418-1.533 2.589-2.692 3.512-1.123.898-2.415 1.564-3.876 1.997-1.46.433-2.92.66-4.379.683a14.76 14.76 0 0 1-4.189-.522c-1.338-.338-2.432-.828-3.279-1.468zm30.608 3.614c-.294.459-.744.8-1.348 1.02a3.552 3.552 0 0 1-1.733.153 3.062 3.062 0 0 1-1.586-.773c-.44-.418-.689-1.043-.747-1.875-.013-.318.072-.953.254-1.905.218-.978.451-2.349.699-4.113.253-1.795.51-4.017.771-6.665.266-2.679.474-5.889.624-9.63.741-.484 1.392-.602 1.954-.355.593.252 1.095.679 1.506 1.282.41.603.709 1.315.895 2.135.192.79.251 1.511.18 2.165.247-.562.666-1.113 1.258-1.652a9.576 9.576 0 0 1 2.177-1.459 12.679 12.679 0 0 1 2.666-.954 10.378 10.378 0 0 1 2.934-.247 7.875 7.875 0 0 1 2.873.74c.944.434 1.771 1.103 2.482 2.007a1.828 1.828 0 0 1-.278.857 3.642 3.642 0 0 1-.648.799c-.26.244-.547.452-.859.624a2.51 2.51 0 0 1-.892.238c-1.731-.654-3.264-.865-4.598-.633-1.298.205-2.424.723-3.378 1.553-.954.83-1.742 1.907-2.363 3.233a23.96 23.96 0 0 0-1.523 4.22 40.497 40.497 0 0 0-.933 4.693 63.744 63.744 0 0 0-.387 4.542zm19.904.779c.124.621.095 1.202-.086 1.743a3.414 3.414 0 0 1-.744 1.401 3.099 3.099 0 0 1-1.226.85 2.09 2.09 0 0 1-1.301.126c-.427-.1-.815-.351-1.162-.754-.312-.429-.512-1.062-.601-1.899-.028-.225-.006-.76.064-1.603.106-.869.234-1.877.384-3.024s.312-2.371.487-3.672c.179-1.332.344-2.572.494-3.719.15-1.147.275-2.139.376-2.978.106-.869.148-1.432.125-1.688.024-1.547.202-2.768.533-3.665.337-.928.727-1.593 1.171-1.998.48-.43.969-.622 1.467-.574.504.016.932.211 1.284.583.384.377.647.909.792 1.596.149.657.109 1.41-.121 2.259l-1.936 17.016zm.568-25.158c-.596-.632-.922-1.269-.979-1.911-.02-.668.116-1.231.411-1.691a2.22 2.22 0 0 1 1.279-.889c.559-.133 1.11-.014 1.652.357.621.478.954 1.068 1.001 1.772.047.703-.084 1.331-.393 1.883-.304.522-.741.88-1.309 1.074-.533.169-1.087-.029-1.662-.595zm9.619 30.663c-1.928-.811-3.428-2.03-4.5-3.655a13.028 13.028 0 0 1-1.961-5.294c-.263-1.94-.155-3.916.322-5.928.477-2.013 1.269-3.818 2.376-5.414a12.784 12.784 0 0 1 4.315-3.873c1.739-.99 3.737-1.417 5.993-1.281 1.095.078 2.235.275 3.419.589 1.184.314 2.231.796 3.14 1.446l.843-9.216c.059-.37.365-.606.919-.708a4.978 4.978 0 0 1 1.842.054 3.816 3.816 0 0 1 1.679.788c.507.397.709.919.606 1.567l-1.97 31.913c-.031.596-.258 1.035-.683 1.316-.393.286-.859.433-1.399.443a3.288 3.288 0 0 1-1.513-.335c-.5-.237-.826-.574-.979-1.009-.047-.103-.105-.333-.175-.692a36.585 36.585 0 0 0-.148-1.163c-.06-.421-.112-.793-.156-1.116-.043-.323-.081-.488-.111-.492-1.395 1.013-2.712 1.737-3.952 2.174-1.204.41-2.317.645-3.339.705-1.017.029-1.922-.051-2.714-.24-.762-.184-1.38-.377-1.854-.579zm-1.916-10.981c.164 1.766.517 3.23 1.061 4.392.548 1.131 1.203 1.994 1.963 2.588a5.208 5.208 0 0 0 2.597.981 7.214 7.214 0 0 0 2.917-.439c.974-.352 1.928-.882 2.862-1.588a12.89 12.89 0 0 0 2.545-2.587 4.613 4.613 0 0 0 .757-1.778c.174-.7.258-1.431.252-2.191.024-.755-.013-1.52-.111-2.295a116.36 116.36 0 0 0-.204-2.311c-.595-1.834-1.395-3.179-2.398-4.034-.973-.85-2.022-1.317-3.148-1.4-1.121-.115-2.249.118-3.385.697-1.131.549-2.14 1.323-3.026 2.321-.886.999-1.593 2.168-2.121 3.509a9.421 9.421 0 0 0-.561 4.135z"/></svg>
