<svg xmlns="http://www.w3.org/2000/svg" viewBox="0 0 2840 2842"><path d="M0 2444.5V2047h793.75v795H0v-397.5zm681.25 0v-283.75h-567.5v567.5h567.5V2444.5zm-455 0v-170h340v340h-340v-170zm682.5 113.75V2274.5H1250v-113.75H908.75v-227.5H567.5V1819.5H453.75v-113.75H340V1592H113.75v341.25H0v-795h226.25V1024.5H0V910.75h567.5v113.75h113.75V910.75H1250v113.75h-113.75V1252H1250v-113.75h226.25V1024.5h-112.5V683.25h112.5v341.25H1590V910.75h113.75V797H1590V569.5h-226.25V455.75H1250V797h-113.75V455.75h-227.5V342h113.75V228.25H908.75v-112.5h113.75V2h113.75v226.25H1250v-112.5h340V2h341.25v340H1817.5V228.25h-453.75v227.5h112.5V342h227.5v113.75H1590V569.5h227.5V455.75h113.75V797H1817.5v227.5h113.75V910.75H2045v227.5h113.75v-227.5h113.75V1252h113.75v-113.75H2500V1252h-113.75v226.25H2500v-112.5h226.25V1252h-112.5V910.75h112.5v227.5H2840v340h-113.75V1592H2840v227.5h-113.75v-113.75h-112.5v-227.5H2500v341.25h113.75V2047H2840v795h-795v-113.75h-341.25V2842H1590v-113.75h-113.75V2842h-112.5v-226.25h112.5V2502h-112.5v-113.75H1022.5V2502h113.75v226.25H1250V2842H908.75v-283.75zm795 113.75v-56.25h113.75v-227.5h-113.75V2274.5H1590v-113.75h227.5V2047h-113.75v-113.75h113.75v-227.5H1590v113.75h-113.75v113.75h-112.5v-227.5h112.5V1592h-112.5v-113.75H1590V1592h227.5v-113.75h113.75V1592H2045v113.75h-113.75v113.75h455v113.75H2500V1819.5h-113.75v-341.25H2272.5v-112.5h-113.75V1252H2045v-113.75h-227.5V1024.5H1590v113.75h-113.75V1252h-112.5v226.25H1250v-112.5h-113.75v112.5H1250v227.5H908.75V1592H795v-113.75h227.5v-112.5H908.75v-227.5H795V1024.5H681.25v113.75H795V1252H681.25v113.75H795v112.5H681.25V1592H795v113.75H567.5v113.75h341.25v113.75H1250V2047h226.25v113.75h-112.5v227.5h340v227.5H1590v112.5h113.75V2672zM1590 1876.375V1819.5h113.75v113.75H1590v-56.875zm568.75-227.5V1592h113.75v113.75h-113.75v-56.875zm-455-226.875v-56.25H1590V1252h113.75v-113.75h113.75V1252h-113.75v113.75h113.75v112.5h-113.75V1422zm341.25 0v-56.25h113.75v112.5H2045V1422zm681.25 1193.125V2502h-112.5v113.75H2500v-227.5h-113.75V2502H2272.5v113.75H2500v112.5h226.25v-113.125zm-567.5-56.25V2502H2045v113.75h113.75v-56.875zm113.75-455V1933.25h-341.25v341.25h341.25v-170.625zm-227.5 0V2047h113.75v113.75H2045v-56.875zm681.25 113.75v-56.875H2500v113.75h226.25v-56.875zm-2272.5-682.5v-56.875H340v-112.5h227.5v-227.5H453.75V1024.5H340v341.25H113.75v112.5H340V1592h113.75v-56.875zm1363.75-795V683.25h-113.75V797h113.75v-56.875zM1250 398.875V342h-113.75v113.75H1250v-56.875zm1136.25 568.75V910.75H2500v113.75h-113.75v-56.875zM908.75 683.25V569.5h113.75V797H908.75V683.25zM0 398.25V.75h793.75v795H0v-397.5zm681.25 0V114.5h-567.5V682h567.5V398.25zm-455 0v-170h340v340h-340v-170zm1820 0V.75H2840v795h-793.75v-397.5zm681.25 0V114.5H2160V682h567.5V398.25zm-455 0v-170h340v340h-340v-170z"/></svg>
