<svg xmlns="http://www.w3.org/2000/svg" viewBox="0 0 2217 1730"><g fill="none" fill-rule="evenodd"><path stroke="#BD0FE1" stroke-width="20" d="M200.38 197.844V1594.29s39.808 99.374 151.87 99.374c112.063 0 148.13-99.375 148.13-99.375V118.11S541.187 10.72 651.405 10.72c110.22 0 148.973 107.39 148.973 107.39l-.005 1476.18s30.406 99.374 150 99.374 150-99.375 150-99.375V118.11s39.094-107.39 150-107.39 150 107.39 150 107.39v1476.18s39.125 99.374 153.156 99.374c114.03 0 145-99.375 145-99.375V118.11s38.83-107.39 158.87-107.39 159.38 107.39 159.38 107.39v1575.554"/><path fill="#BD0FE1" d="M2065.027 1600.66h-96.132l48.066 129.106"/><g transform="translate(.375 150.594)"><rect width="399.002" height="371.196" x=".577" y=".857" fill="#50E3C2" rx="50"/><g fill-rule="nonzero"><path fill="#FFF" stroke="#000" stroke-width="5" d="M183.685 123.815c-2.876-19.76-10.852-47.05-11.774-60.058-.81-11.5 5.68-19.7 15.69-24.25 3.62-1.644 7.86-2.55 12.32-2.55s8.71.906 12.32 2.55c10.01 4.55 16.5 12.75 15.68 24.25-.92 13.008-8.89 40.297-11.77 60.058m-61.52 16.47c-12.37-15.675-32.92-35.32-40.22-46.125-6.45-9.552-4.93-19.9 1.46-28.84 2.31-3.234 5.54-6.14 9.4-8.37 3.87-2.23 7.99-3.567 11.95-3.952 10.94-1.062 20.67 2.793 25.71 13.16 5.71 11.726 12.45 39.347 19.83 57.9m-45.29 78.45c-19.76 2.877-47.05 10.852-60.06 11.774-11.5.816-19.7-5.678-24.25-15.68-1.64-3.62-2.55-7.862-2.55-12.322 0-4.46.91-8.703 2.55-12.32 4.55-10.004 12.75-16.497 24.25-15.682 13.01.922 40.3 8.898 60.06 11.774m.26-.958c-18.55-7.39-46.17-14.127-57.9-19.832-10.37-5.045-14.22-14.768-13.16-25.706.38-3.955 1.72-8.083 3.95-11.946 2.23-3.862 5.14-7.083 8.37-9.394 8.94-6.39 19.29-7.912 28.84-1.456 10.8 7.303 30.45 27.855 46.12 40.226m0 90.59c-15.68 12.372-35.33 32.924-46.13 40.226-9.55 6.456-19.9 4.933-28.84-1.456-3.23-2.31-6.14-5.53-8.37-9.394-2.23-3.863-3.56-7.99-3.95-11.946-1.06-10.938 2.79-20.66 13.16-25.705 11.73-5.7 39.35-12.44 57.9-19.83m45.04 45.04c-7.39 18.55-14.12 46.17-19.83 57.9-5.05 10.37-14.77 14.22-25.71 13.16-3.95-.38-8.08-1.72-11.94-3.95-3.86-2.23-7.08-5.13-9.39-8.37-6.39-8.94-7.91-19.29-1.45-28.84 7.3-10.8 27.85-30.45 40.22-46.12m61.52 16.49c2.88 19.76 10.86 47.05 11.78 60.06.81 11.5-5.68 19.7-15.68 24.25-3.61 1.65-7.86 2.55-12.32 2.55s-8.7-.9-12.32-2.55c-10-4.55-16.49-12.75-15.68-24.25.93-13 8.9-40.29 11.78-60.05m61.52-16.48c12.37 15.68 32.92 35.32 40.22 46.13 6.46 9.56 4.94 19.9-1.45 28.84-2.31 3.24-5.53 6.14-9.39 8.37-3.86 2.23-7.99 3.57-11.94 3.95-10.94 1.07-20.66-2.79-25.7-13.15-5.7-11.73-12.44-39.35-19.83-57.9m45.04-45.03c18.55 7.39 46.17 14.13 57.9 19.83 10.37 5.04 14.22 14.77 13.16 25.71-.38 3.95-1.72 8.08-3.95 11.94-2.23 3.86-5.14 7.08-8.37 9.39-8.94 6.39-19.29 7.91-28.84 1.46-10.81-7.3-30.45-27.85-46.13-40.22m16.47-61.51c19.76-2.87 47.05-10.85 60.06-11.77 11.5-.81 19.7 5.68 24.25 15.68 1.65 3.62 2.55 7.86 2.55 12.32s-.9 8.71-2.55 12.32c-4.55 10.01-12.75 16.5-24.25 15.69-13.01-.92-40.3-8.9-60.06-11.77m-45.29-78.47c7.39-18.55 14.13-46.17 19.83-57.89 5.04-10.37 14.77-14.22 25.7-13.16 3.96.38 8.09 1.72 11.95 3.95 3.86 2.23 7.09 5.14 9.4 8.37 6.39 8.94 7.91 19.29 1.46 28.84-7.3 10.8-27.85 30.45-40.22 46.12m.72.72c15.68-12.37 35.32-32.92 46.12-40.22 9.56-6.46 19.9-4.93 28.84 1.45 3.24 2.31 6.14 5.53 8.37 9.4 2.23 3.86 3.57 7.99 3.95 11.95 1.07 10.94-2.79 20.66-13.16 25.71-11.72 5.71-39.34 12.45-57.89 19.83"/><path fill="#FFD800" stroke="#020000" stroke-width="6" d="M263.886 186.29c0 35.33-28.64 63.97-63.97 63.97s-63.97-28.64-63.97-63.97 28.64-63.97 63.97-63.97 63.97 28.64 63.97 63.97z"/></g></g><g transform="translate(600.375 150.594)"><rect width="399.002" height="572.047" x=".577" y=".813" fill="#50E3C2" rx="50"/><g fill-rule="nonzero"><path fill="#FFF" stroke="#000" stroke-width="5" d="M183.685 224.195c-2.876-19.76-10.852-47.05-11.774-60.057-.81-11.5 5.68-19.7 15.69-24.25 3.62-1.644 7.86-2.55 12.32-2.55s8.71.906 12.32 2.55c10.01 4.55 16.5 12.75 15.68 24.25-.92 13.008-8.89 40.297-11.77 60.057m-61.52 16.47c-12.37-15.674-32.92-35.32-40.22-46.124-6.45-9.55-4.93-19.9 1.46-28.84 2.31-3.23 5.54-6.14 9.4-8.37 3.87-2.23 7.99-3.56 11.95-3.95 10.94-1.06 20.67 2.79 25.71 13.16 5.71 11.73 12.45 39.35 19.83 57.9m-45.29 78.45c-19.76 2.88-47.05 10.85-60.06 11.78-11.5.82-19.7-5.68-24.25-15.68-1.64-3.61-2.55-7.86-2.55-12.32s.91-8.7 2.55-12.32c4.55-10 12.75-16.49 24.25-15.68 13.01.92 40.3 8.9 60.06 11.78m.26-.96c-18.55-7.39-46.17-14.12-57.9-19.83-10.37-5.04-14.22-14.76-13.16-25.7.38-3.95 1.72-8.08 3.95-11.94 2.23-3.86 5.14-7.08 8.37-9.39 8.94-6.39 19.29-7.91 28.84-1.45 10.8 7.31 30.45 27.86 46.12 40.23m0 90.59c-15.67 12.37-35.32 32.92-46.12 40.23-9.55 6.46-19.9 4.93-28.84-1.45-3.23-2.31-6.14-5.54-8.37-9.4-2.23-3.86-3.57-7.99-3.95-11.94-1.06-10.94 2.79-20.66 13.16-25.7 11.72-5.7 39.34-12.44 57.9-19.83m45.03 45.04c-7.39 18.55-14.12 46.17-19.83 57.9-5.05 10.37-14.77 14.22-25.71 13.16-3.95-.39-8.08-1.72-11.94-3.95-3.86-2.23-7.08-5.14-9.39-8.37-6.39-8.94-7.91-19.29-1.45-28.84 7.31-10.8 27.86-30.45 40.23-46.12m61.53 16.49c2.88 19.76 10.85 47.05 11.78 60.06.81 11.5-5.68 19.7-15.68 24.25-3.61 1.65-7.86 2.55-12.32 2.55s-8.7-.9-12.32-2.55c-10-4.55-16.49-12.75-15.68-24.25.92-13.01 8.9-40.3 11.78-60.06m61.52-16.48c12.37 15.68 32.92 35.32 40.22 46.13 6.46 9.56 4.94 19.9-1.45 28.84-2.31 3.24-5.53 6.15-9.39 8.38-3.86 2.23-7.99 3.57-11.94 3.95-10.94 1.07-20.66-2.79-25.71-13.16-5.7-11.72-12.44-39.34-19.83-57.89m45.04-45.04c18.55 7.39 46.17 14.13 57.9 19.84 10.37 5.05 14.22 14.77 13.16 25.71-.39 3.96-1.72 8.08-3.95 11.95-2.23 3.86-5.14 7.09-8.37 9.4-8.94 6.39-19.29 7.91-28.84 1.46-10.81-7.3-30.45-27.854-46.13-40.225m16.48-61.505c19.76-2.88 47.05-10.85 60.06-11.77 11.5-.81 19.7 5.68 24.25 15.68 1.64 3.62 2.55 7.86 2.55 12.32s-.91 8.71-2.55 12.32c-4.55 10.01-12.75 16.5-24.25 15.682-13.01-.93-40.3-8.9-60.06-11.78m-45.29-78.47c7.39-18.55 14.13-46.17 19.83-57.9 5.05-10.37 14.77-14.22 25.71-13.16 3.96.38 8.09 1.72 11.95 3.95 3.86 2.23 7.08 5.14 9.39 8.37 6.39 8.94 7.91 19.29 1.45 28.84-7.3 10.8-27.85 30.443-40.22 46.12m.73.71c15.67-12.37 35.32-32.92 46.12-40.22 9.55-6.46 19.9-4.937 28.84 1.45 3.23 2.31 6.14 5.53 8.37 9.39 2.23 3.86 3.56 7.99 3.95 11.95 1.06 10.94-2.79 20.66-13.16 25.707-11.73 5.71-39.35 12.443-57.9 19.832"/><path fill="#FFD800" stroke="#020000" stroke-width="6" d="M263.886 286.67c0 35.33-28.64 63.97-63.97 63.97s-63.97-28.64-63.97-63.97 28.64-63.97 63.97-63.97 63.97 28.64 63.97 63.97z"/></g></g><g transform="translate(.375 1135.594)"><rect width="399.002" height="433.829" x=".577" y=".03" fill="#50E3C2" rx="50"/><g fill-rule="nonzero"><path fill="#FFF" stroke="#000" stroke-width="5" d="M184.06 154.678c-2.877-19.76-10.853-47.05-11.775-60.057-.815-11.5 5.678-19.7 15.682-24.25 3.617-1.64 7.86-2.55 12.32-2.55s8.703.91 12.32 2.55c10.004 4.55 16.497 12.75 15.682 24.25-.93 13.01-8.9 40.3-11.78 60.06m-61.52 16.47c-12.37-15.67-32.92-35.32-40.23-46.12-6.46-9.55-4.94-19.9 1.45-28.84 2.31-3.23 5.53-6.14 9.39-8.37 3.86-2.23 7.99-3.56 11.94-3.95 10.94-1.06 20.66 2.79 25.7 13.16 5.71 11.73 12.44 39.35 19.83 57.9m-45.29 78.46c-19.76 2.88-47.05 10.85-60.06 11.78-11.5.82-19.7-5.68-24.25-15.68-1.64-3.62-2.55-7.86-2.55-12.32s.91-8.7 2.55-12.32c4.55-10 12.75-16.49 24.25-15.68 13.01.92 40.3 8.9 60.06 11.78m.26-.96c-18.55-7.39-46.18-14.12-57.9-19.83-10.37-5.04-14.23-14.77-13.16-25.71.38-3.95 1.72-8.08 3.95-11.94 2.23-3.86 5.13-7.08 8.37-9.39 8.94-6.39 19.29-7.91 28.84-1.45 10.8 7.31 30.45 27.86 46.12 40.23m0 90.59c-15.68 12.37-35.32 32.93-46.13 40.23-9.55 6.46-19.9 4.94-28.84-1.45-3.24-2.31-6.14-5.53-8.37-9.39-2.23-3.86-3.57-7.99-3.95-11.94-1.07-10.94 2.79-20.66 13.16-25.7 11.72-5.71 39.34-12.44 57.9-19.83m45.03 45.04c-7.39 18.56-14.13 46.18-19.83 57.9-5.05 10.37-14.77 14.22-25.71 13.16-3.96-.38-8.09-1.72-11.95-3.95-3.86-2.23-7.08-5.14-9.39-8.37-6.39-8.94-7.91-19.29-1.46-28.84 7.31-10.8 27.86-30.45 40.23-46.12m61.52 16.49c2.87 19.76 10.85 47.05 11.77 60.06.81 11.5-5.68 19.7-15.69 24.25-3.61 1.65-7.86 2.55-12.32 2.55s-8.7-.9-12.32-2.55c-10-4.55-16.5-12.75-15.68-24.25.92-13.01 8.9-40.29 11.77-60.06m61.52-16.48c12.37 15.67 32.92 35.32 40.22 46.12 6.45 9.56 4.93 19.9-1.46 28.84-2.31 3.24-5.53 6.14-9.39 8.37-3.86 2.23-7.99 3.57-11.95 3.95-10.94 1.07-20.66-2.79-25.71-13.16-5.708-11.72-12.446-39.34-19.83-57.89m45.04-45.03c18.55 7.39 46.17 14.13 57.9 19.84 10.36 5.04 14.22 14.77 13.16 25.7-.39 3.96-1.72 8.08-3.95 11.95-2.23 3.86-5.14 7.08-8.37 9.39-8.94 6.39-19.29 7.91-28.84 1.46-10.81-7.3-30.45-27.85-46.13-40.23M262.73 201c19.76-2.875 47.05-10.85 60.06-11.773 11.5-.813 19.7 5.68 24.25 15.68 1.64 3.62 2.55 7.86 2.55 12.32s-.91 8.71-2.55 12.32c-4.55 10.01-12.75 16.5-24.25 15.69-13.01-.92-40.3-8.9-60.06-11.774M217.443 155c7.39-18.55 14.125-46.17 19.83-57.9 5.047-10.37 14.77-14.222 25.707-13.16 3.952.386 8.08 1.72 11.943 3.95 3.86 2.23 7.08 5.14 9.39 8.37 6.39 8.94 7.91 19.29 1.458 28.84-7.31 10.807-27.86 30.45-40.23 46.127m.72.71c15.68-12.37 35.32-32.93 46.13-40.23 9.55-6.452 19.9-4.93 28.84 1.46 3.23 2.31 6.14 5.53 8.37 9.39 2.23 3.867 3.57 7.99 3.95 11.95 1.06 10.938-2.79 20.66-13.16 25.706-11.73 5.704-39.35 12.44-57.9 19.83"/><path fill="#FFD800" stroke="#020000" stroke-width="6" d="M264.26 217.153c0 35.33-28.64 63.97-63.97 63.97s-63.97-28.64-63.97-63.97 28.64-63.97 63.97-63.97 63.97 28.64 63.97 63.97z"/></g></g><g transform="translate(600.375 782.453)"><rect width="399.002" height="786.313" x=".577" y=".547" fill="#50E3C2" rx="50"/><g fill-rule="nonzero"><path fill="#FFF" stroke="#000" stroke-width="5" d="M184.06 331.437c-2.877-19.76-10.853-47.05-11.775-60.058-.815-11.51 5.678-19.71 15.682-24.25 3.617-1.65 7.86-2.56 12.32-2.56s8.703.9 12.32 2.55c10.004 4.54 16.497 12.74 15.682 24.25-.93 13-8.9 40.29-11.78 60.05m-61.52 16.47c-12.37-15.68-32.92-35.32-40.23-46.13-6.46-9.56-4.94-19.9 1.45-28.84 2.31-3.24 5.53-6.14 9.39-8.37 3.86-2.23 7.99-3.57 11.94-3.96 10.94-1.06 20.66 2.79 25.7 13.16 5.71 11.72 12.44 39.34 19.83 57.9m-45.29 78.45c-19.76 2.87-47.05 10.85-60.06 11.77-11.5.81-19.7-5.68-24.25-15.68-1.64-3.62-2.55-7.86-2.55-12.32s.91-8.71 2.55-12.32c4.55-10.01 12.75-16.5 24.25-15.69 13.01.92 40.3 8.9 60.06 11.78m.26-.96c-18.55-7.39-46.18-14.13-57.9-19.83-10.37-5.05-14.23-14.77-13.16-25.71.38-3.96 1.72-8.09 3.95-11.95 2.23-3.87 5.13-7.09 8.37-9.4 8.94-6.39 19.29-7.91 28.84-1.46 10.8 7.3 30.45 27.85 46.12 40.22m0 90.59c-15.68 12.37-35.32 32.92-46.13 40.22-9.55 6.46-19.9 4.93-28.84-1.46-3.24-2.31-6.14-5.53-8.37-9.39-2.23-3.86-3.57-7.99-3.95-11.95-1.07-10.94 2.79-20.66 13.16-25.7 11.72-5.71 39.34-12.44 57.9-19.83m45.03 45.04c-7.39 18.55-14.13 46.17-19.83 57.89-5.05 10.37-14.77 14.22-25.71 13.16-3.96-.39-8.09-1.72-11.95-3.95-3.86-2.23-7.08-5.14-9.39-8.37-6.39-8.94-7.91-19.29-1.46-28.84 7.31-10.81 27.86-30.45 40.23-46.13m61.52 16.49c2.87 19.76 10.85 47.05 11.77 60.05.81 11.5-5.68 19.7-15.69 24.25-3.61 1.64-7.86 2.55-12.32 2.55s-8.7-.91-12.32-2.55c-10-4.55-16.5-12.75-15.68-24.25.92-13.01 8.9-40.3 11.77-60.06m61.52-16.48c12.37 15.67 32.92 35.32 40.22 46.12 6.45 9.55 4.93 19.9-1.46 28.84-2.31 3.23-5.53 6.14-9.39 8.37-3.86 2.23-7.99 3.56-11.95 3.95-10.94 1.06-20.66-2.79-25.71-13.16-5.708-11.73-12.446-39.35-19.83-57.9m45.04-45.03c18.55 7.39 46.17 14.12 57.9 19.83 10.36 5.04 14.22 14.76 13.16 25.7-.39 3.95-1.72 8.08-3.95 11.95-2.23 3.86-5.14 7.08-8.37 9.39-8.94 6.39-19.29 7.91-28.84 1.46-10.81-7.3-30.45-27.86-46.13-40.23m16.48-61.51c19.76-2.87 47.05-10.85 60.06-11.77 11.5-.81 19.7 5.68 24.25 15.68 1.64 3.62 2.55 7.86 2.55 12.32s-.91 8.7-2.55 12.32c-4.55 10.01-12.75 16.5-24.25 15.68-13.01-.92-40.3-8.89-60.06-11.77m-45.27-78.46c7.39-18.55 14.13-46.17 19.83-57.89 5.04-10.37 14.77-14.225 25.7-13.16 3.952.38 8.08 1.72 11.943 3.95 3.86 2.23 7.082 5.135 9.392 8.37 6.39 8.94 7.91 19.29 1.46 28.84-7.3 10.803-27.85 30.45-40.22 46.123m.72.71c15.68-12.37 35.32-32.92 46.13-40.225 9.55-6.46 19.9-4.93 28.84 1.46 3.23 2.31 6.14 5.53 8.37 9.39 2.23 3.86 3.57 7.99 3.95 11.94 1.06 10.93-2.79 20.66-13.16 25.7-11.73 5.7-39.35 12.44-57.9 19.83"/><path fill="#FFD800" stroke="#020000" stroke-width="6" d="M264.26 393.912c0 35.33-28.64 63.97-63.97 63.97s-63.97-28.64-63.97-63.97 28.64-63.97 63.97-63.97 63.97 28.64 63.97 63.97z"/></g></g><g transform="translate(.375 589.594)"><rect width="399.002" height="478.639" x=".577" y=".857" fill="#50E3C2" rx="50"/><g fill-rule="nonzero"><path fill="#FFF" stroke="#000" stroke-width="5" d="M183.685 177.536c-2.876-19.76-10.852-47.05-11.774-60.058-.81-11.5 5.68-19.7 15.69-24.25 3.62-1.644 7.86-2.55 12.32-2.55s8.71.906 12.32 2.55c10.01 4.55 16.5 12.75 15.68 24.25-.92 13.008-8.89 40.297-11.77 60.058m-61.52 16.47c-12.37-15.675-32.92-35.32-40.22-46.125-6.45-9.55-4.93-19.9 1.46-28.84 2.31-3.23 5.54-6.14 9.4-8.37 3.87-2.23 7.99-3.56 11.95-3.95 10.94-1.06 20.67 2.8 25.71 13.16 5.71 11.73 12.45 39.35 19.83 57.9m-45.29 78.45c-19.76 2.88-47.05 10.85-60.06 11.78-11.5.82-19.7-5.68-24.25-15.68-1.64-3.61-2.55-7.86-2.55-12.32s.91-8.7 2.55-12.32C57.7 217.68 65.9 211.19 77.4 212c13.005.92 40.295 8.9 60.055 11.78m.256-.95c-18.55-7.39-46.17-14.126-57.9-19.83-10.37-5.045-14.22-14.768-13.16-25.705.39-3.96 1.72-8.09 3.95-11.95 2.23-3.87 5.14-7.09 8.37-9.4 8.94-6.39 19.29-7.914 28.84-1.457 10.8 7.3 30.45 27.854 46.12 40.225m0 90.59c-15.68 12.37-35.32 32.926-46.13 40.228-9.55 6.46-19.9 4.94-28.84-1.45-3.23-2.31-6.14-5.53-8.37-9.39-2.23-3.86-3.57-7.99-3.95-11.95-1.06-10.93 2.79-20.66 13.16-25.7 11.73-5.7 39.35-12.44 57.9-19.83m45.04 45.04c-7.39 18.55-14.12 46.17-19.83 57.9-5.05 10.37-14.77 14.22-25.71 13.16-3.95-.38-8.08-1.72-11.94-3.95-3.86-2.23-7.08-5.13-9.39-8.37-6.39-8.94-7.91-19.29-1.46-28.84 7.31-10.8 27.86-30.45 40.23-46.12m61.52 16.49c2.88 19.76 10.86 47.05 11.78 60.06.81 11.5-5.68 19.7-15.68 24.25-3.61 1.65-7.86 2.55-12.32 2.55s-8.7-.9-12.32-2.55c-10-4.55-16.49-12.75-15.68-24.25.92-13.01 8.9-40.3 11.78-60.06m61.52-16.48c12.37 15.68 32.92 35.32 40.23 46.13 6.46 9.56 4.94 19.9-1.45 28.85-2.31 3.24-5.53 6.14-9.39 8.37-3.86 2.23-7.99 3.57-11.95 3.95-10.93 1.07-20.66-2.79-25.7-13.16-5.7-11.72-12.44-39.34-19.83-57.9m45.04-45.03c18.55 7.39 46.18 14.13 57.9 19.83 10.37 5.05 14.22 14.77 13.16 25.71-.38 3.96-1.72 8.09-3.95 11.95-2.23 3.86-5.14 7.08-8.37 9.39-8.94 6.39-19.29 7.92-28.84 1.46-10.81-7.3-30.45-27.85-46.13-40.22m16.48-61.5c19.76-2.88 47.05-10.86 60.06-11.78 11.5-.82 19.7 5.68 24.25 15.68 1.65 3.62 2.55 7.86 2.55 12.32s-.9 8.7-2.55 12.32c-4.55 10-12.75 16.5-24.25 15.68-13-.92-40.29-8.9-60.05-11.77m-45.33-78.5c7.39-18.55 14.13-46.17 19.84-57.9 5.05-10.37 14.77-14.22 25.71-13.16 3.96.39 8.08 1.72 11.95 3.95 3.87 2.23 7.09 5.14 9.4 8.37 6.39 8.94 7.91 19.29 1.45 28.84-7.31 10.81-27.86 30.45-40.23 46.13m.72.71c15.67-12.37 35.32-32.92 46.12-40.22 9.55-6.45 19.9-4.93 28.84 1.46 3.23 2.31 6.14 5.53 8.37 9.39 2.23 3.86 3.56 7.99 3.95 11.94 1.06 10.93-2.79 20.66-13.16 25.7-11.73 5.71-39.35 12.44-57.9 19.83"/><path fill="#FFD800" stroke="#020000" stroke-width="6" d="M263.886 240.01c0 35.33-28.64 63.97-63.97 63.97s-63.97-28.64-63.97-63.97 28.64-63.97 63.97-63.97 63.97 28.64 63.97 63.97z"/></g></g><g transform="translate(1816.375 829.834)"><rect width="399.002" height="299.252" x=".577" y=".608" fill="#50E3C2" rx="50"/><g fill-rule="nonzero"><path fill="#FFF" stroke="#000" stroke-width="5" d="M184.06 87.967c-2.877-19.76-10.853-47.05-11.775-60.058-.815-11.5 5.678-19.7 15.682-24.25 3.617-1.65 7.86-2.56 12.32-2.56s8.703.9 12.32 2.55C222.61 8.2 229.104 16.4 228.29 27.9c-.93 13.007-8.9 40.297-11.78 60.057m-61.52 16.47c-12.37-15.674-32.92-35.32-40.23-46.123-6.457-9.553-4.934-19.9 1.455-28.84 2.31-3.23 5.53-6.14 9.394-8.37 3.86-2.23 7.99-3.566 11.94-3.95 10.94-1.06 20.66 2.792 25.7 13.16 5.7 11.726 12.44 39.35 19.83 57.9m-45.29 78.45c-19.76 2.875-47.05 10.85-60.06 11.773-11.5.817-19.7-5.676-24.25-15.68-1.64-3.616-2.55-7.86-2.55-12.32s.91-8.703 2.55-12.32c4.55-10.004 12.75-16.497 24.25-15.682 13.01.92 40.3 8.896 60.06 11.773m.26-.96c-18.55-7.39-46.18-14.124-57.9-19.83C69.79 108.365 65.94 98.642 67 87.704c.385-3.957 1.72-8.085 3.95-11.948 2.23-3.865 5.14-7.086 8.37-9.396 8.94-6.39 19.29-7.913 28.84-1.457 10.807 7.302 30.45 27.854 46.127 40.225m0 90.595c-15.675 12.37-35.32 32.92-46.125 40.223-9.55 6.457-19.9 4.933-28.84-1.456-3.235-2.31-6.14-5.53-8.37-9.392-2.23-3.862-3.568-7.99-3.95-11.946-1.065-10.936 2.79-20.66 13.16-25.704 11.723-5.706 39.345-12.444 57.9-19.833m45.033 45.04c-7.39 18.55-14.128 46.17-19.83 57.897-5.046 10.368-14.77 14.223-25.707 13.16-3.954-.384-8.082-1.72-11.945-3.95-3.86-2.23-7.08-5.137-9.393-8.37-6.39-8.94-7.91-19.29-1.455-28.84 7.303-10.805 27.855-30.45 40.226-46.126m61.52 16.488c2.88 19.76 10.85 47.05 11.78 60.058.82 11.5-5.68 19.7-15.68 24.25-3.61 1.644-7.86 2.55-12.32 2.55s-8.7-.906-12.32-2.55c-10-4.55-16.49-12.75-15.68-24.25.92-13.008 8.9-40.298 11.78-60.058m61.52-16.48c12.37 15.675 32.92 35.32 40.23 46.125 6.46 9.55 4.93 19.9-1.45 28.84-2.31 3.23-5.53 6.14-9.39 8.37-3.86 2.23-7.99 3.57-11.94 3.95-10.94 1.06-20.66-2.79-25.71-13.16-5.7-11.73-12.44-39.35-19.83-57.9m45.04-45.03c18.55 7.39 46.17 14.12 57.9 19.83 10.37 5.04 14.22 14.77 13.16 25.7-.38 3.95-1.72 8.08-3.95 11.94-2.23 3.86-5.14 7.08-8.37 9.39-8.94 6.39-19.29 7.91-28.84 1.45-10.81-7.3-30.45-27.86-46.13-40.23m16.48-61.51c19.76-2.88 47.05-10.85 60.06-11.78 11.5-.81 19.7 5.68 24.25 15.68 1.64 3.62 2.55 7.86 2.55 12.32s-.91 8.7-2.55 12.32c-4.55 10-12.75 16.5-24.25 15.68-13.01-.93-40.3-8.9-60.06-11.78m-45.3-78.44c7.39-18.55 14.13-46.18 19.83-57.9 5.05-10.37 14.77-14.22 25.71-13.16 3.96.38 8.08 1.72 11.95 3.95 3.87 2.23 7.09 5.13 9.4 8.37 6.39 8.94 7.91 19.29 1.46 28.84-7.3 10.8-27.85 30.45-40.22 46.12m.72.71C262 92.76 281.64 72.2 292.45 64.9c9.555-6.45 19.9-4.93 28.844 1.46 3.23 2.31 6.14 5.54 8.37 9.4 2.23 3.87 3.56 7.995 3.95 11.95 1.06 10.94-2.79 20.66-13.16 25.705-11.73 5.71-39.35 12.45-57.9 19.84"/><path fill="#FFD800" stroke="#020000" stroke-width="6" d="M264.26 150.442c0 35.33-28.64 63.97-63.97 63.97s-63.97-28.64-63.97-63.97 28.64-63.97 63.97-63.97 63.97 28.64 63.97 63.97z"/></g></g><g transform="translate(1816.375 490.214)"><rect width="399.002" height="299.252" x=".577" y=".608" fill="#50E3C2" rx="50"/><g fill-rule="nonzero"><path fill="#FFF" stroke="#000" stroke-width="5" d="M184.06 87.967c-2.877-19.76-10.853-47.05-11.775-60.058-.815-11.5 5.678-19.7 15.682-24.25 3.617-1.65 7.86-2.56 12.32-2.56s8.703.9 12.32 2.55C222.61 8.2 229.104 16.4 228.29 27.9c-.93 13.007-8.9 40.297-11.78 60.057m-61.52 16.47c-12.37-15.674-32.92-35.32-40.23-46.123-6.457-9.553-4.934-19.9 1.455-28.84 2.31-3.23 5.53-6.14 9.394-8.37 3.86-2.23 7.99-3.566 11.94-3.95 10.94-1.06 20.66 2.792 25.7 13.16 5.7 11.726 12.44 39.35 19.83 57.9m-45.29 78.45c-19.76 2.875-47.05 10.85-60.06 11.773-11.5.817-19.7-5.676-24.25-15.68-1.64-3.616-2.55-7.86-2.55-12.32s.91-8.703 2.55-12.32c4.55-10.004 12.75-16.497 24.25-15.682 13.01.92 40.3 8.896 60.06 11.773m.26-.96c-18.55-7.39-46.18-14.124-57.9-19.83C69.79 108.365 65.94 98.642 67 87.704c.385-3.957 1.72-8.085 3.95-11.948 2.23-3.865 5.14-7.086 8.37-9.396 8.94-6.39 19.29-7.913 28.84-1.457 10.807 7.302 30.45 27.854 46.127 40.225m0 90.595c-15.675 12.37-35.32 32.92-46.125 40.223-9.55 6.457-19.9 4.933-28.84-1.456-3.235-2.31-6.14-5.53-8.37-9.392-2.23-3.862-3.568-7.99-3.95-11.946-1.065-10.936 2.79-20.66 13.16-25.704 11.723-5.706 39.345-12.444 57.9-19.833m45.033 45.04c-7.39 18.55-14.128 46.17-19.83 57.897-5.046 10.368-14.77 14.223-25.707 13.16-3.954-.384-8.082-1.72-11.945-3.95-3.86-2.23-7.08-5.137-9.393-8.37-6.39-8.94-7.91-19.29-1.455-28.84 7.303-10.805 27.855-30.45 40.226-46.126m61.52 16.488c2.88 19.76 10.85 47.05 11.78 60.058.82 11.5-5.68 19.7-15.68 24.25-3.61 1.644-7.86 2.55-12.32 2.55s-8.7-.906-12.32-2.55c-10-4.55-16.49-12.75-15.68-24.25.92-13.008 8.9-40.298 11.78-60.058m61.52-16.48c12.37 15.675 32.92 35.32 40.23 46.125 6.46 9.55 4.93 19.9-1.45 28.84-2.31 3.23-5.53 6.14-9.39 8.37-3.86 2.23-7.99 3.57-11.94 3.95-10.94 1.06-20.66-2.79-25.71-13.16-5.7-11.73-12.44-39.35-19.83-57.9m45.04-45.03c18.55 7.39 46.17 14.12 57.9 19.83 10.37 5.04 14.22 14.77 13.16 25.7-.38 3.95-1.72 8.08-3.95 11.94-2.23 3.86-5.14 7.08-8.37 9.39-8.94 6.39-19.29 7.91-28.84 1.45-10.81-7.3-30.45-27.86-46.13-40.23m16.48-61.51c19.76-2.88 47.05-10.85 60.06-11.78 11.5-.81 19.7 5.68 24.25 15.68 1.64 3.62 2.55 7.86 2.55 12.32s-.91 8.7-2.55 12.32c-4.55 10-12.75 16.5-24.25 15.68-13.01-.93-40.3-8.9-60.06-11.78m-45.3-78.44c7.39-18.55 14.13-46.18 19.83-57.9 5.05-10.37 14.77-14.22 25.71-13.16 3.96.38 8.08 1.72 11.95 3.95 3.87 2.23 7.09 5.13 9.4 8.37 6.39 8.94 7.91 19.29 1.46 28.84-7.3 10.8-27.85 30.45-40.22 46.12m.72.71C262 92.76 281.64 72.2 292.45 64.9c9.555-6.45 19.9-4.93 28.844 1.46 3.23 2.31 6.14 5.54 8.37 9.4 2.23 3.87 3.56 7.995 3.95 11.95 1.06 10.94-2.79 20.66-13.16 25.705-11.73 5.71-39.35 12.45-57.9 19.84"/><path fill="#FFD800" stroke="#020000" stroke-width="6" d="M264.26 150.442c0 35.33-28.64 63.97-63.97 63.97s-63.97-28.64-63.97-63.97 28.64-63.97 63.97-63.97 63.97 28.64 63.97 63.97z"/></g></g><g transform="translate(1816.375 150.594)"><rect width="399.002" height="299.252" x=".577" y=".608" fill="#50E3C2" rx="50"/><g fill-rule="nonzero"><path fill="#FFF" stroke="#000" stroke-width="5" d="M184.06 87.967c-2.877-19.76-10.853-47.05-11.775-60.058-.815-11.5 5.678-19.7 15.682-24.25 3.617-1.65 7.86-2.56 12.32-2.56s8.703.9 12.32 2.55C222.61 8.2 229.104 16.4 228.29 27.9c-.93 13.007-8.9 40.297-11.78 60.057m-61.52 16.47c-12.37-15.674-32.92-35.32-40.23-46.123-6.457-9.553-4.934-19.9 1.455-28.84 2.31-3.23 5.53-6.14 9.394-8.37 3.86-2.23 7.99-3.566 11.94-3.95 10.94-1.06 20.66 2.792 25.7 13.16 5.7 11.726 12.44 39.35 19.83 57.9m-45.29 78.45c-19.76 2.875-47.05 10.85-60.06 11.773-11.5.817-19.7-5.676-24.25-15.68-1.64-3.616-2.55-7.86-2.55-12.32s.91-8.703 2.55-12.32c4.55-10.004 12.75-16.497 24.25-15.682 13.01.92 40.3 8.896 60.06 11.773m.26-.96c-18.55-7.39-46.18-14.124-57.9-19.83C69.79 108.365 65.94 98.642 67 87.704c.385-3.957 1.72-8.085 3.95-11.948 2.23-3.865 5.14-7.086 8.37-9.396 8.94-6.39 19.29-7.913 28.84-1.457 10.807 7.302 30.45 27.854 46.127 40.225m0 90.595c-15.675 12.37-35.32 32.92-46.125 40.223-9.55 6.457-19.9 4.933-28.84-1.456-3.235-2.31-6.14-5.53-8.37-9.392-2.23-3.862-3.568-7.99-3.95-11.946-1.065-10.936 2.79-20.66 13.16-25.704 11.723-5.706 39.345-12.444 57.9-19.833m45.033 45.04c-7.39 18.55-14.128 46.17-19.83 57.897-5.046 10.368-14.77 14.223-25.707 13.16-3.954-.384-8.082-1.72-11.945-3.95-3.86-2.23-7.08-5.137-9.393-8.37-6.39-8.94-7.91-19.29-1.455-28.84 7.303-10.805 27.855-30.45 40.226-46.126m61.52 16.488c2.88 19.76 10.85 47.05 11.78 60.058.82 11.5-5.68 19.7-15.68 24.25-3.61 1.644-7.86 2.55-12.32 2.55s-8.7-.906-12.32-2.55c-10-4.55-16.49-12.75-15.68-24.25.92-13.008 8.9-40.298 11.78-60.058m61.52-16.48c12.37 15.675 32.92 35.32 40.23 46.125 6.46 9.55 4.93 19.9-1.45 28.84-2.31 3.23-5.53 6.14-9.39 8.37-3.86 2.23-7.99 3.57-11.94 3.95-10.94 1.06-20.66-2.79-25.71-13.16-5.7-11.73-12.44-39.35-19.83-57.9m45.04-45.03c18.55 7.39 46.17 14.12 57.9 19.83 10.37 5.04 14.22 14.77 13.16 25.7-.38 3.95-1.72 8.08-3.95 11.94-2.23 3.86-5.14 7.08-8.37 9.39-8.94 6.39-19.29 7.91-28.84 1.45-10.81-7.3-30.45-27.86-46.13-40.23m16.48-61.51c19.76-2.88 47.05-10.85 60.06-11.78 11.5-.81 19.7 5.68 24.25 15.68 1.64 3.62 2.55 7.86 2.55 12.32s-.91 8.7-2.55 12.32c-4.55 10-12.75 16.5-24.25 15.68-13.01-.93-40.3-8.9-60.06-11.78m-45.3-78.44c7.39-18.55 14.13-46.18 19.83-57.9 5.05-10.37 14.77-14.22 25.71-13.16 3.96.38 8.08 1.72 11.95 3.95 3.87 2.23 7.09 5.13 9.4 8.37 6.39 8.94 7.91 19.29 1.46 28.84-7.3 10.8-27.85 30.45-40.22 46.12m.72.71C262 92.76 281.64 72.2 292.45 64.9c9.555-6.45 19.9-4.93 28.844 1.46 3.23 2.31 6.14 5.54 8.37 9.4 2.23 3.87 3.56 7.995 3.95 11.95 1.06 10.94-2.79 20.66-13.16 25.705-11.73 5.71-39.35 12.45-57.9 19.84"/><path fill="#FFD800" stroke="#020000" stroke-width="6" d="M264.26 150.442c0 35.33-28.64 63.97-63.97 63.97s-63.97-28.64-63.97-63.97 28.64-63.97 63.97-63.97 63.97 28.64 63.97 63.97z"/></g></g><g transform="translate(1816.794 1169.453)"><rect width="399.002" height="399.002" x=".577" y=".857" fill="#50E3C2" rx="50"/><g fill-rule="nonzero"><path fill="#FFF" stroke="#000" stroke-width="5" d="M184.06 138.092c-2.877-19.76-10.853-47.05-11.775-60.058-.815-11.5 5.678-19.7 15.682-24.25 3.617-1.644 7.86-2.55 12.32-2.55s8.703.906 12.32 2.55c10.004 4.55 16.497 12.75 15.682 24.25-.93 13.008-8.9 40.297-11.78 60.058m-61.52 16.47c-12.37-15.675-32.92-35.32-40.23-46.125-6.46-9.552-4.94-19.9 1.45-28.84 2.31-3.234 5.53-6.14 9.39-8.37 3.86-2.23 7.99-3.567 11.94-3.95 10.94-1.064 20.66 2.79 25.7 13.158 5.71 11.726 12.44 39.348 19.83 57.9m-45.29 78.45c-19.76 2.877-47.05 10.852-60.06 11.774-11.5.81-19.7-5.68-24.25-15.69-1.64-3.62-2.55-7.86-2.55-12.32s.91-8.71 2.55-12.32c4.55-10.01 12.75-16.5 24.25-15.69 13.01.92 40.3 8.9 60.06 11.77m.26-.96c-18.55-7.39-46.18-14.13-57.9-19.83-10.37-5.05-14.23-14.77-13.16-25.71.38-3.96 1.72-8.09 3.95-11.95 2.23-3.87 5.13-7.09 8.37-9.4 8.94-6.39 19.29-7.91 28.84-1.46 10.8 7.3 30.45 27.85 46.12 40.22m0 90.59c-15.68 12.37-35.32 32.92-46.13 40.22-9.55 6.45-19.9 4.93-28.84-1.46-3.24-2.31-6.14-5.53-8.37-9.4-2.23-3.87-3.57-8-3.95-11.95-1.07-10.94 2.79-20.66 13.16-25.71 11.72-5.7 39.34-12.44 57.9-19.83m45.03 45.04c-7.39 18.55-14.13 46.17-19.83 57.9-5.05 10.37-14.77 14.22-25.71 13.16-3.96-.39-8.09-1.72-11.95-3.95-3.86-2.23-7.08-5.14-9.39-8.37-6.39-8.94-7.91-19.29-1.46-28.84 7.31-10.81 27.86-30.45 40.23-46.13m61.53 16.5c2.87 19.76 10.85 47.05 11.77 60.05.81 11.5-5.68 19.7-15.69 24.25-3.61 1.64-7.86 2.55-12.32 2.55s-8.7-.91-12.32-2.55c-10-4.55-16.49-12.75-15.68-24.25.92-13.01 8.9-40.3 11.78-60.06m61.52-16.48c12.37 15.67 32.92 35.32 40.23 46.12 6.45 9.55 4.93 19.9-1.46 28.84-2.31 3.23-5.53 6.14-9.4 8.37-3.86 2.23-7.99 3.57-11.95 3.95-10.94 1.06-20.66-2.79-25.71-13.16-5.7-11.73-12.44-39.35-19.83-57.9m45.04-45.03c18.55 7.39 46.17 14.12 57.9 19.83 10.36 5.04 14.22 14.76 13.16 25.7-.39 3.96-1.72 8.08-3.95 11.95-2.23 3.86-5.14 7.08-8.37 9.39-8.94 6.39-19.29 7.91-28.84 1.45-10.81-7.3-30.45-27.86-46.13-40.23m16.48-61.51c19.76-2.88 47.05-10.86 60.06-11.78 11.5-.81 19.7 5.68 24.25 15.68 1.64 3.62 2.55 7.86 2.55 12.32s-.91 8.7-2.55 12.32c-4.55 10-12.75 16.49-24.25 15.68-13.01-.93-40.3-8.9-60.06-11.78m-45.29-78.46c7.39-18.56 14.13-46.18 19.83-57.9 5.05-10.37 14.77-14.22 25.71-13.16 3.96.38 8.08 1.72 11.95 3.95 3.86 2.23 7.08 5.14 9.39 8.37 6.39 8.94 7.91 19.29 1.46 28.84-7.3 10.8-27.86 30.45-40.23 46.12m.72.716c15.67-12.37 35.32-32.93 46.12-40.23 9.55-6.46 19.9-4.93 28.84 1.46 3.23 2.31 6.14 5.53 8.37 9.39 2.23 3.87 3.56 7.99 3.95 11.95 1.06 10.94-2.798 20.66-13.16 25.71-11.73 5.704-39.35 12.44-57.9 19.83"/><path fill="#FFD800" stroke="#020000" stroke-width="6" d="M264.26 200.567c0 35.33-28.64 63.97-63.97 63.97s-63.97-28.64-63.97-63.97 28.64-63.97 63.97-63.97 63.97 28.64 63.97 63.97z"/></g></g><g transform="translate(1200.375 150.594)"><rect width="399.002" height="399.002" x=".577" y=".857" fill="#50E3C2" rx="50"/><g fill-rule="nonzero"><path fill="#FFF" stroke="#000" stroke-width="5" d="M184.06 138.092c-2.877-19.76-10.853-47.05-11.775-60.058-.815-11.5 5.678-19.7 15.682-24.25 3.617-1.644 7.86-2.55 12.32-2.55s8.703.906 12.32 2.55c10.004 4.55 16.497 12.75 15.682 24.25-.93 13.008-8.9 40.297-11.78 60.058m-61.52 16.47c-12.37-15.675-32.92-35.32-40.23-46.125-6.46-9.552-4.94-19.9 1.45-28.84 2.31-3.234 5.53-6.14 9.39-8.37 3.86-2.23 7.99-3.567 11.94-3.95 10.94-1.064 20.66 2.79 25.7 13.158 5.71 11.726 12.44 39.348 19.83 57.9m-45.29 78.45c-19.76 2.877-47.05 10.852-60.06 11.774-11.5.81-19.7-5.68-24.25-15.69-1.64-3.62-2.55-7.86-2.55-12.32s.91-8.71 2.55-12.32c4.55-10.01 12.75-16.5 24.25-15.69 13.01.92 40.3 8.9 60.06 11.77m.26-.96c-18.55-7.39-46.18-14.13-57.9-19.83-10.37-5.05-14.23-14.77-13.16-25.71.38-3.96 1.72-8.09 3.95-11.95 2.23-3.87 5.13-7.09 8.37-9.4 8.94-6.39 19.29-7.91 28.84-1.46 10.8 7.3 30.45 27.85 46.12 40.22m0 90.59c-15.68 12.37-35.32 32.92-46.13 40.22-9.55 6.45-19.9 4.93-28.84-1.46-3.24-2.31-6.14-5.53-8.37-9.4-2.23-3.87-3.57-8-3.95-11.95-1.07-10.94 2.79-20.66 13.16-25.71 11.72-5.7 39.34-12.44 57.9-19.83m45.03 45.04c-7.39 18.55-14.13 46.17-19.83 57.9-5.05 10.37-14.77 14.22-25.71 13.16-3.96-.39-8.09-1.72-11.95-3.95-3.86-2.23-7.08-5.14-9.39-8.37-6.39-8.94-7.91-19.29-1.46-28.84 7.31-10.81 27.86-30.45 40.23-46.13m61.53 16.5c2.87 19.76 10.85 47.05 11.77 60.05.81 11.5-5.68 19.7-15.69 24.25-3.61 1.64-7.86 2.55-12.32 2.55s-8.7-.91-12.32-2.55c-10-4.55-16.49-12.75-15.68-24.25.92-13.01 8.9-40.3 11.78-60.06m61.52-16.48c12.37 15.67 32.92 35.32 40.23 46.12 6.45 9.55 4.93 19.9-1.46 28.84-2.31 3.23-5.53 6.14-9.4 8.37-3.86 2.23-7.99 3.57-11.95 3.95-10.94 1.06-20.66-2.79-25.71-13.16-5.7-11.73-12.44-39.35-19.83-57.9m45.04-45.03c18.55 7.39 46.17 14.12 57.9 19.83 10.36 5.04 14.22 14.76 13.16 25.7-.39 3.96-1.72 8.08-3.95 11.95-2.23 3.86-5.14 7.08-8.37 9.39-8.94 6.39-19.29 7.91-28.84 1.45-10.81-7.3-30.45-27.86-46.13-40.23m16.48-61.51c19.76-2.88 47.05-10.86 60.06-11.78 11.5-.81 19.7 5.68 24.25 15.68 1.64 3.62 2.55 7.86 2.55 12.32s-.91 8.7-2.55 12.32c-4.55 10-12.75 16.49-24.25 15.68-13.01-.93-40.3-8.9-60.06-11.78m-45.29-78.46c7.39-18.56 14.13-46.18 19.83-57.9 5.05-10.37 14.77-14.22 25.71-13.16 3.96.38 8.08 1.72 11.95 3.95 3.86 2.23 7.08 5.14 9.39 8.37 6.39 8.94 7.91 19.29 1.46 28.84-7.3 10.8-27.86 30.45-40.23 46.12m.72.716c15.67-12.37 35.32-32.93 46.12-40.23 9.55-6.46 19.9-4.93 28.84 1.46 3.23 2.31 6.14 5.53 8.37 9.39 2.23 3.87 3.56 7.99 3.95 11.95 1.06 10.94-2.798 20.66-13.16 25.71-11.73 5.704-39.35 12.44-57.9 19.83"/><path fill="#FFD800" stroke="#020000" stroke-width="6" d="M264.26 200.567c0 35.33-28.64 63.97-63.97 63.97s-63.97-28.64-63.97-63.97 28.64-63.97 63.97-63.97 63.97 28.64 63.97 63.97z"/></g></g><g transform="translate(1200.375 612.024)"><rect width="399.002" height="494.815" x=".577" y=".857" fill="#50E3C2" rx="50"/><g fill-rule="nonzero"><path fill="#FFF" stroke="#000" stroke-width="5" d="M184.06 185.998c-2.877-19.76-10.853-47.05-11.775-60.058-.815-11.5 5.678-19.7 15.682-24.25 3.617-1.644 7.86-2.55 12.32-2.55s8.703.906 12.32 2.55c10.004 4.55 16.497 12.75 15.682 24.25-.93 13.008-8.9 40.297-11.78 60.058m-61.52 16.47c-12.37-15.675-32.92-35.32-40.23-46.125-6.46-9.552-4.94-19.9 1.45-28.84 2.31-3.234 5.53-6.14 9.39-8.37 3.86-2.23 7.99-3.567 11.94-3.95 10.94-1.064 20.66 2.79 25.7 13.158 5.71 11.73 12.44 39.35 19.83 57.9m-45.29 78.45c-19.76 2.88-47.05 10.86-60.06 11.78-11.5.82-19.7-5.68-24.25-15.68-1.64-3.61-2.55-7.86-2.55-12.32s.91-8.7 2.55-12.32c4.55-10 12.75-16.5 24.25-15.68 13.01.93 40.3 8.9 60.06 11.78m.26-.96c-18.55-7.39-46.18-14.12-57.9-19.83-10.37-5.04-14.23-14.77-13.16-25.7.38-3.95 1.72-8.08 3.95-11.94 2.23-3.86 5.13-7.08 8.37-9.39 8.94-6.39 19.29-7.91 28.84-1.45 10.8 7.31 30.45 27.86 46.12 40.23m0 90.59c-15.68 12.37-35.32 32.92-46.13 40.22-9.55 6.46-19.9 4.93-28.84-1.45-3.24-2.31-6.14-5.53-8.37-9.39-2.23-3.86-3.57-7.99-3.95-11.94-1.07-10.94 2.79-20.66 13.16-25.7 11.72-5.7 39.34-12.44 57.9-19.83m45.07 45c-7.39 18.55-14.13 46.17-19.84 57.9-5.05 10.37-14.77 14.22-25.71 13.16-3.96-.38-8.09-1.72-11.95-3.95-3.86-2.23-7.08-5.13-9.39-8.37-6.39-8.94-7.91-19.29-1.46-28.84 7.31-10.8 27.86-30.45 40.23-46.12m61.52 16.49c2.88 19.76 10.85 47.05 11.78 60.06.82 11.5-5.68 19.7-15.68 24.25-3.61 1.65-7.86 2.55-12.32 2.55s-8.7-.9-12.32-2.55c-10-4.55-16.49-12.75-15.68-24.25.92-13 8.9-40.29 11.78-60.05m61.52-16.48c12.37 15.68 32.92 35.32 40.23 46.13 6.46 9.56 4.93 19.9-1.45 28.84-2.31 3.24-5.53 6.14-9.39 8.37-3.86 2.23-7.99 3.57-11.94 3.96-10.94 1.06-20.66-2.79-25.71-13.16-5.71-11.73-12.45-39.35-19.84-57.9m45.04-45.03c18.55 7.39 46.17 14.12 57.9 19.83 10.36 5.04 14.22 14.77 13.16 25.7-.39 3.96-1.72 8.09-3.95 11.95-2.23 3.86-5.14 7.08-8.37 9.39-8.94 6.39-19.29 7.92-28.84 1.46-10.81-7.3-30.45-27.85-46.13-40.23m16.48-61.51c19.76-2.87 47.05-10.85 60.06-11.77 11.5-.81 19.7 5.68 24.25 15.69 1.64 3.62 2.55 7.86 2.55 12.32s-.91 8.71-2.55 12.32c-4.55 10.01-12.75 16.5-24.25 15.68-13.01-.92-40.3-8.89-60.06-11.77m-45.29-78.46c7.39-18.55 14.12-46.17 19.83-57.9 5.04-10.36 14.76-14.22 25.7-13.16 3.95.39 8.08 1.72 11.94 3.95 3.86 2.23 7.08 5.14 9.39 8.37 6.39 8.94 7.91 19.29 1.46 28.84-7.31 10.81-27.86 30.45-40.23 46.13m.72.72c15.67-12.37 35.32-32.92 46.12-40.23 9.55-6.45 19.9-4.93 28.84 1.46 3.23 2.31 6.14 5.53 8.37 9.4 2.23 3.86 3.56 7.99 3.95 11.95 1.06 10.94-2.79 20.66-13.16 25.71-11.73 5.708-39.35 12.445-57.9 19.83"/><path fill="#FFD800" stroke="#020000" stroke-width="6" d="M264.26 248.473c0 35.33-28.64 63.97-63.97 63.97s-63.97-28.64-63.97-63.97 28.64-63.97 63.97-63.97 63.97 28.64 63.97 63.97z"/></g></g><g transform="translate(1200.375 1169.453)"><rect width="399.002" height="399.002" x=".577" y=".857" fill="#50E3C2" rx="50"/><g fill-rule="nonzero"><path fill="#FFF" stroke="#000" stroke-width="5" d="M184.06 138.092c-2.877-19.76-10.853-47.05-11.775-60.058-.815-11.5 5.678-19.7 15.682-24.25 3.617-1.644 7.86-2.55 12.32-2.55s8.703.906 12.32 2.55c10.004 4.55 16.497 12.75 15.682 24.25-.93 13.008-8.9 40.297-11.78 60.058m-61.52 16.47c-12.37-15.675-32.92-35.32-40.23-46.125-6.46-9.552-4.94-19.9 1.45-28.84 2.31-3.234 5.53-6.14 9.39-8.37 3.86-2.23 7.99-3.567 11.94-3.95 10.94-1.064 20.66 2.79 25.7 13.158 5.71 11.726 12.44 39.348 19.83 57.9m-45.29 78.45c-19.76 2.877-47.05 10.852-60.06 11.774-11.5.81-19.7-5.68-24.25-15.69-1.64-3.62-2.55-7.86-2.55-12.32s.91-8.71 2.55-12.32c4.55-10.01 12.75-16.5 24.25-15.69 13.01.92 40.3 8.9 60.06 11.77m.26-.96c-18.55-7.39-46.18-14.13-57.9-19.83-10.37-5.05-14.23-14.77-13.16-25.71.38-3.96 1.72-8.09 3.95-11.95 2.23-3.87 5.13-7.09 8.37-9.4 8.94-6.39 19.29-7.91 28.84-1.46 10.8 7.3 30.45 27.85 46.12 40.22m0 90.59c-15.68 12.37-35.32 32.92-46.13 40.22-9.55 6.45-19.9 4.93-28.84-1.46-3.24-2.31-6.14-5.53-8.37-9.4-2.23-3.87-3.57-8-3.95-11.95-1.07-10.94 2.79-20.66 13.16-25.71 11.72-5.7 39.34-12.44 57.9-19.83m45.03 45.04c-7.39 18.55-14.13 46.17-19.83 57.9-5.05 10.37-14.77 14.22-25.71 13.16-3.96-.39-8.09-1.72-11.95-3.95-3.86-2.23-7.08-5.14-9.39-8.37-6.39-8.94-7.91-19.29-1.46-28.84 7.31-10.81 27.86-30.45 40.23-46.13m61.53 16.5c2.87 19.76 10.85 47.05 11.77 60.05.81 11.5-5.68 19.7-15.69 24.25-3.61 1.64-7.86 2.55-12.32 2.55s-8.7-.91-12.32-2.55c-10-4.55-16.49-12.75-15.68-24.25.92-13.01 8.9-40.3 11.78-60.06m61.52-16.48c12.37 15.67 32.92 35.32 40.23 46.12 6.45 9.55 4.93 19.9-1.46 28.84-2.31 3.23-5.53 6.14-9.4 8.37-3.86 2.23-7.99 3.57-11.95 3.95-10.94 1.06-20.66-2.79-25.71-13.16-5.7-11.73-12.44-39.35-19.83-57.9m45.04-45.03c18.55 7.39 46.17 14.12 57.9 19.83 10.36 5.04 14.22 14.76 13.16 25.7-.39 3.96-1.72 8.08-3.95 11.95-2.23 3.86-5.14 7.08-8.37 9.39-8.94 6.39-19.29 7.91-28.84 1.45-10.81-7.3-30.45-27.86-46.13-40.23m16.48-61.51c19.76-2.88 47.05-10.86 60.06-11.78 11.5-.81 19.7 5.68 24.25 15.68 1.64 3.62 2.55 7.86 2.55 12.32s-.91 8.7-2.55 12.32c-4.55 10-12.75 16.49-24.25 15.68-13.01-.93-40.3-8.9-60.06-11.78m-45.29-78.46c7.39-18.56 14.13-46.18 19.83-57.9 5.05-10.37 14.77-14.22 25.71-13.16 3.96.38 8.08 1.72 11.95 3.95 3.86 2.23 7.08 5.14 9.39 8.37 6.39 8.94 7.91 19.29 1.46 28.84-7.3 10.8-27.86 30.45-40.23 46.12m.72.716c15.67-12.37 35.32-32.93 46.12-40.23 9.55-6.46 19.9-4.93 28.84 1.46 3.23 2.31 6.14 5.53 8.37 9.39 2.23 3.87 3.56 7.99 3.95 11.95 1.06 10.94-2.798 20.66-13.16 25.71-11.73 5.704-39.35 12.44-57.9 19.83"/><path fill="#FFD800" stroke="#020000" stroke-width="6" d="M264.26 200.567c0 35.33-28.64 63.97-63.97 63.97s-63.97-28.64-63.97-63.97 28.64-63.97 63.97-63.97 63.97 28.64 63.97 63.97z"/></g></g></g></svg>
