<svg xmlns="http://www.w3.org/2000/svg" viewBox="0 0 692 528" xmlns:xlink="http://www.w3.org/1999/xlink"><defs><path id="a" d="M.5 0h675v511.262H.5z"/><mask id="b" width="691" height="527.262" x="-8" y="-8"><path fill="#fff" d="M-7.5-8h691v527.262h-691z"/><use xlink:href="#a"/></mask></defs><g fill="none" fill-rule="evenodd" transform="translate(8 8)"><path fill="#D77A61" fill-opacity=".75" d="M110.435 104h454v302h-454z"/><path stroke="#FFD400" stroke-width="8" d="M114.435 108h446v294h-446z"/><use stroke="#223843" stroke-width="16" mask="url(#b)" stroke-dasharray="12" xlink:href="#a"/><path stroke="#223843" stroke-width="10" d="M338.213 36.74v30" stroke-linecap="square"/><path fill="#223843" d="M350.65 70.574l-12.437 29.99-12.436-29.99m24.873-37.336l-12.437-29.99-12.436 29.99"/><path stroke="#223843" stroke-width="10" d="M338.713 444.74v30" stroke-linecap="square"/><path fill="#223843" d="M351.15 478.574l-12.437 29.99-12.436-29.99m24.873-37.336l-12.437-29.99-12.436 29.99"/><path stroke="#223843" stroke-width="10" d="M638.26 256.713h-30" stroke-linecap="square"/><path fill="#223843" d="M604.426 269.15l-29.99-12.437 29.99-12.436m37.336 24.873l29.99-12.437-29.99-12.436"/><path stroke="#223843" stroke-width="10" d="M67.13 256.713h-30" stroke-linecap="square"/><path fill="#223843" d="M33.296 269.15l-29.99-12.437 29.99-12.436m37.336 24.873l29.99-12.437-29.99-12.436"/></g></svg>
