<svg xmlns="http://www.w3.org/2000/svg" id="Layer_1" viewBox="0 0 238.7 245.4"><style>.st0{fill:url(#SVGID_1_);} .st1{fill:url(#SVGID_2_);} .st2{fill:#2E5C91;} .st3{fill:url(#SVGID_3_);} .st4{fill:#699DD3;} .st5{fill:url(#SVGID_4_);} .st6{fill:url(#SVGID_5_);} .st7{fill:url(#SVGID_6_);stroke:url(#SVGID_7_);stroke-width:10.07;} .st8{fill:#FFFFFF;}</style><radialGradient id="SVGID_1_" cx="-365.306" cy="347.505" r="25.48" gradientTransform="matrix(.102 -4.5937 -4.5812 -.1066 1746.032 -1523.94)" gradientUnits="userSpaceOnUse"><stop offset="0" stop-color="#FFF"/><stop offset="1" stop-opacity="0"/></radialGradient><path d="M238.6 122.3c.4 67.5-52.7 122.6-118.6 123.1S.4 191.4 0 123.8v-1.5C0 54.8 53.4 0 119.3 0s119.4 54.8 119.3 122.3z" class="st0"/><linearGradient id="SVGID_2_" x1="149.937" x2="208.627" y1="154.868" y2="161.232" gradientUnits="userSpaceOnUse" gradientTransform="matrix(1 0 0 -1 3.392 233.232)"><stop offset="0" stop-color="#B2CDE9"/><stop offset="1" stop-color="#C4DBEE"/></linearGradient><path d="M219.8 72c0 15.7-19.8 34.9-45.8 34.9-26.1 0-59.9-16.1-59.9-31.8s21.1-28.4 47.2-28.4c19.9 0 46.4 18.3 56.5 20.4.7 1.8 1.3 3 2 4.9z" class="st1"/><path d="M26.5 49.9c12.4-9.6 35.3-1.2 51.3 19.3s17.7 51.1 5.3 60.7c-12.4 9.6-34.2-5.3-50.2-25.9-12.2-15.7-4-41.2-8.6-50.4.6-1.1 1.4-2.5 2.2-3.7z" class="st2"/><radialGradient id="SVGID_3_" cx="161.705" cy="695.561" r="95.627" gradientTransform="matrix(-.0076 .5575 1.0315 .014 -602.438 -81.446)" gradientUnits="userSpaceOnUse"><stop offset="0" stop-color="#658DB6"/><stop offset=".768" stop-color="#527FAB"/><stop offset="1" stop-color="#4071A0"/></radialGradient><path d="M217.7 67.2c-7 0-61.1.3-107.7.1-17.4 5.1-31.7 13.3-39.2 29.2-5.3-4.5-40.7-42.2-44.4-46.4C57.9 8.3 101 4.4 109.4 4.4c8.4 0 70.6-8.6 108.3 62.8z" class="st3"/><path d="M104.8 227.9c-12.5-9.5-14.6-36.9 1.1-57.7 15.7-20.8 41-34.9 53.5-25.5 12.5 9.5 7.4 39-8.3 59.7-12 15.9-35.5 16.9-43.2 23.7-1.2 0-1.9-.1-3.1-.2z" class="st4"/><radialGradient id="SVGID_4_" cx="-115.834" cy="362.28" r="60.481" gradientTransform="matrix(.813 1.6998 2.152 -1.0292 -566.136 680.953)" gradientUnits="userSpaceOnUse"><stop offset="0" stop-color="#D0E2F1"/><stop offset=".856" stop-color="#CADEF0"/><stop offset="1" stop-color="#95BEE3"/></radialGradient><path d="M108 228.1c3.6-6 28.9-52.9 52.7-92.9 4.4-17.6 5.3-33.6-4.6-48.2 6.6-2.3 58.2-14 63.7-15 20 48.2 1.4 87.3-2.8 94.6-4.2 7.2-28.4 65.3-109 61.5z" class="st5"/><radialGradient id="SVGID_5_" cx="-723.424" cy="439.236" r="59.402" gradientTransform="matrix(-1.2862 -.086 -.1145 1.7137 -799.566 -701.97)" gradientUnits="userSpaceOnUse"><stop offset="0" stop-color="#96D0E1"/><stop offset=".678" stop-color="#89B7E1"/><stop offset="1" stop-color="#699DD3"/></radialGradient><path d="M24.4 53.5c3.5 6.1 30.7 52.8 53.8 93.3 13.1 12.5 27.7 19.5 45.2 18-1.3 6.9-16.6 57.8-18.5 63-51.8-6.3-76.7-41.8-80.9-49-4.2-7.3-42.7-57 .4-125.3z" class="st6"/><linearGradient id="SVGID_6_" x1="-358.019" x2="-357.765" y1="15.734" y2="113.566" gradientUnits="userSpaceOnUse" gradientTransform="matrix(.773 0 0 -.7762 392.92 165.195)"><stop offset="0" stop-color="#3B79BC"/><stop offset="1" stop-color="#94B8E0"/></linearGradient><linearGradient id="SVGID_7_" x1="-358.219" x2="-357.572" y1="127.653" y2="-.654" gradientUnits="userSpaceOnUse" gradientTransform="matrix(.773 0 0 -.7762 392.92 165.195)"><stop offset="0" stop-color="#D7DEF0"/><stop offset=".5" stop-color="#FFF"/><stop offset="1" stop-color="#D5DEF0"/></linearGradient><path d="M162 115.9c0 25.3-20.5 45.9-45.7 45.9s-45.7-20.5-45.7-45.9S91 70 116.3 70c25.2 0 45.7 20.6 45.7 45.9z" class="st7"/><path d="M151.2 92.8c18.5 17.1 16 29.6 10.1 44-3.1-22.2-2.4-32.4-10.1-44zm-62.1 64.7c-22.6-14.5-29.8-45.7-8.8-63-10.9 19.8-6.2 32.5 8.8 63z" class="st8"/></svg>
