<svg xmlns="http://www.w3.org/2000/svg" viewBox="0 0 1002 1278"><g fill="none" fill-rule="evenodd"><g fill-rule="nonzero" transform="translate(358.754 .139)"><path fill="#F6BC0D" d="M160.836 119.999v100.522l30.157-20.104h90.47v291.515l-20.104 30.157h120.627l-20.105-30.157V200.417h90.47l30.157 20.104V119.999z"/><path fill="#F69A0D" d="M261.359 522.089h36.857l13.404-20.105V170.26H190.993l-30.157 20.104v30.157l30.157-20.104h90.47v291.515z"/><circle cx="80.418" cy="411.514" r="50.261" fill="#65A3DF"/><path fill="#4C89C3" d="M100.523 441.67c-27.759 0-50.262-22.502-50.262-50.26 0-8.71 2.217-16.9 6.115-24.043-15.62 8.526-26.22 25.098-26.22 44.147 0 27.758 22.504 50.261 50.262 50.261 19.049 0 35.621-10.599 44.147-26.219a50.05 50.05 0 0 1-24.042 6.115z"/><circle cx="562.926" cy="331.096" r="50.261" fill="#65A3DF"/><path fill="#4C89C3" d="M583.03 361.253c-27.758 0-50.26-22.503-50.26-50.262 0-8.709 2.216-16.9 6.114-24.042-15.62 8.526-26.22 25.098-26.22 44.147 0 27.758 22.504 50.261 50.262 50.261 19.049 0 35.621-10.599 44.147-26.219a50.05 50.05 0 0 1-24.042 6.115z"/><path fill="#000" d="M371.305 489.078V209.841h78.193l27.783 18.521c6.153 4.103 14.651-.469 14.651-7.84V119.998a9.423 9.423 0 0 0-9.424-9.424H160.836a9.423 9.423 0 0 0-9.424 9.424V220.52c0 7.376 8.5 11.942 14.651 7.841l27.783-18.521h78.193v30.785a9.423 9.423 0 0 0 9.424 9.424 9.423 9.423 0 0 0 9.424-9.424v-40.21a9.423 9.423 0 0 0-9.424-9.423h-90.47c-1.86 0-3.68.55-5.227 1.583l-15.506 10.336v-73.49h302.824v73.49l-15.506-10.337a9.429 9.429 0 0 0-5.227-1.583h-90.47a9.423 9.423 0 0 0-9.424 9.423v291.516c0 1.86.55 3.68 1.583 5.227l10.338 15.506h-85.41l10.337-15.506a9.426 9.426 0 0 0 1.583-5.227V285.86a9.423 9.423 0 0 0-9.424-9.424 9.423 9.423 0 0 0-9.424 9.424v203.217L253.52 516.86c-4.103 6.155.469 14.651 7.84 14.651h120.628c7.373 0 11.943-8.496 7.84-14.65l-18.522-27.782zM522.717 129.423h7.54a9.423 9.423 0 0 0 9.423-9.424 9.423 9.423 0 0 0-9.424-9.424h-7.539a9.423 9.423 0 0 0-9.424 9.424 9.423 9.423 0 0 0 9.424 9.424zM570.465 129.423h15.079a9.423 9.423 0 0 0 9.424-9.424 9.423 9.423 0 0 0-9.424-9.424h-15.079a9.423 9.423 0 0 0-9.424 9.424 9.423 9.423 0 0 0 9.424 9.424zM625.753 129.423h7.539a9.423 9.423 0 0 0 9.424-9.424 9.423 9.423 0 0 0-9.424-9.424h-7.54a9.423 9.423 0 0 0-9.423 9.424 9.423 9.423 0 0 0 9.424 9.424zM522.717 229.945h7.54a9.423 9.423 0 0 0 9.423-9.424 9.423 9.423 0 0 0-9.424-9.424h-7.539a9.423 9.423 0 0 0-9.424 9.424 9.423 9.423 0 0 0 9.424 9.424zM570.465 229.945h15.079a9.423 9.423 0 0 0 9.424-9.424 9.423 9.423 0 0 0-9.424-9.424h-15.079a9.423 9.423 0 0 0-9.424 9.424 9.423 9.423 0 0 0 9.424 9.424zM633.292 211.097h-7.54a9.423 9.423 0 0 0-9.423 9.424 9.423 9.423 0 0 0 9.424 9.424h7.539a9.423 9.423 0 0 0 9.424-9.424 9.423 9.423 0 0 0-9.424-9.424zM10.052 129.423h7.54a9.423 9.423 0 0 0 9.423-9.424 9.423 9.423 0 0 0-9.424-9.424h-7.539a9.423 9.423 0 0 0-9.424 9.424 9.423 9.423 0 0 0 9.424 9.424zM57.8 129.423H72.88a9.423 9.423 0 0 0 9.424-9.424 9.423 9.423 0 0 0-9.424-9.424H57.8a9.423 9.423 0 0 0-9.424 9.424 9.423 9.423 0 0 0 9.424 9.424zM113.088 129.423h7.539a9.423 9.423 0 0 0 9.424-9.424 9.423 9.423 0 0 0-9.424-9.424h-7.54a9.423 9.423 0 0 0-9.423 9.424 9.423 9.423 0 0 0 9.424 9.424zM27.015 220.521a9.423 9.423 0 0 0-9.424-9.424h-7.539a9.423 9.423 0 0 0-9.424 9.424 9.423 9.423 0 0 0 9.424 9.424h7.54a9.423 9.423 0 0 0 9.423-9.424zM57.8 229.945H72.88a9.423 9.423 0 0 0 9.424-9.424 9.423 9.423 0 0 0-9.424-9.424H57.8a9.423 9.423 0 0 0-9.424 9.424 9.423 9.423 0 0 0 9.424 9.424zM113.088 229.945h7.539a9.423 9.423 0 0 0 9.424-9.424 9.423 9.423 0 0 0-9.424-9.424h-7.54a9.423 9.423 0 0 0-9.423 9.424 9.423 9.423 0 0 0 9.424 9.424zM482.508 33.926a9.423 9.423 0 0 0 9.424-9.424V9.424A9.423 9.423 0 0 0 482.508 0a9.423 9.423 0 0 0-9.424 9.424v15.078a9.423 9.423 0 0 0 9.424 9.424zM482.508 89.214a9.423 9.423 0 0 0 9.424-9.424V64.71a9.423 9.423 0 0 0-9.424-9.424 9.423 9.423 0 0 0-9.424 9.424V79.79a9.423 9.423 0 0 0 9.424 9.424zM160.836 89.214a9.423 9.423 0 0 0 9.424-9.424V64.71a9.423 9.423 0 0 0-9.424-9.424 9.423 9.423 0 0 0-9.424 9.424V79.79a9.423 9.423 0 0 0 9.424 9.424zM160.836 33.926a9.423 9.423 0 0 0 9.424-9.424V9.424A9.423 9.423 0 0 0 160.836 0a9.423 9.423 0 0 0-9.424 9.424v15.078a9.423 9.423 0 0 0 9.424 9.424zM361.881 552.874a9.423 9.423 0 0 0-9.424 9.424v15.078a9.423 9.423 0 0 0 9.424 9.424 9.423 9.423 0 0 0 9.424-9.424v-15.078a9.423 9.423 0 0 0-9.424-9.424zM361.881 608.161a9.423 9.423 0 0 0-9.424 9.424v15.079a9.423 9.423 0 0 0 9.424 9.423 9.423 9.423 0 0 0 9.424-9.423v-15.079a9.423 9.423 0 0 0-9.424-9.424zM281.463 552.874a9.423 9.423 0 0 0-9.424 9.424v15.078a9.423 9.423 0 0 0 9.424 9.424 9.423 9.423 0 0 0 9.424-9.424v-15.078a9.423 9.423 0 0 0-9.424-9.424zM281.463 608.161a9.423 9.423 0 0 0-9.424 9.424v15.079a9.423 9.423 0 0 0 9.424 9.423 9.423 9.423 0 0 0 9.424-9.423v-15.079a9.423 9.423 0 0 0-9.424-9.424z"/><path fill="#000" d="M197.656 404.85a9.424 9.424 0 0 0-6.663-2.76h-51.641c-4.532-28.448-29.23-50.261-58.934-50.261-32.91 0-59.685 26.775-59.685 59.685 0 32.91 26.775 59.685 59.685 59.685 29.703 0 54.402-21.813 58.934-50.261h47.737l47.5 47.502c3.833 3.831 10.305 3.575 13.828-.542 3.16-3.689 2.93-9.356-.5-12.787l-50.26-50.262zM80.418 452.35c-22.517 0-40.837-18.319-40.837-40.837 0-22.518 18.32-40.837 40.837-40.837 22.517 0 40.837 18.319 40.837 40.837 0 22.518-18.32 40.837-40.837 40.837zM562.926 271.41c-29.703 0-54.401 21.814-58.934 50.262h-46.096l-47.568-85.624c-2.493-4.488-8.326-6.154-12.814-3.661-4.49 2.494-6.156 8.327-3.662 12.815l50.261 90.47a9.424 9.424 0 0 0 8.238 4.847h51.641c4.533 28.448 29.23 50.261 58.934 50.261 32.91 0 59.685-26.775 59.685-59.685 0-32.91-26.775-59.684-59.685-59.684zm0 100.523c-22.517 0-40.837-18.319-40.837-40.837 0-22.518 18.32-40.837 40.837-40.837 22.517 0 40.837 18.319 40.837 40.837 0 22.518-18.32 40.837-40.837 40.837zM193.506 43.996c-2.754 3.668-2.42 9.066.876 12.302l30.156 30.156c3.833 3.832 10.305 3.575 13.829-.541 3.158-3.69 2.93-9.356-.502-12.788l-14.068-14.068h195.751l-14.07 14.068c-3.43 3.432-3.658 9.099-.5 12.788 3.523 4.115 9.995 4.373 13.828.541l30.156-30.156c3.68-3.682 3.68-9.648 0-13.328l-30.156-30.157c-3.68-3.68-9.648-3.68-13.327 0-3.68 3.681-3.68 9.647 0 13.328l14.068 14.068h-195.75l14.07-14.068c3.68-3.682 3.68-9.648 0-13.328-3.681-3.68-9.648-3.68-13.327 0L194.383 42.97a8.638 8.638 0 0 0-.877 1.026z"/></g><g transform="translate(.734 645)"><path fill="#000" fill-rule="nonzero" d="M9.62 185.03h7.539a9.423 9.423 0 0 0 9.424-9.424 9.423 9.423 0 0 0-9.424-9.423h-7.54a9.423 9.423 0 0 0-9.423 9.423 9.423 9.423 0 0 0 9.424 9.424zM57.368 185.03h15.078a9.423 9.423 0 0 0 9.424-9.424 9.423 9.423 0 0 0-9.424-9.423H57.368a9.423 9.423 0 0 0-9.424 9.423 9.423 9.423 0 0 0 9.424 9.424zM112.655 185.03h7.54a9.423 9.423 0 0 0 9.423-9.424 9.423 9.423 0 0 0-9.424-9.423h-7.539a9.423 9.423 0 0 0-9.424 9.423 9.423 9.423 0 0 0 9.424 9.424zM26.583 239.69a9.423 9.423 0 0 0-9.424-9.424h-7.54a9.423 9.423 0 0 0-9.423 9.424 9.423 9.423 0 0 0 9.424 9.424h7.539a9.423 9.423 0 0 0 9.424-9.424zM57.368 249.114h15.078a9.423 9.423 0 0 0 9.424-9.424 9.423 9.423 0 0 0-9.424-9.424H57.368a9.423 9.423 0 0 0-9.424 9.424 9.423 9.423 0 0 0 9.424 9.424zM112.655 249.114h7.54a9.423 9.423 0 0 0 9.423-9.424 9.423 9.423 0 0 0-9.424-9.424h-7.539a9.423 9.423 0 0 0-9.424 9.424 9.423 9.423 0 0 0 9.424 9.424zM596.42 185.03h7.539a9.423 9.423 0 0 0 9.424-9.424 9.423 9.423 0 0 0-9.424-9.423h-7.54a9.423 9.423 0 0 0-9.423 9.423 9.423 9.423 0 0 0 9.424 9.424zM644.168 185.03h15.078a9.423 9.423 0 0 0 9.424-9.424 9.423 9.423 0 0 0-9.424-9.423h-15.078a9.423 9.423 0 0 0-9.424 9.423 9.423 9.423 0 0 0 9.424 9.424zM699.455 185.03h7.54a9.423 9.423 0 0 0 9.424-9.424 9.423 9.423 0 0 0-9.424-9.423h-7.54a9.423 9.423 0 0 0-9.424 9.423 9.423 9.423 0 0 0 9.424 9.424zM613.383 239.69a9.423 9.423 0 0 0-9.424-9.424h-7.54a9.423 9.423 0 0 0-9.423 9.424 9.423 9.423 0 0 0 9.424 9.424h7.539a9.423 9.423 0 0 0 9.424-9.424zM644.168 249.114h15.078a9.423 9.423 0 0 0 9.424-9.424 9.423 9.423 0 0 0-9.424-9.424h-15.078a9.423 9.423 0 0 0-9.424 9.424 9.423 9.423 0 0 0 9.424 9.424zM699.455 249.114h7.54a9.423 9.423 0 0 0 9.424-9.424 9.423 9.423 0 0 0-9.424-9.424h-7.54a9.423 9.423 0 0 0-9.424 9.424 9.423 9.423 0 0 0 9.424 9.424zM389.092.32a9.423 9.423 0 0 0-9.424 9.424v15.079a9.423 9.423 0 0 0 9.424 9.424 9.423 9.423 0 0 0 9.424-9.424V9.744A9.423 9.423 0 0 0 389.092.32zM389.092 55.608a9.423 9.423 0 0 0-9.424 9.424V80.11a9.423 9.423 0 0 0 9.424 9.424 9.423 9.423 0 0 0 9.424-9.424V65.032a9.423 9.423 0 0 0-9.424-9.424zM321.24.32a9.423 9.423 0 0 0-9.425 9.424v15.079a9.423 9.423 0 0 0 9.424 9.424 9.423 9.423 0 0 0 9.424-9.424V9.744A9.423 9.423 0 0 0 321.24.32zM321.24 55.608a9.423 9.423 0 0 0-9.425 9.424V80.11a9.423 9.423 0 0 0 9.424 9.424 9.423 9.423 0 0 0 9.424-9.424V65.032a9.423 9.423 0 0 0-9.424-9.424z"/><circle cx="95.692" cy="70.058" r="50.261" fill="#65A3DF" fill-rule="nonzero"/><path fill="#4C89C3" fill-rule="nonzero" d="M115.797 100.215c-27.758 0-50.262-22.504-50.262-50.262 0-8.709 2.217-16.9 6.115-24.042-15.62 8.525-26.22 25.098-26.22 44.147 0 27.758 22.504 50.261 50.262 50.261 19.05 0 35.621-10.599 44.147-26.219a50.05 50.05 0 0 1-24.042 6.115z"/><path fill="#000" fill-rule="nonzero" d="M212.93 63.393a9.424 9.424 0 0 0-6.663-2.76h-51.641c-4.532-28.447-29.23-50.26-58.934-50.26-32.91 0-59.685 26.775-59.685 59.685 0 32.91 26.775 59.685 59.685 59.685 29.703 0 54.402-21.813 58.934-50.261h47.737l47.5 47.502c3.833 3.83 10.305 3.575 13.829-.542 3.158-3.689 2.93-9.356-.502-12.788l-50.26-50.26zM95.692 110.895c-22.517 0-40.837-18.319-40.837-40.837 0-22.518 18.32-40.837 40.837-40.837 22.517 0 40.837 18.319 40.837 40.837 0 22.518-18.32 40.837-40.837 40.837z"/><circle cx="694.403" cy="383.13" r="50.261" fill="#65A3DF" fill-rule="nonzero"/><path fill="#4C89C3" fill-rule="nonzero" d="M714.508 413.286c-27.758 0-50.261-22.503-50.261-50.26 0-8.71 2.216-16.901 6.114-24.043-15.62 8.525-26.219 25.098-26.219 44.147 0 27.758 22.503 50.261 50.261 50.261 19.05 0 35.622-10.599 44.147-26.219a50.05 50.05 0 0 1-24.042 6.114z"/><path fill="#000" fill-rule="nonzero" d="M694.403 323.444c-29.703 0-54.401 21.814-58.933 50.262h-46.096l-47.569-85.624c-2.493-4.488-8.326-6.155-12.814-3.662-4.49 2.495-6.156 8.327-3.661 12.816l50.26 90.47a9.424 9.424 0 0 0 8.239 4.846h51.64c4.533 28.448 29.231 50.262 58.934 50.262 32.91 0 59.686-26.776 59.686-59.686s-26.776-59.684-59.686-59.684zm0 100.523c-22.517 0-40.837-18.319-40.837-40.837 0-22.519 18.32-40.838 40.837-40.838 22.517 0 40.838 18.32 40.838 40.838s-18.32 40.837-40.838 40.837z"/><path fill="#F6BC0D" fill-rule="nonzero" d="M501.325 238.905h-9.88c-10.31 39.092-16.754 57.135-30.93 84.199-14.176 26.634-29.212 48.113-49.402 70.881 46.825 31.36 155.939 56.966 155.939 61 0 4.035-33.831 68.305-37.804 67.875-3.972-.43-117.705-45.536-167.537-83.769-48.113 36.944-167.454 83.769-172.263 84.199-4.809.43-36.085-60.572-36.085-64.438 0-3.866 118.135-36.085 159.375-64.867-22.338-24.486-39.092-48.113-54.127-75.177-14.176-25.775-20.62-40.81-33.078-79.903h-8.592c-20.62 0-53.634 2.578-57.134 2.578s0-63.578 0-66.586c0-3.007 34.796 3.008 58.853 3.008H320.9V150.41c0-10.74-5.155-23.97-2.577-29.211 2.577-5.242 71.74-5.242 74.318 0 2.577 5.241-2.578 18.042-2.578 28.782v27.923h108.685c24.057 0 59.282-6.015 59.282-3.008 0 3.008 4.538 66.586 0 66.586-4.537 0-34.366-2.578-56.705-2.578zm-81.62 0c-1.948-1.727-122.839-1.727-124.58 0-1.74 1.728 15.036 42.1 28.783 64.867 12.028 20.19 33.28 48.114 36.085 48.114 2.803 0 24.056-29.641 33.937-47.684 12.028-21.05 27.722-63.569 25.775-65.297z"/><path fill="#F69A0D" fill-rule="nonzero" d="M344.058 123.284l5.453 19.653v63.359H194.867l-31.065-8.661v-20.713h160.122v-53.638z"/><path stroke="#000" stroke-width="18" d="M501.325 238.905h-9.88c-10.31 39.092-16.754 57.135-30.93 84.199-14.176 26.634-29.212 48.113-49.402 70.881 46.825 31.36 155.939 56.966 155.939 61 0 4.035-33.831 68.305-37.804 67.875-3.972-.43-117.705-45.536-167.537-83.769-48.113 36.944-167.454 83.769-172.263 84.199-4.809.43-36.085-60.572-36.085-64.438 0-3.866 118.135-36.085 159.375-64.867-22.338-24.486-39.092-48.113-54.127-75.177-14.176-25.775-20.62-40.81-33.078-79.903h-8.592c-20.62 0-53.634 2.578-57.134 2.578s0-63.578 0-66.586c0-3.007 34.796 3.008 58.853 3.008H320.9V150.41c0-10.74-5.155-23.97-2.577-29.211 2.577-5.242 71.74-5.242 74.318 0 2.577 5.241-2.578 18.042-2.578 28.782v27.923h108.685c24.057 0 59.282-6.015 59.282-3.008 0 3.008 4.538 66.586 0 66.586-4.537 0-34.366-2.578-56.705-2.578zm-81.62 0c-1.816 0-122.839-1.727-124.58 0-1.74 1.728 15.036 42.1 28.783 64.867 12.028 20.19 33.28 48.114 36.085 48.114 2.803 0 24.056-29.641 33.937-47.684 12.028-21.05 27.59-65.297 25.775-65.297z"/><path fill="#000" fill-rule="nonzero" d="M566.263 577.309a9.423 9.423 0 0 0 9.424-9.424v-15.079a9.423 9.423 0 0 0-9.424-9.424 9.423 9.423 0 0 0-9.424 9.424v15.079a9.423 9.423 0 0 0 9.424 9.424zM566.263 632.596a9.423 9.423 0 0 0 9.424-9.424v-15.078a9.423 9.423 0 0 0-9.424-9.424 9.423 9.423 0 0 0-9.424 9.424v15.078a9.423 9.423 0 0 0 9.424 9.424zM152.864 632.596a9.423 9.423 0 0 0 9.424-9.424v-15.078a9.423 9.423 0 0 0-9.424-9.424 9.423 9.423 0 0 0-9.424 9.424v15.078a9.423 9.423 0 0 0 9.424 9.424zM152.864 577.309a9.423 9.423 0 0 0 9.424-9.424v-15.079a9.423 9.423 0 0 0-9.424-9.424 9.423 9.423 0 0 0-9.424 9.424v15.079a9.423 9.423 0 0 0 9.424 9.424zM181.764 587.42c-2.754 3.669-2.42 9.067.876 12.302l30.157 30.157c3.832 3.831 10.305 3.575 13.828-.541 3.159-3.69 2.93-9.357-.501-12.788l-14.068-14.068h295.017l-14.07 14.068c-3.431 3.431-3.659 9.098-.5 12.788 3.522 4.115 9.995 4.372 13.827.541l30.157-30.157c3.68-3.681 3.68-9.647 0-13.328l-30.157-30.156c-3.68-3.68-9.647-3.68-13.327 0-3.68 3.681-3.68 9.647 0 13.328l14.069 14.068H212.056l14.069-14.068c3.68-3.682 3.68-9.648 0-13.328-3.68-3.68-9.648-3.68-13.327 0l-30.157 30.156a8.638 8.638 0 0 0-.877 1.027z"/></g></g></svg>
