<svg xmlns="http://www.w3.org/2000/svg" viewBox="0 0 761 510" xmlns:xlink="http://www.w3.org/1999/xlink"><defs><path id="a" d="M1.97 0h750v500h-750z"/><mask id="b" width="760" height="510" x="-5" y="-5"><path fill="#fff" d="M-3.03-5h760v510h-760z"/><use xlink:href="#a"/></mask></defs><g fill="none" fill-rule="evenodd" transform="translate(4 5)"><use stroke="#000" stroke-width="10" mask="url(#b)" stroke-dasharray="10 5" xlink:href="#a"/><path stroke="#000" stroke-width="5" d="M169.47 0v500M284.82 0v500m465.65-361.5H.47m750.75 226.43h-750M526.79 0v500M642.14 0v500" stroke-linecap="square" stroke-dasharray="10"/><path fill="#00ffff" fill-opacity=".5" d="M1.97 0h280.35v136.5H1.97z"/><path fill="#fff44f" fill-opacity=".5" d="M529.29 0h224v136.5h-224z"/><path fill="#ff4f5e" fill-opacity=".5" d="M.47 139.5h54.296v223.43H.47zm584.874 0h54.297v223.43h-54.294z"/><path fill="#54ffbd" fill-opacity=".5" d="M171.97 139.5h352.32v223.43H171.97z"/><path fill="#6e008b" fill-opacity=".5" d="M1.97 366.93h750v134.5h-750z"/></g></svg>
