<svg xmlns="http://www.w3.org/2000/svg" fill="none" viewBox="0 0 440 440">
  <circle cx="220" cy="220" r="220" fill="#282B2E"/>
  <path fill="#fff" fill-rule="evenodd" d="m349.909 90.814-34.641.026v10.179C304.01 94.052 290.739 90.015 276.509 90c-22.619.015-42.91 10.184-56.466 26.203-13.554-16.019-33.845-26.188-56.463-26.2-40.645.01-73.57 32.846-73.58 73.379-.003 20.207 8.243 38.693 21.503 52.001 12.978 13.076 31.047 21.372 50.923 21.675v.027h-1.155c10.813.005 22.86 4.336 30.025 11.405 7.141 7.101 11.487 16.676 11.497 27.398.003 10.723-4.406 20.622-11.616 27.915-7.107 7.146-17.711 11.512-28.174 11.668-10.573-.161-19.982-4.432-26.955-11.358-7.074-7.081-11.398-16.68-11.406-27.456H90c.01 40.146 32.316 72.722 72.424 73.347v.03h1.103l.052.001v-.001h.01c20.416.001 38.969-8.539 52.229-21.952a75.295 75.295 0 0 0 4.47-4.939 72.4 72.4 0 0 0 4.203 4.517c13.329 13.147 31.832 21.23 52.017 21.224h.038c20.3 0 38.788-8.356 51.998-21.669a73.574 73.574 0 0 0 21.426-50.822h.03l-.091-185.579Zm-112.543 72.554c.008-10.731 4.353-20.318 11.475-27.413 7.15-7.073 16.857-11.399 27.668-11.404 18.02-.034 34.192 12.258 38.759 28.8v10.043l.002 3.271c-.945 9.642-5.888 18.08-11.984 24.351-6.821 6.948-15.973 11.166-26.777 11.195-10.811-.005-20.518-4.332-27.668-11.402-7.125-7.102-11.469-16.692-11.475-27.428v-.013Zm66.581 139.518c-7.106 7.11-16.684 11.436-27.439 11.447-10.887-.009-20.583-4.292-27.682-11.26-7.073-7.002-11.378-16.439-11.394-27.188.01-20.265-8.374-38.725-21.735-51.917-13.082-12.968-32.273-21.101-52.118-21.404v-.03c-10.742-.007-20.355-4.348-27.486-11.486-7.101-7.16-11.448-16.892-11.454-27.669.011-10.778 4.332-20.376 11.405-27.455 7.101-7.056 16.726-11.366 27.534-11.374 10.807.004 20.515 4.331 27.666 11.402 7.121 7.097 11.462 16.682 11.476 27.408v.019c.044 40.629 33.179 73.356 73.787 73.381h.107c14.243 0 27.551-4.148 38.7-11.251l.039 49.802c-.021 10.774-4.349 20.455-11.406 27.575Z" clip-rule="evenodd"/>
</svg>
