<svg xmlns="http://www.w3.org/2000/svg" xml:space="preserve" viewBox="0 0 1155 1155"><path fill="#FFF" d="M0 0h1155v1155H0z"/><path d="M350 70h35v35h-35zM385 70h35v35h-35zM455 70h35v35h-35zM525 70h35v35h-35zM560 70h35v35h-35zM595 70h35v35h-35zM665 70h35v35h-35zM700 70h35v35h-35zM735 70h35v35h-35zM350 105h35v35h-35zM420 105h35v35h-35zM455 105h35v35h-35zM490 105h35v35h-35zM525 105h35v35h-35zM630 105h35v35h-35zM700 105h35v35h-35zM385 140h35v35h-35zM420 140h35v35h-35zM490 140h35v35h-35zM630 140h35v35h-35zM700 140h35v35h-35zM735 140h35v35h-35zM770 140h35v35h-35zM350 175h35v35h-35zM490 175h35v35h-35zM560 175h35v35h-35zM595 175h35v35h-35zM665 175h35v35h-35zM735 175h35v35h-35zM385 210h35v35h-35zM455 210h35v35h-35zM490 210h35v35h-35zM560 210h35v35h-35zM630 210h35v35h-35zM665 210h35v35h-35zM735 210h35v35h-35zM385 245h35v35h-35zM420 245h35v35h-35zM455 245h35v35h-35zM525 245h35v35h-35zM595 245h35v35h-35zM630 245h35v35h-35zM700 245h35v35h-35zM735 245h35v35h-35zM770 245h35v35h-35zM350 280h35v35h-35zM420 280h35v35h-35zM490 280h35v35h-35zM560 280h35v35h-35zM630 280h35v35h-35zM700 280h35v35h-35zM770 280h35v35h-35zM350 315h35v35h-35zM385 315h35v35h-35zM420 315h35v35h-35zM490 315h35v35h-35zM595 315h35v35h-35zM630 315h35v35h-35zM665 315h35v35h-35zM700 315h35v35h-35zM735 315h35v35h-35zM70 350h35v35H70zM140 350h35v35h-35zM175 350h35v35h-35zM245 350h35v35h-35zM280 350h35v35h-35zM315 350h35v35h-35zM385 350h35v35h-35zM420 350h35v35h-35zM525 350h35v35h-35zM595 350h35v35h-35zM665 350h35v35h-35zM700 350h35v35h-35zM840 350h35v35h-35zM945 350h35v35h-35zM1015 350h35v35h-35zM1050 350h35v35h-35zM140 385h35v35h-35zM175 385h35v35h-35zM245 385h35v35h-35zM455 385h35v35h-35zM490 385h35v35h-35zM525 385h35v35h-35zM560 385h35v35h-35zM595 385h35v35h-35zM665 385h35v35h-35zM700 385h35v35h-35zM735 385h35v35h-35zM770 385h35v35h-35zM805 385h35v35h-35zM840 385h35v35h-35zM875 385h35v35h-35zM910 385h35v35h-35zM1050 385h35v35h-35zM70 420h35v35H70zM175 420h35v35h-35zM280 420h35v35h-35zM315 420h35v35h-35zM385 420h35v35h-35zM420 420h35v35h-35zM525 420h35v35h-35zM630 420h35v35h-35zM700 420h35v35h-35zM805 420h35v35h-35zM875 420h35v35h-35zM980 420h35v35h-35zM1015 420h35v35h-35zM70 455h35v35H70zM105 455h35v35h-35zM175 455h35v35h-35zM315 455h35v35h-35zM350 455h35v35h-35zM455 455h35v35h-35zM490 455h35v35h-35zM630 455h35v35h-35zM805 455h35v35h-35zM840 455h35v35h-35zM875 455h35v35h-35zM1050 455h35v35h-35zM70 490h35v35H70zM105 490h35v35h-35zM140 490h35v35h-35zM175 490h35v35h-35zM280 490h35v35h-35zM350 490h35v35h-35zM455 490h35v35h-35zM490 490h35v35h-35zM560 490h35v35h-35zM595 490h35v35h-35zM665 490h35v35h-35zM700 490h35v35h-35zM875 490h35v35h-35zM945 490h35v35h-35zM980 490h35v35h-35zM140 525h35v35h-35zM210 525h35v35h-35zM245 525h35v35h-35zM350 525h35v35h-35zM385 525h35v35h-35zM560 525h35v35h-35zM630 525h35v35h-35zM735 525h35v35h-35zM840 525h35v35h-35zM980 525h35v35h-35zM1015 525h35v35h-35zM1050 525h35v35h-35zM140 560h35v35h-35zM210 560h35v35h-35zM245 560h35v35h-35zM280 560h35v35h-35zM385 560h35v35h-35zM490 560h35v35h-35zM525 560h35v35h-35zM595 560h35v35h-35zM630 560h35v35h-35zM700 560h35v35h-35zM735 560h35v35h-35zM805 560h35v35h-35zM875 560h35v35h-35zM980 560h35v35h-35zM1015 560h35v35h-35zM1050 560h35v35h-35zM105 595h35v35h-35zM315 595h35v35h-35zM350 595h35v35h-35zM455 595h35v35h-35zM560 595h35v35h-35zM630 595h35v35h-35zM735 595h35v35h-35zM770 595h35v35h-35zM840 595h35v35h-35zM910 595h35v35h-35zM1015 595h35v35h-35zM70 630h35v35H70zM105 630h35v35h-35zM245 630h35v35h-35zM280 630h35v35h-35zM315 630h35v35h-35zM350 630h35v35h-35zM385 630h35v35h-35zM420 630h35v35h-35zM455 630h35v35h-35zM490 630h35v35h-35zM560 630h35v35h-35zM595 630h35v35h-35zM630 630h35v35h-35zM665 630h35v35h-35zM700 630h35v35h-35zM735 630h35v35h-35zM770 630h35v35h-35zM805 630h35v35h-35zM875 630h35v35h-35zM910 630h35v35h-35zM945 630h35v35h-35zM1015 630h35v35h-35zM105 665h35v35h-35zM210 665h35v35h-35zM245 665h35v35h-35zM350 665h35v35h-35zM385 665h35v35h-35zM420 665h35v35h-35zM455 665h35v35h-35zM490 665h35v35h-35zM560 665h35v35h-35zM630 665h35v35h-35zM700 665h35v35h-35zM875 665h35v35h-35zM945 665h35v35h-35zM980 665h35v35h-35zM1015 665h35v35h-35zM70 700h35v35H70zM280 700h35v35h-35zM350 700h35v35h-35zM420 700h35v35h-35zM490 700h35v35h-35zM525 700h35v35h-35zM560 700h35v35h-35zM595 700h35v35h-35zM630 700h35v35h-35zM770 700h35v35h-35zM910 700h35v35h-35zM980 700h35v35h-35zM210 735h35v35h-35zM315 735h35v35h-35zM350 735h35v35h-35zM420 735h35v35h-35zM455 735h35v35h-35zM490 735h35v35h-35zM525 735h35v35h-35zM560 735h35v35h-35zM665 735h35v35h-35zM700 735h35v35h-35zM735 735h35v35h-35zM770 735h35v35h-35zM840 735h35v35h-35zM980 735h35v35h-35zM105 770h35v35h-35zM140 770h35v35h-35zM175 770h35v35h-35zM210 770h35v35h-35zM280 770h35v35h-35zM350 770h35v35h-35zM385 770h35v35h-35zM525 770h35v35h-35zM560 770h35v35h-35zM630 770h35v35h-35zM700 770h35v35h-35zM735 770h35v35h-35zM770 770h35v35h-35zM805 770h35v35h-35zM840 770h35v35h-35zM875 770h35v35h-35zM910 770h35v35h-35zM945 770h35v35h-35zM980 770h35v35h-35zM350 805h35v35h-35zM420 805h35v35h-35zM595 805h35v35h-35zM630 805h35v35h-35zM735 805h35v35h-35zM770 805h35v35h-35zM910 805h35v35h-35zM945 805h35v35h-35zM980 805h35v35h-35zM1015 805h35v35h-35zM1050 805h35v35h-35zM350 840h35v35h-35zM455 840h35v35h-35zM490 840h35v35h-35zM560 840h35v35h-35zM595 840h35v35h-35zM735 840h35v35h-35zM770 840h35v35h-35zM840 840h35v35h-35zM910 840h35v35h-35zM945 840h35v35h-35zM1015 840h35v35h-35zM350 875h35v35h-35zM455 875h35v35h-35zM525 875h35v35h-35zM560 875h35v35h-35zM595 875h35v35h-35zM700 875h35v35h-35zM770 875h35v35h-35zM910 875h35v35h-35zM945 875h35v35h-35zM1050 875h35v35h-35zM385 910h35v35h-35zM490 910h35v35h-35zM630 910h35v35h-35zM700 910h35v35h-35zM770 910h35v35h-35zM805 910h35v35h-35zM840 910h35v35h-35zM875 910h35v35h-35zM910 910h35v35h-35zM980 910h35v35h-35zM1050 910h35v35h-35zM350 945h35v35h-35zM455 945h35v35h-35zM490 945h35v35h-35zM735 945h35v35h-35zM805 945h35v35h-35zM910 945h35v35h-35zM945 945h35v35h-35zM1015 945h35v35h-35zM350 980h35v35h-35zM665 980h35v35h-35zM700 980h35v35h-35zM735 980h35v35h-35zM875 980h35v35h-35zM980 980h35v35h-35zM1050 980h35v35h-35zM420 1015h35v35h-35zM525 1015h35v35h-35zM560 1015h35v35h-35zM595 1015h35v35h-35zM665 1015h35v35h-35zM700 1015h35v35h-35zM735 1015h35v35h-35zM770 1015h35v35h-35zM805 1015h35v35h-35zM875 1015h35v35h-35zM945 1015h35v35h-35zM1015 1015h35v35h-35zM350 1050h35v35h-35zM385 1050h35v35h-35zM455 1050h35v35h-35zM490 1050h35v35h-35zM525 1050h35v35h-35zM665 1050h35v35h-35zM700 1050h35v35h-35zM735 1050h35v35h-35zM770 1050h35v35h-35zM805 1050h35v35h-35zM840 1050h35v35h-35zM875 1050h35v35h-35zM945 1050h35v35h-35zM1015 1050h35v35h-35z"/><path fill="none" d="M106.75 106.75h171.5v171.5h-171.5z"/><path d="M278.25 70H70v245h245V70h-36.75zm0 208.25h-171.5v-171.5h171.5v171.5z"/><path fill="none" d="M876.75 106.75h171.5v171.5h-171.5z"/><path d="M1048.25 70H840v245h245V70h-36.75zm0 208.25h-171.5v-171.5h171.5v171.5z"/><path fill="none" d="M106.75 876.75h171.5v171.5h-171.5z"/><path d="M278.25 840H70v245h245V840h-36.75zm0 208.25h-171.5v-171.5h171.5v171.5zM140 140h105v105H140zM910 140h105v105H910z"/><path d="M140 910h105v105H140z"/></svg>
