<svg xmlns="http://www.w3.org/2000/svg" viewBox="0 0 2217 1730"><g fill="none" fill-rule="evenodd" transform="translate(0 10)"><path stroke="#828081" stroke-width="20" d="M200.379 187.844v1396.445s39.809 99.375 151.871 99.375c112.063 0 148.129-99.375 148.129-99.375V108.11S541.188.72 651.406.72c110.219 0 148.973 107.39 148.973 107.39l-.004 1476.18s30.406 99.375 150 99.375 150-99.375 150-99.375V108.11S1139.469.72 1250.375.72s150 107.39 150 107.39v1476.18s39.125 99.375 153.156 99.375c114.032 0 145-99.375 145-99.375V108.11S1737.36.72 1857.406.72s159.388 107.39 159.388 107.39v1575.555"/><path fill="#828081" d="M2065.027 1590.66h-96.133l48.067 129.105z"/><rect width="399.002" height="371.196" x=".952" y="141.451" fill="#e8c796" rx="50"/><path fill="#FFF" fill-rule="nonzero" stroke="#000" stroke-width="5" d="M184.06 264.408c-2.876-19.76-10.852-47.05-11.774-60.057-.815-11.5 5.678-19.7 15.682-24.25 3.617-1.644 7.86-2.551 12.32-2.551s8.703.907 12.32 2.551c10.004 4.55 16.497 12.75 15.682 24.25-.922 13.008-8.897 40.297-11.774 60.057M154.996 280.878c-12.372-15.674-32.924-35.32-40.226-46.124-6.456-9.552-4.933-19.9 1.456-28.841 2.31-3.233 5.531-6.14 9.394-8.37 3.863-2.23 7.99-3.567 11.946-3.95 10.938-1.063 20.66 2.791 25.705 13.159 5.706 11.726 12.443 39.347 19.832 57.898M137.812 343.102c-19.76 2.876-47.05 10.852-60.058 11.774-11.5.815-19.7-5.678-24.249-15.681-1.645-3.618-2.552-7.86-2.552-12.321 0-4.46.907-8.703 2.552-12.32 4.549-10.004 12.749-16.497 24.25-15.682 13.007.922 40.297 8.897 60.057 11.774M138.07 309.687c-18.552-7.389-46.173-14.126-57.9-19.832-10.367-5.044-14.221-14.767-13.159-25.705.384-3.955 1.72-8.083 3.95-11.946 2.23-3.862 5.138-7.084 8.37-9.394 8.942-6.389 19.29-7.912 28.842-1.456 10.804 7.303 30.45 27.854 46.124 40.226M154.298 372.17c-15.675 12.371-35.32 32.923-46.125 40.226-9.552 6.456-19.9 4.933-28.84-1.456-3.234-2.31-6.141-5.532-8.371-9.394-2.23-3.863-3.566-7.991-3.95-11.946-1.063-10.938 2.792-20.661 13.16-25.705 11.725-5.706 39.346-12.443 57.898-19.833M183.107 389.1c-7.39 18.552-14.127 46.173-19.833 57.9-5.044 10.367-14.767 14.221-25.705 13.159-3.955-.384-8.083-1.72-11.946-3.95-3.862-2.23-7.083-5.138-9.394-8.37-6.389-8.942-7.912-19.29-1.456-28.842 7.303-10.804 27.855-30.45 40.226-46.124M216.52 389.358c2.876 19.76 10.852 47.05 11.774 60.058.815 11.5-5.678 19.7-15.682 24.25-3.617 1.644-7.86 2.551-12.32 2.551s-8.704-.907-12.321-2.552c-10.004-4.549-16.497-12.748-15.682-24.249.923-13.008 8.898-40.297 11.775-60.058M245.584 372.879c12.371 15.675 32.923 35.32 40.225 46.124 6.457 9.553 4.933 19.9-1.456 28.841-2.31 3.234-5.531 6.14-9.394 8.37-3.862 2.23-7.99 3.567-11.946 3.951-10.937 1.063-20.66-2.792-25.705-13.16-5.705-11.726-12.443-39.347-19.832-57.898M262.517 344.075c18.551 7.389 46.172 14.126 57.899 19.832 10.367 5.044 14.222 14.767 13.16 25.705-.385 3.955-1.721 8.083-3.951 11.946-2.23 3.862-5.137 7.084-8.37 9.394-8.941 6.389-19.29 7.912-28.842 1.456-10.804-7.303-30.45-27.854-46.124-40.226M262.769 310.676c19.76-2.877 47.05-10.852 60.058-11.775 11.5-.815 19.7 5.678 24.249 15.682 1.644 3.617 2.551 7.86 2.551 12.32s-.907 8.704-2.551 12.321c-4.55 10.004-12.75 16.497-24.25 15.682-13.007-.922-40.297-8.898-60.057-11.774M217.476 264.668c7.389-18.551 14.126-46.172 19.832-57.898 5.044-10.368 14.767-14.223 25.705-13.16 3.955.384 8.083 1.72 11.946 3.95 3.862 2.23 7.084 5.137 9.394 8.37 6.389 8.942 7.912 19.29 1.456 28.842-7.303 10.804-27.854 30.45-40.226 46.124M246.304 281.608c15.675-12.371 35.32-32.923 46.124-40.225 9.553-6.457 19.9-4.933 28.842 1.456 3.233 2.31 6.14 5.531 8.37 9.394 2.23 3.862 3.566 7.99 3.95 11.946 1.063 10.937-2.792 20.66-13.16 25.705-11.726 5.705-39.347 12.443-57.898 19.832"/><path fill="#FFD800" fill-rule="nonzero" stroke="#020000" stroke-width="6" d="M264.26 326.883c0 35.33-28.64 63.97-63.97 63.97s-63.97-28.64-63.97-63.97 28.64-63.97 63.97-63.97 63.97 28.64 63.97 63.97z"/><rect width="399.002" height="572.047" x="600.952" y="141.406" fill="#e8c796" rx="50"/><path fill="#FFF" fill-rule="nonzero" stroke="#000" stroke-width="5" d="M784.06 364.79c-2.876-19.761-10.852-47.05-11.774-60.059-.815-11.5 5.678-19.7 15.682-24.249 3.617-1.645 7.86-2.552 12.32-2.552s8.703.907 12.32 2.552c10.004 4.549 16.497 12.749 15.682 24.25-.922 13.007-8.897 40.297-11.774 60.057M754.996 381.26c-12.372-15.676-32.924-35.321-40.226-46.125-6.456-9.553-4.933-19.9 1.456-28.842 2.31-3.233 5.531-6.14 9.394-8.37 3.863-2.23 7.99-3.566 11.946-3.95 10.938-1.063 20.66 2.792 25.705 13.16 5.706 11.726 12.443 39.347 19.832 57.898M737.812 443.483c-19.76 2.876-47.05 10.852-60.058 11.774-11.5.815-19.7-5.678-24.249-15.682-1.645-3.617-2.552-7.86-2.552-12.32s.907-8.704 2.552-12.321c4.549-10.004 12.749-16.497 24.25-15.682 13.007.923 40.297 8.898 60.057 11.775M738.07 410.068c-18.552-7.389-46.173-14.127-57.9-19.832-10.367-5.044-14.221-14.767-13.159-25.705.384-3.955 1.72-8.083 3.95-11.946 2.23-3.863 5.138-7.084 8.37-9.394 8.942-6.39 19.29-7.912 28.842-1.456 10.804 7.302 30.45 27.854 46.124 40.225M754.298 472.55c-15.675 12.372-35.32 32.924-46.125 40.226-9.552 6.457-19.9 4.933-28.84-1.456-3.234-2.31-6.141-5.531-8.371-9.394-2.23-3.862-3.566-7.99-3.95-11.946-1.063-10.937 2.792-20.66 13.16-25.705 11.725-5.705 39.346-12.443 57.898-19.832M783.107 489.481c-7.39 18.552-14.127 46.173-19.833 57.899-5.044 10.367-14.767 14.222-25.705 13.16-3.955-.385-8.083-1.72-11.946-3.95-3.862-2.23-7.083-5.138-9.394-8.371-6.389-8.941-7.912-19.289-1.456-28.841 7.303-10.804 27.855-30.45 40.226-46.125M816.52 489.739c2.876 19.76 10.852 47.05 11.774 60.058.815 11.5-5.678 19.7-15.682 24.249-3.617 1.645-7.86 2.552-12.32 2.552s-8.704-.907-12.321-2.552c-10.004-4.549-16.497-12.749-15.682-24.25.923-13.007 8.898-40.297 11.775-60.057M845.584 473.26c12.371 15.674 32.923 35.32 40.225 46.124 6.457 9.552 4.933 19.9-1.456 28.841-2.31 3.233-5.531 6.14-9.394 8.37-3.862 2.23-7.99 3.567-11.946 3.95-10.937 1.063-20.66-2.791-25.705-13.159-5.705-11.726-12.443-39.347-19.832-57.899M862.517 444.455c18.551 7.39 46.172 14.127 57.899 19.832 10.367 5.045 14.222 14.768 13.16 25.706-.385 3.955-1.721 8.083-3.951 11.945-2.23 3.863-5.137 7.084-8.37 9.394-8.941 6.39-19.29 7.913-28.842 1.457-10.804-7.303-30.45-27.855-46.124-40.226M862.769 411.056c19.76-2.876 47.05-10.852 60.058-11.774 11.5-.815 19.7 5.678 24.249 15.682 1.644 3.617 2.551 7.86 2.551 12.32s-.907 8.704-2.551 12.32c-4.55 10.005-12.75 16.498-24.25 15.682-13.007-.922-40.297-8.897-60.057-11.774M817.476 365.049c7.389-18.551 14.126-46.172 19.832-57.899 5.044-10.367 14.767-14.222 25.705-13.16 3.955.385 8.083 1.72 11.946 3.95 3.862 2.231 7.084 5.138 9.394 8.371 6.389 8.941 7.912 19.29 1.456 28.841-7.303 10.805-27.854 30.45-40.226 46.125M846.304 381.989c15.675-12.371 35.32-32.923 46.124-40.226 9.553-6.456 19.9-4.933 28.842 1.456 3.233 2.31 6.14 5.532 8.37 9.394 2.23 3.863 3.566 7.991 3.95 11.946 1.063 10.938-2.792 20.661-13.16 25.706-11.726 5.705-39.347 12.443-57.898 19.832"/><path fill="#FFD800" fill-rule="nonzero" stroke="#020000" stroke-width="6" d="M864.26 427.264c0 35.33-28.64 63.97-63.97 63.97s-63.97-28.64-63.97-63.97 28.64-63.97 63.97-63.97 63.97 28.64 63.97 63.97z"/><rect width="399.002" height="433.829" x=".952" y="1125.624" fill="#e8c796" rx="50"/><path fill="#FFF" fill-rule="nonzero" stroke="#000" stroke-width="5" d="M184.434 1280.272c-2.876-19.76-10.852-47.05-11.774-60.058-.815-11.5 5.678-19.7 15.682-24.249 3.617-1.645 7.86-2.552 12.32-2.552s8.703.907 12.32 2.552c10.004 4.549 16.497 12.749 15.682 24.25-.922 13.007-8.897 40.297-11.774 60.057M155.37 1296.742c-12.372-15.675-32.923-35.32-40.226-46.124-6.456-9.552-4.933-19.9 1.456-28.841 2.31-3.234 5.531-6.14 9.394-8.37 3.863-2.23 7.99-3.567 11.946-3.951 10.938-1.063 20.66 2.792 25.705 13.16 5.706 11.726 12.443 39.347 19.832 57.898M138.186 1358.966c-19.76 2.876-47.05 10.852-60.058 11.774-11.5.815-19.7-5.678-24.249-15.682-1.645-3.617-2.552-7.86-2.552-12.32s.907-8.704 2.552-12.32c4.549-10.005 12.749-16.498 24.25-15.682 13.007.922 40.297 8.897 60.057 11.774M138.443 1325.551c-18.55-7.389-46.172-14.127-57.898-19.832-10.368-5.044-14.222-14.767-13.16-25.705.384-3.955 1.72-8.083 3.95-11.946 2.23-3.863 5.138-7.084 8.37-9.394 8.942-6.39 19.29-7.912 28.842-1.456 10.804 7.302 30.45 27.854 46.124 40.226M154.672 1388.034c-15.675 12.371-35.32 32.923-46.125 40.225-9.552 6.457-19.9 4.933-28.84-1.456-3.234-2.31-6.141-5.53-8.371-9.394-2.23-3.862-3.566-7.99-3.95-11.945-1.063-10.938 2.792-20.661 13.16-25.706 11.725-5.705 39.347-12.443 57.898-19.832M183.48 1404.964c-7.388 18.552-14.126 46.173-19.831 57.899-5.045 10.367-14.768 14.222-25.706 13.16-3.955-.385-8.083-1.72-11.946-3.95-3.862-2.23-7.083-5.138-9.394-8.37-6.389-8.942-7.912-19.29-1.456-28.842 7.303-10.804 27.855-30.45 40.226-46.125M216.894 1405.222c2.876 19.76 10.852 47.05 11.774 60.058.815 11.5-5.678 19.7-15.682 24.249-3.617 1.645-7.86 2.552-12.32 2.552s-8.704-.907-12.32-2.552c-10.005-4.549-16.498-12.749-15.682-24.25.922-13.007 8.897-40.297 11.774-60.057M245.958 1388.743c12.371 15.674 32.923 35.32 40.225 46.124 6.457 9.552 4.933 19.9-1.455 28.841-2.31 3.233-5.532 6.14-9.395 8.37-3.862 2.23-7.99 3.567-11.945 3.95-10.938 1.063-20.661-2.791-25.706-13.159-5.705-11.726-12.443-39.347-19.832-57.898M262.891 1359.938c18.551 7.39 46.172 14.127 57.899 19.832 10.367 5.045 14.222 14.768 13.16 25.706-.385 3.955-1.72 8.083-3.951 11.946-2.23 3.862-5.137 7.083-8.37 9.393-8.941 6.39-19.29 7.913-28.841 1.457-10.805-7.303-30.45-27.855-46.125-40.226M263.143 1326.54c19.76-2.877 47.05-10.853 60.058-11.775 11.5-.815 19.7 5.678 24.249 15.682 1.644 3.617 2.551 7.86 2.551 12.32s-.907 8.704-2.551 12.32c-4.55 10.005-12.749 16.498-24.25 15.682-13.007-.922-40.297-8.897-60.057-11.774M217.85 1280.532c7.389-18.551 14.126-46.172 19.832-57.899 5.044-10.367 14.767-14.222 25.705-13.16 3.955.385 8.083 1.72 11.946 3.951 3.863 2.23 7.084 5.137 9.394 8.37 6.389 8.941 7.912 19.29 1.456 28.841-7.303 10.805-27.854 30.45-40.226 46.125M246.678 1297.472c15.675-12.371 35.32-32.923 46.124-40.226 9.553-6.456 19.9-4.933 28.842 1.457 3.233 2.31 6.14 5.53 8.37 9.394 2.23 3.862 3.566 7.99 3.95 11.945 1.063 10.938-2.792 20.661-13.16 25.706-11.726 5.705-39.347 12.443-57.898 19.832"/><path fill="#FFD800" fill-rule="nonzero" stroke="#020000" stroke-width="6" d="M264.635 1342.747c0 35.33-28.64 63.97-63.97 63.97s-63.971-28.64-63.971-63.97 28.64-63.97 63.97-63.97 63.97 28.64 63.97 63.97z"/><rect width="399.002" height="786.313" x="600.952" y="773" fill="#e8c796" rx="50"/><path fill="#FFF" fill-rule="nonzero" stroke="#000" stroke-width="5" d="M784.434 1103.89c-2.876-19.76-10.852-47.05-11.774-60.058-.815-11.5 5.678-19.7 15.682-24.249 3.617-1.645 7.86-2.552 12.32-2.552s8.703.907 12.32 2.552c10.004 4.549 16.497 12.749 15.682 24.25-.922 13.007-8.897 40.297-11.774 60.057M755.37 1120.36c-12.372-15.675-32.923-35.32-40.226-46.124-6.456-9.553-4.933-19.9 1.456-28.842 2.31-3.233 5.531-6.14 9.394-8.37 3.863-2.23 7.99-3.566 11.946-3.95 10.938-1.063 20.66 2.792 25.705 13.16 5.706 11.726 12.443 39.347 19.832 57.898M738.186 1182.584c-19.76 2.876-47.05 10.852-60.058 11.774-11.5.815-19.7-5.678-24.249-15.682-1.645-3.617-2.552-7.86-2.552-12.32s.907-8.704 2.552-12.321c4.549-10.004 12.749-16.497 24.25-15.682 13.007.923 40.297 8.898 60.057 11.775M738.443 1149.17c-18.55-7.39-46.172-14.128-57.898-19.833-10.368-5.044-14.222-14.767-13.16-25.705.384-3.955 1.72-8.084 3.95-11.946 2.23-3.863 5.138-7.084 8.37-9.394 8.942-6.39 19.29-7.912 28.842-1.456 10.804 7.302 30.45 27.854 46.124 40.225M754.672 1211.652c-15.675 12.371-35.32 32.923-46.125 40.225-9.552 6.457-19.9 4.933-28.84-1.456-3.234-2.31-6.141-5.531-8.371-9.394-2.23-3.862-3.566-7.99-3.95-11.946-1.063-10.937 2.792-20.66 13.16-25.705 11.725-5.705 39.347-12.443 57.898-19.832M783.48 1228.582c-7.388 18.552-14.126 46.173-19.831 57.899-5.045 10.367-14.768 14.222-25.706 13.16-3.955-.385-8.083-1.72-11.946-3.95-3.862-2.23-7.083-5.138-9.394-8.371-6.389-8.941-7.912-19.289-1.456-28.841 7.303-10.804 27.855-30.45 40.226-46.125M816.894 1228.84c2.876 19.76 10.852 47.05 11.774 60.058.815 11.5-5.678 19.7-15.682 24.249-3.617 1.645-7.86 2.552-12.32 2.552s-8.704-.907-12.32-2.552c-10.005-4.549-16.498-12.749-15.682-24.25.922-13.007 8.897-40.297 11.774-60.057M845.958 1212.36c12.371 15.675 32.923 35.32 40.225 46.125 6.457 9.552 4.933 19.9-1.455 28.841-2.31 3.233-5.532 6.14-9.395 8.37-3.862 2.23-7.99 3.567-11.945 3.95-10.938 1.063-20.661-2.791-25.706-13.159-5.705-11.726-12.443-39.347-19.832-57.899M862.891 1183.556c18.551 7.39 46.172 14.127 57.899 19.832 10.367 5.045 14.222 14.768 13.16 25.706-.385 3.955-1.72 8.083-3.951 11.945-2.23 3.863-5.137 7.084-8.37 9.394-8.941 6.39-19.29 7.913-28.841 1.457-10.805-7.303-30.45-27.855-46.125-40.226M863.143 1150.157c19.76-2.876 47.05-10.852 60.058-11.774 11.5-.815 19.7 5.678 24.249 15.682 1.644 3.617 2.551 7.86 2.551 12.32s-.907 8.704-2.551 12.32c-4.55 10.005-12.749 16.498-24.25 15.682-13.007-.922-40.297-8.897-60.057-11.774M817.85 1104.15c7.389-18.551 14.126-46.173 19.832-57.899 5.044-10.367 14.767-14.222 25.705-13.16 3.955.385 8.083 1.72 11.946 3.95 3.863 2.231 7.084 5.138 9.394 8.371 6.389 8.941 7.912 19.29 1.456 28.841-7.303 10.805-27.854 30.45-40.226 46.125M846.678 1121.09c15.675-12.371 35.32-32.923 46.124-40.226 9.553-6.456 19.9-4.933 28.842 1.456 3.233 2.31 6.14 5.532 8.37 9.394 2.23 3.863 3.566 7.991 3.95 11.946 1.063 10.938-2.792 20.661-13.16 25.706-11.726 5.705-39.347 12.443-57.898 19.832"/><path fill="#FFD800" fill-rule="nonzero" stroke="#020000" stroke-width="6" d="M864.635 1166.365c0 35.33-28.64 63.97-63.97 63.97s-63.971-28.64-63.971-63.97 28.64-63.97 63.97-63.97 63.97 28.64 63.97 63.97z"/><rect width="399.002" height="478.639" x=".952" y="580.451" fill="#e8c796" rx="50"/><path fill="#FFF" fill-rule="nonzero" stroke="#000" stroke-width="5" d="M184.06 757.13c-2.876-19.76-10.852-47.05-11.774-60.058-.815-11.5 5.678-19.7 15.682-24.25 3.617-1.644 7.86-2.551 12.32-2.551s8.703.907 12.32 2.552c10.004 4.548 16.497 12.748 15.682 24.249-.922 13.008-8.897 40.297-11.774 60.058M154.996 773.6c-12.372-15.675-32.924-35.32-40.226-46.125-6.456-9.552-4.933-19.9 1.456-28.841 2.31-3.233 5.531-6.14 9.394-8.37 3.863-2.23 7.99-3.566 11.946-3.95 10.938-1.063 20.66 2.792 25.705 13.159 5.706 11.726 12.443 39.347 19.832 57.899M137.812 835.823c-19.76 2.877-47.05 10.852-60.058 11.774-11.5.816-19.7-5.678-24.249-15.681-1.645-3.618-2.552-7.86-2.552-12.32 0-4.461.907-8.704 2.552-12.321 4.549-10.004 12.749-16.497 24.25-15.682 13.007.922 40.297 8.898 60.057 11.774M138.07 802.409c-18.552-7.39-46.173-14.127-57.9-19.832-10.367-5.045-14.221-14.768-13.159-25.706.384-3.955 1.72-8.083 3.95-11.946 2.23-3.862 5.138-7.083 8.37-9.394 8.942-6.389 19.29-7.912 28.842-1.456 10.804 7.303 30.45 27.855 46.124 40.226M154.298 864.891c-15.675 12.372-35.32 32.923-46.125 40.226-9.552 6.456-19.9 4.933-28.84-1.456-3.234-2.31-6.141-5.531-8.371-9.394-2.23-3.863-3.566-7.99-3.95-11.946-1.063-10.938 2.792-20.66 13.16-25.705 11.725-5.706 39.346-12.443 57.898-19.832M183.107 881.822c-7.39 18.551-14.127 46.172-19.833 57.899-5.044 10.367-14.767 14.222-25.705 13.16-3.955-.385-8.083-1.721-11.946-3.951-3.862-2.23-7.083-5.137-9.394-8.37-6.389-8.942-7.912-19.29-1.456-28.842 7.303-10.804 27.855-30.45 40.226-46.124M216.52 882.08c2.876 19.76 10.852 47.05 11.774 60.057.815 11.5-5.678 19.7-15.682 24.25-3.617 1.644-7.86 2.551-12.32 2.551s-8.704-.907-12.321-2.552c-10.004-4.548-16.497-12.748-15.682-24.249.923-13.008 8.898-40.297 11.775-60.058M245.584 865.6c12.371 15.675 32.923 35.32 40.225 46.125 6.457 9.552 4.933 19.9-1.456 28.84-2.31 3.234-5.531 6.14-9.394 8.371-3.862 2.23-7.99 3.566-11.946 3.95-10.937 1.063-20.66-2.792-25.705-13.16-5.705-11.726-12.443-39.347-19.832-57.898M262.517 836.796c18.551 7.389 46.172 14.126 57.899 19.832 10.367 5.044 14.222 14.767 13.16 25.705-.385 3.955-1.721 8.083-3.951 11.946-2.23 3.863-5.137 7.084-8.37 9.394-8.941 6.39-19.29 7.912-28.842 1.456-10.804-7.303-30.45-27.854-46.124-40.226M262.769 803.397c19.76-2.877 47.05-10.852 60.058-11.774 11.5-.816 19.7 5.678 24.249 15.681 1.644 3.618 2.551 7.86 2.551 12.32 0 4.461-.907 8.704-2.551 12.321-4.55 10.004-12.75 16.497-24.25 15.682-13.007-.922-40.297-8.898-60.057-11.774M217.476 757.39c7.389-18.552 14.126-46.173 19.832-57.9 5.044-10.367 14.767-14.221 25.705-13.159 3.955.384 8.083 1.72 11.946 3.95 3.862 2.23 7.084 5.138 9.394 8.37 6.389 8.942 7.912 19.29 1.456 28.842-7.303 10.804-27.854 30.45-40.226 46.124M246.304 774.33c15.675-12.372 35.32-32.923 46.124-40.226 9.553-6.456 19.9-4.933 28.842 1.456 3.233 2.31 6.14 5.531 8.37 9.394 2.23 3.863 3.566 7.99 3.95 11.946 1.063 10.938-2.792 20.66-13.16 25.705-11.726 5.706-39.347 12.443-57.898 19.832"/><path fill="#FFD800" fill-rule="nonzero" stroke="#020000" stroke-width="6" d="M264.26 819.605c0 35.33-28.64 63.97-63.97 63.97s-63.97-28.64-63.97-63.97 28.64-63.971 63.97-63.971 63.97 28.64 63.97 63.97z"/><rect width="399.002" height="299.252" x="1816.952" y="820.441" fill="#e8c796" rx="50"/><path fill="#FFF" fill-rule="nonzero" stroke="#000" stroke-width="5" d="M2000.434 907.8c-2.876-19.76-10.852-47.05-11.774-60.057-.815-11.5 5.678-19.7 15.682-24.25 3.617-1.644 7.86-2.551 12.32-2.551s8.703.907 12.32 2.552c10.004 4.548 16.497 12.748 15.682 24.249-.922 13.008-8.897 40.297-11.774 60.058M1971.37 924.27c-12.372-15.674-32.923-35.32-40.226-46.124-6.456-9.552-4.933-19.9 1.456-28.841 2.31-3.233 5.531-6.14 9.394-8.37 3.863-2.23 7.99-3.566 11.946-3.95 10.938-1.063 20.66 2.792 25.705 13.159 5.706 11.726 12.443 39.347 19.832 57.899M1954.186 986.494c-19.76 2.877-47.05 10.852-60.058 11.774-11.5.816-19.7-5.678-24.249-15.681-1.645-3.618-2.552-7.86-2.552-12.32 0-4.461.907-8.704 2.552-12.321 4.549-10.004 12.749-16.497 24.25-15.682 13.007.922 40.297 8.898 60.057 11.774M1954.443 953.08c-18.55-7.39-46.172-14.127-57.898-19.832-10.368-5.045-14.222-14.768-13.16-25.706.384-3.955 1.72-8.083 3.95-11.946 2.23-3.862 5.138-7.083 8.37-9.394 8.942-6.389 19.29-7.912 28.842-1.456 10.804 7.303 30.45 27.855 46.124 40.226M1970.672 1015.562c-15.675 12.372-35.32 32.923-46.125 40.226-9.552 6.456-19.9 4.933-28.84-1.456-3.234-2.31-6.141-5.531-8.371-9.394-2.23-3.863-3.566-7.99-3.95-11.946-1.063-10.938 2.792-20.66 13.16-25.705 11.725-5.706 39.347-12.443 57.898-19.832M1999.48 1032.493c-7.388 18.551-14.126 46.172-19.831 57.899-5.045 10.367-14.768 14.222-25.706 13.16-3.955-.385-8.083-1.721-11.946-3.951-3.862-2.23-7.083-5.137-9.394-8.37-6.389-8.942-7.912-19.29-1.456-28.842 7.303-10.804 27.855-30.45 40.226-46.124M2032.894 1032.75c2.876 19.76 10.852 47.05 11.774 60.058.815 11.5-5.678 19.7-15.682 24.25-3.617 1.644-7.86 2.551-12.32 2.551s-8.704-.907-12.32-2.552c-10.005-4.548-16.498-12.748-15.682-24.249.922-13.008 8.897-40.297 11.774-60.058M2061.958 1016.271c12.371 15.675 32.923 35.32 40.225 46.125 6.457 9.552 4.933 19.9-1.455 28.84-2.31 3.234-5.532 6.14-9.395 8.371-3.862 2.23-7.99 3.566-11.945 3.95-10.938 1.063-20.661-2.792-25.706-13.16-5.705-11.726-12.443-39.347-19.832-57.898M2078.891 987.467c18.551 7.389 46.172 14.126 57.899 19.832 10.367 5.044 14.222 14.767 13.16 25.705-.385 3.955-1.72 8.083-3.951 11.946-2.23 3.863-5.137 7.084-8.37 9.394-8.941 6.39-19.29 7.912-28.841 1.456-10.805-7.303-30.45-27.854-46.125-40.226M2079.143 954.068c19.76-2.877 47.05-10.852 60.058-11.774 11.5-.816 19.7 5.678 24.249 15.681 1.644 3.618 2.551 7.86 2.551 12.32 0 4.461-.907 8.704-2.551 12.321-4.55 10.004-12.749 16.497-24.25 15.682-13.007-.922-40.297-8.898-60.057-11.774M2033.85 908.06c7.389-18.55 14.126-46.172 19.832-57.898 5.044-10.368 14.767-14.222 25.705-13.16 3.955.384 8.083 1.72 11.946 3.95 3.863 2.23 7.084 5.138 9.394 8.37 6.389 8.942 7.912 19.29 1.456 28.842-7.303 10.804-27.854 30.45-40.226 46.124M2062.678 925c15.675-12.37 35.32-32.922 46.124-40.225 9.553-6.456 19.9-4.933 28.842 1.456 3.233 2.31 6.14 5.531 8.37 9.394 2.23 3.863 3.566 7.99 3.95 11.946 1.063 10.938-2.792 20.66-13.16 25.705-11.726 5.706-39.347 12.443-57.898 19.832"/><path fill="#FFD800" fill-rule="nonzero" stroke="#020000" stroke-width="6" d="M2080.635 970.276c0 35.33-28.64 63.97-63.97 63.97s-63.971-28.64-63.971-63.97 28.64-63.971 63.97-63.971 63.97 28.64 63.97 63.97z"/><rect width="399.002" height="299.252" x="1816.952" y="480.822" fill="#e8c796" rx="50"/><path fill="#FFF" fill-rule="nonzero" stroke="#000" stroke-width="5" d="M2000.434 568.18c-2.876-19.76-10.852-47.049-11.774-60.057-.815-11.5 5.678-19.7 15.682-24.25 3.617-1.644 7.86-2.551 12.32-2.551s8.703.907 12.32 2.552c10.004 4.549 16.497 12.748 15.682 24.249-.922 13.008-8.897 40.297-11.774 60.058M1971.37 584.65c-12.372-15.674-32.923-35.32-40.226-46.124-6.456-9.552-4.933-19.9 1.456-28.84 2.31-3.234 5.531-6.141 9.394-8.371 3.863-2.23 7.99-3.566 11.946-3.95 10.938-1.063 20.66 2.792 25.705 13.16 5.706 11.725 12.443 39.347 19.832 57.898M1954.186 646.874c-19.76 2.877-47.05 10.852-60.058 11.774-11.5.816-19.7-5.677-24.249-15.681-1.645-3.617-2.552-7.86-2.552-12.32s.907-8.704 2.552-12.321c4.549-10.004 12.749-16.497 24.25-15.682 13.007.922 40.297 8.898 60.057 11.774M1954.443 613.46c-18.55-7.39-46.172-14.127-57.898-19.832-10.368-5.045-14.222-14.768-13.16-25.706.384-3.955 1.72-8.083 3.95-11.945 2.23-3.863 5.138-7.084 8.37-9.394 8.942-6.39 19.29-7.913 28.842-1.457 10.804 7.303 30.45 27.855 46.124 40.226M1970.672 675.942c-15.675 12.372-35.32 32.923-46.125 40.226-9.552 6.456-19.9 4.933-28.84-1.456-3.234-2.31-6.141-5.531-8.371-9.394-2.23-3.863-3.566-7.99-3.95-11.946-1.063-10.938 2.792-20.66 13.16-25.705 11.725-5.706 39.347-12.443 57.898-19.832M1999.48 692.873c-7.388 18.551-14.126 46.172-19.831 57.899-5.045 10.367-14.768 14.222-25.706 13.16-3.955-.385-8.083-1.72-11.946-3.951-3.862-2.23-7.083-5.137-9.394-8.37-6.389-8.942-7.912-19.29-1.456-28.841 7.303-10.805 27.855-30.45 40.226-46.125M2032.894 693.13c2.876 19.761 10.852 47.05 11.774 60.058.815 11.5-5.678 19.7-15.682 24.25-3.617 1.644-7.86 2.551-12.32 2.551s-8.704-.907-12.32-2.552c-10.005-4.548-16.498-12.748-15.682-24.249.922-13.008 8.897-40.297 11.774-60.057M2061.958 676.651c12.371 15.675 32.923 35.32 40.225 46.125 6.457 9.552 4.933 19.9-1.455 28.84-2.31 3.234-5.532 6.141-9.395 8.371-3.862 2.23-7.99 3.566-11.945 3.95-10.938 1.063-20.661-2.792-25.706-13.16-5.705-11.725-12.443-39.347-19.832-57.898M2078.891 647.847c18.551 7.389 46.172 14.127 57.899 19.832 10.367 5.044 14.222 14.767 13.16 25.705-.385 3.955-1.72 8.083-3.951 11.946-2.23 3.863-5.137 7.084-8.37 9.394-8.941 6.39-19.29 7.912-28.841 1.456-10.805-7.302-30.45-27.854-46.125-40.225M2079.143 614.448c19.76-2.877 47.05-10.852 60.058-11.774 11.5-.815 19.7 5.678 24.249 15.681 1.644 3.618 2.551 7.86 2.551 12.32 0 4.461-.907 8.704-2.551 12.321-4.55 10.004-12.749 16.497-24.25 15.682-13.007-.922-40.297-8.898-60.057-11.774M2033.85 568.44c7.389-18.55 14.126-46.172 19.832-57.898 5.044-10.368 14.767-14.222 25.705-13.16 3.955.384 8.083 1.72 11.946 3.95 3.863 2.23 7.084 5.138 9.394 8.37 6.389 8.942 7.912 19.29 1.456 28.842-7.303 10.804-27.854 30.45-40.226 46.124M2062.678 585.38c15.675-12.37 35.32-32.922 46.124-40.225 9.553-6.456 19.9-4.933 28.842 1.456 3.233 2.31 6.14 5.531 8.37 9.394 2.23 3.863 3.566 7.99 3.95 11.946 1.063 10.938-2.792 20.66-13.16 25.705-11.726 5.706-39.347 12.443-57.898 19.832"/><path fill="#FFD800" fill-rule="nonzero" stroke="#020000" stroke-width="6" d="M2080.635 630.656c0 35.33-28.64 63.97-63.97 63.97s-63.971-28.64-63.971-63.97 28.64-63.97 63.97-63.97 63.97 28.64 63.97 63.97z"/><rect width="399.002" height="299.252" x="1816.952" y="141.202" fill="#e8c796" rx="50"/><path fill="#FFF" fill-rule="nonzero" stroke="#000" stroke-width="5" d="M2000.434 228.56c-2.876-19.76-10.852-47.049-11.774-60.057-.815-11.5 5.678-19.7 15.682-24.25 3.617-1.644 7.86-2.551 12.32-2.551s8.703.907 12.32 2.552c10.004 4.549 16.497 12.749 15.682 24.249-.922 13.008-8.897 40.297-11.774 60.058M1971.37 245.03c-12.372-15.674-32.923-35.32-40.226-46.124-6.456-9.552-4.933-19.9 1.456-28.84 2.31-3.234 5.531-6.141 9.394-8.371 3.863-2.23 7.99-3.566 11.946-3.95 10.938-1.063 20.66 2.792 25.705 13.16 5.706 11.726 12.443 39.347 19.832 57.898M1954.186 307.254c-19.76 2.877-47.05 10.852-60.058 11.775-11.5.815-19.7-5.678-24.249-15.682-1.645-3.617-2.552-7.86-2.552-12.32s.907-8.704 2.552-12.321c4.549-10.004 12.749-16.497 24.25-15.682 13.007.922 40.297 8.898 60.057 11.774M1954.443 273.84c-18.55-7.39-46.172-14.127-57.898-19.832-10.368-5.045-14.222-14.768-13.16-25.706.384-3.955 1.72-8.083 3.95-11.945 2.23-3.863 5.138-7.084 8.37-9.394 8.942-6.39 19.29-7.913 28.842-1.456 10.804 7.302 30.45 27.854 46.124 40.225M1970.672 336.322c-15.675 12.372-35.32 32.924-46.125 40.226-9.552 6.456-19.9 4.933-28.84-1.456-3.234-2.31-6.141-5.531-8.371-9.394-2.23-3.863-3.566-7.99-3.95-11.946-1.063-10.938 2.792-20.66 13.16-25.705 11.725-5.705 39.347-12.443 57.898-19.832M1999.48 353.253c-7.388 18.551-14.126 46.172-19.831 57.899-5.045 10.367-14.768 14.222-25.706 13.16-3.955-.385-8.083-1.72-11.946-3.951-3.862-2.23-7.083-5.137-9.394-8.37-6.389-8.941-7.912-19.29-1.456-28.841 7.303-10.805 27.855-30.45 40.226-46.125M2032.894 353.51c2.876 19.761 10.852 47.05 11.774 60.058.815 11.501-5.678 19.7-15.682 24.25-3.617 1.644-7.86 2.551-12.32 2.551s-8.704-.907-12.32-2.551c-10.005-4.55-16.498-12.749-15.682-24.25.922-13.008 8.897-40.297 11.774-60.057M2061.958 337.031c12.371 15.675 32.923 35.32 40.225 46.125 6.457 9.552 4.933 19.9-1.455 28.84-2.31 3.234-5.532 6.141-9.395 8.371-3.862 2.23-7.99 3.566-11.945 3.95-10.938 1.063-20.661-2.792-25.706-13.16-5.705-11.725-12.443-39.346-19.832-57.898M2078.891 308.227c18.551 7.389 46.172 14.127 57.899 19.832 10.367 5.044 14.222 14.768 13.16 25.705-.385 3.955-1.72 8.084-3.951 11.946-2.23 3.863-5.137 7.084-8.37 9.394-8.941 6.39-19.29 7.913-28.841 1.456-10.805-7.302-30.45-27.854-46.125-40.225M2079.143 274.828c19.76-2.876 47.05-10.852 60.058-11.774 11.5-.815 19.7 5.678 24.249 15.681 1.644 3.618 2.551 7.86 2.551 12.321 0 4.46-.907 8.703-2.551 12.32-4.55 10.004-12.749 16.497-24.25 15.682-13.007-.922-40.297-8.898-60.057-11.774M2033.85 228.82c7.389-18.55 14.126-46.172 19.832-57.898 5.044-10.367 14.767-14.222 25.705-13.16 3.955.385 8.083 1.72 11.946 3.95 3.863 2.23 7.084 5.138 9.394 8.37 6.389 8.942 7.912 19.29 1.456 28.842-7.303 10.804-27.854 30.45-40.226 46.125M2062.678 245.76c15.675-12.37 35.32-32.922 46.124-40.225 9.553-6.456 19.9-4.933 28.842 1.456 3.233 2.31 6.14 5.532 8.37 9.394 2.23 3.863 3.566 7.991 3.95 11.946 1.063 10.938-2.792 20.661-13.16 25.705-11.726 5.706-39.347 12.443-57.898 19.832"/><path fill="#FFD800" fill-rule="nonzero" stroke="#020000" stroke-width="6" d="M2080.635 291.036c0 35.33-28.64 63.97-63.97 63.97s-63.971-28.64-63.971-63.97 28.64-63.97 63.97-63.97 63.97 28.64 63.97 63.97z"/><rect width="399.002" height="399.002" x="1817.37" y="1160.311" fill="#e8c796" rx="50"/><path fill="#FFF" fill-rule="nonzero" stroke="#000" stroke-width="5" d="M2000.853 1297.545c-2.877-19.76-10.852-47.05-11.774-60.058-.816-11.5 5.678-19.7 15.681-24.249 3.618-1.644 7.86-2.552 12.32-2.552 4.461 0 8.704.908 12.321 2.552 10.004 4.55 16.497 12.749 15.682 24.25-.922 13.007-8.898 40.297-11.774 60.057M1971.788 1314.015c-12.371-15.675-32.923-35.32-40.225-46.124-6.457-9.552-4.933-19.9 1.456-28.841 2.31-3.233 5.531-6.14 9.394-8.37 3.862-2.23 7.99-3.567 11.946-3.951 10.937-1.062 20.66 2.792 25.705 13.16 5.705 11.726 12.443 39.347 19.832 57.898M1954.605 1376.239c-19.76 2.876-47.05 10.852-60.058 11.774-11.5.815-19.7-5.678-24.249-15.682-1.645-3.617-2.552-7.86-2.552-12.32s.907-8.704 2.552-12.32c4.549-10.004 12.749-16.498 24.25-15.682 13.007.922 40.296 8.897 60.057 11.774M1954.862 1342.824c-18.551-7.389-46.172-14.126-57.899-19.832-10.367-5.044-14.222-14.767-13.16-25.705.385-3.955 1.721-8.083 3.951-11.946 2.23-3.863 5.137-7.084 8.37-9.394 8.942-6.389 19.29-7.912 28.842-1.456 10.804 7.303 30.45 27.854 46.124 40.226M1971.09 1405.307c-15.674 12.371-35.32 32.923-46.124 40.226-9.552 6.456-19.9 4.933-28.841-1.456-3.233-2.31-6.14-5.532-8.37-9.395-2.23-3.862-3.567-7.99-3.95-11.945-1.063-10.938 2.791-20.661 13.159-25.706 11.726-5.705 39.347-12.443 57.899-19.832M1999.9 1422.237c-7.39 18.552-14.127 46.173-19.833 57.9-5.044 10.367-14.767 14.221-25.705 13.159-3.955-.384-8.083-1.72-11.946-3.95-3.863-2.23-7.084-5.138-9.394-8.37-6.389-8.942-7.912-19.29-1.456-28.842 7.303-10.804 27.854-30.45 40.226-46.124M2033.312 1422.495c2.877 19.76 10.852 47.05 11.774 60.058.816 11.5-5.677 19.7-15.681 24.249-3.617 1.645-7.86 2.552-12.32 2.552s-8.704-.907-12.321-2.552c-10.004-4.549-16.497-12.749-15.682-24.25.922-13.007 8.898-40.297 11.774-60.057M2062.377 1406.016c12.37 15.674 32.923 35.32 40.225 46.124 6.456 9.552 4.933 19.9-1.456 28.841-2.31 3.233-5.531 6.14-9.394 8.37-3.863 2.23-7.99 3.567-11.946 3.95-10.938 1.063-20.66-2.791-25.705-13.159-5.705-11.726-12.443-39.347-19.832-57.898M2079.31 1377.211c18.551 7.39 46.172 14.127 57.898 19.833 10.368 5.044 14.222 14.767 13.16 25.705-.384 3.955-1.72 8.083-3.95 11.946-2.23 3.862-5.138 7.083-8.37 9.394-8.942 6.389-19.29 7.912-28.842 1.456-10.804-7.303-30.45-27.855-46.124-40.226M2079.561 1343.812c19.76-2.876 47.05-10.852 60.058-11.774 11.5-.815 19.7 5.678 24.25 15.682 1.644 3.617 2.551 7.86 2.551 12.32s-.907 8.704-2.552 12.321c-4.548 10.004-12.748 16.497-24.249 15.682-13.008-.923-40.297-8.898-60.058-11.775M2034.268 1297.805c7.39-18.551 14.127-46.172 19.833-57.899 5.044-10.367 14.767-14.222 25.705-13.16 3.955.385 8.083 1.72 11.946 3.951 3.862 2.23 7.083 5.137 9.394 8.37 6.389 8.941 7.912 19.29 1.456 28.841-7.303 10.805-27.855 30.45-40.226 46.125M2063.097 1314.745c15.674-12.371 35.32-32.923 46.124-40.225 9.552-6.457 19.9-4.933 28.841 1.456 3.233 2.31 6.14 5.531 8.37 9.394 2.23 3.862 3.567 7.99 3.95 11.945 1.063 10.938-2.791 20.661-13.159 25.706-11.726 5.705-39.347 12.443-57.898 19.832"/><path fill="#FFD800" fill-rule="nonzero" stroke="#020000" stroke-width="6" d="M2081.054 1360.02c0 35.33-28.64 63.97-63.97 63.97s-63.971-28.64-63.971-63.97 28.64-63.97 63.97-63.97 63.97 28.64 63.97 63.97z"/><rect width="399.002" height="399.002" x="1200.952" y="141.451" fill="#e8c796" rx="50"/><path fill="#FFF" fill-rule="nonzero" stroke="#000" stroke-width="5" d="M1384.434 278.686c-2.876-19.76-10.852-47.05-11.774-60.058-.815-11.5 5.678-19.7 15.682-24.25 3.617-1.644 7.86-2.551 12.32-2.551s8.703.907 12.32 2.552c10.004 4.548 16.497 12.748 15.682 24.249-.922 13.008-8.897 40.297-11.774 60.058M1355.37 295.156c-12.372-15.675-32.923-35.32-40.226-46.125-6.456-9.552-4.933-19.9 1.456-28.841 2.31-3.233 5.531-6.14 9.394-8.37 3.863-2.23 7.99-3.566 11.946-3.95 10.938-1.063 20.66 2.792 25.705 13.159 5.706 11.726 12.443 39.347 19.832 57.899M1338.186 357.379c-19.76 2.877-47.05 10.852-60.058 11.774-11.5.815-19.7-5.678-24.249-15.681-1.645-3.618-2.552-7.86-2.552-12.32 0-4.461.907-8.704 2.552-12.322 4.549-10.003 12.749-16.496 24.25-15.681 13.007.922 40.297 8.898 60.057 11.774M1338.443 323.965c-18.55-7.39-46.172-14.127-57.898-19.833-10.368-5.044-14.222-14.767-13.16-25.705.384-3.955 1.72-8.083 3.95-11.946 2.23-3.862 5.138-7.083 8.37-9.394 8.942-6.389 19.29-7.912 28.842-1.456 10.804 7.303 30.45 27.855 46.124 40.226M1354.672 386.447c-15.675 12.372-35.32 32.923-46.125 40.226-9.552 6.456-19.9 4.933-28.84-1.456-3.234-2.31-6.141-5.532-8.371-9.394-2.23-3.863-3.566-7.991-3.95-11.946-1.063-10.938 2.792-20.661 13.16-25.705 11.725-5.706 39.347-12.443 57.898-19.832M1383.48 403.378c-7.388 18.551-14.126 46.172-19.831 57.898-5.045 10.368-14.768 14.223-25.706 13.16-3.955-.384-8.083-1.72-11.946-3.95-3.862-2.23-7.083-5.138-9.394-8.37-6.389-8.942-7.912-19.29-1.456-28.842 7.303-10.804 27.855-30.45 40.226-46.124M1416.894 403.635c2.876 19.76 10.852 47.05 11.774 60.058.815 11.5-5.678 19.7-15.682 24.25-3.617 1.644-7.86 2.551-12.32 2.551s-8.704-.907-12.32-2.552c-10.005-4.548-16.498-12.748-15.682-24.249.922-13.008 8.897-40.297 11.774-60.058M1445.958 387.156c12.371 15.675 32.923 35.32 40.225 46.124 6.457 9.553 4.933 19.9-1.455 28.842-2.31 3.233-5.532 6.14-9.395 8.37-3.862 2.23-7.99 3.566-11.945 3.95-10.938 1.063-20.661-2.792-25.706-13.16-5.705-11.726-12.443-39.347-19.832-57.898M1462.891 358.352c18.551 7.389 46.172 14.126 57.899 19.832 10.367 5.044 14.222 14.767 13.16 25.705-.385 3.955-1.72 8.083-3.951 11.946-2.23 3.863-5.137 7.084-8.37 9.394-8.941 6.389-19.29 7.912-28.841 1.456-10.805-7.303-30.45-27.854-46.125-40.226M1463.143 324.953c19.76-2.877 47.05-10.852 60.058-11.774 11.5-.816 19.7 5.677 24.249 15.681 1.644 3.617 2.551 7.86 2.551 12.32s-.907 8.704-2.551 12.321c-4.55 10.004-12.749 16.497-24.25 15.682-13.007-.922-40.297-8.898-60.057-11.774M1417.85 278.945c7.389-18.551 14.126-46.172 19.832-57.898 5.044-10.368 14.767-14.222 25.705-13.16 3.955.384 8.083 1.72 11.946 3.95 3.863 2.23 7.084 5.138 9.394 8.37 6.389 8.942 7.912 19.29 1.456 28.842-7.303 10.804-27.854 30.45-40.226 46.124M1446.678 295.885c15.675-12.37 35.32-32.923 46.124-40.225 9.553-6.456 19.9-4.933 28.842 1.456 3.233 2.31 6.14 5.531 8.37 9.394 2.23 3.863 3.566 7.99 3.95 11.946 1.063 10.938-2.792 20.66-13.16 25.705-11.726 5.705-39.347 12.443-57.898 19.832"/><path fill="#FFD800" fill-rule="nonzero" stroke="#020000" stroke-width="6" d="M1464.635 341.16c0 35.33-28.64 63.971-63.97 63.971s-63.971-28.64-63.971-63.97 28.64-63.971 63.97-63.971 63.97 28.64 63.97 63.97z"/><rect width="399.002" height="494.815" x="1200.952" y="602.881" fill="#e8c796" rx="50"/><path fill="#FFF" fill-rule="nonzero" stroke="#000" stroke-width="5" d="M1384.434 788.021c-2.876-19.76-10.852-47.05-11.774-60.057-.815-11.5 5.678-19.7 15.682-24.25 3.617-1.644 7.86-2.551 12.32-2.551s8.703.907 12.32 2.552c10.004 4.548 16.497 12.748 15.682 24.249-.922 13.008-8.897 40.297-11.774 60.057M1355.37 804.491c-12.372-15.674-32.923-35.32-40.226-46.124-6.456-9.552-4.933-19.9 1.456-28.841 2.31-3.233 5.531-6.14 9.394-8.37 3.863-2.23 7.99-3.567 11.946-3.95 10.938-1.063 20.66 2.791 25.705 13.159 5.706 11.726 12.443 39.347 19.832 57.899M1338.186 866.715c-19.76 2.876-47.05 10.852-60.058 11.774-11.5.815-19.7-5.678-24.249-15.681-1.645-3.618-2.552-7.86-2.552-12.321 0-4.46.907-8.703 2.552-12.32 4.549-10.004 12.749-16.497 24.25-15.682 13.007.922 40.297 8.898 60.057 11.774M1338.443 833.3c-18.55-7.389-46.172-14.126-57.898-19.832-10.368-5.044-14.222-14.767-13.16-25.705.384-3.955 1.72-8.083 3.95-11.946 2.23-3.862 5.138-7.084 8.37-9.394 8.942-6.389 19.29-7.912 28.842-1.456 10.804 7.303 30.45 27.854 46.124 40.226M1354.672 895.783c-15.675 12.371-35.32 32.923-46.125 40.226-9.552 6.456-19.9 4.933-28.84-1.456-3.234-2.31-6.141-5.532-8.371-9.394-2.23-3.863-3.566-7.991-3.95-11.946-1.063-10.938 2.792-20.661 13.16-25.705 11.725-5.706 39.347-12.443 57.898-19.833M1383.48 912.714c-7.388 18.551-14.126 46.172-19.831 57.898-5.045 10.368-14.768 14.222-25.706 13.16-3.955-.384-8.083-1.72-11.946-3.95-3.862-2.23-7.083-5.138-9.394-8.37-6.389-8.942-7.912-19.29-1.456-28.842 7.303-10.804 27.855-30.45 40.226-46.124M1416.894 912.971c2.876 19.76 10.852 47.05 11.774 60.058.815 11.5-5.678 19.7-15.682 24.25-3.617 1.644-7.86 2.551-12.32 2.551s-8.704-.907-12.32-2.552c-10.005-4.549-16.498-12.748-15.682-24.249.922-13.008 8.897-40.297 11.774-60.058M1445.958 896.492c12.371 15.675 32.923 35.32 40.225 46.124 6.457 9.553 4.933 19.9-1.455 28.842-2.31 3.233-5.532 6.14-9.395 8.37-3.862 2.23-7.99 3.566-11.945 3.95-10.938 1.063-20.661-2.792-25.706-13.16-5.705-11.726-12.443-39.347-19.832-57.898M1462.891 867.688c18.551 7.389 46.172 14.126 57.899 19.832 10.367 5.044 14.222 14.767 13.16 25.705-.385 3.955-1.72 8.083-3.951 11.946-2.23 3.862-5.137 7.084-8.37 9.394-8.941 6.389-19.29 7.912-28.841 1.456-10.805-7.303-30.45-27.854-46.125-40.226M1463.143 834.289c19.76-2.877 47.05-10.852 60.058-11.774 11.5-.816 19.7 5.677 24.249 15.681 1.644 3.617 2.551 7.86 2.551 12.32s-.907 8.704-2.551 12.321c-4.55 10.004-12.749 16.497-24.25 15.682-13.007-.922-40.297-8.898-60.057-11.774M1417.85 788.281c7.389-18.551 14.126-46.172 19.832-57.898 5.044-10.368 14.767-14.223 25.705-13.16 3.955.384 8.083 1.72 11.946 3.95 3.863 2.23 7.084 5.137 9.394 8.37 6.389 8.942 7.912 19.29 1.456 28.842-7.303 10.804-27.854 30.45-40.226 46.124M1446.678 805.221c15.675-12.37 35.32-32.923 46.124-40.225 9.553-6.457 19.9-4.933 28.842 1.456 3.233 2.31 6.14 5.531 8.37 9.394 2.23 3.862 3.566 7.99 3.95 11.946 1.063 10.938-2.792 20.66-13.16 25.705-11.726 5.705-39.347 12.443-57.898 19.832"/><path fill="#FFD800" fill-rule="nonzero" stroke="#020000" stroke-width="6" d="M1464.635 850.496c0 35.33-28.64 63.97-63.97 63.97s-63.971-28.64-63.971-63.97 28.64-63.97 63.97-63.97 63.97 28.64 63.97 63.97z"/><rect width="399.002" height="399.002" x="1200.952" y="1160.311" fill="#e8c796" rx="50"/><path fill="#FFF" fill-rule="nonzero" stroke="#000" stroke-width="5" d="M1384.434 1297.545c-2.876-19.76-10.852-47.05-11.774-60.058-.815-11.5 5.678-19.7 15.682-24.249 3.617-1.644 7.86-2.552 12.32-2.552s8.703.908 12.32 2.552c10.004 4.55 16.497 12.749 15.682 24.25-.922 13.007-8.897 40.297-11.774 60.057M1355.37 1314.015c-12.372-15.675-32.923-35.32-40.226-46.124-6.456-9.552-4.933-19.9 1.456-28.841 2.31-3.233 5.531-6.14 9.394-8.37 3.863-2.23 7.99-3.567 11.946-3.951 10.938-1.062 20.66 2.792 25.705 13.16 5.706 11.726 12.443 39.347 19.832 57.898M1338.186 1376.239c-19.76 2.876-47.05 10.852-60.058 11.774-11.5.815-19.7-5.678-24.249-15.682-1.645-3.617-2.552-7.86-2.552-12.32s.907-8.704 2.552-12.32c4.549-10.004 12.749-16.498 24.25-15.682 13.007.922 40.297 8.897 60.057 11.774M1338.443 1342.824c-18.55-7.389-46.172-14.126-57.898-19.832-10.368-5.044-14.222-14.767-13.16-25.705.384-3.955 1.72-8.083 3.95-11.946 2.23-3.863 5.138-7.084 8.37-9.394 8.942-6.389 19.29-7.912 28.842-1.456 10.804 7.303 30.45 27.854 46.124 40.226M1354.672 1405.307c-15.675 12.371-35.32 32.923-46.125 40.226-9.552 6.456-19.9 4.933-28.84-1.456-3.234-2.31-6.141-5.532-8.371-9.395-2.23-3.862-3.566-7.99-3.95-11.945-1.063-10.938 2.792-20.661 13.16-25.706 11.725-5.705 39.347-12.443 57.898-19.832M1383.48 1422.237c-7.388 18.552-14.126 46.173-19.831 57.9-5.045 10.367-14.768 14.221-25.706 13.159-3.955-.384-8.083-1.72-11.946-3.95-3.862-2.23-7.083-5.138-9.394-8.37-6.389-8.942-7.912-19.29-1.456-28.842 7.303-10.804 27.855-30.45 40.226-46.124M1416.894 1422.495c2.876 19.76 10.852 47.05 11.774 60.058.815 11.5-5.678 19.7-15.682 24.249-3.617 1.645-7.86 2.552-12.32 2.552s-8.704-.907-12.32-2.552c-10.005-4.549-16.498-12.749-15.682-24.25.922-13.007 8.897-40.297 11.774-60.057M1445.958 1406.016c12.371 15.674 32.923 35.32 40.225 46.124 6.457 9.552 4.933 19.9-1.455 28.841-2.31 3.233-5.532 6.14-9.395 8.37-3.862 2.23-7.99 3.567-11.945 3.95-10.938 1.063-20.661-2.791-25.706-13.159-5.705-11.726-12.443-39.347-19.832-57.898M1462.891 1377.211c18.551 7.39 46.172 14.127 57.899 19.833 10.367 5.044 14.222 14.767 13.16 25.705-.385 3.955-1.72 8.083-3.951 11.946-2.23 3.862-5.137 7.083-8.37 9.394-8.941 6.389-19.29 7.912-28.841 1.456-10.805-7.303-30.45-27.855-46.125-40.226M1463.143 1343.812c19.76-2.876 47.05-10.852 60.058-11.774 11.5-.815 19.7 5.678 24.249 15.682 1.644 3.617 2.551 7.86 2.551 12.32s-.907 8.704-2.551 12.321c-4.55 10.004-12.749 16.497-24.25 15.682-13.007-.923-40.297-8.898-60.057-11.775M1417.85 1297.805c7.389-18.551 14.126-46.172 19.832-57.899 5.044-10.367 14.767-14.222 25.705-13.16 3.955.385 8.083 1.72 11.946 3.951 3.863 2.23 7.084 5.137 9.394 8.37 6.389 8.941 7.912 19.29 1.456 28.841-7.303 10.805-27.854 30.45-40.226 46.125M1446.678 1314.745c15.675-12.371 35.32-32.923 46.124-40.225 9.553-6.457 19.9-4.933 28.842 1.456 3.233 2.31 6.14 5.531 8.37 9.394 2.23 3.862 3.566 7.99 3.95 11.945 1.063 10.938-2.792 20.661-13.16 25.706-11.726 5.705-39.347 12.443-57.898 19.832"/><path fill="#FFD800" fill-rule="nonzero" stroke="#020000" stroke-width="6" d="M1464.635 1360.02c0 35.33-28.64 63.97-63.97 63.97s-63.971-28.64-63.971-63.97 28.64-63.97 63.97-63.97 63.97 28.64 63.97 63.97z"/></g></svg>
