<svg xmlns="http://www.w3.org/2000/svg" fill="none" viewBox="0 0 208 53"><path fill="#887ACC" d="M5.148 17.676c-1.152 0-1.908.108-2.916.324v25.92c0 .864.612 1.26 2.196 1.26.792 0 1.836-.036 2.628-.18V19.224c0-1.044-.936-1.548-1.908-1.548zM191.357 45.18c.468 0 1.728 0 2.736-.18v-9.864c1.584-4.068 2.7-4.968 4.32-4.968 1.584 0 2.196.9 2.196 2.736 0 3.312-.144 7.344-.144 9.864 0 .936-.18 2.412 2.628 2.412.936 0 1.872-.252 2.628-.54-.18-1.548-.36-2.736-.36-4.86v-6.876c0-1.44 0-5.904-5.472-5.904-2.592 0-4.5 1.332-6.048 4.32h-.072l.072-2.34c.036-.972-.612-1.836-2.052-1.836-.792 0-1.8.18-2.736.576.396 2.808.54 5.256.54 9.468-.216 1.98-.468 3.924-.468 5.508 0 1.728 1.044 2.484 2.232 2.484z"/><path fill="#fff" d="M21.124 45.36c2.952 0 8.712-1.404 8.712-9.216 0-7.812-5.904-9.144-8.856-9.144s-8.748 1.332-8.748 9.144 5.76 9.216 8.892 9.216zm-.036-3.132c-2.484 0-3.672-2.34-3.672-6.084 0-3.744 1.116-5.976 3.6-5.976s3.636 2.232 3.636 5.976c0 3.744-1.08 6.084-3.564 6.084zm21.768 3.132c2.16 0 4.464-.504 6.012-2.196.396-.36.504-.756.504-1.296 0-.756-.612-1.548-1.08-1.872-1.656 1.26-2.808 2.232-5.22 2.232-2.34 0-3.924-2.124-3.924-5.688 0-5.328 1.512-6.444 3.204-6.444 1.512 0 2.124 1.044 2.232 2.952.036.54 0 1.008-.036 1.764.864.324 2.268.396 3.276.072.648-.216 1.368-.648 1.368-2.412 0-3.816-2.52-5.472-6.912-5.472-5.076 0-8.244 3.204-8.244 9.396 0 5.796 3.132 8.964 8.82 8.964zm17.758 0c2.34 0 4.356-.972 6.084-4.572h.036l-.18 2.556c-.072 1.08.612 1.872 2.196 1.872.936 0 1.836-.252 2.628-.648l-.504-8.964c.144-2.304.54-4.428.54-6.3 0-1.224-.54-2.16-2.304-2.16-1.26 0-1.8.108-2.484.216v1.944C65.546 27.684 63.818 27 61.802 27c-3.132 0-8.388 1.44-8.388 9.54 0 7.344 4.14 8.82 7.2 8.82zm1.476-3.168c-2.16 0-3.492-1.728-3.492-5.688 0-3.42 1.116-6.336 4.752-6.336 1.008 0 2.268.432 2.952.792v7.056c-1.26 2.52-2.052 4.176-4.212 4.176zm18.04-24.516c-1.153 0-1.909.108-2.917.324v25.92c0 .864.612 1.26 2.196 1.26.792 0 1.836-.036 2.628-.18V19.224c0-1.044-.936-1.548-1.908-1.548zM90.633 24.3c1.26 0 3.24-1.116 3.24-3.132 0-2.304-1.404-3.24-3.024-3.24-1.8 0-3.06.72-3.06 2.988 0 2.34 1.188 3.384 2.844 3.384zm.18 20.916c.72 0 1.728-.072 2.412-.216V28.404c0-.828-.792-1.332-2.232-1.332-.648 0-1.728.108-2.592.288v16.56c0 .468 0 1.296 2.412 1.296zm14.354.036c4.68 0 7.164-1.728 7.164-5.004 0-3.06-2.196-3.888-4.68-4.788l-2.448-.9c-1.728-.648-2.196-1.404-2.196-2.52 0-1.404.864-2.052 2.124-2.052 1.332 0 2.232.756 2.088 3.168 1.692.36 2.952.36 3.816-.18.468-.288.648-.828.648-1.728 0-3.132-2.988-4.248-6.156-4.248-4.104 0-7.056 1.692-7.056 5.364 0 3.708 2.556 4.68 4.248 5.256l2.556.864c1.152.396 2.376.828 2.376 1.98 0 .936-.504 1.764-2.196 1.764-2.592 0-4.212-1.26-5.436-2.268-.828.612-1.332 1.404-1.332 2.304 0 .756.323 1.224.936 1.656 1.116.72 3.06 1.332 5.544 1.332zm18.334.108c2.34 0 4.356-.972 6.084-4.572h.036l-.18 2.556c-.072 1.08.612 1.872 2.196 1.872.936 0 1.836-.252 2.628-.648l-.504-8.964c.144-2.304.54-4.428.54-6.3 0-1.224-.54-2.16-2.304-2.16-1.26 0-1.8.108-2.484.216v1.944c-1.08-1.62-2.808-2.304-4.824-2.304-3.132 0-8.388 1.44-8.388 9.54 0 7.344 4.14 8.82 7.2 8.82zm1.476-3.168c-2.16 0-3.492-1.728-3.492-5.688 0-3.42 1.116-6.336 4.752-6.336 1.008 0 2.268.432 2.952.792v7.056c-1.26 2.52-2.052 4.176-4.212 4.176zm26.175-.9l-.288-.072c-1.332.648-2.376 1.008-3.24 1.008-1.044 0-1.908-.504-1.908-2.124v-9.612l4.896.072c.792 0 .864-2.124.468-3.204h-5.364v-5.724l-.18-.252c-.864-.18-1.44-.288-2.088-.288-1.548 0-2.304.864-2.34 2.304l-.144 4.176-1.908.144c-1.116.108-1.188 1.548-.648 2.628l2.484.036v9.54c0 2.592.792 5.472 5.76 5.472 1.188 0 2.088-.144 3.204-.54 1.296-.468 1.872-1.224 1.872-1.872 0-.72-.252-1.152-.576-1.692zm7.642-16.992c1.26 0 3.24-1.116 3.24-3.132 0-2.304-1.404-3.24-3.024-3.24-1.8 0-3.06.72-3.06 2.988 0 2.34 1.188 3.384 2.844 3.384zm.18 20.916c.72 0 1.728-.072 2.412-.216V28.404c0-.828-.792-1.332-2.232-1.332-.648 0-1.728.108-2.592.288v16.56c0 .468 0 1.296 2.412 1.296zm16.513.144c2.952 0 8.712-1.404 8.712-9.216 0-7.812-5.904-9.144-8.856-9.144s-8.748 1.332-8.748 9.144 5.76 9.216 8.892 9.216zm-.036-3.132c-2.484 0-3.672-2.34-3.672-6.084 0-3.744 1.116-5.976 3.6-5.976s3.636 2.232 3.636 5.976c0 3.744-1.08 6.084-3.564 6.084zM22.078 11l-.072-6.156a.508.508 0 00-.594-.522l-2.151.279a1.276 1.276 0 00-.09.513c.009.261.252.522.531.468l1.044-.198-.009 5.274c0 .306.252.432.621.432.198 0 .468-.018.72-.09zm21.565-1.026l-2.907.063c1.305-.972 2.79-2.205 2.79-3.744 0-1.251-.693-2.043-2.277-2.043-1.377 0-2.277.558-2.277 1.863 0 .333.216.531.567.531.243 0 .423-.036.711-.126-.072-1.026.36-1.341 1.017-1.341.64 0 .927.468.927 1.098 0 1.539-1.224 2.502-3.024 3.906-.018.378-.072.837.387.819 1.674-.054 2.331.054 3.717.054.432 0 .585-.594.37-1.08zm18.629 1.098c1.278 0 2.475-.549 2.475-1.755 0-1.017-.702-1.431-1.512-1.557v-.009c.98-.396 1.359-1.053 1.359-1.827 0-1.098-.783-1.665-2.205-1.674-1.674-.009-2.025.891-2.052 1.449-.018.288.045.45.252.54.17.081.603.072.882-.027.018-.594.162-1.035.918-1.035.234 0 .837.108.837.891 0 .585-.288 1.161-.774 1.485l-1.071-.117c-.324.441-.243 1.035.423 1.035.189 0 .477-.063.828-.144.53.153.747.378.747.855 0 .693-.576.945-1.098.945-.72 0-1.125-.279-1.647-.594-.234.261-.315.459-.315.702 0 .225.162.45.612.621.405.153.846.216 1.34.216zm19.381-2.439l-.873.018V7.202c0-.333-.234-.36-.54-.36-.18 0-.396.036-.558.108v1.737l-1.539.036c.423-.828 1.17-2.295 1.404-3.213.207-.801.37-1.359-.53-1.359-.172 0-.325.036-.496.081-.117 1.296-.98 3.465-1.647 4.563-.153.252-.189.783.423.783.792 0 1.584 0 2.385.009v1.17c0 .207.108.297.531.297.216 0 .333-.018.576-.054V9.596h.477c.324 0 .315-.072.37-.162.134-.225.062-.594.017-.801zm9.08-1.638l.046-1.827c.684.018 1.377.036 1.88.036.27 0 .568 0 .649-.261.072-.225-.018-.531-.036-.621-.333.018-.702.018-.981.018h-2.718c-.396 0-.396.648-.225.864h.657c-.198.045-.288.306-.306.567l-.063 1.764c-.01.207.144.342.432.36 1.593.09 2.385.333 2.385 1.206 0 .711-.441 1.062-1.125 1.062-.603 0-1.116-.288-1.584-.675-.252.261-.36.54-.36.729 0 .243.126.396.333.522.378.225.909.351 1.557.351 1.476 0 2.367-.711 2.367-1.935 0-1.413-1.08-2.043-2.907-2.16zm15.73.198c-.306 0-.738.072-1.017.225a1.544 1.544 0 00-.621.603v-.036h-.045c0-1.602.288-2.763 1.647-2.763.414 0 .756.072 1.26.324.189-.18.297-.36.297-.612 0-.189-.054-.315-.306-.45s-.711-.234-1.26-.234c-2.088 0-2.799 1.809-2.799 3.456 0 1.845.558 3.366 2.439 3.366 1.62 0 2.376-.837 2.376-2.088 0-1.053-.63-1.791-1.971-1.791zm-.315 2.934c-.819 0-1.296-.54-1.332-1.611.459-.243.918-.378 1.359-.378.657 0 1.008.306 1.008.963 0 .693-.423 1.026-1.035 1.026zm20.623-5.787h-3.096c-.405 0-.711-.009-1.035-.018a2.12 2.12 0 00-.054.576c.009.288.171.396.459.396.882 0 1.773-.036 2.655-.072-1.557 2.133-1.764 4.005-1.782 5.013-.009.657.216.855.693.855.216 0 .459-.027.657-.09-.081-.657-.036-1.854.117-2.538.234-1.053.594-2.106 1.467-3.249.198-.261.081-.684-.081-.873zm17.583 3.231c.63-.297 1.233-.855 1.233-1.71 0-1.08-.972-1.611-2.151-1.611-1.116 0-2.124.603-2.124 1.764 0 .828.297 1.242 1.269 1.773-.657.243-1.332.711-1.332 1.692 0 1.053 1.044 1.62 2.268 1.62 1.413 0 2.313-.657 2.313-1.755 0-.81-.351-1.233-1.476-1.773zm-.855-2.412c.522 0 .9.288.9.891 0 .459-.234.936-.63 1.251-.936-.441-1.26-.702-1.26-1.242 0-.63.45-.9.99-.9zm.009 5.031c-.621 0-1.062-.288-1.062-.864 0-.468.243-.945.675-1.269.072.027.144.063.216.099.846.396 1.278.621 1.278 1.179 0 .45-.324.855-1.107.855zm17.046-2.745c0-1.737-.558-3.195-2.466-3.195-1.62 0-2.358.873-2.358 2.214 0 1.242.684 2.097 2.124 2.097.324 0 .639-.072.927-.198.315-.135.504-.342.603-.549-.063 1.386-.414 2.313-1.629 2.313-.405 0-.81-.171-1.422-.513-.189.171-.306.387-.306.63 0 .216.099.378.297.504.342.216.936.342 1.539.342 2.7 0 2.691-2.844 2.691-3.645zm-2.385.189c-.756 0-1.188-.468-1.188-1.224 0-.774.513-1.206 1.107-1.206.873 0 1.224.576 1.233 2.07-.369.225-.819.36-1.152.36z"/><path fill="#887ACC" d="M173.31 11l-.072-6.156a.508.508 0 00-.594-.522l-2.151.279a1.276 1.276 0 00-.09.513c.009.261.252.522.531.468l1.044-.198-.009 5.274c0 .306.252.432.621.432.198 0 .468-.018.72-.09zm3.987.099c1.728 0 2.601-1.458 2.601-3.429 0-1.98-.873-3.42-2.601-3.42s-2.619 1.44-2.619 3.42c0 1.971.891 3.429 2.619 3.429zm0-.972c-.99 0-1.305-1.134-1.305-2.457 0-1.332.315-2.448 1.305-2.448s1.287 1.107 1.287 2.448c0 1.323-.297 2.457-1.287 2.457z"/></svg>