<svg xmlns="http://www.w3.org/2000/svg" xmlns:xlink="http://www.w3.org/1999/xlink" width="370" height="88"><defs><g id="b" fill="#fff"><path d="M-2.95-3.05h6v.1h-6z"/><path d="M2.95-2.95h.1v6h-.1zM-3.05 2.95h6v.1h-6zM-3.05-3.05h.1v6h-.1zM-1.05-2.95h.1v5.9h-.1zM.95-2.95h.1v5.9h-.1z"/><path d="M-2.95-1.05h1.9v.1h-1.9zM-.95-1.05h1.9v.1h-1.9zM1.05-1.05h1.9v.1h-1.9zM-2.95.95h1.9v.1h-1.9zM-.95.95h1.9v.1h-1.9zM1.05.95h1.9v.1h-1.9z"/><g><circle cy="-2" r=".7"/><circle cx="2" r=".7"/><circle cx="-2" cy="2" r=".7"/><circle cy="2" r=".7"/><circle cx="2" cy="2" r=".7"/></g></g><g id="d" fill="#3b80ae"><path d="M205.599 94.567c0-11.668-24.914-21.129-55.628-21.129-30.723 0-55.624 9.46-55.624 21.129 0 10.203 24.901 7.346 55.624 7.346 30.714 0 55.628 2.32 55.628-7.346zM136.423 161.506l13.547 13.362 13.545-13.362c7.135-7.036 87.111-6.399 91.066-6.363a184.843 184.843 0 0 0-2.325-18.519c-15.183-19.279-42.811-32.225-74.485-32.225h-55.518c-31.745 0-59.439 13.011-74.598 32.37-1.054 6-1.829 12.128-2.296 18.374 3.962-.037 83.929-.673 91.064 6.363zM149.97 301.187c2.005-24.729 8.386-103.483 8.405-103.721l-8.405-20.214-8.408 20.214 8.408 103.721z" transform="translate(-150 -170)"/><path d="M140.403 197.149l8.862-21.31-13.686-13.499c-5.65-5.573-67.074-6.235-90.259-6.019l-.006-.622a183.335 183.335 0 0 0-.35 6.475c-.076 2.207 10.392 4.706 10.392 6.717 0 2.319-10.457 5.084-10.359 7.631 2.993 73.349 48.53 131.631 104.372 132.048l-9.02-111.29.054-.131zM244.585 168.891c0-2.011 10.467-4.506 10.391-6.715a179.132 179.132 0 0 0-.351-6.479l-.004.624c-23.186-.216-84.608.445-90.26 6.017l-13.688 13.502 8.915 21.438-9.017 111.29c55.854-.417 101.378-58.698 104.373-132.049.096-2.543-10.359-5.31-10.359-7.628zM44.506 141.12c-4.135-.856-4.895-1.54-7.935-2.92-9.59-3.364-10.376-5.481-16.08-11.86-7.426-8.306-12.661-20.142-17.1-29.463C-.185 89.352-.593 80.468.531 72.604c.991-6.935 7.144-12.869 12.074-18.92 5.844-7.191 10.356-14.822 17.924-21.354 7.736-6.682 23.203-9.809 26.168-19.648C57.86 8.819 54.334 1.766 61.482 0c-.366 4.703 3.639 8.477 2.397 13.575-1.129 4.627-4.368 5.811-9.611 9.099-7.564 4.746-18.366 8.779-24.748 13.965-7.175 5.827-4.369 13.771-10.569 20.057-2.001 2.03-7.901 4.706-9.137 6.83-1.861 3.199-.297 9.572-.116 13.12.425 8.284 5.588 14.244 9.555 22.045 4.152 8.141 6.429 15.409 13.411 22.519 4.183 4.262 11.429 4.802 16.21 10.647l-3.555 4.186-.813 5.077zM43.94 191.922l-.809-7.346c-9.506-4.579-10.339-9.772-20.738-12.466-23.728-6.151-21.361 11.25-15.532 26.373 5.676 14.726 8.237 30.23 14.345 44.795 2.805 6.688 6.919 13.213 14.298 15.127.372-8.435-.917-10.651-6.113-16.919-4.395-5.293-3.326-12.548-6.072-18.504-3.581-7.804-4.196-15.646-7.279-23.502-1.363-3.479-8.33-13.966-6.452-17.861 3.183-6.603 9.178-.083 12.179 2.077 4.218 3.036 6.467 2.223 11.681 2.898.593.079 3.557 2.162 10.492 5.328z" transform="translate(-150 -170)"/><path d="M65.839 257.063l-2.771-4.837c-6.68 8.928-6.993 16.228-10.056 23.347-5.277 12.263-.157 28.851 9.854 37.676 6.052 5.375 15.907 9.618 23.122 13.136 10.035 4.892 20.113 11.286 31.336 13.396 2.482.466 8.798 1.295 6.693-3.522-.975-2.237-8.091-4.591-10.146-5.734-8.312-4.623-16.377-10.524-24.142-16.176-9.498-6.862-20.843-11.186-28.311-20.684-3.054-3.885-3.544-4.922-2.816-9.39.693-4.263 1.344-9.174 2.241-13.439 1.012-4.807 2.431-9.458 4.996-13.773zM255.487 141.12c4.134-.856 4.896-1.54 7.936-2.92 9.583-3.364 10.369-5.481 16.071-11.86 7.428-8.306 12.661-20.142 17.115-29.463 3.574-7.525 3.983-16.409 2.86-24.273-.992-6.935-7.157-12.869-12.087-18.92-5.843-7.191-10.356-14.822-17.919-21.354-7.735-6.682-23.202-9.809-26.167-19.648C242.135 8.819 245.66 1.766 238.511 0c.366 4.703-3.637 8.477-2.396 13.575 1.131 4.627 4.368 5.811 9.611 9.099 7.563 4.746 18.367 8.779 24.747 13.965 7.17 5.827 4.362 13.771 10.563 20.057 2.001 2.03 7.901 4.706 9.139 6.83 1.859 3.199.295 9.572.113 13.12-.424 8.284-5.588 14.244-9.553 22.045-4.152 8.141-6.431 15.409-13.404 22.519-4.184 4.262-11.429 4.802-16.211 10.647l3.556 4.186.811 5.077zM256.053 191.922l.81-7.346c9.507-4.579 10.34-9.772 20.73-12.466 23.741-6.151 21.374 11.25 15.534 26.373-5.676 14.726-8.238 30.23-14.347 44.795-2.804 6.688-6.911 13.213-14.291 15.127-.371-8.435.918-10.651 6.113-16.919 4.39-5.293 3.319-12.548 6.066-18.504 3.58-7.804 4.197-15.646 7.278-23.502 1.363-3.479 8.33-13.966 6.453-17.861-3.184-6.603-9.179-.083-12.181 2.077-4.217 3.036-6.458 2.223-11.672 2.898-.595.079-3.56 2.162-10.493 5.328zM234.155 257.063l2.771-4.837c6.679 8.928 6.991 16.228 10.057 23.347 5.274 12.263.154 28.851-9.854 37.676-6.055 5.375-15.903 9.618-23.117 13.136-10.034 4.892-20.127 11.286-31.351 13.396-2.481.466-8.789 1.295-6.691-3.522.976-2.237 8.092-4.591 10.146-5.734 8.312-4.623 16.392-10.524 24.155-16.176 9.498-6.862 20.838-11.186 28.305-20.684 3.055-3.885 3.543-4.922 2.818-9.39-.696-4.263-1.346-9.174-2.244-13.439-1.013-4.807-2.432-9.458-4.995-13.773z" transform="translate(-150 -170)"/></g><radialGradient id="a" r="60" gradientUnits="userSpaceOnUse"><stop offset="0" stop-color="#9a9a9a"/><stop offset=".7" stop-color="#bababa"/><stop offset=".95" stop-color="#fff"/></radialGradient><g id="c"><circle r="60" fill="url(#a)"/><path fill="#8a8a8a" d="M0 61c0 33.636 27.364 61 61 61s61-27.364 61-61S94.636 0 61 0 0 27.364 0 61zm2 0C2 28.467 28.467 2 61 2c32.532 0 59 26.467 59 59s-26.468 59-59 59C28.467 120 2 93.533 2 61z" transform="translate(-61 -61)"/><use transform="scale(9)" xlink:href="#b"/></g><g id="e"><use transform="translate(0 60)" xlink:href="#c"/><use transform="translate(0 230)" xlink:href="#d"/></g><g id="g"><use transform="translate(150 -340)" xlink:href="#c"/><use transform="translate(150 -170)" xlink:href="#d"/></g><g id="f"><path d="M412 433c-27-11-76-20-114-20-156 0-260 112-260 267 0 146 106 267 260 267 34 0 79-3 118-21l-7-84c-29 19-69 29-101 29-121 0-170-100-170-191 0-97 59-191 164-191 30 0 66 7 102 22l8-78" transform="translate(-159.382 -127.941) scale(.1484)"/><path d="M109 541c38-32 95-52 148-52 94 0 126 45 126 133-37-2-63-2-100-2-97 0-237 40-237 168 0 111 77 159 187 159 86 0 136-47 158-78h2v66h88c-2-15-4-42-4-100V624c0-139-59-211-205-211-65 0-121 20-168 48l5 80m274 196c0 76-49 134-142 134-43 0-95-29-95-83 0-90 126-98 177-98 20 0 40 2 60 2v45" transform="translate(-96.794 -127.941) scale(.1484)"/><path d="M92 935h94V425H92v510m-4-674a51 51 0 1 1 102 0 51 51 0 1 1-102 0" transform="translate(-20.628 -127.941) scale(.1484)"/><path d="M80 935h94V703c0-128 55-208 139-208 16 0 35 2 52 9v-84c-20-4-34-7-62-7-54 0-108 38-133 91h-2v-79H80v510" transform="translate(14.135 -127.941) scale(.1484)"/><path d="M46 680c0 146 106 267 260 267 153 0 259-121 259-267 0-155-104-267-259-267-156 0-260 112-260 267m100 0c0-97 59-191 160-191 100 0 159 94 159 191 0 91-49 191-159 191-111 0-160-100-160-191" transform="translate(69.896 -127.941) scale(.1484)"/></g><g id="h"><path fill="white" d="M412 433c-27-11-76-20-114-20-156 0-260 112-260 267 0 146 106 267 260 267 34 0 79-3 118-21l-7-84c-29 19-69 29-101 29-121 0-170-100-170-191 0-97 59-191 164-191 30 0 66 7 102 22l8-78" transform="matrix(.106 0 0 .106 -113.844 -104.101)"/><path fill="white" d="M109 541c38-32 95-52 148-52 94 0 126 45 126 133-37-2-63-2-100-2-97 0-237 40-237 168 0 111 77 159 187 159 86 0 136-47 158-78h2v66h88c-2-15-4-42-4-100V624c0-139-59-211-205-211-65 0-121 20-168 48l5 80m274 196c0 76-49 134-142 134-43 0-95-29-95-83 0-90 126-98 177-98 20 0 40 2 60 2v45" transform="matrix(.106 0 0 .106 -68.555 -104.101)"/><path fill="white" d="M92 935h94V425H92v510m-4-674a51 51 0 1 1 102 0 51 51 0 1 1-102 0" transform="matrix(.106 0 0 .106 -14.734 -104.101)"/><path fill="white" d="M80 935h94V703c0-128 55-208 139-208 16 0 35 2 52 9v-84c-20-4-34-7-62-7-54 0-108 38-133 91h-2v-79H80v510" transform="matrix(.106 0 0 .106 9.514 -104.101)"/><path fill="white" d="M46 680c0 146 106 267 260 267 153 0 259-121 259-267 0-155-104-267-259-267-156 0-260 112-260 267m100 0c0-97 59-191 160-191 100 0 159 94 159 191 0 91-49 191-159 191-111 0-160-100-160-191" transform="matrix(.106 0 0 .106 49.926 -104.101)"/></g><g id="i"><use transform="translate(-180 40) scale(.1944)" xlink:href="#g"/><use transform="translate(0 42)" xlink:href="#h"/><use transform="matrix(-.1944 0 0 .1944 180 40)" xlink:href="#g"/></g></defs><use transform="translate(185 44)" xlink:href="#i"/></svg>