<?xml version="1.0" encoding="UTF-8" standalone="no"?>
<!DOCTYPE svg PUBLIC "-//W3C//DTD SVG 1.1//EN" "http://www.w3.org/Graphics/SVG/1.1/DTD/svg11.dtd">
<svg xmlns="http://www.w3.org/2000/svg" xmlns:xl="http://www.w3.org/1999/xlink" version="1.1" viewBox="34 34 486 502" width="486pt" height="502pt" xmlns:dc="http://purl.org/dc/elements/1.1/">
  <metadata> Produced by OmniGraffle 7.0.2 
    <dc:date>2016-10-21 08:39:53 +0000</dc:date>
  </metadata>
  <defs/>
  <g stroke="none" stroke-opacity="1" stroke-dasharray="none" fill="none" fill-opacity="1">
    <title>JPEG White</title>
    <g>
      <title>Main logo</title>
      <path d="M 204.59644 460.6327 C 191.41684 460.6327 182.03014 460.08984 182.03014 460.08984 L 182.03014 394.00076 L 204.46615 394.00076 C 229.34872 394.00076 245.221 400.8989 245.221 423.81265 C 245.221 443.27225 238.34455 460.6327 204.59644 460.6327 M 205.18998 377.7246 L 163.8416 377.7246 L 163.8416 535.74804 L 182.03014 535.74804 L 182.03014 477.28094 L 208.68756 477.28094 C 245.94482 477.28094 263.74683 454.3672 263.74683 425.3689 C 263.74683 395.83785 245.53224 377.7246 205.18998 377.7246" fill="white"/>
      <path d="M 305.17426 464.0653 L 369.21923 464.0653 L 369.21923 447.09135 L 305.17426 447.09135 L 305.17426 393.7794 L 379.34425 393.7794 L 379.34425 377.72474 L 286.99875 377.72474 L 286.99875 532.84705 L 382.4524 532.84705 L 382.4524 516.7808 L 305.17426 516.7808 Z" fill="white"/>
      <path d="M 474.82323 450.8327 L 474.82323 466.57614 L 501.76294 466.57614 L 501.76294 505.58074 C 493.51556 517.84396 471.4154 517.84396 471.4154 517.84396 C 454.58623 517.84396 441.0201 512.0562 431.1296 500.3387 C 421.31585 488.6763 416.35613 476.13077 416.35613 457.2792 C 416.35613 437.47215 421.2652 422.26147 431.2208 410.0909 C 441.29227 397.9073 455.2739 391.16405 472.6604 391.16405 C 481.5665 391.16405 491.1356 393.9074 500.45714 399.63003 L 511.69397 387.04687 C 501.6341 378.7604 488.79036 374.64322 473.2308 374.64322 C 450.04344 374.64322 431.3106 382.2044 417.71694 397.2095 C 403.98 412.17555 397.0167 432.1013 397.0167 456.42507 C 397.0167 480.76476 403.39803 499.14874 415.8393 513.818 C 428.1894 528.2773 445.52526 535.7082 466.84656 535.7082 C 476.45475 535.7082 486.3192 534.8034 496.58607 531.59105 C 504.4947 529.09237 507.2149 527.07287 519.0597 527.07287 L 519.0597 450.8327 Z" fill="white"/>
      <path d="M 106.28205 377.7253 L 94.08686 377.7253 L 94.08686 393.78 L 106.28205 393.78 L 106.28205 468.4393 C 106.28205 491.4587 106.96969 504.9365 99.07264 512.8336 C 94.13753 517.8295 87.02947 520.5106 80.98399 520.5106 C 52.51554 520.5106 51.480454 497.6982 51.480454 497.6982 L 34.01575 497.6982 C 35.684913 538.2981 83.39292 535.5924 83.39292 535.5924 C 96.08031 534.91924 106.12715 530.7369 113.94747 522.8804 C 124.3041 512.44415 124.55021 493.1409 124.55021 477.03556 L 124.55021 377.7253 Z" fill="white"/>
      <path d="M 388.4181 34.01575 L 89.70998 34.01575 L 89.70998 332.59504 L 262.51704 332.59504 L 262.51704 206.9256 L 388.4181 206.9256 Z" fill="white"/>
      <rect x="402.7651" y="223.56107" width="108.97924" height="109.0328" fill="white"/>
    </g>
  </g>
</svg>
