<svg xmlns="http://www.w3.org/2000/svg" width="209.768" height="75" version="1"><g font-family="Linux Libertine" font-size="70" font-weight="400" letter-spacing="0" style="line-height:100%;-inkscape-font-specification:'Linux Libertine, Normal';text-align:start" word-spacing="0" fill="white"><path d="M54.635 62.622h-19.6v-1.4q3.64-.21 5.11-1.33 1.75-1.4 1.75-4.9v-29.89q0-3.43-1.47-4.76-1.47-1.4-4.9-1.4h-10.78q-3.5 0-4.97 1.33-1.47 1.33-1.47 4.83v29.89q0 3.57 1.75 4.9 1.4 1.12 5.11 1.33v1.4H5.635v-1.4q3.5 0 5.11-1.33 1.68-1.4 1.68-4.83v-31.15q0-3.57-1.61-4.83-1.54-1.26-5.18-1.33v-1.47h49v1.47q-3.85.21-5.18 1.26-1.61 1.26-1.61 4.9v31.15q0 3.71 1.47 4.97 1.47 1.19 5.32 1.19v1.4zM95.615 54.852v.84q.07 2.66-.77 4.83-1.05 2.8-3.36 2.8-2.59 0-4.2-3.22-1.26-2.45-1.54-5.46-4.9 8.68-12.25 8.68-6.51 0-10.29-5.04-3.43-4.55-3.43-11.27t3.36-11.48q3.78-5.39 10.15-5.39 8.19 0 11.2 11.13l2.17-10.08h6.09q-1.19 5.25-2.45 10.5-1.54 6.09-3.29 10.29.28 1.96 1.54 3.85 1.54 2.31 3.22 2.31 1.89 0 2.45-3.29h1.4zm-12.04-8.96q0-4.13-2.45-8.47-2.87-5.04-6.65-5.04-4.34 0-6.65 5.46-1.68 4.06-1.68 9.17 0 4.97 1.68 9.03 2.17 5.32 6.51 5.32 4.41 0 7.07-5.81 2.17-4.62 2.17-9.66zM132.051 33.222q0 2.17-5.74 14.49-3.71 7.84-7.35 15.68h-1.75l-5.46-16.38q-4.62-13.09-6.16-13.09-1.89 0-1.96 5.74h-1.54q-.07-.63-.07-1.26 0-3.01 1.12-5.46 1.47-3.15 4.2-3.15 4.2 0 6.93 7.84l5.88 17.22q4.34-6.58 4.97-14.56.14-3.01.21-6.09.63-4.2 3.01-4.2 1.47 0 2.59.91 1.12.84 1.12 2.31z" font-family="MgOpen Canonica" style="-inkscape-font-specification:'MgOpen Canonica'"/><path d="M171.885 41.499q.273 10.87.205 17.705-.069 2.53-.137 6.426-.068 2.53 1.572 3.008 1.436.341 2.051-1.3.273-.683.273-1.571h17.706q-.069 2.392 1.503 2.87 1.368.41 2.12-1.298.273-.684.273-1.71l-.137-13.808q0-2.119.069-4.99 2.187-.684 2.187-1.367 0-.82-3.35-3.418l-.82-.547-1.845 2.666h-16.202l-5.468-2.666zm21.67 4.17l.068 14.97q0 1.573-.068 3.555H175.78l-.068-14.902q0-1.64.068-3.623h17.774zm-13.399-12.441q.684-5.264 1.846-12.852h9.16l.068 10.322-.068 2.53h-11.006zm14.834 0l-.068-9.502q0-1.026.068-2.188 2.256-.684 2.256-1.367 0-.82-3.418-3.418l-.82-.615-1.846 2.734h-8.955q.752-4.99 1.299-8.135h15.517q2.051 0 1.436-1.093-.274-.547-1.436-1.436l-3.28-2.53-2.462 3.487h-25.156l1.504 1.572h9.98q-.41 3.897-1.025 8.135h-9.024l1.504 1.504h7.315q-.547 3.965-2.12 12.852h-11.757l1.504 1.572h36.504q1.914 0 1.572-.889-.274-.615-1.572-1.64l-3.282-2.461-2.392 3.418h-1.846zm-50.928-22.49h15.45q2.119 0 1.503-1.094-.273-.479-1.23-1.23-.137-.07-.273-.206l-3.282-2.53-2.392 3.487H142.49l1.572 1.572zm-2.666 10.39h20.918q3.282 0 0-2.461l-3.213-2.53-2.46 3.487h-16.749l1.504 1.504zm3.145 10.117h14.834q1.709 0 1.572-.752-.137-.615-1.572-1.777l-3.281-2.461-2.461 3.486h-10.664l1.572 1.504zm-.137 9.912h15.244q3.282 0 0-2.46l-3.213-2.53-2.46 3.486h-11.143l1.572 1.504zm2.324 23.037q0-7.793.137-13.261h10.049l.068 10.664q0 1.162-.068 2.597h-10.186zm.069 1.573h10.049q-.069 2.392 1.504 2.87 1.367.41 2.05-1.161.41-.752.342-1.846l-.068-12.715v-.82q2.256-.684 2.256-1.367 0-.82-3.418-3.418l-.752-.616-1.914 2.735h-8.477l-5.4-2.735.136 15.518q0 1.982-.068 4.785 0 2.256 1.914 2.324 1.436 0 1.709-1.299.137-.751.137-2.255z" font-family="Sazanami Mincho" font-weight="500" style="-inkscape-font-specification:'Sazanami Mincho Medium'"/></g></svg>