<svg xmlns="http://www.w3.org/2000/svg" fill-rule="evenodd" stroke-linejoin="round" stroke-miterlimit="1.41421" clip-rule="evenodd" version="1.1" viewBox="0 0 224 315" xml:space="preserve"><path fill="#131313" fill-rule="nonzero" d="M174.82,11.66l-18.516,0l19.255,20.894l0,9.945l-39.661,0l0,-11.644l19.251,0l-19.251,-20.895l0,-9.96l38.922,0l0,11.66Zm-46.784,0l-18.516,0l19.255,20.894l0,9.945l-39.662,0l0,-11.644l19.254,0l-19.254,-20.895l0,-9.96l38.923,0l0,11.66Zm-46.326,0.473l-19.98,0l0,18.235l19.98,0l0,12.131l-34.18,0l0,-42.499l34.18,0l0,12.133Z"/><path fill="#1572b6" fill-rule="nonzero" d="M20.303,289.616l-20.303,-227.715l223.087,0l-20.322,227.679l-91.358,25.327l-91.104,-25.291Z"/><path fill="#33a9dc" fill-rule="nonzero" d="M111.545,295.548l73.821,-20.466l17.367,-194.561l-91.188,0l0,215.027Z"/><path fill="#fff" fill-rule="nonzero" d="M111.544,163.021l36.957,0l2.552,-28.599l-39.509,0l0,-27.93l70.032,0l-0.67,7.494l-6.864,76.962l-62.498,0l0,-27.927Z"/><path fill="#ebebeb" fill-rule="nonzero" d="M111.712,235.552l-0.123,0.034l-31.104,-8.399l-1.989,-22.273l-15.113,0l-12.921,0l3.912,43.85l57.209,15.882l0.129,-0.036l0,-29.058Z"/><path fill="#fff" fill-rule="nonzero" d="M146.127,189.766l-3.363,37.402l-31.149,8.408l0,29.056l57.254,-15.868l0.42,-4.718l4.859,-54.28l-28.021,0Z"/><path fill="#ebebeb" fill-rule="nonzero" d="M111.641 106.493l0 27.929-67.371 0-.089 0-.56-6.278-1.273-14.158-.668-7.494 69.961 0zM111.544 163.024l0 27.928-30.621 0-.089 0-.559-6.276-1.274-14.159-.667-7.493 33.21 0z"/></svg>