<svg xmlns="http://www.w3.org/2000/svg" fill-rule="evenodd" stroke-linejoin="round" stroke-miterlimit="1.41421" clip-rule="evenodd" version="1.1" viewBox="0 0 224 315" xml:space="preserve"><path fill="#e44f26" fill-rule="nonzero" d="M20.302,289.598l-20.302,-227.715l223.087,0l-20.323,227.678l-91.357,25.327l-91.105,-25.29Z"/><path fill="#f1662a" fill-rule="nonzero" d="M111.544,295.53l73.82,-20.466l17.368,-194.562l-91.188,0l0,215.028Z"/><path fill="#ebebeb" fill-rule="nonzero" d="M111.544 164.959l-36.957 0-2.552-28.599 39.509 0 0-27.93-.097 0-69.935 0 .67 7.494 6.864 76.962 62.498 0 0-27.927zM111.544 237.49l-.123.034-31.104-8.399-1.988-22.274-15.114 0-12.921 0 3.912 43.851 57.209 15.882.129-.036 0-29.058z"/><path fill="#010101" fill-rule="nonzero" d="M20.756 0l14.193 0 0 14.022 12.984 0 0-14.022 14.193 0 0 42.464-14.193 0 0-14.219-12.982 0 0 14.219-14.195 0 0-42.464zM80.789 14.081l-12.495 0 0-14.081 39.189 0 0 14.081-12.5 0 0 28.382-14.193 0 0-28.382-.001 0zM113.703 0l14.8 0 9.102 14.92 9.096-14.92 14.804 0 0 42.463-14.135 0 0-21.047-9.765 15.098-.244 0-9.771-15.098 0 21.047-13.888 0 0-42.463.001 0zM168.569 0l14.196 0 0 28.427 19.959 0 0 14.036-34.156 0 0-42.463.001 0z"/><path fill="#fff" fill-rule="nonzero" d="M111.447 164.959l0 27.927 34.39 0-3.241 36.22-31.149 8.408 0 29.056 57.255-15.868.419-4.718 6.564-73.526.681-7.499-7.526 0-57.393 0zM111.447 108.431l0 27.929 67.46 0 .56-6.278 1.272-14.158.669-7.494-69.961 0z"/></svg>