<svg xmlns="http://www.w3.org/2000/svg" viewBox="0 0 687 572"><g fill="none" fill-rule="evenodd"><path fill="#000" fill-rule="nonzero" d="M96.847 281.974c-.395-2.609-2.354-4.814-4.007-6.76-2.115-2.489-4.453-4.784-6.74-7.113l-7.08-7.207-7.34-7.473c-2.438-2.481-4.79-5.118-7.44-7.376-.469-.398-1.059-.505-1.612-.207-1.138.613-1.522 1.83-1.66 3.04-.174 1.523-.197 3.07-.316 4.597a679.44 679.44 0 0 0-.714 10.107 496.956 496.956 0 0 0-.312 5.38c-9.18-.687-18.174-1.092-27.171-1.458-4.438-.181-8.881-.441-13.323-.466-3.722-.02-15.792-.502-17.716 3.47-1.77 3.653-1.457 8.255-1.263 12.194.219 4.465.588 8.925.888 13.385.119 1.772.471 3.383 2.292 4.09 1.703.663 10.818.471 12.612.56 4.425.221 8.85.444 13.275.662 9.755.481 19.52.93 29.277.265l-.01.878c-.03 2.993-.038 5.986-.026 8.978.007 1.497.036 2.993.066 4.49.025 1.244.03 2.582.627 3.712.553 1.048 1.553 1.763 2.752 1.829 1.431.078 2.726-.877 3.838-1.656 2.252-1.577 4.274-3.457 6.27-5.339a166.292 166.292 0 0 0 11.6-12.095 187.118 187.118 0 0 0 10.39-13.132c1.63-2.26 3.29-4.405 2.843-7.355z"/><g transform="translate(312.855 .1)"><rect width="124.262" height="68.548" x="1.314" y="1.098" fill="#FFF" stroke="#000" stroke-width="2" rx="12"/><path fill="#000" d="M45.82 41.84c-.281.344-.594.563-.938.656-.343.094-.656.082-.937-.035s-.5-.336-.656-.656c-.157-.32-.18-.73-.07-1.23L43.1 25.153c.11-.235.285-.418.528-.551.242-.133.492-.2.75-.2.257 0 .488.067.69.2.204.133.313.34.33.621v6.258c.296-.422.55-.766.76-1.031.212-.266.434-.489.669-.668.234-.18.504-.32.808-.422.305-.102.684-.2 1.137-.293.86-.11 1.559.039 2.098.445.539.406.957.965 1.254 1.676.297.71.5 1.515.609 2.414.11.898.18 1.785.21 2.66.032.875.044 1.688.036 2.438-.008.75.02 1.32.082 1.71.125.485.11.899-.047 1.243-.156.343-.37.57-.644.68-.274.109-.57.081-.89-.083-.321-.164-.575-.52-.763-1.066a13.703 13.703 0 0 1-.175-1.828 58.832 58.832 0 0 1-.036-2.051c0-.695-.011-1.371-.035-2.027a12.367 12.367 0 0 0-.175-1.758c-.094-.516-.239-.934-.434-1.254-.195-.32-.473-.488-.832-.504a3.016 3.016 0 0 0-1.453.797c-.39.39-.707.867-.95 1.43a8.688 8.688 0 0 0-.55 1.851c-.125.672-.211 1.36-.258 2.063a26.585 26.585 0 0 0-.059 2.074c.008.68.028 1.3.059 1.863zm12.68-8.508c-.078.032-.11.211-.094.54.016.328.05.742.105 1.242.055.5.121 1.062.2 1.687.078.625.132 1.242.164 1.852.03.609.027 1.183-.012 1.722-.04.54-.137.98-.293 1.325-.156.343-.387.558-.691.644-.305.086-.715-.012-1.23-.293l-.563-8.719a4.915 4.915 0 0 0-.844-.093c-.219 0-.426.011-.621.035-.196.023-.41.047-.645.07-.234.023-.539.02-.914-.012-.281-.172-.46-.39-.539-.656-.078-.266-.012-.527.2-.785.21-.258.585-.477 1.124-.656.54-.18 1.285-.27 2.239-.27.109-.062.14-.3.093-.715-.047-.414-.11-.902-.187-1.465a23.896 23.896 0 0 1-.176-1.757c-.039-.61.004-1.133.129-1.57.125-.438.363-.735.715-.891.351-.157.879-.07 1.582.258.015.875.031 1.609.047 2.203.015.593.03 1.09.047 1.488.015.398.03.715.046.95a21.623 21.623 0 0 0 .094 1.042c.016.133.031.293.047.48.328.016.629.012.902-.011l.797-.07c.258-.024.524-.043.797-.059.274-.016.574-.016.903 0 .343.078.593.219.75.422.156.203.23.422.222.656-.008.234-.101.457-.281.668-.18.211-.418.371-.715.48l-3.398.258zm6.843 7.922c-.078.36-.257.617-.539.774a1.83 1.83 0 0 1-.902.234c-.32 0-.625-.078-.914-.234a1.147 1.147 0 0 1-.574-.657 93.933 93.933 0 0 1-.059-2.812 142.288 142.288 0 0 0-.058-3.152 51.715 51.715 0 0 0-.176-3.036c-.086-.968-.215-1.78-.387-2.437-.031-.344.023-.637.164-.879.14-.242.324-.41.55-.504.227-.094.477-.09.75.012.274.101.52.316.74.644l.304 2.25c.515-.843 1.101-1.422 1.758-1.734.656-.313 1.277-.39 1.863-.234.586.156 1.098.53 1.535 1.125.438.593.703 1.375.797 2.343.031-.265.18-.593.445-.984.266-.39.606-.785 1.02-1.184a8.615 8.615 0 0 1 1.383-1.078 5.409 5.409 0 0 1 1.535-.68 2.873 2.873 0 0 1 1.5 0c.484.133.906.458 1.265.973.188.297.348.711.48 1.242.134.532.243 1.121.329 1.77.086.648.164 1.328.234 2.039l.2 2.05c.062.657.132 1.266.21 1.829.079.562.18 1.016.305 1.36.047.468-.027.87-.222 1.206-.196.336-.434.563-.715.68-.282.117-.57.11-.867-.023-.297-.133-.532-.426-.704-.88.063-2.374-.027-4.28-.27-5.718-.241-1.438-.558-2.461-.948-3.07-.391-.61-.825-.84-1.301-.692-.477.149-.914.621-1.313 1.418-.398.797-.73 1.879-.996 3.246-.265 1.367-.383 2.965-.351 4.793-.11.313-.262.54-.457.68-.196.14-.41.21-.645.21-.234 0-.476-.066-.726-.198a2.372 2.372 0 0 1-.68-.551c.047-1.64-.027-3.098-.223-4.371-.195-1.274-.449-2.285-.761-3.035-.313-.75-.649-1.215-1.008-1.395-.36-.18-.68 0-.961.54-.281.538-.489 1.468-.621 2.788-.133 1.32-.13 3.098.011 5.332zm17.836-.304c.11.39.094.69-.047.902a.883.883 0 0 1-.609.387 1.84 1.84 0 0 1-.879-.082 2.024 2.024 0 0 1-.832-.504l-.797-15.891c-.11-.281-.113-.527-.011-.738.101-.211.25-.375.445-.492.195-.118.414-.192.656-.223.242-.031.461-.004.656.082a.899.899 0 0 1 .446.422c.101.195.105.457.011.785l.961 15.352z"/></g><g transform="translate(203.623 150.887)"><rect width="124.262" height="68.548" x="1.308" y="1" fill="#FFF" stroke="#000" stroke-width="2" rx="12"/><path fill="#000" d="M41.814 41.743c-.281.343-.594.562-.938.656-.343.094-.656.082-.937-.035s-.5-.336-.656-.657c-.157-.32-.18-.73-.07-1.23l-.118-15.422c.11-.234.285-.418.527-.55.243-.133.493-.2.75-.2.258 0 .489.067.692.2.203.132.312.34.328.62v6.258c.297-.422.55-.765.762-1.031.21-.266.433-.488.668-.668.234-.18.504-.32.808-.422.305-.101.684-.2 1.137-.293.86-.11 1.559.04 2.098.445.539.407.957.965 1.254 1.676.296.711.5 1.516.609 2.414.11.899.18 1.785.21 2.66.032.875.044 1.688.036 2.438-.008.75.02 1.32.082 1.71.125.485.11.9-.047 1.243-.156.344-.37.57-.644.68-.274.11-.57.082-.89-.082-.321-.164-.575-.52-.763-1.067a13.703 13.703 0 0 1-.175-1.828 58.832 58.832 0 0 1-.036-2.05c0-.696-.011-1.372-.035-2.028a12.367 12.367 0 0 0-.176-1.758c-.093-.515-.238-.933-.433-1.254-.195-.32-.473-.488-.832-.504a3.016 3.016 0 0 0-1.453.797c-.39.391-.707.868-.95 1.43a8.688 8.688 0 0 0-.55 1.852c-.125.671-.211 1.359-.258 2.062a26.585 26.585 0 0 0-.059 2.074c.008.68.028 1.301.059 1.864zm18.562-2.18a3.93 3.93 0 0 1-1.125 1.324 4.988 4.988 0 0 1-1.546.785 5.77 5.77 0 0 1-1.77.246 6.025 6.025 0 0 1-1.793-.293 6.433 6.433 0 0 1-1.629-.796 4.802 4.802 0 0 1-1.277-1.266 9.862 9.862 0 0 1-1.149-3.164c-.203-1.125-.195-2.188.024-3.188s.664-1.875 1.336-2.625 1.61-1.25 2.812-1.5c1.14-.078 2.043.059 2.707.41.664.352 1.117.829 1.36 1.43.242.602.289 1.27.14 2.004-.148.734-.465 1.45-.949 2.145-.484.695-1.125 1.312-1.922 1.851-.797.54-1.719.91-2.765 1.113.312.516.667.887 1.066 1.114.398.226.816.363 1.254.41.437.047.87.02 1.3-.082.43-.102.829-.227 1.196-.375a18.8 18.8 0 0 0 .973-.422c.28-.133.484-.223.609-.27.562-.171.945-.171 1.148 0 .204.172.204.555 0 1.149zm-6.21-8.367a5.219 5.219 0 0 0-.985.96c-.281.36-.508.743-.68 1.15a4.743 4.743 0 0 0-.34 1.265c-.054.437-.042.867.036 1.289a4.713 4.713 0 0 0 1.77-.61c.523-.312.96-.668 1.312-1.066a3.94 3.94 0 0 0 .761-1.23c.157-.422.2-.79.13-1.102-.07-.313-.27-.54-.598-.68-.328-.14-.797-.133-1.407.024zm19.664 9.492c0 .453-.094.758-.282.914a.994.994 0 0 1-.656.234c-.25 0-.488-.05-.715-.152-.226-.102-.37-.2-.433-.293L70.5 38.719a8.608 8.608 0 0 1-.703 1.09 5.641 5.641 0 0 1-.89.938 5.305 5.305 0 0 1-1.067.69 3.661 3.661 0 0 1-1.23.352c-1.047.032-1.918-.128-2.614-.48a4.411 4.411 0 0 1-1.664-1.418 5.02 5.02 0 0 1-.82-2.05 8.415 8.415 0 0 1-.058-2.391c.093-.82.289-1.63.585-2.426a9.146 9.146 0 0 1 1.125-2.145 6.421 6.421 0 0 1 1.582-1.57 3.82 3.82 0 0 1 1.934-.691c.688-.047 1.41.113 2.168.48.758.367 1.535 1.02 2.332 1.957l2.649 9.633zm-9.188-1.547c.719.25 1.348.309 1.887.176.539-.133.996-.387 1.37-.762.376-.375.661-.844.856-1.406a7.217 7.217 0 0 0 .281-3.55 5.007 5.007 0 0 0-.515-1.548c-.242-.445-.55-.777-.926-.996-.375-.219-.812-.266-1.312-.14-.407.093-.77.332-1.09.714-.32.383-.59.836-.809 1.36a8.11 8.11 0 0 0-.492 1.699c-.11.61-.16 1.203-.152 1.781.007.578.086 1.106.234 1.582.148.477.371.84.668 1.09zm14.18 2.79c-1.016-.25-1.848-.735-2.496-1.454a6.423 6.423 0 0 1-1.395-2.473 7.99 7.99 0 0 1-.305-2.941 7.853 7.853 0 0 1 .762-2.871 6.411 6.411 0 0 1 1.817-2.25c.78-.617 1.734-.98 2.859-1.09a9.255 9.255 0 0 1 1.734.023c.61.063 1.164.22 1.664.47l-.304-4.618c0-.188.136-.328.41-.422.273-.094.574-.133.902-.117.328.016.63.101.902.258.274.156.41.398.41.726l1.524 15.914c.031.297-.043.532-.223.703a1.25 1.25 0 0 1-.656.329c-.258.046-.52.03-.785-.047-.266-.078-.453-.219-.562-.422a1.617 1.617 0 0 1-.13-.328 61.999 61.999 0 0 1-.34-1.102c-.046-.156-.077-.234-.093-.234-.61.61-1.2 1.066-1.77 1.37-.57.306-1.105.509-1.605.61-.5.102-.95.137-1.348.106a6.108 6.108 0 0 1-.972-.14zm-1.805-5.274c.219.859.508 1.55.867 2.074.36.523.754.898 1.184 1.125.43.226.883.32 1.36.281a3.45 3.45 0 0 0 1.394-.433c.453-.25.883-.586 1.289-1.008a6.457 6.457 0 0 0 1.054-1.477c.141-.281.223-.597.247-.95a5.161 5.161 0 0 0-.047-1.089 10.136 10.136 0 0 0-.235-1.137l-.293-1.113c-.437-.86-.933-1.46-1.488-1.805-.555-.343-1.113-.496-1.676-.457-.562.04-1.101.243-1.617.61a4.982 4.982 0 0 0-1.312 1.394 5.67 5.67 0 0 0-.762 1.887 4.643 4.643 0 0 0 .035 2.098z"/></g><g transform="translate(427.449 150.887)"><rect width="124.262" height="68.548" x="1.272" y="1" fill="#FFF" stroke="#000" stroke-width="2" rx="12"/><path fill="#000" d="M47.926 40.735c-.922.594-1.832.984-2.73 1.172-.899.187-1.707.207-2.426.058-.719-.148-1.305-.441-1.758-.879-.453-.437-.695-.992-.726-1.664l-.82-12.656a3.168 3.168 0 0 1 .234-1.453c.187-.438.422-.746.703-.926a.827.827 0 0 1 .867-.047c.297.149.531.535.703 1.16-.016.454-.047.864-.094 1.23-.047.368-.082.731-.105 1.09-.024.36-.02.731.012 1.114.03.383.117.809.257 1.277 1.22-.906 2.344-1.375 3.375-1.406 1.032-.031 1.922.227 2.672.774.75.546 1.344 1.304 1.782 2.273a7.82 7.82 0 0 1 .69 3.082 8.061 8.061 0 0 1-.585 3.188c-.414 1.039-1.098 1.91-2.05 2.613zm-5.695-7.313c-.078.157-.149.426-.211.809a8.046 8.046 0 0 0-.094 1.289c0 .477.035.969.106 1.477.07.507.191.972.363 1.394.172.422.398.773.68 1.055.28.281.64.43 1.078.445 1.14-.25 2.043-.64 2.707-1.172.664-.531 1.137-1.125 1.418-1.781a4.45 4.45 0 0 0 .363-2.027 5.189 5.189 0 0 0-.469-1.922 4.239 4.239 0 0 0-1.101-1.465c-.461-.39-.961-.606-1.5-.645-.54-.039-1.102.133-1.688.516-.586.383-1.136 1.059-1.652 2.027zm11.273 8.227c-.703-.344-1.246-.824-1.629-1.442a5.435 5.435 0 0 1-.75-2.039 7.698 7.698 0 0 1 0-2.32c.118-.805.317-1.586.598-2.344.281-.757.625-1.449 1.031-2.074.407-.625.844-1.133 1.313-1.523.86-.657 1.656-1.047 2.39-1.172.735-.125 1.391-.055 1.97.21.577.266 1.081.688 1.51 1.266.43.578.767 1.239 1.009 1.98a9.33 9.33 0 0 1 .433 2.391 9.83 9.83 0 0 1-.175 2.497 8.062 8.062 0 0 1-.82 2.273 5.1 5.1 0 0 1-1.524 1.734c-.633.453-1.39.743-2.274.868-.882.125-1.91.023-3.082-.305zm1.805-1.945a2.632 2.632 0 0 0 1.77-.434 4.33 4.33 0 0 0 1.3-1.383c.344-.57.594-1.215.75-1.933.157-.72.188-1.41.094-2.075a4.478 4.478 0 0 0-.656-1.804c-.344-.54-.836-.918-1.477-1.137-.39-.078-.8.047-1.23.375-.43.328-.82.77-1.172 1.324a8.274 8.274 0 0 0-.867 1.875 6.63 6.63 0 0 0-.34 2.063c0 .68.14 1.3.422 1.863.281.562.75.984 1.406 1.266zM66.09 41.93c-1.015-.25-1.847-.734-2.496-1.453a6.423 6.423 0 0 1-1.394-2.473 7.99 7.99 0 0 1-.305-2.941 7.853 7.853 0 0 1 .762-2.871 6.411 6.411 0 0 1 1.816-2.25c.781-.617 1.734-.98 2.86-1.09a9.255 9.255 0 0 1 1.734.023c.61.063 1.164.22 1.664.47l-.305-4.618c0-.188.137-.328.41-.422.274-.094.575-.133.903-.117.328.016.629.101.902.258.273.156.41.398.41.726l1.524 15.914c.03.297-.043.532-.223.703a1.25 1.25 0 0 1-.656.329c-.258.046-.52.03-.785-.047-.266-.078-.454-.219-.563-.422a1.617 1.617 0 0 1-.129-.328 61.996 61.996 0 0 1-.34-1.102c-.047-.156-.078-.234-.093-.234-.61.61-1.2 1.066-1.77 1.37-.57.306-1.105.509-1.605.61-.5.102-.95.137-1.348.106a6.108 6.108 0 0 1-.973-.14zm-1.804-5.273c.218.859.507 1.55.867 2.074.36.523.754.898 1.183 1.125.43.226.883.32 1.36.281a3.45 3.45 0 0 0 1.394-.433c.453-.25.883-.586 1.29-1.008a6.457 6.457 0 0 0 1.054-1.477c.14-.281.223-.597.246-.95a5.161 5.161 0 0 0-.047-1.089 10.136 10.136 0 0 0-.234-1.137c-.102-.382-.2-.754-.293-1.113-.438-.86-.934-1.46-1.488-1.805-.555-.343-1.114-.496-1.676-.457-.563.04-1.102.243-1.617.61a4.982 4.982 0 0 0-1.313 1.394 5.67 5.67 0 0 0-.762 1.887 4.643 4.643 0 0 0 .036 2.098zm11.882 12.07c-.187-.219-.257-.492-.21-.82.046-.328.156-.63.328-.903.171-.273.382-.468.632-.586.25-.117.47-.074.657.13.625 1.046 1.214 1.804 1.77 2.273.554.468 1.07.71 1.546.726.477.016.906-.152 1.29-.504.382-.351.714-.824.995-1.418.281-.593.516-1.27.703-2.027.188-.758.32-1.527.399-2.309.078-.78.094-1.542.047-2.285-.047-.742-.149-1.386-.305-1.933-.297.375-.645.75-1.043 1.125a6.24 6.24 0 0 1-1.313.949 4.56 4.56 0 0 1-1.546.504c-.555.078-1.13 0-1.723-.235-.547-.296-1-.722-1.36-1.277a7.864 7.864 0 0 1-.878-1.898 13.438 13.438 0 0 1-.504-2.274 25.11 25.11 0 0 1-.211-2.379 35.873 35.873 0 0 1-.024-2.226c.016-.703.04-1.32.07-1.852.157-.25.376-.449.657-.597a1.69 1.69 0 0 1 .844-.211c.28.007.53.097.75.27.218.171.351.444.398.82-.015.312-.035.742-.058 1.289-.024.546-.032 1.14-.024 1.78.008.641.04 1.298.094 1.97.055.671.164 1.289.328 1.851.164.563.383 1.047.656 1.453.274.406.63.664 1.067.774.718-.094 1.3-.348 1.746-.762a4.058 4.058 0 0 0 1.02-1.523 7.424 7.424 0 0 0 .456-1.981c.07-.719.094-1.43.07-2.133a18.559 18.559 0 0 0-.163-1.969c-.086-.609-.16-1.109-.223-1.5.11-.25.305-.41.586-.48a1.86 1.86 0 0 1 .855-.012c.29.063.555.188.797.375.242.188.38.414.41.68.672 3.781 1.016 7.047 1.032 9.797.015 2.75-.192 5.027-.622 6.832-.43 1.805-1.035 3.172-1.816 4.101-.781.93-1.637 1.47-2.566 1.618-.93.148-1.887-.059-2.871-.621-.985-.563-1.899-1.43-2.743-2.602z"/></g><g transform="translate(203.973 286.535)"><rect width="124.262" height="68.548" x="1.627" y="1.886" fill="#FFF" stroke="#000" stroke-width="2" rx="12"/><path fill="#000" d="M49.25 34.12c-.077.032-.109.212-.093.54.016.328.05.742.106 1.242.054.5.12 1.062.199 1.687.078.625.133 1.243.164 1.852.031.61.027 1.184-.012 1.723-.039.539-.137.98-.293 1.324-.156.344-.387.558-.691.644-.305.086-.715-.011-1.23-.293l-.563-8.718a4.915 4.915 0 0 0-.844-.094c-.219 0-.426.012-.621.035-.195.023-.41.047-.645.07-.234.024-.539.02-.914-.011-.28-.172-.46-.391-.539-.657-.078-.265-.011-.527.2-.785.21-.258.585-.476 1.125-.656.539-.18 1.285-.27 2.238-.27.11-.062.14-.3.094-.714-.047-.414-.11-.903-.188-1.465a23.896 23.896 0 0 1-.176-1.758c-.039-.61.004-1.133.13-1.57.124-.438.362-.735.714-.891.352-.156.879-.07 1.582.258.016.875.031 1.61.047 2.203.016.594.031 1.09.047 1.488.015.399.031.715.047.95a21.623 21.623 0 0 0 .093 1.042c.016.133.032.293.047.48.328.017.63.013.903-.01l.797-.071c.257-.024.523-.043.796-.059.274-.015.575-.015.903 0 .344.078.593.219.75.422.156.203.23.422.222.656-.007.235-.101.457-.28.668-.18.211-.419.371-.716.48l-3.398.259zm7.923 6.774c.11.297.144.586.105.867-.039.282-.129.532-.27.75-.14.219-.316.39-.527.516-.21.125-.425.18-.644.164-.219-.016-.426-.113-.621-.293-.196-.18-.348-.473-.457-.879-.032-.11-.059-.379-.082-.809-.024-.43-.043-.933-.059-1.511-.016-.578-.031-1.2-.047-1.864-.015-.664-.031-1.285-.047-1.863-.015-.578-.03-1.082-.047-1.512-.015-.43-.039-.707-.07-.832-.11-.765-.117-1.386-.023-1.863.093-.476.238-.836.433-1.078.196-.242.418-.375.668-.398.25-.024.48.043.692.199.21.156.379.394.504.715.125.32.164.699.117 1.136l.375 8.555zm-1.688-12.469c-.344-.265-.55-.558-.62-.879-.071-.32-.048-.605.07-.855.117-.25.304-.43.562-.54.258-.108.535-.093.832.048.344.187.555.453.633.797.078.343.062.66-.047.949-.11.289-.293.5-.55.633-.259.132-.552.082-.88-.153zm7.688 5.696c-.078.03-.11.21-.094.539.016.328.05.742.105 1.242.055.5.122 1.062.2 1.687.078.625.132 1.243.164 1.852.031.61.027 1.184-.012 1.723-.039.539-.137.98-.293 1.324-.156.344-.387.558-.691.644-.305.086-.715-.011-1.23-.293l-.563-8.718a4.915 4.915 0 0 0-.844-.094c-.219 0-.426.012-.621.035-.195.023-.41.047-.645.07-.234.024-.539.02-.914-.011-.281-.172-.46-.391-.539-.657-.078-.265-.012-.527.2-.785.21-.258.585-.476 1.124-.656.54-.18 1.286-.27 2.239-.27.11-.062.14-.3.093-.714-.046-.414-.109-.903-.187-1.465a23.896 23.896 0 0 1-.176-1.758c-.039-.61.004-1.133.13-1.57.124-.438.362-.735.714-.891.351-.156.879-.07 1.582.258.016.875.031 1.61.047 2.203.015.594.031 1.09.047 1.488.015.399.03.715.047.95a21.623 21.623 0 0 0 .093 1.042c.016.133.032.293.047.48.328.017.63.013.903-.01l.796-.071c.258-.024.524-.043.797-.059.274-.015.574-.015.903 0 .343.078.593.219.75.422.156.203.23.422.222.656-.008.235-.101.457-.281.668-.18.211-.418.371-.715.48l-3.398.259zm7.945 7.617c.11.39.094.691-.047.902a.883.883 0 0 1-.61.387 1.84 1.84 0 0 1-.878-.082 2.024 2.024 0 0 1-.832-.504l-.797-15.89c-.11-.282-.113-.528-.012-.739.102-.21.25-.375.446-.492.195-.117.414-.192.656-.223.242-.031.46-.004.656.082a.899.899 0 0 1 .445.422c.102.195.106.457.012.785l.961 15.352zm11.484-1.29a3.93 3.93 0 0 1-1.125 1.325 4.988 4.988 0 0 1-1.546.785 5.77 5.77 0 0 1-1.77.246 6.025 6.025 0 0 1-1.793-.293 6.433 6.433 0 0 1-1.629-.797 4.802 4.802 0 0 1-1.277-1.265 9.862 9.862 0 0 1-1.149-3.164c-.203-1.125-.195-2.188.024-3.188s.664-1.875 1.336-2.625 1.61-1.25 2.812-1.5c1.14-.078 2.043.059 2.707.41.664.352 1.117.828 1.36 1.43.242.602.289 1.27.14 2.004-.148.734-.465 1.45-.949 2.144-.484.696-1.125 1.313-1.922 1.852-.797.54-1.719.91-2.765 1.113.312.516.668.887 1.066 1.114.398.226.816.363 1.254.41.437.047.871.02 1.3-.082.43-.102.829-.227 1.196-.375a18.8 18.8 0 0 0 .973-.422c.28-.133.484-.223.609-.27.563-.172.945-.172 1.148 0 .204.172.204.555 0 1.149zm-6.21-8.366a5.219 5.219 0 0 0-.985.96c-.281.36-.508.743-.68 1.149a4.743 4.743 0 0 0-.34 1.266c-.054.437-.042.867.036 1.289a4.713 4.713 0 0 0 1.77-.61c.523-.312.96-.668 1.312-1.066a3.94 3.94 0 0 0 .761-1.23c.157-.422.2-.79.13-1.102-.07-.313-.27-.54-.598-.68-.328-.14-.797-.133-1.407.024z"/></g><g transform="translate(427.449 286.535)"><rect width="124.262" height="68.548" x="1" y="1.886" fill="#FFF" stroke="#000" stroke-width="2" rx="12"/><path fill="#000" d="M51.584 42.816c-1.015-.25-1.847-.734-2.496-1.453a6.423 6.423 0 0 1-1.394-2.473 7.99 7.99 0 0 1-.305-2.941 7.853 7.853 0 0 1 .762-2.871 6.411 6.411 0 0 1 1.816-2.25c.781-.618 1.735-.98 2.86-1.09a9.255 9.255 0 0 1 1.734.023c.61.063 1.164.219 1.664.469l-.305-4.617c0-.188.137-.328.41-.422.274-.094.575-.133.903-.117.328.015.629.101.902.258.274.156.41.398.41.726l1.524 15.914c.03.297-.043.531-.223.703a1.25 1.25 0 0 1-.656.328c-.258.047-.52.032-.785-.046-.266-.079-.453-.22-.563-.422a1.617 1.617 0 0 1-.129-.328 61.997 61.997 0 0 1-.34-1.102c-.046-.156-.078-.234-.093-.234-.61.609-1.2 1.066-1.77 1.37-.57.305-1.105.509-1.605.61-.5.102-.95.137-1.348.106a6.108 6.108 0 0 1-.973-.141zm-1.804-5.273c.218.859.507 1.55.867 2.074.36.523.754.898 1.183 1.125.43.226.883.32 1.36.281a3.45 3.45 0 0 0 1.394-.434c.453-.25.883-.586 1.29-1.007a6.457 6.457 0 0 0 1.054-1.477c.14-.281.223-.598.246-.95a5.161 5.161 0 0 0-.047-1.089 10.136 10.136 0 0 0-.234-1.137c-.102-.383-.2-.754-.293-1.113-.438-.86-.934-1.461-1.488-1.805-.555-.343-1.114-.496-1.676-.457-.563.04-1.102.242-1.617.61a4.982 4.982 0 0 0-1.313 1.394 5.67 5.67 0 0 0-.762 1.887 4.643 4.643 0 0 0 .036 2.098zm14.367 3.351c.11.297.144.586.105.867-.039.282-.129.532-.27.75-.14.219-.316.39-.527.516-.21.125-.425.18-.644.164-.219-.016-.426-.113-.621-.293-.196-.18-.348-.473-.457-.879-.031-.11-.059-.379-.082-.809-.024-.43-.043-.933-.059-1.511l-.047-1.864c-.015-.664-.031-1.285-.047-1.863-.015-.578-.03-1.082-.046-1.512-.016-.43-.04-.707-.07-.832-.11-.765-.118-1.386-.024-1.863.094-.476.238-.836.433-1.078.196-.242.418-.375.668-.398.25-.024.48.043.692.199.21.156.379.394.504.715.125.32.164.699.117 1.136l.375 8.555zm-1.688-12.469c-.343-.265-.55-.558-.62-.879-.071-.32-.048-.605.07-.855.117-.25.304-.43.562-.54.258-.108.535-.093.832.048.344.187.555.453.633.797.078.343.062.66-.047.949-.11.289-.293.5-.55.633-.259.132-.552.082-.88-.153zm11.32 13.547c-.265.485-.59.79-.972.914-.383.125-.8.008-1.254-.351l-.434-.645c-.257-.383-.64-1-1.148-1.851a125.327 125.327 0 0 1-1.91-3.352 181.61 181.61 0 0 1-2.719-5.144c-.172-.266-.234-.536-.187-.81.047-.273.16-.503.34-.69.18-.188.406-.317.68-.387.273-.07.55-.051.831.058.156.063.344.254.563.575.218.32.457.714.715 1.183.257.469.53.988.82 1.559.289.57.578 1.137.867 1.699.29.563.57 1.102.844 1.617.273.516.527.95.762 1.301.234.352.445.602.632.75.188.148.336.137.446-.035.047-.078.12-.258.222-.54.102-.28.219-.62.352-1.019.133-.398.273-.816.422-1.254.148-.437.289-.855.422-1.254a44.456 44.456 0 0 1 .55-1.558c.079-.203.172-.457.282-.762.109-.305.234-.617.375-.937.14-.32.3-.614.48-.88.18-.265.379-.456.598-.574a.903.903 0 0 1 .715-.058c.257.078.55.312.879.703.093.11.152.246.175.41.024.164-.008.406-.093.727-.086.32-.227.738-.422 1.254a81.45 81.45 0 0 1-.809 2.027c-.344.836-.766 1.852-1.266 3.047s-1.085 2.621-1.757 4.277z"/></g><g transform="translate(318.03 437.723)"><rect width="124.262" height="68.548" x="1.266" y="1" fill="#FFF" stroke="#000" stroke-width="2" rx="12"/><path fill="#000" d="M58.272 41.743c-.28.343-.593.562-.937.656-.344.094-.656.082-.938-.035-.28-.117-.5-.336-.656-.657-.156-.32-.18-.73-.07-1.23l-.117-15.422c.11-.234.285-.418.527-.55.242-.133.492-.2.75-.2s.488.067.691.2c.204.132.313.34.329.62v6.258c.296-.422.55-.765.761-1.031.211-.266.434-.488.668-.668.235-.18.504-.32.809-.422.305-.101.683-.2 1.137-.293.859-.11 1.558.04 2.097.445.54.407.957.965 1.254 1.676.297.711.5 1.516.61 2.414.109.899.18 1.785.21 2.66.032.875.043 1.688.036 2.438-.008.75.02 1.32.082 1.71.125.485.109.9-.047 1.243-.156.344-.371.57-.645.68-.273.11-.57.082-.89-.082-.32-.164-.575-.52-.762-1.067a13.703 13.703 0 0 1-.176-1.828 58.832 58.832 0 0 1-.035-2.05c0-.696-.012-1.372-.035-2.028a12.367 12.367 0 0 0-.176-1.758c-.094-.515-.238-.933-.434-1.254-.195-.32-.472-.488-.832-.504a3.016 3.016 0 0 0-1.453.797c-.39.391-.707.868-.949 1.43a8.688 8.688 0 0 0-.55 1.852c-.126.671-.212 1.359-.259 2.062a26.585 26.585 0 0 0-.058 2.074c.008.68.027 1.301.058 1.864zm12.844-1.336c.047.359 0 .664-.14.914-.141.25-.32.41-.54.48-.218.07-.449.047-.69-.07-.243-.117-.442-.363-.599-.738a95.232 95.232 0 0 1-.082-3.457c-.007-1.211-.007-2.434 0-3.668l.024-3.668c.008-1.211.004-2.356-.012-3.434 0 .047-.09.117-.27.211a4.724 4.724 0 0 1-1.429.457c-.273.04-.496.016-.668-.07-.172-.086-.273-.25-.305-.492-.031-.243.07-.598.305-1.067a54.793 54.793 0 0 1 1.957-1.113c.54-.29.98-.403 1.324-.34.344.062.598.344.762.844.164.5.254 1.304.27 2.414.015 1.11.003 2.21-.036 3.304a235.26 235.26 0 0 0-.093 3.247 71.726 71.726 0 0 0 0 3.175 30.19 30.19 0 0 0 .222 3.07z"/></g><g transform="translate(542.182 437.723)"><rect width="124.262" height="68.548" x="1" y="1" fill="#FFF" stroke="#000" stroke-width="2" rx="12"/><path fill="#000" d="M60.819 46.922c.093.5.035.883-.176 1.149-.211.265-.469.418-.774.457a1.371 1.371 0 0 1-.902-.211c-.297-.18-.484-.457-.562-.832a125.973 125.973 0 0 0-.234-11.86 46.197 46.197 0 0 0-.376-3.632c-.39.171-.71.234-.96.187-.25-.047-.426-.16-.528-.34-.102-.18-.129-.406-.082-.68.047-.273.172-.566.375-.878.516-.625 1.227-.989 2.133-1.09.906-.102 1.867-.012 2.883.27 1.015.28 2.027.722 3.035 1.324a12.19 12.19 0 0 1 2.613 2.062c.734.774 1.266 1.606 1.594 2.496.328.89.328 1.758 0 2.602-.219.593-.633 1.14-1.242 1.64-.61.5-1.309.914-2.098 1.243-.79.328-1.617.554-2.484.68-.868.124-1.676.1-2.426-.071l.21 5.484zm-.14-7.547c1.655-.093 2.925-.34 3.808-.738.882-.398 1.465-.875 1.746-1.43.281-.554.3-1.148.058-1.78-.242-.634-.652-1.227-1.23-1.782-.578-.555-1.281-1.035-2.11-1.441a7.65 7.65 0 0 0-2.601-.75l.328 7.921z"/></g><path stroke="#000" stroke-linecap="round" stroke-width="2" d="M490.894 150.887L377.65 71.243l-110.907 79.644M605.627 437.723L492.383 358.08l-110.907 79.644M265.42 220.116v68.845M493.551 220.116v68.845"/></g></svg>
