<svg xmlns="http://www.w3.org/2000/svg" width="134" height="104"><g fill="none" fill-rule="evenodd"><path fill="#FFF" stroke="#1D877A" stroke-linecap="square" stroke-width="3" d="M119.823 23.803c.822-.879-8.563-19.796-10.14-20.974-1.576-1.179-91.65-1.375-93.136 0-.72.665 2.683 5.222 5.506 10.143 3.003 5.235 4.552 10.83 5.21 10.83 1.278 0 91.737.88 92.56 0z"/><path stroke="#000" stroke-linecap="round" stroke-width="5" d="M120.934 50.522c5.062 1.837 8.16 4.643 9.295 8.42 1.134 3.776 1.134 9.368 0 16.777M62.094 81.752c-3.575 2.251-5.873 4.371-6.895 6.36-1.021 1.988-1.35 5.306-.987 9.954l-7.646 2.823M76.84 81.752c3.575 2.251 5.873 4.371 6.894 6.36 1.022 1.988 1.351 5.306.987 9.954l7.646 2.823"/><path fill="#FFF" stroke="#1D877A" stroke-width="3" d="M119.712 24.14c-.074-.006-.145-.017-.182-.02a67.407 67.407 0 0 0-3.039-.211c-2.562-.134-6.2-.257-10.697-.366-8.762-.21-20.392-.353-32.116-.394-12.284-.042-23.74.028-32.233.211-4.578.099-8.241.229-10.837.388-1.339.082-2.384.171-3.11.266-.354.046-.732.137-.5-.097.167-.168.1.029.043.295-.107.506-.219 1.23-.33 2.149-.224 1.831-.441 4.386-.64 7.486-.4 6.237-.698 14.297-.82 22.244-.13 8.614-.046 16.52.268 22.477.321 6.113.965 10.25 1.39 10.613 1.336 1.144 22.427 2.138 46.755 2.138 11.733 0 23.015-.218 31.519-.623 4.47-.212 8.1-.472 10.716-.773 1.335-.153 2.392-.315 3.146-.482.552-.122.894-.249.82-.173.355-.361.886-4.586 1.13-10.772.236-5.97.276-13.896.14-22.648-.122-7.871-.382-15.969-.708-22.295-.158-3.076-.326-5.617-.492-7.424a38.38 38.38 0 0 0-.223-1.99z"/><path stroke="#000" stroke-linecap="round" stroke-width="4" d="M61.934 67.32c4.818 3.098 8.513 4.647 11.085 4.647 2.571 0 6.266-1.549 11.085-4.647M60.094 50.272v4.5M85.604 50.272v4.5"/><path fill="#FFF" stroke="#1D877A" stroke-linecap="square" stroke-width="3" d="M15.973 3c-1.457.627-1.457 23.736 0 69.328 6.395 11.86 9.917 17.316 10.568 16.367.976-1.424 0-12.137 0-30.174 0-12.025.314-23.542.943-34.549C21.266 9.365 17.43 2.374 15.973 3.001z"/><path stroke="#1D877A" stroke-linecap="square" stroke-width="3" d="M22.938 12.259h90.088"/><path stroke="#000" stroke-linecap="round" stroke-width="5" d="M19.374 45.91c-5.508 2.047-9.49 4.724-11.943 8.029-2.454 3.304-3.981 8.54-4.582 15.705"/></g></svg>
