<svg xmlns="http://www.w3.org/2000/svg" width="770" height="192"><g fill="none" fill-rule="evenodd"><path fill="#FFF" stroke="#1D877A" stroke-linecap="square" stroke-width="3" d="M755.823 111.803c.822-.879-8.563-19.796-10.14-20.974-1.576-1.179-91.65-1.375-93.136 0-.72.665 2.683 5.222 5.506 10.143 3.003 5.235 4.552 10.83 5.21 10.83 1.278 0 91.737.88 92.56 0z"/><path stroke="#000" stroke-linecap="round" stroke-width="5" d="M756.934 138.522c5.062 1.837 8.16 4.643 9.295 8.42 1.134 3.776 1.134 9.368 0 16.777M698.094 169.752c-3.575 2.251-5.873 4.371-6.895 6.36-1.021 1.988-1.35 5.306-.987 9.954l-7.646 2.823M712.84 169.752c3.575 2.251 5.873 4.371 6.894 6.36 1.022 1.988 1.351 5.306.987 9.954l7.646 2.823"/><path fill="#FFF" stroke="#1D877A" stroke-width="3" d="M755.712 112.14c-.074-.006-.145-.017-.182-.02a67.407 67.407 0 0 0-3.039-.211c-2.562-.134-6.2-.257-10.697-.366-8.762-.21-20.392-.353-32.116-.394-12.284-.042-23.74.028-32.233.211-4.578.099-8.241.229-10.837.388-1.339.082-2.384.171-3.11.266-.354.046-.732.137-.5-.097.167-.168.1.029.043.295-.107.506-.219 1.23-.33 2.149-.224 1.831-.441 4.386-.64 7.486-.4 6.237-.698 14.297-.82 22.244-.13 8.614-.046 16.52.268 22.477.321 6.113.965 10.25 1.39 10.613 1.336 1.144 22.427 2.138 46.755 2.138 11.733 0 23.015-.218 31.519-.623 4.47-.212 8.1-.472 10.716-.773 1.335-.153 2.392-.315 3.146-.482.552-.122.894-.249.82-.173.355-.361.886-4.586 1.13-10.772.236-5.97.276-13.896.14-22.648-.122-7.871-.382-15.969-.708-22.295-.158-3.076-.326-5.617-.492-7.424a38.38 38.38 0 0 0-.223-1.99z"/><path stroke="#000" stroke-linecap="round" stroke-width="4" d="M697.934 155.32c4.818 3.098 8.513 4.647 11.085 4.647 2.571 0 6.266-1.549 11.085-4.647M696.094 138.272v4.5M721.604 138.272v4.5"/><path fill="#FFF" stroke="#1D877A" stroke-linecap="square" stroke-width="3" d="M651.973 91c-1.457.627-1.457 23.736 0 69.328 6.395 11.86 9.917 17.316 10.568 16.367.976-1.424 0-12.137 0-30.174 0-12.025.314-23.542.943-34.549-6.218-14.607-10.055-21.598-11.511-20.971z"/><path stroke="#1D877A" stroke-linecap="square" stroke-width="3" d="M658.938 100.259h90.088"/><path stroke="#000" stroke-linecap="round" stroke-width="5" d="M655.374 133.91c-5.508 2.047-9.49 4.724-11.943 8.029-2.454 3.304-3.981 8.54-4.582 15.705"/><g><path fill="#FFF" stroke="#1D877A" stroke-linecap="square" stroke-width="3" d="M450.06 108.803c.822-.879-6.162-19.6-10.14-20.974-3.979-1.375-141.651-1.375-143.137 0-.72.665 2.684 5.222 5.507 10.143 3.003 5.235 4.551 10.83 5.21 10.83 1.277 0 141.737.88 142.56 0z"/><path stroke="#000" stroke-linecap="round" stroke-width="5" d="M452.949 142.776c5.062-1.837 8.16-4.643 9.295-8.42 1.134-3.776 1.134-9.368 0-16.777M369.33 169.752c-3.575 2.251-5.873 4.371-6.894 6.36-1.022 1.988-1.351 5.306-.987 9.954l-7.646 2.823M384.076 169.752c3.575 2.251 5.873 4.371 6.895 6.36 1.021 1.988 1.35 5.306.987 9.954l7.646 2.823"/><path fill="#FFF" stroke="#1D877A" stroke-width="3" d="M450.103 174.265c.356-.38.885-4.598 1.128-10.769.236-5.97.276-13.896.14-22.648-.122-7.871-.382-15.969-.707-22.295-.159-3.076-.327-5.617-.492-7.424a38.57 38.57 0 0 0-.222-1.981c-.24.026-.605-.018-.696-.025a150.856 150.856 0 0 0-4.648-.213c-3.905-.134-9.473-.258-16.376-.366-13.424-.211-31.297-.354-49.313-.395-18.875-.042-36.455.028-49.435.211-7.006.1-12.59.23-16.52.39-2.043.082-3.629.173-4.728.27-.521.047-1.276.176-1-.103.167-.168.1.029.043.295-.107.506-.219 1.23-.33 2.149-.223 1.831-.44 4.386-.64 7.486-.4 6.237-.698 14.297-.819 22.244-.13 8.614-.046 16.52.267 22.477.321 6.113.965 10.25 1.39 10.613.487.417 9.63 1.105 22.908 1.514 13.145.405 30.66.624 48.847.624s35.661-.219 48.731-.624c6.893-.213 12.454-.475 16.412-.777 2.042-.156 3.644-.322 4.774-.495.812-.124 1.407-.286 1.286-.158z"/><path stroke="#000" stroke-linecap="round" stroke-width="4" d="M367.17 152.717c4.818 3.098 8.513 4.646 11.085 4.646 2.572 0 6.267-1.548 11.085-4.646M365.33 135.668v4.5M390.84 135.668v4.5"/><path fill="#FFF" stroke="#1D877A" stroke-linecap="square" stroke-width="3" d="M296.209 88c-1.456.627-1.456 23.736 0 69.328 6.395 11.86 9.918 17.316 10.568 16.367.976-1.424 0-12.137 0-30.174 0-12.025.315-23.542.944-34.549-6.218-14.607-10.056-21.598-11.512-20.971z"/><path stroke="#1D877A" stroke-linecap="square" stroke-width="3" d="M303.174 97.259h141.14"/><path stroke="#000" stroke-linecap="round" stroke-width="5" d="M299.419 139.668c-5.509-2.048-9.49-4.725-11.944-8.03-2.453-3.304-3.98-8.539-4.582-15.704"/></g><g><path stroke="#979797" stroke-linecap="square" stroke-width="3" d="M516.438 106.272l-9-20"/><path fill="#FFF" stroke="#1D877A" stroke-linecap="square" stroke-width="3" d="M609.823 106.303c.822-.879-36.161-70.6-40.14-71.974-3.978-1.375-91.65-1.375-93.136 0-.72.665 32.683 56.222 35.506 61.143 3.003 5.235 4.552 10.83 5.21 10.83 1.278 0 91.737.88 92.56 0z"/><path stroke="#000" stroke-linecap="round" stroke-width="5" d="M594.929 125.12c15.385 4.576 23.767 8.77 25.147 12.582 1.38 3.812.147 9.926-3.698 18.343M517.484 143.438c-4.501 3.997-7.395 7.761-8.682 11.291-1.286 3.53-1.7 9.423-1.242 17.676l-9.628 5.011M555.973 165.272c3.574 2.25 5.872 4.37 6.894 6.359 1.022 1.988 1.35 5.307.987 9.955l8.063 6.296"/><path fill="#FFF" stroke="#1D877A" stroke-width="3" d="M609.712 106.64c-.074-.006-.145-.017-.182-.02a67.407 67.407 0 0 0-3.039-.211c-2.562-.134-6.2-.257-10.697-.366-8.762-.21-20.392-.353-32.116-.394-12.284-.042-23.74.028-32.233.211-4.578.099-8.241.229-10.837.388-1.339.082-2.384.171-3.11.266-.354.046-.732.137-.5-.097.167-.168.1.029.043.295-.107.506-.219 1.23-.33 2.149-.224 1.831-.441 4.386-.64 7.486-.4 6.237-.698 14.297-.82 22.244-.13 8.614-.046 16.52.268 22.477.321 6.113.965 10.25 1.39 10.613 1.336 1.144 22.427 2.138 46.755 2.138 11.733 0 23.015-.218 31.519-.623 4.47-.212 8.1-.472 10.716-.773 1.335-.153 2.392-.315 3.146-.482.552-.122.894-.249.82-.173.355-.361.886-4.586 1.13-10.772.236-5.97.276-13.896.14-22.648-.122-7.871-.382-15.969-.708-22.295-.158-3.076-.326-5.617-.492-7.424a38.38 38.38 0 0 0-.223-1.99z"/><path stroke="#000" stroke-linecap="round" stroke-width="4" d="M552.651 148.866c4.819 3.098 8.514 4.647 11.085 4.647 2.572 0 6.267-1.55 11.085-4.647M550.812 131.817v4.5M576.321 131.817v4.5"/><path fill="#FFF" stroke="#1D877A" stroke-linecap="square" stroke-width="3" d="M475.973 35.5c-1.457.627-1.457 23.736 0 69.328 26.395 45.194 39.917 67.316 40.568 66.367.976-1.424 0-12.137 0-30.174 0-12.025.314-23.542.943-34.549-26.218-47.94-40.055-71.598-41.511-70.971z"/><path stroke="#1D877A" stroke-linecap="square" stroke-width="3" d="M497.594 68.996h91"/><path stroke="#000" stroke-linecap="round" stroke-width="5" d="M497.385 111.705c-5.509-2.048-9.49-4.724-11.944-8.03-2.453-3.304-3.98-8.539-4.582-15.704"/></g><g><path fill="#FFF" stroke="#1D877A" stroke-linecap="square" stroke-width="3" d="M130.823 90.803c.822-.879-24.198-38.01-28.177-39.385-3.978-1.374-86.045-1.374-87.53 0-.72.666 9.413 14.452 12.236 19.372 3.003 5.235 10.253 20.013 10.911 20.013 1.278 0 91.737.878 92.56 0z"/><path stroke="#000" stroke-linecap="round" stroke-width="5" d="M133.713 116.39c5.062-1.837 8.16-4.643 9.294-8.42 1.135-3.775 1.135-9.368 0-16.777M70.466 151.752c-3.574 2.251-5.872 4.371-6.894 6.36-1.022 1.988-1.35 5.306-.987 9.954l-7.646 2.823M90.212 151.752c3.575 2.251 5.873 4.371 6.895 6.36 1.022 1.988 1.35 5.306.987 9.954l7.646 2.823"/><path fill="#FFF" stroke="#1D877A" stroke-width="3" d="M130.865 156.268c.355-.362.886-4.586 1.13-10.772.236-5.97.276-13.896.14-22.648-.122-7.871-.382-15.969-.708-22.295-.158-3.076-.326-5.617-.492-7.424a38.38 38.38 0 0 0-.223-1.99c-.074-.005-.145-.016-.182-.02a67.357 67.357 0 0 0-3.037-.21c-2.561-.134-6.198-.257-10.693-.366-8.759-.21-20.384-.353-32.103-.394-12.28-.042-23.73.028-32.22.211-4.577.099-8.239.229-10.833.388-1.339.082-2.383.171-3.11.266-.353.046-.731.137-.498-.097.166-.168.099.029.042.295-.107.506-.219 1.23-.33 2.149-.224 1.831-.441 4.386-.64 7.486-.4 6.237-.698 14.297-.819 22.244-.13 8.614-.046 16.52.267 22.477.321 6.113.965 10.25 1.39 10.613 1.337 1.144 22.419 2.138 46.736 2.138 11.73 0 23.006-.218 31.506-.623 4.468-.212 8.098-.472 10.712-.773 1.335-.153 2.392-.315 3.146-.482.551-.121.893-.249.819-.173z"/><path stroke="#000" stroke-linecap="round" stroke-width="4" d="M73.306 133.44c4.818 3.097 8.513 4.646 11.085 4.646 2.572 0 6.267-1.549 11.085-4.647M71.466 116.39v4.5M96.976 116.39v4.5"/><path fill="#FFF" stroke="#1D877A" stroke-linecap="square" stroke-width="3" d="M15.14 53.059c-1.456.626-1.456 22.819 0 66.578 14.284 24.988 21.75 37.007 22.401 36.058.976-1.424 0-12.137 0-30.174 0-12.025.314-23.542.943-34.549C24.378 65.07 16.597 52.432 15.141 53.06z"/><path stroke="#1D877A" stroke-linecap="square" stroke-width="3" d="M26.455 69.936h90.527"/><path stroke="#000" stroke-linecap="round" stroke-width="5" d="M25.32 110.295c-5.508-2.048-9.49-4.725-11.943-8.03-2.454-3.304-5.987-7.847-10.6-13.628"/></g><g><path stroke="#979797" stroke-linecap="square" stroke-width="3" d="M179.174 93.772l-9-20"/><path fill="#FFF" stroke="#1D877A" stroke-linecap="square" stroke-width="3" d="M250.49 27.241c.823-.878-7.917-22.918-11.803-24.293-3.885-1.374-68.123-1.374-69.609 0-.72.666 2.889 7.103 5.712 12.024 3.003 5.235 4.551 10.83 5.21 10.83 1.277 0 69.668 2.318 70.49 1.44z"/><path stroke="#000" stroke-linecap="round" stroke-width="5" d="M252.67 118.522c5.062 1.837 8.16 4.643 9.295 8.42 1.134 3.776 1.134 9.368 0 16.777M206.83 151.752c-3.575 2.251-5.873 4.371-6.894 6.36-1.022 1.988-1.351 5.306-.987 9.954l-7.646 2.823M221.576 151.752c3.575 2.251 5.873 4.371 6.895 6.36 1.021 1.988 1.35 5.306.987 9.954l7.646 2.823"/><path fill="#FFF" stroke="#1D877A" stroke-width="3" d="M179.532 26.902c-.606 2.486-1.368 32.805-1.557 64.183-.219 36.306.352 63.638 1.553 66.224.376.811 4.642 2.018 11.244 2.801 6.609.785 15.35 1.21 24.413 1.21s17.773-.425 24.323-1.21c6.482-.776 10.655-1.98 10.942-2.715 1.02-2.608 1.445-29.718 1.216-66.786-.19-30.755-.84-62.624-1.214-63.806.19.494.113.459.053.443-.5-.127-1.256-.259-2.238-.388-1.96-.257-4.759-.496-8.225-.706-6.776-.41-15.779-.687-24.854-.767-9.508-.084-18.371.054-24.935.41-3.519.19-6.33.441-8.303.746-.988.152-1.75.316-2.252.481-.16.053-.229.084-.196-.047zm-.03.073c.01-.041.03-.098.06-.176a.821.821 0 0 0-.03.103z"/><path stroke="#000" stroke-linecap="round" stroke-width="4" d="M205.67 100.82c4.818 3.098 8.513 4.647 11.085 4.647 2.572 0 6.267-1.549 11.085-4.647M203.83 83.772v4.5M229.34 83.772v4.5"/><path fill="#FFF" stroke="#1D877A" stroke-linecap="square" stroke-width="3" d="M168.709 3c-1.456.627-1.456 47.07 0 139.328 6.395 11.86 9.918 17.316 10.568 16.367.976-1.424 0-12.137 0-30.174 0-12.025.315-46.875.944-104.549-6.218-14.607-10.056-21.598-11.512-20.971z"/><path stroke="#1D877A" stroke-linecap="square" stroke-width="3" d="M177.898 13.272H245"/><path stroke="#000" stroke-linecap="round" stroke-width="5" d="M172.11 115.91c-5.508 2.047-9.49 4.724-11.943 8.029-2.454 3.304-3.981 8.54-4.582 15.705"/></g></g></svg>
