<svg xmlns="http://www.w3.org/2000/svg" xmlns:xlink="http://www.w3.org/1999/xlink" viewBox="0 0 800 358"><defs><path id="a" d="M53 105h525.46v143H53V105z"/><mask id="b" width="525.461" height="143" x="0" y="0" fill="#fff"><use xlink:href="#a"/></mask></defs><g fill="none" fill-rule="evenodd" transform="translate(0 -1)"><use fill="#FFF" stroke="#1D877A" stroke-dasharray="12" stroke-width="12" mask="url(#b)" xlink:href="#a"/><path fill="#000" fill-rule="nonzero" d="M105.31 64.167c-.947-7.256-.263-14.537-.275-21.838-.01-5.712-4.208-8.523-9.557-9.07-1.821-.187-23.66-.27-25.507-.294a1.714 1.714 0 0 0-.21-.27c-1.491-1.58-2.381-3.42-3.655-5.158-1.433-1.949-2.968-3.778-4.258-5.833-1.266-2.02-2.641-3.973-3.953-5.963-.91-1.38-2.145-2.462-3.162-3.734 1.601-.715 2.796-2.14 2.762-4.192-.048-2.793-2.782-6.714-5.94-6.083-1.713.34-2.581 1.898-3.095 3.424-.17.504-.143 1.141-.255 1.679-.22.268-.385.577-.455.92-.178.9-.481 1.841.083 2.697.534.811 1.219 1.29 2.114 1.652.132.055.271.096.409.14-2.941 2.475-5.206 6.787-7.589 9.155-2.5 2.483-4.782 5.186-7.069 7.863-1.028 1.201-2.002 2.246-2.796 3.463-.397.095-.76.252-1.064.486a8.93 8.93 0 0 0-.509.037c-2.025.208-23.249-.901-25.317-.247-2.723.865-3.91 3.965-4.514 6.466C.559 43.344.83 47.644.754 51.592c-.052 2.7.148 5.36.642 8.012.367 1.952.408 20.535 1.59 22.184 1.752 2.44 26.646 2.132 29.238 2.135 6.008.007 11.998-.485 18.034-.479 5.409.006 10.74-.76 16.141-.683 2.955.043 25.931.36 28.877.108 2.561-.22 4.68-.733 7.259-.41.473.058.845-.118 1.11-.408.93.05 1.819-16.703 1.665-17.884zm-54.864-53.96c.068-.505-.11-1.838.326-2.21.32-.277.661-.504.998-.764.757-.581.334-1.743-.656-1.554-.144.027-.284.038-.424.05.149-.395.712-2.288 1.038-2.482 1.881-1.121 2.164 1.913 2.46 2.482 1.176 2.267.116 4.915-3.132 5.286-.43.05 1.925-.087 1.533-.261-.611-.27-2.202-.11-2.143-.546zM39.46 27.255c1.5-2.126 4.579-5.185 6.177-6.591 1.774-1.561 2.63-2.444 3.96-4.28.853-1.174 1.635-1.314 3.184-2.613.616 1.061 2.117 1.533 2.855 2.613 1.54 2.255 3.63 4.582 5.043 6.922 1.254 2.071 2.035 3.364 3.476 5.31.95 1.282 2.688 3.417 3.526 4.675-4.793.131-10.186 1.139-14.9 1.235-3.792.08-13.216-1.235-16.19-1.235-2.975 0 1.433-4 2.87-6.036zm57.96 51.952c-.621-.027-7.112.223-6.543.488-12.388.936-22.486.22-26.515.427-6.626.34-13.067.506-19.74.51-6.972.004-13.944.506-20.872.51-4.745.003-15.201.586-16.27-3.163-.49-1.718-3.159-5.382-1.844-10.112.629-2.263-.678-7.567-1.407-10.9-.78-3.565-.048-7.57 0-8.997.097-3.036 1.235-5.027 2.136-8.02.317-.183.583-.345.629-.402 1.111-1.378-.01-2.845 4.59-3.263 4.599-.418 3.332-.376 4.708-.368 1.63.013 3.024.375 4.592 0 7.929-.14 15.883.52 23.796.697 11.246.246 22.563-.24 33.809-.375 4.717-.056 9.398-.175 14.028.464.229.031.442.069.66.105-.077.203 2.291.28 5.668 1.572 3.376 1.292 1.939 1.486 2.173 1.57.346.595 0 7.753 0 10.47 0 1.533 1.822 8.227 1.743 15.557-.06 5.667-1.863 12.267-2.728 13.679-.306-.176-2.718-.51-2.612-.45z"/><path fill="#FFF" d="M97.42 79.206c-.621-.027-7.112.223-6.543.488-12.388.936-22.486.22-26.515.427-6.626.34-13.067.506-19.74.51-6.972.004-13.944.506-20.872.51-4.745.003-15.201.586-16.27-3.163-.49-1.718-3.159-5.382-1.844-10.112.629-2.263-.678-7.567-1.407-10.9-.78-3.565-.048-7.57 0-8.997.097-3.036 1.235-5.027 2.136-8.02.317-.183.583-.345.629-.402 1.111-1.378-.01-2.845 4.59-3.263 4.599-.418 3.332-.376 4.708-.368 1.63.013 3.024.375 4.592 0 7.929-.14 15.883.52 23.796.697 11.246.246 22.563-.24 33.809-.375 4.717-.056 9.398-.175 14.028.464.229.031.442.069.66.105-.077.203 2.291.28 5.668 1.572 3.376 1.292 1.939 1.486 2.173 1.57.346.595 0 7.753 0 10.47 0 1.533 1.822 8.227 1.743 15.557-.06 5.667-1.863 12.267-2.728 13.679-.306-.176-2.718-.51-2.612-.45z"/><path fill="#000" d="M10.26 54.791c-.2.244-.421.398-.665.465a1.002 1.002 0 0 1-.664-.025.906.906 0 0 1-.465-.465c-.11-.227-.127-.517-.05-.871L8.334 42.97a.848.848 0 0 1 .374-.39c.172-.095.349-.142.531-.142.183 0 .346.047.49.142.144.094.221.24.232.44v4.432c.21-.299.39-.542.54-.73.15-.188.307-.346.473-.473.166-.128.357-.227.573-.3a7.24 7.24 0 0 1 .805-.207c.609-.077 1.104.028 1.486.316.382.287.678.683.888 1.187.21.503.354 1.073.432 1.71.077.636.127 1.264.15 1.884.021.62.03 1.195.024 1.726-.005.532.014.936.058 1.212.089.343.078.637-.033.88-.11.244-.263.404-.457.482-.193.077-.404.058-.63-.058-.227-.117-.407-.368-.54-.756a9.706 9.706 0 0 1-.125-1.295c-.016-.476-.024-.96-.024-1.452 0-.493-.009-.972-.025-1.436a8.76 8.76 0 0 0-.125-1.246c-.066-.365-.169-.66-.307-.888a.692.692 0 0 0-.59-.357c-.409.1-.752.288-1.029.565-.276.276-.5.614-.672 1.012a6.154 6.154 0 0 0-.39 1.312c-.089.476-.15.963-.183 1.461-.033.498-.047.988-.041 1.47.005.48.02.92.041 1.319zm7.52-.066a2.733 2.733 0 0 1-1.154-1.021 3.85 3.85 0 0 1-.531-1.445 5.453 5.453 0 0 1 0-1.643c.083-.57.224-1.124.423-1.66.2-.537.443-1.027.73-1.47a4.78 4.78 0 0 1 .93-1.079c.609-.465 1.173-.741 1.694-.83.52-.088.985-.039 1.394.15.41.188.767.487 1.07.896.305.41.543.877.715 1.403.171.526.274 1.09.307 1.693a6.963 6.963 0 0 1-.125 1.768 5.71 5.71 0 0 1-.58 1.61c-.272.499-.632.908-1.08 1.23-.448.32-.985.525-1.61.613-.625.089-1.353.017-2.183-.215zm1.278-1.378c.465.044.883-.058 1.254-.307.37-.25.677-.576.92-.98.244-.404.421-.86.532-1.37.11-.509.133-.998.067-1.469a3.172 3.172 0 0 0-.465-1.278 1.942 1.942 0 0 0-1.046-.805c-.277-.056-.567.033-.872.265a3.557 3.557 0 0 0-.83.938 5.86 5.86 0 0 0-.614 1.328c-.16.493-.24.98-.24 1.461 0 .482.099.922.298 1.32.2.399.531.697.996.897zm7.106 1.046a.884.884 0 0 1-.407.423 1.253 1.253 0 0 1-.606.158c-.21 0-.407-.061-.59-.183-.182-.122-.307-.326-.373-.614-.022-.11-.025-.34-.008-.69.016-.348.02-.84.008-1.477a59.664 59.664 0 0 0-.1-2.374 59.325 59.325 0 0 0-.315-3.395c.232-.21.456-.288.672-.232.216.055.413.177.59.365s.32.418.431.689c.111.271.172.523.183.755.055-.21.174-.429.357-.655.182-.227.407-.435.672-.623.266-.188.562-.349.888-.481a3.573 3.573 0 0 1 1.013-.25c.349-.033.697 0 1.046.1.349.1.672.288.971.565a.65.65 0 0 1-.05.315 1.299 1.299 0 0 1-.448.573c-.1.072-.2.119-.299.14-.642-.132-1.187-.124-1.635.026-.448.15-.816.396-1.104.739a3.41 3.41 0 0 0-.647 1.253 8.658 8.658 0 0 0-.3 1.569 13.183 13.183 0 0 0-.057 1.693c.016.576.052 1.113.108 1.61zm7.005-.83c.078.21.103.415.075.614a1.3 1.3 0 0 1-.19.531 1.12 1.12 0 0 1-.374.365.773.773 0 0 1-.457.116.722.722 0 0 1-.44-.207c-.138-.127-.246-.335-.324-.623-.022-.077-.041-.268-.058-.572-.016-.305-.03-.662-.041-1.071l-.033-1.32c-.011-.47-.022-.91-.034-1.32-.01-.41-.022-.766-.033-1.07-.01-.305-.027-.501-.05-.59-.077-.542-.083-.982-.016-1.32.066-.337.169-.592.307-.763.138-.172.296-.266.473-.283a.69.69 0 0 1 .49.141c.15.111.268.28.357.507.088.227.116.495.083.805l.265 6.06zm-1.195-8.833c-.243-.188-.39-.395-.44-.622a.927.927 0 0 1 .05-.606.747.747 0 0 1 .398-.382c.183-.077.38-.066.59.033.243.133.393.321.448.565.055.243.044.467-.033.672a.803.803 0 0 1-.39.448c-.183.094-.39.058-.623-.108zm2.939 10.144a.912.912 0 0 1-.332-.232 2.053 2.053 0 0 1-.316-.407 1.235 1.235 0 0 1-.166-.457.425.425 0 0 1 .116-.382c.93-.83 1.672-1.557 2.225-2.183.553-.625.974-1.162 1.262-1.61.287-.448.476-.825.564-1.129.089-.304.138-.556.15-.755.01-.133-.13-.227-.424-.282a6.23 6.23 0 0 0-1.054-.092c-.41-.005-.83.003-1.262.025-.431.022-.78.044-1.046.067-.431-.31-.63-.606-.597-.889.033-.282.299-.523.797-.722 1.383-.122 2.487-.135 3.312-.041.824.094 1.419.285 1.784.572.366.288.534.662.507 1.121-.028.46-.2.988-.515 1.585-.315.598-.744 1.254-1.287 1.968a64.606 64.606 0 0 1-1.81 2.266l3.52-.266c.233.078.39.205.473.382a.836.836 0 0 1 .059.556c-.045.194-.15.368-.316.523a1.216 1.216 0 0 1-.647.299l-4.997.083zm8.168-.15a2.733 2.733 0 0 1-1.154-1.02 3.85 3.85 0 0 1-.531-1.445 5.453 5.453 0 0 1 0-1.643c.083-.57.224-1.124.423-1.66.2-.537.443-1.027.73-1.47a4.78 4.78 0 0 1 .93-1.079c.609-.465 1.173-.741 1.693-.83.52-.088.985-.039 1.395.15.41.188.766.487 1.07.896.305.41.543.877.715 1.403.171.526.273 1.09.307 1.693a6.963 6.963 0 0 1-.125 1.768 5.71 5.71 0 0 1-.58 1.61c-.272.499-.632.908-1.08 1.23-.448.32-.985.525-1.61.613-.626.089-1.353.017-2.183-.215zm1.278-1.377c.465.044.883-.058 1.253-.307.371-.25.678-.576.922-.98.243-.404.42-.86.53-1.37.112-.509.134-.998.067-1.469a3.172 3.172 0 0 0-.464-1.278 1.942 1.942 0 0 0-1.046-.805c-.277-.056-.568.033-.872.265a3.557 3.557 0 0 0-.83.938 5.86 5.86 0 0 0-.614 1.328c-.16.493-.241.98-.241 1.461 0 .482.1.922.299 1.32.199.399.531.697.996.897zm6.807.846c0 .343-.092.573-.274.69a.81.81 0 0 1-.598.116 1.258 1.258 0 0 1-.598-.291.818.818 0 0 1-.307-.548c.022-1.129.025-2.332.008-3.61a153.02 153.02 0 0 0-.107-4.027c.088-.298.24-.487.456-.564a.677.677 0 0 1 .623.075c.199.127.351.354.456.68.105.327.092.745-.041 1.254.708-1.04 1.372-1.721 1.992-2.042.62-.321 1.19-.388 1.71-.2.52.189.977.573 1.37 1.154.392.581.716 1.254.97 2.017.255.764.43 1.564.524 2.4.094.835.096 1.601.008 2.299.011.287-.075.503-.257.647a1.085 1.085 0 0 1-.598.24.89.89 0 0 1-.59-.157c-.177-.122-.254-.31-.232-.564.078-1.395.047-2.524-.091-3.387-.139-.863-.338-1.508-.598-1.934-.26-.426-.561-.661-.905-.706-.343-.044-.689.047-1.037.274-.349.227-.68.567-.996 1.021-.316.454-.57.963-.764 1.528a7.029 7.029 0 0 0-.357 1.8 4.645 4.645 0 0 0 .233 1.835zm10.226-5.428c-.055.022-.077.15-.066.381.01.233.036.526.074.88.04.355.086.753.142 1.196.055.442.094.88.116 1.311.022.432.02.839-.009 1.22-.027.382-.096.695-.207.938-.11.244-.274.396-.49.457-.216.06-.506-.008-.871-.208l-.399-6.175a3.481 3.481 0 0 0-.598-.067c-.154 0-.301.009-.44.025-.138.017-.29.033-.456.05a3.688 3.688 0 0 1-.647-.008.814.814 0 0 1-.382-.465c-.056-.188-.009-.374.14-.556.15-.183.416-.338.798-.465.382-.127.91-.191 1.585-.191.078-.044.1-.213.067-.506a42.13 42.13 0 0 0-.133-1.038 16.927 16.927 0 0 1-.125-1.245c-.027-.432.003-.803.092-1.112.088-.31.257-.52.506-.631.249-.111.622-.05 1.12.182.012.62.023 1.14.034 1.56.01.421.022.773.033 1.055.01.282.022.506.033.672a15.316 15.316 0 0 0 .066.74c.012.093.023.207.034.34.232.01.445.008.639-.009.194-.016.382-.033.564-.05.183-.016.371-.03.565-.041.193-.011.406-.011.639 0 .243.055.42.155.531.299.11.144.163.299.158.465a.761.761 0 0 1-.2.473c-.127.15-.295.263-.506.34l-2.407.183zm11.92 5.279c0 .32-.066.537-.2.647a.704.704 0 0 1-.464.166c-.177 0-.346-.036-.506-.107-.16-.072-.263-.142-.308-.208l-.88-1.893c-.143.266-.31.523-.497.772-.189.25-.399.47-.631.664a3.758 3.758 0 0 1-.756.49 2.593 2.593 0 0 1-.871.25c-.742.021-1.359-.092-1.851-.341a3.125 3.125 0 0 1-1.18-1.005 3.555 3.555 0 0 1-.58-1.452 5.96 5.96 0 0 1-.042-1.694 7.272 7.272 0 0 1 .415-1.718c.21-.564.476-1.07.797-1.519a4.549 4.549 0 0 1 1.12-1.112 2.706 2.706 0 0 1 1.37-.49c.488-.033 1 .08 1.536.34.537.26 1.088.723 1.652 1.387l1.876 6.823zm-6.508-1.096c.51.177.955.219 1.337.125.381-.094.705-.274.97-.54a2.58 2.58 0 0 0 .607-.996 5.112 5.112 0 0 0 .2-2.515 3.547 3.547 0 0 0-.366-1.096 1.766 1.766 0 0 0-.656-.705c-.266-.155-.576-.188-.93-.1-.287.067-.545.235-.772.506a3.728 3.728 0 0 0-.572.963c-.155.371-.272.772-.35 1.204a6.627 6.627 0 0 0-.107 1.262c.006.41.06.783.166 1.12.105.338.263.595.473.772zm9.23 1.212c.078.277.067.49-.033.64-.1.149-.243.24-.431.273a1.304 1.304 0 0 1-.623-.058 1.434 1.434 0 0 1-.59-.357l-.564-11.256c-.077-.199-.08-.373-.008-.523a.803.803 0 0 1 .316-.348c.138-.083.293-.136.464-.158a.861.861 0 0 1 .465.058c.139.061.244.16.316.299.072.138.074.324.008.556l.68 10.874zm1.312-3.619c-.332-.232-.495-.473-.49-.722.006-.25.202-.435.59-.556l5.777-.034c.155.056.26.155.316.3a.656.656 0 0 1 .008.448c-.05.155-.147.298-.29.431-.145.133-.338.21-.582.233l-5.329-.1zm9.945-1.776c-.056.022-.078.15-.067.381.011.233.036.526.075.88.039.355.086.753.14 1.196.056.442.095.88.117 1.311.022.432.02.839-.008 1.22-.028.382-.097.695-.208.938-.11.244-.274.396-.49.457-.215.06-.506-.008-.871-.208l-.398-6.175a3.481 3.481 0 0 0-.598-.067c-.155 0-.302.009-.44.025-.138.017-.29.033-.457.05a3.688 3.688 0 0 1-.647-.008.814.814 0 0 1-.382-.465c-.055-.188-.008-.374.141-.556.15-.183.415-.338.797-.465.382-.127.91-.191 1.586-.191.077-.044.1-.213.066-.506a42.13 42.13 0 0 0-.133-1.038 16.927 16.927 0 0 1-.124-1.245c-.028-.432.002-.803.091-1.112.088-.31.257-.52.506-.631.25-.111.623-.05 1.12.182.012.62.023 1.14.034 1.56.011.421.022.773.033 1.055.011.282.022.506.034.672a15.316 15.316 0 0 0 .066.74c.011.093.022.207.033.34.233.01.446.008.64-.009.193-.016.381-.033.564-.05.182-.016.37-.03.564-.041.194-.011.407-.011.64 0 .243.055.42.155.53.299.111.144.164.299.158.465a.761.761 0 0 1-.199.473c-.127.15-.296.263-.506.34l-2.407.183zm8.964 5.312c-.653.42-1.297.697-1.934.83-.636.133-1.209.147-1.718.042-.51-.105-.924-.313-1.245-.623-.321-.31-.493-.703-.515-1.179l-.58-8.964c-.023-.377.032-.72.165-1.03.133-.31.299-.528.498-.655a.586.586 0 0 1 .615-.034c.21.105.376.38.498.822a9.52 9.52 0 0 1-.067.872c-.033.26-.058.517-.075.772-.016.254-.013.517.009.788s.083.573.182.905c.864-.642 1.66-.974 2.391-.996.73-.022 1.361.16 1.893.548.53.387.951.924 1.261 1.61a5.54 5.54 0 0 1 .49 2.183 5.71 5.71 0 0 1-.415 2.258c-.293.736-.777 1.353-1.453 1.851zm-4.034-5.18c-.055.111-.105.302-.15.573a5.699 5.699 0 0 0-.066.913c0 .338.025.686.075 1.046.05.36.136.69.257.988.122.299.283.548.482.747.2.2.454.304.764.315.807-.177 1.447-.453 1.917-.83.47-.376.805-.796 1.004-1.261.2-.465.285-.944.258-1.436a3.676 3.676 0 0 0-.332-1.362 3.002 3.002 0 0 0-.78-1.037c-.327-.277-.681-.43-1.063-.457-.382-.027-.78.094-1.195.365-.415.272-.806.75-1.17 1.436zM41.852 73.027a.884.884 0 0 1-.407.424 1.253 1.253 0 0 1-.606.157c-.21 0-.406-.06-.589-.182-.183-.122-.307-.327-.374-.614-.022-.111-.024-.34-.008-.69.017-.348.02-.84.008-1.477a59.664 59.664 0 0 0-.1-2.374 59.325 59.325 0 0 0-.315-3.395c.233-.21.457-.288.673-.232.216.055.412.177.59.365.176.188.32.418.43.689.111.27.172.523.183.755.056-.21.175-.429.357-.656.183-.227.407-.434.673-.622.265-.188.561-.349.888-.482a3.573 3.573 0 0 1 1.013-.249c.348-.033.697 0 1.045.1.35.1.673.288.972.564a.65.65 0 0 1-.05.316c-.044.11-.105.216-.183.315-.077.1-.166.186-.265.258-.1.072-.2.119-.3.14-.641-.132-1.186-.124-1.634.026-.449.149-.817.395-1.104.738a3.41 3.41 0 0 0-.648 1.254 8.658 8.658 0 0 0-.299 1.569 13.183 13.183 0 0 0-.058 1.693c.017.576.053 1.112.108 1.61zm6.043.332a2.733 2.733 0 0 1-1.154-1.02 3.85 3.85 0 0 1-.531-1.445 5.453 5.453 0 0 1 0-1.644c.083-.57.224-1.123.423-1.66.2-.536.443-1.026.73-1.469a4.78 4.78 0 0 1 .93-1.079c.61-.465 1.174-.742 1.694-.83.52-.089.985-.039 1.394.15.41.187.767.486 1.071.896.305.41.542.877.714 1.403.172.525.274 1.09.307 1.693a6.963 6.963 0 0 1-.124 1.768 5.71 5.71 0 0 1-.581 1.61c-.272.498-.631.908-1.08 1.229-.448.32-.985.526-1.61.614-.625.089-1.353.017-2.183-.216zm1.278-1.378c.465.045.883-.058 1.254-.307.37-.249.678-.575.921-.98.244-.403.42-.86.531-1.369.111-.509.133-.999.067-1.469a3.172 3.172 0 0 0-.465-1.278 1.942 1.942 0 0 0-1.046-.806c-.277-.055-.567.034-.872.266a3.557 3.557 0 0 0-.83.938 5.86 5.86 0 0 0-.614 1.328c-.16.493-.24.98-.24 1.461 0 .482.099.922.298 1.32.2.398.531.697.996.896zm8.035 1.378a6.123 6.123 0 0 1-1.552-1.693 8.578 8.578 0 0 1-.888-2.009 13.578 13.578 0 0 1-.456-2.208c-.095-.763-.18-1.522-.258-2.274.044-.244.139-.451.282-.623.144-.171.31-.288.498-.348a.875.875 0 0 1 .582.016c.199.072.37.23.514.473-.055.631-.05 1.279.017 1.943.066.664.174 1.292.324 1.884.149.592.326 1.129.53 1.61.206.482.421.853.648 1.113.227.26.451.39.673.39.22 0 .426-.188.614-.565.188-.376.348-.96.481-1.751.133-.791.216-1.84.25-3.146 0-.144.063-.268.19-.374.128-.105.28-.185.457-.24.177-.056.351-.092.523-.108.171-.017.307-.009.406.025.144.243.26.561.35.954.088.393.168.814.24 1.262l.216 1.361c.072.46.174.877.307 1.254.133.376.301.689.506.938.205.249.468.39.789.423.287.022.514-.064.68-.257.166-.194.29-.46.374-.797.083-.338.127-.728.133-1.17.005-.443-.006-.897-.034-1.362a27.732 27.732 0 0 0-.116-1.378l-.133-1.22c-.038-.36-.063-.653-.074-.88-.011-.227.01-.351.066-.373.332-.155.625-.161.88-.017.255.144.473.393.656.747.182.354.324.789.423 1.303.1.515.155 1.06.166 1.635.011.576-.02 1.16-.091 1.752a8.299 8.299 0 0 1-.365 1.652c-.172.509-.39.952-.656 1.328-.266.376-.587.642-.963.797-.564.088-1.04.091-1.428.008a2.359 2.359 0 0 1-.996-.456 3.265 3.265 0 0 1-.739-.864c-.215-.354-.44-.758-.672-1.212-.144.388-.307.78-.49 1.18a3.604 3.604 0 0 1-.664 1.003c-.26.272-.567.449-.921.532-.354.083-.78-.003-1.279-.258z"/><path fill="#7BAAF0" d="M753.852 159v-28.617l46.117 46.117-46.117 46.117V194h-695v-35h695z"/><path fill="#7BAAF0" d="M333.23 312.059h28.618l-46.118 46.117-46.117-46.117h28.617v-201h35v201z"/><path fill="#FFF" stroke="#1D877A" stroke-linecap="square" stroke-width="3" d="M369.229 156.719c.823-.88-8.562-19.796-10.14-20.975-1.576-1.178-91.65-1.374-93.136 0-.72.666 2.684 5.223 5.506 10.144 3.004 5.235 4.552 10.83 5.21 10.83 1.278 0 91.737.88 92.56 0z"/><path stroke="#000" stroke-linecap="round" stroke-width="5" d="M370.34 183.438c5.062 1.837 8.16 4.643 9.295 8.42 1.134 3.775 1.134 9.368 0 16.777M311.5 214.668c-3.575 2.251-5.873 4.371-6.895 6.36-1.021 1.988-1.35 5.306-.986 9.954l-7.646 2.823M326.246 214.668c3.575 2.251 5.873 4.371 6.895 6.36 1.021 1.988 1.35 5.306.986 9.954l7.646 2.823"/><path fill="#FFF" stroke="#1D877A" stroke-width="3" d="M369.118 157.055c-.074-.005-.145-.016-.182-.02a67.407 67.407 0 0 0-3.038-.21c-2.563-.134-6.2-.258-10.698-.366-8.762-.21-20.392-.353-32.115-.394-12.285-.042-23.74.028-32.234.211-4.578.099-8.241.229-10.836.388-1.34.082-2.384.171-3.111.266-.354.046-.732.137-.5-.097.167-.168.1.028.043.295-.107.506-.219 1.23-.33 2.149-.223 1.831-.441 4.386-.64 7.486-.4 6.237-.698 14.297-.819 22.244-.13 8.614-.046 16.52.267 22.477.321 6.113.965 10.25 1.39 10.613 1.337 1.144 22.427 2.138 46.755 2.138 11.734 0 23.015-.218 31.519-.623 4.47-.212 8.1-.472 10.716-.773 1.335-.153 2.392-.315 3.147-.482.552-.122.893-.249.819-.173.356-.361.886-4.586 1.13-10.772.236-5.97.276-13.896.14-22.648-.122-7.871-.382-15.969-.707-22.295-.159-3.076-.327-5.617-.492-7.424a38.38 38.38 0 0 0-.224-1.99z"/><path stroke="#000" stroke-linecap="round" stroke-width="4" d="M311.34 200.236c4.818 3.098 8.513 4.647 11.085 4.647 2.571 0 6.266-1.549 11.085-4.647M309.5 183.188v4.5M335.01 183.188v4.5"/><path fill="#FFF" stroke="#1D877A" stroke-linecap="square" stroke-width="3" d="M265.379 135.917c-1.456.626-1.456 23.735 0 69.327 6.395 11.86 9.918 17.316 10.568 16.367.976-1.424 0-12.137 0-30.174 0-12.025.315-23.542.944-34.549-6.218-14.607-10.056-21.598-11.512-20.971z"/><path stroke="#1D877A" stroke-linecap="square" stroke-width="3" d="M272.344 145.175h90.089"/><path stroke="#000" stroke-linecap="round" stroke-width="5" d="M268.78 178.825c-5.508 2.048-9.49 4.725-11.943 8.03-2.454 3.304-3.981 8.54-4.582 15.705"/><g><path fill="#FFF" stroke="#1D877A" stroke-linecap="square" stroke-width="3" d="M235.729 155.219c.823-.88-6.161-19.6-10.14-20.975-3.978-1.374-141.65-1.374-143.136 0-.72.666 2.684 5.223 5.506 10.144 3.004 5.235 4.552 10.83 5.21 10.83 1.278 0 141.737.88 142.56 0z"/><path stroke="#000" stroke-linecap="round" stroke-width="5" d="M238.619 189.192c5.062-1.837 8.16-4.643 9.295-8.42 1.134-3.776 1.134-9.368 0-16.777M155 216.168c-3.575 2.251-5.873 4.371-6.895 6.36-1.021 1.988-1.35 5.306-.986 9.954l-7.646 2.823M169.746 216.168c3.575 2.251 5.873 4.371 6.895 6.36 1.021 1.988 1.35 5.306.986 9.954l7.646 2.823"/><path fill="#FFF" stroke="#1D877A" stroke-width="3" d="M235.773 220.681c.356-.38.885-4.598 1.128-10.769.236-5.97.276-13.896.14-22.648-.122-7.871-.382-15.969-.707-22.295-.159-3.076-.327-5.617-.492-7.424a38.57 38.57 0 0 0-.222-1.981c-.24.026-.605-.019-.696-.025a150.856 150.856 0 0 0-4.648-.213c-3.905-.134-9.473-.258-16.376-.366-13.424-.211-31.297-.354-49.313-.395-18.875-.042-36.455.028-49.435.211-7.006.1-12.59.23-16.52.39-2.043.082-3.629.173-4.728.27-.521.047-1.276.176-1-.103.167-.168.1.028.043.295-.107.506-.219 1.23-.33 2.149-.223 1.831-.441 4.386-.64 7.486-.4 6.237-.698 14.297-.819 22.244-.13 8.614-.046 16.52.267 22.477.321 6.113.965 10.25 1.39 10.613.487.417 9.63 1.105 22.908 1.514 13.145.405 30.66.624 48.847.624s35.661-.219 48.731-.624c6.893-.213 12.454-.475 16.412-.777 2.042-.156 3.644-.322 4.774-.495.812-.124 1.407-.286 1.286-.158z"/><path stroke="#000" stroke-linecap="round" stroke-width="4" d="M152.84 199.133c4.818 3.097 8.513 4.646 11.085 4.646 2.571 0 6.266-1.549 11.085-4.646M151 182.084v4.5M176.51 182.084v4.5"/><path fill="#FFF" stroke="#1D877A" stroke-linecap="square" stroke-width="3" d="M81.879 134.417c-1.456.626-1.456 23.735 0 69.327 6.395 11.86 9.918 17.316 10.568 16.367.976-1.424 0-12.137 0-30.174 0-12.025.315-23.542.944-34.549-6.218-14.607-10.056-21.598-11.512-20.971z"/><path stroke="#1D877A" stroke-linecap="square" stroke-width="3" d="M88.844 143.675h141.14"/><path stroke="#000" stroke-linecap="round" stroke-width="5" d="M85.089 186.084c-5.509-2.048-9.49-4.725-11.944-8.03-2.454-3.304-3.98-8.539-4.582-15.704"/></g><g><path fill="#FFF" stroke="#1D877A" stroke-linecap="square" stroke-width="3" d="M546.229 156.719c.823-.88-6.161-19.6-10.14-20.975-3.978-1.374-141.65-1.374-143.136 0-.72.666 2.684 5.223 5.506 10.144 3.004 5.235 4.552 10.83 5.21 10.83 1.278 0 141.737.88 142.56 0z"/><path stroke="#000" stroke-linecap="round" stroke-width="5" d="M549.119 190.692c5.062-1.837 8.16-4.643 9.295-8.42 1.134-3.776 1.134-9.368 0-16.777M465.5 217.668c-3.575 2.251-5.873 4.371-6.895 6.36-1.021 1.988-1.35 5.306-.986 9.954l-7.646 2.823M480.246 217.668c3.575 2.251 5.873 4.371 6.895 6.36 1.021 1.988 1.35 5.306.986 9.954l7.646 2.823"/><path fill="#FFF" stroke="#1D877A" stroke-width="3" d="M546.273 222.181c.356-.38.885-4.598 1.128-10.769.236-5.97.276-13.896.14-22.648-.122-7.871-.382-15.969-.707-22.295-.159-3.076-.327-5.617-.492-7.424a38.57 38.57 0 0 0-.222-1.981c-.24.026-.605-.019-.696-.025a150.856 150.856 0 0 0-4.648-.213c-3.905-.134-9.473-.258-16.376-.366-13.424-.211-31.297-.354-49.313-.395-18.875-.042-36.455.028-49.435.211-7.006.1-12.59.23-16.52.39-2.043.082-3.629.173-4.728.27-.521.047-1.276.176-1-.103.167-.168.1.028.043.295-.107.506-.219 1.23-.33 2.149-.223 1.831-.441 4.386-.64 7.486-.4 6.237-.698 14.297-.819 22.244-.13 8.614-.046 16.52.267 22.477.321 6.113.965 10.25 1.39 10.613.487.417 9.63 1.105 22.908 1.514 13.145.405 30.66.624 48.847.624s35.661-.219 48.731-.624c6.893-.213 12.454-.475 16.412-.777 2.042-.156 3.644-.322 4.774-.495.812-.124 1.407-.286 1.286-.158z"/><path stroke="#000" stroke-linecap="round" stroke-width="4" d="M463.34 200.633c4.818 3.097 8.513 4.646 11.085 4.646 2.571 0 6.266-1.549 11.085-4.646M461.5 183.584v4.5M487.01 183.584v4.5"/><path fill="#FFF" stroke="#1D877A" stroke-linecap="square" stroke-width="3" d="M392.379 135.917c-1.456.626-1.456 23.735 0 69.327 6.395 11.86 9.918 17.316 10.568 16.367.976-1.424 0-12.137 0-30.174 0-12.025.315-23.542.944-34.549-6.218-14.607-10.056-21.598-11.512-20.971z"/><path stroke="#1D877A" stroke-linecap="square" stroke-width="3" d="M399.344 145.175h141.14"/><path stroke="#000" stroke-linecap="round" stroke-width="5" d="M395.589 187.584c-5.509-2.048-9.49-4.725-11.944-8.03-2.454-3.304-3.98-8.539-4.582-15.704"/></g><path fill="#000" d="M618.831 150.164c.173.619.093 1.138-.241 1.559-.334.42-.749.71-1.243.872-.495.16-.99.18-1.485.055-.494-.123-.828-.433-1.002-.927l-.185-21.82a27.75 27.75 0 0 0-2.728 3.543 65.63 65.63 0 0 0-2.356 3.915 329.892 329.892 0 0 0-2.171 3.971 57.59 57.59 0 0 1-2.171 3.711c-.42.47-.866.755-1.336.853-.47.1-.928.075-1.373-.074a3.636 3.636 0 0 1-1.243-.723 3.78 3.78 0 0 1-.91-1.17l-4.156-10.575c-.024 2.523-.024 4.67 0 6.438.025 1.769.056 3.247.093 4.435.037 1.187.08 2.133.13 2.838a23.443 23.443 0 0 0 .316 2.635c.037.21.068.415.092.613.05.544-.117.946-.5 1.206-.384.26-.823.39-1.318.39-.495 0-.959-.118-1.392-.353-.433-.235-.674-.576-.723-1.02l-.965-25.903c0-.198.148-.377.445-.538.297-.161.631-.254 1.002-.279a2.41 2.41 0 0 1 1.095.186c.359.148.612.433.76.853 1.41 2.623 2.74 5.24 3.99 7.85 1.25 2.61 2.443 5.25 3.58 7.922a50.135 50.135 0 0 0 2.432-3.804 1293.13 1293.13 0 0 1 2.486-4.249c.829-1.41 1.657-2.752 2.486-4.026.829-1.274 1.652-2.32 2.468-3.136.816-.816 1.627-1.348 2.43-1.596.805-.247 1.603-.05 2.394.594l1.3 25.754zm21.3-.557c0 .718-.148 1.2-.444 1.448a1.574 1.574 0 0 1-1.04.37c-.395 0-.773-.08-1.131-.24-.36-.161-.588-.316-.687-.464l-1.967-4.23a13.63 13.63 0 0 1-1.113 1.725 8.932 8.932 0 0 1-1.41 1.484 8.4 8.4 0 0 1-1.689 1.095 5.797 5.797 0 0 1-1.948.557c-1.657.049-3.037-.205-4.138-.761-1.1-.557-1.979-1.305-2.634-2.245-.656-.94-1.089-2.023-1.3-3.247a13.323 13.323 0 0 1-.092-3.786c.149-1.298.458-2.579.928-3.84a14.48 14.48 0 0 1 1.781-3.396 10.167 10.167 0 0 1 2.505-2.486c.952-.656 1.973-1.02 3.061-1.095 1.089-.074 2.233.18 3.433.76 1.2.582 2.43 1.615 3.692 3.1l4.194 15.251zm-14.546-2.449c1.138.396 2.134.489 2.987.279a4.542 4.542 0 0 0 2.171-1.207c.594-.593 1.045-1.335 1.355-2.226.309-.89.5-1.818.575-2.783.074-.965.03-1.911-.13-2.84-.16-.927-.433-1.743-.816-2.448-.384-.705-.873-1.231-1.466-1.578-.594-.346-1.287-.42-2.078-.222-.644.148-1.219.526-1.726 1.132a8.333 8.333 0 0 0-1.28 2.152 12.84 12.84 0 0 0-.78 2.69 14.813 14.813 0 0 0-.24 2.82c.012.916.135 1.751.37 2.506.235.754.588 1.33 1.058 1.725zm21.004 1.373c.173.47.229.928.167 1.373a2.905 2.905 0 0 1-.427 1.188 2.505 2.505 0 0 1-.835.816 1.729 1.729 0 0 1-1.02.26c-.347-.025-.675-.18-.984-.464-.309-.284-.55-.748-.723-1.392-.05-.173-.093-.6-.13-1.28a88.632 88.632 0 0 1-.093-2.393c-.025-.916-.05-1.9-.074-2.95-.025-1.052-.05-2.035-.074-2.95-.025-.916-.05-1.714-.075-2.394-.024-.68-.062-1.12-.111-1.318-.173-1.212-.186-2.195-.037-2.95.148-.754.377-1.323.686-1.707.31-.383.662-.594 1.058-.63.396-.038.76.067 1.095.315.334.247.6.624.798 1.132.197.507.26 1.107.185 1.8l.594 13.544zm-2.672-19.742c-.544-.42-.872-.884-.983-1.392-.112-.507-.075-.958.11-1.354a1.67 1.67 0 0 1 .892-.854c.408-.173.847-.148 1.317.075.544.297.878.717 1.002 1.261.124.545.099 1.046-.074 1.503-.174.458-.464.792-.872 1.002-.409.21-.872.13-1.392-.24zm9.463 21.152c0 .767-.204 1.28-.612 1.54a1.81 1.81 0 0 1-1.336.26 2.813 2.813 0 0 1-1.336-.65c-.409-.346-.637-.754-.687-1.224.05-2.523.056-5.214.019-8.071a342.042 342.042 0 0 0-.241-9c.197-.667.538-1.088 1.02-1.26.482-.174.946-.118 1.392.166.445.285.785.792 1.02 1.522s.204 1.663-.093 2.801c1.584-2.325 3.068-3.847 4.453-4.564 1.386-.718 2.66-.866 3.823-.445 1.163.42 2.183 1.28 3.061 2.579.879 1.299 1.602 2.801 2.171 4.509a26.165 26.165 0 0 1 1.17 5.362c.21 1.868.216 3.58.018 5.14.024.643-.167 1.125-.576 1.447a2.425 2.425 0 0 1-1.335.538 1.99 1.99 0 0 1-1.318-.353c-.396-.272-.569-.692-.52-1.261.174-3.118.106-5.641-.203-7.57-.31-1.93-.755-3.372-1.336-4.324-.582-.952-1.256-1.478-2.023-1.577-.767-.1-1.54.105-2.32.612-.779.507-1.52 1.268-2.226 2.282a13.779 13.779 0 0 0-1.707 3.414 15.712 15.712 0 0 0-.798 4.027c-.099 1.422.075 2.79.52 4.1zm44.44-.334c0 .718-.15 1.2-.446 1.448a1.574 1.574 0 0 1-1.039.37c-.396 0-.773-.08-1.132-.24-.359-.161-.587-.316-.686-.464l-1.967-4.23a13.63 13.63 0 0 1-1.113 1.725 8.932 8.932 0 0 1-1.41 1.484 8.4 8.4 0 0 1-1.69 1.095 5.797 5.797 0 0 1-1.947.557c-1.658.049-3.037-.205-4.138-.761-1.101-.557-1.98-1.305-2.635-2.245-.655-.94-1.088-2.023-1.299-3.247a13.323 13.323 0 0 1-.092-3.786c.148-1.298.457-2.579.927-3.84a14.48 14.48 0 0 1 1.782-3.396 10.167 10.167 0 0 1 2.504-2.486c.953-.656 1.973-1.02 3.062-1.095 1.089-.074 2.233.18 3.433.76 1.2.582 2.43 1.615 3.692 3.1l4.193 15.251zm-14.548-2.449c1.138.396 2.134.489 2.988.279a4.542 4.542 0 0 0 2.17-1.207c.594-.593 1.046-1.335 1.355-2.226.31-.89.501-1.818.575-2.783.075-.965.031-1.911-.13-2.84-.16-.927-.432-1.743-.816-2.448-.383-.705-.872-1.231-1.466-1.578-.594-.346-1.286-.42-2.078-.222-.643.148-1.218.526-1.725 1.132a8.333 8.333 0 0 0-1.28 2.152 12.84 12.84 0 0 0-.78 2.69 14.813 14.813 0 0 0-.241 2.82c.012.916.136 1.751.37 2.506.236.754.588 1.33 1.058 1.725zm16.96 4.194c-.372-.273-.619-.55-.743-.835-.123-.285-.099-.675.074-1.17.446-.445 1.009-1.094 1.689-1.948a49.887 49.887 0 0 0 1.985-2.671 41.479 41.479 0 0 0 1.744-2.728c.52-.89.842-1.596.965-2.115l-4.898-5.826c-.272-.47-.34-.934-.204-1.392.136-.458.383-.841.742-1.15.359-.31.767-.526 1.225-.65a1.747 1.747 0 0 1 1.317.149c.297.148.674.507 1.132 1.076.457.569.934 1.156 1.428 1.762.495.607.972 1.132 1.43 1.578.457.445.834.618 1.131.52.148-.125.383-.39.705-.799.322-.408.693-.86 1.113-1.354.421-.495.872-.99 1.355-1.485.482-.494.965-.884 1.447-1.168.483-.285.934-.421 1.355-.409.42.013.779.279 1.076.798.247.619.278 1.225.093 1.819a5.876 5.876 0 0 1-.872 1.707c-.396.544-.854 1.07-1.374 1.577-.52.507-.995.995-1.428 1.466-.433.47-.78.915-1.04 1.335-.26.421-.327.804-.203 1.15.445.644.946 1.275 1.503 1.893.556.619 1.107 1.237 1.65 1.856a31.22 31.22 0 0 1 1.54 1.892c.483.644.885 1.324 1.207 2.041.247.52.26 1.002.037 1.448-.223.445-.557.779-1.002 1.002-.445.222-.928.309-1.447.26-.52-.05-.953-.297-1.299-.743l-5.047-6.16c-.247.173-.544.538-.89 1.095a118.7 118.7 0 0 1-1.17 1.837 54.724 54.724 0 0 1-1.391 2.04 10.48 10.48 0 0 1-1.559 1.763c-.544.483-1.1.798-1.67.947-.569.148-1.138.012-1.707-.408zm23.898-2.82c.173.47.229.927.167 1.372a2.905 2.905 0 0 1-.427 1.188 2.505 2.505 0 0 1-.835.816 1.729 1.729 0 0 1-1.02.26c-.347-.025-.675-.18-.984-.464-.309-.284-.55-.748-.723-1.392-.05-.173-.093-.6-.13-1.28a88.637 88.637 0 0 1-.093-2.393 847.33 847.33 0 0 1-.074-2.95c-.025-1.052-.05-2.035-.074-2.95-.025-.916-.05-1.714-.075-2.394-.024-.68-.062-1.12-.111-1.318-.173-1.212-.186-2.195-.037-2.95.148-.754.377-1.323.686-1.707.31-.383.662-.594 1.058-.63.396-.038.76.067 1.095.315.334.247.6.624.798 1.132.198.507.26 1.107.185 1.8l.594 13.544zm-2.672-19.743c-.544-.42-.872-.884-.983-1.392-.112-.507-.075-.958.11-1.354a1.67 1.67 0 0 1 .892-.854c.408-.173.847-.148 1.317.075.544.297.878.717 1.002 1.261.124.545.099 1.046-.074 1.503-.173.458-.464.792-.872 1.002-.409.21-.872.13-1.392-.24zm6.605 22.191a2.235 2.235 0 0 1-.927-.482 2.056 2.056 0 0 1-.631-.872c-.124-.334-.105-.699.056-1.095.16-.396.538-.779 1.131-1.15.322.297.854.55 1.596.76a12.9 12.9 0 0 0 2.43.427c.879.075 1.751.08 2.617.019.866-.062 1.59-.204 2.17-.427.582-.223.947-.526 1.096-.909.148-.383-.062-.86-.631-1.429a97.074 97.074 0 0 0-4.324-2.764c-1.224-.73-2.263-1.448-3.117-2.153-.853-.705-1.534-1.484-2.04-2.338-.508-.853-.873-1.948-1.095-3.284-.075-1.088.185-1.985.779-2.69.594-.705 1.36-1.237 2.3-1.596.94-.359 1.992-.55 3.155-.575a12.448 12.448 0 0 1 3.395.39c1.101.284 2.097.71 2.988 1.28.89.569 1.534 1.262 1.93 2.078.074.371.055.711-.056 1.02-.112.31-.279.576-.501.798-.223.223-.501.39-.835.501a2.329 2.329 0 0 1-1.058.093c-.767-.965-1.602-1.664-2.505-2.097-.903-.433-1.756-.661-2.56-.686-.804-.025-1.478.142-2.023.5-.544.36-.828.848-.853 1.467-.025.618.278 1.348.909 2.19.63.84 1.726 1.743 3.284 2.708 2.227 1.336 3.878 2.58 4.954 3.73 1.076 1.15 1.683 2.177 1.819 3.08.136.903-.13 1.676-.798 2.319s-1.62 1.126-2.858 1.447c-1.237.322-2.702.47-4.397.446-1.695-.025-3.495-.26-5.4-.706zM354.146 302.797c-2.623.618-4.837.63-6.643.037-1.806-.594-3.235-1.577-4.286-2.95-1.052-1.373-1.763-3.025-2.134-4.954a20.036 20.036 0 0 1-.223-5.975 23.727 23.727 0 0 1 1.466-6.012c.755-1.954 1.726-3.636 2.913-5.047 1.064-1.187 2.214-1.892 3.451-2.115 1.237-.222 2.394-.055 3.47.501 1.076.557 2.004 1.447 2.783 2.672.78 1.225 1.256 2.69 1.43 4.398.098.222.073.482-.075.779a1.827 1.827 0 0 1-.65.723 1.459 1.459 0 0 1-.927.242c-.334-.025-.625-.248-.872-.668-.446-1.658-.984-2.858-1.615-3.6-.63-.742-1.268-1.169-1.91-1.28-.644-.111-1.275.018-1.893.39a5.563 5.563 0 0 0-1.559 1.373c-1.311 2.201-2.183 4.31-2.616 6.327-.433 2.016-.526 3.84-.278 5.473.247 1.633.779 3.012 1.595 4.138.817 1.126 1.806 1.899 2.969 2.32 1.163.42 2.45.426 3.86.018 1.41-.408 2.832-1.33 4.267-2.765.445.297.724.65.835 1.058.111.408.111.835 0 1.28-.111.445-.31.885-.594 1.318a7.37 7.37 0 0 1-.946 1.168 5.717 5.717 0 0 1-.946.78c-.31.198-.6.321-.872.37zm9.128-.594c-.173.396-.476.711-.909.946a2.802 2.802 0 0 1-1.354.353c-.47 0-.91-.136-1.318-.408-.408-.272-.686-.73-.835-1.373-.05-.248-.055-.761-.018-1.54.037-.78.043-1.88.018-3.303a133.365 133.365 0 0 0-.222-5.307c-.124-2.115-.359-4.645-.705-7.589.52-.47 1.02-.643 1.503-.52.482.125.921.397 1.317.817.396.42.717.934.965 1.54.247.606.383 1.17.408 1.689.124-.47.39-.959.798-1.466.408-.507.91-.971 1.503-1.392a9.821 9.821 0 0 1 1.985-1.076 7.986 7.986 0 0 1 2.264-.556c.78-.075 1.558 0 2.338.222.779.223 1.503.643 2.17 1.262.025.223-.012.458-.11.705a2.901 2.901 0 0 1-.409.705 2.904 2.904 0 0 1-.594.575c-.222.161-.445.266-.668.316-1.435-.297-2.653-.279-3.655.055-1.002.334-1.824.885-2.468 1.652-.643.767-1.125 1.7-1.447 2.802-.322 1.1-.544 2.27-.668 3.506a29.469 29.469 0 0 0-.13 3.786c.037 1.286.118 2.486.241 3.6zm14.696.742c-1.114-.544-1.973-1.305-2.58-2.282a8.605 8.605 0 0 1-1.187-3.228 12.188 12.188 0 0 1 0-3.674c.186-1.274.501-2.511.946-3.711a16.6 16.6 0 0 1 1.633-3.284c.643-.99 1.336-1.794 2.078-2.412 1.361-1.04 2.623-1.658 3.786-1.856 1.162-.198 2.201-.087 3.117.334.915.42 1.713 1.089 2.393 2.004.68.915 1.212 1.96 1.596 3.136.383 1.175.612 2.437.686 3.785a15.565 15.565 0 0 1-.278 3.952 12.764 12.764 0 0 1-1.299 3.6 8.076 8.076 0 0 1-2.412 2.746c-1.002.717-2.202 1.175-3.6 1.373-1.397.198-3.024.037-4.88-.483zm2.857-3.08c1.04.1 1.973-.13 2.802-.686a6.857 6.857 0 0 0 2.06-2.19c.544-.903.94-1.923 1.187-3.061.247-1.138.297-2.233.148-3.284a7.09 7.09 0 0 0-1.039-2.858c-.544-.853-1.323-1.453-2.338-1.8-.618-.123-1.267.075-1.948.594-.68.52-1.299 1.218-1.855 2.097a13.1 13.1 0 0 0-1.373 2.969c-.359 1.1-.538 2.189-.538 3.265s.222 2.06.668 2.95c.445.891 1.187 1.559 2.226 2.004zm12.358 2.932a2.235 2.235 0 0 1-.928-.483 2.056 2.056 0 0 1-.631-.872c-.124-.334-.105-.699.056-1.094.16-.396.538-.78 1.131-1.15.322.296.854.55 1.596.76a12.9 12.9 0 0 0 2.43.427c.88.074 1.751.08 2.617.018.866-.062 1.59-.204 2.171-.426.581-.223.946-.526 1.095-.91.148-.383-.062-.86-.631-1.428a97.074 97.074 0 0 0-4.323-2.765c-1.225-.73-2.264-1.447-3.118-2.152-.853-.705-1.533-1.485-2.04-2.338-.508-.854-.873-1.948-1.095-3.284-.075-1.089.185-1.986.779-2.69.594-.706 1.36-1.238 2.3-1.597.94-.358 1.992-.55 3.155-.575a12.448 12.448 0 0 1 3.396.39c1.1.284 2.096.711 2.987 1.28.89.57 1.534 1.262 1.93 2.078.074.371.055.712-.056 1.02-.111.31-.278.576-.501.799-.223.222-.501.39-.835.5a2.329 2.329 0 0 1-1.058.093c-.767-.964-1.602-1.663-2.505-2.096-.903-.433-1.756-.662-2.56-.687-.804-.025-1.478.142-2.023.501-.544.359-.828.848-.853 1.466-.025.619.278 1.348.91 2.19.63.84 1.725 1.744 3.283 2.708 2.227 1.336 3.878 2.58 4.954 3.73 1.077 1.15 1.683 2.177 1.819 3.08.136.903-.13 1.676-.798 2.32-.668.643-1.62 1.125-2.858 1.447-1.237.321-2.702.47-4.397.445-1.695-.025-3.494-.26-5.4-.705zm16.105 0a2.235 2.235 0 0 1-.928-.483 2.056 2.056 0 0 1-.63-.872c-.124-.334-.106-.699.055-1.094.16-.396.538-.78 1.132-1.15.322.296.853.55 1.596.76a12.9 12.9 0 0 0 2.43.427c.879.074 1.75.08 2.617.018.865-.062 1.589-.204 2.17-.426.582-.223.947-.526 1.095-.91.149-.383-.062-.86-.63-1.428a97.074 97.074 0 0 0-4.324-2.765c-1.225-.73-2.264-1.447-3.117-2.152-.854-.705-1.534-1.485-2.041-2.338-.507-.854-.872-1.948-1.095-3.284-.074-1.089.186-1.986.78-2.69.593-.706 1.36-1.238 2.3-1.597.94-.358 1.992-.55 3.154-.575a12.448 12.448 0 0 1 3.396.39c1.1.284 2.097.711 2.987 1.28.89.57 1.534 1.262 1.93 2.078.074.371.056.712-.056 1.02-.111.31-.278.576-.5.799-.223.222-.502.39-.836.5a2.329 2.329 0 0 1-1.057.093c-.767-.964-1.602-1.663-2.505-2.096-.903-.433-1.757-.662-2.56-.687-.805-.025-1.479.142-2.023.501s-.829.848-.854 1.466c-.024.619.279 1.348.91 2.19.63.84 1.725 1.744 3.284 2.708 2.226 1.336 3.878 2.58 4.954 3.73 1.076 1.15 1.682 2.177 1.818 3.08.136.903-.13 1.676-.798 2.32-.668.643-1.62 1.125-2.857 1.447-1.237.321-2.703.47-4.398.445-1.694-.025-3.494-.26-5.399-.705zm44.252-1.373c0 .717-.148 1.2-.445 1.447a1.574 1.574 0 0 1-1.04.371c-.395 0-.772-.08-1.131-.241-.359-.16-.588-.315-.687-.464l-1.967-4.23a13.63 13.63 0 0 1-1.113 1.725 8.932 8.932 0 0 1-1.41 1.485 8.4 8.4 0 0 1-1.688 1.094 5.797 5.797 0 0 1-1.949.557c-1.657.05-3.036-.204-4.137-.76-1.101-.557-1.98-1.306-2.635-2.246-.656-.94-1.089-2.022-1.299-3.247a13.323 13.323 0 0 1-.093-3.785c.149-1.299.458-2.58.928-3.84a14.48 14.48 0 0 1 1.781-3.396 10.167 10.167 0 0 1 2.505-2.487c.953-.655 1.973-1.02 3.062-1.094 1.088-.075 2.232.179 3.432.76 1.2.582 2.43 1.614 3.693 3.099l4.193 15.252zm-14.547-2.45c1.138.396 2.134.49 2.987.279a4.542 4.542 0 0 0 2.171-1.206c.594-.594 1.046-1.336 1.355-2.227.31-.89.5-1.818.575-2.783.074-.965.03-1.911-.13-2.839-.16-.927-.433-1.744-.816-2.449-.384-.705-.872-1.23-1.466-1.577-.594-.346-1.287-.42-2.078-.223-.643.149-1.219.526-1.726 1.132a8.333 8.333 0 0 0-1.28 2.152 12.84 12.84 0 0 0-.78 2.69 14.813 14.813 0 0 0-.24 2.821c.012.916.135 1.75.37 2.505.236.755.588 1.33 1.058 1.726zm16.96 4.194c-.372-.272-.62-.55-.743-.835-.124-.284-.099-.674.074-1.169.445-.445 1.008-1.095 1.689-1.948a49.887 49.887 0 0 0 1.985-2.672 41.478 41.478 0 0 0 1.744-2.728c.52-.89.841-1.595.965-2.115l-4.898-5.826c-.273-.47-.34-.934-.205-1.392.136-.457.384-.84.743-1.15.358-.31.767-.526 1.224-.65a1.747 1.747 0 0 1 1.318.149c.296.148.674.507 1.131 1.076.458.57.934 1.157 1.43 1.763.494.606.97 1.132 1.428 1.577.458.445.835.619 1.132.52.148-.124.383-.39.705-.798.321-.408.692-.86 1.113-1.355.42-.495.872-.99 1.355-1.484.482-.495.964-.885 1.447-1.17.482-.284.934-.42 1.354-.407.42.012.78.278 1.076.798.248.618.279 1.224.093 1.818a5.876 5.876 0 0 1-.872 1.707c-.396.544-.853 1.07-1.373 1.577-.52.507-.996.996-1.429 1.466-.433.47-.779.915-1.039 1.336-.26.42-.327.804-.204 1.15.446.643.947 1.274 1.503 1.893.557.618 1.107 1.237 1.652 1.855a31.22 31.22 0 0 1 1.54 1.893c.482.643.884 1.323 1.206 2.04.247.52.26 1.003.037 1.448-.223.445-.557.78-1.002 1.002-.446.223-.928.31-1.447.26-.52-.05-.953-.297-1.3-.742l-5.046-6.16c-.248.173-.544.538-.89 1.094a118.7 118.7 0 0 1-1.17 1.837 54.722 54.722 0 0 1-1.391 2.041 10.48 10.48 0 0 1-1.559 1.763c-.544.482-1.1.798-1.67.946-.569.149-1.138.013-1.707-.408zm23.898-2.82c.173.47.228.927.167 1.373a2.905 2.905 0 0 1-.427 1.187 2.505 2.505 0 0 1-.835.817 1.729 1.729 0 0 1-1.02.26c-.347-.025-.675-.18-.984-.464-.31-.285-.55-.749-.724-1.392-.05-.173-.092-.6-.13-1.28a88.632 88.632 0 0 1-.092-2.394 847.33 847.33 0 0 1-.075-2.95c-.024-1.052-.05-2.035-.074-2.95-.025-.916-.05-1.714-.074-2.394-.025-.68-.062-1.12-.111-1.317-.174-1.212-.186-2.196-.037-2.95.148-.755.377-1.324.686-1.707.31-.384.662-.594 1.058-.631.395-.037.76.068 1.094.315.334.247.6.625.798 1.132.198.507.26 1.107.186 1.8l.594 13.545zm-2.672-19.743c-.545-.42-.872-.884-.984-1.391-.111-.507-.074-.959.112-1.355a1.67 1.67 0 0 1 .89-.853c.408-.173.848-.149 1.318.074.544.297.878.718 1.002 1.262.123.544.099 1.045-.075 1.503-.173.457-.464.791-.872 1.002-.408.21-.872.13-1.391-.242zm6.605 22.192a2.235 2.235 0 0 1-.928-.483 2.056 2.056 0 0 1-.63-.872c-.124-.334-.106-.699.055-1.094.161-.396.538-.78 1.132-1.15.322.296.854.55 1.596.76a12.9 12.9 0 0 0 2.43.427c.879.074 1.75.08 2.617.018.866-.062 1.59-.204 2.17-.426.582-.223.947-.526 1.095-.91.149-.383-.062-.86-.63-1.428a97.075 97.075 0 0 0-4.324-2.765c-1.224-.73-2.264-1.447-3.117-2.152-.854-.705-1.534-1.485-2.041-2.338-.507-.854-.872-1.948-1.095-3.284-.074-1.089.186-1.986.78-2.69.593-.706 1.36-1.238 2.3-1.597.94-.358 1.992-.55 3.155-.575a12.448 12.448 0 0 1 3.395.39c1.101.284 2.097.711 2.987 1.28.891.57 1.534 1.262 1.93 2.078.074.371.056.712-.056 1.02-.11.31-.278.576-.5.799-.223.222-.502.39-.836.5a2.329 2.329 0 0 1-1.057.093c-.767-.964-1.602-1.663-2.505-2.096-.903-.433-1.757-.662-2.56-.687-.805-.025-1.479.142-2.023.501s-.829.848-.854 1.466c-.024.619.279 1.348.91 2.19.63.84 1.725 1.744 3.284 2.708 2.226 1.336 3.878 2.58 4.954 3.73 1.076 1.15 1.682 2.177 1.818 3.08.136.903-.13 1.676-.798 2.32-.668.643-1.62 1.125-2.857 1.447-1.237.321-2.703.47-4.397.445-1.695-.025-3.495-.26-5.4-.705z"/></g></svg>
