<svg xmlns="http://www.w3.org/2000/svg" width="461" height="149"><g fill="none" fill-rule="evenodd"><path fill="#FFF" stroke="#1D877A" stroke-linecap="square" stroke-width="3" d="M444.794 47.094c.823-.88-24.198-38.01-28.176-39.385-3.978-1.374-86.045-1.374-87.531 0-.72.666 9.413 14.451 12.236 19.372 3.003 5.235 10.253 20.013 10.912 20.013 1.277 0 91.737.878 92.56 0z"/><path stroke="#000" stroke-linecap="round" stroke-width="5" d="M447.684 72.681c5.063-1.837 8.16-4.643 9.295-8.42 1.134-3.776 1.134-9.368 0-16.777M384.438 108.043c-3.575 2.251-5.873 4.371-6.895 6.36-1.021 1.988-1.35 5.306-.986 9.954l-7.646 2.823M404.184 108.043c3.575 2.251 5.873 4.371 6.895 6.36 1.021 1.988 1.35 5.306.986 9.954l7.646 2.823"/><path fill="#FFF" stroke="#1D877A" stroke-width="3" d="M444.836 112.559c.356-.362.886-4.586 1.13-10.772.236-5.97.277-13.896.14-22.648-.121-7.871-.382-15.969-.707-22.295-.158-3.076-.327-5.617-.492-7.424a38.38 38.38 0 0 0-.223-1.99c-.074-.005-.145-.016-.183-.02a67.357 67.357 0 0 0-3.037-.21c-2.56-.134-6.197-.258-10.693-.366-8.758-.21-20.384-.353-32.102-.394-12.28-.042-23.73.028-32.221.211-4.576.099-8.238.229-10.832.388-1.34.082-2.384.171-3.11.266-.354.046-.731.137-.499-.097.167-.168.1.028.043.295-.107.506-.22 1.23-.331 2.149-.223 1.831-.44 4.386-.64 7.486-.399 6.237-.698 14.297-.818 22.244-.131 8.614-.047 16.52.266 22.477.322 6.113.966 10.25 1.39 10.613 1.337 1.144 22.42 2.138 46.737 2.138 11.729 0 23.006-.218 31.506-.623 4.468-.212 8.097-.472 10.712-.773 1.334-.153 2.391-.315 3.145-.482.552-.122.893-.249.82-.173z"/><path stroke="#000" stroke-linecap="round" stroke-width="4" d="M387.278 89.73c4.818 3.098 8.513 4.647 11.085 4.647 2.571 0 6.266-1.55 11.085-4.647M385.438 72.681v4.5M410.948 72.681v4.5"/><path fill="#FFF" stroke="#1D877A" stroke-linecap="square" stroke-width="3" d="M329.112 9.35c-1.456.626-1.456 22.819 0 66.578 14.283 24.988 21.75 37.007 22.4 36.058.977-1.424 0-12.137 0-30.174 0-12.025.315-23.542.944-34.549-14.106-25.902-21.887-38.54-23.344-37.913z"/><path stroke="#1D877A" stroke-linecap="square" stroke-width="3" d="M340.427 26.227h90.527"/><path stroke="#000" stroke-linecap="round" stroke-width="5" d="M339.292 66.586c-5.509-2.049-9.49-4.725-11.944-8.03-2.453-3.304-5.987-7.847-10.6-13.628"/><g><path fill="#FFF" stroke="#1D877A" stroke-linecap="square" stroke-width="3" d="M288.992 45.386c.822-.879-24.198-38.01-28.176-39.384-3.979-1.375-86.046-1.375-87.532 0-.72.665 9.414 14.451 12.237 19.372 3.003 5.235 10.253 20.012 10.911 20.012 1.278 0 91.737.879 92.56 0z"/><path stroke="#000" stroke-linecap="round" stroke-width="5" d="M291.882 70.974c5.062-1.837 8.16-4.644 9.294-8.42 1.135-3.776 1.135-9.368 0-16.777M228.635 106.336c-3.574 2.25-5.872 4.37-6.894 6.359-1.022 1.988-1.35 5.307-.987 9.955l-7.646 2.822M248.381 106.336c3.575 2.25 5.873 4.37 6.895 6.359 1.022 1.988 1.35 5.307.987 9.955l7.646 2.822"/><path fill="#FFF" stroke="#1D877A" stroke-width="3" d="M289.034 110.852c.355-.363.886-4.587 1.13-10.772.236-5.97.276-13.897.14-22.649-.122-7.87-.382-15.968-.708-22.294-.158-3.076-.326-5.618-.491-7.424a38.38 38.38 0 0 0-.224-1.99c-.074-.006-.145-.017-.182-.02a67.357 67.357 0 0 0-3.037-.21c-2.561-.134-6.198-.258-10.693-.366-8.759-.21-20.384-.353-32.103-.394-12.28-.043-23.73.028-32.22.21-4.577.1-8.239.23-10.833.388-1.339.082-2.383.172-3.11.266-.353.047-.731.138-.498-.097.166-.168.099.029.042.295-.107.507-.219 1.231-.33 2.15-.224 1.83-.441 4.385-.64 7.486-.4 6.236-.698 14.296-.819 22.244-.13 8.614-.046 16.52.267 22.477.321 6.112.965 10.249 1.39 10.612 1.337 1.144 22.419 2.139 46.736 2.139 11.73 0 23.006-.219 31.506-.623 4.468-.213 8.098-.473 10.712-.773 1.335-.153 2.392-.315 3.146-.482.551-.122.893-.249.819-.173z"/><path stroke="#000" stroke-linecap="round" stroke-width="4" d="M231.475 88.023c4.819 3.097 8.514 4.646 11.085 4.646 2.572 0 6.267-1.549 11.085-4.646M229.635 70.974v4.5M255.145 70.974v4.5"/><path fill="#FFF" stroke="#1D877A" stroke-linecap="square" stroke-width="3" d="M173.31 7.642c-1.457.626-1.457 22.82 0 66.578 14.283 24.988 21.75 37.008 22.4 36.058.976-1.423 0-12.136 0-30.174 0-12.025.314-23.541.943-34.548-14.106-25.902-21.887-38.54-23.343-37.914z"/><path stroke="#1D877A" stroke-linecap="square" stroke-width="3" d="M184.624 24.52h90.527"/><path stroke="#000" stroke-linecap="round" stroke-width="5" d="M183.49 64.878c-5.51-2.048-9.49-4.724-11.944-8.03-2.454-3.304-5.987-7.847-10.6-13.627"/></g><g><path fill="#000" fill-rule="nonzero" d="M67.549 148.469c-2.87-.186-3.71-.267-5.632-.539-9.075-1.286-17.25-4.499-24.556-9.648-1.688-1.19-3.596-2.787-5.298-4.433-4.846-4.69-8.505-10.46-10.458-16.491a36.447 36.447 0 0 1-1.08-18.328c1.081-5.401 3.47-10.699 6.908-15.312 7.984-10.718 21-17.85 35.806-19.62a60.243 60.243 0 0 1 13.314-.094c18.589 1.93 34.521 12.473 41.07 27.177 2.138 4.803 3.188 9.715 3.188 14.913 0 4.134-.621 7.876-1.961 11.805-1.67 4.896-4.403 9.499-8.105 13.65-.794.89-2.68 2.783-3.52 3.533-8.048 7.189-18.62 11.761-30.226 13.073-2.145.242-3.266.3-6.173.318-1.61.01-3.085.008-3.277-.004zm5.09-4.035c8.727-.38 16.841-2.65 24.002-6.716.961-.545 2.615-1.567 2.776-1.714.22-.201.384-2.277.27-3.437-.293-3.021-1.637-5.73-4.043-8.151-1.37-1.379-2.852-2.456-4.455-3.238-1.316-.642-2.273-.938-3.309-1.023-.76-.063-1.105.029-2.303.613-3.878 1.892-7.499 2.908-12.047 3.38-.503.052-1.683.082-3.213.082s-2.71-.03-3.214-.082c-4.569-.474-8.276-1.519-12.085-3.405l-1.172-.58-.578-.024c-1.096-.046-2.362.315-3.983 1.137-4.19 2.122-7.32 5.984-8.147 10.05-.236 1.166-.262 2.916-.061 4.153l.08.494.866.55c8.768 5.568 19.682 8.388 30.616 7.911zM37.131 130.74c.715-3.743 3.013-7.54 6.236-10.306 1.653-1.42 3.762-2.722 5.452-3.367l.393-.15-.934-.928c-1.032-1.025-1.578-1.649-2.375-2.714-4.552-6.082-5.104-13.717-1.464-20.237l.256-.458-.306-.401c-.405-.534-1.441-1.53-2.092-2.012-2.376-1.762-5.195-2.8-7.935-2.92-2.487-.111-4.572.68-5.775 2.189-.472.592-.724 1.028-1.414 2.453-1.819 3.754-2.866 7.582-3.215 11.753-.085 1.024-.085 3.89 0 4.907.395 4.665 1.634 8.87 3.837 13.01 2.088 3.925 5.143 7.75 8.598 10.767l.451.394.078-.649c.043-.357.137-.956.209-1.331zm67.724 1.049c5.861-5.333 9.884-12.243 11.31-19.426.43-2.159.598-3.922.6-6.268.001-3.722-.537-6.962-1.744-10.49-.721-2.108-2.042-4.96-2.722-5.877-1.293-1.743-3.31-2.587-5.932-2.48-2.967.12-5.935 1.261-8.409 3.231-.592.473-1.501 1.396-1.799 1.828l-.184.268.514 1c1.426 2.78 2.114 5.54 2.114 8.48 0 5.171-2.335 10.288-6.473 14.185-.373.352-.665.65-.65.664.015.013.314.145.664.292 2.075.874 4.254 2.336 5.975 4.009 3.079 2.992 4.992 6.556 5.54 10.32.054.373.098.797.098.943 0 .253.007.262.128.177.07-.05.506-.434.97-.856zm-32.706-11.6c2.86-.171 5.49-.67 8.063-1.527 1.873-.624 3.416-1.321 4.964-2.243 2.001-1.192 3.26-2.162 4.662-3.59.977-.994 1.462-1.587 2.18-2.661 1.7-2.545 2.528-5.201 2.53-8.114 0-3.325-1.137-6.446-3.388-9.29-1.019-1.288-2.695-2.85-4.212-3.926-4.163-2.951-9.553-4.682-15.295-4.912-4.468-.18-8.695.51-12.632 2.062-5.458 2.152-9.755 5.933-11.683 10.282-1.701 3.837-1.653 8.036.138 11.879 1.224 2.628 3.44 5.168 6.217 7.13 4.931 3.482 11.794 5.308 18.456 4.91zm-22.62-33.23c3.994-3.447 9.597-5.873 15.538-6.726.87-.125 2.771-.324 3.097-.324h.149l-.016-6.061-.017-6.062-.604.02c-1.796.058-4.662.364-6.746.72-7.88 1.343-15.158 4.358-21.254 8.802-1.911 1.394-3.453 2.72-5.218 4.488l-1.367 1.37 1.145.041c2.26.081 4.17.476 6.275 1.296 2.57 1.002 4.947 2.569 6.356 4.19l.409.47.793-.824a27.059 27.059 0 0 1 1.46-1.4zm44.722 1.298c.486-.483 1.163-1.086 1.504-1.34 2.465-1.836 5.753-3.149 8.957-3.576a23.7 23.7 0 0 1 1.682-.114l1.14-.04-1.034-1.065c-5.454-5.607-12.531-9.777-20.656-12.172-3.95-1.165-8.621-1.952-12.52-2.111l-1.003-.04v12.096l.589.043c5.335.388 10.397 1.926 14.588 4.432 1.948 1.165 3.345 2.25 4.9 3.81.524.526.957.956.961.956.004 0 .406-.395.892-.879z"/><path fill="#F57C23" d="M72.64 144.434c8.726-.38 16.84-2.65 24-6.716.962-.545 2.616-1.567 2.777-1.714.22-.201.384-2.277.27-3.437-.293-3.021-1.637-5.73-4.043-8.151-1.37-1.379-2.852-2.456-4.455-3.238-1.316-.642-2.273-.938-3.309-1.023-.76-.063-1.105.029-2.303.613-3.878 1.892-7.499 2.908-12.047 3.38-.503.052-1.683.082-3.213.082s-2.71-.03-3.214-.082c-4.569-.474-8.276-1.519-12.085-3.405l-1.172-.58-.578-.024c-1.096-.046-2.362.315-3.983 1.137-4.19 2.122-7.32 5.984-8.147 10.05-.236 1.166-.262 2.916-.061 4.153l.08.494.866.55c8.768 5.568 19.682 8.388 30.616 7.911zM94.25 88.256c.487-.483 1.164-1.086 1.505-1.34 2.465-1.836 5.753-3.149 8.957-3.576a23.7 23.7 0 0 1 1.682-.114l1.14-.04-1.034-1.065c-5.454-5.607-12.531-9.777-20.656-12.172-3.95-1.165-8.621-1.952-12.52-2.111l-1.003-.04v12.096l.589.043c5.335.388 10.397 1.926 14.588 4.432 1.948 1.165 3.345 2.25 4.9 3.81.524.526.957.956.961.956.004 0 .406-.395.892-.879z"/></g><g><path fill="#FFF" stroke="#1D877A" stroke-linecap="square" stroke-width="3" d="M129.148 35.68c.658-1.008-30.43-33.23-34.587-33.893-4.157-.663-84.977 13.588-86.201 15.2-.594.78 11.78 12.597 15.414 16.952 3.866 4.634 13.572 17.928 14.22 17.814 1.259-.222 90.497-15.065 91.154-16.073z"/><path stroke="#000" stroke-linecap="round" stroke-width="5" d="M136.437 60.377c4.667-2.688 7.23-5.99 7.692-9.906.461-3.915-.51-9.423-2.913-16.522M82.293 108.184c-3.13 2.838-5.025 5.325-5.686 7.46-.66 2.136-.409 5.46.757 9.976l-7.04 4.107M101.739 104.755c3.911 1.597 6.542 3.285 7.894 5.066 1.351 1.78 2.251 4.991 2.7 9.632l8.02 1.452"/><path fill="#FFF" stroke="#1D877A" stroke-width="3" d="M140.557 100.144c.288-.419.077-4.67-.757-10.805-.804-5.92-2.141-13.733-3.795-22.329-1.487-7.73-3.15-15.66-4.568-21.832-.69-3.002-1.297-5.476-1.774-7.226a38.38 38.38 0 0 0-.565-1.921c-.074.007-.146.009-.183.012-.705.052-1.722.16-3.028.32-2.545.313-6.148.823-10.594 1.497-8.662 1.313-20.136 3.192-31.683 5.187-12.101 2.09-23.365 4.148-31.695 5.802-4.49.892-8.073 1.656-10.6 2.263-1.304.313-2.317.583-3.016.802-.34.107-.697.262-.508-.009.135-.194.102.011.093.283-.018.518-.002 1.25.047 2.174.099 1.842.328 4.395.67 7.483.69 6.212 1.795 14.201 3.057 22.049 1.367 8.506 2.823 16.278 4.165 22.089 1.378 5.964 2.73 9.926 3.212 10.21 1.515.895 22.45-1.787 46.398-6.01 11.55-2.036 22.618-4.21 30.92-6.084 4.362-.985 7.891-1.872 10.414-2.621 1.288-.383 2.3-.726 3.014-1.021.522-.216.836-.4.776-.313z"/><path stroke="#000" stroke-linecap="round" stroke-width="4" d="M79.91 87.657c5.282 2.214 9.19 3.097 11.723 2.65 2.532-.446 5.902-2.613 10.11-6.5M75.137 71.186l.781 4.432M100.26 66.757l.78 4.431"/><path fill="#FFF" stroke="#1D877A" stroke-linecap="square" stroke-width="3" d="M8.67 18.598c-1.326.87 2.528 22.725 11.56 65.566 18.406 22.128 27.846 32.669 28.322 31.62.714-1.57-2.107-11.952-5.24-29.715-2.088-11.842-3.778-23.238-5.07-34.187C19.852 28.822 9.995 17.728 8.67 18.598z"/><path stroke="#1D877A" stroke-linecap="square" stroke-width="3" d="M22.743 33.253l89.152-15.72"/><path stroke="#000" stroke-linecap="round" stroke-width="5" d="M28.633 73.196c-5.78-1.06-10.166-3.005-13.156-5.833-2.99-2.828-7.259-6.688-12.806-11.58"/><path fill="#000" fill-rule="nonzero" d="M118.435 58.36c-7.236.136-20.703 2.285-29.913 6.638l-4.176.736c-10.144-.94-23.53 1.658-30.38 3.993-.836.373-.177 4.112.518 4.215 1.439.423 2.328 1.63 2.328 1.63s.67 1.246 2.627 5.884c1.95 4.663 4.97 5.044 4.97 5.044s3.676.254 7.634-.444 6.347-1.345 8.749-3.133 2.885-5.503 2.885-5.503.78-3.317 1.151-6.325c.062-.925 4.47-1.702 4.844-.854 1.38 2.71 3.245 5.55 3.245 5.55s1.725 3.326 4.594 4.184c2.88.857 5.334.65 9.292-.049 3.958-.697 7.325-2.193 7.325-2.193s2.75-1.16 2.95-6.416c.212-5.258.456-6.428.456-6.428s.423-1.439 1.63-2.328c.857-.388.157-4.358-.729-4.202z"/></g></g></svg>