<svg xmlns="http://www.w3.org/2000/svg" viewBox="0 0 1634 771"><g fill="none" fill-rule="evenodd"><path fill="#FFF" stroke="#1D877A" stroke-linecap="square" stroke-width="3" d="M287.384 253.56c0-3.853-34.466-24.248-39.014-24.248-4.548 0-59.81 19.197-61.362 22.407-1.035 2.14 12.43 10.545 40.395 25.216"/><path stroke="#000" stroke-linecap="round" stroke-width="5" d="M289.777 277.336c5.2.834 8.875 1.986 11.024 3.457 2.149 1.47 4.808 4.651 7.976 9.543M256.524 312.004c4.005 3.251 6.518 5.871 7.54 7.86 1.022 1.988 1.718 5.614 2.089 10.878l8.878-3.429M234.041 321.797c-.785 1.541-1.766 3.262-2.944 5.162s-3.684 4.018-7.517 6.355l7.511 5.844"/><path stroke="#1D877A" stroke-linecap="square" stroke-width="3" d="M267.7 240.404l-62.583 23.87"/><path fill="#FFF" stroke="#1D877A" stroke-width="3" d="M287.253 254.127c.824.963 2.075 13.022 2.28 25.484.232 14.096-.805 25.559-2.417 26.906-2.908 2.43-23.514 9.972-60.84 22.178-1.016-32.002-.998-50.042-.13-51.58-.062.11.13-.045.447-.245a26.73 26.73 0 0 1 2-1.106c1.696-.866 4.075-1.967 6.998-3.242 5.706-2.488 13.235-5.529 20.869-8.43 7.96-3.025 15.453-5.68 21.119-7.464 3.028-.953 5.492-1.645 7.286-2.04.902-.198 1.62-.319 2.13-.359.219-.017.349-.011.291-.079zm.033.023a.433.433 0 0 0-.075-.063.24.24 0 0 1 .042.04z"/><path fill="#FFF" stroke="#1D877A" stroke-width="3" d="M227.278 329.34h.011a.387.387 0 0 1-.039-.003zm-.597-.16c-.45-.156-1.044-.415-1.769-.776-1.851-.92-4.484-2.46-7.883-4.613-6.75-4.277-16.483-10.95-29.19-20.013-1.288-16.779-1.932-29.59-1.932-38.422 0-8.216.657-13.093 1.294-13.497.928-.59 9.53 3.85 19.806 10.56 9.148 5.974 18.618 13.007 19.386 14.242.627 1.008 1.263 13.476 1.313 27.13.025 6.803-.088 13.213-.328 18.002-.127 2.534-.288 4.576-.477 6.03-.071.546-.145 1.001-.22 1.357z"/><path stroke="#000" stroke-linecap="round" stroke-width="5" d="M206.547 296.509c-5.581.677-9.68 3.238-12.296 7.683-2.616 4.446-1.863 10.314 2.261 17.605"/><path stroke="#000" stroke-linecap="round" stroke-width="4" d="M266.777 282.336v3M247.893 288.988v3"/><path stroke="#000" stroke-linecap="round" stroke-width="3" d="M265.777 298.913c-1.722 2.752-3.378 4.38-4.966 4.883-1.587.503-4.2.229-7.836-.824"/><g><path fill="#FFF" stroke="#1D877A" stroke-linecap="square" stroke-width="3" d="M135.532 335.396c0-3.853-34.466-24.249-39.013-24.249-4.548 0-59.811 19.198-61.363 22.408-1.034 2.14 12.43 10.545 40.396 25.216"/><path stroke="#000" stroke-linecap="round" stroke-width="5" d="M137.926 359.172c5.2.834 8.874 1.986 11.023 3.457 2.15 1.47 4.808 4.651 7.977 9.543M104.672 393.84c4.005 3.251 6.519 5.871 7.54 7.86 1.022 1.987 1.718 5.614 2.09 10.878l8.877-3.429M82.19 403.633c-.785 1.541-1.767 3.262-2.945 5.162s-3.684 4.018-7.517 6.355l7.511 5.844"/><path stroke="#1D877A" stroke-linecap="square" stroke-width="3" d="M115.848 322.24l-62.582 23.87"/><path fill="#FFF" stroke="#1D877A" stroke-width="3" d="M135.402 335.963c.824.963 2.075 13.022 2.28 25.484.231 14.096-.805 25.559-2.417 26.906-2.909 2.43-23.514 9.972-60.84 22.178-1.016-32.002-.999-50.042-.13-51.58-.062.11.129-.045.446-.245a26.73 26.73 0 0 1 2-1.106c1.697-.866 4.076-1.967 6.999-3.242 5.706-2.488 13.234-5.529 20.868-8.43 7.96-3.025 15.454-5.68 21.12-7.464 3.027-.953 5.492-1.645 7.285-2.04.903-.198 1.62-.319 2.13-.359.22-.017.35-.011.292-.079zm.033.023a.433.433 0 0 0-.076-.063.24.24 0 0 1 .043.04z"/><path fill="#FFF" stroke="#1D877A" stroke-width="3" d="M75.426 411.176h.012a.387.387 0 0 1-.04-.003zm-.597-.16c-.45-.157-1.043-.416-1.768-.776-1.852-.92-4.485-2.46-7.884-4.613-6.75-4.277-16.483-10.95-29.19-20.013-1.288-16.779-1.931-29.59-1.931-38.422 0-8.217.657-13.093 1.293-13.497.928-.59 9.53 3.85 19.806 10.56 9.148 5.974 18.618 13.007 19.387 14.242.626 1.008 1.262 13.476 1.313 27.13.025 6.803-.088 13.213-.329 18.002-.127 2.534-.287 4.576-.477 6.03-.07.546-.145 1-.22 1.357z"/><path stroke="#000" stroke-linecap="round" stroke-width="5" d="M54.696 378.345c-5.582.677-9.68 3.238-12.297 7.683-2.616 4.446-1.862 10.314 2.262 17.605"/><path stroke="#000" stroke-linecap="round" stroke-width="4" d="M114.926 364.172v3M96.041 370.824v3"/><path stroke="#000" stroke-linecap="round" stroke-width="3" d="M113.926 380.75c-1.723 2.751-3.378 4.379-4.966 4.882-1.588.503-4.2.229-7.837-.824"/></g><g><path fill="#FFF" stroke="#1D877A" stroke-linecap="square" stroke-width="3" d="M268.35 391.396c0-3.853 34.466-24.249 39.014-24.249 4.548 0 59.81 19.198 61.363 22.408 1.034 2.14-12.431 10.545-40.396 25.216"/><path stroke="#000" stroke-linecap="round" stroke-width="5" d="M265.957 415.172c-5.2.834-8.874 1.986-11.023 3.457-2.15 1.47-4.808 4.651-7.977 9.543M299.21 449.84c-4.005 3.251-6.518 5.871-7.54 7.86-1.021 1.987-1.718 5.614-2.088 10.878l-8.878-3.429M321.693 459.633c.785 1.541 1.767 3.262 2.945 5.162s3.683 4.018 7.517 6.355l-7.512 5.844"/><path stroke="#1D877A" stroke-linecap="square" stroke-width="3" d="M288.035 378.24l62.582 23.87"/><path fill="#FFF" stroke="#1D877A" stroke-width="3" d="M268.481 391.963c-.824.963-2.075 13.022-2.28 25.484-.231 14.096.805 25.559 2.417 26.906 2.909 2.43 23.514 9.972 60.84 22.178 1.016-32.002.998-50.042.13-51.58.062.11-.13-.045-.446-.245a26.73 26.73 0 0 0-2-1.106c-1.697-.866-4.076-1.967-6.999-3.242-5.706-2.488-13.234-5.529-20.869-8.43-7.959-3.025-15.453-5.68-21.119-7.464-3.027-.953-5.492-1.645-7.286-2.04-.902-.198-1.62-.319-2.13-.359-.218-.017-.348-.011-.29-.079zm-.033.023a.433.433 0 0 1 .076-.063.24.24 0 0 0-.043.04z"/><path fill="#FFF" stroke="#1D877A" stroke-width="3" d="M328.456 467.176h-.01c.01 0 .022 0 .038-.003zm.598-.16c.45-.157 1.043-.416 1.768-.776 1.851-.92 4.485-2.46 7.884-4.613 6.75-4.277 16.482-10.95 29.19-20.013 1.288-16.779 1.931-29.59 1.931-38.422 0-8.217-.657-13.093-1.293-13.497-.928-.59-9.53 3.85-19.807 10.56-9.147 5.974-18.618 13.007-19.386 14.242-.626 1.008-1.262 13.476-1.313 27.13-.025 6.803.088 13.213.328 18.002.127 2.534.288 4.576.477 6.03.072.546.146 1 .22 1.357z"/><path stroke="#000" stroke-linecap="round" stroke-width="5" d="M349.187 434.345c5.582.677 9.68 3.238 12.297 7.683 2.616 4.446 1.862 10.314-2.262 17.605"/><path stroke="#000" stroke-linecap="round" stroke-width="4" d="M288.957 420.172v3M307.842 426.824v3"/><path stroke="#000" stroke-linecap="round" stroke-width="3" d="M289.957 436.75c1.723 2.751 3.378 4.379 4.966 4.882 1.588.503 4.2.229 7.837-.824"/></g><g><path fill="#FFF" stroke="#1D877A" stroke-linecap="square" stroke-width="3" d="M268.35 540.818c0-3.853 34.466-24.249 39.014-24.249 4.548 0 59.81 19.198 61.363 22.408 1.034 2.14-12.431 10.545-40.396 25.215"/><path stroke="#000" stroke-linecap="round" stroke-width="5" d="M265.957 564.594c-5.2.834-8.874 1.986-11.023 3.457-2.15 1.47-4.808 4.651-7.977 9.543M299.21 599.262c-4.005 3.251-6.518 5.87-7.54 7.86-1.021 1.987-1.718 5.614-2.088 10.878l-8.878-3.429M321.693 609.055c.785 1.541 1.767 3.262 2.945 5.161 1.178 1.9 3.683 4.019 7.517 6.356l-7.512 5.844"/><path stroke="#1D877A" stroke-linecap="square" stroke-width="3" d="M288.035 527.662l62.582 23.87"/><path fill="#FFF" stroke="#1D877A" stroke-width="3" d="M268.481 541.385c-.824.963-2.075 13.022-2.28 25.484-.231 14.096.805 25.559 2.417 26.906 2.909 2.43 23.514 9.972 60.84 22.178 1.016-32.002.998-50.042.13-51.58.062.11-.13-.045-.446-.245a26.73 26.73 0 0 0-2-1.106c-1.697-.866-4.076-1.967-6.999-3.242-5.706-2.488-13.234-5.529-20.869-8.43-7.959-3.025-15.453-5.68-21.119-7.464-3.027-.953-5.492-1.645-7.286-2.04-.902-.199-1.62-.319-2.13-.359-.218-.017-.348-.011-.29-.08zm-.033.023a.433.433 0 0 1 .076-.063.24.24 0 0 0-.043.04z"/><path fill="#FFF" stroke="#1D877A" stroke-width="3" d="M328.456 616.598h-.01l.038-.003zm.598-.16c.45-.157 1.043-.416 1.768-.776 1.851-.92 4.485-2.46 7.884-4.613 6.75-4.277 16.482-10.95 29.19-20.013 1.288-16.78 1.931-29.59 1.931-38.422 0-8.217-.657-13.093-1.293-13.498-.928-.589-9.53 3.85-19.807 10.561-9.147 5.974-18.618 13.007-19.386 14.242-.626 1.008-1.262 13.476-1.313 27.13-.025 6.802.088 13.213.328 18.002.127 2.534.288 4.576.477 6.03.072.546.146 1 .22 1.357z"/><path stroke="#000" stroke-linecap="round" stroke-width="5" d="M349.187 583.766c5.582.678 9.68 3.239 12.297 7.684 2.616 4.445 1.862 10.314-2.262 17.605"/><path stroke="#000" stroke-linecap="round" stroke-width="4" d="M288.957 569.594v3M307.842 576.246v3"/><path stroke="#000" stroke-linecap="round" stroke-width="3" d="M289.957 586.171c1.723 2.752 3.378 4.38 4.966 4.883 1.588.503 4.2.229 7.837-.824"/></g><g><path fill="#FFF" stroke="#1D877A" stroke-linecap="square" stroke-width="3" d="M428.733 484.818c0-3.853 34.466-24.249 39.014-24.249 4.548 0 59.81 19.198 61.362 22.408 1.035 2.14-12.43 10.545-40.395 25.215"/><path stroke="#000" stroke-linecap="round" stroke-width="5" d="M426.34 508.594c-5.2.834-8.874 1.986-11.024 3.457-2.149 1.47-4.808 4.651-7.976 9.543M459.593 543.262c-4.005 3.251-6.518 5.87-7.54 7.86-1.021 1.987-1.718 5.614-2.089 10.878l-8.878-3.429M482.076 553.055c.785 1.541 1.766 3.262 2.945 5.161 1.178 1.9 3.683 4.019 7.517 6.356l-7.512 5.844"/><path stroke="#1D877A" stroke-linecap="square" stroke-width="3" d="M448.418 471.662L511 495.532"/><path fill="#FFF" stroke="#1D877A" stroke-width="3" d="M428.864 485.385c-.824.963-2.075 13.022-2.28 25.484-.231 14.096.805 25.559 2.417 26.906 2.908 2.43 23.514 9.972 60.84 22.178 1.016-32.002.998-50.042.13-51.58.062.11-.13-.045-.446-.245a26.73 26.73 0 0 0-2-1.106c-1.697-.866-4.076-1.967-6.999-3.242-5.706-2.488-13.235-5.529-20.869-8.43-7.959-3.025-15.453-5.68-21.119-7.464-3.027-.953-5.492-1.645-7.286-2.04-.902-.199-1.62-.319-2.13-.359-.219-.017-.349-.011-.291-.08zm-.033.023a.433.433 0 0 1 .076-.063.24.24 0 0 0-.043.04z"/><path fill="#FFF" stroke="#1D877A" stroke-width="3" d="M488.84 560.598h-.012l.04-.003zm.597-.16c.449-.157 1.043-.416 1.768-.776 1.851-.92 4.484-2.46 7.884-4.613 6.75-4.277 16.482-10.95 29.19-20.013 1.288-16.78 1.931-29.59 1.931-38.422 0-8.217-.657-13.093-1.293-13.498-.928-.589-9.53 3.85-19.807 10.561-9.148 5.974-18.618 13.007-19.386 14.242-.627 1.008-1.262 13.476-1.313 27.13-.025 6.802.088 13.213.328 18.002.127 2.534.288 4.576.477 6.03.071.546.146 1 .22 1.357z"/><path stroke="#000" stroke-linecap="round" stroke-width="5" d="M509.57 527.766c5.581.678 9.68 3.239 12.296 7.684 2.617 4.445 1.863 10.314-2.261 17.605"/><path stroke="#000" stroke-linecap="round" stroke-width="4" d="M449.34 513.594v3M468.225 520.246v3"/><path stroke="#000" stroke-linecap="round" stroke-width="3" d="M450.34 530.171c1.723 2.752 3.378 4.38 4.966 4.883 1.587.503 4.2.229 7.836-.824"/></g><g><path fill="#FFF" stroke="#1D877A" stroke-linecap="square" stroke-width="3" d="M198.267 484.818c0-3.853-34.466-24.249-39.014-24.249-4.548 0-59.81 19.198-61.362 22.408-1.035 2.14 12.43 10.545 40.395 25.215"/><path stroke="#000" stroke-linecap="round" stroke-width="5" d="M200.66 508.594c5.2.834 8.874 1.986 11.024 3.457 2.149 1.47 4.808 4.651 7.976 9.543M167.407 543.262c4.005 3.251 6.518 5.87 7.54 7.86 1.021 1.987 1.718 5.614 2.089 10.878l8.878-3.429M144.924 553.055c-.785 1.541-1.766 3.262-2.945 5.161-1.178 1.9-3.683 4.019-7.517 6.356l7.512 5.844"/><path stroke="#1D877A" stroke-linecap="square" stroke-width="3" d="M178.582 471.662L116 495.532"/><path fill="#FFF" stroke="#1D877A" stroke-width="3" d="M198.136 485.385c.824.963 2.075 13.022 2.28 25.484.231 14.096-.805 25.559-2.417 26.906-2.908 2.43-23.514 9.972-60.84 22.178-1.016-32.002-.998-50.042-.13-51.58-.062.11.13-.045.446-.245a26.73 26.73 0 0 1 2-1.106c1.697-.866 4.076-1.967 6.999-3.242 5.706-2.488 13.235-5.529 20.869-8.43 7.959-3.025 15.453-5.68 21.119-7.464 3.027-.953 5.492-1.645 7.286-2.04.902-.199 1.62-.319 2.13-.359.219-.017.349-.011.291-.08zm.033.023a.433.433 0 0 0-.076-.063.24.24 0 0 1 .043.04z"/><path fill="#FFF" stroke="#1D877A" stroke-width="3" d="M138.16 560.598h.012a.387.387 0 0 1-.04-.003zm-.597-.16c-.449-.157-1.043-.416-1.768-.776-1.851-.92-4.484-2.46-7.884-4.613-6.75-4.277-16.482-10.95-29.19-20.013-1.288-16.78-1.931-29.59-1.931-38.422 0-8.217.657-13.093 1.293-13.498.928-.589 9.53 3.85 19.807 10.561 9.148 5.974 18.618 13.007 19.386 14.242.627 1.008 1.262 13.476 1.313 27.13.025 6.802-.088 13.213-.328 18.002-.127 2.534-.288 4.576-.477 6.03-.071.546-.146 1-.22 1.357z"/><path stroke="#000" stroke-linecap="round" stroke-width="5" d="M117.43 527.766c-5.581.678-9.68 3.239-12.296 7.684-2.617 4.445-1.863 10.314 2.261 17.605"/><path stroke="#000" stroke-linecap="round" stroke-width="4" d="M177.66 513.594v3M158.775 520.246v3"/><path stroke="#000" stroke-linecap="round" stroke-width="3" d="M176.66 530.171c-1.723 2.752-3.378 4.38-4.966 4.883-1.587.503-4.2.229-7.836-.824"/></g><path stroke="#000" stroke-dasharray="12" stroke-width="4" d="M322.85 662.395c154.079 0 248.15-44.439 248.15-160.743 0-47.851-101.838-103.503-137.458-138.867-50.955-50.588-104.022-157.887-194.708-157.887-91.731 0-153.687 28.513-204.536 80.1C-.263 320.063 2.27 384.107 2.27 431.169c0 34.004 8.992 90.155 72.159 135.144 74.565 53.108 139.389 96.083 248.42 96.083z"/><g><path stroke="#000" stroke-dasharray="12" stroke-width="4" d="M1515.719 768.27c114.148-21.133 114.148-46.05 114.148-172.844 0-52.168 9.589-180.049-26.031-218.602-50.955-55.151-171.9-144.719-262.586-144.719-91.731 0-124.574 26.068-181.146 76.498-49.31 43.956 0 168.75 0 220.057 0 37.07-49.31 129.82 13.857 178.867 74.565 57.898 232.727 60.743 341.758 60.743z"/><path stroke="#979797" stroke-linecap="square" stroke-width="3" d="M1204.291 431.152l-9-20"/><path fill="#FFF" stroke="#1D877A" stroke-linecap="square" stroke-width="3" d="M1275.607 364.622c.823-.879-7.917-22.919-11.802-24.293-3.886-1.374-68.124-1.374-69.61 0-.72.666 2.889 7.103 5.712 12.024 3.003 5.235 4.551 10.83 5.21 10.83 1.277 0 69.668 2.318 70.49 1.44z"/><path stroke="#000" stroke-linecap="round" stroke-width="5" d="M1277.787 455.902c5.063 1.838 8.16 4.644 9.295 8.42 1.134 3.776 1.134 9.369 0 16.778M1231.947 489.133c-3.574 2.251-5.873 4.37-6.894 6.36-1.022 1.987-1.35 5.306-.987 9.954l-7.646 2.823M1246.693 489.133c3.575 2.251 5.873 4.37 6.895 6.36 1.022 1.987 1.35 5.306.987 9.954l7.646 2.823"/><path fill="#FFF" stroke="#1D877A" stroke-width="3" d="M1204.649 364.283c-.606 2.486-1.368 32.805-1.557 64.183-.219 36.306.352 63.638 1.553 66.224.376.811 4.643 2.017 11.244 2.801 6.61.784 15.35 1.21 24.414 1.21 9.062 0 17.772-.426 24.322-1.21 6.483-.776 10.655-1.98 10.942-2.716 1.02-2.607 1.445-29.717 1.217-66.785-.19-30.755-.84-62.624-1.215-63.806.19.494.113.459.053.443-.5-.127-1.256-.259-2.238-.388-1.959-.257-4.759-.496-8.225-.706-6.776-.41-15.779-.688-24.854-.767-9.508-.084-18.371.054-24.934.41-3.52.19-6.33.441-8.303.746-.99.152-1.75.316-2.253.481-.16.053-.229.084-.196-.047zm-.03.073c.01-.042.03-.099.06-.176a.821.821 0 0 0-.03.103z"/><path stroke="#000" stroke-linecap="round" stroke-width="4" d="M1230.787 438.201c4.818 3.098 8.513 4.647 11.085 4.647 2.572 0 6.267-1.55 11.085-4.647M1228.947 421.152v4.5M1254.457 421.152v4.5"/><path fill="#FFF" stroke="#1D877A" stroke-linecap="square" stroke-width="3" d="M1193.826 340.381c-1.456.627-1.456 47.07 0 139.328 6.395 11.86 9.918 17.316 10.569 16.367.976-1.424 0-12.137 0-30.175 0-12.025.314-46.874.943-104.548-6.218-14.607-10.055-21.598-11.512-20.972z"/><path stroke="#1D877A" stroke-linecap="square" stroke-width="3" d="M1203.015 350.652h67.103"/><path stroke="#000" stroke-linecap="round" stroke-width="5" d="M1197.228 453.29c-5.509 2.048-9.49 4.725-11.944 8.03-2.454 3.304-3.98 8.539-4.582 15.704"/><g><path stroke="#979797" stroke-linecap="square" stroke-width="3" d="M1490.344 665.574l-9-20"/><path fill="#FFF" stroke="#1D877A" stroke-linecap="square" stroke-width="3" d="M1561.66 599.044c.823-.879-7.917-22.919-11.803-24.293-3.885-1.374-68.123-1.374-69.609 0-.72.666 2.889 7.103 5.711 12.024 3.004 5.235 4.552 10.83 5.21 10.83 1.278 0 69.669 2.318 70.491 1.439z"/><path stroke="#000" stroke-linecap="round" stroke-width="5" d="M1563.84 690.324c5.062 1.837 8.16 4.644 9.295 8.42 1.134 3.776 1.134 9.369 0 16.777M1518 723.555c-3.575 2.251-5.873 4.37-6.895 6.36-1.021 1.987-1.35 5.306-.986 9.954l-7.646 2.822M1532.746 723.555c3.575 2.251 5.873 4.37 6.895 6.36 1.021 1.987 1.35 5.306.986 9.954l7.646 2.822"/><path fill="#FFF" stroke="#1D877A" stroke-width="3" d="M1490.701 598.705c-.605 2.486-1.367 32.805-1.556 64.183-.219 36.306.352 63.638 1.553 66.224.376.81 4.642 2.017 11.244 2.8 6.609.785 15.35 1.21 24.413 1.21 9.062 0 17.772-.425 24.323-1.209 6.482-.776 10.654-1.98 10.942-2.716 1.02-2.608 1.445-29.717 1.216-66.786-.19-30.754-.84-62.623-1.214-63.806.19.495.113.46.053.444-.5-.127-1.256-.259-2.238-.388-1.96-.257-4.759-.496-8.225-.706-6.776-.41-15.779-.688-24.854-.767-9.508-.084-18.372.054-24.935.41-3.52.19-6.33.441-8.303.746-.989.152-1.75.316-2.253.481-.16.053-.228.084-.195-.048zm-.03.072c.01-.04.031-.098.062-.175a.821.821 0 0 0-.032.103z"/><path stroke="#000" stroke-linecap="round" stroke-width="4" d="M1516.84 672.623c4.818 3.098 8.513 4.647 11.085 4.647 2.571 0 6.266-1.55 11.085-4.647M1515 655.574v4.5M1540.51 655.574v4.5"/><path fill="#FFF" stroke="#1D877A" stroke-linecap="square" stroke-width="3" d="M1479.879 574.803c-1.456.627-1.456 47.07 0 139.328 6.395 11.86 9.918 17.316 10.568 16.367.976-1.424 0-12.137 0-30.175 0-12.025.315-46.874.944-104.548-6.218-14.608-10.056-21.598-11.512-20.972z"/><path stroke="#1D877A" stroke-linecap="square" stroke-width="3" d="M1489.068 585.074h67.103"/><path stroke="#000" stroke-linecap="round" stroke-width="5" d="M1483.28 687.712c-5.508 2.048-9.49 4.725-11.943 8.03-2.454 3.304-3.981 8.539-4.582 15.704"/></g><g><path stroke="#979797" stroke-linecap="square" stroke-width="3" d="M1347.344 373.152l-9-20"/><path fill="#FFF" stroke="#1D877A" stroke-linecap="square" stroke-width="3" d="M1418.66 306.622c.823-.879-7.917-22.919-11.803-24.293-3.885-1.374-68.123-1.374-69.609 0-.72.666 2.889 7.103 5.711 12.024 3.004 5.235 4.552 10.83 5.21 10.83 1.278 0 69.669 2.318 70.491 1.44z"/><path stroke="#000" stroke-linecap="round" stroke-width="5" d="M1420.84 397.902c5.062 1.838 8.16 4.644 9.295 8.42 1.134 3.776 1.134 9.369 0 16.778M1375 431.133c-3.575 2.251-5.873 4.37-6.895 6.36-1.021 1.987-1.35 5.306-.986 9.954l-7.646 2.823M1389.746 431.133c3.575 2.251 5.873 4.37 6.895 6.36 1.021 1.987 1.35 5.306.986 9.954l7.646 2.823"/><path fill="#FFF" stroke="#1D877A" stroke-width="3" d="M1347.701 306.283c-.605 2.486-1.367 32.805-1.556 64.183-.219 36.306.352 63.638 1.553 66.224.376.811 4.642 2.017 11.244 2.801 6.609.784 15.35 1.21 24.413 1.21 9.062 0 17.772-.426 24.323-1.21 6.482-.776 10.654-1.98 10.942-2.716 1.02-2.607 1.445-29.717 1.216-66.785-.19-30.755-.84-62.624-1.214-63.806.19.494.113.459.053.443-.5-.127-1.256-.259-2.238-.388-1.96-.257-4.759-.496-8.225-.706-6.776-.41-15.779-.688-24.854-.767-9.508-.084-18.372.054-24.935.41-3.52.19-6.33.441-8.303.746-.989.152-1.75.316-2.253.481-.16.053-.228.084-.195-.047zm-.03.073c.01-.042.031-.099.062-.176a.821.821 0 0 0-.032.103z"/><path stroke="#000" stroke-linecap="round" stroke-width="4" d="M1373.84 380.201c4.818 3.098 8.513 4.647 11.085 4.647 2.571 0 6.266-1.55 11.085-4.647M1372 363.152v4.5M1397.51 363.152v4.5"/><path fill="#FFF" stroke="#1D877A" stroke-linecap="square" stroke-width="3" d="M1336.879 282.381c-1.456.627-1.456 47.07 0 139.328 6.395 11.86 9.918 17.316 10.568 16.367.976-1.424 0-12.137 0-30.175 0-12.025.315-46.874.944-104.548-6.218-14.607-10.056-21.598-11.512-20.972z"/><path stroke="#1D877A" stroke-linecap="square" stroke-width="3" d="M1346.068 292.652h67.103"/><path stroke="#000" stroke-linecap="round" stroke-width="5" d="M1340.28 395.29c-5.508 2.048-9.49 4.725-11.943 8.03-2.454 3.304-3.981 8.539-4.582 15.704"/></g><g><path stroke="#979797" stroke-linecap="square" stroke-width="3" d="M1406.656 580.574l9-20"/><path fill="#FFF" stroke="#1D877A" stroke-linecap="square" stroke-width="3" d="M1335.34 514.044c-.823-.879 7.917-22.919 11.803-24.293 3.885-1.374 68.123-1.374 69.609 0 .72.666-2.889 7.103-5.711 12.024-3.004 5.235-4.552 10.83-5.21 10.83-1.278 0-69.669 2.318-70.491 1.439z"/><path stroke="#000" stroke-linecap="round" stroke-width="5" d="M1333.16 605.324c-5.062 1.837-8.16 4.644-9.295 8.42-1.134 3.776-1.134 9.369 0 16.777M1379 638.555c3.575 2.251 5.873 4.37 6.895 6.36 1.021 1.987 1.35 5.306.986 9.954l7.646 2.822M1364.254 638.555c-3.575 2.251-5.873 4.37-6.895 6.36-1.021 1.987-1.35 5.306-.986 9.954l-7.646 2.822"/><path fill="#FFF" stroke="#1D877A" stroke-width="3" d="M1406.299 513.705c.605 2.486 1.367 32.805 1.556 64.183.219 36.306-.352 63.638-1.553 66.224-.376.81-4.642 2.017-11.244 2.8-6.609.785-15.35 1.21-24.413 1.21-9.062 0-17.772-.425-24.323-1.209-6.482-.776-10.654-1.98-10.942-2.716-1.02-2.608-1.445-29.717-1.216-66.786.19-30.754.84-62.623 1.214-63.806-.19.495-.113.46-.053.444.5-.127 1.256-.259 2.238-.388 1.96-.257 4.759-.496 8.225-.706 6.776-.41 15.779-.688 24.854-.767 9.508-.084 18.372.054 24.935.41 3.52.19 6.33.441 8.303.746.989.152 1.75.316 2.253.481.16.053.228.084.195-.048zm.03.072a1.543 1.543 0 0 0-.062-.175c.01.026.021.06.032.103z"/><path stroke="#000" stroke-linecap="round" stroke-width="4" d="M1380.16 587.623c-4.818 3.098-8.513 4.647-11.085 4.647-2.571 0-6.266-1.55-11.085-4.647M1382 570.574v4.5M1356.49 570.574v4.5"/><path fill="#FFF" stroke="#1D877A" stroke-linecap="square" stroke-width="3" d="M1417.121 489.803c1.456.627 1.456 47.07 0 139.328-6.395 11.86-9.918 17.316-10.568 16.367-.976-1.424 0-12.137 0-30.175 0-12.025-.315-46.874-.944-104.548 6.218-14.608 10.056-21.598 11.512-20.972z"/><path stroke="#1D877A" stroke-linecap="square" stroke-width="3" d="M1407.932 500.074h-67.103"/><path stroke="#000" stroke-linecap="round" stroke-width="5" d="M1413.72 602.712c5.508 2.048 9.49 4.725 11.943 8.03 2.454 3.304 3.981 8.539 4.582 15.704"/></g><g><path stroke="#979797" stroke-linecap="square" stroke-width="3" d="M1568.234 466.574l9-20"/><path fill="#FFF" stroke="#1D877A" stroke-linecap="square" stroke-width="3" d="M1496.918 400.044c-.823-.879 7.917-22.919 11.803-24.293 3.885-1.374 68.123-1.374 69.61 0 .719.666-2.89 7.103-5.712 12.024-3.003 5.235-4.552 10.83-5.21 10.83-1.278 0-69.668 2.318-70.491 1.439z"/><path stroke="#000" stroke-linecap="round" stroke-width="5" d="M1494.738 491.324c-5.062 1.837-8.16 4.644-9.295 8.42-1.134 3.776-1.134 9.369 0 16.777M1540.578 524.555c3.575 2.251 5.873 4.37 6.895 6.36 1.021 1.987 1.35 5.306.986 9.954l7.646 2.822M1525.832 524.555c-3.575 2.251-5.873 4.37-6.895 6.36-1.021 1.987-1.35 5.306-.986 9.954l-7.646 2.822"/><path fill="#FFF" stroke="#1D877A" stroke-width="3" d="M1567.877 399.705c.605 2.486 1.367 32.805 1.556 64.183.219 36.306-.352 63.638-1.552 66.224-.377.81-4.643 2.017-11.245 2.8-6.609.785-15.35 1.21-24.413 1.21-9.062 0-17.772-.425-24.322-1.209-6.483-.776-10.655-1.98-10.943-2.716-1.02-2.608-1.445-29.717-1.216-66.786.19-30.754.84-62.623 1.214-63.806-.19.495-.113.46-.053.444.5-.127 1.256-.259 2.238-.388 1.96-.257 4.76-.496 8.225-.706 6.776-.41 15.779-.688 24.854-.767 9.508-.084 18.372.054 24.935.41 3.52.19 6.33.441 8.303.746.989.152 1.75.316 2.253.481.16.053.228.084.196-.048zm.03.072a1.543 1.543 0 0 0-.061-.175c.01.026.02.06.03.103z"/><path stroke="#000" stroke-linecap="round" stroke-width="4" d="M1541.738 473.623c-4.818 3.098-8.513 4.647-11.085 4.647-2.571 0-6.266-1.55-11.085-4.647M1543.578 456.574v4.5M1518.068 456.574v4.5"/><path fill="#FFF" stroke="#1D877A" stroke-linecap="square" stroke-width="3" d="M1578.7 375.803c1.456.627 1.456 47.07 0 139.328-6.396 11.86-9.918 17.316-10.57 16.367-.975-1.424 0-12.137 0-30.175 0-12.025-.314-46.874-.943-104.548 6.219-14.608 10.056-21.598 11.512-20.972z"/><path stroke="#1D877A" stroke-linecap="square" stroke-width="3" d="M1569.51 386.074h-67.103"/><path stroke="#000" stroke-linecap="round" stroke-width="5" d="M1575.298 488.712c5.508 2.048 9.49 4.725 11.943 8.03 2.454 3.304 3.981 8.539 4.582 15.704"/></g><g><path stroke="#979797" stroke-linecap="square" stroke-width="3" d="M1263.604 626.05l9-20"/><path fill="#FFF" stroke="#1D877A" stroke-linecap="square" stroke-width="3" d="M1192.287 559.52c-.822-.878 7.917-22.918 11.803-24.292 3.886-1.375 68.123-1.375 69.61 0 .72.665-2.89 7.102-5.712 12.023-3.003 5.235-4.552 10.83-5.21 10.83-1.278 0-69.668 2.318-70.49 1.44z"/><path stroke="#000" stroke-linecap="round" stroke-width="5" d="M1190.107 650.8c-5.062 1.838-8.16 4.645-9.294 8.42-1.135 3.777-1.135 9.37 0 16.778M1235.947 684.031c3.575 2.252 5.873 4.371 6.895 6.36 1.021 1.988 1.35 5.306.987 9.955l7.646 2.822M1221.201 684.031c-3.574 2.252-5.873 4.371-6.894 6.36-1.022 1.988-1.351 5.306-.987 9.955l-7.646 2.822"/><path fill="#FFF" stroke="#1D877A" stroke-width="3" d="M1263.246 559.182c.606 2.485 1.367 32.804 1.556 64.183.22 36.305-.352 63.637-1.552 66.224-.377.81-4.643 2.017-11.245 2.8-6.609.785-15.35 1.21-24.413 1.21-9.062 0-17.772-.425-24.322-1.21-6.483-.776-10.655-1.98-10.943-2.715-1.02-2.608-1.445-29.718-1.216-66.786.19-30.755.84-62.624 1.214-63.806-.19.495-.113.459-.052.444.5-.128 1.255-.26 2.237-.388 1.96-.257 4.76-.497 8.225-.707 6.776-.41 15.78-.687 24.855-.767 9.507-.083 18.37.054 24.934.41 3.52.191 6.33.442 8.303.746.989.153 1.75.317 2.253.482.16.052.228.083.196-.048zm.03.072a1.543 1.543 0 0 0-.061-.176c.01.026.02.06.03.104z"/><path stroke="#000" stroke-linecap="round" stroke-width="4" d="M1237.107 633.1c-4.818 3.097-8.513 4.646-11.085 4.646-2.571 0-6.266-1.549-11.084-4.646M1238.947 616.05v4.5M1213.438 616.05v4.5"/><path fill="#FFF" stroke="#1D877A" stroke-linecap="square" stroke-width="3" d="M1274.068 535.28c1.457.626 1.457 47.069 0 139.327-6.394 11.86-9.917 17.316-10.568 16.367-.976-1.424 0-12.137 0-30.174 0-12.025-.314-46.875-.943-104.549 6.218-14.607 10.055-21.598 11.511-20.971z"/><path stroke="#1D877A" stroke-linecap="square" stroke-width="3" d="M1264.88 545.55h-67.104"/><path stroke="#000" stroke-linecap="round" stroke-width="5" d="M1270.667 648.188c5.508 2.049 9.49 4.725 11.943 8.03 2.454 3.304 3.981 8.54 4.582 15.705"/></g></g><g><path stroke="#000" stroke-dasharray="12" stroke-width="4" d="M779.73 461.451c154.078 0 327.567-63.116 327.567-179.42 0-47.851-.411-136.355-36.031-171.719C1020.31 59.724 870.416 2.922 779.73 2.922c-91.731 0-142.474 20.235-218.12 53.266-72.25 31.546-102.46 126.975-102.46 174.037 0 34.004 18.402 115.473 81.569 160.463 74.565 53.107 129.98 70.763 239.01 70.763z"/><path fill="#FFF" stroke="#1D877A" stroke-linecap="square" stroke-width="3" d="M744.418 328.88c.822-.878-6.161-19.6-10.14-20.973-3.978-1.375-141.65-1.375-143.136 0-.72.665 2.683 5.222 5.506 10.143 3.003 5.235 4.552 10.83 5.21 10.83 1.278 0 141.737.88 142.56 0z"/><path stroke="#000" stroke-linecap="round" stroke-width="5" d="M747.308 362.855c5.062-1.838 8.16-4.644 9.294-8.42 1.135-3.776 1.135-9.369 0-16.778M663.689 389.83c-3.575 2.251-5.873 4.371-6.895 6.36-1.021 1.988-1.35 5.306-.987 9.955l-7.646 2.822M678.435 389.83c3.574 2.251 5.873 4.371 6.894 6.36 1.022 1.988 1.351 5.306.987 9.955l7.646 2.822"/><path fill="#FFF" stroke="#1D877A" stroke-width="3" d="M744.462 394.344c.356-.38.884-4.599 1.128-10.77.236-5.97.276-13.896.14-22.648-.122-7.871-.382-15.969-.708-22.294-.158-3.077-.326-5.618-.492-7.424a38.57 38.57 0 0 0-.222-1.982c-.24.026-.604-.018-.695-.025a150.856 150.856 0 0 0-4.649-.213c-3.904-.134-9.473-.258-16.375-.366-13.424-.211-31.297-.354-49.314-.394-18.874-.043-36.455.028-49.434.21-7.006.1-12.59.23-16.52.39-2.043.083-3.63.173-4.728.27-.521.047-1.277.176-1-.103.167-.168.1.029.043.295-.107.507-.219 1.23-.33 2.149-.224 1.831-.441 4.386-.64 7.486-.4 6.237-.698 14.297-.82 22.244-.13 8.615-.046 16.521.268 22.477.321 6.113.965 10.25 1.39 10.613.487.417 9.63 1.105 22.908 1.514 13.144.405 30.66.625 48.847.625 18.186 0 35.661-.22 48.73-.624 6.894-.214 12.454-.475 16.413-.778 2.042-.156 3.644-.322 4.774-.495.812-.124 1.406-.286 1.286-.157z"/><path stroke="#000" stroke-linecap="round" stroke-width="4" d="M661.529 372.795c4.818 3.098 8.513 4.646 11.085 4.646 2.571 0 6.266-1.548 11.084-4.646M659.689 355.746v4.5M685.198 355.746v4.5"/><path fill="#FFF" stroke="#1D877A" stroke-linecap="square" stroke-width="3" d="M590.568 308.079c-1.457.626-1.457 23.735 0 69.327 6.394 11.86 9.917 17.316 10.568 16.367.976-1.424 0-12.137 0-30.174 0-12.025.314-23.541.943-34.549-6.218-14.607-10.055-21.598-11.511-20.971z"/><path stroke="#1D877A" stroke-linecap="square" stroke-width="3" d="M597.532 317.337h141.141"/><path stroke="#000" stroke-linecap="round" stroke-width="5" d="M593.777 359.746c-5.508-2.048-9.49-4.724-11.943-8.03-2.454-3.304-3.981-8.539-4.582-15.704"/><g><path fill="#FFF" stroke="#1D877A" stroke-linecap="square" stroke-width="3" d="M860.308 81.375c.822-.879-6.161-19.6-10.14-20.974-3.978-1.375-141.65-1.375-143.136 0-.72.666 2.683 5.222 5.506 10.143 3.003 5.235 4.552 10.83 5.21 10.83 1.277 0 141.737.88 142.56 0z"/><path stroke="#000" stroke-linecap="round" stroke-width="5" d="M863.197 115.349c5.063-1.838 8.161-4.644 9.295-8.42 1.134-3.776 1.134-9.369 0-16.778M779.579 142.324c-3.575 2.252-5.873 4.371-6.895 6.36-1.022 1.988-1.35 5.306-.987 9.955l-7.646 2.822M794.325 142.324c3.574 2.252 5.873 4.371 6.894 6.36 1.022 1.988 1.35 5.306.987 9.955l7.646 2.822"/><path fill="#FFF" stroke="#1D877A" stroke-width="3" d="M860.352 146.838c.356-.38.884-4.599 1.128-10.77.236-5.97.276-13.896.14-22.648-.122-7.871-.382-15.969-.708-22.294-.158-3.077-.326-5.618-.492-7.424a38.57 38.57 0 0 0-.222-1.982c-.24.026-.604-.018-.696-.024a150.856 150.856 0 0 0-4.648-.214c-3.904-.134-9.473-.258-16.375-.366-13.424-.211-31.297-.353-49.314-.394-18.875-.043-36.455.028-49.434.21-7.006.1-12.59.23-16.52.39-2.044.083-3.63.173-4.728.27-.522.047-1.277.176-1-.103.167-.168.1.029.043.295-.107.507-.219 1.23-.33 2.15-.224 1.83-.441 4.385-.64 7.485-.4 6.237-.699 14.297-.82 22.245-.13 8.614-.046 16.52.268 22.476.321 6.113.965 10.25 1.39 10.613.487.417 9.63 1.106 22.908 1.515 13.144.404 30.66.624 48.846.624 18.187 0 35.662-.22 48.732-.624 6.893-.214 12.453-.475 16.412-.778 2.042-.156 3.644-.322 4.773-.494.813-.125 1.407-.287 1.287-.158z"/><path stroke="#000" stroke-linecap="round" stroke-width="4" d="M777.418 125.29c4.819 3.097 8.514 4.646 11.085 4.646 2.572 0 6.267-1.55 11.085-4.647M775.579 108.24v4.5M801.088 108.24v4.5"/><path fill="#FFF" stroke="#1D877A" stroke-linecap="square" stroke-width="3" d="M706.458 60.573c-1.457.626-1.457 23.735 0 69.327 6.394 11.86 9.917 17.316 10.568 16.367.976-1.424 0-12.137 0-30.174 0-12.025.314-23.541.943-34.549-6.218-14.607-10.055-21.598-11.511-20.971z"/><path stroke="#1D877A" stroke-linecap="square" stroke-width="3" d="M713.422 69.831h141.141"/><path stroke="#000" stroke-linecap="round" stroke-width="5" d="M709.667 112.24c-5.508-2.048-9.49-4.724-11.943-8.03-2.454-3.304-3.981-8.539-4.582-15.704"/></g><g><path fill="#FFF" stroke="#1D877A" stroke-linecap="square" stroke-width="3" d="M653.918 157.476c.822-.878-6.161-19.6-10.14-20.974-3.978-1.374-141.65-1.374-143.136 0-.72.666 2.683 5.223 5.506 10.144 3.003 5.235 4.552 10.83 5.21 10.83 1.278 0 141.737.88 142.56 0z"/><path stroke="#000" stroke-linecap="round" stroke-width="5" d="M656.808 191.45c5.062-1.837 8.16-4.644 9.294-8.42 1.135-3.776 1.135-9.368 0-16.777M573.189 218.426c-3.575 2.251-5.873 4.37-6.895 6.36-1.021 1.987-1.35 5.306-.987 9.954l-7.646 2.822M587.935 218.426c3.574 2.251 5.873 4.37 6.894 6.36 1.022 1.987 1.351 5.306.987 9.954l7.646 2.822"/><path fill="#FFF" stroke="#1D877A" stroke-width="3" d="M653.962 222.94c.356-.38.884-4.599 1.128-10.77.236-5.97.276-13.896.14-22.649-.122-7.87-.382-15.968-.708-22.294-.158-3.076-.326-5.617-.492-7.424a38.57 38.57 0 0 0-.222-1.981c-.24.025-.604-.019-.695-.025a150.856 150.856 0 0 0-4.649-.213c-3.904-.134-9.473-.258-16.375-.367-13.424-.21-31.297-.353-49.314-.394-18.874-.043-36.455.028-49.434.211-7.006.1-12.59.23-16.52.39-2.043.082-3.63.173-4.728.27-.521.047-1.277.176-1-.103.167-.168.1.028.043.295-.107.506-.219 1.23-.33 2.149-.224 1.831-.441 4.385-.64 7.486-.4 6.237-.698 14.297-.82 22.244-.13 8.614-.046 16.52.268 22.477.321 6.112.965 10.249 1.39 10.613.487.416 9.63 1.105 22.908 1.514 13.144.405 30.66.624 48.847.624 18.186 0 35.661-.219 48.73-.624 6.894-.213 12.454-.475 16.413-.777 2.042-.156 3.644-.322 4.774-.495.812-.124 1.406-.286 1.286-.158z"/><path stroke="#000" stroke-linecap="round" stroke-width="4" d="M571.029 201.39c4.818 3.098 8.513 4.647 11.085 4.647 2.571 0 6.266-1.549 11.084-4.646M569.189 184.342v4.5M594.698 184.342v4.5"/><path fill="#FFF" stroke="#1D877A" stroke-linecap="square" stroke-width="3" d="M500.068 136.674c-1.457.627-1.457 23.736 0 69.328 6.394 11.86 9.917 17.316 10.568 16.367.976-1.424 0-12.137 0-30.175 0-12.025.314-23.54.943-34.548-6.218-14.607-10.055-21.598-11.511-20.972z"/><path stroke="#1D877A" stroke-linecap="square" stroke-width="3" d="M507.032 145.933h141.141"/><path stroke="#000" stroke-linecap="round" stroke-width="5" d="M503.277 188.342c-5.508-2.048-9.49-4.725-11.943-8.03-2.454-3.304-3.981-8.54-4.582-15.705"/></g><g><path fill="#FFF" stroke="#1D877A" stroke-linecap="square" stroke-width="3" d="M873.693 306.234c-.822-.878 6.161-19.6 10.14-20.974 3.978-1.374 141.65-1.374 143.136 0 .72.666-2.683 5.223-5.506 10.144-3.003 5.235-4.552 10.83-5.21 10.83-1.277 0-141.737.879-142.56 0z"/><path stroke="#000" stroke-linecap="round" stroke-width="5" d="M870.804 340.208c-5.063-1.837-8.161-4.644-9.295-8.42-1.134-3.776-1.134-9.368 0-16.777M954.422 367.184c3.575 2.25 5.873 4.37 6.895 6.359 1.022 1.988 1.35 5.307.987 9.955l7.646 2.822M939.676 367.184c-3.574 2.25-5.873 4.37-6.894 6.359-1.022 1.988-1.35 5.307-.987 9.955l-7.646 2.822"/><path fill="#FFF" stroke="#1D877A" stroke-width="3" d="M873.649 371.697c-.356-.38-.884-4.598-1.128-10.77-.236-5.969-.276-13.895-.14-22.648.122-7.87.382-15.968.708-22.294.158-3.076.326-5.618.492-7.424.076-.833.15-1.5.222-1.982.24.026.604-.018.696-.024 1.073-.073 2.633-.144 4.648-.214 3.904-.134 9.473-.257 16.375-.366 13.424-.21 31.297-.353 49.314-.394 18.875-.043 36.455.028 49.434.211 7.006.099 12.59.229 16.52.389 2.044.083 3.63.174 4.728.271.522.047 1.277.176 1-.104-.167-.167-.1.03-.043.296.107.506.219 1.23.33 2.148.224 1.832.441 4.386.64 7.487.4 6.236.699 14.297.82 22.244.13 8.614.046 16.52-.268 22.477-.321 6.112-.965 10.249-1.39 10.612-.487.417-9.63 1.106-22.908 1.515-13.144.405-30.66.624-48.846.624-18.187 0-35.662-.22-48.732-.624-6.893-.214-12.453-.475-16.412-.777-2.042-.156-3.644-.322-4.773-.495-.813-.124-1.407-.286-1.287-.158z"/><path stroke="#000" stroke-linecap="round" stroke-width="4" d="M956.583 350.148c-4.819 3.098-8.514 4.647-11.085 4.647-2.572 0-6.267-1.549-11.085-4.647M958.422 333.1v4.5M932.913 333.1v4.5"/><path fill="#FFF" stroke="#1D877A" stroke-linecap="square" stroke-width="3" d="M1027.543 285.432c1.457.626 1.457 23.736 0 69.328-6.394 11.86-9.917 17.316-10.568 16.366-.976-1.423 0-12.136 0-30.174 0-12.025-.314-23.541-.943-34.548 6.218-14.608 10.055-21.598 11.511-20.972z"/><path stroke="#1D877A" stroke-linecap="square" stroke-width="3" d="M1020.579 294.69H879.438"/><path stroke="#000" stroke-linecap="round" stroke-width="5" d="M1024.334 337.1c5.508-2.049 9.49-4.725 11.943-8.03 2.454-3.304 3.981-8.54 4.582-15.705"/></g><g><path fill="#FFF" stroke="#1D877A" stroke-linecap="square" stroke-width="3" d="M901.913 157.476c-.823-.878 6.16-19.6 10.14-20.974 3.978-1.374 141.65-1.374 143.136 0 .72.666-2.684 5.223-5.507 10.144-3.003 5.235-4.551 10.83-5.21 10.83-1.277 0-141.737.88-142.56 0z"/><path stroke="#000" stroke-linecap="round" stroke-width="5" d="M899.023 191.45c-5.062-1.837-8.16-4.644-9.295-8.42-1.134-3.776-1.134-9.368 0-16.777M982.642 218.426c3.575 2.251 5.873 4.37 6.894 6.36 1.022 1.987 1.351 5.306.987 9.954l7.646 2.822M967.896 218.426c-3.575 2.251-5.873 4.37-6.895 6.36-1.021 1.987-1.35 5.306-.987 9.954l-7.646 2.822"/><path fill="#FFF" stroke="#1D877A" stroke-width="3" d="M901.868 222.94c-.355-.38-.884-4.599-1.127-10.77-.236-5.97-.276-13.896-.14-22.649.122-7.87.382-15.968.707-22.294.159-3.076.327-5.617.492-7.424.076-.832.151-1.5.222-1.981.24.025.605-.019.696-.025 1.073-.073 2.633-.144 4.648-.213 3.905-.134 9.473-.258 16.376-.367 13.424-.21 31.297-.353 49.313-.394 18.875-.043 36.455.028 49.434.211 7.007.1 12.591.23 16.52.39 2.044.082 3.63.173 4.729.27.521.047 1.276.176 1-.103-.167-.168-.1.028-.043.295.107.506.219 1.23.33 2.149.223 1.831.44 4.385.64 7.486.4 6.237.698 14.297.819 22.244.13 8.614.046 16.52-.267 22.477-.322 6.112-.965 10.249-1.39 10.613-.487.416-9.63 1.105-22.908 1.514-13.145.405-30.66.624-48.847.624s-35.662-.219-48.731-.624c-6.893-.213-12.454-.475-16.412-.777-2.042-.156-3.645-.322-4.774-.495-.812-.124-1.407-.286-1.287-.158z"/><path stroke="#000" stroke-linecap="round" stroke-width="4" d="M984.802 201.39c-4.818 3.098-8.513 4.647-11.085 4.647-2.572 0-6.267-1.549-11.085-4.646M986.642 184.342v4.5M961.132 184.342v4.5"/><path fill="#FFF" stroke="#1D877A" stroke-linecap="square" stroke-width="3" d="M1055.763 136.674c1.456.627 1.456 23.736 0 69.328-6.395 11.86-9.918 17.316-10.568 16.367-.976-1.424 0-12.137 0-30.175 0-12.025-.315-23.54-.944-34.548 6.218-14.607 10.056-21.598 11.512-20.972z"/><path stroke="#1D877A" stroke-linecap="square" stroke-width="3" d="M1048.798 145.933h-141.14"/><path stroke="#000" stroke-linecap="round" stroke-width="5" d="M1052.553 188.342c5.509-2.048 9.49-4.725 11.944-8.03 2.453-3.304 3.98-8.54 4.582-15.705"/></g><g><path fill="#FFF" stroke="#1D877A" stroke-linecap="square" stroke-width="3" d="M705.85 203.234c-.823-.878 6.16-19.6 10.139-20.974 3.978-1.374 141.65-1.374 143.137 0 .72.666-2.684 5.223-5.507 10.144-3.003 5.235-4.551 10.83-5.21 10.83-1.277 0-141.737.879-142.56 0z"/><path stroke="#000" stroke-linecap="round" stroke-width="5" d="M702.96 237.208c-5.063-1.837-8.16-4.644-9.295-8.42-1.134-3.776-1.134-9.368 0-16.777M786.579 264.184c3.574 2.25 5.872 4.37 6.894 6.359 1.022 1.988 1.35 5.307.987 9.955l7.646 2.822M771.833 264.184c-3.575 2.25-5.873 4.37-6.895 6.359-1.022 1.988-1.35 5.307-.987 9.955l-7.646 2.822"/><path fill="#FFF" stroke="#1D877A" stroke-width="3" d="M705.805 268.697c-.356-.38-.884-4.598-1.128-10.77-.235-5.969-.276-13.895-.14-22.648.122-7.87.383-15.968.708-22.294.158-3.076.326-5.618.492-7.424.076-.833.151-1.5.222-1.982.24.026.605-.018.696-.024 1.073-.073 2.633-.144 4.648-.214 3.904-.134 9.473-.257 16.376-.366 13.423-.21 31.297-.353 49.313-.394 18.875-.043 36.455.028 49.434.211 7.006.099 12.59.229 16.52.389 2.044.083 3.63.174 4.729.271.52.047 1.276.176.999-.104-.167-.167-.1.03-.043.296.108.506.22 1.23.331 2.148.223 1.832.44 4.386.64 7.487.399 6.236.698 14.297.818 22.244.131 8.614.047 16.52-.266 22.477-.322 6.112-.966 10.249-1.39 10.612-.488.417-9.63 1.106-22.909 1.515-13.144.405-30.66.624-48.846.624-18.187 0-35.662-.22-48.731-.624-6.894-.214-12.454-.475-16.413-.777-2.041-.156-3.644-.322-4.773-.495-.812-.124-1.407-.286-1.287-.158z"/><path stroke="#000" stroke-linecap="round" stroke-width="4" d="M788.739 247.148c-4.819 3.098-8.513 4.647-11.085 4.647-2.572 0-6.267-1.549-11.085-4.647M790.579 230.1v4.5M765.069 230.1v4.5"/><path fill="#FFF" stroke="#1D877A" stroke-linecap="square" stroke-width="3" d="M859.7 182.432c1.456.626 1.456 23.736 0 69.328-6.395 11.86-9.918 17.316-10.569 16.366-.976-1.423 0-12.136 0-30.174 0-12.025-.314-23.541-.943-34.548 6.218-14.608 10.055-21.598 11.512-20.972z"/><path stroke="#1D877A" stroke-linecap="square" stroke-width="3" d="M852.735 191.69h-141.14"/><path stroke="#000" stroke-linecap="round" stroke-width="5" d="M856.49 234.1c5.508-2.049 9.49-4.725 11.943-8.03 2.454-3.304 3.981-8.54 4.582-15.705"/></g></g></g></svg>
