<svg xmlns="http://www.w3.org/2000/svg" xmlns:xlink="http://www.w3.org/1999/xlink" width="428" height="393"><defs><path id="a" d="M.79.67h426.706V393H.79V.67z"/><mask id="b" width="426.707" height="392.33" x="0" y="0" fill="#fff"><use xlink:href="#a"/></mask></defs><g fill="none" fill-rule="evenodd"><path fill="#FFF" stroke="#1D877A" stroke-linecap="square" stroke-width="3" d="M142.963 56.656c.823-.879-24.198-38.01-28.176-39.385-3.978-1.374-86.045-1.374-87.531 0-.72.666 9.413 14.452 12.236 19.373 3.003 5.235 10.253 20.012 10.912 20.012 1.277 0 91.737.879 92.56 0z"/><path stroke="#000" stroke-linecap="round" stroke-width="5" d="M145.853 82.244c5.063-1.837 8.161-4.644 9.295-8.42 1.134-3.776 1.134-9.368 0-16.777M82.607 117.605c-3.575 2.252-5.873 4.372-6.895 6.36-1.021 1.988-1.35 5.306-.986 9.955l-7.646 2.822M102.353 117.605c3.575 2.252 5.873 4.372 6.895 6.36 1.021 1.988 1.35 5.306.986 9.955l7.646 2.822"/><path fill="#FFF" stroke="#1D877A" stroke-width="3" d="M143.005 122.122c.356-.363.886-4.587 1.13-10.772.236-5.97.277-13.897.14-22.649-.121-7.87-.382-15.968-.707-22.294-.158-3.076-.326-5.618-.492-7.424a38.38 38.38 0 0 0-.223-1.99c-.074-.006-.145-.017-.183-.02a67.357 67.357 0 0 0-3.037-.21c-2.56-.134-6.197-.258-10.693-.366-8.758-.21-20.384-.353-32.102-.394-12.28-.043-23.73.028-32.221.21-4.576.1-8.238.23-10.832.388-1.34.082-2.383.172-3.11.266-.354.047-.731.138-.499-.097.167-.168.1.029.043.295-.107.507-.22 1.231-.331 2.15-.223 1.83-.44 4.385-.64 7.485-.399 6.237-.698 14.297-.818 22.245-.131 8.614-.047 16.52.266 22.477.322 6.112.966 10.249 1.39 10.612 1.337 1.144 22.42 2.139 46.737 2.139 11.729 0 23.006-.219 31.506-.623 4.468-.213 8.097-.473 10.712-.773 1.334-.153 2.391-.315 3.145-.482.552-.122.893-.25.82-.173z"/><path stroke="#000" stroke-linecap="round" stroke-width="4" d="M85.447 99.293c4.818 3.097 8.513 4.646 11.085 4.646 2.571 0 6.266-1.549 11.085-4.646M83.607 82.244v4.5M109.117 82.244v4.5"/><path fill="#FFF" stroke="#1D877A" stroke-linecap="square" stroke-width="3" d="M27.281 18.912c-1.456.626-1.456 22.82 0 66.578 14.283 24.988 21.75 37.008 22.4 36.058.977-1.423 0-12.136 0-30.174 0-12.025.315-23.541.944-34.548-14.106-25.902-21.887-38.54-23.344-37.914z"/><path stroke="#1D877A" stroke-linecap="square" stroke-width="3" d="M38.596 35.79h90.527"/><path stroke="#000" stroke-linecap="round" stroke-width="5" d="M37.46 76.148c-5.508-2.048-9.489-4.724-11.943-8.03-2.453-3.304-5.987-7.847-10.6-13.627"/><use stroke="#1D877A" stroke-dasharray="18" stroke-width="12" mask="url(#b)" xlink:href="#a"/><g><path fill="#FFF" stroke="#1D877A" stroke-linecap="square" stroke-width="3" d="M353.706 56.656c.822-.879-24.198-38.01-28.177-39.385-3.978-1.374-86.045-1.374-87.531 0-.72.666 9.414 14.452 12.236 19.373 3.003 5.235 10.254 20.012 10.912 20.012 1.277 0 91.737.879 92.56 0z"/><path stroke="#000" stroke-linecap="round" stroke-width="5" d="M356.595 82.244c5.063-1.837 8.161-4.644 9.295-8.42 1.134-3.776 1.134-9.368 0-16.777M293.35 117.605c-3.575 2.252-5.874 4.372-6.895 6.36-1.022 1.988-1.351 5.306-.987 9.955l-7.646 2.822M313.095 117.605c3.575 2.252 5.873 4.372 6.895 6.36 1.021 1.988 1.35 5.306.987 9.955l7.646 2.822"/><path fill="#FFF" stroke="#1D877A" stroke-width="3" d="M353.747 122.122c.356-.363.887-4.587 1.13-10.772.237-5.97.277-13.897.141-22.649-.122-7.87-.382-15.968-.708-22.294-.158-3.076-.326-5.618-.492-7.424a38.38 38.38 0 0 0-.223-1.99c-.074-.006-.145-.017-.182-.02a67.357 67.357 0 0 0-3.037-.21c-2.561-.134-6.198-.258-10.694-.366-8.758-.21-20.384-.353-32.102-.394-12.28-.043-23.73.028-32.221.21-4.576.1-8.238.23-10.832.388-1.339.082-2.383.172-3.11.266-.354.047-.731.138-.499-.097.167-.168.1.029.043.295-.107.507-.219 1.231-.33 2.15-.224 1.83-.441 4.385-.64 7.485-.4 6.237-.699 14.297-.82 22.245-.13 8.614-.046 16.52.268 22.477.321 6.112.965 10.249 1.39 10.612 1.336 1.144 22.418 2.139 46.736 2.139 11.729 0 23.006-.219 31.506-.623 4.468-.213 8.097-.473 10.712-.773 1.334-.153 2.392-.315 3.145-.482.552-.122.894-.25.82-.173z"/><path stroke="#000" stroke-linecap="round" stroke-width="4" d="M296.189 99.293c4.818 3.097 8.513 4.646 11.085 4.646 2.572 0 6.267-1.549 11.085-4.646M294.35 82.244v4.5M319.859 82.244v4.5"/><path fill="#FFF" stroke="#1D877A" stroke-linecap="square" stroke-width="3" d="M238.023 18.912c-1.456.626-1.456 22.82 0 66.578 14.283 24.988 21.75 37.008 22.4 36.058.977-1.423 0-12.136 0-30.174 0-12.025.315-23.541.944-34.548-14.106-25.902-21.887-38.54-23.344-37.914z"/><path stroke="#1D877A" stroke-linecap="square" stroke-width="3" d="M249.338 35.79h90.527"/><path stroke="#000" stroke-linecap="round" stroke-width="5" d="M248.203 76.148c-5.508-2.048-9.49-4.724-11.943-8.03-2.454-3.304-5.988-7.847-10.6-13.627"/></g><g><path fill="#FFF" stroke="#1D877A" stroke-linecap="square" stroke-width="3" d="M142.963 260.203c.823-.879-24.198-38.01-28.176-39.385-3.978-1.374-86.045-1.374-87.531 0-.72.666 9.413 14.452 12.236 19.373 3.003 5.235 10.253 20.012 10.912 20.012 1.277 0 91.737.879 92.56 0z"/><path stroke="#000" stroke-linecap="round" stroke-width="5" d="M145.853 285.79c5.063-1.836 8.161-4.643 9.295-8.42 1.134-3.775 1.134-9.368 0-16.776M82.607 321.152c-3.575 2.252-5.873 4.371-6.895 6.36-1.021 1.988-1.35 5.306-.986 9.955l-7.646 2.822M102.353 321.152c3.575 2.252 5.873 4.371 6.895 6.36 1.021 1.988 1.35 5.306.986 9.955l7.646 2.822"/><path fill="#FFF" stroke="#1D877A" stroke-width="3" d="M143.005 325.668c.356-.362.886-4.586 1.13-10.772.236-5.969.277-13.896.14-22.648-.121-7.87-.382-15.969-.707-22.294-.158-3.076-.326-5.618-.492-7.424a38.38 38.38 0 0 0-.223-1.99c-.074-.006-.145-.017-.183-.02a67.357 67.357 0 0 0-3.037-.21c-2.56-.135-6.197-.258-10.693-.366-8.758-.211-20.384-.353-32.102-.394-12.28-.043-23.73.028-32.221.21-4.576.1-8.238.229-10.832.388-1.34.082-2.383.172-3.11.266-.354.046-.731.138-.499-.097.167-.168.1.029.043.295-.107.507-.22 1.23-.331 2.15-.223 1.83-.44 4.385-.64 7.485-.399 6.237-.698 14.297-.818 22.245-.131 8.614-.047 16.52.266 22.476.322 6.113.966 10.25 1.39 10.613 1.337 1.144 22.42 2.139 46.737 2.139 11.729 0 23.006-.219 31.506-.623 4.468-.213 8.097-.473 10.712-.773 1.334-.153 2.391-.316 3.145-.482.552-.122.893-.25.82-.174z"/><path stroke="#000" stroke-linecap="round" stroke-width="4" d="M85.447 302.84c4.818 3.097 8.513 4.646 11.085 4.646 2.571 0 6.266-1.549 11.085-4.646M83.607 285.79v4.5M109.117 285.79v4.5"/><path fill="#FFF" stroke="#1D877A" stroke-linecap="square" stroke-width="3" d="M27.281 222.459c-1.456.626-1.456 22.819 0 66.578 14.283 24.988 21.75 37.007 22.4 36.058.977-1.424 0-12.136 0-30.174 0-12.025.315-23.541.944-34.548-14.106-25.902-21.887-38.54-23.344-37.914z"/><path stroke="#1D877A" stroke-linecap="square" stroke-width="3" d="M38.596 239.336h90.527"/><path stroke="#000" stroke-linecap="round" stroke-width="5" d="M37.46 279.695c-5.508-2.048-9.489-4.725-11.943-8.03-2.453-3.304-5.987-7.847-10.6-13.627"/></g><g><path fill="#FFF" stroke="#1D877A" stroke-linecap="square" stroke-width="3" d="M353.706 260.203c.822-.879-24.198-38.01-28.177-39.385-3.978-1.374-86.045-1.374-87.531 0-.72.666 9.414 14.452 12.236 19.373 3.003 5.235 10.254 20.012 10.912 20.012 1.277 0 91.737.879 92.56 0z"/><path stroke="#000" stroke-linecap="round" stroke-width="5" d="M356.595 285.79c5.063-1.836 8.161-4.643 9.295-8.42 1.134-3.775 1.134-9.368 0-16.776M293.35 321.152c-3.575 2.252-5.874 4.371-6.895 6.36-1.022 1.988-1.351 5.306-.987 9.955l-7.646 2.822M313.095 321.152c3.575 2.252 5.873 4.371 6.895 6.36 1.021 1.988 1.35 5.306.987 9.955l7.646 2.822"/><path fill="#FFF" stroke="#1D877A" stroke-width="3" d="M353.747 325.668c.356-.362.887-4.586 1.13-10.772.237-5.969.277-13.896.141-22.648-.122-7.87-.382-15.969-.708-22.294-.158-3.076-.326-5.618-.492-7.424a38.38 38.38 0 0 0-.223-1.99c-.074-.006-.145-.017-.182-.02a67.357 67.357 0 0 0-3.037-.21c-2.561-.135-6.198-.258-10.694-.366-8.758-.211-20.384-.353-32.102-.394-12.28-.043-23.73.028-32.221.21-4.576.1-8.238.229-10.832.388-1.339.082-2.383.172-3.11.266-.354.046-.731.138-.499-.097.167-.168.1.029.043.295-.107.507-.219 1.23-.33 2.15-.224 1.83-.441 4.385-.64 7.485-.4 6.237-.699 14.297-.82 22.245-.13 8.614-.046 16.52.268 22.476.321 6.113.965 10.25 1.39 10.613 1.336 1.144 22.418 2.139 46.736 2.139 11.729 0 23.006-.219 31.506-.623 4.468-.213 8.097-.473 10.712-.773 1.334-.153 2.392-.316 3.145-.482.552-.122.894-.25.82-.174z"/><path stroke="#000" stroke-linecap="round" stroke-width="4" d="M296.189 302.84c4.818 3.097 8.513 4.646 11.085 4.646 2.572 0 6.267-1.549 11.085-4.646M294.35 285.79v4.5M319.859 285.79v4.5"/><path fill="#FFF" stroke="#1D877A" stroke-linecap="square" stroke-width="3" d="M238.023 222.459c-1.456.626-1.456 22.819 0 66.578 14.283 24.988 21.75 37.007 22.4 36.058.977-1.424 0-12.136 0-30.174 0-12.025.315-23.541.944-34.548-14.106-25.902-21.887-38.54-23.344-37.914z"/><path stroke="#1D877A" stroke-linecap="square" stroke-width="3" d="M249.338 239.336h90.527"/><path stroke="#000" stroke-linecap="round" stroke-width="5" d="M248.203 279.695c-5.508-2.048-9.49-4.725-11.943-8.03-2.454-3.304-5.988-7.847-10.6-13.627"/></g><path stroke="#1D877A" stroke-dasharray="16 24" stroke-linecap="square" stroke-width="6" d="M6.643 207.5h415.019M214.143 390V.67"/></g></svg>