<svg xmlns="http://www.w3.org/2000/svg" xmlns:xlink="http://www.w3.org/1999/xlink" viewBox="0 0 790 482"><defs><path id="a" d="M0 131h482v220H0V131z"/><mask id="c" width="482" height="220" x="0" y="0" fill="#fff"><use xlink:href="#a"/></mask><path id="b" d="M570 0h220v482H570V0z"/><mask id="d" width="220" height="482" x="0" y="0" fill="#fff"><use xlink:href="#b"/></mask></defs><g fill="none" fill-rule="evenodd"><path fill="#FFF" stroke="#1D877A" stroke-linecap="square" stroke-width="3" d="M152.729 273.031c.823-.879-8.562-19.796-10.14-20.974-1.576-1.178-91.65-1.374-93.136 0-.72.666 2.684 5.223 5.506 10.143 3.004 5.235 4.552 10.831 5.21 10.831 1.278 0 91.737.879 92.56 0z"/><path stroke="#000" stroke-linecap="round" stroke-width="5" d="M153.84 299.75c5.062 1.837 8.16 4.644 9.295 8.42 1.134 3.776 1.134 9.368 0 16.777M95 330.98c-3.575 2.252-5.873 4.372-6.895 6.36-1.021 1.988-1.35 5.306-.986 9.955l-7.646 2.822M109.746 330.98c3.575 2.252 5.873 4.372 6.895 6.36 1.021 1.988 1.35 5.306.986 9.955l7.646 2.822"/><path fill="#FFF" stroke="#1D877A" stroke-width="3" d="M152.618 273.368c-.074-.006-.145-.017-.182-.02a67.407 67.407 0 0 0-3.038-.21c-2.563-.134-6.2-.258-10.698-.366-8.762-.21-20.392-.353-32.115-.394-12.285-.043-23.74.028-32.234.21-4.578.1-8.241.23-10.836.388-1.34.082-2.384.172-3.111.266-.354.047-.732.138-.5-.097.167-.168.1.029.043.295-.107.507-.219 1.231-.33 2.15-.223 1.83-.441 4.385-.64 7.485-.4 6.237-.698 14.297-.819 22.245-.13 8.614-.046 16.52.267 22.477.321 6.112.965 10.249 1.39 10.612 1.337 1.144 22.427 2.139 46.755 2.139 11.734 0 23.015-.219 31.519-.623 4.47-.213 8.1-.473 10.716-.773 1.335-.153 2.392-.315 3.147-.482.552-.122.893-.25.819-.173.356-.362.886-4.586 1.13-10.772.236-5.97.276-13.897.14-22.649-.122-7.87-.382-15.968-.707-22.294-.159-3.076-.327-5.618-.492-7.424a38.38 38.38 0 0 0-.224-1.99z"/><path stroke="#000" stroke-linecap="round" stroke-width="4" d="M94.84 316.549c4.818 3.097 8.513 4.646 11.085 4.646 2.571 0 6.266-1.549 11.085-4.646M93 299.5v4.5M118.51 299.5v4.5"/><path fill="#FFF" stroke="#1D877A" stroke-linecap="square" stroke-width="3" d="M48.879 252.229c-1.456.626-1.456 23.736 0 69.328 6.395 11.86 9.918 17.316 10.568 16.366.976-1.423 0-12.136 0-30.174 0-12.025.315-23.541.944-34.548-6.218-14.608-10.056-21.598-11.512-20.972z"/><path stroke="#1D877A" stroke-linecap="square" stroke-width="3" d="M55.844 261.487h90.089"/><path stroke="#000" stroke-linecap="round" stroke-width="5" d="M52.28 295.138c-5.508 2.048-9.49 4.724-11.943 8.029-2.454 3.305-3.981 8.54-4.582 15.705"/><g><path fill="#FFF" stroke="#1D877A" stroke-linecap="square" stroke-width="3" d="M433.729 273.031c.823-.879-8.562-19.796-10.14-20.974-1.576-1.178-91.65-1.374-93.136 0-.72.666 2.684 5.223 5.506 10.143 3.004 5.235 4.552 10.831 5.21 10.831 1.278 0 91.737.879 92.56 0z"/><path stroke="#000" stroke-linecap="round" stroke-width="5" d="M434.84 299.75c5.062 1.837 8.16 4.644 9.295 8.42 1.134 3.776 1.134 9.368 0 16.777M376 330.98c-3.575 2.252-5.873 4.372-6.895 6.36-1.021 1.988-1.35 5.306-.986 9.955l-7.646 2.822M390.746 330.98c3.575 2.252 5.873 4.372 6.895 6.36 1.021 1.988 1.35 5.306.986 9.955l7.646 2.822"/><path fill="#FFF" stroke="#1D877A" stroke-width="3" d="M433.618 273.368c-.074-.006-.145-.017-.182-.02a67.407 67.407 0 0 0-3.038-.21c-2.563-.134-6.2-.258-10.698-.366-8.762-.21-20.392-.353-32.115-.394-12.285-.043-23.74.028-32.234.21-4.578.1-8.241.23-10.836.388-1.34.082-2.384.172-3.111.266-.354.047-.732.138-.5-.097.167-.168.1.029.043.295-.107.507-.219 1.231-.33 2.15-.223 1.83-.441 4.385-.64 7.485-.4 6.237-.698 14.297-.819 22.245-.13 8.614-.046 16.52.267 22.477.321 6.112.965 10.249 1.39 10.612 1.337 1.144 22.427 2.139 46.755 2.139 11.734 0 23.015-.219 31.519-.623 4.47-.213 8.1-.473 10.716-.773 1.335-.153 2.392-.315 3.147-.482.552-.122.893-.25.819-.173.356-.362.886-4.586 1.13-10.772.236-5.97.276-13.897.14-22.649-.122-7.87-.382-15.968-.707-22.294-.159-3.076-.327-5.618-.492-7.424a38.38 38.38 0 0 0-.224-1.99z"/><path stroke="#000" stroke-linecap="round" stroke-width="4" d="M375.84 316.549c4.818 3.097 8.513 4.646 11.085 4.646 2.571 0 6.266-1.549 11.085-4.646M374 299.5v4.5M399.51 299.5v4.5"/><path fill="#FFF" stroke="#1D877A" stroke-linecap="square" stroke-width="3" d="M329.879 252.229c-1.456.626-1.456 23.736 0 69.328 6.395 11.86 9.918 17.316 10.568 16.366.976-1.423 0-12.136 0-30.174 0-12.025.315-23.541.944-34.548-6.218-14.608-10.056-21.598-11.512-20.972z"/><path stroke="#1D877A" stroke-linecap="square" stroke-width="3" d="M336.844 261.487h90.089"/><path stroke="#000" stroke-linecap="round" stroke-width="5" d="M333.28 295.138c-5.508 2.048-9.49 4.724-11.943 8.029-2.454 3.305-3.981 8.54-4.582 15.705"/></g><g><path fill="#FFF" stroke="#1D877A" stroke-linecap="square" stroke-width="3" d="M293.729 273.031c.823-.879-8.562-19.796-10.14-20.974-1.576-1.178-91.65-1.374-93.136 0-.72.666 2.684 5.223 5.506 10.143 3.004 5.235 4.552 10.831 5.21 10.831 1.278 0 91.737.879 92.56 0z"/><path stroke="#000" stroke-linecap="round" stroke-width="5" d="M294.84 299.75c5.062 1.837 8.16 4.644 9.295 8.42 1.134 3.776 1.134 9.368 0 16.777M236 330.98c-3.575 2.252-5.873 4.372-6.895 6.36-1.021 1.988-1.35 5.306-.986 9.955l-7.646 2.822M250.746 330.98c3.575 2.252 5.873 4.372 6.895 6.36 1.021 1.988 1.35 5.306.986 9.955l7.646 2.822"/><path fill="#FFF" stroke="#1D877A" stroke-width="3" d="M293.618 273.368c-.074-.006-.145-.017-.182-.02a67.407 67.407 0 0 0-3.038-.21c-2.563-.134-6.2-.258-10.698-.366-8.762-.21-20.392-.353-32.115-.394-12.285-.043-23.74.028-32.234.21-4.578.1-8.241.23-10.836.388-1.34.082-2.384.172-3.111.266-.354.047-.732.138-.5-.097.167-.168.1.029.043.295-.107.507-.219 1.231-.33 2.15-.223 1.83-.441 4.385-.64 7.485-.4 6.237-.698 14.297-.819 22.245-.13 8.614-.046 16.52.267 22.477.321 6.112.965 10.249 1.39 10.612 1.337 1.144 22.427 2.139 46.755 2.139 11.734 0 23.015-.219 31.519-.623 4.47-.213 8.1-.473 10.716-.773 1.335-.153 2.392-.315 3.147-.482.552-.122.894-.25.819-.173.356-.362.886-4.586 1.13-10.772.236-5.97.276-13.897.14-22.649-.122-7.87-.382-15.968-.707-22.294-.159-3.076-.327-5.618-.492-7.424a38.38 38.38 0 0 0-.224-1.99z"/><path stroke="#000" stroke-linecap="round" stroke-width="4" d="M235.84 316.549c4.818 3.097 8.513 4.646 11.085 4.646 2.571 0 6.266-1.549 11.085-4.646M234 299.5v4.5M259.51 299.5v4.5"/><path fill="#FFF" stroke="#1D877A" stroke-linecap="square" stroke-width="3" d="M189.879 252.229c-1.456.626-1.456 23.736 0 69.328 6.395 11.86 9.918 17.316 10.568 16.366.976-1.423 0-12.136 0-30.174 0-12.025.315-23.541.944-34.548-6.218-14.608-10.056-21.598-11.512-20.972z"/><path stroke="#1D877A" stroke-linecap="square" stroke-width="3" d="M196.844 261.487h90.089"/><path stroke="#000" stroke-linecap="round" stroke-width="5" d="M193.28 295.138c-5.508 2.048-9.49 4.724-11.943 8.029-2.454 3.305-3.981 8.54-4.582 15.705"/></g><use stroke="#1D877A" stroke-dasharray="18" stroke-width="12" mask="url(#c)" xlink:href="#a"/><g><path fill="#FFF" stroke="#1D877A" stroke-linecap="square" stroke-width="3" d="M652.922 157.542c.879.822 19.796-8.563 20.974-10.14 1.179-1.577 1.374-91.65 0-93.136-.666-.72-5.223 2.683-10.143 5.506-5.235 3.003-10.831 4.552-10.831 5.21 0 1.277-.879 91.737 0 92.56z"/><path stroke="#000" stroke-linecap="round" stroke-width="5" d="M626.203 158.652c-1.837 5.063-4.644 8.161-8.42 9.295-3.776 1.134-9.368 1.134-16.777 0M594.973 99.813c-2.252-3.575-4.371-5.873-6.36-6.895-1.988-1.022-5.306-1.35-9.955-.987l-2.822-7.646M594.973 114.559c-2.252 3.574-4.371 5.872-6.36 6.894-1.988 1.022-5.306 1.35-9.955.987l-2.822 7.646"/><path fill="#FFF" stroke="#1D877A" stroke-width="3" d="M652.585 157.43c.006-.073.017-.144.02-.182.072-.703.142-1.724.21-3.038.135-2.562.258-6.2.366-10.697.211-8.762.353-20.393.394-32.116.043-12.285-.028-23.74-.21-32.233-.1-4.578-.229-8.242-.388-10.837-.082-1.34-.172-2.384-.266-3.11-.046-.355-.138-.732.097-.5.168.167-.029.1-.295.043a26.568 26.568 0 0 0-2.15-.33c-1.83-.224-4.385-.442-7.485-.64-6.237-.4-14.297-.699-22.245-.82-8.614-.13-16.52-.046-22.476.267-6.113.322-10.25.966-10.613 1.39-1.144 1.337-2.139 22.428-2.139 46.755 0 11.734.219 23.016.623 31.52.213 4.47.473 8.1.773 10.715.153 1.335.316 2.393.482 3.147.122.552.25.894.173.82.362.355 4.586.886 10.773 1.13 5.969.236 13.896.276 22.648.14 7.87-.122 15.969-.382 22.294-.708 3.076-.158 5.618-.326 7.424-.492a38.38 38.38 0 0 0 1.99-.223z"/><path stroke="#000" stroke-linecap="round" stroke-width="4" d="M609.404 99.652c-3.097 4.819-4.646 8.514-4.646 11.085 0 2.572 1.549 6.267 4.646 11.085M626.453 97.813h-4.5M626.453 123.322h-4.5"/><path fill="#FFF" stroke="#1D877A" stroke-linecap="square" stroke-width="3" d="M673.724 53.691c-.626-1.456-23.735-1.456-69.328 0-11.86 6.395-17.315 9.918-16.366 10.569 1.424.976 12.136 0 30.174 0 12.025 0 23.541.314 34.548.943 14.608-6.218 21.598-10.055 20.972-11.512z"/><path stroke="#1D877A" stroke-linecap="square" stroke-width="3" d="M664.466 60.656v90.09"/><path stroke="#000" stroke-linecap="round" stroke-width="5" d="M630.815 57.093c-2.048-5.509-4.724-9.49-8.029-11.944-3.305-2.453-8.54-3.98-15.705-4.582"/></g><g><path fill="#FFF" stroke="#1D877A" stroke-linecap="square" stroke-width="3" d="M652.922 438.542c.879.822 19.796-8.563 20.974-10.14 1.179-1.577 1.374-91.65 0-93.136-.666-.72-5.223 2.683-10.143 5.506-5.235 3.003-10.831 4.552-10.831 5.21 0 1.277-.879 91.737 0 92.56z"/><path stroke="#000" stroke-linecap="round" stroke-width="5" d="M626.203 439.652c-1.837 5.063-4.644 8.161-8.42 9.295-3.776 1.134-9.368 1.134-16.777 0M594.973 380.813c-2.252-3.575-4.371-5.873-6.36-6.895-1.988-1.022-5.306-1.35-9.955-.987l-2.822-7.646M594.973 395.559c-2.252 3.574-4.371 5.872-6.36 6.894-1.988 1.022-5.306 1.35-9.955.987l-2.822 7.646"/><path fill="#FFF" stroke="#1D877A" stroke-width="3" d="M652.585 438.43c.006-.073.017-.144.02-.182.072-.703.142-1.724.21-3.038.135-2.562.258-6.2.366-10.697.211-8.762.353-20.393.394-32.116.043-12.285-.028-23.74-.21-32.233-.1-4.578-.229-8.242-.388-10.837-.082-1.34-.172-2.384-.266-3.11-.046-.355-.138-.732.097-.5.168.167-.029.1-.295.043a26.568 26.568 0 0 0-2.15-.33c-1.83-.224-4.385-.442-7.485-.64-6.237-.4-14.297-.699-22.245-.82-8.614-.13-16.52-.046-22.476.267-6.113.322-10.25.966-10.613 1.39-1.144 1.337-2.139 22.428-2.139 46.755 0 11.734.219 23.016.623 31.52.213 4.47.473 8.1.773 10.715.153 1.335.316 2.393.482 3.147.122.552.25.894.173.82.362.355 4.586.886 10.773 1.13 5.969.236 13.896.276 22.648.14 7.87-.122 15.969-.382 22.294-.708 3.076-.158 5.618-.326 7.424-.492a38.38 38.38 0 0 0 1.99-.223z"/><path stroke="#000" stroke-linecap="round" stroke-width="4" d="M609.404 380.652c-3.097 4.819-4.646 8.514-4.646 11.085 0 2.572 1.549 6.267 4.646 11.085M626.453 378.813h-4.5M626.453 404.322h-4.5"/><path fill="#FFF" stroke="#1D877A" stroke-linecap="square" stroke-width="3" d="M673.724 334.691c-.626-1.456-23.735-1.456-69.328 0-11.86 6.395-17.315 9.918-16.366 10.569 1.424.976 12.136 0 30.174 0 12.025 0 23.541.314 34.548.943 14.608-6.218 21.598-10.055 20.972-11.512z"/><path stroke="#1D877A" stroke-linecap="square" stroke-width="3" d="M664.466 341.656v90.09"/><path stroke="#000" stroke-linecap="round" stroke-width="5" d="M630.815 338.093c-2.048-5.509-4.724-9.49-8.029-11.944-3.305-2.453-8.54-3.98-15.705-4.582"/></g><g><path fill="#FFF" stroke="#1D877A" stroke-linecap="square" stroke-width="3" d="M652.922 298.542c.879.822 19.796-8.563 20.974-10.14 1.179-1.577 1.374-91.65 0-93.136-.666-.72-5.223 2.683-10.143 5.506-5.235 3.003-10.831 4.552-10.831 5.21 0 1.277-.879 91.737 0 92.56z"/><path stroke="#000" stroke-linecap="round" stroke-width="5" d="M626.203 299.652c-1.837 5.063-4.644 8.161-8.42 9.295-3.776 1.134-9.368 1.134-16.777 0M594.973 240.813c-2.252-3.575-4.371-5.873-6.36-6.895-1.988-1.022-5.306-1.35-9.955-.987l-2.822-7.646M594.973 255.559c-2.252 3.574-4.371 5.872-6.36 6.894-1.988 1.022-5.306 1.35-9.955.987l-2.822 7.646"/><path fill="#FFF" stroke="#1D877A" stroke-width="3" d="M652.585 298.43c.006-.073.017-.144.02-.182.072-.703.142-1.724.21-3.038.135-2.562.258-6.2.366-10.697.211-8.762.353-20.393.394-32.116.043-12.285-.028-23.74-.21-32.233-.1-4.578-.229-8.242-.388-10.837-.082-1.34-.172-2.384-.266-3.11-.046-.355-.138-.732.097-.5.168.167-.029.1-.295.043a26.568 26.568 0 0 0-2.15-.33c-1.83-.224-4.385-.442-7.485-.64-6.237-.4-14.297-.699-22.245-.82-8.614-.13-16.52-.046-22.476.267-6.113.322-10.25.966-10.613 1.39-1.144 1.337-2.139 22.428-2.139 46.755 0 11.734.219 23.016.623 31.52.213 4.47.473 8.1.773 10.715.153 1.335.316 2.393.482 3.147.122.552.25.894.173.82.362.355 4.586.886 10.773 1.13 5.969.236 13.896.276 22.648.14 7.87-.122 15.969-.382 22.294-.708 3.076-.158 5.618-.326 7.424-.492a38.38 38.38 0 0 0 1.99-.223z"/><path stroke="#000" stroke-linecap="round" stroke-width="4" d="M609.404 240.652c-3.097 4.819-4.646 8.514-4.646 11.085 0 2.572 1.549 6.267 4.646 11.085M626.453 238.813h-4.5M626.453 264.322h-4.5"/><path fill="#FFF" stroke="#1D877A" stroke-linecap="square" stroke-width="3" d="M673.724 194.691c-.626-1.456-23.735-1.456-69.328 0-11.86 6.395-17.315 9.918-16.366 10.569 1.424.976 12.136 0 30.174 0 12.025 0 23.541.314 34.548.943 14.608-6.218 21.598-10.055 20.972-11.512z"/><path stroke="#1D877A" stroke-linecap="square" stroke-width="3" d="M664.466 201.656v90.09"/><path stroke="#000" stroke-linecap="round" stroke-width="5" d="M630.815 198.093c-2.048-5.509-4.724-9.49-8.029-11.944-3.305-2.453-8.54-3.98-15.705-4.582"/></g><use stroke="#1D877A" stroke-dasharray="18" stroke-width="12" mask="url(#d)" xlink:href="#b"/></g></svg>