<svg xmlns="http://www.w3.org/2000/svg" viewBox="0 0 548 373"><g fill="none" fill-rule="evenodd"><path fill="#FFF" stroke="#1D877A" stroke-linecap="square" stroke-width="6" d="M541.73 228.531c.412-.44-59.884-55.499-112.378-110.54C376.964 63.058 327.574 15.494 318.992 7.556c-8.582-7.938-307.102-1.374-308.588 0-.72.666 210.058 220.974 210.717 220.974 1.277 0 319.787.879 320.61 0z"/><path stroke="#000" stroke-linecap="round" stroke-width="5" d="M314.791 255.25c5.063 1.837 8.16 4.644 9.295 8.42 1.134 3.776 1.134 9.368 0 16.777M255.951 286.48c-3.574 2.252-5.873 4.372-6.894 6.36-1.022 1.988-1.351 5.306-.987 9.955l-7.646 2.822M270.697 286.48c3.575 2.252 5.873 4.372 6.895 6.36 1.021 1.988 1.35 5.306.987 9.955l7.646 2.822"/><path stroke="#000" stroke-linecap="round" stroke-width="16" d="M419.953 154.157c19.885-.206 34.668-5.2 44.351-14.982s15.655-30.018 17.914-60.707M360.658 287.635c15.903 10.838 26.075 22.49 30.516 34.957 4.44 12.468 6.371 26.533 5.793 42.196h31.39M187.326 241.276c3.254 13.597 3.013 26.743-.722 39.44-3.736 12.696-12.047 24.135-24.933 34.317l10.385 27.467"/><path stroke="#1D877A" stroke-linecap="square" stroke-width="6" d="M314.313 88.385h-220"/><path fill="#EEE" stroke="#1D877A" stroke-linecap="square" stroke-width="6" d="M320.89 8.219c-4.088 2.096-6.12 28.593-6.099 79.49 84.137 83.505 129.8 129.482 136.99 137.93 4.875 0 90.05 6.982 90.05 3.199 0-3.783-214.807-223.764-220.94-220.62z"/><path fill="#FFF" stroke="#1D877A" stroke-linecap="square" stroke-width="3" d="M278.723 40.994c.823-.879-6.16-19.6-10.14-20.974-3.978-1.374-141.65-1.374-143.136 0-.72.666 2.684 5.223 5.507 10.143 3.003 5.235 4.551 10.83 5.21 10.83 1.277 0 141.737.88 142.56 0z"/><path stroke="#000" stroke-linecap="round" stroke-width="5" d="M281.613 74.968c5.062-1.838 8.16-4.644 9.295-8.42 1.134-3.776 1.134-9.369 0-16.778M197.994 101.943c-3.575 2.252-5.873 4.371-6.894 6.36-1.022 1.988-1.351 5.306-.987 9.955l-7.646 2.822M212.74 101.943c3.575 2.252 5.873 4.371 6.895 6.36 1.021 1.988 1.35 5.306.987 9.955l7.646 2.822"/><path fill="#FFF" stroke="#1D877A" stroke-width="3" d="M278.768 106.457c.355-.38.884-4.599 1.127-10.77.236-5.97.276-13.896.14-22.648-.122-7.87-.382-15.969-.707-22.294-.159-3.077-.327-5.618-.492-7.424a38.57 38.57 0 0 0-.222-1.982c-.24.026-.605-.018-.696-.024a150.856 150.856 0 0 0-4.648-.214c-3.905-.134-9.473-.258-16.376-.366-13.424-.21-31.297-.353-49.313-.394-18.875-.043-36.455.028-49.434.21-7.007.1-12.591.23-16.52.39-2.044.083-3.63.174-4.729.271-.521.046-1.276.176-1-.104.167-.168.1.029.043.295-.107.507-.219 1.23-.33 2.15-.223 1.83-.44 4.385-.64 7.485-.4 6.237-.698 14.297-.819 22.245-.13 8.614-.046 16.52.267 22.476.322 6.113.965 10.25 1.39 10.613.487.417 9.63 1.106 22.908 1.515 13.145.405 30.66.624 48.847.624s35.662-.22 48.731-.624c6.893-.214 12.454-.475 16.412-.778 2.042-.156 3.645-.322 4.774-.494.812-.125 1.407-.287 1.287-.158z"/><path stroke="#000" stroke-linecap="round" stroke-width="4" d="M195.834 84.908c4.818 3.098 8.513 4.647 11.085 4.647 2.572 0 6.267-1.55 11.085-4.647M193.994 67.86v4.5M219.504 67.86v4.5"/><path fill="#FFF" stroke="#1D877A" stroke-linecap="square" stroke-width="3" d="M124.873 20.192c-1.456.626-1.456 23.735 0 69.327 6.395 11.86 9.918 17.316 10.568 16.367.976-1.424 0-12.136 0-30.174 0-12.025.315-23.541.944-34.549-6.218-14.607-10.056-21.597-11.512-20.971z"/><path stroke="#1D877A" stroke-linecap="square" stroke-width="3" d="M131.838 29.45h141.14"/><path stroke="#000" stroke-linecap="round" stroke-width="5" d="M128.083 71.86c-5.509-2.049-9.49-4.725-11.944-8.03-2.453-3.305-3.98-8.54-4.582-15.705"/><path fill="#FFF" stroke="#1D877A" stroke-linecap="square" stroke-width="3" d="M176.425 81.43c.671-.717-6.983-16.144-8.269-17.105-1.286-.961-74.743-1.12-75.955 0-.587.543 2.188 4.26 4.49 8.272 2.45 4.27 3.712 8.833 4.25 8.833 1.041 0 74.814.716 75.484 0z"/><path stroke="#000" stroke-linecap="round" stroke-width="5" d="M177.331 103.22c4.129 1.498 6.656 3.787 7.58 6.866.925 3.08.925 7.64 0 13.683M129.346 128.69c-2.915 1.835-4.79 3.564-5.623 5.185-.833 1.622-1.101 4.328-.805 8.119l-6.235 2.302M141.372 128.69c2.915 1.835 4.79 3.564 5.622 5.185.834 1.622 1.102 4.328.805 8.119l6.236 2.302"/><path fill="#FFF" stroke="#1D877A" stroke-width="3" d="M101.014 81.898c-.08.4-.165.956-.25 1.652-.18 1.487-.358 3.565-.52 6.089-.325 5.082-.569 11.65-.667 18.127-.107 7.02-.038 13.462.217 18.312.138 2.623.329 4.748.568 6.289.12.771.251 1.383.386 1.816.079.253.144.39.101.367.468.298 5.303.834 12.146 1.157 6.992.33 16.221.508 25.786.508 9.565 0 18.762-.178 25.692-.508 3.64-.173 6.595-.385 8.72-.629 1.08-.124 1.934-.255 2.539-.388.397-.088.642-.18.53-.065-.073.074-.007-.081.068-.375.115-.446.224-1.073.323-1.861.196-1.561.347-3.71.452-6.366.192-4.863.225-11.322.114-18.455-.1-6.416-.312-13.017-.577-18.172-.129-2.505-.266-4.575-.4-6.043a35.689 35.689 0 0 0-.15-1.397 56.842 56.842 0 0 0-2.398-.163c-2.086-.11-5.05-.21-8.716-.298-7.144-.172-16.627-.288-26.186-.321-10.016-.035-19.356.023-26.28.172-3.73.08-6.714.186-8.826.315a39.776 39.776 0 0 0-2.518.216l-.154.021zm-.165 52.652z"/><path stroke="#000" stroke-linecap="round" stroke-width="4" d="M129.215 116.92c3.93 2.526 6.943 3.79 9.04 3.79 2.098 0 5.11-1.264 9.04-3.79M127.715 103.016v3.67M148.519 103.016v3.67"/><path fill="#FFF" stroke="#1D877A" stroke-linecap="square" stroke-width="3" d="M91.733 64.465c-1.188.51-1.188 19.357 0 56.539 5.215 9.672 8.088 14.121 8.618 13.347.797-1.16 0-9.898 0-24.608 0-9.806.257-19.198.77-28.175-5.071-11.913-8.2-17.614-9.388-17.103z"/><path stroke="#1D877A" stroke-linecap="square" stroke-width="3" d="M97.413 72.016h73.47"/><path stroke="#000" stroke-linecap="round" stroke-width="5" d="M94.507 99.458c-4.493 1.67-7.74 3.853-9.74 6.548-2.002 2.696-3.247 6.965-3.737 12.808"/><g><path fill="#FFF" stroke="#1D877A" stroke-linecap="square" stroke-width="3" d="M277.846 80.573c.639-.683-6.65-15.374-7.874-16.29-1.225-.915-71.18-1.067-72.333 0-.56.518 2.084 4.057 4.276 7.878 2.333 4.066 3.535 8.412 4.046 8.412.992 0 71.246.682 71.885 0z"/><path stroke="#000" stroke-linecap="round" stroke-width="5" d="M278.709 101.324c3.932 1.426 6.338 3.606 7.219 6.539.88 2.932.88 7.276 0 13.03M233.012 125.578c-2.776 1.749-4.561 3.395-5.355 4.94-.793 1.543-1.048 4.12-.766 7.73l-5.938 2.192M244.464 125.578c2.776 1.749 4.561 3.395 5.355 4.94.793 1.543 1.049 4.12.766 7.73l5.938 2.192"/><path fill="#FFF" stroke="#1D877A" stroke-width="3" d="M206.092 81.083c-.074.374-.15.885-.227 1.517-.173 1.415-.341 3.393-.495 5.795-.31 4.838-.542 11.092-.636 17.26-.101 6.682-.036 12.816.207 17.433.131 2.496.313 4.517.54 5.982.115.731.238 1.31.365 1.718.08.256.142.377.058.305-.068-.059.2.035.635.127.602.128 1.44.253 2.491.371 2.068.232 4.919.434 8.415.599 6.656.314 15.444.483 24.552.483 9.108 0 17.865-.17 24.463-.483 3.465-.165 6.278-.366 8.3-.598 1.027-.118 1.837-.243 2.41-.37.365-.08.59-.163.47-.041-.082.082-.022-.057.046-.325.109-.422.212-1.015.306-1.763.186-1.485.33-3.529.43-6.057.183-4.629.214-10.78.108-17.57-.094-6.11-.296-12.395-.549-17.303-.123-2.385-.253-4.355-.38-5.753a35.113 35.113 0 0 0-.137-1.27c-.534-.05-1.28-.101-2.223-.15-1.986-.104-4.808-.2-8.298-.284-6.802-.163-15.833-.274-24.935-.305-9.538-.034-18.432.021-25.025.163-3.552.077-6.393.177-8.403.3a37.82 37.82 0 0 0-2.393.205l-.095.014z"/><path stroke="#000" stroke-linecap="round" stroke-width="4" d="M232.888 114.37c3.742 2.406 6.611 3.609 8.609 3.609 1.997 0 4.866-1.203 8.608-3.609M231.459 101.13v3.494M251.27 101.13v3.494"/><path fill="#FFF" stroke="#1D877A" stroke-linecap="square" stroke-width="3" d="M197.193 64.417c-1.131.487-1.131 18.434 0 53.842 4.966 9.211 7.702 13.448 8.208 12.711.758-1.106 0-9.425 0-23.434 0-9.34.244-18.283.732-26.831-4.829-11.345-7.81-16.774-8.94-16.288z"/><path stroke="#1D877A" stroke-linecap="square" stroke-width="3" d="M202.602 71.608h69.966"/><path stroke="#000" stroke-linecap="round" stroke-width="5" d="M199.834 97.742c-4.278 1.59-7.37 3.669-9.275 6.235-1.906 2.567-3.092 6.633-3.559 12.197"/></g><g><path fill="#FFF" stroke="#1D877A" stroke-linecap="square" stroke-width="3" d="M372.426 80.573c.64-.683-6.65-15.374-7.874-16.29-1.225-.915-71.18-1.067-72.333 0-.56.518 2.084 4.057 4.276 7.878 2.333 4.066 3.535 8.412 4.047 8.412.992 0 71.245.682 71.884 0z"/><path stroke="#000" stroke-linecap="round" stroke-width="5" d="M373.289 101.324c3.932 1.426 6.338 3.606 7.219 6.539.88 2.932.88 7.276 0 13.03M327.592 125.578c-2.776 1.749-4.561 3.395-5.354 4.94-.794 1.543-1.05 4.12-.767 7.73l-5.938 2.192M339.044 125.578c2.777 1.749 4.561 3.395 5.355 4.94.793 1.543 1.049 4.12.766 7.73l5.938 2.192"/><path fill="#FFF" stroke="#1D877A" stroke-width="3" d="M300.672 81.083c-.074.374-.15.885-.227 1.517-.173 1.415-.341 3.393-.495 5.795-.31 4.838-.542 11.092-.635 17.26-.102 6.682-.037 12.816.206 17.433.132 2.496.313 4.517.54 5.982.115.731.238 1.31.366 1.718.08.256.14.377.057.305-.068-.059.2.035.635.127.602.128 1.44.253 2.491.371 2.068.232 4.919.434 8.415.599 6.656.314 15.445.483 24.553.483 9.107 0 17.864-.17 24.462-.483 3.465-.165 6.278-.366 8.3-.598 1.027-.118 1.838-.243 2.41-.37.365-.08.59-.163.47-.041-.082.082-.022-.057.046-.325.109-.422.212-1.015.306-1.763.186-1.485.33-3.529.43-6.057.183-4.629.214-10.78.109-17.57-.095-6.11-.297-12.395-.55-17.303-.123-2.385-.253-4.355-.38-5.753a35.113 35.113 0 0 0-.137-1.27c-.534-.05-1.28-.101-2.223-.15-1.986-.104-4.808-.2-8.298-.284-6.802-.163-15.833-.274-24.935-.305-9.538-.034-18.432.021-25.025.163-3.552.077-6.393.177-8.403.3a37.82 37.82 0 0 0-2.393.205l-.095.014z"/><path stroke="#000" stroke-linecap="round" stroke-width="4" d="M327.468 114.37c3.742 2.406 6.611 3.609 8.609 3.609 1.997 0 4.867-1.203 8.609-3.609M326.039 101.13v3.494M345.85 101.13v3.494"/><path fill="#FFF" stroke="#1D877A" stroke-linecap="square" stroke-width="3" d="M291.773 64.417c-1.131.487-1.131 18.434 0 53.842 4.966 9.211 7.702 13.448 8.208 12.711.758-1.106 0-9.425 0-23.434 0-9.34.244-18.283.732-26.831-4.829-11.345-7.809-16.774-8.94-16.288z"/><path stroke="#1D877A" stroke-linecap="square" stroke-width="3" d="M297.182 71.608h69.966"/><path stroke="#000" stroke-linecap="round" stroke-width="5" d="M294.415 97.742c-4.278 1.59-7.37 3.669-9.276 6.235-1.906 2.567-3.092 6.633-3.559 12.197"/></g><g><path fill="#FFF" stroke="#1D877A" stroke-linecap="square" stroke-width="3" d="M211.09 118.411c.67-.716-6.983-16.144-8.269-17.105-1.286-.96-74.744-1.12-75.955 0-.588.543 2.188 4.26 4.49 8.273 2.45 4.269 3.712 8.832 4.25 8.832 1.04 0 74.813.717 75.484 0z"/><path stroke="#000" stroke-linecap="round" stroke-width="5" d="M211.996 140.201c4.129 1.499 6.655 3.787 7.58 6.867.925 3.08.925 7.64 0 13.682M164.01 165.67c-2.915 1.837-4.79 3.565-5.622 5.187-.834 1.621-1.102 4.327-.805 8.118l-6.236 2.302M176.036 165.67c2.915 1.837 4.79 3.565 5.623 5.187.833 1.621 1.101 4.327.805 8.118l6.235 2.302"/><path fill="#FFF" stroke="#1D877A" stroke-width="3" d="M135.679 118.88c-.081.4-.165.955-.25 1.65-.181 1.488-.358 3.567-.52 6.09-.326 5.082-.57 11.65-.668 18.128-.106 7.019-.037 13.461.218 18.311.138 2.624.328 4.748.568 6.29.12.77.25 1.382.386 1.815.078.254.143.39.1.368.468.297 5.304.834 12.147 1.156 6.991.33 16.22.508 25.786.508 9.565 0 18.761-.178 25.691-.508 3.64-.173 6.595-.384 8.721-.628 1.08-.124 1.934-.255 2.538-.389.398-.088.643-.179.53-.065-.073.075-.006-.081.069-.374.114-.447.224-1.073.323-1.862.196-1.56.347-3.71.452-6.366.192-4.862.224-11.322.114-18.455-.1-6.416-.312-13.016-.577-18.172-.13-2.505-.266-4.574-.4-6.043a35.689 35.689 0 0 0-.151-1.396 56.842 56.842 0 0 0-2.397-.164c-2.087-.109-5.051-.21-8.717-.298-7.143-.171-16.626-.287-26.185-.32-10.016-.036-19.356.022-26.28.171-3.73.08-6.715.186-8.827.316a39.776 39.776 0 0 0-2.518.215c-.049.006-.103.015-.153.022zm-.165 52.652z"/><path stroke="#000" stroke-linecap="round" stroke-width="4" d="M163.88 153.901c3.93 2.526 6.943 3.79 9.04 3.79 2.097 0 5.11-1.264 9.04-3.79M162.38 139.997v3.67M183.183 139.997v3.67"/><path fill="#FFF" stroke="#1D877A" stroke-linecap="square" stroke-width="3" d="M126.397 101.447c-1.187.51-1.187 19.356 0 56.538 5.216 9.673 8.088 14.122 8.62 13.348.795-1.162 0-9.898 0-24.608 0-9.807.256-19.199.768-28.176-5.07-11.912-8.2-17.613-9.388-17.102z"/><path stroke="#1D877A" stroke-linecap="square" stroke-width="3" d="M132.077 108.997h73.47"/><path stroke="#000" stroke-linecap="round" stroke-width="5" d="M129.171 136.44c-4.492 1.67-7.739 3.853-9.74 6.548-2.001 2.695-3.247 6.964-3.737 12.808"/></g><g><path fill="#FFF" stroke="#1D877A" stroke-linecap="square" stroke-width="3" d="M303.426 117.554c.64-.682-6.65-15.374-7.874-16.289-1.225-.915-71.18-1.067-72.333 0-.56.517 2.084 4.056 4.276 7.878 2.333 4.066 3.535 8.411 4.047 8.411.992 0 71.245.683 71.884 0z"/><path stroke="#000" stroke-linecap="round" stroke-width="5" d="M304.289 138.305c3.932 1.427 6.338 3.607 7.219 6.54.88 2.932.88 7.275 0 13.029M258.592 162.56c-2.776 1.748-4.561 3.394-5.354 4.939-.794 1.544-1.05 4.12-.767 7.73l-5.938 2.193M270.044 162.56c2.777 1.748 4.561 3.394 5.355 4.939.793 1.544 1.049 4.12.766 7.73l5.938 2.193"/><path fill="#FFF" stroke="#1D877A" stroke-width="3" d="M231.672 118.064c-.074.375-.15.885-.227 1.518-.173 1.415-.341 3.392-.495 5.794-.31 4.838-.542 11.093-.635 17.26-.102 6.683-.037 12.816.206 17.433.132 2.496.313 4.517.54 5.982.115.732.238 1.31.366 1.719.08.256.14.376.057.305-.068-.06.2.034.635.127.602.128 1.44.252 2.491.37 2.068.233 4.919.435 8.415.6 6.656.313 15.445.483 24.553.483 9.107 0 17.864-.17 24.462-.484 3.465-.164 6.278-.366 8.3-.598 1.027-.118 1.838-.242 2.41-.369.365-.08.59-.164.47-.042-.082.083-.022-.056.046-.324.109-.422.212-1.016.306-1.764.186-1.484.33-3.528.43-6.056.183-4.63.214-10.78.109-17.571-.095-6.11-.297-12.394-.55-17.303-.123-2.385-.253-4.354-.38-5.752a35.113 35.113 0 0 0-.137-1.27c-.534-.051-1.28-.102-2.223-.15-1.986-.104-4.808-.2-8.298-.284-6.802-.164-15.833-.274-24.935-.306-9.538-.033-18.432.022-25.025.164-3.552.076-6.393.177-8.403.3a37.82 37.82 0 0 0-2.393.205l-.095.013z"/><path stroke="#000" stroke-linecap="round" stroke-width="4" d="M258.468 151.352c3.742 2.405 6.611 3.608 8.609 3.608 1.997 0 4.867-1.203 8.609-3.608M257.039 138.11v3.496M276.85 138.11v3.496"/><path fill="#FFF" stroke="#1D877A" stroke-linecap="square" stroke-width="3" d="M222.773 101.399c-1.131.486-1.131 18.433 0 53.842 4.966 9.21 7.702 13.448 8.208 12.71.758-1.105 0-9.425 0-23.434 0-9.339.244-18.282.732-26.831-4.829-11.345-7.809-16.774-8.94-16.287z"/><path stroke="#1D877A" stroke-linecap="square" stroke-width="3" d="M228.182 108.589h69.966"/><path stroke="#000" stroke-linecap="round" stroke-width="5" d="M225.415 134.723c-4.278 1.59-7.37 3.67-9.276 6.236-1.906 2.566-3.092 6.632-3.559 12.197"/></g><g><path fill="#FFF" stroke="#1D877A" stroke-linecap="square" stroke-width="3" d="M398.006 117.554c.64-.682-6.65-15.374-7.874-16.289-1.225-.915-71.18-1.067-72.333 0-.56.517 2.084 4.056 4.276 7.878 2.333 4.066 3.535 8.411 4.047 8.411.992 0 71.246.683 71.884 0z"/><path stroke="#000" stroke-linecap="round" stroke-width="5" d="M398.87 138.305c3.93 1.427 6.337 3.607 7.218 6.54.88 2.932.88 7.275 0 13.029M353.172 162.56c-2.776 1.748-4.56 3.394-5.354 4.939-.794 1.544-1.05 4.12-.767 7.73l-5.938 2.193M364.624 162.56c2.777 1.748 4.561 3.394 5.355 4.939.793 1.544 1.049 4.12.766 7.73l5.938 2.193"/><path fill="#FFF" stroke="#1D877A" stroke-width="3" d="M326.252 118.064c-.074.375-.15.885-.227 1.518-.172 1.415-.34 3.392-.495 5.794-.31 4.838-.542 11.093-.635 17.26-.102 6.683-.036 12.816.206 17.433.132 2.496.313 4.517.54 5.982.115.732.239 1.31.366 1.719.08.256.14.376.057.305-.068-.06.2.034.635.127.602.128 1.44.252 2.491.37 2.068.233 4.919.435 8.415.6 6.657.313 15.445.483 24.553.483s17.864-.17 24.462-.484c3.465-.164 6.278-.366 8.3-.598 1.027-.118 1.838-.242 2.41-.369.365-.08.59-.164.47-.042-.081.083-.022-.056.046-.324.109-.422.212-1.016.306-1.764.186-1.484.33-3.528.43-6.056.183-4.63.214-10.78.109-17.571-.095-6.11-.297-12.394-.55-17.303-.122-2.385-.253-4.354-.38-5.752a35.113 35.113 0 0 0-.137-1.27c-.533-.051-1.28-.102-2.222-.15-1.987-.104-4.81-.2-8.299-.284-6.802-.164-15.832-.274-24.935-.306-9.538-.033-18.432.022-25.025.164-3.552.076-6.393.177-8.403.3a37.82 37.82 0 0 0-2.393.205l-.095.013z"/><path stroke="#000" stroke-linecap="round" stroke-width="4" d="M353.048 151.352c3.742 2.405 6.611 3.608 8.609 3.608 1.997 0 4.867-1.203 8.609-3.608M351.619 138.11v3.496M371.43 138.11v3.496"/><path fill="#FFF" stroke="#1D877A" stroke-linecap="square" stroke-width="3" d="M317.353 101.399c-1.131.486-1.131 18.433 0 53.842 4.966 9.21 7.702 13.448 8.208 12.71.758-1.105 0-9.425 0-23.434 0-9.339.244-18.282.732-26.831-4.829-11.345-7.809-16.774-8.94-16.287z"/><path stroke="#1D877A" stroke-linecap="square" stroke-width="3" d="M322.762 108.589h69.966"/><path stroke="#000" stroke-linecap="round" stroke-width="5" d="M319.995 134.723c-4.278 1.59-7.37 3.67-9.276 6.236-1.906 2.566-3.092 6.632-3.559 12.197"/></g><g><path fill="#FFF" stroke="#1D877A" stroke-linecap="square" stroke-width="3" d="M371.735 154.975c.822-.878-6.161-19.6-10.14-20.974-3.978-1.374-141.65-1.374-143.136 0-.72.666 2.683 5.223 5.506 10.144 3.003 5.235 4.552 10.83 5.21 10.83 1.277 0 141.737.88 142.56 0z"/><path stroke="#000" stroke-linecap="round" stroke-width="5" d="M374.624 188.95c5.063-1.838 8.161-4.645 9.295-8.42 1.134-3.777 1.134-9.37 0-16.778M291.006 215.925c-3.575 2.251-5.873 4.37-6.895 6.36-1.022 1.987-1.35 5.306-.987 9.954l-7.646 2.822M305.752 215.925c3.574 2.251 5.873 4.37 6.894 6.36 1.022 1.987 1.35 5.306.987 9.954l7.646 2.822"/><path fill="#FFF" stroke="#1D877A" stroke-width="3" d="M371.779 220.438c.356-.38.884-4.598 1.128-10.77.236-5.969.276-13.895.14-22.648-.122-7.87-.382-15.968-.708-22.294-.158-3.076-.326-5.618-.492-7.424a38.57 38.57 0 0 0-.222-1.982c-.24.026-.604-.018-.696-.024a150.856 150.856 0 0 0-4.648-.213c-3.904-.134-9.473-.258-16.375-.367-13.424-.21-31.297-.353-49.314-.394-18.875-.043-36.455.028-49.434.211-7.006.099-12.59.23-16.52.389-2.044.083-3.63.174-4.728.271-.522.047-1.277.176-1-.103.167-.168.1.028.043.295-.107.506-.22 1.23-.33 2.149-.224 1.83-.441 4.385-.64 7.486-.4 6.237-.699 14.297-.82 22.244-.13 8.614-.046 16.52.267 22.477.322 6.112.966 10.249 1.39 10.613.488.416 9.631 1.105 22.909 1.514 13.144.405 30.66.624 48.846.624 18.187 0 35.662-.219 48.732-.624 6.893-.214 12.453-.475 16.412-.777 2.042-.156 3.644-.322 4.773-.495.813-.124 1.407-.286 1.287-.158z"/><path stroke="#000" stroke-linecap="round" stroke-width="4" d="M288.845 198.89c4.819 3.097 8.514 4.646 11.085 4.646 2.572 0 6.267-1.549 11.085-4.646M287.006 181.84v4.5M312.515 181.84v4.5"/><path fill="#FFF" stroke="#1D877A" stroke-linecap="square" stroke-width="3" d="M217.884 134.173c-1.456.627-1.456 23.736 0 69.328 6.395 11.86 9.918 17.316 10.569 16.367.976-1.424 0-12.137 0-30.175 0-12.025.314-23.54.943-34.548-6.218-14.608-10.055-21.598-11.512-20.972z"/><path stroke="#1D877A" stroke-linecap="square" stroke-width="3" d="M224.85 143.432h141.14"/><path stroke="#000" stroke-linecap="round" stroke-width="5" d="M221.094 185.84c-5.508-2.047-9.49-4.724-11.943-8.029-2.454-3.304-3.981-8.54-4.582-15.705"/></g><g><path fill="#FFF" stroke="#1D877A" stroke-linecap="square" stroke-width="3" d="M284.505 188.911c.671-.716-6.983-16.144-8.268-17.105-1.286-.96-74.744-1.12-75.956 0-.587.543 2.189 4.26 4.49 8.273 2.45 4.269 3.713 8.832 4.25 8.832 1.041 0 74.814.717 75.484 0z"/><path stroke="#000" stroke-linecap="round" stroke-width="5" d="M285.411 210.701c4.129 1.499 6.656 3.787 7.58 6.867.926 3.08.926 7.64 0 13.682M237.426 236.17c-2.915 1.837-4.79 3.565-5.623 5.187-.833 1.621-1.101 4.327-.805 8.118l-6.235 2.302M249.452 236.17c2.915 1.837 4.79 3.565 5.622 5.187.834 1.621 1.102 4.327.805 8.118l6.236 2.302"/><path fill="#FFF" stroke="#1D877A" stroke-width="3" d="M209.094 189.38c-.08.4-.165.955-.25 1.65-.18 1.488-.358 3.567-.52 6.09-.325 5.082-.569 11.65-.667 18.128-.107 7.019-.038 13.461.217 18.311.138 2.624.329 4.748.569 6.29.12.77.25 1.382.385 1.815.079.254.144.39.101.368.468.297 5.303.834 12.147 1.156 6.99.33 16.22.508 25.785.508 9.565 0 18.762-.178 25.692-.508 3.64-.173 6.595-.384 8.72-.628 1.08-.124 1.934-.255 2.539-.389.397-.088.642-.179.53-.065-.073.075-.007-.081.068-.374.115-.447.224-1.073.323-1.862.196-1.56.347-3.71.452-6.366.192-4.862.225-11.322.114-18.455-.1-6.416-.312-13.016-.577-18.172-.129-2.505-.266-4.574-.4-6.043a35.689 35.689 0 0 0-.15-1.396 56.842 56.842 0 0 0-2.398-.164c-2.086-.109-5.05-.21-8.716-.298-7.144-.171-16.627-.287-26.185-.32-10.017-.036-19.356.022-26.281.171-3.73.08-6.714.186-8.826.316a39.776 39.776 0 0 0-2.518.215c-.05.006-.104.015-.154.022zm-.165 52.652z"/><path stroke="#000" stroke-linecap="round" stroke-width="4" d="M237.295 224.401c3.93 2.526 6.943 3.79 9.04 3.79 2.098 0 5.111-1.264 9.04-3.79M235.795 210.497v3.67M256.599 210.497v3.67"/><path fill="#FFF" stroke="#1D877A" stroke-linecap="square" stroke-width="3" d="M199.813 171.947c-1.188.51-1.188 19.356 0 56.538 5.215 9.673 8.088 14.122 8.619 13.348.796-1.162 0-9.898 0-24.608 0-9.807.256-19.199.769-28.176-5.071-11.912-8.2-17.613-9.388-17.102z"/><path stroke="#1D877A" stroke-linecap="square" stroke-width="3" d="M205.493 179.497h73.47"/><path stroke="#000" stroke-linecap="round" stroke-width="5" d="M202.587 206.94c-4.493 1.67-7.74 3.853-9.74 6.548-2.002 2.695-3.247 6.964-3.737 12.808"/></g><g><path fill="#FFF" stroke="#1D877A" stroke-linecap="square" stroke-width="3" d="M379.62 188.054c.638-.682-6.65-15.374-7.875-16.289-1.225-.915-71.179-1.067-72.333 0-.559.517 2.084 4.056 4.277 7.878 2.332 4.066 3.535 8.411 4.046 8.411.992 0 71.246.683 71.885 0z"/><path stroke="#000" stroke-linecap="round" stroke-width="5" d="M380.482 208.805c3.932 1.427 6.338 3.607 7.22 6.54.88 2.932.88 7.275 0 13.029M334.785 233.06c-2.776 1.748-4.56 3.394-5.354 4.939-.794 1.544-1.049 4.12-.766 7.73l-5.939 2.193M346.238 233.06c2.776 1.748 4.56 3.394 5.354 4.939.794 1.544 1.05 4.12.767 7.73l5.938 2.193"/><path fill="#FFF" stroke="#1D877A" stroke-width="3" d="M307.865 188.564c-.073.375-.15.885-.227 1.518-.172 1.415-.34 3.392-.495 5.794-.31 4.838-.542 11.093-.635 17.26-.102 6.683-.036 12.816.207 17.433.13 2.496.312 4.517.54 5.982.114.732.238 1.31.365 1.719.08.256.141.376.058.305-.069-.06.2.034.635.127.602.128 1.439.252 2.49.37 2.068.233 4.92.435 8.415.6 6.657.313 15.445.483 24.553.483s17.864-.17 24.463-.484c3.464-.164 6.277-.366 8.3-.598 1.026-.118 1.837-.242 2.41-.369.365-.08.59-.164.47-.042-.082.083-.023-.056.046-.324.108-.422.211-1.016.305-1.764.187-1.484.33-3.528.43-6.056.183-4.63.214-10.78.109-17.571-.095-6.11-.297-12.394-.55-17.303-.122-2.385-.252-4.354-.38-5.752a35.113 35.113 0 0 0-.136-1.27c-.534-.051-1.28-.102-2.223-.15-1.986-.104-4.809-.2-8.299-.284-6.802-.164-15.832-.274-24.935-.306-9.538-.033-18.431.022-25.025.164-3.551.076-6.392.177-8.403.3a37.82 37.82 0 0 0-2.393.205l-.095.013z"/><path stroke="#000" stroke-linecap="round" stroke-width="4" d="M334.661 221.852c3.742 2.405 6.612 3.608 8.609 3.608 1.997 0 4.867-1.203 8.609-3.608M333.232 208.61v3.496M353.044 208.61v3.496"/><path fill="#FFF" stroke="#1D877A" stroke-linecap="square" stroke-width="3" d="M298.966 171.899c-1.13.486-1.13 18.433 0 53.842 4.967 9.21 7.703 13.448 8.208 12.71.758-1.105 0-9.425 0-23.434 0-9.339.244-18.282.733-26.831-4.83-11.345-7.81-16.774-8.94-16.287z"/><path stroke="#1D877A" stroke-linecap="square" stroke-width="3" d="M304.375 179.089h69.966"/><path stroke="#000" stroke-linecap="round" stroke-width="5" d="M301.608 205.223c-4.278 1.59-7.37 3.67-9.276 6.236-1.905 2.566-3.092 6.632-3.558 12.197"/></g><g><path fill="#FFF" stroke="#1D877A" stroke-linecap="square" stroke-width="3" d="M475.44 188.054c.639-.682-6.65-15.374-7.875-16.289-1.224-.915-71.178-1.067-72.332 0-.56.517 2.084 4.056 4.276 7.878 2.332 4.066 3.535 8.411 4.046 8.411.992 0 71.246.683 71.885 0z"/><path stroke="#000" stroke-linecap="round" stroke-width="5" d="M476.303 208.805c3.931 1.427 6.338 3.607 7.218 6.54.881 2.932.881 7.275 0 13.029M430.606 233.06c-2.776 1.748-4.561 3.394-5.355 4.939-.793 1.544-1.049 4.12-.766 7.73l-5.938 2.193M442.058 233.06c2.776 1.748 4.561 3.394 5.355 4.939.793 1.544 1.048 4.12.766 7.73l5.938 2.193"/><path fill="#FFF" stroke="#1D877A" stroke-width="3" d="M403.686 188.564c-.074.375-.15.885-.228 1.518-.172 1.415-.34 3.392-.494 5.794-.31 4.838-.542 11.093-.636 17.26-.101 6.683-.036 12.816.207 17.433.131 2.496.312 4.517.54 5.982.114.732.238 1.31.365 1.719.08.256.141.376.058.305-.069-.06.2.034.635.127.602.128 1.44.252 2.49.37 2.068.233 4.92.435 8.416.6 6.656.313 15.444.483 24.552.483 9.108 0 17.865-.17 24.463-.484 3.465-.164 6.277-.366 8.3-.598 1.026-.118 1.837-.242 2.41-.369.365-.08.59-.164.47-.042-.082.083-.023-.056.046-.324.108-.422.212-1.016.306-1.764.186-1.484.33-3.528.43-6.056.182-4.63.214-10.78.108-17.571-.095-6.11-.297-12.394-.55-17.303-.122-2.385-.252-4.354-.38-5.752a35.113 35.113 0 0 0-.136-1.27c-.534-.051-1.28-.102-2.223-.15-1.986-.104-4.809-.2-8.298-.284-6.803-.164-15.833-.274-24.935-.306-9.539-.033-18.432.022-25.026.164-3.55.076-6.392.177-8.402.3a37.82 37.82 0 0 0-2.393.205l-.095.013z"/><path stroke="#000" stroke-linecap="round" stroke-width="4" d="M430.481 221.852c3.742 2.405 6.612 3.608 8.61 3.608 1.997 0 4.866-1.203 8.608-3.608M429.052 208.61v3.496M448.864 208.61v3.496"/><path fill="#FFF" stroke="#1D877A" stroke-linecap="square" stroke-width="3" d="M394.787 171.899c-1.131.486-1.131 18.433 0 53.842 4.966 9.21 7.702 13.448 8.207 12.71.758-1.105 0-9.425 0-23.434 0-9.339.245-18.282.733-26.831-4.83-11.345-7.81-16.774-8.94-16.287z"/><path stroke="#1D877A" stroke-linecap="square" stroke-width="3" d="M400.196 179.089h69.966"/><path stroke="#000" stroke-linecap="round" stroke-width="5" d="M397.428 205.223c-4.278 1.59-7.37 3.67-9.275 6.236-1.906 2.566-3.092 6.632-3.559 12.197"/></g><path fill="#FFF" stroke="#1D877A" stroke-width="6" d="M225.45 230.457c-.816.832-1.822 7.647-2.185 17.604-.36 9.926-.19 22.876.448 36.335.629 13.252 1.667 26.05 2.912 35.677.643 4.978 1.329 9.01 2.023 11.87.341 1.404.677 2.494.987 3.225.145.343.212.44-.171.237-.15-.08 1.38.135 3.351.299 2.484.206 5.99.414 10.44.621 8.687.405 20.866.8 35.697 1.161 29.707.724 68.233 1.273 106.038 1.499 41.064.245 78.458.1 106.168-.465 15.134-.309 27.224-.738 35.828-1.287 4.471-.286 7.976-.602 10.451-.946 1.862-.258 3.198-.6 2.97-.377 2.42-2.366 4.525-25.806 4.525-52.75 0-26.916-2.107-50.335-4.507-52.642.22.212-1.152-.142-3.053-.417-2.513-.363-6.069-.71-10.598-1.036-8.766-.632-21.072-1.178-36.325-1.624-28.905-.845-67.537-1.303-107.694-1.303s-78.762.458-107.618 1.303c-15.226.446-27.5.992-36.23 1.624-4.508.326-8.043.673-10.533 1.036-1.831.267-3.183.62-2.924.356zm0 0z"/><path stroke="#000" stroke-linecap="round" stroke-width="10" d="M371.777 312.118c3.554 3.795 9.576 5.692 18.067 5.692 8.49 0 15.035-1.897 19.633-5.692"/><path stroke="#000" stroke-linecap="round" stroke-width="12" d="M356.504 264.447v16M418.953 264.447v16"/><path fill="#FFF" stroke="#1D877A" stroke-linecap="square" stroke-width="6" d="M10.08 8.219c-4.088 2.096-6.122 28.593-6.1 79.49C151.505 255.79 226.33 338.19 228.455 334.906c3.188-4.926-2.855-102.346-5.832-106.217C219.646 224.82 16.213 5.074 10.08 8.22z"/><path stroke="#000" stroke-linecap="round" stroke-width="16" d="M134.539 163.626c-19.885-.206-34.669-5.2-44.352-14.982s-15.654-30.018-17.914-60.707"/></g></svg>
