<?xml version="1.0" encoding="UTF-8"?>
<svg width="673px" height="254px" viewBox="0 0 673 254" version="1.1" xmlns="http://www.w3.org/2000/svg" xmlns:xlink="http://www.w3.org/1999/xlink">
    <!-- Generator: Sketch 50.2 (55047) - http://www.bohemiancoding.com/sketch -->
    <title>line-height</title>
    <desc>Created with Sketch.</desc>
    <defs>
        <path d="M0.875,0.6015625 L672.617188,0.6015625 L672.617188,253.796875 L0.875,253.796875 L0.875,0.6015625 Z" id="path-1"></path>
        <mask id="mask-2" maskContentUnits="userSpaceOnUse" maskUnits="objectBoundingBox" x="0" y="0" width="671.742188" height="253.195312" fill="white">
            <use xlink:href="#path-1"></use>
        </mask>
    </defs>
    <g id="Boxes" stroke="none" stroke-width="1" fill="none" fill-rule="evenodd">
        <g id="line-height">
            <g id="Boxie2" transform="translate(35.875000, 65.000000)">
                <path d="M117.729004,22.0311366 C118.551567,21.1524245 109.166504,2.23535156 107.589635,1.05694194 C106.012767,-0.121467687 15.9389648,-0.317268468 14.453125,1.05694194 C13.7331882,1.72279072 17.1366254,6.27970138 19.9594727,11.2004866 C22.962552,16.4354522 24.5110036,22.0311366 25.1694336,22.0311366 C26.4467773,22.0311366 116.906441,22.9098486 117.729004,22.0311366 Z" id="Line-8" stroke="#1D877A" stroke-width="3" fill="#FFFFFF" stroke-linecap="square"></path>
                <path d="M118.839844,48.75 C123.902344,50.5872396 127.000651,53.3938802 128.134766,57.1699219 C129.26888,60.9459635 129.26888,66.5384115 128.134766,73.9472656" id="Line-15" stroke="#000000" stroke-width="5" stroke-linecap="round"></path>
                <path d="M60,79.9804688 C56.4253404,82.2317889 54.1271633,84.3515806 53.1054688,86.3398438 C52.0837742,88.3281069 51.7548354,91.6464663 52.1186523,96.2949219 L44.4726562,99.1171875" id="Line-6" stroke="#000000" stroke-width="5" stroke-linecap="round"></path>
                <path d="M90.2734375,79.9804688 C86.6987779,82.2317889 84.4006008,84.3515806 83.3789063,86.3398438 C82.3572117,88.3281069 82.0282729,91.6464663 82.3920898,96.2949219 L74.7460938,99.1171875" id="Line-6" stroke="#000000" stroke-width="5" stroke-linecap="round" transform="translate(82.509766, 89.548828) scale(-1, 1) translate(-82.509766, -89.548828) "></path>
                <path d="M117.618408,22.3677113 C117.544491,22.3623365 117.473159,22.3513467 117.435757,22.3475608 C116.732545,22.2763819 115.711477,22.2057203 114.397517,22.137203 C111.835442,22.0036019 108.197388,21.8799671 103.700062,21.7717954 C94.938425,21.5610566 83.3079642,21.418744 71.5847372,21.3778793 C59.299858,21.3350568 47.8451791,21.4057652 39.3510435,21.5887296 C34.7732261,21.6873362 31.1098626,21.8170586 28.5147082,21.9761693 C27.1754033,22.058283 26.1306713,22.1477014 25.4040415,22.2424371 C25.049983,22.288598 24.6720428,22.3799314 24.9047609,22.145334 C25.0713521,21.9773975 25.003774,22.1739535 24.9473391,22.4404569 C24.8401009,22.9468691 24.7283547,23.6710537 24.6165641,24.5893156 C24.39361,26.4206881 24.1759893,28.975047 23.977354,32.075476 C23.5777788,38.3123043 23.2787763,46.3724311 23.1581524,54.3197714 C23.0274085,62.9338791 23.1116764,70.8403318 23.4249167,76.7966066 C23.7463741,82.9091288 24.3903495,87.0455613 24.8152772,87.4092977 C26.1517456,88.5533093 47.2423371,89.5478516 71.5698242,89.5478516 C83.3035852,89.5478516 94.5852895,89.3292881 103.088762,88.9247899 C107.558594,88.7121663 111.189243,88.4520004 113.804995,88.1519248 C115.139912,87.998785 116.197399,87.8365933 116.951551,87.6698919 C117.503681,87.5478465 117.8455,87.4207169 117.770757,87.4966616 C118.126592,87.135105 118.657009,82.9108426 118.901346,76.7246078 C119.137123,70.7550794 119.177226,62.828406 119.04144,54.0760736 C118.919331,46.2052929 118.659121,38.1075374 118.333617,31.7819301 C118.175316,28.7056402 118.007149,26.1642363 117.841726,24.357868 C117.765027,23.5203253 117.68976,22.8506382 117.618408,22.3677113 Z" id="Rectangle-3" stroke="#1D877A" stroke-width="3" fill="#FFFFFF"></path>
                <path d="M59.8398438,65.5488281 C64.6581369,68.6464844 68.3531239,70.1953125 70.9248047,70.1953125 C73.4964855,70.1953125 77.1914725,68.6464844 82.0097656,65.5488281" id="Line-13" stroke="#000000" stroke-width="4" stroke-linecap="round"></path>
                <path d="M58,48.5 L58,53" id="Line-12" stroke="#000000" stroke-width="4" stroke-linecap="round"></path>
                <path d="M83.5097656,48.5 L83.5097656,53" id="Line-12" stroke="#000000" stroke-width="4" stroke-linecap="round"></path>
                <path d="M13.8789062,1.22900391 C12.422526,1.85530599 12.422526,24.9645182 13.8789062,70.5566406 C20.273763,82.4169922 23.7965495,87.8725586 24.4472656,86.9233398 C25.4233398,85.4995117 24.4472656,74.7867019 24.4472656,56.7491042 C24.4472656,44.7240391 24.7617187,33.2078989 25.390625,22.2006836 C19.172526,7.59326172 15.3352865,0.602701823 13.8789062,1.22900391 Z" id="Line-9" stroke="#1D877A" stroke-width="3" fill="#FFFFFF" stroke-linecap="square"></path>
                <path d="M20.84375,10.4873047 L110.932595,10.4873047" id="Line-10" stroke="#1D877A" stroke-width="3" stroke-linecap="square"></path>
                <path d="M17.2802734,44.1376953 C11.7718099,46.1858724 7.7906901,48.8623047 5.33691406,52.1669922 C2.88313802,55.4716797 1.35579427,60.7067057 0.754882812,67.8720703" id="Line-14" stroke="#000000" stroke-width="5" stroke-linecap="round"></path>
            </g>
            <g id="Boxie2" transform="translate(176.875000, 65.000000)">
                <path d="M117.729004,22.0311366 C118.551567,21.1524245 109.166504,2.23535156 107.589635,1.05694194 C106.012767,-0.121467687 15.9389648,-0.317268468 14.453125,1.05694194 C13.7331882,1.72279072 17.1366254,6.27970138 19.9594727,11.2004866 C22.962552,16.4354522 24.5110036,22.0311366 25.1694336,22.0311366 C26.4467773,22.0311366 116.906441,22.9098486 117.729004,22.0311366 Z" id="Line-8" stroke="#1D877A" stroke-width="3" fill="#FFFFFF" stroke-linecap="square"></path>
                <path d="M118.839844,48.75 C123.902344,50.5872396 127.000651,53.3938802 128.134766,57.1699219 C129.26888,60.9459635 129.26888,66.5384115 128.134766,73.9472656" id="Line-15" stroke="#000000" stroke-width="5" stroke-linecap="round"></path>
                <path d="M60,79.9804688 C56.4253404,82.2317889 54.1271633,84.3515806 53.1054688,86.3398438 C52.0837742,88.3281069 51.7548354,91.6464663 52.1186523,96.2949219 L44.4726562,99.1171875" id="Line-6" stroke="#000000" stroke-width="5" stroke-linecap="round"></path>
                <path d="M90.2734375,79.9804688 C86.6987779,82.2317889 84.4006008,84.3515806 83.3789063,86.3398438 C82.3572117,88.3281069 82.0282729,91.6464663 82.3920898,96.2949219 L74.7460938,99.1171875" id="Line-6" stroke="#000000" stroke-width="5" stroke-linecap="round" transform="translate(82.509766, 89.548828) scale(-1, 1) translate(-82.509766, -89.548828) "></path>
                <path d="M117.618408,22.3677113 C117.544491,22.3623365 117.473159,22.3513467 117.435757,22.3475608 C116.732545,22.2763819 115.711477,22.2057203 114.397517,22.137203 C111.835442,22.0036019 108.197388,21.8799671 103.700062,21.7717954 C94.938425,21.5610566 83.3079642,21.418744 71.5847372,21.3778793 C59.299858,21.3350568 47.8451791,21.4057652 39.3510435,21.5887296 C34.7732261,21.6873362 31.1098626,21.8170586 28.5147082,21.9761693 C27.1754033,22.058283 26.1306713,22.1477014 25.4040415,22.2424371 C25.049983,22.288598 24.6720428,22.3799314 24.9047609,22.145334 C25.0713521,21.9773975 25.003774,22.1739535 24.9473391,22.4404569 C24.8401009,22.9468691 24.7283547,23.6710537 24.6165641,24.5893156 C24.39361,26.4206881 24.1759893,28.975047 23.977354,32.075476 C23.5777788,38.3123043 23.2787763,46.3724311 23.1581524,54.3197714 C23.0274085,62.9338791 23.1116764,70.8403318 23.4249167,76.7966066 C23.7463741,82.9091288 24.3903495,87.0455613 24.8152772,87.4092977 C26.1517456,88.5533093 47.2423371,89.5478516 71.5698242,89.5478516 C83.3035852,89.5478516 94.5852895,89.3292881 103.088762,88.9247899 C107.558594,88.7121663 111.189243,88.4520004 113.804995,88.1519248 C115.139912,87.998785 116.197399,87.8365933 116.951551,87.6698919 C117.503681,87.5478465 117.8455,87.4207169 117.770757,87.4966616 C118.126592,87.135105 118.657009,82.9108426 118.901346,76.7246078 C119.137123,70.7550794 119.177226,62.828406 119.04144,54.0760736 C118.919331,46.2052929 118.659121,38.1075374 118.333617,31.7819301 C118.175316,28.7056402 118.007149,26.1642363 117.841726,24.357868 C117.765027,23.5203253 117.68976,22.8506382 117.618408,22.3677113 Z" id="Rectangle-3" stroke="#1D877A" stroke-width="3" fill="#FFFFFF"></path>
                <path d="M59.8398438,65.5488281 C64.6581369,68.6464844 68.3531239,70.1953125 70.9248047,70.1953125 C73.4964855,70.1953125 77.1914725,68.6464844 82.0097656,65.5488281" id="Line-13" stroke="#000000" stroke-width="4" stroke-linecap="round"></path>
                <path d="M58,48.5 L58,53" id="Line-12" stroke="#000000" stroke-width="4" stroke-linecap="round"></path>
                <path d="M83.5097656,48.5 L83.5097656,53" id="Line-12" stroke="#000000" stroke-width="4" stroke-linecap="round"></path>
                <path d="M13.8789062,1.22900391 C12.422526,1.85530599 12.422526,24.9645182 13.8789062,70.5566406 C20.273763,82.4169922 23.7965495,87.8725586 24.4472656,86.9233398 C25.4233398,85.4995117 24.4472656,74.7867019 24.4472656,56.7491042 C24.4472656,44.7240391 24.7617187,33.2078989 25.390625,22.2006836 C19.172526,7.59326172 15.3352865,0.602701823 13.8789062,1.22900391 Z" id="Line-9" stroke="#1D877A" stroke-width="3" fill="#FFFFFF" stroke-linecap="square"></path>
                <path d="M20.84375,10.4873047 L110.932595,10.4873047" id="Line-10" stroke="#1D877A" stroke-width="3" stroke-linecap="square"></path>
                <path d="M17.2802734,44.1376953 C11.7718099,46.1858724 7.7906901,48.8623047 5.33691406,52.1669922 C2.88313802,55.4716797 1.35579427,60.7067057 0.754882812,67.8720703" id="Line-14" stroke="#000000" stroke-width="5" stroke-linecap="round"></path>
            </g>
            <use id="Line-box1" stroke="#1D877A" mask="url(#mask-2)" stroke-width="12" stroke-dasharray="18" xlink:href="#path-1"></use>
            <path d="M375.101562,154.78125 C373.669264,154.390623 372.334642,153.381519 371.097656,151.753906 C369.860671,150.126294 369.11198,148.335947 368.851562,146.382812 C368.591145,144.429678 369.111973,142.509124 370.414062,140.621094 C371.716152,138.733063 374.190086,137.398441 377.835938,136.617188 C396.71624,141.955756 412.666602,144.592448 425.6875,144.527344 C438.708398,144.462239 448.539029,142.769548 455.179688,139.449219 C461.820346,136.12889 465.04297,131.734402 464.847656,126.265625 C464.652343,120.796848 460.843787,115.263049 453.421875,109.664062 C450.947904,107.841137 447.497418,106.148445 443.070312,104.585938 C438.643207,103.02343 433.727892,101.460945 428.324219,99.8984375 C422.920546,98.3359297 417.191437,96.7734453 411.136719,95.2109375 C405.082001,93.6484297 399.190133,91.8906348 393.460938,89.9375 C389.684877,88.7656191 386.266942,86.7474102 383.207031,83.8828125 C380.14712,81.0182148 377.575531,77.6653838 375.492188,73.8242188 C373.408844,69.9830537 371.976566,65.8164287 371.195312,61.3242188 C370.414059,56.8320088 370.44661,52.3398662 371.292969,47.8476562 C372.139327,43.3554463 373.897122,38.9935107 376.566406,34.7617188 C379.23569,30.5299268 383.044246,26.7864746 387.992188,23.53125 C392.549502,21.1874883 397.595024,19.2018311 403.128906,17.5742188 C408.662788,15.9466064 414.359346,14.8398467 420.21875,14.2539063 C426.078154,13.6679658 431.904919,13.7005176 437.699219,14.3515625 C443.493519,15.0026074 448.929662,16.402333 454.007812,18.5507813 C459.085963,20.6992295 463.578105,23.6614395 467.484375,27.4375 C471.390645,31.2135605 474.385406,35.9661172 476.46875,41.6953125 C476.729168,43.5182383 476.273443,45.0807227 475.101562,46.3828125 C473.929682,47.6849023 472.171887,48.4335928 469.828125,48.6289062 C467.484363,48.8242197 464.750016,48.2382881 461.625,46.8710938 C458.499984,45.5038994 455.114602,42.9323105 451.46875,39.15625 C446.781227,36.5520703 441.214876,35.119793 434.769531,34.859375 C428.324187,34.598957 422.074249,35.1523369 416.019531,36.5195312 C409.964813,37.8867256 404.52867,39.9374863 399.710938,42.671875 C394.893205,45.4062637 391.768236,48.5963359 390.335938,52.2421875 C388.903639,55.8880391 389.652329,59.8593535 392.582031,64.15625 C395.511733,68.4531465 401.664016,72.7499785 411.039062,77.046875 C430.179783,80.8229355 445.479109,85.3476299 456.9375,90.6210938 C468.395891,95.8945576 476.761692,101.428356 482.035156,107.222656 C487.30862,113.016956 489.815105,118.876272 489.554688,124.800781 C489.29427,130.72529 486.983095,136.226537 482.621094,141.304688 C478.259093,146.382838 472.204466,150.809877 464.457031,154.585938 C456.709597,158.361998 448.018277,161.031242 438.382812,162.59375 C428.747348,164.156258 418.460992,164.416672 407.523438,163.375 C396.585883,162.333328 385.778699,159.468773 375.101562,154.78125 Z M554.984375,242.867188 C547.171836,241.044262 540.661484,238.114604 535.453125,234.078125 C530.244766,230.041646 526.598969,226.03778 524.515625,222.066406 C522.432281,218.095032 522.106764,214.644546 523.539062,211.714844 C524.971361,208.785142 528.421848,207.515623 533.890625,207.90625 C540.010447,213.765654 545.902315,217.704417 551.566406,219.722656 C557.230497,221.740896 562.406227,222.098965 567.09375,220.796875 C571.781273,219.494785 575.752588,216.695334 579.007812,212.398438 C582.263037,208.101541 584.476557,202.632846 585.648438,195.992188 C586.820318,189.351529 586.787767,181.636763 585.550781,172.847656 C584.313796,164.05855 581.546896,154.520885 577.25,144.234375 C573.604148,149.052107 569.307316,152.958318 564.359375,155.953125 C559.411434,158.947932 554.203152,160.966141 548.734375,162.007812 C543.265598,163.049484 537.731799,163.082036 532.132812,162.105469 C526.533826,161.128901 521.325545,159.045589 516.507812,155.855469 C511.69008,152.665349 507.4258,148.401068 503.714844,143.0625 C500.003888,137.723932 497.302092,131.148477 495.609375,123.335938 C494.828121,113.700473 495.348949,104.813843 497.171875,96.6757812 C498.994801,88.5377197 501.826804,81.4414365 505.667969,75.3867188 C509.509134,69.332001 514.196587,64.3841338 519.730469,60.5429688 C525.264351,56.7018037 531.351529,54.1953184 537.992188,53.0234375 C544.632846,51.8515566 551.696577,52.209626 559.183594,54.0976562 C566.67061,55.9856865 574.25517,59.5338281 581.9375,64.7421875 C582.848963,70.9922188 584.378896,78.4465713 586.527344,87.1054688 C588.675792,95.7643662 590.954415,105.009065 593.363281,114.839844 C595.772147,124.670622 598.018219,134.794219 600.101562,145.210938 C602.184906,155.627656 603.649735,165.718701 604.496094,175.484375 C605.342452,185.250049 605.342452,194.429645 604.496094,203.023438 C603.649735,211.61723 601.403664,219.039031 597.757812,225.289062 C594.111961,231.539094 588.838576,236.259099 581.9375,239.449219 C575.036424,242.639339 566.052139,243.77865 554.984375,242.867188 Z M515.140625,105.953125 C515.140625,114.807336 516.442695,121.936171 519.046875,127.339844 C521.651055,132.743517 524.971334,136.682279 529.007812,139.15625 C533.044291,141.630221 537.406227,142.73698 542.09375,142.476562 C546.781273,142.216145 551.240864,140.914074 555.472656,138.570312 C559.704448,136.226551 563.350245,132.971375 566.410156,128.804688 C569.470067,124.638 571.325518,119.82034 571.976562,114.351562 C571.325518,111.747383 570.739586,108.850276 570.21875,105.660156 C569.697914,102.470036 569.111982,99.2148604 568.460938,95.8945312 C567.809893,92.5742021 567.093754,89.3841299 566.3125,86.3242188 C565.531246,83.2643076 564.6849,80.5625117 563.773438,78.21875 C561.169258,74.8333164 558.141944,72.6523486 554.691406,71.6757812 C551.240868,70.6992139 547.725278,70.6341104 544.144531,71.4804688 C540.563784,72.3268271 537.048194,73.8893115 533.597656,76.1679688 C530.147118,78.446626 527.054701,81.1809736 524.320312,84.3710938 C521.585924,87.5612139 519.372404,91.0117002 517.679688,94.7226562 C515.986971,98.4336123 515.140625,102.177064 515.140625,105.953125 Z" id="Sg" fill="#000000"></path>
            <path d="M43.5,166.5 L646.686538,166.5" id="Line-27" stroke="#1D877A" stroke-width="3" stroke-linecap="square" stroke-dasharray="12"></path>
        </g>
    </g>
</svg>