<svg xmlns="http://www.w3.org/2000/svg" width="786" height="534"><g fill="none" fill-rule="evenodd"><path fill="#FFF" stroke="#1D877A" stroke-linecap="square" stroke-width="3" d="M203.15 59.531c.823-.879-24.197-38.01-28.175-39.385-3.979-1.374-86.046-1.374-87.532 0-.72.666 9.414 14.452 12.237 19.373 3.003 5.235 10.253 20.012 10.911 20.012 1.278 0 91.737.879 92.56 0z"/><path stroke="#000" stroke-linecap="round" stroke-width="5" d="M206.04 85.119c5.063-1.837 8.161-4.644 9.296-8.42 1.134-3.776 1.134-9.368 0-16.777M142.794 120.48c-3.574 2.252-5.872 4.372-6.894 6.36-1.022 1.988-1.35 5.306-.987 9.955l-7.646 2.822M162.54 120.48c3.575 2.252 5.873 4.372 6.895 6.36 1.022 1.988 1.35 5.306.987 9.955l7.646 2.822"/><path fill="#FFF" stroke="#1D877A" stroke-width="3" d="M203.193 124.997c.356-.363.886-4.587 1.13-10.772.236-5.97.276-13.897.14-22.649-.122-7.87-.382-15.968-.708-22.294-.158-3.076-.326-5.618-.491-7.424a38.38 38.38 0 0 0-.224-1.99c-.073-.006-.145-.017-.182-.02a67.357 67.357 0 0 0-3.037-.21c-2.561-.134-6.198-.258-10.693-.366-8.758-.21-20.384-.353-32.103-.394-12.28-.043-23.73.028-32.22.21-4.577.1-8.239.23-10.833.388-1.339.082-2.383.172-3.11.266-.353.047-.73.138-.498-.097.166-.168.099.029.042.295-.107.507-.219 1.231-.33 2.15-.223 1.83-.441 4.385-.64 7.485-.4 6.237-.698 14.297-.819 22.245-.13 8.614-.046 16.52.267 22.477.321 6.112.965 10.249 1.39 10.612 1.337 1.144 22.419 2.139 46.736 2.139 11.73 0 23.006-.219 31.506-.623 4.468-.213 8.098-.473 10.712-.773 1.335-.153 2.392-.315 3.146-.482.551-.122.893-.25.819-.173z"/><path stroke="#000" stroke-linecap="round" stroke-width="4" d="M145.634 102.168c4.819 3.097 8.514 4.646 11.085 4.646 2.572 0 6.267-1.549 11.085-4.646M143.794 85.119v4.5M169.304 85.119v4.5"/><path fill="#FFF" stroke="#1D877A" stroke-linecap="square" stroke-width="3" d="M87.469 21.787c-1.457.626-1.457 22.82 0 66.578 14.283 24.988 21.75 37.008 22.4 36.058.976-1.423 0-12.136 0-30.174 0-12.025.315-23.541.944-34.548-14.107-25.902-21.888-38.54-23.344-37.914z"/><path stroke="#1D877A" stroke-linecap="square" stroke-width="3" d="M98.783 38.664h90.528"/><path stroke="#000" stroke-linecap="round" stroke-width="5" d="M97.648 79.023c-5.508-2.048-9.49-4.724-11.943-8.03-2.454-3.304-5.987-7.847-10.6-13.627"/><path fill="#FFF" stroke="#1D877A" stroke-linecap="square" stroke-width="3" d="M361.885 59.531c.823-.879-24.198-38.01-28.176-39.385-3.978-1.374-86.045-1.374-87.531 0-.72.666 9.413 14.452 12.236 19.373 3.003 5.235 10.253 20.012 10.912 20.012 1.277 0 91.737.879 92.56 0z"/><path stroke="#000" stroke-linecap="round" stroke-width="5" d="M364.775 85.119c5.063-1.837 8.16-4.644 9.295-8.42 1.134-3.776 1.134-9.368 0-16.777M301.529 120.48c-3.575 2.252-5.873 4.372-6.895 6.36-1.021 1.988-1.35 5.306-.986 9.955l-7.646 2.822M321.275 120.48c3.575 2.252 5.873 4.372 6.894 6.36 1.022 1.988 1.351 5.306.987 9.955l7.646 2.822"/><path fill="#FFF" stroke="#1D877A" stroke-width="3" d="M361.927 124.997c.356-.363.886-4.587 1.13-10.772.236-5.97.276-13.897.14-22.649-.121-7.87-.382-15.968-.707-22.294-.158-3.076-.327-5.618-.492-7.424a38.38 38.38 0 0 0-.223-1.99c-.074-.006-.145-.017-.183-.02a67.357 67.357 0 0 0-3.037-.21c-2.56-.134-6.197-.258-10.693-.366-8.758-.21-20.384-.353-32.102-.394-12.28-.043-23.73.028-32.221.21-4.576.1-8.238.23-10.832.388-1.34.082-2.384.172-3.11.266-.354.047-.732.138-.499-.097.167-.168.1.029.043.295-.108.507-.22 1.231-.331 2.15-.223 1.83-.44 4.385-.64 7.485-.399 6.237-.698 14.297-.818 22.245-.131 8.614-.047 16.52.266 22.477.322 6.112.966 10.249 1.39 10.612 1.337 1.144 22.42 2.139 46.737 2.139 11.729 0 23.006-.219 31.506-.623 4.468-.213 8.097-.473 10.712-.773 1.334-.153 2.391-.315 3.145-.482.552-.122.893-.25.82-.173z"/><path stroke="#000" stroke-linecap="round" stroke-width="4" d="M304.369 102.168c4.818 3.097 8.513 4.646 11.085 4.646 2.571 0 6.266-1.549 11.085-4.646M302.529 85.119v4.5M328.039 85.119v4.5"/><path fill="#FFF" stroke="#1D877A" stroke-linecap="square" stroke-width="3" d="M246.203 21.787c-1.456.626-1.456 22.82 0 66.578 14.283 24.988 21.75 37.008 22.4 36.058.977-1.423 0-12.136 0-30.174 0-12.025.315-23.541.944-34.548-14.106-25.902-21.887-38.54-23.344-37.914z"/><path stroke="#1D877A" stroke-linecap="square" stroke-width="3" d="M257.518 38.664h90.527"/><path stroke="#000" stroke-linecap="round" stroke-width="5" d="M256.383 79.023c-5.509-2.048-9.49-4.724-11.944-8.03-2.453-3.304-5.987-7.847-10.6-13.627"/><g><path fill="#FFF" stroke="#1D877A" stroke-linecap="square" stroke-width="3" d="M532.776 450.031c.822-.879-24.198-38.01-28.176-39.385-3.979-1.374-86.046-1.374-87.532 0-.72.666 9.414 14.452 12.237 19.373 3.003 5.235 10.253 20.012 10.911 20.012 1.278 0 91.737.879 92.56 0z"/><path stroke="#000" stroke-linecap="round" stroke-width="5" d="M535.666 475.619c5.062-1.837 8.16-4.644 9.295-8.42 1.134-3.776 1.134-9.368 0-16.777M472.42 510.98c-3.575 2.252-5.873 4.372-6.895 6.36-1.022 1.988-1.35 5.306-.987 9.955l-7.646 2.822M492.166 510.98c3.574 2.252 5.872 4.372 6.894 6.36 1.022 1.988 1.35 5.306.987 9.955l7.646 2.822"/><path fill="#FFF" stroke="#1D877A" stroke-width="3" d="M532.818 515.497c.356-.363.886-4.587 1.13-10.772.236-5.97.276-13.897.14-22.649-.122-7.87-.382-15.968-.708-22.294-.158-3.076-.326-5.618-.491-7.424a38.38 38.38 0 0 0-.224-1.99c-.073-.006-.145-.017-.182-.02a67.357 67.357 0 0 0-3.037-.21c-2.561-.134-6.198-.258-10.693-.366-8.758-.21-20.384-.353-32.103-.394-12.28-.043-23.73.028-32.22.21-4.577.1-8.239.23-10.833.388-1.339.082-2.383.172-3.11.266-.353.047-.73.138-.498-.097.166-.168.099.029.042.295-.107.507-.219 1.231-.33 2.15-.223 1.83-.441 4.385-.64 7.485-.4 6.237-.698 14.297-.819 22.245-.13 8.614-.046 16.52.267 22.477.321 6.112.965 10.249 1.39 10.612 1.337 1.144 22.419 2.139 46.736 2.139 11.73 0 23.006-.219 31.506-.623 4.468-.213 8.098-.473 10.712-.773 1.335-.153 2.392-.315 3.146-.482.551-.122.893-.25.819-.173z"/><path stroke="#000" stroke-linecap="round" stroke-width="4" d="M475.26 492.668c4.818 3.097 8.513 4.646 11.084 4.646 2.572 0 6.267-1.549 11.085-4.646M473.42 475.619v4.5M498.93 475.619v4.5"/><path fill="#FFF" stroke="#1D877A" stroke-linecap="square" stroke-width="3" d="M417.094 412.287c-1.457.626-1.457 22.82 0 66.578 14.283 24.988 21.75 37.008 22.4 36.058.976-1.423 0-12.136 0-30.174 0-12.025.315-23.541.943-34.548-14.106-25.902-21.887-38.54-23.343-37.914z"/><path stroke="#1D877A" stroke-linecap="square" stroke-width="3" d="M428.408 429.164h90.528"/><path stroke="#000" stroke-linecap="round" stroke-width="5" d="M427.273 469.523c-5.508-2.048-9.49-4.724-11.943-8.03-2.454-3.304-5.987-7.847-10.6-13.627"/></g><g><path fill="#FFF" stroke="#1D877A" stroke-linecap="square" stroke-width="3" d="M691.51 450.031c.823-.879-24.198-38.01-28.176-39.385-3.978-1.374-86.045-1.374-87.531 0-.72.666 9.413 14.452 12.236 19.373 3.003 5.235 10.253 20.012 10.912 20.012 1.277 0 91.737.879 92.56 0z"/><path stroke="#000" stroke-linecap="round" stroke-width="5" d="M694.4 475.619c5.063-1.837 8.16-4.644 9.295-8.42 1.134-3.776 1.134-9.368 0-16.777M631.154 510.98c-3.575 2.252-5.873 4.372-6.895 6.36-1.021 1.988-1.35 5.306-.986 9.955l-7.646 2.822M650.9 510.98c3.575 2.252 5.873 4.372 6.894 6.36 1.022 1.988 1.351 5.306.987 9.955l7.646 2.822"/><path fill="#FFF" stroke="#1D877A" stroke-width="3" d="M691.552 515.497c.356-.363.886-4.587 1.13-10.772.236-5.97.276-13.897.14-22.649-.121-7.87-.382-15.968-.707-22.294-.158-3.076-.327-5.618-.492-7.424a38.38 38.38 0 0 0-.223-1.99c-.074-.006-.145-.017-.183-.02a67.357 67.357 0 0 0-3.037-.21c-2.56-.134-6.197-.258-10.693-.366-8.758-.21-20.384-.353-32.102-.394-12.28-.043-23.73.028-32.221.21-4.576.1-8.238.23-10.832.388-1.34.082-2.384.172-3.11.266-.354.047-.732.138-.499-.097.167-.168.1.029.043.295-.108.507-.22 1.231-.331 2.15-.223 1.83-.44 4.385-.64 7.485-.399 6.237-.698 14.297-.818 22.245-.131 8.614-.047 16.52.266 22.477.322 6.112.966 10.249 1.39 10.612 1.337 1.144 22.42 2.139 46.737 2.139 11.729 0 23.006-.219 31.506-.623 4.468-.213 8.097-.473 10.712-.773 1.334-.153 2.391-.315 3.145-.482.552-.122.893-.25.82-.173z"/><path stroke="#000" stroke-linecap="round" stroke-width="4" d="M633.994 492.668c4.818 3.097 8.513 4.646 11.085 4.646 2.571 0 6.266-1.549 11.085-4.646M632.154 475.619v4.5M657.664 475.619v4.5"/><path fill="#FFF" stroke="#1D877A" stroke-linecap="square" stroke-width="3" d="M575.828 412.287c-1.456.626-1.456 22.82 0 66.578 14.283 24.988 21.75 37.008 22.4 36.058.977-1.423 0-12.136 0-30.174 0-12.025.315-23.541.944-34.548-14.106-25.902-21.887-38.54-23.344-37.914z"/><path stroke="#1D877A" stroke-linecap="square" stroke-width="3" d="M587.143 429.164h90.527"/><path stroke="#000" stroke-linecap="round" stroke-width="5" d="M586.008 469.523c-5.509-2.048-9.49-4.724-11.944-8.03-2.453-3.304-5.987-7.847-10.6-13.627"/></g><g><path fill="#FFF" stroke="#1D877A" stroke-linecap="square" stroke-width="3" d="M520.776 59.531c.822-.879-24.198-38.01-28.176-39.385-3.979-1.374-86.046-1.374-87.532 0-.72.666 9.414 14.452 12.237 19.373 3.003 5.235 10.253 20.012 10.911 20.012 1.278 0 91.737.879 92.56 0z"/><path stroke="#000" stroke-linecap="round" stroke-width="5" d="M523.666 85.119c5.062-1.837 8.16-4.644 9.295-8.42 1.134-3.776 1.134-9.368 0-16.777M460.42 120.48c-3.575 2.252-5.873 4.372-6.895 6.36-1.022 1.988-1.35 5.306-.987 9.955l-7.646 2.822M480.166 120.48c3.574 2.252 5.872 4.372 6.894 6.36 1.022 1.988 1.35 5.306.987 9.955l7.646 2.822"/><path fill="#FFF" stroke="#1D877A" stroke-width="3" d="M520.818 124.997c.356-.363.886-4.587 1.13-10.772.236-5.97.276-13.897.14-22.649-.122-7.87-.382-15.968-.708-22.294-.158-3.076-.326-5.618-.491-7.424a38.38 38.38 0 0 0-.224-1.99c-.073-.006-.145-.017-.182-.02a67.357 67.357 0 0 0-3.037-.21c-2.561-.134-6.198-.258-10.693-.366-8.758-.21-20.384-.353-32.103-.394-12.28-.043-23.73.028-32.22.21-4.577.1-8.239.23-10.833.388-1.339.082-2.383.172-3.11.266-.353.047-.73.138-.498-.097.166-.168.099.029.042.295-.107.507-.219 1.231-.33 2.15-.223 1.83-.441 4.385-.64 7.485-.4 6.237-.698 14.297-.819 22.245-.13 8.614-.046 16.52.267 22.477.321 6.112.965 10.249 1.39 10.612 1.337 1.144 22.419 2.139 46.736 2.139 11.73 0 23.006-.219 31.506-.623 4.468-.213 8.098-.473 10.712-.773 1.335-.153 2.392-.315 3.146-.482.551-.122.893-.25.819-.173z"/><path stroke="#000" stroke-linecap="round" stroke-width="4" d="M463.26 102.168c4.818 3.097 8.513 4.646 11.084 4.646 2.572 0 6.267-1.549 11.085-4.646M461.42 85.119v4.5M486.93 85.119v4.5"/><path fill="#FFF" stroke="#1D877A" stroke-linecap="square" stroke-width="3" d="M405.094 21.787c-1.457.626-1.457 22.82 0 66.578 14.283 24.988 21.75 37.008 22.4 36.058.976-1.423 0-12.136 0-30.174 0-12.025.315-23.541.943-34.548-14.106-25.902-21.887-38.54-23.343-37.914z"/><path stroke="#1D877A" stroke-linecap="square" stroke-width="3" d="M416.408 38.664h90.528"/><path stroke="#000" stroke-linecap="round" stroke-width="5" d="M415.273 79.023c-5.508-2.048-9.49-4.724-11.943-8.03-2.454-3.304-5.987-7.847-10.6-13.627"/></g><g><path fill="#FFF" stroke="#1D877A" stroke-linecap="square" stroke-width="3" d="M678.776 59.531c.822-.879-24.198-38.01-28.176-39.385-3.979-1.374-86.046-1.374-87.532 0-.72.666 9.414 14.452 12.237 19.373 3.003 5.235 10.253 20.012 10.911 20.012 1.278 0 91.737.879 92.56 0z"/><path stroke="#000" stroke-linecap="round" stroke-width="5" d="M681.666 85.119c5.062-1.837 8.16-4.644 9.295-8.42 1.134-3.776 1.134-9.368 0-16.777M618.42 120.48c-3.575 2.252-5.873 4.372-6.895 6.36-1.022 1.988-1.35 5.306-.987 9.955l-7.646 2.822M638.166 120.48c3.574 2.252 5.872 4.372 6.894 6.36 1.022 1.988 1.35 5.306.987 9.955l7.646 2.822"/><path fill="#FFF" stroke="#1D877A" stroke-width="3" d="M678.818 124.997c.356-.363.886-4.587 1.13-10.772.236-5.97.276-13.897.14-22.649-.122-7.87-.382-15.968-.708-22.294-.158-3.076-.326-5.618-.491-7.424a38.38 38.38 0 0 0-.224-1.99c-.073-.006-.145-.017-.182-.02a67.357 67.357 0 0 0-3.037-.21c-2.561-.134-6.198-.258-10.693-.366-8.758-.21-20.384-.353-32.103-.394-12.28-.043-23.73.028-32.22.21-4.577.1-8.239.23-10.833.388-1.339.082-2.383.172-3.11.266-.353.047-.73.138-.498-.097.166-.168.099.029.042.295-.107.507-.219 1.231-.33 2.15-.223 1.83-.441 4.385-.64 7.485-.4 6.237-.698 14.297-.819 22.245-.13 8.614-.046 16.52.267 22.477.321 6.112.965 10.249 1.39 10.612 1.337 1.144 22.419 2.139 46.736 2.139 11.73 0 23.006-.219 31.506-.623 4.468-.213 8.098-.473 10.712-.773 1.335-.153 2.392-.315 3.146-.482.551-.122.893-.25.819-.173z"/><path stroke="#000" stroke-linecap="round" stroke-width="4" d="M621.26 102.168c4.818 3.097 8.513 4.646 11.084 4.646 2.572 0 6.267-1.549 11.085-4.646M619.42 85.119v4.5M644.93 85.119v4.5"/><path fill="#FFF" stroke="#1D877A" stroke-linecap="square" stroke-width="3" d="M563.094 21.787c-1.457.626-1.457 22.82 0 66.578 14.283 24.988 21.75 37.008 22.4 36.058.976-1.423 0-12.136 0-30.174 0-12.025.315-23.541.944-34.548-14.107-25.902-21.888-38.54-23.344-37.914z"/><path stroke="#1D877A" stroke-linecap="square" stroke-width="3" d="M574.408 38.664h90.528"/><path stroke="#000" stroke-linecap="round" stroke-width="5" d="M573.273 79.023c-5.508-2.048-9.49-4.724-11.943-8.03-2.454-3.304-5.987-7.847-10.6-13.627"/></g><g><path fill="#FFF" stroke="#1D877A" stroke-linecap="square" stroke-width="3" d="M211.963 255.031c.823-.879-24.198-38.01-28.176-39.385-3.978-1.374-86.045-1.374-87.531 0-.72.666 9.413 14.452 12.236 19.373 3.003 5.235 10.253 20.012 10.912 20.012 1.277 0 91.737.879 92.56 0z"/><path stroke="#000" stroke-linecap="round" stroke-width="5" d="M214.853 280.619c5.063-1.837 8.161-4.644 9.295-8.42 1.134-3.776 1.134-9.368 0-16.777M151.607 315.98c-3.575 2.252-5.873 4.372-6.895 6.36-1.021 1.988-1.35 5.306-.986 9.955l-7.646 2.822M171.353 315.98c3.575 2.252 5.873 4.372 6.895 6.36 1.021 1.988 1.35 5.306.986 9.955l7.646 2.822"/><path fill="#FFF" stroke="#1D877A" stroke-width="3" d="M212.005 320.497c.356-.363.886-4.587 1.13-10.772.236-5.97.277-13.897.14-22.649-.121-7.87-.382-15.968-.707-22.294-.158-3.076-.326-5.618-.492-7.424a38.38 38.38 0 0 0-.223-1.99c-.074-.006-.145-.017-.183-.02a67.357 67.357 0 0 0-3.037-.21c-2.56-.134-6.197-.258-10.693-.366-8.758-.21-20.384-.353-32.102-.394-12.28-.043-23.73.028-32.221.21-4.576.1-8.238.23-10.832.388-1.34.082-2.383.172-3.11.266-.354.047-.731.138-.499-.097.167-.168.1.029.043.295-.107.507-.22 1.231-.331 2.15-.223 1.83-.44 4.385-.64 7.485-.399 6.237-.698 14.297-.818 22.245-.131 8.614-.047 16.52.266 22.477.322 6.112.966 10.249 1.39 10.612 1.337 1.144 22.42 2.139 46.737 2.139 11.729 0 23.006-.219 31.506-.623 4.468-.213 8.097-.473 10.712-.773 1.334-.153 2.391-.315 3.145-.482.552-.122.893-.25.82-.173z"/><path stroke="#000" stroke-linecap="round" stroke-width="4" d="M154.447 297.668c4.818 3.097 8.513 4.646 11.085 4.646 2.571 0 6.266-1.549 11.085-4.646M152.607 280.619v4.5M178.117 280.619v4.5"/><path fill="#FFF" stroke="#1D877A" stroke-linecap="square" stroke-width="3" d="M96.281 217.287c-1.456.626-1.456 22.82 0 66.578 14.283 24.988 21.75 37.008 22.4 36.058.977-1.423 0-12.136 0-30.174 0-12.025.315-23.541.944-34.548-14.106-25.902-21.887-38.54-23.344-37.914z"/><path stroke="#1D877A" stroke-linecap="square" stroke-width="3" d="M107.596 234.164h90.527"/><path stroke="#000" stroke-linecap="round" stroke-width="5" d="M106.46 274.523c-5.508-2.048-9.489-4.724-11.943-8.03-2.453-3.304-5.987-7.847-10.6-13.627"/></g><g><path fill="#FFF" stroke="#1D877A" stroke-linecap="square" stroke-width="3" d="M370.698 255.031c.822-.879-24.198-38.01-28.177-39.385-3.978-1.374-86.045-1.374-87.53 0-.72.666 9.413 14.452 12.236 19.373 3.003 5.235 10.253 20.012 10.911 20.012 1.278 0 91.737.879 92.56 0z"/><path stroke="#000" stroke-linecap="round" stroke-width="5" d="M373.588 280.619c5.062-1.837 8.16-4.644 9.294-8.42 1.135-3.776 1.135-9.368 0-16.777M310.341 315.98c-3.574 2.252-5.872 4.372-6.894 6.36-1.022 1.988-1.35 5.306-.987 9.955l-7.646 2.822M330.087 315.98c3.575 2.252 5.873 4.372 6.895 6.36 1.022 1.988 1.35 5.306.987 9.955l7.646 2.822"/><path fill="#FFF" stroke="#1D877A" stroke-width="3" d="M370.74 320.497c.355-.363.886-4.587 1.13-10.772.236-5.97.276-13.897.14-22.649-.122-7.87-.382-15.968-.708-22.294-.158-3.076-.326-5.618-.492-7.424a38.38 38.38 0 0 0-.223-1.99c-.074-.006-.145-.017-.182-.02a67.357 67.357 0 0 0-3.037-.21c-2.561-.134-6.198-.258-10.693-.366-8.759-.21-20.384-.353-32.103-.394-12.28-.043-23.73.028-32.22.21-4.577.1-8.239.23-10.833.388-1.339.082-2.383.172-3.11.266-.353.047-.731.138-.498-.097.166-.168.099.029.042.295-.107.507-.219 1.231-.33 2.15-.224 1.83-.441 4.385-.64 7.485-.4 6.237-.698 14.297-.819 22.245-.13 8.614-.046 16.52.267 22.477.321 6.112.965 10.249 1.39 10.612 1.337 1.144 22.419 2.139 46.736 2.139 11.73 0 23.006-.219 31.506-.623 4.468-.213 8.098-.473 10.712-.773 1.335-.153 2.392-.315 3.146-.482.551-.122.893-.25.819-.173z"/><path stroke="#000" stroke-linecap="round" stroke-width="4" d="M313.181 297.668c4.818 3.097 8.513 4.646 11.085 4.646 2.572 0 6.267-1.549 11.085-4.646M311.341 280.619v4.5M336.851 280.619v4.5"/><path fill="#FFF" stroke="#1D877A" stroke-linecap="square" stroke-width="3" d="M255.016 217.287c-1.457.626-1.457 22.82 0 66.578 14.283 24.988 21.75 37.008 22.4 36.058.976-1.423 0-12.136 0-30.174 0-12.025.314-23.541.943-34.548-14.106-25.902-21.887-38.54-23.343-37.914z"/><path stroke="#1D877A" stroke-linecap="square" stroke-width="3" d="M266.33 234.164h90.527"/><path stroke="#000" stroke-linecap="round" stroke-width="5" d="M265.195 274.523c-5.508-2.048-9.49-4.724-11.943-8.03-2.454-3.304-5.987-7.847-10.6-13.627"/></g><g><path fill="#FFF" stroke="#1D877A" stroke-linecap="square" stroke-width="3" d="M529.588 255.031c.823-.879-24.198-38.01-28.176-39.385-3.978-1.374-86.045-1.374-87.531 0-.72.666 9.413 14.452 12.236 19.373 3.003 5.235 10.253 20.012 10.912 20.012 1.277 0 91.737.879 92.56 0z"/><path stroke="#000" stroke-linecap="round" stroke-width="5" d="M532.478 280.619c5.063-1.837 8.161-4.644 9.295-8.42 1.134-3.776 1.134-9.368 0-16.777M469.232 315.98c-3.575 2.252-5.873 4.372-6.895 6.36-1.021 1.988-1.35 5.306-.986 9.955l-7.646 2.822M488.978 315.98c3.575 2.252 5.873 4.372 6.895 6.36 1.021 1.988 1.35 5.306.986 9.955l7.646 2.822"/><path fill="#FFF" stroke="#1D877A" stroke-width="3" d="M529.63 320.497c.356-.363.886-4.587 1.13-10.772.236-5.97.277-13.897.14-22.649-.121-7.87-.382-15.968-.707-22.294-.158-3.076-.326-5.618-.492-7.424a38.38 38.38 0 0 0-.223-1.99c-.074-.006-.145-.017-.183-.02a67.357 67.357 0 0 0-3.037-.21c-2.56-.134-6.197-.258-10.693-.366-8.758-.21-20.384-.353-32.102-.394-12.28-.043-23.73.028-32.221.21-4.576.1-8.238.23-10.832.388-1.34.082-2.383.172-3.11.266-.354.047-.731.138-.499-.097.167-.168.1.029.043.295-.107.507-.22 1.231-.331 2.15-.223 1.83-.44 4.385-.64 7.485-.399 6.237-.698 14.297-.818 22.245-.131 8.614-.047 16.52.266 22.477.322 6.112.966 10.249 1.39 10.612 1.337 1.144 22.42 2.139 46.737 2.139 11.729 0 23.006-.219 31.506-.623 4.468-.213 8.097-.473 10.712-.773 1.334-.153 2.391-.315 3.145-.482.552-.122.893-.25.82-.173z"/><path stroke="#000" stroke-linecap="round" stroke-width="4" d="M472.072 297.668c4.818 3.097 8.513 4.646 11.085 4.646 2.571 0 6.266-1.549 11.085-4.646M470.232 280.619v4.5M495.742 280.619v4.5"/><path fill="#FFF" stroke="#1D877A" stroke-linecap="square" stroke-width="3" d="M413.906 217.287c-1.456.626-1.456 22.82 0 66.578 14.283 24.988 21.75 37.008 22.4 36.058.977-1.423 0-12.136 0-30.174 0-12.025.315-23.541.944-34.548-14.106-25.902-21.887-38.54-23.344-37.914z"/><path stroke="#1D877A" stroke-linecap="square" stroke-width="3" d="M425.22 234.164h90.528"/><path stroke="#000" stroke-linecap="round" stroke-width="5" d="M424.086 274.523c-5.509-2.048-9.49-4.724-11.944-8.03-2.453-3.304-5.987-7.847-10.6-13.627"/></g><g><path fill="#FFF" stroke="#1D877A" stroke-linecap="square" stroke-width="3" d="M687.588 255.031c.823-.879-24.198-38.01-28.176-39.385-3.978-1.374-86.045-1.374-87.531 0-.72.666 9.413 14.452 12.236 19.373 3.003 5.235 10.253 20.012 10.912 20.012 1.277 0 91.737.879 92.56 0z"/><path stroke="#000" stroke-linecap="round" stroke-width="5" d="M690.478 280.619c5.063-1.837 8.161-4.644 9.295-8.42 1.134-3.776 1.134-9.368 0-16.777M627.232 315.98c-3.575 2.252-5.873 4.372-6.895 6.36-1.021 1.988-1.35 5.306-.986 9.955l-7.646 2.822M646.978 315.98c3.575 2.252 5.873 4.372 6.895 6.36 1.021 1.988 1.35 5.306.986 9.955l7.646 2.822"/><path fill="#FFF" stroke="#1D877A" stroke-width="3" d="M687.63 320.497c.356-.363.886-4.587 1.13-10.772.236-5.97.277-13.897.14-22.649-.121-7.87-.382-15.968-.707-22.294-.158-3.076-.326-5.618-.492-7.424a38.38 38.38 0 0 0-.223-1.99c-.074-.006-.145-.017-.183-.02a67.357 67.357 0 0 0-3.037-.21c-2.56-.134-6.197-.258-10.693-.366-8.758-.21-20.384-.353-32.102-.394-12.28-.043-23.73.028-32.221.21-4.576.1-8.238.23-10.832.388-1.34.082-2.383.172-3.11.266-.354.047-.731.138-.499-.097.167-.168.1.029.043.295-.107.507-.22 1.231-.331 2.15-.223 1.83-.44 4.385-.64 7.485-.399 6.237-.698 14.297-.818 22.245-.131 8.614-.047 16.52.266 22.477.322 6.112.966 10.249 1.39 10.612 1.337 1.144 22.42 2.139 46.737 2.139 11.729 0 23.006-.219 31.506-.623 4.468-.213 8.097-.473 10.712-.773 1.334-.153 2.391-.315 3.145-.482.552-.122.893-.25.82-.173z"/><path stroke="#000" stroke-linecap="round" stroke-width="4" d="M630.072 297.668c4.818 3.097 8.513 4.646 11.085 4.646 2.571 0 6.266-1.549 11.085-4.646M628.232 280.619v4.5M653.742 280.619v4.5"/><path fill="#FFF" stroke="#1D877A" stroke-linecap="square" stroke-width="3" d="M571.906 217.287c-1.456.626-1.456 22.82 0 66.578 14.283 24.988 21.75 37.008 22.4 36.058.977-1.423 0-12.136 0-30.174 0-12.025.315-23.541.944-34.548-14.106-25.902-21.887-38.54-23.344-37.914z"/><path stroke="#1D877A" stroke-linecap="square" stroke-width="3" d="M583.22 234.164h90.528"/><path stroke="#000" stroke-linecap="round" stroke-width="5" d="M582.086 274.523c-5.509-2.048-9.49-4.724-11.944-8.03-2.453-3.304-5.987-7.847-10.6-13.627"/></g><g><path fill="#FFF" stroke="#1D877A" stroke-linecap="square" stroke-width="3" d="M222.776 450.031c.822-.879-24.198-38.01-28.176-39.385-3.979-1.374-86.046-1.374-87.532 0-.72.666 9.414 14.452 12.237 19.373 3.003 5.235 10.253 20.012 10.911 20.012 1.278 0 91.737.879 92.56 0z"/><path stroke="#000" stroke-linecap="round" stroke-width="5" d="M225.666 475.619c5.062-1.837 8.16-4.644 9.295-8.42 1.134-3.776 1.134-9.368 0-16.777M162.42 510.98c-3.575 2.252-5.873 4.372-6.895 6.36-1.022 1.988-1.35 5.306-.987 9.955l-7.646 2.822M182.166 510.98c3.574 2.252 5.872 4.372 6.894 6.36 1.022 1.988 1.35 5.306.987 9.955l7.646 2.822"/><path fill="#FFF" stroke="#1D877A" stroke-width="3" d="M222.818 515.497c.356-.363.886-4.587 1.13-10.772.236-5.97.276-13.897.14-22.649-.122-7.87-.382-15.968-.708-22.294-.158-3.076-.326-5.618-.491-7.424a38.38 38.38 0 0 0-.224-1.99c-.073-.006-.145-.017-.182-.02a67.357 67.357 0 0 0-3.037-.21c-2.561-.134-6.198-.258-10.693-.366-8.758-.21-20.384-.353-32.103-.394-12.28-.043-23.73.028-32.22.21-4.577.1-8.239.23-10.833.388-1.339.082-2.383.172-3.11.266-.353.047-.73.138-.498-.097.166-.168.099.029.042.295-.107.507-.219 1.231-.33 2.15-.223 1.83-.441 4.385-.64 7.485-.4 6.237-.698 14.297-.819 22.245-.13 8.614-.046 16.52.267 22.477.321 6.112.965 10.249 1.39 10.612 1.337 1.144 22.419 2.139 46.736 2.139 11.73 0 23.006-.219 31.506-.623 4.468-.213 8.098-.473 10.712-.773 1.335-.153 2.392-.315 3.146-.482.551-.122.893-.25.819-.173z"/><path stroke="#000" stroke-linecap="round" stroke-width="4" d="M165.26 492.668c4.818 3.097 8.513 4.646 11.084 4.646 2.572 0 6.267-1.549 11.085-4.646M163.42 475.619v4.5M188.93 475.619v4.5"/><path fill="#FFF" stroke="#1D877A" stroke-linecap="square" stroke-width="3" d="M107.094 412.287c-1.457.626-1.457 22.82 0 66.578 14.283 24.988 21.75 37.008 22.4 36.058.976-1.423 0-12.136 0-30.174 0-12.025.315-23.541.944-34.548-14.107-25.902-21.888-38.54-23.344-37.914z"/><path stroke="#1D877A" stroke-linecap="square" stroke-width="3" d="M118.408 429.164h90.528"/><path stroke="#000" stroke-linecap="round" stroke-width="5" d="M117.273 469.523c-5.508-2.048-9.49-4.724-11.943-8.03-2.454-3.304-5.987-7.847-10.6-13.627"/></g><g><path fill="#FFF" stroke="#1D877A" stroke-linecap="square" stroke-width="3" d="M378.776 450.031c.822-.879-24.198-38.01-28.176-39.385-3.979-1.374-86.046-1.374-87.532 0-.72.666 9.414 14.452 12.237 19.373 3.003 5.235 10.253 20.012 10.911 20.012 1.278 0 91.737.879 92.56 0z"/><path stroke="#000" stroke-linecap="round" stroke-width="5" d="M381.666 475.619c5.062-1.837 8.16-4.644 9.295-8.42 1.134-3.776 1.134-9.368 0-16.777M318.42 510.98c-3.575 2.252-5.873 4.372-6.895 6.36-1.022 1.988-1.35 5.306-.987 9.955l-7.646 2.822M338.166 510.98c3.574 2.252 5.872 4.372 6.894 6.36 1.022 1.988 1.35 5.306.987 9.955l7.646 2.822"/><path fill="#FFF" stroke="#1D877A" stroke-width="3" d="M378.818 515.497c.356-.363.886-4.587 1.13-10.772.236-5.97.276-13.897.14-22.649-.122-7.87-.382-15.968-.708-22.294-.158-3.076-.326-5.618-.491-7.424a38.38 38.38 0 0 0-.224-1.99c-.073-.006-.145-.017-.182-.02a67.357 67.357 0 0 0-3.037-.21c-2.561-.134-6.198-.258-10.693-.366-8.758-.21-20.384-.353-32.103-.394-12.28-.043-23.73.028-32.22.21-4.577.1-8.239.23-10.833.388-1.339.082-2.383.172-3.11.266-.353.047-.73.138-.498-.097.166-.168.099.029.042.295-.107.507-.219 1.231-.33 2.15-.223 1.83-.441 4.385-.64 7.485-.4 6.237-.698 14.297-.819 22.245-.13 8.614-.046 16.52.267 22.477.321 6.112.965 10.249 1.39 10.612 1.337 1.144 22.419 2.139 46.736 2.139 11.73 0 23.006-.219 31.506-.623 4.468-.213 8.098-.473 10.712-.773 1.335-.153 2.392-.315 3.146-.482.551-.122.893-.25.819-.173z"/><path stroke="#000" stroke-linecap="round" stroke-width="4" d="M321.26 492.668c4.818 3.097 8.513 4.646 11.084 4.646 2.572 0 6.267-1.549 11.085-4.646M319.42 475.619v4.5M344.93 475.619v4.5"/><path fill="#FFF" stroke="#1D877A" stroke-linecap="square" stroke-width="3" d="M263.094 412.287c-1.457.626-1.457 22.82 0 66.578 14.283 24.988 21.75 37.008 22.4 36.058.976-1.423 0-12.136 0-30.174 0-12.025.315-23.541.943-34.548-14.106-25.902-21.887-38.54-23.343-37.914z"/><path stroke="#1D877A" stroke-linecap="square" stroke-width="3" d="M274.408 429.164h90.528"/><path stroke="#000" stroke-linecap="round" stroke-width="5" d="M273.273 469.523c-5.508-2.048-9.49-4.724-11.943-8.03-2.454-3.304-5.987-7.847-10.6-13.627"/></g><path stroke="#1D877A" stroke-dasharray="18" stroke-linecap="square" stroke-width="6" d="M720.675 138.855H65.188V3h656.5"/><g stroke="#1D877A" stroke-dasharray="18" stroke-linecap="square" stroke-width="6"><path d="M63.797 200h656.5M63.797 335h656.5"/></g><path stroke="#1D877A" stroke-dasharray="18" stroke-linecap="square" stroke-width="6" d="M66.2 531h655.487V395.145h-656.5"/><g><path stroke="#000" stroke-linecap="square" stroke-width="6" d="M725.21 72h21c34.915 0 34.915 12.25 34.915 43.922 0 31.672 0 55.07-34.914 55.07-24.078 0-630.152-5.044-710.602 0-32.359.117-32.359 16.64-32.359 47.836 0 31.195 0 51.39 32.36 51.39h20.718"/><path fill="#000" d="M35.571 236.71l31.071 31.072-31.07 31.07z"/></g><g><path stroke="#000" stroke-linecap="square" stroke-width="6" d="M726.46 267.5h21c34.915 0 34.915 12.25 34.915 43.922 0 31.672 0 55.07-34.914 55.07-24.078 0-630.152-5.044-710.602 0C4.5 366.61 4.5 383.132 4.5 414.328c0 31.195 0 51.39 32.36 51.39h20.718"/><path fill="#000" d="M36.821 432.21l31.071 31.072-31.07 31.07z"/></g></g></svg>