<svg xmlns="http://www.w3.org/2000/svg" width="1141" height="607"><g fill="none" fill-rule="evenodd"><path stroke="#000" stroke-linecap="round" stroke-width="16" d="M783.94 336.113c-15.904 10.837-26.076 22.49-30.516 34.957-4.44 12.468-6.372 26.533-5.793 42.196h-31.39M856.46 403.939c-3.255 13.596-3.014 26.743.722 39.44 3.736 12.696 12.047 24.135 24.933 34.316l-10.386 27.468"/><path fill="#EEE" stroke="#1D877A" stroke-width="6" d="M1137.535 192.762v168.05L873.715 172.82c-5.157-110.22-5.157-166.513 0-168.879 5.157-2.365 93.097 60.575 263.82 188.82z"/><path fill="#FFF" stroke="#1D877A" stroke-linecap="square" stroke-width="3" d="M948.42 268.033c0-3.853-34.465-24.249-39.013-24.249-4.548 0-59.81 19.197-61.362 22.407-1.035 2.14 12.43 10.546 40.395 25.216"/><path stroke="#000" stroke-linecap="round" stroke-width="5" d="M950.814 291.809c5.2.834 8.875 1.986 11.024 3.457 2.15 1.47 4.808 4.651 7.976 9.543M917.561 326.476c4.005 3.252 6.518 5.872 7.54 7.86 1.022 1.988 1.718 5.614 2.089 10.879l8.878-3.429M895.078 336.27c-.785 1.54-1.766 3.261-2.944 5.161-1.178 1.9-3.684 4.018-7.517 6.355l7.511 5.844"/><path stroke="#1D877A" stroke-linecap="square" stroke-width="3" d="M928.736 254.877l-62.582 23.869"/><path fill="#FFF" stroke="#1D877A" stroke-width="3" d="M948.29 268.6c.824.963 2.075 13.022 2.28 25.484.232 14.096-.804 25.558-2.417 26.906-2.908 2.43-23.514 9.971-60.84 22.178-1.016-32.002-.998-50.042-.129-51.58-.063.11.129-.045.446-.245a26.73 26.73 0 0 1 2-1.107c1.696-.865 4.075-1.966 6.998-3.241 5.706-2.488 13.235-5.529 20.869-8.43 7.96-3.026 15.453-5.68 21.12-7.464 3.027-.953 5.491-1.645 7.285-2.04.902-.199 1.62-.32 2.13-.36.219-.016.349-.01.291-.078zm.033.023a.433.433 0 0 0-.075-.063.24.24 0 0 1 .042.04z"/><path fill="#FFF" stroke="#1D877A" stroke-width="3" d="M888.315 343.813h.011a.387.387 0 0 1-.039-.004zm-.597-.16c-.45-.157-1.043-.416-1.769-.776-1.85-.92-4.484-2.46-7.883-4.614-6.75-4.277-16.483-10.949-29.19-20.012-1.288-16.78-1.932-29.59-1.932-38.423 0-8.216.657-13.093 1.294-13.497.928-.59 9.53 3.85 19.806 10.56 9.148 5.975 18.618 13.008 19.386 14.243.627 1.007 1.263 13.476 1.313 27.13.026 6.802-.088 13.212-.328 18.002-.127 2.534-.288 4.576-.477 6.03-.071.545-.145 1-.22 1.357z"/><path stroke="#000" stroke-linecap="round" stroke-width="5" d="M867.584 310.981c-5.581.677-9.68 3.239-12.296 7.684-2.616 4.445-1.862 10.313 2.261 17.605"/><path stroke="#000" stroke-linecap="round" stroke-width="4" d="M927.814 296.809v3M908.93 303.46v3"/><path stroke="#000" stroke-linecap="round" stroke-width="3" d="M926.814 313.386c-1.722 2.752-3.378 4.38-4.965 4.883-1.588.503-4.2.228-7.837-.824"/><path stroke="#000" stroke-linecap="round" stroke-width="16" d="M783.518 142.66c-29.107-.797-50.202-5.554-63.286-14.271-13.083-8.718-25.046-23.912-35.89-45.582"/><path fill="#FFF" stroke="#1D877A" stroke-width="6" d="M1137.89 197.382L959.68 341.566c-.743 56.541-.887 99.13-.434 127.76.227 14.398.606 25.252 1.134 32.543.237 3.28.504 5.82.793 7.593.188-.115.386-.24.594-.371 2.135-1.355 5.182-3.486 9.121-6.38 7.943-5.835 19.467-14.741 34.562-26.71 30.036-23.818 74.185-59.744 132.442-107.774V197.382zM694.094 151.25c0-6.686 171.162-147.637 178.437-147.637 4.85 0 4.85 57.325 0 171.975l-123.506 99.553c-36.62-78.137-54.931-119.434-54.931-123.891z"/><path fill="#FFF" stroke="#1D877A" stroke-width="6" d="M958.977 342.79c2.928 109.752 2.928 165.769 0 168.05-2.929 2.28-90.869-60.383-263.82-187.992-3.19-111.861-3.715-168.956-1.576-171.286 2.14-2.329 90.605 61.413 265.396 191.227z"/><path stroke="#000" stroke-linecap="round" stroke-width="10" d="M795.012 341.565c6.318 11.69 11.592 18.879 15.82 21.567 4.23 2.689 11.707 3.606 22.433 2.752"/><path stroke="#000" stroke-linecap="round" stroke-width="12" d="M788.164 283.049v15M849.031 321.25v15"/><path stroke="#000" stroke-linecap="round" stroke-width="16" d="M1051.857 358.297c20.22 25.096 31.803 44.328 34.75 57.695 2.948 13.368.698 36.47-6.75 69.305"/><g><path stroke="#000" stroke-linecap="round" stroke-width="16" d="M298.496 362.02c15.903 10.837 26.075 22.49 30.516 34.957 4.44 12.468 6.371 26.533 5.793 42.196h31.39M164.325 362.02c3.255 13.597 3.014 26.743-.722 39.44-3.736 12.697-12.047 24.135-24.933 34.317l10.386 27.467"/><path fill="#EEE" stroke="#1D877A" stroke-width="6" d="M5.09 133.72v168.051L288.91 195.78c5.157-110.22 5.157-166.513 0-168.879-5.157-2.365-99.764 33.242-283.82 106.82z"/><path fill="#FFF" stroke="#1D877A" stroke-linecap="square" stroke-width="3" d="M178.424 175.435c0-3.853 34.466-24.249 39.014-24.249 4.548 0 59.81 19.197 61.362 22.407 1.035 2.14-12.43 10.545-40.395 25.216"/><path stroke="#000" stroke-linecap="round" stroke-width="5" d="M176.03 199.21c-5.2.835-8.874 1.987-11.023 3.457-2.15 1.47-4.808 4.652-7.977 9.543M209.284 233.878c-4.005 3.252-6.518 5.871-7.54 7.86-1.022 1.988-1.718 5.614-2.089 10.879l-8.878-3.429M231.766 243.671c.786 1.542 1.767 3.262 2.945 5.162s3.684 4.018 7.517 6.355l-7.511 5.844"/><path stroke="#1D877A" stroke-linecap="square" stroke-width="3" d="M198.109 162.279l62.582 23.869"/><path fill="#FFF" stroke="#1D877A" stroke-width="3" d="M178.555 176.002c-.824.962-2.075 13.022-2.28 25.483-.232 14.097.804 25.56 2.417 26.906 2.908 2.43 23.514 9.972 60.84 22.179 1.015-32.002.998-50.042.129-51.581.062.11-.129-.044-.446-.244a26.73 26.73 0 0 0-2-1.107c-1.696-.866-4.075-1.967-6.998-3.241-5.707-2.488-13.235-5.53-20.87-8.43-7.958-3.026-15.453-5.68-21.118-7.464-3.028-.953-5.492-1.645-7.286-2.04-.902-.199-1.62-.32-2.13-.36-.219-.016-.349-.01-.291-.078zm-.033.023a.433.433 0 0 1 .075-.064.24.24 0 0 0-.042.04z"/><path fill="#FFF" stroke="#1D877A" stroke-width="3" d="M238.53 251.215h-.011c.01 0 .023-.001.039-.004zm.597-.16c.45-.157 1.043-.416 1.768-.776 1.852-.92 4.485-2.46 7.884-4.614 6.75-4.277 16.483-10.949 29.19-20.012 1.288-16.78 1.932-29.591 1.932-38.423 0-8.216-.658-13.093-1.294-13.497-.928-.59-9.53 3.85-19.806 10.56-9.148 5.975-18.618 13.008-19.386 14.243-.627 1.007-1.263 13.476-1.313 27.13-.026 6.802.087 13.212.328 18.002.127 2.534.288 4.576.477 6.03.071.545.145 1 .22 1.356z"/><path stroke="#000" stroke-linecap="round" stroke-width="5" d="M259.26 218.383c5.582.677 9.681 3.239 12.297 7.684 2.616 4.445 1.862 10.313-2.261 17.604"/><path stroke="#000" stroke-linecap="round" stroke-width="4" d="M199.03 204.21v3M217.915 210.863v3"/><path stroke="#000" stroke-linecap="round" stroke-width="3" d="M200.03 220.788c1.723 2.751 3.379 4.38 4.966 4.882 1.588.504 4.2.23 7.837-.823"/><path stroke="#000" stroke-linecap="round" stroke-width="16" d="M498.53 285.273c-8.79-27.76-19.177-46.726-31.163-56.9-11.986-10.173-29.889-17.485-53.709-21.936"/><path fill="#FFF" stroke="#1D877A" stroke-width="6" d="M3.314 137.743l178.212 144.184c.742 56.54.887 99.13.434 127.76-.228 14.398-.606 25.252-1.134 32.543-.238 3.28-.504 5.82-.793 7.593-.188-.116-.387-.24-.594-.371-2.135-1.356-5.182-3.486-9.121-6.38-7.944-5.836-19.468-14.742-34.562-26.71-30.036-23.818-74.185-59.744-132.442-107.774V137.743zM468.531 174.21c0-6.686-171.162-147.638-178.437-147.638-4.85 0-4.85 57.325 0 171.975L413.6 298.1c36.62-78.137 54.931-119.434 54.931-123.89z"/><path fill="#FFF" stroke="#1D877A" stroke-width="6" d="M182.648 281.748c-2.928 109.753-2.928 165.77 0 168.05 2.929 2.282 97.869-32.382 284.82-103.991 3.19-111.861 3.715-168.956 1.576-171.285-2.14-2.33-97.605 33.412-286.396 107.226z"/><path stroke="#000" stroke-linecap="round" stroke-width="10" d="M359.754 341.137c-9.295 9.495-16.346 14.952-21.152 16.37-4.807 1.419-12.247.24-22.322-3.538"/><path stroke="#000" stroke-linecap="round" stroke-width="12" d="M374.74 285.559v15M299.53 311.777v15"/><path stroke="#000" stroke-linecap="round" stroke-width="16" d="M92.766 293.059c-20.22 25.096-31.803 44.328-34.75 57.695-2.947 13.368-.697 36.47 6.75 69.305"/></g><g><path fill="#FFF" stroke="#1D877A" stroke-linecap="square" stroke-width="3" d="M422.066 393.252c-.823-.879 8.562-19.796 10.14-20.974 1.576-1.179 91.65-1.375 93.136 0 .72.665-2.684 5.222-5.507 10.143-3.003 5.235-4.551 10.83-5.21 10.83-1.277 0-91.737.88-92.56 0z"/><path stroke="#000" stroke-linecap="round" stroke-width="5" d="M420.955 419.97c-5.062 1.838-8.16 4.645-9.295 8.42-1.134 3.777-1.134 9.37 0 16.778M479.795 451.201c3.575 2.251 5.873 4.371 6.894 6.36 1.022 1.988 1.351 5.306.987 9.955l7.646 2.822M465.049 451.201c-3.575 2.251-5.873 4.371-6.895 6.36-1.021 1.988-1.35 5.306-.987 9.955l-7.646 2.822"/><path fill="#FFF" stroke="#1D877A" stroke-width="3" d="M422.177 393.588c.073-.005.145-.016.182-.02a67.407 67.407 0 0 1 3.038-.21c2.562-.134 6.2-.257 10.698-.366 8.761-.21 20.392-.353 32.115-.393 12.285-.043 23.74.027 32.234.21 4.578.099 8.241.229 10.836.388 1.34.082 2.384.171 3.11.266.355.046.733.138.5-.097-.166-.168-.099.029-.042.295.107.507.219 1.23.33 2.149.223 1.831.44 4.386.64 7.486.4 6.237.698 14.297.819 22.244.13 8.615.046 16.521-.267 22.477-.321 6.113-.965 10.25-1.39 10.613-1.337 1.144-22.427 2.139-46.755 2.139-11.734 0-23.015-.219-31.519-.624-4.47-.212-8.1-.472-10.716-.772-1.335-.154-2.392-.316-3.147-.482-.552-.122-.894-.25-.819-.174-.356-.361-.886-4.585-1.13-10.772-.236-5.97-.276-13.896-.14-22.648.122-7.871.382-15.969.707-22.294.159-3.077.327-5.618.492-7.424a38.38 38.38 0 0 1 .224-1.99z"/><path stroke="#000" stroke-linecap="round" stroke-width="4" d="M479.955 436.77c-4.818 3.097-8.513 4.646-11.085 4.646-2.572 0-6.267-1.549-11.085-4.646M481.795 419.72v4.5M456.285 419.72v4.5"/><path fill="#FFF" stroke="#1D877A" stroke-linecap="square" stroke-width="3" d="M525.916 372.45c1.456.626 1.456 23.735 0 69.327-6.395 11.86-9.918 17.316-10.568 16.367-.976-1.424 0-12.137 0-30.174 0-12.025-.315-23.541-.944-34.549 6.218-14.607 10.056-21.598 11.512-20.971z"/><path stroke="#1D877A" stroke-linecap="square" stroke-width="3" d="M518.951 381.708h-90.089"/><path stroke="#000" stroke-linecap="round" stroke-width="5" d="M522.515 415.358c5.508 2.049 9.49 4.725 11.943 8.03 2.454 3.304 3.981 8.54 4.582 15.705"/></g><g><path fill="#FFF" stroke="#1D877A" stroke-linecap="square" stroke-width="3" d="M572.802 490.615c-.822-.879 8.563-19.796 10.14-20.974 1.576-1.178 91.65-1.374 93.136 0 .72.666-2.683 5.223-5.506 10.144-3.003 5.235-4.552 10.83-5.21 10.83-1.278 0-91.737.879-92.56 0z"/><path stroke="#000" stroke-linecap="round" stroke-width="5" d="M571.691 517.334c-5.062 1.837-8.16 4.644-9.295 8.42-1.134 3.776-1.134 9.368 0 16.777M630.531 548.565c3.575 2.25 5.873 4.37 6.895 6.359 1.021 1.988 1.35 5.307.987 9.955l7.646 2.822M615.785 548.565c-3.575 2.25-5.873 4.37-6.894 6.359-1.022 1.988-1.351 5.307-.987 9.955l-7.646 2.822"/><path fill="#FFF" stroke="#1D877A" stroke-width="3" d="M572.913 490.952c.074-.006.145-.017.182-.02a67.407 67.407 0 0 1 3.039-.21c2.562-.134 6.2-.258 10.697-.366 8.762-.21 20.392-.353 32.116-.394 12.284-.043 23.74.028 32.233.21 4.578.1 8.241.23 10.837.388 1.339.082 2.384.172 3.11.267.354.046.732.137.5-.098-.167-.168-.1.029-.043.296.107.506.219 1.23.33 2.148.224 1.832.441 4.386.64 7.487.4 6.236.698 14.296.82 22.244.13 8.614.046 16.52-.268 22.477-.321 6.112-.965 10.249-1.39 10.612-1.336 1.144-22.427 2.139-46.755 2.139-11.733 0-23.015-.219-31.519-.623-4.47-.213-8.1-.473-10.716-.773-1.335-.153-2.392-.315-3.146-.482-.552-.122-.894-.25-.82-.173-.355-.362-.886-4.586-1.13-10.772-.236-5.97-.276-13.897-.14-22.649.122-7.87.382-15.968.708-22.294.158-3.076.326-5.618.492-7.424a38.38 38.38 0 0 1 .223-1.99z"/><path stroke="#000" stroke-linecap="round" stroke-width="4" d="M630.691 534.133c-4.818 3.098-8.513 4.646-11.085 4.646-2.571 0-6.266-1.548-11.085-4.646M632.531 517.084v4.5M607.021 517.084v4.5"/><path fill="#FFF" stroke="#1D877A" stroke-linecap="square" stroke-width="3" d="M676.652 469.813c1.457.626 1.457 23.736 0 69.328-6.395 11.86-9.917 17.316-10.568 16.366-.976-1.423 0-12.136 0-30.174 0-12.025-.314-23.541-.943-34.548 6.218-14.608 10.055-21.598 11.511-20.972z"/><path stroke="#1D877A" stroke-linecap="square" stroke-width="3" d="M669.688 479.071h-90.09"/><path stroke="#000" stroke-linecap="round" stroke-width="5" d="M673.251 512.722c5.508 2.048 9.49 4.724 11.943 8.03 2.454 3.304 3.981 8.539 4.582 15.704"/></g><g><path fill="#FFF" stroke="#1D877A" stroke-linecap="square" stroke-width="3" d="M947.905 203.496c0-3.853 34.466-24.249 39.014-24.249 4.548 0 59.81 19.197 61.362 22.407 1.035 2.14-12.43 10.546-40.395 25.216"/><path stroke="#000" stroke-linecap="round" stroke-width="5" d="M945.512 227.272c-5.2.834-8.875 1.986-11.024 3.457-2.149 1.47-4.808 4.651-7.976 9.543M978.765 261.94c-4.005 3.25-6.518 5.87-7.54 7.859-1.022 1.988-1.718 5.614-2.089 10.879l-8.878-3.429M1001.248 271.733c.785 1.54 1.766 3.261 2.944 5.161 1.178 1.9 3.684 4.018 7.518 6.356l-7.512 5.843"/><path stroke="#1D877A" stroke-linecap="square" stroke-width="3" d="M967.59 190.34l62.582 23.87"/><path fill="#FFF" stroke="#1D877A" stroke-width="3" d="M948.036 204.063c-.824.963-2.075 13.022-2.28 25.484-.231 14.096.805 25.558 2.417 26.906 2.908 2.43 23.514 9.971 60.84 22.178 1.016-32.002.998-50.042.13-51.58.062.11-.13-.045-.446-.245a26.73 26.73 0 0 0-2-1.107c-1.697-.865-4.076-1.966-7-3.241-5.705-2.488-13.234-5.529-20.868-8.43-7.96-3.026-15.453-5.68-21.119-7.464-3.028-.953-5.492-1.645-7.286-2.04-.902-.199-1.62-.32-2.13-.36-.219-.016-.349-.01-.291-.078zm-.033.023a.433.433 0 0 1 .075-.063.24.24 0 0 0-.042.04z"/><path fill="#FFF" stroke="#1D877A" stroke-width="3" d="M1008.011 279.276H1008l.04-.003zm.598-.16c.449-.157 1.043-.416 1.768-.776 1.851-.92 4.484-2.46 7.883-4.614 6.75-4.276 16.483-10.949 29.19-20.012 1.288-16.78 1.932-29.59 1.932-38.423 0-8.216-.657-13.093-1.294-13.497-.928-.59-9.53 3.85-19.806 10.56-9.148 5.975-18.618 13.008-19.386 14.243-.627 1.007-1.262 13.476-1.313 27.13-.025 6.802.088 13.212.328 18.002.127 2.534.288 4.576.477 6.03.071.545.146 1 .22 1.357z"/><path stroke="#000" stroke-linecap="round" stroke-width="5" d="M1028.742 246.444c5.581.677 9.68 3.239 12.296 7.684 2.616 4.445 1.863 10.313-2.261 17.605"/><path stroke="#000" stroke-linecap="round" stroke-width="4" d="M968.512 232.272v3M987.396 238.924v3"/><path stroke="#000" stroke-linecap="round" stroke-width="3" d="M969.512 248.849c1.723 2.752 3.378 4.38 4.966 4.883 1.587.503 4.2.228 7.836-.824"/></g><g><path fill="#FFF" stroke="#1D877A" stroke-linecap="square" stroke-width="3" d="M901.323 158.252c.822-.879-8.563-19.796-10.14-20.974-1.576-1.179-91.65-1.375-93.136 0-.72.665 2.683 5.222 5.506 10.143 3.003 5.235 4.552 10.83 5.21 10.83 1.278 0 91.737.88 92.56 0z"/><path stroke="#000" stroke-linecap="round" stroke-width="5" d="M902.434 184.97c5.062 1.838 8.16 4.645 9.295 8.42 1.134 3.777 1.134 9.37 0 16.778M843.594 216.201c-3.575 2.251-5.873 4.371-6.895 6.36-1.021 1.988-1.35 5.306-.987 9.955l-7.646 2.822M858.34 216.201c3.575 2.251 5.873 4.371 6.894 6.36 1.022 1.988 1.351 5.306.987 9.955l7.646 2.822"/><path fill="#FFF" stroke="#1D877A" stroke-width="3" d="M901.212 158.588c-.074-.005-.145-.016-.182-.02a67.407 67.407 0 0 0-3.039-.21c-2.562-.134-6.2-.257-10.697-.366-8.762-.21-20.392-.353-32.116-.393-12.284-.043-23.74.027-32.233.21-4.578.099-8.241.229-10.837.388-1.339.082-2.384.171-3.11.266-.354.046-.732.138-.5-.097.167-.168.1.029.043.295-.107.507-.219 1.23-.33 2.149-.224 1.831-.441 4.386-.64 7.486-.4 6.237-.698 14.297-.82 22.244-.13 8.615-.046 16.521.268 22.477.321 6.113.965 10.25 1.39 10.613 1.336 1.144 22.427 2.139 46.755 2.139 11.733 0 23.015-.219 31.519-.624 4.47-.212 8.1-.472 10.716-.772 1.335-.154 2.392-.316 3.146-.482.552-.122.894-.25.82-.174.355-.361.886-4.585 1.13-10.772.236-5.97.276-13.896.14-22.648-.122-7.871-.382-15.969-.708-22.294-.158-3.077-.326-5.618-.492-7.424a38.38 38.38 0 0 0-.223-1.99z"/><path stroke="#000" stroke-linecap="round" stroke-width="4" d="M843.434 201.77c4.818 3.097 8.513 4.646 11.085 4.646 2.571 0 6.266-1.549 11.085-4.646M841.594 184.72v4.5M867.104 184.72v4.5"/><path fill="#FFF" stroke="#1D877A" stroke-linecap="square" stroke-width="3" d="M797.473 137.45c-1.457.626-1.457 23.735 0 69.327 6.395 11.86 9.917 17.316 10.568 16.367.976-1.424 0-12.137 0-30.174 0-12.025.314-23.541.943-34.549-6.218-14.607-10.055-21.598-11.511-20.971z"/><path stroke="#1D877A" stroke-linecap="square" stroke-width="3" d="M804.438 146.708h90.088"/><path stroke="#000" stroke-linecap="round" stroke-width="5" d="M800.874 180.358c-5.508 2.049-9.49 4.725-11.943 8.03-2.454 3.304-3.981 8.54-4.582 15.705"/></g><g><path fill="#FFF" stroke="#1D877A" stroke-linecap="square" stroke-width="3" d="M583.265 399.059c0-3.854 34.465-24.25 39.013-24.25 4.548 0 59.81 19.198 61.363 22.408 1.034 2.14-12.431 10.545-40.396 25.216"/><path stroke="#000" stroke-linecap="round" stroke-width="5" d="M580.871 422.834c-5.2.834-8.874 1.987-11.023 3.457-2.15 1.47-4.808 4.652-7.977 9.543M614.125 457.502c-4.005 3.251-6.519 5.871-7.54 7.86-1.022 1.988-1.719 5.614-2.09 10.878l-8.877-3.428M636.607 467.295c.785 1.541 1.767 3.262 2.945 5.162s3.684 4.018 7.517 6.355l-7.512 5.844"/><path stroke="#1D877A" stroke-linecap="square" stroke-width="3" d="M602.95 385.902l62.581 23.87"/><path fill="#FFF" stroke="#1D877A" stroke-width="3" d="M583.395 399.625c-.824.963-2.075 13.022-2.28 25.484-.231 14.096.805 25.559 2.417 26.906 2.909 2.43 23.514 9.972 60.84 22.179 1.016-32.003.999-50.042.13-51.581.062.11-.13-.045-.446-.245a26.73 26.73 0 0 0-2-1.106c-1.697-.866-4.076-1.967-6.999-3.242-5.706-2.488-13.234-5.528-20.868-8.43-7.96-3.025-15.454-5.68-21.12-7.464-3.027-.953-5.492-1.644-7.286-2.04-.902-.198-1.62-.319-2.13-.359-.218-.017-.348-.011-.29-.079zm-.033.023a.433.433 0 0 1 .076-.063.24.24 0 0 0-.043.04z"/><path fill="#FFF" stroke="#1D877A" stroke-width="3" d="M643.37 474.839h-.01c.01 0 .022-.002.038-.004zm.598-.16c.45-.157 1.043-.416 1.768-.777 1.851-.92 4.485-2.46 7.884-4.613 6.75-4.277 16.482-10.95 29.19-20.012 1.288-16.78 1.931-29.591 1.931-38.423 0-8.216-.657-13.093-1.293-13.497-.928-.59-9.53 3.85-19.807 10.56-9.147 5.975-18.618 13.007-19.386 14.242-.626 1.008-1.262 13.477-1.313 27.13-.025 6.803.088 13.213.328 18.002.128 2.534.288 4.577.478 6.03.07.546.145 1.001.22 1.357z"/><path stroke="#000" stroke-linecap="round" stroke-width="5" d="M664.101 442.007c5.582.677 9.68 3.238 12.297 7.684 2.616 4.445 1.862 10.313-2.262 17.604"/><path stroke="#000" stroke-linecap="round" stroke-width="4" d="M603.871 427.834v3M622.756 434.486v3"/><path stroke="#000" stroke-linecap="round" stroke-width="3" d="M604.871 444.411c1.723 2.752 3.378 4.38 4.966 4.883 1.588.504 4.2.229 7.837-.824"/></g><g><path fill="#FFF" stroke="#1D877A" stroke-linecap="square" stroke-width="3" d="M422.528 540.902c0-3.853 20.468-26.664 25.016-26.664 4.548 0 61.528 6.648 63.08 9.858 1.035 2.14-7.11 11.215-24.434 27.226-42.441-4.377-63.662-7.85-63.662-10.42z"/><path stroke="#000" stroke-linecap="round" stroke-width="5" d="M423.629 563.2c-5.632 3.31-9.23 7.184-10.795 11.624-1.565 4.44-1.565 9.986 0 16.637M457.211 528.32c-2.348-3.408-3.77-6.202-4.265-8.382-.496-2.18.034-6.792 1.59-13.836l-6.846-4.388M473.588 531.598c5.601-3.334 8.921-6.08 9.96-8.236 1.038-2.157 1.415-6.56 1.13-13.206l7.943-3.172"/><path fill="#FFF" stroke="#1D877A" stroke-width="3" d="M422.68 541.446c-.823.772-2.094 12.934-2.3 25.507-.232 14.096.804 25.559 2.416 26.906 2.803 2.342 23.562 6.27 60.844 11.33 2.519-32.662 3.323-51.275 2.5-53.028.069.146-.065.063-.297-.04-.468-.207-1.151-.45-2.028-.72-1.741-.536-4.195-1.164-7.238-1.854-5.807-1.317-13.569-2.82-21.666-4.203-8.114-1.386-15.962-2.55-21.932-3.242-3.135-.363-5.7-.59-7.57-.668-.945-.039-1.7-.039-2.242 0-.328.023-.535.063-.486.012zm.015-.013a.257.257 0 0 1 .001 0z"/><path fill="#FFF" stroke="#1D877A" stroke-width="3" d="M484.63 603.815c.152-.123.317-.265.494-.424 1.213-1.092 2.897-2.909 5.03-5.438 4.28-5.07 10.331-12.953 18.147-23.639 1.703-16.384 2.74-28.8 3.112-37.242.186-4.222.205-7.438.06-9.629-.06-.907-.149-1.624-.258-2.138a7.695 7.695 0 0 0-.317.195c-.784.505-1.824 1.34-3.077 2.465-2.304 2.07-5.254 5.058-8.558 8.63-5.447 5.891-11.746 13.33-12.356 14.44-.13.238-.561 3.855-.955 8.77-.42 5.245-.832 11.952-1.133 18.517-.325 7.113-.501 13.586-.483 18.396.01 2.605.076 4.691.2 6.174.029.344.06.652.094.923z"/><path stroke="#000" stroke-linecap="round" stroke-width="5" d="M497.188 571.194c6.69 4.77 10.036 9.375 10.036 13.816 0 4.441-1.662 9.113-4.984 14.014"/><path stroke="#000" stroke-linecap="round" stroke-width="4" d="M443.135 577.83v3M458.544 580.83v3"/><path stroke="#000" stroke-linecap="round" stroke-width="3" d="M460.084 570.211c-2.132-2.448-4.022-3.797-5.669-4.045-1.647-.25-4.184.43-7.611 2.039"/></g><g><path fill="#FFF" stroke="#1D877A" stroke-linecap="square" stroke-width="3" d="M282.024 96.156c.822-.879-8.563-19.796-10.14-20.974-1.576-1.178-91.65-1.374-93.136 0-.72.666 2.684 5.223 5.506 10.143 3.003 5.235 4.552 10.831 5.21 10.831 1.278 0 91.737.879 92.56 0z"/><path stroke="#000" stroke-linecap="round" stroke-width="5" d="M283.135 122.875c5.062 1.837 8.16 4.644 9.295 8.42 1.134 3.776 1.134 9.368 0 16.777M224.295 154.105c-3.575 2.252-5.873 4.372-6.895 6.36-1.021 1.988-1.35 5.306-.986 9.955l-7.646 2.822M239.041 154.105c3.575 2.252 5.873 4.372 6.895 6.36 1.021 1.988 1.35 5.306.986 9.955l7.646 2.822"/><path fill="#FFF" stroke="#1D877A" stroke-width="3" d="M281.913 96.493c-.074-.006-.145-.017-.182-.02a67.407 67.407 0 0 0-3.039-.21c-2.562-.134-6.2-.258-10.697-.366-8.762-.21-20.392-.353-32.115-.394-12.285-.043-23.74.028-32.234.21-4.578.1-8.241.23-10.836.388-1.34.082-2.384.172-3.111.266-.354.047-.732.138-.5-.097.167-.168.1.029.043.295-.107.507-.219 1.231-.33 2.15-.223 1.83-.441 4.385-.64 7.485-.4 6.237-.698 14.297-.819 22.245-.13 8.614-.046 16.52.267 22.477.321 6.112.965 10.249 1.39 10.612 1.337 1.144 22.427 2.139 46.755 2.139 11.734 0 23.015-.219 31.519-.623 4.47-.213 8.1-.473 10.716-.773 1.335-.153 2.392-.315 3.146-.482.553-.122.894-.25.82-.173.356-.362.886-4.586 1.13-10.772.236-5.97.276-13.897.14-22.649-.122-7.87-.382-15.968-.707-22.294-.159-3.076-.327-5.618-.492-7.424a38.38 38.38 0 0 0-.224-1.99z"/><path stroke="#000" stroke-linecap="round" stroke-width="4" d="M224.135 139.674c4.818 3.097 8.513 4.646 11.085 4.646 2.571 0 6.266-1.549 11.085-4.646M222.295 122.625v4.5M247.805 122.625v4.5"/><path fill="#FFF" stroke="#1D877A" stroke-linecap="square" stroke-width="3" d="M178.174 75.354c-1.457.626-1.457 23.736 0 69.328 6.395 11.86 9.917 17.316 10.568 16.366.976-1.423 0-12.136 0-30.174 0-12.025.315-23.541.944-34.548-6.219-14.608-10.056-21.598-11.512-20.972z"/><path stroke="#1D877A" stroke-linecap="square" stroke-width="3" d="M185.139 84.612h90.089"/><path stroke="#000" stroke-linecap="round" stroke-width="5" d="M181.575 118.263c-5.508 2.048-9.49 4.724-11.943 8.029-2.454 3.305-3.981 8.54-4.582 15.705"/></g><g><path fill="#FFF" stroke="#1D877A" stroke-linecap="square" stroke-width="3" d="M352.298 495.508c0-3.854-34.466-24.25-39.014-24.25-4.548 0-59.81 19.198-61.362 22.408-1.035 2.14 12.43 10.545 40.395 25.216"/><path stroke="#000" stroke-linecap="round" stroke-width="5" d="M354.691 519.283c5.2.834 8.875 1.987 11.024 3.457 2.149 1.47 4.808 4.652 7.976 9.543M321.438 553.951c4.005 3.251 6.518 5.871 7.54 7.86 1.022 1.988 1.718 5.614 2.089 10.878l8.878-3.428M298.955 563.744c-.785 1.542-1.766 3.262-2.944 5.162s-3.684 4.018-7.517 6.355l7.511 5.844"/><path stroke="#1D877A" stroke-linecap="square" stroke-width="3" d="M332.613 482.352l-62.582 23.869"/><path fill="#FFF" stroke="#1D877A" stroke-width="3" d="M352.167 496.074c.824.963 2.075 13.022 2.28 25.484.232 14.096-.804 25.559-2.417 26.906-2.908 2.43-23.514 9.972-60.84 22.179-1.016-32.002-.998-50.042-.129-51.581-.063.11.129-.045.446-.245a26.73 26.73 0 0 1 2-1.106c1.696-.866 4.075-1.967 6.998-3.241 5.706-2.489 13.235-5.53 20.869-8.43 7.96-3.026 15.453-5.681 21.119-7.465 3.028-.953 5.492-1.644 7.286-2.04.902-.198 1.62-.318 2.13-.358.219-.018.349-.012.291-.08zm.033.023a.433.433 0 0 0-.075-.063.24.24 0 0 1 .042.04z"/><path fill="#FFF" stroke="#1D877A" stroke-width="3" d="M292.192 571.288h.011a.387.387 0 0 1-.039-.004zm-.597-.16c-.45-.157-1.043-.416-1.769-.776-1.851-.92-4.484-2.46-7.883-4.614-6.75-4.277-16.483-10.95-29.19-20.012-1.288-16.78-1.932-29.591-1.932-38.423 0-8.216.657-13.093 1.294-13.497.928-.59 9.53 3.85 19.806 10.56 9.148 5.975 18.618 13.007 19.386 14.243.627 1.007 1.263 13.476 1.313 27.13.025 6.802-.088 13.212-.328 18.002-.127 2.533-.288 4.576-.477 6.03-.071.545-.145 1-.22 1.356z"/><path stroke="#000" stroke-linecap="round" stroke-width="5" d="M271.461 538.456c-5.581.677-9.68 3.238-12.296 7.684-2.616 4.445-1.863 10.313 2.261 17.604"/><path stroke="#000" stroke-linecap="round" stroke-width="4" d="M331.691 524.283v3M312.807 530.936v3"/><path stroke="#000" stroke-linecap="round" stroke-width="3" d="M330.691 540.86c-1.722 2.752-3.378 4.38-4.965 4.883-1.588.504-4.2.23-7.837-.823"/></g><g><path fill="#FFF" stroke="#1D877A" stroke-linecap="square" stroke-width="3" d="M647.298 256.537c0-3.853-34.466-24.249-39.014-24.249-4.548 0-59.81 19.197-61.362 22.407-1.035 2.14 12.43 10.546 40.395 25.216"/><path stroke="#000" stroke-linecap="round" stroke-width="5" d="M649.691 280.313c5.2.834 8.875 1.986 11.024 3.457 2.149 1.47 4.808 4.651 7.976 9.543M616.438 314.98c4.005 3.252 6.518 5.872 7.54 7.86 1.022 1.988 1.718 5.614 2.089 10.879l8.878-3.429M593.955 324.774c-.785 1.54-1.766 3.261-2.944 5.161-1.178 1.9-3.684 4.018-7.517 6.355l7.511 5.844"/><path stroke="#1D877A" stroke-linecap="square" stroke-width="3" d="M627.613 243.38l-62.582 23.87"/><path fill="#FFF" stroke="#1D877A" stroke-width="3" d="M647.167 257.104c.824.963 2.075 13.022 2.28 25.484.232 14.096-.804 25.558-2.417 26.905-2.908 2.431-23.514 9.972-60.84 22.179-1.016-32.002-.998-50.042-.129-51.58-.063.11.129-.045.446-.245a26.73 26.73 0 0 1 2-1.107c1.696-.865 4.075-1.966 6.998-3.241 5.706-2.488 13.235-5.529 20.869-8.43 7.96-3.026 15.453-5.68 21.119-7.464 3.028-.953 5.492-1.645 7.286-2.04.902-.199 1.62-.32 2.13-.36.219-.016.349-.01.291-.078zm.033.023a.433.433 0 0 0-.075-.063.24.24 0 0 1 .042.04z"/><path fill="#FFF" stroke="#1D877A" stroke-width="3" d="M587.192 332.317h.011a.387.387 0 0 1-.039-.004zm-.597-.16c-.45-.157-1.043-.416-1.769-.776-1.851-.92-4.484-2.46-7.883-4.614-6.75-4.277-16.483-10.949-29.19-20.012-1.288-16.78-1.932-29.59-1.932-38.423 0-8.216.657-13.093 1.294-13.497.928-.59 9.53 3.85 19.806 10.56 9.148 5.975 18.618 13.008 19.386 14.243.627 1.007 1.263 13.476 1.313 27.13.025 6.802-.088 13.212-.328 18.002-.127 2.534-.288 4.576-.477 6.03-.071.545-.145 1-.22 1.357z"/><path stroke="#000" stroke-linecap="round" stroke-width="5" d="M566.461 299.485c-5.581.677-9.68 3.239-12.296 7.684-2.616 4.445-1.863 10.313 2.261 17.605"/><path stroke="#000" stroke-linecap="round" stroke-width="4" d="M626.691 285.313v3M607.807 291.965v3"/><path stroke="#000" stroke-linecap="round" stroke-width="3" d="M625.691 301.89c-1.722 2.752-3.378 4.38-4.965 4.883-1.588.503-4.2.228-7.837-.824"/></g></g></svg>
