<svg xmlns="http://www.w3.org/2000/svg" viewBox="0 0 813 207"><g fill="#000" fill-rule="evenodd"><path d="M1.211 30.948c-.443-.31-.66-.631-.653-.963.008-.332.27-.58.786-.742l7.703-.044a.665.665 0 0 1 .42.399.874.874 0 0 1 .012.597 1.35 1.35 0 0 1-.388.576c-.192.177-.45.28-.774.31l-7.106-.133zm21.45 5.246a19.445 19.445 0 0 1-.499-3.354 86.367 86.367 0 0 1-.166-3.652c-.03-1.217-.062-2.398-.1-3.542-.036-1.143-.143-2.15-.32-3.021-.03-.56.055-1.033.254-1.417.2-.383.428-.65.686-.797.259-.147.513-.162.764-.044.251.118.428.384.531.797.104 1.195.159 2.335.166 3.42.008 1.085.008 2.162 0 3.232a96.47 96.47 0 0 0 .034 3.254c.03 1.099.125 2.268.287 3.508.561 0 1.06-.022 1.494-.066.436-.045.875-.111 1.318-.2.442-.088.93-.191 1.46-.31.532-.118 1.181-.25 1.948-.398.31.162.554.358.73.587.178.228.285.453.322.675a.945.945 0 0 1-.1.62c-.103.191-.28.317-.531.376-.369.059-.823.144-1.361.254-.539.111-1.103.225-1.694.344-.59.118-1.18.22-1.77.31a12.22 12.22 0 0 1-1.616.143c-.487.008-.897-.04-1.229-.144-.332-.103-.535-.295-.609-.575zm17.62.243c-.178.34-.385.554-.62.642a1.104 1.104 0 0 1-.687.045 1.644 1.644 0 0 1-.609-.31 1.389 1.389 0 0 1-.387-.443l-.31-13.835h-4.206c-.295 0-.516-.1-.664-.298a1.305 1.305 0 0 1-.254-.676c-.022-.25.022-.501.133-.752.11-.251.284-.42.52-.51.915-.029 1.867-.044 2.855-.044h3c1.01 0 2.029-.01 3.054-.033a43.499 43.499 0 0 0 3-.166c.354.015.605.089.752.222a.69.69 0 0 1 .244.464 1.15 1.15 0 0 1-.111.565c-.088.199-.2.376-.332.531a1.737 1.737 0 0 1-.42.365c-.148.089-.266.111-.355.067a30.402 30.402 0 0 0-2.457.01c-.84.038-1.66.123-2.457.255l.31 13.901zm7.592-.819c.044.428-.048.742-.277.941-.229.2-.49.295-.786.288a1.48 1.48 0 0 1-.841-.299c-.266-.192-.406-.465-.42-.819a194.9 194.9 0 0 0-.067-5.346c-.044-1.6-.07-3.017-.078-4.25a42.457 42.457 0 0 1 .078-3.12c.059-.85.192-1.513.398-1.993.207-.48.502-.764.886-.852.383-.089.9.015 1.55.31.988-.207 1.87-.236 2.644-.089.775.148 1.447.417 2.015.808.568.391 1.03.874 1.383 1.45.354.576.598 1.188.73 1.837.134.65.152 1.31.056 1.981a5.43 5.43 0 0 1-.62 1.87 4.986 4.986 0 0 1-1.306 1.517c-.553.435-1.228.742-2.025.919a8.09 8.09 0 0 0 2.08.985c.709.214 1.329.41 1.86.586.531.177.922.388 1.173.631.251.244.258.616.022 1.118-.177.457-.398.738-.664.841-.265.103-.579.096-.94-.022a6.78 6.78 0 0 1-1.251-.587c-.472-.273-.993-.56-1.56-.863a17.273 17.273 0 0 0-1.882-.852 10.37 10.37 0 0 0-2.203-.576l.045 3.586zm-.2-6.596c1.092.133 2.007.096 2.745-.11.738-.207 1.325-.513 1.76-.92.435-.405.727-.874.874-1.405a3.7 3.7 0 0 0-.498-3.066 2.997 2.997 0 0 0-1.162-1.029c-.472-.236-1.014-.328-1.627-.277-.612.052-1.28.314-2.003.786l-.089 6.021zM1.211 61.71c-.443-.31-.66-.631-.653-.963.008-.332.27-.58.786-.742l7.703-.044a.665.665 0 0 1 .42.398.874.874 0 0 1 .012.598 1.35 1.35 0 0 1-.388.576c-.192.177-.45.28-.774.31L1.21 61.71zm22.955 4.67c.044.428-.048.742-.277.941-.229.2-.49.295-.786.288a1.48 1.48 0 0 1-.841-.3c-.266-.19-.406-.464-.42-.818a194.9 194.9 0 0 0-.067-5.346c-.044-1.6-.07-3.018-.078-4.25a42.457 42.457 0 0 1 .078-3.12c.059-.85.192-1.513.398-1.993.207-.48.502-.764.886-.852.383-.089.9.015 1.55.31.988-.207 1.87-.236 2.644-.089.775.148 1.447.417 2.015.808.568.391 1.029.874 1.383 1.45.354.575.598 1.188.73 1.837.133.65.152 1.31.056 1.981a5.43 5.43 0 0 1-.62 1.87 4.986 4.986 0 0 1-1.306 1.517c-.553.435-1.228.742-2.025.919a8.09 8.09 0 0 0 2.08.985c.709.214 1.329.41 1.86.586.531.177.922.388 1.173.631.251.244.258.616.022 1.118-.177.457-.398.738-.664.841-.265.103-.579.096-.94-.022a6.78 6.78 0 0 1-1.251-.587c-.472-.273-.993-.56-1.56-.863a17.273 17.273 0 0 0-1.882-.852 10.37 10.37 0 0 0-2.203-.576l.045 3.586zm-.2-6.596c1.092.133 2.007.096 2.745-.11.738-.207 1.325-.514 1.76-.92.435-.405.727-.874.874-1.405a3.7 3.7 0 0 0-.498-3.066 2.997 2.997 0 0 0-1.162-1.029c-.472-.236-1.014-.328-1.627-.277-.612.052-1.28.314-2.003.786l-.089 6.02zm16.713 7.415c-.178.34-.384.554-.62.642a1.104 1.104 0 0 1-.686.044 1.644 1.644 0 0 1-.61-.31 1.389 1.389 0 0 1-.387-.442l-.31-13.835h-4.205c-.295 0-.517-.1-.664-.299a1.305 1.305 0 0 1-.255-.675c-.022-.25.022-.501.133-.752.11-.251.284-.42.52-.51.915-.029 1.867-.044 2.856-.044h2.999c1.01 0 2.03-.01 3.055-.033a43.499 43.499 0 0 0 3-.166c.353.015.604.089.752.221a.69.69 0 0 1 .243.465 1.15 1.15 0 0 1-.11.565c-.09.199-.2.376-.333.531a1.737 1.737 0 0 1-.42.365c-.148.089-.266.11-.354.067a30.402 30.402 0 0 0-2.457.01c-.841.038-1.66.122-2.457.255l.31 13.901zm6.087-.243a19.445 19.445 0 0 1-.498-3.354 86.367 86.367 0 0 1-.166-3.652c-.03-1.218-.063-2.398-.1-3.542-.037-1.143-.144-2.15-.32-3.021-.03-.561.054-1.033.254-1.417.199-.384.428-.65.686-.797.258-.147.513-.162.764-.044.25.118.428.384.53.797.104 1.195.16 2.335.167 3.42.007 1.084.007 2.162 0 3.232a96.47 96.47 0 0 0 .033 3.253c.03 1.1.125 2.27.288 3.509.56 0 1.059-.022 1.494-.067.435-.044.874-.11 1.317-.199.443-.088.93-.192 1.46-.31.532-.118 1.181-.25 1.949-.398.31.162.553.358.73.587.177.228.284.453.321.675a.945.945 0 0 1-.1.62c-.103.191-.28.317-.53.376-.37.059-.823.144-1.362.254-.539.111-1.103.225-1.693.343-.59.118-1.18.222-1.771.31a12.22 12.22 0 0 1-1.616.144c-.487.008-.896-.04-1.228-.144-.333-.103-.535-.295-.61-.575zM13.882 206.32c-1.368.326-2.458.196-3.272-.39-.814-.586-1.35-1.35-1.611-2.295-.26-.944-.244-1.953.049-3.027s.927-1.937 1.904-2.588l20.312-42.187c1.563-3.581 2.279-6.364 2.149-8.35-.13-1.986-.781-3.353-1.953-4.102-1.172-.748-2.686-.944-4.541-.586-1.856.359-3.744 1.107-5.664 2.247a24.181 24.181 0 0 0-5.274 4.248c-1.595 1.692-2.685 3.483-3.271 5.37-.782.326-1.547.375-2.295.147a4.881 4.881 0 0 1-1.953-1.123 4.276 4.276 0 0 1-1.172-1.904c-.228-.749-.147-1.514.244-2.295 1.367-3.906 3.418-7.048 6.152-9.424 2.735-2.376 5.697-4.02 8.887-4.932 3.19-.911 6.315-1.106 9.375-.585 3.06.52 5.534 1.757 7.422 3.71 1.888 1.954 2.962 4.59 3.223 7.91.26 3.321-.814 7.325-3.223 12.012l-18.067 39.258c2.67.26 5.355.293 8.057.098 2.702-.195 5.404-.472 8.106-.83 2.701-.358 5.403-.668 8.105-.928 2.702-.26 5.42-.293 8.154-.098.391-.065.814.163 1.27.684.456.52.83 1.188 1.123 2.002.293.814.423 1.676.39 2.588a4.14 4.14 0 0 1-.878 2.441c-.554.716-1.433 1.253-2.637 1.612-1.205.358-2.88.374-5.03.048l-34.081 1.27zM218.959 8.417c-.326-.228-.486-.464-.48-.708.005-.245.197-.426.577-.546l5.666-.032a.489.489 0 0 1 .309.293.643.643 0 0 1 .008.44.993.993 0 0 1-.285.423c-.14.13-.33.206-.57.227l-5.225-.097zm16.963 4.167c-.195.24-.412.391-.651.456a.982.982 0 0 1-.651-.024.888.888 0 0 1-.456-.456c-.109-.222-.125-.507-.049-.855L234.034.993a.832.832 0 0 1 .366-.382 1.07 1.07 0 0 1 .52-.139c.18 0 .34.046.481.139.141.092.217.236.228.431v4.347c.206-.293.383-.532.53-.717.146-.184.3-.339.463-.464.163-.124.35-.222.562-.293.211-.07.475-.138.79-.203.596-.076 1.082.027 1.456.31.375.281.665.67.871 1.163.207.494.348 1.053.424 1.677.076.624.124 1.24.146 1.848.022.608.03 1.172.025 1.693-.006.52.013.917.057 1.188.086.337.076.624-.033.863-.108.239-.258.396-.448.472-.19.076-.396.057-.618-.057-.223-.114-.4-.36-.53-.74a9.518 9.518 0 0 1-.121-1.27 40.865 40.865 0 0 1-.025-1.425c0-.483-.008-.952-.024-1.408a8.59 8.59 0 0 0-.122-1.22c-.066-.36-.166-.65-.302-.872a.679.679 0 0 0-.578-.35 2.095 2.095 0 0 0-1.009.554 3.144 3.144 0 0 0-.66.993c-.167.39-.295.82-.382 1.286a12.3 12.3 0 0 0-.179 1.432c-.032.489-.046.97-.04 1.441.005.472.018.904.04 1.294zm7.375-.065a2.68 2.68 0 0 1-1.132-1c-.265-.43-.44-.902-.52-1.417a5.347 5.347 0 0 1 0-1.612c.08-.559.22-1.102.415-1.628a7.282 7.282 0 0 1 .716-1.44c.282-.435.586-.788.912-1.059.597-.456 1.15-.727 1.66-.814.51-.087.966-.038 1.368.147.401.184.751.477 1.05.879.298.401.532.86.7 1.375a6.48 6.48 0 0 1 .3 1.661 6.829 6.829 0 0 1-.121 1.734 5.6 5.6 0 0 1-.57 1.579c-.266.488-.619.89-1.058 1.205-.44.314-.966.515-1.58.602-.613.087-1.326.016-2.14-.212zm1.253-1.35c.456.043.866-.058 1.23-.302.363-.244.664-.564.903-.96.239-.397.413-.844.521-1.344.109-.499.13-.98.065-1.44a3.11 3.11 0 0 0-.456-1.254 1.905 1.905 0 0 0-1.025-.79c-.272-.054-.557.033-.855.26-.298.229-.57.535-.814.92-.244.386-.445.82-.602 1.303-.158.483-.236.96-.236 1.433 0 .472.097.903.293 1.294.195.39.52.684.976.88zm6.968 1.025a.866.866 0 0 1-.399.415c-.19.103-.388.155-.594.155-.206 0-.399-.06-.578-.18-.179-.119-.301-.32-.366-.602-.022-.108-.025-.334-.008-.676.016-.341.019-.824.008-1.448-.01-.624-.043-1.4-.098-2.328a58.175 58.175 0 0 0-.31-3.33c.229-.206.449-.282.66-.228.212.055.405.174.578.359.174.184.315.41.423.675.109.266.169.513.18.74.054-.205.17-.42.35-.642.179-.223.398-.426.659-.61.26-.185.55-.343.87-.473.321-.13.652-.211.994-.244.342-.033.684 0 1.026.098.341.097.659.282.952.553.01.098-.005.201-.049.31a1.273 1.273 0 0 1-.179.309 1.274 1.274 0 0 1-.26.252.8.8 0 0 1-.293.139c-.63-.13-1.165-.123-1.604.024-.44.147-.8.388-1.083.724a3.344 3.344 0 0 0-.635 1.23 8.49 8.49 0 0 0-.293 1.538 12.928 12.928 0 0 0-.057 1.66c.017.565.052 1.091.106 1.58zm6.87-.814c.076.206.1.407.074.602-.028.195-.09.37-.188.521-.097.152-.22.271-.366.358a.758.758 0 0 1-.448.114.708.708 0 0 1-.431-.203c-.136-.125-.242-.329-.318-.61-.021-.077-.04-.264-.056-.562-.017-.299-.03-.649-.041-1.05l-.033-1.295c-.01-.461-.021-.892-.032-1.294s-.022-.752-.033-1.05c-.01-.299-.027-.491-.049-.578-.076-.532-.081-.963-.016-1.294.065-.331.166-.58.301-.75.136-.167.29-.26.464-.276a.677.677 0 0 1 .48.138c.147.109.264.275.35.497.087.223.114.486.082.79l.26 5.942zm-1.172-8.661c-.239-.185-.382-.388-.431-.61a.909.909 0 0 1 .049-.595.733.733 0 0 1 .39-.374c.18-.076.372-.065.578.032.239.13.386.315.44.554.054.239.043.458-.033.66a.787.787 0 0 1-.382.439c-.18.092-.383.057-.61-.106zm2.882 9.947a.894.894 0 0 1-.326-.228 2.013 2.013 0 0 1-.31-.399 1.21 1.21 0 0 1-.162-.448.417.417 0 0 1 .114-.374c.912-.814 1.639-1.528 2.181-2.14.543-.614.956-1.14 1.238-1.58.282-.44.466-.809.553-1.107a3.45 3.45 0 0 0 .147-.74c.01-.131-.128-.223-.415-.278a6.109 6.109 0 0 0-1.034-.09 19.12 19.12 0 0 0-1.237.025 33.65 33.65 0 0 0-1.026.065c-.423-.303-.619-.594-.586-.87.032-.277.293-.513.781-.709 1.357-.12 2.44-.133 3.248-.04.809.092 1.392.28 1.75.561.358.282.524.649.497 1.1-.027.45-.196.968-.505 1.554-.31.586-.73 1.229-1.262 1.93-.531.7-1.123 1.44-1.774 2.221l3.451-.26c.228.076.383.2.464.374a.82.82 0 0 1 .057.546c-.043.19-.146.36-.31.512-.162.152-.374.25-.634.293l-4.9.082zm8.01-.147a2.68 2.68 0 0 1-1.132-1c-.266-.43-.44-.902-.521-1.417a5.347 5.347 0 0 1 0-1.612c.081-.559.22-1.102.415-1.628a7.282 7.282 0 0 1 .716-1.44c.283-.435.587-.788.912-1.059.597-.456 1.15-.727 1.66-.814.51-.087.967-.038 1.368.147.402.184.752.477 1.05.879.299.401.532.86.7 1.375a6.48 6.48 0 0 1 .301 1.661 6.828 6.828 0 0 1-.122 1.734 5.6 5.6 0 0 1-.57 1.579c-.265.488-.618.89-1.058 1.205-.44.314-.966.515-1.579.602-.613.087-1.327.016-2.14-.212zm1.253-1.35c.456.043.865-.058 1.23-.302.363-.244.664-.564.903-.96.238-.397.412-.844.52-1.344.11-.499.13-.98.066-1.44a3.11 3.11 0 0 0-.456-1.254 1.905 1.905 0 0 0-1.026-.79c-.271-.054-.556.033-.854.26-.299.229-.57.535-.814.92-.245.386-.445.82-.603 1.303-.157.483-.236.96-.236 1.433 0 .472.098.903.293 1.294.196.39.521.684.977.88zm6.675.83c0 .336-.09.561-.269.675a.794.794 0 0 1-.586.114 1.234 1.234 0 0 1-.586-.285.802.802 0 0 1-.301-.537c.021-1.107.024-2.287.008-3.541s-.052-2.57-.106-3.948c.087-.293.236-.477.448-.553a.664.664 0 0 1 .61.073c.196.125.345.347.448.667.103.32.09.73-.04 1.23.694-1.02 1.345-1.688 1.953-2.003.608-.315 1.167-.38 1.677-.195.51.184.957.561 1.343 1.131.385.57.702 1.23.952 1.978.25.749.42 1.533.513 2.353.092.819.095 1.57.008 2.254.01.282-.073.494-.252.635-.18.141-.375.22-.586.236a.873.873 0 0 1-.578-.154c-.174-.12-.25-.304-.228-.554.076-1.367.046-2.474-.09-3.321-.135-.847-.33-1.479-.586-1.897-.255-.417-.55-.648-.887-.691-.337-.044-.676.046-1.018.268-.341.223-.667.556-.976 1.001-.31.445-.56.945-.75 1.498a6.893 6.893 0 0 0-.35 1.766 4.555 4.555 0 0 0 .229 1.8zm10.028-5.324c-.054.022-.076.146-.065.374.01.228.035.516.073.863.038.347.084.738.139 1.172.054.434.092.863.114 1.286.021.424.019.823-.009 1.197-.027.374-.095.681-.203.92-.109.239-.269.388-.48.447-.212.06-.497-.008-.855-.203l-.39-6.056a3.414 3.414 0 0 0-.587-.065c-.152 0-.296.008-.431.024-.136.016-.285.033-.448.049a3.617 3.617 0 0 1-.635-.008.798.798 0 0 1-.374-.456c-.055-.184-.008-.366.138-.545.147-.18.407-.331.782-.456.374-.125.892-.187 1.554-.187.076-.044.098-.21.065-.497a41.312 41.312 0 0 0-.13-1.017c-.054-.391-.095-.798-.122-1.221-.027-.424.003-.787.09-1.091.086-.304.252-.51.496-.619.244-.108.61-.049 1.099.18.01.607.022 1.117.033 1.53.01.412.021.757.032 1.033.011.277.022.497.033.66a15.016 15.016 0 0 0 .065.724c.01.092.021.204.032.334.228.01.437.008.627-.008l.554-.05c.179-.015.363-.029.553-.04.19-.01.399-.01.627 0 .239.054.412.152.52.293.11.141.161.293.156.456a.746.746 0 0 1-.196.464c-.125.147-.29.258-.496.334l-2.36.179zm10.989 5.177c0 .315-.065.526-.195.635a.69.69 0 0 1-.456.163 1.2 1.2 0 0 1-.497-.106c-.157-.07-.258-.139-.3-.204l-.864-1.856a5.98 5.98 0 0 1-.488.757c-.185.245-.39.462-.619.652-.228.19-.475.35-.74.48-.266.13-.551.211-.855.244-.727.022-1.332-.09-1.815-.334a3.064 3.064 0 0 1-1.156-.985 3.486 3.486 0 0 1-.57-1.424 5.845 5.845 0 0 1-.04-1.66c.064-.57.2-1.132.406-1.686.206-.553.467-1.05.782-1.49a4.46 4.46 0 0 1 1.099-1.09 2.654 2.654 0 0 1 1.343-.48c.477-.033.98.078 1.505.333.527.256 1.067.709 1.62 1.36l1.84 6.69zm-6.382-1.075c.5.174.936.215 1.31.122.375-.092.693-.268.953-.529.26-.26.459-.586.594-.976a5.013 5.013 0 0 0 .195-2.466 3.478 3.478 0 0 0-.357-1.075 1.732 1.732 0 0 0-.643-.692c-.261-.152-.565-.185-.912-.098-.282.065-.535.23-.757.497-.223.266-.41.58-.562.944a5.633 5.633 0 0 0-.342 1.18 6.499 6.499 0 0 0-.106 1.237c.006.402.06.768.163 1.1.103.33.258.583.464.756zm9.752 1.189c.076.271.065.48-.033.627a.613.613 0 0 1-.423.268 1.279 1.279 0 0 1-.61-.057 1.406 1.406 0 0 1-.578-.35l-.554-11.038c-.076-.195-.079-.366-.008-.512a.788.788 0 0 1 .31-.342c.135-.082.287-.133.455-.155a.844.844 0 0 1 .456.057c.136.06.239.157.31.293.07.136.073.318.007.546l.668 10.663zm1.286-3.55c-.326-.227-.486-.463-.48-.707.005-.245.198-.426.578-.546l5.665-.032a.489.489 0 0 1 .31.293.643.643 0 0 1 .008.44.993.993 0 0 1-.285.423c-.141.13-.331.206-.57.227l-5.226-.097zm9.752-1.741c-.055.022-.076.146-.065.374.01.228.035.516.073.863.038.347.084.738.138 1.172.054.434.092.863.114 1.286.022.424.02.823-.008 1.197-.027.374-.095.681-.204.92-.108.239-.268.388-.48.447-.211.06-.496-.008-.854-.203l-.391-6.056a3.414 3.414 0 0 0-.586-.065c-.152 0-.296.008-.432.024-.135.016-.285.033-.447.049a3.617 3.617 0 0 1-.635-.008.798.798 0 0 1-.375-.456c-.054-.184-.008-.366.139-.545.146-.18.407-.331.781-.456.375-.125.893-.187 1.555-.187.076-.044.097-.21.065-.497a41.312 41.312 0 0 0-.13-1.017c-.055-.391-.095-.798-.122-1.221-.028-.424.002-.787.09-1.091.086-.304.251-.51.496-.619.244-.108.61-.049 1.099.18.01.607.021 1.117.032 1.53.011.412.022.757.033 1.033.01.277.021.497.032.66a15.016 15.016 0 0 0 .065.724c.011.092.022.204.033.334.228.01.437.008.627-.008l.553-.05c.18-.015.364-.029.554-.04.19-.01.399-.01.626 0 .24.054.413.152.521.293.109.141.16.293.155.456a.746.746 0 0 1-.195.464c-.125.147-.29.258-.497.334l-2.36.179zm8.27 5.21c-.64.412-1.273.683-1.897.813-.624.13-1.186.144-1.685.041-.499-.103-.906-.306-1.22-.61-.316-.304-.484-.69-.505-1.156l-.57-8.791a2.2 2.2 0 0 1 .163-1.01c.13-.304.293-.518.488-.643a.574.574 0 0 1 .602-.032c.207.103.37.371.489.806-.011.314-.033.6-.065.854-.033.255-.057.508-.074.757-.016.25-.013.508.008.774.022.265.082.561.18.887.846-.63 1.628-.955 2.344-.977.716-.022 1.335.157 1.856.537.52.38.933.906 1.237 1.58.304.672.464 1.386.48 2.14a5.6 5.6 0 0 1-.407 2.214 4.127 4.127 0 0 1-1.424 1.815zm-3.956-5.08c-.054.109-.103.296-.147.562a5.588 5.588 0 0 0-.065.895c0 .331.025.673.073 1.026.05.353.133.675.253.968.12.293.276.538.472.733.195.195.445.298.749.31.792-.174 1.419-.446 1.88-.815.461-.369.79-.781.985-1.237a3.09 3.09 0 0 0 .252-1.408 3.604 3.604 0 0 0-.325-1.335 2.944 2.944 0 0 0-.765-1.018c-.32-.27-.668-.42-1.042-.447-.375-.027-.765.092-1.172.358-.407.266-.79.735-1.148 1.408zm-96.816 24.236c-.326-.228-.486-.464-.48-.708.005-.244.197-.426.577-.545l5.666-.033a.489.489 0 0 1 .309.293.643.643 0 0 1 .008.44.993.993 0 0 1-.285.423c-.14.13-.33.206-.57.228l-5.225-.098zm20.61 3.712c-.185.336-.41.548-.676.635-.266.087-.556.005-.87-.244l-.302-.448c-.179-.266-.445-.695-.798-1.286a87.052 87.052 0 0 1-1.326-2.328c-.532-.96-1.162-2.152-1.889-3.574a.77.77 0 0 1-.13-.561.895.895 0 0 1 .236-.48.974.974 0 0 1 1.05-.228c.108.043.239.176.39.398.153.223.318.497.497.823.18.325.37.686.57 1.082.2.396.402.79.602 1.18.201.391.396.766.586 1.124.19.358.367.66.53.903.162.245.309.418.44.521.13.103.232.095.308-.024.033-.054.084-.18.155-.375.07-.195.152-.431.244-.708.092-.277.19-.567.293-.87.103-.305.201-.595.293-.872a30.881 30.881 0 0 1 .383-1.082c.054-.141.12-.318.195-.53.076-.211.163-.428.26-.65.098-.223.21-.427.334-.611.125-.185.264-.318.416-.399a.627.627 0 0 1 .496-.04c.18.054.383.216.61.488.066.076.106.17.123.285.016.114-.006.282-.065.504-.06.223-.158.513-.293.871-.136.358-.323.828-.562 1.408-.239.581-.532 1.287-.88 2.117-.347.83-.753 1.82-1.22 2.97zm10.745-1.058a2.73 2.73 0 0 1-.782.92 3.464 3.464 0 0 1-1.074.545c-.391.12-.8.176-1.23.17a4.185 4.185 0 0 1-1.245-.203 4.468 4.468 0 0 1-1.131-.553 3.335 3.335 0 0 1-.888-.88 6.85 6.85 0 0 1-.797-2.197c-.141-.781-.136-1.52.016-2.214a3.95 3.95 0 0 1 .928-1.823c.467-.521 1.118-.869 1.953-1.042.793-.055 1.42.04 1.88.285.462.244.777.575.945.993.168.417.2.881.098 1.392a3.98 3.98 0 0 1-.66 1.49 5.044 5.044 0 0 1-1.335 1.285 5.13 5.13 0 0 1-1.92.774c.216.358.463.615.74.773.277.157.567.252.871.285.304.032.605.013.904-.057.298-.07.575-.158.83-.26.255-.104.48-.201.676-.294.195-.092.336-.154.423-.187.39-.12.656-.12.798 0 .14.12.14.385 0 .798zm-4.315-5.812a3.625 3.625 0 0 0-1.156 1.465c-.119.282-.198.575-.236.88-.038.303-.03.602.025.895a3.274 3.274 0 0 0 1.229-.424 3.8 3.8 0 0 0 .912-.74c.244-.277.42-.562.529-.855.108-.293.138-.548.09-.765-.05-.217-.188-.375-.416-.472-.228-.098-.553-.093-.977.016zm7.245 6.935a.866.866 0 0 1-.399.415c-.19.103-.388.155-.594.155-.206 0-.399-.06-.578-.18-.18-.119-.301-.32-.366-.602-.022-.108-.025-.333-.009-.675.017-.342.02-.825.009-1.45-.011-.623-.044-1.4-.098-2.327a58.175 58.175 0 0 0-.31-3.33c.229-.206.448-.282.66-.227.212.054.404.173.578.358.174.184.315.41.423.676.109.265.168.512.18.74.053-.206.17-.42.35-.643.178-.222.398-.426.659-.61.26-.185.55-.342.87-.472.32-.13.652-.212.994-.245.341-.032.683 0 1.025.098.342.098.66.282.953.554.01.097-.006.2-.05.309a1.273 1.273 0 0 1-.178.31 1.274 1.274 0 0 1-.26.252.8.8 0 0 1-.294.138c-.63-.13-1.164-.122-1.603.024-.44.147-.8.388-1.083.725a3.344 3.344 0 0 0-.635 1.229 8.49 8.49 0 0 0-.293 1.538 12.928 12.928 0 0 0-.057 1.66c.016.565.052 1.092.106 1.58zm7.88-5.519c-.055.022-.077.147-.066.375.011.228.035.515.073.862.038.348.085.738.139 1.173.054.434.092.862.114 1.286.022.423.019.822-.008 1.196-.027.375-.095.681-.204.92-.108.239-.268.388-.48.448-.212.06-.497-.008-.855-.204l-.39-6.056a3.414 3.414 0 0 0-.587-.065c-.152 0-.295.008-.431.025a22.93 22.93 0 0 1-.448.048 3.617 3.617 0 0 1-.635-.008.798.798 0 0 1-.374-.456c-.054-.184-.008-.366.138-.545.147-.18.407-.331.782-.456.374-.125.892-.187 1.555-.187.075-.043.097-.209.065-.497a41.312 41.312 0 0 0-.13-1.017c-.055-.39-.096-.798-.123-1.221-.027-.423.003-.787.09-1.09.087-.305.252-.51.496-.62.245-.108.61-.048 1.1.18.01.607.021 1.117.032 1.53.01.412.022.757.032 1.034.011.276.022.496.033.659a15.02 15.02 0 0 0 .065.724c.01.093.022.204.033.334.228.011.436.008.626-.008s.375-.032.554-.049c.179-.016.363-.03.553-.04.19-.011.4-.011.627 0 .239.054.413.151.521.293.109.14.16.293.155.455a.746.746 0 0 1-.196.464c-.124.147-.29.258-.496.334l-2.36.18zm4.46 4.705c.076.206.1.407.073.602-.027.196-.09.37-.187.521-.098.152-.22.272-.366.359a.758.758 0 0 1-.448.114.708.708 0 0 1-.431-.204c-.136-.125-.242-.328-.318-.61-.022-.076-.04-.264-.057-.562-.016-.299-.03-.649-.04-1.05l-.033-1.294c-.01-.462-.022-.893-.033-1.295-.01-.401-.021-.751-.032-1.05-.011-.298-.027-.49-.049-.578-.076-.531-.081-.963-.016-1.294.065-.33.165-.58.3-.749.137-.168.291-.26.465-.277a.677.677 0 0 1 .48.139c.147.108.263.274.35.496.087.223.114.486.082.79l.26 5.942zm-1.172-8.66c-.239-.185-.383-.389-.432-.611a.909.909 0 0 1 .05-.595.733.733 0 0 1 .39-.374c.18-.076.372-.065.578.033.239.13.385.314.44.553.054.239.043.459-.033.66a.787.787 0 0 1-.383.439c-.179.092-.382.057-.61-.106zm9.068 7.879c-.282.662-.643 1.156-1.083 1.481-.44.326-.909.518-1.408.578a3.22 3.22 0 0 1-1.506-.187 4.354 4.354 0 0 1-1.367-.806 4.423 4.423 0 0 1-1.01-1.278 3.709 3.709 0 0 1-.431-1.628 8.945 8.945 0 0 1-.057-1.164c.005-.407.046-.803.122-1.188.076-.386.198-.755.366-1.107.168-.353.399-.665.692-.937a2.61 2.61 0 0 1 1.164-.561 3.22 3.22 0 0 1 1.205-.016c.385.07.735.192 1.05.366.315.173.542.366.684.578.14.211.173.42.097.627-.076.206-.304.374-.683.504-.565-.325-1.053-.494-1.466-.504-.412-.011-.749.084-1.009.284-.26.201-.453.483-.578.847-.125.364-.19.757-.195 1.18-.006.424.049.85.162 1.278.114.429.277.814.489 1.156.212.342.472.61.781.806.31.195.654.269 1.034.22.38-.05.798-.242 1.254-.578.455-.337.938-.874 1.449-1.612.119-.065.22-.054.3.033a.713.713 0 0 1 .164.382c.027.168.024.364-.009.586a2.173 2.173 0 0 1-.211.66zm9.296 1.253c0 .315-.066.527-.196.635a.69.69 0 0 1-.456.163 1.2 1.2 0 0 1-.496-.106c-.158-.07-.258-.138-.301-.203l-.863-1.856a5.98 5.98 0 0 1-.489.757c-.184.244-.39.461-.618.65-.228.19-.475.35-.741.481-.266.13-.55.212-.855.244-.727.022-1.332-.09-1.815-.333a3.064 3.064 0 0 1-1.156-.985 3.486 3.486 0 0 1-.57-1.425 5.845 5.845 0 0 1-.04-1.66c.065-.57.2-1.132.407-1.685.206-.554.466-1.05.781-1.49a4.46 4.46 0 0 1 1.1-1.09 2.654 2.654 0 0 1 1.342-.48c.478-.033.98.078 1.506.333s1.066.708 1.62 1.36l1.84 6.69zm-6.382-1.074c.5.173.936.214 1.31.122.375-.092.692-.269.953-.53.26-.26.458-.585.594-.976a5.013 5.013 0 0 0 .195-2.466 3.478 3.478 0 0 0-.358-1.075 1.732 1.732 0 0 0-.643-.692c-.26-.152-.564-.184-.912-.098-.282.066-.534.231-.757.497-.222.266-.41.58-.561.944a5.633 5.633 0 0 0-.342 1.18 6.499 6.499 0 0 0-.106 1.238c.005.401.06.768.163 1.099.103.33.258.583.464.757zm9.751 1.188c.076.271.066.48-.032.627a.613.613 0 0 1-.423.269 1.279 1.279 0 0 1-.61-.057 1.406 1.406 0 0 1-.579-.35l-.553-11.038c-.076-.196-.079-.366-.008-.513a.788.788 0 0 1 .309-.342c.136-.081.287-.133.456-.155a.844.844 0 0 1 .456.057c.135.06.238.158.309.293.07.136.073.318.008.546l.667 10.663zm1.287-3.549c-.326-.228-.486-.464-.48-.708.005-.244.197-.426.577-.545l5.666-.033a.489.489 0 0 1 .309.293.643.643 0 0 1 .008.44.993.993 0 0 1-.285.423c-.14.13-.33.206-.57.228l-5.225-.098zm8.856 3.777a.866.866 0 0 1-.4.415c-.189.103-.387.155-.593.155-.206 0-.4-.06-.578-.18-.18-.119-.301-.32-.366-.602-.022-.108-.025-.333-.009-.675.017-.342.02-.825.009-1.45-.011-.623-.044-1.4-.098-2.327a58.175 58.175 0 0 0-.31-3.33c.228-.206.448-.282.66-.227.211.054.404.173.578.358.173.184.315.41.423.676.109.265.168.512.18.74.053-.206.17-.42.35-.643.178-.222.398-.426.658-.61.261-.185.551-.342.871-.472.32-.13.652-.212.994-.245.341-.032.683 0 1.025.098.342.098.66.282.953.554.01.097-.006.2-.05.309a1.273 1.273 0 0 1-.178.31 1.274 1.274 0 0 1-.26.252.8.8 0 0 1-.294.138c-.63-.13-1.164-.122-1.603.024-.44.147-.8.388-1.083.725a3.344 3.344 0 0 0-.635 1.229 8.49 8.49 0 0 0-.293 1.538 12.928 12.928 0 0 0-.057 1.66c.016.565.052 1.092.106 1.58zm7.407-.228c.076.271.065.48-.032.627a.613.613 0 0 1-.424.269 1.279 1.279 0 0 1-.61-.057 1.406 1.406 0 0 1-.578-.35l-.554-11.038c-.076-.196-.078-.366-.008-.513a.788.788 0 0 1 .31-.342c.135-.081.287-.133.455-.155a.844.844 0 0 1 .456.057c.136.06.239.158.31.293.07.136.073.318.008.546l.667 10.663zM218.96 53.665c-.326-.227-.486-.463-.48-.708.005-.244.197-.426.577-.545l5.666-.033a.489.489 0 0 1 .309.293.643.643 0 0 1 .008.44.993.993 0 0 1-.285.423c-.14.13-.33.206-.57.228l-5.225-.098zm20.61 3.712c-.185.337-.41.548-.676.635-.266.087-.556.006-.87-.244l-.302-.448c-.179-.266-.445-.694-.798-1.286a87.052 87.052 0 0 1-1.326-2.328c-.532-.96-1.162-2.151-1.889-3.573a.77.77 0 0 1-.13-.562.895.895 0 0 1 .236-.48.974.974 0 0 1 1.05-.228c.108.043.239.176.39.399.153.222.318.496.497.822.18.326.37.686.57 1.083.2.396.402.79.602 1.18.201.39.396.765.586 1.123.19.358.367.66.53.904.162.244.309.418.44.52.13.104.232.096.308-.024.033-.054.084-.179.155-.374.07-.196.152-.432.244-.708.092-.277.19-.567.293-.871l.293-.871a30.881 30.881 0 0 1 .383-1.083c.054-.141.12-.317.195-.53.076-.21.163-.428.26-.65.098-.223.21-.426.334-.61.125-.185.264-.318.416-.4a.627.627 0 0 1 .496-.04c.18.054.383.217.61.488.066.076.106.171.123.285.016.114-.006.282-.065.505-.06.222-.158.512-.293.87-.136.359-.323.828-.562 1.409-.239.58-.532 1.286-.88 2.116-.347.83-.753 1.82-1.22 2.971zm10.745-1.058a2.73 2.73 0 0 1-.782.92 3.464 3.464 0 0 1-1.074.545c-.391.12-.8.177-1.23.171a4.185 4.185 0 0 1-1.245-.203 4.468 4.468 0 0 1-1.131-.554 3.335 3.335 0 0 1-.888-.879 6.85 6.85 0 0 1-.797-2.198c-.141-.781-.136-1.52.016-2.214a3.95 3.95 0 0 1 .928-1.823c.467-.521 1.118-.868 1.953-1.042.793-.054 1.42.04 1.88.285.462.244.777.575.945.993.168.418.2.882.098 1.392a3.98 3.98 0 0 1-.66 1.49 5.044 5.044 0 0 1-1.335 1.286 5.13 5.13 0 0 1-1.92.773c.216.358.463.616.74.773.277.158.567.253.871.285.304.033.605.014.904-.057.298-.07.575-.157.83-.26.255-.103.48-.201.676-.293.195-.093.336-.155.423-.188.39-.119.656-.119.798 0 .14.12.14.386 0 .798zm-4.315-5.812a3.625 3.625 0 0 0-1.156 1.465c-.119.283-.198.576-.236.88-.038.303-.03.602.025.895a3.274 3.274 0 0 0 1.229-.423 3.8 3.8 0 0 0 .912-.741c.244-.277.42-.562.529-.855.108-.293.138-.548.09-.765-.05-.217-.188-.374-.416-.472-.228-.098-.553-.092-.977.016zm7.245 6.935a.866.866 0 0 1-.399.416c-.19.103-.388.154-.594.154-.206 0-.399-.06-.578-.179-.18-.12-.301-.32-.366-.602-.022-.109-.025-.334-.009-.676.017-.342.02-.825.009-1.449-.011-.624-.044-1.4-.098-2.328a58.175 58.175 0 0 0-.31-3.329c.229-.206.448-.282.66-.228.212.054.404.174.578.358.174.185.315.41.423.676.109.266.168.513.18.74.053-.206.17-.42.35-.642.178-.223.398-.426.659-.611.26-.184.55-.342.87-.472.32-.13.652-.212.994-.244.341-.033.683 0 1.025.097.342.098.66.283.953.554.01.098-.006.2-.05.31a1.273 1.273 0 0 1-.178.309 1.274 1.274 0 0 1-.26.252.8.8 0 0 1-.294.138c-.63-.13-1.164-.122-1.603.025-.44.146-.8.388-1.083.724a3.344 3.344 0 0 0-.635 1.23 8.49 8.49 0 0 0-.293 1.538 12.928 12.928 0 0 0-.057 1.66c.016.565.052 1.091.106 1.58zm7.88-5.518c-.055.021-.077.146-.066.374.011.228.035.516.073.863.038.347.085.738.139 1.172.054.434.092.863.114 1.286.022.423.019.822-.008 1.197-.027.374-.095.68-.204.92-.108.238-.268.387-.48.447-.212.06-.497-.008-.855-.203l-.39-6.056a3.414 3.414 0 0 0-.587-.066c-.152 0-.295.009-.431.025a22.93 22.93 0 0 1-.448.049 3.617 3.617 0 0 1-.635-.008.798.798 0 0 1-.374-.456c-.054-.185-.008-.367.138-.546.147-.179.407-.33.782-.456.374-.124.892-.187 1.555-.187.075-.043.097-.209.065-.496a41.312 41.312 0 0 0-.13-1.018c-.055-.39-.096-.797-.123-1.22-.027-.424.003-.788.09-1.091.087-.304.252-.51.496-.62.245-.108.61-.048 1.1.18.01.608.021 1.118.032 1.53.01.413.022.757.032 1.034.011.277.022.497.033.66a15.02 15.02 0 0 0 .065.724c.01.092.022.203.033.334.228.01.436.008.626-.009l.554-.048c.179-.017.363-.03.553-.041.19-.011.4-.011.627 0 .239.054.413.152.521.293.109.141.16.293.155.456a.746.746 0 0 1-.196.464c-.124.146-.29.257-.496.333l-2.36.18zm4.46 4.704c.076.207.1.407.073.603-.027.195-.09.369-.187.52-.098.153-.22.272-.366.359a.758.758 0 0 1-.448.114.708.708 0 0 1-.431-.204c-.136-.124-.242-.328-.318-.61-.022-.076-.04-.263-.057-.562-.016-.298-.03-.648-.04-1.05l-.033-1.294c-.01-.461-.022-.893-.033-1.294-.01-.402-.021-.752-.032-1.05-.011-.299-.027-.492-.049-.578-.076-.532-.081-.964-.016-1.295.065-.33.165-.58.3-.748.137-.169.291-.26.465-.277a.677.677 0 0 1 .48.138c.147.109.263.274.35.497.087.222.114.485.082.79l.26 5.941zm-1.172-8.66c-.239-.185-.383-.388-.432-.611a.909.909 0 0 1 .05-.594.733.733 0 0 1 .39-.375c.18-.076.372-.065.578.033.239.13.385.315.44.553.054.24.043.459-.033.66a.787.787 0 0 1-.383.44c-.179.092-.382.056-.61-.106zm9.068 7.879c-.282.662-.643 1.156-1.083 1.481-.44.326-.909.519-1.408.578a3.22 3.22 0 0 1-1.506-.187 4.354 4.354 0 0 1-1.367-.806 4.423 4.423 0 0 1-1.01-1.278 3.709 3.709 0 0 1-.431-1.628 8.945 8.945 0 0 1-.057-1.164c.005-.407.046-.803.122-1.188.076-.385.198-.754.366-1.107.168-.353.399-.665.692-.936a2.61 2.61 0 0 1 1.164-.562 3.22 3.22 0 0 1 1.205-.016c.385.07.735.193 1.05.366.315.174.542.366.684.578.14.212.173.42.097.627-.076.206-.304.374-.683.505-.565-.326-1.053-.494-1.466-.505-.412-.011-.749.084-1.009.285-.26.2-.453.483-.578.846-.125.364-.19.757-.195 1.18-.006.424.049.85.162 1.279.114.428.277.814.489 1.155.212.342.472.61.781.806.31.196.654.269 1.034.22.38-.049.798-.241 1.254-.578.455-.336.938-.874 1.449-1.612.119-.065.22-.054.3.033a.713.713 0 0 1 .164.383c.027.168.024.363-.009.586a2.173 2.173 0 0 1-.211.659zm9.296 1.254c0 .314-.066.526-.196.634a.69.69 0 0 1-.456.163 1.2 1.2 0 0 1-.496-.106c-.158-.07-.258-.138-.301-.203l-.863-1.856a5.98 5.98 0 0 1-.489.757c-.184.244-.39.461-.618.651-.228.19-.475.35-.741.48s-.55.212-.855.245c-.727.021-1.332-.09-1.815-.334a3.064 3.064 0 0 1-1.156-.985 3.486 3.486 0 0 1-.57-1.424 5.845 5.845 0 0 1-.04-1.661c.065-.57.2-1.131.407-1.685.206-.553.466-1.05.781-1.49a4.46 4.46 0 0 1 1.1-1.09 2.654 2.654 0 0 1 1.342-.48c.478-.033.98.078 1.506.333s1.066.708 1.62 1.36l1.84 6.69zm-6.382-1.075c.5.174.936.214 1.31.122.375-.092.692-.268.953-.529.26-.26.458-.586.594-.977a5.013 5.013 0 0 0 .195-2.466 3.478 3.478 0 0 0-.358-1.075 1.732 1.732 0 0 0-.643-.691c-.26-.152-.564-.185-.912-.098-.282.065-.534.23-.757.496-.222.266-.41.581-.561.945a5.633 5.633 0 0 0-.342 1.18 6.499 6.499 0 0 0-.106 1.237c.005.402.06.768.163 1.099.103.331.258.583.464.757zm9.751 1.188c.076.272.066.48-.032.627a.613.613 0 0 1-.423.269 1.279 1.279 0 0 1-.61-.057 1.406 1.406 0 0 1-.579-.35l-.553-11.038c-.076-.195-.079-.366-.008-.513a.788.788 0 0 1 .309-.342c.136-.08.287-.132.456-.154a.844.844 0 0 1 .456.057c.135.06.238.157.309.293.07.135.073.317.008.545l.667 10.663zm1.287-3.549c-.326-.227-.486-.463-.48-.708.005-.244.197-.426.577-.545l5.666-.033a.489.489 0 0 1 .309.293.643.643 0 0 1 .008.44.993.993 0 0 1-.285.423c-.14.13-.33.206-.57.228l-5.225-.098zm9.28 3.55c.075.27.064.48-.033.626a.613.613 0 0 1-.424.269 1.279 1.279 0 0 1-.61-.057 1.406 1.406 0 0 1-.578-.35l-.554-11.038c-.076-.195-.078-.366-.008-.513a.788.788 0 0 1 .31-.342c.135-.08.287-.132.455-.154a.844.844 0 0 1 .456.057c.136.06.239.157.31.293.07.135.073.317.008.545l.667 10.663zm2.995.227a.866.866 0 0 1-.4.416c-.19.103-.387.154-.593.154-.207 0-.4-.06-.578-.179-.18-.12-.302-.32-.367-.602-.021-.109-.024-.334-.008-.676s.02-.825.008-1.449c-.01-.624-.043-1.4-.097-2.328a58.175 58.175 0 0 0-.31-3.329c.228-.206.448-.282.66-.228.211.054.404.174.578.358.173.185.314.41.423.676.108.266.168.513.179.74.054-.206.17-.42.35-.642.179-.223.399-.426.66-.611.26-.184.55-.342.87-.472.32-.13.651-.212.993-.244.342-.033.684 0 1.026.097.342.098.66.283.952.554.011.098-.005.2-.049.31a1.273 1.273 0 0 1-.179.309 1.274 1.274 0 0 1-.26.252.8.8 0 0 1-.293.138c-.63-.13-1.164-.122-1.604.025-.44.146-.8.388-1.082.724a3.344 3.344 0 0 0-.635 1.23 8.49 8.49 0 0 0-.293 1.538 12.928 12.928 0 0 0-.057 1.66c.016.565.051 1.091.106 1.58zM218.959 76.29c-.326-.228-.486-.464-.48-.708.005-.245.197-.426.577-.546l5.666-.032a.489.489 0 0 1 .309.293.643.643 0 0 1 .008.44.993.993 0 0 1-.285.423c-.14.13-.33.206-.57.228l-5.225-.098zm15.644 4.037a.98.98 0 0 1-.407-.211.902.902 0 0 1-.276-.383.647.647 0 0 1 .024-.48c.07-.174.236-.342.497-.505.14.13.374.242.7.334a5.66 5.66 0 0 0 1.066.187c.385.033.768.035 1.148.008.38-.027.697-.09.952-.187.255-.098.415-.23.48-.399.065-.168-.027-.377-.276-.627a42.587 42.587 0 0 0-1.897-1.213c-.537-.32-.993-.634-1.367-.944a3.955 3.955 0 0 1-.896-1.025c-.222-.375-.382-.855-.48-1.441-.033-.478.081-.871.342-1.18.26-.31.597-.543 1.01-.7a4.104 4.104 0 0 1 1.383-.253 5.46 5.46 0 0 1 1.49.171c.482.125.92.312 1.31.562.39.25.673.553.847.911a.824.824 0 0 1-.025.448.936.936 0 0 1-.22.35.92.92 0 0 1-.366.22 1.022 1.022 0 0 1-.464.04c-.336-.423-.703-.73-1.099-.92-.396-.19-.77-.29-1.123-.3-.353-.011-.649.062-.887.22a.773.773 0 0 0-.375.642c-.01.272.122.592.4.961.276.369.756.765 1.44 1.188.977.587 1.701 1.132 2.173 1.637.472.504.738.955.798 1.35a1.11 1.11 0 0 1-.35 1.018c-.293.282-.711.494-1.254.635-.542.141-1.185.206-1.929.196a11.14 11.14 0 0 1-2.369-.31zm8.499-1.074c.076.206.1.407.073.602-.027.195-.09.37-.187.521-.098.152-.22.271-.367.358a.758.758 0 0 1-.447.114.708.708 0 0 1-.432-.203c-.135-.125-.241-.329-.317-.61-.022-.077-.041-.264-.057-.562-.017-.299-.03-.649-.041-1.05l-.033-1.295c-.01-.461-.021-.892-.032-1.294-.01-.402-.022-.752-.033-1.05-.01-.299-.027-.491-.048-.578-.076-.532-.082-.963-.017-1.294.065-.331.166-.58.301-.75.136-.167.29-.26.464-.276a.677.677 0 0 1 .48.139c.147.108.264.274.35.496.087.223.115.486.082.79l.26 5.942zm-1.173-8.661c-.238-.185-.382-.388-.431-.61a.909.909 0 0 1 .049-.595.733.733 0 0 1 .39-.374c.18-.076.372-.065.578.032.24.13.386.315.44.554.054.239.043.458-.033.66a.787.787 0 0 1-.382.439c-.18.092-.383.057-.61-.106zm4.966 9.996c-.706-.174-1.284-.51-1.734-1.01a4.462 4.462 0 0 1-.969-1.717 5.55 5.55 0 0 1-.211-2.043c.054-.717.23-1.381.529-1.995a4.453 4.453 0 0 1 1.261-1.562c.543-.43 1.205-.681 1.987-.757.38-.033.781-.028 1.204.016.424.043.809.152 1.156.325l-.211-3.207c0-.13.094-.228.284-.293.19-.065.4-.092.627-.081.228.01.437.07.627.179.19.108.285.277.285.505l1.058 11.054c.022.206-.03.369-.155.488a.868.868 0 0 1-.455.228c-.18.032-.361.022-.546-.033a.614.614 0 0 1-.39-.293 1.123 1.123 0 0 1-.09-.228 43.042 43.042 0 0 1-.236-.765c-.033-.108-.054-.163-.065-.163-.424.424-.833.741-1.23.953a4.146 4.146 0 0 1-1.115.423c-.347.07-.659.095-.936.073a4.243 4.243 0 0 1-.675-.097zm-1.254-3.663c.152.597.353 1.077.603 1.44.25.364.523.625.822.782.298.157.613.222.944.195.33-.027.654-.127.969-.3.314-.175.613-.408.895-.7.282-.294.526-.636.733-1.027.097-.195.154-.415.17-.659a3.585 3.585 0 0 0-.032-.757 7.04 7.04 0 0 0-.163-.79l-.203-.773c-.304-.597-.649-1.015-1.034-1.253-.385-.24-.773-.345-1.164-.318-.39.027-.765.168-1.123.424a3.46 3.46 0 0 0-.912.968c-.25.39-.426.828-.53 1.31-.102.484-.094.97.025 1.458zm15.075 2.018a2.73 2.73 0 0 1-.781.92 3.464 3.464 0 0 1-1.075.546c-.39.119-.8.176-1.229.17a4.185 4.185 0 0 1-1.245-.203 4.468 4.468 0 0 1-1.132-.553 3.335 3.335 0 0 1-.887-.88 6.85 6.85 0 0 1-.798-2.197c-.14-.782-.135-1.52.017-2.214a3.95 3.95 0 0 1 .928-1.824c.466-.52 1.118-.868 1.953-1.042.793-.054 1.42.041 1.88.285.462.244.777.575.945.993.168.418.2.882.098 1.392a3.98 3.98 0 0 1-.66 1.49 5.044 5.044 0 0 1-1.335 1.286 5.13 5.13 0 0 1-1.92.773c.216.358.463.616.74.774.277.157.567.252.87.284.305.033.606.014.904-.057.299-.07.576-.157.83-.26.256-.103.481-.2.676-.293.196-.092.337-.155.424-.187.39-.12.656-.12.797 0 .141.12.141.385 0 .797zm-4.314-5.811a3.625 3.625 0 0 0-1.156 1.465c-.12.282-.198.575-.236.879-.038.304-.03.602.025.895a3.274 3.274 0 0 0 1.229-.423 3.8 3.8 0 0 0 .911-.74c.245-.278.421-.562.53-.855.108-.294.138-.549.09-.766-.05-.217-.188-.374-.416-.472-.228-.097-.554-.092-.977.017zm8.156 7.26a6.004 6.004 0 0 1-1.522-1.66 8.412 8.412 0 0 1-.87-1.97 13.315 13.315 0 0 1-.448-2.165c-.093-.75-.177-1.493-.253-2.23a1.29 1.29 0 0 1 .277-.611c.141-.168.304-.282.488-.342a.858.858 0 0 1 .57.016c.196.07.364.225.505.464-.054.619-.049 1.254.016 1.905s.171 1.267.318 1.848c.146.58.32 1.107.52 1.579.201.472.413.836.635 1.09.223.256.443.383.66.383.217 0 .418-.184.602-.553.185-.37.342-.942.472-1.718.13-.776.212-1.804.244-3.085 0-.14.063-.263.188-.366.124-.103.274-.182.447-.236.174-.054.345-.09.513-.106a.997.997 0 0 1 .399.024c.141.24.255.551.342.937.087.385.165.797.236 1.237l.212 1.335c.07.45.17.86.3 1.229.131.369.297.675.497.92.201.244.459.382.774.415.282.022.504-.063.667-.253.163-.19.285-.45.366-.781.082-.331.125-.714.13-1.148.006-.434-.005-.879-.032-1.335a27.196 27.196 0 0 0-.114-1.35l-.13-1.197c-.038-.353-.063-.64-.073-.863-.011-.223.01-.345.065-.367.325-.152.613-.157.863-.016.25.141.464.385.643.733.179.347.317.773.415 1.278.097.504.152 1.039.163 1.603.01.565-.02 1.137-.09 1.718-.07.58-.19 1.12-.358 1.62-.168.499-.383.933-.643 1.302s-.575.63-.944.781c-.554.087-1.02.09-1.4.009a2.313 2.313 0 0 1-.977-.448 3.202 3.202 0 0 1-.725-.847 18.529 18.529 0 0 1-.66-1.188c-.14.38-.3.765-.48 1.156-.178.39-.395.719-.65.985a1.8 1.8 0 0 1-.904.52c-.347.082-.765-.002-1.254-.252zm18.364-.667c0 .315-.065.526-.195.635a.69.69 0 0 1-.456.163 1.2 1.2 0 0 1-.497-.106c-.157-.07-.257-.139-.3-.204l-.864-1.856a5.98 5.98 0 0 1-.488.757c-.185.245-.39.462-.619.652-.228.19-.475.35-.74.48-.266.13-.551.211-.855.244-.727.022-1.332-.09-1.815-.334a3.064 3.064 0 0 1-1.156-.985 3.486 3.486 0 0 1-.57-1.424 5.845 5.845 0 0 1-.04-1.66c.064-.57.2-1.132.406-1.686.206-.553.467-1.05.782-1.49a4.46 4.46 0 0 1 1.099-1.09 2.654 2.654 0 0 1 1.343-.48c.477-.033.98.078 1.506.333.526.256 1.066.709 1.62 1.36l1.839 6.69zm-6.382-1.075c.5.174.936.215 1.31.122.375-.092.693-.268.953-.529.26-.26.459-.586.594-.976a5.013 5.013 0 0 0 .195-2.466 3.478 3.478 0 0 0-.357-1.075 1.732 1.732 0 0 0-.643-.692c-.26-.152-.565-.185-.912-.098-.282.065-.535.23-.757.497-.223.266-.41.58-.562.944a5.633 5.633 0 0 0-.342 1.18 6.499 6.499 0 0 0-.105 1.237c.005.402.06.768.162 1.1.103.33.258.583.464.756zm7.831 6.659c-.13-.152-.18-.342-.147-.57.033-.228.109-.437.228-.627.12-.19.266-.325.44-.407.174-.081.326-.051.456.09.434.727.844 1.253 1.229 1.579.385.326.743.494 1.074.505.331.01.63-.106.896-.35.266-.245.496-.573.692-.985.195-.413.358-.882.488-1.409.13-.526.223-1.06.277-1.603a9.755 9.755 0 0 0 .032-1.587 6.397 6.397 0 0 0-.211-1.343c-.207.26-.448.52-.725.781-.277.26-.58.48-.911.66-.331.178-.69.295-1.075.35-.385.054-.784 0-1.196-.163a2.588 2.588 0 0 1-.945-.888 5.462 5.462 0 0 1-.61-1.318 9.334 9.334 0 0 1-.35-1.58 17.442 17.442 0 0 1-.147-1.652 24.917 24.917 0 0 1-.016-1.547c.01-.488.027-.917.049-1.286.108-.173.26-.312.456-.415.195-.103.39-.152.586-.146a.86.86 0 0 1 .52.187c.153.12.245.31.277.57l-.04.895c-.017.38-.022.792-.017 1.237.006.445.028.901.066 1.368.038.467.114.895.228 1.286.113.39.265.727.455 1.01.19.282.437.46.741.537.5-.066.904-.242 1.213-.53.31-.287.545-.64.708-1.058.163-.418.269-.876.318-1.375.048-.5.065-.993.048-1.482a12.891 12.891 0 0 0-.114-1.367c-.06-.424-.11-.77-.154-1.042a.568.568 0 0 1 .407-.334c.195-.049.393-.052.594-.008.2.043.385.13.554.26.168.13.263.288.284.473.467 2.626.706 4.894.717 6.804.01 1.91-.133 3.492-.432 4.746-.298 1.254-.719 2.203-1.261 2.849-.543.646-1.137 1.02-1.783 1.123-.646.103-1.31-.04-1.994-.431-.684-.39-1.319-.993-1.905-1.807zm8.742-4.982a.98.98 0 0 1-.407-.211.902.902 0 0 1-.277-.383.647.647 0 0 1 .025-.48c.07-.174.236-.342.496-.505.142.13.375.242.7.334a5.66 5.66 0 0 0 1.067.187c.385.033.768.035 1.148.008.38-.027.697-.09.952-.187.255-.098.415-.23.48-.399.065-.168-.027-.377-.277-.627a42.586 42.586 0 0 0-1.896-1.213c-.537-.32-.993-.634-1.368-.944a3.955 3.955 0 0 1-.895-1.025c-.223-.375-.383-.855-.48-1.441-.033-.478.081-.871.342-1.18.26-.31.596-.543 1.009-.7a4.104 4.104 0 0 1 1.384-.253 5.46 5.46 0 0 1 1.49.171c.482.125.92.312 1.31.562.39.25.673.553.846.911a.824.824 0 0 1-.024.448.936.936 0 0 1-.22.35.92.92 0 0 1-.366.22 1.022 1.022 0 0 1-.464.04c-.337-.423-.703-.73-1.099-.92-.396-.19-.77-.29-1.123-.3-.353-.011-.649.062-.888.22a.773.773 0 0 0-.374.642c-.01.272.122.592.399.961s.757.765 1.44 1.188c.977.587 1.702 1.132 2.174 1.637.472.504.738.955.798 1.35a1.11 1.11 0 0 1-.35 1.018c-.293.282-.711.494-1.254.635-.543.141-1.186.206-1.929.196a11.14 11.14 0 0 1-2.369-.31zm6.903-4.037c-.326-.228-.486-.464-.48-.708.005-.245.198-.426.578-.546l5.665-.032a.489.489 0 0 1 .31.293.643.643 0 0 1 .007.44.993.993 0 0 1-.284.423c-.142.13-.332.206-.57.228l-5.226-.098zm9.28 3.549c.075.271.065.48-.033.627a.613.613 0 0 1-.423.268 1.279 1.279 0 0 1-.61-.057 1.406 1.406 0 0 1-.579-.35l-.553-11.038c-.076-.195-.08-.366-.009-.512a.788.788 0 0 1 .31-.342c.135-.082.287-.133.456-.155a.844.844 0 0 1 .455.057c.136.06.24.157.31.293.07.136.073.318.008.546l.667 10.663zm2.995.228a.866.866 0 0 1-.399.415c-.19.103-.388.155-.594.155-.206 0-.399-.06-.578-.18-.18-.119-.301-.32-.366-.602-.022-.108-.025-.334-.009-.676.017-.341.02-.824.009-1.448-.011-.624-.044-1.4-.098-2.328a58.175 58.175 0 0 0-.31-3.33c.229-.206.448-.282.66-.228.212.055.404.174.578.359.174.184.315.41.423.675.109.266.168.513.18.74.053-.205.17-.42.35-.642.178-.223.398-.426.659-.61.26-.185.55-.342.87-.473.32-.13.652-.211.994-.244.341-.032.683 0 1.025.098.342.097.66.282.953.553.01.098-.006.201-.05.31a1.273 1.273 0 0 1-.178.309 1.274 1.274 0 0 1-.26.252.8.8 0 0 1-.294.139c-.63-.13-1.164-.122-1.603.024-.44.147-.8.388-1.083.724a3.344 3.344 0 0 0-.635 1.23 8.49 8.49 0 0 0-.293 1.538 12.928 12.928 0 0 0-.057 1.66c.016.565.052 1.091.106 1.58zM276.66 176.063h-12.646c-4.46 0-8.74.292-12.842.878-.39-.325-.814-.65-1.27-.976-.455-.326-.78-.781-.976-1.367-.195-.586-.195-1.351 0-2.295s.716-2.263 1.562-3.955c.586-.196 1.53-1.254 2.832-3.174 1.302-1.92 2.784-4.232 4.444-6.934a520.14 520.14 0 0 1 5.468-8.691c1.986-3.093 4.004-5.925 6.055-8.496 2.05-2.572 4.053-4.639 6.006-6.201 1.953-1.563 3.743-2.214 5.371-1.954.781.196 1.416.782 1.904 1.758.489.977.88 2.718 1.172 5.225.293 2.506.489 5.973.586 10.4.098 4.427.114 10.189.049 17.285l5.86-.39c.65 2.734.992 4.687 1.025 5.86.032 1.171-.244 1.92-.83 2.245-.586.326-1.465.472-2.637.44-1.172-.033-2.572.081-4.2.341l.782 26.954c.195.52-.016 1.106-.635 1.757-.618.651-1.383 1.14-2.295 1.465a4.289 4.289 0 0 1-2.783.05c-.944-.294-1.611-1.124-2.002-2.491v-27.734zm-1.074-31.934c-1.172 1.107-2.49 2.767-3.955 4.98a186.897 186.897 0 0 0-4.395 6.983 1919.015 1919.015 0 0 0-4.199 7.031c-1.334 2.246-2.49 3.988-3.467 5.225a54.86 54.86 0 0 0 3.565.097 106.97 106.97 0 0 0 8.984-.39c1.465-.13 2.718-.293 3.76-.489l-.293-23.437zM453.857 10.442c-.324-.227-.484-.462-.478-.705.005-.243.197-.424.575-.543l5.643-.033a.487.487 0 0 1 .308.292.64.64 0 0 1 .008.438.99.99 0 0 1-.284.422c-.14.13-.33.205-.567.227l-5.205-.098zm17.122 3.762a.863.863 0 0 1-.397.414c-.19.102-.386.154-.592.154-.205 0-.397-.06-.575-.179-.179-.119-.3-.319-.365-.6-.022-.108-.025-.332-.008-.673.016-.34.019-.821.008-1.443a58.274 58.274 0 0 0-.098-2.318 57.942 57.942 0 0 0-.308-3.316c.227-.206.446-.281.657-.227.21.054.403.173.576.357.173.183.313.408.421.672.108.265.168.511.179.738.054-.205.17-.419.348-.64.179-.222.397-.425.657-.608.26-.184.548-.34.867-.47.32-.13.649-.211.99-.244.34-.032.68 0 1.02.098.341.097.658.28.95.55.01.098-.006.2-.05.309a1.269 1.269 0 0 1-.438.56.796.796 0 0 1-.29.137c-.628-.13-1.16-.122-1.598.024a2.341 2.341 0 0 0-1.078.722 3.33 3.33 0 0 0-.633 1.224c-.14.481-.237.992-.291 1.532-.054.54-.073 1.092-.057 1.654.016.562.051 1.087.105 1.573zm6.421.324a2.67 2.67 0 0 1-1.127-.997 3.76 3.76 0 0 1-.519-1.41 5.325 5.325 0 0 1 0-1.606 7.932 7.932 0 0 1 .414-1.621 7.253 7.253 0 0 1 .713-1.435c.281-.433.584-.784.908-1.054.595-.454 1.146-.724 1.654-.81.508-.087.962-.039 1.362.145.4.184.749.476 1.046.876.297.4.53.856.697 1.37.168.513.268 1.065.3 1.654a6.801 6.801 0 0 1-.121 1.727 5.577 5.577 0 0 1-.568 1.572 3.529 3.529 0 0 1-1.054 1.2c-.438.314-.962.514-1.573.6-.61.087-1.321.016-2.132-.21zm1.249-1.345a1.82 1.82 0 0 0 1.224-.3c.362-.244.662-.563.9-.957.238-.395.41-.84.519-1.338a4.05 4.05 0 0 0 .064-1.435 3.098 3.098 0 0 0-.454-1.248 1.897 1.897 0 0 0-1.021-.787c-.27-.054-.554.033-.851.26a3.474 3.474 0 0 0-.811.916 5.724 5.724 0 0 0-.6 1.297 4.586 4.586 0 0 0-.235 1.427c0 .47.097.9.292 1.289.194.39.519.681.973.876zm7.847 1.345a5.98 5.98 0 0 1-1.516-1.654 8.378 8.378 0 0 1-.867-1.961 13.261 13.261 0 0 1-.446-2.157c-.092-.746-.176-1.486-.251-2.221.043-.238.135-.44.275-.608.14-.168.303-.281.487-.34a.855.855 0 0 1 .567.015c.195.07.362.225.503.462-.054.617-.049 1.249.016 1.898.065.648.17 1.262.316 1.84.146.578.32 1.102.52 1.573.2.47.41.832.631 1.086.222.254.441.381.657.381.216 0 .416-.184.6-.551.184-.368.34-.938.47-1.71.13-.774.211-1.798.244-3.073a.46.46 0 0 1 .186-.365 1.3 1.3 0 0 1 .446-.235c.173-.054.343-.09.51-.106a.993.993 0 0 1 .398.025c.14.237.254.548.34.932.087.384.165.794.236 1.232l.21 1.33c.07.448.17.856.3 1.224.13.367.295.673.495.916s.457.381.77.413c.281.022.503-.062.665-.25.162-.19.284-.45.365-.78.08-.329.124-.71.13-1.142.005-.433-.006-.876-.033-1.33a27.084 27.084 0 0 0-.114-1.346l-.13-1.191a15.342 15.342 0 0 1-.072-.86c-.011-.221.01-.343.065-.365.324-.15.61-.156.859-.016s.462.384.64.73c.179.346.317.77.414 1.273.097.502.151 1.035.162 1.597.01.562-.019 1.132-.09 1.71a8.105 8.105 0 0 1-.356 1.614c-.167.497-.38.93-.64 1.297-.26.367-.573.627-.94.778-.552.087-1.017.09-1.395.008a2.304 2.304 0 0 1-.973-.446 3.189 3.189 0 0 1-.722-.843c-.21-.346-.43-.74-.656-1.183-.14.378-.3.762-.479 1.15a3.52 3.52 0 0 1-.648.982 1.792 1.792 0 0 1-.9.519c-.346.08-.762-.003-1.249-.252zm-32.64 18.448c-.323-.227-.483-.462-.477-.706.005-.243.197-.424.575-.543l5.643-.032a.487.487 0 0 1 .308.292.64.64 0 0 1 .008.437.99.99 0 0 1-.284.422c-.14.13-.33.205-.567.227l-5.205-.097zm17.123 3.761a.863.863 0 0 1-.397.414c-.19.103-.386.154-.592.154-.205 0-.397-.06-.575-.178-.179-.12-.3-.32-.365-.6-.022-.108-.025-.333-.008-.673.016-.34.019-.822.008-1.443a58.274 58.274 0 0 0-.098-2.319 57.942 57.942 0 0 0-.308-3.316c.227-.205.446-.28.657-.227.21.054.403.173.576.357.173.184.313.408.421.673.108.265.168.51.179.738.054-.206.17-.42.348-.641.179-.222.397-.424.657-.608s.548-.34.867-.47c.32-.13.649-.211.99-.243.34-.033.68 0 1.02.097.341.097.658.28.95.551.01.097-.006.2-.05.308a1.269 1.269 0 0 1-.438.56.796.796 0 0 1-.29.137c-.628-.13-1.16-.121-1.598.025a2.341 2.341 0 0 0-1.078.721 3.33 3.33 0 0 0-.633 1.224c-.14.482-.237.992-.291 1.533-.054.54-.073 1.091-.057 1.654.016.562.051 1.086.105 1.572zm6.421.325a2.67 2.67 0 0 1-1.127-.998 3.76 3.76 0 0 1-.519-1.41 5.325 5.325 0 0 1 0-1.605 7.932 7.932 0 0 1 .414-1.622 7.253 7.253 0 0 1 .713-1.435c.281-.432.584-.783.908-1.054.595-.454 1.146-.724 1.654-.81.508-.087.962-.038 1.362.145.4.184.749.476 1.046.876.297.4.53.857.697 1.37.168.514.268 1.065.3 1.654a6.801 6.801 0 0 1-.121 1.727 5.577 5.577 0 0 1-.568 1.573 3.529 3.529 0 0 1-1.054 1.2c-.438.313-.962.513-1.573.6-.61.086-1.321.016-2.132-.211zm1.249-1.346a1.82 1.82 0 0 0 1.224-.3c.362-.243.662-.562.9-.957.238-.394.41-.84.519-1.337a4.05 4.05 0 0 0 .064-1.435 3.098 3.098 0 0 0-.454-1.249 1.897 1.897 0 0 0-1.021-.786c-.27-.054-.554.032-.851.26a3.474 3.474 0 0 0-.811.915 5.724 5.724 0 0 0-.6 1.297 4.586 4.586 0 0 0-.235 1.427c0 .47.097.9.292 1.29.194.388.519.68.973.875zm7.847 1.346a5.98 5.98 0 0 1-1.516-1.654 8.378 8.378 0 0 1-.867-1.962 13.261 13.261 0 0 1-.446-2.157c-.092-.746-.176-1.486-.251-2.221.043-.238.135-.44.275-.608.14-.168.303-.281.487-.34a.855.855 0 0 1 .567.016c.195.07.362.224.503.462-.054.616-.049 1.248.016 1.897.065.648.17 1.262.316 1.84.146.579.32 1.103.52 1.573s.41.832.631 1.086c.222.254.441.381.657.381.216 0 .416-.183.6-.55.184-.368.34-.939.47-1.712.13-.772.211-1.797.244-3.072a.46.46 0 0 1 .186-.365 1.3 1.3 0 0 1 .446-.235c.173-.054.343-.09.51-.105a.993.993 0 0 1 .398.024c.14.238.254.548.34.932.087.384.165.795.236 1.232l.21 1.33c.07.449.17.857.3 1.224.13.368.295.673.495.916.2.244.457.381.77.414.281.021.503-.062.665-.252.162-.189.284-.448.365-.778.08-.33.124-.71.13-1.143.005-.432-.006-.875-.033-1.33a27.084 27.084 0 0 0-.114-1.345l-.13-1.192a15.342 15.342 0 0 1-.072-.86c-.011-.221.01-.343.065-.364.324-.152.61-.157.859-.016.249.14.462.383.64.73.179.345.317.77.414 1.272.097.503.151 1.035.162 1.597.01.562-.019 1.132-.09 1.71a8.105 8.105 0 0 1-.356 1.614c-.167.497-.38.93-.64 1.297-.26.368-.573.627-.94.779-.552.086-1.017.089-1.395.008a2.304 2.304 0 0 1-.973-.446 3.189 3.189 0 0 1-.722-.843c-.21-.346-.43-.74-.656-1.184-.14.378-.3.762-.479 1.151a3.52 3.52 0 0 1-.648.981 1.792 1.792 0 0 1-.9.519c-.346.081-.762-.003-1.249-.251zm10.2-4.086c-.325-.227-.485-.462-.48-.706.006-.243.198-.424.577-.543l5.642-.032a.487.487 0 0 1 .308.292.64.64 0 0 1 .008.437.99.99 0 0 1-.283.422c-.141.13-.33.205-.568.227l-5.205-.097zm8.82 3.761a.863.863 0 0 1-.397.414c-.19.103-.387.154-.592.154-.206 0-.397-.06-.576-.178-.178-.12-.3-.32-.365-.6-.021-.108-.024-.333-.008-.673s.02-.822.008-1.443a58.272 58.272 0 0 0-.097-2.319 57.942 57.942 0 0 0-.308-3.316c.227-.205.446-.28.657-.227.21.054.402.173.575.357.173.184.314.408.422.673.108.265.167.51.178.738.054-.206.17-.42.349-.641.178-.222.397-.424.656-.608.26-.184.55-.34.868-.47.319-.13.649-.211.989-.243.34-.033.681 0 1.022.097.34.097.656.28.948.551.01.097-.005.2-.049.308a1.269 1.269 0 0 1-.438.56.796.796 0 0 1-.291.137c-.627-.13-1.16-.121-1.597.025a2.341 2.341 0 0 0-1.079.721 3.33 3.33 0 0 0-.632 1.224c-.14.482-.238.992-.292 1.533-.054.54-.073 1.091-.057 1.654.017.562.052 1.086.106 1.572zm11.917-1.118a2.72 2.72 0 0 1-.778.916 3.45 3.45 0 0 1-1.07.543 4.169 4.169 0 0 1-2.465-.032 4.45 4.45 0 0 1-1.127-.552 3.322 3.322 0 0 1-.883-.875 6.823 6.823 0 0 1-.795-2.19c-.14-.778-.135-1.513.017-2.204.15-.692.459-1.298.924-1.817.465-.518 1.113-.864 1.945-1.037.79-.054 1.414.04 1.873.284.46.243.773.572.94.989.168.416.2.878.098 1.386a3.965 3.965 0 0 1-.657 1.484 5.024 5.024 0 0 1-1.33 1.28 5.11 5.11 0 0 1-1.913.77c.217.357.462.614.738.77.276.158.565.252.868.285.302.032.602.013.9-.057a5.71 5.71 0 0 0 .826-.26c.254-.102.479-.2.673-.291.195-.092.335-.154.422-.187.389-.119.654-.119.794 0s.14.384 0 .795zm-4.296-5.789a3.61 3.61 0 0 0-1.152 1.46 3.281 3.281 0 0 0-.235.875c-.038.303-.03.6.025.892a3.26 3.26 0 0 0 1.224-.422c.362-.216.665-.462.908-.738.243-.275.419-.559.527-.85.108-.293.138-.547.089-.763-.049-.216-.187-.373-.414-.47-.227-.097-.55-.092-.972.016zm10.62 6.843c-.184.335-.408.545-.673.632-.265.086-.554.005-.867-.243l-.3-.446a30.569 30.569 0 0 1-.795-1.281 86.7 86.7 0 0 1-1.321-2.319c-.53-.956-1.157-2.143-1.881-3.559a.766.766 0 0 1-.13-.56.891.891 0 0 1 .235-.478.97.97 0 0 1 1.046-.227c.108.044.238.176.39.398.15.221.315.494.494.818.178.325.367.684.567 1.079.2.394.4.786.6 1.175.2.39.395.762.584 1.12.19.356.365.656.527.899.162.243.308.416.438.519.13.103.232.094.308-.024a2.7 2.7 0 0 0 .154-.373c.07-.195.151-.43.243-.706l.292-.867c.103-.303.2-.592.292-.868a30.759 30.759 0 0 1 .38-1.078c.055-.14.12-.316.195-.527.076-.21.162-.427.26-.648a3.83 3.83 0 0 1 .332-.609c.124-.183.262-.316.414-.397a.625.625 0 0 1 .494-.04c.178.054.381.216.608.486.065.076.106.17.122.284.016.113-.006.28-.065.503-.06.221-.157.51-.292.867-.135.357-.322.824-.56 1.403-.237.578-.529 1.28-.875 2.107-.346.827-.751 1.814-1.216 2.96zm10.701-1.054a2.72 2.72 0 0 1-.778.916 3.45 3.45 0 0 1-1.07.543 4.169 4.169 0 0 1-2.465-.032 4.45 4.45 0 0 1-1.126-.552 3.322 3.322 0 0 1-.884-.875 6.823 6.823 0 0 1-.795-2.19c-.14-.778-.135-1.513.017-2.204.15-.692.459-1.298.924-1.817.465-.518 1.113-.864 1.946-1.037.789-.054 1.413.04 1.872.284.46.243.773.572.94.989.168.416.2.878.098 1.386a3.965 3.965 0 0 1-.657 1.484 5.024 5.024 0 0 1-1.33 1.28 5.11 5.11 0 0 1-1.913.77c.217.357.463.614.738.77.276.158.565.252.868.285.302.032.602.013.9-.057a5.71 5.71 0 0 0 .827-.26c.254-.102.478-.2.672-.291a6.39 6.39 0 0 1 .422-.187c.39-.119.654-.119.794 0 .141.119.141.384 0 .795zm-4.296-5.789a3.61 3.61 0 0 0-1.152 1.46 3.281 3.281 0 0 0-.235.875c-.037.303-.03.6.025.892a3.26 3.26 0 0 0 1.224-.422c.362-.216.665-.462.908-.738.243-.275.419-.559.527-.85.108-.293.138-.547.089-.763-.049-.216-.186-.373-.413-.47-.227-.097-.552-.092-.973.016zm7.215 6.907a.863.863 0 0 1-.397.414c-.19.103-.387.154-.592.154-.205 0-.397-.06-.576-.178-.178-.12-.3-.32-.364-.6-.022-.108-.025-.333-.009-.673.017-.34.02-.822.009-1.443a58.274 58.274 0 0 0-.098-2.319 57.943 57.943 0 0 0-.308-3.316c.227-.205.446-.28.657-.227.21.054.403.173.576.357.172.184.313.408.421.673.108.265.168.51.178.738.054-.206.17-.42.349-.641.178-.222.397-.424.657-.608s.548-.34.867-.47c.32-.13.649-.211.99-.243.34-.033.68 0 1.02.097.341.097.657.28.95.551.01.097-.006.2-.05.308a1.269 1.269 0 0 1-.438.56.796.796 0 0 1-.291.137c-.627-.13-1.16-.121-1.597.025a2.341 2.341 0 0 0-1.078.721 3.33 3.33 0 0 0-.633 1.224c-.14.482-.238.992-.292 1.533-.054.54-.073 1.091-.056 1.654.016.562.051 1.086.105 1.572zm5.416.26a.977.977 0 0 1-.406-.211.898.898 0 0 1-.275-.381.644.644 0 0 1 .024-.478c.07-.173.235-.34.495-.503.14.13.372.24.697.332.324.092.678.154 1.062.187.384.032.765.035 1.143.008.378-.027.694-.09.948-.186.254-.098.414-.23.479-.398.065-.167-.027-.375-.276-.624a42.415 42.415 0 0 0-1.889-1.208c-.535-.319-.989-.632-1.362-.94a3.939 3.939 0 0 1-.892-1.022c-.221-.373-.38-.851-.478-1.435-.032-.475.081-.867.34-1.175.26-.308.595-.54 1.006-.698.41-.156.87-.24 1.378-.25a5.439 5.439 0 0 1 1.484.17c.48.124.916.31 1.305.559.39.248.67.551.843.908a.82.82 0 0 1-.024.446.933.933 0 0 1-.22.348.916.916 0 0 1-.364.22c-.146.048-.3.061-.462.04-.335-.422-.7-.727-1.095-.916-.394-.19-.767-.29-1.118-.3-.352-.011-.646.062-.884.218a.77.77 0 0 0-.373.64c-.01.271.122.59.397.958.276.367.754.762 1.435 1.183.973.584 1.695 1.127 2.165 1.63.47.502.735.951.794 1.346.06.394-.056.732-.348 1.013-.292.281-.708.492-1.249.632-.54.14-1.18.206-1.921.195-.74-.01-1.527-.114-2.36-.308zm13.539-1.378a2.72 2.72 0 0 1-.779.916 3.45 3.45 0 0 1-1.07.543 4.169 4.169 0 0 1-2.465-.032 4.45 4.45 0 0 1-1.126-.552 3.322 3.322 0 0 1-.884-.875 6.823 6.823 0 0 1-.794-2.19c-.141-.778-.136-1.513.016-2.204.151-.692.46-1.298.924-1.817.465-.518 1.113-.864 1.946-1.037.789-.054 1.413.04 1.872.284.46.243.773.572.94.989.168.416.2.878.098 1.386a3.965 3.965 0 0 1-.656 1.484 5.024 5.024 0 0 1-1.33 1.28 5.11 5.11 0 0 1-1.913.77c.216.357.462.614.737.77.276.158.565.252.868.285.303.032.603.013.9-.057a5.71 5.71 0 0 0 .827-.26c.254-.102.478-.2.673-.291a6.39 6.39 0 0 1 .421-.187c.39-.119.654-.119.795 0 .14.119.14.384 0 .795zm-4.297-5.789a3.61 3.61 0 0 0-1.151 1.46 3.281 3.281 0 0 0-.235.875c-.038.303-.03.6.024.892a3.26 3.26 0 0 0 1.224-.422c.362-.216.665-.462.908-.738.243-.275.419-.559.527-.85.108-.293.138-.547.09-.763-.05-.216-.187-.373-.414-.47-.227-.097-.552-.092-.973.016zM453.857 55.51c-.324-.227-.484-.462-.478-.705.005-.244.197-.425.575-.544l5.643-.032a.487.487 0 0 1 .308.292.64.64 0 0 1 .008.438.99.99 0 0 1-.284.421c-.14.13-.33.206-.567.227l-5.205-.097zm21.727 2.173c-.28.66-.64 1.15-1.078 1.475a2.912 2.912 0 0 1-1.403.576 3.208 3.208 0 0 1-1.5-.187 4.336 4.336 0 0 1-1.362-.802 4.406 4.406 0 0 1-1.005-1.273 3.694 3.694 0 0 1-.43-1.621 8.91 8.91 0 0 1-.056-1.16c.005-.405.046-.8.121-1.183.076-.384.198-.752.365-1.103.168-.351.397-.662.69-.932a2.6 2.6 0 0 1 1.159-.56 3.208 3.208 0 0 1 1.2-.016c.383.07.732.192 1.045.365.314.173.54.365.681.575.14.211.173.42.098.625-.076.205-.303.373-.681.502-.563-.324-1.049-.491-1.46-.502-.41-.011-.746.083-1.005.283-.26.2-.451.481-.576.844-.124.362-.189.754-.194 1.175-.006.422.048.846.162 1.273.113.427.276.81.486 1.151.211.34.47.608.779.803a1.51 1.51 0 0 0 1.03.219c.378-.049.794-.24 1.248-.576.454-.335.935-.87 1.443-1.605.119-.065.219-.054.3.032a.71.71 0 0 1 .162.381 2.164 2.164 0 0 1-.219 1.24zm2.335 1.913a2.67 2.67 0 0 1-1.127-.997 3.76 3.76 0 0 1-.519-1.41 5.325 5.325 0 0 1 0-1.606 7.932 7.932 0 0 1 .414-1.621 7.253 7.253 0 0 1 .713-1.435c.281-.433.584-.784.908-1.054.595-.454 1.146-.725 1.654-.811.508-.087.962-.038 1.362.146.4.184.749.475 1.046.875.297.4.53.857.697 1.37.168.514.268 1.065.3 1.654a6.801 6.801 0 0 1-.122 1.727 5.577 5.577 0 0 1-.567 1.573 3.529 3.529 0 0 1-1.054 1.2c-.438.313-.962.513-1.573.6-.61.086-1.321.016-2.132-.211zm1.248-1.346a1.82 1.82 0 0 0 1.225-.3c.362-.243.662-.562.9-.956.237-.395.41-.84.518-1.338a4.05 4.05 0 0 0 .065-1.435 3.098 3.098 0 0 0-.454-1.249 1.897 1.897 0 0 0-1.021-.786c-.27-.054-.554.032-.851.26a3.474 3.474 0 0 0-.811.916 5.724 5.724 0 0 0-.6 1.297 4.586 4.586 0 0 0-.235 1.427c0 .47.097.9.292 1.289.194.389.518.68.972.875zm7.362.795c.075.27.065.478-.033.624a.611.611 0 0 1-.421.268 1.273 1.273 0 0 1-.608-.057 1.4 1.4 0 0 1-.576-.349l-.551-10.993c-.076-.195-.079-.365-.008-.51a.784.784 0 0 1 .308-.341 1.16 1.16 0 0 1 .454-.154.84.84 0 0 1 .454.056c.135.06.238.157.308.292.07.135.073.316.008.543l.665 10.62zm3.518.794a2.684 2.684 0 0 1-1.167-.786 4.482 4.482 0 0 1-.762-1.265 8.05 8.05 0 0 1-.446-1.548 14.414 14.414 0 0 1-.21-1.654 19.983 19.983 0 0 1-.05-1.581c.006-.503.02-.943.041-1.322.022-.205.1-.356.235-.454a.828.828 0 0 1 .47-.154c.179-.005.354.03.527.106a.988.988 0 0 1 .406.308c.075.108.127.335.154.68.027.347.048.75.065 1.209.016.46.037.94.064 1.443a11 11 0 0 0 .163 1.41c.08.438.197.814.348 1.127.152.314.368.498.649.552.432-.011.775-.135 1.03-.373.253-.238.437-.549.55-.933a4.57 4.57 0 0 0 .17-1.297c0-.48-.032-.97-.096-1.467a16.702 16.702 0 0 0-.252-1.443c-.102-.465-.197-.87-.283-1.216-.055-.26-.014-.427.121-.503.135-.076.306-.094.51-.057.206.038.417.111.633.22.216.107.373.22.47.34a7.22 7.22 0 0 1 .536 1.67c.13.638.189 1.292.178 1.962a9.226 9.226 0 0 1-.243 1.97 5.06 5.06 0 0 1-.714 1.686 3.273 3.273 0 0 1-1.256 1.11c-.514.26-1.127.347-1.84.26zm7.232-.583c-.054.248-.178.427-.373.535a1.265 1.265 0 0 1-.624.162c-.222 0-.433-.054-.633-.162a.794.794 0 0 1-.397-.454 64.986 64.986 0 0 1-.04-1.946 98.433 98.433 0 0 0-.04-2.181c-.023-.73-.063-1.43-.123-2.1-.059-.67-.148-1.232-.267-1.686-.022-.238.016-.44.113-.608a.788.788 0 0 1 .381-.349.69.69 0 0 1 .52.008c.188.07.359.22.51.446l.21 1.557c.358-.584.763-.984 1.217-1.2.454-.216.884-.27 1.289-.162.405.108.76.367 1.062.778.303.411.486.951.551 1.622.022-.184.125-.411.308-.681.184-.27.42-.544.706-.82a5.96 5.96 0 0 1 .956-.745 3.742 3.742 0 0 1 1.062-.47 1.987 1.987 0 0 1 1.038 0c.335.092.627.316.876.673.13.205.24.491.332.859.092.368.168.776.227 1.224.06.449.114.919.162 1.41.049.493.095.966.138 1.42.043.454.092.875.146 1.264.054.39.124.703.21.94.033.325-.018.603-.153.836-.135.232-.3.389-.495.47a.728.728 0 0 1-.6-.016c-.205-.092-.367-.295-.486-.608.043-1.643-.02-2.962-.187-3.957-.167-.994-.386-1.702-.656-2.124-.27-.421-.57-.58-.9-.478-.33.103-.633.43-.908.981-.276.551-.506 1.3-.69 2.246-.183.946-.264 2.05-.243 3.316-.075.216-.18.372-.316.47a.746.746 0 0 1-.446.146 1.07 1.07 0 0 1-.502-.138 1.641 1.641 0 0 1-.47-.381c.032-1.135-.02-2.143-.155-3.024-.135-.881-.31-1.581-.526-2.1-.217-.519-.45-.84-.698-.965-.248-.124-.47 0-.664.373-.195.373-.338 1.016-.43 1.93-.092.913-.09 2.143.008 3.689zm12.145-.179c0 .335-.09.56-.268.673a.79.79 0 0 1-.584.114 1.229 1.229 0 0 1-.583-.284.798.798 0 0 1-.3-.535c.021-1.103.024-2.278.008-3.527a149.45 149.45 0 0 0-.106-3.932c.087-.292.235-.475.446-.551a.661.661 0 0 1 .608.073c.195.124.343.346.446.665.103.318.09.727-.04 1.224.691-1.016 1.34-1.681 1.945-1.995.606-.313 1.162-.378 1.67-.194s.954.56 1.338 1.127c.384.567.7 1.224.949 1.97.248.746.418 1.527.51 2.343.092.816.095 1.564.008 2.245.011.281-.073.492-.25.633a1.06 1.06 0 0 1-.585.235.87.87 0 0 1-.575-.154c-.173-.119-.249-.303-.227-.551.075-1.362.046-2.465-.09-3.308-.134-.843-.33-1.473-.583-1.89-.254-.415-.549-.645-.884-.688-.335-.043-.673.046-1.013.267-.34.222-.665.554-.973.997a6.02 6.02 0 0 0-.746 1.492 6.865 6.865 0 0 0-.349 1.76 4.537 4.537 0 0 0 .228 1.791zm-55.567 18.966c-.324-.227-.484-.462-.478-.705.005-.243.197-.424.575-.543l5.643-.033a.487.487 0 0 1 .308.292.64.64 0 0 1 .008.438.99.99 0 0 1-.284.422c-.14.13-.33.205-.567.227l-5.205-.098zm21.727 2.173c-.28.66-.64 1.151-1.078 1.476a2.912 2.912 0 0 1-1.403.575 3.208 3.208 0 0 1-1.5-.186 4.336 4.336 0 0 1-1.362-.803 4.406 4.406 0 0 1-1.005-1.273 3.694 3.694 0 0 1-.43-1.621 8.91 8.91 0 0 1-.056-1.16c.005-.405.046-.8.121-1.183.076-.384.198-.751.365-1.103.168-.351.397-.662.69-.932a2.6 2.6 0 0 1 1.159-.56 3.208 3.208 0 0 1 1.2-.016c.383.07.732.192 1.045.365.314.173.54.365.681.576.14.21.173.419.098.624-.076.205-.303.373-.681.503-.563-.325-1.049-.492-1.46-.503-.41-.01-.746.084-1.005.284-.26.2-.451.48-.576.843-.124.362-.189.754-.194 1.175-.006.422.048.846.162 1.273.113.427.276.811.486 1.152.211.34.47.608.779.802a1.51 1.51 0 0 0 1.03.219c.378-.049.794-.24 1.248-.576.454-.335.935-.87 1.443-1.605.119-.065.219-.054.3.033a.71.71 0 0 1 .162.38 2.164 2.164 0 0 1-.219 1.24zm2.335 1.913a2.67 2.67 0 0 1-1.127-.997 3.76 3.76 0 0 1-.519-1.41 5.325 5.325 0 0 1 0-1.606 7.932 7.932 0 0 1 .414-1.621 7.253 7.253 0 0 1 .713-1.435c.281-.432.584-.784.908-1.054.595-.454 1.146-.724 1.654-.81.508-.087.962-.039 1.362.145.4.184.749.476 1.046.876.297.4.53.856.697 1.37.168.513.268 1.065.3 1.654a6.801 6.801 0 0 1-.122 1.727 5.577 5.577 0 0 1-.567 1.572 3.529 3.529 0 0 1-1.054 1.2c-.438.314-.962.514-1.573.6-.61.087-1.321.016-2.132-.21zm1.248-1.345a1.82 1.82 0 0 0 1.225-.3c.362-.244.662-.562.9-.957.237-.395.41-.84.518-1.338a4.05 4.05 0 0 0 .065-1.435 3.098 3.098 0 0 0-.454-1.248 1.897 1.897 0 0 0-1.021-.787c-.27-.054-.554.033-.851.26a3.474 3.474 0 0 0-.811.916 5.724 5.724 0 0 0-.6 1.297 4.586 4.586 0 0 0-.235 1.427c0 .47.097.9.292 1.289.194.39.518.681.972.876zm7.362.794c.075.27.065.478-.033.624a.611.611 0 0 1-.421.268 1.273 1.273 0 0 1-.608-.057 1.4 1.4 0 0 1-.576-.348l-.551-10.994c-.076-.194-.079-.365-.008-.51a.784.784 0 0 1 .308-.341 1.16 1.16 0 0 1 .454-.154.84.84 0 0 1 .454.057c.135.06.238.156.308.291.07.136.073.317.008.544l.665 10.62zm3.518.795a2.684 2.684 0 0 1-1.167-.787 4.482 4.482 0 0 1-.762-1.265 8.05 8.05 0 0 1-.446-1.548 14.414 14.414 0 0 1-.21-1.654 19.983 19.983 0 0 1-.05-1.58c.006-.503.02-.944.041-1.322.022-.206.1-.357.235-.454a.828.828 0 0 1 .47-.154c.179-.006.354.03.527.105a.988.988 0 0 1 .406.308c.075.108.127.335.154.681.027.346.048.749.065 1.208.016.46.037.94.064 1.443a11 11 0 0 0 .163 1.41c.08.439.197.814.348 1.128.152.313.368.497.649.551.432-.01.775-.135 1.03-.373.253-.238.437-.548.55-.932a4.57 4.57 0 0 0 .17-1.297c0-.481-.032-.97-.096-1.468a16.702 16.702 0 0 0-.252-1.443c-.102-.465-.197-.87-.283-1.216-.055-.26-.014-.427.121-.503.135-.075.306-.094.51-.056.206.038.417.11.633.219.216.108.373.221.47.34a7.22 7.22 0 0 1 .536 1.67c.13.638.189 1.292.178 1.962a9.226 9.226 0 0 1-.243 1.97 5.06 5.06 0 0 1-.714 1.686 3.273 3.273 0 0 1-1.256 1.111c-.514.26-1.127.346-1.84.26zm7.232-.584c-.054.248-.178.427-.373.535a1.265 1.265 0 0 1-.624.162c-.222 0-.433-.054-.633-.162a.794.794 0 0 1-.397-.454 64.986 64.986 0 0 1-.04-1.946 98.433 98.433 0 0 0-.04-2.18c-.023-.73-.063-1.43-.123-2.1-.059-.67-.148-1.233-.267-1.687-.022-.237.016-.44.113-.608a.788.788 0 0 1 .381-.348.69.69 0 0 1 .52.008c.188.07.359.219.51.446l.21 1.556c.358-.583.763-.983 1.217-1.2.454-.216.884-.27 1.289-.162.405.108.76.368 1.062.779.303.41.486.95.551 1.621.022-.184.125-.41.308-.681.184-.27.42-.543.706-.819a5.96 5.96 0 0 1 .956-.746 3.742 3.742 0 0 1 1.062-.47 1.987 1.987 0 0 1 1.038 0c.335.092.627.316.876.673.13.205.24.492.332.86.092.367.168.775.227 1.224.06.448.114.918.162 1.41.049.492.095.965.138 1.419.043.454.092.875.146 1.265.054.389.124.702.21.94.033.324-.018.603-.153.835-.135.233-.3.39-.495.47a.728.728 0 0 1-.6-.016c-.205-.092-.367-.294-.486-.608.043-1.643-.02-2.962-.187-3.956-.167-.995-.386-1.703-.656-2.124-.27-.422-.57-.581-.9-.479-.33.103-.633.43-.908.981-.276.552-.506 1.3-.69 2.246-.183.946-.264 2.051-.243 3.316-.075.216-.18.373-.316.47a.746.746 0 0 1-.446.146 1.07 1.07 0 0 1-.502-.138 1.641 1.641 0 0 1-.47-.38c.032-1.136-.02-2.144-.155-3.025-.135-.88-.31-1.58-.526-2.1-.217-.518-.45-.84-.698-.964-.248-.125-.47 0-.664.373-.195.373-.338 1.016-.43 1.93-.092.913-.09 2.142.008 3.688zm12.145-.178c0 .335-.09.559-.268.672a.79.79 0 0 1-.584.114 1.229 1.229 0 0 1-.583-.284.798.798 0 0 1-.3-.535c.021-1.103.024-2.278.008-3.527a149.45 149.45 0 0 0-.106-3.932c.087-.291.235-.475.446-.55a.661.661 0 0 1 .608.072c.195.124.343.346.446.665.103.319.09.727-.04 1.224.691-1.016 1.34-1.68 1.945-1.994.606-.314 1.162-.379 1.67-.195s.954.56 1.338 1.127c.384.568.7 1.224.949 1.97.248.746.418 1.527.51 2.343.092.816.095 1.565.008 2.246.011.28-.073.492-.25.632a1.06 1.06 0 0 1-.585.235.87.87 0 0 1-.575-.154c-.173-.119-.249-.302-.227-.551.075-1.362.046-2.465-.09-3.308-.134-.843-.33-1.473-.583-1.889-.254-.416-.549-.646-.884-.689-.335-.043-.673.046-1.013.268-.34.221-.665.554-.973.997a6.02 6.02 0 0 0-.746 1.492 6.865 6.865 0 0 0-.349 1.759 4.537 4.537 0 0 0 .228 1.792zm7.393-3.568c-.324-.227-.483-.462-.478-.705.005-.243.197-.424.576-.543l5.642-.033a.487.487 0 0 1 .308.292.64.64 0 0 1 .008.438.99.99 0 0 1-.283.422c-.141.13-.33.205-.568.227l-5.205-.098zm8.82 3.762a.863.863 0 0 1-.396.414c-.19.102-.387.154-.592.154-.206 0-.397-.06-.576-.179-.178-.119-.3-.319-.365-.6-.021-.108-.024-.332-.008-.673.016-.34.02-.821.008-1.443a58.274 58.274 0 0 0-.097-2.318 57.942 57.942 0 0 0-.308-3.316c.227-.206.446-.281.657-.227.21.054.402.173.575.357.173.183.314.408.422.672.108.265.167.511.178.738.054-.205.17-.419.349-.64.178-.222.397-.425.657-.608.259-.184.548-.34.867-.47.319-.13.649-.211.99-.244.34-.032.68 0 1.02.098.341.097.657.28.95.55.01.098-.006.2-.05.309a1.269 1.269 0 0 1-.438.56.796.796 0 0 1-.291.137c-.627-.13-1.16-.121-1.597.024a2.341 2.341 0 0 0-1.079.722 3.33 3.33 0 0 0-.632 1.224c-.14.481-.238.992-.292 1.532-.054.54-.073 1.092-.057 1.654.017.562.052 1.087.106 1.573zm11.918-1.119a2.72 2.72 0 0 1-.778.916 3.45 3.45 0 0 1-1.07.544 4.169 4.169 0 0 1-2.465-.032 4.45 4.45 0 0 1-1.126-.552 3.322 3.322 0 0 1-.884-.876 6.823 6.823 0 0 1-.795-2.189c-.14-.778-.135-1.513.017-2.205.15-.692.459-1.297.924-1.816.465-.519 1.113-.865 1.945-1.038.79-.054 1.414.041 1.873.284.46.243.773.573.94.99.168.415.2.878.098 1.386a3.965 3.965 0 0 1-.657 1.483 5.024 5.024 0 0 1-1.33 1.281 5.11 5.11 0 0 1-1.913.77c.217.357.463.614.738.77.276.157.565.252.868.284.302.033.602.014.9-.056a5.71 5.71 0 0 0 .826-.26c.254-.103.479-.2.673-.292a6.39 6.39 0 0 1 .422-.186c.39-.12.654-.12.794 0 .141.119.141.384 0 .794zm-4.296-5.788a3.61 3.61 0 0 0-1.152 1.46 3.28 3.28 0 0 0-.235.875c-.038.302-.03.6.025.891a3.26 3.26 0 0 0 1.224-.421c.362-.216.665-.462.908-.738.243-.276.419-.56.527-.851.108-.292.138-.546.089-.762-.049-.216-.187-.373-.414-.47-.227-.098-.55-.092-.972.016zm10.62 6.842c-.184.335-.408.546-.673.633-.265.086-.554.005-.867-.244a30.569 30.569 0 0 1-1.094-1.727 86.703 86.703 0 0 1-1.322-2.318c-.53-.957-1.157-2.143-1.881-3.56a.766.766 0 0 1-.13-.559.891.891 0 0 1 .235-.478.97.97 0 0 1 1.046-.227c.108.043.238.176.39.397.15.222.315.495.494.82.178.323.367.683.567 1.077.2.395.4.787.6 1.176.2.39.395.762.584 1.119.19.356.365.656.527.9.162.243.308.416.438.519.13.102.232.094.308-.025a2.7 2.7 0 0 0 .154-.373c.07-.194.151-.43.243-.705l.292-.868c.103-.302.2-.591.292-.867a30.754 30.754 0 0 1 .38-1.078c.055-.14.12-.316.195-.527.076-.211.162-.427.26-.649a3.83 3.83 0 0 1 .332-.608c.124-.184.262-.316.414-.397a.625.625 0 0 1 .494-.04c.179.053.381.216.608.486.065.075.106.17.122.284.016.113-.006.28-.065.502-.06.222-.157.511-.292.868-.135.356-.321.824-.56 1.402-.237.579-.529 1.281-.875 2.108-.346.827-.751 1.813-1.216 2.96zm10.702-1.054a2.72 2.72 0 0 1-.779.916 3.45 3.45 0 0 1-1.07.544 4.169 4.169 0 0 1-2.465-.032 4.45 4.45 0 0 1-1.126-.552 3.322 3.322 0 0 1-.884-.876 6.823 6.823 0 0 1-.795-2.189c-.14-.778-.135-1.513.017-2.205.151-.692.459-1.297.924-1.816.465-.519 1.113-.865 1.946-1.038.789-.054 1.413.041 1.872.284.46.243.773.573.94.99.168.415.2.878.098 1.386a3.965 3.965 0 0 1-.657 1.483 5.024 5.024 0 0 1-1.33 1.281 5.11 5.11 0 0 1-1.913.77c.217.357.463.614.738.77.276.157.565.252.868.284.302.033.602.014.9-.056a5.71 5.71 0 0 0 .827-.26c.254-.103.478-.2.672-.292a6.39 6.39 0 0 1 .422-.186c.39-.12.654-.12.795 0 .14.119.14.384 0 .794zm-4.297-5.788a3.61 3.61 0 0 0-1.152 1.46 3.281 3.281 0 0 0-.235.875c-.037.302-.03.6.025.891a3.26 3.26 0 0 0 1.224-.421c.362-.216.665-.462.908-.738.243-.276.419-.56.527-.851.108-.292.138-.546.089-.762-.049-.216-.186-.373-.413-.47-.227-.098-.552-.092-.973.016zm7.215 6.907a.863.863 0 0 1-.397.414c-.19.102-.387.154-.592.154-.205 0-.397-.06-.576-.179-.178-.119-.3-.319-.364-.6-.022-.108-.025-.332-.009-.673.017-.34.02-.821.009-1.443a58.274 58.274 0 0 0-.098-2.318 57.942 57.942 0 0 0-.308-3.316c.227-.206.446-.281.657-.227.21.054.403.173.576.357.172.183.313.408.421.672.108.265.168.511.178.738.055-.205.17-.419.35-.64.177-.222.396-.425.656-.608.26-.184.548-.34.867-.47.32-.13.649-.211.99-.244.34-.032.68 0 1.02.098.341.097.657.28.95.55.01.098-.006.2-.05.309a1.269 1.269 0 0 1-.438.56.796.796 0 0 1-.29.137c-.628-.13-1.16-.121-1.598.024a2.341 2.341 0 0 0-1.078.722 3.33 3.33 0 0 0-.633 1.224c-.14.481-.237.992-.292 1.532-.054.54-.072 1.092-.056 1.654.016.562.051 1.087.105 1.573zm5.416.26a.977.977 0 0 1-.406-.211.898.898 0 0 1-.275-.381.644.644 0 0 1 .024-.479c.07-.173.235-.34.495-.502.14.13.373.24.697.332.324.092.678.154 1.062.187.384.032.765.035 1.143.008.378-.027.694-.09.948-.187.255-.097.414-.23.479-.397.065-.168-.027-.376-.276-.624a42.415 42.415 0 0 0-1.889-1.208c-.535-.32-.989-.633-1.362-.94a3.939 3.939 0 0 1-.892-1.022c-.221-.373-.38-.851-.478-1.435-.032-.476.081-.868.34-1.176.26-.308.595-.54 1.006-.697.41-.157.87-.24 1.378-.251a5.439 5.439 0 0 1 1.484.17c.48.124.916.31 1.305.56.39.248.67.55.843.907a.82.82 0 0 1-.024.446.933.933 0 0 1-.22.349.916.916 0 0 1-.364.219c-.146.048-.3.062-.462.04-.335-.421-.7-.727-1.095-.916-.394-.189-.767-.289-1.118-.3-.352-.01-.646.062-.884.22a.77.77 0 0 0-.373.64c-.01.27.122.589.397.956.276.368.754.762 1.435 1.184.973.584 1.695 1.127 2.165 1.63.47.502.735.95.794 1.345.06.395-.056.733-.348 1.014-.292.28-.708.491-1.249.632-.54.14-1.18.205-1.921.195-.74-.011-1.527-.114-2.36-.308zm13.539-1.379a2.72 2.72 0 0 1-.779.916 3.45 3.45 0 0 1-1.07.544 4.169 4.169 0 0 1-2.465-.032 4.45 4.45 0 0 1-1.126-.552 3.322 3.322 0 0 1-.884-.876 6.823 6.823 0 0 1-.794-2.189c-.14-.778-.136-1.513.016-2.205.151-.692.46-1.297.924-1.816.465-.519 1.113-.865 1.946-1.038.789-.054 1.413.041 1.873.284.459.243.772.573.94.99.168.415.2.878.097 1.386a3.965 3.965 0 0 1-.656 1.483 5.024 5.024 0 0 1-1.33 1.281 5.11 5.11 0 0 1-1.913.77c.216.357.462.614.737.77.276.157.565.252.868.284.303.033.603.014.9-.056a5.71 5.71 0 0 0 .827-.26c.254-.103.478-.2.673-.292a6.39 6.39 0 0 1 .421-.186c.39-.12.654-.12.795 0 .14.119.14.384 0 .794zm-4.297-5.788a3.61 3.61 0 0 0-1.151 1.46 3.281 3.281 0 0 0-.235.875c-.038.302-.03.6.024.891a3.26 3.26 0 0 0 1.224-.421c.362-.216.665-.462.908-.738.243-.276.419-.56.527-.851.108-.292.138-.546.09-.762-.05-.216-.187-.373-.414-.47-.227-.098-.552-.092-.973.016zM511.41 176.063h-12.647c-4.46 0-8.74.292-12.842.878-.39-.325-.814-.65-1.27-.976-.455-.326-.78-.781-.976-1.367-.196-.586-.196-1.351 0-2.295.195-.944.716-2.263 1.562-3.955.586-.196 1.53-1.254 2.832-3.174 1.302-1.92 2.784-4.232 4.444-6.934a520.14 520.14 0 0 1 5.468-8.691c1.986-3.093 4.004-5.925 6.055-8.496 2.05-2.572 4.053-4.639 6.006-6.201 1.953-1.563 3.743-2.214 5.371-1.954.781.196 1.416.782 1.904 1.758.489.977.88 2.718 1.172 5.225.293 2.506.489 5.973.586 10.4.098 4.427.114 10.189.049 17.285l5.86-.39c.65 2.734.992 4.687 1.025 5.86.032 1.171-.244 1.92-.83 2.245-.586.326-1.465.472-2.637.44-1.172-.033-2.572.081-4.2.341l.782 26.954c.195.52-.016 1.106-.635 1.757-.618.651-1.383 1.14-2.295 1.465a4.289 4.289 0 0 1-2.783.05c-.944-.294-1.611-1.124-2.002-2.491v-27.734zm-1.075-31.934c-1.172 1.107-2.49 2.767-3.955 4.98a186.897 186.897 0 0 0-4.395 6.983 1919.015 1919.015 0 0 0-4.199 7.031c-1.335 2.246-2.49 3.988-3.467 5.225a54.86 54.86 0 0 0 3.565.097 106.97 106.97 0 0 0 8.984-.39c1.465-.13 2.718-.293 3.76-.489l-.293-23.437zM161.986 151.336c-.065 4.232-.31 7.422-.733 9.57-.423 2.149-.976 3.565-1.66 4.248-.683.684-1.448.765-2.295.244-.846-.52-1.774-1.35-2.783-2.49-1.009-1.14-2.034-2.457-3.076-3.955a84.611 84.611 0 0 0-3.027-4.101c-1.107.195-2.328.439-3.662.732a24.022 24.022 0 0 1-3.956.537 13.067 13.067 0 0 1-3.76-.342c-1.204-.293-2.23-.993-3.075-2.1-.912-1.106-1.026-2.131-.342-3.075.683-.945 1.611-1.856 2.783-2.735a69.808 69.808 0 0 0 3.418-2.734c1.107-.944 1.66-1.97 1.66-3.076-1.823-1.954-3.044-3.597-3.662-4.932-.619-1.335-.798-2.36-.537-3.076.26-.716.862-1.188 1.806-1.416.944-.228 2.051-.244 3.32-.05 1.27.196 2.589.554 3.956 1.075 1.367.521 2.604 1.14 3.71 1.856.847.586 1.677.472 2.491-.342.814-.814 1.644-1.823 2.49-3.028a27.487 27.487 0 0 1 2.735-3.32c.976-1.009 2.083-1.416 3.32-1.22.39.065.83.211 1.318.439.489.228.847.732 1.075 1.514.227.78.26 1.969.097 3.564s-.7 3.825-1.611 6.69c1.172.195 2.555.585 4.15 1.171 1.595.586 2.946 1.335 4.053 2.246 1.107.912 1.742 1.954 1.904 3.125.163 1.172-.57 2.442-2.197 3.81-.195.194-.781.439-1.758.731-.976.293-3.027.44-6.152.44zM396.735 151.336c-.065 4.232-.31 7.422-.733 9.57-.423 2.149-.976 3.565-1.66 4.248-.683.684-1.448.765-2.295.244-.846-.52-1.774-1.35-2.783-2.49-1.009-1.14-2.034-2.457-3.076-3.955a84.61 84.61 0 0 0-3.027-4.101c-1.107.195-2.328.439-3.663.732a24.022 24.022 0 0 1-3.955.537 13.067 13.067 0 0 1-3.76-.342c-1.204-.293-2.23-.993-3.076-2.1-.911-1.106-1.025-2.131-.341-3.075.683-.945 1.611-1.856 2.783-2.735a69.808 69.808 0 0 0 3.418-2.734c1.107-.944 1.66-1.97 1.66-3.076-1.823-1.954-3.044-3.597-3.662-4.932-.619-1.335-.798-2.36-.537-3.076.26-.716.862-1.188 1.806-1.416.944-.228 2.051-.244 3.32-.05 1.27.196 2.589.554 3.956 1.075 1.367.521 2.604 1.14 3.71 1.856.847.586 1.677.472 2.491-.342.814-.814 1.644-1.823 2.49-3.028a27.487 27.487 0 0 1 2.735-3.32c.976-1.009 2.083-1.416 3.32-1.22.39.065.83.211 1.318.439.489.228.847.732 1.074 1.514.228.78.26 1.969.098 3.564-.163 1.595-.7 3.825-1.611 6.69 1.172.195 2.555.585 4.15 1.171 1.595.586 2.946 1.335 4.053 2.246 1.107.912 1.741 1.954 1.904 3.125.163 1.172-.57 2.442-2.197 3.81-.195.194-.781.439-1.758.731-.976.293-3.027.44-6.152.44zM612.206 180.639c-1.562-.195-2.734-.7-3.515-1.514-.781-.813-1.188-1.692-1.22-2.636-.033-.944.276-1.823.927-2.637.65-.814 1.562-1.318 2.734-1.514 1.628.065 3.5.082 5.615.05 2.116-.034 4.346-.066 6.69-.099l7.129-.097a167.2 167.2 0 0 1 7.031.049c.977-.066 1.758.162 2.344.683.586.521.993 1.172 1.22 1.953.228.782.245 1.628.05 2.54-.196.91-.62 1.757-1.27 2.538l-27.735.684zm-.976-13.477c-1.563-.195-2.735-.7-3.516-1.513-.781-.814-1.188-1.693-1.22-2.637-.033-.944.276-1.823.927-2.637.651-.813 1.563-1.318 2.735-1.513 1.627.065 3.499.081 5.615.048 2.116-.032 4.346-.065 6.69-.097l7.128-.098a167.2 167.2 0 0 1 7.031.049c.977-.065 1.758.163 2.344.684.586.52.993 1.171 1.22 1.953.229.781.245 1.627.05 2.539-.196.911-.619 1.758-1.27 2.539l-27.734.683zM737.762 159.594c5.208-.065 9.407.862 12.597 2.783 3.19 1.92 5.502 4.378 6.934 7.373 1.432 2.995 2.05 6.299 1.855 9.912-.195 3.613-1.074 7.129-2.636 10.547-1.563 3.418-3.711 6.478-6.446 9.18-2.734 2.701-5.957 4.638-9.668 5.81-3.71 1.172-7.796 1.351-12.255.537-4.46-.814-9.196-3.043-14.21-6.69-.26-.715-.178-1.399.245-2.05.423-.651.993-1.237 1.709-1.758.716-.52 1.497-.96 2.343-1.318.847-.358 1.563-.602 2.149-.733 2.539 1.954 5.225 3.158 8.057 3.614 2.832.455 5.517.325 8.056-.39a18.305 18.305 0 0 0 6.885-3.663c2.05-1.725 3.613-3.727 4.687-6.006 1.075-2.279 1.53-4.752 1.368-7.422-.163-2.669-1.189-5.37-3.077-8.105-1.692-1.563-3.548-2.604-5.566-3.125a23.96 23.96 0 0 0-6.006-.781c-1.985 0-3.873.097-5.664.292-1.79.196-3.32.228-4.59.098s-2.213-.57-2.832-1.318c-.618-.749-.732-2.1-.342-4.053 1.563-.846 3.256-2.05 5.079-3.613a44.133 44.133 0 0 0 5.175-5.274 39.498 39.498 0 0 0 4.248-6.2c1.205-2.182 1.97-4.281 2.295-6.3-.586-.065-1.692.017-3.32.244-1.628.228-3.467.44-5.518.635-2.05.196-4.15.342-6.298.44-2.149.097-4.053 0-5.713-.293-1.66-.293-2.914-.83-3.76-1.612-.846-.78-.944-1.953-.293-3.515.326-.847.798-1.465 1.416-1.856a5.595 5.595 0 0 1 2.05-.781 13.37 13.37 0 0 1 2.296-.195c.781 0 1.53-.033 2.246-.098 3.776-.325 7.259-.57 10.449-.732 3.19-.163 5.957-.065 8.3.293 2.345.358 4.167 1.041 5.47 2.05 1.302 1.01 1.936 2.523 1.904 4.541-.033 2.019-.814 4.607-2.344 7.764-1.53 3.158-3.955 7.08-7.275 11.768zm32.324 46.093c-1.367.326-2.458.196-3.272-.39-.813-.586-1.35-1.351-1.61-2.295-.261-.944-.245-1.953.048-3.027.293-1.075.928-1.937 1.904-2.588l20.313-42.188c1.562-3.58 2.278-6.364 2.148-8.35-.13-1.985-.781-3.352-1.953-4.101-1.172-.749-2.685-.944-4.541-.586-1.855.358-3.743 1.107-5.664 2.246a24.181 24.181 0 0 0-5.273 4.248c-1.596 1.693-2.686 3.483-3.272 5.371-.781.326-1.546.375-2.295.147a4.881 4.881 0 0 1-1.953-1.123 4.276 4.276 0 0 1-1.172-1.905c-.228-.748-.146-1.513.244-2.295 1.367-3.906 3.418-7.047 6.153-9.423 2.734-2.377 5.696-4.02 8.886-4.932 3.19-.911 6.315-1.107 9.375-.586 3.06.52 5.534 1.758 7.422 3.711 1.888 1.953 2.962 4.59 3.223 7.91.26 3.32-.814 7.324-3.223 12.012L777.508 196.8c2.67.26 5.355.293 8.056.097 2.702-.195 5.404-.472 8.106-.83a228.69 228.69 0 0 1 8.105-.927c2.702-.26 5.42-.293 8.155-.098.39-.065.813.163 1.27.683.455.521.83 1.189 1.122 2.002.293.814.423 1.677.39 2.588a4.14 4.14 0 0 1-.878 2.442c-.553.716-1.432 1.253-2.637 1.611-1.204.358-2.88.374-5.029.049l-34.082 1.27z"/></g></svg>
