<svg xmlns="http://www.w3.org/2000/svg" viewBox="0 0 391 513"><g fill="none" fill-rule="evenodd"><path fill="#FFF" fill-rule="nonzero" d="M9.242 38.915c0 32.212 1.02 65.911-2.677 97.92-3.874 33.557-1.885 67.46-1.913 101.188-.017 21.27 1.882 42.457 1.344 63.721-.276 10.93-1.903 22.207-1.48 33.11.407 10.543 3.763 20.936 4.241 31.519.55 12.18-.33 24.769-1.49 36.879-2.242 23.391-8.026 52.135.318 74.771 2.35 6.374 8.906 11.053 14.788 14.363 12.017 6.762 28.072 8.072 41.567 8.217 7.488.08 15.046 1.428 22.444 2.808 11.025 2.058 24.053 2.782 35.223 2.802 18.465.033 36.516-.328 54.912 1.407 34.891 3.289 70.187 3.558 104.625-2.437 26.098-4.543 51.985-5.783 77.243-13.904 14.377-4.623 16.904-14.986 19.471-29.337 3.503-19.585-.265-39.738.582-59.296.997-23.021.214-46.029 1.075-68.938.425-11.3 1.03-22.545 1.516-33.842 1.068-24.738-5.25-48.14-4.723-72.776.61-28.422 3.488-56.73 4.838-85.116 1.021-21.455 2.923-44.458-8.57-63.167-8.309-13.525-20.486-25.675-27.753-39.897-3.495-6.839-6.834-16.265-12.724-21.443-9.253-8.134-19.077-7.731-30.584-7.095-13.077.723-27.279-.228-40.23-1.946-17.334-2.298-34.993-4.713-52.462-4.703-18.424.01-36.765-3.127-55.109-1.148-18.73 2.021-38.155 5.991-57.032 3.717-14.885-1.793-28.445-2.291-43.45-1.575-12.769.611-29.12-.92-37.246 11.236-4.387 6.565-4.05 13.007-6.744 22.962z"/><path fill="#000" fill-rule="nonzero" d="M388.025 297.221c-2.094-54.572-.15-109.076 1.255-163.583.278-10.75 2.352-22.304.728-32.971-1.877-12.32-11.142-23.273-18.352-33.012-9.322-12.592-18.419-25.212-27.618-37.888-5.94-8.187-11.128-17.931-20.822-22.101-14.305-6.153-32.999-4.272-48.235-5.056C257.872 1.729 240.98.497 223.822.56 188.33.69 152.693 2.094 117.21 1.652 98.63 1.421 80.224.448 61.62.935c-13.474.353-28.993-1.448-42.242 1.21C8.312 4.366 4.442 12.992 4.091 23.361c-.932 27.58-1.41 54.957-.66 82.554.684 30.591-.318 61.193-1.454 91.777C-.47 263.595.64 330.097 2.29 396.012c.731 29.17-5.783 62.073 4.015 90.3 8.081 23.279 34.805 22.227 55.297 23.04 30.14 1.196 60.527-.149 90.57 1.665a846.1 846.1 0 0 0 95.646.366c31.857-1.68 63.124-2.143 94.827-6.284 24.393-3.185 39.717-10.843 43.328-36.901 7.803-56.305 4.223-114.39 2.052-170.977zm-71.98-276.726c1.382.634 2.75 1.363 4.093 2.324 5.906 4.225 9.351 10.427 13.592 16.253 8.227 11.303 16.08 22.7 24.522 33.866 4.785 6.329 9.876 12.772 13.454 19.798-10.748.324-21.495.639-32.227 1.175-6.684.334-14.687 2.034-20.24-2.871-5.065-4.472-3.149-9.571-2.888-15.967.708-17.397 1.966-36.926-.306-54.578zm57.5 262.228c1.365 51.245 2.768 101.93 1.157 153.156-.362 11.517-.58 24.664-3.452 35.863-4.84 18.885-23.68 18.974-39.75 21.181-27.026 3.713-53.987 3.86-81.155 5.541-54.07 3.346-109.185 2.638-163.299.275-12.792-.559-25.613-.821-38.394-1.596-7.378-.448-15.558-.468-21.995-4.596-9.64-6.181-9.869-15.096-11.033-25.085-3.179-27.285-.102-54.948-.864-82.358-1.836-66.044-2.009-132.511-.22-198.56 1.007-37.165-.656-74.336-.092-111.504.143-9.444.421-18.886.93-28.317.366-6.816-.91-17.492 2.015-23.741 5.14-10.976 20.366-7.729 30.141-7.999 28.751-.794 57.447.723 86.152-.099 54.322-1.556 108.208-.552 162.442 2.383 3.397.184 6.63.281 9.735.614-2.667 7.939-1.234 18.924-1.41 25.993-.369 14.742-4.344 32.86-.96 47.25 2.608 11.1 11.412 14.578 21.954 16.215 15.99 2.482 34.284-.374 50.69-.945.152 1.159.27 2.329.303 3.526.288 10.297-.89 21.025-1.39 31.334-2.283 47.003-2.76 94.392-1.506 141.469z"/><path fill="#000" d="M59.264 115.31c-4.624 1.091-8.528 1.113-11.712.066-3.185-1.047-5.704-2.78-7.557-5.202-1.854-2.42-3.108-5.332-3.763-8.735-.654-3.402-.785-6.913-.392-10.534a41.835 41.835 0 0 1 2.584-10.6c1.33-3.445 3.043-6.411 5.137-8.898 1.875-2.094 3.904-3.337 6.085-3.73 2.18-.392 4.22-.097 6.117.884 1.898.981 3.533 2.552 4.907 4.711 1.374 2.16 2.214 4.744 2.52 7.753.174.393.13.851-.131 1.374a3.222 3.222 0 0 1-1.145 1.276 2.572 2.572 0 0 1-1.636.426c-.589-.044-1.102-.437-1.538-1.178-.785-2.923-1.734-5.038-2.846-6.347-1.112-1.308-2.235-2.06-3.37-2.257-1.134-.196-2.246.033-3.337.687a9.808 9.808 0 0 0-2.748 2.42c-2.311 3.883-3.849 7.601-4.612 11.157-.764 3.555-.927 6.771-.491 9.65.436 2.88 1.374 5.311 2.813 7.296 1.44 1.985 3.185 3.348 5.235 4.09 2.05.74 4.318.752 6.804.032 2.487-.72 4.995-2.345 7.525-4.875.785.524 1.276 1.145 1.472 1.865.196.72.196 1.472 0 2.257-.196.786-.545 1.56-1.047 2.323a12.994 12.994 0 0 1-1.668 2.061 10.08 10.08 0 0 1-1.669 1.374c-.545.35-1.058.567-1.537.655zm8.375-1.635c-.48-.131-.927-.47-1.342-1.014a3.751 3.751 0 0 1-.752-1.8c-.087-.654.087-1.297.523-1.93.437-.632 1.265-1.08 2.487-1.341 6.325 1.788 11.668 2.672 16.03 2.65 4.362-.022 7.655-.59 9.88-1.701 2.224-1.113 3.304-2.585 3.239-4.417-.066-1.832-1.342-3.686-3.828-5.561-.829-.611-1.985-1.178-3.468-1.702a90.204 90.204 0 0 0-4.94-1.57 206.76 206.76 0 0 0-5.758-1.57 81.314 81.314 0 0 1-5.92-1.767c-1.266-.392-2.41-1.069-3.436-2.028a13.19 13.19 0 0 1-2.584-3.37 13.61 13.61 0 0 1-1.44-4.187c-.262-1.505-.25-3.01.033-4.515.283-1.505.872-2.966 1.766-4.384.895-1.417 2.17-2.671 3.828-3.762 1.527-.785 3.217-1.45 5.07-1.996a31.271 31.271 0 0 1 5.726-1.112 27.655 27.655 0 0 1 5.856.033c1.941.218 3.762.687 5.463 1.407a14.647 14.647 0 0 1 4.515 2.977c1.309 1.265 2.312 2.857 3.01 4.776.087.61-.066 1.134-.458 1.57-.393.437-.982.687-1.767.753-.785.065-1.701-.131-2.748-.59-1.047-.457-2.181-1.319-3.402-2.584-1.57-.872-3.435-1.352-5.595-1.439a23.998 23.998 0 0 0-6.28.556c-2.03.458-3.85 1.145-5.464 2.061-1.614.916-2.661 1.985-3.14 3.206-.48 1.222-.23 2.552.752 3.991.981 1.44 3.042 2.88 6.183 4.319 6.412 1.265 11.537 2.78 15.376 4.547 3.838 1.767 6.64 3.62 8.407 5.562 1.767 1.94 2.607 3.904 2.52 5.888-.088 1.985-.862 3.828-2.323 5.53-1.462 1.7-3.49 3.183-6.085 4.448-2.596 1.265-5.507 2.16-8.735 2.683-3.228.523-6.674.61-10.338.262-3.664-.35-7.284-1.309-10.861-2.88zm41.417 0c-.48-.131-.927-.47-1.342-1.014a3.751 3.751 0 0 1-.752-1.8c-.087-.654.087-1.297.523-1.93.437-.632 1.265-1.08 2.487-1.341 6.325 1.788 11.668 2.672 16.03 2.65 4.362-.022 7.655-.59 9.88-1.701 2.224-1.113 3.304-2.585 3.239-4.417-.066-1.832-1.342-3.686-3.828-5.561-.829-.611-1.985-1.178-3.468-1.702a90.204 90.204 0 0 0-4.94-1.57c-1.81-.523-3.73-1.047-5.758-1.57a81.314 81.314 0 0 1-5.92-1.767c-1.266-.392-2.41-1.069-3.436-2.028a13.19 13.19 0 0 1-2.584-3.37 13.61 13.61 0 0 1-1.44-4.187c-.262-1.505-.25-3.01.033-4.515.283-1.505.872-2.966 1.766-4.384.895-1.417 2.17-2.671 3.828-3.762 1.527-.785 3.217-1.45 5.07-1.996a31.271 31.271 0 0 1 5.726-1.112 27.655 27.655 0 0 1 5.856.033c1.941.218 3.762.687 5.463 1.407a14.647 14.647 0 0 1 4.515 2.977c1.309 1.265 2.312 2.857 3.01 4.776.087.61-.066 1.134-.458 1.57-.393.437-.982.687-1.767.753-.785.065-1.701-.131-2.748-.59-1.047-.457-2.181-1.319-3.402-2.584-1.57-.872-3.435-1.352-5.595-1.439a23.998 23.998 0 0 0-6.28.556c-2.03.458-3.85 1.145-5.464 2.061-1.614.916-2.661 1.985-3.14 3.206-.48 1.222-.23 2.552.752 3.991.981 1.44 3.042 2.88 6.183 4.319 6.412 1.265 11.537 2.78 15.376 4.547 3.838 1.767 6.64 3.62 8.407 5.562 1.767 1.94 2.607 3.904 2.52 5.888-.088 1.985-.862 3.828-2.323 5.53-1.462 1.7-3.49 3.183-6.085 4.448-2.596 1.265-5.507 2.16-8.735 2.683-3.228.523-6.674.61-10.338.262-3.664-.35-7.284-1.309-10.861-2.88zm-69.094 82.879c-.48-.916-.829-2.16-1.047-3.73a66.217 66.217 0 0 1-.49-4.972c-.11-1.745-.208-3.457-.295-5.137-.087-1.679-.218-3.086-.393-4.22a3.784 3.784 0 0 1-1.374-1.505 4.6 4.6 0 0 1-.49-1.93 5.344 5.344 0 0 1 .36-2.061 5.76 5.76 0 0 1 1.177-1.897 177.15 177.15 0 0 1-.458-10.796c-.043-3.62-.022-7.263.066-10.927.087-.567.621-1.036 1.603-1.407.981-.37 2.213-.654 3.696-.85a51.718 51.718 0 0 1 4.81-.393 93.57 93.57 0 0 1 4.874-.065c1.527.021 2.846.065 3.958.13 1.113.066 1.8.12 2.062.164.872.174 1.493.523 1.864 1.047.371.523.546 1.112.524 1.766-.022.655-.208 1.298-.556 1.93a3.74 3.74 0 0 1-1.44 1.473c-.785.13-1.897.142-3.337.033-1.44-.11-2.911-.197-4.416-.262a34.045 34.045 0 0 0-4.253.065c-1.33.11-2.258.447-2.781 1.014a42.623 42.623 0 0 0-.065 4.122c.043 1.44.098 2.89.163 4.352.066 1.46.153 2.9.262 4.318.109 1.418.229 2.715.36 3.893.654.044 1.505.01 2.551-.098 1.047-.11 2.138-.218 3.272-.327 1.134-.11 2.235-.131 3.304-.066 1.069.066 1.963.295 2.683.687.72.393 1.177 1.025 1.374 1.898.196.872.01 2.072-.556 3.598L45 177.645c-.087.523-.033 1.428.164 2.715.196 1.287.403 2.726.621 4.318.218 1.592.36 3.217.425 4.875.066 1.657-.076 3.108-.425 4.35-.349 1.244-.97 2.15-1.865 2.716-.894.567-2.213.545-3.958-.065zm31.014-3.206c.305 1.09.261 1.93-.131 2.519-.393.589-.96.948-1.701 1.08-.742.13-1.56.054-2.454-.23a5.651 5.651 0 0 1-2.323-1.406l-2.224-44.362c-.306-.785-.317-1.472-.033-2.06a3.165 3.165 0 0 1 1.243-1.375 4.683 4.683 0 0 1 1.832-.621c.676-.088 1.287-.011 1.832.229.545.24.96.632 1.243 1.177.284.546.295 1.276.033 2.192l2.683 42.857zm32.06-3.599a10.973 10.973 0 0 1-3.14 3.697 13.924 13.924 0 0 1-4.319 2.192c-1.57.48-3.217.709-4.94.687a16.821 16.821 0 0 1-5.005-.818 17.958 17.958 0 0 1-4.548-2.225 13.404 13.404 0 0 1-3.565-3.533 27.531 27.531 0 0 1-3.207-8.833c-.567-3.14-.545-6.107.066-8.898.61-2.792 1.854-5.235 3.73-7.329 1.875-2.093 4.492-3.49 7.851-4.187 3.184-.218 5.703.164 7.557 1.145s3.119 2.312 3.795 3.991c.676 1.68.807 3.544.393 5.594-.415 2.05-1.298 4.046-2.65 5.987-1.353 1.941-3.14 3.664-5.366 5.17-2.224 1.504-4.798 2.54-7.72 3.107.872 1.44 1.865 2.476 2.977 3.108a8.949 8.949 0 0 0 3.5 1.145c1.222.13 2.432.055 3.632-.229 1.2-.284 2.312-.632 3.337-1.047a52.484 52.484 0 0 0 2.715-1.178c.785-.37 1.352-.621 1.701-.752 1.57-.48 2.64-.48 3.206 0 .567.48.567 1.548 0 3.206zm-17.339-23.358a14.57 14.57 0 0 0-2.748 2.682 14.105 14.105 0 0 0-1.897 3.206 13.24 13.24 0 0 0-.949 3.534c-.153 1.22-.12 2.42.098 3.598 1.832-.262 3.479-.829 4.94-1.701 1.461-.872 2.683-1.865 3.664-2.977.982-1.112 1.69-2.257 2.127-3.435.436-1.178.556-2.203.36-3.075-.197-.873-.753-1.505-1.669-1.898-.916-.392-2.225-.37-3.926.066zm21.527 29.574c-.655-.48-1.09-.97-1.309-1.472-.218-.502-.174-1.189.13-2.061.786-.786 1.778-1.93 2.978-3.435a87.96 87.96 0 0 0 3.5-4.711 73.133 73.133 0 0 0 3.076-4.81c.916-1.57 1.483-2.813 1.7-3.729l-8.636-10.272c-.48-.83-.6-1.647-.36-2.454a4.205 4.205 0 0 1 1.309-2.028 5.44 5.44 0 0 1 2.159-1.145 3.08 3.08 0 0 1 2.323.261c.523.262 1.188.895 1.995 1.898.807 1.003 1.647 2.04 2.52 3.108a33.021 33.021 0 0 0 2.518 2.78c.807.786 1.473 1.091 1.996.917.262-.219.676-.687 1.243-1.407a83.9 83.9 0 0 1 1.963-2.388 51.947 51.947 0 0 1 2.388-2.618c.85-.872 1.701-1.559 2.552-2.06.85-.502 1.647-.742 2.388-.72.742.021 1.374.49 1.898 1.406.436 1.09.49 2.16.163 3.206a10.36 10.36 0 0 1-1.537 3.01 21.872 21.872 0 0 1-2.421 2.781 68.143 68.143 0 0 0-2.52 2.584c-.763.83-1.373 1.614-1.831 2.356-.458.741-.578 1.418-.36 2.028a33.493 33.493 0 0 0 2.65 3.337c.981 1.09 1.952 2.181 2.911 3.272a55.046 55.046 0 0 1 2.716 3.337 18.804 18.804 0 0 1 2.126 3.598c.436.916.458 1.767.066 2.552a3.852 3.852 0 0 1-1.767 1.767 4.615 4.615 0 0 1-2.552.458c-.916-.088-1.68-.524-2.29-1.309l-8.898-10.861c-.436.305-.96.948-1.57 1.93-.611.981-1.298 2.06-2.062 3.239a96.487 96.487 0 0 1-2.453 3.598c-.873 1.222-1.789 2.258-2.748 3.108-.96.85-1.941 1.407-2.945 1.669-1.003.261-2.006.021-3.01-.72zm42.136-4.973c.306.829.404 1.636.295 2.421a5.122 5.122 0 0 1-.753 2.094 4.416 4.416 0 0 1-1.472 1.44c-.589.348-1.188.5-1.8.457-.61-.043-1.188-.316-1.733-.818-.545-.501-.97-1.32-1.276-2.453-.087-.306-.163-1.058-.229-2.258-.065-1.2-.12-2.606-.163-4.22-.044-1.614-.088-3.348-.131-5.201-.044-1.854-.088-3.588-.131-5.202-.044-1.614-.087-3.02-.131-4.22-.044-1.2-.11-1.974-.196-2.323-.306-2.137-.328-3.871-.066-5.202.262-1.33.665-2.333 1.21-3.01.546-.676 1.167-1.046 1.865-1.112.698-.065 1.342.12 1.93.556.59.437 1.058 1.102 1.407 1.996.35.894.458 1.952.327 3.173l1.047 23.882zm-4.71-34.808c-.96-.742-1.538-1.56-1.734-2.454-.197-.894-.131-1.69.196-2.388s.85-1.2 1.57-1.505c.72-.305 1.494-.262 2.323.13.96.524 1.548 1.266 1.766 2.225.219.96.175 1.843-.13 2.65-.306.807-.818 1.396-1.538 1.767-.72.37-1.538.229-2.454-.425zm32.714 36.837c-2.573 1.657-5.114 2.748-7.622 3.271-2.508.523-4.766.578-6.772.164-2.007-.415-3.643-1.233-4.907-2.454-1.265-1.221-1.942-2.77-2.029-4.646l-2.29-35.332c-.087-1.483.131-2.835.654-4.056.524-1.222 1.178-2.083 1.963-2.585.785-.501 1.592-.545 2.421-.13.829.414 1.483 1.493 1.963 3.238a37.523 37.523 0 0 1-.262 3.435 49.426 49.426 0 0 0-.294 3.043 21.211 21.211 0 0 0 .033 3.108c.087 1.068.327 2.257.72 3.566 3.402-2.53 6.542-3.839 9.421-3.926 2.88-.087 5.366.632 7.46 2.159 2.093 1.527 3.75 3.642 4.972 6.347 1.221 2.704 1.865 5.572 1.93 8.604.066 3.031-.48 5.997-1.636 8.898-1.156 2.9-3.064 5.333-5.725 7.296zm-15.9-20.415c-.217.437-.414 1.19-.588 2.258-.175 1.068-.262 2.268-.262 3.598s.098 2.705.295 4.122c.196 1.418.534 2.716 1.014 3.894.48 1.177 1.112 2.159 1.897 2.944.785.785 1.789 1.2 3.01 1.243 3.184-.698 5.703-1.788 7.557-3.271 1.854-1.484 3.174-3.141 3.959-4.973.785-1.832 1.123-3.719 1.014-5.66-.11-1.94-.545-3.73-1.309-5.365-.763-1.636-1.788-2.999-3.075-4.09-1.287-1.09-2.683-1.69-4.187-1.799-1.505-.109-3.076.371-4.711 1.44-1.636 1.068-3.174 2.955-4.613 5.66zm35.333 20.742c.305 1.09.262 1.93-.131 2.519-.393.589-.96.948-1.701 1.08-.742.13-1.56.054-2.454-.23a5.651 5.651 0 0 1-2.323-1.406l-2.224-44.362c-.305-.785-.316-1.472-.033-2.06a3.165 3.165 0 0 1 1.243-1.375 4.683 4.683 0 0 1 1.832-.621c.676-.088 1.287-.011 1.832.229.546.24.96.632 1.244 1.177.283.546.294 1.276.032 2.192l2.683 42.857zm32.06-3.599a10.973 10.973 0 0 1-3.14 3.697 13.924 13.924 0 0 1-4.319 2.192c-1.57.48-3.217.709-4.94.687a16.821 16.821 0 0 1-5.005-.818 17.958 17.958 0 0 1-4.547-2.225 13.404 13.404 0 0 1-3.566-3.533 27.531 27.531 0 0 1-3.206-8.833c-.567-3.14-.545-6.107.065-8.898.61-2.792 1.854-5.235 3.73-7.329 1.875-2.093 4.493-3.49 7.851-4.187 3.185-.218 5.704.164 7.557 1.145 1.854.981 3.12 2.312 3.795 3.991.676 1.68.807 3.544.393 5.594-.414 2.05-1.298 4.046-2.65 5.987-1.352 1.941-3.14 3.664-5.365 5.17-2.225 1.504-4.798 2.54-7.72 3.107.871 1.44 1.864 2.476 2.976 3.108a8.949 8.949 0 0 0 3.5 1.145c1.222.13 2.432.055 3.632-.229 1.2-.284 2.312-.632 3.337-1.047a52.484 52.484 0 0 0 2.715-1.178c.785-.37 1.352-.621 1.701-.752 1.57-.48 2.64-.48 3.206 0 .567.48.567 1.548 0 3.206zm-17.338-23.358a14.57 14.57 0 0 0-2.748 2.682 14.105 14.105 0 0 0-1.898 3.206 13.24 13.24 0 0 0-.949 3.534c-.152 1.22-.12 2.42.098 3.598 1.833-.262 3.48-.829 4.94-1.701 1.462-.872 2.683-1.865 3.664-2.977.982-1.112 1.69-2.257 2.127-3.435.436-1.178.556-2.203.36-3.075-.196-.873-.753-1.505-1.669-1.898-.916-.392-2.224-.37-3.925.066zM44.804 275.703c-.916-.916-1.505-2.552-1.767-4.907-.262-2.356-.392-5.289-.392-8.8 0-3.512-.011-7.525-.033-12.04-.022-4.514-.273-9.389-.753-14.623-.436 1.396-.621 2.759-.556 4.09.066 1.33.12 2.507.164 3.533.043 1.025-.033 1.832-.23 2.42-.195.59-.752.84-1.668.753-1.221-.829-2.104-1.832-2.65-3.01a8.847 8.847 0 0 1-.817-3.762c0-1.33.261-2.66.785-3.991a13.514 13.514 0 0 1 2.159-3.664 13.166 13.166 0 0 1 3.206-2.814 9.625 9.625 0 0 1 3.991-1.407c2.487-.349 4.864-.36 7.132-.032 2.268.327 4.286.948 6.052 1.864 1.767.916 3.217 2.083 4.351 3.501 1.134 1.418 1.81 3.042 2.029 4.874.218 1.833-.098 3.86-.95 6.085-.85 2.225-2.344 4.58-4.481 7.067 2.574.436 4.733 1.21 6.478 2.323 1.744 1.112 3.086 2.399 4.023 3.86.938 1.461 1.484 3.032 1.636 4.71a11.385 11.385 0 0 1-.621 4.908c-.567 1.592-1.494 3.075-2.781 4.45-1.287 1.373-2.89 2.475-4.81 3.304-1.919.828-4.165 1.33-6.739 1.504-2.573.175-5.43-.152-8.57-.981-.393.13-.644.305-.753.523-.11.219-.251.404-.426.557-.174.152-.468.229-.883.229-.414 0-1.123-.175-2.126-.524zm3.925-7.524c3.185 1.09 5.955 1.657 8.31 1.7 2.356.045 4.297-.239 5.823-.85 1.527-.61 2.65-1.461 3.37-2.551.72-1.091 1.036-2.214.949-3.37-.088-1.156-.556-2.257-1.407-3.304-.85-1.047-2.094-1.854-3.73-2.421-1.635-.567-3.642-.807-6.02-.72-2.376.087-5.114.72-8.21 1.898l.915 9.618zm-.392-17.732c.174.262.687.295 1.538.098.85-.196 1.82-.588 2.911-1.177 1.09-.59 2.17-1.342 3.239-2.258a10.774 10.774 0 0 0 2.552-3.173c.632-1.2.927-2.508.883-3.926-.044-1.417-.633-2.911-1.767-4.482a5.466 5.466 0 0 0-1.963-1.44 9.614 9.614 0 0 0-2.453-.719c-.85-.13-1.723-.163-2.617-.098-.895.065-1.734.164-2.52.294 0 2.748.044 5.475.131 8.18.088 2.704.11 5.604.066 8.701zm33.238 25.125c-1.963-.96-3.478-2.3-4.547-4.024-1.069-1.723-1.767-3.62-2.094-5.692-.327-2.072-.327-4.231 0-6.478a32.008 32.008 0 0 1 1.669-6.543c.785-2.115 1.744-4.045 2.878-5.79 1.135-1.745 2.356-3.163 3.665-4.253 2.399-1.832 4.623-2.923 6.673-3.271 2.05-.35 3.882-.153 5.496.588 1.614.742 3.021 1.92 4.22 3.534 1.2 1.614 2.138 3.456 2.814 5.528.676 2.072 1.08 4.297 1.21 6.674.131 2.378-.032 4.7-.49 6.968a22.505 22.505 0 0 1-2.29 6.347c-1.069 1.963-2.487 3.577-4.253 4.842-1.767 1.265-3.882 2.072-6.347 2.42-2.464.35-5.332.066-8.604-.85zm5.038-5.43c1.832.174 3.479-.23 4.94-1.21 1.461-.982 2.672-2.27 3.632-3.861.96-1.592 1.657-3.392 2.093-5.398.437-2.007.524-3.937.262-5.79-.262-1.855-.872-3.534-1.832-5.039-.96-1.505-2.334-2.562-4.122-3.173-1.09-.218-2.236.13-3.435 1.047-1.2.916-2.29 2.148-3.272 3.697-.981 1.548-1.788 3.293-2.42 5.234-.633 1.941-.95 3.86-.95 5.758 0 1.897.393 3.631 1.178 5.201.786 1.57 2.094 2.748 3.926 3.534zm20.414 5.823c-.654-.48-1.09-.97-1.308-1.472-.218-.502-.175-1.189.13-2.061.786-.786 1.778-1.93 2.978-3.435a87.959 87.959 0 0 0 3.5-4.711 73.133 73.133 0 0 0 3.075-4.81c.916-1.57 1.483-2.813 1.702-3.729l-8.637-10.272c-.48-.83-.6-1.647-.36-2.454a4.205 4.205 0 0 1 1.309-2.028 5.44 5.44 0 0 1 2.159-1.145 3.08 3.08 0 0 1 2.322.261c.524.262 1.19.895 1.996 1.898.807 1.003 1.647 2.04 2.52 3.108a33.021 33.021 0 0 0 2.518 2.78c.807.786 1.472 1.091 1.996.917.261-.219.676-.687 1.243-1.407a83.902 83.902 0 0 1 1.963-2.388 51.948 51.948 0 0 1 2.388-2.618c.85-.872 1.701-1.559 2.552-2.06.85-.502 1.646-.742 2.388-.72.741.021 1.374.49 1.897 1.406.437 1.09.491 2.16.164 3.206a10.36 10.36 0 0 1-1.538 3.01 21.872 21.872 0 0 1-2.42 2.781 68.143 68.143 0 0 0-2.52 2.584c-.763.83-1.374 1.614-1.832 2.356-.458.741-.578 1.418-.36 2.028a33.493 33.493 0 0 0 2.65 3.337c.982 1.09 1.952 2.181 2.912 3.272a55.045 55.045 0 0 1 2.715 3.337 18.804 18.804 0 0 1 2.127 3.598c.436.916.458 1.767.065 2.552a3.852 3.852 0 0 1-1.766 1.767 4.615 4.615 0 0 1-2.552.458c-.916-.088-1.68-.524-2.29-1.309l-8.899-10.861c-.436.305-.96.948-1.57 1.93-.61.981-1.298 2.06-2.06 3.239a96.485 96.485 0 0 1-2.455 3.598c-.872 1.222-1.788 2.258-2.748 3.108-.96.85-1.94 1.407-2.944 1.669-1.003.261-2.006.021-3.01-.72zm70.403-1.374c-.742-3.01-1.233-6.314-1.472-9.913a255.29 255.29 0 0 1-.491-10.796 1308.55 1308.55 0 0 0-.295-10.468c-.109-3.381-.425-6.358-.948-8.932-.088-1.657.163-3.053.752-4.187.589-1.134 1.265-1.92 2.028-2.356.764-.436 1.516-.48 2.258-.13.741.349 1.265 1.134 1.57 2.355.305 3.533.469 6.903.49 10.109.023 3.206.023 6.39 0 9.553-.021 3.162.012 6.368.099 9.618.087 3.25.37 6.706.85 10.37 1.658 0 3.13-.065 4.417-.196a40.993 40.993 0 0 0 3.893-.589 208.87 208.87 0 0 0 4.318-.916c1.57-.349 3.49-.741 5.758-1.177.916.48 1.636 1.057 2.16 1.733.523.677.84 1.342.948 1.996.11.654.011 1.265-.294 1.832-.306.567-.83.938-1.57 1.112-1.091.175-2.432.426-4.025.753-1.592.327-3.26.665-5.005 1.014s-3.49.654-5.234.916c-1.745.262-3.337.403-4.777.425-1.44.022-2.65-.12-3.631-.425-.981-.305-1.581-.872-1.8-1.701zm64.055-1.701c0 1.265-.261 2.115-.785 2.551a2.775 2.775 0 0 1-1.832.655 4.824 4.824 0 0 1-1.995-.426c-.633-.283-1.036-.556-1.21-.817l-3.469-7.46a24.031 24.031 0 0 1-1.963 3.043 15.749 15.749 0 0 1-2.486 2.617 14.81 14.81 0 0 1-2.977 1.93c-1.069.524-2.214.851-3.435.982-2.923.087-5.354-.36-7.295-1.341-1.941-.982-3.49-2.301-4.646-3.959-1.156-1.658-1.92-3.566-2.29-5.725-.37-2.16-.425-4.384-.164-6.674a28.66 28.66 0 0 1 1.636-6.772c.829-2.224 1.876-4.22 3.14-5.987 1.266-1.766 2.738-3.228 4.417-4.383 1.68-1.156 3.479-1.8 5.398-1.93 1.92-.132 3.937.316 6.053 1.34 2.115 1.026 4.285 2.847 6.51 5.464l7.393 26.892zm-25.648-4.319c2.006.698 3.762.862 5.267.491 1.505-.37 2.78-1.08 3.828-2.126 1.047-1.047 1.843-2.356 2.388-3.926.545-1.57.883-3.206 1.014-4.907.13-1.702.055-3.37-.229-5.006-.284-1.636-.763-3.075-1.44-4.318-.676-1.243-1.537-2.17-2.584-2.781-1.047-.61-2.268-.741-3.664-.393-1.134.262-2.148.927-3.042 1.996-.895 1.069-1.647 2.334-2.258 3.795a22.638 22.638 0 0 0-1.374 4.744 26.118 26.118 0 0 0-.425 4.972c.022 1.614.24 3.086.654 4.417.415 1.33 1.036 2.344 1.865 3.042zm28.331 26.761c-.523-.61-.72-1.374-.589-2.29.131-.916.436-1.756.916-2.52.48-.762 1.069-1.308 1.767-1.635.698-.327 1.308-.207 1.832.36 1.745 2.923 3.391 5.038 4.94 6.347 1.548 1.308 2.988 1.984 4.318 2.028 1.33.044 2.53-.425 3.599-1.407 1.068-.981 1.995-2.3 2.78-3.958.786-1.658 1.44-3.544 1.963-5.66a45.753 45.753 0 0 0 1.113-6.445c.218-2.18.261-4.307.13-6.38-.13-2.071-.414-3.87-.85-5.397a29.41 29.41 0 0 1-2.912 3.14 17.42 17.42 0 0 1-3.664 2.65c-1.33.72-2.77 1.19-4.318 1.407-1.549.218-3.152 0-4.81-.654-1.526-.829-2.79-2.017-3.794-3.566-1.003-1.548-1.821-3.315-2.454-5.3a37.514 37.514 0 0 1-1.406-6.346 70.1 70.1 0 0 1-.59-6.642 100.145 100.145 0 0 1-.065-6.215c.044-1.963.11-3.686.197-5.17.436-.697 1.046-1.253 1.832-1.668.785-.414 1.57-.61 2.355-.589a3.459 3.459 0 0 1 2.094.753c.61.48.981 1.243 1.112 2.29-.044.872-.098 2.072-.164 3.598a90.792 90.792 0 0 0-.065 4.973c.022 1.789.11 3.62.262 5.496.152 1.876.458 3.599.916 5.17.458 1.57 1.068 2.922 1.832 4.056.763 1.134 1.756 1.854 2.977 2.159 2.006-.262 3.631-.97 4.874-2.126 1.244-1.156 2.192-2.574 2.847-4.253.654-1.68 1.08-3.523 1.275-5.53.197-2.006.262-3.99.197-5.953a51.81 51.81 0 0 0-.458-5.496c-.24-1.702-.447-3.097-.622-4.188.305-.698.85-1.145 1.636-1.341a5.194 5.194 0 0 1 2.388-.033 5.494 5.494 0 0 1 2.225 1.047c.676.523 1.057 1.156 1.145 1.897 1.875 10.556 2.835 19.673 2.879 27.35.043 7.677-.535 14.035-1.734 19.073-1.2 5.038-2.89 8.855-5.071 11.45-2.181 2.595-4.57 4.1-7.165 4.515-2.595.414-5.267-.164-8.015-1.734s-5.3-3.991-7.655-7.263zm39.192-19.76c-1.963-.96-3.478-2.3-4.547-4.024-1.069-1.723-1.767-3.62-2.094-5.692-.327-2.072-.327-4.231 0-6.478a32.008 32.008 0 0 1 1.669-6.543c.785-2.115 1.744-4.045 2.879-5.79 1.134-1.745 2.355-3.163 3.664-4.253 2.399-1.832 4.623-2.923 6.673-3.271 2.05-.35 3.883-.153 5.497.588 1.614.742 3.02 1.92 4.22 3.534 1.2 1.614 2.137 3.456 2.813 5.528.676 2.072 1.08 4.297 1.21 6.674.132 2.378-.032 4.7-.49 6.968a22.505 22.505 0 0 1-2.29 6.347c-1.069 1.963-2.486 3.577-4.253 4.842-1.767 1.265-3.882 2.072-6.347 2.42-2.464.35-5.332.066-8.604-.85zm5.038-5.43c1.832.174 3.48-.23 4.94-1.21 1.462-.982 2.672-2.27 3.632-3.861.96-1.592 1.657-3.392 2.093-5.398.437-2.007.524-3.937.262-5.79-.262-1.855-.872-3.534-1.832-5.039-.96-1.505-2.333-2.562-4.122-3.173-1.09-.218-2.235.13-3.435 1.047-1.2.916-2.29 2.148-3.271 3.697-.982 1.548-1.789 3.293-2.421 5.234-.633 1.941-.95 3.86-.95 5.758 0 1.897.393 3.631 1.179 5.201.785 1.57 2.093 2.748 3.925 3.534zm30.164 6.412c-1.876-.655-3.446-1.712-4.711-3.174-1.265-1.46-2.29-3.162-3.076-5.103a32.488 32.488 0 0 1-1.799-6.249 58.163 58.163 0 0 1-.85-6.674 80.637 80.637 0 0 1-.197-6.379c.022-2.028.077-3.806.164-5.332.087-.83.403-1.44.949-1.832.545-.393 1.177-.6 1.897-.622.72-.022 1.429.12 2.126.425.698.306 1.244.72 1.636 1.243.306.437.513 1.353.622 2.748.109 1.396.196 3.021.261 4.875.066 1.854.153 3.795.262 5.823a44.39 44.39 0 0 0 .654 5.693c.328 1.766.797 3.282 1.407 4.547.61 1.265 1.483 2.006 2.617 2.225 1.745-.044 3.13-.546 4.155-1.505 1.025-.96 1.767-2.214 2.225-3.763.458-1.548.687-3.293.687-5.234 0-1.941-.131-3.915-.393-5.921a67.395 67.395 0 0 0-1.014-5.824 185.845 185.845 0 0 0-1.145-4.907c-.218-1.047-.054-1.723.49-2.028.546-.305 1.233-.382 2.062-.23.829.154 1.68.448 2.552.884.872.436 1.504.894 1.897 1.374.916 1.92 1.636 4.166 2.16 6.74.523 2.573.763 5.212.719 7.917a37.228 37.228 0 0 1-.981 7.95c-.611 2.595-1.57 4.863-2.88 6.804a13.207 13.207 0 0 1-5.07 4.482c-2.072 1.047-4.548 1.396-7.426 1.047zm32.06-24.471c-.218.087-.305.589-.262 1.505.044.916.142 2.072.295 3.468.152 1.396.338 2.966.556 4.71.218 1.745.37 3.468.458 5.17a39.012 39.012 0 0 1-.033 4.809c-.109 1.505-.381 2.737-.818 3.696-.436.96-1.08 1.56-1.93 1.8-.85.24-1.995-.033-3.435-.818l-1.57-24.34c-.96-.174-1.745-.262-2.356-.262-.61 0-1.188.033-1.734.098-.545.066-1.145.131-1.799.197-.654.065-1.505.054-2.552-.033-.785-.48-1.286-1.09-1.505-1.832-.218-.742-.032-1.472.557-2.192.589-.72 1.635-1.33 3.14-1.832 1.505-.502 3.588-.752 6.249-.752.305-.175.392-.84.262-1.996-.131-1.156-.306-2.519-.524-4.09a66.71 66.71 0 0 1-.49-4.907c-.11-1.7.01-3.162.36-4.383.348-1.222 1.013-2.05 1.995-2.487.981-.436 2.453-.196 4.416.72.044 2.443.088 4.493.131 6.15.044 1.658.087 3.043.131 4.155.044 1.113.087 1.996.13 2.65a56.879 56.879 0 0 0 .262 2.912c.044.37.088.818.132 1.341.916.044 1.755.033 2.519-.033.763-.065 1.504-.13 2.224-.196.72-.065 1.461-.12 2.225-.164a24.212 24.212 0 0 1 2.519 0c.96.219 1.657.611 2.094 1.178.436.567.643 1.178.621 1.832-.022.655-.283 1.276-.785 1.865s-1.167 1.036-1.996 1.341l-9.487.72zM82.492 353.871c.305 1.09.163 2.007-.426 2.748a4.544 4.544 0 0 1-2.192 1.538 4.655 4.655 0 0 1-2.617.098c-.873-.218-1.461-.763-1.767-1.636l-.327-38.473a48.928 48.928 0 0 0-4.809 6.249 115.716 115.716 0 0 0-4.155 6.903 581.635 581.635 0 0 0-3.827 7 101.54 101.54 0 0 1-3.828 6.544c-.742.829-1.527 1.33-2.356 1.505a4.556 4.556 0 0 1-2.42-.131 6.412 6.412 0 0 1-2.192-1.276 6.664 6.664 0 0 1-1.603-2.061l-7.328-18.648c-.044 4.45-.044 8.234 0 11.352.043 3.12.098 5.726.163 7.82.066 2.093.142 3.762.23 5.005.086 1.243.184 2.235.294 2.977.109.741.196 1.297.261 1.668.066.371.12.73.164 1.08.087.96-.207 1.668-.883 2.126-.677.458-1.45.687-2.323.687s-1.69-.207-2.454-.621c-.763-.415-1.188-1.014-1.276-1.8l-1.7-45.67c0-.348.26-.665.784-.948a4.257 4.257 0 0 1 1.767-.491 4.25 4.25 0 0 1 1.93.327c.633.262 1.08.764 1.341 1.505a330.756 330.756 0 0 1 7.034 13.838 350.093 350.093 0 0 1 6.314 13.97c1.396-1.963 2.824-4.199 4.286-6.707 1.46-2.508 2.922-5.005 4.383-7.492a184.053 184.053 0 0 1 4.384-7.099c1.462-2.246 2.912-4.089 4.351-5.529 1.44-1.439 2.868-2.377 4.286-2.813 1.418-.436 2.824-.087 4.22 1.047l2.29 45.408zm9.617 1.701c-1.963-.96-3.478-2.3-4.547-4.024-1.069-1.723-1.767-3.62-2.094-5.692-.327-2.072-.327-4.231 0-6.478a32.008 32.008 0 0 1 1.669-6.543c.785-2.115 1.745-4.045 2.879-5.79s2.355-3.163 3.664-4.253c2.399-1.832 4.623-2.923 6.674-3.271 2.05-.35 3.882-.153 5.496.588 1.614.742 3.02 1.92 4.22 3.534 1.2 1.614 2.137 3.456 2.813 5.528.676 2.072 1.08 4.297 1.21 6.674.132 2.378-.032 4.7-.49 6.968a22.505 22.505 0 0 1-2.29 6.347c-1.069 1.963-2.486 3.577-4.253 4.842-1.767 1.265-3.882 2.072-6.347 2.42-2.464.35-5.332.066-8.604-.85zm5.038-5.43c1.833.174 3.48-.23 4.94-1.21 1.462-.982 2.672-2.27 3.632-3.861.96-1.592 1.657-3.392 2.094-5.398.436-2.007.523-3.937.261-5.79-.262-1.855-.872-3.534-1.832-5.039-.96-1.505-2.333-2.562-4.122-3.173-1.09-.218-2.235.13-3.435 1.047-1.2.916-2.29 2.148-3.271 3.697-.982 1.548-1.789 3.293-2.421 5.234-.633 1.941-.95 3.86-.95 5.758 0 1.897.394 3.631 1.179 5.201.785 1.57 2.093 2.748 3.925 3.534zm30.098 6.215c-2.835-.697-5.158-2.05-6.968-4.056a17.931 17.931 0 0 1-3.893-6.903c-.785-2.595-1.069-5.333-.85-8.211.217-2.88.926-5.551 2.126-8.016a17.899 17.899 0 0 1 5.07-6.28c2.181-1.724 4.842-2.738 7.983-3.043 1.527-.131 3.14-.11 4.842.065 1.7.175 3.25.61 4.645 1.309l-.85-12.89c0-.523.381-.916 1.145-1.178.763-.261 1.603-.37 2.519-.327a5.533 5.533 0 0 1 2.519.72c.763.436 1.145 1.112 1.145 2.028l4.253 44.427c.087.829-.12 1.483-.622 1.963a3.49 3.49 0 0 1-1.832.916c-.72.13-1.45.087-2.192-.131-.741-.218-1.265-.61-1.57-1.178-.087-.13-.207-.436-.36-.916a226.34 226.34 0 0 1-.949-3.075c-.13-.436-.218-.654-.261-.654-1.702 1.7-3.348 2.977-4.94 3.827-1.593.851-3.087 1.418-4.482 1.702-1.396.283-2.65.381-3.763.294-1.112-.087-2.017-.218-2.715-.393zm-5.038-14.721c.61 2.399 1.418 4.329 2.42 5.79 1.004 1.462 2.106 2.508 3.305 3.14 1.2.633 2.465.895 3.795.786 1.33-.109 2.628-.512 3.893-1.21 1.265-.698 2.465-1.636 3.599-2.814 1.134-1.178 2.115-2.552 2.944-4.122.393-.785.622-1.668.687-2.65.066-.981.022-1.995-.13-3.042a28.295 28.295 0 0 0-.655-3.174 775.108 775.108 0 0 1-.818-3.108c-1.221-2.399-2.606-4.078-4.155-5.038-1.548-.96-3.108-1.385-4.678-1.276-1.57.11-3.075.677-4.515 1.702-1.439 1.025-2.66 2.322-3.664 3.893-1.003 1.57-1.712 3.326-2.126 5.267a12.961 12.961 0 0 0 .098 5.856zm42.726 14.918c-1.876-.655-3.446-1.712-4.711-3.174-1.265-1.46-2.29-3.162-3.076-5.103a32.488 32.488 0 0 1-1.799-6.249 58.163 58.163 0 0 1-.85-6.674 80.637 80.637 0 0 1-.197-6.379c.022-2.028.077-3.806.164-5.332.087-.83.403-1.44.949-1.832.545-.393 1.177-.6 1.897-.622.72-.022 1.429.12 2.127.425.697.306 1.243.72 1.635 1.243.306.437.513 1.353.622 2.748.109 1.396.196 3.021.262 4.875.065 1.854.152 3.795.261 5.823a44.39 44.39 0 0 0 .655 5.693c.327 1.766.796 3.282 1.406 4.547.611 1.265 1.483 2.006 2.618 2.225 1.744-.044 3.13-.546 4.154-1.505 1.025-.96 1.767-2.214 2.225-3.763.458-1.548.687-3.293.687-5.234 0-1.941-.13-3.915-.393-5.921a67.395 67.395 0 0 0-1.014-5.824 185.844 185.844 0 0 0-1.145-4.907c-.218-1.047-.054-1.723.49-2.028.546-.305 1.233-.382 2.062-.23.829.154 1.68.448 2.552.884.872.436 1.505.894 1.897 1.374.916 1.92 1.636 4.166 2.16 6.74.523 2.573.763 5.212.719 7.917a37.228 37.228 0 0 1-.981 7.95c-.611 2.595-1.57 4.863-2.88 6.804a13.207 13.207 0 0 1-5.07 4.482c-2.072 1.047-4.547 1.396-7.426 1.047zm30.163-3.206c.305 1.09.261 1.93-.131 2.519-.393.589-.96.948-1.701 1.08-.742.13-1.56.054-2.454-.23a5.651 5.651 0 0 1-2.323-1.406l-2.224-44.362c-.306-.785-.317-1.472-.033-2.06a3.165 3.165 0 0 1 1.243-1.375 4.683 4.683 0 0 1 1.832-.621c.676-.088 1.287-.011 1.832.229.545.24.96.632 1.243 1.177.284.546.295 1.276.033 2.192l2.683 42.857zm32.06-3.599a10.973 10.973 0 0 1-3.14 3.697 13.924 13.924 0 0 1-4.319 2.192c-1.57.48-3.217.709-4.94.687a16.821 16.821 0 0 1-5.005-.818 17.958 17.958 0 0 1-4.547-2.225 13.405 13.405 0 0 1-3.566-3.533 27.531 27.531 0 0 1-3.206-8.833c-.567-3.14-.546-6.107.065-8.898.61-2.792 1.854-5.235 3.73-7.329 1.875-2.093 4.492-3.49 7.851-4.187 3.184-.218 5.703.164 7.557 1.145s3.119 2.312 3.795 3.991c.676 1.68.807 3.544.393 5.594-.415 2.05-1.298 4.046-2.65 5.987-1.352 1.941-3.14 3.664-5.365 5.17-2.225 1.504-4.799 2.54-7.721 3.107.872 1.44 1.865 2.476 2.977 3.108a8.949 8.949 0 0 0 3.5 1.145c1.222.13 2.432.055 3.632-.229 1.2-.284 2.312-.632 3.337-1.047a52.484 52.484 0 0 0 2.715-1.178c.785-.37 1.352-.621 1.701-.752 1.57-.48 2.64-.48 3.206 0 .567.48.567 1.548 0 3.206zm-17.339-23.358a14.57 14.57 0 0 0-2.748 2.682 14.105 14.105 0 0 0-1.897 3.206 13.24 13.24 0 0 0-.949 3.534c-.153 1.22-.12 2.42.098 3.598 1.832-.262 3.479-.829 4.94-1.701 1.462-.872 2.683-1.865 3.664-2.977.982-1.112 1.69-2.257 2.127-3.435.436-1.178.556-2.203.36-3.075-.197-.873-.753-1.505-1.669-1.898-.916-.392-2.224-.37-3.926.066zM38.915 434.59c-.742-3.01-1.232-6.314-1.472-9.913-.24-3.598-.404-7.197-.49-10.796-.088-3.598-.186-7.088-.295-10.468-.11-3.381-.426-6.358-.949-8.932-.087-1.657.164-3.053.752-4.187.59-1.134 1.265-1.92 2.029-2.356.763-.436 1.516-.48 2.257-.13.742.349 1.265 1.134 1.57 2.355.306 3.533.47 6.903.491 10.109.022 3.206.022 6.39 0 9.553-.022 3.162.011 6.368.098 9.618.087 3.25.371 6.706.85 10.37 1.658 0 3.13-.065 4.417-.196a40.993 40.993 0 0 0 3.893-.589 208.87 208.87 0 0 0 4.319-.916c1.57-.349 3.49-.741 5.758-1.177.916.48 1.635 1.057 2.159 1.733.523.677.84 1.342.948 1.996.11.654.011 1.265-.294 1.832-.305.567-.829.938-1.57 1.112-1.09.175-2.432.426-4.024.753s-3.26.665-5.006 1.014c-1.744.349-3.49.654-5.234.916-1.745.262-3.337.403-4.776.425-1.44.022-2.65-.12-3.632-.425-.981-.305-1.58-.872-1.799-1.701zm54.765-4.842a10.973 10.973 0 0 1-3.14 3.697 13.924 13.924 0 0 1-4.32 2.192c-1.57.48-3.216.709-4.94.687a16.821 16.821 0 0 1-5.005-.818 17.958 17.958 0 0 1-4.547-2.225 13.405 13.405 0 0 1-3.566-3.533 27.531 27.531 0 0 1-3.206-8.833c-.567-3.14-.545-6.107.065-8.898.611-2.792 1.854-5.235 3.73-7.329 1.876-2.093 4.493-3.49 7.852-4.187 3.184-.218 5.703.164 7.557 1.145s3.118 2.312 3.795 3.991c.676 1.68.807 3.544.392 5.594-.414 2.05-1.298 4.046-2.65 5.987-1.352 1.941-3.14 3.664-5.365 5.17-2.225 1.504-4.798 2.54-7.72 3.107.872 1.44 1.864 2.476 2.976 3.108a8.949 8.949 0 0 0 3.5 1.145c1.222.13 2.433.055 3.632-.229 1.2-.284 2.312-.632 3.337-1.047a52.484 52.484 0 0 0 2.715-1.178c.786-.37 1.353-.621 1.702-.752 1.57-.48 2.639-.48 3.206 0 .567.48.567 1.548 0 3.206zm-17.34-23.358a14.57 14.57 0 0 0-2.747 2.682 14.105 14.105 0 0 0-1.898 3.206 13.24 13.24 0 0 0-.948 3.534c-.153 1.22-.12 2.42.098 3.598 1.832-.262 3.478-.829 4.94-1.701 1.46-.872 2.682-1.865 3.664-2.977.981-1.112 1.69-2.257 2.126-3.435.436-1.178.556-2.203.36-3.075-.196-.873-.752-1.505-1.668-1.898-.916-.392-2.225-.37-3.926.066zm38.67 27.611c-.742 1.352-1.647 2.203-2.716 2.552-1.068.349-2.235.022-3.5-.982l-1.21-1.8c-.72-1.068-1.789-2.79-3.207-5.168-1.417-2.377-3.195-5.496-5.332-9.356-2.137-3.86-4.667-8.648-7.59-14.362-.48-.742-.654-1.494-.523-2.258.13-.763.447-1.406.948-1.93.502-.523 1.134-.883 1.898-1.08.763-.196 1.537-.141 2.323.164.436.175.96.709 1.57 1.603.61.894 1.276 1.996 1.996 3.304.72 1.31 1.483 2.76 2.29 4.352a953.613 953.613 0 0 0 2.42 4.743c.807 1.57 1.593 3.075 2.356 4.515.763 1.44 1.472 2.65 2.126 3.631.655.982 1.244 1.68 1.767 2.094.523.414.938.382 1.243-.098.131-.218.338-.72.622-1.505.283-.785.61-1.734.981-2.846.37-1.113.764-2.28 1.178-3.5a691.83 691.83 0 0 0 1.178-3.501c.37-1.113.698-2.061.981-2.846.284-.786.469-1.287.556-1.505.218-.567.48-1.276.785-2.127a40.87 40.87 0 0 1 1.047-2.617c.393-.894.84-1.712 1.342-2.454.501-.741 1.057-1.275 1.668-1.603.61-.327 1.276-.381 1.996-.163s1.537.872 2.453 1.963c.262.305.426.687.491 1.145.065.458-.022 1.134-.262 2.028-.24.894-.632 2.061-1.177 3.5a227.383 227.383 0 0 1-2.258 5.66c-.96 2.334-2.137 5.17-3.533 8.506a1218.063 1218.063 0 0 0-4.907 11.941zm43.183-4.253a10.973 10.973 0 0 1-3.14 3.697 13.924 13.924 0 0 1-4.319 2.192c-1.57.48-3.217.709-4.94.687a16.821 16.821 0 0 1-5.005-.818 17.958 17.958 0 0 1-4.547-2.225 13.405 13.405 0 0 1-3.566-3.533 27.531 27.531 0 0 1-3.206-8.833c-.567-3.14-.546-6.107.065-8.898.61-2.792 1.854-5.235 3.73-7.329 1.875-2.093 4.492-3.49 7.851-4.187 3.184-.218 5.703.164 7.557 1.145s3.12 2.312 3.795 3.991c.676 1.68.807 3.544.393 5.594-.415 2.05-1.298 4.046-2.65 5.987-1.352 1.941-3.14 3.664-5.365 5.17-2.225 1.504-4.798 2.54-7.721 3.107.872 1.44 1.865 2.476 2.977 3.108a8.949 8.949 0 0 0 3.5 1.145c1.222.13 2.432.055 3.632-.229 1.2-.284 2.312-.632 3.337-1.047a52.485 52.485 0 0 0 2.715-1.178c.785-.37 1.352-.621 1.701-.752 1.57-.48 2.64-.48 3.206 0 .567.48.567 1.548 0 3.206zm-17.339-23.358a14.57 14.57 0 0 0-2.748 2.682 14.105 14.105 0 0 0-1.897 3.206 13.24 13.24 0 0 0-.949 3.534c-.152 1.22-.12 2.42.098 3.598 1.832-.262 3.48-.829 4.94-1.701 1.462-.872 2.683-1.865 3.664-2.977.982-1.112 1.69-2.257 2.127-3.435.436-1.178.556-2.203.36-3.075-.197-.873-.753-1.505-1.669-1.898-.916-.392-2.224-.37-3.926.066zm27.677 26.957c.306 1.09.262 1.93-.13 2.519-.393.589-.96.948-1.702 1.08-.741.13-1.56.054-2.453-.23a5.651 5.651 0 0 1-2.323-1.406l-2.225-44.362c-.305-.785-.316-1.472-.032-2.06a3.165 3.165 0 0 1 1.243-1.375 4.683 4.683 0 0 1 1.832-.621c.676-.088 1.287-.011 1.832.229.545.24.96.632 1.243 1.177.283.546.294 1.276.033 2.192l2.682 42.857zm49.596-1.244c.13 1.004 0 1.854-.393 2.552-.392.698-.894 1.145-1.505 1.342-.61.196-1.254.13-1.93-.197-.676-.327-1.232-1.014-1.668-2.06-.131-3.054-.207-6.271-.23-9.652-.021-3.38-.021-6.793 0-10.24l.066-10.24c.022-3.38.011-6.575-.032-9.585 0 .131-.251.328-.753.59-.502.261-1.101.512-1.8.752-.697.24-1.428.414-2.191.523-.763.11-1.385.044-1.865-.196s-.763-.698-.85-1.374c-.088-.676.196-1.669.85-2.977 2.138-1.265 3.959-2.301 5.464-3.108 1.504-.807 2.737-1.123 3.696-.949.96.175 1.669.96 2.127 2.356.458 1.395.709 3.642.752 6.739.044 3.097.011 6.172-.098 9.225a656.767 656.767 0 0 0-.262 9.062 200.235 200.235 0 0 0 0 8.866c.066 2.923.273 5.78.622 8.571z"/></g></svg>
