<svg xmlns="http://www.w3.org/2000/svg" width="391" height="513"><g fill="none" fill-rule="evenodd"><path fill="#FFF" fill-rule="nonzero" d="M9.129 38.915c0 32.212 1.019 65.911-2.677 97.92-3.874 33.557-1.885 67.46-1.913 101.188-.017 21.27 1.882 42.457 1.344 63.721-.276 10.93-1.903 22.207-1.481 33.11.408 10.543 3.764 20.936 4.242 31.519.55 12.18-.331 24.769-1.491 36.879-2.241 23.391-8.025 52.135.319 74.771 2.35 6.374 8.906 11.053 14.788 14.363 12.017 6.762 28.072 8.072 41.567 8.217 7.488.08 15.046 1.428 22.444 2.808 11.025 2.058 24.053 2.782 35.223 2.802 18.465.033 36.516-.328 54.912 1.407 34.891 3.289 70.187 3.558 104.625-2.437 26.098-4.543 51.985-5.783 77.243-13.904 14.377-4.623 16.904-14.986 19.471-29.337 3.503-19.585-.265-39.738.582-59.296.997-23.021.214-46.029 1.075-68.938.425-11.3 1.029-22.545 1.516-33.842 1.068-24.738-5.251-48.14-4.723-72.776.609-28.422 3.488-56.73 4.838-85.116 1.021-21.455 2.923-44.458-8.57-63.167-8.309-13.525-20.486-25.675-27.753-39.897-3.495-6.839-6.834-16.265-12.724-21.443-9.253-8.134-19.077-7.731-30.584-7.095-13.077.723-27.279-.228-40.231-1.946-17.333-2.298-34.992-4.713-52.461-4.703-18.424.01-36.765-3.127-55.109-1.148-18.731 2.021-38.155 5.991-57.032 3.717-14.885-1.793-28.445-2.291-43.451-1.575-12.768.611-29.12-.92-37.245 11.236-4.387 6.565-4.05 13.007-6.744 22.962z"/><path fill="#000" fill-rule="nonzero" d="M387.912 297.221c-2.094-54.572-.15-109.076 1.255-163.583.278-10.75 2.352-22.304.728-32.971-1.877-12.32-11.142-23.273-18.352-33.012-9.322-12.592-18.419-25.212-27.618-37.888-5.941-8.187-11.128-17.931-20.822-22.101-14.305-6.153-32.999-4.272-48.235-5.056-17.109-.881-34.002-2.113-51.159-2.05-35.492.13-71.129 1.534-106.613 1.092C98.515 1.421 80.111.448 61.507.935c-13.474.353-28.993-1.448-42.242 1.21C8.199 4.366 4.329 12.992 3.978 23.361c-.932 27.58-1.41 54.957-.661 82.554.685 30.591-.317 61.193-1.453 91.777-2.448 65.903-1.338 132.405.313 198.32.731 29.17-5.783 62.073 4.015 90.3 8.081 23.279 34.805 22.227 55.297 23.04 30.14 1.196 60.527-.149 90.569 1.665a846.1 846.1 0 0 0 95.647.366c31.857-1.68 63.124-2.143 94.827-6.284 24.393-3.185 39.717-10.843 43.328-36.901 7.803-56.305 4.223-114.39 2.052-170.977zm-71.98-276.726c1.382.634 2.75 1.363 4.093 2.324 5.906 4.225 9.351 10.427 13.592 16.253 8.227 11.303 16.08 22.7 24.522 33.866 4.785 6.329 9.876 12.772 13.454 19.798-10.748.324-21.495.639-32.227 1.175-6.684.334-14.687 2.034-20.241-2.871-5.064-4.472-3.148-9.571-2.887-15.967.708-17.397 1.966-36.926-.306-54.578zm57.499 262.228c1.366 51.245 2.769 101.93 1.158 153.156-.362 11.517-.581 24.664-3.452 35.863-4.841 18.885-23.681 18.974-39.75 21.181-27.026 3.713-53.987 3.86-81.155 5.541-54.071 3.346-109.185 2.638-163.299.275-12.792-.559-25.613-.821-38.394-1.596-7.378-.448-15.558-.468-21.995-4.596-9.64-6.181-9.869-15.096-11.033-25.085-3.179-27.285-.102-54.948-.864-82.358-1.836-66.044-2.009-132.511-.22-198.56 1.007-37.165-.656-74.336-.092-111.504.143-9.444.421-18.886.929-28.317.367-6.816-.91-17.492 2.016-23.741 5.14-10.976 20.366-7.729 30.141-7.999 28.751-.794 57.447.723 86.152-.099 54.322-1.556 108.208-.552 162.442 2.383 3.397.184 6.63.281 9.735.614-2.667 7.939-1.234 18.924-1.411 25.993-.368 14.742-4.343 32.86-.96 47.25 2.609 11.1 11.413 14.578 21.955 16.215 15.989 2.482 34.284-.374 50.69-.945.152 1.159.269 2.329.303 3.526.288 10.297-.891 21.025-1.391 31.334-2.282 47.003-2.76 94.392-1.505 141.469z"/><path fill="#000" d="M61.762 165.16c-5.107 1.205-9.419 1.229-12.936.072-3.517-1.156-6.299-3.07-8.347-5.745-2.047-2.674-3.432-5.89-4.155-9.647-.722-3.758-.867-7.636-.433-11.635a46.206 46.206 0 0 1 2.854-11.707c1.47-3.806 3.36-7.082 5.673-9.828 2.072-2.313 4.312-3.686 6.72-4.12 2.41-.433 4.662-.108 6.758.976 2.095 1.084 3.902 2.819 5.42 5.203 1.517 2.385 2.444 5.24 2.782 8.564.192.434.144.94-.145 1.518a3.558 3.558 0 0 1-1.265 1.409 2.84 2.84 0 0 1-1.806.47c-.65-.049-1.217-.482-1.698-1.301-.868-3.228-1.915-5.565-3.144-7.01-1.228-1.445-2.469-2.276-3.722-2.493-1.252-.217-2.48.036-3.685.759a10.833 10.833 0 0 0-3.035 2.673c-2.554 4.288-4.252 8.395-5.095 12.322-.843 3.926-1.024 7.48-.542 10.659.482 3.18 1.518 5.865 3.107 8.057 1.59 2.193 3.517 3.698 5.782 4.517 2.264.82 4.77.831 7.515.036 2.746-.795 5.516-2.59 8.31-5.384.868.579 1.41 1.265 1.627 2.06.217.795.217 1.626 0 2.493s-.602 1.722-1.156 2.566a14.351 14.351 0 0 1-1.843 2.276c-.627.626-1.24 1.132-1.843 1.518-.602.385-1.168.626-1.698.722zm9.25-1.806c-.53-.145-1.024-.518-1.482-1.12a4.143 4.143 0 0 1-.83-1.988c-.097-.723.096-1.433.577-2.132.482-.698 1.397-1.192 2.746-1.481 6.986 1.975 12.888 2.95 17.706 2.927 4.817-.025 8.455-.65 10.912-1.88 2.457-1.228 3.649-2.854 3.577-4.877-.072-2.024-1.482-4.071-4.228-6.143-.915-.674-2.192-1.3-3.83-1.879a99.628 99.628 0 0 0-5.456-1.734c-2-.578-4.119-1.156-6.36-1.734a89.81 89.81 0 0 1-6.54-1.952c-1.396-.433-2.661-1.18-3.793-2.24a14.568 14.568 0 0 1-2.855-3.722 15.031 15.031 0 0 1-1.59-4.625 13.876 13.876 0 0 1 .037-4.986c.313-1.662.963-3.276 1.95-4.842.988-1.565 2.398-2.95 4.228-4.155 1.686-.867 3.553-1.602 5.6-2.204a34.538 34.538 0 0 1 6.324-1.229 30.545 30.545 0 0 1 6.468.037c2.144.24 4.155.758 6.034 1.553a16.177 16.177 0 0 1 4.986 3.288c1.446 1.397 2.554 3.156 3.325 5.276.096.674-.073 1.252-.506 1.734-.434.482-1.084.759-1.951.831-.868.072-1.88-.144-3.036-.65-1.156-.506-2.408-1.458-3.757-2.855-1.735-.963-3.794-1.493-6.18-1.59a26.505 26.505 0 0 0-6.937.615c-2.24.506-4.251 1.264-6.034 2.276-1.782 1.012-2.939 2.192-3.469 3.541-.53 1.349-.252 2.818.831 4.408 1.084 1.59 3.36 3.18 6.83 4.77 7.082 1.397 12.742 3.071 16.982 5.022 4.24 1.951 7.335 3.999 9.286 6.143 1.951 2.144 2.879 4.312 2.782 6.504-.096 2.192-.951 4.227-2.565 6.106-1.614 1.88-3.854 3.517-6.72 4.914-2.867 1.397-6.083 2.385-9.648 2.963-3.565.578-7.371.675-11.418.29-4.047-.386-8.046-1.446-11.996-3.18zm45.744 0c-.53-.145-1.024-.518-1.482-1.12a4.143 4.143 0 0 1-.83-1.988c-.097-.723.096-1.433.577-2.132.482-.698 1.398-1.192 2.747-1.481 6.985 1.975 12.887 2.95 17.705 2.927 4.817-.025 8.455-.65 10.912-1.88 2.457-1.228 3.65-2.854 3.577-4.877-.072-2.024-1.482-4.071-4.228-6.143-.915-.674-2.192-1.3-3.83-1.879a99.628 99.628 0 0 0-5.456-1.734c-2-.578-4.119-1.156-6.36-1.734a89.81 89.81 0 0 1-6.54-1.952c-1.396-.433-2.66-1.18-3.793-2.24a14.568 14.568 0 0 1-2.855-3.722 15.031 15.031 0 0 1-1.59-4.625 13.876 13.876 0 0 1 .037-4.986c.313-1.662.963-3.276 1.95-4.842.988-1.565 2.398-2.95 4.228-4.155 1.687-.867 3.553-1.602 5.601-2.204a34.538 34.538 0 0 1 6.323-1.229 30.545 30.545 0 0 1 6.468.037c2.144.24 4.155.758 6.034 1.553a16.177 16.177 0 0 1 4.987 3.288c1.445 1.397 2.553 3.156 3.324 5.276.096.674-.073 1.252-.506 1.734-.434.482-1.084.759-1.951.831-.868.072-1.88-.144-3.035-.65-1.157-.506-2.41-1.458-3.758-2.855-1.735-.963-3.794-1.493-6.179-1.59a26.505 26.505 0 0 0-6.937.615c-2.24.506-4.252 1.264-6.035 2.276-1.782 1.012-2.938 2.192-3.468 3.541-.53 1.349-.253 2.818.83 4.408 1.085 1.59 3.361 3.18 6.83 4.77 7.082 1.397 12.743 3.071 16.982 5.022 4.24 1.951 7.335 3.999 9.286 6.143 1.951 2.144 2.879 4.312 2.783 6.504-.097 2.192-.952 4.227-2.566 6.106-1.614 1.88-3.854 3.517-6.72 4.914-2.867 1.397-6.083 2.385-9.648 2.963-3.565.578-7.371.675-11.418.29-4.047-.386-8.046-1.446-11.996-3.18zm91.922 2.529c-2.41-1.205-4.336-3.035-5.782-5.492-1.445-2.457-2.457-5.228-3.035-8.31-.578-3.084-.746-6.372-.506-9.865.241-3.493.856-6.89 1.843-10.19a42.586 42.586 0 0 1 4.011-9.286c1.686-2.89 3.673-5.287 5.962-7.19 2.288-1.903 4.842-3.18 7.66-3.83 2.818-.65 5.89-.398 9.214.759.578.144 1.12.542 1.626 1.192.506.65.819 1.373.94 2.168a3.323 3.323 0 0 1-.434 2.24c-.41.699-1.217 1.144-2.421 1.337a11.39 11.39 0 0 0-3.252-1.373 8.594 8.594 0 0 0-3.505-.145c-1.18.193-2.36.65-3.541 1.373-1.18.723-2.276 1.759-3.288 3.108-3.083 6.022-5.18 11.237-6.287 15.645-1.108 4.409-1.53 8.118-1.265 11.13.265 3.01 1.072 5.383 2.421 7.117 1.349 1.735 2.915 2.915 4.697 3.542 1.783.626 3.65.77 5.6.433 1.952-.337 3.674-1.048 5.168-2.132 1.493-1.084 2.601-2.505 3.324-4.263.723-1.759.747-3.746.072-5.962-.481-.868-1.24-1.434-2.276-1.699a33.005 33.005 0 0 0-3.216-.65 15.533 15.533 0 0 1-3.035-.759c-.915-.337-1.493-1.011-1.734-2.023-.386-1.59-.41-2.794-.073-3.613.338-.82.916-1.361 1.735-1.626.819-.265 1.794-.314 2.927-.145a31.8 31.8 0 0 1 3.468.723c1.18.313 2.313.638 3.397.975 1.084.338 1.987.554 2.71.65 1.204.29 2.372.278 3.505-.035a56.546 56.546 0 0 1 3.215-.795c1.012-.217 1.976-.217 2.891 0 .915.216 1.759 1.023 2.53 2.42.481.82.553 1.554.216 2.205-.337.65-.88 1.204-1.626 1.662-.747.457-1.554.83-2.42 1.12-.868.289-1.566.482-2.096.578a4.224 4.224 0 0 1-1.193.108 5.87 5.87 0 0 0-1.12.036c.675 2.987.687 5.65.036 7.986-.65 2.336-1.734 4.336-3.252 5.998-1.517 1.662-3.336 2.999-5.456 4.01a24.99 24.99 0 0 1-6.504 2.096c-2.216.386-4.384.47-6.504.253-2.12-.217-3.902-.71-5.347-1.481zm47.478-1.88c-.337.772-.927 1.386-1.77 1.844a5.456 5.456 0 0 1-2.638.686c-.915 0-1.77-.265-2.565-.795-.795-.53-1.337-1.42-1.626-2.674-.097-.481-.109-1.481-.036-2.999.072-1.517.084-3.661.036-6.431-.049-2.77-.193-6.215-.434-10.334-.24-4.12-.699-9.045-1.373-14.779 1.012-.915 1.987-1.252 2.927-1.011.94.24 1.794.77 2.565 1.59.771.819 1.397 1.818 1.88 2.999.48 1.18.746 2.276.794 3.288.24-.916.759-1.867 1.554-2.855.795-.987 1.77-1.89 2.926-2.71a19.125 19.125 0 0 1 3.867-2.095c1.42-.579 2.89-.94 4.408-1.084a12.22 12.22 0 0 1 4.553.433c1.517.434 2.926 1.253 4.227 2.457.048.434-.024.891-.217 1.373a5.65 5.65 0 0 1-.795 1.373 5.654 5.654 0 0 1-1.156 1.12c-.433.314-.867.518-1.3.615-2.795-.578-5.168-.542-7.119.108-1.95.65-3.553 1.722-4.805 3.216-1.253 1.493-2.192 3.312-2.819 5.456-.626 2.144-1.06 4.42-1.3 6.829a57.386 57.386 0 0 0-.253 7.371c.072 2.505.228 4.842.47 7.01zm30.496-3.612c.338.915.446 1.806.326 2.673-.12.868-.398 1.638-.832 2.313a4.878 4.878 0 0 1-1.625 1.59c-.65.385-1.313.554-1.988.506-.674-.049-1.313-.35-1.915-.904-.602-.554-1.072-1.457-1.409-2.71-.096-.337-.18-1.168-.253-2.493a172.6 172.6 0 0 1-.18-4.66c-.049-1.783-.097-3.699-.145-5.746a1650.06 1650.06 0 0 0-.145-5.745 508.273 508.273 0 0 0-.144-4.661c-.048-1.325-.12-2.18-.217-2.566-.337-2.36-.361-4.275-.072-5.745.289-1.47.734-2.577 1.337-3.324.602-.747 1.288-1.156 2.06-1.229.77-.072 1.48.133 2.131.615.65.481 1.168 1.216 1.554 2.204.385.987.506 2.156.361 3.505l1.156 26.377zm-5.203-38.446c-1.06-.819-1.698-1.722-1.915-2.71-.217-.987-.144-1.867.217-2.637.361-.771.94-1.325 1.734-1.662.795-.338 1.65-.29 2.566.144 1.06.578 1.71 1.397 1.951 2.457.24 1.06.193 2.036-.145 2.927-.337.891-.903 1.542-1.698 1.951-.795.41-1.698.253-2.71-.47zm22.041 44.371c-3.131-.77-5.697-2.264-7.696-4.48a19.804 19.804 0 0 1-4.3-7.624c-.867-2.867-1.18-5.89-.94-9.07.242-3.18 1.024-6.13 2.35-8.852 1.324-2.722 3.191-5.034 5.6-6.937 2.409-1.903 5.348-3.024 8.816-3.36 1.687-.145 3.47-.121 5.348.071 1.879.193 3.59.675 5.13 1.446l-.939-14.237c0-.578.422-1.011 1.265-1.3.843-.29 1.77-.41 2.782-.362a6.11 6.11 0 0 1 2.782.795c.844.482 1.265 1.229 1.265 2.24l4.697 49.069c.097.915-.132 1.638-.686 2.168a3.855 3.855 0 0 1-2.024 1.012 5.186 5.186 0 0 1-2.42-.145c-.82-.24-1.398-.674-1.735-1.3-.096-.145-.229-.483-.397-1.012a249.985 249.985 0 0 1-1.048-3.396c-.145-.483-.241-.724-.29-.724-1.878 1.88-3.697 3.288-5.455 4.228-1.759.94-3.409 1.566-4.95 1.879-1.542.313-2.927.421-4.156.325-1.228-.096-2.228-.24-2.999-.434zm-5.564-16.26c.674 2.65 1.566 4.782 2.674 6.396 1.108 1.614 2.324 2.77 3.649 3.469a7.502 7.502 0 0 0 4.191.867c1.47-.12 2.903-.566 4.3-1.337 1.397-.77 2.722-1.806 3.975-3.107 1.252-1.301 2.336-2.819 3.252-4.553.433-.867.686-1.843.759-2.927a15.913 15.913 0 0 0-.145-3.36 31.252 31.252 0 0 0-.723-3.505 855.99 855.99 0 0 1-.903-3.433c-1.349-2.65-2.878-4.504-4.589-5.564-1.71-1.06-3.432-1.53-5.167-1.41-1.734.121-3.396.748-4.986 1.88-1.59 1.132-2.939 2.565-4.047 4.3-1.108 1.734-1.89 3.673-2.349 5.817-.457 2.144-.421 4.3.109 6.468zM39.287 260.367c-.819-3.325-1.36-6.974-1.626-10.949-.265-3.975-.446-7.95-.542-11.924-.096-3.974-.205-7.829-.325-11.562-.12-3.734-.47-7.022-1.048-9.865-.096-1.83.18-3.372.831-4.625.65-1.252 1.397-2.12 2.24-2.601.843-.482 1.675-.53 2.494-.145.819.386 1.397 1.253 1.734 2.602.337 3.902.518 7.624.542 11.165.024 3.54.024 7.058 0 10.55-.024 3.494.012 7.035.108 10.624.097 3.589.41 7.407.94 11.454 1.83 0 3.456-.072 4.878-.217a45.275 45.275 0 0 0 4.3-.65c1.445-.29 3.035-.627 4.769-1.012s3.854-.82 6.36-1.3c1.011.53 1.806 1.167 2.384 1.914.578.747.928 1.482 1.048 2.204.12.723.012 1.397-.325 2.024-.337.626-.916 1.036-1.735 1.228-1.204.193-2.685.47-4.444.831-1.758.362-3.601.735-5.528 1.12-1.927.386-3.854.723-5.781 1.012-1.928.29-3.686.446-5.276.47-1.59.024-2.927-.133-4.01-.47-1.085-.337-1.747-.963-1.988-1.879zm70.748-1.88c0 1.397-.289 2.337-.867 2.819a3.065 3.065 0 0 1-2.023.722c-.771 0-1.506-.156-2.205-.47-.698-.313-1.144-.614-1.336-.903l-3.83-8.238a26.542 26.542 0 0 1-2.169 3.36 17.394 17.394 0 0 1-2.746 2.891 16.357 16.357 0 0 1-3.288 2.132 11.29 11.29 0 0 1-3.794 1.084c-3.228.096-5.913-.398-8.057-1.482s-3.854-2.541-5.131-4.372c-1.277-1.83-2.12-3.938-2.53-6.323-.409-2.385-.47-4.842-.18-7.371.289-2.53.891-5.022 1.807-7.48.915-2.457 2.071-4.66 3.468-6.612 1.397-1.951 3.023-3.565 4.878-4.842 1.855-1.276 3.842-1.987 5.962-2.131 2.12-.145 4.348.349 6.685 1.481 2.336 1.132 4.733 3.144 7.19 6.034l8.166 29.701zm-28.328-4.77c2.216.772 4.155.952 5.817.543 1.663-.41 3.072-1.193 4.228-2.349 1.156-1.156 2.035-2.601 2.638-4.336a21.473 21.473 0 0 0 1.12-5.42c.144-1.879.06-3.721-.253-5.528-.313-1.807-.843-3.397-1.59-4.77-.747-1.373-1.698-2.396-2.854-3.07-1.157-.675-2.506-.82-4.047-.434-1.253.289-2.373 1.023-3.36 2.204-.988 1.18-1.82 2.577-2.494 4.191-.674 1.614-1.18 3.36-1.517 5.24a28.847 28.847 0 0 0-.47 5.492c.024 1.782.265 3.408.722 4.877.458 1.47 1.145 2.59 2.06 3.36zm31.291 29.557c-.578-.674-.795-1.517-.65-2.529a7.037 7.037 0 0 1 1.011-2.782c.53-.843 1.18-1.445 1.952-1.807.77-.361 1.445-.229 2.023.398 1.927 3.228 3.746 5.564 5.456 7.01 1.71 1.445 3.3 2.192 4.77 2.24 1.469.048 2.794-.47 3.974-1.554 1.18-1.084 2.204-2.541 3.071-4.372.868-1.83 1.59-3.914 2.168-6.251.579-2.337.988-4.71 1.229-7.118.24-2.41.289-4.758.144-7.046-.144-2.289-.457-4.276-.939-5.962a32.482 32.482 0 0 1-3.216 3.469 19.241 19.241 0 0 1-4.047 2.927 14.058 14.058 0 0 1-4.77 1.553c-1.71.241-3.48 0-5.31-.722-1.687-.916-3.084-2.229-4.192-3.939s-2.012-3.661-2.71-5.853c-.699-2.192-1.217-4.53-1.554-7.01a77.425 77.425 0 0 1-.65-7.335c-.097-2.409-.12-4.697-.072-6.865s.12-4.071.216-5.71c.482-.77 1.157-1.384 2.024-1.842.867-.458 1.734-.675 2.601-.65a3.82 3.82 0 0 1 2.313.83c.674.53 1.084 1.374 1.228 2.53-.048.963-.108 2.288-.18 3.974a100.278 100.278 0 0 0-.073 5.493c.025 1.975.12 3.998.29 6.07.168 2.072.505 3.975 1.011 5.709.506 1.734 1.18 3.228 2.024 4.48.843 1.253 1.939 2.048 3.288 2.385 2.216-.289 4.01-1.072 5.384-2.348 1.373-1.277 2.42-2.843 3.143-4.698.723-1.855 1.192-3.89 1.41-6.106.216-2.216.288-4.408.216-6.576a57.224 57.224 0 0 0-.506-6.07c-.265-1.88-.494-3.421-.686-4.626.337-.77.94-1.264 1.806-1.481a5.737 5.737 0 0 1 2.638-.036c.891.192 1.71.578 2.457 1.156.747.578 1.168 1.277 1.265 2.096 2.071 11.659 3.131 21.728 3.18 30.207.048 8.479-.59 15.5-1.916 21.065-1.325 5.565-3.191 9.78-5.6 12.647-2.41 2.866-5.047 4.528-7.913 4.986-2.867.458-5.818-.18-8.853-1.915-3.035-1.734-5.853-4.408-8.455-8.022zm43.287-21.824c-2.168-1.06-3.842-2.541-5.022-4.444-1.18-1.903-1.951-3.999-2.313-6.287-.361-2.289-.361-4.673 0-7.155.362-2.48.976-4.89 1.843-7.226.867-2.337 1.927-4.469 3.18-6.396 1.252-1.927 2.601-3.492 4.047-4.697 2.65-2.023 5.106-3.228 7.37-3.613 2.265-.386 4.288-.169 6.07.65 1.783.82 3.337 2.12 4.662 3.903 1.325 1.782 2.36 3.818 3.107 6.106.747 2.288 1.193 4.745 1.337 7.371a30.312 30.312 0 0 1-.542 7.696 24.856 24.856 0 0 1-2.529 7.01c-1.18 2.168-2.746 3.95-4.697 5.348-1.951 1.397-4.288 2.288-7.01 2.674-2.722.385-5.89.072-9.503-.94zm5.565-5.998c2.023.193 3.842-.253 5.456-1.337 1.614-1.084 2.95-2.505 4.01-4.263 1.06-1.759 1.831-3.746 2.313-5.962.482-2.216.578-4.348.289-6.396-.29-2.047-.964-3.902-2.023-5.564-1.06-1.662-2.578-2.83-4.553-3.505-1.205-.241-2.47.144-3.794 1.156-1.325 1.012-2.53 2.373-3.613 4.083-1.084 1.71-1.976 3.637-2.674 5.781-.699 2.144-1.048 4.264-1.048 6.36 0 2.095.433 4.01 1.3 5.745.868 1.734 2.313 3.035 4.337 3.902zm33.314 7.082c-2.072-.722-3.806-1.89-5.203-3.505-1.397-1.614-2.53-3.493-3.397-5.636-.867-2.144-1.53-4.445-1.987-6.902a64.24 64.24 0 0 1-.94-7.37 89.061 89.061 0 0 1-.216-7.047c.024-2.24.084-4.203.18-5.89.097-.915.446-1.59 1.048-2.023.603-.433 1.301-.662 2.096-.686a5.392 5.392 0 0 1 2.349.47c.77.337 1.373.794 1.806 1.372.338.482.566 1.494.687 3.036.12 1.541.217 3.336.289 5.383.072 2.048.169 4.192.289 6.432.12 2.24.361 4.336.723 6.287.361 1.951.879 3.625 1.553 5.023.675 1.397 1.638 2.216 2.891 2.457 1.927-.049 3.457-.603 4.589-1.663 1.132-1.06 1.951-2.444 2.457-4.155.506-1.71.759-3.637.759-5.781 0-2.144-.145-4.324-.434-6.54a74.437 74.437 0 0 0-1.12-6.432c-.458-2.071-.88-3.878-1.265-5.42-.24-1.156-.06-1.903.542-2.24.603-.337 1.361-.421 2.277-.253.915.169 1.855.494 2.818.976.964.482 1.662.987 2.096 1.517 1.012 2.12 1.806 4.601 2.385 7.444a40.47 40.47 0 0 1 .794 8.744 41.118 41.118 0 0 1-1.084 8.78c-.674 2.867-1.734 5.372-3.18 7.516a14.587 14.587 0 0 1-5.6 4.95c-2.288 1.156-5.022 1.542-8.202 1.156zm35.41-27.027c-.24.096-.337.65-.289 1.662.048 1.012.157 2.288.325 3.83.169 1.542.374 3.276.615 5.203.24 1.927.41 3.83.505 5.71.097 1.878.085 3.649-.036 5.31-.12 1.663-.421 3.024-.903 4.084-.482 1.06-1.192 1.722-2.132 1.987-.94.265-2.204-.036-3.794-.903l-1.734-26.883c-1.06-.193-1.927-.29-2.602-.29-.674 0-1.313.037-1.915.11-.602.071-1.264.144-1.987.216-.723.072-1.662.06-2.818-.036-.868-.53-1.422-1.205-1.663-2.024-.24-.819-.036-1.626.615-2.42.65-.795 1.806-1.47 3.468-2.024 1.663-.554 3.963-.831 6.902-.831.337-.193.433-.927.289-2.204a183.39 183.39 0 0 0-.578-4.517 73.68 73.68 0 0 1-.542-5.42c-.12-1.879.012-3.492.397-4.841.386-1.35 1.12-2.265 2.204-2.746 1.084-.482 2.71-.217 4.878.794.048 2.698.097 4.963.145 6.793.048 1.831.096 3.36.144 4.59.049 1.228.097 2.203.145 2.926a62.823 62.823 0 0 0 .29 3.216c.047.41.095.903.143 1.481 1.012.048 1.94.036 2.783-.036s1.662-.144 2.457-.217a73.41 73.41 0 0 1 2.457-.18c.843-.048 1.77-.048 2.782 0 1.06.24 1.83.674 2.313 1.3.481.627.71 1.301.686 2.024-.024.723-.313 1.41-.867 2.06-.554.65-1.289 1.144-2.204 1.48l-10.479.796zM87.416 355.57c.337 1.205.18 2.216-.47 3.035a5.019 5.019 0 0 1-2.42 1.699 5.141 5.141 0 0 1-2.891.108c-.964-.24-1.614-.843-1.951-1.807l-.362-42.492a54.04 54.04 0 0 0-5.311 6.902 127.807 127.807 0 0 0-4.59 7.624 642.4 642.4 0 0 0-4.227 7.732 112.148 112.148 0 0 1-4.227 7.227c-.82.915-1.686 1.47-2.602 1.662a5.032 5.032 0 0 1-2.674-.145 7.081 7.081 0 0 1-2.42-1.409 7.36 7.36 0 0 1-1.771-2.276l-8.094-20.596a539.654 539.654 0 0 0 0 12.538c.048 3.445.109 6.323.18 8.636.073 2.312.157 4.155.254 5.528.096 1.373.205 2.47.325 3.288a71.1 71.1 0 0 0 .29 1.843c.071.41.132.807.18 1.192.096 1.06-.23 1.843-.976 2.349-.747.506-1.602.759-2.565.759a5.593 5.593 0 0 1-2.71-.687c-.843-.457-1.313-1.12-1.41-1.987l-1.878-50.441c0-.386.289-.735.867-1.048a4.702 4.702 0 0 1 1.951-.542 4.693 4.693 0 0 1 2.132.361c.698.29 1.192.843 1.481 1.662a365.312 365.312 0 0 1 7.769 15.284 386.67 386.67 0 0 1 6.974 15.429c1.541-2.168 3.119-4.637 4.733-7.407 1.614-2.77 3.228-5.528 4.842-8.275a203.284 203.284 0 0 1 4.842-7.84c1.613-2.482 3.215-4.517 4.805-6.107 1.59-1.59 3.168-2.626 4.734-3.107 1.565-.482 3.119-.097 4.66 1.156l2.53 50.152zm10.623 1.88c-2.168-1.06-3.842-2.542-5.022-4.445-1.18-1.903-1.952-3.999-2.313-6.287-.361-2.289-.361-4.673 0-7.155.361-2.48.976-4.89 1.843-7.226.867-2.337 1.927-4.469 3.18-6.396 1.252-1.927 2.601-3.492 4.046-4.697 2.65-2.023 5.107-3.228 7.372-3.613 2.264-.386 4.287-.169 6.07.65 1.782.82 3.336 2.12 4.661 3.903 1.325 1.782 2.36 3.818 3.107 6.106.747 2.288 1.193 4.745 1.337 7.371a30.312 30.312 0 0 1-.542 7.696 24.856 24.856 0 0 1-2.529 7.01c-1.18 2.168-2.746 3.95-4.697 5.348-1.951 1.397-4.288 2.288-7.01 2.674-2.722.385-5.89.072-9.503-.94zm5.565-5.999c2.023.193 3.842-.253 5.456-1.337 1.614-1.084 2.95-2.505 4.01-4.263 1.06-1.759 1.831-3.746 2.313-5.962.482-2.216.578-4.348.289-6.396-.29-2.047-.964-3.902-2.024-5.564s-2.577-2.83-4.552-3.505c-1.205-.241-2.47.144-3.794 1.156-1.325 1.012-2.53 2.373-3.614 4.083s-1.975 3.637-2.673 5.781c-.699 2.144-1.048 4.264-1.048 6.36 0 2.095.433 4.01 1.3 5.745.868 1.734 2.313 3.035 4.337 3.902zm33.242 6.865c-3.132-.77-5.697-2.264-7.697-4.48a19.804 19.804 0 0 1-4.3-7.624c-.867-2.867-1.18-5.89-.939-9.07.241-3.18 1.024-6.13 2.349-8.852 1.325-2.722 3.192-5.034 5.6-6.937 2.41-1.903 5.348-3.024 8.817-3.36 1.686-.145 3.469-.121 5.347.071 1.88.193 3.59.675 5.131 1.446l-.94-14.237c0-.578.422-1.011 1.265-1.3.844-.29 1.771-.41 2.783-.362a6.11 6.11 0 0 1 2.782.795c.843.482 1.265 1.229 1.265 2.24l4.697 49.069c.096.915-.133 1.638-.687 2.168a3.855 3.855 0 0 1-2.023 1.012 5.186 5.186 0 0 1-2.421-.145c-.819-.24-1.397-.674-1.734-1.3-.097-.145-.23-.483-.398-1.012a249.985 249.985 0 0 1-1.048-3.396c-.144-.483-.24-.724-.289-.724-1.879 1.88-3.697 3.288-5.456 4.228-1.758.94-3.408 1.566-4.95 1.879-1.542.313-2.927.421-4.155.325-1.229-.096-2.228-.24-3-.434zm-5.565-16.26c.675 2.65 1.566 4.782 2.674 6.396 1.108 1.614 2.325 2.77 3.65 3.469a7.502 7.502 0 0 0 4.19.867c1.47-.12 2.904-.566 4.3-1.337 1.398-.77 2.723-1.806 3.975-3.107 1.253-1.301 2.337-2.819 3.252-4.553.434-.867.687-1.843.76-2.927a15.913 15.913 0 0 0-.145-3.36 31.252 31.252 0 0 0-.723-3.505c-.313-1.18-.614-2.325-.903-3.433-1.35-2.65-2.879-4.504-4.59-5.564-1.71-1.06-3.432-1.53-5.166-1.41-1.735.121-3.397.748-4.987 1.88-1.59 1.132-2.938 2.565-4.047 4.3-1.108 1.734-1.89 3.673-2.348 5.817-.458 2.144-.422 4.3.108 6.468zm47.19 16.477c-2.072-.722-3.806-1.89-5.203-3.505-1.398-1.614-2.53-3.493-3.397-5.636-.867-2.144-1.53-4.445-1.987-6.902a64.24 64.24 0 0 1-.94-7.37 89.062 89.062 0 0 1-.216-7.047 129.1 129.1 0 0 1 .18-5.89c.097-.915.446-1.59 1.048-2.023.602-.433 1.3-.662 2.096-.686a5.392 5.392 0 0 1 2.348.47c.771.337 1.373.794 1.807 1.372.337.482.566 1.494.687 3.036.12 1.541.216 3.336.289 5.383.072 2.048.168 4.192.289 6.432.12 2.24.361 4.336.722 6.287.362 1.951.88 3.625 1.554 5.023.675 1.397 1.638 2.216 2.89 2.457 1.928-.049 3.457-.603 4.59-1.663 1.132-1.06 1.95-2.444 2.457-4.155.505-1.71.758-3.637.758-5.781 0-2.144-.144-4.324-.433-6.54a74.437 74.437 0 0 0-1.12-6.432c-.458-2.071-.88-3.878-1.265-5.42-.24-1.156-.06-1.903.542-2.24.602-.337 1.361-.421 2.276-.253.916.169 1.855.494 2.819.976.963.482 1.662.987 2.095 1.517 1.012 2.12 1.807 4.601 2.385 7.444a40.47 40.47 0 0 1 .795 8.744 41.118 41.118 0 0 1-1.084 8.78c-.674 2.867-1.734 5.372-3.18 7.516a14.587 14.587 0 0 1-5.6 4.95c-2.289 1.156-5.023 1.542-8.202 1.156zm33.314-3.54c.337 1.204.29 2.131-.144 2.781-.434.65-1.06 1.048-1.88 1.193-.818.144-1.722.06-2.71-.253a6.242 6.242 0 0 1-2.565-1.554l-2.457-48.996c-.337-.867-.349-1.626-.036-2.276.313-.65.771-1.157 1.373-1.518a5.172 5.172 0 0 1 2.024-.686c.746-.097 1.42-.012 2.023.253a2.77 2.77 0 0 1 1.373 1.3c.313.603.325 1.41.036 2.421l2.963 47.334zm35.41-3.975a12.12 12.12 0 0 1-3.468 4.083 15.378 15.378 0 0 1-4.77 2.42c-1.734.53-3.553.783-5.456.76a18.579 18.579 0 0 1-5.528-.904 19.834 19.834 0 0 1-5.023-2.457 14.805 14.805 0 0 1-3.938-3.902 30.407 30.407 0 0 1-3.541-9.756c-.627-3.469-.603-6.745.072-9.828.674-3.084 2.047-5.782 4.12-8.094 2.07-2.313 4.961-3.854 8.671-4.625 3.517-.241 6.3.18 8.347 1.264 2.047 1.084 3.444 2.554 4.191 4.409.747 1.855.891 3.914.434 6.178-.458 2.265-1.434 4.469-2.927 6.613-1.494 2.144-3.469 4.047-5.926 5.709-2.457 1.662-5.3 2.806-8.527 3.432.963 1.59 2.06 2.734 3.288 3.433a9.884 9.884 0 0 0 3.866 1.265c1.349.144 2.686.06 4.01-.253a25.445 25.445 0 0 0 3.686-1.157 57.967 57.967 0 0 0 3-1.3c.867-.41 1.493-.687 1.878-.831 1.735-.53 2.915-.53 3.541 0 .627.53.627 1.71 0 3.54zm-19.15-25.8a16.091 16.091 0 0 0-3.035 2.964 15.578 15.578 0 0 0-2.096 3.54 14.623 14.623 0 0 0-1.048 3.903 12.909 12.909 0 0 0 .109 3.975c2.023-.29 3.842-.916 5.456-1.88 1.614-.963 2.963-2.059 4.047-3.287 1.084-1.229 1.866-2.494 2.348-3.794.482-1.301.614-2.433.398-3.397-.217-.963-.831-1.662-1.843-2.096-1.012-.433-2.457-.409-4.336.073zM39.287 452.366c-.819-3.324-1.36-6.973-1.626-10.948-.265-3.975-.446-7.95-.542-11.924-.096-3.974-.205-7.829-.325-11.562-.12-3.734-.47-7.022-1.048-9.865-.096-1.83.18-3.372.831-4.625.65-1.252 1.397-2.12 2.24-2.601.843-.482 1.675-.53 2.494-.145.819.386 1.397 1.253 1.734 2.602.337 3.902.518 7.624.542 11.165.024 3.54.024 7.058 0 10.55-.024 3.494.012 7.035.108 10.624.097 3.589.41 7.407.94 11.454 1.83 0 3.456-.072 4.878-.217a45.275 45.275 0 0 0 4.3-.65c1.445-.29 3.035-.627 4.769-1.012s3.854-.82 6.36-1.3c1.011.53 1.806 1.167 2.384 1.914.578.747.928 1.482 1.048 2.204.12.723.012 1.397-.325 2.024-.337.626-.916 1.036-1.735 1.228-1.204.193-2.685.47-4.444.831-1.758.362-3.601.735-5.528 1.12-1.927.386-3.854.723-5.781 1.012-1.928.29-3.686.446-5.276.47-1.59.024-2.927-.133-4.01-.47-1.085-.337-1.747-.963-1.988-1.879zm60.486-5.347a12.12 12.12 0 0 1-3.468 4.083 15.378 15.378 0 0 1-4.77 2.42c-1.734.53-3.553.783-5.456.76a18.579 18.579 0 0 1-5.528-.904 19.834 19.834 0 0 1-5.023-2.457 14.805 14.805 0 0 1-3.938-3.902 30.407 30.407 0 0 1-3.541-9.756c-.626-3.469-.602-6.745.072-9.828.675-3.084 2.048-5.782 4.12-8.094 2.07-2.313 4.961-3.854 8.671-4.625 3.517-.241 6.3.18 8.347 1.264 2.047 1.084 3.444 2.554 4.191 4.409.747 1.855.891 3.914.434 6.178-.458 2.265-1.433 4.469-2.927 6.613-1.493 2.144-3.469 4.047-5.926 5.709-2.457 1.662-5.3 2.806-8.527 3.432.963 1.59 2.06 2.734 3.288 3.433a9.884 9.884 0 0 0 3.866 1.265c1.35.144 2.686.06 4.01-.253a25.445 25.445 0 0 0 3.686-1.157 57.967 57.967 0 0 0 3-1.3c.867-.41 1.493-.687 1.878-.831 1.735-.53 2.915-.53 3.541 0 .627.53.627 1.71 0 3.54zm-19.15-25.8a16.091 16.091 0 0 0-3.035 2.964 15.578 15.578 0 0 0-2.096 3.54 14.623 14.623 0 0 0-1.048 3.903 12.909 12.909 0 0 0 .109 3.975c2.023-.29 3.842-.916 5.456-1.88 1.614-.963 2.963-2.059 4.047-3.287 1.084-1.229 1.867-2.494 2.348-3.794.482-1.301.615-2.433.398-3.397-.217-.963-.831-1.662-1.843-2.096-1.012-.433-2.457-.409-4.336.073zm42.709 30.497c-.819 1.493-1.819 2.433-2.999 2.818-1.18.386-2.47.024-3.866-1.084l-1.337-1.987c-.795-1.18-1.975-3.083-3.541-5.71-1.566-2.625-3.53-6.07-5.89-10.333-2.36-4.264-5.155-9.551-8.383-15.862-.53-.82-.722-1.65-.578-2.494.145-.843.494-1.553 1.048-2.131.554-.578 1.253-.976 2.096-1.193.843-.217 1.698-.156 2.565.18.482.194 1.06.784 1.735 1.771.674.988 1.409 2.205 2.204 3.65a161.952 161.952 0 0 1 2.529 4.806c.891 1.758 1.783 3.504 2.674 5.239a436.586 436.586 0 0 0 2.601 4.986c.844 1.59 1.626 2.927 2.35 4.01.722 1.085 1.372 1.856 1.95 2.313.578.458 1.036.422 1.373-.108.145-.24.374-.795.687-1.662.313-.867.674-1.915 1.084-3.144.41-1.228.843-2.517 1.3-3.866.458-1.349.892-2.638 1.301-3.866.41-1.229.771-2.277 1.084-3.144.313-.867.518-1.42.615-1.662.24-.626.53-1.409.867-2.348a45.14 45.14 0 0 1 1.156-2.891 17.07 17.07 0 0 1 1.481-2.71c.555-.819 1.169-1.41 1.843-1.77.675-.362 1.41-.422 2.204-.181.795.24 1.699.963 2.71 2.168.29.337.47.759.542 1.264.073.506-.024 1.253-.289 2.24-.265.988-.698 2.277-1.3 3.867a251.135 251.135 0 0 1-2.494 6.25c-1.06 2.578-2.36 5.71-3.902 9.395a1345.323 1345.323 0 0 0-5.42 13.189zm47.695-4.697a12.12 12.12 0 0 1-3.468 4.083 15.378 15.378 0 0 1-4.77 2.42c-1.734.53-3.553.783-5.456.76a18.579 18.579 0 0 1-5.528-.904 19.834 19.834 0 0 1-5.023-2.457 14.805 14.805 0 0 1-3.938-3.902 30.407 30.407 0 0 1-3.541-9.756c-.627-3.469-.602-6.745.072-9.828.674-3.084 2.048-5.782 4.12-8.094 2.07-2.313 4.961-3.854 8.671-4.625 3.517-.241 6.3.18 8.347 1.264 2.047 1.084 3.444 2.554 4.191 4.409.747 1.855.891 3.914.434 6.178-.458 2.265-1.434 4.469-2.927 6.613-1.494 2.144-3.469 4.047-5.926 5.709-2.457 1.662-5.3 2.806-8.527 3.432.963 1.59 2.06 2.734 3.288 3.433a9.884 9.884 0 0 0 3.866 1.265c1.35.144 2.686.06 4.01-.253a25.445 25.445 0 0 0 3.686-1.157 57.967 57.967 0 0 0 3-1.3c.867-.41 1.493-.687 1.878-.831 1.735-.53 2.915-.53 3.541 0 .627.53.627 1.71 0 3.54zm-19.15-25.8a16.092 16.092 0 0 0-3.035 2.964 15.578 15.578 0 0 0-2.096 3.54 14.623 14.623 0 0 0-1.048 3.903 12.909 12.909 0 0 0 .109 3.975c2.023-.29 3.842-.916 5.456-1.88 1.614-.963 2.963-2.059 4.047-3.287 1.084-1.229 1.866-2.494 2.348-3.794.482-1.301.614-2.433.398-3.397-.217-.963-.831-1.662-1.843-2.096-1.012-.433-2.457-.409-4.336.073zm30.568 29.774c.338 1.205.29 2.132-.144 2.782-.434.65-1.06 1.048-1.88 1.193-.818.144-1.721.06-2.71-.253a6.242 6.242 0 0 1-2.565-1.554l-2.457-48.996c-.337-.867-.349-1.626-.036-2.276.313-.65.771-1.157 1.373-1.518a5.172 5.172 0 0 1 2.024-.686c.747-.097 1.421-.012 2.023.253a2.77 2.77 0 0 1 1.373 1.3c.313.603.325 1.41.036 2.421l2.963 47.334zm54.778-1.373c.144 1.108 0 2.048-.434 2.818-.434.771-.988 1.265-1.662 1.482-.675.217-1.385.144-2.132-.217-.747-.361-1.36-1.12-1.843-2.276a293.634 293.634 0 0 1-.253-10.66 884.983 884.983 0 0 1 0-11.309l.073-11.31c.024-3.733.012-7.262-.036-10.586 0 .144-.277.36-.832.65-.554.289-1.216.566-1.987.831a13.15 13.15 0 0 1-2.42.578c-.844.12-1.53.048-2.06-.217s-.843-.77-.94-1.517c-.096-.747.217-1.843.94-3.288 2.36-1.397 4.372-2.542 6.034-3.433s3.023-1.24 4.083-1.048c1.06.193 1.843 1.06 2.349 2.602.505 1.541.782 4.023.83 7.443.049 3.42.013 6.817-.108 10.19-.12 3.372-.217 6.708-.289 10.008-.072 3.3-.072 6.564 0 9.792.072 3.228.301 6.384.687 9.467z"/></g></svg>