<svg xmlns="http://www.w3.org/2000/svg" viewBox="0 0 392 513"><g fill="none" fill-rule="evenodd"><path fill="#FFF" fill-rule="nonzero" d="M9.586 39.107c0 32.212 1.019 65.911-2.677 97.92-3.874 33.557-1.885 67.46-1.913 101.188-.017 21.27 1.882 42.457 1.344 63.721-.276 10.93-1.903 22.207-1.481 33.11.408 10.543 3.764 20.936 4.242 31.519.55 12.18-.331 24.769-1.491 36.879-2.241 23.391-8.025 52.135.319 74.771 2.35 6.374 8.906 11.053 14.788 14.363 12.017 6.762 28.072 8.072 41.567 8.217 7.488.08 15.046 1.428 22.444 2.808 11.025 2.058 24.053 2.782 35.223 2.802 18.465.033 36.516-.328 54.912 1.407 34.891 3.289 70.187 3.558 104.625-2.437 26.098-4.543 51.985-5.783 77.243-13.904 14.377-4.623 16.904-14.986 19.471-29.337 3.503-19.585-.265-39.738.582-59.296.997-23.021.214-46.029 1.075-68.938.425-11.3 1.029-22.545 1.516-33.842 1.068-24.738-5.251-48.14-4.723-72.776.609-28.422 3.488-56.73 4.838-85.116 1.021-21.455 2.923-44.458-8.57-63.167-8.309-13.525-20.486-25.675-27.753-39.897-3.495-6.839-6.834-16.265-12.724-21.443-9.253-8.134-19.077-7.731-30.584-7.095-13.077.723-27.279-.228-40.231-1.946-17.333-2.298-34.992-4.713-52.461-4.703-18.424.01-36.765-3.127-55.109-1.148-18.731 2.021-38.155 5.991-57.032 3.717-14.885-1.793-28.445-2.291-43.451-1.575-12.768.611-29.12-.92-37.245 11.236-4.387 6.565-4.05 13.007-6.744 22.962z"/><path fill="#000" fill-rule="nonzero" d="M388.369 297.413c-2.094-54.572-.15-109.076 1.255-163.583.278-10.75 2.352-22.304.728-32.971-1.877-12.32-11.142-23.273-18.352-33.012-9.322-12.592-18.419-25.212-27.618-37.888-5.941-8.187-11.128-17.931-20.822-22.101-14.305-6.153-32.999-4.272-48.235-5.056-17.109-.881-34.002-2.113-51.159-2.05-35.492.13-71.129 1.534-106.613 1.092C98.972 1.613 80.568.64 61.964 1.127 48.49 1.48 32.971-.321 19.722 2.337 8.656 4.558 4.786 13.184 4.435 23.553c-.932 27.58-1.41 54.957-.661 82.554.685 30.591-.317 61.193-1.453 91.777-2.448 65.903-1.338 132.405.313 198.32.731 29.17-5.783 62.073 4.015 90.3 8.081 23.279 34.805 22.227 55.297 23.04 30.14 1.196 60.527-.149 90.569 1.665a846.1 846.1 0 0 0 95.647.366c31.857-1.68 63.124-2.143 94.827-6.284 24.393-3.185 39.717-10.843 43.328-36.901 7.803-56.305 4.223-114.39 2.052-170.977zm-71.98-276.726c1.382.634 2.75 1.363 4.093 2.324 5.906 4.225 9.351 10.427 13.592 16.253 8.227 11.303 16.08 22.7 24.522 33.866 4.785 6.329 9.876 12.772 13.454 19.798-10.748.324-21.495.639-32.227 1.175-6.684.334-14.687 2.034-20.241-2.871-5.064-4.472-3.148-9.571-2.887-15.967.708-17.397 1.966-36.926-.306-54.578zm57.499 262.228c1.366 51.245 2.769 101.93 1.158 153.156-.362 11.517-.581 24.664-3.452 35.863-4.841 18.885-23.681 18.974-39.75 21.181-27.026 3.713-53.987 3.86-81.155 5.541-54.071 3.346-109.185 2.638-163.299.275-12.792-.559-25.613-.821-38.394-1.596-7.378-.448-15.558-.468-21.995-4.596-9.64-6.181-9.869-15.096-11.033-25.085-3.179-27.285-.102-54.948-.864-82.358-1.836-66.044-2.009-132.511-.22-198.56 1.007-37.165-.656-74.336-.092-111.504.143-9.444.421-18.886.929-28.317.367-6.816-.91-17.492 2.016-23.741 5.14-10.976 20.366-7.729 30.141-7.999 28.751-.794 57.447.723 86.152-.099 54.322-1.556 108.208-.552 162.442 2.383 3.397.184 6.63.281 9.735.614-2.667 7.939-1.234 18.924-1.411 25.993-.368 14.742-4.343 32.86-.96 47.25 2.609 11.1 11.413 14.578 21.955 16.215 15.989 2.482 34.284-.374 50.69-.945.152 1.159.269 2.329.303 3.526.288 10.297-.891 21.025-1.391 31.334-2.282 47.003-2.76 94.392-1.505 141.469z"/><path fill="#000" d="M76.483 144.5c-5.52 1.302-10.182 1.328-13.984.078-3.802-1.25-6.81-3.32-9.023-6.21-2.214-2.891-3.711-6.368-4.493-10.43-.78-4.063-.937-8.256-.468-12.579a49.952 49.952 0 0 1 3.086-12.656c1.588-4.114 3.632-7.656 6.132-10.625 2.24-2.5 4.662-3.984 7.266-4.453 2.604-.469 5.04-.117 7.305 1.055 2.265 1.172 4.218 3.047 5.86 5.625 1.64 2.578 2.642 5.664 3.007 9.257.208.47.156 1.016-.156 1.641a3.847 3.847 0 0 1-1.368 1.524 3.07 3.07 0 0 1-1.953.507c-.703-.052-1.315-.52-1.836-1.406-.937-3.49-2.07-6.015-3.398-7.578-1.328-1.563-2.67-2.46-4.023-2.695-1.355-.235-2.683.039-3.985.82a11.712 11.712 0 0 0-3.281 2.89c-2.76 4.636-4.596 9.076-5.508 13.32-.911 4.246-1.107 8.087-.586 11.524.521 3.438 1.64 6.342 3.36 8.711 1.718 2.37 3.802 3.998 6.25 4.883 2.447.886 5.156.899 8.125.04 2.968-.86 5.963-2.8 8.984-5.821.937.625 1.523 1.367 1.758 2.226.234.86.234 1.758 0 2.696-.235.937-.651 1.862-1.25 2.773a15.515 15.515 0 0 1-1.992 2.461c-.678.677-1.342 1.224-1.993 1.64-.65.417-1.263.678-1.836.782zm10-1.953c-.573-.156-1.106-.56-1.601-1.211a4.479 4.479 0 0 1-.899-2.149c-.104-.78.105-1.549.625-2.304.521-.755 1.51-1.29 2.97-1.602 7.551 2.136 13.931 3.19 19.14 3.164 5.208-.026 9.14-.703 11.797-2.03 2.656-1.33 3.945-3.087 3.867-5.274-.078-2.188-1.602-4.401-4.57-6.641-.99-.73-2.37-1.406-4.141-2.031-1.77-.625-3.737-1.25-5.899-1.875a246.877 246.877 0 0 0-6.875-1.875 97.09 97.09 0 0 1-7.07-2.11c-1.51-.468-2.877-1.276-4.101-2.421a15.75 15.75 0 0 1-3.086-4.024 16.25 16.25 0 0 1-1.72-5c-.312-1.797-.299-3.594.04-5.39.339-1.797 1.042-3.542 2.11-5.235 1.067-1.693 2.59-3.19 4.57-4.492 1.823-.938 3.84-1.732 6.054-2.383a37.339 37.339 0 0 1 6.836-1.328 33.021 33.021 0 0 1 6.992.039c2.318.26 4.493.82 6.524 1.68a17.489 17.489 0 0 1 5.39 3.554c1.563 1.51 2.76 3.412 3.594 5.704.104.729-.078 1.354-.547 1.874-.468.521-1.171.82-2.109.899-.937.078-2.031-.156-3.281-.703-1.25-.547-2.604-1.576-4.063-3.086-1.875-1.042-4.101-1.615-6.68-1.719a28.654 28.654 0 0 0-7.5.664c-2.421.547-4.596 1.367-6.523 2.461-1.927 1.094-3.177 2.37-3.75 3.828-.573 1.459-.273 3.047.899 4.766 1.171 1.719 3.632 3.437 7.382 5.156 7.657 1.51 13.776 3.32 18.36 5.43 4.583 2.11 7.93 4.323 10.039 6.64 2.11 2.318 3.112 4.662 3.008 7.032-.105 2.37-1.029 4.57-2.774 6.601-1.745 2.032-4.166 3.802-7.265 5.313-3.1 1.51-6.576 2.578-10.43 3.203s-7.969.729-12.344.312c-4.375-.416-8.698-1.562-12.969-3.437zm49.454 0c-.573-.156-1.107-.56-1.602-1.211a4.479 4.479 0 0 1-.898-2.149c-.105-.78.104-1.549.625-2.304.52-.755 1.51-1.29 2.968-1.602 7.552 2.136 13.933 3.19 19.14 3.164 5.21-.026 9.142-.703 11.798-2.03 2.656-1.33 3.945-3.087 3.867-5.274-.078-2.188-1.602-4.401-4.57-6.641-.99-.73-2.37-1.406-4.141-2.031-1.77-.625-3.737-1.25-5.898-1.875a246.877 246.877 0 0 0-6.875-1.875 97.091 97.091 0 0 1-7.07-2.11c-1.511-.468-2.878-1.276-4.102-2.421a15.75 15.75 0 0 1-3.086-4.024 16.25 16.25 0 0 1-1.719-5c-.312-1.797-.3-3.594.04-5.39.338-1.797 1.04-3.542 2.108-5.235 1.068-1.693 2.592-3.19 4.57-4.492 1.824-.938 3.842-1.732 6.055-2.383a37.339 37.339 0 0 1 6.836-1.328 33.021 33.021 0 0 1 6.993.039c2.317.26 4.492.82 6.523 1.68a17.489 17.489 0 0 1 5.39 3.554c1.563 1.51 2.761 3.412 3.594 5.704.105.729-.078 1.354-.546 1.874-.47.521-1.172.82-2.11.899-.937.078-2.031-.156-3.281-.703-1.25-.547-2.604-1.576-4.063-3.086-1.875-1.042-4.101-1.615-6.68-1.719a28.654 28.654 0 0 0-7.5.664c-2.421.547-4.596 1.367-6.523 2.461-1.927 1.094-3.177 2.37-3.75 3.828-.573 1.459-.273 3.047.899 4.766 1.172 1.719 3.633 3.437 7.383 5.156 7.656 1.51 13.776 3.32 18.359 5.43 4.583 2.11 7.93 4.323 10.039 6.64 2.11 2.318 3.112 4.662 3.008 7.032-.104 2.37-1.029 4.57-2.774 6.601-1.744 2.032-4.166 3.802-7.265 5.313-3.1 1.51-6.576 2.578-10.43 3.203s-7.969.729-12.344.312c-4.375-.416-8.698-1.562-12.968-3.437zm53.828 2.422c-1.094.26-1.966.156-2.618-.313a3.282 3.282 0 0 1-1.289-1.836c-.208-.755-.195-1.562.04-2.422.234-.859.742-1.549 1.523-2.07l16.25-33.75c1.25-2.864 1.823-5.091 1.719-6.68-.105-1.588-.625-2.682-1.563-3.28-.937-.6-2.148-.756-3.633-.47-1.484.287-2.994.886-4.53 1.797a19.345 19.345 0 0 0-4.22 3.399c-1.276 1.354-2.148 2.786-2.617 4.297-.625.26-1.237.3-1.836.117a3.905 3.905 0 0 1-1.562-.899 3.42 3.42 0 0 1-.938-1.523c-.182-.599-.117-1.211.196-1.836 1.093-3.125 2.734-5.638 4.921-7.54 2.188-1.9 4.558-3.215 7.11-3.944 2.552-.73 5.052-.886 7.5-.47 2.448.418 4.427 1.407 5.937 2.97 1.51 1.562 2.37 3.671 2.578 6.328.209 2.656-.65 5.86-2.578 9.61l-14.453 31.405c2.136.209 4.284.235 6.445.078 2.162-.156 4.323-.377 6.485-.664a182.95 182.95 0 0 1 6.484-.742 38.95 38.95 0 0 1 6.524-.078c.312-.052.65.13 1.015.547.365.417.664.95.899 1.602.234.65.338 1.34.312 2.07-.026.729-.26 1.38-.703 1.953-.443.573-1.146 1.003-2.11 1.29-.963.286-2.304.299-4.023.038l-27.265 1.016zm39.765.781c-1.041-.885-1.731-1.901-2.07-3.047-.339-1.146-.339-2.174 0-3.086.339-.911 1.003-1.575 1.992-1.992.99-.417 2.266-.339 3.828.234 1.25 1.146 1.888 2.305 1.914 3.477.026 1.172-.26 2.187-.859 3.047-.599.86-1.38 1.445-2.344 1.758-.963.312-1.784.182-2.46-.391zm14.922-.781c-1.094.26-1.966.156-2.617-.313a3.282 3.282 0 0 1-1.29-1.836c-.207-.755-.194-1.562.04-2.422.234-.859.742-1.549 1.523-2.07l16.25-33.75c1.25-2.864 1.823-5.091 1.72-6.68-.105-1.588-.626-2.682-1.563-3.28-.938-.6-2.149-.756-3.633-.47-1.485.287-2.995.886-4.531 1.797a19.345 19.345 0 0 0-4.22 3.399c-1.275 1.354-2.148 2.786-2.616 4.297-.625.26-1.237.3-1.836.117a3.905 3.905 0 0 1-1.563-.899 3.42 3.42 0 0 1-.937-1.523c-.183-.599-.117-1.211.195-1.836 1.094-3.125 2.734-5.638 4.922-7.54 2.187-1.9 4.557-3.215 7.11-3.944 2.551-.73 5.051-.886 7.5-.47 2.447.418 4.426 1.407 5.937 2.97 1.51 1.562 2.37 3.671 2.578 6.328.208 2.656-.651 5.86-2.578 9.61l-14.453 31.405c2.135.209 4.283.235 6.445.078 2.161-.156 4.323-.377 6.484-.664a182.95 182.95 0 0 1 6.485-.742 38.95 38.95 0 0 1 6.523-.078c.313-.052.651.13 1.016.547.364.417.664.95.898 1.602.235.65.339 1.34.313 2.07-.026.729-.26 1.38-.703 1.953-.443.573-1.146 1.003-2.11 1.29-.963.286-2.304.299-4.023.038l-27.266 1.016zM72.836 267.498c.176 1.348 0 2.49-.527 3.428-.528.937-1.202 1.538-2.022 1.802-.82.263-1.684.175-2.593-.264-.908-.44-1.655-1.362-2.24-2.769a357.121 357.121 0 0 1-.308-12.964c-.03-4.54-.03-9.126 0-13.754l.087-13.755c.03-4.541.015-8.833-.044-12.876 0 .175-.336.44-1.01.79-.674.352-1.48.69-2.417 1.011-.938.323-1.92.557-2.945.704-1.025.146-1.86.058-2.505-.264-.644-.322-1.025-.938-1.142-1.846-.117-.908.264-2.241 1.142-3.999 2.872-1.699 5.318-3.09 7.34-4.175 2.02-1.084 3.676-1.508 4.965-1.274 1.29.234 2.241 1.289 2.857 3.164.615 1.875.952 4.893 1.01 9.053.059 4.16.015 8.29-.131 12.392-.147 4.102-.264 8.16-.352 12.173a268.972 268.972 0 0 0 0 11.91c.088 3.925.366 7.763.835 11.513zm14.678 5.186c-3.223-1.758-5.86-4.366-7.91-7.823-2.051-3.457-3.282-7.793-3.692-13.007-.41-5.215.176-11.338 1.758-18.37 1.582-7.03 4.394-14.97 8.437-23.818.235-1.055.762-1.816 1.582-2.285.82-.469 1.656-.6 2.505-.396.85.205 1.568.747 2.154 1.626.586.88.79 2.11.615 3.692-1.348 3.047-2.68 6.386-4 10.02a107.412 107.412 0 0 0-3.339 10.986c-.908 3.691-1.538 7.294-1.89 10.81-.351 3.516-.293 6.694.176 9.536.469 2.842 1.436 5.215 2.9 7.12 1.465 1.904 3.604 3.09 6.417 3.559-1.641-3.867-2.593-7.383-2.857-10.547-.264-3.164-.044-5.962.66-8.393.702-2.432 1.772-4.468 3.207-6.109 1.436-1.64 3.018-2.87 4.746-3.691 1.729-.82 3.501-1.216 5.318-1.187 1.816.03 3.486.498 5.01 1.406 1.523.909 2.768 2.256 3.735 4.043.967 1.788 1.45 4.058 1.45 6.812.176 2.227-.058 4.57-.703 7.031a33.497 33.497 0 0 1-2.769 7.12 31.342 31.342 0 0 1-4.394 6.327c-1.729 1.934-3.618 3.487-5.67 4.659-2.05 1.172-4.218 1.875-6.503 2.11-2.285.233-4.6-.177-6.943-1.231zm12.129-10.46c2.226-1.054 3.896-2.519 5.01-4.394 1.113-1.875 1.786-3.823 2.02-5.845.235-2.021.147-3.94-.263-5.756-.41-1.817-1.025-3.15-1.846-4-.82-.85-1.743-1.04-2.768-.57-1.025.468-1.978 1.933-2.857 4.394-.351 1.054-.585 2.3-.703 3.735a31.34 31.34 0 0 0-.044 4.395 34.62 34.62 0 0 0 .528 4.35c.263 1.406.571 2.637.923 3.692zm94.218 9.58c-.703 1.348-1.523 2.198-2.46 2.55-.938.351-1.846.41-2.725.175a6.527 6.527 0 0 1-2.417-1.23c-.733-.586-1.245-1.172-1.538-1.758l-1.23-54.932h-16.7c-1.172 0-2.05-.395-2.637-1.186a5.183 5.183 0 0 1-1.01-2.68c-.088-.997.087-1.993.527-2.99.44-.995 1.128-1.669 2.065-2.02 3.633-.118 7.412-.176 11.338-.176h11.91c4.013 0 8.056-.044 12.128-.132 4.073-.088 8.042-.308 11.91-.66 1.406.06 2.402.352 2.988.88.586.527.908 1.142.967 1.845.058.703-.088 1.45-.44 2.241a8.558 8.558 0 0 1-1.318 2.11c-.528.615-1.084 1.098-1.67 1.45-.586.352-1.055.44-1.406.264a120.714 120.714 0 0 0-9.756.044c-3.34.146-6.592.483-9.756 1.01l1.23 55.196zm49.307-7.47c-1.055 1.992-2.461 3.647-4.219 4.966a18.704 18.704 0 0 1-5.8 2.944c-2.11.645-4.322.952-6.636.923a22.596 22.596 0 0 1-6.724-1.099 24.122 24.122 0 0 1-6.108-2.988 18.006 18.006 0 0 1-4.79-4.746 36.982 36.982 0 0 1-4.307-11.865c-.762-4.219-.732-8.203.088-11.953s2.49-7.032 5.01-9.844c2.52-2.813 6.035-4.688 10.547-5.625 4.277-.293 7.66.22 10.15 1.538 2.491 1.318 4.19 3.105 5.099 5.361.908 2.256 1.084 4.761.527 7.515-.557 2.754-1.743 5.434-3.56 8.042-1.816 2.607-4.218 4.922-7.207 6.943-2.988 2.022-6.445 3.413-10.37 4.175 1.171 1.934 2.504 3.325 3.998 4.175 1.494.85 3.062 1.362 4.702 1.538a14.39 14.39 0 0 0 4.878-.308c1.612-.38 3.106-.85 4.483-1.406a70.5 70.5 0 0 0 3.647-1.582c1.055-.498 1.817-.835 2.285-1.01 2.11-.645 3.545-.645 4.307 0 .762.644.762 2.08 0 4.306zm-23.291-31.377a19.57 19.57 0 0 0-3.691 3.604 18.947 18.947 0 0 0-2.55 4.306 17.785 17.785 0 0 0-1.274 4.746 15.7 15.7 0 0 0 .132 4.834c2.461-.351 4.673-1.113 6.636-2.285 1.963-1.172 3.603-2.505 4.922-3.999 1.318-1.494 2.27-3.032 2.856-4.614.586-1.582.747-2.96.484-4.131-.264-1.172-1.011-2.022-2.242-2.549-1.23-.527-2.988-.498-5.273.088zm28.916 39.727c-.879-.645-1.465-1.304-1.758-1.978-.293-.674-.234-1.597.176-2.769 1.055-1.054 2.388-2.592 3.999-4.614a118.153 118.153 0 0 0 4.702-6.328 98.238 98.238 0 0 0 4.131-6.46c1.23-2.11 1.992-3.78 2.285-5.01l-11.601-13.798c-.645-1.114-.806-2.212-.484-3.296a5.649 5.649 0 0 1 1.758-2.725 7.307 7.307 0 0 1 2.9-1.538 4.138 4.138 0 0 1 3.12.352c.704.351 1.597 1.2 2.681 2.548a743.868 743.868 0 0 0 3.384 4.175c1.172 1.436 2.3 2.68 3.384 3.736 1.084 1.054 1.977 1.464 2.68 1.23.352-.293.909-.923 1.67-1.89.762-.966 1.64-2.036 2.637-3.208a69.78 69.78 0 0 1 3.208-3.515c1.143-1.172 2.285-2.095 3.428-2.769 1.142-.674 2.212-.996 3.208-.967.996.03 1.845.66 2.549 1.89.586 1.465.659 2.9.22 4.307-.44 1.406-1.129 2.754-2.066 4.043a29.38 29.38 0 0 1-3.252 3.735 91.537 91.537 0 0 0-3.384 3.472c-1.025 1.113-1.846 2.168-2.46 3.164-.616.996-.777 1.904-.484 2.724a44.99 44.99 0 0 0 3.56 4.483 527.139 527.139 0 0 1 3.91 4.394 73.941 73.941 0 0 1 3.648 4.483 25.26 25.26 0 0 1 2.856 4.834c.586 1.23.616 2.373.088 3.427a5.174 5.174 0 0 1-2.373 2.373c-1.054.528-2.197.733-3.427.616-1.23-.118-2.256-.703-3.077-1.758l-11.953-14.59c-.586.41-1.289 1.274-2.11 2.593a281.132 281.132 0 0 1-2.768 4.35 129.607 129.607 0 0 1-3.296 4.834c-1.171 1.641-2.402 3.033-3.691 4.175-1.29 1.143-2.607 1.89-3.955 2.241-1.348.352-2.695.03-4.043-.966zm62.05-32.08c-.292.117-.41.79-.35 2.021.058 1.23.19 2.783.395 4.658.205 1.875.454 3.985.747 6.328a95.34 95.34 0 0 1 .615 6.944 52.405 52.405 0 0 1-.044 6.46c-.146 2.021-.513 3.676-1.099 4.965-.586 1.29-1.45 2.095-2.592 2.417-1.143.323-2.681-.043-4.615-1.098l-2.109-32.695c-1.29-.235-2.344-.352-3.164-.352-.82 0-1.597.044-2.33.132-.732.088-1.537.176-2.416.263-.88.088-2.022.074-3.428-.043-1.055-.645-1.728-1.465-2.021-2.461-.293-.997-.044-1.978.747-2.945.79-.967 2.197-1.787 4.218-2.46 2.022-.675 4.82-1.011 8.394-1.011.41-.235.527-1.128.352-2.681-.176-1.553-.41-3.384-.704-5.493a89.612 89.612 0 0 1-.659-6.592c-.146-2.285.015-4.248.484-5.889.468-1.64 1.362-2.754 2.68-3.34 1.319-.586 3.296-.263 5.933.967.059 3.281.117 6.035.176 8.262.058 2.227.117 4.087.176 5.581.058 1.494.117 2.68.175 3.56a76.405 76.405 0 0 0 .352 3.911c.058.498.117 1.098.176 1.801 1.23.059 2.358.044 3.383-.043 1.026-.088 2.022-.176 2.989-.264a89.283 89.283 0 0 1 2.988-.22 32.524 32.524 0 0 1 3.384 0c1.289.293 2.226.82 2.812 1.582.586.762.865 1.582.835 2.461-.03.879-.38 1.714-1.054 2.505-.674.791-1.568 1.392-2.681 1.802l-12.744.967z"/></g></svg>
