<svg xmlns="http://www.w3.org/2000/svg" width="391" height="513"><g fill="none" fill-rule="evenodd"><path fill="#FFF" fill-rule="nonzero" d="M9.242 38.935c0 32.212 1.02 65.911-2.677 97.92-3.874 33.557-1.885 67.46-1.913 101.188-.017 21.27 1.882 42.457 1.344 63.721-.276 10.93-1.903 22.207-1.48 33.11.407 10.543 3.763 20.936 4.241 31.52.55 12.18-.33 24.768-1.49 36.878-2.242 23.391-8.026 52.135.318 74.771 2.35 6.374 8.906 11.053 14.788 14.363 12.017 6.762 28.072 8.072 41.567 8.217 7.488.08 15.046 1.428 22.444 2.808 11.025 2.058 24.053 2.782 35.223 2.802 18.465.033 36.516-.328 54.912 1.407 34.891 3.29 70.187 3.558 104.625-2.437 26.098-4.543 51.985-5.783 77.243-13.904 14.377-4.623 16.904-14.986 19.471-29.337 3.503-19.585-.265-39.738.582-59.296.997-23.02.214-46.029 1.075-68.938.425-11.3 1.03-22.545 1.516-33.842 1.068-24.738-5.25-48.14-4.723-72.776.61-28.422 3.488-56.73 4.838-85.116 1.021-21.455 2.923-44.458-8.57-63.167-8.309-13.525-20.486-25.675-27.753-39.897-3.495-6.839-6.834-16.265-12.724-21.443-9.253-8.134-19.077-7.73-30.584-7.095-13.077.723-27.279-.228-40.23-1.946-17.334-2.298-34.993-4.713-52.462-4.703-18.424.01-36.765-3.127-55.109-1.148-18.73 2.021-38.155 5.991-57.032 3.717-14.885-1.793-28.445-2.29-43.45-1.575-12.769.611-29.12-.92-37.246 11.236-4.387 6.565-4.05 13.007-6.744 22.962z"/><path fill="#000" fill-rule="nonzero" d="M388.025 297.241c-2.094-54.572-.15-109.076 1.255-163.583.278-10.75 2.352-22.304.728-32.97-1.877-12.32-11.142-23.274-18.352-33.013-9.322-12.592-18.419-25.212-27.618-37.888-5.94-8.187-11.128-17.93-20.822-22.1-14.305-6.154-32.999-4.273-48.235-5.057C257.872 1.75 240.98.517 223.822.58 188.33.71 152.693 2.114 117.21 1.672 98.63 1.442 80.224.468 61.62.955c-13.474.353-28.993-1.448-42.242 1.21C8.312 4.386 4.442 13.012 4.091 23.381c-.932 27.58-1.41 54.957-.66 82.554.684 30.591-.318 61.193-1.454 91.777C-.47 263.615.64 330.117 2.29 396.032c.731 29.17-5.783 62.073 4.015 90.3 8.081 23.28 34.805 22.227 55.297 23.04 30.14 1.196 60.527-.149 90.57 1.665a846.1 846.1 0 0 0 95.646.366c31.857-1.68 63.124-2.143 94.827-6.284 24.393-3.185 39.717-10.843 43.328-36.9 7.803-56.306 4.223-114.39 2.052-170.978zm-71.98-276.726c1.382.634 2.75 1.363 4.093 2.324 5.906 4.225 9.351 10.427 13.592 16.253 8.227 11.303 16.08 22.7 24.522 33.866 4.785 6.33 9.876 12.772 13.454 19.798-10.748.324-21.495.64-32.227 1.175-6.684.334-14.687 2.034-20.24-2.87-5.065-4.473-3.149-9.572-2.888-15.968.708-17.397 1.966-36.926-.306-54.578zm57.5 262.228c1.365 51.245 2.768 101.93 1.157 153.156-.362 11.517-.58 24.664-3.452 35.863-4.84 18.885-23.68 18.974-39.75 21.181-27.026 3.713-53.987 3.86-81.155 5.541-54.07 3.346-109.185 2.638-163.299.275-12.792-.559-25.613-.82-38.394-1.596-7.378-.448-15.558-.468-21.995-4.596-9.64-6.18-9.869-15.096-11.033-25.085-3.179-27.285-.102-54.948-.864-82.358-1.836-66.044-2.009-132.51-.22-198.56 1.007-37.165-.656-74.336-.092-111.504.143-9.444.421-18.886.93-28.317.366-6.816-.91-17.492 2.015-23.74 5.14-10.977 20.366-7.73 30.141-8 28.751-.794 57.447.723 86.152-.099 54.322-1.556 108.208-.552 162.442 2.383 3.397.184 6.63.281 9.735.614-2.667 7.94-1.234 18.924-1.41 25.993-.369 14.742-4.344 32.86-.96 47.25 2.608 11.1 11.412 14.578 21.954 16.215 15.99 2.482 34.284-.374 50.69-.945.152 1.16.27 2.33.303 3.526.288 10.297-.89 21.025-1.39 31.334-2.283 47.003-2.76 94.392-1.506 141.47z"/><path fill="#000" d="M64.262 144.629c-5.107 1.204-9.419 1.228-12.936.072-3.517-1.156-6.299-3.071-8.347-5.745-2.047-2.674-3.432-5.89-4.155-9.647-.722-3.758-.867-7.636-.433-11.635a46.206 46.206 0 0 1 2.854-11.707c1.47-3.806 3.36-7.082 5.673-9.828 2.072-2.313 4.312-3.686 6.72-4.12 2.41-.433 4.662-.108 6.758.976 2.095 1.084 3.902 2.818 5.42 5.203 1.517 2.385 2.444 5.24 2.782 8.564.192.433.144.94-.145 1.517a3.558 3.558 0 0 1-1.265 1.41 2.84 2.84 0 0 1-1.806.47c-.65-.049-1.217-.483-1.698-1.302-.868-3.227-1.915-5.564-3.144-7.01-1.228-1.445-2.469-2.276-3.722-2.493-1.252-.216-2.48.037-3.685.76a10.833 10.833 0 0 0-3.035 2.673c-2.554 4.288-4.252 8.395-5.095 12.321-.843 3.927-1.024 7.48-.542 10.66.482 3.18 1.518 5.865 3.107 8.057 1.59 2.192 3.517 3.698 5.782 4.517 2.264.819 4.77.83 7.515.036 2.746-.795 5.516-2.59 8.31-5.384.868.578 1.41 1.265 1.627 2.06.217.795.217 1.626 0 2.493s-.602 1.722-1.156 2.565a14.351 14.351 0 0 1-1.843 2.277c-.627.626-1.24 1.132-1.843 1.517-.602.386-1.168.627-1.698.723zm9.25-1.807c-.53-.144-1.024-.518-1.482-1.12a4.143 4.143 0 0 1-.83-1.987c-.097-.723.096-1.433.577-2.132.482-.699 1.397-1.192 2.746-1.481 6.986 1.975 12.888 2.95 17.706 2.926 4.817-.024 8.455-.65 10.912-1.879 2.457-1.228 3.649-2.854 3.577-4.878-.072-2.023-1.482-4.07-4.228-6.142-.915-.675-2.192-1.3-3.83-1.879a99.628 99.628 0 0 0-5.456-1.734c-2-.579-4.119-1.157-6.36-1.735a89.81 89.81 0 0 1-6.54-1.95c-1.396-.435-2.661-1.181-3.793-2.241a14.568 14.568 0 0 1-2.855-3.722 15.031 15.031 0 0 1-1.59-4.625 13.876 13.876 0 0 1 .037-4.986c.313-1.662.963-3.276 1.95-4.842.988-1.566 2.398-2.95 4.228-4.155 1.686-.867 3.553-1.602 5.6-2.204a34.538 34.538 0 0 1 6.324-1.229 30.545 30.545 0 0 1 6.468.036c2.144.241 4.155.76 6.034 1.554a16.177 16.177 0 0 1 4.986 3.288c1.446 1.397 2.554 3.156 3.325 5.275.096.675-.073 1.253-.506 1.735-.434.482-1.084.759-1.951.83-.868.073-1.88-.144-3.036-.65-1.156-.505-2.408-1.457-3.757-2.854-1.735-.964-3.794-1.493-6.18-1.59a26.505 26.505 0 0 0-6.937.614c-2.24.506-4.251 1.265-6.034 2.277-1.782 1.012-2.939 2.192-3.469 3.54-.53 1.35-.252 2.82.831 4.409 1.084 1.59 3.36 3.18 6.83 4.77 7.082 1.397 12.742 3.07 16.982 5.022 4.24 1.951 7.335 3.999 9.286 6.143 1.951 2.143 2.879 4.311 2.782 6.503-.096 2.193-.951 4.228-2.565 6.107-1.614 1.879-3.854 3.517-6.72 4.914-2.867 1.397-6.083 2.385-9.648 2.963-3.565.578-7.371.674-11.418.289-4.047-.385-8.046-1.445-11.996-3.18zm45.744 0c-.53-.144-1.024-.518-1.482-1.12a4.143 4.143 0 0 1-.83-1.987c-.097-.723.096-1.433.577-2.132.482-.699 1.398-1.192 2.747-1.481 6.985 1.975 12.887 2.95 17.705 2.926 4.817-.024 8.455-.65 10.912-1.879 2.457-1.228 3.65-2.854 3.577-4.878-.072-2.023-1.482-4.07-4.228-6.142-.915-.675-2.192-1.3-3.83-1.879a99.628 99.628 0 0 0-5.456-1.734c-2-.579-4.119-1.157-6.36-1.735a89.81 89.81 0 0 1-6.54-1.95c-1.396-.435-2.66-1.181-3.793-2.241a14.568 14.568 0 0 1-2.855-3.722 15.031 15.031 0 0 1-1.59-4.625 13.876 13.876 0 0 1 .037-4.986c.313-1.662.963-3.276 1.95-4.842.988-1.566 2.398-2.95 4.228-4.155 1.687-.867 3.553-1.602 5.601-2.204a34.538 34.538 0 0 1 6.323-1.229 30.545 30.545 0 0 1 6.468.036c2.144.241 4.155.76 6.034 1.554a16.177 16.177 0 0 1 4.987 3.288c1.445 1.397 2.553 3.156 3.324 5.275.096.675-.073 1.253-.506 1.735-.434.482-1.084.759-1.951.83-.868.073-1.88-.144-3.035-.65-1.157-.505-2.41-1.457-3.758-2.854-1.735-.964-3.794-1.493-6.179-1.59a26.505 26.505 0 0 0-6.937.614c-2.24.506-4.252 1.265-6.035 2.277-1.782 1.012-2.938 2.192-3.468 3.54-.53 1.35-.253 2.82.83 4.409 1.085 1.59 3.361 3.18 6.83 4.77 7.082 1.397 12.743 3.07 16.982 5.022 4.24 1.951 7.335 3.999 9.286 6.143 1.951 2.143 2.879 4.311 2.783 6.503-.097 2.193-.952 4.228-2.566 6.107-1.614 1.879-3.854 3.517-6.72 4.914-2.867 1.397-6.083 2.385-9.648 2.963-3.565.578-7.371.674-11.418.289-4.047-.385-8.046-1.445-11.996-3.18zm91.488 2.24c-1.012-1.011-1.662-2.818-1.951-5.42-.29-2.601-.434-5.84-.434-9.72 0-3.877-.012-8.31-.036-13.296-.024-4.986-.3-10.37-.83-16.151-.483 1.541-.687 3.047-.615 4.516.072 1.47.132 2.77.18 3.903.049 1.132-.036 2.023-.252 2.673-.217.65-.831.928-1.843.831-1.35-.915-2.325-2.023-2.927-3.324a9.771 9.771 0 0 1-.903-4.155c0-1.47.289-2.939.867-4.408a14.925 14.925 0 0 1 2.385-4.047 14.542 14.542 0 0 1 3.54-3.108 10.63 10.63 0 0 1 4.409-1.553c2.746-.386 5.372-.398 7.877-.036 2.505.36 4.733 1.047 6.685 2.06 1.95 1.01 3.553 2.3 4.805 3.865 1.253 1.566 2 3.36 2.24 5.384.241 2.024-.108 4.264-1.047 6.72-.94 2.458-2.59 5.06-4.95 7.806 2.842.481 5.227 1.336 7.154 2.565 1.927 1.229 3.408 2.65 4.444 4.264 1.036 1.614 1.638 3.348 1.807 5.203a12.575 12.575 0 0 1-.687 5.42c-.626 1.758-1.65 3.396-3.071 4.914-1.421 1.517-3.192 2.734-5.312 3.65-2.12.915-4.6 1.469-7.443 1.661-2.843.193-5.998-.168-9.467-1.084-.433.145-.71.338-.83.578-.121.241-.278.446-.47.615-.193.168-.519.253-.976.253-.458 0-1.24-.193-2.349-.578zm4.336-8.31c3.517 1.204 6.576 1.83 9.178 1.879 2.601.048 4.745-.265 6.431-.94 1.687-.674 2.927-1.614 3.722-2.818.795-1.204 1.144-2.445 1.048-3.722-.096-1.276-.614-2.493-1.554-3.649-.94-1.156-2.312-2.048-4.119-2.674-1.807-.626-4.023-.891-6.648-.795-2.626.097-5.65.795-9.07 2.096l1.012 10.623zm-.434-19.584c.193.289.76.325 1.699.108.94-.216 2.011-.65 3.216-1.3 1.204-.65 2.396-1.482 3.577-2.494a11.9 11.9 0 0 0 2.818-3.504c.699-1.325 1.024-2.77.976-4.336-.049-1.566-.699-3.216-1.952-4.95a6.037 6.037 0 0 0-2.167-1.59c-.868-.386-1.771-.65-2.71-.795-.94-.145-1.903-.181-2.891-.109-.988.073-1.915.18-2.782.325 0 3.036.048 6.047.144 9.034.097 2.987.12 6.19.072 9.611zm36.711 27.75c-2.168-1.06-3.842-2.541-5.022-4.444-1.18-1.903-1.951-4-2.313-6.287-.36-2.289-.36-4.674 0-7.155.362-2.48.976-4.89 1.843-7.226.867-2.337 1.927-4.469 3.18-6.396 1.253-1.927 2.601-3.493 4.047-4.697 2.65-2.024 5.107-3.228 7.37-3.613 2.265-.386 4.289-.169 6.071.65 1.783.819 3.336 2.12 4.661 3.902 1.325 1.783 2.361 3.818 3.108 6.107.747 2.288 1.192 4.745 1.337 7.37a30.311 30.311 0 0 1-.542 7.697 24.856 24.856 0 0 1-2.53 7.01c-1.18 2.168-2.746 3.95-4.697 5.348-1.951 1.397-4.288 2.288-7.01 2.673-2.722.386-5.89.073-9.503-.939zm5.565-5.998c2.023.193 3.842-.253 5.456-1.337 1.614-1.084 2.95-2.505 4.01-4.264 1.06-1.758 1.831-3.745 2.313-5.962.482-2.216.578-4.348.29-6.395-.29-2.048-.964-3.902-2.024-5.565-1.06-1.662-2.578-2.83-4.553-3.504-1.204-.241-2.469.144-3.794 1.156-1.325 1.012-2.53 2.373-3.613 4.083-1.084 1.71-1.975 3.637-2.674 5.781-.699 2.144-1.048 4.264-1.048 6.36 0 2.095.434 4.01 1.3 5.745.868 1.734 2.313 3.035 4.337 3.902zm22.547 6.432c-.723-.53-1.205-1.072-1.446-1.626-.24-.554-.192-1.313.145-2.277.867-.867 1.963-2.132 3.288-3.794a97.149 97.149 0 0 0 3.866-5.203 80.774 80.774 0 0 0 3.397-5.311c1.011-1.735 1.638-3.108 1.879-4.12l-9.54-11.345c-.53-.916-.662-1.819-.397-2.71a4.645 4.645 0 0 1 1.445-2.24 6.008 6.008 0 0 1 2.385-1.265 3.402 3.402 0 0 1 2.566.289c.578.29 1.312.988 2.204 2.096a611.588 611.588 0 0 0 2.782 3.432 36.47 36.47 0 0 0 2.782 3.072c.891.867 1.626 1.204 2.204 1.011.29-.24.747-.758 1.373-1.553a92.667 92.667 0 0 1 2.168-2.638 57.375 57.375 0 0 1 2.638-2.89c.94-.964 1.879-1.723 2.818-2.277.94-.554 1.819-.82 2.638-.795.82.024 1.518.542 2.096 1.554.482 1.204.542 2.384.18 3.54-.36 1.157-.927 2.265-1.698 3.325a24.157 24.157 0 0 1-2.674 3.071 75.264 75.264 0 0 0-2.782 2.855c-.843.915-1.517 1.782-2.023 2.601-.506.82-.639 1.566-.398 2.24a36.992 36.992 0 0 0 2.927 3.686 433.419 433.419 0 0 1 3.216 3.613 60.796 60.796 0 0 1 2.999 3.686 20.769 20.769 0 0 1 2.348 3.975c.482 1.011.506 1.95.073 2.818a4.254 4.254 0 0 1-1.951 1.951c-.868.434-1.807.602-2.819.506-1.012-.096-1.855-.578-2.53-1.445l-9.827-11.996c-.482.337-1.06 1.047-1.735 2.131a231.142 231.142 0 0 1-2.276 3.577c-.843 1.301-1.746 2.626-2.71 3.975-.963 1.35-1.975 2.493-3.035 3.433s-2.144 1.553-3.252 1.842c-1.108.29-2.216.025-3.324-.794zM44.316 246.135c-.819-.675-1.349-1.602-1.59-2.782-.24-1.18-.3-2.457-.18-3.83.12-1.374.337-2.77.65-4.192.313-1.421.578-2.71.795-3.866.217-1.156.313-2.108.29-2.855-.025-.746-.302-1.12-.832-1.12l-2.89.362c-1.783-1.012-2.963-2.012-3.541-3-.579-.987-.627-1.83-.145-2.529.482-.698 1.47-1.204 2.963-1.517 1.493-.313 3.42-.301 5.781.036.241-.482.446-1.072.614-1.77.17-.7.374-1.783.615-3.253.24-1.47.554-3.456.94-5.962.385-2.505.939-5.805 1.661-9.9.338-2.312.904-4.07 1.699-5.275.794-1.205 1.71-1.964 2.746-2.277 1.035-.313 2.107-.253 3.215.18 1.109.435 2.168 1.109 3.18 2.024 1.012.916 1.891 2 2.638 3.252.747 1.253 1.264 2.53 1.554 3.83.144.338.36.988.65 1.952.289.963.59 2.06.903 3.288.313 1.228.65 2.529 1.012 3.902.361 1.373.71 2.674 1.048 3.902.337 1.229.638 2.313.903 3.252.265.94.47 1.602.614 1.988.29 0 .783-.097 1.482-.29a31.481 31.481 0 0 1 2.348-.541c.868-.17 1.71-.277 2.53-.326.819-.048 1.517.097 2.095.434.579.337.928.927 1.048 1.77.12.844-.108 2.06-.686 3.65l-7.082 1.734 2.963 19.15c.048.29-.205.555-.76.796-.553.24-1.216.421-1.986.542-.771.12-1.53.12-2.277 0-.747-.12-1.289-.398-1.626-.832-.337-.867-.626-2.095-.867-3.685-.24-1.59-.458-3.264-.65-5.023-.193-1.758-.386-3.504-.579-5.239-.192-1.734-.409-3.204-.65-4.408l-.433-.434a15.46 15.46 0 0 0-2.963-.144c-.964.048-1.952.12-2.963.217a46.91 46.91 0 0 0-3.252.433 65.168 65.168 0 0 1-3.758.506l-2.457 17.127c-.145.434-.398.77-.759 1.012-.361.24-.783.397-1.264.47a3.28 3.28 0 0 1-1.446-.109 4.122 4.122 0 0 1-1.3-.65zm8.6-25.293c1.686 0 3.312-.048 4.878-.145 1.566-.096 3.216-.192 4.95-.289v-.433c-.626-1.398-1.108-2.94-1.445-4.625a481.167 481.167 0 0 0-1.048-5.095 51.271 51.271 0 0 0-1.3-4.95c-.507-1.59-1.241-2.963-2.205-4.12-.337.434-.65 1.157-.94 2.169a48.358 48.358 0 0 0-.83 3.432 58.841 58.841 0 0 0-.687 4.047 703.85 703.85 0 0 0-.542 4.083 544.06 544.06 0 0 1-.47 3.541 59.407 59.407 0 0 1-.361 2.385zm36.711 22.619c.337 1.204.289 2.132-.145 2.782-.433.65-1.06 1.048-1.878 1.193-.82.144-1.723.06-2.71-.253a6.242 6.242 0 0 1-2.566-1.554l-2.457-48.996c-.337-.867-.35-1.626-.036-2.277.313-.65.77-1.156 1.373-1.517a5.172 5.172 0 0 1 2.023-.687c.747-.096 1.422-.012 2.024.253a2.77 2.77 0 0 1 1.373 1.301c.313.602.325 1.41.036 2.421l2.963 47.334zm12.791-2.602c.337.916.446 1.807.325 2.674-.12.867-.397 1.638-.83 2.313a4.878 4.878 0 0 1-1.627 1.59c-.65.385-1.313.554-1.987.505-.675-.048-1.313-.349-1.915-.903-.602-.554-1.072-1.457-1.41-2.71-.096-.337-.18-1.168-.252-2.493a172.6 172.6 0 0 1-.181-4.661c-.048-1.783-.096-3.698-.145-5.745-.048-2.048-.096-3.963-.144-5.745a508.272 508.272 0 0 0-.145-4.662c-.048-1.324-.12-2.18-.216-2.565-.338-2.36-.362-4.276-.073-5.745.29-1.47.735-2.578 1.337-3.324.602-.747 1.289-1.157 2.06-1.229.77-.072 1.481.133 2.132.614.65.482 1.168 1.217 1.553 2.205.386.987.506 2.155.362 3.504l1.156 26.377zm-5.203-38.445c-1.06-.819-1.698-1.722-1.915-2.71-.217-.988-.145-1.867.217-2.638.36-.77.94-1.324 1.734-1.662.795-.337 1.65-.289 2.565.145 1.06.578 1.71 1.397 1.952 2.457.24 1.06.192 2.035-.145 2.927-.337.89-.903 1.541-1.698 1.95-.795.41-1.698.254-2.71-.469zm32.014 74c-2.891-.674-5.3-1.758-7.227-3.252-1.927-1.493-3.276-2.975-4.047-4.444-.77-1.47-.891-2.746-.361-3.83s1.806-1.554 3.83-1.41c2.264 2.168 4.444 3.626 6.54 4.373 2.096.746 4.01.879 5.745.397 1.734-.482 3.204-1.518 4.408-3.107 1.205-1.59 2.024-3.614 2.457-6.07.434-2.458.422-5.312-.036-8.564-.458-3.252-1.481-6.781-3.071-10.587-1.35 1.782-2.939 3.228-4.77 4.336a17.373 17.373 0 0 1-5.781 2.24 16.977 16.977 0 0 1-6.143.036 15.055 15.055 0 0 1-5.78-2.312c-1.783-1.18-3.361-2.758-4.734-4.734-1.373-1.975-2.373-4.408-3-7.298-.288-3.566-.096-6.854.579-9.865.674-3.01 1.722-5.636 3.143-7.877 1.422-2.24 3.156-4.07 5.204-5.492a16.848 16.848 0 0 1 6.756-2.782c2.457-.434 5.071-.301 7.841.397 2.77.699 5.577 2.012 8.42 3.939.336 2.312.902 5.07 1.697 8.274a3642.55 3642.55 0 0 1 2.53 10.262 268.4 268.4 0 0 1 2.493 11.237c.77 3.854 1.313 7.588 1.626 11.201.313 3.614.313 7.01 0 10.19-.313 3.18-1.144 5.926-2.493 8.238-1.35 2.313-3.3 4.06-5.854 5.24-2.553 1.18-5.877 1.601-9.972 1.264zm-14.743-50.658c0 3.276.482 5.914 1.446 7.913.963 2 2.192 3.457 3.685 4.372a8.193 8.193 0 0 0 4.842 1.229 11.408 11.408 0 0 0 4.95-1.446c1.566-.867 2.915-2.071 4.047-3.613 1.132-1.542 1.819-3.324 2.06-5.348a39.713 39.713 0 0 1-.65-3.216 115.55 115.55 0 0 0-.651-3.613 64.45 64.45 0 0 0-.795-3.54 26.238 26.238 0 0 0-.94-3c-.963-1.252-2.083-2.06-3.36-2.42a7.646 7.646 0 0 0-3.902-.073c-1.325.313-2.626.891-3.903 1.734a16.425 16.425 0 0 0-3.432 3.036 16.189 16.189 0 0 0-2.457 3.83c-.627 1.373-.94 2.758-.94 4.155zm43.649 17.85c0 1.493-.398 2.493-1.193 2.998a3.524 3.524 0 0 1-2.601.506c-.94-.168-1.807-.59-2.602-1.264-.795-.675-1.24-1.47-1.337-2.385a483.65 483.65 0 0 0 .036-15.718 666.088 666.088 0 0 0-.47-17.524c.386-1.301 1.049-2.12 1.988-2.457.94-.338 1.843-.23 2.71.325.867.554 1.53 1.542 1.987 2.963.458 1.421.398 3.24-.18 5.456 3.083-4.529 5.974-7.492 8.672-8.889 2.697-1.397 5.179-1.686 7.443-.867 2.264.819 4.252 2.493 5.962 5.022 1.71 2.53 3.12 5.456 4.227 8.78a50.953 50.953 0 0 1 2.277 10.443c.41 3.638.421 6.974.036 10.009.048 1.253-.325 2.192-1.12 2.818-.795.627-1.662.976-2.602 1.048a3.877 3.877 0 0 1-2.565-.686c-.771-.53-1.108-1.35-1.012-2.457.337-6.07.205-10.985-.397-14.743-.603-3.757-1.47-6.564-2.602-8.419-1.132-1.854-2.445-2.878-3.938-3.07-1.494-.194-3 .204-4.517 1.192-1.518.987-2.963 2.469-4.336 4.444-1.373 1.975-2.481 4.191-3.324 6.648s-1.361 5.07-1.554 7.841c-.193 2.77.145 5.432 1.012 7.985zm41.336.794c-.241 1.108-.795 1.903-1.662 2.385a5.64 5.64 0 0 1-2.783.723c-.987 0-1.927-.241-2.818-.723s-1.481-1.156-1.77-2.023a289.627 289.627 0 0 1-.181-8.672 438.721 438.721 0 0 0-.18-9.72 159.455 159.455 0 0 0-.543-9.358c-.265-2.987-.662-5.492-1.192-7.516-.097-1.06.072-1.963.506-2.71.433-.747 1-1.265 1.698-1.554.698-.289 1.47-.277 2.312.037.844.313 1.602.975 2.277 1.987l.94 6.937c1.59-2.601 3.396-4.384 5.42-5.347 2.023-.964 3.938-1.205 5.744-.723 1.807.482 3.385 1.638 4.734 3.469 1.349 1.83 2.168 4.24 2.457 7.226.096-.819.554-1.83 1.373-3.035.819-1.204 1.867-2.42 3.143-3.65a26.563 26.563 0 0 1 4.264-3.323c1.566-.988 3.144-1.687 4.733-2.096 1.59-.41 3.132-.41 4.625 0 1.494.41 2.795 1.409 3.903 2.999.578.915 1.072 2.192 1.481 3.83.41 1.638.747 3.457 1.012 5.456.265 2 .506 4.095.723 6.287.216 2.192.421 4.3.614 6.323.192 2.024.41 3.903.65 5.637.241 1.734.554 3.132.94 4.191.144 1.446-.085 2.686-.687 3.722-.602 1.036-1.337 1.735-2.204 2.096-.867.361-1.758.337-2.674-.072-.915-.41-1.638-1.313-2.168-2.71.193-7.323-.084-13.2-.83-17.633-.748-4.432-1.723-7.588-2.928-9.467-1.204-1.879-2.54-2.59-4.01-2.132-1.47.458-2.819 1.915-4.047 4.372-1.229 2.457-2.253 5.794-3.072 10.01-.819 4.215-1.18 9.14-1.083 14.777-.338.964-.807 1.662-1.41 2.096a3.326 3.326 0 0 1-1.987.65c-.723 0-1.47-.204-2.24-.614a7.314 7.314 0 0 1-2.096-1.698c.145-5.059-.084-9.551-.686-13.478-.603-3.926-1.386-7.045-2.35-9.358-.963-2.312-1.998-3.746-3.107-4.3-1.108-.554-2.095 0-2.962 1.662-.868 1.662-1.506 4.529-1.915 8.6-.41 4.07-.398 9.551.036 16.44zm77.54-4.914a12.12 12.12 0 0 1-3.468 4.083 15.378 15.378 0 0 1-4.77 2.421c-1.734.53-3.553.783-5.456.759a18.579 18.579 0 0 1-5.528-.903 19.834 19.834 0 0 1-5.022-2.457 14.805 14.805 0 0 1-3.939-3.903 30.407 30.407 0 0 1-3.54-9.756c-.627-3.468-.603-6.744.071-9.828.675-3.083 2.048-5.78 4.12-8.093 2.071-2.313 4.962-3.855 8.671-4.625 3.517-.241 6.3.18 8.347 1.264 2.048 1.084 3.445 2.554 4.191 4.408.747 1.855.892 3.915.434 6.18-.458 2.263-1.433 4.468-2.927 6.611-1.493 2.144-3.468 4.047-5.925 5.71-2.458 1.662-5.3 2.806-8.528 3.432.964 1.59 2.06 2.734 3.288 3.433a9.884 9.884 0 0 0 3.866 1.264c1.35.145 2.686.06 4.011-.253a25.445 25.445 0 0 0 3.686-1.156 57.967 57.967 0 0 0 2.999-1.3c.867-.41 1.493-.687 1.879-.832 1.734-.53 2.914-.53 3.54 0 .627.53.627 1.71 0 3.541zm-19.15-25.798a16.091 16.091 0 0 0-3.035 2.962 15.578 15.578 0 0 0-2.096 3.541 14.623 14.623 0 0 0-1.047 3.903 12.909 12.909 0 0 0 .108 3.974c2.023-.289 3.842-.915 5.456-1.879 1.614-.963 2.963-2.06 4.047-3.288 1.084-1.228 1.867-2.493 2.349-3.794.481-1.3.614-2.433.397-3.396-.217-.964-.831-1.662-1.843-2.096-1.011-.433-2.457-.41-4.336.072zm30.858 29.917c0 1.494-.398 2.494-1.193 3a3.524 3.524 0 0 1-2.601.505c-.94-.168-1.807-.59-2.602-1.264-.795-.675-1.24-1.47-1.337-2.385.097-4.914.109-10.153.036-15.718a666.088 666.088 0 0 0-.47-17.524c.386-1.301 1.049-2.12 1.988-2.457.94-.338 1.843-.23 2.71.325.867.554 1.53 1.542 1.987 2.963.458 1.421.398 3.24-.18 5.456 3.083-4.529 5.974-7.492 8.672-8.889 2.697-1.397 5.179-1.686 7.443-.867 2.264.819 4.251 2.493 5.962 5.022 1.71 2.53 3.12 5.456 4.227 8.78a50.953 50.953 0 0 1 2.277 10.443c.41 3.638.421 6.974.036 10.009.048 1.253-.325 2.192-1.12 2.818-.795.627-1.662.976-2.602 1.048a3.877 3.877 0 0 1-2.565-.686c-.771-.53-1.108-1.35-1.012-2.457.337-6.07.205-10.985-.397-14.743-.603-3.757-1.47-6.564-2.602-8.419-1.132-1.854-2.445-2.878-3.938-3.07-1.494-.194-3 .204-4.517 1.192-1.518.987-2.963 2.469-4.336 4.444-1.373 1.975-2.481 4.191-3.324 6.648s-1.361 5.07-1.554 7.841c-.193 2.77.145 5.432 1.012 7.985zm44.515-23.63c-.24.096-.337.65-.289 1.662.048 1.011.157 2.288.326 3.83.168 1.541.373 3.276.614 5.203.24 1.927.41 3.83.506 5.709.096 1.879.084 3.65-.037 5.311-.12 1.663-.421 3.024-.903 4.083-.482 1.06-1.192 1.723-2.132 1.988-.94.265-2.204-.036-3.794-.904l-1.734-26.882c-1.06-.193-1.927-.29-2.602-.29-.674 0-1.312.037-1.915.109-.602.072-1.264.144-1.987.217-.723.072-1.662.06-2.818-.036-.867-.53-1.421-1.205-1.662-2.024-.241-.819-.036-1.626.614-2.42.65-.796 1.807-1.47 3.469-2.024s3.962-.831 6.901-.831c.337-.193.434-.928.29-2.204a183.39 183.39 0 0 0-.579-4.517 73.68 73.68 0 0 1-.542-5.42c-.12-1.879.012-3.493.397-4.842.386-1.349 1.12-2.264 2.205-2.746 1.084-.482 2.71-.217 4.877.795.049 2.698.097 4.962.145 6.793.048 1.83.096 3.36.145 4.589.048 1.229.096 2.204.144 2.927a62.823 62.823 0 0 0 .29 3.216c.047.41.095.903.144 1.481 1.011.048 1.939.036 2.782-.036s1.662-.145 2.457-.217a73.41 73.41 0 0 1 2.457-.18c.843-.049 1.77-.049 2.782 0 1.06.24 1.83.674 2.313 1.3.481.627.71 1.301.686 2.024-.024.722-.313 1.409-.867 2.06-.554.65-1.289 1.143-2.204 1.48l-10.479.796zM89.916 345.039c.337 1.204.18 2.216-.47 3.035a5.019 5.019 0 0 1-2.42 1.698 5.141 5.141 0 0 1-2.891.109c-.964-.241-1.614-.843-1.951-1.807l-.362-42.492a54.04 54.04 0 0 0-5.311 6.901 127.807 127.807 0 0 0-4.59 7.624 642.401 642.401 0 0 0-4.227 7.733 112.148 112.148 0 0 1-4.227 7.226c-.82.916-1.686 1.47-2.602 1.663a5.032 5.032 0 0 1-2.674-.145 7.081 7.081 0 0 1-2.42-1.41A7.36 7.36 0 0 1 54 332.899l-8.094-20.595a539.654 539.654 0 0 0 0 12.538c.048 3.444.109 6.323.18 8.636.073 2.312.157 4.155.254 5.528.096 1.373.205 2.469.325 3.288a71.1 71.1 0 0 0 .29 1.843c.071.41.132.807.18 1.192.096 1.06-.23 1.843-.976 2.349-.747.506-1.602.759-2.565.759a5.593 5.593 0 0 1-2.71-.687c-.843-.458-1.313-1.12-1.41-1.987l-1.878-50.442c0-.385.289-.734.867-1.048a4.702 4.702 0 0 1 1.951-.542 4.693 4.693 0 0 1 2.132.362c.698.289 1.192.843 1.481 1.662a365.312 365.312 0 0 1 7.769 15.284 386.67 386.67 0 0 1 6.974 15.429c1.541-2.168 3.119-4.637 4.733-7.407a2518.28 2518.28 0 0 1 4.842-8.275 203.284 203.284 0 0 1 4.842-7.84c1.613-2.482 3.215-4.517 4.805-6.107 1.59-1.59 3.168-2.626 4.734-3.108 1.565-.481 3.119-.096 4.66 1.157l2.53 50.152zm10.623 1.879c-2.168-1.06-3.842-2.541-5.022-4.444-1.18-1.903-1.952-4-2.313-6.287-.361-2.289-.361-4.674 0-7.155.361-2.48.976-4.89 1.843-7.226.867-2.337 1.927-4.469 3.18-6.396 1.252-1.927 2.601-3.493 4.046-4.697 2.65-2.024 5.107-3.228 7.372-3.613 2.264-.386 4.287-.169 6.07.65 1.782.819 3.336 2.12 4.661 3.902 1.325 1.783 2.36 3.818 3.107 6.107.747 2.288 1.193 4.745 1.337 7.37a30.311 30.311 0 0 1-.542 7.697 24.856 24.856 0 0 1-2.529 7.01c-1.18 2.168-2.746 3.95-4.697 5.348-1.951 1.397-4.288 2.288-7.01 2.673-2.722.386-5.89.073-9.503-.939zm5.565-5.998c2.023.193 3.842-.253 5.456-1.337 1.614-1.084 2.95-2.505 4.01-4.264 1.06-1.758 1.831-3.745 2.313-5.962.482-2.216.578-4.348.289-6.395-.29-2.048-.964-3.902-2.024-5.565-1.06-1.662-2.577-2.83-4.552-3.504-1.205-.241-2.47.144-3.794 1.156-1.325 1.012-2.53 2.373-3.614 4.083s-1.975 3.637-2.673 5.781c-.699 2.144-1.048 4.264-1.048 6.36 0 2.095.433 4.01 1.3 5.745.868 1.734 2.313 3.035 4.337 3.902zm33.242 6.865c-3.132-.77-5.697-2.264-7.697-4.48a19.804 19.804 0 0 1-4.3-7.624c-.867-2.867-1.18-5.89-.939-9.07.241-3.18 1.024-6.13 2.349-8.852 1.325-2.722 3.192-5.035 5.6-6.938 2.41-1.903 5.348-3.023 8.817-3.36 1.686-.145 3.469-.12 5.347.072 1.88.193 3.59.675 5.131 1.446l-.94-14.237c0-.578.422-1.012 1.265-1.3.844-.29 1.771-.41 2.783-.362a6.11 6.11 0 0 1 2.782.795c.843.482 1.265 1.229 1.265 2.24l4.697 49.069c.096.915-.133 1.638-.687 2.168a3.855 3.855 0 0 1-2.023 1.011 5.186 5.186 0 0 1-2.421-.144c-.819-.241-1.397-.675-1.734-1.301-.097-.145-.23-.482-.398-1.012s-.35-1.108-.542-1.734a249.99 249.99 0 0 1-.506-1.662c-.144-.482-.24-.723-.289-.723-1.879 1.879-3.697 3.288-5.456 4.228-1.758.94-3.408 1.565-4.95 1.879-1.542.313-2.927.421-4.155.325-1.229-.097-2.228-.241-3-.434zm-5.565-16.26c.675 2.65 1.566 4.782 2.674 6.396 1.108 1.614 2.325 2.77 3.65 3.469a7.502 7.502 0 0 0 4.19.867c1.47-.12 2.904-.566 4.3-1.337 1.398-.77 2.723-1.807 3.975-3.108 1.253-1.3 2.337-2.818 3.252-4.552.434-.867.687-1.843.76-2.927a15.913 15.913 0 0 0-.145-3.36 31.251 31.251 0 0 0-.723-3.505c-.313-1.18-.614-2.325-.903-3.433-1.35-2.65-2.879-4.504-4.59-5.564-1.71-1.06-3.432-1.53-5.166-1.41-1.735.121-3.397.747-4.987 1.88-1.59 1.132-2.938 2.565-4.047 4.3-1.108 1.734-1.89 3.673-2.348 5.817-.458 2.144-.422 4.3.108 6.467zm47.19 16.477c-2.072-.723-3.806-1.891-5.203-3.505-1.398-1.614-2.53-3.493-3.397-5.637-.867-2.144-1.53-4.444-1.987-6.901a64.24 64.24 0 0 1-.94-7.371 89.061 89.061 0 0 1-.216-7.046c.024-2.24.084-4.203.18-5.89.097-.915.446-1.59 1.048-2.023.602-.434 1.3-.663 2.096-.687a5.392 5.392 0 0 1 2.348.47c.771.337 1.373.795 1.807 1.373.337.482.566 1.494.687 3.035.12 1.542.216 3.337.289 5.384.072 2.048.168 4.191.289 6.432.12 2.24.361 4.336.722 6.287.362 1.951.88 3.625 1.554 5.022.675 1.397 1.638 2.216 2.89 2.457 1.928-.048 3.457-.602 4.59-1.662 1.132-1.06 1.95-2.445 2.457-4.155.505-1.71.758-3.637.758-5.781 0-2.144-.144-4.324-.433-6.54a74.437 74.437 0 0 0-1.12-6.432c-.458-2.072-.88-3.878-1.265-5.42-.24-1.156-.06-1.903.542-2.24.602-.337 1.361-.422 2.276-.253.916.169 1.855.494 2.819.976.963.481 1.662.987 2.095 1.517 1.012 2.12 1.807 4.601 2.385 7.443a40.47 40.47 0 0 1 .795 8.745 41.118 41.118 0 0 1-1.084 8.78c-.674 2.866-1.734 5.372-3.18 7.516a14.587 14.587 0 0 1-5.6 4.95c-2.289 1.156-5.023 1.541-8.202 1.156zm33.314-3.541c.337 1.204.29 2.132-.144 2.782-.434.65-1.06 1.048-1.88 1.193-.818.144-1.722.06-2.71-.253a6.242 6.242 0 0 1-2.565-1.554l-2.457-48.996c-.337-.867-.349-1.626-.036-2.277.313-.65.771-1.156 1.373-1.517a5.172 5.172 0 0 1 2.024-.687c.746-.096 1.42-.012 2.023.253a2.77 2.77 0 0 1 1.373 1.301c.313.602.325 1.41.036 2.421l2.963 47.334zm35.41-3.975a12.12 12.12 0 0 1-3.468 4.083 15.378 15.378 0 0 1-4.77 2.421c-1.734.53-3.553.783-5.456.759a18.579 18.579 0 0 1-5.528-.903 19.834 19.834 0 0 1-5.023-2.457 14.805 14.805 0 0 1-3.938-3.903 30.407 30.407 0 0 1-3.541-9.756c-.627-3.468-.603-6.744.072-9.828.674-3.083 2.047-5.78 4.12-8.093 2.07-2.313 4.961-3.855 8.671-4.625 3.517-.241 6.3.18 8.347 1.264 2.047 1.084 3.444 2.554 4.191 4.408.747 1.855.891 3.915.434 6.18-.458 2.263-1.434 4.468-2.927 6.611-1.494 2.144-3.469 4.047-5.926 5.71-2.457 1.662-5.3 2.806-8.527 3.432.963 1.59 2.06 2.734 3.288 3.433a9.884 9.884 0 0 0 3.866 1.264c1.349.145 2.686.06 4.01-.253a25.445 25.445 0 0 0 3.686-1.156 57.967 57.967 0 0 0 3-1.3c.867-.41 1.493-.687 1.878-.832 1.735-.53 2.915-.53 3.541 0 .627.53.627 1.71 0 3.541zm-19.15-25.798a16.091 16.091 0 0 0-3.035 2.962 15.578 15.578 0 0 0-2.096 3.541 14.623 14.623 0 0 0-1.048 3.903 12.909 12.909 0 0 0 .109 3.974c2.023-.289 3.842-.915 5.456-1.879 1.614-.963 2.963-2.06 4.047-3.288 1.084-1.228 1.866-2.493 2.348-3.794.482-1.3.614-2.433.398-3.396-.217-.964-.831-1.662-1.843-2.096-1.012-.433-2.457-.41-4.336.072zM41.787 446.833c-.819-3.324-1.36-6.974-1.626-10.948-.265-3.975-.446-7.95-.542-11.924-.096-3.975-.205-7.829-.325-11.563-.12-3.733-.47-7.021-1.048-9.864-.096-1.83.18-3.372.831-4.625.65-1.252 1.397-2.12 2.24-2.601.843-.482 1.675-.53 2.494-.145.819.385 1.397 1.253 1.734 2.602.337 3.902.518 7.624.542 11.165.024 3.54.024 7.058 0 10.55-.024 3.493.012 7.034.108 10.623.097 3.59.41 7.408.94 11.455 1.83 0 3.456-.073 4.878-.217a45.275 45.275 0 0 0 4.3-.65c1.445-.29 3.035-.627 4.769-1.012 1.734-.386 3.854-.82 6.36-1.301 1.011.53 1.806 1.168 2.384 1.915.578.747.928 1.481 1.048 2.204.12.723.012 1.397-.325 2.023-.337.627-.916 1.036-1.735 1.229-1.204.193-2.685.47-4.444.831-1.758.361-3.601.735-5.528 1.12-1.927.386-3.854.723-5.781 1.012-1.928.289-3.686.446-5.276.47-1.59.024-2.927-.133-4.01-.47-1.085-.337-1.747-.964-1.988-1.879zm60.486-5.348a12.12 12.12 0 0 1-3.468 4.083 15.378 15.378 0 0 1-4.77 2.421c-1.734.53-3.553.783-5.456.759a18.579 18.579 0 0 1-5.528-.903 19.834 19.834 0 0 1-5.023-2.457 14.805 14.805 0 0 1-3.938-3.903 30.407 30.407 0 0 1-3.541-9.756c-.626-3.468-.602-6.744.072-9.828.675-3.083 2.048-5.78 4.12-8.093 2.07-2.313 4.961-3.855 8.671-4.625 3.517-.241 6.3.18 8.347 1.264 2.047 1.084 3.444 2.554 4.191 4.408.747 1.855.891 3.915.434 6.18-.458 2.263-1.433 4.468-2.927 6.611-1.493 2.144-3.469 4.047-5.926 5.71-2.457 1.662-5.3 2.806-8.527 3.432.963 1.59 2.06 2.734 3.288 3.433a9.884 9.884 0 0 0 3.866 1.264c1.35.145 2.686.06 4.01-.253a25.445 25.445 0 0 0 3.686-1.156 57.967 57.967 0 0 0 3-1.3c.867-.41 1.493-.687 1.878-.832 1.735-.53 2.915-.53 3.541 0 .627.53.627 1.71 0 3.541zm-19.15-25.798a16.092 16.092 0 0 0-3.035 2.962 15.578 15.578 0 0 0-2.096 3.541 14.623 14.623 0 0 0-1.048 3.903 12.909 12.909 0 0 0 .109 3.974c2.023-.289 3.842-.915 5.456-1.879 1.614-.963 2.963-2.06 4.047-3.288 1.084-1.228 1.867-2.493 2.348-3.794.482-1.3.615-2.433.398-3.396-.217-.964-.831-1.662-1.843-2.096-1.012-.433-2.457-.41-4.336.072zm42.709 30.496c-.819 1.493-1.819 2.433-2.999 2.818-1.18.385-2.47.024-3.866-1.084l-1.337-1.987c-.795-1.18-1.975-3.084-3.541-5.71-1.566-2.625-3.53-6.07-5.89-10.333-2.36-4.264-5.155-9.551-8.383-15.863-.53-.819-.722-1.65-.578-2.493.145-.843.494-1.553 1.048-2.132.554-.578 1.253-.975 2.096-1.192.843-.217 1.698-.157 2.565.18.482.193 1.06.784 1.735 1.771.674.988 1.409 2.204 2.204 3.65a161.952 161.952 0 0 1 2.529 4.805c.891 1.759 1.783 3.505 2.674 5.24a436.586 436.586 0 0 0 2.601 4.986c.844 1.59 1.626 2.927 2.35 4.01.722 1.085 1.372 1.855 1.95 2.313.578.458 1.036.422 1.373-.108.145-.241.374-.795.687-1.662.313-.868.674-1.915 1.084-3.144.41-1.228.843-2.517 1.3-3.866a764.2 764.2 0 0 0 1.301-3.866c.41-1.229.771-2.277 1.084-3.144.313-.867.518-1.421.615-1.662.24-.626.53-1.41.867-2.349a45.14 45.14 0 0 1 1.156-2.89 17.07 17.07 0 0 1 1.481-2.71c.555-.82 1.169-1.41 1.843-1.77.675-.362 1.41-.422 2.204-.181.795.24 1.699.963 2.71 2.168.29.337.47.758.542 1.264.073.506-.024 1.253-.289 2.24-.265.988-.698 2.277-1.3 3.867a251.139 251.139 0 0 1-2.494 6.25c-1.06 2.578-2.36 5.71-3.902 9.395a1345.323 1345.323 0 0 0-5.42 13.189zm47.695-4.698a12.12 12.12 0 0 1-3.468 4.083 15.378 15.378 0 0 1-4.77 2.421c-1.734.53-3.553.783-5.456.759a18.579 18.579 0 0 1-5.528-.903 19.834 19.834 0 0 1-5.023-2.457 14.805 14.805 0 0 1-3.938-3.903 30.407 30.407 0 0 1-3.541-9.756c-.627-3.468-.602-6.744.072-9.828.674-3.083 2.048-5.78 4.12-8.093 2.07-2.313 4.961-3.855 8.671-4.625 3.517-.241 6.3.18 8.347 1.264 2.047 1.084 3.444 2.554 4.191 4.408.747 1.855.891 3.915.434 6.18-.458 2.263-1.434 4.468-2.927 6.611-1.494 2.144-3.469 4.047-5.926 5.71-2.457 1.662-5.3 2.806-8.527 3.432.963 1.59 2.06 2.734 3.288 3.433a9.884 9.884 0 0 0 3.866 1.264c1.35.145 2.686.06 4.01-.253a25.445 25.445 0 0 0 3.686-1.156 57.967 57.967 0 0 0 3-1.3c.867-.41 1.493-.687 1.878-.832 1.735-.53 2.915-.53 3.541 0 .627.53.627 1.71 0 3.541zm-19.15-25.798a16.091 16.091 0 0 0-3.035 2.962 15.578 15.578 0 0 0-2.096 3.541 14.623 14.623 0 0 0-1.048 3.903 12.909 12.909 0 0 0 .109 3.974c2.023-.289 3.842-.915 5.456-1.879 1.614-.963 2.963-2.06 4.047-3.288 1.084-1.228 1.866-2.493 2.348-3.794.482-1.3.614-2.433.398-3.396-.217-.964-.831-1.662-1.843-2.096-1.012-.433-2.457-.41-4.336.072zm30.568 29.773c.338 1.204.29 2.132-.144 2.782-.434.65-1.06 1.048-1.88 1.193-.818.144-1.721.06-2.71-.253a6.242 6.242 0 0 1-2.565-1.554l-2.457-48.996c-.337-.867-.349-1.626-.036-2.277.313-.65.771-1.156 1.373-1.517a5.172 5.172 0 0 1 2.024-.687c.747-.096 1.421-.012 2.023.253a2.77 2.77 0 0 1 1.373 1.301c.313.602.325 1.41.036 2.421l2.963 47.334zm58.174-31.508c3.854-.048 6.962.638 9.322 2.06 2.361 1.42 4.071 3.24 5.131 5.456 1.06 2.216 1.518 4.66 1.373 7.335-.144 2.674-.795 5.275-1.95 7.804a22.831 22.831 0 0 1-4.77 6.793c-2.024 2-4.409 3.433-7.155 4.3-2.746.867-5.769 1-9.069.398-3.3-.603-6.805-2.253-10.515-4.95-.192-.53-.132-1.036.181-1.518a4.965 4.965 0 0 1 1.265-1.3 8.7 8.7 0 0 1 1.734-.977c.626-.264 1.156-.445 1.59-.541 1.879 1.445 3.866 2.336 5.962 2.673 2.095.338 4.083.241 5.962-.289a13.545 13.545 0 0 0 5.094-2.71c1.518-1.276 2.674-2.758 3.47-4.444.794-1.686 1.131-3.517 1.01-5.492-.12-1.975-.878-3.975-2.275-5.998-1.253-1.157-2.626-1.927-4.12-2.313a17.73 17.73 0 0 0-4.444-.578c-1.47 0-2.866.072-4.191.217-1.325.144-2.457.169-3.397.072-.94-.096-1.638-.421-2.096-.975-.457-.554-.542-1.554-.252-3 1.156-.626 2.408-1.517 3.757-2.673a32.658 32.658 0 0 0 3.83-3.903 29.228 29.228 0 0 0 3.144-4.588c.891-1.614 1.457-3.168 1.698-4.662-.433-.048-1.252.012-2.457.181a93.994 93.994 0 0 1-4.083.47 94.366 94.366 0 0 1-4.661.325c-1.59.072-2.999 0-4.228-.217-1.228-.217-2.155-.614-2.782-1.192-.626-.578-.698-1.446-.217-2.602.241-.626.59-1.084 1.048-1.373a4.14 4.14 0 0 1 1.518-.578 9.893 9.893 0 0 1 1.698-.144c.578 0 1.132-.025 1.662-.073 2.795-.24 5.372-.421 7.733-.542 2.36-.12 4.408-.048 6.142.217 1.735.265 3.084.77 4.047 1.518.964.746 1.433 1.867 1.41 3.36-.025 1.493-.603 3.409-1.735 5.745-1.132 2.337-2.927 5.24-5.384 8.708z"/></g></svg>