<svg xmlns="http://www.w3.org/2000/svg" xmlns:xlink="http://www.w3.org/1999/xlink" viewBox="0 0 1588 287"><defs><path id="a" d="M1056 0h532v283h-532V0z"/><mask id="d" width="532" height="283" x="0" y="0" fill="#fff"><use xlink:href="#a"/></mask><path id="b" d="M0 0h482v283H0V0z"/><mask id="e" width="482" height="283" x="0" y="0" fill="#fff"><use xlink:href="#b"/></mask><path id="c" d="M528 0h482v283H528V0z"/><mask id="f" width="482" height="283" x="0" y="0" fill="#fff"><use xlink:href="#c"/></mask></defs><g fill="none" fill-rule="evenodd" transform="translate(0 2)"><use stroke="#1D877A" stroke-dasharray="18" stroke-width="12" mask="url(#d)" xlink:href="#a"/><g transform="translate(1085 56)"><path fill="#FFF" stroke="#1D877A" stroke-linecap="square" stroke-width="3" d="M125.729 57.031c.823-.879-8.562-19.796-10.14-20.974-1.576-1.178-91.65-1.374-93.136 0-.72.666 2.684 5.223 5.506 10.143 3.004 5.235 4.552 10.831 5.21 10.831 1.278 0 91.737.879 92.56 0z"/><path stroke="#000" stroke-linecap="round" stroke-width="5" d="M68 114.98c-3.575 2.252-5.873 4.372-6.895 6.36-1.021 1.988-1.35 5.306-.986 9.955l-7.646 2.822M82.746 114.98c3.575 2.252 5.873 4.372 6.895 6.36 1.021 1.988 1.35 5.306.986 9.955l7.646 2.822M122 84.202c5.66 1.58 10.454 1.755 14.382.524 3.927-1.231 8.24-4.569 12.938-10.013"/><path fill="#FFF" stroke="#1D877A" stroke-width="3" d="M125.77 122.497c.357-.363.887-4.587 1.131-10.772.236-5.97.276-13.897.14-22.649-.122-7.87-.382-15.968-.707-22.294-.159-3.076-.327-5.618-.492-7.424a38.38 38.38 0 0 0-.224-1.99c-.074-.006-.145-.017-.182-.02a67.407 67.407 0 0 0-3.038-.21c-2.563-.134-6.2-.258-10.698-.366-8.762-.21-20.392-.353-32.115-.394-12.285-.043-23.74.028-32.234.21-4.578.1-8.241.23-10.836.388-1.34.082-2.384.172-3.111.266-.354.047-.732.138-.5-.097.167-.168.1.029.043.295-.107.507-.219 1.231-.33 2.15-.223 1.83-.441 4.385-.64 7.485-.4 6.237-.698 14.297-.819 22.245-.13 8.614-.046 16.52.267 22.477.321 6.112.965 10.249 1.39 10.612 1.337 1.144 22.427 2.139 46.755 2.139 11.734 0 23.015-.219 31.519-.623 4.47-.213 8.1-.473 10.716-.773 1.335-.153 2.392-.315 3.147-.482.551-.122.893-.25.819-.173z"/><path stroke="#000" stroke-linecap="round" stroke-width="4" d="M54.5 83.5h11M90.5 83.5h11"/><path fill="#FFF" stroke="#1D877A" stroke-linecap="square" stroke-width="3" d="M21.879 36.229c-1.456.626-1.456 23.736 0 69.328 6.395 11.86 9.918 17.316 10.568 16.366.976-1.423 0-12.136 0-30.174 0-12.025.315-23.541.944-34.548-6.218-14.608-10.056-21.598-11.512-20.972z"/><path stroke="#1D877A" stroke-linecap="square" stroke-width="3" d="M28.844 45.487h90.089"/><path stroke="#000" stroke-linecap="round" stroke-width="5" d="M27.32 81.202c-5.66 1.58-10.454 1.755-14.382.524C9.011 80.495 4.698 77.157 0 71.713"/><ellipse cx="80" cy="102.5" fill="#FFF" stroke="#000" stroke-width="4" rx="7" ry="4.5"/><text fill="#000" font-family="SpaceText-Regular, Space Text" font-size="12" transform="rotate(-27 127.116 16.216)"><tspan x="106.116" y="20.716">ohmm…</tspan></text></g><g transform="translate(1246 56)"><path fill="#FFF" stroke="#1D877A" stroke-linecap="square" stroke-width="3" d="M125.729 57.031c.823-.879-8.562-19.796-10.14-20.974-1.576-1.178-91.65-1.374-93.136 0-.72.666 2.684 5.223 5.506 10.143 3.004 5.235 4.552 10.831 5.21 10.831 1.278 0 91.737.879 92.56 0z"/><path stroke="#000" stroke-linecap="round" stroke-width="5" d="M68 114.98c-3.575 2.252-5.873 4.372-6.895 6.36-1.021 1.988-1.35 5.306-.986 9.955l-7.646 2.822M82.746 114.98c3.575 2.252 5.873 4.372 6.895 6.36 1.021 1.988 1.35 5.306.986 9.955l7.646 2.822M122 84.202c5.66 1.58 10.454 1.755 14.382.524 3.927-1.231 8.24-4.569 12.938-10.013"/><path fill="#FFF" stroke="#1D877A" stroke-width="3" d="M125.77 122.497c.357-.363.887-4.587 1.131-10.772.236-5.97.276-13.897.14-22.649-.122-7.87-.382-15.968-.707-22.294-.159-3.076-.327-5.618-.492-7.424a38.38 38.38 0 0 0-.224-1.99c-.074-.006-.145-.017-.182-.02a67.407 67.407 0 0 0-3.038-.21c-2.563-.134-6.2-.258-10.698-.366-8.762-.21-20.392-.353-32.115-.394-12.285-.043-23.74.028-32.234.21-4.578.1-8.241.23-10.836.388-1.34.082-2.384.172-3.111.266-.354.047-.732.138-.5-.097.167-.168.1.029.043.295-.107.507-.219 1.231-.33 2.15-.223 1.83-.441 4.385-.64 7.485-.4 6.237-.698 14.297-.819 22.245-.13 8.614-.046 16.52.267 22.477.321 6.112.965 10.249 1.39 10.612 1.337 1.144 22.427 2.139 46.755 2.139 11.734 0 23.015-.219 31.519-.623 4.47-.213 8.1-.473 10.716-.773 1.335-.153 2.392-.315 3.147-.482.551-.122.893-.25.819-.173z"/><path stroke="#000" stroke-linecap="round" stroke-width="4" d="M54.5 83.5h11M90.5 83.5h11"/><path fill="#FFF" stroke="#1D877A" stroke-linecap="square" stroke-width="3" d="M21.879 36.229c-1.456.626-1.456 23.736 0 69.328 6.395 11.86 9.918 17.316 10.568 16.366.976-1.423 0-12.136 0-30.174 0-12.025.315-23.541.944-34.548-6.218-14.608-10.056-21.598-11.512-20.972z"/><path stroke="#1D877A" stroke-linecap="square" stroke-width="3" d="M28.844 45.487h90.089"/><path stroke="#000" stroke-linecap="round" stroke-width="5" d="M27.32 81.202c-5.66 1.58-10.454 1.755-14.382.524C9.011 80.495 4.698 77.157 0 71.713"/><ellipse cx="80" cy="102.5" fill="#FFF" stroke="#000" stroke-width="4" rx="7" ry="4.5"/><text fill="#000" font-family="SpaceText-Regular, Space Text" font-size="12" transform="rotate(-27 127.116 16.216)"><tspan x="106.116" y="20.716">ohmm…</tspan></text></g><g transform="translate(1407 56)"><path fill="#FFF" stroke="#1D877A" stroke-linecap="square" stroke-width="3" d="M125.729 57.031c.823-.879-8.562-19.796-10.14-20.974-1.576-1.178-91.65-1.374-93.136 0-.72.666 2.684 5.223 5.506 10.143 3.004 5.235 4.552 10.831 5.21 10.831 1.278 0 91.737.879 92.56 0z"/><path stroke="#000" stroke-linecap="round" stroke-width="5" d="M68 114.98c-3.575 2.252-5.873 4.372-6.895 6.36-1.021 1.988-1.35 5.306-.986 9.955l-7.646 2.822M82.746 114.98c3.575 2.252 5.873 4.372 6.895 6.36 1.021 1.988 1.35 5.306.986 9.955l7.646 2.822M122 84.202c5.66 1.58 10.454 1.755 14.382.524 3.927-1.231 8.24-4.569 12.938-10.013"/><path fill="#FFF" stroke="#1D877A" stroke-width="3" d="M125.77 122.497c.357-.363.887-4.587 1.131-10.772.236-5.97.276-13.897.14-22.649-.122-7.87-.382-15.968-.707-22.294-.159-3.076-.327-5.618-.492-7.424a38.38 38.38 0 0 0-.224-1.99c-.074-.006-.145-.017-.182-.02a67.407 67.407 0 0 0-3.038-.21c-2.563-.134-6.2-.258-10.698-.366-8.762-.21-20.392-.353-32.115-.394-12.285-.043-23.74.028-32.234.21-4.578.1-8.241.23-10.836.388-1.34.082-2.384.172-3.111.266-.354.047-.732.138-.5-.097.167-.168.1.029.043.295-.107.507-.219 1.231-.33 2.15-.223 1.83-.441 4.385-.64 7.485-.4 6.237-.698 14.297-.819 22.245-.13 8.614-.046 16.52.267 22.477.321 6.112.965 10.249 1.39 10.612 1.337 1.144 22.427 2.139 46.755 2.139 11.734 0 23.015-.219 31.519-.623 4.47-.213 8.1-.473 10.716-.773 1.335-.153 2.392-.315 3.147-.482.551-.122.893-.25.819-.173z"/><path stroke="#000" stroke-linecap="round" stroke-width="4" d="M54.5 83.5h11M90.5 83.5h11"/><path fill="#FFF" stroke="#1D877A" stroke-linecap="square" stroke-width="3" d="M21.879 36.229c-1.456.626-1.456 23.736 0 69.328 6.395 11.86 9.918 17.316 10.568 16.366.976-1.423 0-12.136 0-30.174 0-12.025.315-23.541.944-34.548-6.218-14.608-10.056-21.598-11.512-20.972z"/><path stroke="#1D877A" stroke-linecap="square" stroke-width="3" d="M28.844 45.487h90.089"/><path stroke="#000" stroke-linecap="round" stroke-width="5" d="M27.32 81.202c-5.66 1.58-10.454 1.755-14.382.524C9.011 80.495 4.698 77.157 0 71.713"/><ellipse cx="80" cy="102.5" fill="#FFF" stroke="#000" stroke-width="4" rx="7" ry="4.5"/><text fill="#000" font-family="SpaceText-Regular, Space Text" font-size="12" transform="rotate(-27 127.116 16.216)"><tspan x="106.116" y="20.716">ohmm…</tspan></text></g><use stroke="#1D877A" stroke-dasharray="18" stroke-width="12" mask="url(#e)" xlink:href="#b"/><g transform="translate(307)"><path fill="#FFF" stroke="#1D877A" stroke-linecap="square" stroke-width="3" d="M118.95 25.615c.818-.866-8.528-19.509-10.099-20.67-1.57-1.162-91.274-1.355-92.754 0-.717.656 2.673 5.147 5.484 9.996 2.99 5.16 4.533 10.674 5.189 10.674 1.272 0 91.36.866 92.18 0z"/><path stroke="#000" stroke-linecap="round" stroke-width="5" d="M84 91c3.683 2.235 6.052 4.34 7.104 6.314 1.053 1.974 1.392 5.269 1.017 9.884L100 110M54 91c3.683 2.235 6.052 4.34 7.104 6.314 1.053 1.974 1.392 5.269 1.017 9.884L70 110M113 44.799c4.34-3.557 8.704-8.432 13.096-14.625 4.391-6.193 6.59-15.917 6.597-29.174"/><path fill="#FFF" stroke="#1D877A" stroke-width="3" d="M120.154 91.454c.354-.36.884-4.573 1.129-10.74.235-5.955.275-13.861.14-22.591-.122-7.85-.383-15.928-.708-22.237-.158-3.068-.326-5.603-.492-7.405-.076-.833-.151-1.5-.223-1.982-.073-.005-.145-.016-.182-.02a67.553 67.553 0 0 0-3.038-.21c-2.561-.133-6.199-.256-10.695-.364-8.76-.21-20.388-.352-32.11-.393-12.282-.043-23.734.028-32.227.21-4.577.099-8.24.228-10.834.387-1.34.082-2.384.17-3.11.265-.354.046-.733.138-.5-.096.167-.169.1.027.044.292a26.436 26.436 0 0 0-.33 2.142c-.224 1.827-.441 4.375-.64 7.467-.4 6.22-.698 14.26-.819 22.187-.13 8.592-.046 16.478.267 22.419.321 6.095.965 10.22 1.388 10.582 1.337 1.141 22.423 2.133 46.747 2.133 11.731 0 23.01-.218 31.513-.621 4.469-.213 8.099-.472 10.714-.771 1.335-.153 2.392-.315 3.146-.481.552-.122.894-.249.82-.173z"/><path stroke="#000" stroke-linecap="round" stroke-width="4" d="M60 53v5M86 53v5"/><path fill="#FFF" stroke="#1D877A" stroke-linecap="square" stroke-width="3" d="M16.127 5.039c-1.503.627-1.503 23.78 0 69.458 6.595 11.882 10.229 17.348 10.9 16.397 1.007-1.426 0-12.16 0-30.23 0-12.048.324-23.586.973-34.614C21.587 11.415 17.629 4.41 16.127 5.039z"/><path stroke="#1D877A" stroke-linecap="square" stroke-width="3" d="M22.5 14.5h90.089"/><path stroke="#000" stroke-linecap="round" stroke-width="5" d="M20.508 44.693c-4.34-3.557-8.705-8.432-13.096-14.625C3.021 23.876.822 14.151.814.895"/><ellipse cx="74" cy="74.5" fill="#FFF" stroke="#000" stroke-width="4" rx="7" ry="4.5"/></g><g transform="translate(174)"><path fill="#FFF" stroke="#1D877A" stroke-linecap="square" stroke-width="3" d="M118.95 25.615c.818-.866-8.528-19.509-10.099-20.67-1.57-1.162-91.274-1.355-92.754 0-.717.656 2.673 5.147 5.484 9.996 2.99 5.16 4.533 10.674 5.189 10.674 1.272 0 91.36.866 92.18 0z"/><path stroke="#000" stroke-linecap="round" stroke-width="5" d="M84 91c3.683 2.235 6.052 4.34 7.104 6.314 1.053 1.974 1.392 5.269 1.017 9.884L100 110M54 91c3.683 2.235 6.052 4.34 7.104 6.314 1.053 1.974 1.392 5.269 1.017 9.884L70 110M113 44.799c4.34-3.557 8.704-8.432 13.096-14.625 4.391-6.193 6.59-15.917 6.597-29.174"/><path fill="#FFF" stroke="#1D877A" stroke-width="3" d="M120.154 91.454c.354-.36.884-4.573 1.129-10.74.235-5.955.275-13.861.14-22.591-.122-7.85-.383-15.928-.708-22.237-.158-3.068-.326-5.603-.492-7.405-.076-.833-.151-1.5-.223-1.982-.073-.005-.145-.016-.182-.02a67.553 67.553 0 0 0-3.038-.21c-2.561-.133-6.199-.256-10.695-.364-8.76-.21-20.388-.352-32.11-.393-12.282-.043-23.734.028-32.227.21-4.577.099-8.24.228-10.834.387-1.34.082-2.384.17-3.11.265-.354.046-.733.138-.5-.096.167-.169.1.027.044.292a26.436 26.436 0 0 0-.33 2.142c-.224 1.827-.441 4.375-.64 7.467-.4 6.22-.698 14.26-.819 22.187-.13 8.592-.046 16.478.267 22.419.321 6.095.965 10.22 1.388 10.582 1.337 1.141 22.423 2.133 46.747 2.133 11.731 0 23.01-.218 31.513-.621 4.469-.213 8.099-.472 10.714-.771 1.335-.153 2.392-.315 3.146-.481.552-.122.894-.249.82-.173z"/><path stroke="#000" stroke-linecap="round" stroke-width="4" d="M60 53v5M86 53v5"/><path fill="#FFF" stroke="#1D877A" stroke-linecap="square" stroke-width="3" d="M16.127 5.039c-1.503.627-1.503 23.78 0 69.458 6.595 11.882 10.229 17.348 10.9 16.397 1.007-1.426 0-12.16 0-30.23 0-12.048.324-23.586.973-34.614C21.587 11.415 17.629 4.41 16.127 5.039z"/><path stroke="#1D877A" stroke-linecap="square" stroke-width="3" d="M22.5 14.5h90.089"/><path stroke="#000" stroke-linecap="round" stroke-width="5" d="M20.508 44.693c-4.34-3.557-8.705-8.432-13.096-14.625C3.021 23.876.822 14.151.814.895"/><ellipse cx="74" cy="74.5" fill="#FFF" stroke="#000" stroke-width="4" rx="7" ry="4.5"/></g><g transform="translate(37)"><path fill="#FFF" stroke="#1D877A" stroke-linecap="square" stroke-width="3" d="M118.95 25.615c.818-.866-8.528-19.509-10.099-20.67-1.57-1.162-91.274-1.355-92.754 0-.717.656 2.673 5.147 5.484 9.996 2.99 5.16 4.533 10.674 5.189 10.674 1.272 0 91.36.866 92.18 0z"/><path stroke="#000" stroke-linecap="round" stroke-width="5" d="M84 91c3.683 2.235 6.052 4.34 7.104 6.314 1.053 1.974 1.392 5.269 1.017 9.884L100 110M54 91c3.683 2.235 6.052 4.34 7.104 6.314 1.053 1.974 1.392 5.269 1.017 9.884L70 110M113 44.799c4.34-3.557 8.704-8.432 13.096-14.625 4.391-6.193 6.59-15.917 6.597-29.174"/><path fill="#FFF" stroke="#1D877A" stroke-width="3" d="M120.154 91.454c.354-.36.884-4.573 1.129-10.74.235-5.955.275-13.861.14-22.591-.122-7.85-.383-15.928-.708-22.237-.158-3.068-.326-5.603-.492-7.405-.076-.833-.151-1.5-.223-1.982-.073-.005-.145-.016-.182-.02a67.553 67.553 0 0 0-3.038-.21c-2.561-.133-6.199-.256-10.695-.364-8.76-.21-20.388-.352-32.11-.393-12.282-.043-23.734.028-32.227.21-4.577.099-8.24.228-10.834.387-1.34.082-2.384.17-3.11.265-.354.046-.733.138-.5-.096.167-.169.1.027.044.292a26.436 26.436 0 0 0-.33 2.142c-.224 1.827-.441 4.375-.64 7.467-.4 6.22-.698 14.26-.819 22.187-.13 8.592-.046 16.478.267 22.419.321 6.095.965 10.22 1.388 10.582 1.337 1.141 22.423 2.133 46.747 2.133 11.731 0 23.01-.218 31.513-.621 4.469-.213 8.099-.472 10.714-.771 1.335-.153 2.392-.315 3.146-.481.552-.122.894-.249.82-.173z"/><path stroke="#000" stroke-linecap="round" stroke-width="4" d="M60 53v5M86 53v5"/><path fill="#FFF" stroke="#1D877A" stroke-linecap="square" stroke-width="3" d="M16.127 5.039c-1.503.627-1.503 23.78 0 69.458 6.595 11.882 10.229 17.348 10.9 16.397 1.007-1.426 0-12.16 0-30.23 0-12.048.324-23.586.973-34.614C21.587 11.415 17.629 4.41 16.127 5.039z"/><path stroke="#1D877A" stroke-linecap="square" stroke-width="3" d="M22.5 14.5h90.089"/><path stroke="#000" stroke-linecap="round" stroke-width="5" d="M20.508 44.693c-4.34-3.557-8.705-8.432-13.096-14.625C3.021 23.876.822 14.151.814.895"/><ellipse cx="74" cy="74.5" fill="#FFF" stroke="#000" stroke-width="4" rx="7" ry="4.5"/></g><path fill="#FFF" stroke="#1D877A" stroke-linecap="square" stroke-width="3" d="M680.729 205.031c.823-.879-8.562-19.796-10.14-20.974-1.576-1.178-91.65-1.374-93.136 0-.72.666 2.684 5.223 5.506 10.143 3.004 5.235 4.552 10.831 5.21 10.831 1.278 0 91.737.879 92.56 0z"/><path stroke="#000" stroke-linecap="round" stroke-width="5" d="M681.84 231.75c5.062 1.837 8.16 4.644 9.295 8.42 1.134 3.776 1.134 9.368 0 16.777M623 262.98c-3.575 2.252-5.873 4.372-6.895 6.36-1.021 1.988-1.35 5.306-.986 9.955l-7.646 2.822M637.746 262.98c3.575 2.252 5.873 4.372 6.895 6.36 1.021 1.988 1.35 5.306.986 9.955l7.646 2.822"/><path fill="#FFF" stroke="#1D877A" stroke-width="3" d="M680.618 205.368c-.074-.006-.145-.017-.182-.02a67.407 67.407 0 0 0-3.038-.21c-2.563-.134-6.2-.258-10.698-.366-8.762-.21-20.392-.353-32.115-.394-12.285-.043-23.74.028-32.234.21-4.578.1-8.241.23-10.836.388-1.34.082-2.384.172-3.111.266-.354.047-.732.138-.5-.097.167-.168.1.029.043.295-.107.507-.219 1.231-.33 2.15-.223 1.83-.441 4.385-.64 7.485-.4 6.237-.698 14.297-.819 22.245-.13 8.614-.046 16.52.267 22.477.321 6.112.965 10.249 1.39 10.612 1.337 1.144 22.427 2.139 46.755 2.139 11.734 0 23.015-.219 31.519-.623 4.47-.213 8.1-.473 10.716-.773 1.335-.153 2.392-.315 3.147-.482.552-.122.894-.25.819-.173.356-.362.886-4.586 1.13-10.772.236-5.97.276-13.897.14-22.649-.122-7.87-.382-15.968-.707-22.294-.159-3.076-.327-5.618-.492-7.424a38.38 38.38 0 0 0-.224-1.99z"/><path stroke="#000" stroke-linecap="round" stroke-width="4" d="M622.84 248.549c4.818 3.097 8.513 4.646 11.085 4.646 2.571 0 6.266-1.549 11.085-4.646M621 231.5v4.5M646.51 231.5v4.5"/><path fill="#FFF" stroke="#1D877A" stroke-linecap="square" stroke-width="3" d="M576.879 184.229c-1.456.626-1.456 23.736 0 69.328 6.395 11.86 9.918 17.316 10.568 16.366.976-1.423 0-12.136 0-30.174 0-12.025.315-23.541.944-34.548-6.218-14.608-10.056-21.598-11.512-20.972z"/><path stroke="#1D877A" stroke-linecap="square" stroke-width="3" d="M583.844 193.487h90.089"/><path stroke="#000" stroke-linecap="round" stroke-width="5" d="M580.28 227.138c-5.508 2.048-9.49 4.724-11.943 8.029-2.454 3.305-3.981 8.54-4.582 15.705"/><g><path fill="#FFF" stroke="#1D877A" stroke-linecap="square" stroke-width="3" d="M961.729 205.031c.823-.879-8.562-19.796-10.14-20.974-1.576-1.178-91.65-1.374-93.136 0-.72.666 2.684 5.223 5.506 10.143 3.004 5.235 4.552 10.831 5.21 10.831 1.278 0 91.737.879 92.56 0z"/><path stroke="#000" stroke-linecap="round" stroke-width="5" d="M962.84 231.75c5.062 1.837 8.16 4.644 9.295 8.42 1.134 3.776 1.134 9.368 0 16.777M904 262.98c-3.575 2.252-5.873 4.372-6.895 6.36-1.021 1.988-1.35 5.306-.986 9.955l-7.646 2.822M918.746 262.98c3.575 2.252 5.873 4.372 6.895 6.36 1.021 1.988 1.35 5.306.986 9.955l7.646 2.822"/><path fill="#FFF" stroke="#1D877A" stroke-width="3" d="M961.618 205.368c-.074-.006-.145-.017-.182-.02a67.407 67.407 0 0 0-3.038-.21c-2.563-.134-6.2-.258-10.698-.366-8.762-.21-20.392-.353-32.115-.394-12.285-.043-23.74.028-32.234.21-4.578.1-8.241.23-10.836.388-1.34.082-2.384.172-3.111.266-.354.047-.732.138-.5-.097.167-.168.1.029.043.295-.107.507-.219 1.231-.33 2.15-.223 1.83-.441 4.385-.64 7.485-.4 6.237-.698 14.297-.819 22.245-.13 8.614-.046 16.52.267 22.477.321 6.112.965 10.249 1.39 10.612 1.337 1.144 22.427 2.139 46.755 2.139 11.734 0 23.015-.219 31.519-.623 4.47-.213 8.1-.473 10.716-.773 1.335-.153 2.392-.315 3.147-.482.552-.122.894-.25.819-.173.356-.362.886-4.586 1.13-10.772.236-5.97.276-13.897.14-22.649-.122-7.87-.382-15.968-.707-22.294-.159-3.076-.327-5.618-.492-7.424a38.38 38.38 0 0 0-.224-1.99z"/><path stroke="#000" stroke-linecap="round" stroke-width="4" d="M903.84 248.549c4.818 3.097 8.513 4.646 11.085 4.646 2.571 0 6.266-1.549 11.085-4.646M902 231.5v4.5M927.51 231.5v4.5"/><path fill="#FFF" stroke="#1D877A" stroke-linecap="square" stroke-width="3" d="M857.879 184.229c-1.456.626-1.456 23.736 0 69.328 6.395 11.86 9.918 17.316 10.568 16.366.976-1.423 0-12.136 0-30.174 0-12.025.315-23.541.944-34.548-6.218-14.608-10.056-21.598-11.512-20.972z"/><path stroke="#1D877A" stroke-linecap="square" stroke-width="3" d="M864.844 193.487h90.089"/><path stroke="#000" stroke-linecap="round" stroke-width="5" d="M861.28 227.138c-5.508 2.048-9.49 4.724-11.943 8.029-2.454 3.305-3.981 8.54-4.582 15.705"/></g><g><path fill="#FFF" stroke="#1D877A" stroke-linecap="square" stroke-width="3" d="M821.729 205.031c.823-.879-8.562-19.796-10.14-20.974-1.576-1.178-91.65-1.374-93.136 0-.72.666 2.684 5.223 5.506 10.143 3.004 5.235 4.552 10.831 5.21 10.831 1.278 0 91.737.879 92.56 0z"/><path stroke="#000" stroke-linecap="round" stroke-width="5" d="M822.84 231.75c5.062 1.837 8.16 4.644 9.295 8.42 1.134 3.776 1.134 9.368 0 16.777M764 262.98c-3.575 2.252-5.873 4.372-6.895 6.36-1.021 1.988-1.35 5.306-.986 9.955l-7.646 2.822M778.746 262.98c3.575 2.252 5.873 4.372 6.895 6.36 1.021 1.988 1.35 5.306.986 9.955l7.646 2.822"/><path fill="#FFF" stroke="#1D877A" stroke-width="3" d="M821.618 205.368c-.074-.006-.145-.017-.182-.02a67.407 67.407 0 0 0-3.038-.21c-2.563-.134-6.2-.258-10.698-.366-8.762-.21-20.392-.353-32.115-.394-12.285-.043-23.74.028-32.234.21-4.578.1-8.241.23-10.836.388-1.34.082-2.384.172-3.111.266-.354.047-.732.138-.5-.097.167-.168.1.029.043.295-.107.507-.219 1.231-.33 2.15-.223 1.83-.441 4.385-.64 7.485-.4 6.237-.698 14.297-.819 22.245-.13 8.614-.046 16.52.267 22.477.321 6.112.965 10.249 1.39 10.612 1.337 1.144 22.427 2.139 46.755 2.139 11.734 0 23.015-.219 31.519-.623 4.47-.213 8.1-.473 10.716-.773 1.335-.153 2.392-.315 3.147-.482.552-.122.894-.25.819-.173.356-.362.886-4.586 1.13-10.772.236-5.97.276-13.897.14-22.649-.122-7.87-.382-15.968-.707-22.294-.159-3.076-.327-5.618-.492-7.424a38.38 38.38 0 0 0-.224-1.99z"/><path stroke="#000" stroke-linecap="round" stroke-width="4" d="M763.84 248.549c4.818 3.097 8.513 4.646 11.085 4.646 2.571 0 6.266-1.549 11.085-4.646M762 231.5v4.5M787.51 231.5v4.5"/><path fill="#FFF" stroke="#1D877A" stroke-linecap="square" stroke-width="3" d="M717.879 184.229c-1.456.626-1.456 23.736 0 69.328 6.395 11.86 9.918 17.316 10.568 16.366.976-1.423 0-12.136 0-30.174 0-12.025.315-23.541.944-34.548-6.218-14.608-10.056-21.598-11.512-20.972z"/><path stroke="#1D877A" stroke-linecap="square" stroke-width="3" d="M724.844 193.487h90.089"/><path stroke="#000" stroke-linecap="round" stroke-width="5" d="M721.28 227.138c-5.508 2.048-9.49 4.724-11.943 8.029-2.454 3.305-3.981 8.54-4.582 15.705"/></g><use stroke="#1D877A" stroke-dasharray="18" stroke-width="12" mask="url(#f)" xlink:href="#c"/></g></svg>