<svg xmlns="http://www.w3.org/2000/svg" viewBox="0 0 59 59" width="10em"><path fill="#E6E6E6" d="M12 .5h35v26H12z"/><path fill="#6C797A" d="M35 15.5H17c-.552 0-1-.447-1-1s.448-1 1-1h18c.552 0 1 .447 1 1s-.448 1-1 1zm-12 4h-6c-.552 0-1-.447-1-1s.448-1 1-1h6c.552 0 1 .447 1 1s-.448 1-1 1zm16 0h-6c-.552 0-1-.447-1-1s.448-1 1-1h6c.552 0 1 .447 1 1s-.448 1-1 1zm-11 0c-.26 0-.52-.11-.71-.29-.18-.19-.29-.45-.29-.71s.11-.52.29-.71c.38-.37 1.04-.37 1.42 0 .18.19.29.45.29.71s-.11.52-.29.71c-.19.18-.45.29-.71.29zm5 4H22c-.552 0-1-.447-1-1s.448-1 1-1h11c.552 0 1 .447 1 1s-.448 1-1 1zm-16 0c-.26 0-.52-.1-.71-.29-.18-.19-.29-.45-.29-.71s.11-.52.29-.71c.38-.37 1.06-.37 1.42.01.18.18.29.44.29.7s-.11.52-.29.71c-.19.18-.45.29-.71.29z"/><path fill="#47A083" d="M6 51.5h48v4H6z"/><path fill="#38454F" d="M8 55.5h6v3H8zm38 0h6v3h-6z"/><path fill="#71C3A9" d="M52 31.5H8v11c0 3.55-.775 6.73-2 8.926v.074h48v-.074c-1.225-2.197-2-5.377-2-8.926v-11z"/><path fill="#434C6D" d="M5 26.5v8h3v-3h44v3-8"/><path fill="#38454F" d="M57.678 34.5H52V23.822c0-.73.592-1.322 1.322-1.322h4.356c.73 0 1.322.592 1.322 1.322v9.356c0 .73-.592 1.322-1.322 1.322z"/><path fill="#546A79" d="M52 25.5h7v2h-7zm0 4h7v2h-7z"/><path fill="#E7ECED" d="M16 43.5h-4c-.552 0-1 .447-1 1s.448 1 1 1h1v2c0 .553.448 1 1 1s1-.447 1-1v-2h1c.552 0 1-.447 1-1s-.448-1-1-1zm8 0h-4c-.552 0-1 .447-1 1s.448 1 1 1h1v2c0 .553.448 1 1 1s1-.447 1-1v-2h1c.552 0 1-.447 1-1s-.448-1-1-1zm8 0h-4c-.552 0-1 .447-1 1s.448 1 1 1h1v2c0 .553.448 1 1 1s1-.447 1-1v-2h1c.552 0 1-.447 1-1s-.448-1-1-1zm8 0h-4c-.552 0-1 .447-1 1s.448 1 1 1h1v2c0 .553.448 1 1 1s1-.447 1-1v-2h1c.552 0 1-.447 1-1s-.448-1-1-1zm8 0h-4c-.552 0-1 .447-1 1s.448 1 1 1h1v2c0 .553.448 1 1 1s1-.447 1-1v-2h1c.552 0 1-.447 1-1s-.448-1-1-1zm-29-5h1c.552 0 1-.447 1-1s-.448-1-1-1h-4c-.552 0-1 .447-1 1s.448 1 1 1h1v2c0 .553.448 1 1 1s1-.447 1-1v-2zm8 0h1c.552 0 1-.447 1-1s-.448-1-1-1h-4c-.552 0-1 .447-1 1s.448 1 1 1h1v2c0 .553.448 1 1 1s1-.447 1-1v-2zm8 0h1c.552 0 1-.447 1-1s-.448-1-1-1h-4c-.552 0-1 .447-1 1s.448 1 1 1h1v2c0 .553.448 1 1 1s1-.447 1-1v-2zm8 0h1c.552 0 1-.447 1-1s-.448-1-1-1h-4c-.552 0-1 .447-1 1s.448 1 1 1h1v2c0 .553.448 1 1 1s1-.447 1-1v-2z"/><path fill="#283238" d="M22 28.5c-.552 0-1 .447-1 1v4c0 .553.448 1 1 1s1-.447 1-1v-4c0-.553-.448-1-1-1zm4 0c-.552 0-1 .447-1 1v4c0 .553.448 1 1 1s1-.447 1-1v-4c0-.553-.448-1-1-1zm4 0c-.552 0-1 .447-1 1v4c0 .553.448 1 1 1s1-.447 1-1v-4c0-.553-.448-1-1-1zm4 0c-.552 0-1 .447-1 1v4c0 .553.448 1 1 1s1-.447 1-1v-4c0-.553-.448-1-1-1zm4 0c-.552 0-1 .447-1 1v4c0 .553.448 1 1 1s1-.447 1-1v-4c0-.553-.448-1-1-1z"/><path fill="#CBD4D8" d="M5 29.5H2v-7h3c.552 0 1-.447 1-1s-.448-1-1-1H0v11h5v-2z"/></svg>
