<svg xmlns="http://www.w3.org/2000/svg" xmlns:xlink="http://www.w3.org/1999/xlink" viewBox="0 0 1403 373"><defs><path id="a" d="M.5 0H650v142H.5V0z"/><mask id="e" width="649.5" height="142" x="0" y="0" fill="#fff"><use xlink:href="#a"/></mask><path id="b" d="M.5 229H650v142H.5V229z"/><mask id="f" width="649.5" height="142" x="0" y="0" fill="#fff"><use xlink:href="#b"/></mask><path id="c" d="M753.078 0h649.5v142h-649.5V0z"/><mask id="g" width="649.5" height="142" x="0" y="0" fill="#fff"><use xlink:href="#c"/></mask><path id="d" d="M753.078 229h649.5v142h-649.5V229z"/><mask id="h" width="649.5" height="142" x="0" y="0" fill="#fff"><use xlink:href="#d"/></mask></defs><g fill="none" fill-rule="evenodd"><path fill="#FFF" stroke="#1D877A" stroke-linecap="square" stroke-width="3" d="M153.229 64.031c.823-.879-8.562-19.796-10.14-20.974-1.576-1.178-91.65-1.374-93.136 0-.72.666 2.684 5.223 5.506 10.143 3.004 5.235 4.552 10.831 5.21 10.831 1.278 0 91.737.879 92.56 0z"/><path stroke="#000" stroke-linecap="round" stroke-width="5" d="M154.34 90.75c5.062 1.837 8.16 4.644 9.295 8.42 1.134 3.776 1.134 9.368 0 16.777M95.5 121.98c-3.575 2.252-5.873 4.372-6.895 6.36-1.021 1.988-1.35 5.306-.986 9.955l-7.646 2.822M110.246 121.98c3.575 2.252 5.873 4.372 6.895 6.36 1.021 1.988 1.35 5.306.986 9.955l7.646 2.822"/><path fill="#FFF" stroke="#1D877A" stroke-width="3" d="M153.118 64.368c-.074-.006-.145-.017-.182-.02a67.407 67.407 0 0 0-3.038-.21c-2.563-.134-6.2-.258-10.698-.366-8.762-.21-20.392-.353-32.115-.394-12.285-.043-23.74.028-32.234.21-4.578.1-8.241.23-10.836.388-1.34.082-2.384.172-3.111.266-.354.047-.732.138-.5-.097.167-.168.1.029.043.295-.107.507-.219 1.231-.33 2.15-.223 1.83-.441 4.385-.64 7.485-.4 6.237-.698 14.297-.819 22.245-.13 8.614-.046 16.52.267 22.477.321 6.112.965 10.249 1.39 10.612 1.337 1.144 22.427 2.139 46.755 2.139 11.734 0 23.015-.219 31.519-.623 4.47-.213 8.1-.473 10.716-.773 1.335-.153 2.392-.315 3.147-.482.552-.122.893-.25.819-.173.356-.362.886-4.586 1.13-10.772.236-5.97.276-13.897.14-22.649-.122-7.87-.382-15.968-.707-22.294-.159-3.076-.327-5.618-.492-7.424a38.38 38.38 0 0 0-.224-1.99z"/><path stroke="#000" stroke-linecap="round" stroke-width="4" d="M95.34 107.549c4.818 3.097 8.513 4.646 11.085 4.646 2.571 0 6.266-1.549 11.085-4.646M93.5 90.5V95M119.01 90.5V95"/><path fill="#FFF" stroke="#1D877A" stroke-linecap="square" stroke-width="3" d="M49.379 43.229c-1.456.626-1.456 23.736 0 69.328 6.395 11.86 9.918 17.316 10.568 16.366.976-1.423 0-12.136 0-30.174 0-12.025.315-23.541.944-34.548-6.218-14.608-10.056-21.598-11.512-20.972z"/><path stroke="#1D877A" stroke-linecap="square" stroke-width="3" d="M56.344 52.487h90.089"/><path stroke="#000" stroke-linecap="round" stroke-width="5" d="M52.78 86.138c-5.508 2.048-9.49 4.724-11.943 8.029-2.454 3.305-3.981 8.54-4.582 15.705"/><path fill="#FFF" stroke="#1D877A" stroke-linecap="square" stroke-width="3" d="M434.229 64.031c.823-.879-8.562-19.796-10.14-20.974-1.576-1.178-91.65-1.374-93.136 0-.72.666 2.684 5.223 5.506 10.143 3.004 5.235 4.552 10.831 5.21 10.831 1.278 0 91.737.879 92.56 0z"/><path stroke="#000" stroke-linecap="round" stroke-width="5" d="M435.34 90.75c5.062 1.837 8.16 4.644 9.295 8.42 1.134 3.776 1.134 9.368 0 16.777M376.5 121.98c-3.575 2.252-5.873 4.372-6.895 6.36-1.021 1.988-1.35 5.306-.986 9.955l-7.646 2.822M391.246 121.98c3.575 2.252 5.873 4.372 6.895 6.36 1.021 1.988 1.35 5.306.986 9.955l7.646 2.822"/><path fill="#FFF" stroke="#1D877A" stroke-width="3" d="M434.118 64.368c-.074-.006-.145-.017-.182-.02a67.407 67.407 0 0 0-3.038-.21c-2.563-.134-6.2-.258-10.698-.366-8.762-.21-20.392-.353-32.115-.394-12.285-.043-23.74.028-32.234.21-4.578.1-8.241.23-10.836.388-1.34.082-2.384.172-3.111.266-.354.047-.732.138-.5-.097.167-.168.1.029.043.295-.107.507-.219 1.231-.33 2.15-.223 1.83-.441 4.385-.64 7.485-.4 6.237-.698 14.297-.819 22.245-.13 8.614-.046 16.52.267 22.477.321 6.112.965 10.249 1.39 10.612 1.337 1.144 22.427 2.139 46.755 2.139 11.734 0 23.015-.219 31.519-.623 4.47-.213 8.1-.473 10.716-.773 1.335-.153 2.392-.315 3.147-.482.552-.122.893-.25.819-.173.356-.362.886-4.586 1.13-10.772.236-5.97.276-13.897.14-22.649-.122-7.87-.382-15.968-.707-22.294-.159-3.076-.327-5.618-.492-7.424a38.38 38.38 0 0 0-.224-1.99z"/><path stroke="#000" stroke-linecap="round" stroke-width="4" d="M376.34 107.549c4.818 3.097 8.513 4.646 11.085 4.646 2.571 0 6.266-1.549 11.085-4.646M374.5 90.5V95M400.01 90.5V95"/><path fill="#FFF" stroke="#1D877A" stroke-linecap="square" stroke-width="3" d="M330.379 43.229c-1.456.626-1.456 23.736 0 69.328 6.395 11.86 9.918 17.316 10.568 16.366.976-1.423 0-12.136 0-30.174 0-12.025.315-23.541.944-34.548-6.218-14.608-10.056-21.598-11.512-20.972z"/><path stroke="#1D877A" stroke-linecap="square" stroke-width="3" d="M337.344 52.487h90.089"/><path stroke="#000" stroke-linecap="round" stroke-width="5" d="M333.78 86.138c-5.508 2.048-9.49 4.724-11.943 8.029-2.454 3.305-3.981 8.54-4.582 15.705"/><g><path fill="#FFF" stroke="#1D877A" stroke-linecap="square" stroke-width="3" d="M294.229 64.031c.823-.879-8.562-19.796-10.14-20.974-1.576-1.178-91.65-1.374-93.136 0-.72.666 2.684 5.223 5.506 10.143 3.004 5.235 4.552 10.831 5.21 10.831 1.278 0 91.737.879 92.56 0z"/><path stroke="#000" stroke-linecap="round" stroke-width="5" d="M295.34 90.75c5.062 1.837 8.16 4.644 9.295 8.42 1.134 3.776 1.134 9.368 0 16.777M236.5 121.98c-3.575 2.252-5.873 4.372-6.895 6.36-1.021 1.988-1.35 5.306-.986 9.955l-7.646 2.822M251.246 121.98c3.575 2.252 5.873 4.372 6.895 6.36 1.021 1.988 1.35 5.306.986 9.955l7.646 2.822"/><path fill="#FFF" stroke="#1D877A" stroke-width="3" d="M294.118 64.368c-.074-.006-.145-.017-.182-.02a67.407 67.407 0 0 0-3.038-.21c-2.563-.134-6.2-.258-10.698-.366-8.762-.21-20.392-.353-32.115-.394-12.285-.043-23.74.028-32.234.21-4.578.1-8.241.23-10.836.388-1.34.082-2.384.172-3.111.266-.354.047-.732.138-.5-.097.167-.168.1.029.043.295-.107.507-.219 1.231-.33 2.15-.223 1.83-.441 4.385-.64 7.485-.4 6.237-.698 14.297-.819 22.245-.13 8.614-.046 16.52.267 22.477.321 6.112.965 10.249 1.39 10.612 1.337 1.144 22.427 2.139 46.755 2.139 11.734 0 23.015-.219 31.519-.623 4.47-.213 8.1-.473 10.716-.773 1.335-.153 2.392-.315 3.147-.482.552-.122.894-.25.819-.173.356-.362.886-4.586 1.13-10.772.236-5.97.276-13.897.14-22.649-.122-7.87-.382-15.968-.707-22.294-.159-3.076-.327-5.618-.492-7.424a38.38 38.38 0 0 0-.224-1.99z"/><path stroke="#000" stroke-linecap="round" stroke-width="4" d="M236.34 107.549c4.818 3.097 8.513 4.646 11.085 4.646 2.571 0 6.266-1.549 11.085-4.646M234.5 90.5V95M260.01 90.5V95"/><path fill="#FFF" stroke="#1D877A" stroke-linecap="square" stroke-width="3" d="M190.379 43.229c-1.456.626-1.456 23.736 0 69.328 6.395 11.86 9.918 17.316 10.568 16.366.976-1.423 0-12.136 0-30.174 0-12.025.315-23.541.944-34.548-6.218-14.608-10.056-21.598-11.512-20.972z"/><path stroke="#1D877A" stroke-linecap="square" stroke-width="3" d="M197.344 52.487h90.089"/><path stroke="#000" stroke-linecap="round" stroke-width="5" d="M193.78 86.138c-5.508 2.048-9.49 4.724-11.943 8.029-2.454 3.305-3.981 8.54-4.582 15.705"/></g><use stroke="#1D877A" stroke-dasharray="18" stroke-width="12" mask="url(#e)" xlink:href="#a"/><g><path fill="#FFF" stroke="#1D877A" stroke-linecap="square" stroke-width="3" d="M237.979 293.031c.823-.879-8.562-19.796-10.14-20.974-1.576-1.178-91.65-1.374-93.136 0-.72.666 2.684 5.223 5.506 10.143 3.004 5.235 4.552 10.831 5.21 10.831 1.278 0 91.737.879 92.56 0z"/><path stroke="#000" stroke-linecap="round" stroke-width="5" d="M239.09 319.75c5.062 1.837 8.16 4.644 9.295 8.42 1.134 3.776 1.134 9.368 0 16.777M180.25 350.98c-3.575 2.252-5.873 4.372-6.895 6.36-1.021 1.988-1.35 5.306-.986 9.955l-7.646 2.822M194.996 350.98c3.575 2.252 5.873 4.372 6.895 6.36 1.021 1.988 1.35 5.306.986 9.955l7.646 2.822"/><path fill="#FFF" stroke="#1D877A" stroke-width="3" d="M237.868 293.368c-.074-.006-.145-.017-.182-.02a67.407 67.407 0 0 0-3.038-.21c-2.563-.134-6.2-.258-10.698-.366-8.762-.21-20.392-.353-32.115-.394-12.285-.043-23.74.028-32.234.21-4.578.1-8.241.23-10.836.388-1.34.082-2.384.172-3.111.266-.354.047-.732.138-.5-.097.167-.168.1.029.043.295-.107.507-.219 1.231-.33 2.15-.223 1.83-.441 4.385-.64 7.485-.4 6.237-.698 14.297-.819 22.245-.13 8.614-.046 16.52.267 22.477.321 6.112.965 10.249 1.39 10.612 1.337 1.144 22.427 2.139 46.755 2.139 11.734 0 23.015-.219 31.519-.623 4.47-.213 8.1-.473 10.716-.773 1.335-.153 2.392-.315 3.147-.482.552-.122.894-.25.819-.173.356-.362.886-4.586 1.13-10.772.236-5.97.276-13.897.14-22.649-.122-7.87-.382-15.968-.707-22.294-.159-3.076-.327-5.618-.492-7.424a38.38 38.38 0 0 0-.224-1.99z"/><path stroke="#000" stroke-linecap="round" stroke-width="4" d="M180.09 336.549c4.818 3.097 8.513 4.646 11.085 4.646 2.571 0 6.266-1.549 11.085-4.646M178.25 319.5v4.5M203.76 319.5v4.5"/><path fill="#FFF" stroke="#1D877A" stroke-linecap="square" stroke-width="3" d="M134.129 272.229c-1.456.626-1.456 23.736 0 69.328 6.395 11.86 9.918 17.316 10.568 16.366.976-1.423 0-12.136 0-30.174 0-12.025.315-23.541.944-34.548-6.218-14.608-10.056-21.598-11.512-20.972z"/><path stroke="#1D877A" stroke-linecap="square" stroke-width="3" d="M141.094 281.487h90.089"/><path stroke="#000" stroke-linecap="round" stroke-width="5" d="M137.53 315.138c-5.508 2.048-9.49 4.724-11.943 8.029-2.454 3.305-3.981 8.54-4.582 15.705"/></g><g><path fill="#FFF" stroke="#1D877A" stroke-linecap="square" stroke-width="3" d="M518.979 293.031c.823-.879-8.562-19.796-10.14-20.974-1.576-1.178-91.65-1.374-93.136 0-.72.666 2.684 5.223 5.506 10.143 3.004 5.235 4.552 10.831 5.21 10.831 1.278 0 91.737.879 92.56 0z"/><path stroke="#000" stroke-linecap="round" stroke-width="5" d="M520.09 319.75c5.062 1.837 8.16 4.644 9.295 8.42 1.134 3.776 1.134 9.368 0 16.777M461.25 350.98c-3.575 2.252-5.873 4.372-6.895 6.36-1.021 1.988-1.35 5.306-.986 9.955l-7.646 2.822M475.996 350.98c3.575 2.252 5.873 4.372 6.895 6.36 1.021 1.988 1.35 5.306.986 9.955l7.646 2.822"/><path fill="#FFF" stroke="#1D877A" stroke-width="3" d="M518.868 293.368c-.074-.006-.145-.017-.182-.02a67.407 67.407 0 0 0-3.038-.21c-2.563-.134-6.2-.258-10.698-.366-8.762-.21-20.392-.353-32.115-.394-12.285-.043-23.74.028-32.234.21-4.578.1-8.241.23-10.836.388-1.34.082-2.384.172-3.111.266-.354.047-.732.138-.5-.097.167-.168.1.029.043.295-.107.507-.219 1.231-.33 2.15-.223 1.83-.441 4.385-.64 7.485-.4 6.237-.698 14.297-.819 22.245-.13 8.614-.046 16.52.267 22.477.321 6.112.965 10.249 1.39 10.612 1.337 1.144 22.427 2.139 46.755 2.139 11.734 0 23.015-.219 31.519-.623 4.47-.213 8.1-.473 10.716-.773 1.335-.153 2.392-.315 3.147-.482.552-.122.894-.25.819-.173.356-.362.886-4.586 1.13-10.772.236-5.97.276-13.897.14-22.649-.122-7.87-.382-15.968-.707-22.294-.159-3.076-.327-5.618-.492-7.424a38.38 38.38 0 0 0-.224-1.99z"/><path stroke="#000" stroke-linecap="round" stroke-width="4" d="M461.09 336.549c4.818 3.097 8.513 4.646 11.085 4.646 2.571 0 6.266-1.549 11.085-4.646M459.25 319.5v4.5M484.76 319.5v4.5"/><path fill="#FFF" stroke="#1D877A" stroke-linecap="square" stroke-width="3" d="M415.129 272.229c-1.456.626-1.456 23.736 0 69.328 6.395 11.86 9.918 17.316 10.568 16.366.976-1.423 0-12.136 0-30.174 0-12.025.315-23.541.944-34.548-6.218-14.608-10.056-21.598-11.512-20.972z"/><path stroke="#1D877A" stroke-linecap="square" stroke-width="3" d="M422.094 281.487h90.089"/><path stroke="#000" stroke-linecap="round" stroke-width="5" d="M418.53 315.138c-5.508 2.048-9.49 4.724-11.943 8.029-2.454 3.305-3.981 8.54-4.582 15.705"/></g><g><path fill="#FFF" stroke="#1D877A" stroke-linecap="square" stroke-width="3" d="M378.979 293.031c.823-.879-8.562-19.796-10.14-20.974-1.576-1.178-91.65-1.374-93.136 0-.72.666 2.684 5.223 5.506 10.143 3.004 5.235 4.552 10.831 5.21 10.831 1.278 0 91.737.879 92.56 0z"/><path stroke="#000" stroke-linecap="round" stroke-width="5" d="M380.09 319.75c5.062 1.837 8.16 4.644 9.295 8.42 1.134 3.776 1.134 9.368 0 16.777M321.25 350.98c-3.575 2.252-5.873 4.372-6.895 6.36-1.021 1.988-1.35 5.306-.986 9.955l-7.646 2.822M335.996 350.98c3.575 2.252 5.873 4.372 6.895 6.36 1.021 1.988 1.35 5.306.986 9.955l7.646 2.822"/><path fill="#FFF" stroke="#1D877A" stroke-width="3" d="M378.868 293.368c-.074-.006-.145-.017-.182-.02a67.407 67.407 0 0 0-3.038-.21c-2.563-.134-6.2-.258-10.698-.366-8.762-.21-20.392-.353-32.115-.394-12.285-.043-23.74.028-32.234.21-4.578.1-8.241.23-10.836.388-1.34.082-2.384.172-3.111.266-.354.047-.732.138-.5-.097.167-.168.1.029.043.295-.107.507-.219 1.231-.33 2.15-.223 1.83-.441 4.385-.64 7.485-.4 6.237-.698 14.297-.819 22.245-.13 8.614-.046 16.52.267 22.477.321 6.112.965 10.249 1.39 10.612 1.337 1.144 22.427 2.139 46.755 2.139 11.734 0 23.015-.219 31.519-.623 4.47-.213 8.1-.473 10.716-.773 1.335-.153 2.392-.315 3.147-.482.552-.122.893-.25.819-.173.356-.362.886-4.586 1.13-10.772.236-5.97.276-13.897.14-22.649-.122-7.87-.382-15.968-.707-22.294-.159-3.076-.327-5.618-.492-7.424a38.38 38.38 0 0 0-.224-1.99z"/><path stroke="#000" stroke-linecap="round" stroke-width="4" d="M321.09 336.549c4.818 3.097 8.513 4.646 11.085 4.646 2.571 0 6.266-1.549 11.085-4.646M319.25 319.5v4.5M344.76 319.5v4.5"/><path fill="#FFF" stroke="#1D877A" stroke-linecap="square" stroke-width="3" d="M275.129 272.229c-1.456.626-1.456 23.736 0 69.328 6.395 11.86 9.918 17.316 10.568 16.366.976-1.423 0-12.136 0-30.174 0-12.025.315-23.541.944-34.548-6.218-14.608-10.056-21.598-11.512-20.972z"/><path stroke="#1D877A" stroke-linecap="square" stroke-width="3" d="M282.094 281.487h90.089"/><path stroke="#000" stroke-linecap="round" stroke-width="5" d="M278.53 315.138c-5.508 2.048-9.49 4.724-11.943 8.029-2.454 3.305-3.981 8.54-4.582 15.705"/></g><use stroke="#1D877A" stroke-dasharray="18" stroke-width="12" mask="url(#f)" xlink:href="#b"/><g><path fill="#FFF" stroke="#1D877A" stroke-linecap="square" stroke-width="3" d="M1085.792 64.031c.822-.879-8.563-19.796-10.14-20.974-1.577-1.178-91.65-1.374-93.136 0-.72.666 2.683 5.223 5.506 10.143 3.003 5.235 4.552 10.831 5.21 10.831 1.277 0 91.737.879 92.56 0z"/><path stroke="#000" stroke-linecap="round" stroke-width="5" d="M1086.902 90.75c5.063 1.837 8.161 4.644 9.295 8.42 1.134 3.776 1.134 9.368 0 16.777M1028.063 121.98c-3.575 2.252-5.873 4.372-6.895 6.36-1.022 1.988-1.35 5.306-.987 9.955l-7.646 2.822M1042.809 121.98c3.574 2.252 5.872 4.372 6.894 6.36 1.022 1.988 1.35 5.306.987 9.955l7.646 2.822"/><path fill="#FFF" stroke="#1D877A" stroke-width="3" d="M1085.68 64.368c-.073-.006-.144-.017-.182-.02a67.407 67.407 0 0 0-3.038-.21c-2.562-.134-6.2-.258-10.697-.366-8.762-.21-20.393-.353-32.116-.394-12.285-.043-23.74.028-32.233.21-4.578.1-8.242.23-10.837.388-1.34.082-2.384.172-3.11.266-.355.047-.732.138-.5-.097.167-.168.1.029.043.295-.107.507-.22 1.231-.33 2.15-.224 1.83-.442 4.385-.64 7.485-.4 6.237-.699 14.297-.82 22.245-.13 8.614-.046 16.52.267 22.477.322 6.112.966 10.249 1.39 10.612 1.337 1.144 22.428 2.139 46.755 2.139 11.734 0 23.016-.219 31.52-.623 4.47-.213 8.1-.473 10.715-.773 1.335-.153 2.393-.315 3.147-.482.552-.122.894-.25.82-.173.355-.362.886-4.586 1.13-10.772.236-5.97.276-13.897.14-22.649-.122-7.87-.382-15.968-.708-22.294-.158-3.076-.326-5.618-.492-7.424a38.38 38.38 0 0 0-.223-1.99z"/><path stroke="#000" stroke-linecap="round" stroke-width="4" d="M1027.902 107.549c4.819 3.097 8.514 4.646 11.085 4.646 2.572 0 6.267-1.549 11.085-4.646M1026.063 90.5V95M1051.572 90.5V95"/><path fill="#FFF" stroke="#1D877A" stroke-linecap="square" stroke-width="3" d="M981.941 43.229c-1.456.626-1.456 23.736 0 69.328 6.395 11.86 9.918 17.316 10.569 16.366.976-1.423 0-12.136 0-30.174 0-12.025.314-23.541.943-34.548-6.218-14.608-10.055-21.598-11.512-20.972z"/><path stroke="#1D877A" stroke-linecap="square" stroke-width="3" d="M988.906 52.487h90.09"/><path stroke="#000" stroke-linecap="round" stroke-width="5" d="M985.343 86.138c-5.509 2.048-9.49 4.724-11.944 8.029-2.453 3.305-3.98 8.54-4.582 15.705"/></g><g><path fill="#FFF" stroke="#1D877A" stroke-linecap="square" stroke-width="3" d="M1366.792 64.031c.822-.879-8.563-19.796-10.14-20.974-1.577-1.178-91.65-1.374-93.136 0-.72.666 2.683 5.223 5.506 10.143 3.003 5.235 4.552 10.831 5.21 10.831 1.277 0 91.737.879 92.56 0z"/><path stroke="#000" stroke-linecap="round" stroke-width="5" d="M1367.902 90.75c5.063 1.837 8.161 4.644 9.295 8.42 1.134 3.776 1.134 9.368 0 16.777M1309.063 121.98c-3.575 2.252-5.873 4.372-6.895 6.36-1.022 1.988-1.35 5.306-.987 9.955l-7.646 2.822M1323.809 121.98c3.574 2.252 5.872 4.372 6.894 6.36 1.022 1.988 1.35 5.306.987 9.955l7.646 2.822"/><path fill="#FFF" stroke="#1D877A" stroke-width="3" d="M1366.68 64.368c-.073-.006-.144-.017-.182-.02a67.407 67.407 0 0 0-3.038-.21c-2.562-.134-6.2-.258-10.697-.366-8.762-.21-20.393-.353-32.116-.394-12.285-.043-23.74.028-32.233.21-4.578.1-8.242.23-10.837.388-1.34.082-2.384.172-3.11.266-.355.047-.732.138-.5-.097.167-.168.1.029.043.295-.107.507-.22 1.231-.33 2.15-.224 1.83-.442 4.385-.64 7.485-.4 6.237-.699 14.297-.82 22.245-.13 8.614-.046 16.52.267 22.477.322 6.112.966 10.249 1.39 10.612 1.337 1.144 22.428 2.139 46.755 2.139 11.734 0 23.016-.219 31.52-.623 4.47-.213 8.1-.473 10.715-.773 1.335-.153 2.393-.315 3.147-.482.552-.122.894-.25.82-.173.355-.362.886-4.586 1.13-10.772.236-5.97.276-13.897.14-22.649-.122-7.87-.382-15.968-.708-22.294-.158-3.076-.326-5.618-.492-7.424a38.38 38.38 0 0 0-.223-1.99z"/><path stroke="#000" stroke-linecap="round" stroke-width="4" d="M1308.902 107.549c4.819 3.097 8.514 4.646 11.085 4.646 2.572 0 6.267-1.549 11.085-4.646M1307.063 90.5V95M1332.572 90.5V95"/><path fill="#FFF" stroke="#1D877A" stroke-linecap="square" stroke-width="3" d="M1262.941 43.229c-1.456.626-1.456 23.736 0 69.328 6.395 11.86 9.918 17.316 10.569 16.366.976-1.423 0-12.136 0-30.174 0-12.025.314-23.541.943-34.548-6.218-14.608-10.055-21.598-11.512-20.972z"/><path stroke="#1D877A" stroke-linecap="square" stroke-width="3" d="M1269.906 52.487h90.09"/><path stroke="#000" stroke-linecap="round" stroke-width="5" d="M1266.343 86.138c-5.509 2.048-9.49 4.724-11.944 8.029-2.453 3.305-3.98 8.54-4.582 15.705"/></g><g><path fill="#FFF" stroke="#1D877A" stroke-linecap="square" stroke-width="3" d="M1226.792 64.031c.822-.879-8.563-19.796-10.14-20.974-1.577-1.178-91.65-1.374-93.136 0-.72.666 2.683 5.223 5.506 10.143 3.003 5.235 4.552 10.831 5.21 10.831 1.277 0 91.737.879 92.56 0z"/><path stroke="#000" stroke-linecap="round" stroke-width="5" d="M1227.902 90.75c5.063 1.837 8.161 4.644 9.295 8.42 1.134 3.776 1.134 9.368 0 16.777M1169.063 121.98c-3.575 2.252-5.873 4.372-6.895 6.36-1.022 1.988-1.35 5.306-.987 9.955l-7.646 2.822M1183.809 121.98c3.574 2.252 5.872 4.372 6.894 6.36 1.022 1.988 1.35 5.306.987 9.955l7.646 2.822"/><path fill="#FFF" stroke="#1D877A" stroke-width="3" d="M1226.68 64.368c-.073-.006-.144-.017-.182-.02a67.407 67.407 0 0 0-3.038-.21c-2.562-.134-6.2-.258-10.697-.366-8.762-.21-20.393-.353-32.116-.394-12.285-.043-23.74.028-32.233.21-4.578.1-8.242.23-10.837.388-1.34.082-2.384.172-3.11.266-.355.047-.732.138-.5-.097.167-.168.1.029.043.295-.107.507-.22 1.231-.33 2.15-.224 1.83-.442 4.385-.64 7.485-.4 6.237-.699 14.297-.82 22.245-.13 8.614-.046 16.52.267 22.477.322 6.112.966 10.249 1.39 10.612 1.337 1.144 22.428 2.139 46.755 2.139 11.734 0 23.016-.219 31.52-.623 4.47-.213 8.1-.473 10.715-.773 1.335-.153 2.393-.315 3.147-.482.552-.122.894-.25.82-.173.355-.362.886-4.586 1.13-10.772.236-5.97.276-13.897.14-22.649-.122-7.87-.382-15.968-.708-22.294-.158-3.076-.326-5.618-.492-7.424a38.38 38.38 0 0 0-.223-1.99z"/><path stroke="#000" stroke-linecap="round" stroke-width="4" d="M1168.902 107.549c4.819 3.097 8.514 4.646 11.085 4.646 2.572 0 6.267-1.549 11.085-4.646M1167.063 90.5V95M1192.572 90.5V95"/><path fill="#FFF" stroke="#1D877A" stroke-linecap="square" stroke-width="3" d="M1122.941 43.229c-1.456.626-1.456 23.736 0 69.328 6.395 11.86 9.918 17.316 10.569 16.366.976-1.423 0-12.136 0-30.174 0-12.025.314-23.541.943-34.548-6.218-14.608-10.055-21.598-11.512-20.972z"/><path stroke="#1D877A" stroke-linecap="square" stroke-width="3" d="M1129.906 52.487h90.09"/><path stroke="#000" stroke-linecap="round" stroke-width="5" d="M1126.343 86.138c-5.509 2.048-9.49 4.724-11.944 8.029-2.453 3.305-3.98 8.54-4.582 15.705"/></g><use stroke="#1D877A" stroke-dasharray="18" stroke-width="12" mask="url(#g)" xlink:href="#c"/><g><path fill="#FFF" stroke="#1D877A" stroke-linecap="square" stroke-width="3" d="M899.26 293.031c.823-.879-8.562-19.796-10.14-20.974-1.576-1.178-91.65-1.374-93.136 0-.72.666 2.684 5.223 5.507 10.143 3.003 5.235 4.551 10.831 5.21 10.831 1.277 0 91.737.879 92.56 0z"/><path stroke="#000" stroke-linecap="round" stroke-width="5" d="M900.371 319.75c5.063 1.837 8.16 4.644 9.295 8.42 1.134 3.776 1.134 9.368 0 16.777M841.531 350.98c-3.574 2.252-5.873 4.372-6.894 6.36-1.022 1.988-1.35 5.306-.987 9.955l-7.646 2.822M856.277 350.98c3.575 2.252 5.873 4.372 6.895 6.36 1.022 1.988 1.35 5.306.987 9.955l7.646 2.822"/><path fill="#FFF" stroke="#1D877A" stroke-width="3" d="M899.15 293.368c-.074-.006-.146-.017-.183-.02a67.407 67.407 0 0 0-3.038-.21c-2.562-.134-6.2-.258-10.698-.366-8.761-.21-20.392-.353-32.115-.394-12.285-.043-23.74.028-32.234.21-4.578.1-8.24.23-10.836.388-1.34.082-2.384.172-3.11.266-.355.047-.733.138-.5-.097.167-.168.099.029.043.295-.108.507-.22 1.231-.331 2.15-.223 1.83-.44 4.385-.64 7.485-.399 6.237-.698 14.297-.819 22.245-.13 8.614-.046 16.52.267 22.477.322 6.112.966 10.249 1.39 10.612 1.337 1.144 22.428 2.139 46.755 2.139 11.734 0 23.016-.219 31.519-.623 4.47-.213 8.1-.473 10.716-.773 1.335-.153 2.393-.315 3.147-.482.552-.122.894-.25.819-.173.356-.362.886-4.586 1.13-10.772.236-5.97.276-13.897.14-22.649-.121-7.87-.382-15.968-.707-22.294-.158-3.076-.327-5.618-.492-7.424a38.38 38.38 0 0 0-.223-1.99z"/><path stroke="#000" stroke-linecap="round" stroke-width="4" d="M841.371 336.549c4.818 3.097 8.513 4.646 11.085 4.646 2.572 0 6.267-1.549 11.085-4.646M839.531 319.5v4.5M865.041 319.5v4.5"/><path fill="#FFF" stroke="#1D877A" stroke-linecap="square" stroke-width="3" d="M795.41 272.229c-1.456.626-1.456 23.736 0 69.328 6.395 11.86 9.918 17.316 10.569 16.366.976-1.423 0-12.136 0-30.174 0-12.025.314-23.541.943-34.548-6.218-14.608-10.055-21.598-11.512-20.972z"/><path stroke="#1D877A" stroke-linecap="square" stroke-width="3" d="M802.375 281.487h90.089"/><path stroke="#000" stroke-linecap="round" stroke-width="5" d="M798.812 315.138c-5.509 2.048-9.49 4.724-11.944 8.029-2.454 3.305-3.981 8.54-4.582 15.705"/></g><g><path fill="#FFF" stroke="#1D877A" stroke-linecap="square" stroke-width="3" d="M1366.792 293.031c.822-.879-8.563-19.796-10.14-20.974-1.577-1.178-91.65-1.374-93.136 0-.72.666 2.683 5.223 5.506 10.143 3.003 5.235 4.552 10.831 5.21 10.831 1.277 0 91.737.879 92.56 0z"/><path stroke="#000" stroke-linecap="round" stroke-width="5" d="M1367.902 319.75c5.063 1.837 8.161 4.644 9.295 8.42 1.134 3.776 1.134 9.368 0 16.777M1309.063 350.98c-3.575 2.252-5.873 4.372-6.895 6.36-1.022 1.988-1.35 5.306-.987 9.955l-7.646 2.822M1323.809 350.98c3.574 2.252 5.872 4.372 6.894 6.36 1.022 1.988 1.35 5.306.987 9.955l7.646 2.822"/><path fill="#FFF" stroke="#1D877A" stroke-width="3" d="M1366.68 293.368c-.073-.006-.144-.017-.182-.02a67.407 67.407 0 0 0-3.038-.21c-2.562-.134-6.2-.258-10.697-.366-8.762-.21-20.393-.353-32.116-.394-12.285-.043-23.74.028-32.233.21-4.578.1-8.242.23-10.837.388-1.34.082-2.384.172-3.11.266-.355.047-.732.138-.5-.097.167-.168.1.029.043.295-.107.507-.22 1.231-.33 2.15-.224 1.83-.442 4.385-.64 7.485-.4 6.237-.699 14.297-.82 22.245-.13 8.614-.046 16.52.267 22.477.322 6.112.966 10.249 1.39 10.612 1.337 1.144 22.428 2.139 46.755 2.139 11.734 0 23.016-.219 31.52-.623 4.47-.213 8.1-.473 10.715-.773 1.335-.153 2.393-.315 3.147-.482.552-.122.894-.25.82-.173.355-.362.886-4.586 1.13-10.772.236-5.97.276-13.897.14-22.649-.122-7.87-.382-15.968-.708-22.294-.158-3.076-.326-5.618-.492-7.424a38.38 38.38 0 0 0-.223-1.99z"/><path stroke="#000" stroke-linecap="round" stroke-width="4" d="M1308.902 336.549c4.819 3.097 8.514 4.646 11.085 4.646 2.572 0 6.267-1.549 11.085-4.646M1307.063 319.5v4.5M1332.572 319.5v4.5"/><path fill="#FFF" stroke="#1D877A" stroke-linecap="square" stroke-width="3" d="M1262.941 272.229c-1.456.626-1.456 23.736 0 69.328 6.395 11.86 9.918 17.316 10.569 16.366.976-1.423 0-12.136 0-30.174 0-12.025.314-23.541.943-34.548-6.218-14.608-10.055-21.598-11.512-20.972z"/><path stroke="#1D877A" stroke-linecap="square" stroke-width="3" d="M1269.906 281.487h90.09"/><path stroke="#000" stroke-linecap="round" stroke-width="5" d="M1266.343 315.138c-5.509 2.048-9.49 4.724-11.944 8.029-2.453 3.305-3.98 8.54-4.582 15.705"/></g><g><path fill="#FFF" stroke="#1D877A" stroke-linecap="square" stroke-width="3" d="M1131.057 293.031c.823-.879-8.562-19.796-10.14-20.974-1.576-1.178-91.65-1.374-93.136 0-.72.666 2.684 5.223 5.507 10.143 3.003 5.235 4.551 10.831 5.21 10.831 1.277 0 91.737.879 92.56 0z"/><path stroke="#000" stroke-linecap="round" stroke-width="5" d="M1132.168 319.75c5.062 1.837 8.16 4.644 9.295 8.42 1.134 3.776 1.134 9.368 0 16.777M1073.328 350.98c-3.575 2.252-5.873 4.372-6.894 6.36-1.022 1.988-1.351 5.306-.987 9.955l-7.646 2.822M1088.074 350.98c3.575 2.252 5.873 4.372 6.895 6.36 1.021 1.988 1.35 5.306.987 9.955l7.646 2.822"/><path fill="#FFF" stroke="#1D877A" stroke-width="3" d="M1130.947 293.368c-.074-.006-.146-.017-.183-.02a67.407 67.407 0 0 0-3.038-.21c-2.562-.134-6.2-.258-10.698-.366-8.761-.21-20.392-.353-32.115-.394-12.285-.043-23.74.028-32.234.21-4.578.1-8.241.23-10.836.388-1.34.082-2.384.172-3.11.266-.355.047-.733.138-.5-.097.166-.168.099.029.042.295-.107.507-.219 1.231-.33 2.15-.223 1.83-.44 4.385-.64 7.485-.4 6.237-.698 14.297-.819 22.245-.13 8.614-.046 16.52.267 22.477.321 6.112.965 10.249 1.39 10.612 1.337 1.144 22.427 2.139 46.755 2.139 11.734 0 23.015-.219 31.519-.623 4.47-.213 8.1-.473 10.716-.773 1.335-.153 2.393-.315 3.147-.482.552-.122.894-.25.819-.173.356-.362.886-4.586 1.13-10.772.236-5.97.276-13.897.14-22.649-.122-7.87-.382-15.968-.707-22.294-.159-3.076-.327-5.618-.492-7.424a38.38 38.38 0 0 0-.223-1.99z"/><path stroke="#000" stroke-linecap="round" stroke-width="4" d="M1073.168 336.549c4.818 3.097 8.513 4.646 11.085 4.646 2.572 0 6.267-1.549 11.085-4.646M1071.328 319.5v4.5M1096.838 319.5v4.5"/><path fill="#FFF" stroke="#1D877A" stroke-linecap="square" stroke-width="3" d="M1027.207 272.229c-1.456.626-1.456 23.736 0 69.328 6.395 11.86 9.918 17.316 10.568 16.366.976-1.423 0-12.136 0-30.174 0-12.025.315-23.541.944-34.548-6.218-14.608-10.056-21.598-11.512-20.972z"/><path stroke="#1D877A" stroke-linecap="square" stroke-width="3" d="M1034.172 281.487h90.089"/><path stroke="#000" stroke-linecap="round" stroke-width="5" d="M1030.608 315.138c-5.508 2.048-9.49 4.724-11.943 8.029-2.454 3.305-3.981 8.54-4.582 15.705"/></g><use stroke="#1D877A" stroke-dasharray="18" stroke-width="12" mask="url(#h)" xlink:href="#d"/></g></svg>
