<svg xmlns="http://www.w3.org/2000/svg" xmlns:xlink="http://www.w3.org/1999/xlink" viewBox="0 0 673 254"><defs><path id="a" d="M.875.602h671.742v253.195H.875V.602z"/><mask id="b" width="671.742" height="253.195" x="0" y="0" fill="#fff"><use xlink:href="#a"/></mask></defs><g fill="none" fill-rule="evenodd"><path fill="#FFF" stroke="#1D877A" stroke-linecap="square" stroke-width="3" d="M153.604 87.031c.823-.879-8.562-19.796-10.14-20.974-1.576-1.178-91.65-1.374-93.136 0-.72.666 2.684 5.223 5.506 10.143 3.004 5.235 4.552 10.831 5.21 10.831 1.278 0 91.737.879 92.56 0z"/><path stroke="#000" stroke-linecap="round" stroke-width="5" d="M154.715 113.75c5.062 1.837 8.16 4.644 9.295 8.42 1.134 3.776 1.134 9.368 0 16.777M95.875 144.98c-3.575 2.252-5.873 4.372-6.895 6.36-1.021 1.988-1.35 5.306-.986 9.955l-7.646 2.822M110.621 144.98c3.575 2.252 5.873 4.372 6.895 6.36 1.021 1.988 1.35 5.306.986 9.955l7.646 2.822"/><path fill="#FFF" stroke="#1D877A" stroke-width="3" d="M153.493 87.368c-.074-.006-.145-.017-.182-.02a67.407 67.407 0 0 0-3.038-.21c-2.563-.134-6.2-.258-10.698-.366-8.762-.21-20.392-.353-32.115-.394-12.285-.043-23.74.028-32.234.21-4.578.1-8.241.23-10.836.388-1.34.082-2.384.172-3.111.266-.354.047-.732.138-.5-.097.167-.168.1.029.043.295-.107.507-.219 1.231-.33 2.15-.223 1.83-.441 4.385-.64 7.485-.4 6.237-.698 14.297-.819 22.245-.13 8.614-.046 16.52.267 22.477.321 6.112.965 10.249 1.39 10.612 1.337 1.144 22.427 2.139 46.755 2.139 11.734 0 23.015-.219 31.519-.623 4.47-.213 8.1-.473 10.716-.773 1.335-.153 2.392-.315 3.147-.482.552-.122.893-.25.819-.173.356-.362.886-4.586 1.13-10.772.236-5.97.276-13.897.14-22.649-.122-7.87-.382-15.968-.707-22.294-.159-3.076-.327-5.618-.492-7.424a38.38 38.38 0 0 0-.224-1.99z"/><path stroke="#000" stroke-linecap="round" stroke-width="4" d="M95.715 130.549c4.818 3.097 8.513 4.646 11.085 4.646 2.571 0 6.266-1.549 11.085-4.646M93.875 113.5v4.5M119.385 113.5v4.5"/><path fill="#FFF" stroke="#1D877A" stroke-linecap="square" stroke-width="3" d="M49.754 66.229c-1.456.626-1.456 23.736 0 69.328 6.395 11.86 9.918 17.316 10.568 16.366.976-1.423 0-12.136 0-30.174 0-12.025.315-23.541.944-34.548-6.218-14.608-10.056-21.598-11.512-20.972z"/><path stroke="#1D877A" stroke-linecap="square" stroke-width="3" d="M56.719 75.487h90.089"/><path stroke="#000" stroke-linecap="round" stroke-width="5" d="M53.155 109.138c-5.508 2.048-9.49 4.724-11.943 8.029-2.454 3.305-3.981 8.54-4.582 15.705"/><g><path fill="#FFF" stroke="#1D877A" stroke-linecap="square" stroke-width="3" d="M294.604 87.031c.823-.879-8.562-19.796-10.14-20.974-1.576-1.178-91.65-1.374-93.136 0-.72.666 2.684 5.223 5.506 10.143 3.004 5.235 4.552 10.831 5.21 10.831 1.278 0 91.737.879 92.56 0z"/><path stroke="#000" stroke-linecap="round" stroke-width="5" d="M295.715 113.75c5.062 1.837 8.16 4.644 9.295 8.42 1.134 3.776 1.134 9.368 0 16.777M236.875 144.98c-3.575 2.252-5.873 4.372-6.895 6.36-1.021 1.988-1.35 5.306-.986 9.955l-7.646 2.822M251.621 144.98c3.575 2.252 5.873 4.372 6.895 6.36 1.021 1.988 1.35 5.306.986 9.955l7.646 2.822"/><path fill="#FFF" stroke="#1D877A" stroke-width="3" d="M294.493 87.368c-.074-.006-.145-.017-.182-.02a67.407 67.407 0 0 0-3.038-.21c-2.563-.134-6.2-.258-10.698-.366-8.762-.21-20.392-.353-32.115-.394-12.285-.043-23.74.028-32.234.21-4.578.1-8.241.23-10.836.388-1.34.082-2.384.172-3.111.266-.354.047-.732.138-.5-.097.167-.168.1.029.043.295-.107.507-.219 1.231-.33 2.15-.223 1.83-.441 4.385-.64 7.485-.4 6.237-.698 14.297-.819 22.245-.13 8.614-.046 16.52.267 22.477.321 6.112.965 10.249 1.39 10.612 1.337 1.144 22.427 2.139 46.755 2.139 11.734 0 23.015-.219 31.519-.623 4.47-.213 8.1-.473 10.716-.773 1.335-.153 2.392-.315 3.147-.482.552-.122.894-.25.819-.173.356-.362.886-4.586 1.13-10.772.236-5.97.276-13.897.14-22.649-.122-7.87-.382-15.968-.707-22.294-.159-3.076-.327-5.618-.492-7.424a38.38 38.38 0 0 0-.224-1.99z"/><path stroke="#000" stroke-linecap="round" stroke-width="4" d="M236.715 130.549c4.818 3.097 8.513 4.646 11.085 4.646 2.571 0 6.266-1.549 11.085-4.646M234.875 113.5v4.5M260.385 113.5v4.5"/><path fill="#FFF" stroke="#1D877A" stroke-linecap="square" stroke-width="3" d="M190.754 66.229c-1.456.626-1.456 23.736 0 69.328 6.395 11.86 9.918 17.316 10.568 16.366.976-1.423 0-12.136 0-30.174 0-12.025.315-23.541.944-34.548-6.218-14.608-10.056-21.598-11.512-20.972z"/><path stroke="#1D877A" stroke-linecap="square" stroke-width="3" d="M197.719 75.487h90.089"/><path stroke="#000" stroke-linecap="round" stroke-width="5" d="M194.155 109.138c-5.508 2.048-9.49 4.724-11.943 8.029-2.454 3.305-3.981 8.54-4.582 15.705"/></g><use stroke="#1D877A" stroke-dasharray="18" stroke-width="12" mask="url(#b)" xlink:href="#a"/><path fill="#000" d="M375.102 154.781c-1.433-.39-2.767-1.4-4.004-3.027-1.237-1.628-1.986-3.418-2.246-5.371-.26-1.953.26-3.874 1.562-5.762 1.302-1.888 3.776-3.223 7.422-4.004 18.88 5.339 34.83 7.975 47.851 7.91 13.021-.065 22.852-1.757 29.493-5.078 6.64-3.32 9.863-7.715 9.668-13.183-.196-5.47-4.004-11.003-11.426-16.602-2.474-1.823-5.925-3.516-10.352-5.078-4.427-1.563-9.342-3.125-14.746-4.688a617.192 617.192 0 0 0-17.187-4.687 242.727 242.727 0 0 1-17.676-5.273c-3.776-1.172-7.194-3.19-10.254-6.055-3.06-2.865-5.631-6.218-7.715-10.059-2.083-3.84-3.515-8.008-4.297-12.5a37.503 37.503 0 0 1 .098-13.476c.846-4.493 2.604-8.854 5.273-13.086 2.67-4.232 6.478-7.976 11.426-11.23 4.558-2.345 9.603-4.33 15.137-5.958a93.347 93.347 0 0 1 17.09-3.32 82.553 82.553 0 0 1 17.48.098c5.795.65 11.23 2.05 16.309 4.199 5.078 2.148 9.57 5.11 13.476 8.887 3.907 3.776 6.901 8.528 8.985 14.257.26 1.823-.196 3.386-1.367 4.688-1.172 1.302-2.93 2.05-5.274 2.246-2.344.195-5.078-.39-8.203-1.758-3.125-1.367-6.51-3.939-10.156-7.715-4.688-2.604-10.254-4.036-16.7-4.297-6.445-.26-12.695.293-18.75 1.66-6.054 1.368-11.49 3.418-16.308 6.153-4.818 2.734-7.943 5.924-9.375 9.57-1.432 3.646-.684 7.617 2.246 11.914s9.082 8.594 18.457 12.89c19.14 3.777 34.44 8.302 45.899 13.575 11.458 5.274 19.824 10.807 25.097 16.602 5.274 5.794 7.78 11.653 7.52 17.578-.26 5.924-2.572 11.426-6.934 16.504-4.362 5.078-10.417 9.505-18.164 13.28-7.747 3.777-16.439 6.446-26.074 8.009-9.636 1.562-19.922 1.823-30.86.781-10.937-1.042-21.744-3.906-32.421-8.594zm179.882 88.086c-7.812-1.823-14.323-4.752-19.53-8.789-5.21-4.036-8.855-8.04-10.938-12.012-2.084-3.971-2.41-7.421-.977-10.351 1.432-2.93 4.883-4.2 10.352-3.809 6.12 5.86 12.011 9.798 17.675 11.817 5.664 2.018 10.84 2.376 15.528 1.074 4.687-1.302 8.659-4.102 11.914-8.399 3.255-4.296 5.469-9.765 6.64-16.406 1.172-6.64 1.14-14.355-.097-23.144-1.237-8.79-4.004-18.327-8.301-28.614-3.646 4.818-7.943 8.724-12.89 11.72-4.949 2.994-10.157 5.012-15.626 6.054-5.468 1.041-11.002 1.074-16.601.097-5.6-.976-10.807-3.06-15.625-6.25s-9.082-7.454-12.793-12.792c-3.711-5.34-6.413-11.915-8.106-19.727-.78-9.636-.26-18.522 1.563-26.66 1.823-8.138 4.655-15.235 8.496-21.29 3.841-6.054 8.529-11.002 14.062-14.843 5.534-3.841 11.622-6.348 18.262-7.52 6.64-1.171 13.705-.813 21.192 1.075s15.071 5.436 22.754 10.644c.911 6.25 2.44 13.705 4.59 22.363a9844.388 9844.388 0 0 1 6.835 27.735 725.401 725.401 0 0 1 6.739 30.37c2.083 10.418 3.548 20.509 4.394 30.274.846 9.766.846 18.946 0 27.54-.846 8.593-3.092 16.015-6.738 22.265-3.646 6.25-8.92 10.97-15.82 14.16-6.902 3.19-15.886 4.33-26.954 3.418zm-39.843-136.914c0 8.854 1.302 15.983 3.906 21.387s5.924 9.342 9.96 11.816c4.037 2.474 8.4 3.581 13.087 3.32 4.687-.26 9.147-1.562 13.379-3.906 4.231-2.343 7.877-5.599 10.937-9.765 3.06-4.167 4.916-8.985 5.567-14.453-.651-2.605-1.237-5.502-1.758-8.692a312.3 312.3 0 0 0-1.758-9.765c-.651-3.32-1.367-6.51-2.149-9.57-.78-3.06-1.627-5.762-2.539-8.106-2.604-3.386-5.631-5.567-9.082-6.543-3.45-.977-6.966-1.042-10.546-.196-3.581.847-7.097 2.41-10.547 4.688a44.392 44.392 0 0 0-9.278 8.203c-2.734 3.19-4.948 6.64-6.64 10.352-1.693 3.71-2.54 7.454-2.54 11.23z"/><path stroke="#1D877A" stroke-dasharray="12" stroke-linecap="square" stroke-width="3" d="M43.5 166.5h603.187"/></g></svg>
