<svg xmlns="http://www.w3.org/2000/svg" fill="none" viewBox="0 0 568 163"><path fill="#fff" d="M2.712 2.362H20.37v14.361h.392C25.273 6.886 37.044 0 51.365 0c18.05 0 33.742 10.82 33.742 35.608V95.61H67.453V40.527c0-17.509-10.005-24-21.189-24-14.711 0-25.893 9.443-25.893 31.081V95.61H2.712V2.362zm165.302 38.952c-.391-15.54-9.024-27.147-26.877-27.147-17.459 0-28.837 14.754-28.837 27.147h55.714zM112.3 55.48c0 16.33 15.104 27.15 31.388 27.15 10.79 0 18.638-5.511 25.503-13.969l13.34 10.228c-9.809 12.786-23.344 19.083-41.197 19.083-29.428 0-47.869-21.246-47.869-48.985 0-27.934 20.208-48.984 48.064-48.984 32.763 0 45.318 25.18 45.318 49.183v6.294H112.3z"/><path fill="#fff" d="M220.706 45.838L187.749 2.362h22.756l22.561 33.05 22.168-33.05h21.382l-31.78 43.476 37.667 49.772h-22.757L232.28 56.462 204.815 95.61h-21.776l37.668-49.772h-.001zm66.502-43.476h16.48v14.559h.392C305.846 11.41 317.225 0 333.898 0c13.733 0 23.151 5.903 29.038 17.314C369.016 5.904 381.179 0 392.362 0c28.641 0 35.311 20.46 35.311 41.313V95.61h-17.655V43.675c0-14.166-2.943-27.147-20.012-27.147-17.067 0-23.736 11.605-23.736 28.132v50.95h-17.657V46.821c0-17.705-2.549-30.293-19.618-30.293-12.753 0-24.129 9.638-24.129 30.686V95.61h-17.658V2.362zm213.609 45.566c0 6.275-5.073 11.362-11.33 11.362-6.26 0-11.333-5.087-11.333-11.362 0-6.277 5.073-11.364 11.332-11.364 6.258 0 11.331 5.087 11.331 11.364z"/><path fill="#fff" d="M489.078 16.536c15.908 0 29.106 11.492 31.875 26.64h-6.227l15.151 14.938 15.194-14.938h-7.596C534.571 18.95 514.022.166 489.078.166c-20.227 0-37.579 12.352-44.962 29.945l15.213 5.973c5.001-11.503 16.436-19.548 29.749-19.548zm0 65.064c-15.605 0-28.601-11.06-31.703-25.782h6.87L449.096 40.88l-15.197 14.938h6.892c3.28 23.811 23.641 42.153 48.287 42.153 20.18 0 37.495-12.293 44.911-29.814l-15.22-5.976c-5.029 11.434-16.426 19.42-29.691 19.42zm65.562-70.082h2.012c1.794 0 2.466-.935 2.466-2.06 0-1.234-.861-2.057-2.316-2.057h-2.162v4.117zm3.806 1.571l3.245 4.677h-2.276l-3.021-4.49h-1.754v4.49h-1.903V5.642h4.364c2.8 0 4.029 1.645 4.029 3.853 0 1.986-1.043 3.145-2.684 3.595zm7.352-1.312c0-5.085-3.957-9.28-9.11-9.28-5.22 0-9.213 4.23-9.213 9.32 0 5.049 3.993 9.281 9.177 9.281 5.151 0 9.146-4.267 9.146-9.32zm2.202 0c0 6.176-5.002 11.453-11.348 11.453-6.345 0-11.344-5.2-11.344-11.453 0-6.207 4.999-11.485 11.38-11.485C563.033.292 568 5.53 568 11.777zM13.359 131.213H0v-2.975h30.063v2.976H16.706v24.763h-3.347v-24.764zm20.345-2.975h3.082v10.684c2.093-1.831 4.833-3.509 8.372-3.509 2.474 0 8.22.571 8.22 7.401v13.165h-3.083v-12.554c.077-4.732-3.349-5.382-5.517-5.382-3.388 0-6.202 2.1-7.992 4.008v13.928h-3.082v-27.741zm42.269 15.76c-.61-3.283-3.426-5.954-8.144-5.954-4.529 0-7.078 2.291-7.953 5.954h16.097zm2.776 7.823c-2.054 2.174-4.033 4.769-10.806 4.769-6.696 0-11.264-4.58-11.264-10.687 0-6.331 4.756-10.491 10.883-10.491 6.356 0 11.91 3.32 11.76 11.217h-19.56c.304 3.742 3.311 7.326 8.485 7.326 5.136 0 6.85-2.327 8.106-3.891l2.396 1.757z"/><path fill="#FF8401" d="M93.692 128.238h5.785l10.387 22.133 10.579-22.133h5.784l-13.547 27.741h-5.631l-13.357-27.741zm47.556 17.399c0-4.808-3.082-6.79-6.66-6.79-3.614 0-6.659 1.982-6.659 6.79 0 4.35 2.436 6.984 6.659 6.984 4.226 0 6.66-2.634 6.66-6.984zm-18.114.077c0-5.494 3.311-10.913 11.454-10.913 8.144 0 11.454 5.419 11.454 10.913 0 8.166-5.861 10.951-11.454 10.951-5.594 0-11.454-2.785-11.454-10.951zm25.144-10.227h4.642v2.556c1.485-1.451 3.501-3.242 7.65-3.242 4.262 0 7.99 1.791 7.99 8.052v13.124h-4.72v-11.37c0-4.044-1.217-5.76-4.374-5.76-3.767 0-5.29 1.563-6.47 3.013v14.117h-4.718v-20.49zm40.138 10.15a37.238 37.238 0 0 0-7.345 1.033c-2.93.683-4.299 1.676-4.338 3.47-.038 1.756 1.104 2.863 3.424 2.863 3.578 0 6.433-1.566 8.259-2.671v-4.695zm4.718 7.022c0 1.373.076 2.748.38 3.318h-4.833c-.152-.686-.265-1.371-.265-2.06-1.98 1.146-4.91 2.748-8.943 2.748-2.701 0-7.915-1.145-7.915-6.182 0-6.907 10.274-7.898 16.858-8.281v-.914c0-1.565-1.407-2.672-5.29-2.672-4.338 0-5.251 1.604-5.518 2.71H172.7c1.142-5.573 6.583-6.525 10.387-6.525 9.857 0 10.047 4.808 10.047 7.632v10.226zm20.273-10.379c0-3.052-3.12-3.969-5.63-3.969-2.589 0-5.481.917-5.481 4.006 0 3.206 2.93 4.008 5.44 4.008 2.513 0 5.671-1.028 5.671-4.045zm-9.095 13.967c-1.103 0-2.701.305-2.701 1.488 0 1.679 2.207 1.87 5.935 1.87 3.693 0 7.65-.42 7.65-2.059 0-1.413-.837-1.336-6.051-1.299h-4.833zm16.02-17.44c-.419-.114-1.178-.38-1.711-.303-.534 0-1.218.228-1.522.382.304.418.951 1.638.951 3.394 0 5.571-4.946 7.557-10.35 7.557-1.903 0-3.388-.306-4.301-.65-.532.344-1.293.916-1.293 1.641s.457 1.222 4.567 1.182h6.431c4.602.154 7.267 1.49 7.267 4.694 0 4.885-7.116 6.296-13.281 6.296-5.707 0-10.654-1.143-10.654-4.54 0-2.444 2.169-2.786 4.109-3.169v-.075c-1.75-.151-3.082-1.105-3.082-3.166s1.942-3.626 3.577-3.855v-.074c-2.283-1.262-3.387-3.283-3.387-5.879 0-6.028 5.519-7.44 10.541-7.44 3.577 0 5.671.914 7.078 1.87.723-.763 2.246-2.213 4.299-2.213h.761v4.348zm19.78 4.58c-.723-3.474-3.082-4.771-6.469-4.771-2.473 0-5.328.842-6.279 4.771h12.748zm4.642 6.448c-.342 1.678-3.082 6.83-10.654 6.83-7.307 0-11.682-4.578-11.682-10.988 0-5.8 3.804-10.876 11.338-10.876 7.688.075 11.379 4.846 11.379 12.249h-17.923c.19 1.297.913 5.573 6.734 5.799 2.968 0 4.947-1.41 5.633-3.014h5.175zm4.809-13.068h1.464c.887 0 1.596-.103 1.596-1.083 0-.949-.784-1.051-1.596-1.051h-1.464v2.134zm1.227.8h-1.227v2.994h-.887v-6.729h2.661c1.508 0 2.173.651 2.173 1.867 0 1.17-.783 1.719-1.685 1.868l2.024 2.994h-1.093l-1.966-2.994zm.059 4.402a4.75 4.75 0 0 0 4.759-4.758 4.762 4.762 0 0 0-4.759-4.772c-2.632 0-4.745 2.134-4.745 4.772a4.747 4.747 0 0 0 2.927 4.4c.577.238 1.194.36 1.818.358zm0-10.422a5.643 5.643 0 0 1 5.647 5.65c0 3.129-2.528 5.662-5.647 5.662-3.118 0-5.633-2.534-5.633-5.662a5.632 5.632 0 0 1 5.633-5.65z"/><path fill="#fff" d="M290.282 145.799l-7.416-14.908-7.414 14.908h14.83zm-9.468-17.541h4.106l14.183 27.721h-3.764l-3.575-7.207h-17.833l-3.613 7.207h-3.726l14.222-27.721zm25.887 12.927h11.976c5.551 0 8.365-1.18 8.365-4.957 0-3.812-2.814-4.996-8.365-4.996h-11.976v9.953zm-3.348-12.927h16.198c5.59 0 10.685 1.602 10.685 7.933 0 6.365-5.095 7.967-10.685 7.967h-12.85v11.821h-3.348v-27.721z"/><path fill="#fff" fill-rule="evenodd" d="M334.984 128.258h3.346v27.719h-3.346v-27.719z" clip-rule="evenodd"/><path fill="#fff" d="M362.622 141.185h11.977c5.553 0 8.366-1.18 8.366-4.957 0-3.812-2.814-4.996-8.366-4.996h-11.977v9.953zm-3.346-12.927h16.2c5.587 0 10.684 1.602 10.684 7.933 0 6.365-5.097 7.967-10.684 7.967h-12.854v11.821h-3.346v-27.721z"/><path fill="#fff" fill-rule="evenodd" d="M389.992 128.258h3.08v27.719h-3.08v-27.719z" clip-rule="evenodd"/><path fill="#fff" d="M415.051 144.959c-9.051.877-15.135 1.715-15.135 5.567 0 3.126 3.498 3.546 5.02 3.546 4.295 0 8.137-2.06 10.115-3.127v-5.986zm3.08 7.93c0 1.183.152 2.022.34 3.088h-3.08c-.151-.609-.38-1.6-.38-2.402-2.888 1.87-6.124 3.014-9.922 3.014-3.272 0-8.1-.915-8.1-6.062 0-6.903 10.302-7.169 18.062-8.083v-.763c0-2.707-3.234-3.737-6.389-3.737-5.287 0-7.149 2.212-8.137 3.355l-2.321-1.602c1.142-1.412 3.309-4.269 10.229-4.269 4.524 0 9.698 1.333 9.698 6.442v11.019zm18.662-14.22h-7.907v12.048c0 2.173.948 3.241 4.067 3.241 1.482 0 2.699-.268 4.372-.609v2.667c-2.205.345-3.765.574-5.018.574-6.501 0-6.501-3.966-6.501-5.568v-12.353h-4.221v-2.632h4.221v-6.633h3.08v6.633h7.907v2.632zm7.868.417h-5.018v-2.63h5.018v-1.525c0-3.278 1.028-7.36 7.073-7.36 3.155 0 4.371.343 5.172.534v2.745c-1.369-.342-2.699-.647-4.26-.647-4.259 0-4.905 2.021-4.905 4.957v1.296h8.175v2.63h-8.175v16.891h-3.08v-16.891zm32.66 6.941c0-3.623-2.357-7.971-8.364-7.971-6.009 0-8.403 4.348-8.403 7.971 0 4.767 3.192 7.93 8.403 7.93 5.208 0 8.364-3.163 8.364-7.93zm-19.847-.381c0-5.683 4.488-10.218 11.483-10.218 6.997 0 11.445 4.535 11.445 10.218 0 7.052-4.677 10.943-11.445 10.943-6.77 0-11.483-3.891-11.483-10.943zm26.991-9.609h3.08v4.157c1.786-2.022 4.296-4.766 8.289-4.766.683 0 1.255.038 1.824.152v3.089c-.38-.039-1.141-.268-2.47-.268-4.373 0-7.53 5.073-7.643 5.643v11.935h-3.08v-19.942zm16.726 0h2.965v2.783c2.282-1.946 4.64-3.392 7.912-3.392 4.334 0 5.512 2.096 6.311 3.546 3.118-2.632 5.172-3.546 8.1-3.546 1.824 0 7.298.38 7.298 6.139v14.412h-3.08V142.71c0-1.222 0-4.652-4.372-4.652-3.459 0-6.008 2.288-7.3 3.509v14.412h-3.079V142.71c0-1.222 0-4.652-4.297-4.652-3.538 0-6.085 2.288-7.377 3.509v14.412h-3.081v-19.942z"/></svg>