<svg xmlns="http://www.w3.org/2000/svg" viewBox="0 0 391 513"><g fill="none" fill-rule="evenodd"><path fill="#FFF" fill-rule="nonzero" d="M9.129 38.935c0 32.212 1.019 65.911-2.677 97.92-3.874 33.557-1.885 67.46-1.913 101.188-.017 21.27 1.882 42.457 1.344 63.721-.276 10.93-1.903 22.207-1.481 33.11.408 10.543 3.764 20.936 4.242 31.52.55 12.18-.331 24.768-1.491 36.878-2.241 23.391-8.025 52.135.319 74.771 2.35 6.374 8.906 11.053 14.788 14.363 12.017 6.762 28.072 8.072 41.567 8.217 7.488.08 15.046 1.428 22.444 2.808 11.025 2.058 24.053 2.782 35.223 2.802 18.465.033 36.516-.328 54.912 1.407 34.891 3.29 70.187 3.558 104.625-2.437 26.098-4.543 51.985-5.783 77.243-13.904 14.377-4.623 16.904-14.986 19.471-29.337 3.503-19.585-.265-39.738.582-59.296.997-23.02.214-46.029 1.075-68.938.425-11.3 1.029-22.545 1.516-33.842 1.068-24.738-5.251-48.14-4.723-72.776.609-28.422 3.488-56.73 4.838-85.116 1.021-21.455 2.923-44.458-8.57-63.167-8.309-13.525-20.486-25.675-27.753-39.897-3.495-6.839-6.834-16.265-12.724-21.443-9.253-8.134-19.077-7.73-30.584-7.095-13.077.723-27.279-.228-40.231-1.946-17.333-2.298-34.992-4.713-52.461-4.703-18.424.01-36.765-3.127-55.109-1.148-18.731 2.021-38.155 5.991-57.032 3.717-14.885-1.793-28.445-2.29-43.451-1.575-12.768.611-29.12-.92-37.245 11.236-4.387 6.565-4.05 13.007-6.744 22.962z"/><path fill="#000" fill-rule="nonzero" d="M387.912 297.241c-2.094-54.572-.15-109.076 1.255-163.583.278-10.75 2.352-22.304.728-32.97-1.877-12.32-11.142-23.274-18.352-33.013-9.322-12.592-18.419-25.212-27.618-37.888-5.941-8.187-11.128-17.93-20.822-22.1-14.305-6.154-32.999-4.273-48.235-5.057-17.109-.88-34.002-2.113-51.159-2.05-35.492.13-71.129 1.534-106.613 1.092C98.515 1.442 80.111.468 61.507.955c-13.474.353-28.993-1.448-42.242 1.21C8.199 4.386 4.329 13.012 3.978 23.381c-.932 27.58-1.41 54.957-.661 82.554.685 30.591-.317 61.193-1.453 91.777-2.448 65.903-1.338 132.405.313 198.32.731 29.17-5.783 62.073 4.015 90.3 8.081 23.28 34.805 22.227 55.297 23.04 30.14 1.196 60.527-.149 90.569 1.665a846.1 846.1 0 0 0 95.647.366c31.857-1.68 63.124-2.143 94.827-6.284 24.393-3.185 39.717-10.843 43.328-36.9 7.803-56.306 4.223-114.39 2.052-170.978zm-71.98-276.726c1.382.634 2.75 1.363 4.093 2.324 5.906 4.225 9.351 10.427 13.592 16.253 8.227 11.303 16.08 22.7 24.522 33.866 4.785 6.33 9.876 12.772 13.454 19.798-10.748.324-21.495.64-32.227 1.175-6.684.334-14.687 2.034-20.241-2.87-5.064-4.473-3.148-9.572-2.887-15.968.708-17.397 1.966-36.926-.306-54.578zm57.499 262.228c1.366 51.245 2.769 101.93 1.158 153.156-.362 11.517-.581 24.664-3.452 35.863-4.841 18.885-23.681 18.974-39.75 21.181-27.026 3.713-53.987 3.86-81.155 5.541-54.071 3.346-109.185 2.638-163.299.275-12.792-.559-25.613-.82-38.394-1.596-7.378-.448-15.558-.468-21.995-4.596-9.64-6.18-9.869-15.096-11.033-25.085-3.179-27.285-.102-54.948-.864-82.358-1.836-66.044-2.009-132.51-.22-198.56 1.007-37.165-.656-74.336-.092-111.504.143-9.444.421-18.886.929-28.317.367-6.816-.91-17.492 2.016-23.74 5.14-10.977 20.366-7.73 30.141-8 28.751-.794 57.447.723 86.152-.099 54.322-1.556 108.208-.552 162.442 2.383 3.397.184 6.63.281 9.735.614-2.667 7.94-1.234 18.924-1.411 25.993-.368 14.742-4.343 32.86-.96 47.25 2.609 11.1 11.413 14.578 21.955 16.215 15.989 2.482 34.284-.374 50.69-.945.152 1.16.269 2.33.303 3.526.288 10.297-.891 21.025-1.391 31.334-2.282 47.003-2.76 94.392-1.505 141.47z"/><path fill="#000" d="M86.387 123.5c-5.521 1.302-10.183 1.328-13.985.078-3.802-1.25-6.81-3.32-9.023-6.21-2.214-2.891-3.711-6.368-4.492-10.43-.782-4.063-.938-8.256-.469-12.579a49.952 49.952 0 0 1 3.086-12.656c1.588-4.114 3.633-7.656 6.133-10.625 2.24-2.5 4.661-3.984 7.265-4.453 2.605-.469 5.04-.117 7.305 1.055 2.266 1.172 4.219 3.047 5.86 5.625 1.64 2.578 2.643 5.664 3.007 9.257.209.47.156 1.016-.156 1.641a3.847 3.847 0 0 1-1.367 1.524 3.07 3.07 0 0 1-1.953.507c-.703-.052-1.315-.52-1.836-1.406-.938-3.49-2.07-6.015-3.399-7.578-1.328-1.563-2.669-2.46-4.023-2.695-1.354-.235-2.682.039-3.985.82a11.712 11.712 0 0 0-3.28 2.89c-2.761 4.636-4.597 9.076-5.509 13.32-.911 4.246-1.106 8.087-.586 11.524.521 3.438 1.641 6.342 3.36 8.711 1.719 2.37 3.802 3.998 6.25 4.883 2.448.886 5.156.899 8.125.04 2.969-.86 5.963-2.8 8.984-5.821.938.625 1.524 1.367 1.758 2.226.234.86.234 1.758 0 2.696-.234.937-.651 1.862-1.25 2.773a15.515 15.515 0 0 1-1.992 2.461c-.677.677-1.341 1.224-1.992 1.64-.651.417-1.263.678-1.836.782zm10-1.953c-.573-.156-1.107-.56-1.602-1.211a4.479 4.479 0 0 1-.898-2.148c-.104-.782.104-1.55.625-2.305.52-.755 1.51-1.29 2.968-1.602 7.553 2.136 13.933 3.19 19.141 3.164 5.208-.026 9.14-.703 11.797-2.03 2.656-1.33 3.945-3.087 3.867-5.274-.078-2.188-1.601-4.401-4.57-6.641-.99-.73-2.37-1.406-4.14-2.031-1.772-.625-3.738-1.25-5.9-1.875a246.876 246.876 0 0 0-6.874-1.875 97.09 97.09 0 0 1-7.07-2.11c-1.511-.468-2.878-1.276-4.102-2.421a15.75 15.75 0 0 1-3.086-4.024 16.25 16.25 0 0 1-1.719-5c-.312-1.797-.3-3.594.04-5.39.338-1.797 1.04-3.542 2.109-5.235 1.067-1.693 2.59-3.19 4.57-4.492 1.823-.938 3.841-1.732 6.055-2.383a37.339 37.339 0 0 1 6.836-1.328 33.021 33.021 0 0 1 6.992.039c2.318.26 4.492.82 6.523 1.68a17.489 17.489 0 0 1 5.39 3.554c1.563 1.51 2.761 3.412 3.595 5.704.104.729-.079 1.354-.547 1.874-.469.521-1.172.82-2.11.899-.937.078-2.03-.156-3.28-.703-1.25-.547-2.605-1.576-4.063-3.086-1.875-1.042-4.102-1.615-6.68-1.719a28.654 28.654 0 0 0-7.5.664c-2.422.547-4.596 1.367-6.524 2.461-1.927 1.094-3.177 2.37-3.75 3.828-.572 1.459-.273 3.047.899 4.766 1.172 1.719 3.633 3.437 7.383 5.156 7.656 1.51 13.776 3.32 18.36 5.43 4.582 2.11 7.929 4.323 10.038 6.64 2.11 2.318 3.112 4.662 3.008 7.032-.104 2.37-1.029 4.57-2.773 6.601-1.745 2.032-4.167 3.802-7.266 5.313-3.1 1.51-6.576 2.578-10.43 3.203s-7.969.729-12.344.312c-4.375-.416-8.697-1.562-12.968-3.437zm49.453 0c-.573-.156-1.107-.56-1.602-1.211a4.479 4.479 0 0 1-.898-2.148c-.104-.782.104-1.55.625-2.305.52-.755 1.51-1.29 2.969-1.602 7.552 2.136 13.932 3.19 19.14 3.164 5.209-.026 9.14-.703 11.797-2.03 2.656-1.33 3.945-3.087 3.867-5.274-.078-2.188-1.601-4.401-4.57-6.641-.99-.73-2.37-1.406-4.14-2.031-1.771-.625-3.738-1.25-5.9-1.875a246.878 246.878 0 0 0-6.874-1.875 97.09 97.09 0 0 1-7.07-2.11c-1.51-.468-2.878-1.276-4.102-2.421a15.75 15.75 0 0 1-3.086-4.024 16.25 16.25 0 0 1-1.719-5c-.312-1.797-.3-3.594.04-5.39.338-1.797 1.041-3.542 2.109-5.235 1.067-1.693 2.59-3.19 4.57-4.492 1.823-.938 3.841-1.732 6.055-2.383a37.339 37.339 0 0 1 6.836-1.328 33.021 33.021 0 0 1 6.992.039c2.318.26 4.492.82 6.523 1.68a17.489 17.489 0 0 1 5.391 3.554c1.562 1.51 2.76 3.412 3.594 5.704.104.729-.078 1.354-.547 1.874-.469.521-1.172.82-2.11.899-.937.078-2.03-.156-3.28-.703-1.25-.547-2.605-1.576-4.063-3.086-1.875-1.042-4.102-1.615-6.68-1.719a28.654 28.654 0 0 0-7.5.664c-2.422.547-4.596 1.367-6.523 2.461-1.927 1.094-3.177 2.37-3.75 3.828-.573 1.459-.274 3.047.898 4.766 1.172 1.719 3.633 3.437 7.383 5.156 7.656 1.51 13.776 3.32 18.36 5.43 4.583 2.11 7.929 4.323 10.038 6.64 2.11 2.318 3.112 4.662 3.008 7.032-.104 2.37-1.029 4.57-2.773 6.601-1.745 2.032-4.167 3.802-7.266 5.313-3.099 1.51-6.575 2.578-10.43 3.203-3.854.625-7.968.729-12.343.312-4.375-.416-8.698-1.562-12.97-3.437zM69.512 233.516c-1.042-.365-1.771-.95-2.188-1.758-.416-.807-.612-1.628-.586-2.461.026-.833.209-1.576.547-2.227.339-.65.716-1.054 1.133-1.21-.52-6.042-.938-11.238-1.25-15.587-.313-4.349-.573-8.02-.781-11.015a577.276 577.276 0 0 1-.469-7.266c-.104-1.849-.182-3.36-.234-4.531a75.009 75.009 0 0 0-.157-2.695 18.753 18.753 0 0 0-.234-1.797c-1.458.26-2.89.43-4.297.508-1.406.078-2.526-.105-3.36-.547-.833-.443-1.262-1.198-1.288-2.266-.026-1.068.638-2.617 1.992-4.648 9.323-.573 17.24-.209 23.75 1.093 6.51 1.302 11.81 3.19 15.898 5.664 4.089 2.474 7.032 5.404 8.828 8.79 1.797 3.385 2.605 6.914 2.422 10.585-.182 3.672-1.276 7.305-3.281 10.899-2.005 3.594-4.74 6.862-8.203 9.805-3.464 2.942-7.591 5.377-12.383 7.304-4.792 1.927-10.078 3.047-15.86 3.36zM74.824 225c3.49-.573 6.706-1.615 9.649-3.125 2.942-1.51 5.52-3.294 7.734-5.352 2.214-2.057 3.997-4.296 5.352-6.718 1.354-2.422 2.187-4.844 2.5-7.266.312-2.422.039-4.779-.82-7.07-.86-2.292-2.397-4.323-4.61-6.094-2.214-1.77-5.156-3.19-8.828-4.258-3.672-1.068-8.19-1.627-13.555-1.68.313 3.282.56 6.693.742 10.235.183 3.542.352 7.096.508 10.664.156 3.568.326 7.096.508 10.586s.456 6.849.82 10.078zm47.5 2.344c.365.99.482 1.953.352 2.89-.13.938-.43 1.771-.899 2.5a5.273 5.273 0 0 1-1.757 1.72c-.704.416-1.42.598-2.149.546-.73-.052-1.42-.378-2.07-.977-.651-.599-1.16-1.575-1.524-2.93-.104-.364-.195-1.262-.273-2.695a186.595 186.595 0 0 1-.195-5.039c-.052-1.927-.105-3.997-.157-6.21a1783.86 1783.86 0 0 0-.156-6.212 549.484 549.484 0 0 0-.156-5.039c-.052-1.432-.13-2.356-.235-2.773-.364-2.552-.39-4.622-.078-6.21.313-1.59.795-2.787 1.446-3.595.65-.807 1.393-1.25 2.226-1.328.834-.078 1.602.143 2.305.664.703.521 1.263 1.315 1.68 2.383.416 1.068.546 2.33.39 3.79l1.25 28.515zM116.7 185.78c-1.146-.885-1.836-1.862-2.07-2.93-.234-1.067-.156-2.018.234-2.851a3.516 3.516 0 0 1 1.875-1.797c.86-.364 1.784-.312 2.774.156 1.146.625 1.849 1.51 2.11 2.657.26 1.145.207 2.2-.157 3.164-.365.963-.977 1.666-1.836 2.11-.86.442-1.836.273-2.93-.509zm13.906 46.719c-.677-.156-1.328-.495-1.953-1.016-.625-.52-1.067-1.132-1.328-1.836-.26-.703-.221-1.47.117-2.304.339-.834 1.133-1.64 2.383-2.422.677.625 1.797 1.159 3.36 1.601 1.562.443 3.268.743 5.117.899 1.849.156 3.685.17 5.508.039 1.823-.13 3.346-.43 4.57-.899 1.224-.468 1.992-1.106 2.305-1.914.312-.807-.13-1.81-1.329-3.007-3.49-2.344-6.523-4.284-9.101-5.82-2.578-1.537-4.766-3.048-6.563-4.532-1.796-1.484-3.229-3.125-4.296-4.922-1.068-1.797-1.836-4.101-2.305-6.914-.156-2.292.39-4.18 1.64-5.664s2.865-2.604 4.844-3.36c1.98-.755 4.193-1.158 6.64-1.21 2.449-.052 4.832.221 7.15.82 2.317.599 4.413 1.497 6.288 2.695 1.875 1.198 3.23 2.657 4.063 4.375.156.782.117 1.498-.117 2.149a4.493 4.493 0 0 1-1.055 1.68c-.469.468-1.055.82-1.758 1.054-.703.235-1.445.3-2.226.196-1.615-2.032-3.373-3.503-5.274-4.415-1.9-.911-3.698-1.393-5.39-1.445-1.693-.052-3.112.3-4.258 1.055-1.146.755-1.745 1.784-1.797 3.086-.052 1.302.586 2.838 1.914 4.61 1.328 1.77 3.633 3.671 6.914 5.702 4.687 2.813 8.164 5.43 10.43 7.852 2.265 2.422 3.541 4.583 3.828 6.484.286 1.901-.274 3.529-1.68 4.883s-3.411 2.37-6.016 3.047c-2.604.677-5.69.99-9.257.937-3.568-.052-7.357-.546-11.368-1.484zm44.61 17.89c.312 1.667.117 2.943-.586 3.829-.703.885-1.563 1.393-2.578 1.523-1.016.13-2.018-.104-3.008-.703-.99-.599-1.615-1.523-1.875-2.773.104-3.334.156-7.24.156-11.72a419.91 419.91 0 0 0-.937-27.812c-.313-4.583-.73-8.62-1.25-12.109-1.302.573-2.37.781-3.203.625-.834-.156-1.42-.534-1.758-1.133-.339-.599-.43-1.354-.274-2.265.157-.912.573-1.888 1.25-2.93 1.72-2.083 4.089-3.294 7.11-3.633 3.02-.338 6.224-.039 9.61.899 3.385.937 6.757 2.408 10.116 4.414 3.36 2.005 6.263 4.296 8.711 6.875 2.448 2.578 4.219 5.351 5.313 8.32 1.093 2.969 1.093 5.86 0 8.672-.73 1.979-2.11 3.802-4.14 5.469-2.032 1.666-4.363 3.046-6.993 4.14a34.175 34.175 0 0 1-8.281 2.266c-2.891.416-5.586.338-8.086-.235l.703 18.282zm-.469-25.156c5.521-.312 9.753-1.132 12.695-2.46 2.943-1.329 4.883-2.917 5.82-4.766.938-1.85 1.003-3.828.196-5.938-.807-2.11-2.174-4.088-4.102-5.937-1.927-1.85-4.27-3.45-7.03-4.805a25.503 25.503 0 0 0-8.673-2.5l1.094 26.406zm41.484 4.922c.365 1.302.313 2.305-.156 3.008-.469.703-1.146 1.133-2.031 1.29-.885.155-1.862.064-2.93-.274a6.748 6.748 0 0 1-2.773-1.68l-2.656-52.969c-.365-.937-.378-1.758-.04-2.46a3.78 3.78 0 0 1 1.485-1.641 5.591 5.591 0 0 1 2.187-.743c.808-.104 1.537-.013 2.188.274a2.996 2.996 0 0 1 1.484 1.406c.339.651.352 1.524.04 2.617l3.202 51.172zm45.157-.547c0 1.51-.313 2.526-.938 3.047a3.313 3.313 0 0 1-2.187.781 5.76 5.76 0 0 1-2.383-.507c-.755-.339-1.237-.664-1.445-.977l-4.141-8.906a28.694 28.694 0 0 1-2.344 3.633 18.805 18.805 0 0 1-2.969 3.125 17.683 17.683 0 0 1-3.554 2.304 12.205 12.205 0 0 1-4.102 1.172c-3.49.104-6.393-.43-8.71-1.601-2.318-1.172-4.167-2.748-5.548-4.727-1.38-1.98-2.291-4.258-2.734-6.836-.443-2.578-.508-5.234-.195-7.969a34.22 34.22 0 0 1 1.953-8.085c.99-2.657 2.24-5.04 3.75-7.149 1.51-2.11 3.268-3.854 5.273-5.234s4.154-2.149 6.446-2.305c2.291-.156 4.7.378 7.226 1.602 2.526 1.224 5.117 3.398 7.774 6.523l8.828 32.11zm-30.625-5.156c2.396.833 4.492 1.029 6.289.586 1.797-.443 3.32-1.289 4.57-2.539 1.25-1.25 2.2-2.812 2.852-4.688a23.214 23.214 0 0 0 1.21-5.859 24.058 24.058 0 0 0-.273-5.976c-.338-1.954-.911-3.672-1.719-5.157-.807-1.484-1.836-2.59-3.086-3.32-1.25-.73-2.708-.885-4.375-.469-1.354.313-2.565 1.107-3.632 2.383-1.068 1.276-1.966 2.787-2.696 4.531-.729 1.745-1.276 3.633-1.64 5.664a31.186 31.186 0 0 0-.508 5.938c.026 1.927.286 3.685.781 5.273.495 1.589 1.237 2.8 2.227 3.633zm33.828 31.953c-.625-.729-.86-1.64-.703-2.734a7.607 7.607 0 0 1 1.093-3.008c.573-.911 1.277-1.562 2.11-1.953.833-.39 1.562-.247 2.187.43 2.084 3.49 4.05 6.015 5.899 7.578 1.849 1.562 3.567 2.37 5.156 2.422 1.589.052 3.02-.508 4.297-1.68 1.276-1.172 2.383-2.747 3.32-4.727.938-1.979 1.719-4.231 2.344-6.757a54.63 54.63 0 0 0 1.328-7.696c.26-2.604.313-5.143.156-7.617-.156-2.474-.494-4.622-1.015-6.445-.99 1.25-2.149 2.5-3.477 3.75a20.801 20.801 0 0 1-4.375 3.164 15.198 15.198 0 0 1-5.156 1.68c-1.85.26-3.763 0-5.742-.782-1.823-.99-3.334-2.409-4.532-4.258-1.197-1.849-2.174-3.958-2.93-6.328-.754-2.37-1.314-4.896-1.679-7.578a83.702 83.702 0 0 1-.703-7.93c-.104-2.604-.13-5.078-.078-7.421.052-2.344.13-4.401.234-6.172.521-.834 1.25-1.498 2.188-1.992.937-.495 1.875-.73 2.812-.704a4.13 4.13 0 0 1 2.5.899c.73.573 1.172 1.484 1.328 2.734a639.814 639.814 0 0 0-.195 4.297 108.41 108.41 0 0 0-.078 5.938c.026 2.135.13 4.323.312 6.562.183 2.24.547 4.297 1.094 6.172s1.276 3.49 2.188 4.844c.911 1.354 2.096 2.213 3.554 2.578 2.396-.313 4.336-1.159 5.82-2.54 1.485-1.38 2.618-3.072 3.4-5.077.78-2.006 1.288-4.206 1.523-6.602.234-2.396.312-4.765.234-7.11a61.863 61.863 0 0 0-.547-6.562 282.576 282.576 0 0 0-.742-5c.364-.833 1.015-1.367 1.953-1.601a6.202 6.202 0 0 1 2.852-.04 6.56 6.56 0 0 1 2.656 1.25c.807.626 1.263 1.38 1.367 2.266 2.24 12.604 3.385 23.49 3.437 32.656.053 9.167-.638 16.758-2.07 22.774-1.432 6.016-3.45 10.573-6.055 13.672-2.604 3.099-5.455 4.896-8.554 5.39-3.1.495-6.29-.195-9.57-2.07-3.282-1.875-6.329-4.765-9.141-8.672zM114.12 339.781c.365 1.302.195 2.396-.508 3.281-.703.886-1.575 1.498-2.617 1.836a5.558 5.558 0 0 1-3.125.118c-1.042-.26-1.745-.912-2.11-1.954l-.39-45.937a58.421 58.421 0 0 0-5.742 7.46 138.17 138.17 0 0 0-4.961 8.243 694.492 694.492 0 0 0-4.57 8.36 121.242 121.242 0 0 1-4.57 7.812c-.886.99-1.824 1.589-2.813 1.797a5.44 5.44 0 0 1-2.89-.156c-.938-.313-1.81-.82-2.618-1.524a7.958 7.958 0 0 1-1.914-2.46l-8.75-22.266c-.052 5.312-.052 9.83 0 13.554s.117 6.836.195 9.336.17 4.492.274 5.977c.104 1.484.221 2.67.351 3.555.13.885.235 1.549.313 1.992.078.442.143.872.195 1.289.104 1.146-.247 1.992-1.055 2.539-.807.547-1.731.82-2.773.82a6.047 6.047 0 0 1-2.93-.742c-.911-.495-1.419-1.211-1.523-2.149l-2.031-54.53c0-.417.312-.795.937-1.134.625-.338 1.328-.533 2.11-.586a5.074 5.074 0 0 1 2.304.391c.755.313 1.29.912 1.602 1.797a394.932 394.932 0 0 1 8.398 16.523 418.022 418.022 0 0 1 7.54 16.68c1.666-2.344 3.372-5.013 5.116-8.008a2722.39 2722.39 0 0 1 5.235-8.945 219.767 219.767 0 0 1 5.234-8.477c1.745-2.682 3.477-4.882 5.195-6.601 1.72-1.719 3.425-2.839 5.118-3.36 1.692-.52 3.372-.104 5.039 1.25l2.734 54.22zm11.484 2.031c-2.343-1.145-4.153-2.747-5.43-4.804-1.275-2.057-2.109-4.323-2.5-6.797-.39-2.474-.39-5.052 0-7.734a38.219 38.219 0 0 1 1.993-7.813c.937-2.526 2.083-4.83 3.437-6.914 1.355-2.083 2.813-3.776 4.375-5.078 2.865-2.188 5.521-3.49 7.97-3.906 2.447-.417 4.635-.183 6.562.703 1.927.885 3.606 2.291 5.039 4.219 1.432 1.927 2.552 4.127 3.36 6.601.806 2.474 1.288 5.13 1.444 7.969a32.77 32.77 0 0 1-.585 8.32 26.872 26.872 0 0 1-2.735 7.578c-1.276 2.344-2.969 4.271-5.078 5.781-2.11 1.51-4.635 2.474-7.578 2.891-2.943.417-6.367.078-10.274-1.015zm6.016-6.484c2.188.208 4.154-.273 5.899-1.445 1.744-1.172 3.19-2.709 4.335-4.61 1.146-1.9 1.98-4.049 2.5-6.445.521-2.396.625-4.7.313-6.914-.313-2.213-1.042-4.219-2.188-6.016-1.145-1.796-2.786-3.06-4.921-3.789-1.302-.26-2.67.157-4.102 1.25-1.432 1.094-2.734 2.565-3.906 4.414-1.172 1.85-2.136 3.933-2.89 6.25-.756 2.318-1.134 4.61-1.134 6.875 0 2.266.47 4.336 1.407 6.211s2.5 3.282 4.687 4.22zm35.938 7.422c-3.386-.833-6.16-2.448-8.32-4.844a21.41 21.41 0 0 1-4.65-8.242c-.937-3.099-1.275-6.367-1.015-9.805.26-3.437 1.107-6.627 2.54-9.57 1.432-2.943 3.45-5.443 6.054-7.5 2.604-2.057 5.781-3.268 9.531-3.633 1.823-.156 3.75-.13 5.781.078 2.032.209 3.88.73 5.547 1.563l-1.015-15.39c0-.626.455-1.094 1.367-1.407.911-.313 1.914-.443 3.008-.39a6.606 6.606 0 0 1 3.008.859c.911.52 1.367 1.328 1.367 2.422l5.078 53.046c.104.99-.143 1.771-.742 2.344-.6.573-1.328.938-2.188 1.094a5.606 5.606 0 0 1-2.617-.156c-.885-.26-1.51-.73-1.875-1.406-.104-.157-.247-.521-.43-1.094a270.273 270.273 0 0 1-1.133-3.672c-.156-.521-.26-.781-.312-.781-2.031 2.03-3.997 3.554-5.898 4.57-1.902 1.016-3.685 1.693-5.352 2.031-1.667.339-3.164.456-4.492.352-1.328-.104-2.41-.26-3.242-.469zm-6.016-17.578c.73 2.864 1.693 5.17 2.89 6.914 1.199 1.745 2.514 2.995 3.946 3.75a8.11 8.11 0 0 0 4.531.937c1.589-.13 3.138-.612 4.649-1.445 1.51-.833 2.942-1.953 4.296-3.36 1.355-1.406 2.527-3.046 3.516-4.921.469-.938.742-1.992.82-3.164a17.203 17.203 0 0 0-.156-3.633 33.786 33.786 0 0 0-.781-3.79 925.452 925.452 0 0 1-.977-3.71c-1.458-2.865-3.112-4.87-4.96-6.016-1.85-1.145-3.712-1.653-5.587-1.523-1.875.13-3.671.807-5.39 2.031-1.719 1.224-3.177 2.774-4.375 4.649s-2.044 3.971-2.54 6.289a15.476 15.476 0 0 0 .118 6.992zm51.016 17.812c-2.24-.78-4.115-2.044-5.625-3.789-1.51-1.744-2.735-3.776-3.672-6.093-.938-2.318-1.654-4.805-2.149-7.461a69.448 69.448 0 0 1-1.015-7.97 96.283 96.283 0 0 1-.235-7.616c.026-2.422.091-4.545.196-6.368.104-.99.481-1.718 1.132-2.187.651-.469 1.407-.716 2.266-.742a5.83 5.83 0 0 1 2.54.508c.832.364 1.483.859 1.952 1.484.365.52.612 1.615.742 3.281.13 1.667.235 3.607.313 5.82.078 2.214.182 4.532.312 6.954.13 2.422.391 4.687.782 6.797.39 2.109.95 3.919 1.68 5.43.729 1.51 1.77 2.395 3.124 2.656 2.084-.053 3.737-.652 4.961-1.797 1.224-1.146 2.11-2.644 2.657-4.493.546-1.849.82-3.932.82-6.25a54.63 54.63 0 0 0-.469-7.07 80.472 80.472 0 0 0-1.21-6.953c-.496-2.24-.951-4.193-1.368-5.86-.26-1.25-.065-2.057.586-2.421.651-.365 1.471-.456 2.46-.274.99.183 2.006.534 3.048 1.055 1.041.52 1.797 1.068 2.265 1.64 1.094 2.292 1.953 4.975 2.578 8.048.625 3.072.912 6.223.86 9.453a44.452 44.452 0 0 1-1.172 9.492c-.73 3.099-1.875 5.807-3.438 8.125-1.562 2.318-3.58 4.101-6.054 5.351s-5.43 1.667-8.867 1.25zm36.015-3.828c.365 1.302.313 2.305-.156 3.008-.469.703-1.146 1.133-2.031 1.29-.886.155-1.862.064-2.93-.274a6.748 6.748 0 0 1-2.773-1.68l-2.657-52.969c-.364-.937-.377-1.758-.039-2.46a3.78 3.78 0 0 1 1.485-1.641 5.591 5.591 0 0 1 2.187-.743c.807-.104 1.537-.013 2.188.274a2.996 2.996 0 0 1 1.484 1.406c.339.651.352 1.524.04 2.617l3.202 51.172zm38.281-4.297a13.102 13.102 0 0 1-3.75 4.414 16.625 16.625 0 0 1-5.156 2.618 19.23 19.23 0 0 1-5.898.82 20.085 20.085 0 0 1-5.977-.977 21.442 21.442 0 0 1-5.43-2.656 16.005 16.005 0 0 1-4.257-4.219 32.873 32.873 0 0 1-3.828-10.546c-.677-3.75-.651-7.292.078-10.625.729-3.334 2.213-6.25 4.453-8.75s5.364-4.167 9.375-5c3.802-.26 6.81.195 9.023 1.367 2.214 1.172 3.724 2.76 4.532 4.765.807 2.006.963 4.232.468 6.68-.495 2.448-1.55 4.83-3.164 7.148-1.614 2.318-3.75 4.375-6.406 6.172-2.656 1.797-5.73 3.034-9.219 3.711 1.042 1.719 2.227 2.956 3.555 3.711a10.685 10.685 0 0 0 4.18 1.367c1.458.157 2.903.065 4.336-.273a27.508 27.508 0 0 0 3.984-1.25 62.667 62.667 0 0 0 3.242-1.406c.938-.443 1.615-.742 2.031-.899 1.875-.573 3.151-.573 3.828 0 .678.573.678 1.85 0 3.828zm-20.703-27.89a17.396 17.396 0 0 0-3.28 3.203 16.842 16.842 0 0 0-2.267 3.828 15.808 15.808 0 0 0-1.132 4.219 13.955 13.955 0 0 0 .117 4.297c2.187-.313 4.153-.99 5.898-2.032 1.745-1.041 3.203-2.226 4.375-3.554 1.172-1.328 2.019-2.696 2.54-4.102.52-1.406.663-2.63.429-3.672-.234-1.041-.898-1.797-1.992-2.265-1.094-.47-2.656-.443-4.688.078zM62.09 449.64c-.886-3.594-1.472-7.54-1.758-11.836a304.825 304.825 0 0 1-.586-12.89c-.104-4.298-.221-8.464-.351-12.5-.13-4.037-.508-7.592-1.133-10.665-.104-1.98.195-3.646.898-5 .703-1.354 1.51-2.292 2.422-2.813.911-.52 1.81-.572 2.695-.156.886.417 1.51 1.354 1.875 2.813.365 4.219.56 8.242.586 12.07.026 3.828.026 7.63 0 11.406-.026 3.776.013 7.604.117 11.485.105 3.88.443 8.007 1.016 12.382 1.98 0 3.737-.078 5.274-.234a48.946 48.946 0 0 0 4.648-.703c1.562-.313 3.281-.677 5.156-1.094 1.875-.416 4.167-.885 6.875-1.406 1.094.573 1.953 1.263 2.578 2.07.625.808 1.003 1.602 1.133 2.383.13.781.013 1.51-.351 2.188-.365.677-.99 1.12-1.875 1.328-1.302.208-2.904.508-4.805.898-1.901.39-3.893.794-5.977 1.211-2.083.417-4.166.781-6.25 1.094-2.083.312-3.984.482-5.703.508-1.719.026-3.164-.144-4.336-.508-1.172-.365-1.888-1.042-2.148-2.031zm65.39-5.782a13.102 13.102 0 0 1-3.75 4.414 16.625 16.625 0 0 1-5.156 2.618 19.23 19.23 0 0 1-5.898.82 20.085 20.085 0 0 1-5.977-.977 21.442 21.442 0 0 1-5.43-2.656 16.005 16.005 0 0 1-4.257-4.219 32.873 32.873 0 0 1-3.828-10.546c-.677-3.75-.651-7.292.078-10.625.729-3.334 2.213-6.25 4.453-8.75s5.364-4.167 9.375-5c3.802-.26 6.81.195 9.023 1.367 2.214 1.172 3.724 2.76 4.532 4.765.807 2.006.963 4.232.468 6.68-.495 2.448-1.55 4.83-3.164 7.148-1.614 2.318-3.75 4.375-6.406 6.172-2.656 1.797-5.73 3.034-9.219 3.711 1.042 1.719 2.227 2.956 3.555 3.711a10.685 10.685 0 0 0 4.18 1.367c1.458.157 2.903.065 4.336-.273a27.508 27.508 0 0 0 3.984-1.25 62.667 62.667 0 0 0 3.242-1.406c.938-.443 1.615-.742 2.031-.899 1.875-.573 3.151-.573 3.828 0 .678.573.678 1.85 0 3.828zm-20.703-27.89a17.396 17.396 0 0 0-3.28 3.203A16.842 16.842 0 0 0 101.23 423a15.808 15.808 0 0 0-1.132 4.219 13.955 13.955 0 0 0 .117 4.297c2.187-.313 4.153-.99 5.898-2.032 1.745-1.041 3.203-2.226 4.375-3.554 1.172-1.328 2.019-2.696 2.54-4.102.52-1.406.663-2.63.429-3.672-.234-1.041-.898-1.797-1.992-2.265-1.094-.47-2.656-.443-4.688.078zm46.172 32.969c-.885 1.614-1.966 2.63-3.242 3.046-1.276.417-2.67.026-4.18-1.171-.104-.157-.586-.873-1.445-2.149-.86-1.276-2.135-3.333-3.828-6.172-1.693-2.838-3.815-6.562-6.367-11.172s-5.573-10.325-9.063-17.148c-.573-.886-.781-1.784-.625-2.695.156-.912.534-1.68 1.133-2.305.599-.625 1.354-1.055 2.266-1.29.911-.234 1.836-.168 2.773.196.52.208 1.146.846 1.875 1.914.73 1.068 1.524 2.383 2.383 3.945.86 1.563 1.77 3.295 2.734 5.196.964 1.9 1.927 3.789 2.89 5.664a471.962 471.962 0 0 0 2.813 5.39c.912 1.72 1.758 3.165 2.54 4.336.78 1.172 1.484 2.006 2.109 2.5.625.495 1.12.456 1.484-.117.156-.26.404-.86.742-1.797.339-.937.73-2.07 1.172-3.398.443-1.328.912-2.721 1.407-4.18.494-1.458.963-2.851 1.406-4.18.442-1.328.833-2.46 1.172-3.398.338-.937.56-1.536.664-1.797.26-.677.573-1.523.937-2.539a48.8 48.8 0 0 1 1.25-3.125 18.453 18.453 0 0 1 1.602-2.93c.599-.885 1.263-1.523 1.992-1.914.73-.39 1.523-.455 2.383-.195.86.26 1.836 1.042 2.93 2.344.312.364.507.82.585 1.367.079.547-.026 1.354-.312 2.422-.287 1.068-.755 2.46-1.406 4.18a271.5 271.5 0 0 1-2.696 6.757 1863.724 1863.724 0 0 1-4.218 10.157c-1.667 3.984-3.62 8.737-5.86 14.257zm51.563-5.079a13.102 13.102 0 0 1-3.75 4.414 16.625 16.625 0 0 1-5.157 2.618 19.23 19.23 0 0 1-5.898.82 20.085 20.085 0 0 1-5.977-.977 21.442 21.442 0 0 1-5.43-2.656 16.005 16.005 0 0 1-4.257-4.219 32.873 32.873 0 0 1-3.828-10.546c-.677-3.75-.651-7.292.078-10.625.73-3.334 2.213-6.25 4.453-8.75s5.365-4.167 9.375-5c3.802-.26 6.81.195 9.024 1.367 2.213 1.172 3.723 2.76 4.53 4.765.808 2.006.964 4.232.47 6.68-.495 2.448-1.55 4.83-3.165 7.148-1.614 2.318-3.75 4.375-6.406 6.172-2.656 1.797-5.729 3.034-9.219 3.711 1.042 1.719 2.227 2.956 3.555 3.711a10.685 10.685 0 0 0 4.18 1.367c1.458.157 2.903.065 4.336-.273a27.508 27.508 0 0 0 3.984-1.25 62.667 62.667 0 0 0 3.242-1.406c.938-.443 1.615-.742 2.032-.899 1.875-.573 3.15-.573 3.828 0 .677.573.677 1.85 0 3.828zm-20.703-27.89a17.396 17.396 0 0 0-3.282 3.203 16.842 16.842 0 0 0-2.265 3.828 15.808 15.808 0 0 0-1.133 4.219 13.955 13.955 0 0 0 .117 4.297c2.188-.313 4.154-.99 5.899-2.032 1.744-1.041 3.203-2.226 4.375-3.554 1.171-1.328 2.018-2.696 2.539-4.102.52-1.406.664-2.63.43-3.672-.235-1.041-.9-1.797-1.993-2.265-1.094-.47-2.656-.443-4.687.078zm33.046 32.187c.365 1.302.313 2.305-.156 3.008-.469.703-1.146 1.133-2.031 1.29-.885.155-1.862.064-2.93-.274a6.748 6.748 0 0 1-2.773-1.68l-2.656-52.969c-.365-.937-.378-1.758-.04-2.46a3.78 3.78 0 0 1 1.485-1.641 5.591 5.591 0 0 1 2.187-.743c.808-.104 1.537-.013 2.188.274a2.996 2.996 0 0 1 1.484 1.406c.339.651.352 1.524.04 2.617l3.202 51.172zm62.891-34.062c4.167-.052 7.526.69 10.078 2.226 2.552 1.537 4.401 3.503 5.547 5.899s1.64 5.039 1.484 7.93c-.156 2.89-.859 5.703-2.109 8.437a24.682 24.682 0 0 1-5.156 7.344c-2.188 2.161-4.766 3.71-7.735 4.648-2.968.938-6.236 1.08-9.804.43-3.568-.651-7.357-2.435-11.367-5.352-.209-.573-.144-1.12.195-1.64.338-.521.794-.99 1.367-1.407a9.405 9.405 0 0 1 1.875-1.054c.677-.287 1.25-.482 1.719-.586 2.031 1.562 4.18 2.526 6.445 2.89 2.266.365 4.414.26 6.445-.312a14.644 14.644 0 0 0 5.508-2.93c1.64-1.38 2.89-2.982 3.75-4.805.86-1.822 1.224-3.802 1.094-5.937-.13-2.135-.95-4.297-2.46-6.484-1.355-1.25-2.84-2.084-4.454-2.5a19.168 19.168 0 0 0-4.805-.625 41.82 41.82 0 0 0-4.531.234c-1.432.156-2.656.182-3.672.078-1.015-.104-1.77-.456-2.265-1.055-.495-.599-.586-1.68-.274-3.242 1.25-.677 2.604-1.64 4.063-2.89a35.306 35.306 0 0 0 4.14-4.22 31.598 31.598 0 0 0 3.399-4.96c.963-1.745 1.575-3.425 1.836-5.04-.47-.051-1.355.014-2.657.196s-2.773.352-4.414.508c-1.64.156-3.32.273-5.039.352-1.719.078-3.242 0-4.57-.235-1.328-.234-2.33-.664-3.008-1.289-.677-.625-.755-1.562-.234-2.812.26-.677.638-1.172 1.133-1.485a4.476 4.476 0 0 1 1.64-.625c.6-.104 1.211-.156 1.836-.156s1.224-.026 1.797-.078c3.02-.26 5.807-.456 8.36-.586 2.551-.13 4.765-.052 6.64.234 1.875.287 3.333.834 4.375 1.64 1.042.808 1.55 2.02 1.523 3.634-.026 1.614-.65 3.685-1.875 6.21-1.224 2.527-3.164 5.665-5.82 9.415z"/></g></svg>
