<svg xmlns="http://www.w3.org/2000/svg" viewBox="0 0 392 512"><g fill="none" fill-rule="evenodd"><path fill="#FFF" fill-rule="nonzero" d="M9.586 38.357c0 32.212 1.019 65.911-2.677 97.92-3.874 33.557-1.885 67.46-1.913 101.188-.017 21.27 1.882 42.457 1.344 63.721-.276 10.93-1.903 22.207-1.481 33.11.408 10.543 3.764 20.936 4.242 31.519.55 12.18-.331 24.769-1.491 36.879-2.241 23.391-8.025 52.135.319 74.771 2.35 6.374 8.906 11.053 14.788 14.363 12.017 6.762 28.072 8.072 41.567 8.217 7.488.08 15.046 1.428 22.444 2.808 11.025 2.058 24.053 2.782 35.223 2.802 18.465.033 36.516-.328 54.912 1.407 34.891 3.289 70.187 3.558 104.625-2.437 26.098-4.543 51.985-5.783 77.243-13.904 14.377-4.623 16.904-14.986 19.471-29.337 3.503-19.585-.265-39.738.582-59.296.997-23.021.214-46.029 1.075-68.938.425-11.3 1.029-22.545 1.516-33.842 1.068-24.738-5.251-48.14-4.723-72.776.609-28.422 3.488-56.73 4.838-85.116 1.021-21.455 2.923-44.458-8.57-63.167-8.309-13.525-20.486-25.675-27.753-39.897-3.495-6.839-6.834-16.265-12.724-21.443-9.253-8.134-19.077-7.731-30.584-7.095-13.077.723-27.279-.228-40.231-1.946-17.333-2.298-34.992-4.713-52.461-4.703-18.424.01-36.765-3.127-55.109-1.148-18.731 2.021-38.155 5.991-57.032 3.717-14.885-1.793-28.445-2.291-43.451-1.575-12.768.611-29.12-.92-37.245 11.236-4.387 6.565-4.05 13.007-6.744 22.962z"/><path fill="#000" fill-rule="nonzero" d="M388.369 296.663c-2.094-54.572-.15-109.076 1.255-163.583.278-10.75 2.352-22.304.728-32.971-1.877-12.32-11.142-23.273-18.352-33.012-9.322-12.592-18.419-25.212-27.618-37.888-5.941-8.187-11.128-17.931-20.822-22.101-14.305-6.153-32.999-4.272-48.235-5.056-17.109-.881-34.002-2.113-51.159-2.05-35.492.13-71.129 1.534-106.613 1.092C98.972.863 80.568-.11 61.964.377 48.49.73 32.971-1.071 19.722 1.587 8.656 3.808 4.786 12.434 4.435 22.803c-.932 27.58-1.41 54.957-.661 82.554.685 30.591-.317 61.193-1.453 91.777-2.448 65.903-1.338 132.405.313 198.32.731 29.17-5.783 62.073 4.015 90.3 8.081 23.279 34.805 22.227 55.297 23.04 30.14 1.196 60.527-.149 90.569 1.665a846.1 846.1 0 0 0 95.647.366c31.857-1.68 63.124-2.143 94.827-6.284 24.393-3.185 39.717-10.843 43.328-36.901 7.803-56.305 4.223-114.39 2.052-170.977zm-71.98-276.726c1.382.634 2.75 1.363 4.093 2.324 5.906 4.225 9.351 10.427 13.592 16.253 8.227 11.303 16.08 22.7 24.522 33.866 4.785 6.329 9.876 12.772 13.454 19.798-10.748.324-21.495.639-32.227 1.175-6.684.334-14.687 2.034-20.241-2.871-5.064-4.472-3.148-9.571-2.887-15.967.708-17.397 1.966-36.926-.306-54.578zm57.499 262.228c1.366 51.245 2.769 101.93 1.158 153.156-.362 11.517-.581 24.664-3.452 35.863-4.841 18.885-23.681 18.974-39.75 21.181-27.026 3.713-53.987 3.86-81.155 5.541-54.071 3.346-109.185 2.638-163.299.275-12.792-.559-25.613-.821-38.394-1.596-7.378-.448-15.558-.468-21.995-4.596-9.64-6.181-9.869-15.096-11.033-25.085-3.179-27.285-.102-54.948-.864-82.358-1.836-66.044-2.009-132.511-.22-198.56 1.007-37.165-.656-74.336-.092-111.504.143-9.444.421-18.886.929-28.317.367-6.816-.91-17.492 2.016-23.741 5.14-10.976 20.366-7.729 30.141-7.999 28.751-.794 57.447.723 86.152-.099 54.322-1.556 108.208-.552 162.442 2.383 3.397.184 6.63.281 9.735.614-2.667 7.939-1.234 18.924-1.411 25.993-.368 14.742-4.343 32.86-.96 47.25 2.609 11.1 11.413 14.578 21.955 16.215 15.989 2.482 34.284-.374 50.69-.945.152 1.159.269 2.329.303 3.526.288 10.297-.891 21.025-1.391 31.334-2.282 47.003-2.76 94.392-1.505 141.469z"/><path fill="#000" d="M76.483 143.75c-5.52 1.302-10.182 1.328-13.984.078-3.802-1.25-6.81-3.32-9.023-6.21-2.214-2.891-3.711-6.368-4.493-10.43-.78-4.063-.937-8.256-.468-12.579a49.952 49.952 0 0 1 3.086-12.656c1.588-4.114 3.632-7.656 6.132-10.625 2.24-2.5 4.662-3.984 7.266-4.453 2.604-.469 5.04-.117 7.305 1.055 2.265 1.172 4.218 3.047 5.86 5.625 1.64 2.578 2.642 5.664 3.007 9.257.208.47.156 1.016-.156 1.641a3.847 3.847 0 0 1-1.368 1.524 3.07 3.07 0 0 1-1.953.507c-.703-.052-1.315-.52-1.836-1.406-.937-3.49-2.07-6.015-3.398-7.578-1.328-1.563-2.67-2.46-4.023-2.695-1.355-.235-2.683.039-3.985.82a11.712 11.712 0 0 0-3.281 2.89c-2.76 4.636-4.596 9.076-5.508 13.32-.911 4.246-1.107 8.087-.586 11.524.521 3.438 1.64 6.342 3.36 8.711 1.718 2.37 3.802 3.998 6.25 4.883 2.447.886 5.156.899 8.125.04 2.968-.86 5.963-2.8 8.984-5.821.937.625 1.523 1.367 1.758 2.226.234.86.234 1.758 0 2.696-.235.937-.651 1.862-1.25 2.773a15.515 15.515 0 0 1-1.992 2.461c-.678.677-1.342 1.224-1.993 1.64-.65.417-1.263.678-1.836.782zm10-1.953c-.573-.156-1.106-.56-1.601-1.211a4.479 4.479 0 0 1-.899-2.149c-.104-.78.105-1.549.625-2.304.521-.755 1.51-1.29 2.97-1.602 7.551 2.136 13.931 3.19 19.14 3.164 5.208-.026 9.14-.703 11.797-2.03 2.656-1.33 3.945-3.087 3.867-5.274-.078-2.188-1.602-4.401-4.57-6.641-.99-.73-2.37-1.406-4.141-2.031-1.77-.625-3.737-1.25-5.899-1.875a246.877 246.877 0 0 0-6.875-1.875 97.09 97.09 0 0 1-7.07-2.11c-1.51-.468-2.877-1.276-4.101-2.421a15.75 15.75 0 0 1-3.086-4.024 16.25 16.25 0 0 1-1.72-5c-.312-1.797-.299-3.594.04-5.39.339-1.797 1.042-3.542 2.11-5.235 1.067-1.693 2.59-3.19 4.57-4.492 1.823-.938 3.84-1.732 6.054-2.383a37.339 37.339 0 0 1 6.836-1.328 33.021 33.021 0 0 1 6.992.039c2.318.26 4.493.82 6.524 1.68a17.489 17.489 0 0 1 5.39 3.554c1.563 1.51 2.76 3.412 3.594 5.704.104.729-.078 1.354-.547 1.874-.468.521-1.171.82-2.109.899-.937.078-2.031-.156-3.281-.703-1.25-.547-2.604-1.576-4.063-3.086-1.875-1.042-4.101-1.615-6.68-1.719a28.654 28.654 0 0 0-7.5.664c-2.421.547-4.596 1.367-6.523 2.461-1.927 1.094-3.177 2.37-3.75 3.828-.573 1.459-.273 3.047.899 4.766 1.171 1.719 3.632 3.437 7.382 5.156 7.657 1.51 13.776 3.32 18.36 5.43 4.583 2.11 7.93 4.323 10.039 6.64 2.11 2.318 3.112 4.662 3.008 7.032-.105 2.37-1.029 4.57-2.774 6.601-1.745 2.032-4.166 3.802-7.265 5.313-3.1 1.51-6.576 2.578-10.43 3.203s-7.969.729-12.344.312c-4.375-.416-8.698-1.562-12.969-3.437zm49.454 0c-.573-.156-1.107-.56-1.602-1.211a4.479 4.479 0 0 1-.898-2.149c-.105-.78.104-1.549.625-2.304.52-.755 1.51-1.29 2.968-1.602 7.552 2.136 13.933 3.19 19.14 3.164 5.21-.026 9.142-.703 11.798-2.03 2.656-1.33 3.945-3.087 3.867-5.274-.078-2.188-1.602-4.401-4.57-6.641-.99-.73-2.37-1.406-4.141-2.031-1.77-.625-3.737-1.25-5.898-1.875a246.877 246.877 0 0 0-6.875-1.875 97.091 97.091 0 0 1-7.07-2.11c-1.511-.468-2.878-1.276-4.102-2.421a15.75 15.75 0 0 1-3.086-4.024 16.25 16.25 0 0 1-1.719-5c-.312-1.797-.3-3.594.04-5.39.338-1.797 1.04-3.542 2.108-5.235 1.068-1.693 2.592-3.19 4.57-4.492 1.824-.938 3.842-1.732 6.055-2.383a37.339 37.339 0 0 1 6.836-1.328 33.021 33.021 0 0 1 6.993.039c2.317.26 4.492.82 6.523 1.68a17.489 17.489 0 0 1 5.39 3.554c1.563 1.51 2.761 3.412 3.594 5.704.105.729-.078 1.354-.546 1.874-.47.521-1.172.82-2.11.899-.937.078-2.031-.156-3.281-.703-1.25-.547-2.604-1.576-4.063-3.086-1.875-1.042-4.101-1.615-6.68-1.719a28.654 28.654 0 0 0-7.5.664c-2.421.547-4.596 1.367-6.523 2.461-1.927 1.094-3.177 2.37-3.75 3.828-.573 1.459-.273 3.047.899 4.766 1.172 1.719 3.633 3.437 7.383 5.156 7.656 1.51 13.776 3.32 18.359 5.43 4.583 2.11 7.93 4.323 10.039 6.64 2.11 2.318 3.112 4.662 3.008 7.032-.104 2.37-1.029 4.57-2.774 6.601-1.744 2.032-4.166 3.802-7.265 5.313-3.1 1.51-6.576 2.578-10.43 3.203s-7.969.729-12.344.312c-4.375-.416-8.698-1.562-12.968-3.437zm53.828 2.422c-1.094.26-1.966.156-2.618-.313a3.282 3.282 0 0 1-1.289-1.836c-.208-.755-.195-1.562.04-2.422.234-.859.742-1.549 1.523-2.07l16.25-33.75c1.25-2.864 1.823-5.091 1.719-6.68-.105-1.588-.625-2.682-1.563-3.28-.937-.6-2.148-.756-3.633-.47-1.484.287-2.994.886-4.53 1.797a19.345 19.345 0 0 0-4.22 3.399c-1.276 1.354-2.148 2.786-2.617 4.297-.625.26-1.237.3-1.836.117a3.905 3.905 0 0 1-1.562-.899 3.42 3.42 0 0 1-.938-1.523c-.182-.599-.117-1.211.196-1.836 1.093-3.125 2.734-5.638 4.921-7.54 2.188-1.9 4.558-3.215 7.11-3.944 2.552-.73 5.052-.886 7.5-.47 2.448.418 4.427 1.407 5.937 2.97 1.51 1.562 2.37 3.671 2.578 6.328.209 2.656-.65 5.86-2.578 9.61l-14.453 31.405c2.136.209 4.284.235 6.445.078 2.162-.156 4.323-.377 6.485-.664a182.95 182.95 0 0 1 6.484-.742 38.95 38.95 0 0 1 6.524-.078c.312-.052.65.13 1.015.547.365.417.664.95.899 1.602.234.65.338 1.34.312 2.07-.026.729-.26 1.38-.703 1.953-.443.573-1.146 1.003-2.11 1.29-.963.286-2.304.299-4.023.038l-27.265 1.016zm39.765.781c-1.041-.885-1.731-1.901-2.07-3.047-.339-1.146-.339-2.174 0-3.086.339-.911 1.003-1.575 1.992-1.992.99-.417 2.266-.339 3.828.234 1.25 1.146 1.888 2.305 1.914 3.477.026 1.172-.26 2.187-.859 3.047-.599.86-1.38 1.445-2.344 1.758-.963.312-1.784.182-2.46-.391zm14.922-.781c-1.094.26-1.966.156-2.617-.313a3.282 3.282 0 0 1-1.29-1.836c-.207-.755-.194-1.562.04-2.422.234-.859.742-1.549 1.523-2.07l16.25-33.75c1.25-2.864 1.823-5.091 1.72-6.68-.105-1.588-.626-2.682-1.563-3.28-.938-.6-2.149-.756-3.633-.47-1.485.287-2.995.886-4.531 1.797a19.345 19.345 0 0 0-4.22 3.399c-1.275 1.354-2.148 2.786-2.616 4.297-.625.26-1.237.3-1.836.117a3.905 3.905 0 0 1-1.563-.899 3.42 3.42 0 0 1-.937-1.523c-.183-.599-.117-1.211.195-1.836 1.094-3.125 2.734-5.638 4.922-7.54 2.187-1.9 4.557-3.215 7.11-3.944 2.551-.73 5.051-.886 7.5-.47 2.447.418 4.426 1.407 5.937 2.97 1.51 1.562 2.37 3.671 2.578 6.328.208 2.656-.651 5.86-2.578 9.61l-14.453 31.405c2.135.209 4.283.235 6.445.078 2.161-.156 4.323-.377 6.484-.664a182.95 182.95 0 0 1 6.485-.742 38.95 38.95 0 0 1 6.523-.078c.313-.052.651.13 1.016.547.364.417.664.95.898 1.602.235.65.339 1.34.313 2.07-.026.729-.26 1.38-.703 1.953-.443.573-1.146 1.003-2.11 1.29-.963.286-2.304.299-4.023.038l-27.266 1.016zM64.2 222.22c.11.853 0 1.577-.335 2.17-.334.594-.76.975-1.28 1.142-.52.167-1.067.111-1.642-.167-.575-.279-1.048-.863-1.42-1.754a226.177 226.177 0 0 1-.194-8.21c-.019-2.876-.019-5.78 0-8.712l.055-8.711c.019-2.876.01-5.594-.028-8.155 0 .112-.213.279-.64.501a11.22 11.22 0 0 1-1.53.64 10.13 10.13 0 0 1-1.865.446c-.65.092-1.178.037-1.587-.167-.408-.204-.649-.594-.723-1.17-.074-.574.167-1.419.723-2.532a130.132 130.132 0 0 1 4.648-2.644c1.28-.687 2.329-.956 3.145-.807.817.148 1.42.816 1.81 2.004.39 1.187.602 3.098.64 5.733.037 2.635.009 5.251-.084 7.849a558.741 558.741 0 0 0-.223 7.71 170.349 170.349 0 0 0 0 7.542c.056 2.486.232 4.917.53 7.292zm12.245 3.618a9.793 9.793 0 0 1-4.87-2.755c-1.355-1.392-2.45-3.08-3.284-5.066-.835-1.985-1.41-4.165-1.726-6.54a33.61 33.61 0 0 1-.167-7.237c.204-2.449.659-4.843 1.364-7.18.705-2.338 1.679-4.435 2.922-6.29 1.243-1.856 2.746-3.396 4.509-4.62 1.763-1.225 3.776-1.949 6.04-2.171 2.486.148 4.647.918 6.484 2.31 1.837 1.391 3.34 3.154 4.51 5.288 1.168 2.133 1.994 4.536 2.476 7.208.483 2.672.622 5.353.418 8.044a30.65 30.65 0 0 1-1.615 7.793c-.872 2.504-2.087 4.675-3.646 6.512a14.312 14.312 0 0 1-5.677 4.092c-2.227.89-4.806 1.094-7.738.612zm9.742-34.29c-1.93-1.67-3.73-2.476-5.4-2.42-1.67.055-3.154.686-4.453 1.892-1.299 1.206-2.384 2.848-3.256 4.926a26.85 26.85 0 0 0-1.81 6.652 28.178 28.178 0 0 0-.11 7.07c.259 2.356.853 4.406 1.78 6.15.928 1.745 2.218 3.062 3.87 3.953 1.65.89 3.738 1.039 6.261.445 1.559-.631 2.84-1.67 3.841-3.117 1.002-1.448 1.754-3.099 2.255-4.954.5-1.856.779-3.823.835-5.9a34.982 34.982 0 0 0-.334-5.985c-.279-1.91-.724-3.636-1.336-5.177-.613-1.54-1.327-2.718-2.143-3.534zm57.667 34.012a3.036 3.036 0 0 1-.974-.362c-.278-.167-.621-.566-1.03-1.197-.408-.63-.946-1.614-1.614-2.95a436.163 436.163 0 0 1-2.755-5.65c-1.169-2.43-2.644-5.502-4.425-9.213-1.782-3.71-3.99-8.293-6.624-13.749-1.077-1.113-1.55-2.096-1.42-2.95.13-.853.51-1.521 1.141-2.004a3.618 3.618 0 0 1 2.171-.751c.817-.019 1.373.25 1.67.807l14.751 30.114c.297-.965.687-2.208 1.17-3.73.481-1.52 1.01-3.21 1.585-5.065a349.02 349.02 0 0 0 1.754-5.844c.594-2.041 1.15-4.055 1.67-6.04.52-1.985.983-3.887 1.391-5.705.409-1.819.706-3.415.891-4.788.074-.52.371-.946.89-1.28a4.045 4.045 0 0 1 1.754-.612c.65-.074 1.28-.01 1.893.195.612.204 1.048.584 1.308 1.14-.483 1.56-1.02 3.665-1.614 6.319-.594 2.653-1.234 5.501-1.92 8.544a212.749 212.749 0 0 1-2.283 9.157c-.835 3.061-1.735 5.798-2.7 8.21-.965 2.412-2.004 4.323-3.117 5.734-1.113 1.41-2.3 1.966-3.563 1.67zm23.658-4.287c.26.706.343 1.392.25 2.06a4.358 4.358 0 0 1-.64 1.781c-.334.52-.751.928-1.252 1.225-.501.297-1.012.427-1.531.39-.52-.038-1.011-.27-1.475-.696-.464-.427-.826-1.123-1.086-2.088-.074-.26-.139-.9-.195-1.92-.055-1.02-.102-2.217-.139-3.59-.037-1.373-.074-2.849-.111-4.426a1271.25 1271.25 0 0 0-.111-4.425c-.037-1.373-.075-2.57-.112-3.59-.037-1.02-.092-1.68-.167-1.976-.26-1.819-.278-3.294-.055-4.426.222-1.132.566-1.985 1.03-2.56.463-.575.992-.89 1.586-.947.594-.055 1.141.102 1.642.474.501.37.9.937 1.197 1.697.297.761.39 1.661.278 2.7l.89 20.317zm-4.008-29.613c-.817-.63-1.308-1.327-1.475-2.087-.167-.761-.112-1.438.167-2.032a2.505 2.505 0 0 1 1.336-1.28c.612-.26 1.27-.223 1.976.111.816.445 1.317 1.076 1.503 1.893.185.816.148 1.568-.112 2.254-.26.687-.695 1.188-1.308 1.503-.612.315-1.308.195-2.087-.362zm9.908 33.287c-.482-.111-.946-.352-1.391-.723a3.084 3.084 0 0 1-.947-1.308c-.185-.501-.157-1.049.084-1.643.24-.593.807-1.169 1.697-1.725.483.445 1.28.826 2.394 1.141a19.35 19.35 0 0 0 3.646.64c1.317.111 2.626.12 3.924.028 1.3-.093 2.385-.306 3.257-.64.872-.334 1.42-.789 1.642-1.364.222-.575-.093-1.29-.947-2.143-2.486-1.67-4.647-3.052-6.484-4.147-1.837-1.095-3.396-2.17-4.676-3.229-1.28-1.057-2.3-2.226-3.062-3.506-.76-1.28-1.308-2.923-1.642-4.927-.111-1.632.279-2.978 1.17-4.035.89-1.058 2.04-1.856 3.45-2.394 1.41-.538 2.988-.826 4.732-.863a18.672 18.672 0 0 1 5.093.585c1.651.427 3.145 1.067 4.481 1.92 1.336.854 2.3 1.893 2.895 3.117.11.557.083 1.067-.084 1.531a3.201 3.201 0 0 1-.751 1.197 3.144 3.144 0 0 1-1.253.751 3.493 3.493 0 0 1-1.586.14c-1.15-1.448-2.403-2.496-3.758-3.145-1.354-.65-2.634-.993-3.84-1.03-1.206-.037-2.218.213-3.034.751-.817.538-1.243 1.271-1.28 2.199-.038.928.417 2.022 1.363 3.284.947 1.262 2.589 2.616 4.927 4.064 3.34 2.004 5.817 3.868 7.43 5.594 1.615 1.725 2.524 3.266 2.728 4.62.204 1.355-.194 2.514-1.196 3.479-1.002.965-2.431 1.688-4.287 2.17-1.855.483-4.054.706-6.596.669-2.542-.037-5.241-.39-8.099-1.058zm31.283 1.058c-1.595-.557-2.931-1.457-4.007-2.7-1.077-1.243-1.949-2.69-2.617-4.342a27.639 27.639 0 0 1-1.53-5.316 49.482 49.482 0 0 1-.724-5.677 68.602 68.602 0 0 1-.167-5.428 99.44 99.44 0 0 1 .14-4.536c.073-.705.342-1.225.806-1.559a2.844 2.844 0 0 1 1.614-.529 4.153 4.153 0 0 1 1.81.362c.593.26 1.057.613 1.391 1.058.26.371.436 1.15.529 2.338.093 1.187.167 2.57.223 4.147.055 1.577.13 3.228.222 4.954.093 1.725.279 3.34.557 4.843.278 1.503.677 2.792 1.197 3.868s1.261 1.707 2.226 1.893c1.485-.037 2.663-.464 3.535-1.28.872-.817 1.503-1.884 1.892-3.201.39-1.317.585-2.802.585-4.453 0-1.652-.111-3.33-.334-5.038a57.336 57.336 0 0 0-.863-4.954 158.11 158.11 0 0 0-.974-4.175c-.185-.89-.046-1.466.418-1.725.463-.26 1.048-.325 1.753-.195.705.13 1.429.38 2.17.751.743.371 1.281.761 1.615 1.17.78 1.632 1.392 3.543 1.837 5.733.445 2.19.65 4.434.612 6.735a31.672 31.672 0 0 1-.835 6.763c-.52 2.208-1.336 4.138-2.449 5.79a11.236 11.236 0 0 1-4.314 3.812c-1.763.89-3.868 1.188-6.318.89zm46.146-3.117c0 1.076-.223 1.8-.668 2.17a2.36 2.36 0 0 1-1.559.557c-.593 0-1.16-.12-1.697-.362-.539-.24-.882-.473-1.03-.695l-2.95-6.346c-.483.89-1.04 1.753-1.67 2.588a13.398 13.398 0 0 1-2.116 2.227 12.6 12.6 0 0 1-2.532 1.642 8.696 8.696 0 0 1-2.923.835c-2.486.074-4.555-.306-6.206-1.141-1.652-.835-2.969-1.958-3.952-3.368-.984-1.41-1.633-3.034-1.949-4.87a19.985 19.985 0 0 1-.139-5.678 24.382 24.382 0 0 1 1.392-5.761c.705-1.893 1.595-3.59 2.672-5.094 1.076-1.503 2.328-2.746 3.757-3.73 1.429-.983 2.96-1.53 4.592-1.641 1.633-.112 3.35.269 5.15 1.14 1.799.873 3.645 2.422 5.538 4.649l6.29 22.878zm-21.82-3.674c1.707.594 3.2.733 4.48.417 1.28-.315 2.366-.918 3.257-1.809.89-.89 1.568-2.004 2.032-3.34a16.54 16.54 0 0 0 .862-4.174 17.141 17.141 0 0 0-.194-4.259c-.242-1.391-.65-2.616-1.225-3.674-.575-1.057-1.308-1.846-2.199-2.365-.89-.52-1.93-.631-3.117-.334-.965.222-1.828.788-2.588 1.698-.761.909-1.401 1.985-1.92 3.228a19.26 19.26 0 0 0-1.17 4.036 22.22 22.22 0 0 0-.362 4.23c.019 1.373.205 2.626.557 3.757.353 1.132.881 1.995 1.587 2.589zm30.949 4.063c.26.928.222 1.642-.112 2.143-.334.501-.816.808-1.447.919-.63.111-1.327.046-2.087-.195a4.808 4.808 0 0 1-1.976-1.197l-1.893-37.74c-.26-.668-.269-1.252-.028-1.753.241-.501.594-.891 1.058-1.17a3.984 3.984 0 0 1 1.558-.528c.576-.074 1.095-.01 1.56.195.463.204.815.538 1.057 1.002.24.464.25 1.085.027 1.864l2.283 36.46zM56.796 304.005c-.408-.78-.705-1.837-.89-3.173a56.334 56.334 0 0 1-.418-4.23c-.093-1.485-.176-2.941-.25-4.37-.075-1.429-.186-2.626-.335-3.59a3.22 3.22 0 0 1-1.169-1.28 3.913 3.913 0 0 1-.417-1.643 4.546 4.546 0 0 1 .306-1.753 4.9 4.9 0 0 1 1.002-1.614 150.71 150.71 0 0 1-.39-9.185c-.037-3.08-.018-6.179.056-9.296.074-.482.529-.881 1.364-1.197.835-.315 1.883-.556 3.145-.723a44 44 0 0 1 4.091-.334 79.604 79.604 0 0 1 4.147-.056c1.299.019 2.421.056 3.368.111.946.056 1.53.102 1.753.14.742.148 1.271.445 1.587.89.315.445.463.946.445 1.503a3.62 3.62 0 0 1-.473 1.642 3.181 3.181 0 0 1-1.225 1.253c-.668.11-1.614.12-2.839.027a117.067 117.067 0 0 0-3.757-.222 28.964 28.964 0 0 0-3.618.055c-1.132.093-1.92.38-2.366.863a36.261 36.261 0 0 0-.056 3.507c.038 1.225.084 2.459.14 3.702.055 1.243.13 2.468.222 3.674.093 1.206.195 2.31.306 3.312.557.037 1.28.009 2.171-.084.89-.093 1.819-.185 2.783-.278a17.911 17.911 0 0 1 2.812-.056c.909.056 1.67.25 2.282.585.612.334 1.002.872 1.169 1.614.167.742.009 1.763-.473 3.061l-10.187 1.058c-.074.445-.028 1.215.14 2.31.166 1.095.342 2.32.528 3.674s.306 2.737.362 4.147c.055 1.41-.065 2.644-.362 3.701-.297 1.058-.826 1.828-1.586 2.31-.761.483-1.884.464-3.368-.055zm23.1-.835c-1.67-.816-2.959-1.958-3.868-3.423a12.907 12.907 0 0 1-1.781-4.843c-.279-1.763-.279-3.6 0-5.51a27.231 27.231 0 0 1 1.419-5.567 24.9 24.9 0 0 1 2.45-4.927c.964-1.484 2.003-2.69 3.116-3.618 2.041-1.558 3.934-2.486 5.678-2.783 1.744-.297 3.303-.13 4.676.501 1.373.63 2.57 1.633 3.59 3.006 1.02 1.373 1.819 2.94 2.394 4.703.575 1.763.918 3.656 1.03 5.678a23.348 23.348 0 0 1-.418 5.928c-.39 1.93-1.039 3.73-1.948 5.4a12.114 12.114 0 0 1-3.618 4.119c-1.503 1.076-3.303 1.763-5.4 2.06-2.096.296-4.536.055-7.32-.724zm4.287-4.62c1.558.148 2.96-.195 4.202-1.03 1.243-.835 2.273-1.93 3.09-3.284.816-1.355 1.41-2.885 1.78-4.592.372-1.707.446-3.35.224-4.927-.223-1.577-.743-3.006-1.56-4.286-.815-1.28-1.984-2.18-3.506-2.7-.928-.185-1.902.112-2.922.891-1.02.78-1.949 1.828-2.783 3.145-.835 1.317-1.522 2.802-2.06 4.453-.538 1.652-.807 3.284-.807 4.899 0 1.614.334 3.089 1.002 4.425.668 1.336 1.781 2.338 3.34 3.006zm23.824 3.507c-.26.593-.715 1.067-1.364 1.42a4.202 4.202 0 0 1-2.032.528 3.496 3.496 0 0 1-1.976-.612c-.612-.409-1.03-1.095-1.252-2.06-.074-.371-.084-1.141-.028-2.31.056-1.169.065-2.82.028-4.954-.037-2.134-.149-4.787-.334-7.96-.186-3.173-.538-6.967-1.058-11.383.78-.705 1.531-.965 2.255-.78.723.186 1.382.594 1.976 1.225.593.63 1.076 1.4 1.447 2.31.371.91.575 1.753.612 2.533.186-.705.585-1.438 1.197-2.2a11.108 11.108 0 0 1 2.254-2.086c.891-.631 1.884-1.17 2.978-1.615a11.98 11.98 0 0 1 3.396-.835 9.413 9.413 0 0 1 3.507.334c1.169.334 2.254.965 3.256 1.893.037.334-.018.686-.167 1.058a4.352 4.352 0 0 1-.612 1.057c-.26.334-.557.622-.89.863a2.732 2.732 0 0 1-1.003.473c-2.152-.445-3.98-.417-5.483.084-1.503.5-2.736 1.326-3.701 2.477-.965 1.15-1.689 2.55-2.171 4.202a29.03 29.03 0 0 0-1.002 5.26 44.203 44.203 0 0 0-.195 5.678c.056 1.93.176 3.73.362 5.4zm24.492-.056c-.186.853-.612 1.466-1.28 1.837a4.344 4.344 0 0 1-2.143.557c-.761 0-1.485-.186-2.171-.557-.687-.371-1.141-.89-1.364-1.559-.074-1.967-.12-4.193-.14-6.68a337.93 337.93 0 0 0-.138-7.486 122.824 122.824 0 0 0-.418-7.209c-.204-2.3-.51-4.23-.918-5.789-.074-.816.055-1.512.39-2.087.333-.575.77-.974 1.308-1.197.538-.223 1.131-.213 1.78.028.65.241 1.235.751 1.754 1.53l.724 5.344c1.224-2.004 2.616-3.377 4.175-4.119 1.558-.742 3.033-.927 4.425-.556 1.392.37 2.607 1.261 3.646 2.671 1.039 1.41 1.67 3.266 1.892 5.567.075-.631.427-1.41 1.058-2.338.631-.928 1.438-1.865 2.421-2.811a20.46 20.46 0 0 1 3.285-2.56c1.206-.761 2.421-1.3 3.646-1.615 1.224-.315 2.412-.315 3.562 0 1.15.316 2.153 1.086 3.006 2.31.445.705.826 1.689 1.141 2.95.316 1.262.575 2.663.78 4.203.204 1.54.39 3.154.556 4.843.167 1.688.325 3.312.473 4.87.149 1.559.316 3.006.501 4.342.186 1.336.427 2.412.724 3.229.111 1.113-.065 2.069-.529 2.866-.464.798-1.03 1.336-1.698 1.615-.668.278-1.354.26-2.06-.056-.704-.315-1.261-1.011-1.67-2.087.15-5.641-.064-10.168-.64-13.582-.575-3.414-1.326-5.845-2.254-7.292-.927-1.448-1.957-1.995-3.09-1.642-1.131.352-2.17 1.475-3.116 3.367-.947 1.893-1.735 4.463-2.366 7.71-.63 3.247-.91 7.041-.835 11.383-.26.742-.622 1.28-1.085 1.614a2.562 2.562 0 0 1-1.531.501c-.557 0-1.132-.158-1.726-.473a5.634 5.634 0 0 1-1.614-1.308c.111-3.897-.065-7.357-.529-10.381-.464-3.025-1.067-5.428-1.809-7.209-.742-1.781-1.54-2.885-2.393-3.312-.854-.427-1.615 0-2.283 1.28-.668 1.28-1.16 3.489-1.475 6.624-.315 3.136-.306 7.357.028 12.664zm64.626-1.113c0 1.076-.223 1.8-.668 2.17a2.36 2.36 0 0 1-1.559.557c-.593 0-1.16-.12-1.697-.362-.538-.24-.882-.473-1.03-.695l-2.95-6.346c-.483.89-1.04 1.753-1.67 2.588a13.398 13.398 0 0 1-2.115 2.227 12.6 12.6 0 0 1-2.533 1.642 8.696 8.696 0 0 1-2.923.835c-2.486.074-4.555-.306-6.206-1.141-1.651-.835-2.969-1.958-3.952-3.368-.984-1.41-1.633-3.034-1.948-4.87a19.985 19.985 0 0 1-.14-5.678 24.382 24.382 0 0 1 1.392-5.761c.705-1.893 1.596-3.59 2.672-5.094 1.076-1.503 2.328-2.746 3.757-3.73 1.429-.983 2.96-1.53 4.592-1.641 1.633-.112 3.35.269 5.15 1.14 1.8.873 3.645 2.422 5.538 4.649l6.29 22.878zm-21.82-3.674c1.707.594 3.2.733 4.48.417 1.28-.315 2.366-.918 3.257-1.809.89-.89 1.568-2.004 2.032-3.34a16.54 16.54 0 0 0 .863-4.174 17.141 17.141 0 0 0-.195-4.259c-.242-1.391-.65-2.616-1.225-3.674-.575-1.057-1.308-1.846-2.199-2.365-.89-.52-1.93-.631-3.117-.334-.965.222-1.827.788-2.588 1.698-.761.909-1.401 1.985-1.92 3.228a19.26 19.26 0 0 0-1.17 4.036 22.22 22.22 0 0 0-.361 4.23c.018 1.373.204 2.626.556 3.757.353 1.132.882 1.995 1.587 2.589zm33.788-14.027c-.186.074-.26.5-.223 1.28.037.78.12 1.762.25 2.95.13 1.187.288 2.523.474 4.008.185 1.484.315 2.95.39 4.397a33.19 33.19 0 0 1-.028 4.092c-.093 1.28-.325 2.328-.696 3.145-.371.816-.919 1.326-1.642 1.53-.724.204-1.698-.027-2.923-.695l-1.336-20.707c-.816-.149-1.484-.223-2.004-.223s-1.01.028-1.475.083c-.463.056-.974.112-1.53.167-.557.056-1.28.047-2.171-.027-.668-.409-1.095-.928-1.28-1.56-.186-.63-.028-1.252.473-1.864.5-.612 1.391-1.132 2.671-1.558 1.28-.427 3.053-.64 5.316-.64.26-.149.334-.715.223-1.698-.111-.984-.26-2.143-.445-3.48a56.754 56.754 0 0 1-.418-4.174c-.093-1.447.01-2.69.306-3.73.297-1.039.863-1.744 1.698-2.115.835-.37 2.088-.167 3.757.612.038 2.079.075 3.823.112 5.233a282.7 282.7 0 0 0 .111 3.535c.037.946.074 1.697.111 2.254a48.396 48.396 0 0 0 .223 2.477c.037.315.074.696.111 1.141.78.037 1.494.028 2.144-.028.649-.055 1.28-.111 1.892-.167a56.546 56.546 0 0 1 1.893-.139c.65-.037 1.363-.037 2.143 0 .816.186 1.41.52 1.781 1.002.371.483.547 1.002.529 1.559-.019.556-.241 1.085-.668 1.586-.427.501-.993.881-1.698 1.141l-8.071.613zm22.265 0c-.185.074-.26.5-.222 1.28.037.78.12 1.762.25 2.95.13 1.187.288 2.523.473 4.008.186 1.484.316 2.95.39 4.397a33.19 33.19 0 0 1-.028 4.092c-.093 1.28-.325 2.328-.696 3.145-.37.816-.918 1.326-1.642 1.53-.723.204-1.697-.027-2.922-.695l-1.336-20.707c-.816-.149-1.484-.223-2.004-.223s-1.011.028-1.475.083c-.464.056-.974.112-1.53.167-.557.056-1.281.047-2.172-.027-.668-.409-1.094-.928-1.28-1.56-.185-.63-.028-1.252.473-1.864.501-.612 1.392-1.132 2.672-1.558 1.28-.427 3.052-.64 5.316-.64.26-.149.334-.715.223-1.698-.112-.984-.26-2.143-.446-3.48a56.754 56.754 0 0 1-.417-4.174c-.093-1.447.01-2.69.306-3.73.297-1.039.863-1.744 1.698-2.115.835-.37 2.087-.167 3.757.612.037 2.079.074 3.823.111 5.233a282.7 282.7 0 0 0 .112 3.535c.037.946.074 1.697.111 2.254a48.396 48.396 0 0 0 .223 2.477c.037.315.074.696.111 1.141.78.037 1.494.028 2.143-.028.65-.055 1.28-.111 1.893-.167a56.546 56.546 0 0 1 1.892-.139c.65-.037 1.364-.037 2.143 0 .817.186 1.41.52 1.782 1.002.37.483.547 1.002.528 1.559-.018.556-.24 1.085-.668 1.586-.426.501-.992.881-1.697 1.141l-8.072.613zm18.815 16.086c.26.706.343 1.392.25 2.06a4.358 4.358 0 0 1-.64 1.781c-.334.52-.751.928-1.252 1.225-.501.297-1.011.427-1.531.39-.52-.038-1.011-.27-1.475-.696-.464-.427-.826-1.123-1.086-2.088-.074-.26-.139-.9-.194-1.92-.056-1.02-.102-2.217-.14-3.59-.037-1.373-.074-2.849-.11-4.426a1270.99 1270.99 0 0 0-.112-4.425c-.037-1.373-.074-2.57-.112-3.59-.037-1.02-.092-1.68-.167-1.976-.26-1.819-.278-3.294-.055-4.426.222-1.132.566-1.985 1.03-2.56.463-.575.992-.89 1.586-.947.594-.055 1.141.102 1.642.474.501.37.9.937 1.197 1.697.297.761.39 1.661.278 2.7l.89 20.317zm-4.008-29.613c-.816-.63-1.308-1.327-1.475-2.087-.167-.761-.111-1.438.167-2.032a2.505 2.505 0 0 1 1.336-1.28c.612-.26 1.27-.223 1.976.111.816.445 1.317 1.076 1.503 1.893.185.816.148 1.568-.111 2.254-.26.687-.696 1.188-1.309 1.503-.612.315-1.308.195-2.087-.362zm14.194 31.729c0 1.15-.306 1.92-.918 2.31-.612.39-1.28.52-2.004.39s-1.392-.455-2.004-.975c-.612-.52-.955-1.132-1.03-1.837.075-3.785.084-7.82.028-12.107a513.067 513.067 0 0 0-.362-13.498c.297-1.002.807-1.633 1.531-1.893.724-.26 1.42-.176 2.088.25.667.428 1.178 1.188 1.53 2.283.353 1.095.306 2.496-.139 4.203 2.375-3.489 4.602-5.77 6.68-6.847 2.078-1.076 3.989-1.299 5.733-.668 1.744.63 3.275 1.92 4.592 3.869 1.318 1.948 2.403 4.202 3.257 6.763a39.247 39.247 0 0 1 1.753 8.043c.316 2.802.325 5.372.028 7.71.037.965-.25 1.688-.863 2.17-.612.483-1.28.752-2.004.808a2.986 2.986 0 0 1-1.976-.529c-.593-.408-.853-1.04-.779-1.893.26-4.675.158-8.46-.306-11.355-.464-2.895-1.132-5.056-2.004-6.485-.872-1.429-1.883-2.217-3.034-2.366-1.15-.148-2.31.158-3.479.919-1.169.76-2.282 1.902-3.34 3.423-1.057 1.522-1.91 3.229-2.56 5.121-.65 1.893-1.048 3.906-1.197 6.04a15.576 15.576 0 0 0 .78 6.15zm40.69 25.271c-2.226-.52-4.081-1.354-5.566-2.505-1.484-1.15-2.523-2.291-3.117-3.423-.594-1.132-.686-2.115-.278-2.95.408-.835 1.391-1.197 2.95-1.086 1.744 1.67 3.423 2.793 5.038 3.368 1.614.575 3.089.677 4.425.306 1.336-.371 2.468-1.169 3.395-2.393.928-1.225 1.56-2.784 1.893-4.676.334-1.893.325-4.092-.028-6.596-.352-2.505-1.14-5.224-2.365-8.155a13.077 13.077 0 0 1-3.674 3.34 13.382 13.382 0 0 1-4.453 1.725 13.077 13.077 0 0 1-4.732.028 11.596 11.596 0 0 1-4.453-1.781c-1.373-.91-2.588-2.125-3.646-3.646-1.058-1.522-1.828-3.396-2.31-5.622-.223-2.746-.074-5.279.445-7.598.52-2.32 1.327-4.342 2.422-6.068 1.094-1.725 2.43-3.136 4.007-4.23a12.977 12.977 0 0 1 5.205-2.143c1.893-.334 3.906-.232 6.04.306 2.133.538 4.295 1.55 6.484 3.034.26 1.78.696 3.905 1.309 6.373.612 2.468 1.261 5.103 1.948 7.904a206.74 206.74 0 0 1 1.92 8.656 78.658 78.658 0 0 1 1.253 8.628c.24 2.783.24 5.4 0 7.849-.242 2.449-.882 4.564-1.92 6.345-1.04 1.782-2.543 3.127-4.51 4.036-1.966.91-4.527 1.234-7.681.974zm-11.355-39.02c0 2.523.371 4.555 1.114 6.095.742 1.54 1.688 2.662 2.838 3.368a6.311 6.311 0 0 0 3.73.946 8.787 8.787 0 0 0 3.813-1.113c1.206-.668 2.245-1.596 3.117-2.784.872-1.187 1.401-2.56 1.587-4.119a30.59 30.59 0 0 1-.501-2.477 89.006 89.006 0 0 0-.501-2.783 49.643 49.643 0 0 0-.613-2.728 20.21 20.21 0 0 0-.723-2.31c-.743-.964-1.605-1.586-2.589-1.864a5.89 5.89 0 0 0-3.006-.056c-1.02.241-2.022.686-3.005 1.336a12.652 12.652 0 0 0-2.644 2.338 12.47 12.47 0 0 0-1.893 2.95c-.482 1.058-.724 2.124-.724 3.2zM92.978 379.723c.26.927.139 1.707-.362 2.338a3.866 3.866 0 0 1-1.865 1.308 3.96 3.96 0 0 1-2.227.083c-.742-.185-1.243-.65-1.503-1.391l-.278-32.73a41.625 41.625 0 0 0-4.091 5.315 98.445 98.445 0 0 0-3.535 5.873 494.827 494.827 0 0 0-3.256 5.956 86.385 86.385 0 0 1-3.257 5.566c-.63.705-1.298 1.132-2.003 1.28a3.876 3.876 0 0 1-2.06-.111 5.455 5.455 0 0 1-1.865-1.085 5.67 5.67 0 0 1-1.364-1.754l-6.234-15.864a415.679 415.679 0 0 0 0 9.658 397.2 397.2 0 0 0 .14 6.651c.055 1.782.12 3.201.194 4.259.074 1.057.158 1.902.25 2.532.093.631.168 1.104.223 1.42.056.315.102.621.14.918.074.817-.177 1.42-.752 1.81-.575.389-1.234.584-1.976.584a4.308 4.308 0 0 1-2.088-.529c-.649-.352-1.01-.863-1.085-1.53l-1.447-38.854c0-.297.222-.566.668-.807.445-.242.946-.38 1.503-.418a3.615 3.615 0 0 1 1.642.278c.538.223.918.65 1.14 1.28a281.389 281.389 0 0 1 5.985 11.774 297.84 297.84 0 0 1 5.371 11.884c1.188-1.67 2.403-3.572 3.646-5.706 1.243-2.133 2.487-4.258 3.73-6.373a156.583 156.583 0 0 1 3.73-6.04c1.242-1.91 2.476-3.479 3.701-4.703 1.225-1.225 2.44-2.023 3.646-2.394 1.206-.37 2.403-.074 3.59.89l1.949 38.632zm8.182 1.447c-1.67-.816-2.96-1.958-3.868-3.423a12.907 12.907 0 0 1-1.782-4.843c-.278-1.763-.278-3.6 0-5.51a27.231 27.231 0 0 1 1.42-5.567 24.9 24.9 0 0 1 2.449-4.927c.965-1.484 2.004-2.69 3.117-3.618 2.041-1.558 3.934-2.486 5.678-2.783 1.744-.297 3.303-.13 4.676.501 1.373.63 2.57 1.633 3.59 3.006 1.02 1.373 1.818 2.94 2.393 4.703.576 1.763.919 3.656 1.03 5.678a23.348 23.348 0 0 1-.417 5.928c-.39 1.93-1.04 3.73-1.948 5.4a12.114 12.114 0 0 1-3.619 4.119c-1.503 1.076-3.302 1.763-5.399 2.06-2.097.296-4.537.055-7.32-.724zm4.286-4.62c1.559.148 2.96-.195 4.203-1.03 1.243-.835 2.273-1.93 3.09-3.284.816-1.355 1.41-2.885 1.78-4.592.372-1.707.446-3.35.223-4.927-.222-1.577-.742-3.006-1.558-4.286-.817-1.28-1.986-2.18-3.507-2.7-.928-.185-1.902.112-2.923.891-1.02.78-1.948 1.828-2.783 3.145s-1.521 2.802-2.06 4.453c-.537 1.652-.807 3.284-.807 4.899 0 1.614.334 3.089 1.002 4.425.668 1.336 1.782 2.338 3.34 3.006zm25.606 5.288c-2.412-.594-4.388-1.744-5.928-3.451a15.255 15.255 0 0 1-3.312-5.873c-.668-2.208-.91-4.536-.724-6.986.185-2.449.788-4.722 1.809-6.819a15.227 15.227 0 0 1 4.314-5.343c1.855-1.466 4.12-2.329 6.791-2.589a21.98 21.98 0 0 1 4.12.056c1.446.148 2.764.52 3.951 1.113l-.723-10.966c0-.445.324-.779.974-1.001.65-.223 1.363-.316 2.143-.279.78.037 1.493.241 2.143.613.65.37.974.946.974 1.725l3.618 37.796c.074.705-.102 1.262-.529 1.67a2.969 2.969 0 0 1-1.558.78 3.994 3.994 0 0 1-1.865-.112c-.63-.186-1.076-.52-1.336-1.002-.074-.111-.176-.371-.306-.78a147.25 147.25 0 0 1-.807-2.616c-.112-.37-.186-.556-.223-.556-1.447 1.447-2.848 2.532-4.203 3.256-1.354.724-2.625 1.206-3.813 1.447-1.187.242-2.254.325-3.2.25-.946-.073-1.716-.185-2.31-.333zm-4.286-12.525c.52 2.042 1.206 3.684 2.06 4.927.853 1.243 1.79 2.134 2.81 2.672 1.02.538 2.097.76 3.229.668 1.132-.093 2.236-.436 3.312-1.03 1.076-.594 2.096-1.392 3.061-2.394.965-1.002 1.8-2.17 2.505-3.507.334-.668.529-1.419.585-2.254.055-.835.018-1.698-.112-2.588-.13-.891-.315-1.79-.556-2.7-.242-.91-.473-1.79-.696-2.644-1.04-2.041-2.217-3.47-3.535-4.286-1.317-.817-2.644-1.178-3.98-1.086-1.336.093-2.616.575-3.84 1.448-1.225.872-2.264 1.976-3.118 3.312-.853 1.336-1.456 2.83-1.809 4.48a11.027 11.027 0 0 0 .084 4.982zm51.545 6.903a9.335 9.335 0 0 1-2.672 3.145 11.846 11.846 0 0 1-3.674 1.865 13.702 13.702 0 0 1-4.203.584 14.31 14.31 0 0 1-4.258-.696 15.277 15.277 0 0 1-3.869-1.892 11.404 11.404 0 0 1-3.033-3.006 23.422 23.422 0 0 1-2.728-7.515c-.482-2.672-.464-5.195.056-7.57s1.577-4.453 3.173-6.235c1.595-1.78 3.822-2.968 6.68-3.562 2.708-.186 4.851.14 6.428.974 1.578.835 2.654 1.967 3.229 3.396.575 1.428.686 3.015.334 4.759-.353 1.744-1.104 3.442-2.254 5.093-1.15 1.652-2.672 3.117-4.565 4.398-1.893 1.28-4.082 2.161-6.568 2.644.742 1.224 1.586 2.106 2.532 2.644a7.613 7.613 0 0 0 2.978.974 9.114 9.114 0 0 0 3.09-.195 19.6 19.6 0 0 0 2.839-.89 44.65 44.65 0 0 0 2.31-1.003c.668-.315 1.15-.528 1.447-.64 1.336-.408 2.245-.408 2.728 0 .482.408.482 1.318 0 2.728zm-14.751-19.872c-.891.668-1.67 1.428-2.338 2.282a12 12 0 0 0-1.615 2.728 11.264 11.264 0 0 0-.807 3.005 9.943 9.943 0 0 0 .084 3.062c1.558-.223 2.96-.705 4.202-1.447 1.244-.743 2.283-1.587 3.118-2.533s1.438-1.92 1.809-2.922c.37-1.002.473-1.874.306-2.617-.167-.742-.64-1.28-1.42-1.614-.779-.334-1.892-.315-3.34.056zm23.545 22.933c.26.928.223 1.642-.11 2.143-.335.501-.817.808-1.448.919-.631.111-1.327.046-2.088-.195a4.808 4.808 0 0 1-1.976-1.197l-1.892-37.74c-.26-.668-.27-1.252-.028-1.753.241-.501.594-.891 1.058-1.17a3.984 3.984 0 0 1 1.558-.528c.575-.074 1.095-.01 1.559.195.464.204.816.538 1.057 1.002.242.464.25 1.085.028 1.864l2.282 36.46zM61.193 459.671c-.742-.26-1.261-.677-1.558-1.253a3.537 3.537 0 0 1-.418-1.753c.019-.594.149-1.123.39-1.586.241-.464.51-.752.807-.863a797.257 797.257 0 0 1-.89-11.105c-.223-3.099-.409-5.715-.557-7.849-.149-2.134-.26-3.86-.334-5.177-.074-1.317-.13-2.393-.167-3.228a53.444 53.444 0 0 0-.112-1.92 13.361 13.361 0 0 0-.166-1.28c-1.04.185-2.06.305-3.062.361-1.002.056-1.8-.074-2.394-.39-.593-.315-.9-.853-.918-1.614-.019-.76.455-1.865 1.42-3.312 6.642-.408 12.283-.148 16.921.78 4.639.927 8.415 2.272 11.328 4.035 2.913 1.763 5.01 3.85 6.29 6.262 1.28 2.412 1.855 4.927 1.726 7.543-.13 2.616-.91 5.204-2.338 7.765-1.43 2.56-3.377 4.89-5.845 6.986s-5.409 3.831-8.823 5.204c-3.414 1.373-7.18 2.171-11.3 2.394zm3.786-6.067c2.486-.409 4.777-1.15 6.874-2.227 2.097-1.076 3.934-2.347 5.51-3.813 1.578-1.466 2.849-3.062 3.814-4.787.965-1.726 1.558-3.451 1.781-5.177a10.362 10.362 0 0 0-.584-5.038c-.613-1.632-1.707-3.08-3.285-4.341-1.577-1.262-3.673-2.273-6.29-3.034-2.616-.76-5.835-1.16-9.657-1.197.222 2.338.399 4.769.528 7.292.13 2.524.25 5.056.362 7.598.112 2.542.232 5.057.362 7.543.13 2.486.325 4.88.585 7.18zm51.266.612a9.335 9.335 0 0 1-2.672 3.145 11.846 11.846 0 0 1-3.674 1.865 13.702 13.702 0 0 1-4.202.584 14.31 14.31 0 0 1-4.259-.696 15.277 15.277 0 0 1-3.868-1.892 11.404 11.404 0 0 1-3.034-3.006 23.422 23.422 0 0 1-2.727-7.515c-.483-2.672-.464-5.195.055-7.57.52-2.375 1.577-4.453 3.173-6.235 1.596-1.78 3.822-2.968 6.68-3.562 2.709-.186 4.852.14 6.429.974 1.577.835 2.653 1.967 3.229 3.396.575 1.428.686 3.015.333 4.759-.352 1.744-1.104 3.442-2.254 5.093-1.15 1.652-2.672 3.117-4.564 4.398-1.893 1.28-4.082 2.161-6.569 2.644.742 1.224 1.587 2.106 2.533 2.644a7.613 7.613 0 0 0 2.978.974 9.114 9.114 0 0 0 3.09-.195 19.6 19.6 0 0 0 2.838-.89 44.65 44.65 0 0 0 2.31-1.003c.668-.315 1.15-.528 1.448-.64 1.336-.408 2.245-.408 2.727 0 .483.408.483 1.318 0 2.728zm-14.75-19.872c-.891.668-1.67 1.428-2.339 2.282a12 12 0 0 0-1.614 2.728 11.264 11.264 0 0 0-.807 3.005 9.943 9.943 0 0 0 .083 3.062c1.559-.223 2.96-.705 4.203-1.447 1.243-.743 2.282-1.587 3.117-2.533s1.438-1.92 1.81-2.922c.37-1.002.472-1.874.305-2.617-.167-.742-.64-1.28-1.419-1.614-.78-.334-1.893-.315-3.34.056zm27.831 4.843c-.185.074-.26.5-.222 1.28.037.78.12 1.762.25 2.95.13 1.187.288 2.523.473 4.008.186 1.484.316 2.95.39 4.397a33.19 33.19 0 0 1-.028 4.092c-.093 1.28-.325 2.328-.696 3.145-.37.816-.918 1.326-1.642 1.53-.724.204-1.698-.027-2.922-.695l-1.336-20.707c-.817-.149-1.485-.223-2.004-.223-.52 0-1.011.028-1.475.083-.464.056-.974.112-1.531.167-.557.056-1.28.047-2.17-.027-.669-.409-1.096-.928-1.281-1.56-.186-.63-.028-1.252.473-1.864.501-.612 1.392-1.132 2.672-1.558 1.28-.427 3.052-.64 5.316-.64.26-.149.334-.715.222-1.698-.11-.984-.26-2.143-.445-3.48a56.754 56.754 0 0 1-.417-4.174c-.093-1.447.009-2.69.306-3.73.297-1.039.863-1.744 1.698-2.115.835-.37 2.087-.167 3.757.612.037 2.079.074 3.823.111 5.233.037 1.41.074 2.588.112 3.535.037.946.074 1.697.11 2.254a48.384 48.384 0 0 0 .223 2.477c.038.315.075.696.112 1.141.78.037 1.493.028 2.143-.028.65-.055 1.28-.111 1.892-.167a56.545 56.545 0 0 1 1.893-.139c.65-.037 1.364-.037 2.143 0 .817.186 1.41.52 1.781 1.002.371.483.548 1.002.53 1.559-.02.556-.242 1.085-.669 1.586-.427.501-.992.881-1.698 1.141l-8.07.613zm39.967 17.7c0 1.077-.223 1.8-.668 2.172a2.36 2.36 0 0 1-1.559.556c-.593 0-1.16-.12-1.697-.362-.538-.24-.882-.473-1.03-.695l-2.95-6.346c-.483.89-1.04 1.753-1.67 2.588a13.398 13.398 0 0 1-2.115 2.227 12.6 12.6 0 0 1-2.533 1.642 8.696 8.696 0 0 1-2.923.835c-2.486.074-4.555-.306-6.206-1.141-1.651-.835-2.969-1.958-3.952-3.368-.984-1.41-1.633-3.034-1.948-4.87a19.985 19.985 0 0 1-.14-5.678 24.382 24.382 0 0 1 1.392-5.761c.705-1.893 1.596-3.59 2.672-5.094 1.076-1.503 2.328-2.746 3.757-3.73 1.429-.983 2.96-1.53 4.592-1.641 1.633-.112 3.35.269 5.15 1.14 1.8.873 3.645 2.422 5.538 4.649l6.29 22.878zm-21.82-3.673c1.707.594 3.2.733 4.48.417 1.28-.315 2.366-.918 3.257-1.809.89-.89 1.568-2.004 2.032-3.34a16.54 16.54 0 0 0 .862-4.174 17.141 17.141 0 0 0-.194-4.259c-.242-1.391-.65-2.616-1.225-3.674-.575-1.057-1.308-1.846-2.199-2.365-.89-.52-1.93-.631-3.117-.334-.965.222-1.827.788-2.588 1.698-.761.909-1.401 1.985-1.92 3.228a19.26 19.26 0 0 0-1.17 4.036 22.22 22.22 0 0 0-.361 4.23c.018 1.373.204 2.626.556 3.757.353 1.132.882 1.995 1.587 2.589zm31.506 2.06c.26.705.343 1.391.25 2.059a4.358 4.358 0 0 1-.64 1.781c-.334.52-.752.928-1.253 1.225-.5.297-1.01.427-1.53.39-.52-.038-1.012-.27-1.475-.696-.464-.427-.826-1.123-1.086-2.088-.074-.26-.139-.9-.195-1.92-.055-1.02-.102-2.217-.139-3.59-.037-1.373-.074-2.849-.111-4.426a1271.25 1271.25 0 0 0-.112-4.425c-.037-1.373-.074-2.57-.11-3.59-.038-1.02-.094-1.68-.168-1.976-.26-1.819-.278-3.294-.056-4.426.223-1.132.566-1.985 1.03-2.56.464-.575.993-.89 1.587-.947.593-.055 1.14.102 1.642.474.5.37.9.937 1.197 1.697.296.761.39 1.661.278 2.7l.89 20.317zm-4.008-29.614c-.817-.63-1.308-1.327-1.475-2.087-.167-.761-.112-1.438.167-2.032a2.505 2.505 0 0 1 1.336-1.28c.612-.26 1.27-.223 1.976.111.816.445 1.317 1.076 1.503 1.893.185.816.148 1.568-.112 2.254-.26.687-.696 1.188-1.308 1.503-.612.315-1.308.195-2.087-.362zm16.643 31.617c.26.928.223 1.642-.111 2.143-.334.501-.816.808-1.447.919-.631.111-1.327.046-2.088-.195a4.808 4.808 0 0 1-1.976-1.197l-1.892-37.74c-.26-.668-.27-1.252-.028-1.753.241-.501.594-.891 1.057-1.17a3.984 3.984 0 0 1 1.559-.528c.575-.074 1.095-.01 1.559.195.463.204.816.538 1.057 1.002.241.464.25 1.085.028 1.864l2.282 36.46zm4.954 1.67c-.482-.111-.946-.352-1.391-.723a3.084 3.084 0 0 1-.947-1.308c-.185-.501-.157-1.049.084-1.643.241-.593.807-1.169 1.698-1.725.482.445 1.28.826 2.393 1.141a19.35 19.35 0 0 0 3.646.64c1.318.111 2.626.12 3.925.028 1.298-.093 2.384-.306 3.256-.64.872-.334 1.42-.789 1.642-1.364.223-.575-.093-1.29-.946-2.143-2.487-1.67-4.648-3.052-6.485-4.147-1.837-1.095-3.396-2.17-4.676-3.229-1.28-1.057-2.3-2.226-3.061-3.506-.761-1.28-1.309-2.923-1.643-4.927-.11-1.632.279-2.978 1.17-4.035.89-1.058 2.04-1.856 3.45-2.394 1.41-.538 2.988-.826 4.732-.863a18.672 18.672 0 0 1 5.093.585c1.652.427 3.145 1.067 4.481 1.92 1.336.854 2.301 1.893 2.895 3.117.111.557.083 1.067-.084 1.531a3.201 3.201 0 0 1-.751 1.197 3.144 3.144 0 0 1-1.253.751 3.493 3.493 0 0 1-1.586.14c-1.15-1.448-2.403-2.496-3.757-3.145-1.355-.65-2.635-.993-3.841-1.03-1.206-.037-2.217.213-3.034.751-.816.538-1.243 1.271-1.28 2.199-.037.928.417 2.022 1.364 3.284.946 1.262 2.588 2.616 4.926 4.064 3.34 2.004 5.817 3.868 7.431 5.594 1.614 1.725 2.523 3.266 2.728 4.62.204 1.355-.195 2.514-1.197 3.479-1.002.965-2.43 1.688-4.286 2.17-1.856.483-4.055.706-6.597.669-2.542-.037-5.241-.39-8.099-1.058z"/></g></svg>
