<svg xmlns="http://www.w3.org/2000/svg" viewBox="0 0 391 513"><g fill="none" fill-rule="evenodd"><path fill="#FFF" fill-rule="nonzero" d="M9.242 38.935c0 32.212 1.02 65.911-2.677 97.92-3.874 33.557-1.885 67.46-1.913 101.188-.017 21.27 1.882 42.457 1.344 63.721-.276 10.93-1.903 22.207-1.48 33.11.407 10.543 3.763 20.936 4.241 31.52.55 12.18-.33 24.768-1.49 36.878-2.242 23.391-8.026 52.135.318 74.771 2.35 6.374 8.906 11.053 14.788 14.363 12.017 6.762 28.072 8.072 41.567 8.217 7.488.08 15.046 1.428 22.444 2.808 11.025 2.058 24.053 2.782 35.223 2.802 18.465.033 36.516-.328 54.912 1.407 34.891 3.29 70.187 3.558 104.625-2.437 26.098-4.543 51.985-5.783 77.243-13.904 14.377-4.623 16.904-14.986 19.471-29.337 3.503-19.585-.265-39.738.582-59.296.997-23.02.214-46.029 1.075-68.938.425-11.3 1.03-22.545 1.516-33.842 1.068-24.738-5.25-48.14-4.723-72.776.61-28.422 3.488-56.73 4.838-85.116 1.021-21.455 2.923-44.458-8.57-63.167-8.309-13.525-20.486-25.675-27.753-39.897-3.495-6.839-6.834-16.265-12.724-21.443-9.253-8.134-19.077-7.73-30.584-7.095-13.077.723-27.279-.228-40.23-1.946-17.334-2.298-34.993-4.713-52.462-4.703-18.424.01-36.765-3.127-55.109-1.148-18.73 2.021-38.155 5.991-57.032 3.717-14.885-1.793-28.445-2.29-43.45-1.575-12.769.611-29.12-.92-37.246 11.236-4.387 6.565-4.05 13.007-6.744 22.962z"/><path fill="#000" fill-rule="nonzero" d="M388.025 297.241c-2.094-54.572-.15-109.076 1.255-163.583.278-10.75 2.352-22.304.728-32.97-1.877-12.32-11.142-23.274-18.352-33.013-9.322-12.592-18.419-25.212-27.618-37.888-5.94-8.187-11.128-17.93-20.822-22.1-14.305-6.154-32.999-4.273-48.235-5.057C257.872 1.75 240.98.517 223.822.58 188.33.71 152.693 2.114 117.21 1.672 98.63 1.442 80.224.468 61.62.955c-13.474.353-28.993-1.448-42.242 1.21C8.312 4.386 4.442 13.012 4.091 23.381c-.932 27.58-1.41 54.957-.66 82.554.684 30.591-.318 61.193-1.454 91.777C-.47 263.615.64 330.117 2.29 396.032c.731 29.17-5.783 62.073 4.015 90.3 8.081 23.28 34.805 22.227 55.297 23.04 30.14 1.196 60.527-.149 90.57 1.665a846.1 846.1 0 0 0 95.646.366c31.857-1.68 63.124-2.143 94.827-6.284 24.393-3.185 39.717-10.843 43.328-36.9 7.803-56.306 4.223-114.39 2.052-170.978zm-71.98-276.726c1.382.634 2.75 1.363 4.093 2.324 5.906 4.225 9.351 10.427 13.592 16.253 8.227 11.303 16.08 22.7 24.522 33.866 4.785 6.33 9.876 12.772 13.454 19.798-10.748.324-21.495.64-32.227 1.175-6.684.334-14.687 2.034-20.24-2.87-5.065-4.473-3.149-9.572-2.888-15.968.708-17.397 1.966-36.926-.306-54.578zm57.5 262.228c1.365 51.245 2.768 101.93 1.157 153.156-.362 11.517-.58 24.664-3.452 35.863-4.84 18.885-23.68 18.974-39.75 21.181-27.026 3.713-53.987 3.86-81.155 5.541-54.07 3.346-109.185 2.638-163.299.275-12.792-.559-25.613-.82-38.394-1.596-7.378-.448-15.558-.468-21.995-4.596-9.64-6.18-9.869-15.096-11.033-25.085-3.179-27.285-.102-54.948-.864-82.358-1.836-66.044-2.009-132.51-.22-198.56 1.007-37.165-.656-74.336-.092-111.504.143-9.444.421-18.886.93-28.317.366-6.816-.91-17.492 2.015-23.74 5.14-10.977 20.366-7.73 30.141-8 28.751-.794 57.447.723 86.152-.099 54.322-1.556 108.208-.552 162.442 2.383 3.397.184 6.63.281 9.735.614-2.667 7.94-1.234 18.924-1.41 25.993-.369 14.742-4.344 32.86-.96 47.25 2.608 11.1 11.412 14.578 21.954 16.215 15.99 2.482 34.284-.374 50.69-.945.152 1.16.27 2.33.303 3.526.288 10.297-.89 21.025-1.39 31.334-2.283 47.003-2.76 94.392-1.506 141.47z"/><path fill="#000" d="M76.14 144.328c-5.521 1.302-10.183 1.328-13.985.078-3.802-1.25-6.81-3.32-9.023-6.21-2.214-2.891-3.711-6.368-4.492-10.43-.782-4.063-.938-8.256-.47-12.579a49.952 49.952 0 0 1 3.087-12.656c1.588-4.114 3.633-7.656 6.133-10.625 2.24-2.5 4.661-3.984 7.265-4.453 2.604-.469 5.04-.117 7.305 1.055 2.266 1.172 4.219 3.047 5.86 5.625 1.64 2.578 2.643 5.664 3.007 9.258.208.468.156 1.015-.156 1.64a3.847 3.847 0 0 1-1.367 1.524 3.07 3.07 0 0 1-1.953.507c-.704-.052-1.316-.52-1.836-1.406-.938-3.49-2.07-6.015-3.399-7.578-1.328-1.562-2.67-2.46-4.023-2.695-1.354-.235-2.683.039-3.985.82a11.712 11.712 0 0 0-3.28 2.89c-2.761 4.636-4.597 9.076-5.509 13.321-.911 4.245-1.106 8.086-.586 11.523.521 3.438 1.641 6.342 3.36 8.711 1.719 2.37 3.802 3.998 6.25 4.883 2.448.886 5.156.899 8.125.04 2.969-.86 5.963-2.8 8.984-5.821.938.625 1.524 1.367 1.758 2.227.234.859.234 1.757 0 2.695-.234.937-.651 1.862-1.25 2.773a15.515 15.515 0 0 1-1.992 2.461c-.677.677-1.341 1.224-1.992 1.64-.651.418-1.263.678-1.836.782zm10-1.953c-.573-.156-1.107-.56-1.602-1.21a4.479 4.479 0 0 1-.898-2.15c-.105-.78.104-1.549.625-2.304.52-.755 1.51-1.29 2.968-1.602 7.553 2.136 13.933 3.19 19.141 3.164 5.208-.026 9.14-.703 11.797-2.03 2.656-1.329 3.945-3.087 3.867-5.274-.078-2.188-1.601-4.401-4.57-6.64-.99-.73-2.37-1.407-4.14-2.032-1.772-.625-3.738-1.25-5.9-1.875a246.877 246.877 0 0 0-6.874-1.875 97.09 97.09 0 0 1-7.07-2.11c-1.511-.468-2.878-1.276-4.102-2.421a15.75 15.75 0 0 1-3.086-4.024 16.25 16.25 0 0 1-1.719-5c-.312-1.797-.3-3.594.04-5.39.338-1.797 1.04-3.542 2.109-5.235 1.067-1.693 2.59-3.19 4.57-4.492 1.823-.938 3.841-1.732 6.055-2.383a37.339 37.339 0 0 1 6.836-1.328 33.021 33.021 0 0 1 6.992.04c2.317.26 4.492.82 6.523 1.679a17.489 17.489 0 0 1 5.39 3.555c1.563 1.51 2.761 3.41 3.595 5.703.104.729-.079 1.354-.547 1.875-.47.52-1.172.82-2.11.898-.937.078-2.031-.156-3.281-.703-1.25-.547-2.604-1.576-4.062-3.086-1.875-1.042-4.102-1.615-6.68-1.719a28.654 28.654 0 0 0-7.5.664c-2.422.547-4.597 1.367-6.524 2.461-1.927 1.094-3.177 2.37-3.75 3.828-.573 1.459-.273 3.047.899 4.766 1.172 1.719 3.633 3.437 7.383 5.156 7.656 1.51 13.776 3.32 18.359 5.43 4.583 2.11 7.93 4.323 10.04 6.64 2.108 2.318 3.111 4.662 3.007 7.032-.104 2.37-1.029 4.57-2.774 6.601-1.744 2.032-4.166 3.802-7.265 5.313-3.1 1.51-6.576 2.578-10.43 3.203s-7.969.73-12.344.313c-4.375-.417-8.697-1.563-12.968-3.438zm49.453 0c-.573-.156-1.107-.56-1.602-1.21a4.479 4.479 0 0 1-.898-2.15c-.104-.78.104-1.549.625-2.304.52-.755 1.51-1.29 2.969-1.602 7.552 2.136 13.932 3.19 19.14 3.164 5.209-.026 9.14-.703 11.797-2.03 2.656-1.329 3.945-3.087 3.867-5.274-.078-2.188-1.601-4.401-4.57-6.64-.99-.73-2.37-1.407-4.14-2.032-1.772-.625-3.738-1.25-5.9-1.875a246.877 246.877 0 0 0-6.874-1.875 97.091 97.091 0 0 1-7.07-2.11c-1.51-.468-2.878-1.276-4.102-2.421a15.75 15.75 0 0 1-3.086-4.024 16.25 16.25 0 0 1-1.719-5c-.312-1.797-.3-3.594.04-5.39.338-1.797 1.041-3.542 2.109-5.235 1.067-1.693 2.59-3.19 4.57-4.492 1.823-.938 3.841-1.732 6.055-2.383a37.339 37.339 0 0 1 6.836-1.328 33.021 33.021 0 0 1 6.992.04c2.318.26 4.492.82 6.523 1.679a17.489 17.489 0 0 1 5.39 3.555c1.563 1.51 2.761 3.41 3.595 5.703.104.729-.078 1.354-.547 1.875-.469.52-1.172.82-2.11.898-.937.078-2.03-.156-3.28-.703-1.25-.547-2.605-1.576-4.063-3.086-1.875-1.042-4.102-1.615-6.68-1.719a28.654 28.654 0 0 0-7.5.664c-2.422.547-4.596 1.367-6.523 2.461-1.928 1.094-3.178 2.37-3.75 3.828-.573 1.459-.274 3.047.898 4.766 1.172 1.719 3.633 3.437 7.383 5.156 7.656 1.51 13.776 3.32 18.36 5.43 4.583 2.11 7.929 4.323 10.038 6.64 2.11 2.318 3.112 4.662 3.008 7.032-.104 2.37-1.029 4.57-2.773 6.601-1.745 2.032-4.167 3.802-7.266 5.313-3.099 1.51-6.576 2.578-10.43 3.203s-7.968.73-12.343.313-8.698-1.563-12.97-3.438zm53.828 2.422c-1.094.26-1.966.156-2.617-.313a3.282 3.282 0 0 1-1.29-1.836c-.208-.755-.195-1.562.04-2.421.234-.86.742-1.55 1.523-2.07l16.25-33.75c1.25-2.865 1.823-5.092 1.719-6.68-.104-1.589-.625-2.683-1.563-3.282-.937-.599-2.148-.755-3.632-.468-1.485.286-2.995.885-4.532 1.796a19.345 19.345 0 0 0-4.218 3.399c-1.276 1.354-2.149 2.786-2.618 4.297-.625.26-1.237.3-1.836.117a3.905 3.905 0 0 1-1.562-.898 3.42 3.42 0 0 1-.938-1.524c-.182-.599-.117-1.21.196-1.836 1.094-3.125 2.734-5.638 4.922-7.539 2.187-1.901 4.557-3.216 7.109-3.945 2.552-.73 5.052-.886 7.5-.469 2.448.417 4.427 1.406 5.938 2.969 1.51 1.562 2.37 3.672 2.578 6.328.208 2.656-.651 5.86-2.578 9.61l-14.454 31.406c2.136.208 4.284.234 6.446.078 2.161-.157 4.323-.378 6.484-.664a182.95 182.95 0 0 1 6.484-.743 38.95 38.95 0 0 1 6.524-.078c.312-.052.65.13 1.016.547.364.417.664.95.898 1.602.234.65.339 1.34.312 2.07-.026.73-.26 1.38-.703 1.953-.442.573-1.145 1.003-2.109 1.29-.964.286-2.305.299-4.023.038l-27.266 1.016zm39.766.781c-1.042-.885-1.732-1.9-2.07-3.047-.34-1.146-.34-2.174 0-3.086.338-.911 1.002-1.575 1.991-1.992.99-.417 2.266-.338 3.829.234 1.25 1.146 1.888 2.305 1.914 3.477.026 1.172-.26 2.188-.86 3.047-.599.86-1.38 1.445-2.344 1.758-.963.312-1.783.182-2.46-.39zm14.921-.781c-1.093.26-1.966.156-2.617-.313a3.282 3.282 0 0 1-1.289-1.836c-.208-.755-.195-1.562.04-2.421.234-.86.741-1.55 1.523-2.07l16.25-33.75c1.25-2.865 1.823-5.092 1.718-6.68-.104-1.589-.625-2.683-1.562-3.282-.938-.599-2.149-.755-3.633-.468-1.484.286-2.995.885-4.531 1.796a19.345 19.345 0 0 0-4.219 3.399c-1.276 1.354-2.148 2.786-2.617 4.297-.625.26-1.237.3-1.836.117a3.905 3.905 0 0 1-1.563-.898 3.42 3.42 0 0 1-.937-1.524c-.182-.599-.117-1.21.195-1.836 1.094-3.125 2.735-5.638 4.922-7.539 2.188-1.901 4.557-3.216 7.11-3.945 2.552-.73 5.052-.886 7.5-.469 2.447.417 4.427 1.406 5.937 2.969 1.51 1.562 2.37 3.672 2.578 6.328.208 2.656-.65 5.86-2.578 9.61l-14.453 31.406c2.135.208 4.284.234 6.445.078 2.162-.157 4.323-.378 6.485-.664a182.95 182.95 0 0 1 6.484-.743 38.95 38.95 0 0 1 6.523-.078c.313-.052.651.13 1.016.547.365.417.664.95.898 1.602.235.65.339 1.34.313 2.07-.026.73-.26 1.38-.703 1.953-.443.573-1.146 1.003-2.11 1.29-.963.286-2.304.299-4.023.038l-27.266 1.016zM78.17 248.773c0 1.167-.28 2.094-.843 2.782-.562.687-1.24 1.093-2.031 1.218-.792.125-1.563-.062-2.313-.562-.75-.5-1.312-1.375-1.687-2.625l.25-26.688c-3 2.209-5.74 3.73-8.219 4.563-2.479.833-4.677 1.156-6.594.969-1.916-.188-3.541-.782-4.875-1.782-1.333-1-2.364-2.218-3.093-3.656-.73-1.437-1.146-3.01-1.25-4.719a12.89 12.89 0 0 1 .625-4.906c.52-1.562 1.385-2.979 2.593-4.25 1.209-1.27 2.75-2.187 4.625-2.75 1.875-.562 4.115-.677 6.72-.344 2.603.334 5.572 1.292 8.905 2.875a8.886 8.886 0 0 1 1.813-.718c.667-.188 1.292-.136 1.875.156.583.292 1.083.896 1.5 1.812.417.917.667 2.334.75 4.25-.083 5.5-.01 11.22.219 17.157.229 5.937.573 11.677 1.03 17.218zm-9.5-36.5c-2.582-.958-4.832-1.427-6.75-1.406-1.916.021-3.51.344-4.78.969-1.271.625-2.22 1.469-2.844 2.531-.625 1.063-.927 2.136-.906 3.219.02 1.083.375 2.094 1.062 3.031.688.938 1.698 1.604 3.031 2 1.334.396 3 .417 5 .063s4.334-1.26 7-2.72c.125-1.416.125-2.687 0-3.812s-.395-2.416-.812-3.875zm66.938 39.938a3.408 3.408 0 0 1-1.093-.406c-.313-.188-.698-.636-1.157-1.344-.458-.708-1.062-1.813-1.812-3.313-.75-1.5-1.781-3.614-3.094-6.343-1.312-2.73-2.969-6.177-4.969-10.344-2-4.167-4.479-9.313-7.437-15.438-1.208-1.25-1.74-2.354-1.594-3.312.146-.958.573-1.708 1.281-2.25a4.063 4.063 0 0 1 2.438-.844c.917-.02 1.542.281 1.875.906l16.562 33.813c.334-1.083.771-2.48 1.313-4.188a932.046 932.046 0 0 0 1.781-5.687c.646-2.083 1.302-4.27 1.969-6.563a259.17 259.17 0 0 0 1.875-6.78c.583-2.23 1.104-4.365 1.562-6.407.459-2.042.792-3.833 1-5.375.084-.583.417-1.063 1-1.438a4.541 4.541 0 0 1 1.97-.687 4.886 4.886 0 0 1 2.124.219c.688.229 1.177.656 1.469 1.28-.542 1.75-1.146 4.116-1.813 7.095-.666 2.979-1.385 6.177-2.156 9.593a238.875 238.875 0 0 1-2.562 10.282c-.938 3.437-1.948 6.51-3.032 9.218-1.083 2.709-2.25 4.855-3.5 6.438-1.25 1.583-2.583 2.208-4 1.875zm26.563-4.813c.292.792.385 1.563.281 2.313a4.893 4.893 0 0 1-.719 2 4.219 4.219 0 0 1-1.406 1.375c-.562.333-1.135.48-1.719.437-.583-.041-1.135-.302-1.656-.78-.52-.48-.927-1.261-1.219-2.345-.083-.291-.156-1.01-.218-2.156-.063-1.146-.115-2.49-.157-4.031-.041-1.542-.083-3.198-.125-4.969-.041-1.77-.083-3.427-.125-4.969a439.552 439.552 0 0 0-.125-4.03c-.041-1.147-.104-1.886-.187-2.22-.292-2.041-.313-3.697-.063-4.968s.636-2.23 1.157-2.875c.52-.646 1.114-1 1.78-1.063.668-.062 1.282.115 1.845.531.562.417 1.01 1.053 1.343 1.907.334.854.438 1.864.313 3.03l1 22.813zm-4.5-33.25c-.917-.708-1.469-1.49-1.656-2.343-.188-.854-.125-1.615.187-2.282a2.813 2.813 0 0 1 1.5-1.437c.688-.292 1.427-.25 2.219.125.917.5 1.48 1.208 1.687 2.125.209.917.167 1.76-.125 2.531-.291.771-.78 1.334-1.468 1.688-.688.354-1.47.218-2.344-.407zm11.125 37.375c-.542-.125-1.063-.395-1.563-.812a3.463 3.463 0 0 1-1.062-1.469c-.208-.562-.177-1.177.094-1.844.27-.666.906-1.312 1.906-1.937.542.5 1.437.927 2.687 1.281 1.25.354 2.615.594 4.094.719 1.48.125 2.948.135 4.406.031 1.459-.104 2.677-.344 3.657-.719.979-.375 1.593-.885 1.843-1.53.25-.647-.104-1.449-1.062-2.407-2.792-1.875-5.219-3.427-7.281-4.656-2.063-1.23-3.813-2.438-5.25-3.625-1.438-1.188-2.584-2.5-3.438-3.938-.854-1.437-1.469-3.281-1.844-5.531-.125-1.833.313-3.344 1.313-4.531 1-1.188 2.292-2.084 3.875-2.688 1.583-.604 3.354-.927 5.312-.969a20.965 20.965 0 0 1 5.72.657c1.853.479 3.53 1.198 5.03 2.156 1.5.958 2.584 2.125 3.25 3.5.125.625.094 1.198-.093 1.719-.188.52-.47.968-.844 1.343a3.53 3.53 0 0 1-1.406.844 3.922 3.922 0 0 1-1.782.156c-1.291-1.625-2.698-2.802-4.218-3.53-1.521-.73-2.959-1.115-4.313-1.157-1.354-.042-2.49.24-3.406.844-.917.604-1.396 1.427-1.438 2.468-.041 1.042.47 2.271 1.532 3.688 1.062 1.417 2.906 2.937 5.53 4.562 3.75 2.25 6.532 4.344 8.345 6.282 1.812 1.937 2.833 3.666 3.062 5.187.23 1.521-.219 2.823-1.344 3.906-1.125 1.084-2.729 1.896-4.812 2.438-2.083.542-4.552.792-7.406.75-2.855-.042-5.886-.438-9.094-1.188zm35.125 1.188c-1.792-.625-3.292-1.635-4.5-3.031-1.208-1.396-2.188-3.021-2.938-4.875a31.033 31.033 0 0 1-1.718-5.97 55.559 55.559 0 0 1-.813-6.374 77.027 77.027 0 0 1-.187-6.094c.02-1.937.073-3.635.156-5.094.083-.791.385-1.375.906-1.75s1.125-.572 1.813-.593a4.664 4.664 0 0 1 2.03.406c.668.292 1.188.687 1.563 1.187.292.417.49 1.292.594 2.625.104 1.334.188 2.886.25 4.657.063 1.77.146 3.625.25 5.562.104 1.938.313 3.75.625 5.438.313 1.687.76 3.135 1.344 4.343.583 1.209 1.417 1.917 2.5 2.125 1.667-.041 2.99-.52 3.969-1.437.979-.917 1.687-2.115 2.125-3.594.437-1.479.656-3.146.656-5s-.125-3.74-.375-5.656a64.377 64.377 0 0 0-.969-5.563c-.396-1.791-.76-3.354-1.094-4.687-.208-1-.052-1.646.47-1.938.52-.291 1.176-.364 1.968-.218s1.604.427 2.437.843c.834.417 1.438.855 1.813 1.313.875 1.833 1.562 3.98 2.062 6.437a35 35 0 0 1 .688 7.563 35.561 35.561 0 0 1-.938 7.594c-.583 2.479-1.5 4.646-2.75 6.5a12.616 12.616 0 0 1-4.843 4.28c-1.98 1-4.344 1.334-7.094 1zm51.812-3.5c0 1.208-.25 2.02-.75 2.437a2.65 2.65 0 0 1-1.75.625 4.608 4.608 0 0 1-1.906-.406c-.604-.27-.99-.531-1.156-.781l-3.313-7.125c-.541 1-1.166 1.969-1.875 2.906-.708.938-1.5 1.771-2.375 2.5a14.147 14.147 0 0 1-2.843 1.844c-1.021.5-2.115.812-3.282.937-2.791.084-5.114-.343-6.968-1.28-1.855-.938-3.334-2.199-4.438-3.782-1.104-1.583-1.833-3.406-2.187-5.469a22.44 22.44 0 0 1-.157-6.375c.25-2.187.771-4.344 1.563-6.469.792-2.125 1.792-4.03 3-5.718 1.208-1.688 2.614-3.084 4.219-4.188 1.604-1.104 3.323-1.719 5.156-1.844 1.833-.125 3.76.303 5.781 1.282 2.021.979 4.094 2.718 6.219 5.218l7.062 25.688zm-24.5-4.125c1.917.667 3.594.823 5.032.469 1.437-.354 2.656-1.032 3.656-2.032s1.76-2.25 2.281-3.75c.521-1.5.844-3.062.969-4.687a19.246 19.246 0 0 0-.219-4.781c-.27-1.563-.729-2.938-1.375-4.125-.646-1.188-1.469-2.073-2.469-2.657-1-.583-2.166-.708-3.5-.375-1.083.25-2.052.886-2.906 1.907-.854 1.02-1.573 2.229-2.156 3.625a21.624 21.624 0 0 0-1.313 4.53 24.949 24.949 0 0 0-.406 4.75c.021 1.543.23 2.949.625 4.22.396 1.27.99 2.24 1.781 2.906zm34.75 4.562c.292 1.042.25 1.844-.125 2.407-.375.562-.916.906-1.625 1.03-.708.126-1.49.053-2.343-.218a5.398 5.398 0 0 1-2.22-1.344l-2.124-42.375c-.292-.75-.302-1.406-.031-1.968.27-.563.666-1 1.187-1.313a4.473 4.473 0 0 1 1.75-.594c.646-.083 1.23-.01 1.75.22.521.228.917.603 1.188 1.124.27.521.28 1.219.03 2.094l2.563 40.937zm-214.25 90.063c-.458-.875-.791-2.063-1-3.563a63.252 63.252 0 0 1-.468-4.75 467.385 467.385 0 0 1-.282-4.906c-.083-1.604-.208-2.948-.375-4.031a3.615 3.615 0 0 1-1.312-1.438 4.393 4.393 0 0 1-.469-1.843 5.104 5.104 0 0 1 .344-1.97c.25-.666.625-1.27 1.125-1.812-.25-3.416-.396-6.854-.438-10.312-.041-3.458-.02-6.938.063-10.438.083-.541.594-.99 1.531-1.343.938-.354 2.115-.625 3.531-.813a49.403 49.403 0 0 1 4.594-.375 89.38 89.38 0 0 1 4.656-.062c1.459.02 2.72.062 3.782.125 1.062.062 1.718.114 1.968.156.834.167 1.427.5 1.782 1 .354.5.52 1.062.5 1.687-.021.625-.198 1.24-.532 1.844a3.572 3.572 0 0 1-1.375 1.406c-.75.125-1.812.136-3.187.032a131.445 131.445 0 0 0-4.219-.25 32.521 32.521 0 0 0-4.062.062c-1.271.104-2.157.427-2.657.969a40.714 40.714 0 0 0-.062 3.937c.042 1.375.094 2.76.156 4.157.063 1.396.146 2.77.25 4.125.104 1.354.219 2.593.344 3.718.625.042 1.437.01 2.437-.093 1-.104 2.042-.209 3.125-.313a20.11 20.11 0 0 1 3.157-.062c1.02.062 1.875.28 2.562.656.688.375 1.125.98 1.313 1.812.187.834.01 1.98-.532 3.438l-11.437 1.187c-.083.5-.031 1.365.156 2.594.188 1.23.386 2.604.594 4.125.208 1.521.344 3.073.406 4.656.063 1.584-.073 2.97-.406 4.157-.333 1.187-.927 2.052-1.781 2.593-.855.542-2.115.521-3.782-.062zm25.938-.938c-1.875-.916-3.323-2.197-4.344-3.843a14.492 14.492 0 0 1-2-5.438c-.312-1.979-.312-4.041 0-6.187.313-2.146.844-4.23 1.594-6.25.75-2.021 1.667-3.865 2.75-5.532 1.083-1.666 2.25-3.02 3.5-4.062 2.292-1.75 4.417-2.792 6.375-3.125 1.958-.333 3.708-.146 5.25.562 1.542.709 2.885 1.834 4.031 3.375 1.146 1.542 2.042 3.303 2.688 5.282.645 1.979 1.03 4.104 1.156 6.375.125 2.27-.031 4.49-.469 6.656a21.497 21.497 0 0 1-2.187 6.062c-1.021 1.875-2.375 3.417-4.063 4.625-1.687 1.209-3.708 1.98-6.062 2.313-2.355.333-5.094.062-8.22-.813zm4.812-5.187c1.75.167 3.323-.219 4.72-1.156 1.395-.938 2.551-2.167 3.468-3.688.917-1.52 1.583-3.24 2-5.156.417-1.917.5-3.76.25-5.531s-.833-3.375-1.75-4.813c-.917-1.437-2.23-2.448-3.938-3.031-1.041-.208-2.135.125-3.28 1-1.147.875-2.188 2.052-3.126 3.531-.937 1.48-1.708 3.146-2.312 5-.605 1.854-.907 3.688-.907 5.5 0 1.813.375 3.469 1.125 4.969.75 1.5 2 2.625 3.75 3.375zm26.75 3.937c-.291.667-.802 1.198-1.53 1.594-.73.396-1.49.594-2.282.594s-1.531-.23-2.219-.688c-.687-.458-1.156-1.229-1.406-2.312-.083-.417-.094-1.281-.031-2.594.062-1.312.073-3.166.03-5.562-.04-2.396-.166-5.375-.374-8.938-.208-3.562-.604-7.823-1.188-12.781.875-.792 1.72-1.083 2.532-.875.812.208 1.552.667 2.218 1.375.667.708 1.209 1.573 1.625 2.594.417 1.02.646 1.968.688 2.843.208-.791.656-1.614 1.344-2.468.687-.854 1.53-1.636 2.53-2.344 1-.708 2.115-1.313 3.345-1.813 1.229-.5 2.5-.812 3.812-.937a10.57 10.57 0 0 1 3.938.375c1.312.375 2.53 1.083 3.656 2.125.042.375-.02.77-.188 1.187a4.886 4.886 0 0 1-.687 1.188 4.89 4.89 0 0 1-1 .969c-.375.27-.75.448-1.125.53-2.417-.5-4.469-.468-6.156.095-1.688.562-3.073 1.49-4.157 2.78-1.083 1.293-1.895 2.866-2.437 4.72a32.594 32.594 0 0 0-1.125 5.906 49.632 49.632 0 0 0-.219 6.375c.063 2.167.198 4.187.406 6.062zm27.5-.062c-.208.958-.687 1.646-1.437 2.062a4.878 4.878 0 0 1-2.406.625 5.054 5.054 0 0 1-2.438-.625c-.77-.416-1.281-1-1.531-1.75a250.493 250.493 0 0 1-.156-7.5 379.43 379.43 0 0 0-.157-8.406c-.083-2.812-.24-5.51-.468-8.094-.23-2.583-.573-4.75-1.032-6.5-.083-.916.063-1.697.438-2.343.375-.646.864-1.094 1.469-1.344.604-.25 1.27-.24 2 .031.729.271 1.385.844 1.968 1.719l.813 6c1.375-2.25 2.937-3.792 4.687-4.625 1.75-.833 3.407-1.042 4.97-.625 1.562.417 2.926 1.417 4.093 3 1.167 1.583 1.875 3.667 2.125 6.25.083-.708.48-1.583 1.187-2.625.709-1.042 1.615-2.094 2.72-3.156a22.973 22.973 0 0 1 3.687-2.875c1.354-.854 2.718-1.459 4.093-1.813 1.375-.354 2.709-.354 4 0 1.292.354 2.417 1.219 3.375 2.594.5.792.927 1.896 1.282 3.312a42.63 42.63 0 0 1 .875 4.72c.229 1.728.437 3.54.625 5.437.187 1.896.364 3.718.53 5.468.168 1.75.355 3.375.563 4.875.209 1.5.48 2.709.813 3.625.125 1.25-.073 2.323-.594 3.22-.52.895-1.156 1.5-1.906 1.812-.75.312-1.52.291-2.313-.063-.791-.354-1.416-1.135-1.875-2.344.167-6.333-.073-11.416-.718-15.25-.646-3.833-1.49-6.562-2.532-8.187-1.041-1.625-2.198-2.24-3.468-1.844-1.271.396-2.438 1.656-3.5 3.781-1.063 2.125-1.948 5.01-2.657 8.657-.708 3.646-1.02 7.906-.937 12.78-.292.834-.698 1.438-1.219 1.813a2.877 2.877 0 0 1-1.719.563c-.625 0-1.27-.177-1.937-.531a6.325 6.325 0 0 1-1.813-1.47c.125-4.374-.073-8.26-.593-11.655-.521-3.396-1.198-6.094-2.032-8.094-.833-2-1.729-3.24-2.687-3.719-.958-.479-1.813 0-2.563 1.438-.75 1.437-1.302 3.916-1.656 7.437-.354 3.521-.344 8.26.031 14.219zm72.563-1.25c0 1.208-.25 2.02-.75 2.437a2.65 2.65 0 0 1-1.75.625 4.608 4.608 0 0 1-1.906-.406c-.605-.27-.99-.531-1.157-.781l-3.312-7.125c-.542 1-1.167 1.969-1.875 2.906-.708.938-1.5 1.771-2.375 2.5a14.147 14.147 0 0 1-2.844 1.844c-1.02.5-2.114.812-3.281.937-2.792.084-5.115-.343-6.969-1.28-1.854-.938-3.333-2.199-4.437-3.782-1.105-1.583-1.834-3.406-2.188-5.469a22.44 22.44 0 0 1-.156-6.375c.25-2.187.77-4.344 1.562-6.469s1.792-4.03 3-5.718c1.209-1.688 2.615-3.084 4.22-4.188 1.603-1.104 3.322-1.719 5.155-1.844 1.834-.125 3.76.303 5.782 1.282 2.02.979 4.093 2.718 6.218 5.218l7.063 25.688zm-24.5-4.125c1.917.667 3.594.823 5.031.469 1.438-.354 2.656-1.032 3.656-2.032s1.76-2.25 2.282-3.75c.52-1.5.843-3.062.968-4.687a19.246 19.246 0 0 0-.218-4.781c-.271-1.563-.73-2.938-1.375-4.125-.646-1.188-1.47-2.073-2.47-2.657-1-.583-2.166-.708-3.5-.375-1.082.25-2.051.886-2.905 1.907-.855 1.02-1.573 2.229-2.157 3.625a21.624 21.624 0 0 0-1.312 4.53 24.949 24.949 0 0 0-.406 4.75c.02 1.543.229 2.949.625 4.22.395 1.27.99 2.24 1.78 2.906zm37.937-15.75c-.208.083-.291.562-.25 1.437.042.875.136 1.98.282 3.313a296.8 296.8 0 0 0 .53 4.5c.21 1.667.355 3.312.438 4.937a37.265 37.265 0 0 1-.03 4.594c-.105 1.438-.365 2.615-.782 3.531-.417.917-1.031 1.49-1.844 1.72-.812.228-1.906-.032-3.281-.782l-1.5-23.25c-.917-.167-1.667-.25-2.25-.25s-1.136.031-1.656.094a88.02 88.02 0 0 1-1.72.187c-.624.063-1.437.052-2.437-.031-.75-.458-1.229-1.042-1.437-1.75-.208-.708-.031-1.406.531-2.094.563-.687 1.563-1.27 3-1.75 1.438-.479 3.427-.719 5.969-.719.292-.166.375-.802.25-1.906a158.603 158.603 0 0 0-.5-3.906 63.724 63.724 0 0 1-.469-4.688c-.104-1.625.01-3.02.344-4.187.333-1.167.969-1.958 1.906-2.375.938-.417 2.344-.188 4.219.687.042 2.334.083 4.292.125 5.875.042 1.584.083 2.907.125 3.97.042 1.062.083 1.905.125 2.53a54.338 54.338 0 0 0 .25 2.781c.042.355.083.782.125 1.282.875.042 1.677.031 2.406-.031.73-.063 1.438-.125 2.125-.188a63.492 63.492 0 0 1 2.125-.156c.73-.042 1.531-.042 2.406 0 .917.208 1.584.583 2 1.125.417.542.615 1.125.594 1.75-.02.625-.27 1.219-.75 1.781-.479.563-1.114.99-1.906 1.281l-9.063.688zm25 0c-.208.083-.291.562-.25 1.437.042.875.136 1.98.282 3.313a296.8 296.8 0 0 0 .53 4.5c.21 1.667.355 3.312.438 4.937a37.265 37.265 0 0 1-.03 4.594c-.105 1.438-.365 2.615-.782 3.531-.417.917-1.031 1.49-1.844 1.72-.812.228-1.906-.032-3.281-.782l-1.5-23.25c-.917-.167-1.667-.25-2.25-.25s-1.136.031-1.656.094a88.02 88.02 0 0 1-1.72.187c-.624.063-1.437.052-2.437-.031-.75-.458-1.229-1.042-1.437-1.75-.208-.708-.031-1.406.531-2.094.563-.687 1.563-1.27 3-1.75 1.438-.479 3.427-.719 5.969-.719.292-.166.375-.802.25-1.906a158.603 158.603 0 0 0-.5-3.906 63.724 63.724 0 0 1-.469-4.688c-.104-1.625.01-3.02.344-4.187.333-1.167.969-1.958 1.906-2.375.938-.417 2.344-.188 4.219.687.042 2.334.083 4.292.125 5.875.042 1.584.083 2.907.125 3.97.042 1.062.083 1.905.125 2.53a54.338 54.338 0 0 0 .25 2.781c.042.355.083.782.125 1.282.875.042 1.677.031 2.406-.031.73-.063 1.438-.125 2.125-.188a63.492 63.492 0 0 1 2.125-.156c.73-.042 1.531-.042 2.406 0 .917.208 1.584.583 2 1.125.417.542.615 1.125.594 1.75-.02.625-.27 1.219-.75 1.781-.479.563-1.114.99-1.906 1.281l-9.063.688zm21.125 18.062c.292.792.386 1.563.282 2.313a4.893 4.893 0 0 1-.72 2 4.219 4.219 0 0 1-1.405 1.375c-.563.333-1.136.48-1.72.437-.582-.041-1.135-.302-1.655-.78-.521-.48-.927-1.261-1.22-2.345-.082-.291-.155-1.01-.218-2.156-.062-1.146-.114-2.49-.156-4.031-.042-1.542-.083-3.198-.125-4.969-.042-1.77-.083-3.427-.125-4.969a439.552 439.552 0 0 0-.125-4.03c-.042-1.147-.104-1.886-.188-2.22-.291-2.041-.312-3.697-.062-4.968s.635-2.23 1.156-2.875c.521-.646 1.115-1 1.781-1.063.667-.062 1.282.115 1.844.531.563.417 1.01 1.053 1.344 1.907.333.854.437 1.864.312 3.03l1 22.813zm-4.5-33.25c-.916-.708-1.468-1.49-1.656-2.343-.187-.854-.125-1.615.188-2.282a2.813 2.813 0 0 1 1.5-1.437c.687-.292 1.427-.25 2.218.125.917.5 1.48 1.208 1.688 2.125.208.917.167 1.76-.125 2.531-.292.771-.781 1.334-1.469 1.688-.687.354-1.469.218-2.344-.407zm15.938 35.625c0 1.292-.344 2.157-1.031 2.594a3.048 3.048 0 0 1-2.25.438c-.813-.146-1.563-.51-2.25-1.094-.688-.583-1.073-1.27-1.157-2.063.084-4.25.094-8.78.032-13.593a576.074 576.074 0 0 0-.407-15.157c.334-1.125.907-1.833 1.72-2.125.812-.291 1.593-.197 2.343.282s1.323 1.333 1.719 2.562c.395 1.23.343 2.802-.157 4.719 2.667-3.917 5.167-6.48 7.5-7.688 2.334-1.208 4.48-1.458 6.438-.75 1.958.709 3.677 2.157 5.156 4.344 1.48 2.188 2.698 4.719 3.656 7.594a44.067 44.067 0 0 1 1.97 9.031c.353 3.146.364 6.031.03 8.656.042 1.084-.28 1.896-.968 2.438-.688.542-1.438.844-2.25.906a3.353 3.353 0 0 1-2.22-.594c-.666-.458-.957-1.166-.874-2.125.292-5.25.177-9.5-.344-12.75-.52-3.25-1.27-5.677-2.25-7.28-.979-1.605-2.114-2.49-3.406-2.657-1.292-.167-2.594.177-3.906 1.031-1.313.854-2.563 2.136-3.75 3.844-1.188 1.708-2.146 3.625-2.875 5.75-.73 2.125-1.177 4.385-1.344 6.781-.167 2.396.125 4.698.875 6.906zm45.687 28.375c-2.5-.583-4.583-1.52-6.25-2.812-1.666-1.292-2.833-2.573-3.5-3.844-.666-1.27-.77-2.375-.312-3.312.458-.938 1.562-1.344 3.312-1.22 1.959 1.876 3.844 3.136 5.657 3.782 1.812.646 3.468.76 4.968.344 1.5-.417 2.771-1.313 3.813-2.688 1.042-1.375 1.75-3.125 2.125-5.25s.364-4.593-.031-7.406c-.396-2.812-1.282-5.864-2.657-9.156-1.166 1.542-2.541 2.792-4.125 3.75a15.025 15.025 0 0 1-5 1.937c-1.75.334-3.52.344-5.312.032a13.02 13.02 0 0 1-5-2c-1.542-1.021-2.906-2.386-4.094-4.094-1.187-1.708-2.052-3.813-2.594-6.313-.25-3.083-.083-5.927.5-8.53.584-2.605 1.49-4.876 2.72-6.813 1.228-1.938 2.728-3.521 4.5-4.75a14.57 14.57 0 0 1 5.843-2.407c2.125-.375 4.385-.26 6.781.344s4.823 1.74 7.281 3.406c.292 2 .782 4.386 1.47 7.157.687 2.77 1.416 5.729 2.187 8.875.77 3.146 1.49 6.385 2.156 9.718a88.317 88.317 0 0 1 1.406 9.688c.271 3.125.271 6.062 0 8.812-.27 2.75-.99 5.125-2.156 7.125-1.167 2-2.854 3.51-5.063 4.532-2.208 1.02-5.083 1.385-8.625 1.093zm-12.75-43.812c0 2.833.417 5.115 1.25 6.844.834 1.729 1.896 2.99 3.188 3.78a7.086 7.086 0 0 0 4.187 1.063c1.5-.083 2.927-.5 4.282-1.25 1.354-.75 2.52-1.791 3.5-3.125.979-1.333 1.573-2.875 1.78-4.625a34.346 34.346 0 0 1-.562-2.78 99.932 99.932 0 0 0-.562-3.126 55.739 55.739 0 0 0-.688-3.062c-.25-.98-.52-1.844-.812-2.594-.833-1.083-1.802-1.781-2.906-2.094a6.613 6.613 0 0 0-3.375-.062c-1.146.27-2.271.77-3.375 1.5a14.205 14.205 0 0 0-2.97 2.625 14.001 14.001 0 0 0-2.124 3.312c-.542 1.188-.813 2.386-.813 3.594zM92.358 424.148c.292 1.042.157 1.917-.406 2.625a4.34 4.34 0 0 1-2.094 1.47 4.447 4.447 0 0 1-2.5.093c-.833-.208-1.395-.73-1.687-1.563l-.313-36.75a46.737 46.737 0 0 0-4.593 5.97 110.536 110.536 0 0 0-3.97 6.593c-1.25 2.25-2.468 4.48-3.655 6.687a96.993 96.993 0 0 1-3.657 6.25c-.708.792-1.458 1.271-2.25 1.438a4.352 4.352 0 0 1-2.312-.125 6.125 6.125 0 0 1-2.094-1.219 6.366 6.366 0 0 1-1.531-1.969l-7-17.812c-.042 4.25-.042 7.865 0 10.844.042 2.979.094 5.468.156 7.468.063 2 .136 3.594.219 4.782.083 1.187.177 2.135.281 2.843.104.709.188 1.24.25 1.594.063.354.115.698.156 1.031.084.917-.198 1.594-.843 2.032-.646.437-1.386.656-2.22.656a4.838 4.838 0 0 1-2.343-.594c-.729-.396-1.135-.969-1.219-1.719l-1.625-43.625c0-.333.25-.635.75-.906.5-.27 1.063-.427 1.688-.469a4.06 4.06 0 0 1 1.844.313c.604.25 1.03.73 1.28 1.437a315.946 315.946 0 0 1 6.72 13.22 334.418 334.418 0 0 1 6.03 13.343c1.334-1.875 2.699-4.01 4.095-6.406 1.395-2.396 2.791-4.782 4.187-7.157a175.814 175.814 0 0 1 4.188-6.78c1.395-2.147 2.78-3.907 4.156-5.282 1.375-1.375 2.74-2.27 4.094-2.688 1.354-.416 2.698-.083 4.03 1l2.188 43.375zm9.188 1.625c-1.875-.916-3.323-2.197-4.344-3.843a14.492 14.492 0 0 1-2-5.438c-.312-1.979-.312-4.041 0-6.187.313-2.146.844-4.23 1.594-6.25.75-2.021 1.667-3.865 2.75-5.532 1.083-1.666 2.25-3.02 3.5-4.062 2.292-1.75 4.417-2.792 6.375-3.125 1.958-.333 3.708-.146 5.25.562 1.542.709 2.885 1.834 4.031 3.375 1.146 1.542 2.042 3.303 2.688 5.282.645 1.979 1.03 4.104 1.156 6.375.125 2.27-.031 4.49-.469 6.656a21.497 21.497 0 0 1-2.187 6.062c-1.021 1.875-2.375 3.417-4.063 4.625-1.687 1.209-3.708 1.98-6.062 2.313-2.355.333-5.094.062-8.22-.813zm4.812-5.187c1.75.167 3.323-.219 4.72-1.156 1.395-.938 2.551-2.167 3.468-3.688.917-1.52 1.583-3.24 2-5.156.417-1.917.5-3.76.25-5.531s-.833-3.375-1.75-4.813c-.917-1.437-2.23-2.448-3.938-3.031-1.041-.208-2.135.125-3.28 1-1.147.875-2.188 2.052-3.126 3.531-.937 1.48-1.708 3.146-2.312 5-.605 1.854-.907 3.688-.907 5.5 0 1.813.375 3.469 1.125 4.969.75 1.5 2 2.625 3.75 3.375zm28.75 5.937c-2.708-.666-4.927-1.958-6.656-3.875a17.128 17.128 0 0 1-3.719-6.593c-.75-2.48-1.02-5.094-.812-7.844.208-2.75.885-5.302 2.031-7.656a17.097 17.097 0 0 1 4.844-6c2.083-1.646 4.625-2.615 7.625-2.907 1.458-.125 3-.104 4.625.063 1.625.167 3.104.583 4.437 1.25l-.812-12.313c0-.5.364-.875 1.094-1.125.729-.25 1.53-.354 2.406-.312.875.042 1.677.27 2.406.687.73.417 1.094 1.063 1.094 1.938l4.062 42.437c.084.792-.114 1.417-.593 1.875-.48.459-1.063.75-1.75.875a4.485 4.485 0 0 1-2.094-.125c-.708-.208-1.208-.583-1.5-1.125-.083-.125-.198-.416-.344-.875a216.228 216.228 0 0 1-.906-2.938c-.125-.416-.208-.624-.25-.624-1.625 1.625-3.198 2.844-4.719 3.656-1.52.813-2.948 1.354-4.281 1.625-1.333.271-2.531.365-3.594.281-1.062-.083-1.927-.208-2.594-.375zm-4.812-14.062c.583 2.292 1.354 4.135 2.312 5.531.959 1.396 2.01 2.396 3.157 3a6.488 6.488 0 0 0 3.625.75c1.27-.104 2.51-.49 3.718-1.156 1.209-.667 2.355-1.563 3.438-2.688 1.083-1.125 2.02-2.437 2.812-3.937.375-.75.594-1.594.657-2.531.062-.938.02-1.907-.125-2.907-.146-1-.355-2.01-.625-3.03-.271-1.022-.532-2.011-.782-2.97-1.166-2.291-2.49-3.895-3.968-4.812-1.48-.917-2.97-1.323-4.47-1.219-1.5.104-2.937.646-4.312 1.625-1.375.98-2.541 2.219-3.5 3.719-.958 1.5-1.635 3.177-2.03 5.031a12.38 12.38 0 0 0 .093 5.594zm57.875 7.75a10.482 10.482 0 0 1-3 3.531 13.3 13.3 0 0 1-4.125 2.094c-1.5.458-3.073.677-4.719.656a16.068 16.068 0 0 1-4.781-.781 17.154 17.154 0 0 1-4.344-2.125 12.804 12.804 0 0 1-3.406-3.375 26.298 26.298 0 0 1-3.063-8.438c-.541-3-.52-5.833.063-8.5.583-2.666 1.77-5 3.562-7 1.792-2 4.292-3.333 7.5-4 3.042-.208 5.448.157 7.22 1.094 1.77.938 2.978 2.209 3.624 3.813.646 1.604.771 3.385.375 5.343-.396 1.959-1.24 3.865-2.531 5.72-1.292 1.853-3 3.5-5.125 4.937-2.125 1.437-4.583 2.427-7.375 2.968.833 1.375 1.781 2.365 2.844 2.97a8.548 8.548 0 0 0 3.343 1.093c1.167.125 2.323.052 3.47-.219a22.007 22.007 0 0 0 3.187-1c.979-.396 1.843-.77 2.593-1.125.75-.354 1.292-.594 1.625-.719 1.5-.458 2.521-.458 3.063 0 .542.459.542 1.48 0 3.063zm-16.563-22.313c-1 .75-1.875 1.605-2.625 2.563-.75.958-1.354 1.98-1.812 3.062a12.647 12.647 0 0 0-.906 3.375 11.164 11.164 0 0 0 .093 3.438c1.75-.25 3.323-.792 4.72-1.625 1.395-.833 2.562-1.781 3.5-2.844.937-1.062 1.614-2.156 2.03-3.281.417-1.125.532-2.104.344-2.938-.187-.833-.719-1.437-1.594-1.812-.875-.375-2.125-.354-3.75.062zm26.438 25.75c.292 1.042.25 1.844-.125 2.407-.375.562-.917.906-1.625 1.03-.708.126-1.49.053-2.344-.218a5.398 5.398 0 0 1-2.219-1.344l-2.125-42.375c-.291-.75-.302-1.406-.03-1.968.27-.563.666-1 1.187-1.313a4.473 4.473 0 0 1 1.75-.594c.645-.083 1.229-.01 1.75.22.52.228.916.603 1.187 1.124.271.521.281 1.219.031 2.094l2.563 40.937z"/></g></svg>
