<svg xmlns="http://www.w3.org/2000/svg" width="701" height="146"><g fill="none" fill-rule="evenodd" stroke-width="6"><g transform="translate(185.564)"><rect width="139" height="139" x="3" y="3" fill="#FFF" stroke="#000" rx="22"/><path stroke="#20bf55" stroke-linecap="round" d="M30 27.168h85"/><path stroke="#000" stroke-linecap="round" d="M45 45.32h55"/><path stroke="#20bf55" stroke-linecap="round" d="M30 63.471h85"/><path stroke="#000" stroke-linecap="round" d="M45 81.623h55"/><path stroke="#20bf55" stroke-linecap="round" d="M30 99.774h85"/><path stroke="#000" stroke-linecap="round" d="M45 117.926h55"/></g><g transform="translate(.379)"><rect width="139" height="139" x="3" y="3" fill="#FFF" stroke="#000" rx="22"/><path stroke="#20bf55" stroke-linecap="round" d="M30 27.168h85"/><path stroke="#000" stroke-linecap="round" d="M30 45.32h55"/><path stroke="#20bf55" stroke-linecap="round" d="M30 63.471h85"/><path stroke="#000" stroke-linecap="round" d="M30 81.623h55"/><path stroke="#20bf55" stroke-linecap="round" d="M30 99.774h85"/><path stroke="#000" stroke-linecap="round" d="M30 117.926h55"/></g><g transform="translate(370.749)"><rect width="139" height="139" x="3" y="3" fill="#FFF" stroke="#000" rx="22"/><path stroke="#20bf55" stroke-linecap="round" d="M30 27.168h85"/><path stroke="#000" stroke-linecap="round" d="M60 45.32h55"/><path stroke="#20bf55" stroke-linecap="round" d="M30 63.471h85"/><path stroke="#000" stroke-linecap="round" d="M60 81.623h55"/><path stroke="#20bf55" stroke-linecap="round" d="M30 99.774h85"/><path stroke="#000" stroke-linecap="round" d="M60 117.926h55"/></g><g transform="translate(555.934 1)"><rect width="139" height="139" x="3" y="3" fill="#FFF" stroke="#000" rx="22"/><path stroke="#20bf55" stroke-linecap="round" d="M30 27.168h85"/><path stroke="#000" stroke-linecap="round" d="M30 45.32h85"/><path stroke="#20bf55" stroke-linecap="round" d="M30 63.471h85"/><path stroke="#000" stroke-linecap="round" d="M30 81.623h85"/><path stroke="#20bf55" stroke-linecap="round" d="M30 99.774h85"/><path stroke="#000" stroke-linecap="round" d="M30 117.926h85"/></g></g></svg>