<svg xmlns="http://www.w3.org/2000/svg" xmlns:xlink="http://www.w3.org/1999/xlink" viewBox="0 0 356 102"><defs><path id="a" d="M.06.543h355.105v97.079H.06z"/><path id="c" d="M.274.203h30.522V17.94H.274z"/></defs><g fill="none" fill-rule="evenodd"><g fill="#414241"><path d="M1.696 1.833h11.041v8.955h.245C15.803 4.655 23.163.361 32.118.361c11.286 0 21.099 6.747 21.099 22.204v37.414h-11.04V25.631c0-10.917-6.256-14.965-13.249-14.965-9.199 0-16.191 5.888-16.191 19.381v29.932H1.696V1.833m103.361 24.288c-.245-9.69-5.643-16.928-16.805-16.928-10.918 0-18.033 9.201-18.033 16.928h34.838zm-34.838 8.833c0 10.182 9.445 16.929 19.627 16.929 6.747 0 11.654-3.435 15.948-8.71l8.341 6.379c-6.134 7.973-14.598 11.899-25.761 11.899-18.401 0-29.931-13.248-29.931-30.545C58.443 13.487 71.078.361 88.497.361c20.486 0 28.337 15.702 28.337 30.668v3.925H70.219z"/><path d="M138.006 28.943l-20.608-27.11h14.229l14.107 20.609 13.862-20.609h13.371l-19.873 27.11 23.553 31.036h-14.23l-17.174-24.411-17.173 24.411h-13.617l23.553-31.036m41.583-27.11h10.304v9.078h.245c1.105-3.435 8.219-10.55 18.646-10.55 8.587 0 14.476 3.68 18.156 10.795C230.743 4.041 238.347.361 245.341.361c17.909 0 22.08 12.758 22.08 25.76v33.858h-11.04V27.594c0-8.832-1.84-16.928-12.513-16.928-10.672 0-14.843 7.237-14.843 17.542v31.771h-11.041V29.557c0-11.04-1.594-18.891-12.266-18.891-7.974 0-15.088 6.011-15.088 19.136v30.177h-11.041V1.833"/></g><path fill="#2E69A5" d="M313.157 30.246a7.085 7.085 0 0 1-7.085 7.085 7.085 7.085 0 1 1 0-14.171 7.085 7.085 0 0 1 7.085 7.086"/><path fill="#414241" d="M305.817 10.671c9.947 0 18.199 7.166 19.931 16.612h-3.894l9.474 9.315 9.501-9.315h-4.75C334.263 12.176 321.414.463 305.817.463c-12.648 0-23.498 7.702-28.115 18.673l9.514 3.725c3.127-7.174 10.276-12.19 18.601-12.19m0 40.572c-9.758 0-17.884-6.897-19.824-16.077h4.296l-9.473-9.315-9.502 9.315h4.309c2.052 14.848 14.783 26.285 30.194 26.285 12.618 0 23.445-7.665 28.082-18.591l-9.516-3.726c-3.145 7.13-10.272 12.109-18.566 12.109"/><mask id="b" fill="#fff"><use xlink:href="#a"/></mask><path fill="#414241" d="M346.811 7.542h1.258c1.122 0 1.542-.583 1.542-1.283 0-.771-.538-1.283-1.448-1.283h-1.352v2.566zm2.38.981l2.029 2.916h-1.422l-1.89-2.8h-1.097v2.8h-1.19v-7.56h2.729c1.751 0 2.519 1.026 2.519 2.403 0 1.237-.651 1.961-1.678 2.241zm4.597-.818c0-3.172-2.474-5.787-5.695-5.787-3.265 0-5.762 2.638-5.762 5.811 0 3.149 2.497 5.787 5.738 5.787 3.222 0 5.719-2.661 5.719-5.811zm1.377 0c0 3.85-3.128 7.14-7.096 7.14-3.967 0-7.093-3.242-7.093-7.14 0-3.872 3.126-7.162 7.117-7.162 3.966 0 7.072 3.265 7.072 7.162zM8.352 82.18H0v-1.855h18.798v1.855h-8.352v15.442H8.352V82.18" mask="url(#b)"/><path fill="#414241" d="M21.075 80.325h1.927v6.662c1.309-1.143 3.022-2.189 5.235-2.189 1.547 0 5.14.357 5.14 4.615v8.209h-1.928v-7.828c.048-2.951-2.094-3.355-3.45-3.355-2.118 0-3.878 1.308-4.997 2.499v8.684h-1.927V80.325m26.43 9.827c-.381-2.047-2.142-3.713-5.092-3.713-2.832 0-4.426 1.429-4.973 3.713h10.065zm1.737 4.878c-1.285 1.356-2.523 2.973-6.758 2.973-4.187 0-7.043-2.855-7.043-6.663 0-3.948 2.974-6.542 6.805-6.542 3.974 0 7.448 2.07 7.353 6.994h-12.23c.19 2.333 2.07 4.569 5.306 4.569 3.211 0 4.282-1.451 5.068-2.426l1.499 1.095z"/><path fill="#E7792B" d="M58.584 80.325h3.617l6.496 13.8 6.614-13.8h3.617l-8.471 17.297h-3.521l-8.352-17.297m29.737 10.849c0-2.998-1.927-4.234-4.164-4.234-2.26 0-4.164 1.236-4.164 4.234 0 2.713 1.523 4.356 4.164 4.356 2.642 0 4.164-1.643 4.164-4.356zm-11.326.048c0-3.426 2.07-6.805 7.162-6.805 5.092 0 7.162 3.379 7.162 6.805 0 5.092-3.664 6.829-7.162 6.829-3.498 0-7.162-1.737-7.162-6.829zm15.722-6.377h2.903v1.594c.928-.904 2.189-2.022 4.783-2.022 2.665 0 4.996 1.118 4.996 5.021v8.184h-2.95v-7.089c0-2.523-.762-3.593-2.736-3.593-2.356 0-3.308.975-4.046 1.879v8.803h-2.95V84.845"/><g transform="translate(107 84)"><mask id="d" fill="#fff"><use xlink:href="#c"/></mask><path fill="#E7792B" d="M10.815 7.174c-1.714.071-3.213.31-4.593.644-1.832.427-2.689 1.046-2.712 2.164-.024 1.096.689 1.785 2.141 1.785 2.237 0 4.022-.976 5.164-1.665V7.174zm2.95 4.379c0 .857.048 1.713.238 2.069h-3.022a5.94 5.94 0 0 1-.166-1.285c-1.238.715-3.07 1.714-5.592 1.714-1.69 0-4.949-.714-4.949-3.854 0-4.308 6.424-4.926 10.541-5.164v-.571c0-.975-.881-1.666-3.308-1.666-2.712 0-3.284 1-3.45 1.69H.988C1.701 1.011 5.104.417 7.483.417c6.163 0 6.282 2.998 6.282 4.759v6.377zM26.442 5.08c0-1.903-1.952-2.474-3.522-2.474-1.618 0-3.427.571-3.427 2.498 0 1.999 1.832 2.499 3.403 2.499s3.546-.642 3.546-2.523zm-5.687 8.709c-.69 0-1.69.191-1.69.928 0 1.047 1.381 1.166 3.712 1.166 2.308 0 4.783-.262 4.783-1.284 0-.881-.524-.833-3.783-.81h-3.022zM30.772 2.914c-.262-.071-.738-.237-1.071-.189-.333 0-.761.143-.952.238.191.261.595 1.023.595 2.117 0 3.474-3.093 4.712-6.472 4.712-1.189 0-2.117-.191-2.689-.405-.333.214-.808.571-.808 1.024 0 .452.285.761 2.855.737h4.021c2.879.096 4.545.929 4.545 2.927 0 3.046-4.45 3.925-8.304 3.925-3.569 0-6.663-.712-6.663-2.831 0-1.523 1.356-1.737 2.57-1.975v-.047c-1.094-.095-1.927-.69-1.927-1.975 0-1.285 1.213-2.26 2.236-2.403v-.047c-1.427-.786-2.117-2.047-2.117-3.666 0-3.759 3.45-4.639 6.591-4.639 2.237 0 3.545.571 4.425 1.166.452-.475 1.404-1.38 2.689-1.38h.476v2.711z" mask="url(#d)"/></g><path fill="#E7792B" d="M150.139 89.771c-.451-2.166-1.927-2.975-4.045-2.975-1.546 0-3.331.525-3.926 2.975h7.971zm2.904 4.021c-.215 1.046-1.928 4.259-6.663 4.259-4.568 0-7.305-2.855-7.305-6.852 0-3.617 2.379-6.782 7.091-6.782 4.806.047 7.115 3.022 7.115 7.638h-11.207c.118.809.57 3.475 4.21 3.616 1.857 0 3.094-.88 3.522-1.879h3.237zm3.007-8.149h.915c.554 0 .998-.064.998-.675 0-.592-.49-.656-.998-.656h-.915v1.331zm.766.499h-.766v1.867h-.555v-4.196h1.663c.943 0 1.359.406 1.359 1.164 0 .73-.489 1.072-1.053 1.165l1.266 1.867h-.684l-1.23-1.867zm.038 2.745a2.967 2.967 0 0 0 2.976-2.967 2.974 2.974 0 0 0-2.976-2.976 2.967 2.967 0 0 0-2.968 2.976 2.96 2.96 0 0 0 2.968 2.967zm0-6.499a3.524 3.524 0 0 1 3.531 3.523 3.531 3.531 0 0 1-3.531 3.531 3.523 3.523 0 0 1-3.522-3.531 3.516 3.516 0 0 1 3.522-3.523z"/><path fill="#414241" d="M181.511 91.275l-4.637-9.296-4.636 9.296h9.273zm-5.921-10.938h2.567l8.869 17.285h-2.353l-2.236-4.493h-11.15l-2.259 4.493h-2.33l8.892-17.285zm16.188 8.061h7.488c3.471 0 5.231-.736 5.231-3.091 0-2.377-1.76-3.115-5.231-3.115h-7.488v6.206zm-2.094-8.061h10.129c3.495 0 6.681.999 6.681 4.947 0 3.969-3.186 4.968-6.681 4.968h-8.035v7.37h-2.094V80.337zm19.779 17.285h2.091V80.337h-2.091zm17.282-9.224h7.489c3.472 0 5.231-.736 5.231-3.091 0-2.377-1.759-3.115-5.231-3.115h-7.489v6.206zm-2.093-8.061h10.13c3.494 0 6.681.999 6.681 4.947 0 3.969-3.187 4.968-6.681 4.968h-8.037v7.37h-2.093V80.337zm19.207 17.285h1.926V80.337h-1.926zm15.669-6.871c-5.659.547-9.464 1.071-9.464 3.472 0 1.949 2.188 2.211 3.139 2.211 2.686 0 5.088-1.284 6.325-1.949v-3.734zm1.926 4.946c0 .737.095 1.26.213 1.925h-1.926c-.095-.379-.238-.998-.238-1.498-1.806 1.166-3.828 1.879-6.204 1.879-2.046 0-5.065-.57-5.065-3.78 0-4.304 6.443-4.47 11.294-5.04v-.476c0-1.688-2.022-2.33-3.995-2.33-3.306 0-4.47 1.379-5.088 2.092l-1.451-.999c.714-.88 2.069-2.662 6.396-2.662 2.83 0 6.064.831 6.064 4.018v6.871zm11.669-8.869h-4.945v7.513c0 1.356.594 2.022 2.543 2.022.928 0 1.689-.167 2.735-.38v1.663c-1.379.215-2.354.357-3.138.357-4.065 0-4.065-2.472-4.065-3.471v-7.704h-2.639v-1.64h2.639v-4.137h1.925v4.137h4.945v1.64m4.92.261h-3.138V85.45h3.138v-.952c0-2.043.642-4.588 4.423-4.588 1.973 0 2.733.213 3.234.333v1.71c-.856-.212-1.688-.403-2.664-.403-2.663 0-3.067 1.26-3.067 3.091v.809h5.112v1.639h-5.112v10.533h-1.926V87.089m20.422 4.328c0-2.258-1.474-4.969-5.231-4.969-3.757 0-5.254 2.711-5.254 4.969 0 2.973 1.996 4.946 5.254 4.946 3.258 0 5.231-1.973 5.231-4.946zm-12.411-.237c0-3.544 2.806-6.372 7.18-6.372 4.375 0 7.157 2.828 7.157 6.372 0 4.398-2.924 6.823-7.157 6.823-4.232 0-7.18-2.425-7.18-6.823zm16.877-5.992h1.926v2.592c1.117-1.261 2.687-2.972 5.184-2.972.427 0 .784.023 1.14.095v1.925c-.238-.023-.713-.167-1.544-.167-2.735 0-4.709 3.164-4.78 3.52v7.441h-1.926V85.188m10.459 0h1.855v1.735c1.427-1.213 2.9-2.115 4.946-2.115 2.71 0 3.447 1.307 3.946 2.211 1.951-1.641 3.235-2.211 5.065-2.211 1.142 0 4.564.237 4.564 3.828v8.986h-1.925v-8.273c0-.762 0-2.901-2.735-2.901-2.163 0-3.757 1.426-4.564 2.188v8.986h-1.926v-8.273c0-.762 0-2.901-2.687-2.901-2.211 0-3.804 1.426-4.613 2.188v8.986h-1.926V85.188"/></g></svg>