<svg xmlns="http://www.w3.org/2000/svg" xmlns:xlink="http://www.w3.org/1999/xlink" viewBox="0 0 964 456"><defs><path id="a" d="M0 0h460v305H0z"/></defs><g fill="none" fill-rule="evenodd"><g transform="translate(117 8)"><use fill="#D8D8D8" xlink:href="#a"/><path stroke="#595959" stroke-width="5" d="M-2.5-2.5h465v310h-465z"/></g><path stroke="#595959" stroke-linecap="square" stroke-width="5" d="M117 60.5h460m-460 200h460M244.5 8v305"/><text fill="#000" font-family="ZillaSlabRegular, Zilla Slab" font-size="18" transform="translate(582 -4)"><tspan x="80" y="18">1 / -4 / first / header-start</tspan></text><text fill="#000" font-family="ZillaSlabRegular, Zilla Slab" font-size="18" transform="translate(582 -4)"><tspan x="80" y="74">2 / -3 / header-end / content-start</tspan></text><text fill="#000" font-family="ZillaSlabRegular, Zilla Slab" font-size="18" transform="translate(582 -4)"><tspan x="79" y="327">4 / -1 / footer-end / last</tspan></text><path stroke="#979797" stroke-width="3" d="M582 5.5h70m-70 55h70m-70 255h70"/><text fill="#000" font-family="ZillaSlabRegular, Zilla Slab" font-size="18" transform="translate(582 -4)"><tspan x="79" y="272">3 / -2 / content-end / footer-start</tspan></text><path stroke="#979797" stroke-width="3" d="M582 260.5h70M114.5 318v70m130-70v105m335-105v70"/><text fill="#000" font-family="ZillaSlabRegular, Zilla Slab" font-size="18" transform="translate(-2 318)"><tspan x=".562" y="99">1 / -3 / first / sidebar-start</tspan></text><text fill="#000" font-family="ZillaSlabRegular, Zilla Slab" font-size="18" transform="translate(-2 318)"><tspan x="94.509" y="134.246">2 / -2 / sidebar-end / content-start</tspan></text><text fill="#000" font-family="ZillaSlabRegular, Zilla Slab" font-size="18" transform="translate(-2 318)"><tspan x="468.693" y="99">3 / -1 / content-end / last</tspan></text><text fill="#6E008B" font-family="ZillaSlabRegular, Zilla Slab" font-size="14" transform="translate(-2 -4)"><tspan x="160.346" y="358">150px</tspan></text><path stroke="#FF4F5E" stroke-linecap="square" stroke-width="2" d="M119.5 335h120m-109.2 3l-10.8-3 10.8-3m98.4 6l10.8-3-10.8-3M602 10.5v45m-3-34.2l3-10.8 3 10.8m-6 23.4l3 10.8 3-10.8"/><text fill="#6E008B" font-family="ZillaSlabRegular, Zilla Slab" font-size="14" transform="translate(-2 -4)"><tspan x="405.074" y="358">1fr</tspan></text><text fill="#6E008B" font-family="ZillaSlabRegular, Zilla Slab" font-size="14" transform="translate(-2 -4)"><tspan x="617.046" y="41">50px</tspan></text><text fill="#6E008B" font-family="ZillaSlabRegular, Zilla Slab" font-size="14" transform="translate(-2 -4)"><tspan x="617.074" y="170">1fr</tspan></text><path stroke="#FF4F5E" stroke-linecap="square" stroke-width="2" d="M602 265.5v45m-3-34.2l3-10.8 3 10.8m-6 23.4l3 10.8 3-10.8m-3-234.2v190m-3-179.2l3-10.8 3 10.8m-6 168.4l3 10.8 3-10.8"/><text fill="#6E008B" font-family="ZillaSlabRegular, Zilla Slab" font-size="14" transform="translate(-2 -4)"><tspan x="617.046" y="296">50px</tspan></text><path stroke="#FF4F5E" stroke-linecap="square" stroke-width="2" d="M249.5 335h325m-314.2 3l-10.8-3 10.8-3m303.4 6l10.8-3-10.8-3"/></g></svg>
