<svg xmlns="http://www.w3.org/2000/svg" viewBox="-10 0 1000 453" xmlns:xlink="http://www.w3.org/1999/xlink"><defs><path id="a" d="M0 0h460v305H0z"/></defs><g fill="none" fill-rule="evenodd"><g transform="translate(135 8)"><use fill="none" xlink:href="#a"/><path stroke="#000" stroke-width="5" d="M-2.5-2.5h465v310h-465z"/></g><path stroke="#000" stroke-width="5" d="M135 60.5h460m-460 200h460M262.5 8v305" stroke-linecap="square"/><text fill="#000" font-family="ZillaSlabRegular, Zilla Slab" font-size="18" font-weight="400" transform="translate(600 -4)"><tspan x="80" y="18">1 / -4 / first / header-start</tspan></text><text fill="#000" font-family="ZillaSlabRegular, Zilla Slab" font-size="18" font-weight="400" transform="translate(600 -4)"><tspan x="80" y="74">2 / -3 / content-start</tspan></text><text fill="#000" font-family="ZillaSlabRegular, Zilla Slab" font-size="18" font-weight="400" transform="translate(600 -4)"><tspan x="79" y="327">4 / -1 / last</tspan></text><path stroke="#979797" stroke-width="3" d="M600 5.5h70m-70 55h70m-70 255h70"/><text fill="#000" font-family="ZillaSlabRegular, Zilla Slab" font-size="18" font-weight="400" transform="translate(600 -4)"><tspan x="79" y="272">3 / -2 / footer-start</tspan></text><path stroke="#979797" stroke-width="3" d="M600 260.5h70M132.5 318v70m130-70v105m335-105v70"/><text fill="#000" font-family="ZillaSlabRegular, Zilla Slab" font-size="18" font-weight="400" transform="translate(-1 318)"><tspan x="-10" y="99">1 / -3 / first / sidebar-start</tspan></text><text fill="#000" font-family="ZillaSlabRegular, Zilla Slab" font-size="18" font-weight="400" transform="translate(-1 318)"><tspan x="172.044" y="133">2 / -2 / content-start</tspan></text><text fill="#000" font-family="ZillaSlabRegular, Zilla Slab" font-size="18" font-weight="400" transform="translate(-1 318)"><tspan x="548.252" y="99">3 / -1 / last</tspan></text><text fill="#6e008b" font-family="ZillaSlabRegular, Zilla Slab" font-size="14" font-weight="400" transform="translate(-1 -4)"><tspan x="178.956" y="358">150px</tspan></text><path stroke="#ff4f5e" stroke-width="2" d="M137.5 335h120m-109.2 3l-10.8-3 10.8-3m98.4 6l10.8-3-10.8-3M620 10.5v45m-3-34.2l3-10.8 3 10.8m-6 23.4l3 10.8 3-10.8" stroke-linecap="square"/><text fill="#6e008b" font-family="ZillaSlabRegular, Zilla Slab" font-size="14" font-weight="400" transform="translate(-1 -4)"><tspan x="420.52" y="358">1fr</tspan></text><text fill="#6e008b" font-family="ZillaSlabRegular, Zilla Slab" font-size="14" font-weight="400" transform="translate(-1 -4)"><tspan x="634.963" y="41">50px</tspan></text><text fill="#6e008b" font-family="ZillaSlabRegular, Zilla Slab" font-size="14" font-weight="400" transform="translate(-1 -4)"><tspan x="632.52" y="170">1fr</tspan></text><path stroke="#ff4f5e" stroke-width="2" d="M620 265.5v45m-3-34.2l3-10.8 3 10.8m-6 23.4l3 10.8 3-10.8m-3-234.2v190m-3-179.2l3-10.8 3 10.8m-6 168.4l3 10.8 3-10.8" stroke-linecap="square"/><text fill="#6e008b" font-family="ZillaSlabRegular, Zilla Slab" font-size="14" font-weight="400" transform="translate(-1 -4)"><tspan x="634.963" y="296">50px</tspan></text><path stroke="#ff4f5e" stroke-width="2" d="M267.5 335h325m-314.2 3l-10.8-3 10.8-3m303.4 6l10.8-3-10.8-3" stroke-linecap="square"/></g></svg>
