<svg xmlns="http://www.w3.org/2000/svg" viewBox="0 0 101 77"><g fill="none" fill-rule="evenodd" transform="translate(1 1)"><path fill="#FFF" d="M98.177 15.996v57c0 1.1-.9 2-2 2h-94c-1.1 0-2-.9-2-2v-70c0-1.1.9-2 2-2h94c1.1 0 2 .9 2 2v13z"/><path fill="#CFD8DC" fill-rule="nonzero" d="M98.177 2.996v13h-98v-13c0-1.1.9-2 2-2h94c1.1 0 2 .9 2 2zm-73 5c0-1.1-.9-2-2-2s-2 .9-2 2 .9 2 2 2 2-.9 2-2zm-8 0c0-1.1-.9-2-2-2s-2 .9-2 2 .9 2 2 2 2-.9 2-2zm-8 0c0-1.1-.9-2-2-2s-2 .9-2 2 .9 2 2 2 2-.9 2-2z"/><path fill="#03A9F4" fill-rule="nonzero" d="M61.177 55.996c1.1 0 2 .9 2 2 0 .6-.2 1.1-.6 1.4-.3.4-.8.6-1.4.6h-16c-1.1 0-2-.9-2-2 0-.6.2-1.1.6-1.4.4-.4.9-.6 1.4-.6h16zm-21.7-9.6c.5.4.7 1 .7 1.6 0 .6-.2 1.2-.7 1.6 0 0-8.4 8.9-9.3 9.7-.9.9-2.4.9-3.3 0-.9-.9-1-2.1 0-3.2l7.7-8.1-7.7-8.1c-1-1.1-.9-2.4 0-3.3.9-.9 2.5-.8 3.3 0 .9.9 9.3 9.8 9.3 9.8z"/><circle cx="23.177" cy="7.996" r="2" fill="#009688" fill-rule="nonzero"/><circle cx="15.177" cy="7.996" r="2" fill="#03A9F4" fill-rule="nonzero"/><circle cx="7.177" cy="7.996" r="2" fill="#EF5350" fill-rule="nonzero"/><path stroke="#263238" stroke-width="2" d="M98.177 15.996v57c0 1.1-.9 2-2 2h-94c-1.1 0-2-.9-2-2v-70c0-1.1.9-2 2-2h94c1.1 0 2 .9 2 2v13zm-98 0h98-98z"/><circle cx="7.177" cy="7.996" r="2" stroke="#263238" stroke-width="2"/><circle cx="15.177" cy="7.996" r="2" stroke="#263238" stroke-width="2"/><circle cx="23.177" cy="7.996" r="2" stroke="#263238" stroke-width="2"/><path stroke="#263238" stroke-width="2" d="M30.177 36.696c.9.8 9.3 9.7 9.3 9.7.5.4.7 1 .7 1.6 0 .6-.2 1.2-.7 1.6 0 0-8.4 8.9-9.3 9.7-.9.9-2.4.9-3.3 0-.9-.9-1-2.1 0-3.2l7.7-8.1-7.7-8.1c-1-1.1-.9-2.4 0-3.3.9-.8 2.5-.8 3.3.1zm31 23.3h-16c-1.1 0-2-.9-2-2 0-.6.2-1.1.6-1.4.4-.4.9-.6 1.4-.6h16c1.1 0 2 .9 2 2 0 .6-.2 1.1-.6 1.4-.3.4-.8.6-1.4.6z"/></g></svg>
