<?xml version="1.0" encoding="UTF-8"?>
<!-- Generator: Adobe Illustrator 19.2.1, SVG Export Plug-In . SVG Version: 6.00 Build 0)  -->
<svg version="1.1" xmlns="http://www.w3.org/2000/svg" xmlns:xlink="http://www.w3.org/1999/xlink" x="0px" y="0px" viewBox="0 0 128 128" style="enable-background:new 0 0 128 128;" xml:space="preserve">
<style type="text/css">
	.st0{fill:none;stroke:#263238;stroke-width:2;stroke-miterlimit:10;}
	.st1{fill:#EF5350;stroke:#263238;stroke-width:2;stroke-miterlimit:10;}
	.st2{fill:#009688;stroke:#263238;stroke-width:2;stroke-miterlimit:10;}
	.st3{fill:#03A9F4;stroke:#263238;stroke-width:2;stroke-miterlimit:10;}
	.st4{fill:#CFD8DC;stroke:#263238;stroke-width:2;stroke-miterlimit:10;}
	.st5{display:none;}
	.st6{display:inline;}
	.st7{display:inline;fill:none;stroke:#263238;stroke-width:2;stroke-miterlimit:10;}
	.st8{fill:#009688;}
	.st9{fill:#03A9F4;}
	.st10{fill:#EF5350;}
	.st11{fill:#CFD8DC;}
	.st12{fill-rule:evenodd;clip-rule:evenodd;fill:none;stroke:#263238;stroke-width:2;stroke-miterlimit:10;}
	.st13{fill:#37474F;}
	
		.st14{display:inline;fill:none;stroke:#263238;stroke-width:2;stroke-linecap:round;stroke-miterlimit:10;stroke-dasharray:1.9328,3.8656;}
	.st15{fill:#263238;}
	.st16{display:inline;fill:#263238;}
	.st17{display:inline;fill:#FFFFFF;stroke:#000000;stroke-width:2;stroke-miterlimit:10;}
	.st18{display:inline;fill-rule:evenodd;clip-rule:evenodd;fill:none;stroke:#263238;stroke-width:2;stroke-miterlimit:10;}
	.st19{fill:#58595B;}
	.st20{fill:url(#SVGID_1_);}
	.st21{fill:url(#SVGID_2_);}
	.st22{fill:url(#SVGID_3_);}
	.st23{fill:none;stroke:#4A4A4C;stroke-width:0.5;}
	.st24{opacity:0.23;fill:#231F20;enable-background:new    ;}
	.st25{fill:none;stroke:#A8ABAD;stroke-width:0.5;}
	.st26{fill:none;stroke:#37474F;stroke-width:0.5;}
	.st27{fill:#6D6E70;}
	.st28{fill:#FFFFFF;}
	.st29{display:inline;fill:none;stroke:#000000;stroke-width:2;stroke-linecap:round;stroke-linejoin:round;}
	.st30{fill:none;stroke:#000000;stroke-width:2;stroke-linecap:round;stroke-linejoin:round;}
	.st31{display:inline;fill:none;}
	.st32{fill:none;}
	.st33{display:inline;fill-rule:evenodd;clip-rule:evenodd;fill:#263238;}
</style>
<g id="command_line_interface">
	<g id="raw_11_" class="st5">
		<path class="st7" d="M111,101H17c-1.1,0-2-0.9-2-2V29c0-1.1,0.9-2,2-2h94c1.1,0,2,0.9,2,2v70C113,100.1,112.1,101,111,101z"/>
		<line class="st7" x1="15" y1="42" x2="113" y2="42"/>
		<circle class="st7" cx="22" cy="34" r="2"/>
		<circle class="st7" cx="30" cy="34" r="2"/>
		<circle class="st7" cx="38" cy="34" r="2"/>
		<path class="st7" d="M45,62.7c0.9,0.8,9.3,9.7,9.3,9.7c0.5,0.5,0.7,1,0.7,1.6s-0.2,1.2-0.7,1.6c0,0-8.4,8.9-9.3,9.7    c-0.9,0.8-2.4,0.9-3.3,0c-0.9-0.9-1-2.2,0-3.3l7.7-8.1l-7.7-8.1c-1-1.1-0.9-2.4,0-3.3C42.6,61.8,44.2,61.8,45,62.7z"/>
		<path class="st7" d="M76,86H60c-1.1,0-2-0.9-2-2l0,0c0-1.1,0.9-2,2-2h16c1.1,0,2,0.9,2,2l0,0C78,85.1,77.1,86,76,86z"/>
	</g>
	<g id="Live_Paint_1_">
		<g id="XMLID_12_">
			<g>
				<path class="st11" d="M113,29v13H15V29c0-1.1,0.9-2,2-2h94C112.1,27,113,27.9,113,29z M40,34c0-1.1-0.9-2-2-2s-2,0.9-2,2      s0.9,2,2,2S40,35.1,40,34z M32,34c0-1.1-0.9-2-2-2s-2,0.9-2,2s0.9,2,2,2S32,35.1,32,34z M24,34c0-1.1-0.9-2-2-2s-2,0.9-2,2      s0.9,2,2,2S24,35.1,24,34z"/>
				<path class="st9" d="M76,82c1.1,0,2,0.9,2,2c0,0.6-0.2,1.1-0.6,1.4C77.1,85.8,76.6,86,76,86H60c-1.1,0-2-0.9-2-2      c0-0.6,0.2-1.1,0.6-1.4C59,82.2,59.5,82,60,82H76z"/>
				<path class="st9" d="M54.3,72.4c0.5,0.4,0.7,1,0.7,1.6s-0.2,1.2-0.7,1.6c0,0-8.4,8.9-9.3,9.7c-0.9,0.9-2.4,0.9-3.3,0      c-0.9-0.9-1-2.1,0-3.2l7.7-8.1l-7.7-8.1c-1-1.1-0.9-2.4,0-3.3c0.9-0.9,2.5-0.8,3.3,0C45.9,63.5,54.3,72.4,54.3,72.4z"/>
				<circle class="st8" cx="38" cy="34" r="2"/>
				<circle class="st9" cx="30" cy="34" r="2"/>
				<circle class="st10" cx="22" cy="34" r="2"/>
			</g>
			<g>
				<path class="st0" d="M113,42v57c0,1.1-0.9,2-2,2H17c-1.1,0-2-0.9-2-2V42V29c0-1.1,0.9-2,2-2h94c1.1,0,2,0.9,2,2V42z"/>
				<line class="st0" x1="15" y1="42" x2="113" y2="42"/>
				<circle class="st0" cx="22" cy="34" r="2"/>
				<circle class="st0" cx="30" cy="34" r="2"/>
				<circle class="st0" cx="38" cy="34" r="2"/>
				<path class="st0" d="M45,62.7c0.9,0.8,9.3,9.7,9.3,9.7c0.5,0.4,0.7,1,0.7,1.6s-0.2,1.2-0.7,1.6c0,0-8.4,8.9-9.3,9.7      c-0.9,0.9-2.4,0.9-3.3,0c-0.9-0.9-1-2.1,0-3.2l7.7-8.1l-7.7-8.1c-1-1.1-0.9-2.4,0-3.3C42.6,61.8,44.2,61.8,45,62.7z"/>
				<path class="st0" d="M76,86H60c-1.1,0-2-0.9-2-2c0-0.6,0.2-1.1,0.6-1.4C59,82.2,59.5,82,60,82h16c1.1,0,2,0.9,2,2      c0,0.6-0.2,1.1-0.6,1.4C77.1,85.8,76.6,86,76,86z"/>
			</g>
		</g>
	</g>
</g>
</svg>