<svg xmlns="http://www.w3.org/2000/svg" viewBox="0 0 101 143"><g fill="none" fill-rule="evenodd"><path fill="#1673B6" d="M9.353 131.094L.186 28.244H100.91l-9.176 102.833-41.247 11.44-41.134-11.423z"/><path fill="#35A9DB" d="M50.548 133.774l33.33-9.245 7.842-87.877H50.548v97.12z"/><path fill="#FFF" d="M50.548 73.915h16.686l1.153-12.917h-17.84V48.383h31.62l-.302 3.385-3.1 34.76H50.55V73.916z"/><path fill="#EBEBEB" d="M50.624 106.675l-.055.016-14.045-3.793-.897-10.06H22.97l1.767 19.806 25.828 7.173.06-.016v-13.125z"/><path fill="#FFF" d="M66.162 85.995l-1.518 16.894-14.063 3.796v13.124l25.85-7.167.19-2.13 2.194-24.518H66.162z"/><path fill="#EBEBEB" d="M50.592 48.384v12.614h-30.46l-.25-2.836-.575-6.394-.302-3.384h31.587zm-.044 25.533V86.53H36.682l-.252-2.834-.575-6.395-.3-3.383h14.993z"/><path fill="#151515" d="M79.117 5.55h-8.36l8.694 9.438v4.492H61.544v-5.26h8.693l-8.693-9.438V.284h17.574V5.55zm-21.123 0h-8.36l8.694 9.438v4.492H40.42v-5.26h8.694L40.42 4.782V.284h17.574V5.55zm-20.916.214h-9.02V14h9.02v5.48H21.646V.283h15.432v5.48z"/></g></svg>
