<svg xmlns="http://www.w3.org/2000/svg" viewBox="0 0 101 143"><g fill="none" fill-rule="evenodd"><path fill="#E45126" d="M9.167 131.086L0 28.236h100.724L91.548 131.07 50.3 142.51 9.167 131.085z"/><path fill="#F36619" d="M50.362 133.765l33.33-9.244 7.842-87.874H50.362v97.12z"/><path fill="#FFF" d="M50.318 74.79v12.614h15.528l-1.464 16.36-14.064 3.797v13.126l25.85-7.168.19-2.13 2.963-33.21.31-3.387H50.318zm0-25.53v12.614h30.458l.253-2.836.573-6.395.3-3.384H50.32z"/><path fill="#EBEBEB" d="M50.362 74.79H33.676l-1.152-12.917h17.838V49.258h-31.62l.303 3.385 3.1 34.76H50.36v-12.61zm0 32.76l-.055.016-14.044-3.794-.898-10.06H22.707l1.767 19.806 25.83 7.174.058-.017V107.55z"/><path fill="#020202" d="M9.37.284h6.41v6.333h5.86V.284h6.41v19.18h-6.41V13.04h-5.86v6.423H9.372V.283zm27.107 6.36h-5.642V.284h17.693v6.36h-5.643v12.82h-6.408V6.644zm14.86-6.36h6.682l4.11 6.74 4.104-6.74h6.684v19.18h-6.382V9.956l-4.41 6.82h-.11l-4.41-6.82v9.506h-6.272V.282zm24.772 0h6.41v12.84h9.01v6.34H76.11V.284z"/></g></svg>
