<svg xmlns="http://www.w3.org/2000/svg" viewBox="0 0 560 690" xmlns:xlink="http://www.w3.org/1999/xlink"><defs><path id="a" d="M0 0h550v680H0z"/><mask id="b" width="560" height="690" x="-5" y="-5"><path fill="#fff" d="M-5-5h560v690H-5z"/><use xlink:href="#a"/></mask></defs><g fill="none" fill-rule="evenodd"><path fill="#00ffff" fill-opacity=".75" d="M5 5h180v100H5z"/><path fill="#fff44f" fill-opacity=".75" d="M190 5h365v150H190z"/><path fill="#54ffbd" fill-opacity=".75" d="M5 160h550v455H5z"/><path fill="#6e008b" fill-opacity=".75" d="M190 685h365v-65H190z"/><path fill="#ff4f5e" fill-opacity=".75" d="M5 110h180v45H5z"/><text fill="#000" font-family="ZillaSlabRegular, Zilla Slab" font-size="36" font-weight="400" transform="translate(5 5)"><tspan x="46" y="59">Logo</tspan></text><text fill="#000" font-family="ZillaSlabRegular, Zilla Slab" font-size="36" font-weight="400" transform="translate(5 5)"><tspan x="323" y="84">Stats</tspan></text><text fill="#fff" font-family="ZillaSlabRegular, Zilla Slab" font-size="36" font-weight="400" transform="translate(5 5)"><tspan x="41" y="140">Score</tspan></text><text fill="#000" font-family="ZillaSlabRegular, Zilla Slab" font-size="36" font-weight="400" transform="translate(5 5)"><tspan x="222" y="392">Board</tspan></text><text fill="#fff" font-family="ZillaSlabRegular, Zilla Slab" font-size="36" font-weight="400" transform="translate(5 5)"><tspan x="291" y="657">Controls</tspan></text><g stroke="#000" transform="translate(5 5)"><use stroke-width="10" mask="url(#b)" stroke-dasharray="10" xlink:href="#a"/><path stroke-width="5" d="M182.5 0v680M0 102.5h550m-550 50h550M0 612.5h550" stroke-linecap="square" stroke-dasharray="5 10"/></g></g></svg>
