<svg xmlns="http://www.w3.org/2000/svg" viewBox="0 0 1291 465"><g fill="none" fill-rule="evenodd"><path fill="#FFF" stroke="#1D877A" stroke-linecap="square" stroke-width="6" d="M541.73 320.531c.412-.44-59.884-55.499-112.378-110.54-52.388-54.932-101.778-102.496-110.36-110.434-8.582-7.938-307.102-1.374-308.588 0-.72.666 210.058 220.974 210.717 220.974 1.277 0 319.787.879 320.61 0z"/><path stroke="#000" stroke-linecap="round" stroke-width="5" d="M314.791 347.25c5.063 1.837 8.16 4.644 9.295 8.42 1.134 3.776 1.134 9.368 0 16.777M255.951 378.48c-3.574 2.252-5.873 4.372-6.894 6.36-1.022 1.988-1.351 5.306-.987 9.955l-7.646 2.822M270.697 378.48c3.575 2.252 5.873 4.372 6.895 6.36 1.021 1.988 1.35 5.306.987 9.955l7.646 2.822"/><path stroke="#000" stroke-linecap="round" stroke-width="16" d="M419.953 246.157c19.885-.206 34.668-5.2 44.351-14.982s15.655-30.018 17.914-60.707M360.658 379.635c15.903 10.838 26.075 22.49 30.516 34.957 4.44 12.468 6.371 26.533 5.793 42.196h31.39M187.326 333.276c3.254 13.597 3.013 26.743-.722 39.44-3.736 12.696-12.047 24.135-24.933 34.317l10.385 27.467"/><path stroke="#1D877A" stroke-linecap="square" stroke-width="6" d="M314.313 180.385h-220"/><path fill="#EEE" stroke="#1D877A" stroke-linecap="square" stroke-width="6" d="M320.89 100.219c-4.088 2.096-6.12 28.593-6.099 79.49 84.137 83.505 129.8 129.482 136.99 137.93 4.875 0 90.05 6.982 90.05 3.199 0-3.783-214.807-223.764-220.94-220.62z"/><path fill="#FFF" stroke="#1D877A" stroke-linecap="square" stroke-width="3" d="M278.723 132.994c.823-.879-6.16-19.6-10.14-20.974-3.978-1.374-141.65-1.374-143.136 0-.72.666 2.684 5.223 5.507 10.143 3.003 5.235 4.551 10.83 5.21 10.83 1.277 0 141.737.88 142.56 0z"/><path stroke="#000" stroke-linecap="round" stroke-width="5" d="M281.613 166.968c5.062-1.838 8.16-4.644 9.295-8.42 1.134-3.776 1.134-9.369 0-16.778M197.994 193.943c-3.575 2.252-5.873 4.371-6.894 6.36-1.022 1.988-1.351 5.306-.987 9.955l-7.646 2.822M212.74 193.943c3.575 2.252 5.873 4.371 6.895 6.36 1.021 1.988 1.35 5.306.987 9.955l7.646 2.822"/><path fill="#FFF" stroke="#1D877A" stroke-width="3" d="M278.768 198.457c.355-.38.884-4.599 1.127-10.77.236-5.97.276-13.896.14-22.648-.122-7.87-.382-15.969-.707-22.294-.159-3.077-.327-5.618-.492-7.424a38.57 38.57 0 0 0-.222-1.982c-.24.026-.605-.018-.696-.024a150.856 150.856 0 0 0-4.648-.214c-3.905-.134-9.473-.258-16.376-.366-13.424-.21-31.297-.353-49.313-.394-18.875-.043-36.455.028-49.434.21-7.007.1-12.591.23-16.52.39-2.044.083-3.63.174-4.729.271-.521.046-1.276.176-1-.104.167-.168.1.029.043.295-.107.507-.219 1.23-.33 2.15-.223 1.83-.44 4.385-.64 7.485-.4 6.237-.698 14.297-.819 22.245-.13 8.614-.046 16.52.267 22.476.322 6.113.965 10.25 1.39 10.613.487.417 9.63 1.106 22.908 1.515 13.145.405 30.66.624 48.847.624s35.662-.22 48.731-.624c6.893-.214 12.454-.475 16.412-.778 2.042-.156 3.645-.322 4.774-.494.812-.125 1.407-.287 1.287-.158z"/><path stroke="#000" stroke-linecap="round" stroke-width="4" d="M195.834 176.908c4.818 3.098 8.513 4.647 11.085 4.647 2.572 0 6.267-1.55 11.085-4.647M193.994 159.86v4.5M219.504 159.86v4.5"/><path fill="#FFF" stroke="#1D877A" stroke-linecap="square" stroke-width="3" d="M124.873 112.192c-1.456.626-1.456 23.735 0 69.327 6.395 11.86 9.918 17.316 10.568 16.367.976-1.424 0-12.136 0-30.174 0-12.025.315-23.541.944-34.549-6.218-14.607-10.056-21.597-11.512-20.971z"/><path stroke="#1D877A" stroke-linecap="square" stroke-width="3" d="M131.838 121.45h141.14"/><path stroke="#000" stroke-linecap="round" stroke-width="5" d="M128.083 163.86c-5.509-2.049-9.49-4.725-11.944-8.03-2.453-3.305-3.98-8.54-4.582-15.705"/><g><path fill="#FFF" stroke="#1D877A" stroke-linecap="square" stroke-width="3" d="M325.68 188.531c.823-.879-6.16-19.6-10.14-20.974-3.978-1.374-141.65-1.374-143.136 0-.72.666 2.684 5.223 5.507 10.143 3.003 5.235 4.551 10.831 5.21 10.831 1.277 0 141.737.879 142.56 0z"/><path stroke="#000" stroke-linecap="round" stroke-width="5" d="M328.57 222.505c5.062-1.837 8.16-4.644 9.295-8.42 1.134-3.776 1.134-9.369 0-16.777M244.951 249.48c-3.574 2.252-5.873 4.372-6.894 6.36-1.022 1.988-1.351 5.306-.987 9.955l-7.646 2.822M259.697 249.48c3.575 2.252 5.873 4.372 6.895 6.36 1.021 1.988 1.35 5.306.987 9.955l7.646 2.822"/><path fill="#FFF" stroke="#1D877A" stroke-width="3" d="M325.725 253.994c.355-.38.884-4.598 1.128-10.77.235-5.969.275-13.896.14-22.648-.122-7.87-.383-15.968-.708-22.294-.159-3.076-.327-5.618-.492-7.424a38.57 38.57 0 0 0-.222-1.982c-.24.026-.605-.018-.696-.024a150.856 150.856 0 0 0-4.648-.214c-3.904-.134-9.473-.258-16.376-.366-13.424-.21-31.297-.353-49.313-.394-18.875-.043-36.455.028-49.434.21-7.007.1-12.59.23-16.52.39-2.044.083-3.63.174-4.729.271-.521.046-1.276.176-1-.104.168-.168.1.029.044.295-.108.507-.22 1.231-.331 2.15-.223 1.83-.44 4.385-.64 7.485-.399 6.237-.698 14.297-.819 22.245-.13 8.614-.046 16.52.267 22.477.322 6.112.966 10.249 1.39 10.612.487.417 9.63 1.106 22.908 1.515 13.145.405 30.66.624 48.847.624s35.662-.22 48.731-.624c6.893-.214 12.454-.475 16.412-.777 2.042-.156 3.645-.322 4.774-.495.812-.125 1.407-.286 1.287-.158z"/><path stroke="#000" stroke-linecap="round" stroke-width="4" d="M242.791 232.445c4.818 3.098 8.513 4.647 11.085 4.647 2.572 0 6.267-1.549 11.085-4.647M240.951 215.396v4.5M266.46 215.396v4.5"/><path fill="#FFF" stroke="#1D877A" stroke-linecap="square" stroke-width="3" d="M171.83 167.729c-1.456.626-1.456 23.736 0 69.328 6.395 11.86 9.918 17.316 10.568 16.366.977-1.423 0-12.136 0-30.174 0-12.025.315-23.541.944-34.548-6.218-14.608-10.056-21.598-11.512-20.972z"/><path stroke="#1D877A" stroke-linecap="square" stroke-width="3" d="M178.795 176.987h141.14"/><path stroke="#000" stroke-linecap="round" stroke-width="5" d="M175.04 219.396c-5.509-2.048-9.49-4.724-11.944-8.029-2.453-3.304-3.98-8.54-4.582-15.705"/></g><g><path fill="#FFF" stroke="#1D877A" stroke-linecap="square" stroke-width="3" d="M370.68 240.531c.823-.879-6.16-19.6-10.14-20.974-3.978-1.374-141.65-1.374-143.136 0-.72.666 2.684 5.223 5.507 10.143 3.003 5.235 4.551 10.831 5.21 10.831 1.277 0 141.737.879 142.56 0z"/><path stroke="#000" stroke-linecap="round" stroke-width="5" d="M373.57 274.505c5.062-1.837 8.16-4.644 9.295-8.42 1.134-3.776 1.134-9.369 0-16.777M289.951 301.48c-3.574 2.252-5.873 4.372-6.894 6.36-1.022 1.988-1.351 5.306-.987 9.955l-7.646 2.822M304.697 301.48c3.575 2.252 5.873 4.372 6.895 6.36 1.021 1.988 1.35 5.306.987 9.955l7.646 2.822"/><path fill="#FFF" stroke="#1D877A" stroke-width="3" d="M370.725 305.994c.355-.38.884-4.598 1.128-10.77.235-5.969.275-13.896.14-22.648-.122-7.87-.383-15.968-.708-22.294-.159-3.076-.327-5.618-.492-7.424a38.57 38.57 0 0 0-.222-1.982c-.24.026-.605-.018-.696-.024a150.856 150.856 0 0 0-4.648-.214c-3.904-.134-9.473-.258-16.376-.366-13.424-.21-31.297-.353-49.313-.394-18.875-.043-36.455.028-49.434.21-7.007.1-12.59.23-16.52.39-2.044.083-3.63.174-4.729.271-.521.046-1.276.176-1-.104.168-.168.1.029.044.295-.108.507-.22 1.231-.331 2.15-.223 1.83-.44 4.385-.64 7.485-.399 6.237-.698 14.297-.819 22.245-.13 8.614-.046 16.52.267 22.477.322 6.112.966 10.249 1.39 10.612.487.417 9.63 1.106 22.908 1.515 13.145.405 30.66.624 48.847.624s35.662-.22 48.731-.624c6.893-.214 12.454-.475 16.412-.777 2.042-.156 3.645-.322 4.774-.495.812-.125 1.407-.286 1.287-.158z"/><path stroke="#000" stroke-linecap="round" stroke-width="4" d="M287.791 284.445c4.818 3.098 8.513 4.647 11.085 4.647 2.572 0 6.267-1.549 11.085-4.647M285.951 267.396v4.5M311.46 267.396v4.5"/><path fill="#FFF" stroke="#1D877A" stroke-linecap="square" stroke-width="3" d="M216.83 219.729c-1.456.626-1.456 23.736 0 69.328 6.395 11.86 9.918 17.316 10.568 16.366.977-1.423 0-12.136 0-30.174 0-12.025.315-23.541.944-34.548-6.218-14.608-10.056-21.598-11.512-20.972z"/><path stroke="#1D877A" stroke-linecap="square" stroke-width="3" d="M223.795 228.987h141.14"/><path stroke="#000" stroke-linecap="round" stroke-width="5" d="M220.04 271.396c-5.509-2.048-9.49-4.724-11.944-8.029-2.453-3.304-3.98-8.54-4.582-15.705"/></g><g><path fill="#FFF" stroke="#1D877A" stroke-linecap="square" stroke-width="3" d="M423.68 293.531c.823-.879-6.16-19.6-10.14-20.974-3.978-1.374-141.65-1.374-143.136 0-.72.666 2.684 5.223 5.507 10.143 3.003 5.235 4.551 10.831 5.21 10.831 1.277 0 141.737.879 142.56 0z"/><path stroke="#000" stroke-linecap="round" stroke-width="5" d="M426.57 327.505c5.062-1.837 8.16-4.644 9.295-8.42 1.134-3.776 1.134-9.369 0-16.777M342.951 354.48c-3.574 2.252-5.873 4.372-6.894 6.36-1.022 1.988-1.351 5.306-.987 9.955l-7.646 2.822M357.697 354.48c3.575 2.252 5.873 4.372 6.895 6.36 1.021 1.988 1.35 5.306.987 9.955l7.646 2.822"/><path fill="#FFF" stroke="#1D877A" stroke-width="3" d="M423.725 358.994c.355-.38.884-4.598 1.128-10.77.235-5.969.275-13.896.14-22.648-.122-7.87-.383-15.968-.708-22.294-.159-3.076-.327-5.618-.492-7.424a38.57 38.57 0 0 0-.222-1.982c-.24.026-.605-.018-.696-.024a150.856 150.856 0 0 0-4.648-.214c-3.904-.134-9.473-.258-16.376-.366-13.424-.21-31.297-.353-49.313-.394-18.875-.043-36.455.028-49.434.21-7.007.1-12.59.23-16.52.39-2.044.083-3.63.174-4.729.271-.521.046-1.276.176-1-.104.168-.168.1.029.044.295-.108.507-.22 1.231-.331 2.15-.223 1.83-.44 4.385-.64 7.485-.399 6.237-.698 14.297-.819 22.245-.13 8.614-.046 16.52.267 22.477.322 6.112.966 10.249 1.39 10.612.487.417 9.63 1.106 22.908 1.515 13.145.405 30.66.624 48.847.624s35.662-.22 48.731-.624c6.893-.214 12.454-.475 16.412-.777 2.042-.156 3.645-.322 4.774-.495.812-.125 1.407-.286 1.287-.158z"/><path stroke="#000" stroke-linecap="round" stroke-width="4" d="M340.791 337.445c4.818 3.098 8.513 4.647 11.085 4.647 2.572 0 6.267-1.549 11.085-4.647M338.951 320.396v4.5M364.46 320.396v4.5"/><path fill="#FFF" stroke="#1D877A" stroke-linecap="square" stroke-width="3" d="M269.83 272.729c-1.456.626-1.456 23.736 0 69.328 6.395 11.86 9.918 17.316 10.568 16.366.977-1.423 0-12.136 0-30.174 0-12.025.315-23.541.944-34.548-6.218-14.608-10.056-21.598-11.512-20.972z"/><path stroke="#1D877A" stroke-linecap="square" stroke-width="3" d="M276.795 281.987h141.14"/><path stroke="#000" stroke-linecap="round" stroke-width="5" d="M273.04 324.396c-5.509-2.048-9.49-4.724-11.944-8.029-2.453-3.304-3.98-8.54-4.582-15.705"/></g><path fill="#FFF" stroke="#1D877A" stroke-width="6" d="M225.45 322.457c-.816.832-1.822 7.647-2.185 17.604-.36 9.926-.19 22.876.448 36.335.629 13.252 1.667 26.05 2.912 35.677.643 4.978 1.329 9.01 2.023 11.87.341 1.404.677 2.494.987 3.225.145.343.212.44-.171.237-.15-.08 1.38.135 3.351.299 2.484.206 5.99.414 10.44.621 8.687.405 20.866.8 35.697 1.161 29.707.724 68.233 1.273 106.038 1.499 41.064.245 78.458.1 106.168-.465 15.134-.309 27.224-.738 35.828-1.287 4.471-.286 7.976-.602 10.451-.946 1.862-.258 3.198-.6 2.97-.377 2.42-2.366 4.525-25.806 4.525-52.75 0-26.916-2.107-50.335-4.507-52.642.22.212-1.152-.142-3.053-.417-2.513-.363-6.069-.71-10.598-1.036-8.766-.632-21.072-1.178-36.325-1.624-28.905-.845-67.537-1.303-107.694-1.303s-78.762.458-107.618 1.303c-15.226.446-27.5.992-36.23 1.624-4.508.326-8.043.673-10.533 1.036-1.831.267-3.183.62-2.924.356zm0 0z"/><path stroke="#000" stroke-linecap="round" stroke-width="10" d="M371.777 404.118c3.554 3.795 9.576 5.692 18.067 5.692 8.49 0 15.035-1.897 19.633-5.692"/><path stroke="#000" stroke-linecap="round" stroke-width="12" d="M356.504 356.447v16M418.953 356.447v16"/><path fill="#FFF" stroke="#1D877A" stroke-linecap="square" stroke-width="6" d="M10.08 100.219c-4.088 2.096-6.122 28.593-6.1 79.49C151.505 347.79 226.33 430.19 228.455 426.906c3.188-4.926-2.855-102.346-5.832-106.217-2.977-3.87-206.41-223.615-212.543-220.47z"/><path stroke="#000" stroke-linecap="round" stroke-width="16" d="M134.539 255.626c-19.885-.206-34.669-5.2-44.352-14.982s-15.654-30.018-17.914-60.707"/><g><path fill="#FFF" stroke="#1D877A" stroke-linecap="square" stroke-width="6" d="M1214.78 265.031c.411-.44-47.59-44.984-74.84-72.219-27.25-27.234-59.317-60.817-67.899-68.755-8.582-7.938-477.102-1.374-478.588 0-.72.666 130.058 140.974 130.716 140.974 1.278 0 489.788.879 490.61 0z"/><path stroke="#000" stroke-linecap="round" stroke-width="5" d="M817.84 291.75c5.062 1.837 8.16 4.644 9.295 8.42 1.134 3.776 1.134 9.368 0 16.777M759 322.98c-3.575 2.252-5.873 4.372-6.895 6.36-1.021 1.988-1.35 5.306-.986 9.955l-7.646 2.822M773.746 322.98c3.575 2.252 5.873 4.372 6.895 6.36 1.021 1.988 1.35 5.306.986 9.955l7.646 2.822"/><path stroke="#000" stroke-linecap="round" stroke-width="16" d="M1138 230.689c19.885-.206 34.669-5.2 44.352-14.982 9.682-9.782 15.654-30.018 17.914-60.707M993 344c15.903 10.837 26.075 22.49 30.516 34.957 4.44 12.468 6.371 26.533 5.793 42.195h31.39M912.205 332.563c-7.847 10.335-13.64 21.851-17.375 34.548-3.736 12.696-3.736 27.62 0 44.773l-26.594 12.61"/><path stroke="#1D877A" stroke-linecap="square" stroke-width="6" d="M1066.361 206.885h-390"/><path fill="#EEE" stroke="#1D877A" stroke-linecap="square" stroke-width="6" d="M1071.834 124.527c-4.089 2.097-6.7 29.769-7.834 83.017 30.803 28.171 49.8 46.481 56.99 54.93 4.875 0 90.05 6.982 90.05 3.198 0-3.783-133.073-144.29-139.206-141.145z"/><path stroke="#000" stroke-linecap="round" stroke-width="5" d="M1019.525 205.734c-5.508-2.048-9.49-4.724-11.943-8.029-2.454-3.305-3.981-8.54-4.582-15.705"/><path fill="#FFF" stroke="#1D877A" stroke-linecap="square" stroke-width="3" d="M1134.729 235.031c.823-.879-56.161-69.6-60.14-70.974-3.978-1.374-61.65-1.374-63.136 0-.72.666 28.449 30.45 32.147 35.167 8.076 10.301 27.911 35.807 28.57 35.807 1.277 0 61.736.879 62.559 0z"/><path stroke="#1D877A" stroke-linecap="square" stroke-width="3" d="M1045.5 163.5l59 70"/><path stroke="#000" stroke-linecap="round" stroke-width="5" d="M1045.527 262c-3.574 2.251-5.872 4.371-6.894 6.36-1.022 1.988-1.35 5.306-.987 9.954l-7.646 2.823M1055.997 281c.089 4.224.722 7.285 1.9 9.185 1.178 1.9 3.853 3.89 8.025 5.973l-1.519 8.008"/><path fill="#FFF" stroke="#1D877A" stroke-width="3" d="M1134.612 235.326a35.326 35.326 0 0 0-1.96-.191c-1.754-.133-4.23-.256-7.281-.364-5.962-.21-13.844-.352-21.789-.393-8.328-.043-16.104.028-21.904.21-3.116.098-5.623.228-7.412.385-.912.08-1.627.167-2.125.258-.242.044-.422.102-.236-.086.166-.168.099.029.042.295-.107.507-.219 1.231-.33 2.15-.223 1.83-.441 4.385-.64 7.485-.4 6.237-.698 14.297-.819 22.245-.13 8.614-.046 16.52.267 22.477.321 6.112.965 10.249 1.39 10.612 1.357 1.162 15.481 2.139 31.755 2.139 7.856 0 15.416-.218 21.173-.621 5.714-.4 9.65-1.047 10.028-1.43.356-.362.886-4.586 1.13-10.772.236-5.97.276-13.897.14-22.649-.122-7.87-.382-15.968-.707-22.294-.159-3.076-.327-5.618-.492-7.424a37.454 37.454 0 0 0-.23-2.032z"/><path fill="#FFF" stroke="#1D877A" stroke-linecap="square" stroke-width="3" d="M1010.879 164.229c-1.456.626-1.456 21.736 0 63.328 39.728 49.193 59.918 73.316 60.568 72.366.976-1.423 0-12.136 0-30.174 0-12.025.315-23.541.944-34.548-39.552-47.941-60.056-71.598-61.512-70.972z"/><path stroke="#000" stroke-linecap="round" stroke-width="4" d="M1034 237c.394 3.196 1.457 5.536 3.19 7.021 1.734 1.486 3.75 1.905 6.052 1.26M1036 215v4.5M1049 231v4.5"/><path stroke="#000" stroke-linecap="round" stroke-width="5" d="M1098 293.197c5.063-1.837 8.16-4.644 9.295-8.42 1.134-3.776 1.134-9.368 0-16.777"/><g><path stroke="#000" stroke-linecap="round" stroke-width="5" d="M805.525 205.734c-5.508-2.048-9.49-4.724-11.943-8.029-2.454-3.305-3.981-8.54-4.582-15.705"/><path fill="#FFF" stroke="#1D877A" stroke-linecap="square" stroke-width="3" d="M920.729 235.031c.823-.879-56.161-69.6-60.14-70.974-3.978-1.374-61.65-1.374-63.136 0-.72.666 28.449 30.45 32.147 35.167 8.076 10.301 27.911 35.807 28.57 35.807 1.277 0 61.736.879 62.559 0z"/><path stroke="#1D877A" stroke-linecap="square" stroke-width="3" d="M831.5 163.5l59 70"/><path stroke="#000" stroke-linecap="round" stroke-width="5" d="M831.527 262c-3.574 2.251-5.872 4.371-6.894 6.36-1.022 1.988-1.35 5.306-.987 9.954L816 281.137M841.997 281c.089 4.224.722 7.285 1.9 9.185 1.178 1.9 3.853 3.89 8.025 5.973l-1.519 8.008"/><path fill="#FFF" stroke="#1D877A" stroke-width="3" d="M920.612 235.326a35.326 35.326 0 0 0-1.96-.191c-1.754-.133-4.23-.256-7.281-.364-5.962-.21-13.844-.352-21.789-.393-8.328-.043-16.104.028-21.904.21-3.116.098-5.623.228-7.412.385-.912.08-1.627.167-2.125.258-.242.044-.422.102-.236-.086.166-.168.099.029.042.295-.107.507-.219 1.231-.33 2.15-.223 1.83-.441 4.385-.64 7.485-.4 6.237-.698 14.297-.819 22.245-.13 8.614-.046 16.52.267 22.477.321 6.112.965 10.249 1.39 10.612 1.357 1.162 15.481 2.139 31.755 2.139 7.856 0 15.416-.218 21.173-.621 5.714-.4 9.65-1.047 10.028-1.43.356-.362.886-4.586 1.13-10.772.236-5.97.276-13.897.14-22.649-.122-7.87-.382-15.968-.707-22.294-.159-3.076-.327-5.618-.492-7.424a37.454 37.454 0 0 0-.23-2.032z"/><path fill="#FFF" stroke="#1D877A" stroke-linecap="square" stroke-width="3" d="M796.879 164.229c-1.456.626-1.456 21.736 0 63.328 39.728 49.193 59.918 73.316 60.568 72.366.976-1.423 0-12.136 0-30.174 0-12.025.315-23.541.944-34.548-39.552-47.941-60.056-71.598-61.512-70.972z"/><path stroke="#000" stroke-linecap="round" stroke-width="4" d="M820 237c.394 3.196 1.457 5.536 3.19 7.021 1.734 1.486 3.75 1.905 6.052 1.26M822 215v4.5M835 231v4.5"/><path stroke="#000" stroke-linecap="round" stroke-width="5" d="M884 293.197c5.063-1.837 8.16-4.644 9.295-8.42 1.134-3.776 1.134-9.368 0-16.777"/></g><g><path stroke="#000" stroke-linecap="round" stroke-width="5" d="M922.525 204.734c-5.508-2.048-9.49-4.724-11.943-8.029-2.454-3.305-3.981-8.54-4.582-15.705"/><path fill="#FFF" stroke="#1D877A" stroke-linecap="square" stroke-width="3" d="M1037.729 234.031c.823-.879-56.161-69.6-60.14-70.974-3.978-1.374-61.65-1.374-63.136 0-.72.666 28.449 30.45 32.147 35.167 8.076 10.301 27.911 35.807 28.57 35.807 1.277 0 61.736.879 62.559 0z"/><path stroke="#1D877A" stroke-linecap="square" stroke-width="3" d="M948.5 162.5l59 70"/><path stroke="#000" stroke-linecap="round" stroke-width="5" d="M948.527 261c-3.574 2.251-5.872 4.371-6.894 6.36-1.022 1.988-1.35 5.306-.987 9.954L933 280.137M958.997 280c.089 4.224.722 7.285 1.9 9.185 1.178 1.9 3.853 3.89 8.025 5.973l-1.519 8.008"/><path fill="#FFF" stroke="#1D877A" stroke-width="3" d="M1037.612 234.326a35.326 35.326 0 0 0-1.96-.191c-1.754-.133-4.23-.256-7.281-.364-5.962-.21-13.844-.352-21.789-.393-8.328-.043-16.104.028-21.904.21-3.116.098-5.623.228-7.412.385-.912.08-1.627.167-2.125.258-.242.044-.422.102-.236-.086.166-.168.099.029.042.295-.107.507-.219 1.231-.33 2.15-.223 1.83-.441 4.385-.64 7.485-.4 6.237-.698 14.297-.819 22.245-.13 8.614-.046 16.52.267 22.477.321 6.112.965 10.249 1.39 10.612 1.357 1.162 15.481 2.139 31.755 2.139 7.856 0 15.416-.218 21.173-.621 5.714-.4 9.65-1.047 10.028-1.43.356-.362.886-4.586 1.13-10.772.236-5.97.276-13.897.14-22.649-.122-7.87-.382-15.968-.707-22.294-.159-3.076-.327-5.618-.492-7.424a37.454 37.454 0 0 0-.23-2.032z"/><path fill="#FFF" stroke="#1D877A" stroke-linecap="square" stroke-width="3" d="M913.879 163.229c-1.456.626-1.456 21.736 0 63.328 39.728 49.193 59.918 73.316 60.568 72.366.976-1.423 0-12.136 0-30.174 0-12.025.315-23.541.944-34.548-39.552-47.941-60.056-71.598-61.512-70.972z"/><path stroke="#000" stroke-linecap="round" stroke-width="4" d="M937 236c.394 3.196 1.457 5.536 3.19 7.021 1.734 1.486 3.75 1.905 6.052 1.26M939 214v4.5M952 230v4.5"/><path stroke="#000" stroke-linecap="round" stroke-width="5" d="M1001 292.197c5.063-1.837 8.16-4.644 9.295-8.42 1.134-3.776 1.134-9.368 0-16.777"/></g><g><path stroke="#000" stroke-linecap="round" stroke-width="5" d="M704.525 205.734c-5.508-2.048-9.49-4.724-11.943-8.029-2.454-3.305-3.981-8.54-4.582-15.705"/><path fill="#FFF" stroke="#1D877A" stroke-linecap="square" stroke-width="3" d="M819.729 235.031c.823-.879-56.161-69.6-60.14-70.974-3.978-1.374-61.65-1.374-63.136 0-.72.666 28.449 30.45 32.147 35.167 8.076 10.301 27.911 35.807 28.57 35.807 1.277 0 61.736.879 62.559 0z"/><path stroke="#1D877A" stroke-linecap="square" stroke-width="3" d="M730.5 163.5l59 70"/><path stroke="#000" stroke-linecap="round" stroke-width="5" d="M730.527 262c-3.574 2.251-5.872 4.371-6.894 6.36-1.022 1.988-1.35 5.306-.987 9.954L715 281.137M740.997 281c.089 4.224.722 7.285 1.9 9.185 1.178 1.9 3.853 3.89 8.025 5.973l-1.519 8.008"/><path fill="#FFF" stroke="#1D877A" stroke-width="3" d="M819.612 235.326a35.326 35.326 0 0 0-1.96-.191c-1.754-.133-4.23-.256-7.281-.364-5.962-.21-13.844-.352-21.789-.393-8.328-.043-16.104.028-21.904.21-3.116.098-5.623.228-7.412.385-.912.08-1.627.167-2.125.258-.242.044-.422.102-.236-.086.166-.168.099.029.042.295-.107.507-.219 1.231-.33 2.15-.223 1.83-.441 4.385-.64 7.485-.4 6.237-.698 14.297-.819 22.245-.13 8.614-.046 16.52.267 22.477.321 6.112.965 10.249 1.39 10.612 1.357 1.162 15.481 2.139 31.755 2.139 7.856 0 15.416-.218 21.173-.621 5.714-.4 9.65-1.047 10.028-1.43.356-.362.886-4.586 1.13-10.772.236-5.97.276-13.897.14-22.649-.122-7.87-.382-15.968-.707-22.294-.159-3.076-.327-5.618-.492-7.424a37.454 37.454 0 0 0-.23-2.032z"/><path fill="#FFF" stroke="#1D877A" stroke-linecap="square" stroke-width="3" d="M695.879 164.229c-1.456.626-1.456 21.736 0 63.328 39.728 49.193 59.918 73.316 60.568 72.366.976-1.423 0-12.136 0-30.174 0-12.025.315-23.541.944-34.548-39.552-47.941-60.056-71.598-61.512-70.972z"/><path stroke="#000" stroke-linecap="round" stroke-width="4" d="M719 237c.394 3.196 1.457 5.536 3.19 7.021 1.734 1.486 3.75 1.905 6.052 1.26M721 215v4.5M734 231v4.5"/><path stroke="#000" stroke-linecap="round" stroke-width="5" d="M783 293.197c5.063-1.837 8.16-4.644 9.295-8.42 1.134-3.776 1.134-9.368 0-16.777"/></g><path fill="#FFF" stroke="#1D877A" stroke-width="6" d="M728.5 266.957c-.818.832-1.824 7.647-2.186 17.604-.361 9.926-.19 22.876.448 36.335.629 13.252 1.667 26.05 2.912 35.677.643 4.978 1.328 9.01 2.023 11.87.34 1.404.677 2.494.987 3.225.145.343.212.44-.171.237-.216-.114 2.27.13 5.18.293 3.725.208 9.05.417 15.867.625 13.264.405 32.022.8 54.977 1.163 45.884.723 105.727 1.272 164.495 1.498 63.79.246 121.838.1 164.634-.465 23.4-.309 42.005-.739 55.129-1.29 6.855-.288 12.188-.607 15.914-.957 2.768-.26 5.07-.678 4.746-.362 2.42-2.366 4.526-25.806 4.526-52.75 0-26.916-2.107-50.335-4.507-52.642.315.303-2.02-.125-4.826-.4-3.764-.37-9.148-.72-16.057-1.049-13.307-.633-32.153-1.18-55.625-1.627-44.41-.846-104.082-1.304-166.162-1.304-62.08 0-121.725.458-166.086 1.304-23.446.447-42.26.994-55.53 1.627-6.89.329-12.253.68-15.994 1.049-2.709.267-5.05.7-4.695.34zm0 0z"/><path stroke="#000" stroke-linecap="round" stroke-width="10" d="M954.826 344.618c3.554 3.795 9.576 5.692 18.067 5.692 8.49 0 15.035-1.897 19.632-5.692"/><path stroke="#000" stroke-linecap="round" stroke-width="12" d="M939.552 296.947v16M1002.002 296.947v16"/><path fill="#FFF" stroke="#1D877A" stroke-linecap="square" stroke-width="6" d="M593.129 124.719c-4.089 2.096-6.122 28.593-6.1 79.49 94.192 114.749 142.35 170.481 144.475 167.197 3.187-4.926-2.856-102.346-5.832-106.217-2.977-3.87-126.41-143.615-132.543-140.47z"/><path stroke="#000" stroke-linecap="round" stroke-width="16" d="M661.255 241c-19.92 1.776-34.969 8.128-45.149 19.055-10.18 10.928-17.732 28.714-22.656 53.36"/></g><g><path stroke="#000" stroke-linecap="round" stroke-width="10" d="M1188.731 78.7l15.018 94.817"/><path fill="#FFF" stroke="#000" stroke-width="4" d="M1079.1 34.128L1274.66 3.154l13.61 85.928-195.562 30.974z"/><path fill="#000" d="M1093.74 66.06l5.24-.83 7.054 14.124.462-.073 2.344-15.613 5.24-.83-3.562 20.15-7.164 1.134-9.613-18.063zm22.752 6.03c-.915-5.778 2.548-10.59 8.172-11.481 5.547-.879 10.053 2.396 10.962 8.135l.3 1.887-14.138 2.24c.506 2.446 2.628 4.124 5.401 3.685 2.697-.427 3.692-2.125 4.133-3.577l4.538 1.73c-.992 2.21-2.8 5.26-7.922 6.072-5.701.903-10.506-2.759-11.446-8.69zm4.798-2.615l9.09-1.44c-.641-2.307-2.58-3.58-5.084-3.183-2.735.433-4.058 2.301-4.006 4.623zm21.14-11.127l.439 2.773.462-.073c.397-2.235 1.898-3.223 4.325-3.607l1.926-.305.708 4.468-2.85.452c-2.466.39-4.03 1.98-3.603 4.677l1.696 10.708-4.854.769-3.026-19.106 4.777-.756zm8.667-1.373l4.853-.769-.94-5.932 4.854-.769.94 5.933 5.238-.83.671 4.237-5.238.83 1.5 9.476c.123.77.569 1.094 1.262.984l3.082-.488.67 4.237-5.238.83c-2.157.342-4.019-.943-4.36-3.1l-1.77-11.17-4.853.768-.671-4.237zm16.686-8.329c-.311-1.964.978-3.55 2.904-3.856 1.926-.305 3.642.806 3.953 2.77.31 1.965-.978 3.55-2.904 3.856-1.926.305-3.642-.805-3.953-2.77zm6.734 4.62l3.026 19.105-4.854.77-3.026-19.107 4.854-.768zm4.98 9.003c-.94-5.932 2.792-10.787 8.34-11.666 5.315-.842 9.097 1.6 10.788 5.794l-4.58 1.989c-.701-2.18-2.497-3.79-5.424-3.327-2.928.464-4.808 3.052-4.271 6.442.537 3.39 2.932 5.3 6.052 4.806 2.928-.464 4.02-2.295 4.136-4.801l4.966.438c-.235 4.499-3.117 7.996-8.47 8.844-5.548.878-10.598-2.587-11.537-8.519zm20.599-8.553c1.821-3.21 4.073-5.7 8.734-6.438 5.2-.823 9.06 1.606 9.767 6.074l1.934 12.21-4.777.757-.366-2.31-.539.085c-.328.92-1.436 3.149-5.557 3.802-4.315.683-7.531-1.177-8.11-4.836-.483-3.043 1.614-5.508 5.097-6.454l7.532-2.062-.074-.462c-.286-1.81-1.899-3.016-4.518-2.601-2.543.403-3.914 1.963-4.791 4.155l-4.332-1.92zm6.127 8.269c.208 1.31 1.471 2.057 3.628 1.716 3.39-.537 4.96-2.84 4.545-5.459l-.049-.308-5.745 1.62c-1.774.519-2.556 1.314-2.379 2.431zm19.282-24.85l4.27 26.964-4.853.768-4.27-26.964 4.853-.768zm8.533 18.47l-.696-4.391 11.402-1.806.695 4.391-11.401 1.806zm19.83-14.907l.439 2.773.462-.073c.396-2.235 1.898-3.223 4.325-3.607l1.926-.305.708 4.468-2.85.452c-2.466.39-4.03 1.98-3.603 4.677l1.696 10.708-4.854.769-3.026-19.106 4.777-.756zm13.624-10.213l4.27 26.964-4.853.768-4.27-26.964 4.853-.768z"/></g><g><path stroke="#000" stroke-linecap="round" stroke-width="10" d="M486 80v96"/><path fill="#FFF" stroke="#000" stroke-width="4" d="M353.69 16.827H621v87H353.69z"/><path fill="#000" d="M369.34 44.7h4.914v11.076h.468c.78-1.794 2.574-3.432 6.123-3.432 4.29 0 7.527 3.081 7.527 8.112V72h-4.914V60.924c0-2.691-1.56-4.29-4.368-4.29-3.159 0-4.836 1.95-4.836 5.382V72h-4.914V44.7zm22.308 17.628c0-6.084 4.446-10.218 10.14-10.218 5.694 0 10.14 4.134 10.14 10.218s-4.446 10.218-10.14 10.218c-5.694 0-10.14-4.134-10.14-10.218zm4.914 0c0 3.432 2.106 5.694 5.226 5.694s5.226-2.262 5.226-5.694-2.106-5.694-5.226-5.694-5.226 2.262-5.226 5.694zm23.712-9.672v2.808h.468c.741-2.145 2.379-2.886 4.836-2.886h1.95v4.524h-2.886c-2.496 0-4.29 1.326-4.29 4.056V72h-4.914V52.656h4.836zm9.126-5.616c0-1.989 1.521-3.354 3.471-3.354 1.95 0 3.471 1.365 3.471 3.354s-1.521 3.354-3.471 3.354c-1.95 0-3.471-1.365-3.471-3.354zm5.928 5.616V72h-4.914V52.656h4.914zm4.602 0h16.848v3.978L446.092 67.71h10.998V72h-17.55v-3.978l10.686-11.076H439.93v-4.29zm19.383 9.672c0-6.084 4.446-10.218 10.14-10.218 5.694 0 10.14 4.134 10.14 10.218s-4.446 10.218-10.14 10.218c-5.694 0-10.14-4.134-10.14-10.218zm4.914 0c0 3.432 2.106 5.694 5.226 5.694s5.226-2.262 5.226-5.694-2.106-5.694-5.226-5.694-5.226 2.262-5.226 5.694zm18.876-9.672h4.836v3.12h.546c.78-1.794 2.574-3.432 6.123-3.432 4.29 0 7.527 3.081 7.527 8.112V72h-4.914V60.924c0-2.691-1.56-4.29-4.368-4.29-3.159 0-4.836 1.95-4.836 5.382V72h-4.914V52.656zm21.138 0h4.914V46.65h4.914v6.006h5.304v4.29h-5.304v9.594c0 .78.39 1.17 1.092 1.17h3.12V72h-5.304c-2.184 0-3.822-1.56-3.822-3.744v-11.31h-4.914v-4.29zm17.862 4.446c2.301-2.886 4.914-4.992 9.633-4.992 5.265 0 8.697 3.003 8.697 7.527V72h-4.836v-2.34h-.546c-.468.858-1.911 2.886-6.084 2.886-4.368 0-7.254-2.34-7.254-6.045 0-3.081 2.457-5.187 6.045-5.577l7.761-.858v-.468c0-1.833-1.404-3.276-4.056-3.276-2.574 0-4.173 1.326-5.382 3.354l-3.978-2.574zm4.758 9.126c0 1.326 1.131 2.262 3.315 2.262 3.432 0 5.343-2.028 5.343-4.68v-.312l-5.928.702c-1.833.234-2.73.897-2.73 2.028zM549.793 44.7V72h-4.914V44.7h4.914zm5.538 19.578v-4.446h11.544v4.446h-11.544zm14.742-11.622h4.914V46.65h4.914v6.006h5.304v4.29h-5.304v9.594c0 .78.39 1.17 1.092 1.17h3.12V72h-5.304c-2.184 0-3.822-1.56-3.822-3.744v-11.31h-4.914v-4.29zm18.798-7.956h4.914v10.686h.468c1.014-1.638 2.73-3.276 6.162-3.276 4.836 0 8.892 4.29 8.892 10.218s-4.056 10.218-8.892 10.218c-3.432 0-5.148-1.638-6.162-3.276h-.546V72h-4.836V44.7zm10.218 11.778c-3.042 0-5.304 2.184-5.304 5.85 0 3.666 2.262 5.85 5.304 5.85 2.964 0 5.304-2.106 5.304-5.85 0-3.744-2.34-5.85-5.304-5.85z"/></g></g></svg>