<svg xmlns="http://www.w3.org/2000/svg" viewBox="0 0 215 211"><path fill="#1EBBEE" d="M214.64 110.33c0-16.968-4.387-32.909-12.08-46.761C235.351-10.644 167.424.226 163.642.966c-14.391 2.816-27.705 7.337-39.986 13.068a97.198 97.198 0 0 0-5.469-.158c-45.833 0-84.198 31.968-94.017 74.823 24.157-27.101 41.063-38.036 51.187-42.412a229.998 229.998 0 0 0-4.754 4.375c-.518.489-1.017.985-1.528 1.477-1.026.987-2.05 1.975-3.05 2.972-.595.593-1.174 1.191-1.76 1.788-.887.903-1.772 1.805-2.638 2.713-.615.645-1.215 1.292-1.819 1.938-.809.866-1.613 1.733-2.402 2.603-.613.676-1.216 1.352-1.818 2.03a267.719 267.719 0 0 0-4.021 4.629c-.693.818-1.377 1.636-2.054 2.454-.599.724-1.196 1.447-1.782 2.17-.634.782-1.254 1.563-1.873 2.343-.6.756-1.2 1.511-1.786 2.266-.558.719-1.1 1.435-1.646 2.152-.616.81-1.237 1.62-1.837 2.426-.429.577-.841 1.148-1.262 1.723a299.19 299.19 0 0 0-10.438 15.199l-.023.036a308.393 308.393 0 0 0-2.41 3.821l-.128.206a303.396 303.396 0 0 0-2.279 3.738l-.079.13a309.829 309.829 0 0 0-5.481 9.506C9.802 134.725 5.573 145.724 5.39 146.377c-27.432 98.072 58.184 56.657 70.131 50.475 12.864 6.355 27.346 9.932 42.666 9.932 41.94 0 77.623-26.771 90.905-64.156h-50.68c-7.499 12.669-21.936 21.25-38.522 21.25-24.301 0-44-18.412-44-41.125h137.96c.523-4.068.794-8.214.794-12.423h-.004zm-18.018-94.916c8.306 5.606 14.968 14.41 3.527 44.059-10.973-17.647-27.482-31.49-47.104-39.099 8.926-4.311 31.031-13.429 43.577-4.96zm-176.52 181.24c-6.765-6.938-7.961-23.836 6.967-54.628 7.534 21.661 22.568 39.811 42 51.33-9.664 5.319-35.32 17.295-48.967 3.298zm55.571-100.28c.771-22.075 19.983-39.75 43.588-39.75 23.604 0 42.817 17.675 43.588 39.75H75.673z"/></svg>
