<svg xmlns="http://www.w3.org/2000/svg" viewBox="0 0 129 129"><path fill="#7170F1" d="M50.204 128.692c-10.87-.612-20.236-3.545-28.15-8.814-3.715-2.475-7.005-5.433-9.974-8.969-1.343-1.6-3.171-4.216-4.343-6.216-.683-1.166-2.028-3.811-2.577-5.07-2.511-5.751-3.936-11.805-4.48-19.03-.118-1.58-.118-30.06.001-31.625.644-8.486 2.473-15.335 5.841-21.87 3.662-7.104 8.916-12.995 15.54-17.422 7.286-4.87 16.166-7.832 25.942-8.652 2.625-.22 3.89-.236 17.247-.21 13.692.026 13.457.022 16.322.306 17.342 1.72 31.564 10.538 39.456 24.46 4.213 7.432 6.523 15.759 6.992 25.199.085 1.717.086 26.39 0 28.028-.432 8.326-2.26 15.743-5.516 22.38-1.969 4.014-4.174 7.326-7.198 10.807-.835.962-3.04 3.161-4.086 4.075a48.53 48.53 0 0 1-10.866 7.196c-5.736 2.761-12.028 4.497-18.782 5.18-2.801.283-2.282.274-16.705.288-7.54.008-14.139-.01-14.665-.04zm16.737-24.989c8.773-.606 16.911-4.04 23.432-9.89.456-.409.928-.847 1.05-.974l.22-.231-.189.032c-.63.106-2.893.184-5.608.192l-3.124.01-.447.29c-1.939 1.26-4.61 2.548-7.045 3.397-3.939 1.374-8.592 2.01-12.816 1.755-8.22-.499-15.731-3.827-21.574-9.56a33.63 33.63 0 0 1-6.23-8.34c-.344-.65-.348-.654-.792-.886-1.699-.888-4.104-2.313-5.905-3.498l-1.187-.78.123.422c2.247 7.724 6.819 14.555 13.135 19.625 4.074 3.27 8.976 5.757 14.109 7.159 2.388.652 5.388 1.15 7.811 1.297.847.052 4.195.038 5.037-.02zM90.15 87.381c5.566-.201 10.002-.926 13.621-2.225 4.887-1.753 7.742-4.374 8.478-7.784.17-.788.157-2.354-.027-3.22-.763-3.591-3.448-7.307-8.093-11.201l-.909-.762v-.299c0-.793-.413-3.731-.734-5.222-1.575-7.31-5.078-13.843-10.263-19.137-3.251-3.32-6.63-5.763-10.777-7.792-4.62-2.261-9.396-3.537-14.537-3.882-2.152-.145-5.384-.05-7.46.22-8.003 1.042-15.209 4.332-21.168 9.667-2.134 1.91-4.763 4.89-6.054 6.862-.13.197-.23.278-.377.302l-.972.161c-2.278.377-4.473.938-6.237 1.595-2.603.97-4.564 2.142-5.952 3.56-2.742 2.8-3.163 6.35-1.219 10.272 4.75 9.579 22.505 19.854 43.687 25.282 10.229 2.621 20.575 3.907 28.993 3.603zm-3.06-5.717c-18.111-.565-42.066-7.65-55.631-16.451l-.668-.434v-.803c-.002-2.54.537-5.991 1.372-8.792 3.368-11.293 12.569-20.1 23.971-22.947 7.018-1.753 14.404-1.213 21.04 1.537 3.102 1.284 6.003 3.051 8.746 5.325 1.02.846 3.167 2.986 4.016 4.002 2.615 3.133 4.478 6.333 5.9 10.138.914 2.44 1.556 5.217 1.881 8.13.14 1.25.16 5.215.033 6.439-.482 4.645-1.545 8.285-3.6 12.323-.527 1.036-.74 1.396-.839 1.418-.46.103-4.329.175-6.222.115zm13.022-1.304c1.701-4.227 2.493-7.17 2.948-10.956.057-.473.113-.869.125-.881.034-.034.587.573 1.08 1.186 1.086 1.352 1.808 2.762 2.016 3.939.05.277.068.733.049 1.18-.036.813-.19 1.338-.606 2.054-.29.5-1.243 1.456-1.868 1.874-.673.451-1.74.974-2.677 1.31-1.09.393-1.11.399-1.067.294zM24.87 59.918c-2.435-2.64-3.404-5.01-2.88-7.055.565-2.213 2.926-3.903 6.903-4.94.131-.033.239-.052.239-.04 0 .011-.147.346-.327.744-1.604 3.55-2.744 7.58-3.185 11.259-.043.36-.1.653-.127.653-.027 0-.308-.28-.623-.621z"/></svg>
