<svg xmlns="http://www.w3.org/2000/svg" viewBox="0 0 2197 990"><g fill="none" fill-rule="evenodd"><path fill="#F9AC39" fill-rule="nonzero" d="M541.51 175.764v336.861H169.277V175.764c69.103 0 69.644-175.139 69.644-175.139h68.585c0 24.921 21.435 45.137 47.886 45.137 26.451 0 47.888-20.216 47.888-45.137h68.585s.54 175.139 69.643 175.139z"/><path fill="#F9AC39" fill-rule="nonzero" d="M541.51 175.764v336.861H355.393V45.762c26.451 0 47.886-20.215 47.886-45.137h68.585c.001 0 .541 175.139 69.644 175.139z"/><path fill="#FFF" fill-rule="nonzero" d="M169.28 450.275h372.23v62.35H169.28z"/><path fill="#DF581D" fill-rule="nonzero" d="M169.278 423.455h186.12v26.817h-186.12z"/><path fill="#C9C9C9" fill-rule="nonzero" d="M169.278 450.275h372.23v26.817h-372.23z"/><path fill="#DF581D" fill-rule="nonzero" d="M355.414 423.455h186.12v26.817h-186.12z"/><text fill="#FFF" font-family="iAWriterDuospace-Regular, iA Writer Duospace" font-size="58"><tspan x="233.606" y="260.717">Display</tspan></text><path fill="#F9AC39" fill-rule="nonzero" d="M1037.473 175.764v336.861H665.242V175.764c69.103 0 69.644-175.139 69.644-175.139h68.585c0 24.921 21.435 45.137 47.886 45.137 26.45 0 47.888-20.216 47.888-45.137h68.585s.54 175.139 69.643 175.139z"/><path fill="#FFF" fill-rule="nonzero" d="M665.244 450.275h372.23v62.35h-372.23z"/><path fill="#DF581D" fill-rule="nonzero" d="M665.242 423.455h186.12v26.817h-186.12z"/><path fill="#C9C9C9" fill-rule="nonzero" d="M665.242 450.275h372.23v26.817h-372.23z"/><path fill="#DF581D" fill-rule="nonzero" d="M851.378 423.455h186.12v26.817h-186.12z"/><text fill="#FFF" font-family="iAWriterDuospace-Regular, iA Writer Duospace" font-size="58"><tspan x="799.17" y="222.217">Box</tspan> <tspan x="686.07" y="297.217">Alignment</tspan></text><path fill="#F9AC39" fill-rule="nonzero" d="M1532.718 175.764v336.861h-372.231V175.764c69.103 0 69.644-175.139 69.644-175.139h68.585c0 24.921 21.435 45.137 47.886 45.137 26.45 0 47.888-20.216 47.888-45.137h68.585s.54 175.139 69.643 175.139z"/><path fill="#F9AC39" fill-rule="nonzero" d="M1532.718 175.764v336.861h-186.115V45.762c26.45 0 47.886-20.215 47.886-45.137h68.585s.54 175.139 69.644 175.139z"/><path fill="#FFF" fill-rule="nonzero" d="M1160.489 450.275h372.23v62.35h-372.23z"/><path fill="#DF581D" fill-rule="nonzero" d="M1160.487 423.455h186.12v26.817h-186.12z"/><path fill="#C9C9C9" fill-rule="nonzero" d="M1160.487 450.275h372.23v26.817h-372.23z"/><path fill="#DF581D" fill-rule="nonzero" d="M1346.623 423.455h186.12v26.817h-186.12z"/><text fill="#FFF" font-family="iAWriterDuospace-Regular, iA Writer Duospace" font-size="58"><tspan x="1207.415" y="222.217">Flexible</tspan> <tspan x="1294.415" y="297.217">Box</tspan></text><path fill="#F9AC39" fill-rule="nonzero" d="M2028.751 175.764v336.861h-372.23V175.764c69.102 0 69.643-175.139 69.643-175.139h68.585c0 24.921 21.435 45.137 47.886 45.137 26.451 0 47.888-20.216 47.888-45.137h68.585s.54 175.139 69.643 175.139z"/><path fill="#FFF" fill-rule="nonzero" d="M1656.522 450.275h372.23v62.35h-372.23z"/><path fill="#DF581D" fill-rule="nonzero" d="M1656.52 423.455h186.12v26.817h-186.12z"/><path fill="#C9C9C9" fill-rule="nonzero" d="M1656.52 450.275h372.23v26.817h-372.23z"/><path fill="#DF581D" fill-rule="nonzero" d="M1842.656 423.455h186.12v26.817h-186.12z"/><text fill="#FFF" font-family="iAWriterDuospace-Regular, iA Writer Duospace" font-size="58"><tspan x="1773.048" y="222.217">Grid</tspan> <tspan x="1738.248" y="297.217">Layout</tspan></text><path fill="#F9AC39" fill-rule="nonzero" d="M1813.476 735.518v253.979H1532.83V735.518c52.101 0 52.509-132.047 52.509-132.047h51.71c0 18.79 16.161 34.032 36.104 34.032 19.943 0 36.105-15.242 36.105-34.032h51.71s.408 132.047 52.508 132.047z"/><path fill="#F9AC39" fill-rule="nonzero" d="M1813.476 735.518v253.979h-140.322V637.503c19.943 0 36.104-15.242 36.104-34.032h51.71s.408 132.047 52.508 132.047z"/><path fill="#FFF" fill-rule="nonzero" d="M1532.832 942.487h280.645v47.009h-280.645z"/><path fill="#DF581D" fill-rule="nonzero" d="M1532.83 922.266h140.326v20.219H1532.83z"/><path fill="#C9C9C9" fill-rule="nonzero" d="M1532.83 942.487h280.645v20.219H1532.83z"/><path fill="#DF581D" fill-rule="nonzero" d="M1673.169 922.266h140.326v20.219h-140.326z"/><path fill="#F9AC39" fill-rule="nonzero" d="M1813.476 735.518v253.979H1532.83V735.518c52.101 0 52.509-132.047 52.509-132.047h51.71c0 18.79 16.161 34.032 36.104 34.032 19.943 0 36.105-15.242 36.105-34.032h51.71s.408 132.047 52.508 132.047z"/><path fill="#FFF" fill-rule="nonzero" d="M1532.832 942.487h280.645v47.009h-280.645z"/><path fill="#DF581D" fill-rule="nonzero" d="M1532.83 922.266h140.326v20.219H1532.83z"/><path fill="#C9C9C9" fill-rule="nonzero" d="M1532.83 942.487h280.645v20.219H1532.83z"/><path fill="#DF581D" fill-rule="nonzero" d="M1673.169 922.266h140.326v20.219h-140.326z"/><text fill="#FFF" font-family="iAWriterDuospace-Regular, iA Writer Duospace" font-size="48"><tspan x="1586.498" y="804.818">Shapes</tspan></text><path fill="#F9AC39" fill-rule="nonzero" d="M2196.443 735.518v253.979h-280.646V735.518c52.1 0 52.509-132.047 52.509-132.047h51.71c0 18.79 16.16 34.032 36.104 34.032 19.942 0 36.105-15.242 36.105-34.032h51.71s.407 132.047 52.508 132.047z"/><path fill="#F9AC39" fill-rule="nonzero" d="M2196.443 735.518v253.979H2056.12V637.503c19.943 0 36.104-15.242 36.104-34.032h51.71c.001 0 .408 132.047 52.509 132.047z"/><path fill="#FFF" fill-rule="nonzero" d="M1915.799 942.487h280.645v47.009h-280.645z"/><path fill="#DF581D" fill-rule="nonzero" d="M1915.797 922.266h140.326v20.219h-140.326z"/><path fill="#C9C9C9" fill-rule="nonzero" d="M1915.797 942.487h280.645v20.219h-280.645z"/><path fill="#DF581D" fill-rule="nonzero" d="M2056.135 922.266h140.326v20.219h-140.326z"/><path fill="#F9AC39" fill-rule="nonzero" d="M2196.443 735.518v253.979h-280.646V735.518c52.1 0 52.509-132.047 52.509-132.047h51.71c0 18.79 16.16 34.032 36.104 34.032 19.942 0 36.105-15.242 36.105-34.032h51.71s.407 132.047 52.508 132.047z"/><path fill="#FFF" fill-rule="nonzero" d="M1915.799 942.487h280.645v47.009h-280.645z"/><path fill="#DF581D" fill-rule="nonzero" d="M1915.797 922.266h140.326v20.219h-140.326z"/><path fill="#C9C9C9" fill-rule="nonzero" d="M1915.797 942.487h280.645v20.219h-280.645z"/><path fill="#DF581D" fill-rule="nonzero" d="M2056.135 922.266h140.326v20.219h-140.326z"/><text fill="#FFF" font-family="iAWriterDuospace-Regular, iA Writer Duospace" font-size="42"><tspan x="1923.565" y="804.818">Transforms</tspan></text><path fill="#F9AC39" fill-rule="nonzero" d="M280.461 735.612v252.942H.96V735.612c51.888 0 52.294-131.51 52.294-131.51h51.5c0 18.714 16.095 33.893 35.956 33.893 19.862 0 35.958-15.18 35.958-33.892h51.5s.405 131.509 52.293 131.509z"/><path fill="#F9AC39" fill-rule="nonzero" d="M280.461 735.612v252.942h-139.75V637.995c19.861 0 35.957-15.179 35.957-33.892h51.499s.406 131.509 52.294 131.509z"/><path fill="#FFF" fill-rule="nonzero" d="M.961 941.737h279.501v46.817H.961z"/><path fill="#DF581D" fill-rule="nonzero" d="M.96 921.598h139.754v20.136H.96z"/><path fill="#C9C9C9" fill-rule="nonzero" d="M.96 941.737h279.501v20.136H.96z"/><path fill="#DF581D" fill-rule="nonzero" d="M140.726 921.598H280.48v20.136H140.726z"/><text fill="#FFF" font-family="iAWriterDuospace-Regular, iA Writer Duospace" font-size="48"><tspan x="83.205" y="777.209">Ruby</tspan> <tspan x="54.405" y="839.209">Layout</tspan></text><path fill="#F9AC39" fill-rule="nonzero" d="M663.428 735.612v252.942H383.926V735.612c51.889 0 52.295-131.51 52.295-131.51h51.5c0 18.714 16.094 33.893 35.956 33.893 19.861 0 35.958-15.18 35.958-33.892h51.5s.405 131.509 52.293 131.509z"/><path fill="#F9AC39" fill-rule="nonzero" d="M663.428 735.612v252.942h-139.75V637.995c19.861 0 35.956-15.179 35.956-33.892h51.5s.406 131.509 52.294 131.509z"/><path fill="#FFF" fill-rule="nonzero" d="M383.928 941.737h279.501v46.817H383.928z"/><path fill="#DF581D" fill-rule="nonzero" d="M383.926 921.598H523.68v20.136H383.926z"/><path fill="#C9C9C9" fill-rule="nonzero" d="M383.926 941.737h279.501v20.136H383.926z"/><path fill="#DF581D" fill-rule="nonzero" d="M523.693 921.598h139.754v20.136H523.693z"/><path fill="#F9AC39" fill-rule="nonzero" d="M663.428 735.612v252.942H383.926V735.612c51.889 0 52.295-131.51 52.295-131.51h51.5c0 18.714 16.094 33.893 35.956 33.893 19.861 0 35.958-15.18 35.958-33.892h51.5s.405 131.509 52.293 131.509z"/><path fill="#F9AC39" fill-rule="nonzero" d="M663.428 735.612v252.942h-139.75V637.995c19.861 0 35.956-15.179 35.956-33.892h51.5s.406 131.509 52.294 131.509z"/><path fill="#FFF" fill-rule="nonzero" d="M383.928 941.737h279.501v46.817H383.928z"/><path fill="#DF581D" fill-rule="nonzero" d="M383.926 921.598H523.68v20.136H383.926z"/><path fill="#C9C9C9" fill-rule="nonzero" d="M383.926 941.737h279.501v20.136H383.926z"/><path fill="#DF581D" fill-rule="nonzero" d="M523.693 921.598h139.754v20.136H523.693z"/><text fill="#FFF" font-family="iAWriterDuospace-Regular, iA Writer Duospace" font-size="48"><tspan x="437.372" y="777.209">Inline</tspan> <tspan x="437.372" y="839.209">Layout</tspan></text><path fill="#F9AC39" fill-rule="nonzero" d="M1046.395 735.612v252.942H766.893V735.612c51.888 0 52.295-131.51 52.295-131.51h51.499c0 18.714 16.095 33.893 35.956 33.893 19.862 0 35.959-15.18 35.959-33.892H994.1s.405 131.509 52.294 131.509z"/><path fill="#F9AC39" fill-rule="nonzero" d="M1046.395 735.612v252.942h-139.75V637.995c19.86 0 35.956-15.179 35.956-33.892h51.5s.405 131.509 52.294 131.509z"/><path fill="#FFF" fill-rule="nonzero" d="M766.895 941.737h279.501v46.817H766.895z"/><path fill="#DF581D" fill-rule="nonzero" d="M766.893 921.598h139.754v20.136H766.893z"/><path fill="#C9C9C9" fill-rule="nonzero" d="M766.893 941.737h279.501v20.136H766.893z"/><path fill="#DF581D" fill-rule="nonzero" d="M906.659 921.598h139.754v20.136H906.659z"/><path fill="#F9AC39" fill-rule="nonzero" d="M1046.395 735.612v252.942H766.893V735.612c51.888 0 52.295-131.51 52.295-131.51h51.499c0 18.714 16.095 33.893 35.956 33.893 19.862 0 35.959-15.18 35.959-33.892H994.1s.405 131.509 52.294 131.509z"/><path fill="#F9AC39" fill-rule="nonzero" d="M1046.395 735.612v252.942h-139.75V637.995c19.86 0 35.956-15.179 35.956-33.892h51.5s.405 131.509 52.294 131.509z"/><path fill="#FFF" fill-rule="nonzero" d="M766.895 941.737h279.501v46.817H766.895z"/><path fill="#DF581D" fill-rule="nonzero" d="M766.893 921.598h139.754v20.136H766.893z"/><path fill="#C9C9C9" fill-rule="nonzero" d="M766.893 941.737h279.501v20.136H766.893z"/><path fill="#DF581D" fill-rule="nonzero" d="M906.659 921.598h139.754v20.136H906.659z"/><text fill="#FFF" font-family="iAWriterDuospace-Regular, iA Writer Duospace" font-size="44"><tspan x="774.738" y="777.209">Positioned</tspan> <tspan x="827.538" y="834.209">Layout</tspan></text><path fill="#F9AC39" fill-rule="nonzero" d="M1429.361 735.612v252.942H1149.86V735.612c51.888 0 52.294-131.51 52.294-131.51h51.5c0 18.714 16.095 33.893 35.956 33.893 19.862 0 35.958-15.18 35.958-33.892h51.5s.405 131.509 52.293 131.509z"/><path fill="#F9AC39" fill-rule="nonzero" d="M1429.361 735.612v252.942h-139.75V637.995c19.861 0 35.957-15.179 35.957-33.892h51.499s.406 131.509 52.294 131.509z"/><path fill="#FFF" fill-rule="nonzero" d="M1149.861 941.737h279.501v46.817h-279.501z"/><path fill="#DF581D" fill-rule="nonzero" d="M1149.86 921.598h139.754v20.136H1149.86z"/><path fill="#C9C9C9" fill-rule="nonzero" d="M1149.86 941.737h279.501v20.136H1149.86z"/><path fill="#DF581D" fill-rule="nonzero" d="M1289.626 921.598h139.754v20.136h-139.754z"/><path fill="#F9AC39" fill-rule="nonzero" d="M1429.361 735.612v252.942H1149.86V735.612c51.888 0 52.294-131.51 52.294-131.51h51.5c0 18.714 16.095 33.893 35.956 33.893 19.862 0 35.958-15.18 35.958-33.892h51.5s.405 131.509 52.293 131.509z"/><path fill="#FFF" fill-rule="nonzero" d="M1149.861 941.737h279.501v46.817h-279.501z"/><path fill="#DF581D" fill-rule="nonzero" d="M1149.86 921.598h139.754v20.136H1149.86z"/><path fill="#C9C9C9" fill-rule="nonzero" d="M1149.86 941.737h279.501v20.136H1149.86z"/><path fill="#DF581D" fill-rule="nonzero" d="M1289.626 921.598h139.754v20.136h-139.754z"/><text fill="#FFF" font-family="iAWriterDuospace-Regular, iA Writer Duospace" font-size="48"><tspan x="1181.705" y="777.209">Writing</tspan> <tspan x="1224.905" y="839.209">Mode</tspan></text></g></svg>
