<svg xmlns="http://www.w3.org/2000/svg" viewBox="0 0 300 300"><defs><linearGradient id="a" x1="79.592%" x2="22.667%" y1="0%" y2="100%"><stop offset="0%" stop-color="#FFA422"/><stop offset="100%" stop-color="#FF760B"/></linearGradient></defs><path fill="url(#a)" d="M63.208 299.247c-20.49-1.744-33.026-7.633-45.707-21.473-10.666-11.64-14.596-21.44-16.27-40.578-1.27-14.514-1.292-154.133-.028-171 1.05-13.994 2.765-21.593 6.678-29.584 5.916-12.083 20.595-25.924 32.276-30.434C53.417 1.058 54.465.997 136.208.492c99.197-.611 112.887.18 127.584 7.377 12.906 6.32 26.342 21.049 30.856 33.827 5.134 14.533 5.06 12.937 5.06 108.5 0 100.478.1 98.916-7.303 114-5.181 10.557-17.8 23.243-28.197 28.345-14.564 7.148-11.685 6.954-107 7.204-47.025.124-89.325-.1-94-.498zm56-38.051c-.825-.533-2.452-.976-3.616-.985-1.163-.008-5.244-1.58-9.068-3.493-14.738-7.373-25.752-22.813-28.907-40.522-2.27-12.738-.658-23.377 5.376-35.5 4.161-8.36 15.136-19.723 25.715-26.624 3.85-2.512 11.05-7.19 16-10.398 18.945-12.276 29.813-26.949 33.179-44.795 3.791-20.102-5.301-38.772-24.295-49.885-8.87-5.19-16.23-7.123-27.384-7.193-10.299-.066-17.155 1.264-26.5 5.139-13.722 5.69-30.115 19.337-36.344 30.256-3.975 6.97-3.95 7.707.163 4.57 7.447-5.68 20.011-7.475 28.447-4.065 5.333 2.156 11.874 9.453 13.345 14.885 3.016 11.146-1.17 22.652-13.385 36.788-13.697 15.85-19.807 24.028-23.62 31.61-5.093 10.131-6.906 16.5-7.696 27.043-1.551 20.678 5.234 38.806 20.09 53.675 12.864 12.875 31.58 19.997 53.5 20.357 4.53.074 6.045-.188 5-.863zm83.963-1.084c7.955-.555 14.634-1.18 14.842-1.387.917-.918-1.136-4.527-4.478-7.868-4.045-4.045-11.124-7.057-19.144-8.146-4.258-.577-5.198-1.034-4.717-2.288 3.164-8.244 3.733-26.098 1.155-36.227-5.913-23.234-25.266-40.604-49.073-44.045-21.227-3.069-41.607 7.581-49.176 25.697l-1.516 3.63 5.322-4.674c13.974-12.273 32.94-14.889 50.015-6.899 26.113 12.22 32.832 48.306 12.952 69.566-4.732 5.06-13.807 11.103-18.404 12.255-1.518.38-3.051 1.163-3.408 1.74-.74 1.197 41.596.324 65.63-1.354zm-63.423-13.163c2.772-1.416 6.975-4.673 9.34-7.238 6.18-6.706 8.443-12.42 8.531-21.552.064-6.572-.345-8.387-3.19-14.165-5.827-11.837-16.12-18.28-29.221-18.291-6.195-.005-8.49.48-13.19 2.787-7.092 3.483-14.703 11.633-17.065 18.272-4.662 13.106-.083 28.735 10.866 37.087 9.004 6.867 23.89 8.227 33.93 3.1zm-20.125-16.174c-13.442-5.853-9.15-26.579 5.503-26.579 8.346 0 14.071 5.63 14.078 13.846.005 5.476-2.275 9.38-7.042 12.06-4.262 2.395-8.108 2.602-12.539.673zm105.585-37.011l12.5-4.581c4.712-1.729 7.395-2.094 12.5-1.705 3.575.273 7.359.847 8.409 1.275 1.72.702 1.842.447 1.234-2.591-1.408-7.04-8.07-11.114-21.112-12.91-14.936-2.056-19.183-3.604-34.531-12.586-10.566-6.183-19.813-10.317-27.838-12.444-8.044-2.133-20.623-4.023-26.662-4.007-7.063.018-18.2 2.215-22.186 4.375-2.713 1.47-2.508 1.528 5.686 1.573 9.124.05 21.386 2.55 29.425 5.999 12.935 5.55 28.422 19.388 35.575 31.788 2.522 4.373 4.338 6.344 6.5 7.055 5.398 1.775 13.623 1.277 20.5-1.241zm28.818-33.107l5.182-1.539v-7.41c0-14.676-7.515-30.934-18.305-39.604-4.887-3.926-15.909-9.906-18.262-9.907-.587 0-1.879-2.589-2.87-5.751-2.325-7.42-4.8-12.252-7.547-14.737-2.192-1.982-2.2-1.982-3.72 0-3.497 4.56-6.397 12.713-7.465 20.984l-1.126 8.724-6.103 4.5c-5.52 4.07-24.775 13.975-33.602 17.287-5.87 2.201-5.421 2.664 3.202 3.308 15.593 1.166 32.854 7.014 51.073 17.304 5.376 3.037 11.676 6.12 14 6.852 5.89 1.855 19.28 1.85 25.543-.01z"/></svg>
