<svg xmlns="http://www.w3.org/2000/svg" viewBox="0 0 750 500"><defs><linearGradient id="a" x1="63.25" x2="94.375" gradientUnits="userSpaceOnUse"><stop offset="0%" stop-color="#fff"/><stop offset="50%" stop-color="#fff"/><stop offset="50%" stop-color="#00f"/><stop offset="100%" stop-color="#00f"/></linearGradient><linearGradient id="ak" x1="63.25" x2="94.375" gradientUnits="userSpaceOnUse"><stop offset="0%"/><stop offset="50%"/><stop offset="50%" stop-color="#fff"/><stop offset="100%" stop-color="#fff"/></linearGradient><linearGradient id="b" x1="94.375" x2="125.5" gradientUnits="userSpaceOnUse"><stop offset="0%" stop-color="#00f"/><stop offset="50%" stop-color="#00f"/><stop offset="50%" stop-color="#bc8f8f"/><stop offset="87.5%" stop-color="#bc8f8f"/><stop offset="87.5%" stop-color="#fff"/><stop offset="100%" stop-color="#fff"/></linearGradient><linearGradient id="al" x1="94.375" x2="125.5" gradientUnits="userSpaceOnUse"><stop offset="0%" stop-color="#fff"/><stop offset="50%" stop-color="#fff"/><stop offset="50%"/><stop offset="100%"/></linearGradient><linearGradient id="c" x1="125.5" x2="156.625" gradientUnits="userSpaceOnUse"><stop offset="0%" stop-color="#ff0"/><stop offset="31.25%" stop-color="#ff0"/><stop offset="31.25%" stop-color="#00f"/><stop offset="50%" stop-color="#00f"/><stop offset="50%" stop-color="#90ee90"/><stop offset="68.75%" stop-color="#90ee90"/><stop offset="68.75%" stop-color="#ff0"/><stop offset="100%" stop-color="#ff0"/></linearGradient><linearGradient id="am" x1="125.5" x2="156.625" gradientUnits="userSpaceOnUse"><stop offset="0%"/><stop offset="31.25%"/><stop offset="31.25%" stop-color="#fff"/><stop offset="50%" stop-color="#fff"/><stop offset="50%"/><stop offset="100%"/></linearGradient><linearGradient id="d" x1="156.625" x2="187.75" gradientUnits="userSpaceOnUse"><stop offset="0%" stop-color="#00f"/><stop offset="43.75%" stop-color="#00f"/><stop offset="43.75%" stop-color="#fff"/><stop offset="100%" stop-color="#fff"/></linearGradient><linearGradient id="an" x1="156.625" x2="187.75" gradientUnits="userSpaceOnUse"><stop offset="0%" stop-color="#fff"/><stop offset="43.75%" stop-color="#fff"/><stop offset="43.75%"/><stop offset="100%"/></linearGradient><linearGradient id="e" x1="187.75" x2="218.875" gradientUnits="userSpaceOnUse"><stop offset="0%" stop-color="#00f"/><stop offset="100%" stop-color="#00f"/></linearGradient><linearGradient id="f" x1="218.875" x2="250" gradientUnits="userSpaceOnUse"><stop offset="0%" stop-color="#00f"/><stop offset="50%" stop-color="#00f"/><stop offset="50%" stop-color="#fff"/><stop offset="100%" stop-color="#fff"/></linearGradient><linearGradient id="ao" x1="218.875" x2="250" gradientUnits="userSpaceOnUse"><stop offset="0%" stop-color="#fff"/><stop offset="50%" stop-color="#fff"/><stop offset="50%"/><stop offset="100%"/></linearGradient><linearGradient id="g" x1="250" x2="281.125" gradientUnits="userSpaceOnUse"><stop offset="0%" stop-color="#00f"/><stop offset="25%" stop-color="#00f"/><stop offset="25%" stop-color="orange"/><stop offset="68.75%" stop-color="orange"/><stop offset="68.75%" stop-color="#fff"/><stop offset="87.5%" stop-color="#fff"/><stop offset="87.5%" stop-color="orange"/><stop offset="100%" stop-color="orange"/></linearGradient><linearGradient id="ap" x1="250" x2="281.125" gradientUnits="userSpaceOnUse"><stop offset="0%" stop-color="#fff"/><stop offset="25%" stop-color="#fff"/><stop offset="25%"/><stop offset="100%"/></linearGradient><linearGradient id="h" x1="281.125" x2="312.25" gradientUnits="userSpaceOnUse"><stop offset="0%" stop-color="orange"/><stop offset="12.5%" stop-color="orange"/><stop offset="12.5%" stop-color="#00f"/><stop offset="25%" stop-color="#00f"/><stop offset="25%" stop-color="#fff"/><stop offset="50%" stop-color="#fff"/><stop offset="50%" stop-color="#6495ed"/><stop offset="100%" stop-color="#6495ed"/></linearGradient><linearGradient id="aq" x1="281.125" x2="312.25" gradientUnits="userSpaceOnUse"><stop offset="0%"/><stop offset="12.5%"/><stop offset="12.5%" stop-color="#fff"/><stop offset="25%" stop-color="#fff"/><stop offset="25%"/><stop offset="100%"/></linearGradient><linearGradient id="i" x1="312.25" x2="343.375" gradientUnits="userSpaceOnUse"><stop offset="0%" stop-color="#006400"/><stop offset="37.5%" stop-color="#006400"/><stop offset="37.5%" stop-color="orange"/><stop offset="62.5%" stop-color="orange"/><stop offset="62.5%" stop-color="#fff"/><stop offset="75%" stop-color="#fff"/><stop offset="75%" stop-color="orange"/><stop offset="100%" stop-color="orange"/></linearGradient><linearGradient id="ar" x1="312.25" x2="343.375" gradientUnits="userSpaceOnUse"><stop offset="0%" stop-color="#fff"/><stop offset="37.5%" stop-color="#fff"/><stop offset="37.5%"/><stop offset="100%"/></linearGradient><linearGradient id="j" x1="343.375" x2="374.5" gradientUnits="userSpaceOnUse"><stop offset="0%" stop-color="orange"/><stop offset="68.75%" stop-color="orange"/><stop offset="68.75%" stop-color="#fff"/><stop offset="100%" stop-color="#fff"/></linearGradient><linearGradient id="k" x1="374.5" x2="405.625" gradientUnits="userSpaceOnUse"><stop offset="0%" stop-color="#006400"/><stop offset="31.25%" stop-color="#006400"/><stop offset="31.25%" stop-color="#fff"/><stop offset="50%" stop-color="#fff"/><stop offset="50%" stop-color="#00f"/><stop offset="100%" stop-color="#00f"/></linearGradient><linearGradient id="as" x1="374.5" x2="405.625" gradientUnits="userSpaceOnUse"><stop offset="0%" stop-color="#fff"/><stop offset="31.25%" stop-color="#fff"/><stop offset="31.25%"/><stop offset="50%"/><stop offset="50%" stop-color="#fff"/><stop offset="100%" stop-color="#fff"/></linearGradient><linearGradient id="l" x1="405.625" x2="436.75" gradientUnits="userSpaceOnUse"><stop offset="0%" stop-color="purple"/><stop offset="25%" stop-color="purple"/><stop offset="25%" stop-color="#fff"/><stop offset="100%" stop-color="#fff"/></linearGradient><linearGradient id="at" x1="405.625" x2="436.75" gradientUnits="userSpaceOnUse"><stop offset="0%" stop-color="#fff"/><stop offset="25%" stop-color="#fff"/><stop offset="25%"/><stop offset="100%"/></linearGradient><linearGradient id="m" x1="436.75" x2="467.875" gradientUnits="userSpaceOnUse"><stop offset="0%" stop-color="#fff"/><stop offset="37.5%" stop-color="#fff"/><stop offset="37.5%" stop-color="orchid"/><stop offset="50%" stop-color="orchid"/><stop offset="50%" stop-color="#fff"/><stop offset="100%" stop-color="#fff"/></linearGradient><linearGradient id="n" x1="467.875" x2="499" gradientUnits="userSpaceOnUse"><stop offset="0%" stop-color="#006400"/><stop offset="43.75%" stop-color="#006400"/><stop offset="43.75%" stop-color="#fff"/><stop offset="87.5%" stop-color="#fff"/><stop offset="87.5%" stop-color="orange"/><stop offset="100%" stop-color="orange"/></linearGradient><linearGradient id="au" x1="467.875" x2="499" gradientUnits="userSpaceOnUse"><stop offset="0%" stop-color="#fff"/><stop offset="43.75%" stop-color="#fff"/><stop offset="43.75%"/><stop offset="100%"/></linearGradient><linearGradient id="o" x1="1" x2="32.125" gradientUnits="userSpaceOnUse"><stop offset="0%" stop-color="#006400"/><stop offset="100%" stop-color="#006400"/></linearGradient><linearGradient id="p" x1="63.25" x2="94.375" gradientUnits="userSpaceOnUse"><stop offset="0%" stop-color="#006400"/><stop offset="31.25%" stop-color="#006400"/><stop offset="31.25%" stop-color="#fff"/><stop offset="50%" stop-color="#fff"/><stop offset="50%" stop-color="#006400"/><stop offset="100%" stop-color="#006400"/></linearGradient><linearGradient id="av" x1="63.25" x2="94.375" gradientUnits="userSpaceOnUse"><stop offset="0%" stop-color="#fff"/><stop offset="31.25%" stop-color="#fff"/><stop offset="31.25%"/><stop offset="50%"/><stop offset="50%" stop-color="#fff"/><stop offset="100%" stop-color="#fff"/></linearGradient><linearGradient id="q" x1="94.375" x2="125.5" gradientUnits="userSpaceOnUse"><stop offset="0%" stop-color="#006400"/><stop offset="50%" stop-color="#006400"/><stop offset="50%" stop-color="#fff"/><stop offset="100%" stop-color="#fff"/></linearGradient><linearGradient id="aw" x1="94.375" x2="125.5" gradientUnits="userSpaceOnUse"><stop offset="0%" stop-color="#fff"/><stop offset="50%" stop-color="#fff"/><stop offset="50%"/><stop offset="100%"/></linearGradient><linearGradient id="r" x1="125.5" x2="156.625" gradientUnits="userSpaceOnUse"><stop offset="0%" stop-color="#006400"/><stop offset="87.5%" stop-color="#006400"/><stop offset="87.5%" stop-color="#fff"/><stop offset="100%" stop-color="#fff"/></linearGradient><linearGradient id="ax" x1="125.5" x2="156.625" gradientUnits="userSpaceOnUse"><stop offset="0%" stop-color="#fff"/><stop offset="87.5%" stop-color="#fff"/><stop offset="87.5%"/><stop offset="100%"/></linearGradient><linearGradient id="s" x1="156.625" x2="187.75" gradientUnits="userSpaceOnUse"><stop offset="0%" stop-color="#fff"/><stop offset="50%" stop-color="#fff"/><stop offset="50%" stop-color="#006400"/><stop offset="100%" stop-color="#006400"/></linearGradient><linearGradient id="ay" x1="156.625" x2="187.75" gradientUnits="userSpaceOnUse"><stop offset="0%"/><stop offset="50%"/><stop offset="50%" stop-color="#fff"/><stop offset="100%" stop-color="#fff"/></linearGradient><linearGradient id="t" x1="187.75" x2="218.875" gradientUnits="userSpaceOnUse"><stop offset="0%" stop-color="#006400"/><stop offset="81.25%" stop-color="#006400"/><stop offset="81.25%" stop-color="#fff"/><stop offset="100%" stop-color="#fff"/></linearGradient><linearGradient id="az" x1="187.75" x2="218.875" gradientUnits="userSpaceOnUse"><stop offset="0%" stop-color="#fff"/><stop offset="81.25%" stop-color="#fff"/><stop offset="81.25%"/><stop offset="100%"/></linearGradient><linearGradient id="u" x1="218.875" x2="250" gradientUnits="userSpaceOnUse"><stop offset="0%" stop-color="#006400"/><stop offset="25%" stop-color="#006400"/><stop offset="25%" stop-color="#fff"/><stop offset="100%" stop-color="#fff"/></linearGradient><linearGradient id="aA" x1="218.875" x2="250" gradientUnits="userSpaceOnUse"><stop offset="0%" stop-color="#fff"/><stop offset="25%" stop-color="#fff"/><stop offset="25%"/><stop offset="100%"/></linearGradient><linearGradient id="v" x1="250" x2="281.125" gradientUnits="userSpaceOnUse"><stop offset="0%" stop-color="#006400"/><stop offset="31.25%" stop-color="#006400"/><stop offset="31.25%" stop-color="#fff"/><stop offset="62.5%" stop-color="#fff"/><stop offset="62.5%" stop-color="#006400"/><stop offset="100%" stop-color="#006400"/></linearGradient><linearGradient id="aB" x1="250" x2="281.125" gradientUnits="userSpaceOnUse"><stop offset="0%" stop-color="#fff"/><stop offset="31.25%" stop-color="#fff"/><stop offset="31.25%"/><stop offset="62.5%"/><stop offset="62.5%" stop-color="#fff"/><stop offset="100%" stop-color="#fff"/></linearGradient><linearGradient id="w" x1="281.125" x2="312.25" gradientUnits="userSpaceOnUse"><stop offset="0%" stop-color="#fff"/><stop offset="62.5%" stop-color="#fff"/><stop offset="62.5%" stop-color="#006400"/><stop offset="100%" stop-color="#006400"/></linearGradient><linearGradient id="aC" x1="281.125" x2="312.25" gradientUnits="userSpaceOnUse"><stop offset="0%"/><stop offset="62.5%"/><stop offset="62.5%" stop-color="#fff"/><stop offset="100%" stop-color="#fff"/></linearGradient><linearGradient id="x" x1="312.25" x2="343.375" gradientUnits="userSpaceOnUse"><stop offset="0%" stop-color="#006400"/><stop offset="68.75%" stop-color="#006400"/><stop offset="68.75%" stop-color="#fff"/><stop offset="75%" stop-color="#fff"/><stop offset="75%" stop-color="purple"/><stop offset="100%" stop-color="purple"/></linearGradient><linearGradient id="aD" x1="312.25" x2="343.375" gradientUnits="userSpaceOnUse"><stop offset="0%" stop-color="#fff"/><stop offset="68.75%" stop-color="#fff"/><stop offset="68.75%"/><stop offset="75%"/><stop offset="75%" stop-color="#fff"/><stop offset="100%" stop-color="#fff"/></linearGradient><linearGradient id="y" x1="343.375" x2="374.5" gradientUnits="userSpaceOnUse"><stop offset="0%" stop-color="#fff"/><stop offset="100%" stop-color="#fff"/></linearGradient><linearGradient id="z" x1="374.5" x2="405.625" gradientUnits="userSpaceOnUse"><stop offset="0%" stop-color="#006400"/><stop offset="75%" stop-color="#006400"/><stop offset="75%" stop-color="#fff"/><stop offset="100%" stop-color="#fff"/></linearGradient><linearGradient id="aE" x1="374.5" x2="405.625" gradientUnits="userSpaceOnUse"><stop offset="0%" stop-color="#fff"/><stop offset="75%" stop-color="#fff"/><stop offset="75%"/><stop offset="100%"/></linearGradient><linearGradient id="A" x1="405.625" x2="436.75" gradientUnits="userSpaceOnUse"><stop offset="0%" stop-color="#006400"/><stop offset="68.75%" stop-color="#006400"/><stop offset="68.75%" stop-color="#fff"/><stop offset="100%" stop-color="#fff"/></linearGradient><linearGradient id="aF" x1="405.625" x2="436.75" gradientUnits="userSpaceOnUse"><stop offset="0%" stop-color="#fff"/><stop offset="68.75%" stop-color="#fff"/><stop offset="68.75%"/><stop offset="100%"/></linearGradient><linearGradient id="B" x1="436.75" x2="467.875" gradientUnits="userSpaceOnUse"><stop offset="0%" stop-color="#fff"/><stop offset="87.5%" stop-color="#fff"/><stop offset="87.5%" stop-color="sienna"/><stop offset="100%" stop-color="sienna"/></linearGradient><linearGradient id="aG" x1="436.75" x2="467.875" gradientUnits="userSpaceOnUse"><stop offset="0%"/><stop offset="87.5%"/><stop offset="87.5%" stop-color="#fff"/><stop offset="100%" stop-color="#fff"/></linearGradient><linearGradient id="C" x1="467.875" x2="499" gradientUnits="userSpaceOnUse"><stop offset="0%" stop-color="#fff"/><stop offset="75%" stop-color="#fff"/><stop offset="75%" stop-color="#006400"/><stop offset="100%" stop-color="#006400"/></linearGradient><linearGradient id="aH" x1="467.875" x2="499" gradientUnits="userSpaceOnUse"><stop offset="0%"/><stop offset="75%"/><stop offset="75%" stop-color="#fff"/><stop offset="100%" stop-color="#fff"/></linearGradient><linearGradient id="D" x1="1" x2="32.125" gradientUnits="userSpaceOnUse"><stop offset="0%" stop-color="#bc8f8f"/><stop offset="100%" stop-color="#bc8f8f"/></linearGradient><linearGradient id="E" x1="156.625" x2="187.75" gradientUnits="userSpaceOnUse"><stop offset="0%" stop-color="#bc8f8f"/><stop offset="31.25%" stop-color="#bc8f8f"/><stop offset="31.25%" stop-color="#fff"/><stop offset="100%" stop-color="#fff"/></linearGradient><linearGradient id="F" x1="1" x2="32.125" gradientUnits="userSpaceOnUse"><stop offset="0%" stop-color="#6495ed"/><stop offset="100%" stop-color="#6495ed"/></linearGradient><linearGradient id="G" x1="125.5" x2="156.625" gradientUnits="userSpaceOnUse"><stop offset="0%" stop-color="#6495ed"/><stop offset="25%" stop-color="#6495ed"/><stop offset="25%" stop-color="#fff"/><stop offset="100%" stop-color="#fff"/></linearGradient><linearGradient id="H" x1="125.5" x2="156.625" gradientUnits="userSpaceOnUse"><stop offset="0%" stop-color="#6495ed"/><stop offset="100%" stop-color="#6495ed"/></linearGradient><linearGradient id="I" x1="187.75" x2="218.875" gradientUnits="userSpaceOnUse"><stop offset="0%" stop-color="#6495ed"/><stop offset="50%" stop-color="#6495ed"/><stop offset="50%" stop-color="#fff"/><stop offset="100%" stop-color="#fff"/></linearGradient><linearGradient id="J" x1="250" x2="281.125" gradientUnits="userSpaceOnUse"><stop offset="0%" stop-color="#90ee90"/><stop offset="100%" stop-color="#90ee90"/></linearGradient><linearGradient id="K" x1="312.25" x2="343.375" gradientUnits="userSpaceOnUse"><stop offset="0%" stop-color="#90ee90"/><stop offset="25%" stop-color="#90ee90"/><stop offset="25%" stop-color="#006400"/><stop offset="43.75%" stop-color="#006400"/><stop offset="43.75%" stop-color="#fff"/><stop offset="81.25%" stop-color="#fff"/><stop offset="81.25%" stop-color="#90ee90"/><stop offset="100%" stop-color="#90ee90"/></linearGradient><linearGradient id="aI" x1="312.25" x2="343.375" gradientUnits="userSpaceOnUse"><stop offset="0%"/><stop offset="25%"/><stop offset="25%" stop-color="#fff"/><stop offset="43.75%" stop-color="#fff"/><stop offset="43.75%"/><stop offset="100%"/></linearGradient><linearGradient id="L" x1="343.375" x2="374.5" gradientUnits="userSpaceOnUse"><stop offset="0%" stop-color="purple"/><stop offset="56.25%" stop-color="purple"/><stop offset="56.25%" stop-color="#fff"/><stop offset="100%" stop-color="#fff"/></linearGradient><linearGradient id="aJ" x1="343.375" x2="374.5" gradientUnits="userSpaceOnUse"><stop offset="0%" stop-color="#fff"/><stop offset="56.25%" stop-color="#fff"/><stop offset="56.25%"/><stop offset="100%"/></linearGradient><linearGradient id="M" x1="436.75" x2="467.875" gradientUnits="userSpaceOnUse"><stop offset="0%" stop-color="#fff"/><stop offset="25%" stop-color="#fff"/><stop offset="25%" stop-color="#90ee90"/><stop offset="62.5%" stop-color="#90ee90"/><stop offset="62.5%" stop-color="#fff"/><stop offset="100%" stop-color="#fff"/></linearGradient><linearGradient id="N" x1="467.875" x2="499" gradientUnits="userSpaceOnUse"><stop offset="0%" stop-color="#dc143c"/><stop offset="62.5%" stop-color="#dc143c"/><stop offset="62.5%" stop-color="#fff"/><stop offset="87.5%" stop-color="#fff"/><stop offset="87.5%" stop-color="#dc143c"/><stop offset="100%" stop-color="#dc143c"/></linearGradient><linearGradient id="O" x1="343.375" x2="374.5" gradientUnits="userSpaceOnUse"><stop offset="0%" stop-color="#fff"/><stop offset="100%" stop-color="#fff"/></linearGradient><linearGradient id="P" x1="1" x2="32.125" gradientUnits="userSpaceOnUse"><stop offset="0%" stop-color="#dc143c"/><stop offset="100%" stop-color="#dc143c"/></linearGradient><linearGradient id="Q" x1="94.375" x2="125.5" gradientUnits="userSpaceOnUse"><stop offset="0%" stop-color="#fff"/><stop offset="100%" stop-color="#fff"/></linearGradient><linearGradient id="R" x1="374.5" x2="405.625" gradientUnits="userSpaceOnUse"><stop offset="0%" stop-color="#0ff"/><stop offset="68.75%" stop-color="#0ff"/><stop offset="68.75%" stop-color="#fff"/><stop offset="100%" stop-color="#fff"/></linearGradient><linearGradient id="S" x1="1" x2="32.125" gradientUnits="userSpaceOnUse"><stop offset="0%" stop-color="#0ff"/><stop offset="100%" stop-color="#0ff"/></linearGradient><linearGradient id="T" x1="63.25" x2="94.375" gradientUnits="userSpaceOnUse"><stop offset="0%" stop-color="#0ff"/><stop offset="31.25%" stop-color="#0ff"/><stop offset="31.25%" stop-color="#fff"/><stop offset="87.5%" stop-color="#fff"/><stop offset="87.5%" stop-color="orchid"/><stop offset="100%" stop-color="orchid"/></linearGradient><linearGradient id="U" x1="94.375" x2="125.5" gradientUnits="userSpaceOnUse"><stop offset="0%" stop-color="orchid"/><stop offset="50%" stop-color="orchid"/><stop offset="50%" stop-color="#fff"/><stop offset="100%" stop-color="#fff"/></linearGradient><linearGradient id="V" x1="125.5" x2="156.625" gradientUnits="userSpaceOnUse"><stop offset="0%" stop-color="orchid"/><stop offset="100%" stop-color="orchid"/></linearGradient><linearGradient id="W" x1="250" x2="281.125" gradientUnits="userSpaceOnUse"><stop offset="0%" stop-color="#0ff"/><stop offset="100%" stop-color="#0ff"/></linearGradient><linearGradient id="X" x1="312.25" x2="343.375" gradientUnits="userSpaceOnUse"><stop offset="0%" stop-color="#0ff"/><stop offset="68.75%" stop-color="#0ff"/><stop offset="68.75%" stop-color="#fff"/><stop offset="100%" stop-color="#fff"/></linearGradient><linearGradient id="Y" x1="1" x2="32.125" gradientUnits="userSpaceOnUse"><stop offset="0%" stop-color="#00f"/><stop offset="18.75%" stop-color="#00f"/><stop offset="18.75%" stop-color="#fff"/><stop offset="100%" stop-color="#fff"/></linearGradient><linearGradient id="aK" x1="1" x2="32.125" gradientUnits="userSpaceOnUse"><stop offset="0%" stop-color="#fff"/><stop offset="18.75%" stop-color="#fff"/><stop offset="18.75%"/><stop offset="100%"/></linearGradient><linearGradient id="Z" x1="32.125" x2="63.25" gradientUnits="userSpaceOnUse"><stop offset="0%" stop-color="purple"/><stop offset="31.25%" stop-color="purple"/><stop offset="31.25%" stop-color="#fff"/><stop offset="100%" stop-color="#fff"/></linearGradient><linearGradient id="aL" x1="32.125" x2="63.25" gradientUnits="userSpaceOnUse"><stop offset="0%" stop-color="#fff"/><stop offset="31.25%" stop-color="#fff"/><stop offset="31.25%"/><stop offset="100%"/></linearGradient><linearGradient id="aa" x1="63.25" x2="94.375" gradientUnits="userSpaceOnUse"><stop offset="0%" stop-color="#fff"/><stop offset="75%" stop-color="#fff"/><stop offset="75%" stop-color="#006400"/><stop offset="100%" stop-color="#006400"/></linearGradient><linearGradient id="aM" x1="63.25" x2="94.375" gradientUnits="userSpaceOnUse"><stop offset="0%"/><stop offset="75%"/><stop offset="75%" stop-color="#fff"/><stop offset="100%" stop-color="#fff"/></linearGradient><linearGradient id="ab" x1="94.375" x2="125.5" gradientUnits="userSpaceOnUse"><stop offset="0%" stop-color="#fff"/><stop offset="100%" stop-color="#fff"/></linearGradient><linearGradient id="ac" x1="250" x2="281.125" gradientUnits="userSpaceOnUse"><stop offset="0%" stop-color="#90ee90"/><stop offset="87.5%" stop-color="#90ee90"/><stop offset="87.5%" stop-color="#fff"/><stop offset="100%" stop-color="#fff"/></linearGradient><linearGradient id="ad" x1="281.125" x2="312.25" gradientUnits="userSpaceOnUse"><stop offset="0%" stop-color="#90ee90"/><stop offset="37.5%" stop-color="#90ee90"/><stop offset="37.5%" stop-color="#fff"/><stop offset="100%" stop-color="#fff"/></linearGradient><linearGradient id="ae" x1="374.5" x2="405.625" gradientUnits="userSpaceOnUse"><stop offset="0%" stop-color="#fff"/><stop offset="43.75%" stop-color="#fff"/><stop offset="43.75%" stop-color="orchid"/><stop offset="75%" stop-color="orchid"/><stop offset="75%" stop-color="#fff"/><stop offset="100%" stop-color="#fff"/></linearGradient><linearGradient id="af" x1="405.625" x2="436.75" gradientUnits="userSpaceOnUse"><stop offset="0%" stop-color="orchid"/><stop offset="31.25%" stop-color="orchid"/><stop offset="31.25%" stop-color="#fff"/><stop offset="100%" stop-color="#fff"/></linearGradient><linearGradient id="ag" x1="436.75" x2="467.875" gradientUnits="userSpaceOnUse"><stop offset="0%" stop-color="orchid"/><stop offset="100%" stop-color="orchid"/></linearGradient><linearGradient id="ah" x1="467.875" x2="499" gradientUnits="userSpaceOnUse"><stop offset="0%" stop-color="#fff"/><stop offset="100%" stop-color="#fff"/></linearGradient><linearGradient id="ai" x1="1" x2="32.125" gradientUnits="userSpaceOnUse"><stop offset="0%" stop-color="orchid"/><stop offset="100%" stop-color="orchid"/></linearGradient><linearGradient id="aj" x1="343.375" x2="374.5" gradientUnits="userSpaceOnUse"><stop offset="0%" stop-color="#fff"/><stop offset="100%" stop-color="#fff"/></linearGradient></defs><path fill="#fff" d="M0 0h750v500H0z"/><g stroke="#dcdcdc" stroke-width="2"><path fill="#00f" d="M1 1h31.125v31.125H1zM32.125 1H63.25v31.125H32.125z"/><path fill="url(#a)" d="M63.25 1h31.125v31.125H63.25z"/><path fill="url(#b)" d="M94.375 1H125.5v31.125H94.375z"/><path fill="url(#c)" d="M125.5 1h31.125v31.125H125.5z"/><path fill="url(#d)" d="M156.625 1h31.125v31.125h-31.125z"/><path fill="url(#e)" d="M187.75 1h31.125v31.125H187.75z"/><path fill="url(#f)" d="M218.875 1H250v31.125h-31.125z"/><path fill="url(#g)" d="M250 1h31.125v31.125H250z"/><path fill="url(#h)" d="M281.125 1h31.125v31.125h-31.125z"/><path fill="url(#i)" d="M312.25 1h31.125v31.125H312.25z"/><path fill="url(#j)" d="M343.375 1H374.5v31.125h-31.125z"/><path fill="url(#k)" d="M374.5 1h31.125v31.125H374.5z"/><path fill="url(#l)" d="M405.625 1h31.125v31.125h-31.125z"/><path fill="url(#m)" d="M436.75 1h31.125v31.125H436.75z"/><path fill="url(#n)" d="M467.875 1H499v31.125h-31.125z"/><path fill="url(#o)" d="M1 32.125h31.125V63.25H1z"/><path fill="#006400" d="M32.125 32.125H63.25V63.25H32.125z"/><path fill="url(#p)" d="M63.25 32.125h31.125V63.25H63.25z"/><path fill="url(#q)" d="M94.375 32.125H125.5V63.25H94.375z"/><path fill="url(#r)" d="M125.5 32.125h31.125V63.25H125.5z"/><path fill="url(#s)" d="M156.625 32.125h31.125V63.25h-31.125z"/><path fill="url(#t)" d="M187.75 32.125h31.125V63.25H187.75z"/><path fill="url(#u)" d="M218.875 32.125H250V63.25h-31.125z"/><path fill="url(#v)" d="M250 32.125h31.125V63.25H250z"/><path fill="url(#w)" d="M281.125 32.125h31.125V63.25h-31.125z"/><path fill="url(#x)" d="M312.25 32.125h31.125V63.25H312.25z"/><path fill="url(#y)" d="M343.375 32.125H374.5V63.25h-31.125z"/><path fill="url(#z)" d="M374.5 32.125h31.125V63.25H374.5z"/><path fill="url(#A)" d="M405.625 32.125h31.125V63.25h-31.125z"/><path fill="url(#B)" d="M436.75 32.125h31.125V63.25H436.75z"/><path fill="url(#C)" d="M467.875 32.125H499V63.25h-31.125z"/><path fill="url(#D)" d="M1 63.25h31.125v31.125H1z"/><path fill="#bc8f8f" d="M32.125 63.25H63.25v31.125H32.125zM63.25 63.25h31.125v31.125H63.25zM94.375 63.25H125.5v31.125H94.375zM125.5 63.25h31.125v31.125H125.5z"/><path fill="url(#E)" d="M156.625 63.25h31.125v31.125h-31.125z"/><path fill="#fff" d="M187.75 63.25h31.125v31.125H187.75zM218.875 63.25H250v31.125h-31.125zM250 63.25h31.125v31.125H250zM281.125 63.25h31.125v31.125h-31.125zM312.25 63.25h31.125v31.125H312.25zM343.375 63.25H374.5v31.125h-31.125zM374.5 63.25h31.125v31.125H374.5zM405.625 63.25h31.125v31.125h-31.125zM436.75 63.25h31.125v31.125H436.75zM467.875 63.25H499v31.125h-31.125z"/><path fill="url(#F)" d="M1 94.375h31.125V125.5H1z"/><path fill="#6495ed" d="M32.125 94.375H63.25V125.5H32.125zM63.25 94.375h31.125V125.5H63.25zM94.375 94.375H125.5V125.5H94.375z"/><path fill="url(#G)" d="M125.5 94.375h31.125V125.5H125.5z"/><path fill="#fff" d="M156.625 94.375h31.125V125.5h-31.125zM187.75 94.375h31.125V125.5H187.75zM218.875 94.375H250V125.5h-31.125zM250 94.375h31.125V125.5H250zM281.125 94.375h31.125V125.5h-31.125zM312.25 94.375h31.125V125.5H312.25zM343.375 94.375H374.5V125.5h-31.125zM374.5 94.375h31.125V125.5H374.5zM405.625 94.375h31.125V125.5h-31.125zM436.75 94.375h31.125V125.5H436.75zM467.875 94.375H499V125.5h-31.125zM1 125.5h31.125v31.125H1zM32.125 125.5H63.25v31.125H32.125zM63.25 125.5h31.125v31.125H63.25zM94.375 125.5H125.5v31.125H94.375z"/><path fill="url(#H)" d="M125.5 125.5h31.125v31.125H125.5z"/><path fill="#6495ed" d="M156.625 125.5h31.125v31.125h-31.125z"/><path fill="url(#I)" d="M187.75 125.5h31.125v31.125H187.75z"/><path fill="#fff" d="M218.875 125.5H250v31.125h-31.125zM250 125.5h31.125v31.125H250zM281.125 125.5h31.125v31.125h-31.125zM312.25 125.5h31.125v31.125H312.25zM343.375 125.5H374.5v31.125h-31.125zM374.5 125.5h31.125v31.125H374.5zM405.625 125.5h31.125v31.125h-31.125zM436.75 125.5h31.125v31.125H436.75zM467.875 125.5H499v31.125h-31.125zM1 156.625h31.125v31.125H1zM32.125 156.625H63.25v31.125H32.125zM63.25 156.625h31.125v31.125H63.25zM94.375 156.625H125.5v31.125H94.375zM125.5 156.625h31.125v31.125H125.5zM156.625 156.625h31.125v31.125h-31.125zM187.75 156.625h31.125v31.125H187.75zM218.875 156.625H250v31.125h-31.125zM250 156.625h31.125v31.125H250zM281.125 156.625h31.125v31.125h-31.125zM312.25 156.625h31.125v31.125H312.25zM343.375 156.625H374.5v31.125h-31.125zM374.5 156.625h31.125v31.125H374.5zM405.625 156.625h31.125v31.125h-31.125zM436.75 156.625h31.125v31.125H436.75zM467.875 156.625H499v31.125h-31.125zM1 187.75h31.125v31.125H1zM32.125 187.75H63.25v31.125H32.125zM63.25 187.75h31.125v31.125H63.25zM94.375 187.75H125.5v31.125H94.375zM125.5 187.75h31.125v31.125H125.5zM156.625 187.75h31.125v31.125h-31.125zM187.75 187.75h31.125v31.125H187.75zM218.875 187.75H250v31.125h-31.125z"/><path fill="url(#J)" d="M250 187.75h31.125v31.125H250z"/><path fill="#90ee90" d="M281.125 187.75h31.125v31.125h-31.125z"/><path fill="url(#K)" d="M312.25 187.75h31.125v31.125H312.25z"/><path fill="url(#L)" d="M343.375 187.75H374.5v31.125h-31.125z"/><path fill="#fff" d="M374.5 187.75h31.125v31.125H374.5zM405.625 187.75h31.125v31.125h-31.125z"/><path fill="url(#M)" d="M436.75 187.75h31.125v31.125H436.75z"/><path fill="url(#N)" d="M467.875 187.75H499v31.125h-31.125z"/><path fill="#dc143c" d="M1 218.875h31.125V250H1zM32.125 218.875H63.25V250H32.125zM63.25 218.875h31.125V250H63.25zM94.375 218.875H125.5V250H94.375zM125.5 218.875h31.125V250H125.5zM156.625 218.875h31.125V250h-31.125zM187.75 218.875h31.125V250H187.75zM218.875 218.875H250V250h-31.125zM250 218.875h31.125V250H250zM281.125 218.875h31.125V250h-31.125zM312.25 218.875h31.125V250H312.25zM343.375 218.875H374.5V250h-31.125zM374.5 218.875h31.125V250H374.5zM405.625 218.875h31.125V250h-31.125zM436.75 218.875h31.125V250H436.75zM467.875 218.875H499V250h-31.125zM1 250h31.125v31.125H1zM32.125 250H63.25v31.125H32.125zM63.25 250h31.125v31.125H63.25zM94.375 250H125.5v31.125H94.375zM125.5 250h31.125v31.125H125.5zM156.625 250h31.125v31.125h-31.125zM187.75 250h31.125v31.125H187.75zM218.875 250H250v31.125h-31.125zM250 250h31.125v31.125H250zM281.125 250h31.125v31.125h-31.125zM312.25 250h31.125v31.125H312.25z"/><path fill="url(#O)" d="M343.375 250H374.5v31.125h-31.125z"/><path fill="#fff" d="M374.5 250h31.125v31.125H374.5zM405.625 250h31.125v31.125h-31.125zM436.75 250h31.125v31.125H436.75zM467.875 250H499v31.125h-31.125zM1 281.125h31.125v31.125H1zM32.125 281.125H63.25v31.125H32.125zM63.25 281.125h31.125v31.125H63.25zM94.375 281.125H125.5v31.125H94.375zM125.5 281.125h31.125v31.125H125.5zM156.625 281.125h31.125v31.125h-31.125zM187.75 281.125h31.125v31.125H187.75zM218.875 281.125H250v31.125h-31.125zM250 281.125h31.125v31.125H250zM281.125 281.125h31.125v31.125h-31.125zM312.25 281.125h31.125v31.125H312.25zM343.375 281.125H374.5v31.125h-31.125zM374.5 281.125h31.125v31.125H374.5zM405.625 281.125h31.125v31.125h-31.125zM436.75 281.125h31.125v31.125H436.75zM467.875 281.125H499v31.125h-31.125zM1 312.25h31.125v31.125H1zM32.125 312.25H63.25v31.125H32.125zM63.25 312.25h31.125v31.125H63.25zM94.375 312.25H125.5v31.125H94.375zM125.5 312.25h31.125v31.125H125.5zM156.625 312.25h31.125v31.125h-31.125zM187.75 312.25h31.125v31.125H187.75zM218.875 312.25H250v31.125h-31.125zM250 312.25h31.125v31.125H250zM281.125 312.25h31.125v31.125h-31.125zM312.25 312.25h31.125v31.125H312.25zM343.375 312.25H374.5v31.125h-31.125zM374.5 312.25h31.125v31.125H374.5zM405.625 312.25h31.125v31.125h-31.125zM436.75 312.25h31.125v31.125H436.75zM467.875 312.25H499v31.125h-31.125z"/><path fill="url(#P)" d="M1 343.375h31.125V374.5H1z"/><path fill="#dc143c" d="M32.125 343.375H63.25V374.5H32.125zM63.25 343.375h31.125V374.5H63.25z"/><path fill="url(#Q)" d="M94.375 343.375H125.5V374.5H94.375z"/><path fill="#fff" d="M125.5 343.375h31.125V374.5H125.5zM156.625 343.375h31.125V374.5h-31.125zM187.75 343.375h31.125V374.5H187.75zM218.875 343.375H250V374.5h-31.125zM250 343.375h31.125V374.5H250zM281.125 343.375h31.125V374.5h-31.125zM312.25 343.375h31.125V374.5H312.25zM343.375 343.375H374.5V374.5h-31.125z"/><path fill="url(#R)" d="M374.5 343.375h31.125V374.5H374.5z"/><path fill="#fff" d="M405.625 343.375h31.125V374.5h-31.125zM436.75 343.375h31.125V374.5H436.75zM467.875 343.375H499V374.5h-31.125zM1 374.5h31.125v31.125H1zM32.125 374.5H63.25v31.125H32.125zM63.25 374.5h31.125v31.125H63.25zM94.375 374.5H125.5v31.125H94.375zM125.5 374.5h31.125v31.125H125.5zM156.625 374.5h31.125v31.125h-31.125zM187.75 374.5h31.125v31.125H187.75zM218.875 374.5H250v31.125h-31.125zM250 374.5h31.125v31.125H250zM281.125 374.5h31.125v31.125h-31.125zM312.25 374.5h31.125v31.125H312.25zM343.375 374.5H374.5v31.125h-31.125zM374.5 374.5h31.125v31.125H374.5zM405.625 374.5h31.125v31.125h-31.125zM436.75 374.5h31.125v31.125H436.75zM467.875 374.5H499v31.125h-31.125z"/><path fill="url(#S)" d="M1 405.625h31.125v31.125H1z"/><path fill="#0ff" d="M32.125 405.625H63.25v31.125H32.125z"/><path fill="url(#T)" d="M63.25 405.625h31.125v31.125H63.25z"/><path fill="url(#U)" d="M94.375 405.625H125.5v31.125H94.375z"/><path fill="url(#V)" d="M125.5 405.625h31.125v31.125H125.5z"/><path fill="orchid" d="M156.625 405.625h31.125v31.125h-31.125zM187.75 405.625h31.125v31.125H187.75zM218.875 405.625H250v31.125h-31.125z"/><path fill="url(#W)" d="M250 405.625h31.125v31.125H250z"/><path fill="#0ff" d="M281.125 405.625h31.125v31.125h-31.125z"/><path fill="url(#X)" d="M312.25 405.625h31.125v31.125H312.25z"/><path fill="#fff" d="M343.375 405.625H374.5v31.125h-31.125zM374.5 405.625h31.125v31.125H374.5zM405.625 405.625h31.125v31.125h-31.125zM436.75 405.625h31.125v31.125H436.75zM467.875 405.625H499v31.125h-31.125z"/><path fill="url(#Y)" d="M1 436.75h31.125v31.125H1z"/><path fill="url(#Z)" d="M32.125 436.75H63.25v31.125H32.125z"/><path fill="url(#aa)" d="M63.25 436.75h31.125v31.125H63.25z"/><path fill="url(#ab)" d="M94.375 436.75H125.5v31.125H94.375z"/><path fill="#fff" d="M125.5 436.75h31.125v31.125H125.5zM156.625 436.75h31.125v31.125h-31.125zM187.75 436.75h31.125v31.125H187.75zM218.875 436.75H250v31.125h-31.125z"/><path fill="url(#ac)" d="M250 436.75h31.125v31.125H250z"/><path fill="url(#ad)" d="M281.125 436.75h31.125v31.125h-31.125z"/><path fill="#fff" d="M312.25 436.75h31.125v31.125H312.25zM343.375 436.75H374.5v31.125h-31.125z"/><path fill="url(#ae)" d="M374.5 436.75h31.125v31.125H374.5z"/><path fill="url(#af)" d="M405.625 436.75h31.125v31.125h-31.125z"/><path fill="url(#ag)" d="M436.75 436.75h31.125v31.125H436.75z"/><path fill="url(#ah)" d="M467.875 436.75H499v31.125h-31.125z"/><path fill="url(#ai)" d="M1 467.875h31.125V499H1z"/><path fill="orchid" d="M32.125 467.875H63.25V499H32.125zM63.25 467.875h31.125V499H63.25zM94.375 467.875H125.5V499H94.375zM125.5 467.875h31.125V499H125.5zM156.625 467.875h31.125V499h-31.125zM187.75 467.875h31.125V499H187.75zM218.875 467.875H250V499h-31.125zM250 467.875h31.125V499H250zM281.125 467.875h31.125V499h-31.125zM312.25 467.875h31.125V499H312.25z"/><path fill="url(#aj)" d="M343.375 467.875H374.5V499h-31.125z"/><path fill="#fff" d="M374.5 467.875h31.125V499H374.5zM405.625 467.875h31.125V499h-31.125zM436.75 467.875h31.125V499H436.75zM467.875 467.875H499V499h-31.125z"/></g><g font-family="'DejaVu Sans', sans-serif" font-size="13" text-anchor="middle"><text x="16.563" y="21.75" fill="#fff">100</text><text x="47.688" y="21.75" fill="#fff">101</text><text x="78.813" y="21.75" fill="url(#ak)">102</text><text x="109.938" y="21.75" fill="url(#al)">103</text><text x="141.063" y="21.75" fill="url(#am)">104</text><text x="172.188" y="21.75" fill="url(#an)">105</text><text x="203.313" y="21.75" fill="#fff">106</text><text x="234.438" y="21.75" fill="url(#ao)">107</text><text x="265.563" y="21.75" fill="url(#ap)">108</text><text x="296.688" y="21.75" fill="url(#aq)">109</text><text x="327.813" y="21.75" fill="url(#ar)">10A</text><text x="358.938" y="21.75">10B</text><text x="390.063" y="21.75" fill="url(#as)">10C</text><text x="421.188" y="21.75" fill="url(#at)">10D</text><text x="452.313" y="21.75">10E</text><text x="483.438" y="21.75" fill="url(#au)">10F</text><text x="16.563" y="52.875" fill="#fff">110</text><text x="47.688" y="52.875" fill="#fff">111</text><text x="78.813" y="52.875" fill="url(#av)">112</text><text x="109.938" y="52.875" fill="url(#aw)">113</text><text x="141.063" y="52.875" fill="url(#ax)">114</text><text x="172.188" y="52.875" fill="url(#ay)">115</text><text x="203.313" y="52.875" fill="url(#az)">116</text><text x="234.438" y="52.875" fill="url(#aA)">117</text><text x="265.563" y="52.875" fill="url(#aB)">118</text><text x="296.688" y="52.875" fill="url(#aC)">119</text><text x="327.813" y="52.875" fill="url(#aD)">11A</text><text x="358.938" y="52.875">11B</text><text x="390.063" y="52.875" fill="url(#aE)">11C</text><text x="421.188" y="52.875" fill="url(#aF)">11D</text><text x="452.313" y="52.875" fill="url(#aG)">11E</text><text x="483.438" y="52.875" fill="url(#aH)">11F</text><text x="16.563" y="84">120</text><text x="47.688" y="84">121</text><text x="78.813" y="84">122</text><text x="109.938" y="84">123</text><text x="141.063" y="84">124</text><text x="172.188" y="84">125</text><text x="203.313" y="84">126</text><text x="234.438" y="84">127</text><text x="265.563" y="84">128</text><text x="296.688" y="84">129</text><text x="327.813" y="84">12A</text><text x="358.938" y="84">12B</text><text x="390.063" y="84">12C</text><text x="421.188" y="84">12D</text><text x="452.313" y="84">12E</text><text x="483.438" y="84">12F</text><text x="16.563" y="115.125">130</text><text x="47.688" y="115.125">131</text><text x="78.813" y="115.125">132</text><text x="109.938" y="115.125">133</text><text x="141.063" y="115.125">134</text><text x="172.188" y="115.125">135</text><text x="203.313" y="115.125">136</text><text x="234.438" y="115.125">137</text><text x="265.563" y="115.125">138</text><text x="296.688" y="115.125">139</text><text x="327.813" y="115.125">13A</text><text x="358.938" y="115.125">13B</text><text x="390.063" y="115.125">13C</text><text x="421.188" y="115.125">13D</text><text x="452.313" y="115.125">13E</text><text x="483.438" y="115.125">13F</text><text x="16.563" y="146.25">140</text><text x="47.688" y="146.25">141</text><text x="78.813" y="146.25">142</text><text x="109.938" y="146.25">143</text><text x="141.063" y="146.25">144</text><text x="172.188" y="146.25">145</text><text x="203.313" y="146.25">146</text><text x="234.438" y="146.25">147</text><text x="265.563" y="146.25">148</text><text x="296.688" y="146.25">149</text><text x="327.813" y="146.25">14A</text><text x="358.938" y="146.25">14B</text><text x="390.063" y="146.25">14C</text><text x="421.188" y="146.25">14D</text><text x="452.313" y="146.25">14E</text><text x="483.438" y="146.25">14F</text><text x="16.563" y="177.375">150</text><text x="47.688" y="177.375">151</text><text x="78.813" y="177.375">152</text><text x="109.938" y="177.375">153</text><text x="141.063" y="177.375">154</text><text x="172.188" y="177.375">155</text><text x="203.313" y="177.375">156</text><text x="234.438" y="177.375">157</text><text x="265.563" y="177.375">158</text><text x="296.688" y="177.375">159</text><text x="327.813" y="177.375">15A</text><text x="358.938" y="177.375">15B</text><text x="390.063" y="177.375">15C</text><text x="421.188" y="177.375">15D</text><text x="452.313" y="177.375">15E</text><text x="483.438" y="177.375">15F</text><text x="16.563" y="208.5">160</text><text x="47.688" y="208.5">161</text><text x="78.813" y="208.5">162</text><text x="109.938" y="208.5">163</text><text x="141.063" y="208.5">164</text><text x="172.188" y="208.5">165</text><text x="203.313" y="208.5">166</text><text x="234.438" y="208.5">167</text><text x="265.563" y="208.5">168</text><text x="296.688" y="208.5">169</text><text x="327.813" y="208.5" fill="url(#aI)">16A</text><text x="358.938" y="208.5" fill="url(#aJ)">16B</text><text x="390.063" y="208.5">16C</text><text x="421.188" y="208.5">16D</text><text x="452.313" y="208.5">16E</text><text x="483.438" y="208.5">16F</text><text x="16.563" y="239.625">170</text><text x="47.688" y="239.625">171</text><text x="78.813" y="239.625">172</text><text x="109.938" y="239.625">173</text><text x="141.063" y="239.625">174</text><text x="172.188" y="239.625">175</text><text x="203.313" y="239.625">176</text><text x="234.438" y="239.625">177</text><text x="265.563" y="239.625">178</text><text x="296.688" y="239.625">179</text><text x="327.813" y="239.625">17A</text><text x="358.938" y="239.625">17B</text><text x="390.063" y="239.625">17C</text><text x="421.188" y="239.625">17D</text><text x="452.313" y="239.625">17E</text><text x="483.438" y="239.625">17F</text><text x="16.563" y="270.75">180</text><text x="47.688" y="270.75">181</text><text x="78.813" y="270.75">182</text><text x="109.938" y="270.75">183</text><text x="141.063" y="270.75">184</text><text x="172.188" y="270.75">185</text><text x="203.313" y="270.75">186</text><text x="234.438" y="270.75">187</text><text x="265.563" y="270.75">188</text><text x="296.688" y="270.75">189</text><text x="327.813" y="270.75">18A</text><text x="358.938" y="270.75">18B</text><text x="390.063" y="270.75">18C</text><text x="421.188" y="270.75">18D</text><text x="452.313" y="270.75">18E</text><text x="483.438" y="270.75">18F</text><text x="16.563" y="301.875">190</text><text x="47.688" y="301.875">191</text><text x="78.813" y="301.875">192</text><text x="109.938" y="301.875">193</text><text x="141.063" y="301.875">194</text><text x="172.188" y="301.875">195</text><text x="203.313" y="301.875">196</text><text x="234.438" y="301.875">197</text><text x="265.563" y="301.875">198</text><text x="296.688" y="301.875">199</text><text x="327.813" y="301.875">19A</text><text x="358.938" y="301.875">19B</text><text x="390.063" y="301.875">19C</text><text x="421.188" y="301.875">19D</text><text x="452.313" y="301.875">19E</text><text x="483.438" y="301.875">19F</text><text x="16.563" y="333">1A0</text><text x="47.688" y="333">1A1</text><text x="78.813" y="333">1A2</text><text x="109.938" y="333">1A3</text><text x="141.063" y="333">1A4</text><text x="172.188" y="333">1A5</text><text x="203.313" y="333">1A6</text><text x="234.438" y="333">1A7</text><text x="265.563" y="333">1A8</text><text x="296.688" y="333">1A9</text><text x="327.813" y="333">1AA</text><text x="358.938" y="333">1AB</text><text x="390.063" y="333">1AC</text><text x="421.188" y="333">1AD</text><text x="452.313" y="333">1AE</text><text x="483.438" y="333">1AF</text><text x="16.563" y="364.125">1B0</text><text x="47.688" y="364.125">1B1</text><text x="78.813" y="364.125">1B2</text><text x="109.938" y="364.125">1B3</text><text x="141.063" y="364.125">1B4</text><text x="172.188" y="364.125">1B5</text><text x="203.313" y="364.125">1B6</text><text x="234.438" y="364.125">1B7</text><text x="265.563" y="364.125">1B8</text><text x="296.688" y="364.125">1B9</text><text x="327.813" y="364.125">1BA</text><text x="358.938" y="364.125">1BB</text><text x="390.063" y="364.125">1BC</text><text x="421.188" y="364.125">1BD</text><text x="452.313" y="364.125">1BE</text><text x="483.438" y="364.125">1BF</text><text x="16.563" y="395.25">1C0</text><text x="47.688" y="395.25">1C1</text><text x="78.813" y="395.25">1C2</text><text x="109.938" y="395.25">1C3</text><text x="141.063" y="395.25">1C4</text><text x="172.188" y="395.25">1C5</text><text x="203.313" y="395.25">1C6</text><text x="234.438" y="395.25">1C7</text><text x="265.563" y="395.25">1C8</text><text x="296.688" y="395.25">1C9</text><text x="327.813" y="395.25">1CA</text><text x="358.938" y="395.25">1CB</text><text x="390.063" y="395.25">1CC</text><text x="421.188" y="395.25">1CD</text><text x="452.313" y="395.25">1CE</text><text x="483.438" y="395.25">1CF</text><text x="16.563" y="426.375">1D0</text><text x="47.688" y="426.375">1D1</text><text x="78.813" y="426.375">1D2</text><text x="109.938" y="426.375">1D3</text><text x="141.063" y="426.375">1D4</text><text x="172.188" y="426.375">1D5</text><text x="203.313" y="426.375">1D6</text><text x="234.438" y="426.375">1D7</text><text x="265.563" y="426.375">1D8</text><text x="296.688" y="426.375">1D9</text><text x="327.813" y="426.375">1DA</text><text x="358.938" y="426.375">1DB</text><text x="390.063" y="426.375">1DC</text><text x="421.188" y="426.375">1DD</text><text x="452.313" y="426.375">1DE</text><text x="483.438" y="426.375">1DF</text><text x="16.563" y="457.5" fill="url(#aK)">1E0</text><text x="47.688" y="457.5" fill="url(#aL)">1E1</text><text x="78.813" y="457.5" fill="url(#aM)">1E2</text><text x="109.938" y="457.5">1E3</text><text x="141.063" y="457.5">1E4</text><text x="172.188" y="457.5">1E5</text><text x="203.313" y="457.5">1E6</text><text x="234.438" y="457.5">1E7</text><text x="265.563" y="457.5">1E8</text><text x="296.688" y="457.5">1E9</text><text x="327.813" y="457.5">1EA</text><text x="358.938" y="457.5">1EB</text><text x="390.063" y="457.5">1EC</text><text x="421.188" y="457.5">1ED</text><text x="452.313" y="457.5">1EE</text><text x="483.438" y="457.5">1EF</text><text x="16.563" y="488.625">1F0</text><text x="47.688" y="488.625">1F1</text><text x="78.813" y="488.625">1F2</text><text x="109.938" y="488.625">1F3</text><text x="141.063" y="488.625">1F4</text><text x="172.188" y="488.625">1F5</text><text x="203.313" y="488.625">1F6</text><text x="234.438" y="488.625">1F7</text><text x="265.563" y="488.625">1F8</text><text x="296.688" y="488.625">1F9</text><text x="327.813" y="488.625">1FA</text><text x="358.938" y="488.625">1FB</text><text x="390.063" y="488.625">1FC</text><text x="421.188" y="488.625">1FD</text><text x="452.313" y="488.625">1FE</text><text x="483.438" y="488.625">1FF</text></g><g stroke="#dcdcdc" stroke-width="2"><path fill="#00f" d="M518 17h25v13h-25z"/><path fill="#90ee90" d="M518 43.25h25v13h-25z"/><path fill="orange" d="M518 69.5h25v13h-25z"/><path fill="#006400" d="M518 112h25v13h-25z"/><path fill="purple" d="M518 154.5h25v13h-25z"/><path fill="#dc143c" d="M518 180.75h25v13h-25z"/><path fill="sienna" d="M518 207h25v13h-25z"/><path fill="#ff0" d="M518 249.5h25v13h-25z"/><path fill="#bc8f8f" d="M518 275.75h25v13h-25z"/><path fill="#6495ed" d="M518 302h25v13h-25z"/><path fill="#0ff" d="M518 328.25h25v13h-25z"/><path fill="orchid" d="M518 354.5h25v13h-25z"/><path fill="#fff" d="M518 380.75h25v13h-25z"/></g><g font-family="'DejaVu Sans', sans-serif" font-size="13" xml:lang="en"><text x="553" y="27">Non-Latin European scripts</text><text x="553" y="53.25">African scripts</text><text x="553" y="79.5">Middle Eastern and</text><text x="553" y="95.75">Southwest Asian scripts</text><text x="553" y="122">South and</text><text x="553" y="138.25">Central Asian scripts</text><text x="553" y="164.5">Southeast Asian scripts</text><text x="553" y="190.75">East Asian scripts</text><text x="553" y="217">Indonesian and</text><text x="553" y="233.25">Oceanic scripts</text><text x="553" y="259.5">American scripts</text><text x="553" y="285.75">Cuneiform</text><text x="553" y="312">Hieroglyphs</text><text x="553" y="338.25">Notational systems</text><text x="553" y="364.5">Symbols</text><text x="553" y="390.75">Unallocated code points</text><text x="528" y="427">As of Unicode 12.0</text></g></svg>