<svg xmlns="http://www.w3.org/2000/svg" fill="none" viewBox="0 0 431 399"><path fill="#fff" fill-rule="evenodd" d="M265.631 256.023c-2.822-38.066-21.668-71.673-49.816-94.1l-.315-.25c-28.42 22.504-47.429 56.375-50.16 94.746C180.683 262.599 197.445 266 215 266c17.927 0 35.025-3.547 50.631-9.977z" clip-rule="evenodd"/><path fill="#0FF" fill-rule="evenodd" d="M266 266c0 42.288-19.736 79.967-50.5 104.327C184.736 345.967 165 308.288 165 266c0-31.716 11.102-60.839 29.631-83.696-16.647 20.535-27.299 46.128-29.291 74.115C180.683 262.599 197.445 266 215 266c17.927 0 35.025-3.547 50.631-9.977.245 3.294.369 6.621.369 9.977z" clip-rule="evenodd"/><path fill="#FF0" fill-rule="evenodd" d="M133 133c-17.927 0-35.025 3.547-50.631 9.977 3.826 51.595 37.088 94.998 83.052 113.475l-.081-.033c2.731-38.371 21.74-72.242 50.16-94.746C192.828 143.72 164.166 133 133 133z" clip-rule="evenodd"/><path fill="#0F0" fill-rule="evenodd" d="M82.368 142.977c3.825 51.565 37.05 94.947 82.972 113.442-.225 3.164-.34 6.359-.34 9.581 0 42.288 19.736 79.967 50.5 104.327C192.828 388.281 164.166 399 133 399 59.546 399 0 339.454 0 266c0-55.527 34.028-103.107 82.368-123.023z" clip-rule="evenodd"/><path fill="#F0F" fill-rule="evenodd" d="M347.66 142.581c-3.657 51.374-36.493 94.681-82.029 113.442-2.833-38.208-21.809-71.923-50.131-94.35C238.172 143.72 266.834 133 298 133c17.556 0 34.317 3.401 49.66 9.581z" clip-rule="evenodd"/><path fill="#00F" fill-rule="evenodd" d="M266 266c0 42.288-19.736 79.967-50.5 104.327C238.172 388.28 266.834 399 298 399c73.454 0 133-59.546 133-133 0-55.898-34.484-103.742-83.34-123.419-3.657 51.374-36.493 94.681-82.029 113.442.245 3.294.369 6.621.369 9.977z" clip-rule="evenodd"/><path fill="red" fill-rule="evenodd" d="M215.5 161.673C238.172 143.72 266.834 133 298 133c17.556 0 34.317 3.401 49.66 9.581l-.054.732c.261-3.403.394-6.843.394-10.313C348 59.546 288.454 0 215 0 141.546 0 82 59.546 82 133c0 3.356.124 6.683.369 9.977C97.975 136.547 115.073 133 133 133c31.166 0 59.828 10.72 82.5 28.673z" clip-rule="evenodd"/></svg>