<svg xmlns="http://www.w3.org/2000/svg" viewBox="0 0 512 512" width="10em"><path fill="#002833" d="M389.68 502.08L261.36 393.52l-128.4 108.56-20.64-24.4L261.36 351.6l148.96 126.08"/><path fill="#8AD5DD" d="M21.36 30.72h469.36v341.84H21.36z"/><path fill="#002833" d="M0 9.92h512v21.36H0zm0 362.64h512v21.36H0zm165.36 80h192v10.64h-192z"/><path fill="#FFF" d="M99.12 164l9.92 38.24c2.16 8.4 4.16 16.16 5.6 23.92h.48c1.68-7.6 4.16-15.68 6.64-23.76l12.32-38.4h11.52l11.68 37.6c2.8 9.04 4.96 16.96 6.72 24.56h.48c1.2-7.6 3.28-15.52 5.76-24.4L180.96 164h13.52l-24.24 75.2h-12.4l-11.52-35.92c-2.64-8.4-4.8-15.84-6.72-24.72h-.4c-1.84 9.04-4.16 16.8-6.8 24.88l-12.16 35.76h-12.4L85.12 164h14zm116.24 0l9.92 38.24c2.16 8.4 4.16 16.16 5.6 23.92h.48c1.68-7.6 4.16-15.68 6.64-23.76l12.32-38.4h11.52l11.68 37.6c2.8 9.04 4.96 16.96 6.72 24.56h.48c1.2-7.6 3.28-15.52 5.76-24.4L297.2 164h13.52l-24.24 75.2h-12.4l-11.52-35.92c-2.64-8.4-4.8-15.84-6.72-24.72h-.32c-1.84 9.04-4.16 16.8-6.8 24.88l-12.16 35.76h-12.4L201.44 164h13.92zm116.24 0l9.92 38.24c2.16 8.4 4.16 16.16 5.6 23.92h.48c1.68-7.6 4.16-15.68 6.64-23.76l12.32-38.4h11.52l11.68 37.6c2.8 9.04 4.96 16.96 6.72 24.56h.48c1.2-7.6 3.28-15.52 5.76-24.4L413.44 164h13.52l-24.24 75.2h-12.4l-11.52-35.92c-2.64-8.4-4.8-15.84-6.72-24.72h-.32c-1.84 9.04-4.16 16.8-6.8 24.88L352.8 239.2h-12.4L317.68 164h13.92z"/></svg>
