<svg xmlns="http://www.w3.org/2000/svg" viewBox="0 0 511.998 511.998" width="10em"><path fill="#EFF2FA" d="M303.684 214.136c.974-2.108 6.026-9.55 30.25-16.866 27.31-8.25 63.552-11.853 91.164-11.853 19.12 0 34.094 1.728 39.13 4.832 13.37 8.23 19.206 57.45.904 100.24-15.577 36.44-97.888 40.1-119.56 32.96-10.458-3.46-24.51-21.4-34.165-43.61-11.205-25.77-14.23-51.57-7.723-65.71z"/><path fill="#E4EAF6" d="M447.585 308.088c18.302-42.788 12.466-92.004-.905-100.242-5.035-3.104-20.01-4.832-39.13-4.832-27.61 0-63.852 3.604-91.163 11.853-6.028 1.82-10.862 3.648-14.75 5.4.528-2.22 1.197-4.285 2.047-6.133.974-2.108 6.026-9.55 30.25-16.866 27.31-8.25 63.552-11.853 91.164-11.853 19.12 0 34.094 1.728 39.13 4.832 13.37 8.237 19.206 57.452.904 100.242-3.4 7.95-10.094 14.26-18.53 19.32.298-.59.722-1.12.983-1.73z"/><path fill="#EFF2FA" d="M200.698 279.997c-9.655 22.22-23.706 40.15-34.164 43.612-21.673 7.13-103.982 3.47-119.56-32.97-18.303-42.79-12.467-92.01.904-100.24 5.035-3.11 20.01-4.83 39.13-4.83 27.61 0 63.852 3.6 91.163 11.85 24.23 7.31 29.28 14.76 30.25 16.86 6.51 14.15 3.49 39.94-7.72 65.71z"/><path fill="#5B5D6E" d="M503.172 176.53h-28.068c-.576-.422-1.107-.94-1.708-1.31-19.215-11.837-97.62-9.06-144.672 5.146-4.246 1.282-8.17 2.626-11.774 4.035-8.214 3.22-16.615 6.01-25.343 7.29-11.015 1.61-23.007 2.51-35.607 2.51-12.598 0-24.59-.894-35.606-2.5-8.73-1.27-17.13-4.067-25.346-7.28-3.605-1.41-7.527-2.755-11.772-4.036-47.034-14.207-125.448-16.983-144.664-5.15-.604.37-1.135.89-1.714 1.313H8.828c-4.875 0-8.828 3.954-8.828 8.83v19.73c0 4.215 2.108 8.15 5.614 10.49l8.164 5.445c2.547 1.7 3.955 4.554 3.86 7.61-.67 21.675 3.566 46.5 13.094 68.79 15.37 35.945 68.733 46.768 106.974 46.768 14.69 0 27.155-1.59 34.362-3.98 18.638-6.16 35.37-31.582 44.828-53.33 8.1-18.632 12.28-36.8 12.49-52.51.04-3.04 1.512-5.81 4.073-7.444 6.08-3.884 13.9-6.254 22.54-6.254 8.63 0 16.46 2.37 22.54 6.254 2.56 1.637 4.03 4.408 4.07 7.448.21 15.71 4.39 33.876 12.49 52.51 9.45 21.746 26.19 47.17 44.83 53.33 7.2 2.39 19.66 3.984 34.36 3.984 38.24 0 91.6-10.83 106.97-46.767 9.52-22.294 13.76-47.12 13.09-68.79-.1-3.06 1.31-5.91 3.86-7.61l8.16-5.44c3.51-2.34 5.612-6.28 5.612-10.495v-19.75c.002-4.873-3.95-8.826-8.826-8.826zM200.698 279.843c-9.655 22.22-23.706 40.15-34.164 43.612-21.673 7.138-103.982 3.478-119.56-32.966-18.303-42.79-12.467-92.01.904-100.25 5.035-3.11 20.01-4.83 39.13-4.83 27.61 0 63.852 3.6 91.163 11.85 24.23 7.31 29.28 14.76 30.25 16.86 6.51 14.15 3.49 39.942-7.72 65.71zm264.328 10.647c-15.577 36.45-97.888 40.094-119.56 32.965-10.458-3.46-24.51-21.393-34.165-43.612-11.2-25.768-14.23-51.56-7.72-65.707.98-2.108 6.03-9.55 30.25-16.866 46.22-13.96 117.99-14.62 130.3-7.017 13.36 8.232 19.2 57.448.9 100.236z"/><path fill="#E4EAF6" d="M64.522 308.088c-18.302-42.788-12.466-92.004.905-100.242 5.035-3.104 20.01-4.832 39.13-4.832 27.61 0 63.852 3.604 91.163 11.853 6.028 1.82 10.862 3.648 14.75 5.4-.528-2.22-1.197-4.285-2.047-6.133-.974-2.108-6.026-9.55-30.25-16.866-27.31-8.25-63.552-11.853-91.164-11.853-19.13 0-34.1 1.728-39.13 4.832-13.37 8.237-19.21 57.452-.91 100.242 3.4 7.95 10.09 14.26 18.53 19.32-.3-.59-.73-1.12-.99-1.73z"/><g fill="#FFF"><circle cx="145.655" cy="287.029" r="22.069"/><circle cx="112.519" cy="253.892" r="10.996"/><circle cx="406.069" cy="287.029" r="22.069"/><circle cx="372.921" cy="253.892" r="10.996"/></g></svg>
