<svg xmlns="http://www.w3.org/2000/svg" viewBox="0 0 219.78 80.4"><defs><linearGradient id="a" x1="33.5" x2="33.5" y1="1.31" y2="79.23" gradientUnits="userSpaceOnUse"><stop offset=".3" stop-color="#ff1b2d"/><stop offset=".44" stop-color="#fa1a2c"/><stop offset=".59" stop-color="#ed1528"/><stop offset=".76" stop-color="#d60e21"/><stop offset=".93" stop-color="#b70519"/><stop offset="1" stop-color="#a70014"/></linearGradient><linearGradient id="b" x1="53.68" x2="53.68" y1="5.9" y2="74.82" gradientUnits="userSpaceOnUse"><stop offset="0" stop-color="#9c0000"/><stop offset=".7" stop-color="#ff4b4b"/></linearGradient></defs><path fill="url(#a)" d="M27 62.85c-4.44-5.25-7.32-13-7.52-21.71v-1.89c.2-8.7 3.07-16.46 7.52-21.71 5.73-7.48 14.31-12.23 23.88-12.23A29 29 0 0 1 67 10.23 40 40 0 0 0 40.35 0h-.15a40.2 40.2 0 0 0-1.91 80.35h1.91A40 40 0 0 0 67 70.17a29 29 0 0 1-16.11 4.92c-9.58 0-18.16-4.75-23.89-12.24z"/><path fill="url(#b)" d="M27 17.55c3.69-4.35 8.45-7 13.66-7 11.7 0 21.19 13.27 21.19 29.63s-9.52 29.65-21.22 29.65c-5.2 0-10-2.63-13.66-7 5.77 7.49 14.34 12.24 23.91 12.24A29 29 0 0 0 67 70.17a40.19 40.19 0 0 0 0-59.93 29 29 0 0 0-16.12-4.93c-9.57 0-18.15 4.75-23.88 12.24z"/><path d="M142.65 33.84a10.93 10.93 0 0 0-8.7 4.34v-3.75h-2.83V67H134V55.32a10.93 10.93 0 0 0 8.7 4.33c6.61 0 12-5.79 12-12.91s-5.43-12.9-12.05-12.9zm0 23c-5.07 0-9.19-4.53-9.19-10.11s4.12-10.11 9.19-10.11 9.19 4.53 9.19 10.11-4.12 10.12-9.19 10.12zm-31.57-32.51c-9.47 0-17.18 8.08-17.18 18s7.71 18 17.18 18 17.18-8.08 17.18-18-7.71-18-17.18-18zm0 33.31c-8 0-14.47-6.86-14.47-15.3S103.1 27 111.08 27s14.47 6.86 14.47 15.3-6.49 15.33-14.47 15.33zm83.23-23.7a6.41 6.41 0 0 0-2.76.76 8.49 8.49 0 0 0-3.87 4.3l-.06.13v-4.5h-2.83V59h2.84V46.2a11.81 11.81 0 0 1 .87-4.69 8.86 8.86 0 0 1 2.4-3.43 5.29 5.29 0 0 1 4.45-1.31l.83.16c.16-.81.55-1.84.71-2.65a9.07 9.07 0 0 0-2.58-.34zm-25.12-.07c-6.61 0-12 5.79-12 12.91s5.38 12.91 12 12.91A12 12 0 0 0 180 52.44L177.52 51a9.2 9.2 0 0 1-8.34 5.88c-4.79 0-8.73-4.05-9.15-9.2h21.12v-.91c.03-7.59-4.9-12.9-11.96-12.9zm0 2.8c5 0 8.51 3.38 9.1 8.54h-18.18c.69-4.82 4.49-8.53 9.08-8.53zm47.76-2.24v3.75a10.93 10.93 0 0 0-8.7-4.34c-6.61 0-12 5.79-12 12.91s5.38 12.91 12 12.91a10.93 10.93 0 0 0 8.7-4.33V59h2.83V34.43zm-8.7 22.43c-5.07 0-9.19-4.53-9.19-10.11s4.12-10.11 9.19-10.11 9.19 4.53 9.19 10.11-4.12 10.1-9.19 10.1z"/></svg>
