<svg xmlns="http://www.w3.org/2000/svg" viewBox="0 0 2506 1616"><g fill="none" fill-rule="evenodd"><path stroke="#BD0FE1" stroke-width="20" d="M203.047 199.5h2166.648s99.375 30.406 99.375 150-99.375 150-99.375 150H118.36s-107.39 39.094-107.39 150 107.39 150 107.39 150h2251.335s99.375 39.125 99.375 153.156c0 114.03-99.375 145-99.375 145H118.36S10.97 1136.484 10.97 1256.53c0 120.048 107.39 159.39 107.39 159.39h2350.71"/><path fill="#BD0FE1" d="M2376.066 1464.152v-96.132l129.106 48.066"/><g transform="matrix(0 1 1 0 179.375 -.5)"><rect width="399.002" height="742.393" x=".577" y=".857" fill="#50E3C2" rx="50"/><g fill-rule="nonzero"><path fill="#FFF" stroke="#000" stroke-width="5" d="M183.685 309.413c-2.876-19.76-10.852-47.05-11.774-60.058-.81-11.5 5.68-19.7 15.69-24.25 3.62-1.644 7.86-2.55 12.32-2.55s8.71.906 12.32 2.55c10.01 4.55 16.5 12.75 15.68 24.25-.92 13.008-8.89 40.297-11.77 60.058m-61.52 16.47c-12.37-15.675-32.92-35.32-40.22-46.125-6.45-9.552-4.93-19.9 1.46-28.84 2.31-3.234 5.54-6.14 9.4-8.37 3.87-2.23 7.99-3.567 11.95-3.95 10.94-1.064 20.67 2.79 25.71 13.158 5.71 11.727 12.45 39.348 19.83 57.9m-45.29 78.45c-19.76 2.877-47.05 10.852-60.06 11.775-11.5.82-19.7-5.67-24.25-15.68-1.64-3.61-2.55-7.86-2.55-12.32s.91-8.7 2.55-12.32c4.55-10 12.75-16.49 24.25-15.68 13.01.92 40.3 8.9 60.06 11.78m.26-.96c-18.55-7.39-46.17-14.12-57.9-19.83-10.37-5.04-14.22-14.77-13.16-25.7.38-3.95 1.72-8.08 3.95-11.94 2.23-3.86 5.14-7.08 8.37-9.39 8.94-6.39 19.29-7.91 28.84-1.45 10.8 7.3 30.45 27.85 46.12 40.22m0 90.6c-15.67 12.37-35.32 32.92-46.12 40.22-9.55 6.46-19.9 4.93-28.84-1.45-3.23-2.31-6.14-5.53-8.37-9.39-2.23-3.86-3.57-7.99-3.95-11.94-1.06-10.94 2.79-20.66 13.16-25.7 11.72-5.71 39.34-12.44 57.9-19.83m45.03 45.04c-7.39 18.55-14.12 46.17-19.83 57.9-5.05 10.37-14.77 14.22-25.71 13.16-3.95-.39-8.08-1.72-11.94-3.95-3.86-2.23-7.08-5.14-9.39-8.37-6.39-8.94-7.91-19.29-1.45-28.84 7.31-10.81 27.86-30.45 40.23-46.13m61.53 16.48c2.88 19.76 10.85 47.05 11.78 60.06.81 11.5-5.68 19.7-15.68 24.25-3.61 1.65-7.86 2.55-12.32 2.55s-8.7-.9-12.32-2.55c-10-4.55-16.49-12.75-15.68-24.25.92-13 8.9-40.29 11.78-60.05m61.52-16.48c12.37 15.67 32.92 35.32 40.22 46.12 6.46 9.56 4.94 19.9-1.45 28.84-2.31 3.24-5.53 6.14-9.39 8.37-3.86 2.23-7.99 3.57-11.94 3.96-10.94 1.06-20.66-2.79-25.71-13.16-5.7-11.73-12.44-39.35-19.83-57.9m45.04-45.03c18.55 7.39 46.17 14.12 57.9 19.83 10.37 5.04 14.22 14.77 13.16 25.7-.39 3.96-1.72 8.09-3.95 11.95-2.23 3.86-5.14 7.08-8.37 9.39-8.94 6.39-19.29 7.92-28.84 1.46-10.81-7.3-30.45-27.85-46.13-40.22m16.48-61.51c19.76-2.88 47.05-10.85 60.06-11.77 11.5-.81 19.7 5.68 24.25 15.68 1.64 3.62 2.55 7.86 2.55 12.32s-.91 8.71-2.55 12.32c-4.55 10.01-12.75 16.5-24.25 15.68-13.01-.92-40.3-8.9-60.06-11.77m-45.3-78.47c7.39-18.56 14.13-46.18 19.83-57.9 5.05-10.37 14.77-14.22 25.71-13.16 3.96.38 8.09 1.72 11.95 3.95 3.87 2.23 7.09 5.14 9.4 8.37 6.39 8.94 7.91 19.29 1.46 28.84-7.3 10.8-27.85 30.45-40.22 46.12m.72.72c15.67-12.37 35.32-32.92 46.12-40.22 9.55-6.46 19.9-4.93 28.84 1.45 3.23 2.31 6.14 5.54 8.37 9.4 2.23 3.86 3.57 7.99 3.95 11.95 1.06 10.94-2.79 20.66-13.16 25.71-11.73 5.71-39.35 12.44-57.9 19.83"/><path fill="#FFD800" stroke="#020000" stroke-width="6" d="M263.886 371.888c0 35.33-28.64 63.97-63.97 63.97s-63.97-28.64-63.97-63.97 28.64-63.97 63.97-63.97 63.97 28.64 63.97 63.97z"/></g></g><g transform="matrix(0 1 1 0 1032.188 -.5)"><rect width="399.002" height="399.002" x=".577" y=".857" fill="#50E3C2" rx="50"/><g fill-rule="nonzero"><path fill="#FFF" stroke="#000" stroke-width="5" d="M184.06 138.092c-2.877-19.76-10.853-47.05-11.775-60.058-.815-11.5 5.678-19.7 15.682-24.25 3.617-1.644 7.86-2.55 12.32-2.55s8.703.906 12.32 2.55c10.004 4.55 16.497 12.75 15.682 24.25-.93 13.008-8.9 40.297-11.78 60.058m-61.52 16.47c-12.37-15.675-32.92-35.32-40.23-46.125-6.46-9.552-4.94-19.9 1.45-28.84 2.31-3.234 5.53-6.14 9.39-8.37 3.86-2.23 7.99-3.567 11.94-3.95 10.94-1.064 20.66 2.79 25.7 13.158 5.71 11.726 12.44 39.348 19.83 57.9m-45.29 78.45c-19.76 2.877-47.05 10.852-60.06 11.774-11.5.81-19.7-5.68-24.25-15.69-1.64-3.62-2.55-7.86-2.55-12.32s.91-8.71 2.55-12.32c4.55-10.01 12.75-16.5 24.25-15.69 13.01.92 40.3 8.9 60.06 11.77m.26-.96c-18.55-7.39-46.18-14.13-57.9-19.83-10.37-5.05-14.23-14.77-13.16-25.71.38-3.96 1.72-8.09 3.95-11.95 2.23-3.87 5.13-7.09 8.37-9.4 8.94-6.39 19.29-7.91 28.84-1.46 10.8 7.3 30.45 27.85 46.12 40.22m0 90.59c-15.68 12.37-35.32 32.92-46.13 40.22-9.55 6.45-19.9 4.93-28.84-1.46-3.24-2.31-6.14-5.53-8.37-9.4-2.23-3.87-3.57-8-3.95-11.95-1.07-10.94 2.79-20.66 13.16-25.71 11.72-5.7 39.34-12.44 57.9-19.83m45.03 45.04c-7.39 18.55-14.13 46.17-19.83 57.9-5.05 10.37-14.77 14.22-25.71 13.16-3.96-.39-8.09-1.72-11.95-3.95-3.86-2.23-7.08-5.14-9.39-8.37-6.39-8.94-7.91-19.29-1.46-28.84 7.31-10.81 27.86-30.45 40.23-46.13m61.53 16.5c2.87 19.76 10.85 47.05 11.77 60.05.81 11.5-5.68 19.7-15.69 24.25-3.61 1.64-7.86 2.55-12.32 2.55s-8.7-.91-12.32-2.55c-10-4.55-16.49-12.75-15.68-24.25.92-13.01 8.9-40.3 11.78-60.06m61.52-16.48c12.37 15.67 32.92 35.32 40.23 46.12 6.45 9.55 4.93 19.9-1.46 28.84-2.31 3.23-5.53 6.14-9.4 8.37-3.86 2.23-7.99 3.57-11.95 3.95-10.94 1.06-20.66-2.79-25.71-13.16-5.7-11.73-12.44-39.35-19.83-57.9m45.04-45.03c18.55 7.39 46.17 14.12 57.9 19.83 10.36 5.04 14.22 14.76 13.16 25.7-.39 3.96-1.72 8.08-3.95 11.95-2.23 3.86-5.14 7.08-8.37 9.39-8.94 6.39-19.29 7.91-28.84 1.45-10.81-7.3-30.45-27.86-46.13-40.23m16.48-61.51c19.76-2.88 47.05-10.86 60.06-11.78 11.5-.81 19.7 5.68 24.25 15.68 1.64 3.62 2.55 7.86 2.55 12.32s-.91 8.7-2.55 12.32c-4.55 10-12.75 16.49-24.25 15.68-13.01-.93-40.3-8.9-60.06-11.78m-45.29-78.46c7.39-18.56 14.13-46.18 19.83-57.9 5.05-10.37 14.77-14.22 25.71-13.16 3.96.38 8.08 1.72 11.95 3.95 3.86 2.23 7.08 5.14 9.39 8.37 6.39 8.94 7.91 19.29 1.46 28.84-7.3 10.8-27.86 30.45-40.23 46.12m.72.71c15.67-12.37 35.32-32.93 46.12-40.23 9.55-6.46 19.9-4.93 28.84 1.46 3.23 2.31 6.14 5.53 8.37 9.39 2.23 3.87 3.56 7.99 3.95 11.95 1.06 10.94-2.8 20.66-13.16 25.71-11.73 5.704-39.35 12.44-57.9 19.83"/><path fill="#FFD800" stroke="#020000" stroke-width="6" d="M264.26 200.567c0 35.33-28.64 63.97-63.97 63.97s-63.97-28.64-63.97-63.97 28.64-63.97 63.97-63.97 63.97 28.64 63.97 63.97z"/></g></g><g transform="matrix(0 1 1 0 182 599.5)"><rect width="399.002" height="568.407" x=".577" y=".453" fill="#50E3C2" rx="50"/><g fill-rule="nonzero"><path fill="#FFF" stroke="#000" stroke-width="5" d="M184.06 222.39c-2.877-19.76-10.853-47.05-11.775-60.058-.815-11.5 5.678-19.7 15.682-24.25 3.617-1.644 7.86-2.55 12.32-2.55s8.703.906 12.32 2.55c10.004 4.55 16.497 12.75 15.682 24.25-.93 13.008-8.9 40.297-11.78 60.058m-61.52 16.47c-12.37-15.675-32.92-35.32-40.23-46.125-6.46-9.552-4.94-19.9 1.45-28.84 2.31-3.234 5.53-6.14 9.39-8.37 3.86-2.23 7.99-3.567 11.94-3.95 10.94-1.064 20.66 2.79 25.7 13.158 5.71 11.726 12.44 39.347 19.83 57.9m-45.29 78.45c-19.76 2.877-47.05 10.852-60.06 11.774-11.5.816-19.7-5.677-24.25-15.68-1.64-3.618-2.55-7.862-2.55-12.322 0-4.46.91-8.703 2.55-12.32 4.55-10.004 12.75-16.497 24.25-15.682 13.01.922 40.3 8.898 60.06 11.774m.26-.957c-18.55-7.39-46.18-14.128-57.9-19.833C69.79 242.792 65.93 233.07 67 222.13c.384-3.95 1.72-8.08 3.95-11.94 2.23-3.86 5.138-7.08 8.37-9.39 8.94-6.39 19.29-7.91 28.84-1.45 10.806 7.303 30.45 27.855 46.126 40.226m0 90.588c-15.674 12.375-35.32 32.926-46.124 40.23-9.55 6.457-19.9 4.934-28.84-1.455-3.235-2.31-6.14-5.53-8.37-9.39-2.23-3.87-3.568-7.99-3.95-11.95-1.065-10.94 2.79-20.66 13.16-25.71 11.723-5.71 39.345-12.45 57.9-19.84M183.1 347.1c-7.39 18.55-14.127 46.17-19.832 57.9-5.043 10.365-14.766 14.22-25.704 13.157-3.955-.383-8.083-1.72-11.946-3.95-3.86-2.23-7.08-5.136-9.392-8.37-6.39-8.94-7.91-19.29-1.455-28.84 7.31-10.805 27.86-30.45 40.23-46.125m61.52 16.485c2.88 19.76 10.85 47.05 11.78 60.058.82 11.5-5.68 19.7-15.68 24.25-3.61 1.646-7.86 2.55-12.32 2.55s-8.7-.904-12.32-2.55c-10-4.55-16.49-12.75-15.68-24.25.92-13.01 8.9-40.295 11.78-60.055m61.52-16.48c12.37 15.676 32.92 35.32 40.23 46.126 6.46 9.554 4.93 19.9-1.45 28.84-2.31 3.236-5.53 6.14-9.39 8.37-3.86 2.23-7.99 3.57-11.94 3.95-10.94 1.066-20.66-2.79-25.7-13.156-5.71-11.73-12.45-39.35-19.83-57.9m45.04-45.03c18.55 7.39 46.17 14.124 57.9 19.83 10.37 5.043 14.22 14.766 13.16 25.704-.39 3.956-1.72 8.084-3.95 11.947-2.23 3.86-5.14 7.09-8.37 9.4-8.94 6.39-19.29 7.91-28.84 1.46-10.81-7.3-30.45-27.85-46.13-40.23m16.48-61.5c19.76-2.88 47.05-10.85 60.06-11.77 11.5-.81 19.7 5.68 24.25 15.68 1.64 3.62 2.55 7.87 2.55 12.33s-.91 8.7-2.55 12.32c-4.55 10.01-12.75 16.5-24.25 15.68-13.01-.92-40.3-8.9-60.06-11.77m-45.29-78.46c7.39-18.55 14.13-46.17 19.83-57.9 5.05-10.37 14.77-14.22 25.71-13.16 3.96.39 8.08 1.72 11.95 3.95 3.86 2.23 7.08 5.14 9.39 8.37 6.39 8.94 7.91 19.29 1.46 28.84-7.31 10.81-27.86 30.45-40.23 46.13m.72.71c15.67-12.37 35.32-32.92 46.12-40.23 9.55-6.45 19.9-4.93 28.84 1.46 3.23 2.31 6.14 5.53 8.37 9.39 2.23 3.86 3.57 7.99 3.95 11.95 1.06 10.94-2.79 20.66-13.16 25.7-11.73 5.71-39.35 12.45-57.9 19.84"/><path fill="#FFD800" stroke="#020000" stroke-width="6" d="M264.26 284.865c0 35.33-28.64 63.97-63.97 63.97s-63.97-28.64-63.97-63.97 28.64-63.97 63.97-63.97 63.97 28.64 63.97 63.97z"/></g></g><g transform="matrix(0 1 1 0 1541 -.5)"><rect width="399.002" height="786.313" x=".577" y=".547" fill="#50E3C2" rx="50"/><g fill-rule="nonzero"><path fill="#FFF" stroke="#000" stroke-width="5" d="M184.06 331.437c-2.877-19.76-10.853-47.05-11.775-60.058-.815-11.51 5.678-19.71 15.682-24.25 3.617-1.65 7.86-2.56 12.32-2.56s8.703.9 12.32 2.55c10.004 4.54 16.497 12.74 15.682 24.25-.93 13-8.9 40.29-11.78 60.05m-61.52 16.47c-12.37-15.68-32.92-35.32-40.23-46.13-6.46-9.56-4.94-19.9 1.45-28.84 2.31-3.24 5.53-6.14 9.39-8.37 3.86-2.23 7.99-3.57 11.94-3.96 10.94-1.06 20.66 2.79 25.7 13.16 5.71 11.72 12.44 39.34 19.83 57.9m-45.29 78.45c-19.76 2.87-47.05 10.85-60.06 11.77-11.5.81-19.7-5.68-24.25-15.68-1.64-3.62-2.55-7.86-2.55-12.32s.91-8.71 2.55-12.32c4.55-10.01 12.75-16.5 24.25-15.69 13.01.92 40.3 8.9 60.06 11.78m.26-.96c-18.55-7.39-46.18-14.13-57.9-19.83-10.37-5.05-14.23-14.77-13.16-25.71.38-3.96 1.72-8.09 3.95-11.95 2.23-3.87 5.13-7.09 8.37-9.4 8.94-6.39 19.29-7.91 28.84-1.46 10.8 7.3 30.45 27.85 46.12 40.22m0 90.59c-15.68 12.37-35.32 32.92-46.13 40.22-9.55 6.46-19.9 4.93-28.84-1.46-3.24-2.31-6.14-5.53-8.37-9.39-2.23-3.86-3.57-7.99-3.95-11.95-1.07-10.94 2.79-20.66 13.16-25.7 11.72-5.71 39.34-12.44 57.9-19.83m45.03 45.04c-7.39 18.55-14.13 46.17-19.83 57.89-5.05 10.37-14.77 14.22-25.71 13.16-3.96-.39-8.09-1.72-11.95-3.95-3.86-2.23-7.08-5.14-9.39-8.37-6.39-8.94-7.91-19.29-1.46-28.84 7.31-10.81 27.86-30.45 40.23-46.13m61.52 16.49c2.87 19.76 10.85 47.05 11.77 60.05.81 11.5-5.68 19.7-15.69 24.25-3.61 1.64-7.86 2.55-12.32 2.55s-8.7-.91-12.32-2.55c-10-4.55-16.5-12.75-15.68-24.25.92-13.01 8.9-40.3 11.77-60.06m61.52-16.48c12.37 15.67 32.92 35.32 40.22 46.12 6.45 9.55 4.93 19.9-1.46 28.84-2.31 3.23-5.53 6.14-9.39 8.37-3.86 2.23-7.99 3.56-11.95 3.95-10.94 1.06-20.66-2.79-25.71-13.16-5.71-11.73-12.45-39.35-19.83-57.9m45.04-45.03c18.55 7.39 46.17 14.12 57.9 19.83 10.36 5.04 14.22 14.76 13.16 25.7-.39 3.95-1.72 8.08-3.95 11.95-2.23 3.86-5.14 7.08-8.37 9.39-8.94 6.39-19.29 7.91-28.84 1.46-10.81-7.3-30.45-27.86-46.13-40.23m16.48-61.51c19.76-2.87 47.05-10.85 60.06-11.77 11.5-.81 19.7 5.68 24.25 15.68 1.64 3.62 2.55 7.86 2.55 12.32s-.91 8.7-2.55 12.32c-4.55 10.01-12.75 16.5-24.25 15.68-13.01-.92-40.3-8.89-60.06-11.77m-45.27-78.46c7.39-18.55 14.13-46.17 19.83-57.89 5.04-10.37 14.77-14.23 25.7-13.16 3.95.38 8.08 1.72 11.94 3.95 3.86 2.23 7.08 5.13 9.39 8.37 6.39 8.94 7.91 19.29 1.46 28.84-7.3 10.8-27.85 30.45-40.22 46.12m.72.71c15.68-12.37 35.32-32.92 46.13-40.228 9.55-6.46 19.9-4.93 28.84 1.46 3.23 2.31 6.14 5.53 8.37 9.39 2.23 3.86 3.57 7.99 3.95 11.94 1.06 10.93-2.79 20.66-13.16 25.7-11.73 5.7-39.35 12.44-57.9 19.83"/><path fill="#FFD800" stroke="#020000" stroke-width="6" d="M264.26 393.912c0 35.33-28.64 63.97-63.97 63.97s-63.97-28.64-63.97-63.97 28.64-63.97 63.97-63.97 63.97 28.64 63.97 63.97z"/></g></g><g transform="matrix(0 1 1 0 182 1215.92)"><rect width="399.002" height="399.002" x=".577" y=".857" fill="#50E3C2" rx="50"/><g fill-rule="nonzero"><path fill="#FFF" stroke="#000" stroke-width="5" d="M184.06 138.092c-2.877-19.76-10.853-47.05-11.775-60.058-.815-11.5 5.678-19.7 15.682-24.25 3.617-1.644 7.86-2.55 12.32-2.55s8.703.906 12.32 2.55c10.004 4.55 16.497 12.75 15.682 24.25-.93 13.008-8.9 40.297-11.78 60.058m-61.52 16.47c-12.37-15.675-32.92-35.32-40.23-46.125-6.46-9.552-4.94-19.9 1.45-28.84 2.31-3.234 5.53-6.14 9.39-8.37 3.86-2.23 7.99-3.567 11.94-3.95 10.94-1.064 20.66 2.79 25.7 13.158 5.71 11.726 12.44 39.348 19.83 57.9m-45.29 78.45c-19.76 2.877-47.05 10.852-60.06 11.774-11.5.81-19.7-5.68-24.25-15.69-1.64-3.62-2.55-7.86-2.55-12.32s.91-8.71 2.55-12.32c4.55-10.01 12.75-16.5 24.25-15.69 13.01.92 40.3 8.9 60.06 11.77m.26-.96c-18.55-7.39-46.18-14.13-57.9-19.83-10.37-5.05-14.23-14.77-13.16-25.71.38-3.96 1.72-8.09 3.95-11.95 2.23-3.87 5.13-7.09 8.37-9.4 8.94-6.39 19.29-7.91 28.84-1.46 10.8 7.3 30.45 27.85 46.12 40.22m0 90.59c-15.68 12.37-35.32 32.92-46.13 40.22-9.55 6.45-19.9 4.93-28.84-1.46-3.24-2.31-6.14-5.53-8.37-9.4-2.23-3.87-3.57-8-3.95-11.95-1.07-10.94 2.79-20.66 13.16-25.71 11.72-5.7 39.34-12.44 57.9-19.83m45.03 45.04c-7.39 18.55-14.13 46.17-19.83 57.9-5.05 10.37-14.77 14.22-25.71 13.16-3.96-.39-8.09-1.72-11.95-3.95-3.86-2.23-7.08-5.14-9.39-8.37-6.39-8.94-7.91-19.29-1.46-28.84 7.31-10.81 27.86-30.45 40.23-46.13m61.53 16.5c2.87 19.76 10.85 47.05 11.77 60.05.81 11.5-5.68 19.7-15.69 24.25-3.61 1.64-7.86 2.55-12.32 2.55s-8.7-.91-12.32-2.55c-10-4.55-16.49-12.75-15.68-24.25.92-13.01 8.9-40.3 11.78-60.06m61.52-16.48c12.37 15.67 32.92 35.32 40.23 46.12 6.45 9.55 4.93 19.9-1.46 28.84-2.31 3.23-5.53 6.14-9.4 8.37-3.86 2.23-7.99 3.57-11.95 3.95-10.94 1.06-20.66-2.79-25.71-13.16-5.7-11.73-12.44-39.35-19.83-57.9m45.04-45.03c18.55 7.39 46.17 14.12 57.9 19.83 10.36 5.04 14.22 14.76 13.16 25.7-.39 3.96-1.72 8.08-3.95 11.95-2.23 3.86-5.14 7.08-8.37 9.39-8.94 6.39-19.29 7.91-28.84 1.45-10.81-7.3-30.45-27.86-46.13-40.23m16.48-61.51c19.76-2.88 47.05-10.86 60.06-11.78 11.5-.81 19.7 5.68 24.25 15.68 1.64 3.62 2.55 7.86 2.55 12.32s-.91 8.7-2.55 12.32c-4.55 10-12.75 16.49-24.25 15.68-13.01-.93-40.3-8.9-60.06-11.78m-45.29-78.46c7.39-18.56 14.13-46.18 19.83-57.9 5.05-10.37 14.77-14.22 25.71-13.16 3.96.38 8.08 1.72 11.95 3.95 3.86 2.23 7.08 5.14 9.39 8.37 6.39 8.94 7.91 19.29 1.46 28.84-7.3 10.8-27.86 30.45-40.23 46.12m.72.71c15.67-12.37 35.32-32.93 46.12-40.23 9.55-6.46 19.9-4.93 28.84 1.46 3.23 2.31 6.14 5.53 8.37 9.39 2.23 3.87 3.56 7.99 3.95 11.95 1.06 10.94-2.8 20.66-13.16 25.71-11.73 5.704-39.35 12.44-57.9 19.83"/><path fill="#FFD800" stroke="#020000" stroke-width="6" d="M264.26 200.567c0 35.33-28.64 63.97-63.97 63.97s-63.97-28.64-63.97-63.97 28.64-63.97 63.97-63.97 63.97 28.64 63.97 63.97z"/></g></g><g transform="matrix(0 1 1 0 703.5 1215.92)"><rect width="399.002" height="1102.328" x=".577" y=".531" fill="#50E3C2" rx="50"/><g fill-rule="nonzero"><path fill="#FFF" stroke="#000" stroke-width="5" d="M184.06 489.43c-2.877-19.762-10.853-47.05-11.775-60.06-.815-11.5 5.678-19.7 15.682-24.248 3.617-1.645 7.86-2.552 12.32-2.552s8.703.907 12.32 2.552c10.004 4.55 16.497 12.748 15.682 24.25-.93 13.007-8.9 40.296-11.78 60.057m-61.52 16.47c-12.37-15.68-32.92-35.32-40.23-46.13-6.46-9.55-4.94-19.9 1.45-28.84 2.31-3.24 5.53-6.14 9.39-8.37 3.86-2.23 7.99-3.57 11.94-3.95 10.94-1.07 20.66 2.79 25.7 13.16 5.71 11.72 12.44 39.35 19.83 57.9m-45.29 78.45c-19.76 2.87-47.05 10.85-60.06 11.77-11.5.81-19.7-5.68-24.25-15.68-1.64-3.62-2.55-7.86-2.55-12.32s.91-8.71 2.55-12.32c4.55-10.01 12.75-16.5 24.25-15.68 13.01.92 40.3 8.9 60.06 11.77m.26-.96c-18.55-7.39-46.18-14.13-57.9-19.83-10.37-5.05-14.22-14.77-13.16-25.71.38-3.96 1.72-8.09 3.95-11.95 2.23-3.87 5.14-7.09 8.37-9.4 8.94-6.39 19.29-7.91 28.84-1.46 10.8 7.3 30.45 27.85 46.12 40.22m0 90.59c-15.68 12.37-35.32 32.92-46.13 40.23-9.55 6.45-19.9 4.93-28.84-1.46-3.24-2.31-6.14-5.53-8.37-9.4-2.23-3.87-3.57-7.99-3.95-11.95-1.07-10.94 2.79-20.66 13.16-25.71 11.72-5.71 39.34-12.44 57.9-19.83m45.03 45.03c-7.39 18.55-14.13 46.17-19.84 57.9-5.05 10.36-14.77 14.22-25.71 13.16-3.96-.39-8.09-1.72-11.95-3.95-3.86-2.23-7.08-5.14-9.4-8.37-6.39-8.94-7.91-19.29-1.46-28.84 7.31-10.81 27.86-30.45 40.23-46.13m61.52 16.48c2.87 19.76 10.85 47.05 11.77 60.05.82 11.5-5.68 19.7-15.68 24.25-3.61 1.64-7.86 2.55-12.32 2.55s-8.7-.91-12.32-2.55c-10-4.55-16.5-12.75-15.68-24.25.92-13.01 8.9-40.3 11.77-60.06m61.52-16.48c12.37 15.67 32.92 35.32 40.22 46.12 6.46 9.55 4.93 19.9-1.46 28.84-2.31 3.23-5.53 6.14-9.4 8.37-3.86 2.23-7.99 3.56-11.94 3.95-10.94 1.06-20.66-2.79-25.71-13.16-5.71-11.73-12.45-39.35-19.84-57.9m45.04-45.03c18.55 7.39 46.17 14.12 57.9 19.83 10.362 5.04 14.22 14.77 13.16 25.7-.39 3.95-1.72 8.08-3.95 11.94-2.23 3.86-5.14 7.08-8.37 9.39-8.94 6.39-19.29 7.91-28.84 1.46-10.81-7.3-30.45-27.85-46.13-40.23m16.48-61.51c19.76-2.88 47.05-10.85 60.06-11.78 11.5-.82 19.7 5.68 24.25 15.68 1.64 3.62 2.55 7.86 2.55 12.32s-.91 8.7-2.55 12.32c-4.55 10-12.75 16.49-24.25 15.68-13.01-.92-40.3-8.9-60.06-11.78M217.4 489.6c7.39-18.55 14.13-46.17 19.834-57.9 5.04-10.36 14.763-14.22 25.7-13.16 3.95.39 8.08 1.72 11.94 3.95 3.86 2.23 7.08 5.14 9.39 8.37 6.39 8.947 7.92 19.29 1.46 28.847-7.3 10.81-27.85 30.45-40.23 46.13m.72.71c15.68-12.37 35.32-32.92 46.13-40.223 9.55-6.46 19.9-4.94 28.84 1.45 3.23 2.31 6.14 5.53 8.37 9.39 2.23 3.865 3.563 7.99 3.95 11.95 1.06 10.936-2.795 20.66-13.16 25.703-11.73 5.708-39.35 12.445-57.9 19.83"/><path fill="#FFD800" stroke="#020000" stroke-width="6" d="M264.26 551.904c0 35.33-28.64 63.97-63.97 63.97s-63.97-28.64-63.97-63.97 28.64-63.97 63.97-63.97 63.97 28.64 63.97 63.97z"/></g></g><g transform="matrix(0 1 1 0 1928 1215.92)"><rect width="399.002" height="399.002" x=".577" y=".857" fill="#50E3C2" rx="50"/><g fill-rule="nonzero"><path fill="#FFF" stroke="#000" stroke-width="5" d="M184.06 138.092c-2.877-19.76-10.853-47.05-11.775-60.058-.815-11.5 5.678-19.7 15.682-24.25 3.617-1.644 7.86-2.55 12.32-2.55s8.703.906 12.32 2.55c10.004 4.55 16.497 12.75 15.682 24.25-.93 13.008-8.9 40.297-11.78 60.058m-61.52 16.47c-12.37-15.675-32.92-35.32-40.23-46.125-6.46-9.552-4.94-19.9 1.45-28.84 2.31-3.234 5.53-6.14 9.39-8.37 3.86-2.23 7.99-3.567 11.94-3.95 10.94-1.064 20.66 2.79 25.7 13.158 5.71 11.726 12.44 39.348 19.83 57.9m-45.29 78.45c-19.76 2.877-47.05 10.852-60.06 11.774-11.5.81-19.7-5.68-24.25-15.69-1.64-3.62-2.55-7.86-2.55-12.32s.91-8.71 2.55-12.32c4.55-10.01 12.75-16.5 24.25-15.69 13.01.92 40.3 8.9 60.06 11.77m.26-.96c-18.55-7.39-46.18-14.13-57.9-19.83-10.37-5.05-14.23-14.77-13.16-25.71.38-3.96 1.72-8.09 3.95-11.95 2.23-3.87 5.13-7.09 8.37-9.4 8.94-6.39 19.29-7.91 28.84-1.46 10.8 7.3 30.45 27.85 46.12 40.22m0 90.59c-15.68 12.37-35.32 32.92-46.13 40.22-9.55 6.45-19.9 4.93-28.84-1.46-3.24-2.31-6.14-5.53-8.37-9.4-2.23-3.87-3.57-8-3.95-11.95-1.07-10.94 2.79-20.66 13.16-25.71 11.72-5.7 39.34-12.44 57.9-19.83m45.03 45.04c-7.39 18.55-14.13 46.17-19.83 57.9-5.05 10.37-14.77 14.22-25.71 13.16-3.96-.39-8.09-1.72-11.95-3.95-3.86-2.23-7.08-5.14-9.39-8.37-6.39-8.94-7.91-19.29-1.46-28.84 7.31-10.81 27.86-30.45 40.23-46.13m61.53 16.5c2.87 19.76 10.85 47.05 11.77 60.05.81 11.5-5.68 19.7-15.69 24.25-3.61 1.64-7.86 2.55-12.32 2.55s-8.7-.91-12.32-2.55c-10-4.55-16.49-12.75-15.68-24.25.92-13.01 8.9-40.3 11.78-60.06m61.52-16.48c12.37 15.67 32.92 35.32 40.23 46.12 6.45 9.55 4.93 19.9-1.46 28.84-2.31 3.23-5.53 6.14-9.4 8.37-3.86 2.23-7.99 3.57-11.95 3.95-10.94 1.06-20.66-2.79-25.71-13.16-5.7-11.73-12.44-39.35-19.83-57.9m45.04-45.03c18.55 7.39 46.17 14.12 57.9 19.83 10.36 5.04 14.22 14.76 13.16 25.7-.39 3.96-1.72 8.08-3.95 11.95-2.23 3.86-5.14 7.08-8.37 9.39-8.94 6.39-19.29 7.91-28.84 1.45-10.81-7.3-30.45-27.86-46.13-40.23m16.48-61.51c19.76-2.88 47.05-10.86 60.06-11.78 11.5-.81 19.7 5.68 24.25 15.68 1.64 3.62 2.55 7.86 2.55 12.32s-.91 8.7-2.55 12.32c-4.55 10-12.75 16.49-24.25 15.68-13.01-.93-40.3-8.9-60.06-11.78m-45.29-78.46c7.39-18.56 14.13-46.18 19.83-57.9 5.05-10.37 14.77-14.22 25.71-13.16 3.96.38 8.08 1.72 11.95 3.95 3.86 2.23 7.08 5.14 9.39 8.37 6.39 8.94 7.91 19.29 1.46 28.84-7.3 10.8-27.86 30.45-40.23 46.12m.72.71c15.67-12.37 35.32-32.93 46.12-40.23 9.55-6.46 19.9-4.93 28.84 1.46 3.23 2.31 6.14 5.53 8.37 9.39 2.23 3.87 3.56 7.99 3.95 11.95 1.06 10.94-2.8 20.66-13.16 25.71-11.73 5.704-39.35 12.44-57.9 19.83"/><path fill="#FFD800" stroke="#020000" stroke-width="6" d="M264.26 200.567c0 35.33-28.64 63.97-63.97 63.97s-63.97-28.64-63.97-63.97 28.64-63.97 63.97-63.97 63.97 28.64 63.97 63.97z"/></g></g><g transform="matrix(0 1 1 0 844.667 599.5)"><rect width="399.002" height="399.002" x=".577" y=".857" fill="#50E3C2" rx="50"/><g fill-rule="nonzero"><path fill="#FFF" stroke="#000" stroke-width="5" d="M184.06 138.092c-2.877-19.76-10.853-47.05-11.775-60.058-.815-11.5 5.678-19.7 15.682-24.25 3.617-1.644 7.86-2.55 12.32-2.55s8.703.906 12.32 2.55c10.004 4.55 16.497 12.75 15.682 24.25-.93 13.008-8.9 40.297-11.78 60.058m-61.52 16.47c-12.37-15.675-32.92-35.32-40.23-46.125-6.46-9.552-4.94-19.9 1.45-28.84 2.31-3.234 5.53-6.14 9.39-8.37 3.86-2.23 7.99-3.567 11.94-3.95 10.94-1.064 20.66 2.79 25.7 13.158 5.71 11.726 12.44 39.348 19.83 57.9m-45.29 78.45c-19.76 2.877-47.05 10.852-60.06 11.774-11.5.81-19.7-5.68-24.25-15.69-1.64-3.62-2.55-7.86-2.55-12.32s.91-8.71 2.55-12.32c4.55-10.01 12.75-16.5 24.25-15.69 13.01.92 40.3 8.9 60.06 11.77m.26-.96c-18.55-7.39-46.18-14.13-57.9-19.83-10.37-5.05-14.23-14.77-13.16-25.71.38-3.96 1.72-8.09 3.95-11.95 2.23-3.87 5.13-7.09 8.37-9.4 8.94-6.39 19.29-7.91 28.84-1.46 10.8 7.3 30.45 27.85 46.12 40.22m0 90.59c-15.68 12.37-35.32 32.92-46.13 40.22-9.55 6.45-19.9 4.93-28.84-1.46-3.24-2.31-6.14-5.53-8.37-9.4-2.23-3.87-3.57-8-3.95-11.95-1.07-10.94 2.79-20.66 13.16-25.71 11.72-5.7 39.34-12.44 57.9-19.83m45.03 45.04c-7.39 18.55-14.13 46.17-19.83 57.9-5.05 10.37-14.77 14.22-25.71 13.16-3.96-.39-8.09-1.72-11.95-3.95-3.86-2.23-7.08-5.14-9.39-8.37-6.39-8.94-7.91-19.29-1.46-28.84 7.31-10.81 27.86-30.45 40.23-46.13m61.53 16.5c2.87 19.76 10.85 47.05 11.77 60.05.81 11.5-5.68 19.7-15.69 24.25-3.61 1.64-7.86 2.55-12.32 2.55s-8.7-.91-12.32-2.55c-10-4.55-16.49-12.75-15.68-24.25.92-13.01 8.9-40.3 11.78-60.06m61.52-16.48c12.37 15.67 32.92 35.32 40.23 46.12 6.45 9.55 4.93 19.9-1.46 28.84-2.31 3.23-5.53 6.14-9.4 8.37-3.86 2.23-7.99 3.57-11.95 3.95-10.94 1.06-20.66-2.79-25.71-13.16-5.7-11.73-12.44-39.35-19.83-57.9m45.04-45.03c18.55 7.39 46.17 14.12 57.9 19.83 10.36 5.04 14.22 14.76 13.16 25.7-.39 3.96-1.72 8.08-3.95 11.95-2.23 3.86-5.14 7.08-8.37 9.39-8.94 6.39-19.29 7.91-28.84 1.45-10.81-7.3-30.45-27.86-46.13-40.23m16.48-61.51c19.76-2.88 47.05-10.86 60.06-11.78 11.5-.81 19.7 5.68 24.25 15.68 1.64 3.62 2.55 7.86 2.55 12.32s-.91 8.7-2.55 12.32c-4.55 10-12.75 16.49-24.25 15.68-13.01-.93-40.3-8.9-60.06-11.78m-45.29-78.46c7.39-18.56 14.13-46.18 19.83-57.9 5.05-10.37 14.77-14.22 25.71-13.16 3.96.38 8.08 1.72 11.95 3.95 3.86 2.23 7.08 5.14 9.39 8.37 6.39 8.94 7.91 19.29 1.46 28.84-7.3 10.8-27.86 30.45-40.23 46.12m.72.71c15.67-12.37 35.32-32.93 46.12-40.23 9.55-6.46 19.9-4.93 28.84 1.46 3.23 2.31 6.14 5.53 8.37 9.39 2.23 3.87 3.56 7.99 3.95 11.95 1.06 10.94-2.8 20.66-13.16 25.71-11.73 5.704-39.35 12.44-57.9 19.83"/><path fill="#FFD800" stroke="#020000" stroke-width="6" d="M264.26 200.567c0 35.33-28.64 63.97-63.97 63.97s-63.97-28.64-63.97-63.97 28.64-63.97 63.97-63.97 63.97 28.64 63.97 63.97z"/></g></g><g transform="matrix(0 1 1 0 1338.333 599.5)"><rect width="399.002" height="494.815" x=".577" y=".857" fill="#50E3C2" rx="50"/><g fill-rule="nonzero"><path fill="#FFF" stroke="#000" stroke-width="5" d="M184.06 185.998c-2.877-19.76-10.853-47.05-11.775-60.058-.815-11.5 5.678-19.7 15.682-24.25 3.617-1.644 7.86-2.55 12.32-2.55s8.703.906 12.32 2.55c10.004 4.55 16.497 12.75 15.682 24.25-.93 13.008-8.9 40.297-11.78 60.058m-61.52 16.47c-12.37-15.675-32.92-35.32-40.23-46.125-6.46-9.552-4.94-19.9 1.45-28.84 2.31-3.234 5.53-6.14 9.39-8.37 3.86-2.23 7.99-3.567 11.94-3.95 10.94-1.064 20.66 2.79 25.7 13.158 5.71 11.73 12.44 39.35 19.83 57.9m-45.29 78.45c-19.76 2.88-47.05 10.86-60.06 11.78-11.5.82-19.7-5.68-24.25-15.68-1.64-3.61-2.55-7.86-2.55-12.32s.91-8.7 2.55-12.32c4.55-10 12.75-16.5 24.25-15.68 13.01.93 40.3 8.9 60.06 11.78m.26-.96c-18.55-7.39-46.18-14.12-57.9-19.83-10.37-5.04-14.23-14.77-13.16-25.7.38-3.95 1.72-8.08 3.95-11.94 2.23-3.86 5.13-7.08 8.37-9.39 8.94-6.39 19.29-7.91 28.84-1.45 10.8 7.31 30.45 27.86 46.12 40.23m0 90.59c-15.68 12.37-35.32 32.92-46.13 40.22-9.55 6.46-19.9 4.93-28.84-1.45-3.24-2.31-6.14-5.53-8.37-9.39-2.23-3.86-3.57-7.99-3.95-11.94-1.07-10.94 2.79-20.66 13.16-25.7 11.72-5.7 39.34-12.44 57.9-19.83m45.07 45c-7.39 18.55-14.13 46.17-19.84 57.9-5.05 10.37-14.77 14.22-25.71 13.16-3.96-.38-8.09-1.72-11.95-3.95-3.86-2.23-7.08-5.13-9.39-8.37-6.39-8.94-7.91-19.29-1.46-28.84 7.31-10.8 27.86-30.45 40.23-46.12m61.52 16.49c2.88 19.76 10.85 47.05 11.78 60.06.82 11.5-5.68 19.7-15.68 24.25-3.61 1.65-7.86 2.55-12.32 2.55s-8.7-.9-12.32-2.55c-10-4.55-16.49-12.75-15.68-24.25.92-13 8.9-40.29 11.78-60.05m61.52-16.48c12.37 15.68 32.92 35.32 40.23 46.13 6.46 9.56 4.93 19.9-1.45 28.84-2.31 3.24-5.53 6.14-9.39 8.37-3.86 2.23-7.99 3.57-11.94 3.96-10.94 1.06-20.66-2.79-25.71-13.16-5.71-11.73-12.45-39.35-19.84-57.9m45.04-45.03c18.55 7.39 46.17 14.12 57.9 19.83 10.36 5.04 14.22 14.77 13.16 25.7-.39 3.96-1.72 8.09-3.95 11.95-2.23 3.86-5.14 7.08-8.37 9.39-8.94 6.39-19.29 7.92-28.84 1.46-10.81-7.3-30.45-27.85-46.13-40.23m16.48-61.51c19.76-2.87 47.05-10.85 60.06-11.77 11.5-.81 19.7 5.68 24.25 15.69 1.64 3.62 2.55 7.86 2.55 12.32s-.91 8.71-2.55 12.32c-4.55 10.01-12.75 16.5-24.25 15.68-13.01-.92-40.3-8.89-60.06-11.77m-45.29-78.46c7.39-18.55 14.12-46.17 19.83-57.9 5.04-10.36 14.76-14.22 25.7-13.16 3.95.39 8.08 1.72 11.94 3.95 3.86 2.23 7.08 5.14 9.39 8.37 6.39 8.94 7.91 19.29 1.46 28.84-7.31 10.81-27.86 30.45-40.23 46.13m.72.72c15.67-12.37 35.32-32.92 46.12-40.23 9.55-6.45 19.9-4.93 28.84 1.46 3.23 2.31 6.14 5.53 8.37 9.4 2.23 3.86 3.56 7.99 3.95 11.95 1.06 10.94-2.79 20.66-13.16 25.71-11.73 5.71-39.35 12.45-57.9 19.83"/><path fill="#FFD800" stroke="#020000" stroke-width="6" d="M264.26 248.473c0 35.33-28.64 63.97-63.97 63.97s-63.97-28.64-63.97-63.97 28.64-63.97 63.97-63.97 63.97 28.64 63.97 63.97z"/></g></g><g transform="matrix(0 1 1 0 1928 599.5)"><rect width="399.002" height="399.002" x=".577" y=".857" fill="#50E3C2" rx="50"/><g fill-rule="nonzero"><path fill="#FFF" stroke="#000" stroke-width="5" d="M184.06 138.092c-2.877-19.76-10.853-47.05-11.775-60.058-.815-11.5 5.678-19.7 15.682-24.25 3.617-1.644 7.86-2.55 12.32-2.55s8.703.906 12.32 2.55c10.004 4.55 16.497 12.75 15.682 24.25-.93 13.008-8.9 40.297-11.78 60.058m-61.52 16.47c-12.37-15.675-32.92-35.32-40.23-46.125-6.46-9.552-4.94-19.9 1.45-28.84 2.31-3.234 5.53-6.14 9.39-8.37 3.86-2.23 7.99-3.567 11.94-3.95 10.94-1.064 20.66 2.79 25.7 13.158 5.71 11.726 12.44 39.348 19.83 57.9m-45.29 78.45c-19.76 2.877-47.05 10.852-60.06 11.774-11.5.81-19.7-5.68-24.25-15.69-1.64-3.62-2.55-7.86-2.55-12.32s.91-8.71 2.55-12.32c4.55-10.01 12.75-16.5 24.25-15.69 13.01.92 40.3 8.9 60.06 11.77m.26-.96c-18.55-7.39-46.18-14.13-57.9-19.83-10.37-5.05-14.23-14.77-13.16-25.71.38-3.96 1.72-8.09 3.95-11.95 2.23-3.87 5.13-7.09 8.37-9.4 8.94-6.39 19.29-7.91 28.84-1.46 10.8 7.3 30.45 27.85 46.12 40.22m0 90.59c-15.68 12.37-35.32 32.92-46.13 40.22-9.55 6.45-19.9 4.93-28.84-1.46-3.24-2.31-6.14-5.53-8.37-9.4-2.23-3.87-3.57-8-3.95-11.95-1.07-10.94 2.79-20.66 13.16-25.71 11.72-5.7 39.34-12.44 57.9-19.83m45.03 45.04c-7.39 18.55-14.13 46.17-19.83 57.9-5.05 10.37-14.77 14.22-25.71 13.16-3.96-.39-8.09-1.72-11.95-3.95-3.86-2.23-7.08-5.14-9.39-8.37-6.39-8.94-7.91-19.29-1.46-28.84 7.31-10.81 27.86-30.45 40.23-46.13m61.53 16.5c2.87 19.76 10.85 47.05 11.77 60.05.81 11.5-5.68 19.7-15.69 24.25-3.61 1.64-7.86 2.55-12.32 2.55s-8.7-.91-12.32-2.55c-10-4.55-16.49-12.75-15.68-24.25.92-13.01 8.9-40.3 11.78-60.06m61.52-16.48c12.37 15.67 32.92 35.32 40.23 46.12 6.45 9.55 4.93 19.9-1.46 28.84-2.31 3.23-5.53 6.14-9.4 8.37-3.86 2.23-7.99 3.57-11.95 3.95-10.94 1.06-20.66-2.79-25.71-13.16-5.7-11.73-12.44-39.35-19.83-57.9m45.04-45.03c18.55 7.39 46.17 14.12 57.9 19.83 10.36 5.04 14.22 14.76 13.16 25.7-.39 3.96-1.72 8.08-3.95 11.95-2.23 3.86-5.14 7.08-8.37 9.39-8.94 6.39-19.29 7.91-28.84 1.45-10.81-7.3-30.45-27.86-46.13-40.23m16.48-61.51c19.76-2.88 47.05-10.86 60.06-11.78 11.5-.81 19.7 5.68 24.25 15.68 1.64 3.62 2.55 7.86 2.55 12.32s-.91 8.7-2.55 12.32c-4.55 10-12.75 16.49-24.25 15.68-13.01-.93-40.3-8.9-60.06-11.78m-45.29-78.46c7.39-18.56 14.13-46.18 19.83-57.9 5.05-10.37 14.77-14.22 25.71-13.16 3.96.38 8.08 1.72 11.95 3.95 3.86 2.23 7.08 5.14 9.39 8.37 6.39 8.94 7.91 19.29 1.46 28.84-7.3 10.8-27.86 30.45-40.23 46.12m.72.71c15.67-12.37 35.32-32.93 46.12-40.23 9.55-6.46 19.9-4.93 28.84 1.46 3.23 2.31 6.14 5.53 8.37 9.39 2.23 3.87 3.56 7.99 3.95 11.95 1.06 10.94-2.8 20.66-13.16 25.71-11.73 5.704-39.35 12.44-57.9 19.83"/><path fill="#FFD800" stroke="#020000" stroke-width="6" d="M264.26 200.567c0 35.33-28.64 63.97-63.97 63.97s-63.97-28.64-63.97-63.97 28.64-63.97 63.97-63.97 63.97 28.64 63.97 63.97z"/></g></g></g></svg>
