<svg xmlns="http://www.w3.org/2000/svg" viewBox="0 0 842 385" xmlns:xlink="http://www.w3.org/1999/xlink"><defs><path id="a" d="M465 0h305v305H465z"/><mask id="b" width="315" height="315" x="-5" y="-5"><path fill="#fff" d="M460-5h315v315H460z"/><use xlink:href="#a"/></mask><path id="c" d="M0 0h460v305H0z"/></defs><g fill="none" fill-rule="evenodd"><text fill="#fff" font-family="MagneticPro-Medium, Magnetic Pro" font-size="24" font-weight="400" transform="translate(784 -8)"><tspan x="46.488" y="24">1</tspan></text><text fill="#fff" font-family="MagneticPro-Medium, Magnetic Pro" font-size="24" font-weight="400" transform="translate(784 -8)"><tspan x="45.936" y="189">2</tspan></text><text fill="#fff" font-family="MagneticPro-Medium, Magnetic Pro" font-size="24" font-weight="400" transform="translate(784 -8)"><tspan x="44.816" y="333">3</tspan></text><path stroke="#979797" stroke-width="3" d="M784 7.5h35m-35 155h35m-35 155h35"/><g transform="translate(9 10)"><use stroke="#4990E2" stroke-width="10" mask="url(#b)" stroke-dasharray="10" xlink:href="#a"/><use fill="#333" xlink:href="#c"/><path stroke="#fff" stroke-width="5" d="M-2.5-2.5h465v310h-465z"/><path stroke="#fff" stroke-width="5" d="M307.5 0v305M0 152.5h460" stroke-linecap="square"/><path stroke="#4990E2" stroke-width="5" d="M467.5 152.5h300" stroke-linecap="square" stroke-dasharray="5 9"/><path stroke="#fff" stroke-width="5" d="M152.5 0v305" stroke-linecap="square"/><path stroke="#4990E2" stroke-width="5" d="M617.5 2.5v300" stroke-linecap="square" stroke-dasharray="5 9"/></g><path stroke="#979797" stroke-width="3" d="M6.5 320v35m155-35v35m155-35v35m155-35v35"/><text fill="#fff" font-family="MagneticPro-Medium, Magnetic Pro" font-size="24" font-weight="400" transform="translate(-1 320)"><tspan x="1.488" y="64">1</tspan></text><text fill="#fff" font-family="MagneticPro-Medium, Magnetic Pro" font-size="24" font-weight="400" transform="translate(-1 320)"><tspan x="157.936" y="64">2</tspan></text><text fill="#fff" font-family="MagneticPro-Medium, Magnetic Pro" font-size="24" font-weight="400" transform="translate(-1 320)"><tspan x="310.816" y="64">3</tspan></text><text fill="#fff" font-family="MagneticPro-Medium, Magnetic Pro" font-size="24" font-weight="400" transform="translate(-1 320)"><tspan x="464.54" y="64">4</tspan></text><path stroke="#979797" stroke-width="3" d="M626.5 320v35"/><text fill="#fff" font-family="MagneticPro-Medium, Magnetic Pro" font-size="24" font-weight="400" transform="translate(-1 320)"><tspan x="619.828" y="64">5</tspan></text><path stroke="#979797" stroke-width="3" d="M781.5 320v35"/><text fill="#fff" font-family="MagneticPro-Medium, Magnetic Pro" font-size="24" font-weight="400" transform="translate(-1 320)"><tspan x="774.684" y="64">6</tspan></text><path fill="#7ED321" fill-opacity=".75" d="M629 165h150v150H629z"/><text fill="#fff" font-family="MagneticPro-Medium, Magnetic Pro" font-size="36" font-weight="400" transform="translate(629 165)"><tspan x="28.344" y="84">.item</tspan></text></g></svg>
