<svg xmlns="http://www.w3.org/2000/svg" fill="none" viewBox="0 0 2181 1070"><path fill="#E0B386" d="M832.514 1026.8c4.6-11.5 20.3-10.9 32.2-15.1-1.8-.5-4.3-1.2-7.4-1.7-13.1.6-26.9 3.7-33.3 14.4-7.2 10.9 13.3 15.7 20.5 25.3 1.2 1.2-2.4 2.4-1.2 4.8-3.6 0-6.4 1.7-8.2 4.2v.1c1.1 3.3 4.2 5.4 7.4 5.4.8 0 1.7-.1 2.5-.4 6.2-2.1 9.8-5.6 10.6-10.3.4-2.2.2-4.1-.5-5.9-10.8-3.9-26-10.8-22.6-20.8Z"/><path fill="#C09166" d="M867.514 1012.6c-.2-.1-1.2-.4-2.8-.9-11.9 4.2-27.6 3.5-32.2 15.1-3.3 10 11.8 16.9 22.7 20.8-1.8-4.5-6.6-7.6-12.2-11.9-20.9-15.9 21.5-9.4 21.8-9.3 4 1.5 5.8.4 7.3-3.7 1.5-4-.5-8.6-4.6-10.1Z"/><path fill="#FAE1CB" d="M843.314 1054.5c-1.2-2.4 2.4-3.6 1.2-4.8-7.2-9.6-27.7-14.5-20.5-25.3 6.4-10.6 20.2-13.7 33.3-14.4-8.9-1.5-22-1.8-33.1 5.5-5.2 3.4-6.4 7.6-6.5 10.5-.3 8.2 7.4 14.2 14.8 20 1.4 1.1 3.4 2.7 5.1 4.1-2.4 2-3.5 5.3-2.5 8.5 1.9-2.3 4.6-4.1 8.2-4.1Z"/><path fill="#64321C" d="M842.614 1066c-4.2 0-7.8-2.7-9.2-6.6-1-3.1-.4-6.5 1.6-9-1.2-1-2.5-2-3.5-2.8-7.8-6.1-15.9-12.4-15.5-21.5.1-3.4 1.5-8.2 7.3-12 6.7-4.4 14.9-6.7 24.1-6.7 11.1 0 19.8 3.2 20.8 3.6 2.4.9 4.3 2.7 5.4 5.1 1.1 2.3 1.1 5 .2 7.4-1 2.5-2.5 5.5-6.1 5.5-1 0-2.1-.2-3.4-.7-1.3-.2-9.1-1.3-15.8-1.3-8.7 0-9.4 1.8-9.4 1.8s-.4 1.5 5 5.7c.7.6 1.5 1.1 2.2 1.7 6.8 5.1 12.7 9.4 11.2 17.8-.9 5.5-4.9 9.4-11.9 11.7-1 .1-2 .3-3 .3Zm4.8-55c-8.6 0-16 2.1-22.1 6.1-4.5 3-5.6 6.6-5.7 9.1-.3 7.3 7 13 14.1 18.5 1.5 1.1 3.5 2.7 5.1 4.1l1.6 1.4-1.7 1.4c-1.9 1.6-2.7 4.2-1.9 6.6.8 2.5 3.1 4.1 5.7 4.1.6 0 1.3-.1 1.9-.3 5.6-1.9 8.7-4.9 9.4-8.9 1-5.9-2.7-9-9.8-14.3-.7-.5-1.5-1.1-2.2-1.7-3.3-2.5-7.5-6.2-6.3-9.7 1-2.9 5.1-4.2 12.8-4.2 7.5 0 16.5 1.3 17 1.5.9.4 1.7.5 2.3.5.6 0 1.5 0 2.7-3.1.6-1.5.5-3.1-.1-4.6-.7-1.5-1.9-2.6-3.4-3.2-.3-.1-8.9-3.3-19.4-3.3Z"/><path fill="#FAE1CB" d="M973.615 964.1c-6-24.1-32.6-20.5-51.9-28.9-9.7-4.9-21.8-8.2-31.1-15.6-.1.7-.1 1.3-.2 2v.3-.3c-5.4 43.5-22.9 88.3-22.9 131.8 0 1.8.3 3.7.9 5.5 6.5 4.7 15.3 7.3 22.6 7.6 29.1 1.4 58.1 1.4 87.2 0 4.8-.2 10.2-1.4 15.2-3.5 3-34.3-10.6-65.5-19.8-98.9Z"/><path fill="#C4A188" d="M961.214 1029.6c-.7.8 1.1 36.3 5.9 37.1 4.8.8 22.9-2.4 29.8-5.4 6.896-3 6.696-18.2 6.696-18.2l-11.396-10.4s3.6 12.2-3.2 18.4c-6.8 6.2-18.2 2.4-19.9-7.2-1.7-9.7-4.5-18-7.9-14.3Zm-53.4 0s2.7-1.7 3.6 0c.9 1.7.8 28.9 4.8 33.3 4.1 4.4 9.5 4.2 8.9 4.1-.6-.1-20.8-1.6-20.8-1.6l3.5-35.8Z"/><path fill="#B97C42" d="M890.614 919.6c-.1-.1-.2-.1-.2-.2v2.2c0-.7.1-1.4.2-2Z"/><path fill="#fff" d="M890.414 921.5v-2.2c-.4-.3-.8-.7-1.2-1-9.9 39.8-19.7 79.6-29.6 119.4-2.1 9.2 2.1 16.2 8.7 21-.6-1.9-.9-3.7-.9-5.5 0-43.3 17.6-88.2 23-131.7Z"/><path fill="#C4A188" d="M1009.51 1037.8c-11.096-44.9-22.296-89.9-33.396-134.8-2.7-10.5-10.5-23.6-22.7-24.2-12.6.7-25.2.7-37.8 0-12.2.6-20 13.7-22.7 24.2-1.3 5.1-2.5 10.2-3.8 15.4 9.5 8.3 22.4 11.7 32.6 16.8 19.3 8.4 45.8 4.8 51.9 28.9 9.2 33.4 22.8 64.6 19.8 98.9 10.396-4.5 18.996-12.9 16.096-25.2Z"/><path fill="#CE9B6D" d="M994.514 975.3s-12.4-1.9-17.8 7.2-6.8 16.6 0 22.7c6.8 6-2.1 14 10.1 18.4 12.2 4.4 18.896-1 18.896-1l-11.196-47.3Z"/><path fill="#B27C54" d="M1005.71 1022.5c-3.9-15.8-7.796-31.6-11.696-47.3-2.1-.2-10.5-.7-15.7 5.1 4.6 14.9 9.3 29.5 12.4 44.3 9.696 2.1 14.996-2.1 14.996-2.1Z"/><path fill="#64321C" d="M934.514 1069.3c-14.5 0-29.2-.4-43.7-1-9.8-.4-22.8-4.8-29.4-13.5-3.8-5-5.1-11-3.6-17.3l33.4-134.8c3.2-12.3 11.9-25 24.3-25.6h.2c12.5.7 25.2.7 37.6 0h.2c12.4.6 21.2 13.3 24.3 25.6l33.396 134.8c1.5 6.3.2 12.3-3.6 17.3-6.7 8.8-19.596 13.1-29.396 13.5-14.5.6-29.2 1-43.7 1Zm-18.9-188.7c-10.6.6-18.1 11.9-20.9 22.9l-33.4 134.8c-1.2 5.2-.2 10.1 3 14.3 5.9 7.8 18 11.7 26.7 12.1 14.5.7 29.1 1 43.5 1 14.4 0 29.1-.3 43.5-1 8.7-.4 20.8-4.3 26.696-12.1 3.2-4.2 4.2-9 3-14.3l-33.396-134.8c-2.8-10.9-10.4-22.2-20.9-22.8-12.5.6-25.2.6-37.8-.1Z"/><path fill="#64321C" d="m906.167 1028.52 3.586.33-3.495 38.44-3.586-.33 3.495-38.44Zm56.791-.05 3.487 38.44-3.585.33-3.488-38.45 3.586-.32Z"/><path fill="#FAE1CB" d="M821.114 727.8c-1-13.3 7-17.9 18-10.3l30.4 21.4c10.9 7.7 28.8 20.3 39.8 27.9l30.4 21.4c10.9 7.7 10.4 19.4-1.2 26l-21.2 12.1c-11.6 6.6-30.6 17.5-42.2 24.1l-21.2 12.1c-11.6 6.6-22 1.1-23-12.2l-2.9-37c-1-13.3-2.8-35.1-3.8-48.4l-3.1-37.1Z"/><path fill="#FAE1CB" d="M1048.01 727.8c1-13.3-7-17.9-18-10.3l-30.396 21.4c-10.9 7.7-28.8 20.3-39.8 27.9l-30.4 21.4c-10.9 7.7-10.4 19.4 1.2 26l21.2 12.1c11.6 6.6 30.6 17.5 42.2 24.1l21.196 12.1c11.6 6.6 22 1.1 23-12.2l2.9-37c1-13.3 2.8-35.1 3.8-48.4l3.1-37.1Z"/><path fill="#fff" d="m833.214 783.5-5.5-49.7s-2.8-20.9 7.4-20c0 0-14.7-2.1-14 10.3.7 12.4 5.3 70 5.3 70l6.8-10.6Z"/><path fill="#64321C" d="M844.214 867.1c-8.5 0-14.5-6.5-15.3-16.7l-9.6-122.5c-.4-5.7.7-10.2 3.2-13 1.8-1.9 4.2-2.9 6.9-2.9 3.3 0 6.8 1.4 10.7 4l100.5 70.6c5.8 4.1 8.9 9.4 8.6 15-.3 5.6-3.8 10.6-10 14.1l-84.6 48.3c-3.5 2-7 3.1-10.4 3.1Zm-14.8-151.5c-1.7 0-3.2.6-4.3 1.8-1.8 2-2.7 5.6-2.3 10.3l9.6 122.5c.6 8.2 5.1 13.3 11.7 13.3 2.7 0 5.7-.9 8.6-2.6l84.6-48.3c5.1-2.9 8-6.8 8.2-11.1.2-4.3-2.3-8.5-7.1-11.8l-100.4-70.7c-3.2-2.2-6.1-3.4-8.6-3.4Z"/><path fill="#64321C" d="M1024.91 867.1c-3.4 0-6.9-1-10.4-3l-84.596-48.3c-6.2-3.5-9.7-8.5-10-14.1-.3-5.6 2.8-10.9 8.6-15L1029.01 716c3.8-2.7 7.4-4 10.7-4 2.8 0 5.1 1 6.9 2.9 2.6 2.8 3.7 7.3 3.2 13l-9.6 122.5c-.8 10.1-6.8 16.7-15.3 16.7Zm14.8-151.5c-2.5 0-5.4 1.2-8.6 3.4l-100.496 70.6c-4.8 3.3-7.3 7.6-7.1 11.8.2 4.3 3.1 8.2 8.2 11.1l84.596 48.3c3 1.7 5.9 2.6 8.6 2.6 6.6 0 11-5.1 11.7-13.3l9.6-122.5c.4-4.6-.5-8.3-2.3-10.3-1.1-1.1-2.5-1.7-4.2-1.7Z"/><path fill="#CE9B6D" d="M845.014 853.1c-.4 0-.9.1-1 0-.1 0-.4-.3-.6-.6-.3-.3-.9-6.5-1.2-10.5l-8.4-106.7c-.3-4 2.1-5.3 5.4-3.1l87.6 61.6c3.3 2.3 6.5 4.8 7.3 5.5.7.8 1.2 1.9 1 2.3-.2.4-5.5 3.6-8.9 5.6l-72 41.1c-3.6 2-8.8 4.8-9.2 4.8Z"/><path fill="#CE9B6D" d="M1025.11 853.2h-1.1c-.4 0-5.6-2.8-9-4.8l-71.996-41.1c-3.5-2-6.9-4.1-7.8-4.8-.8-.7-1.4-1.8-1.2-2.2.2-.4 5.1-4.1 8.4-6.4l87.596-61.6c3.3-2.3 5.7-.9 5.4 3.1l-8.4 106.7c-.3 4-.8 8.1-1.1 9.1-.3 1-.7 2-.8 2 .1 0 .1 0 0 0Z"/><path fill="#fff" d="M839.714 860.4c-14-44.3 4.7-90.9 36.5-121.2-33.7 18.9-56.3 53.7-56.3 93.5 0 40.1 18 66.3 52.1 79.3-15.7-12.9-26.2-31.6-32.3-51.6Z"/><path fill="#FAE1CB" d="M999.614 743.3c-18.5-12.1-40.9-19.2-65-19.2-21.3 0-41.2 5.5-58.3 15.1-31.8 30.3-50.5 76.9-36.5 121.2 6.1 20 16.6 38.7 32.3 51.7 16.9 6.5 37.8 9.7 62.5 9.7 5.1 0 10.1-.1 14.9-.4 14.3-3.3 28.1-7.6 39.8-13.9 60.296-32.4 55.396-116.6 10.3-164.2Z"/><path fill="#CE9B6D" d="M955.514 725.9c-12.6 15-20.2 34.3-20.2 55.5 0 47.7 38.7 86.3 86.296 86.3 1.5 0 3 0 4.5-.1 17-39 5.2-90.7-26.696-124.4-12.8-8.4-27.8-14.4-43.9-17.3Z"/><path fill="#C4A188" d="M1049.21 832.7c0-37.1-19.6-69.9-49.595-89.5 45.095 47.7 49.995 131.8-10.3 164.2-11.7 6.3-25.5 10.6-39.8 13.9 65.495-3.7 99.695-32.7 99.695-88.6Z"/><path fill="#B27C54" d="M999.614 743.2c31.896 33.7 43.596 85.5 26.596 124.4 6.3-.3 12.5-1.4 18.4-3 3-9.5 4.6-20.1 4.6-32 0-37-19.7-69.8-49.596-89.4Z"/><path fill="#64321C" d="M934.514 923.5c-37.7 0-66.8-7.5-86.3-22.4-20-15.3-30.2-38.3-30.2-68.5 0-60.9 52.2-110.5 116.4-110.5s116.396 49.5 116.396 110.5c.2 60.4-39 90.9-116.296 90.9Zm0-197.7c-62.2 0-112.8 47.9-112.8 106.8 0 57.9 38 87.2 112.8 87.2 37.3 0 65.696-7.3 84.496-21.6 18.8-14.4 28.4-36.5 28.4-65.6 0-58.8-50.696-106.8-112.896-106.8Z"/><path fill="#64321C" d="M872.614 856.2h-42.8c-1.7 0-3-1.3-3-3s1.3-3 3-3h42.8c1.7 0 3 1.3 3 3s-1.4 3-3 3Zm0 12.1h-42.8c-1.7 0-3-1.3-3-3s1.3-3 3-3h42.8c1.7 0 3 1.3 3 3s-1.4 3-3 3Zm0 12h-42.8c-1.7 0-3-1.3-3-3s1.3-3 3-3h42.8c1.7 0 3 1.3 3 3s-1.4 3-3 3Zm167.096-24.1h-42.796c-1.7 0-3-1.3-3-3s1.3-3 3-3h42.796c1.7 0 3 1.3 3 3s-1.3 3-3 3Zm0 12.1h-42.796c-1.7 0-3-1.3-3-3s1.3-3 3-3h42.796c1.7 0 3 1.3 3 3s-1.3 3-3 3Zm0 12h-42.796c-1.7 0-3-1.3-3-3s1.3-3 3-3h42.796c1.7 0 3 1.3 3 3s-1.3 3-3 3Z"/><path fill="#fff" d="M945.714 885.9c0 6.2-5 11.2-11.2 11.2-6.2 0-11.2-5-11.2-11.2V856c0-6.2 5-11.2 11.2-11.2 6.2 0 11.2 5 11.2 11.2v29.9Z"/><path fill="#64321C" d="M934.515 898.8c-7.1 0-13-5.8-13-13V856c0-7.1 5.8-13 13-13 7.1 0 13 5.8 13 13v29.8c0 7.2-5.8 13-13 13Zm0-52.1c-5.2 0-9.3 4.2-9.3 9.3v29.8c0 5.2 4.2 9.3 9.3 9.3 5.2 0 9.3-4.2 9.3-9.3V856c.1-5.1-4.1-9.3-9.3-9.3ZM886.314 829.8c14.746 0 26.7-11.954 26.7-26.7 0-14.746-11.954-26.7-26.7-26.7-14.746 0-26.7 11.954-26.7 26.7 0 14.746 11.954 26.7 26.7 26.7ZM984.314 829.8c14.746 0 26.696-11.954 26.696-26.7 0-14.746-11.95-26.7-26.696-26.7-14.746 0-26.7 11.954-26.7 26.7 0 14.746 11.954 26.7 26.7 26.7Z"/><path fill="#fff" d="M878.014 807c6.13 0 11.1-4.97 11.1-11.1s-4.97-11.1-11.1-11.1-11.1 4.97-11.1 11.1 4.97 11.1 11.1 11.1ZM882.215 825.7a4.2 4.2 0 1 0 0-8.4 4.2 4.2 0 0 0 0 8.4ZM897.014 819.8a4.2 4.2 0 1 0 .001-8.399 4.2 4.2 0 0 0-.001 8.399ZM903.114 805.9a4.5 4.5 0 1 0 0-9 4.5 4.5 0 0 0 0 9ZM975.115 807c6.13 0 11.1-4.97 11.1-11.1s-4.97-11.1-11.1-11.1c-6.131 0-11.1 4.97-11.1 11.1s4.969 11.1 11.1 11.1ZM979.215 825.7a4.2 4.2 0 1 0 0-8.4 4.2 4.2 0 0 0 0 8.4ZM994.014 819.8a4.2 4.2 0 1 0 .001-8.399 4.2 4.2 0 0 0-.001 8.399ZM1000.11 805.9c2.49 0 4.5-2.015 4.5-4.5a4.497 4.497 0 1 0-8.996 0 4.5 4.5 0 0 0 4.496 4.5Z"/><rect width="1535" height="911.385" x="-1.025" y="-2.475" fill="#FFFDF5" stroke="#000" stroke-linejoin="round" stroke-width="7" rx="8.5" transform="matrix(1 0 -.7071 .7071 644.747 4.275)"/></svg>
