<svg viewBox="0 0 166 115" xmlns="http://www.w3.org/2000/svg"><g fill="none" fill-rule="evenodd"><path d="M1.238 8.98a.465.465 0 0 1-.24-.181.672.672 0 0 1-.135-.322.484.484 0 0 1 .094-.346c.078-.113.227-.193.445-.24 1.133.32 2.09.478 2.871.474.782-.004 1.372-.105 1.77-.304.398-.2.592-.463.58-.791-.012-.329-.24-.66-.686-.997a2.415 2.415 0 0 0-.62-.304c-.266-.094-.561-.188-.885-.282a37.032 37.032 0 0 0-1.032-.28c-.363-.095-.716-.2-1.06-.317a1.577 1.577 0 0 1-.615-.363 2.437 2.437 0 0 1-.72-1.354 2.25 2.25 0 0 1 .005-.809c.05-.27.156-.53.316-.785a2.26 2.26 0 0 1 .686-.674A5.6 5.6 0 0 1 3.946.548a4.953 4.953 0 0 1 1.048.007 3.5 3.5 0 0 1 .979.252c.304.129.574.306.808.533.235.226.414.512.54.855a.33.33 0 0 1-.083.282c-.07.078-.175.123-.316.134a1.038 1.038 0 0 1-.492-.105c-.188-.082-.39-.236-.61-.463a2.221 2.221 0 0 0-1.002-.258 4.298 4.298 0 0 0-1.125.1c-.363.082-.69.205-.978.369-.29.164-.477.355-.563.574-.086.219-.04.457.135.715.176.258.545.516 1.108.773 1.148.227 2.066.498 2.753.815.688.316 1.19.648 1.506.996.317.348.467.7.451 1.055-.015.355-.154.685-.416.99-.261.305-.625.57-1.09.797a5.597 5.597 0 0 1-1.564.48 7.252 7.252 0 0 1-1.851.047 6.305 6.305 0 0 1-1.946-.516zm9.188.516a1.94 1.94 0 0 1-.844-.568 3.239 3.239 0 0 1-.55-.914 5.819 5.819 0 0 1-.323-1.12A10.417 10.417 0 0 1 8.557 5.7c-.028-.398-.04-.78-.036-1.142.004-.364.014-.682.03-.955.015-.149.072-.258.17-.329a.599.599 0 0 1 .34-.11.874.874 0 0 1 .38.075.714.714 0 0 1 .293.223c.055.078.092.242.112.492.02.25.035.541.047.873.011.332.027.68.046 1.043.02.363.059.703.118 1.02.058.316.142.588.252.814.109.227.265.36.468.399.313-.008.56-.098.744-.27.184-.172.317-.396.399-.674.082-.277.123-.59.123-.937 0-.348-.023-.701-.07-1.06a12.07 12.07 0 0 0-.182-1.044 33.286 33.286 0 0 0-.205-.879c-.04-.187-.01-.308.088-.363a.54.54 0 0 1 .369-.041c.148.027.3.08.457.158.156.078.27.16.34.246.164.344.293.746.387 1.207.093.461.136.934.128 1.418a6.668 6.668 0 0 1-.175 1.424c-.11.465-.282.871-.516 1.219a2.366 2.366 0 0 1-.908.803c-.371.187-.815.25-1.33.187zm5.097-.41a.624.624 0 0 1-.287.299.885.885 0 0 1-.427.111.736.736 0 0 1-.416-.129c-.13-.086-.217-.23-.264-.433a2.512 2.512 0 0 1-.006-.487c.012-.246.014-.593.006-1.043a42.116 42.116 0 0 0-.07-1.675 41.877 41.877 0 0 0-.223-2.397c.164-.148.322-.203.475-.164.152.039.29.125.416.258.125.133.226.295.304.486.078.192.121.37.13.533a1.27 1.27 0 0 1 .251-.463c.129-.16.287-.306.475-.439.187-.133.396-.246.627-.34.23-.094.468-.152.715-.176.246-.023.492 0 .738.07.246.071.474.204.685.4a.46.46 0 0 1-.035.222.916.916 0 0 1-.316.404.575.575 0 0 1-.211.1c-.453-.094-.838-.088-1.154.017-.317.106-.577.28-.78.522a2.407 2.407 0 0 0-.457.884 6.111 6.111 0 0 0-.21 1.108c-.04.39-.053.789-.042 1.195.012.406.037.785.076 1.137zm4.817-.14c0 .242-.065.404-.194.486a.571.571 0 0 1-.421.082.888.888 0 0 1-.422-.205.577.577 0 0 1-.217-.387 78.43 78.43 0 0 0 .006-2.549c-.012-.902-.037-1.85-.076-2.842.062-.21.17-.343.322-.398a.478.478 0 0 1 .44.053c.14.09.247.25.322.48.074.23.064.525-.03.885.5-.735.97-1.215 1.407-1.442.437-.226.84-.273 1.207-.14.367.133.689.404.966.814.278.41.506.885.686 1.424.18.54.303 1.104.37 1.693.065.59.067 1.131.005 1.623.008.204-.053.356-.182.457a.766.766 0 0 1-.422.17.629.629 0 0 1-.416-.11c-.125-.087-.18-.22-.164-.4.055-.984.034-1.78-.064-2.39-.098-.61-.238-1.064-.422-1.365-.184-.301-.396-.467-.639-.498-.242-.032-.486.033-.732.193s-.48.4-.703.72c-.223.321-.403.68-.54 1.079-.136.398-.22.822-.251 1.271-.031.45.023.881.164 1.295zM31.53 8.84c0 .226-.047.379-.14.457a.497.497 0 0 1-.328.117.864.864 0 0 1-.358-.076c-.113-.05-.185-.1-.217-.147l-.62-1.336c-.102.188-.22.37-.352.545a2.82 2.82 0 0 1-.446.47 2.653 2.653 0 0 1-.533.345 1.83 1.83 0 0 1-.615.176c-.524.015-.96-.065-1.307-.24a2.206 2.206 0 0 1-.832-.71 2.51 2.51 0 0 1-.41-1.025 4.207 4.207 0 0 1-.03-1.195c.048-.41.145-.815.294-1.213.148-.399.336-.756.562-1.072a3.21 3.21 0 0 1 .791-.786c.301-.207.623-.322.967-.345.344-.024.705.056 1.084.24.379.184.768.51 1.166.978l1.324 4.817zm-4.593-.774c.359.125.673.155.943.088.27-.066.498-.193.685-.38.188-.188.33-.422.428-.704a3.609 3.609 0 0 0 .14-1.775 2.504 2.504 0 0 0-.257-.774 1.247 1.247 0 0 0-.463-.498c-.187-.109-.406-.132-.656-.07a1.005 1.005 0 0 0-.545.358c-.16.191-.295.418-.404.68-.11.261-.192.544-.247.849-.054.305-.08.601-.076.89.004.29.043.553.118.791.074.239.185.42.334.545zm6.843 1.008a.55.55 0 0 1-.27.387.948.948 0 0 1-.908 0 .574.574 0 0 1-.287-.328 46.967 46.967 0 0 1-.029-1.406 71.144 71.144 0 0 0-.03-1.577 25.858 25.858 0 0 0-.087-1.517 7.536 7.536 0 0 0-.193-1.219.726.726 0 0 1 .082-.44.57.57 0 0 1 .275-.251.5.5 0 0 1 .375.006c.137.05.26.158.37.322l.151 1.125c.258-.422.551-.711.88-.867.328-.157.638-.196.931-.118.293.079.549.266.768.563.218.297.351.687.398 1.172.016-.133.09-.297.223-.492.133-.196.302-.393.51-.592.206-.2.437-.38.69-.54.255-.16.51-.273.768-.34.258-.066.508-.066.75 0 .243.067.454.23.633.487.094.149.174.356.24.621.067.266.122.56.165.885.043.324.082.664.117 1.02l.1 1.025c.03.328.066.633.105.914.039.281.09.508.152.68a.98.98 0 0 1-.111.603.762.762 0 0 1-.358.34.526.526 0 0 1-.433-.012c-.149-.066-.266-.212-.352-.44.032-1.187-.013-2.14-.135-2.858-.12-.72-.279-1.23-.474-1.536-.195-.304-.412-.42-.65-.345-.239.074-.458.31-.657.709-.199.398-.365.94-.498 1.623s-.191 1.482-.176 2.396a.68.68 0 0 1-.228.34.54.54 0 0 1-.322.106.773.773 0 0 1-.364-.1 1.186 1.186 0 0 1-.34-.275c.024-.82-.013-1.55-.11-2.186-.098-.637-.225-1.143-.382-1.518-.156-.375-.324-.607-.504-.697-.18-.09-.34 0-.48.27-.14.27-.244.734-.31 1.394-.067.66-.065 1.549.005 2.666zm12.574-.797c-.14.266-.328.487-.562.662a2.494 2.494 0 0 1-.773.393 3.013 3.013 0 0 1-1.781-.023 3.216 3.216 0 0 1-.815-.399 2.4 2.4 0 0 1-.639-.633 4.93 4.93 0 0 1-.574-1.582 4.042 4.042 0 0 1 .012-1.593c.109-.5.332-.938.668-1.313s.804-.625 1.406-.75c.57-.039 1.021.03 1.353.205.332.176.559.414.68.715.121.3.145.635.07 1.002a2.865 2.865 0 0 1-.474 1.072 3.631 3.631 0 0 1-.961.926c-.399.27-.86.455-1.383.557.156.257.334.443.533.556.2.114.408.182.627.205.219.024.436.01.65-.04.215-.051.415-.114.598-.188a9.4 9.4 0 0 0 .487-.211c.14-.067.242-.111.304-.135.282-.086.473-.086.574 0 .102.086.102.277 0 .574zM43.25 4.094a2.61 2.61 0 0 0-.832 1.054 2.371 2.371 0 0 0-.17.633c-.027.219-.021.434.018.645.328-.047.623-.149.884-.305.262-.156.48-.334.657-.533.175-.2.302-.404.38-.615.079-.211.1-.395.065-.551a.473.473 0 0 0-.299-.34c-.164-.07-.398-.066-.703.012zM111.373 9.496a2.08 2.08 0 0 1-.187-.668 11.86 11.86 0 0 1-.088-.89c-.02-.313-.037-.62-.053-.92-.016-.301-.04-.553-.07-.756a.678.678 0 0 1-.246-.27.824.824 0 0 1-.088-.346 1.032 1.032 0 0 1 .275-.709 31.728 31.728 0 0 1-.082-1.933c-.008-.649-.004-1.3.012-1.957.015-.102.111-.186.287-.252s.396-.117.662-.152c.266-.036.553-.059.861-.07a16.759 16.759 0 0 1 1.582.011c.2.012.323.021.37.03.156.03.267.093.333.187.067.094.098.199.094.316a.762.762 0 0 1-.1.346.67.67 0 0 1-.257.264 2.65 2.65 0 0 1-.598.005c-.258-.02-.521-.035-.79-.046a6.098 6.098 0 0 0-.763.011c-.238.02-.404.08-.498.182-.015.234-.02.48-.011.738.007.258.017.518.029.78a24.2 24.2 0 0 0 .111 1.47c.117.008.27.002.457-.017.188-.02.383-.04.586-.059.203-.02.4-.023.592-.012.191.012.352.053.48.123.13.07.211.184.247.34.035.156.001.371-.1.645l-2.145.222c-.015.094-.005.256.03.487.035.23.072.488.111.773.04.285.064.576.076.873.012.297-.013.557-.076.78-.062.222-.174.384-.334.486-.16.101-.396.097-.709-.012zm5.168-.996a.887.887 0 0 1 .053.434.917.917 0 0 1-.135.375.791.791 0 0 1-.264.257.546.546 0 0 1-.322.082.51.51 0 0 1-.31-.146c-.098-.09-.174-.236-.229-.44a2.514 2.514 0 0 1-.041-.404 27.986 27.986 0 0 1-.03-.756l-.023-.931a267.584 267.584 0 0 0-.047-1.688 2.615 2.615 0 0 0-.035-.416c-.054-.383-.058-.693-.012-.931.047-.239.12-.418.217-.54a.486.486 0 0 1 .334-.199.487.487 0 0 1 .346.1c.105.078.19.197.252.357.062.16.082.35.059.569l.187 4.277zm-.844-6.234c-.172-.133-.275-.28-.31-.44a.654.654 0 0 1 .035-.428.527.527 0 0 1 .281-.27.49.49 0 0 1 .416.024.594.594 0 0 1 .317.399.81.81 0 0 1-.024.474.567.567 0 0 1-.275.317c-.13.066-.276.04-.44-.076zm3.2 6.82a.624.624 0 0 1-.288.299.885.885 0 0 1-.427.111.736.736 0 0 1-.416-.129c-.13-.086-.217-.23-.264-.433a2.512 2.512 0 0 1-.006-.487c.012-.246.014-.593.006-1.043a42.116 42.116 0 0 0-.07-1.675 41.877 41.877 0 0 0-.223-2.397c.164-.148.322-.203.475-.164.152.039.29.125.416.258.125.133.226.295.304.486.078.192.121.37.13.533a1.27 1.27 0 0 1 .251-.463c.13-.16.287-.306.475-.439.187-.133.396-.246.627-.34.23-.094.468-.152.715-.176.246-.023.492 0 .738.07.246.071.474.204.685.4a.46.46 0 0 1-.035.222.916.916 0 0 1-.316.404.575.575 0 0 1-.211.1c-.453-.094-.838-.088-1.154.017-.317.106-.577.28-.78.522a2.407 2.407 0 0 0-.457.884 6.111 6.111 0 0 0-.21 1.108c-.04.39-.053.789-.042 1.195.012.406.037.785.076 1.137zm3.914.187a.706.706 0 0 1-.293-.152.65.65 0 0 1-.2-.275.466.466 0 0 1 .018-.346c.05-.125.17-.246.357-.363.102.093.27.174.504.24.235.066.49.111.768.135.277.023.553.025.826.006.273-.02.502-.065.686-.135.183-.07.298-.166.345-.287.047-.121-.02-.272-.199-.451a30.655 30.655 0 0 0-1.365-.874 7.909 7.909 0 0 1-.985-.68 2.847 2.847 0 0 1-.644-.737c-.16-.27-.275-.616-.346-1.038-.023-.343.059-.627.246-.85.188-.222.43-.39.727-.503.297-.113.629-.174.996-.182a3.93 3.93 0 0 1 1.072.123c.348.09.662.225.944.405.28.18.484.398.609.656a.593.593 0 0 1-.018.322.662.662 0 0 1-.422.41.735.735 0 0 1-.333.03c-.243-.305-.506-.526-.791-.663a2.022 2.022 0 0 0-.81-.216 1.074 1.074 0 0 0-.638.158.557.557 0 0 0-.27.463c-.007.195.089.426.288.691.199.266.545.55 1.037.856.703.422 1.225.814 1.564 1.177.34.364.532.688.575.973a.8.8 0 0 1-.252.732c-.211.204-.512.356-.903.457-.39.102-.853.149-1.388.141a8.02 8.02 0 0 1-1.705-.223zm7.218-4.16c-.039.016-.054.106-.047.27.008.164.026.37.053.62.028.25.06.532.1.845.039.312.066.62.082.925.015.305.013.592-.006.862-.02.27-.068.49-.147.662-.078.172-.193.28-.345.322-.153.043-.358-.006-.615-.146l-.282-4.36a2.457 2.457 0 0 0-.422-.047c-.109 0-.213.006-.31.018-.098.012-.205.023-.322.035-.118.012-.27.01-.457-.006a.574.574 0 0 1-.27-.328c-.039-.133-.006-.264.1-.392.105-.13.293-.239.562-.329.27-.09.643-.134 1.12-.134.054-.032.07-.15.046-.358a29.744 29.744 0 0 0-.094-.732c-.039-.281-.068-.574-.088-.88-.019-.304.002-.565.065-.784.062-.219.182-.367.357-.446.176-.078.44-.035.791.13a134.042 134.042 0 0 0 .047 1.845 18.293 18.293 0 0 0 .047.774l.024.222.023.24c.164.008.314.006.451-.005l.399-.036c.129-.011.261-.021.398-.029s.287-.008.451 0c.172.04.297.11.375.211a.5.5 0 0 1 .112.328.537.537 0 0 1-.141.334.84.84 0 0 1-.357.24l-1.7.13zm9.082 3.832c0 .243-.064.405-.193.487a.571.571 0 0 1-.422.082.888.888 0 0 1-.422-.205.577.577 0 0 1-.217-.387 78.43 78.43 0 0 0 .006-2.549c-.011-.902-.037-1.85-.076-2.842.063-.21.17-.343.322-.398a.478.478 0 0 1 .44.053c.14.09.248.25.322.48.074.23.065.525-.03.885.5-.735.97-1.215 1.407-1.442.438-.226.84-.273 1.207-.14.367.133.69.404.967.814.277.41.506.885.685 1.424.18.54.303 1.104.37 1.693.066.59.068 1.131.005 1.623.008.204-.052.356-.181.457a.766.766 0 0 1-.422.17.629.629 0 0 1-.416-.11c-.125-.087-.18-.22-.164-.4.055-.984.033-1.78-.065-2.39-.097-.61-.238-1.064-.422-1.365-.183-.301-.396-.467-.638-.498-.242-.032-.486.033-.733.193-.246.16-.48.4-.703.72-.222.321-.402.68-.539 1.079-.137.398-.22.822-.252 1.271-.031.45.024.881.164 1.295zm11.192-.105c0 .226-.047.379-.14.457a.497.497 0 0 1-.329.117.864.864 0 0 1-.357-.076c-.114-.05-.186-.1-.217-.147l-.621-1.336c-.102.188-.22.37-.352.545a2.82 2.82 0 0 1-.445.47 2.653 2.653 0 0 1-.533.345 1.83 1.83 0 0 1-.616.176c-.523.015-.959-.065-1.306-.24a2.206 2.206 0 0 1-.832-.71 2.51 2.51 0 0 1-.41-1.025 4.207 4.207 0 0 1-.03-1.195c.047-.41.145-.815.293-1.213.149-.399.336-.756.563-1.072a3.21 3.21 0 0 1 .79-.786c.302-.207.624-.322.968-.345.343-.024.705.056 1.083.24.38.184.768.51 1.167.978l1.324 4.817zm-4.594-.774c.36.125.674.155.943.088.27-.066.498-.193.686-.38.187-.188.33-.422.428-.704a3.609 3.609 0 0 0 .14-1.775 2.504 2.504 0 0 0-.258-.774 1.247 1.247 0 0 0-.462-.498c-.188-.109-.407-.132-.657-.07a1.005 1.005 0 0 0-.545.358c-.16.191-.295.418-.404.68-.11.261-.191.544-.246.849-.055.305-.08.601-.076.89.004.29.043.553.117.791.074.239.186.42.334.545zm6.844 1.008a.55.55 0 0 1-.27.387.948.948 0 0 1-.908 0 .574.574 0 0 1-.287-.328 46.966 46.966 0 0 1-.03-1.406 71.149 71.149 0 0 0-.029-1.577 25.857 25.857 0 0 0-.088-1.517 7.536 7.536 0 0 0-.193-1.219.726.726 0 0 1 .082-.44.57.57 0 0 1 .275-.251.5.5 0 0 1 .375.006c.137.05.26.158.37.322l.152 1.125c.258-.422.55-.711.879-.867.328-.157.639-.196.931-.118.293.079.55.266.768.563.219.297.352.687.399 1.172.015-.133.09-.297.222-.492.133-.196.303-.393.51-.592.207-.2.437-.38.691-.54.254-.16.51-.273.768-.34.258-.066.508-.066.75 0 .242.067.453.23.633.487.093.149.174.356.24.621.066.266.121.56.164.885.043.324.082.664.117 1.02l.1 1.025c.031.328.066.633.105.914.04.281.09.508.153.68a.98.98 0 0 1-.112.603.762.762 0 0 1-.357.34.526.526 0 0 1-.434-.012c-.148-.066-.265-.212-.351-.44.031-1.187-.014-2.14-.135-2.858-.121-.72-.28-1.23-.475-1.536-.195-.304-.412-.42-.65-.345-.238.074-.457.31-.656.709-.2.398-.366.94-.498 1.623-.133.683-.192 1.482-.176 2.396a.68.68 0 0 1-.229.34.54.54 0 0 1-.322.106.773.773 0 0 1-.363-.1 1.186 1.186 0 0 1-.34-.275c.023-.82-.014-1.55-.111-2.186-.098-.637-.225-1.143-.381-1.518s-.324-.607-.504-.697c-.18-.09-.34 0-.48.27-.141.27-.245.734-.311 1.394-.067.66-.065 1.549.006 2.666zm12.574-.797c-.14.266-.328.487-.563.662a2.494 2.494 0 0 1-.773.393 3.013 3.013 0 0 1-1.781-.023 3.216 3.216 0 0 1-.815-.399 2.4 2.4 0 0 1-.638-.633 4.93 4.93 0 0 1-.575-1.582 4.042 4.042 0 0 1 .012-1.593c.11-.5.332-.938.668-1.313s.805-.625 1.406-.75c.57-.039 1.022.03 1.354.205.332.176.558.414.68.715.12.3.144.635.07 1.002a2.865 2.865 0 0 1-.475 1.072 3.631 3.631 0 0 1-.96.926c-.4.27-.86.455-1.383.557.156.257.333.443.533.556.199.114.408.182.627.205.218.024.435.01.65-.04.215-.051.414-.114.598-.188a9.4 9.4 0 0 0 .486-.211c.14-.067.242-.111.305-.135.281-.086.472-.086.574 0 .102.086.102.277 0 .574zm-3.106-4.183a2.61 2.61 0 0 0-.832 1.054 2.371 2.371 0 0 0-.17.633c-.027.219-.021.434.018.645.328-.047.623-.149.885-.305s.48-.334.656-.533c.176-.2.303-.404.381-.615.078-.211.1-.395.064-.551a.473.473 0 0 0-.298-.34c-.164-.07-.399-.066-.704.012zM20.91 57.542c.56.42 1.176.616 1.848.616.476 0 .868-.168 1.176-.56.28-.336.448-.7.476-1.092 0-.42-.868-.98-2.548-1.652a1.177 1.177 0 0 1-.756-.7c-.112-.224-.168-.504-.168-.84 0-.14.14-.476.476-1.036.56-.784 1.204-1.764 1.96-2.94.364-.56.56-.924.56-1.092-.224-.112-.868-.252-1.932-.42-.476-.112-.7-.476-.7-1.148.056-.644.392-.98.98-1.036.896.056 1.848.28 2.884.728.532.364.812.784.812 1.26-.056 1.316-1.064 3.22-3.052 5.684.364.084.728.196 1.092.308 1.484.588 2.24 1.372 2.24 2.324 0 .392-.056.756-.112 1.036-.14.84-.448 1.512-.924 1.988-.672.672-1.484.98-2.464.98-.728 0-1.344-.252-1.876-.7 0 1.288.028 2.66.056 4.144v4.956c0 1.064-.028 1.932-.028 2.576-.056 1.232-.308 1.876-.812 1.876-.532 0-.84-.616-.896-1.848a22.061 22.061 0 0 1-.112-2.408c-.056-1.736-.112-3.948-.196-6.636-.056-1.876-.14-4.088-.252-6.636-.028-.476-.056-1.428-.056-2.884 0-.308.168-.588.504-.868.196-.14.42-.224.644-.224.616 0 .98.364 1.036 1.036 0 .616.028 1.4.056 2.352 0 1.008.028 1.932.056 2.828l.028.028zm19.516-8.988c0 .28-.14.56-.392.84-.756.728-2.66 1.596-5.74 2.604-.588.196-1.148.392-1.708.56-.476 2.296-1.176 4.62-2.072 7.028 1.064 0 2.24-.196 3.5-.532-.112-1.008-.252-1.932-.364-2.828a8.832 8.832 0 0 1-.196-1.316c0-.196.056-.392.224-.616.224-.224.448-.336.672-.336.56 0 .924.28 1.092.812.224.728.42 1.932.588 3.612 1.092-.42 2.212-.952 3.388-1.568.532 0 .812.196.868.56 0 .476-.196.896-.588 1.232a27.989 27.989 0 0 1-3.472 1.68c0 .196 0 .364.028.504.084 1.624.14 3.192.196 4.732.028 1.064.056 2.044.056 2.94 0 1.064-.056 1.82-.112 2.24-.196.756-.56 1.316-1.064 1.68-.42.252-.896.392-1.4.392-1.232 0-2.52-.98-3.808-2.94-.112-.14-.196-.28-.28-.392v.028c-.224.98-.504 1.736-.84 2.296-.168.448-.476.672-.924.672-.504-.056-.784-.336-.812-.84 0-.224.028-.42.14-.588.336-.616.532-1.512.644-2.632 0-.448.028-.952.028-1.512 0-.616-.056-1.288-.112-1.96.028-.588.336-.896.952-.924h.196c.504 0 .84.308.952.924.056.588.112 1.26.112 2.016.56 1.12 1.12 2.016 1.736 2.716.672.728 1.288 1.092 1.82 1.092.504 0 .756-.56.756-1.624v-2.072c-.056-2.688-.14-4.704-.28-6.104-1.4.364-2.8.56-4.144.616-1.288-.028-1.932-.476-1.988-1.344a30.458 30.458 0 0 0 2.324-7.028 7.767 7.767 0 0 1-.924.252c-.476.112-.812.196-.98.252-.42.056-.784.056-1.092.056-.504 0-.812-.392-.868-1.12 0-.336.252-.616.784-.868.28-.084.672-.196 1.176-.336a27.487 27.487 0 0 0 2.296-.588c.224-1.68.364-3.388.392-5.18.056-.56.476-.84 1.288-.84.532.028.812.28.868.728 0 1.54-.14 3.108-.364 4.676.308-.084.616-.168.896-.252 2.52-.728 4.48-1.4 5.88-1.988.28 0 .504.112.616.308a.828.828 0 0 1 .056.28zM38.83 62.89c.112 0 .224.028.336.028.112.056.252.112.364.168.616.588 1.568 2.1 2.828 4.536.336.588.532 1.148.588 1.652 0 .56-.28.868-.784.868-.252 0-.504-.168-.784-.476-.28-.392-.616-.98-1.008-1.708-.7-1.26-1.428-2.436-2.212-3.5a.636.636 0 0 1-.168-.448v-.252c.056-.224.168-.448.336-.616.14-.112.308-.196.504-.252zM83.72 47.686c-.616.224-1.316.42-2.1.56 0 .28.028.532.028.784s0 .476.028.672c.84-.196 1.596-.448 2.296-.728.112 0 .196-.028.28-.028.224 0 .392.112.532.308.056.112.084.224.112.308 0 .28-.112.476-.336.616-.672.392-1.596.756-2.8 1.092 0 .504.028.98.084 1.484l1.512-.504c.728-.28 1.204-.476 1.4-.532a.452.452 0 0 1 .252-.084.602.602 0 0 1 .42.28c.028.084.056.168.056.252a1.798 1.798 0 0 1-.224.56c-.896.56-1.988 1.064-3.276 1.568.028.504.056.98.112 1.456 0 .728-.224 1.064-.672 1.064h-.336c-.476 0-.728-.532-.756-1.54-.028-.084-.028-.196-.028-.336-1.12.392-2.212.672-3.22.868a1.405 1.405 0 0 1-.392.084c-.168 0-.336-.084-.504-.28-.112-.196-.168-.476-.168-.84 0-.224.168-.392.448-.56.98-.224 1.82-.448 2.52-.644.392-.084.756-.196 1.148-.308a20.658 20.658 0 0 1-.112-1.456c-.084.028-.14.056-.196.056-.812.168-1.568.252-2.24.308-.28 0-.532-.084-.728-.28a.929.929 0 0 1-.28-.7c0-.392.168-.616.504-.672a20.59 20.59 0 0 0 2.38-.308c.14 0 .28-.028.42-.084l-.112-1.456c-.336.084-.616.14-.868.168a8.137 8.137 0 0 1-1.12.084h-.308c-.42-.056-.616-.28-.616-.7v-.364c.084-.28.308-.504.7-.728.112.028.28.028.504.028.504 0 1.036-.028 1.596-.112l-.056-.784a9.065 9.065 0 0 0-.196-.7c0-.532.252-.84.756-.924h.392c.532.056.84.364.924.98.028.364.056.728.084 1.12.476-.084.98-.196 1.512-.364a2.6 2.6 0 0 1 .364-.112c.168 0 .364.056.588.14.224.168.364.336.364.476 0 .112-.056.252-.168.42-.14.168-.308.28-.504.392zm9.464-.56c-.532.196-1.12.364-1.764.504v.28c-.028.392-.028.756-.028 1.092.616-.14 1.204-.308 1.708-.532.112 0 .224-.028.308-.028.196 0 .364.112.476.28.056.14.084.252.112.336 0 .28-.112.476-.308.616a14.69 14.69 0 0 1-2.38.868c0 .616-.028 1.176-.028 1.736.728-.168 1.4-.308 2.016-.476.756-.252 1.232-.42 1.4-.476a.473.473 0 0 1 .28-.084.6.6 0 0 1 .448.28.828.828 0 0 1 .056.28c-.028.168-.112.336-.224.532-.952.504-2.184.98-3.668 1.428a.862.862 0 0 1-.364.084v.784c-.056.56-.112.952-.224 1.176-.224.28-.504.42-.812.42-.364-.028-.588-.252-.672-.644-.028-.14-.028-.42-.028-.84v-.42c-1.008.28-1.932.476-2.828.644a1.405 1.405 0 0 1-.392.084c-.168 0-.336-.112-.504-.336-.112-.168-.168-.42-.168-.784 0-.252.168-.448.448-.588a42.322 42.322 0 0 0 2.66-.504c.252-.056.504-.084.756-.14v-1.624c-.112.028-.196.056-.252.056-.756.14-1.456.224-2.1.28-.28 0-.532-.084-.728-.308-.168-.196-.28-.42-.28-.672 0-.392.168-.644.504-.7.672-.028 1.4-.084 2.24-.196.196-.056.392-.084.56-.112v-1.4c-.364.084-.728.14-1.092.168-.364.056-.728.056-1.064.056h-.336c-.42-.028-.616-.252-.616-.7v-.364c.056-.252.308-.476.7-.672.14.028.308.028.476.028.616 0 1.26-.056 1.932-.168v-.952c0-.504.224-.84.7-.98h.644c.448.028.672.364.728.98v.616c.336-.056.7-.14 1.092-.224.112-.028.252-.056.364-.112.168 0 .364.056.588.168.224.168.364.336.364.448 0 .14-.056.28-.168.448-.14.168-.308.28-.532.364zm-4.62 16.156c.056-.084.168-.168.308-.28.392-.616.644-1.288.812-1.988-.868.28-1.988.56-3.332.868-1.428.308-2.772.588-4.004.868-.392.056-.672.112-.84.112-.364.056-.7.056-.98.056-.448 0-.728-.336-.812-1.008 0-.308.224-.588.7-.84.28-.084.644-.196 1.092-.308a79.13 79.13 0 0 0 4.592-.56c1.512-.224 2.772-.42 3.78-.588 0-.224.028-.392.028-.532-.28-.392-1.008-.616-2.184-.616-2.268.056-4.676.476-7.196 1.26-.672-.028-1.036-.336-1.092-.896 0-.448.196-.812.588-1.092.28-.112.588-.196.952-.28 1.736-.448 3.584-.728 5.516-.896.56 0 1.12-.028 1.68-.056h.672c2.1.168 3.164.952 3.164 2.408-.056 1.904-.504 3.472-1.344 4.704 0 .056.028.112.056.168 0 .364-.14.644-.42.868-1.288.532-3.444 1.064-6.468 1.624a21.49 21.49 0 0 1-3.08.336.957.957 0 0 1-.812-.392c-.252-.224-.392-.476-.392-.812 0-.448.196-.728.616-.812.952-.056 2.044-.14 3.248-.28 1.904-.28 3.612-.616 5.152-1.036zm-9.688 8.988c0 .56-.112.896-.336 1.064a1.16 1.16 0 0 1-.56.168.785.785 0 0 1-.644-.336 1.589 1.589 0 0 1-.336-.504c-.28-.336-.448-.784-.504-1.316a29.293 29.293 0 0 0-.168-.924c-.112-.504-.224-.98-.336-1.428-.168-.56-.252-.896-.252-1.036 0-.532.28-.812.896-.84h.504c.28 0 .504.196.672.588.112.196.168.504.224.952.14.784.28 1.484.42 2.1.14.588.28 1.092.42 1.512zm17.696-7.308c-.504.672-1.848 1.512-4.088 2.52.672.392 1.176.756 1.512 1.176.28.392.448.756.448 1.064 0 1.008-.532 1.82-1.54 2.436-.896.504-2.016.756-3.36.812a9.906 9.906 0 0 1-4.256-1.12 8.147 8.147 0 0 1-3.08-2.856c-.168-.28-.224-.476-.224-.616 0-.224.056-.392.168-.532.168-.252.448-.392.784-.448.336 0 .616.14.868.392 1.596 1.96 3.528 2.996 5.796 3.108 1.96 0 2.968-.504 3.08-1.484 0-.336-.196-.644-.532-.98a7.297 7.297 0 0 0-.784-.476c-.308.112-.588.196-.812.28-.56.14-.98.224-1.26.224-.42 0-.672-.28-.756-.784l-.028-.364c0-.308.112-.532.392-.672.392-.056.952-.224 1.652-.448 1.4-.42 2.604-.896 3.64-1.428l1.54-.812a.911.911 0 0 1 .392-.112c.364.056.56.28.616.616a.782.782 0 0 1-.168.504zM137.766 56.702v-.28c-.336.224-.728.392-1.176.532-1.148.42-2.24.7-3.248.812-.196.392-.476.56-.84.56-.616 0-.924-.364-.924-1.148 0-.448 0-1.092.028-1.876.056-1.12.112-1.82.112-2.156 0-1.4-.028-2.492-.028-3.332a41.583 41.583 0 0 0-.252-3.556c0-.392.168-.672.532-.868.196-.112.392-.196.616-.196.28 0 .504.112.672.336.084.084.14.196.196.336.84-.308 1.82-.476 2.912-.504h.504c.644.056 1.176.28 1.624.672.28.392.504.952.672 1.736.112.616.196 1.344.28 2.24.14 1.764.28 3.752.42 5.964 0 .336-.14.672-.364.952-.28.308-.588.476-.98.476-.504 0-.756-.224-.756-.7zm-4.116-8.904c0 .588.028 1.232.056 1.932v.98c.756-.196 1.82-.448 3.192-.728.252-.056.476-.084.7-.084-.112-1.12-.308-1.848-.56-2.184-.224-.336-.588-.532-1.092-.532-.644 0-1.4.224-2.296.616zm.084 4.648v.812c0 .616-.028 1.456-.056 2.492.84-.168 2.184-.504 4.088-1.064 0-.672-.028-1.344-.028-2.072 0-.448-.028-.812-.028-1.148-.784.196-1.82.448-3.108.784a5.087 5.087 0 0 1-.868.196zm5.544 7.28c.756-.28 1.764-.616 3.024-.98.448-.084.84-.14 1.176-.14 1.176.028 1.848.756 1.988 2.184 0 .196.028 1.568.084 4.088 0 1.288.084 2.828.196 4.62 0 .672.056 1.428.14 2.268 0 1.036-.336 1.568-1.008 1.596-.392 0-.812-.112-1.288-.308-.644-.28-1.12-.616-1.456-1.064a9.49 9.49 0 0 1-.868.336c-.896.28-1.764.476-2.548.588-.168 0-.28-.028-.364-.056a1.405 1.405 0 0 1-.336.056c-.504 0-.812-.42-.924-1.204a62.177 62.177 0 0 1-.084-3.332c0-3.024.056-5.684.224-7.952.112-.588.308-1.008.588-1.232.168-.14.42-.224.728-.224.448.084.672.336.728.756zm-.28 10.892c.56-.056 1.568-.196 3.052-.42.588 0 .924.14 1.036.448v.112c.168.028.392.084.616.168-.084-1.512-.14-3.22-.168-5.124-.336.168-.728.308-1.12.448-1.232.448-2.408.756-3.5.868v.924c0 .812.028 1.68.084 2.576zm-.028-5.376c.672-.056 2.184-.42 4.536-1.092-.028-.952-.028-1.96-.028-2.996-.084-.336-.252-.504-.532-.532-.56.056-1.792.476-3.752 1.232h-.056a43.393 43.393 0 0 0-.112 2.1c-.028.448-.056.868-.056 1.288zm-10.444-2.996c0 .56.028 1.148.056 1.792 0 .42 0 .84.028 1.232.7-.056 1.988-.336 3.836-.84a72.523 72.523 0 0 1-.056-2.548c-.056-.336-.252-.532-.532-.56-.504.056-1.596.364-3.332.924zm.084 4.956v.028c0 .728-.028 1.764-.056 3.136.532-.084 1.344-.168 2.436-.28.532 0 .868.112.98.364.196 0 .42.028.7.084-.112-1.344-.168-2.856-.196-4.536-.28.168-.56.28-.868.392-1.064.42-2.044.7-2.996.812zm-.924 5.404c-.14.028-.252.056-.336.056-.616 0-.924-.392-.924-1.148 0-.504 0-1.204.028-2.044.056-1.204.084-1.96.084-2.352 0-1.26-.028-2.268-.028-3.024a33.78 33.78 0 0 0-.252-3.22c0-.392.168-.7.532-.924.224-.112.448-.168.672-.168.28 0 .504.112.672.336.056.056.084.112.112.168a58.832 58.832 0 0 1 3.052-.812 4.33 4.33 0 0 1 1.092-.168c1.204.056 1.876.784 1.988 2.184 0 .196.028 1.428.084 3.668.028 1.12.084 2.52.196 4.144 0 .56.084 1.232.196 1.988 0 .952-.336 1.456-.98 1.484-.392 0-.84-.084-1.344-.252-.616-.196-1.064-.448-1.344-.756-.28.14-.56.252-.868.364-.84.224-1.624.392-2.408.504-.112 0-.168-.028-.224-.028z" fill="#333"/><path stroke="#4A90E2" d="M.846 40.5h59v74h-59z"/><path stroke="#7ED321" d="M62.5 40.5h102.869v74H62.5z"/><path d="M21.191 12.531l8.5 21.5M22.93 25.09l6.761 8.941-1.18-11.146" stroke="#4A90E2" stroke-width="2" stroke-linecap="round"/><path d="M134.772 13.693l-20.337 20.338M119.95 24.273l-5.515 9.758 9.758-5.515" stroke="#7ED321" stroke-width="2" stroke-linecap="round"/><path d="M13.844 99.398c-1.933.456-3.564.465-4.895.028-1.33-.438-2.383-1.162-3.158-2.174-.775-1.012-1.299-2.229-1.572-3.65a14.763 14.763 0 0 1-.164-4.403c.164-1.513.524-2.99 1.08-4.43.556-1.44 1.271-2.68 2.146-3.718.784-.875 1.632-1.395 2.543-1.559.912-.164 1.764-.04 2.557.37.793.41 1.476 1.066 2.05 1.968.575.902.926 1.982 1.053 3.24.073.164.055.356-.054.575-.11.218-.27.396-.479.533-.21.136-.437.196-.683.177-.247-.018-.46-.182-.643-.492-.328-1.221-.725-2.105-1.19-2.652-.464-.547-.934-.861-1.408-.943-.474-.082-.938.013-1.394.287a4.1 4.1 0 0 0-1.149 1.011c-.966 1.623-1.608 3.177-1.927 4.663-.32 1.485-.388 2.83-.205 4.033.182 1.203.574 2.22 1.175 3.049.602.829 1.331 1.399 2.188 1.709.857.31 1.805.314 2.844.013 1.039-.3 2.087-.98 3.144-2.037.328.219.533.479.615.78.082.3.082.615 0 .943a3.167 3.167 0 0 1-.437.97 5.43 5.43 0 0 1-.697.862c-.237.237-.47.428-.698.574a1.815 1.815 0 0 1-.642.273zm6.344.22c-.329.4-.693.655-1.094.765-.401.11-.766.096-1.094-.041-.328-.137-.583-.392-.766-.766-.182-.374-.21-.852-.082-1.435l-.136-17.993c.127-.273.332-.487.615-.642.282-.155.574-.233.875-.233.3 0 .57.078.806.233.237.155.365.396.383.724v7.301c.347-.492.643-.893.889-1.203.246-.31.506-.57.78-.78.273-.209.587-.373.943-.491.355-.119.797-.233 1.326-.342 1.002-.128 1.818.045 2.447.52.629.473 1.117 1.125 1.463 1.954.346.83.583 1.769.71 2.817.129 1.048.21 2.083.247 3.103.036 1.021.05 1.97.041 2.844-.01.875.023 1.54.096 1.996.146.565.127 1.048-.055 1.45-.182.4-.433.665-.752.792-.319.128-.665.096-1.039-.095-.374-.192-.67-.606-.889-1.244a15.986 15.986 0 0 1-.205-2.133 68.638 68.638 0 0 1-.04-2.393c0-.811-.014-1.6-.042-2.365a14.428 14.428 0 0 0-.205-2.05c-.11-.602-.278-1.09-.506-1.464-.228-.373-.551-.57-.97-.588a3.519 3.519 0 0 0-1.696.93 5.28 5.28 0 0 0-1.107 1.668 10.136 10.136 0 0 0-.643 2.16 20.658 20.658 0 0 0-.3 2.406c-.055.82-.078 1.627-.069 2.42.01.793.032 1.518.069 2.174zm21.656-2.544a4.586 4.586 0 0 1-1.313 1.545 5.819 5.819 0 0 1-1.804.916 6.73 6.73 0 0 1-2.065.287 7.03 7.03 0 0 1-2.092-.342 7.505 7.505 0 0 1-1.9-.93 5.602 5.602 0 0 1-1.49-1.476 11.505 11.505 0 0 1-1.34-3.691c-.237-1.313-.228-2.552.027-3.719a6.636 6.636 0 0 1 1.559-3.062c.784-.875 1.877-1.459 3.281-1.75 1.33-.092 2.383.068 3.158.478.775.41 1.304.966 1.586 1.668.283.702.337 1.481.164 2.338-.173.857-.542 1.69-1.107 2.502-.565.811-1.313 1.531-2.242 2.16-.93.629-2.006 1.062-3.227 1.299.365.601.78 1.034 1.244 1.299a3.74 3.74 0 0 0 1.463.478c.51.055 1.016.023 1.518-.095a9.628 9.628 0 0 0 1.394-.438c.429-.173.807-.337 1.135-.492.328-.155.565-.26.71-.315.657-.2 1.104-.2 1.34 0 .238.2.238.648 0 1.34zm-7.246-9.761c-.438.328-.82.701-1.149 1.12-.328.42-.592.866-.793 1.34-.2.474-.332.967-.396 1.477-.064.51-.05 1.012.04 1.504a5.499 5.499 0 0 0 2.065-.711 6.383 6.383 0 0 0 1.531-1.244c.41-.465.707-.944.89-1.436.181-.492.232-.92.15-1.285-.082-.364-.315-.629-.698-.793-.383-.164-.93-.155-1.64.028zm11.675 11.32c0 .565-.15.943-.45 1.135-.302.191-.63.255-.985.191a2.072 2.072 0 0 1-.984-.479c-.301-.255-.47-.556-.506-.902.036-1.86.04-3.842.013-5.947A252.034 252.034 0 0 0 43.184 86c.145-.492.396-.802.752-.93a1.115 1.115 0 0 1 1.025.123c.328.21.579.584.752 1.121.173.538.15 1.226-.068 2.065 1.166-1.714 2.26-2.835 3.28-3.363 1.022-.529 1.96-.638 2.817-.329.857.31 1.609.944 2.256 1.9.647.958 1.18 2.065 1.6 3.323a19.28 19.28 0 0 1 .861 3.951c.155 1.377.16 2.639.014 3.787.018.474-.123.83-.424 1.067s-.63.369-.985.396a1.467 1.467 0 0 1-.97-.26c-.292-.2-.42-.51-.383-.93.128-2.296.077-4.155-.15-5.577-.228-1.422-.556-2.484-.985-3.186-.428-.702-.925-1.089-1.49-1.162-.565-.073-1.135.078-1.709.451-.574.374-1.121.935-1.64 1.682-.52.747-.94 1.586-1.258 2.516-.32.93-.515 1.918-.588 2.966a7.651 7.651 0 0 0 .382 3.022zM72.963 99.262c-.11.328-.3.56-.574.697a1.54 1.54 0 0 1-.848.164 1.648 1.648 0 0 1-.807-.3 1.064 1.064 0 0 1-.45-.698l.054-4.758a3.021 3.021 0 0 1-1.135-1.449 5.029 5.029 0 0 1-.342-1.791c0-.592.1-1.121.301-1.586.2-.465.483-.743.848-.834l-.028-8.258c-.072-.42.019-.715.274-.888.255-.174.551-.265.889-.274.337-.009.651.05.943.178.292.127.456.282.492.465l.027 8.394c1.331-.474 2.598-.61 3.801-.41 1.203.2 2.38.593 3.528 1.176l-.028-8.969c-.018-.328.073-.583.274-.766.2-.182.442-.287.724-.314.283-.027.574.023.875.15.301.128.533.329.698.602-.037.674-.069 1.39-.096 2.146a94.349 94.349 0 0 0-.055 2.311c-.009.784 0 1.554.027 2.31.028.757.087 1.473.178 2.147.11-.073.292-.2.547-.383.255-.182.515-.296.78-.342.264-.045.492.041.683.26.191.219.287.684.287 1.395l-1.777 1.476c.036.894.082 1.732.136 2.516.037.693.082 1.38.137 2.064.055.684.11 1.226.164 1.627.037.292.01.606-.082.944a2.492 2.492 0 0 1-.465.916 2.005 2.005 0 0 1-.847.615c-.347.137-.766.15-1.258.04l-.52-7.382c-.364.365-.838.688-1.422.97-.583.283-1.207.53-1.873.74-.665.209-1.344.382-2.037.519-.692.136-1.321.232-1.886.287a26.744 26.744 0 0 0-.082 2.105c0 .711-.019 1.44-.055 2.188zm-.027-6.89c1.257-.129 2.233-.297 2.925-.507.693-.21 1.153-.424 1.381-.642.228-.22.265-.415.11-.588-.155-.173-.452-.296-.89-.37-.437-.072-.979-.063-1.626.028-.647.091-1.335.3-2.065.629l.165 1.45zm16.898 7.546a4.527 4.527 0 0 1-1.969-1.326 7.558 7.558 0 0 1-1.285-2.133 13.577 13.577 0 0 1-.752-2.611c-.173-.93-.292-1.86-.355-2.79a33.7 33.7 0 0 1-.082-2.665c.009-.848.032-1.59.068-2.229.036-.346.169-.601.396-.766.228-.164.493-.25.793-.26.301-.008.597.05.89.178.29.128.519.301.683.52.127.182.214.565.26 1.148.045.584.081 1.263.109 2.037.027.775.064 1.586.11 2.434.045.848.136 1.64.273 2.379.136.738.332 1.372.588 1.9.255.529.62.839 1.093.93.73-.018 1.308-.228 1.737-.629.428-.4.738-.925.93-1.572.19-.647.286-1.376.286-2.188 0-.81-.054-1.636-.164-2.474-.109-.839-.25-1.65-.423-2.434a77.666 77.666 0 0 0-.479-2.05c-.091-.438-.023-.72.205-.848.228-.128.515-.16.861-.096.347.064.702.187 1.067.37.364.181.629.373.793.573.383.802.683 1.741.902 2.817.219 1.075.32 2.178.3 3.308a15.558 15.558 0 0 1-.41 3.323c-.254 1.084-.655 2.032-1.202 2.843a5.52 5.52 0 0 1-2.12 1.873c-.865.438-1.9.584-3.103.438zm11.703-2.324c.128.346.169.683.123 1.011a2.14 2.14 0 0 1-.314.875c-.164.256-.37.456-.616.602-.246.146-.496.21-.751.191-.256-.018-.497-.132-.725-.341-.228-.21-.406-.552-.533-1.026-.037-.127-.069-.442-.096-.943-.027-.501-.05-1.09-.068-1.764-.019-.674-.037-1.399-.055-2.174-.018-.774-.037-1.499-.055-2.173-.018-.675-.036-1.263-.054-1.764-.019-.501-.046-.825-.082-.97-.128-.894-.137-1.619-.028-2.175.11-.556.278-.975.506-1.257.228-.283.488-.438.78-.465.291-.028.56.05.806.232s.442.46.588.834c.146.374.191.816.137 1.326l.437 9.98zm-1.969-14.547c-.4-.31-.642-.652-.724-1.026-.082-.373-.055-.706.082-.998a1.23 1.23 0 0 1 .656-.628c.3-.128.624-.11.97.054.402.219.648.529.739.93.091.4.073.77-.055 1.107a1.322 1.322 0 0 1-.642.739c-.301.155-.643.095-1.026-.178zM121.326 79.41a21.281 21.281 0 0 1 1.791 4.211c.465 1.513.789 3.026.97 4.54a22.27 22.27 0 0 1 .11 4.388c-.11 1.413-.369 2.652-.779 3.719-.41 1.066-.975 1.918-1.695 2.556-.72.638-1.6.939-2.639.903-1.04-.037-2.238-.46-3.596-1.272-1.358-.811-2.894-2.128-4.607-3.951a1.24 1.24 0 0 1-.027-.684c.054-.237.15-.437.287-.601.136-.164.31-.283.52-.356.209-.073.432-.073.67 0 .345.055.737.224 1.175.506.437.283.898.602 1.38.957.484.356.98.711 1.491 1.067.51.355 1.003.633 1.477.834.473.2.916.287 1.326.26.41-.028.77-.251 1.08-.67.419-.857.71-1.741.875-2.653.164-.911.237-1.818.219-2.72a15.296 15.296 0 0 0-.288-2.667 30.51 30.51 0 0 0-.601-2.502 26.254 26.254 0 0 0-.738-2.214c-.265-.684-.497-1.29-.698-1.819-.2-.42-.26-.78-.177-1.08.082-.3.246-.533.492-.697.246-.164.547-.255.902-.274a2.32 2.32 0 0 1 1.08.22zm7.356 18.184c.127.346.168.683.123 1.011a2.14 2.14 0 0 1-.315.875c-.164.256-.369.456-.615.602-.246.146-.497.21-.752.191-.255-.018-.497-.132-.725-.341-.227-.21-.405-.552-.533-1.026-.036-.127-.068-.442-.095-.943-.028-.501-.05-1.09-.069-1.764l-.055-2.174c-.018-.774-.036-1.499-.054-2.173-.018-.675-.037-1.263-.055-1.764-.018-.501-.045-.825-.082-.97-.128-.894-.137-1.619-.027-2.175.11-.556.278-.975.506-1.257.227-.283.487-.438.779-.465.292-.028.56.05.807.232.246.182.442.46.587.834.146.374.192.816.137 1.326l.438 9.98zm-1.97-14.547c-.4-.31-.642-.652-.724-1.026-.082-.373-.054-.706.082-.998a1.23 1.23 0 0 1 .657-.628c.3-.128.624-.11.97.054.401.219.647.529.739.93.09.4.072.77-.055 1.107a1.322 1.322 0 0 1-.643.739c-.3.155-.642.095-1.025-.178zm6.974 15.586c0 .565-.15.943-.452 1.135-.3.191-.629.255-.984.191a2.072 2.072 0 0 1-.984-.479c-.301-.255-.47-.556-.506-.902.036-1.86.04-3.842.013-5.947a252.036 252.036 0 0 0-.177-6.631c.146-.492.396-.802.752-.93a1.115 1.115 0 0 1 1.025.123c.328.21.579.584.752 1.121.173.538.15 1.226-.068 2.065 1.166-1.714 2.26-2.835 3.28-3.363 1.022-.529 1.96-.638 2.817-.329.857.31 1.609.944 2.256 1.9.647.958 1.18 2.065 1.6 3.323a19.28 19.28 0 0 1 .861 3.951c.155 1.377.16 2.639.014 3.787.018.474-.123.83-.424 1.067-.3.237-.629.369-.984.396a1.467 1.467 0 0 1-.971-.26c-.292-.2-.42-.51-.383-.93.128-2.296.078-4.155-.15-5.577-.228-1.422-.556-2.484-.985-3.186-.428-.702-.925-1.089-1.49-1.162-.565-.073-1.135.078-1.709.451-.574.374-1.121.935-1.64 1.682-.52.747-.94 1.586-1.258 2.516-.32.93-.515 1.918-.588 2.966a7.651 7.651 0 0 0 .383 3.022zm19.988 12.414c-1.094-.255-2.005-.665-2.735-1.23-.729-.566-1.24-1.126-1.53-1.682-.292-.556-.338-1.04-.138-1.45.201-.41.684-.587 1.45-.533.856.82 1.681 1.372 2.474 1.655.793.282 1.518.332 2.174.15.656-.182 1.212-.574 1.668-1.176.456-.601.766-1.367.93-2.297.164-.93.16-2.01-.014-3.24-.173-1.23-.56-2.566-1.162-4.006a6.424 6.424 0 0 1-1.805 1.64 6.574 6.574 0 0 1-2.187.849c-.766.145-1.54.15-2.324.013a5.696 5.696 0 0 1-2.188-.875c-.674-.446-1.271-1.043-1.79-1.79-.52-.748-.899-1.669-1.136-2.763-.109-1.348-.036-2.593.22-3.732.254-1.14.65-2.133 1.189-2.98a7.162 7.162 0 0 1 1.968-2.079 6.375 6.375 0 0 1 2.557-1.052c.93-.164 1.919-.114 2.967.15s2.11.761 3.185 1.49c.128.875.342 1.919.643 3.131.3 1.212.62 2.507.957 3.883.337 1.376.652 2.794.943 4.252.292 1.458.497 2.871.615 4.238a20.932 20.932 0 0 1 0 3.856c-.118 1.203-.432 2.242-.943 3.117-.51.875-1.249 1.536-2.215 1.982-.966.447-2.224.606-3.773.479zm-5.578-19.168c0 1.24.182 2.238.547 2.994.364.757.829 1.308 1.394 1.654a3.1 3.1 0 0 0 1.832.465 4.316 4.316 0 0 0 1.873-.547 4.743 4.743 0 0 0 1.531-1.367 4.192 4.192 0 0 0 .78-2.023c-.091-.365-.173-.77-.246-1.217a43.722 43.722 0 0 0-.246-1.367 24.386 24.386 0 0 0-.301-1.34 9.928 9.928 0 0 0-.356-1.135c-.364-.474-.788-.78-1.271-.916a2.893 2.893 0 0 0-1.477-.027 4.597 4.597 0 0 0-1.476.656 6.215 6.215 0 0 0-1.3 1.148c-.382.447-.692.93-.929 1.45a3.757 3.757 0 0 0-.355 1.572z" fill="#333"/></g></svg>
