<svg xmlns="http://www.w3.org/2000/svg" xml:space="preserve" viewBox="0 0 1125 1125"><path fill="#FFF" d="M0 0h1125v1125H0z"/><path d="M250 50h25v25h-25zM275 50h25v25h-25zM325 50h25v25h-25zM350 50h25v25h-25zM425 50h25v25h-25zM450 50h25v25h-25zM500 50h25v25h-25zM550 50h25v25h-25zM600 50h25v25h-25zM625 50h25v25h-25zM650 50h25v25h-25zM700 50h25v25h-25zM750 50h25v25h-25zM775 50h25v25h-25zM800 50h25v25h-25zM275 75h25v25h-25zM300 75h25v25h-25zM325 75h25v25h-25zM350 75h25v25h-25zM400 75h25v25h-25zM425 75h25v25h-25zM500 75h25v25h-25zM525 75h25v25h-25zM625 75h25v25h-25zM650 75h25v25h-25zM675 75h25v25h-25zM700 75h25v25h-25zM800 75h25v25h-25zM850 75h25v25h-25zM250 100h25v25h-25zM275 100h25v25h-25zM325 100h25v25h-25zM375 100h25v25h-25zM425 100h25v25h-25zM600 100h25v25h-25zM625 100h25v25h-25zM650 100h25v25h-25zM675 100h25v25h-25zM825 100h25v25h-25zM325 125h25v25h-25zM350 125h25v25h-25zM375 125h25v25h-25zM400 125h25v25h-25zM425 125h25v25h-25zM450 125h25v25h-25zM475 125h25v25h-25zM525 125h25v25h-25zM550 125h25v25h-25zM575 125h25v25h-25zM600 125h25v25h-25zM650 125h25v25h-25zM750 125h25v25h-25zM800 125h25v25h-25zM850 125h25v25h-25zM250 150h25v25h-25zM275 150h25v25h-25zM325 150h25v25h-25zM350 150h25v25h-25zM400 150h25v25h-25zM425 150h25v25h-25zM450 150h25v25h-25zM475 150h25v25h-25zM550 150h25v25h-25zM650 150h25v25h-25zM750 150h25v25h-25zM825 150h25v25h-25zM850 150h25v25h-25zM275 175h25v25h-25zM300 175h25v25h-25zM350 175h25v25h-25zM400 175h25v25h-25zM425 175h25v25h-25zM450 175h25v25h-25zM475 175h25v25h-25zM500 175h25v25h-25zM550 175h25v25h-25zM575 175h25v25h-25zM600 175h25v25h-25zM650 175h25v25h-25zM700 175h25v25h-25zM750 175h25v25h-25zM850 175h25v25h-25zM250 200h25v25h-25zM300 200h25v25h-25zM350 200h25v25h-25zM400 200h25v25h-25zM450 200h25v25h-25zM500 200h25v25h-25zM550 200h25v25h-25zM600 200h25v25h-25zM650 200h25v25h-25zM700 200h25v25h-25zM750 200h25v25h-25zM800 200h25v25h-25zM850 200h25v25h-25zM250 225h25v25h-25zM275 225h25v25h-25zM325 225h25v25h-25zM350 225h25v25h-25zM400 225h25v25h-25zM425 225h25v25h-25zM500 225h25v25h-25zM600 225h25v25h-25zM650 225h25v25h-25zM675 225h25v25h-25zM175 250h25v25h-25zM200 250h25v25h-25zM275 250h25v25h-25zM325 250h25v25h-25zM350 250h25v25h-25zM375 250h25v25h-25zM400 250h25v25h-25zM450 250h25v25h-25zM475 250h25v25h-25zM525 250h25v25h-25zM625 250h25v25h-25zM650 250h25v25h-25zM775 250h25v25h-25zM825 250h25v25h-25zM850 250h25v25h-25zM900 250h25v25h-25zM950 250h25v25h-25zM1000 250h25v25h-25zM1050 250h25v25h-25zM50 275h25v25H50zM100 275h25v25h-25zM125 275h25v25h-25zM275 275h25v25h-25zM300 275h25v25h-25zM350 275h25v25h-25zM375 275h25v25h-25zM400 275h25v25h-25zM450 275h25v25h-25zM475 275h25v25h-25zM500 275h25v25h-25zM525 275h25v25h-25zM675 275h25v25h-25zM700 275h25v25h-25zM725 275h25v25h-25zM775 275h25v25h-25zM800 275h25v25h-25zM825 275h25v25h-25zM950 275h25v25h-25zM1025 275h25v25h-25zM50 300h25v25H50zM100 300h25v25h-25zM150 300h25v25h-25zM200 300h25v25h-25zM225 300h25v25h-25zM325 300h25v25h-25zM425 300h25v25h-25zM475 300h25v25h-25zM525 300h25v25h-25zM650 300h25v25h-25zM700 300h25v25h-25zM725 300h25v25h-25zM775 300h25v25h-25zM900 300h25v25h-25zM925 300h25v25h-25zM950 300h25v25h-25zM1025 300h25v25h-25zM50 325h25v25H50zM75 325h25v25H75zM125 325h25v25h-25zM150 325h25v25h-25zM250 325h25v25h-25zM275 325h25v25h-25zM325 325h25v25h-25zM350 325h25v25h-25zM375 325h25v25h-25zM400 325h25v25h-25zM450 325h25v25h-25zM500 325h25v25h-25zM525 325h25v25h-25zM575 325h25v25h-25zM625 325h25v25h-25zM725 325h25v25h-25zM750 325h25v25h-25zM875 325h25v25h-25zM900 325h25v25h-25zM975 325h25v25h-25zM1050 325h25v25h-25zM100 350h25v25h-25zM150 350h25v25h-25zM175 350h25v25h-25zM200 350h25v25h-25zM250 350h25v25h-25zM325 350h25v25h-25zM450 350h25v25h-25zM475 350h25v25h-25zM500 350h25v25h-25zM525 350h25v25h-25zM550 350h25v25h-25zM600 350h25v25h-25zM650 350h25v25h-25zM675 350h25v25h-25zM700 350h25v25h-25zM800 350h25v25h-25zM850 350h25v25h-25zM875 350h25v25h-25zM900 350h25v25h-25zM1025 350h25v25h-25zM1050 350h25v25h-25zM75 375h25v25H75zM150 375h25v25h-25zM250 375h25v25h-25zM325 375h25v25h-25zM350 375h25v25h-25zM375 375h25v25h-25zM425 375h25v25h-25zM450 375h25v25h-25zM500 375h25v25h-25zM525 375h25v25h-25zM550 375h25v25h-25zM575 375h25v25h-25zM600 375h25v25h-25zM625 375h25v25h-25zM775 375h25v25h-25zM800 375h25v25h-25zM850 375h25v25h-25zM925 375h25v25h-25zM950 375h25v25h-25zM975 375h25v25h-25zM1025 375h25v25h-25zM1050 375h25v25h-25zM50 400h25v25H50zM75 400h25v25H75zM100 400h25v25h-25zM175 400h25v25h-25zM200 400h25v25h-25zM225 400h25v25h-25zM250 400h25v25h-25zM275 400h25v25h-25zM300 400h25v25h-25zM325 400h25v25h-25zM500 400h25v25h-25zM550 400h25v25h-25zM625 400h25v25h-25zM650 400h25v25h-25zM675 400h25v25h-25zM700 400h25v25h-25zM725 400h25v25h-25zM750 400h25v25h-25zM775 400h25v25h-25zM825 400h25v25h-25zM875 400h25v25h-25zM900 400h25v25h-25zM950 400h25v25h-25zM975 400h25v25h-25zM1000 400h25v25h-25zM50 425h25v25H50zM75 425h25v25H75zM125 425h25v25h-25zM150 425h25v25h-25zM300 425h25v25h-25zM325 425h25v25h-25zM375 425h25v25h-25zM400 425h25v25h-25zM475 425h25v25h-25zM625 425h25v25h-25zM675 425h25v25h-25zM700 425h25v25h-25zM750 425h25v25h-25zM825 425h25v25h-25zM975 425h25v25h-25zM1000 425h25v25h-25zM1025 425h25v25h-25zM1050 425h25v25h-25zM75 450h25v25H75zM100 450h25v25h-25zM125 450h25v25h-25zM150 450h25v25h-25zM175 450h25v25h-25zM200 450h25v25h-25zM250 450h25v25h-25zM275 450h25v25h-25zM325 450h25v25h-25zM375 450h25v25h-25zM400 450h25v25h-25zM425 450h25v25h-25zM475 450h25v25h-25zM500 450h25v25h-25zM550 450h25v25h-25zM625 450h25v25h-25zM700 450h25v25h-25zM725 450h25v25h-25zM750 450h25v25h-25zM775 450h25v25h-25zM825 450h25v25h-25zM875 450h25v25h-25zM925 450h25v25h-25zM1000 450h25v25h-25zM50 475h25v25H50zM75 475h25v25H75zM100 475h25v25h-25zM175 475h25v25h-25zM250 475h25v25h-25zM375 475h25v25h-25zM400 475h25v25h-25zM425 475h25v25h-25zM450 475h25v25h-25zM500 475h25v25h-25zM575 475h25v25h-25zM625 475h25v25h-25zM675 475h25v25h-25zM700 475h25v25h-25zM725 475h25v25h-25zM750 475h25v25h-25zM775 475h25v25h-25zM800 475h25v25h-25zM825 475h25v25h-25zM850 475h25v25h-25zM900 475h25v25h-25zM950 475h25v25h-25zM1050 475h25v25h-25zM100 500h25v25h-25zM125 500h25v25h-25zM175 500h25v25h-25zM200 500h25v25h-25zM225 500h25v25h-25zM250 500h25v25h-25zM275 500h25v25h-25zM325 500h25v25h-25zM350 500h25v25h-25zM375 500h25v25h-25zM400 500h25v25h-25zM425 500h25v25h-25zM500 500h25v25h-25zM550 500h25v25h-25zM575 500h25v25h-25zM600 500h25v25h-25zM625 500h25v25h-25zM650 500h25v25h-25zM700 500h25v25h-25zM725 500h25v25h-25zM825 500h25v25h-25zM900 500h25v25h-25zM925 500h25v25h-25zM950 500h25v25h-25zM1050 500h25v25h-25zM50 525h25v25H50zM75 525h25v25H75zM125 525h25v25h-25zM150 525h25v25h-25zM175 525h25v25h-25zM275 525h25v25h-25zM300 525h25v25h-25zM425 525h25v25h-25zM475 525h25v25h-25zM550 525h25v25h-25zM725 525h25v25h-25zM775 525h25v25h-25zM800 525h25v25h-25zM825 525h25v25h-25zM875 525h25v25h-25zM950 525h25v25h-25zM1050 525h25v25h-25zM50 550h25v25H50zM75 550h25v25H75zM200 550h25v25h-25zM275 550h25v25h-25zM325 550h25v25h-25zM350 550h25v25h-25zM375 550h25v25h-25zM400 550h25v25h-25zM425 550h25v25h-25zM450 550h25v25h-25zM475 550h25v25h-25zM650 550h25v25h-25zM675 550h25v25h-25zM1000 550h25v25h-25zM1050 550h25v25h-25zM50 575h25v25H50zM125 575h25v25h-25zM175 575h25v25h-25zM225 575h25v25h-25zM250 575h25v25h-25zM275 575h25v25h-25zM325 575h25v25h-25zM350 575h25v25h-25zM375 575h25v25h-25zM450 575h25v25h-25zM475 575h25v25h-25zM500 575h25v25h-25zM550 575h25v25h-25zM600 575h25v25h-25zM625 575h25v25h-25zM675 575h25v25h-25zM700 575h25v25h-25zM725 575h25v25h-25zM775 575h25v25h-25zM800 575h25v25h-25zM825 575h25v25h-25zM950 575h25v25h-25zM1000 575h25v25h-25zM50 600h25v25H50zM100 600h25v25h-25zM125 600h25v25h-25zM200 600h25v25h-25zM250 600h25v25h-25zM275 600h25v25h-25zM375 600h25v25h-25zM400 600h25v25h-25zM475 600h25v25h-25zM575 600h25v25h-25zM600 600h25v25h-25zM650 600h25v25h-25zM725 600h25v25h-25zM800 600h25v25h-25zM900 600h25v25h-25zM50 625h25v25H50zM75 625h25v25H75zM175 625h25v25h-25zM250 625h25v25h-25zM475 625h25v25h-25zM500 625h25v25h-25zM525 625h25v25h-25zM600 625h25v25h-25zM625 625h25v25h-25zM750 625h25v25h-25zM825 625h25v25h-25zM850 625h25v25h-25zM875 625h25v25h-25zM950 625h25v25h-25zM1025 625h25v25h-25zM50 650h25v25H50zM100 650h25v25h-25zM150 650h25v25h-25zM200 650h25v25h-25zM350 650h25v25h-25zM425 650h25v25h-25zM450 650h25v25h-25zM500 650h25v25h-25zM600 650h25v25h-25zM650 650h25v25h-25zM675 650h25v25h-25zM750 650h25v25h-25zM850 650h25v25h-25zM900 650h25v25h-25zM1025 650h25v25h-25zM1050 650h25v25h-25zM175 675h25v25h-25zM250 675h25v25h-25zM275 675h25v25h-25zM350 675h25v25h-25zM400 675h25v25h-25zM425 675h25v25h-25zM450 675h25v25h-25zM475 675h25v25h-25zM500 675h25v25h-25zM525 675h25v25h-25zM575 675h25v25h-25zM600 675h25v25h-25zM625 675h25v25h-25zM725 675h25v25h-25zM750 675h25v25h-25zM775 675h25v25h-25zM800 675h25v25h-25zM825 675h25v25h-25zM850 675h25v25h-25zM900 675h25v25h-25zM950 675h25v25h-25zM975 675h25v25h-25zM1025 675h25v25h-25zM1050 675h25v25h-25zM50 700h25v25H50zM150 700h25v25h-25zM200 700h25v25h-25zM225 700h25v25h-25zM275 700h25v25h-25zM300 700h25v25h-25zM325 700h25v25h-25zM400 700h25v25h-25zM450 700h25v25h-25zM475 700h25v25h-25zM525 700h25v25h-25zM550 700h25v25h-25zM625 700h25v25h-25zM650 700h25v25h-25zM675 700h25v25h-25zM700 700h25v25h-25zM725 700h25v25h-25zM750 700h25v25h-25zM775 700h25v25h-25zM850 700h25v25h-25zM900 700h25v25h-25zM925 700h25v25h-25zM950 700h25v25h-25zM1025 700h25v25h-25zM100 725h25v25h-25zM150 725h25v25h-25zM175 725h25v25h-25zM300 725h25v25h-25zM325 725h25v25h-25zM375 725h25v25h-25zM400 725h25v25h-25zM425 725h25v25h-25zM450 725h25v25h-25zM475 725h25v25h-25zM500 725h25v25h-25zM525 725h25v25h-25zM550 725h25v25h-25zM575 725h25v25h-25zM600 725h25v25h-25zM650 725h25v25h-25zM700 725h25v25h-25zM750 725h25v25h-25zM825 725h25v25h-25zM975 725h25v25h-25zM1000 725h25v25h-25zM1025 725h25v25h-25zM1050 725h25v25h-25zM75 750h25v25H75zM150 750h25v25h-25zM175 750h25v25h-25zM200 750h25v25h-25zM225 750h25v25h-25zM250 750h25v25h-25zM325 750h25v25h-25zM350 750h25v25h-25zM475 750h25v25h-25zM500 750h25v25h-25zM650 750h25v25h-25zM700 750h25v25h-25zM775 750h25v25h-25zM825 750h25v25h-25zM850 750h25v25h-25zM900 750h25v25h-25zM975 750h25v25h-25zM1000 750h25v25h-25zM1050 750h25v25h-25zM50 775h25v25H50zM75 775h25v25H75zM100 775h25v25h-25zM125 775h25v25h-25zM175 775h25v25h-25zM225 775h25v25h-25zM250 775h25v25h-25zM275 775h25v25h-25zM300 775h25v25h-25zM475 775h25v25h-25zM500 775h25v25h-25zM550 775h25v25h-25zM600 775h25v25h-25zM625 775h25v25h-25zM650 775h25v25h-25zM675 775h25v25h-25zM700 775h25v25h-25zM750 775h25v25h-25zM775 775h25v25h-25zM925 775h25v25h-25zM950 775h25v25h-25zM1000 775h25v25h-25zM1050 775h25v25h-25zM50 800h25v25H50zM75 800h25v25H75zM100 800h25v25h-25zM175 800h25v25h-25zM200 800h25v25h-25zM225 800h25v25h-25zM250 800h25v25h-25zM300 800h25v25h-25zM325 800h25v25h-25zM350 800h25v25h-25zM375 800h25v25h-25zM400 800h25v25h-25zM450 800h25v25h-25zM475 800h25v25h-25zM525 800h25v25h-25zM550 800h25v25h-25zM650 800h25v25h-25zM750 800h25v25h-25zM825 800h25v25h-25zM925 800h25v25h-25zM950 800h25v25h-25zM1000 800h25v25h-25zM1050 800h25v25h-25zM50 825h25v25H50zM125 825h25v25h-25zM175 825h25v25h-25zM275 825h25v25h-25zM300 825h25v25h-25zM425 825h25v25h-25zM450 825h25v25h-25zM475 825h25v25h-25zM500 825h25v25h-25zM550 825h25v25h-25zM600 825h25v25h-25zM625 825h25v25h-25zM650 825h25v25h-25zM675 825h25v25h-25zM700 825h25v25h-25zM725 825h25v25h-25zM750 825h25v25h-25zM800 825h25v25h-25zM875 825h25v25h-25zM900 825h25v25h-25zM925 825h25v25h-25zM950 825h25v25h-25zM975 825h25v25h-25zM50 850h25v25H50zM100 850h25v25h-25zM125 850h25v25h-25zM150 850h25v25h-25zM200 850h25v25h-25zM250 850h25v25h-25zM275 850h25v25h-25zM300 850h25v25h-25zM375 850h25v25h-25zM400 850h25v25h-25zM425 850h25v25h-25zM475 850h25v25h-25zM500 850h25v25h-25zM550 850h25v25h-25zM600 850h25v25h-25zM775 850h25v25h-25zM850 850h25v25h-25zM875 850h25v25h-25zM900 850h25v25h-25zM925 850h25v25h-25zM950 850h25v25h-25zM975 850h25v25h-25zM1000 850h25v25h-25zM250 875h25v25h-25zM300 875h25v25h-25zM375 875h25v25h-25zM500 875h25v25h-25zM525 875h25v25h-25zM625 875h25v25h-25zM650 875h25v25h-25zM675 875h25v25h-25zM700 875h25v25h-25zM725 875h25v25h-25zM800 875h25v25h-25zM825 875h25v25h-25zM850 875h25v25h-25zM950 875h25v25h-25zM975 875h25v25h-25zM300 900h25v25h-25zM375 900h25v25h-25zM525 900h25v25h-25zM575 900h25v25h-25zM600 900h25v25h-25zM700 900h25v25h-25zM725 900h25v25h-25zM800 900h25v25h-25zM825 900h25v25h-25zM850 900h25v25h-25zM900 900h25v25h-25zM950 900h25v25h-25zM975 900h25v25h-25zM1000 900h25v25h-25zM1025 900h25v25h-25zM250 925h25v25h-25zM300 925h25v25h-25zM325 925h25v25h-25zM400 925h25v25h-25zM450 925h25v25h-25zM475 925h25v25h-25zM600 925h25v25h-25zM625 925h25v25h-25zM700 925h25v25h-25zM725 925h25v25h-25zM750 925h25v25h-25zM825 925h25v25h-25zM850 925h25v25h-25zM950 925h25v25h-25zM1025 925h25v25h-25zM1050 925h25v25h-25zM275 950h25v25h-25zM300 950h25v25h-25zM350 950h25v25h-25zM425 950h25v25h-25zM450 950h25v25h-25zM500 950h25v25h-25zM575 950h25v25h-25zM625 950h25v25h-25zM675 950h25v25h-25zM700 950h25v25h-25zM725 950h25v25h-25zM750 950h25v25h-25zM775 950h25v25h-25zM800 950h25v25h-25zM825 950h25v25h-25zM850 950h25v25h-25zM875 950h25v25h-25zM900 950h25v25h-25zM925 950h25v25h-25zM950 950h25v25h-25zM1050 950h25v25h-25zM425 975h25v25h-25zM450 975h25v25h-25zM475 975h25v25h-25zM500 975h25v25h-25zM550 975h25v25h-25zM600 975h25v25h-25zM625 975h25v25h-25zM725 975h25v25h-25zM750 975h25v25h-25zM775 975h25v25h-25zM850 975h25v25h-25zM925 975h25v25h-25zM1025 975h25v25h-25zM1050 975h25v25h-25zM275 1000h25v25h-25zM375 1000h25v25h-25zM425 1000h25v25h-25zM475 1000h25v25h-25zM550 1000h25v25h-25zM600 1000h25v25h-25zM625 1000h25v25h-25zM650 1000h25v25h-25zM725 1000h25v25h-25zM750 1000h25v25h-25zM775 1000h25v25h-25zM800 1000h25v25h-25zM850 1000h25v25h-25zM875 1000h25v25h-25zM900 1000h25v25h-25zM925 1000h25v25h-25zM950 1000h25v25h-25zM1000 1000h25v25h-25zM1025 1000h25v25h-25zM300 1025h25v25h-25zM325 1025h25v25h-25zM375 1025h25v25h-25zM400 1025h25v25h-25zM450 1025h25v25h-25zM550 1025h25v25h-25zM600 1025h25v25h-25zM650 1025h25v25h-25zM700 1025h25v25h-25zM725 1025h25v25h-25zM750 1025h25v25h-25zM800 1025h25v25h-25zM900 1025h25v25h-25zM950 1025h25v25h-25zM1000 1025h25v25h-25zM1050 1025h25v25h-25zM300 1050h25v25h-25zM325 1050h25v25h-25zM350 1050h25v25h-25zM425 1050h25v25h-25zM525 1050h25v25h-25zM600 1050h25v25h-25zM625 1050h25v25h-25zM725 1050h25v25h-25zM775 1050h25v25h-25zM875 1050h25v25h-25zM900 1050h25v25h-25zM925 1050h25v25h-25zM950 1050h25v25h-25zM975 1050h25v25h-25zM1000 1050h25v25h-25z"/><path fill="none" d="M76.25 76.25h122.5v122.5H76.25z"/><path d="M198.75 50H50v175h175V50h-26.25zm0 148.75H76.25V76.25h122.5v122.5z"/><path fill="none" d="M926.25 76.25h122.5v122.5h-122.5z"/><path d="M1048.75 50H900v175h175V50h-26.25zm0 148.75h-122.5V76.25h122.5v122.5z"/><path fill="none" d="M76.25 926.25h122.5v122.5H76.25z"/><path d="M198.75 900H50v175h175V900h-26.25zm0 148.75H76.25v-122.5h122.5v122.5z"/><g><path d="M100 100h75v75h-75z"/></g><g><path d="M950 100h75v75h-75z"/></g><g><path d="M100 950h75v75h-75z"/></g></svg>
