<svg xmlns="http://www.w3.org/2000/svg" viewBox="0 0 1750 1225"><defs><clipPath id="a"><path d="M0 980h1400V0H0v980z"/></clipPath></defs><path fill="#d8c9b6" fill-rule="evenodd" d="M942.063 584.805l38.098 38.89h300.606V469.308l-33.108-58.535-305.596 174.033z"/><path fill="#58595b" fill-rule="evenodd" d="M944.392 407.745l54.123-55.562 195.145-.255 51.53 57.254-300.798-1.436z"/><path fill="#bcbec0" fill-rule="evenodd" d="M999.745 273.63l166.82.152-.18 198.95-166.82-.154.18-198.948z"/><path fill="#e7e8e9" fill-rule="evenodd" d="M1015.073 288.957l166.82.153-.181 198.951-166.821-.154.182-198.95z"/><path fill="#fff" fill-rule="evenodd" d="M1072.614 294.714l144.288 83.726-99.85 172.079-144.29-83.727 99.852-172.078z"/><path fill="#4a4849" fill-rule="evenodd" d="M1083.802 331.687l94.95 55.662-2.73 4.678-94.949-55.663 2.729-4.677zM1072.113 351.932l94.949 55.663-2.73 4.677-94.949-55.662 2.73-4.678zM1059.396 373.958l94.95 55.663-2.73 4.677-94.948-55.662 2.728-4.678zM1046.992 395.443l94.95 55.662-2.73 4.678-94.95-55.663 2.73-4.677z"/><path fill="#fff" fill-rule="evenodd" d="M1026.555 539.776h136.555v10.863h-136.555v-10.863z"/><path fill="#bcbec0" fill-rule="evenodd" d="M947.494 411.811h294.677v171.641H947.494v-171.64z"/><g clip-path="url(#a)" transform="matrix(1.25 0 0 -1.25 0 1225)"><path fill="#888a90" fill-rule="evenodd" d="M989.393 646.207H762.34V517.582h227.053v128.625zm-231.398 8.689h235.742c2.4 0 4.345-1.945 4.345-4.345V513.238c0-2.4-1.945-4.345-4.345-4.345H757.995a4.345 4.345 0 0 0-4.345 4.345v137.313c0 2.4 1.946 4.345 4.345 4.345"/><path fill="#6d6f71" fill-rule="evenodd" d="M794.256 567.485h164.002c4.847 0 8.813-3.966 8.813-8.813v-1.916c0-4.848-3.966-8.813-8.813-8.813H794.256c-4.847 0-8.814 3.965-8.814 8.813v1.916c0 4.847 3.967 8.813 8.814 8.813"/><path fill="#58595b" fill-rule="evenodd" d="M785.448 568.226h181.63v-8.689h-181.63v8.689z"/><path fill="#fff" fill-rule="evenodd" d="M848.263 634.729h55.208v-4.345h-55.208v4.345z"/><path fill="#d8c9b6" fill-rule="evenodd" d="M98.813 524.85l43.807-43.806h247.529v354.942l-38.067 65.935-253.27-377.07z"/><path fill="#6d6f71" fill-rule="evenodd" d="M98.813 901.44h252.436V524.851H98.813V901.44z"/><path fill="#bcbec0" fill-rule="evenodd" d="M118.364 616.861h213.331v-76.25H118.364v76.25z"/><path fill="#a8aaad" fill-rule="evenodd" d="M328.694 613.86H121.367v-70.246h207.327v70.246zm-210.33 6.004h213.331a3.003 3.003 0 0 0 3.002-3.003v-76.25a3.002 3.002 0 0 0-3.002-3.001H118.364a3.002 3.002 0 0 0-3.001 3.001v76.25a3.003 3.003 0 0 0 3.001 3.003"/><path fill="#bcbec0" fill-rule="evenodd" d="M118.364 711.848h213.331v-76.25H118.364v76.25z"/><path fill="#a8aaad" fill-rule="evenodd" d="M328.694 708.847H121.367V638.6h207.327v70.247zm-210.33 6.002h213.331a3.002 3.002 0 0 0 3.002-3.001v-76.25a3.002 3.002 0 0 0-3.002-3.001H118.364a3.002 3.002 0 0 0-3.001 3.001v76.25a3.002 3.002 0 0 0 3.001 3.001"/><path fill="#bcbec0" fill-rule="evenodd" d="M118.364 885.679h213.331V731.227H118.364v154.452z"/><path fill="#a8aaad" fill-rule="evenodd" d="M328.694 882.678H121.367V734.229h207.327v148.449zm-210.33 6.003h213.331a3.003 3.003 0 0 0 3.002-3.002V731.227a3.002 3.002 0 0 0-3.002-3.001H118.364a3.002 3.002 0 0 0-3.001 3.001v154.452a3.002 3.002 0 0 0 3.001 3.002"/><path fill="#a8aaad" fill-rule="evenodd" d="M228.02 883.448l-.173-150.303h-5.98l.173 150.303h5.98z"/><path fill="#4a4849" fill-rule="evenodd" d="M140.046 676.343h169.968a3.123 3.123 0 0 0 3.114-3.113v-2.877a3.123 3.123 0 0 0-3.114-3.113H140.046a3.122 3.122 0 0 0-3.113 3.113v2.877c0 1.712 1.4 3.113 3.113 3.113"/><path fill="#808285" fill-rule="evenodd" d="M136.933 683.556h176.151v-10.695H136.933v10.695z"/><path fill="#fff" fill-rule="evenodd" d="M201.224 693.557c-1.243 0-2.251 1.134-2.251 2.533 0 1.4 1.008 2.535 2.25 2.535h42.497c1.244 0 2.25-1.135 2.25-2.535 0-1.399-1.006-2.533-2.25-2.533h-42.496z"/><path fill="#4a4849" fill-rule="evenodd" d="M140.046 574.288h169.968a3.123 3.123 0 0 0 3.114-3.113V568.3a3.123 3.123 0 0 0-3.114-3.114H140.046a3.122 3.122 0 0 0-3.113 3.114v2.876c0 1.712 1.4 3.113 3.113 3.113"/><path fill="#808285" fill-rule="evenodd" d="M136.933 581.5h176.151v-10.694H136.933V581.5z"/><path fill="#fff" fill-rule="evenodd" d="M201.224 591.785a2.251 2.251 0 0 0 0 4.502h42.496a2.25 2.25 0 1 0 0-4.502h-42.496z"/><path fill="#808285" fill-rule="evenodd" d="M205.122 824.192h-6.005c-3.3 0-6.002-2.7-6.002-6.003v-19.834c0-3.3 2.701-6.002 6.002-6.002h6.005v31.84z"/><path fill="#4a4849" fill-rule="evenodd" d="M205.262 792.353h-6.003v31.839h6.003v-31.839z"/><path fill="#808285" fill-rule="evenodd" d="M245 824.192h6.005c3.302 0 6.003-2.7 6.003-6.003v-19.834c0-3.3-2.701-6.002-6.003-6.002H245v31.84z"/><path fill="#4a4849" fill-rule="evenodd" d="M244.861 792.353h6.002v31.839h-6.002v-31.839z"/><path fill="#d8c9b6" fill-rule="evenodd" d="M470.548 512.156l30.478-31.113H677.39v275.561l-26.486 46.83-180.356-291.278z"/><path fill="#af8356" fill-rule="evenodd" d="M470.548 803.433h180.356V506.547H470.548v296.886z"/><path fill="#2d1c0d" fill-rule="evenodd" d="M482.099 791.255h157.254V532.398H482.099v258.857z"/><path fill="#d6af88" fill-rule="evenodd" d="M640.463 599.258H483.614v-88.855h156.849v88.855zm-159.85 6.002h162.851a3.002 3.002 0 0 0 3.001-3.001v-94.857a3.002 3.002 0 0 0-3.001-3.001H480.613a3 3 0 0 0-3 3.001v94.857a3 3 0 0 0 3 3.001"/><path fill="#bbac33" fill-rule="evenodd" d="M492.243 768.968h11.012l1.28 16.262h35.723l1.453-16.262h88.478v-66.924H492.243v66.924z"/><path fill="#dbc818" fill-rule="evenodd" d="M492.243 757.852h11.012l1.28 16.26h35.723l1.453-16.26h88.478v-66.925H492.243v66.925z"/><path fill="#90673f" fill-rule="evenodd" d="M478.899 601.504l29.91 30.705 107.847.142 28.476-31.64-166.233.793zM477.046 716.186l29.647 29.316 107.845.142 28.609-30.053-166.101.595z"/><path fill="#fff200" fill-rule="evenodd" d="M492.243 746.336h11.012l1.28 16.261h35.723l1.452-16.26h88.479v-66.925H492.243v66.924z"/><path fill="#dbc818" fill-rule="evenodd" d="M620.14 723.088l-117.848-.353-10.05-.03v-9.312H630.19V723.118l-10.05-.03z"/><path fill="#c79c61" fill-rule="evenodd" d="M477.916 713.393h162.851v-94.856H477.916v94.856z"/><path fill="#d6af88" fill-rule="evenodd" d="M637.765 710.392H480.917v-88.853h156.848v88.853zm-159.849 6.003h162.851a3.002 3.002 0 0 0 3.002-3.002v-94.856a3.001 3.001 0 0 0-3.002-3.001H477.916a3 3 0 0 0-3.001 3.001v94.856a3.002 3.002 0 0 0 3.001 3.002"/><path fill="#af8356" fill-rule="evenodd" d="M504.604 658.344h113.293c3.348 0 6.088-2.739 6.088-6.088v-1.324c0-3.348-2.74-6.088-6.088-6.088H504.604c-3.348 0-6.089 2.74-6.089 6.088v1.324c0 3.35 2.741 6.088 6.09 6.088"/><path fill="#2d1c0d" fill-rule="evenodd" d="M498.52 658.857h125.47v-6.004H498.52v6.004z"/><path fill="#6d6f71" fill-rule="evenodd" d="M533.986 673.697h50.823v-14.823h-50.823v14.823z"/><path fill="#231f20" fill-rule="evenodd" d="M540.604 664.697h37.852v-3.176h-37.852v3.176z"/><path fill="#bcbec0" fill-rule="evenodd" d="M509.49 675.622l92.192-.084-.1-109.949-92.193.085.102 109.948z"/><path fill="#e7e8e9" fill-rule="evenodd" d="M517.96 667.152l92.192-.084-.1-109.948-92.192.084.1 109.948z"/><path fill="#fff" fill-rule="evenodd" d="M549.759 663.97L629.5 617.7l-55.182-95.098-79.74 46.27 55.181 95.099z"/><path fill="#4a4849" fill-rule="evenodd" d="M555.943 643.537l52.473-30.762-1.508-2.584-52.473 30.761 1.508 2.585zM549.483 632.349l52.473-30.762-1.508-2.584-52.473 30.761 1.508 2.585zM542.455 620.177l52.473-30.762-1.508-2.584-52.473 30.76 1.508 2.586zM535.6 608.303l52.473-30.76-1.508-2.586-52.473 30.762 1.508 2.584z"/><path fill="#fff" fill-rule="evenodd" d="M524.306 528.538h75.466v-6.002h-75.466v6.002z"/><path fill="#c79c61" fill-rule="evenodd" d="M480.613 599.258h162.851v-94.857H480.613v94.857z"/><path fill="#af8356" fill-rule="evenodd" d="M505.663 541.875h113.293c3.348 0 6.088-2.739 6.088-6.088v-1.323c0-3.349-2.74-6.089-6.088-6.089H505.663c-3.35 0-6.09 2.74-6.09 6.09v1.322c0 3.35 2.74 6.088 6.09 6.088"/><path fill="#2d1c0d" fill-rule="evenodd" d="M499.579 542.387h125.47v-6.003h-125.47v6.003z"/><path fill="#fff" fill-rule="evenodd" d="M537.674 584.357h48.73v-8.585h-48.73v8.585zM537.674 698.8h48.73v-8.585h-48.73v8.585z"/><path fill="#d8c9b6" fill-rule="evenodd" d="M1083.349 512.156l30.478-31.113h240.485v123.511l-26.486 46.828-244.477-139.226z"/><path fill="#bbac33" fill-rule="evenodd" d="M1108.433 731h15.941l1.854 23.539h51.71l2.104-23.538h128.079v-96.88h-199.688v96.88z"/><path fill="#dbc818" fill-rule="evenodd" d="M1108.433 714.907h15.941l1.854 23.538h51.71l2.104-23.538h128.079v-96.879h-199.688v96.879z"/><path fill="#58595b" fill-rule="evenodd" d="M1086.435 654.594l42.915 42.437 156.115.206 41.414-43.506-240.444.863z"/><path fill="#fff200" fill-rule="evenodd" d="M1108.433 698.24h15.941l1.854 23.537h51.71l2.104-23.538h128.08v-96.88h-199.689v96.88z"/><path fill="#dbc818" fill-rule="evenodd" d="M1293.574 664.585l-170.595-.512-14.546-.043V650.55h199.688v14.076l-14.547-.042z"/><path fill="#a7a9ac" fill-rule="evenodd" d="M1087.694 650.551h235.74V513.238h-235.74v137.313z"/><path fill="#888a90" fill-rule="evenodd" d="M1319.09 646.206h-227.052V517.582h227.052v128.624zm-231.396 8.689h235.74c2.4 0 4.345-1.945 4.345-4.344V513.238c0-2.4-1.945-4.345-4.345-4.345h-235.74a4.345 4.345 0 0 0-4.345 4.345v137.313a4.345 4.345 0 0 0 4.345 4.344"/><path fill="#6d6f71" fill-rule="evenodd" d="M1126.327 570.863h164c4.848 0 8.814-3.966 8.814-8.813v-1.917c0-4.848-3.966-8.813-8.813-8.813h-164.001c-4.848 0-8.813 3.965-8.813 8.813v1.917c0 4.847 3.965 8.813 8.813 8.813"/><path fill="#58595b" fill-rule="evenodd" d="M1117.521 571.603h181.628v-8.689h-181.628v8.689z"/><path fill="#fff" fill-rule="evenodd" d="M1177.96 640.415h55.208v-4.344h-55.208v4.344z"/><path fill="#d8c9b6" fill-rule="evenodd" d="M98.813 101.127l43.049-43.049h198.23v283.828L302.684 406.7 98.813 101.127z"/><path fill="#af8356" fill-rule="evenodd" d="M98.813 406.699h203.871V101.881H98.813v304.818z"/><path fill="#c79c61" fill-rule="evenodd" d="M114.111 160.793h172.29V99.212h-172.29v61.581z"/><path fill="#d6af88" fill-rule="evenodd" d="M283.977 158.369H116.536v-56.733h167.441v56.733zm-169.866 4.849h172.29a2.425 2.425 0 0 0 2.424-2.425v-61.58a2.424 2.424 0 0 0-2.424-2.424h-172.29a2.423 2.423 0 0 0-2.423 2.424v61.58a2.424 2.424 0 0 0 2.423 2.425"/><path fill="#2d1c0d" fill-rule="evenodd" d="M137.04 231.067h125.121l24.005-69.69h-171.13l22.004 69.69z"/><path fill="#e1c4a9" fill-rule="evenodd" d="M260.435 228.644h-121.62l-20.473-64.841H282.77l-22.335 64.84zm-123.394 4.848h125.12a2.425 2.425 0 0 0 2.322-1.727l23.974-69.6a2.422 2.422 0 0 0-2.29-3.21l-171.13-.001a2.425 2.425 0 0 0-2.283 3.242l21.975 69.6a2.426 2.426 0 0 0 2.311 1.696"/><path fill="#c79c61" fill-rule="evenodd" d="M114.111 243.76h172.29v-61.58h-172.29v61.58z"/><path fill="#d6af88" fill-rule="evenodd" d="M283.977 241.336H116.536v-56.732h167.441v56.732zm-169.866 4.847h172.29a2.423 2.423 0 0 0 2.424-2.423v-61.581a2.423 2.423 0 0 0-2.424-2.423h-172.29a2.423 2.423 0 0 0-2.423 2.423v61.581a2.423 2.423 0 0 0 2.423 2.423"/><path fill="#c79c61" fill-rule="evenodd" d="M114.111 378.137h172.29V253.4h-172.29v124.737z"/><path fill="#d6af88" fill-rule="evenodd" d="M283.977 375.714H116.536V255.823h167.441v119.891zm-169.866 4.847h172.29a2.424 2.424 0 0 0 2.424-2.424V253.4a2.424 2.424 0 0 0-2.424-2.425h-172.29a2.424 2.424 0 0 0-2.423 2.425v124.737a2.423 2.423 0 0 0 2.423 2.424"/><path fill="#2d1c0d" fill-rule="evenodd" d="M178.542 328.174a4.072 4.072 0 0 0 4.06-4.06v-32.077a4.073 4.073 0 0 0-4.06-4.06 4.073 4.073 0 0 0-4.06 4.06v32.077a4.072 4.072 0 0 0 4.06 4.06"/><path fill="#d6af88" fill-rule="evenodd" d="M184.291 287.598h-4.849v40.882h4.849v-40.882z"/><path fill="#2d1c0d" fill-rule="evenodd" d="M222.022 328.106a4.072 4.072 0 0 0 4.06-4.061v-31.939a4.073 4.073 0 0 0-4.06-4.061 4.072 4.072 0 0 0-4.06 4.061v31.939a4.07 4.07 0 0 0 4.06 4.061"/><path fill="#d6af88" fill-rule="evenodd" d="M221.042 287.598h-4.848v40.882h4.848v-40.882z"/><path fill="#af8356" fill-rule="evenodd" d="M131.34 217.099h137.831a2.242 2.242 0 0 0 2.235-2.233v-4.645a2.241 2.241 0 0 0-2.235-2.233h-137.83a2.241 2.241 0 0 0-2.235 2.233v4.645a2.24 2.24 0 0 0 2.234 2.233"/><path fill="#2d1c0d" fill-rule="evenodd" d="M129.108 222.272H271.37v-7.671H129.108v7.671zM181.03 229.446a1.818 1.818 0 0 0 0 3.635h34.32a1.817 1.817 0 1 0 0-3.635h-34.32z"/><path fill="#d6af88" fill-rule="evenodd" d="M201.22 254.29h-6.06v125.996h6.06V254.29z"/><path fill="#2d1c0d" fill-rule="evenodd" d="M281.663 393.36l4.503-13.073h-171.13l4.128 13.074h162.499z"/><path fill="#e1c4a9" fill-rule="evenodd" d="M284.224 393.36l4.233-12.287a2.422 2.422 0 0 0-2.29-3.21H115.035a2.424 2.424 0 0 0-2.282 3.242l3.87 12.256h5.08l-3.363-10.65H282.77l-3.669 10.65h5.124z"/><path fill="#af8356" fill-rule="evenodd" d="M131.34 136.137h137.831a2.243 2.243 0 0 0 2.235-2.234v-4.247a2.241 2.241 0 0 0-2.235-2.233h-137.83a2.241 2.241 0 0 0-2.235 2.233v4.247a2.242 2.242 0 0 0 2.234 2.234"/><path fill="#2d1c0d" fill-rule="evenodd" d="M129.108 141.309H271.37v-7.671H129.108v7.671zM181.03 148.484a1.818 1.818 0 0 0 0 3.635h34.32a1.817 1.817 0 1 0 0-3.635h-34.32z"/><path fill="#d8c9b6" fill-rule="evenodd" d="M418.52 101.127l43.049-43.049h206.06v282.706l-37.407 64.793-211.702-304.45z"/><path fill="#58595b" fill-rule="evenodd" d="M418.52 405.661h211.702v-304.38H418.52v304.38z"/><path fill="#808285" fill-rule="evenodd" d="M431.697 188.862h185.412v-78.834H431.697v78.834z"/><path fill="#77787b" fill-rule="evenodd" d="M614.615 186.367H434.192v-73.845h180.423v73.845zm-182.918 4.988h185.412a2.495 2.495 0 0 0 2.495-2.493v-78.834a2.495 2.495 0 0 0-2.495-2.494H431.697a2.495 2.495 0 0 0-2.494 2.494v78.834a2.494 2.494 0 0 0 2.494 2.493"/><path fill="#414142" fill-rule="evenodd" d="M432.415 395.078h183.912V344.92H432.415v50.158z"/><path fill="#58595b" fill-rule="evenodd" d="M486.485 133.654h75.818a4.633 4.633 0 0 0 4.619-4.62 4.633 4.633 0 0 0-4.62-4.62h-75.817a4.633 4.633 0 0 0-4.62 4.62 4.633 4.633 0 0 0 4.62 4.62"/><path fill="#808285" fill-rule="evenodd" d="M431.697 282.512h185.412v-78.833H431.697v78.833z"/><path fill="#77787b" fill-rule="evenodd" d="M614.615 280.018H434.192v-73.845h180.423v73.845zm-182.918 4.988h185.412a2.495 2.495 0 0 0 2.495-2.494v-78.833a2.495 2.495 0 0 0-2.495-2.494H431.697a2.495 2.495 0 0 0-2.494 2.494v78.833a2.494 2.494 0 0 0 2.494 2.494"/><path fill="#58595b" fill-rule="evenodd" d="M486.646 221.338h75.818a4.633 4.633 0 0 0 4.62-4.62 4.634 4.634 0 0 0-4.62-4.62h-75.818a4.633 4.633 0 0 0-4.62 4.62 4.633 4.633 0 0 0 4.62 4.62"/><path fill="#1a1b1b" fill-rule="evenodd" d="M481.442 134.317h85.921v-4.989h-85.921v4.989zM481.442 222.045h85.921v-4.989h-85.921v4.989z"/><path fill="#a7a9ac" fill-rule="evenodd" d="M431.018 375.101a1.865 1.865 0 0 0 0 3.728l7.367-.015 6.649 17.326 4.4-.096-6.984-17.258 159.147-.373c-.505 1.399-6.912 17.174-6.912 17.791l4.358.026 6.519-17.759 11.886-.024a1.863 1.863 0 1 0 0-3.726l-12.703.024a1.833 1.833 0 0 0-.493-.066l-164.46.385c-.127-.006-.256 0-.385.022l-8.389.015z"/><path fill="#bbac33" fill-rule="evenodd" d="M452.93 432.923h11.095l1.29 16.383h35.992l1.464-16.383h89.145v-67.43H452.93v67.43z"/><path fill="#dbc818" fill-rule="evenodd" d="M452.93 421.722h11.095l1.29 16.383h35.992l1.464-16.383h89.145v-67.43H452.93v67.43z"/><path fill="#fff200" fill-rule="evenodd" d="M452.93 410.12h11.095l1.29 16.384h35.992l1.464-16.383h89.145v-67.43H452.93v67.43z"/><path fill="#dbc818" fill-rule="evenodd" d="M581.792 386.696l-118.738-.355-10.124-.03v-9.383h138.986v9.799l-10.124-.031z"/><path fill="#fff" fill-rule="evenodd" d="M509.892 452.905l95.934-55.668-33.984-58.566H443.606l66.286 114.234z"/><path fill="#4a4849" fill-rule="evenodd" d="M517.332 428.322l63.129-37.008-1.816-3.11-63.128 37.009 1.815 3.109zM509.559 414.86l63.13-37.008-1.815-3.109-63.13 37.007 1.815 3.11zM501.105 400.217l63.129-37.01-1.814-3.108-63.13 37.008 1.815 3.11zM492.857 385.933l63.13-37.01-1.815-3.108-63.13 37.008 1.815 3.11z"/><path fill="#808285" fill-rule="evenodd" d="M431.697 376.051h185.412v-78.834H431.697v78.834z"/><path fill="#77787b" fill-rule="evenodd" d="M614.615 373.556H434.192v-73.845h180.423v73.845zm-182.918 4.989h185.412a2.495 2.495 0 0 0 2.495-2.494v-78.835a2.495 2.495 0 0 0-2.495-2.494H431.697a2.495 2.495 0 0 0-2.494 2.494v78.835a2.495 2.495 0 0 0 2.494 2.494"/><path fill="#58595b" fill-rule="evenodd" d="M486.646 316.37h75.818a4.634 4.634 0 0 0 4.62-4.62 4.634 4.634 0 0 0-4.62-4.62h-75.818a4.633 4.633 0 0 0-4.62 4.62 4.633 4.633 0 0 0 4.62 4.62"/><path fill="#1a1b1b" fill-rule="evenodd" d="M481.442 316.721h85.921v-4.989h-85.921v4.989z"/><path fill="#d8c9b6" fill-rule="evenodd" d="M706.94 101.127l43.05-43.049h206.06l6.64 281.568-37.408 64.793L706.94 101.127z"/><path fill="#af8356" fill-rule="evenodd" d="M706.94 404.439h218.216V101.144H706.94v303.295z"/><path fill="#c79c61" fill-rule="evenodd" d="M720.523 180.969H911.64v-81.26H720.523v81.26z"/><path fill="#d6af88" fill-rule="evenodd" d="M908.639 177.967H723.525v-75.258h185.114v75.258zm-188.116 6.003H911.64a3.002 3.002 0 0 0 3.002-3.001v-81.26a3.001 3.001 0 0 0-3.002-3.001H720.523a3 3 0 0 0-3.001 3.001v81.26a3.002 3.002 0 0 0 3.001 3.001"/><path fill="#a4794f" fill-rule="evenodd" d="M776.996 124.062h78.151a4.775 4.775 0 0 0 4.762-4.762 4.776 4.776 0 0 0-4.762-4.763h-78.15c-2.62 0-4.762 2.144-4.762 4.763a4.775 4.775 0 0 0 4.761 4.762"/><path fill="#2d1c0d" fill-rule="evenodd" d="M745.097 254.171h139.735l26.808-73.92H720.523l24.574 73.92z"/><path fill="#d6af88" fill-rule="evenodd" d="M882.737 251.17H747.249l-22.58-67.918h182.699l-24.631 67.918zm-137.64 6.003h139.735c1.38 0 2.543-.931 2.893-2.2l26.73-73.703a2.995 2.995 0 0 0-2.815-4.013v-.008H720.523a3.001 3.001 0 0 0-2.745 4.216l24.482 73.644a2.99 2.99 0 0 0 2.837 2.051v.013z"/><path fill="#2d1c0d" fill-rule="evenodd" d="M771.798 125.176h88.565v-6.003h-88.565v6.003z"/><path fill="#e1c4a9" fill-rule="evenodd" d="M728.786 200.024l-5.975-17.549 186.612-.365-6.555 17.535 4.202 1.565 7.672-20.523a2.242 2.242 0 0 0-2.085-3.067l-192.84.376a2.247 2.247 0 0 0-2.269 2.964l6.983 20.506 4.255-1.442z"/><path fill="#c79c61" fill-rule="evenodd" d="M720.523 284.185H911.64v-81.259H720.523v81.259z"/><path fill="#d6af88" fill-rule="evenodd" d="M908.639 281.184H723.525v-75.256h185.114v75.256zm-188.116 6.004H911.64a3.002 3.002 0 0 0 3.002-3.003v-81.258a3.003 3.003 0 0 0-3.002-3.002H720.523a3.002 3.002 0 0 0-3.001 3.002v81.258a3.002 3.002 0 0 0 3.001 3.003"/><path fill="#a4794f" fill-rule="evenodd" d="M777.163 221.129h78.151a4.775 4.775 0 0 0 4.761-4.763 4.774 4.774 0 0 0-4.761-4.76h-78.151c-2.62 0-4.763 2.142-4.763 4.76a4.777 4.777 0 0 0 4.763 4.763"/><path fill="#2d1c0d" fill-rule="evenodd" d="M745.097 357.389h139.735l26.808-73.922H720.523l24.574 73.922z"/><path fill="#d6af88" fill-rule="evenodd" d="M882.737 354.387H747.249l-22.58-67.918h182.699l-24.631 67.918zm-137.64 6.003h139.735c1.38 0 2.543-.932 2.893-2.2l26.73-73.703a2.994 2.994 0 0 0-2.815-4.014v-.007H720.523a3.002 3.002 0 0 0-2.745 4.217l24.482 73.644a2.99 2.99 0 0 0 2.837 2.05v.013z"/><path fill="#2d1c0d" fill-rule="evenodd" d="M771.798 222.288h88.565v-6.002h-88.565v6.002z"/><path fill="#e1c4a9" fill-rule="evenodd" d="M728.786 303.881l-5.975-17.55 186.612-.365-6.555 17.535 4.202 1.565 7.672-20.523a2.242 2.242 0 0 0-2.085-3.067l-192.84.376a2.247 2.247 0 0 0-2.269 2.964l6.983 20.506 4.255-1.44z"/><path fill="#c79c61" fill-rule="evenodd" d="M720.523 388.315H911.64v-81.259H720.523v81.259z"/><path fill="#d6af88" fill-rule="evenodd" d="M908.639 385.314H723.525v-75.256h185.114v75.256zm-188.116 6.003H911.64a3.002 3.002 0 0 0 3.002-3.002v-81.259a3.002 3.002 0 0 0-3.002-3.001H720.523a3.002 3.002 0 0 0-3.001 3.001v81.259a3.002 3.002 0 0 0 3.001 3.002"/><path fill="#a4794f" fill-rule="evenodd" d="M777.163 326.798h78.151a4.774 4.774 0 0 0 4.761-4.76v-.002a4.774 4.774 0 0 0-4.761-4.76h-78.151a4.775 4.775 0 0 0-4.763 4.76v.001a4.775 4.775 0 0 0 4.763 4.761"/><path fill="#2d1c0d" fill-rule="evenodd" d="M771.798 327.591h88.565v-6.003h-88.565v6.003z"/><path fill="#e1c4a9" fill-rule="evenodd" d="M719.824 385.987a2.243 2.243 0 1 0 0 4.485l192.166-.392a2.242 2.242 0 0 0 0-4.485l-192.166.392z"/><path fill="#fff" fill-rule="evenodd" d="M783.887 169.426h64.323v-11.118h-64.323v11.118zM783.887 273.057h64.323v-11.118h-64.323v11.118zM783.887 376.688h64.323V365.57h-64.323v11.118z"/><path fill="#d8c9b6" fill-rule="evenodd" d="M996.38 101.127l43.05-43.049h308.241l6.64 285.068-37.408 64.793L996.38 101.127z"/><path fill="#58595b" fill-rule="evenodd" d="M996.38 407.939h320.523V101.132H996.38v306.807z"/><path fill="#6d6f71" fill-rule="evenodd" d="M1014.335 174.331h136.286V94.949h-136.286v79.382z"/><path fill="#6d6f71" fill-rule="evenodd" d="M1147.62 171.329h-130.283V97.95h130.283v73.379zm-133.285 6.004h136.286a3.002 3.002 0 0 0 3.001-3.002V94.949a3.002 3.002 0 0 0-3.001-3.001h-136.286a3 3 0 0 0-3 3.001v79.382a3 3 0 0 0 3 3.002"/><path fill="#414142" fill-rule="evenodd" d="M1031.86 245.843h99.644l19.117-72.214h-136.285l17.524 72.214z"/><path fill="#d6d4d8" fill-rule="evenodd" d="M1129.201 242.842h-94.993l-16.066-66.212h128.587l-17.528 66.212zm-97.342 6.002h99.644a3.002 3.002 0 0 0 2.95-2.439l19.062-72.014a2.992 2.992 0 0 0-2.894-3.757v-.006h-136.286a3.002 3.002 0 0 0-2.849 3.947l17.465 71.972a2.992 2.992 0 0 0 2.908 2.288v.01z"/><path fill="#414142" fill-rule="evenodd" d="M1166.513 388.916h134.167a2.259 2.259 0 0 0 2.253-2.252v-7.458a2.259 2.259 0 0 0-2.253-2.252h-134.167a2.259 2.259 0 0 0-2.253 2.252v7.458a2.259 2.259 0 0 0 2.253 2.252"/><path fill="#6d6f71" fill-rule="evenodd" d="M1014.335 275.164h136.286v-79.382h-136.286v79.382zM1165.856 379.546h136.285v-79.382h-136.285v79.382z"/><path fill="#6d6f71" fill-rule="evenodd" d="M1299.14 376.545h-130.283v-73.38h130.283v73.38zm-133.284 6.004h136.285a3.002 3.002 0 0 0 3.001-3.003v-79.381a3.002 3.002 0 0 0-3.001-3.002h-136.285a3.002 3.002 0 0 0-3.001 3.002v79.381a3.002 3.002 0 0 0 3.001 3.003M1147.62 272.163h-130.283v-73.38h130.283v73.38zm-133.285 6.002h136.286a3 3 0 0 0 3.001-3.001v-79.382a3.002 3.002 0 0 0-3.001-3.001h-136.286a3 3 0 0 0-3 3.001v79.382a3 3 0 0 0 3 3.001"/><path fill="#414142" fill-rule="evenodd" d="M1031.858 348.448h99.645l19.118-72.214h-136.286l17.523 72.214z"/><path fill="#d6d4d8" fill-rule="evenodd" d="M1129.2 345.447h-94.99l-16.069-66.211h128.588l-17.529 66.21zm-97.342 6.003h99.645a3.005 3.005 0 0 0 2.95-2.44l19.062-72.014a2.992 2.992 0 0 0-2.894-3.757v-.006h-136.286a3.002 3.002 0 0 0-2.85 3.947l17.467 71.972a2.99 2.99 0 0 0 2.906 2.288v.01z"/><path fill="#414142" fill-rule="evenodd" d="M1015.394 388.916h134.168a2.259 2.259 0 0 0 2.252-2.252v-7.458a2.259 2.259 0 0 0-2.252-2.252h-134.168a2.258 2.258 0 0 0-2.252 2.252v7.458a2.258 2.258 0 0 0 2.252 2.252"/><path fill="#6d6f71" fill-rule="evenodd" d="M1014.335 379.546h136.286v-79.382h-136.286v79.382z"/><path fill="#6d6f71" fill-rule="evenodd" d="M1147.62 376.545h-130.283v-73.38h130.283v73.38zm-133.285 6.004h136.286a3.002 3.002 0 0 0 3.001-3.003v-79.381a3.002 3.002 0 0 0-3.001-3.002h-136.286c-1.657 0-3 1.345-3 3.002v79.381a3.001 3.001 0 0 0 3 3.003"/><path fill="#58595b" fill-rule="evenodd" d="M1033.604 215.514h98.053a4.634 4.634 0 0 0 4.62-4.62c0-2.54-2.079-4.62-4.62-4.62h-98.053a4.634 4.634 0 0 0-4.619 4.62 4.633 4.633 0 0 0 4.62 4.62"/><path fill="#1a1b1b" fill-rule="evenodd" d="M1028.4 215.865h108.156v-4.99H1028.4v4.99z"/><path fill="#58595b" fill-rule="evenodd" d="M1033.604 317.953h98.053a4.633 4.633 0 0 0 4.62-4.619 4.633 4.633 0 0 0-4.62-4.619h-98.053a4.633 4.633 0 0 0-4.619 4.619 4.633 4.633 0 0 0 4.62 4.619"/><path fill="#1a1b1b" fill-rule="evenodd" d="M1028.4 318.305h108.156v-4.989H1028.4v4.989z"/><path fill="#58595b" fill-rule="evenodd" d="M1185.124 317.953h98.054a4.633 4.633 0 0 0 4.62-4.619 4.632 4.632 0 0 0-4.62-4.619h-98.054a4.633 4.633 0 0 0-4.619 4.619 4.633 4.633 0 0 0 4.62 4.619"/><path fill="#1a1b1b" fill-rule="evenodd" d="M1179.921 318.305h108.155v-4.989h-108.155v4.989z"/><path fill="#fff200" fill-rule="evenodd" d="M1037.45 300.536h7.189l.837 10.615h23.318l.949-10.615h57.756V279.39h-90.048v21.145z"/><path fill="#dbc818" fill-rule="evenodd" d="M1120.938 285.36l-76.928-.232-6.56-.019v-5.719h90.048V285.378l-6.56-.019z"/><path fill="#58595b" fill-rule="evenodd" d="M1033.604 115.457h98.053a4.634 4.634 0 0 0 4.62-4.62 4.634 4.634 0 0 0-4.62-4.62h-98.053a4.633 4.633 0 0 0-4.619 4.62 4.633 4.633 0 0 0 4.62 4.62"/><path fill="#1a1b1b" fill-rule="evenodd" d="M1028.4 115.807h108.156v-4.989H1028.4v4.989z"/><path fill="#6d6f71" fill-rule="evenodd" d="M1165.856 174.331h136.285V94.949h-136.285v79.382z"/><path fill="#6d6f71" fill-rule="evenodd" d="M1299.14 171.329h-130.283V97.95h130.283v73.379zm-133.284 6.004h136.285a3.002 3.002 0 0 0 3.001-3.002V94.949a3.002 3.002 0 0 0-3.001-3.001h-136.285a3.002 3.002 0 0 0-3.001 3.001v79.382a3.002 3.002 0 0 0 3.001 3.002"/><path fill="#414142" fill-rule="evenodd" d="M1183.38 245.843h99.645l19.116-72.214h-136.285l17.524 72.214z"/><path fill="#d6d4d8" fill-rule="evenodd" d="M1280.722 242.842h-94.991l-16.068-66.212h128.587l-17.528 66.212zm-97.342 6.002h99.645a3.001 3.001 0 0 0 2.948-2.439l19.064-72.014a2.994 2.994 0 0 0-2.895-3.757v-.006h-136.286a3.002 3.002 0 0 0-2.85 3.947l17.466 71.972a2.994 2.994 0 0 0 2.908 2.288v.01z"/><path fill="#58595b" fill-rule="evenodd" d="M1185.124 115.457h98.054a4.633 4.633 0 0 0 4.62-4.62 4.633 4.633 0 0 0-4.62-4.62h-98.054a4.634 4.634 0 0 0-4.619 4.62 4.633 4.633 0 0 0 4.62 4.62"/><path fill="#1a1b1b" fill-rule="evenodd" d="M1179.921 115.807h108.155v-4.989h-108.155v4.989z"/><path fill="#414142" fill-rule="evenodd" d="M1166.513 289.654h134.167a2.26 2.26 0 0 0 2.253-2.253v-7.457a2.259 2.259 0 0 0-2.253-2.252h-134.167a2.259 2.259 0 0 0-2.253 2.252v7.457a2.26 2.26 0 0 0 2.253 2.253"/><path fill="#6d6f71" fill-rule="evenodd" d="M1165.856 280.284h136.285v-79.383h-136.285v79.383z"/><path fill="#6d6f71" fill-rule="evenodd" d="M1299.14 277.283h-130.283v-73.381h130.283v73.381zm-133.284 6.002h136.285a3.002 3.002 0 0 0 3.001-3.001v-79.383a3.002 3.002 0 0 0-3.001-3.001h-136.285a3.002 3.002 0 0 0-3.001 3.001v79.383a3.002 3.002 0 0 0 3.001 3.001"/><path fill="#58595b" fill-rule="evenodd" d="M1185.124 215.514h98.054a4.633 4.633 0 0 0 4.62-4.62c0-2.54-2.079-4.62-4.62-4.62h-98.054a4.635 4.635 0 0 0-4.619 4.62 4.633 4.633 0 0 0 4.62 4.62"/><path fill="#1a1b1b" fill-rule="evenodd" d="M1179.921 215.865h108.155v-4.99h-108.155v4.99z"/><path fill="#fff" fill-rule="evenodd" d="M1202.421 209.297h63.155v-6.003h-63.155v6.003z"/><path fill="#fff" fill-rule="evenodd" d="M1190.85 181.17l.122 51.174 86.067.299.107-51.571-86.296.098z"/><path fill="#fff" fill-rule="evenodd" d="M1192.463 230.854l-.113-48.191 83.299-.095-.101 48.574-83.085-.288zm-3.106-49.684l.125 52.663c29.682.1 59.366.202 89.049.309l.113-54.566c-29.763.03-59.527.065-89.291.1l.004 1.494z"/><path fill="#6d6f71" fill-rule="evenodd" d="M1201.138 222.787h65.723v-3.001h-65.723v3.001zM1201.138 212.5h65.723v-3.001h-65.723v3.001zM1201.138 202.708h65.723v-3.001h-65.723v3.001zM1201.138 193.723h65.723v-3.001h-65.723v3.001z"/></g></svg>
