<svg xmlns="http://www.w3.org/2000/svg" viewBox="0 0 512 592"><defs><linearGradient id="a" x1="50%" x2="50%" y1="100%" y2="0%"><stop offset="0%" stop-color="#E3E3E3"/><stop offset="100%" stop-color="#92DCFF"/></linearGradient><linearGradient id="b" x1="0%" y1="0%" y2="100%"><stop offset="0%" stop-color="#B4ED50"/><stop offset="100%" stop-color="#429321"/></linearGradient><linearGradient id="c" x1="0%" x2="97.313%" y1="0%" y2="97.313%"><stop offset="0%" stop-opacity="0"/><stop offset="100%" stop-color="#D7D7D7"/></linearGradient></defs><g fill="none" fill-rule="evenodd"><g fill-rule="nonzero"><path fill="#AFAFAF" d="M75.938 69H5.06C2.268 69 0 66.762 0 64.004v-45.04c0-2.757 2.268-4.914 5.063-4.914H81v49.954C81 66.762 78.732 69 75.937 69"/><path fill="url(#a)" d="M40.5 9.99H5.062C2.268 9.99 0 12.15 0 14.907v45.04c0 2.757 2.268 4.995 5.063 4.995h70.874c2.795 0 5.063-2.237 5.063-4.993V9.99H40.5"/><path fill="#84D1F8" d="M75.938 0H50.624c-2.794 0-5.063 2.238-5.063 4.996 0 0-.658 4.58-5.062 4.995H81V4.997C81 2.238 78.732 0 75.937 0h.001z"/></g><text fill="#000" font-family="Georgia" font-size="24"><tspan x="109" y="40">starter-kit</tspan></text><g fill-rule="nonzero"><path fill="#AFAFAF" d="M210.938 152h-70.875c-2.795 0-5.063-2.238-5.063-4.996v-45.04c0-2.757 2.268-4.914 5.063-4.914H216v49.954c0 2.758-2.268 4.996-5.063 4.996"/><path fill="url(#a)" d="M40.5 9.99H5.062C2.268 9.99 0 12.15 0 14.907v45.04c0 2.757 2.268 4.995 5.063 4.995h70.874c2.795 0 5.063-2.237 5.063-4.993V9.99H40.5" transform="translate(135 83)"/><path fill="#84D1F8" d="M210.938 83h-25.313c-2.794 0-5.063 2.238-5.063 4.996 0 0-.658 4.58-5.062 4.995H216v-4.994c0-2.758-2.268-4.996-5.063-4.996l.001-.001z"/></g><text fill="#000" font-family="Georgia" font-size="24" transform="translate(135 83)"><tspan x="109" y="40">images</tspan></text><path stroke="#979797" stroke-linecap="round" stroke-width="4" d="M41 90v467.47h65M42 119h62M44 455h62m69-279v177.62l65-.434M176 210h62"/><g fill-rule="nonzero" transform="translate(145 418.5)"><path fill="url(#b)" d="M4.32.46A3.795 3.795 0 0 0 .522 4.28v62.44a3.795 3.795 0 0 0 3.798 3.82h46.36a3.795 3.795 0 0 0 3.798-3.82V19.802H40.51c-2.858 0-5.353-2.086-5.353-4.856V.46H4.32zm33.494 0v14.486c0 1.138 1.083 2.2 2.697 2.2H54.48L37.814.46z"/><rect width="25.252" height="4.108" x="7.682" y="17.17" fill="#4D4D4D" rx="1.767"/><rect width="39.635" height="4.108" x="7.682" y="36.314" fill="#4D4D4D" rx="1.767"/><rect width="25.252" height="4.108" x="7.682" y="26.742" fill="#4D4D4D" rx="1.767"/><rect width="39.635" height="4.108" x="7.682" y="45.886" fill="#4D4D4D" rx="1.767"/><rect width="39.635" height="4.108" x="7.682" y="55.458" fill="#4D4D4D" rx="1.767"/></g><text fill="#000" font-family="Georgia" font-size="24" transform="translate(215 438)"><tspan x="0" y="22.5">styles.css</tspan></text><g fill-rule="nonzero" transform="translate(145 521)"><path fill="url(#c)" d="M3.798 0A3.794 3.794 0 0 0 0 3.818v62.44a3.794 3.794 0 0 0 3.798 3.82h46.36a3.794 3.794 0 0 0 3.797-3.82V19.342H39.99c-2.86 0-5.355-2.085-5.355-4.855V0H3.798zm33.493 0v14.485c0 1.138 1.085 2.2 2.7 2.2h13.965L37.29 0h.001z"/><rect width="25.252" height="4.108" x="6.682" y="14.17" fill="#4D4D4D" rx="1.767"/><rect width="39.635" height="4.108" x="6.682" y="33.314" fill="#4D4D4D" rx="1.767"/><rect width="25.252" height="4.108" x="6.682" y="23.742" fill="#4D4D4D" rx="1.767"/><rect width="39.635" height="4.108" x="6.682" y="42.886" fill="#4D4D4D" rx="1.767"/><rect width="39.635" height="4.108" x="6.682" y="52.458" fill="#4D4D4D" rx="1.767"/></g><text fill="#000" font-family="Georgia" font-size="24" transform="translate(214 538)"><tspan x="0" y="22">index.html</tspan></text><text fill="#000" font-family="Georgia" font-size="24"><tspan x="336" y="283">…</tspan></text><text fill="#000" font-family="Georgia" font-size="24"><tspan x="336" y="263">…</tspan></text><text fill="#000" font-family="Georgia" font-size="24"><tspan x="336" y="303">…</tspan></text><g><text fill="#000" font-family="Georgia" font-size="24" transform="translate(340 336.643)"><tspan x="0" y="22.5">sun-pattern.png</tspan></text><g fill-rule="nonzero"><path fill="#F2F2F2" d="M322.79 323.735h-53.364a2.433 2.433 0 0 0-2.426 2.426v53.365a2.433 2.433 0 0 0 2.426 2.425h53.364a2.433 2.433 0 0 0 2.426-2.425V326.16a2.433 2.433 0 0 0-2.426-2.426z"/><path fill="#84DBFF" d="M271.245 327.98h49.726v40.145h-49.726z"/><path fill="#334A5E" d="M297.32 368.125h-26.075v-10.188c2.062-.606 4.366-.849 6.67-.849 2.911 0 5.822.486 8.248 1.456.727.242 1.334.485 1.94.849 4.245 1.94 7.52 4.972 9.218 8.732z"/><path fill="#40596B" d="M320.971 355.269v12.856h-39.174c1.091-3.396 3.396-6.428 6.428-8.854 4.972-4.002 12.007-6.428 20.011-6.428 4.488 0 8.975.85 12.735 2.426z"/><g fill="#FFF" transform="translate(276.17 330.7)"><circle cx="5.02" cy="7.226" r="4.973"/><path d="M41.163 4.8c.121-.364.121-.727.121-1.091 0-1.94-1.576-3.639-3.638-3.639-1.334 0-2.547.728-3.154 1.82-.363-.243-.849-.243-1.334-.243a3.278 3.278 0 0 0-3.274 2.79c-.97.242-1.698 1.09-1.698 2.061 0 1.213.97 2.183 2.183 2.183h9.581c1.213 0 2.183-.97 2.183-2.183 0-.728-.364-1.334-.97-1.698z"/></g></g></g><g><text fill="#000" font-family="Georgia" font-size="24" transform="translate(340 194.643)"><tspan x="0" y="22.5">cloudy-day.png</tspan></text><g fill-rule="nonzero"><path fill="#F2F2F2" d="M322.79 181.735h-53.364a2.433 2.433 0 0 0-2.426 2.426v53.365a2.433 2.433 0 0 0 2.426 2.425h53.364a2.433 2.433 0 0 0 2.426-2.425V184.16a2.433 2.433 0 0 0-2.426-2.426z"/><path fill="#84DBFF" d="M271.245 185.98h49.726v40.145h-49.726z"/><path fill="#334A5E" d="M297.32 226.125h-26.075v-10.188c2.062-.606 4.366-.849 6.67-.849 2.911 0 5.822.486 8.248 1.456.727.242 1.334.485 1.94.849 4.245 1.94 7.52 4.972 9.218 8.732z"/><path fill="#40596B" d="M320.971 213.269v12.856h-39.174c1.091-3.396 3.396-6.428 6.428-8.854 4.972-4.002 12.007-6.428 20.011-6.428 4.488 0 8.975.85 12.735 2.426z"/><g fill="#FFF" transform="translate(276.17 188.7)"><circle cx="5.02" cy="7.226" r="4.973"/><path d="M41.163 4.8c.121-.364.121-.727.121-1.091 0-1.94-1.576-3.639-3.638-3.639-1.334 0-2.547.728-3.154 1.82-.363-.243-.849-.243-1.334-.243a3.278 3.278 0 0 0-3.274 2.79c-.97.242-1.698 1.09-1.698 2.061 0 1.213.97 2.183 2.183 2.183h9.581c1.213 0 2.183-.97 2.183-2.183 0-.728-.364-1.334-.97-1.698z"/></g></g></g></g></svg>
