<svg xmlns="http://www.w3.org/2000/svg" viewBox="0 0 512 512"><g fill="#ff5722"><circle cx="54.674" cy="256" r="53.333"/><circle cx="406.61" cy="458.667" r="53.333"/><circle cx="406.61" cy="53.333" r="53.333"/><path d="M262.098 147.669a10.666 10.666 0 0 0 11.84 5.013c55.924-14.4 113.089 18.592 128.597 74.219a10.665 10.665 0 0 0 10.261 7.765h87.168c5.891.003 10.669-4.77 10.673-10.661 0-.566-.045-1.132-.134-1.691a212.774 212.774 0 0 0-48.512-104.981 10.666 10.666 0 0 0-13.995-1.877A74.27 74.27 0 0 1 406.673 128c-40.78-.145-73.959-32.869-74.667-73.643a10.666 10.666 0 0 0-9.536-10.453 213.985 213.985 0 0 0-98.667 12.928c-5.501 2.108-8.251 8.277-6.143 13.778.201.524.443 1.032.724 1.518l43.714 75.541zM499.986 277.333h-87.168a10.666 10.666 0 0 0-10.261 7.765c-15.489 55.642-72.67 88.643-128.597 74.219a10.666 10.666 0 0 0-11.84 5.013l-43.605 75.541c-2.947 5.101-1.201 11.625 3.9 14.572.486.281.994.523 1.518.724a210.656 210.656 0 0 0 98.667 12.928 10.667 10.667 0 0 0 9.536-10.453c.472-41.14 34.205-74.109 75.345-73.637a74.488 74.488 0 0 1 40.516 12.538 10.667 10.667 0 0 0 14.016-1.941 212.78 212.78 0 0 0 48.512-104.917c.931-5.817-3.03-11.287-8.847-12.218a10.783 10.783 0 0 0-1.692-.134zM223.548 330.261c-40.254-41.333-40.254-107.211 0-148.544a10.668 10.668 0 0 0 1.579-12.8l-43.541-75.371a10.668 10.668 0 0 0-7.317-5.163 11.133 11.133 0 0 0-8.661 2.133 213.5 213.5 0 0 0-67.243 96.32 10.667 10.667 0 0 0 3.307 11.712c31.735 25.306 36.947 71.546 11.641 103.281a73.49 73.49 0 0 1-11.641 11.641 10.667 10.667 0 0 0-3.307 11.712 213.512 213.512 0 0 0 67.221 96.235 10.663 10.663 0 0 0 6.741 2.389 11.653 11.653 0 0 0 1.92-.171 10.666 10.666 0 0 0 7.317-5.163l43.541-75.413a10.663 10.663 0 0 0-1.557-12.798z"/></g></svg>
