<svg xmlns="http://www.w3.org/2000/svg" width="1366" height="1150" fill="none">
  <path fill="#000" d="M158.299 643.501c-2.87-.186-3.71-.266-5.632-.539-9.075-1.286-17.25-4.499-24.556-9.648-1.688-1.19-3.596-2.787-5.298-4.433-4.846-4.69-8.505-10.46-10.458-16.491a36.443 36.443 0 0 1-1.08-18.327c1.081-5.402 3.471-10.7 6.908-15.313 7.984-10.718 21-17.85 35.806-19.62a60.234 60.234 0 0 1 13.314-.094c18.589 1.93 34.522 12.473 41.07 27.177 2.138 4.803 3.188 9.715 3.188 14.913 0 4.135-.621 7.876-1.961 11.805-1.67 4.896-4.403 9.499-8.105 13.65-.794.89-2.68 2.783-3.52 3.533-8.048 7.19-18.62 11.761-30.226 13.073-2.144.242-3.266.3-6.173.318-1.61.01-3.085.008-3.277-.004Zm5.09-4.035c8.727-.38 16.841-2.65 24.002-6.716.961-.545 2.615-1.566 2.777-1.714.22-.2.383-2.276.27-3.437-.294-3.021-1.638-5.73-4.044-8.151-1.37-1.379-2.852-2.456-4.455-3.238-1.316-.642-2.273-.938-3.309-1.023-.76-.063-1.105.029-2.303.613-3.878 1.892-7.499 2.908-12.047 3.38-.503.052-1.683.082-3.213.082s-2.71-.03-3.214-.082c-4.569-.474-8.276-1.519-12.085-3.405l-1.172-.58-.578-.024c-1.096-.046-2.362.315-3.983 1.137-4.19 2.122-7.32 5.984-8.147 10.05-.236 1.166-.262 2.916-.061 4.153l.08.494.867.55c8.767 5.568 19.68 8.388 30.615 7.911Zm-35.508-13.695c.715-3.743 3.013-7.54 6.236-10.306 1.653-1.42 3.762-2.722 5.452-3.367l.393-.15-.934-.927c-1.032-1.026-1.578-1.65-2.375-2.715-4.552-6.081-5.104-13.717-1.464-20.237l.256-.458-.306-.401c-.405-.534-1.441-1.53-2.092-2.012-2.376-1.762-5.195-2.8-7.935-2.92-2.487-.111-4.572.68-5.775 2.189-.472.592-.724 1.028-1.414 2.453-1.819 3.754-2.866 7.582-3.215 11.753-.085 1.024-.085 3.89 0 4.907.395 4.665 1.634 8.87 3.837 13.01 2.088 3.925 5.143 7.75 8.598 10.767l.451.394.078-.649c.043-.357.137-.956.209-1.331Zm67.724 1.049c5.861-5.333 9.884-12.242 11.311-19.426.429-2.159.597-3.922.598-6.268.002-3.722-.536-6.962-1.743-10.49-.721-2.108-2.042-4.96-2.722-5.877-1.293-1.743-3.31-2.587-5.932-2.48-2.967.12-5.935 1.261-8.409 3.232-.592.472-1.501 1.395-1.799 1.827l-.184.268.514 1c1.426 2.78 2.114 5.54 2.114 8.48 0 5.171-2.335 10.288-6.473 14.186-.373.35-.665.65-.65.663.015.013.314.145.664.292 2.075.874 4.254 2.336 5.975 4.009 3.079 2.992 4.992 6.556 5.54 10.32.054.373.099.797.099.943 0 .253.006.262.127.177.07-.05.506-.434.97-.856Zm-32.706-11.6c2.86-.171 5.49-.67 8.063-1.527 1.873-.624 3.416-1.321 4.964-2.243 2.001-1.192 3.26-2.162 4.662-3.59.977-.994 1.462-1.587 2.18-2.661 1.7-2.545 2.528-5.201 2.53-8.114 0-3.325-1.137-6.446-3.388-9.29-1.019-1.288-2.695-2.85-4.212-3.926-4.163-2.95-9.553-4.682-15.295-4.912-4.468-.18-8.695.51-12.632 2.062-5.458 2.152-9.755 5.933-11.683 10.282-1.701 3.838-1.653 8.036.138 11.879 1.224 2.628 3.44 5.168 6.217 7.13 4.931 3.482 11.794 5.308 18.456 4.91Zm-22.62-33.23c3.994-3.447 9.597-5.873 15.538-6.726.87-.125 2.771-.324 3.097-.324h.149l-.016-6.061-.017-6.062-.604.02c-1.796.058-4.662.364-6.746.72-7.88 1.343-15.158 4.358-21.254 8.802-1.911 1.394-3.453 2.72-5.218 4.488l-1.367 1.37 1.145.041c2.26.081 4.17.476 6.275 1.296 2.57 1.002 4.947 2.569 6.356 4.19l.409.47.793-.824c.469-.485.956-.952 1.46-1.4Zm44.722 1.299c.486-.484 1.163-1.087 1.504-1.341 2.465-1.836 5.753-3.149 8.957-3.576.559-.058 1.12-.096 1.682-.114l1.141-.04-1.035-1.065c-5.454-5.607-12.531-9.777-20.656-12.172-3.95-1.165-8.621-1.952-12.52-2.111l-1.003-.04v12.096l.589.043c5.335.388 10.397 1.926 14.589 4.432 1.947 1.165 3.344 2.25 4.899 3.81.524.526.957.956.961.956.004 0 .406-.395.892-.878Z"/>
  <path fill="#F57C23" fill-rule="evenodd" d="M163.39 639.466c8.726-.38 16.84-2.65 24-6.716.962-.545 2.616-1.566 2.778-1.714.22-.2.383-2.276.27-3.437-.294-3.021-1.638-5.73-4.044-8.151-1.37-1.379-2.852-2.456-4.455-3.238-1.316-.642-2.273-.938-3.309-1.023-.76-.063-1.105.029-2.303.613-3.878 1.892-7.499 2.908-12.047 3.38-.503.052-1.683.082-3.213.082s-2.71-.03-3.214-.082c-4.569-.474-8.276-1.519-12.085-3.405l-1.172-.58-.578-.024c-1.096-.046-2.362.315-3.983 1.137-4.19 2.122-7.32 5.984-8.147 10.05-.236 1.166-.262 2.916-.061 4.153l.08.494.867.55c8.767 5.568 19.681 8.388 30.616 7.911ZM185 583.289c.487-.484 1.164-1.087 1.505-1.341 2.465-1.836 5.753-3.149 8.957-3.576.559-.058 1.12-.096 1.682-.114l1.141-.04-1.035-1.065c-5.454-5.607-12.531-9.777-20.656-12.172-3.95-1.165-8.621-1.952-12.52-2.111l-1.003-.04v12.096l.589.043c5.335.388 10.397 1.926 14.589 4.432 1.947 1.165 3.344 2.25 4.899 3.81.524.526.957.956.961.956.004 0 .406-.395.892-.878H185Z" clip-rule="evenodd"/>
  <path fill="#fff" fill-rule="evenodd" stroke="#1D877A" stroke-linecap="square" stroke-width="3" d="M219.898 530.712c.658-1.008-30.43-33.23-34.587-33.893-4.156-.663-84.977 13.588-86.201 15.2-.594.78 11.78 12.597 15.414 16.952 3.866 4.634 13.572 17.928 14.22 17.814 1.259-.222 90.497-15.065 91.154-16.073Z" clip-rule="evenodd"/>
  <path stroke="#DAE875" stroke-linecap="round" stroke-width="5" d="M227.187 555.41c4.667-2.689 7.23-5.99 7.692-9.907.461-3.915-.51-9.423-2.913-16.522m-58.923 74.235c-3.13 2.838-5.025 5.325-5.686 7.46-.66 2.136-.409 5.46.757 9.976l-7.04 4.107m31.415-24.971c3.911 1.596 6.542 3.284 7.894 5.065 1.351 1.78 2.251 4.992 2.7 9.633l8.02 1.451"/>
  <path fill="#fff" fill-rule="evenodd" stroke="#1D877A" stroke-width="3" d="M231.307 595.176c.288-.419.077-4.67-.757-10.805-.804-5.92-2.141-13.733-3.795-22.329-1.487-7.73-3.15-15.66-4.568-21.832-.69-3.002-1.297-5.476-1.774-7.226a38.767 38.767 0 0 0-.565-1.921c-.074.007-.146.009-.183.012-.705.052-1.722.16-3.028.32-2.545.313-6.148.823-10.594 1.497-8.662 1.313-20.135 3.192-31.683 5.187-12.101 2.09-23.365 4.148-31.695 5.802-4.49.892-8.073 1.656-10.6 2.263-1.304.313-2.317.583-3.016.802-.34.107-.697.262-.508-.009.135-.194.102.011.093.283-.018.518-.002 1.25.047 2.174.099 1.842.328 4.396.67 7.483.69 6.212 1.795 14.201 3.057 22.049 1.367 8.506 2.823 16.278 4.165 22.089 1.378 5.964 2.73 9.926 3.212 10.21 1.515.895 22.45-1.787 46.398-6.01 11.55-2.036 22.618-4.21 30.92-6.084 4.362-.985 7.891-1.872 10.414-2.621 1.288-.383 2.3-.726 3.014-1.021.522-.216.836-.4.776-.313Z" clip-rule="evenodd"/>
  <path stroke="#000" stroke-linecap="round" stroke-width="4" d="M170.66 582.689c5.282 2.214 9.19 3.097 11.723 2.65 2.532-.446 5.902-2.613 10.11-6.5m-26.606-12.621.781 4.432m24.342-8.861.78 4.431"/>
  <path fill="#fff" fill-rule="evenodd" stroke="#1D877A" stroke-linecap="square" stroke-width="3" d="M99.42 513.63c-1.326.87 2.528 22.725 11.56 65.566 18.406 22.128 27.846 32.669 28.322 31.62.714-1.57-2.107-11.951-5.24-29.715-2.088-11.842-3.778-23.238-5.07-34.187-18.39-23.06-28.246-34.154-29.572-33.284Z" clip-rule="evenodd"/>
  <path stroke="#1D877A" stroke-linecap="square" stroke-width="3" d="m113.493 528.285 89.152-15.72"/>
  <path stroke="#DAE875" stroke-linecap="round" stroke-width="5" d="M119.383 568.228c-5.78-1.06-10.166-3.005-13.156-5.833-2.99-2.828-7.259-6.688-12.806-11.58"/>
  <path fill="#000" d="M209.185 553.391c-7.236.137-20.703 2.286-29.913 6.64l-4.176.736c-10.144-.94-23.53 1.657-30.38 3.992-.836.373-.176 4.112.518 4.215 1.439.423 2.328 1.63 2.328 1.63s.67 1.246 2.627 5.884c1.95 4.663 4.97 5.044 4.97 5.044s3.676.254 7.634-.444 6.347-1.345 8.749-3.133c2.402-1.787 2.885-5.503 2.885-5.503s.78-3.317 1.151-6.325c.063-.925 4.47-1.702 4.844-.854 1.38 2.71 3.245 5.55 3.245 5.55s1.725 3.326 4.594 4.184c2.88.857 5.334.65 9.292-.049 3.958-.697 7.325-2.193 7.325-2.193s2.75-1.16 2.95-6.416c.212-5.258.456-6.428.456-6.428s.423-1.439 1.63-2.328c.857-.388.157-4.358-.729-4.202Z"/>
  <path fill="#fff" fill-rule="evenodd" stroke="#1D877A" stroke-linecap="square" stroke-width="3" d="M818.524 635.781c.822-.879-24.198-38.01-28.176-39.385-3.979-1.374-136.046-1.374-137.532 0-.72.666 9.414 14.452 12.237 19.373 3.003 5.235 10.253 20.012 10.911 20.012 1.278 0 141.737.879 142.56 0Z" clip-rule="evenodd"/>
  <path stroke="#DAE875" stroke-linecap="round" stroke-width="5" d="M821.414 661.369c5.062-1.837 8.16-4.644 9.295-8.42 1.134-3.776 1.134-9.368 0-16.777m-93.541 60.558c-3.575 2.252-5.873 4.372-6.895 6.36-1.022 1.988-1.35 5.306-.987 9.955l-7.646 2.822m35.274-19.137c3.574 2.252 5.872 4.372 6.894 6.36 1.022 1.988 1.35 5.306.987 9.955l7.646 2.822"/>
  <path fill="#fff" fill-rule="evenodd" stroke="#1D877A" stroke-width="3" d="M818.568 701.244c.356-.38.885-4.598 1.128-10.77.236-5.969.276-13.896.14-22.648-.122-7.87-.382-15.968-.707-22.294-.159-3.076-.327-5.618-.492-7.424a38.736 38.736 0 0 0-.222-1.982c-.24.026-.605-.018-.696-.024a150.16 150.16 0 0 0-4.647-.214c-3.903-.134-9.47-.258-16.371-.366-13.42-.21-31.29-.353-49.301-.394-18.87-.043-36.446.028-49.421.21-7.005.1-12.588.23-16.516.39-2.043.083-3.629.174-4.727.271-.521.046-1.276.176-1-.104.167-.168.1.029.043.295a26.415 26.415 0 0 0-.33 2.15c-.223 1.83-.441 4.385-.64 7.485-.4 6.237-.698 14.297-.819 22.245-.13 8.614-.046 16.52.267 22.477.321 6.112.965 10.249 1.39 10.612.487.417 9.628 1.106 22.903 1.515 13.14.405 30.651.624 48.833.624s35.653-.22 48.719-.624c6.891-.214 12.45-.475 16.408-.777 2.041-.156 3.643-.322 4.772-.495.812-.124 1.406-.286 1.286-.158Z" clip-rule="evenodd"/>
  <path stroke="#000" stroke-linecap="round" stroke-width="4" d="M737.007 678.418c4.819 3.097 8.514 4.646 11.085 4.646 2.572 0 6.267-1.549 11.085-4.646m-24.009-17.049v4.5m25.509-4.5v4.5"/>
  <path fill="#fff" fill-rule="evenodd" stroke="#1D877A" stroke-linecap="square" stroke-width="3" d="M652.842 598.037c-1.457.626-1.457 22.82 0 66.578 14.283 24.988 21.75 37.008 22.4 36.058.976-1.423 0-12.136 0-30.174 0-12.025.315-23.541.944-34.548-14.107-25.902-21.888-38.54-23.344-37.914Z" clip-rule="evenodd"/>
  <path stroke="#1D877A" stroke-linecap="square" stroke-width="3" d="M664.156 614.914h140.528"/>
  <path stroke="#DAE875" stroke-linecap="round" stroke-width="5" d="M663.021 655.273c-5.508-2.048-9.49-4.724-11.943-8.03-2.454-3.304-5.987-7.847-10.6-13.627"/>
  <path stroke="#DAE875" stroke-linecap="round" stroke-width="16" d="M948.44 878.738c-15.904 10.837-26.076 22.49-30.516 34.957-4.44 12.468-6.372 26.533-5.793 42.196h-31.39m140.219-9.327c-3.25 13.596-3.01 26.743.72 39.44 3.74 12.696 12.05 24.136 24.93 34.316l-10.38 27.47"/>
  <path fill="#EEE" fill-rule="evenodd" stroke="#1D877A" stroke-width="6" d="M1302.03 735.387v168.05l-263.82-187.992c-5.15-110.22-5.15-166.513 0-168.879 5.16-2.365 93.1 60.575 263.82 188.82v.001Z" clip-rule="evenodd"/>
  <path fill="#fff" fill-rule="evenodd" d="M1112.92 810.658c0-3.853-34.47-24.249-39.01-24.249-4.55 0-59.81 19.197-61.37 22.407-1.03 2.14 12.43 10.546 40.4 25.216" clip-rule="evenodd"/>
  <path stroke="#1D877A" stroke-linecap="square" stroke-width="3" d="M1112.92 810.658c0-3.853-34.47-24.249-39.01-24.249-4.55 0-59.81 19.197-61.37 22.407-1.03 2.14 12.43 10.546 40.4 25.216"/>
  <path stroke="#000" stroke-linecap="round" stroke-width="5" d="M1115.31 834.434c5.2.834 8.88 1.986 11.03 3.457 2.15 1.47 4.81 4.651 7.97 9.543m-52.25 21.667c4.01 3.252 6.52 5.872 7.54 7.86 1.02 1.988 1.72 5.614 2.09 10.879l8.88-3.429m-40.99-5.516a73.379 73.379 0 0 1-2.95 5.161c-1.17 1.9-3.68 4.018-7.51 6.355l7.51 5.844"/>
  <path stroke="#1D877A" stroke-linecap="square" stroke-width="3" d="m1093.24 797.502-62.59 23.869"/>
  <path fill="#fff" fill-rule="evenodd" d="M1112.79 811.225c.82.963 2.07 13.022 2.28 25.484.23 14.096-.8 25.558-2.42 26.906-2.91 2.43-23.51 9.971-60.84 22.178-1.01-32.002-1-50.042-.13-51.58-.06.11.13-.045.45-.245a27.06 27.06 0 0 1 2-1.107c1.7-.865 4.08-1.966 7-3.241 5.7-2.488 13.23-5.529 20.87-8.43 7.96-3.026 15.45-5.68 21.12-7.464 3.02-.953 5.49-1.645 7.28-2.04.9-.199 1.62-.32 2.13-.36.22-.016.35-.01.29-.078l-.03-.023Zm.03.023a.267.267 0 0 0-.07-.063c.01.012.03.025.04.04l.03.023Z" clip-rule="evenodd"/>
  <path stroke="#1D877A" stroke-width="3" d="M1112.79 811.225c.82.963 2.07 13.022 2.28 25.484.23 14.096-.8 25.558-2.42 26.906-2.91 2.43-23.51 9.971-60.84 22.178-1.01-32.002-1-50.042-.13-51.58-.06.11.13-.045.45-.245a27.06 27.06 0 0 1 2-1.107c1.7-.865 4.08-1.966 7-3.241 5.7-2.488 13.23-5.529 20.87-8.43 7.96-3.026 15.45-5.68 21.12-7.464 3.02-.953 5.49-1.645 7.28-2.04.9-.199 1.62-.32 2.13-.36.22-.016.35-.01.29-.078m-.03-.023.03.023m-.03-.023c-.01-.015-.03-.028-.04-.04.03.018.05.039.07.063"/>
  <path fill="#fff" fill-rule="evenodd" stroke="#1D877A" stroke-width="3" d="M1052.81 886.438h.02a.262.262 0 0 1-.04-.004l.02.004Zm-.59-.16c-.45-.157-1.05-.416-1.77-.776-1.85-.92-4.48-2.46-7.88-4.614-6.75-4.277-16.49-10.949-29.19-20.012-1.29-16.78-1.94-29.59-1.94-38.423 0-8.216.66-13.093 1.3-13.497.93-.59 9.53 3.85 19.8 10.56 9.15 5.975 18.62 13.008 19.39 14.243.63 1.007 1.26 13.476 1.31 27.13.03 6.802-.08 13.212-.32 18.002-.13 2.534-.29 4.576-.48 6.03-.07.545-.15 1-.22 1.357Z" clip-rule="evenodd"/>
  <path stroke="#000" stroke-linecap="round" stroke-width="5" d="M1032.08 853.606c-5.58.677-9.68 3.239-12.29 7.684-2.62 4.445-1.86 10.313 2.26 17.605"/>
  <path stroke="#000" stroke-linecap="round" stroke-width="4" d="M1092.31 839.434v3m-18.88 3.652v3"/>
  <path stroke="#000" stroke-linecap="round" stroke-width="3" d="M1091.31 856.01c-1.72 2.753-3.37 4.38-4.96 4.884-1.59.503-4.2.228-7.84-.824"/>
  <path stroke="#DAE875" stroke-linecap="round" stroke-width="16" d="M948.018 685.285c-29.107-.797-50.202-5.554-63.286-14.271-13.083-8.718-25.046-23.912-35.89-45.582"/>
  <path fill="#fff" fill-rule="evenodd" stroke="#1D877A" stroke-width="6" d="M1302.39 740.007 1124.18 884.19c-.74 56.541-.89 99.13-.43 127.76.22 14.4.6 25.25 1.13 32.54.24 3.28.5 5.82.79 7.6.19-.12.39-.24.6-.37 2.13-1.36 5.18-3.49 9.12-6.38 7.94-5.84 19.46-14.75 34.56-26.71 30.04-23.823 74.18-59.749 132.44-107.779V740.007Zm-443.796-46.132c0-6.686 171.166-147.637 178.436-147.637 4.85 0 4.85 57.325 0 171.975l-123.505 99.553c-36.62-78.137-54.931-119.434-54.931-123.891Z" clip-rule="evenodd"/>
  <path fill="#fff" fill-rule="evenodd" stroke="#1D877A" stroke-width="6" d="M1123.48 885.414c2.93 109.753 2.93 165.766 0 168.046-2.93 2.29-90.87-60.378-263.823-187.987-3.19-111.861-3.715-168.956-1.576-171.285 2.14-2.33 90.605 61.412 265.399 191.226Z" clip-rule="evenodd"/>
  <path stroke="#000" stroke-linecap="round" stroke-width="10" d="M959.512 884.19c6.318 11.69 11.592 18.879 15.82 21.567 4.23 2.689 11.707 3.606 22.433 2.752"/>
  <path stroke="#000" stroke-linecap="round" stroke-width="12" d="M952.664 825.674v15m60.866 23.201v15"/>
  <path stroke="#DAE875" stroke-linecap="round" stroke-width="16" d="M1216.36 900.922c20.22 25.096 31.8 44.328 34.75 57.695 2.95 13.368.7 36.47-6.75 69.303M462.996 904.645c15.903 10.837 26.075 22.49 30.516 34.957 4.44 12.468 6.371 26.533 5.793 42.196h31.39m-201.87-77.153c3.255 13.597 3.014 26.743-.722 39.44-3.736 12.697-12.047 24.135-24.933 34.317l10.386 27.468"/>
  <path fill="#EEE" fill-rule="evenodd" stroke="#1D877A" stroke-width="6" d="M169.59 676.346v168.05l283.82-105.992c5.157-110.22 5.157-166.513 0-168.879-5.157-2.365-99.764 33.242-283.82 106.82v.001Z" clip-rule="evenodd"/>
  <path fill="#fff" fill-rule="evenodd" d="M342.924 718.06c0-3.853 34.466-24.249 39.014-24.249 4.548 0 59.81 19.197 61.362 22.407 1.035 2.14-12.43 10.545-40.395 25.216" clip-rule="evenodd"/>
  <path stroke="#1D877A" stroke-linecap="square" stroke-width="3" d="M342.924 718.06c0-3.853 34.466-24.249 39.014-24.249 4.548 0 59.81 19.197 61.362 22.407 1.035 2.14-12.43 10.545-40.395 25.216"/>
  <path stroke="#000" stroke-linecap="round" stroke-width="5" d="M340.53 741.835c-5.2.835-8.874 1.987-11.023 3.457-2.15 1.47-4.808 4.652-7.977 9.543m52.254 21.668c-4.005 3.252-6.518 5.871-7.54 7.86-1.022 1.988-1.718 5.614-2.089 10.879l-8.878-3.429m40.989-5.517c.786 1.542 1.767 3.262 2.945 5.162s3.684 4.018 7.517 6.355l-7.511 5.844"/>
  <path stroke="#1D877A" stroke-linecap="square" stroke-width="3" d="m362.609 704.904 62.582 23.869"/>
  <path fill="#fff" fill-rule="evenodd" d="M343.055 718.627c-.824.962-2.075 13.022-2.28 25.483-.232 14.097.804 25.56 2.417 26.906 2.908 2.43 23.514 9.972 60.84 22.179 1.015-32.002.998-50.042.129-51.581.062.11-.129-.044-.446-.244a26.858 26.858 0 0 0-2-1.107c-1.696-.866-4.075-1.967-6.998-3.241-5.707-2.488-13.235-5.53-20.87-8.43-7.958-3.026-15.453-5.68-21.118-7.464-3.028-.953-5.492-1.645-7.286-2.04-.902-.199-1.62-.32-2.13-.36-.219-.016-.349-.01-.291-.078l.033-.023Zm-.033.023a.416.416 0 0 1 .075-.064.228.228 0 0 0-.042.04l-.033.024Z" clip-rule="evenodd"/>
  <path stroke="#1D877A" stroke-width="3" d="M343.022 718.65c-.058.068.072.062.291.078.51.04 1.228.161 2.13.36 1.794.395 4.258 1.087 7.286 2.04 5.665 1.784 13.16 4.438 21.118 7.464 7.635 2.9 15.163 5.942 20.87 8.43 2.923 1.274 5.302 2.375 6.998 3.241.682.34 1.349.71 2 1.107.317.2.508.354.446.244.869 1.539.886 19.579-.129 51.581-37.326-12.207-57.932-19.749-60.84-22.179-1.613-1.346-2.649-12.809-2.417-26.906.205-12.461 1.456-24.521 2.28-25.483l-.033.023Zm0 0a.416.416 0 0 1 .075-.064.228.228 0 0 0-.042.04l-.033.024Z"/>
  <path fill="#fff" fill-rule="evenodd" stroke="#1D877A" stroke-width="3" d="M403.03 793.84h-.011c.01 0 .023-.001.039-.004l-.028.004Zm.597-.16c.45-.157 1.043-.416 1.768-.776 1.852-.92 4.485-2.46 7.884-4.614 6.75-4.277 16.483-10.949 29.19-20.012 1.288-16.78 1.932-29.591 1.932-38.423 0-8.216-.658-13.093-1.294-13.497-.928-.59-9.53 3.85-19.806 10.56-9.148 5.975-18.618 13.008-19.386 14.243-.627 1.007-1.263 13.476-1.313 27.13-.026 6.802.087 13.212.328 18.002.127 2.534.288 4.576.477 6.03.071.545.145 1.001.22 1.357Z" clip-rule="evenodd"/>
  <path stroke="#000" stroke-linecap="round" stroke-width="5" d="M423.76 761.008c5.582.677 9.681 3.239 12.297 7.684 2.616 4.445 1.862 10.313-2.261 17.604"/>
  <path stroke="#000" stroke-linecap="round" stroke-width="4" d="M363.53 746.835v3m18.885 3.653v3"/>
  <path stroke="#000" stroke-linecap="round" stroke-width="3" d="M364.53 763.413c1.723 2.751 3.379 4.38 4.966 4.882 1.588.504 4.2.23 7.837-.823"/>
  <path stroke="#DAE875" stroke-linecap="round" stroke-width="16" d="M663.03 827.898c-8.79-27.76-19.177-46.726-31.163-56.9-11.986-10.173-29.889-17.485-53.709-21.936"/>
  <path fill="#fff" fill-rule="evenodd" stroke="#1D877A" stroke-width="6" d="m167.814 680.368 178.212 144.184c.742 56.54.887 99.13.434 127.76-.228 14.398-.606 25.252-1.134 32.543-.238 3.28-.504 5.82-.793 7.593-.188-.116-.387-.24-.594-.371-2.135-1.356-5.182-3.486-9.121-6.38-7.944-5.836-19.468-14.742-34.562-26.71-30.036-23.818-74.185-59.744-132.442-107.774V680.368Zm465.217 36.466c0-6.685-171.162-147.637-178.437-147.637-4.85 0-4.85 57.325 0 171.975L578.1 840.725c36.62-78.137 54.931-119.434 54.931-123.89v-.001Z" clip-rule="evenodd"/>
  <path fill="#fff" fill-rule="evenodd" stroke="#1D877A" stroke-width="6" d="M347.148 824.373c-2.928 109.753-2.928 165.77 0 168.05 2.929 2.282 97.869-32.382 284.82-103.991 3.19-111.861 3.715-168.956 1.576-171.285-2.14-2.33-97.605 33.412-286.396 107.226Z" clip-rule="evenodd"/>
  <path stroke="#000" stroke-linecap="round" stroke-width="10" d="M524.254 883.762c-9.295 9.495-16.346 14.952-21.152 16.37-4.807 1.419-12.247.24-22.322-3.538"/>
  <path stroke="#000" stroke-linecap="round" stroke-width="12" d="M539.24 828.184v15m-75.21 11.218v15"/>
  <path stroke="#DAE875" stroke-linecap="round" stroke-width="16" d="M257.266 835.684c-20.22 25.096-31.803 44.328-34.75 57.695-2.947 13.368-.697 36.47 6.75 69.305"/>
  <path fill="#fff" fill-rule="evenodd" stroke="#1D877A" stroke-linecap="square" stroke-width="3" d="M586.566 935.877c-.823-.879 8.562-19.796 10.14-20.974 1.576-1.179 91.65-1.375 93.136 0 .72.665-2.684 5.222-5.507 10.143-3.003 5.235-4.551 10.83-5.21 10.83-1.277 0-91.737.88-92.56 0l.001.001Z" clip-rule="evenodd"/>
  <path stroke="#DAE875" stroke-linecap="round" stroke-width="5" d="M585.455 962.596c-5.062 1.837-8.16 4.644-9.295 8.42-1.134 3.776-1.134 9.368 0 16.777m68.135 6.033c3.575 2.251 5.873 4.371 6.894 6.364 1.022 1.98 1.351 5.3.987 9.95l7.646 2.82m-30.273-19.134c-3.575 2.251-5.873 4.371-6.895 6.364-1.021 1.98-1.35 5.3-.987 9.95l-7.646 2.82"/>
  <path fill="#fff" fill-rule="evenodd" stroke="#1D877A" stroke-width="3" d="M586.677 936.213c.073-.005.145-.016.182-.02a67.066 67.066 0 0 1 3.038-.21c2.562-.134 6.2-.257 10.698-.366 8.761-.21 20.392-.353 32.115-.393 12.285-.043 23.74.027 32.234.21 4.578.099 8.241.229 10.836.388 1.34.082 2.384.171 3.11.266.355.046.733.138.5-.097-.166-.168-.099.029-.042.295.107.507.219 1.23.33 2.149.223 1.831.44 4.386.64 7.486.4 6.237.698 14.297.819 22.244.13 8.615.046 16.521-.267 22.477-.321 6.113-.965 10.248-1.39 10.608-1.337 1.15-22.427 2.14-46.755 2.14-11.734 0-23.015-.22-31.519-.62-4.47-.21-8.1-.47-10.716-.77-1.335-.16-2.392-.32-3.147-.48-.552-.13-.894-.25-.819-.18-.356-.36-.886-4.583-1.13-10.77-.236-5.97-.276-13.896-.14-22.648.122-7.871.382-15.969.707-22.294.159-3.077.327-5.618.492-7.424.057-.665.132-1.33.224-1.991Z" clip-rule="evenodd"/>
  <path stroke="#000" stroke-linecap="round" stroke-width="4" d="M644.455 979.395c-4.818 3.097-8.513 4.646-11.085 4.646-2.572 0-6.267-1.549-11.085-4.646m24.01-17.049v4.5m-25.51-4.5v4.5"/>
  <path fill="#fff" fill-rule="evenodd" stroke="#1D877A" stroke-linecap="square" stroke-width="3" d="M690.416 915.075c1.456.626 1.456 23.735 0 69.327-6.395 11.86-9.918 17.318-10.568 16.368-.976-1.425 0-12.138 0-30.175 0-12.025-.315-23.541-.944-34.549 6.218-14.607 10.056-21.598 11.512-20.971Z" clip-rule="evenodd"/>
  <path stroke="#1D877A" stroke-linecap="square" stroke-width="3" d="M683.451 924.333h-90.089"/>
  <path stroke="#DAE875" stroke-linecap="round" stroke-width="5" d="M687.015 957.983c5.508 2.049 9.49 4.725 11.943 8.03 2.454 3.304 3.981 8.54 4.582 15.705"/>
  <path fill="#fff" fill-rule="evenodd" stroke="#1D877A" stroke-linecap="square" stroke-width="3" d="M737.302 1033.24c-.822-.88 8.563-19.8 10.14-20.97 1.576-1.18 91.65-1.38 93.136 0 .72.66-2.683 5.22-5.506 10.14-3.003 5.24-4.552 10.83-5.21 10.83-1.278 0-91.737.88-92.56 0Z" clip-rule="evenodd"/>
  <path stroke="#DAE875" stroke-linecap="round" stroke-width="5" d="M736.191 1059.96c-5.062 1.84-8.16 4.64-9.295 8.42-1.134 3.78-1.134 9.37 0 16.78m68.135 6.03c3.575 2.25 5.873 4.37 6.895 6.36 1.021 1.99 1.35 5.31.987 9.95l7.646 2.83m-30.274-19.14c-3.575 2.25-5.873 4.37-6.894 6.36-1.022 1.99-1.351 5.31-.987 9.95l-7.646 2.83"/>
  <path fill="#fff" fill-rule="evenodd" stroke="#1D877A" stroke-width="3" d="M737.413 1033.58c.074-.01.145-.02.182-.02a51.51 51.51 0 0 1 3.039-.21c2.562-.14 6.2-.26 10.697-.37 8.762-.21 20.392-.35 32.116-.39 12.284-.05 23.74.03 32.233.21 4.578.1 8.241.23 10.837.39 1.339.08 2.384.17 3.11.26.354.05.732.14.5-.1-.167-.16-.1.03-.043.3.107.51.219 1.23.33 2.15.224 1.83.441 4.38.64 7.49.4 6.23.698 14.29.82 22.24.13 8.61.046 16.52-.268 22.48-.321 6.11-.965 10.25-1.39 10.61-1.336 1.14-22.427 2.14-46.755 2.14-11.733 0-23.015-.22-31.519-.63-4.47-.21-8.1-.47-10.716-.77-1.335-.15-2.392-.31-3.146-.48-.552-.12-.894-.25-.82-.17-.355-.37-.886-4.59-1.13-10.78-.236-5.97-.276-13.89-.14-22.64.122-7.87.382-15.97.708-22.3.158-3.07.326-5.62.492-7.42.057-.67.131-1.33.223-1.99Z" clip-rule="evenodd"/>
  <path stroke="#000" stroke-linecap="round" stroke-width="4" d="M795.191 1076.76c-4.818 3.1-8.513 4.64-11.085 4.64-2.571 0-6.266-1.54-11.085-4.64m24.01-17.05v4.5m-25.51-4.5v4.5"/>
  <path fill="#fff" fill-rule="evenodd" stroke="#1D877A" stroke-linecap="square" stroke-width="3" d="M841.152 1012.44c1.457.62 1.457 23.73 0 69.33-6.395 11.86-9.917 17.31-10.568 16.36-.976-1.42 0-12.13 0-30.17 0-12.03-.314-23.54-.943-34.55 6.218-14.61 10.055-21.6 11.511-20.97Z" clip-rule="evenodd"/>
  <path stroke="#1D877A" stroke-linecap="square" stroke-width="3" d="M834.188 1021.7h-90.09"/>
  <path stroke="#DAE875" stroke-linecap="round" stroke-width="5" d="M837.751 1055.35c5.508 2.05 9.49 4.72 11.943 8.03 2.454 3.3 3.981 8.54 4.582 15.7"/>
  <path fill="#fff" fill-rule="evenodd" d="M1112.41 746.121c0-3.853 34.46-24.249 39.01-24.249 4.55 0 59.81 19.197 61.36 22.407 1.04 2.14-12.43 10.546-40.39 25.216" clip-rule="evenodd"/>
  <path stroke="#1D877A" stroke-linecap="square" stroke-width="3" d="M1112.41 746.121c0-3.853 34.46-24.249 39.01-24.249 4.55 0 59.81 19.197 61.36 22.407 1.04 2.14-12.43 10.546-40.39 25.216"/>
  <path stroke="#000" stroke-linecap="round" stroke-width="5" d="M1110.01 769.897c-5.2.834-8.87 1.986-11.02 3.457-2.15 1.47-4.81 4.651-7.98 9.543m52.26 21.668c-4.01 3.25-6.52 5.87-7.55 7.859-1.02 1.988-1.71 5.614-2.08 10.879l-8.88-3.429m40.99-5.516c.78 1.54 1.76 3.261 2.94 5.161 1.18 1.9 3.69 4.018 7.52 6.356l-7.51 5.843"/>
  <path stroke="#1D877A" stroke-linecap="square" stroke-width="3" d="m1132.09 732.965 62.58 23.87"/>
  <path fill="#fff" fill-rule="evenodd" d="M1112.54 746.688c-.83.963-2.08 13.022-2.28 25.484-.23 14.096.8 25.558 2.41 26.906 2.91 2.43 23.52 9.971 60.84 22.178 1.02-32.002 1-50.042.13-51.58.06.11-.13-.045-.44-.245a27.06 27.06 0 0 0-2-1.107c-1.7-.865-4.08-1.966-7-3.241-5.71-2.488-13.24-5.529-20.87-8.43-7.96-3.026-15.45-5.68-21.12-7.464-3.03-.953-5.49-1.645-7.29-2.04-.9-.199-1.62-.32-2.13-.36-.22-.016-.34-.01-.29-.078l.04-.023Zm-.04.023c.03-.024.05-.045.08-.063a.117.117 0 0 0-.04.04l-.04.023Z" clip-rule="evenodd"/>
  <path stroke="#1D877A" stroke-width="3" d="M1112.54 746.688c-.83.963-2.08 13.022-2.28 25.484-.23 14.096.8 25.558 2.41 26.906 2.91 2.43 23.52 9.971 60.84 22.178 1.02-32.002 1-50.042.13-51.58.06.11-.13-.045-.44-.245a27.06 27.06 0 0 0-2-1.107c-1.7-.865-4.08-1.966-7-3.241-5.71-2.488-13.24-5.529-20.87-8.43-7.96-3.026-15.45-5.68-21.12-7.464-3.03-.953-5.49-1.645-7.29-2.04-.9-.199-1.62-.32-2.13-.36-.22-.016-.34-.01-.29-.078m.04-.023-.04.023m.04-.023a.117.117 0 0 1 .04-.04c-.03.018-.05.039-.08.063"/>
  <path fill="#fff" fill-rule="evenodd" stroke="#1D877A" stroke-width="3" d="M1172.51 821.901h-.01l.04-.003-.03.003Zm.6-.16c.45-.157 1.04-.416 1.77-.776 1.85-.92 4.48-2.46 7.88-4.614 6.75-4.276 16.48-10.949 29.19-20.012 1.29-16.78 1.93-29.59 1.93-38.423 0-8.216-.65-13.093-1.29-13.497-.93-.59-9.53 3.85-19.81 10.56-9.15 5.975-18.62 13.008-19.38 14.243-.63 1.007-1.27 13.476-1.32 27.13-.02 6.802.09 13.212.33 18.002.13 2.534.29 4.576.48 6.03.07.545.14 1 .22 1.357Z" clip-rule="evenodd"/>
  <path stroke="#000" stroke-linecap="round" stroke-width="5" d="M1193.24 789.07c5.58.676 9.68 3.238 12.3 7.683 2.61 4.445 1.86 10.313-2.26 17.605"/>
  <path stroke="#000" stroke-linecap="round" stroke-width="4" d="M1133.01 774.897v3m18.89 3.652v3"/>
  <path stroke="#000" stroke-linecap="round" stroke-width="3" d="M1134.01 791.474c1.72 2.752 3.38 4.38 4.97 4.883 1.59.503 4.2.228 7.83-.824"/>
  <path fill="#fff" fill-rule="evenodd" stroke="#1D877A" stroke-linecap="square" stroke-width="3" d="M1065.82 700.877c.82-.879-8.56-19.796-10.14-20.974-1.57-1.179-91.647-1.375-93.133 0-.72.665 2.683 5.222 5.506 10.143 3.003 5.235 4.552 10.83 5.21 10.83 1.278 0 91.737.88 92.557 0v.001Z" clip-rule="evenodd"/>
  <path stroke="#000" stroke-linecap="round" stroke-width="5" d="M1066.93 727.596c5.07 1.837 8.16 4.644 9.3 8.42 1.13 3.776 1.13 9.368 0 16.777m-68.14 6.033c-3.57 2.251-5.87 4.371-6.89 6.36-1.02 1.988-1.351 5.306-.99 9.955l-7.644 2.822m30.274-19.137c3.58 2.251 5.87 4.371 6.89 6.36 1.03 1.988 1.35 5.306.99 9.955l7.65 2.822"/>
  <path fill="#fff" fill-rule="evenodd" stroke="#1D877A" stroke-width="3" d="M1065.71 701.213c-.07-.005-.14-.016-.18-.02a66.459 66.459 0 0 0-3.04-.21c-2.56-.134-6.2-.257-10.7-.366-8.76-.21-20.39-.353-32.11-.393-12.29-.043-23.742.027-32.235.21-4.578.099-8.241.229-10.837.388-1.339.082-2.384.171-3.11.266-.354.046-.732.138-.5-.097.167-.168.1.029.043.295-.107.507-.219 1.23-.33 2.149-.224 1.831-.441 4.386-.64 7.486-.4 6.237-.698 14.297-.82 22.244-.13 8.615-.046 16.521.268 22.477.321 6.113.965 10.25 1.39 10.613 1.336 1.144 22.427 2.139 46.751 2.139 11.74 0 23.02-.219 31.52-.624 4.47-.212 8.1-.472 10.72-.772 1.33-.154 2.39-.316 3.15-.482.55-.122.89-.25.81-.174.36-.361.89-4.585 1.14-10.772.23-5.97.27-13.896.14-22.648-.13-7.871-.39-15.969-.71-22.294-.16-3.077-.33-5.618-.49-7.424-.06-.665-.14-1.33-.23-1.991Z" clip-rule="evenodd"/>
  <path stroke="#000" stroke-linecap="round" stroke-width="4" d="M1007.93 744.395c4.82 3.097 8.52 4.646 11.09 4.646 2.57 0 6.27-1.549 11.08-4.646m-24.01-17.049v4.5m25.51-4.5v4.5"/>
  <path fill="#fff" fill-rule="evenodd" stroke="#1D877A" stroke-linecap="square" stroke-width="3" d="M961.973 680.075c-1.457.626-1.457 23.735 0 69.327 6.395 11.86 9.917 17.316 10.568 16.367.976-1.424 0-12.137 0-30.174 0-12.025.314-23.541.943-34.549-6.218-14.607-10.055-21.598-11.511-20.971Z" clip-rule="evenodd"/>
  <path stroke="#1D877A" stroke-linecap="square" stroke-width="3" d="M968.938 689.333h90.092"/>
  <path stroke="#000" stroke-linecap="round" stroke-width="5" d="M965.374 722.983c-5.508 2.049-9.49 4.725-11.943 8.03-2.454 3.304-3.981 8.54-4.582 15.705"/>
  <path fill="#fff" fill-rule="evenodd" d="M747.765 941.684c0-3.854 34.465-24.25 39.013-24.25 4.548 0 59.81 19.198 61.363 22.408 1.034 2.14-12.431 10.545-40.396 25.216" clip-rule="evenodd"/>
  <path stroke="#1D877A" stroke-linecap="square" stroke-width="3" d="M747.765 941.684c0-3.854 34.465-24.25 39.013-24.25 4.548 0 59.81 19.198 61.363 22.408 1.034 2.14-12.431 10.545-40.396 25.216"/>
  <path stroke="#DAE875" stroke-linecap="round" stroke-width="5" d="M745.371 965.46c-5.2.833-8.874 1.986-11.023 3.456-2.15 1.47-4.808 4.652-7.977 9.543m52.254 21.671c-4.005 3.25-6.519 5.87-7.54 7.86-1.022 1.98-1.719 5.61-2.09 10.87l-8.877-3.42m40.989-5.52c.785 1.54 1.767 3.26 2.945 5.16 1.178 1.9 3.684 4.02 7.517 6.36l-7.512 5.84"/>
  <path stroke="#1D877A" stroke-linecap="square" stroke-width="3" d="m767.45 928.527 62.581 23.87"/>
  <path fill="#fff" fill-rule="evenodd" d="M747.895 942.25c-.824.963-2.075 13.022-2.28 25.484-.231 14.096.805 25.559 2.417 26.906 2.909 2.43 23.514 9.97 60.84 22.18 1.016-32.004.999-50.043.13-51.582.062.11-.13-.045-.446-.245a26.846 26.846 0 0 0-2-1.106c-1.697-.866-4.076-1.967-6.999-3.242-5.706-2.488-13.234-5.528-20.868-8.43-7.96-3.025-15.454-5.68-21.12-7.464-3.027-.953-5.492-1.644-7.286-2.04-.902-.198-1.62-.319-2.13-.359-.218-.017-.348-.011-.29-.079l.032-.023Zm-.032.023a.41.41 0 0 1 .075-.063.232.232 0 0 0-.043.04l-.032.023Z" clip-rule="evenodd"/>
  <path stroke="#1D877A" stroke-width="3" d="M747.895 942.25c-.824.963-2.075 13.022-2.28 25.484-.231 14.096.805 25.559 2.417 26.906 2.909 2.43 23.514 9.97 60.84 22.18 1.016-32.004.999-50.043.13-51.582.062.11-.13-.045-.446-.245a26.846 26.846 0 0 0-2-1.106c-1.697-.866-4.076-1.967-6.999-3.242-5.706-2.488-13.234-5.528-20.868-8.43-7.96-3.025-15.454-5.68-21.12-7.464-3.027-.953-5.492-1.644-7.286-2.04-.902-.198-1.62-.319-2.13-.359-.218-.017-.348-.011-.29-.079m.032-.023-.032.023m.032-.023a.232.232 0 0 1 .043-.04.41.41 0 0 0-.075.063"/>
  <path fill="#fff" fill-rule="evenodd" stroke="#1D877A" stroke-width="3" d="M807.87 1017.46h-.01.038-.028Zm.598-.16c.45-.15 1.043-.41 1.768-.77 1.851-.92 4.485-2.46 7.884-4.62 6.75-4.27 16.482-10.95 29.19-20.008 1.288-16.78 1.931-29.591 1.931-38.423 0-8.216-.657-13.093-1.293-13.497-.928-.59-9.53 3.85-19.807 10.56-9.147 5.975-18.618 13.007-19.386 14.242-.626 1.008-1.262 13.477-1.313 27.13-.025 6.803.088 13.216.328 18.006.128 2.53.288 4.57.478 6.03.07.54.145 1 .22 1.35Z" clip-rule="evenodd"/>
  <path stroke="#DAE875" stroke-linecap="round" stroke-width="5" d="M828.601 984.632c5.582.677 9.68 3.238 12.297 7.684 2.616 4.445 1.862 10.314-2.262 17.604"/>
  <path stroke="#000" stroke-linecap="round" stroke-width="4" d="M768.371 970.46v3m18.885 3.651v3"/>
  <path stroke="#000" stroke-linecap="round" stroke-width="3" d="M769.371 987.036c1.723 2.752 3.378 4.38 4.966 4.883 1.588.504 4.2.229 7.837-.824"/>
  <path fill="#fff" fill-rule="evenodd" stroke="#1D877A" stroke-linecap="square" stroke-width="3" d="M587.028 1083.53c0-3.86 20.468-26.67 25.016-26.67 4.548 0 61.528 6.65 63.08 9.86 1.035 2.14-7.11 11.22-24.434 27.23-42.441-4.38-63.662-7.85-63.662-10.42Z" clip-rule="evenodd"/>
  <path stroke="#DAE875" stroke-linecap="round" stroke-width="5" d="M588.129 1105.82c-5.632 3.31-9.23 7.19-10.795 11.63-1.565 4.44-1.565 9.98 0 16.64m44.377-63.14c-2.348-3.41-3.77-6.21-4.265-8.39-.496-2.18.034-6.79 1.59-13.83l-6.846-4.39m25.898 29.88c5.601-3.33 8.921-6.08 9.96-8.23 1.038-2.16 1.415-6.56 1.13-13.21l7.943-3.17"/>
  <path fill="#fff" fill-rule="evenodd" stroke="#1D877A" stroke-width="3" d="M587.18 1084.07c-.823.77-2.094 12.93-2.3 25.51-.232 14.09.804 25.56 2.416 26.9 2.803 2.35 23.562 6.27 60.844 11.33 2.519-32.66 3.323-51.27 2.5-53.02.069.14-.065.06-.297-.04-.468-.21-1.151-.45-2.028-.72-1.741-.54-4.195-1.17-7.238-1.86-5.807-1.32-13.569-2.82-21.666-4.2-8.114-1.39-15.962-2.55-21.932-3.24-3.135-.37-5.7-.59-7.57-.67-.945-.04-1.7-.04-2.242 0-.328.02-.535.06-.486.01h-.001Zm.015-.01Z" clip-rule="evenodd"/>
  <path fill="#fff" fill-rule="evenodd" stroke="#1D877A" stroke-width="3" d="M649.13 1146.44c.152-.12.317-.27.494-.42 1.213-1.1 2.897-2.91 5.03-5.44 4.28-5.07 10.331-12.96 18.147-23.64 1.703-16.39 2.74-28.8 3.112-37.24.186-4.23.205-7.44.06-9.63-.06-.91-.149-1.63-.258-2.14-.107.06-.213.13-.317.19-.784.51-1.824 1.34-3.077 2.47-2.304 2.07-5.254 5.06-8.558 8.63-5.447 5.89-11.746 13.33-12.356 14.44-.13.24-.561 3.85-.955 8.77-.42 5.24-.832 11.95-1.133 18.52-.325 7.11-.501 13.58-.483 18.39.01 2.61.076 4.69.2 6.18.029.34.06.65.094.92Z" clip-rule="evenodd"/>
  <path stroke="#DAE875" stroke-linecap="round" stroke-width="5" d="M661.688 1113.82c6.69 4.77 10.036 9.37 10.036 13.81 0 4.45-1.662 9.12-4.984 14.02"/>
  <path stroke="#000" stroke-linecap="round" stroke-width="4" d="M607.635 1120.45v3m15.409 0v3"/>
  <path stroke="#000" stroke-linecap="round" stroke-width="3" d="M624.584 1112.84c-2.132-2.45-4.022-3.8-5.669-4.05-1.647-.25-4.184.43-7.611 2.04"/>
  <path fill="#fff" fill-rule="evenodd" stroke="#1D877A" stroke-linecap="square" stroke-width="3" d="M446.524 638.781c.822-.879-8.563-19.796-10.14-20.974-1.576-1.178-91.65-1.374-93.136 0-.72.666 2.684 5.223 5.506 10.143 3.003 5.235 4.552 10.831 5.21 10.831 1.278 0 91.737.879 92.56 0Z" clip-rule="evenodd"/>
  <path stroke="#000" stroke-linecap="round" stroke-width="5" d="M447.635 665.5c5.062 1.837 8.16 4.644 9.295 8.42 1.134 3.776 1.134 9.368 0 16.777m-68.135 6.033c-3.575 2.252-5.873 4.372-6.895 6.36-1.021 1.988-1.35 5.306-.986 9.955l-7.646 2.822m30.273-19.137c3.575 2.252 5.873 4.372 6.895 6.36 1.021 1.988 1.35 5.306.986 9.955l7.646 2.822"/>
  <path fill="#fff" fill-rule="evenodd" stroke="#1D877A" stroke-width="3" d="M446.413 639.118c-.074-.006-.145-.017-.182-.02a67.11 67.11 0 0 0-3.039-.21c-2.562-.134-6.2-.258-10.697-.366-8.762-.21-20.392-.353-32.115-.394-12.285-.043-23.74.028-32.234.21-4.578.1-8.241.23-10.836.388-1.34.082-2.384.172-3.111.266-.354.047-.732.138-.5-.097.167-.168.1.029.043.295a26.415 26.415 0 0 0-.33 2.15c-.223 1.83-.441 4.385-.64 7.485-.4 6.237-.698 14.297-.819 22.245-.13 8.614-.046 16.52.267 22.477.321 6.112.965 10.249 1.39 10.612 1.337 1.144 22.427 2.139 46.755 2.139 11.734 0 23.015-.219 31.519-.623 4.47-.213 8.1-.473 10.716-.773 1.335-.153 2.392-.315 3.146-.482.553-.122.894-.25.82-.173.356-.362.886-4.586 1.13-10.772.236-5.97.276-13.897.14-22.649-.122-7.87-.382-15.968-.707-22.294-.159-3.076-.327-5.618-.492-7.424a37.953 37.953 0 0 0-.224-1.99Z" clip-rule="evenodd"/>
  <path stroke="#000" stroke-linecap="round" stroke-width="4" d="M388.635 682.299c4.818 3.097 8.513 4.646 11.085 4.646 2.571 0 6.266-1.549 11.085-4.646m-24.01-17.049v4.5m25.51-4.5v4.5"/>
  <path fill="#fff" fill-rule="evenodd" stroke="#1D877A" stroke-linecap="square" stroke-width="3" d="M342.674 617.979c-1.457.626-1.457 23.736 0 69.328 6.395 11.86 9.917 17.316 10.568 16.366.976-1.423 0-12.136 0-30.174 0-12.025.315-23.541.944-34.548-6.219-14.608-10.056-21.598-11.512-20.972Z" clip-rule="evenodd"/>
  <path stroke="#1D877A" stroke-linecap="square" stroke-width="3" d="M349.639 627.237h90.089"/>
  <path stroke="#000" stroke-linecap="round" stroke-width="5" d="M346.075 660.888c-5.508 2.048-9.49 4.724-11.943 8.029-2.454 3.305-3.981 8.54-4.582 15.705"/>
  <path fill="#fff" fill-rule="evenodd" d="M516.798 1038.13c0-3.85-34.466-24.25-39.014-24.25-4.548 0-59.81 19.2-61.362 22.41-1.035 2.14 12.43 10.55 40.395 25.22" clip-rule="evenodd"/>
  <path stroke="#1D877A" stroke-linecap="square" stroke-width="3" d="M516.798 1038.13c0-3.85-34.466-24.25-39.014-24.25-4.548 0-59.81 19.2-61.362 22.41-1.035 2.14 12.43 10.55 40.395 25.22"/>
  <path stroke="#DAE875" stroke-linecap="round" stroke-width="5" d="M519.191 1061.91c5.2.83 8.875 1.98 11.024 3.45 2.149 1.47 4.808 4.66 7.976 9.55m-52.253 21.67c4.005 3.25 6.518 5.87 7.54 7.86 1.022 1.98 1.718 5.61 2.089 10.87l8.878-3.42m-40.99-5.52c-.785 1.54-1.766 3.26-2.944 5.16-1.178 1.9-3.684 4.02-7.517 6.36l7.511 5.84"/>
  <path stroke="#1D877A" stroke-linecap="square" stroke-width="3" d="m497.113 1024.98-62.582 23.87"/>
  <path fill="#fff" fill-rule="evenodd" d="M516.667 1038.7c.824.96 2.075 13.02 2.28 25.48.232 14.1-.804 25.56-2.417 26.91-2.908 2.43-23.514 9.97-60.84 22.18-1.016-32-.998-50.04-.129-51.58-.063.11.129-.05.446-.25.651-.39 1.318-.76 2-1.1 1.696-.87 4.075-1.97 6.998-3.24 5.706-2.49 13.235-5.53 20.869-8.43 7.96-3.03 15.453-5.69 21.119-7.47 3.028-.95 5.492-1.64 7.286-2.04.902-.2 1.62-.32 2.13-.36.219-.02.349-.01.291-.08l-.033-.02Zm.033.02a1.23 1.23 0 0 0-.075-.06c.016.01.03.03.042.04l.033.02Z" clip-rule="evenodd"/>
  <path stroke="#1D877A" stroke-width="3" d="M516.667 1038.7c.824.96 2.075 13.02 2.28 25.48.232 14.1-.804 25.56-2.417 26.91-2.908 2.43-23.514 9.97-60.84 22.18-1.016-32-.998-50.04-.129-51.58-.063.11.129-.05.446-.25.651-.39 1.318-.76 2-1.1 1.696-.87 4.075-1.97 6.998-3.24 5.706-2.49 13.235-5.53 20.869-8.43 7.96-3.03 15.453-5.69 21.119-7.47 3.028-.95 5.492-1.64 7.286-2.04.902-.2 1.62-.32 2.13-.36.219-.02.349-.01.291-.08m-.033-.02.033.02m-.033-.02c-.012-.01-.026-.03-.042-.04.027.02.052.04.075.06"/>
  <path fill="#fff" fill-rule="evenodd" stroke="#1D877A" stroke-width="3" d="M456.692 1113.91h.011-.039.028Zm-.597-.16c-.45-.15-1.043-.41-1.769-.77-1.851-.92-4.484-2.46-7.883-4.62-6.75-4.27-16.483-10.95-29.19-20.01-1.288-16.78-1.932-29.59-1.932-38.42 0-8.22.657-13.09 1.294-13.5.928-.59 9.53 3.85 19.806 10.56 9.148 5.98 18.618 13.01 19.386 14.24.627 1.01 1.263 13.48 1.313 27.13.025 6.81-.088 13.22-.328 18.01-.127 2.53-.288 4.57-.477 6.03-.071.54-.145 1-.22 1.35Z" clip-rule="evenodd"/>
  <path stroke="#DAE875" stroke-linecap="round" stroke-width="5" d="M435.961 1081.08c-5.581.68-9.68 3.24-12.296 7.69-2.616 4.44-1.863 10.31 2.261 17.6"/>
  <path stroke="#000" stroke-linecap="round" stroke-width="4" d="M496.191 1066.91v3m-18.884 3.65v3"/>
  <path stroke="#000" stroke-linecap="round" stroke-width="3" d="M495.191 1083.49c-1.722 2.75-3.378 4.38-4.965 4.88-1.588.5-4.2.23-7.837-.82"/>
  <path fill="#fff" fill-rule="evenodd" d="M811.798 799.162c0-3.853-34.466-24.249-39.014-24.249-4.548 0-59.81 19.197-61.362 22.407-1.035 2.14 12.43 10.546 40.395 25.216" clip-rule="evenodd"/>
  <path stroke="#1D877A" stroke-linecap="square" stroke-width="3" d="M811.798 799.162c0-3.853-34.466-24.249-39.014-24.249-4.548 0-59.81 19.197-61.362 22.407-1.035 2.14 12.43 10.546 40.395 25.216"/>
  <path stroke="#DAE875" stroke-linecap="round" stroke-width="5" d="M814.191 822.938c5.2.834 8.875 1.986 11.024 3.457 2.149 1.47 4.808 4.651 7.976 9.542m-52.253 21.668c4.005 3.252 6.518 5.872 7.54 7.86 1.022 1.988 1.718 5.614 2.089 10.879l8.878-3.429m-40.99-5.516c-.785 1.54-1.766 3.261-2.944 5.161-1.178 1.9-3.684 4.018-7.517 6.355l7.511 5.844"/>
  <path stroke="#1D877A" stroke-linecap="square" stroke-width="3" d="m792.113 786.006-62.582 23.869"/>
  <path fill="#fff" fill-rule="evenodd" d="M811.667 799.729c.824.963 2.075 13.022 2.28 25.484.232 14.096-.804 25.558-2.417 26.905-2.908 2.431-23.514 9.972-60.84 22.179-1.016-32.002-.998-50.042-.129-51.58-.063.11.129-.045.446-.245a26.858 26.858 0 0 1 2-1.107c1.696-.865 4.075-1.966 6.998-3.241 5.706-2.488 13.235-5.529 20.869-8.43 7.96-3.026 15.453-5.68 21.119-7.464 3.028-.953 5.492-1.645 7.286-2.04.902-.199 1.62-.32 2.13-.36.219-.016.349-.01.291-.078l-.033-.023Zm.033.023a.41.41 0 0 0-.075-.063c.016.012.03.025.042.04l.033.023Z" clip-rule="evenodd"/>
  <path stroke="#1D877A" stroke-width="3" d="M811.667 799.729c.824.963 2.075 13.022 2.28 25.484.232 14.096-.804 25.558-2.417 26.905-2.908 2.431-23.514 9.972-60.84 22.179-1.016-32.002-.998-50.042-.129-51.58-.063.11.129-.045.446-.245a26.858 26.858 0 0 1 2-1.107c1.696-.865 4.075-1.966 6.998-3.241 5.706-2.488 13.235-5.529 20.869-8.43 7.96-3.026 15.453-5.68 21.119-7.464 3.028-.953 5.492-1.645 7.286-2.04.902-.199 1.62-.32 2.13-.36.219-.016.349-.01.291-.078m-.033-.023.033.023m-.033-.023a.228.228 0 0 0-.042-.04.41.41 0 0 1 .075.063"/>
  <path fill="#fff" fill-rule="evenodd" stroke="#1D877A" stroke-width="3" d="M751.692 874.942h.011a.258.258 0 0 1-.039-.004l.028.004Zm-.597-.16c-.45-.157-1.043-.416-1.769-.776-1.851-.92-4.484-2.46-7.883-4.614-6.75-4.277-16.483-10.949-29.19-20.012-1.288-16.78-1.932-29.59-1.932-38.423 0-8.216.657-13.093 1.294-13.497.928-.59 9.53 3.85 19.806 10.56 9.148 5.975 18.618 13.008 19.386 14.243.627 1.007 1.263 13.476 1.313 27.13.025 6.802-.088 13.212-.328 18.002-.127 2.534-.288 4.576-.477 6.03-.071.545-.145 1-.22 1.357Z" clip-rule="evenodd"/>
  <path stroke="#DAE875" stroke-linecap="round" stroke-width="5" d="M730.961 842.11c-5.581.677-9.68 3.239-12.296 7.684-2.616 4.445-1.863 10.313 2.261 17.605"/>
  <path stroke="#000" stroke-linecap="round" stroke-width="4" d="M791.191 827.938v3m-18.884 3.652v3"/>
  <path stroke="#000" stroke-linecap="round" stroke-width="3" d="M790.191 844.515c-1.722 2.752-3.378 4.38-4.965 4.883-1.588.503-4.2.228-7.837-.824"/>
  <path fill="#fff" fill-rule="evenodd" stroke="#1D877A" stroke-linecap="square" stroke-width="6" d="M1006.78 401.031c.41-.44-47.59-44.984-74.84-72.219-27.25-27.234-59.317-60.817-67.899-68.755-8.582-7.938-477.102-1.374-478.588 0-.72.666 130.058 140.974 130.716 140.974 1.278 0 489.791.879 490.611 0h0Z" clip-rule="evenodd"/>
  <path stroke="#000" stroke-linecap="round" stroke-width="5" d="M609.84 427.75c5.062 1.837 8.16 4.644 9.295 8.42 1.134 3.776 1.134 9.368 0 16.777M551 458.98c-3.575 2.252-5.873 4.372-6.895 6.36-1.021 1.988-1.35 5.306-.986 9.955l-7.646 2.822m30.273-19.137c3.575 2.252 5.873 4.372 6.895 6.36 1.021 1.988 1.35 5.306.986 9.955l7.646 2.822"/>
  <path stroke="#DAE875" stroke-linecap="round" stroke-width="16" d="M930 366.689c19.885-.206 34.669-5.2 44.352-14.982 9.682-9.782 15.654-30.018 17.914-60.707M785 480c15.903 10.837 26.075 22.49 30.516 34.957 4.44 12.468 6.371 26.533 5.793 42.195h31.39m-148.494-88.589c-7.847 10.335-13.64 21.851-17.375 34.548-3.736 12.696-3.736 27.62 0 44.773l-26.594 12.61"/>
  <path stroke="#1D877A" stroke-linecap="square" stroke-width="6" d="M858.361 342.885h-390"/>
  <path fill="#EEE" fill-rule="evenodd" stroke="#1D877A" stroke-linecap="square" stroke-width="6" d="M863.834 260.527c-4.089 2.097-6.7 29.769-7.834 83.017 30.803 28.171 49.8 46.481 56.99 54.93 4.875 0 90.05 6.982 90.05 3.198 0-3.783-133.073-144.29-139.206-141.145Z" clip-rule="evenodd"/>
  <path stroke="#000" stroke-linecap="round" stroke-width="5" d="M811.525 341.734c-5.508-2.048-9.49-4.724-11.943-8.029-2.454-3.305-3.981-8.54-4.582-15.705"/>
  <path fill="#fff" fill-rule="evenodd" stroke="#1D877A" stroke-linecap="square" stroke-width="3" d="M926.729 371.031c.823-.879-56.161-69.6-60.14-70.974-3.978-1.374-61.65-1.374-63.136 0-.72.666 28.449 30.45 32.147 35.167 8.076 10.301 27.911 35.807 28.57 35.807 1.277 0 61.736.879 62.559 0Z" clip-rule="evenodd"/>
  <path stroke="#1D877A" stroke-linecap="square" stroke-width="3" d="m837.5 299.5 59 70"/>
  <path stroke="#000" stroke-linecap="round" stroke-width="5" d="M837.527 398c-3.574 2.251-5.872 4.371-6.894 6.36-1.022 1.988-1.35 5.306-.987 9.954L822 417.137m25.997-.137c.089 4.224.722 7.285 1.9 9.185 1.178 1.9 3.853 3.89 8.025 5.973l-1.519 8.008"/>
  <path fill="#fff" fill-rule="evenodd" stroke="#1D877A" stroke-width="3" d="M926.612 371.326a34.744 34.744 0 0 0-1.96-.191c-1.754-.133-4.23-.256-7.281-.364-5.962-.21-13.844-.352-21.789-.393-8.328-.043-16.104.028-21.904.21-3.116.098-5.623.228-7.412.385-.912.08-1.627.167-2.125.258-.242.044-.422.102-.236-.086.166-.168.099.029.042.295a26.415 26.415 0 0 0-.33 2.15c-.223 1.83-.441 4.385-.64 7.485-.4 6.237-.698 14.297-.819 22.245-.13 8.614-.046 16.52.267 22.477.321 6.112.965 10.249 1.39 10.612 1.357 1.162 15.481 2.139 31.755 2.139 7.856 0 15.416-.218 21.173-.621 5.714-.4 9.65-1.047 10.028-1.43.356-.362.886-4.586 1.13-10.772.236-5.97.276-13.897.14-22.649-.122-7.87-.382-15.968-.707-22.294-.159-3.076-.327-5.618-.492-7.424a37.464 37.464 0 0 0-.23-2.032Z" clip-rule="evenodd"/>
  <path fill="#fff" fill-rule="evenodd" stroke="#1D877A" stroke-linecap="square" stroke-width="3" d="M802.879 300.229c-1.456.626-1.456 21.736 0 63.328 39.728 49.193 59.918 73.316 60.568 72.366.976-1.423 0-12.136 0-30.174 0-12.025.315-23.541.944-34.548-39.552-47.941-60.056-71.598-61.512-70.972Z" clip-rule="evenodd"/>
  <path stroke="#000" stroke-linecap="round" stroke-width="4" d="M826 373c.394 3.196 1.457 5.536 3.19 7.021 1.734 1.486 3.75 1.905 6.052 1.26M828 351v4.5m13 11.5v4.5"/>
  <path stroke="#000" stroke-linecap="round" stroke-width="5" d="M890 429.197c5.063-1.837 8.16-4.644 9.295-8.42 1.134-3.776 1.134-9.368 0-16.777M597.525 341.734c-5.508-2.048-9.49-4.724-11.943-8.029-2.454-3.305-3.981-8.54-4.582-15.705"/>
  <path fill="#fff" fill-rule="evenodd" stroke="#1D877A" stroke-linecap="square" stroke-width="3" d="M712.729 371.031c.823-.879-56.161-69.6-60.14-70.974-3.978-1.374-61.65-1.374-63.136 0-.72.666 28.449 30.45 32.147 35.167 8.076 10.301 27.911 35.807 28.57 35.807 1.277 0 61.736.879 62.559 0Z" clip-rule="evenodd"/>
  <path stroke="#1D877A" stroke-linecap="square" stroke-width="3" d="m623.5 299.5 59 70"/>
  <path stroke="#000" stroke-linecap="round" stroke-width="5" d="M623.527 398c-3.574 2.251-5.872 4.371-6.894 6.36-1.022 1.988-1.35 5.306-.987 9.954L608 417.137m25.997-.137c.089 4.224.722 7.285 1.9 9.185 1.178 1.9 3.853 3.89 8.025 5.973l-1.519 8.008"/>
  <path fill="#fff" fill-rule="evenodd" stroke="#1D877A" stroke-width="3" d="M712.612 371.326a34.744 34.744 0 0 0-1.96-.191c-1.754-.133-4.23-.256-7.281-.364-5.962-.21-13.844-.352-21.789-.393-8.328-.043-16.104.028-21.904.21-3.116.098-5.623.228-7.412.385-.912.08-1.627.167-2.125.258-.242.044-.422.102-.236-.086.166-.168.099.029.042.295a26.415 26.415 0 0 0-.33 2.15c-.223 1.83-.441 4.385-.64 7.485-.4 6.237-.698 14.297-.819 22.245-.13 8.614-.046 16.52.267 22.477.321 6.112.965 10.249 1.39 10.612 1.357 1.162 15.481 2.139 31.755 2.139 7.856 0 15.416-.218 21.173-.621 5.714-.4 9.65-1.047 10.028-1.43.356-.362.886-4.586 1.13-10.772.236-5.97.276-13.897.14-22.649-.122-7.87-.382-15.968-.707-22.294-.159-3.076-.327-5.618-.492-7.424a37.464 37.464 0 0 0-.23-2.032Z" clip-rule="evenodd"/>
  <path fill="#fff" fill-rule="evenodd" stroke="#1D877A" stroke-linecap="square" stroke-width="3" d="M588.879 300.229c-1.456.626-1.456 21.736 0 63.328 39.728 49.193 59.918 73.316 60.568 72.366.976-1.423 0-12.136 0-30.174 0-12.025.315-23.541.944-34.548-39.552-47.941-60.056-71.598-61.512-70.972Z" clip-rule="evenodd"/>
  <path stroke="#000" stroke-linecap="round" stroke-width="4" d="M612 373c.394 3.196 1.457 5.536 3.19 7.021 1.734 1.486 3.75 1.905 6.052 1.26M614 351v4.5m13 11.5v4.5"/>
  <path stroke="#000" stroke-linecap="round" stroke-width="5" d="M676 429.197c5.063-1.837 8.16-4.644 9.295-8.42 1.134-3.776 1.134-9.368 0-16.777M714.525 340.734c-5.508-2.048-9.49-4.724-11.943-8.029-2.454-3.305-3.981-8.54-4.582-15.705"/>
  <path fill="#fff" fill-rule="evenodd" stroke="#1D877A" stroke-linecap="square" stroke-width="3" d="M829.729 370.031c.823-.879-56.161-69.6-60.14-70.974-3.978-1.374-61.65-1.374-63.136 0-.72.666 28.449 30.45 32.147 35.167 8.076 10.301 27.911 35.807 28.57 35.807 1.277 0 61.736.879 62.559 0Z" clip-rule="evenodd"/>
  <path stroke="#1D877A" stroke-linecap="square" stroke-width="3" d="m740.5 298.5 59 70"/>
  <path stroke="#000" stroke-linecap="round" stroke-width="5" d="M740.527 397c-3.574 2.251-5.872 4.371-6.894 6.36-1.022 1.988-1.35 5.306-.987 9.954L725 416.137m25.997-.137c.089 4.224.722 7.285 1.9 9.185 1.178 1.9 3.853 3.89 8.025 5.973l-1.519 8.008"/>
  <path fill="#fff" fill-rule="evenodd" stroke="#1D877A" stroke-width="3" d="M829.612 370.326a34.744 34.744 0 0 0-1.96-.191c-1.754-.133-4.23-.256-7.281-.364-5.962-.21-13.844-.352-21.789-.393-8.328-.043-16.104.028-21.904.21-3.116.098-5.623.228-7.412.385-.912.08-1.627.167-2.125.258-.242.044-.422.102-.236-.086.166-.168.099.029.042.295a26.415 26.415 0 0 0-.33 2.15c-.223 1.83-.441 4.385-.64 7.485-.4 6.237-.698 14.297-.819 22.245-.13 8.614-.046 16.52.267 22.477.321 6.112.965 10.249 1.39 10.612 1.357 1.162 15.481 2.139 31.755 2.139 7.856 0 15.416-.218 21.173-.621 5.714-.4 9.65-1.047 10.028-1.43.356-.362.886-4.586 1.13-10.772.236-5.97.276-13.897.14-22.649-.122-7.87-.382-15.968-.707-22.294-.159-3.076-.327-5.618-.492-7.424a37.464 37.464 0 0 0-.23-2.032Z" clip-rule="evenodd"/>
  <path fill="#fff" fill-rule="evenodd" stroke="#1D877A" stroke-linecap="square" stroke-width="3" d="M705.879 299.229c-1.456.626-1.456 21.736 0 63.328 39.728 49.193 59.918 73.316 60.568 72.366.976-1.423 0-12.136 0-30.174 0-12.025.315-23.541.944-34.548-39.552-47.941-60.056-71.598-61.512-70.972Z" clip-rule="evenodd"/>
  <path stroke="#000" stroke-linecap="round" stroke-width="4" d="M729 372c.394 3.196 1.457 5.536 3.19 7.021 1.734 1.486 3.75 1.905 6.052 1.26M731 350v4.5m13 11.5v4.5"/>
  <path stroke="#000" stroke-linecap="round" stroke-width="5" d="M793 428.197c5.063-1.837 8.16-4.644 9.295-8.42 1.134-3.776 1.134-9.368 0-16.777M496.525 341.734c-5.508-2.048-9.49-4.724-11.943-8.029-2.454-3.305-3.981-8.54-4.582-15.705"/>
  <path fill="#fff" fill-rule="evenodd" stroke="#1D877A" stroke-linecap="square" stroke-width="3" d="M611.729 371.031c.823-.879-56.161-69.6-60.14-70.974-3.978-1.374-61.65-1.374-63.136 0-.72.666 28.449 30.45 32.147 35.167 8.076 10.301 27.911 35.807 28.57 35.807 1.277 0 61.736.879 62.559 0Z" clip-rule="evenodd"/>
  <path stroke="#1D877A" stroke-linecap="square" stroke-width="3" d="m522.5 299.5 59 70"/>
  <path stroke="#000" stroke-linecap="round" stroke-width="5" d="M522.527 398c-3.574 2.251-5.872 4.371-6.894 6.36-1.022 1.988-1.35 5.306-.987 9.954L507 417.137m25.997-.137c.089 4.224.722 7.285 1.9 9.185 1.178 1.9 3.853 3.89 8.025 5.973l-1.519 8.008"/>
  <path fill="#fff" fill-rule="evenodd" stroke="#1D877A" stroke-width="3" d="M611.612 371.326a34.744 34.744 0 0 0-1.96-.191c-1.754-.133-4.23-.256-7.281-.364-5.962-.21-13.844-.352-21.789-.393-8.328-.043-16.104.028-21.904.21-3.116.098-5.623.228-7.412.385-.912.08-1.627.167-2.125.258-.242.044-.422.102-.236-.086.166-.168.099.029.042.295a26.415 26.415 0 0 0-.33 2.15c-.223 1.83-.441 4.385-.64 7.485-.4 6.237-.698 14.297-.819 22.245-.13 8.614-.046 16.52.267 22.477.321 6.112.965 10.249 1.39 10.612 1.357 1.162 15.481 2.139 31.755 2.139 7.856 0 15.416-.218 21.173-.621 5.714-.4 9.65-1.047 10.028-1.43.356-.362.886-4.586 1.13-10.772.236-5.97.276-13.897.14-22.649-.122-7.87-.382-15.968-.707-22.294-.159-3.076-.327-5.618-.492-7.424a37.464 37.464 0 0 0-.23-2.032Z" clip-rule="evenodd"/>
  <path fill="#fff" fill-rule="evenodd" stroke="#1D877A" stroke-linecap="square" stroke-width="3" d="M487.879 300.229c-1.456.626-1.456 21.736 0 63.328 39.728 49.193 59.918 73.316 60.568 72.366.976-1.423 0-12.136 0-30.174 0-12.025.315-23.541.944-34.548-39.552-47.941-60.056-71.598-61.512-70.972Z" clip-rule="evenodd"/>
  <path stroke="#000" stroke-linecap="round" stroke-width="4" d="M511 373c.394 3.196 1.457 5.536 3.19 7.021 1.734 1.486 3.75 1.905 6.052 1.26M513 351v4.5m13 11.5v4.5"/>
  <path stroke="#000" stroke-linecap="round" stroke-width="5" d="M575 429.197c5.063-1.837 8.16-4.644 9.295-8.42 1.134-3.776 1.134-9.368 0-16.777"/>
  <path fill="#fff" fill-rule="evenodd" stroke="#1D877A" stroke-width="6" d="M520.5 402.957c-.818.832-1.824 7.647-2.186 17.604-.361 9.926-.19 22.876.448 36.335.629 13.252 1.667 26.05 2.912 35.677.643 4.978 1.328 9.01 2.023 11.87.34 1.404.677 2.494.987 3.225.145.343.212.44-.171.237-.216-.114 2.27.13 5.18.293 3.725.208 9.05.417 15.867.625 13.264.405 32.022.8 54.977 1.163 45.884.723 105.727 1.272 164.495 1.498 63.79.246 121.838.1 164.634-.465 23.4-.309 42.005-.739 55.129-1.29 6.855-.288 12.188-.607 15.915-.957 2.77-.26 5.07-.678 4.75-.362 2.42-2.366 4.52-25.806 4.52-52.75 0-26.916-2.11-50.335-4.51-52.642.32.303-2.02-.125-4.82-.4-3.766-.37-9.15-.72-16.059-1.049-13.307-.633-32.153-1.18-55.625-1.627-44.41-.846-104.082-1.304-166.162-1.304-62.08 0-121.725.458-166.086 1.304-23.446.447-42.26.994-55.53 1.627-6.89.329-12.253.68-15.994 1.049-2.709.267-5.05.7-4.695.34l.001-.001Z" clip-rule="evenodd"/>
  <path stroke="#000" stroke-linecap="round" stroke-width="10" d="M746.826 480.618c3.554 3.795 9.576 5.692 18.067 5.692 8.49 0 15.035-1.897 19.632-5.692"/>
  <path stroke="#000" stroke-linecap="round" stroke-width="12" d="M731.552 432.947v16m62.45-16v16"/>
  <path fill="#fff" fill-rule="evenodd" stroke="#1D877A" stroke-linecap="square" stroke-width="6" d="M385.129 260.719c-4.089 2.096-6.122 28.593-6.1 79.49 94.192 114.749 142.35 170.481 144.475 167.197 3.187-4.926-2.856-102.346-5.832-106.217-2.977-3.87-126.41-143.615-132.543-140.47Z" clip-rule="evenodd"/>
  <path stroke="#DAE875" stroke-linecap="round" stroke-width="16" d="M453.255 377c-19.92 1.776-34.969 8.128-45.149 19.055-10.18 10.928-17.732 28.714-22.656 53.36"/>
  <path fill="#fff" fill-rule="evenodd" stroke="#1D877A" stroke-linecap="square" stroke-width="3" d="M187.808 394.297c.822-.879-6.161-19.6-10.14-20.974-3.978-1.375-141.65-1.375-143.136 0-.72.665 2.683 5.222 5.506 10.143 3.003 5.235 4.552 10.83 5.21 10.83 1.277 0 141.737.88 142.56 0v.001Z" clip-rule="evenodd"/>
  <path stroke="#DAE875" stroke-linecap="round" stroke-width="5" d="M190.697 428.27c5.063-1.837 8.161-4.643 9.295-8.42 1.134-3.775 1.134-9.368 0-16.777m-92.913 52.173c-3.575 2.251-5.873 4.371-6.895 6.36-1.022 1.988-1.35 5.306-.987 9.955l-7.646 2.822m30.274-19.137c3.574 2.251 5.873 4.371 6.894 6.36 1.022 1.988 1.35 5.306.987 9.955l7.646 2.822"/>
  <path fill="#fff" fill-rule="evenodd" stroke="#1D877A" stroke-width="3" d="M187.852 459.76c.356-.38.884-4.599 1.128-10.77.236-5.97.276-13.896.14-22.648-.122-7.871-.382-15.969-.708-22.294-.158-3.077-.326-5.618-.492-7.425a38.697 38.697 0 0 0-.222-1.981c-.24.026-.604-.018-.696-.025a150.222 150.222 0 0 0-4.648-.213c-3.904-.134-9.473-.258-16.375-.366-13.424-.211-31.297-.354-49.314-.394-18.875-.043-36.455.027-49.434.21-7.006.1-12.59.23-16.52.39-2.044.083-3.63.173-4.728.27-.522.047-1.277.176-1-.103.167-.168.1.029.043.295-.107.506-.219 1.23-.33 2.149-.224 1.831-.441 4.386-.64 7.486-.4 6.237-.699 14.297-.82 22.244-.13 8.615-.046 16.521.268 22.477.321 6.113.965 10.25 1.39 10.613.487.417 9.63 1.105 22.908 1.514 13.144.405 30.66.624 48.846.624 18.187 0 35.662-.219 48.732-.624 6.893-.213 12.453-.475 16.412-.777 2.042-.156 3.644-.322 4.773-.495.813-.124 1.407-.286 1.287-.157Z" clip-rule="evenodd"/>
  <path stroke="#000" stroke-linecap="round" stroke-width="4" d="M104.918 438.21c4.819 3.099 8.514 4.647 11.085 4.647 2.572 0 6.267-1.548 11.085-4.646m-24.009-17.049v4.5m25.509-4.5v4.5"/>
  <path fill="#fff" fill-rule="evenodd" stroke="#1D877A" stroke-linecap="square" stroke-width="3" d="M33.958 373.495c-1.457.626-1.457 23.735 0 69.327 6.394 11.86 9.917 17.316 10.568 16.367.976-1.424 0-12.137 0-30.174 0-12.025.314-23.541.943-34.549-6.218-14.607-10.055-21.598-11.511-20.971Z" clip-rule="evenodd"/>
  <path stroke="#1D877A" stroke-linecap="square" stroke-width="3" d="M40.922 382.753h141.141"/>
  <path stroke="#DAE875" stroke-linecap="round" stroke-width="5" d="M37.167 425.162c-5.508-2.048-9.49-4.724-11.943-8.03-2.454-3.304-3.981-8.539-4.582-15.704"/>
  <path fill="#fff" fill-rule="evenodd" stroke="#1D877A" stroke-linecap="square" stroke-width="3" d="M251.566 470.031c-.823-.879 6.161-19.6 10.14-20.974 3.978-1.374 141.65-1.374 143.136 0 .72.666-2.684 5.223-5.507 10.143-3.003 5.235-4.551 10.831-5.21 10.831-1.277 0-141.736.879-142.559 0Z" clip-rule="evenodd"/>
  <path stroke="#DAE875" stroke-linecap="round" stroke-width="5" d="M248.676 504.005c-5.062-1.837-8.16-4.644-9.295-8.42-1.134-3.776-1.134-9.369 0-16.777m92.914 52.172c3.575 2.252 5.873 4.372 6.894 6.36 1.022 1.988 1.351 5.306.987 9.955l7.646 2.822m-30.273-19.137c-3.575 2.252-5.873 4.372-6.895 6.36-1.021 1.988-1.35 5.306-.987 9.955l-7.646 2.822"/>
  <path fill="#fff" fill-rule="evenodd" stroke="#1D877A" stroke-width="3" d="M251.522 535.494c-.356-.38-.885-4.598-1.128-10.77-.236-5.969-.276-13.896-.14-22.648.122-7.87.382-15.968.707-22.294.159-3.076.327-5.618.492-7.424.076-.833.151-1.5.222-1.982.24.026.605-.018.696-.024 1.073-.073 2.634-.144 4.648-.214 3.905-.134 9.473-.258 16.376-.366 13.424-.21 31.297-.353 49.313-.394 18.875-.043 36.455.028 49.435.21 7.006.1 12.59.23 16.52.39 2.043.083 3.629.174 4.728.271.521.046 1.276.176 1-.104-.167-.168-.1.029-.043.295.107.507.219 1.231.33 2.15.223 1.83.44 4.385.64 7.485.4 6.237.698 14.297.819 22.245.13 8.614.046 16.52-.267 22.477-.321 6.112-.965 10.249-1.39 10.612-.487.417-9.63 1.106-22.908 1.515-13.145.405-30.66.624-48.847.624s-35.661-.22-48.731-.624c-6.893-.214-12.454-.475-16.412-.777-2.042-.156-3.644-.322-4.774-.495-.812-.125-1.407-.286-1.286-.158Z" clip-rule="evenodd"/>
  <path stroke="#000" stroke-linecap="round" stroke-width="4" d="M334.455 513.945c-4.818 3.098-8.513 4.647-11.085 4.647-2.572 0-6.267-1.549-11.085-4.647m24.01-17.049v4.5m-25.51-4.5v4.5"/>
  <path fill="#fff" fill-rule="evenodd" stroke="#1D877A" stroke-linecap="square" stroke-width="3" d="M405.416 449.229c1.456.626 1.456 23.736 0 69.328-6.395 11.86-9.918 17.316-10.568 16.366-.976-1.423 0-12.136 0-30.174 0-12.025-.315-23.541-.944-34.548 6.218-14.608 10.056-21.598 11.512-20.972Z" clip-rule="evenodd"/>
  <path stroke="#1D877A" stroke-linecap="square" stroke-width="3" d="M398.451 458.487h-141.14"/>
  <path stroke="#DAE875" stroke-linecap="round" stroke-width="5" d="M402.206 500.896c5.509-2.048 9.49-4.724 11.944-8.029 2.453-3.304 3.98-8.54 4.582-15.705"/>
  <path fill="#fff" fill-rule="evenodd" stroke="#1D877A" stroke-linecap="square" stroke-width="3" d="M1196.27 394.031c-.82-.879 6.16-19.6 10.14-20.974 3.98-1.374 141.65-1.374 143.14 0 .72.666-2.69 5.223-5.51 10.143-3 5.235-4.55 10.831-5.21 10.831-1.28 0-141.74.879-142.56 0Z" clip-rule="evenodd"/>
  <path stroke="#DAE875" stroke-linecap="round" stroke-width="5" d="M1193.38 428.005c-5.06-1.837-8.16-4.644-9.29-8.42-1.14-3.776-1.14-9.369 0-16.777M1277 454.98c3.58 2.252 5.87 4.372 6.9 6.36 1.02 1.988 1.35 5.306.98 9.955l7.65 2.822m-30.28-19.137c-3.57 2.252-5.87 4.372-6.89 6.36-1.02 1.988-1.35 5.306-.99 9.955l-7.64 2.822"/>
  <path fill="#fff" fill-rule="evenodd" stroke="#1D877A" stroke-width="3" d="M1196.23 459.494c-.36-.38-.89-4.598-1.13-10.77-.24-5.969-.28-13.896-.14-22.648.12-7.87.38-15.968.71-22.294.16-3.076.32-5.618.49-7.424.08-.833.15-1.5.22-1.982.24.026.61-.018.7-.024 1.07-.073 2.63-.144 4.64-.214 3.91-.134 9.48-.258 16.38-.366 13.42-.21 31.3-.353 49.31-.394 18.88-.043 36.46.028 49.44.21 7 .1 12.59.23 16.52.39 2.04.083 3.63.174 4.73.271.52.046 1.27.176 1-.104-.17-.168-.1.029-.05.295.11.507.22 1.231.33 2.15.23 1.83.44 4.385.64 7.485.4 6.237.7 14.297.82 22.245.13 8.614.05 16.52-.26 22.477-.33 6.112-.97 10.249-1.39 10.612-.49.417-9.63 1.106-22.91 1.515-13.15.405-30.66.624-48.85.624s-35.66-.22-48.73-.624c-6.89-.214-12.45-.475-16.41-.777-2.04-.156-3.65-.322-4.78-.495-.81-.125-1.4-.286-1.28-.158Z" clip-rule="evenodd"/>
  <path stroke="#000" stroke-linecap="round" stroke-width="4" d="M1279.16 437.945c-4.82 3.098-8.51 4.647-11.09 4.647-2.57 0-6.26-1.549-11.08-4.647m24.01-17.049v4.5m-25.51-4.5v4.5"/>
  <path fill="#fff" fill-rule="evenodd" stroke="#1D877A" stroke-linecap="square" stroke-width="3" d="M1350.12 373.229c1.46.626 1.46 23.736 0 69.328-6.39 11.86-9.92 17.316-10.57 16.366-.97-1.423 0-12.136 0-30.174 0-12.025-.31-23.541-.94-34.548 6.22-14.608 10.05-21.598 11.51-20.972Z" clip-rule="evenodd"/>
  <path stroke="#1D877A" stroke-linecap="square" stroke-width="3" d="M1343.16 382.487h-141.14"/>
  <path stroke="#DAE875" stroke-linecap="round" stroke-width="5" d="M1346.91 424.896c5.51-2.048 9.49-4.724 11.94-8.029 2.46-3.304 3.99-8.54 4.59-15.705"/>
  <path stroke="#979797" stroke-linecap="square" stroke-width="3" d="m1069.34 430.766-9-20"/>
  <path fill="#fff" fill-rule="evenodd" stroke="#1D877A" stroke-linecap="square" stroke-width="3" d="M1140.66 364.235c.82-.878-7.92-22.918-11.8-24.293-3.89-1.374-68.13-1.374-69.61 0-.72.666 2.89 7.103 5.71 12.024 3 5.235 4.55 10.83 5.21 10.83 1.28 0 69.67 2.318 70.49 1.44v-.001Z" clip-rule="evenodd"/>
  <path stroke="#DAE875" stroke-linecap="round" stroke-width="5" d="M1142.84 455.516c5.06 1.837 8.16 4.644 9.3 8.42 1.13 3.776 1.13 9.368 0 16.777m-55.14 8.033c-3.58 2.251-5.87 4.371-6.9 6.36-1.02 1.988-1.34 5.306-.98 9.955l-7.65 2.822m30.28-19.137c3.57 2.251 5.87 4.371 6.89 6.36 1.02 1.988 1.35 5.306.99 9.955l7.64 2.822"/>
  <path fill="#fff" fill-rule="evenodd" d="M1069.7 363.896c-.6 2.486-1.37 32.805-1.56 64.183-.21 36.306.36 63.638 1.56 66.225.37.81 4.64 2.017 11.24 2.8 6.61.785 15.35 1.21 24.41 1.21 9.07 0 17.78-.425 24.33-1.21 6.48-.776 10.65-1.98 10.94-2.715 1.02-2.608 1.45-29.718 1.22-66.786-.19-30.755-.84-62.624-1.22-63.806.19.495.11.459.05.443-.5-.127-1.25-.259-2.23-.387-1.96-.258-4.76-.497-8.23-.707-6.77-.41-15.78-.687-24.85-.767-9.51-.083-18.37.054-24.94.41-3.52.19-6.33.441-8.3.746-.99.153-1.75.316-2.25.482-.16.052-.23.083-.2-.048l.03-.073Zm-.03.073c.01-.041.03-.098.06-.176l-.03.103-.03.073Z" clip-rule="evenodd"/>
  <path stroke="#1D877A" stroke-width="3" d="M1069.7 363.896c-.6 2.486-1.37 32.805-1.56 64.183-.21 36.306.36 63.638 1.56 66.225.37.81 4.64 2.017 11.24 2.8 6.61.785 15.35 1.21 24.41 1.21 9.07 0 17.78-.425 24.33-1.21 6.48-.776 10.65-1.98 10.94-2.715 1.02-2.608 1.45-29.718 1.22-66.786-.19-30.755-.84-62.624-1.22-63.806.19.495.11.459.05.443-.5-.127-1.25-.259-2.23-.387-1.96-.258-4.76-.497-8.23-.707-6.77-.41-15.78-.687-24.85-.767-9.51-.083-18.37.054-24.94.41-3.52.19-6.33.441-8.3.746-.99.153-1.75.316-2.25.482-.16.052-.23.083-.2-.048m.03-.073-.03.073m.03-.073.03-.103c-.03.078-.05.135-.06.176"/>
  <path stroke="#000" stroke-linecap="round" stroke-width="4" d="M1095.84 437.814c4.82 3.098 8.51 4.647 11.09 4.647 2.57 0 6.26-1.549 11.08-4.647M1094 420.766v4.5m25.51-4.5v4.5"/>
  <path fill="#fff" fill-rule="evenodd" stroke="#1D877A" stroke-linecap="square" stroke-width="3" d="M1058.88 339.995c-1.46.626-1.46 47.068 0 139.327 6.39 11.86 9.92 17.316 10.57 16.367.97-1.424 0-12.137 0-30.174 0-12.025.31-46.875.94-104.549-6.22-14.607-10.06-21.598-11.51-20.971Z" clip-rule="evenodd"/>
  <path stroke="#1D877A" stroke-linecap="square" stroke-width="3" d="M1068.07 350.266h67.1"/>
  <path stroke="#DAE875" stroke-linecap="round" stroke-width="5" d="M1062.28 452.903c-5.51 2.048-9.49 4.725-11.94 8.03-2.46 3.304-3.98 8.54-4.58 15.705"/>
  <path stroke="#979797" stroke-linecap="square" stroke-width="3" d="m918.344 1065.4-9-20"/>
  <path fill="#fff" fill-rule="evenodd" stroke="#1D877A" stroke-linecap="square" stroke-width="3" d="M989.66 998.866c.823-.878-7.917-22.918-11.803-24.293-3.885-1.374-68.123-1.374-69.609 0-.72.666 2.889 7.103 5.711 12.024 3.004 5.235 4.552 10.83 5.21 10.83 1.278 0 69.669 2.317 70.491 1.439Z" clip-rule="evenodd"/>
  <path stroke="#DAE875" stroke-linecap="round" stroke-width="5" d="M991.84 1090.15c5.062 1.83 8.16 4.64 9.3 8.42 1.13 3.77 1.13 9.36 0 16.77m-55.14 8.04c-3.575 2.25-5.873 4.37-6.895 6.36-1.021 1.99-1.35 5.3-.986 9.95l-7.646 2.82m30.273-19.13c3.575 2.25 5.873 4.37 6.895 6.36 1.021 1.99 1.35 5.3.986 9.95l7.646 2.82"/>
  <path fill="#fff" fill-rule="evenodd" d="M918.701 998.527c-.605 2.483-1.367 32.803-1.556 64.183-.219 36.31.352 63.64 1.553 66.22.376.81 4.642 2.02 11.244 2.8 6.609.79 15.35 1.21 24.413 1.21 9.062 0 17.772-.42 24.323-1.21 6.482-.77 10.654-1.98 10.942-2.71 1.02-2.61 1.445-29.72 1.216-66.79-.19-30.75-.84-62.62-1.214-63.802.19.494.113.459.053.443-.5-.127-1.256-.259-2.238-.388-1.96-.257-4.759-.496-8.225-.706-6.776-.41-15.779-.687-24.854-.767-9.508-.084-18.372.054-24.935.41-3.52.19-6.33.441-8.303.746-.989.152-1.75.316-2.253.481-.16.053-.228.084-.195-.047l.029-.073Zm-.029.073c.01-.041.03-.098.061-.176a.766.766 0 0 0-.032.103l-.029.073Z" clip-rule="evenodd"/>
  <path stroke="#1D877A" stroke-width="3" d="M918.701 998.527c-.605 2.483-1.367 32.803-1.556 64.183-.219 36.31.352 63.64 1.553 66.22.376.81 4.642 2.02 11.244 2.8 6.609.79 15.35 1.21 24.413 1.21 9.062 0 17.772-.42 24.323-1.21 6.482-.77 10.654-1.98 10.942-2.71 1.02-2.61 1.445-29.72 1.216-66.79-.19-30.75-.84-62.62-1.214-63.802.19.494.113.459.053.443-.5-.127-1.256-.259-2.238-.388-1.96-.257-4.759-.496-8.225-.706-6.776-.41-15.779-.687-24.854-.767-9.508-.084-18.372.054-24.935.41-3.52.19-6.33.441-8.303.746-.989.152-1.75.316-2.253.481-.16.053-.228.084-.195-.047m.029-.073-.029.073m.029-.073a.766.766 0 0 1 .032-.103 1.456 1.456 0 0 0-.061.176"/>
  <path stroke="#000" stroke-linecap="round" stroke-width="4" d="M944.84 1072.44c4.818 3.1 8.513 4.65 11.085 4.65 2.571 0 6.266-1.55 11.085-4.65M943 1055.4v4.5m25.51-4.5v4.5"/>
  <path fill="#fff" fill-rule="evenodd" stroke="#1D877A" stroke-linecap="square" stroke-width="3" d="M907.879 974.626c-1.456.626-1.456 47.064 0 139.324 6.395 11.86 9.918 17.32 10.568 16.37.976-1.42 0-12.14 0-30.17 0-12.03.315-46.88.944-104.553-6.218-14.607-10.056-21.598-11.512-20.971Z" clip-rule="evenodd"/>
  <path stroke="#1D877A" stroke-linecap="square" stroke-width="3" d="M917.068 984.897h67.103"/>
  <path stroke="#DAE875" stroke-linecap="round" stroke-width="5" d="M911.28 1087.53c-5.508 2.05-9.49 4.73-11.943 8.03-2.454 3.31-3.981 8.54-4.582 15.71"/>
  <path stroke="#979797" stroke-linecap="square" stroke-width="3" d="m86.235 708 9-20"/>
  <path fill="#fff" fill-rule="evenodd" stroke="#1D877A" stroke-linecap="square" stroke-width="3" d="M14.918 641.47c-.822-.879 7.917-22.919 11.803-24.293 3.886-1.374 68.124-1.374 69.61 0 .72.666-2.889 7.103-5.712 12.023-3.003 5.235-4.551 10.831-5.21 10.831-1.277 0-69.669 2.317-70.491 1.439Z" clip-rule="evenodd"/>
  <path stroke="#DAE875" stroke-linecap="round" stroke-width="5" d="M12.739 732.75c-5.063 1.837-8.161 4.644-9.295 8.42-1.134 3.776-1.134 9.368 0 16.777m55.135 8.033c3.574 2.252 5.872 4.372 6.894 6.36 1.022 1.988 1.35 5.306.987 9.955l7.646 2.822M43.833 765.98c-3.575 2.252-5.873 4.372-6.895 6.36-1.022 1.988-1.35 5.306-.987 9.955l-7.646 2.822"/>
  <path fill="#fff" fill-rule="evenodd" d="M85.877 641.13c.606 2.486 1.367 32.805 1.557 64.184.219 36.306-.353 63.638-1.553 66.224-.376.81-4.643 2.017-11.245 2.8-6.608.785-15.35 1.21-24.413 1.21-9.062 0-17.772-.425-24.322-1.21-6.483-.775-10.655-1.98-10.942-2.715-1.02-2.608-1.445-29.717-1.217-66.786.19-30.754.84-62.624 1.214-63.806-.19.495-.112.46-.052.444.5-.127 1.255-.26 2.238-.388 1.959-.257 4.759-.497 8.225-.707 6.776-.41 15.778-.687 24.854-.767 9.508-.083 18.371.055 24.934.41 3.52.191 6.33.442 8.303.746.99.153 1.75.317 2.253.482.16.052.229.084.196-.048l-.03-.073Zm.03.073a1.57 1.57 0 0 0-.06-.175c.01.026.02.059.03.102l.03.073Z" clip-rule="evenodd"/>
  <path stroke="#1D877A" stroke-width="3" d="M85.877 641.13c.606 2.486 1.367 32.805 1.557 64.184.219 36.306-.353 63.638-1.553 66.224-.376.81-4.643 2.017-11.245 2.8-6.608.785-15.35 1.21-24.413 1.21-9.062 0-17.772-.425-24.322-1.21-6.483-.775-10.655-1.98-10.942-2.715-1.02-2.608-1.445-29.717-1.217-66.786.19-30.754.84-62.624 1.214-63.806-.19.495-.112.46-.052.444.5-.127 1.255-.26 2.238-.388 1.959-.257 4.759-.497 8.225-.707 6.776-.41 15.778-.687 24.854-.767 9.508-.083 18.371.055 24.934.41 3.52.191 6.33.442 8.303.746.99.153 1.75.317 2.253.482.16.052.229.084.196-.048m-.03-.073.03.073m-.03-.073a.776.776 0 0 0-.03-.102c.024.057.044.116.06.175"/>
  <path stroke="#000" stroke-linecap="round" stroke-width="4" d="M59.739 715.049c-4.819 3.097-8.513 4.646-11.085 4.646-2.572 0-6.267-1.549-11.085-4.646M61.579 698v4.5m-25.51-4.5v4.5"/>
  <path fill="#fff" fill-rule="evenodd" stroke="#1D877A" stroke-linecap="square" stroke-width="3" d="M96.7 617.229c1.456.626 1.456 47.069 0 139.328-6.395 11.86-9.918 17.316-10.569 16.366-.976-1.423 0-12.136 0-30.174 0-12.025-.314-46.874-.943-104.548 6.218-14.608 10.055-21.598 11.512-20.972Z" clip-rule="evenodd"/>
  <path stroke="#1D877A" stroke-linecap="square" stroke-width="3" d="M87.51 627.5H20.409"/>
  <path stroke="#DAE875" stroke-linecap="round" stroke-width="5" d="M93.298 730.138c5.509 2.048 9.49 4.724 11.944 8.029 2.453 3.305 3.98 8.54 4.582 15.705"/>
  <path stroke="#979797" stroke-linecap="square" stroke-width="3" d="m1238.34 595-9-20"/>
  <path fill="#fff" fill-rule="evenodd" stroke="#1D877A" stroke-linecap="square" stroke-width="3" d="M1331.73 595.031c.82-.879-36.16-70.6-40.14-71.974-3.98-1.374-91.65-1.374-93.14 0-.72.666 32.69 56.223 35.51 61.143 3 5.235 4.55 10.831 5.21 10.831 1.28 0 91.74.879 92.56 0Z" clip-rule="evenodd"/>
  <path stroke="#DAE875" stroke-linecap="round" stroke-width="5" d="M1316.83 613.849c15.39 4.576 23.77 8.77 25.15 12.582 1.38 3.811.15 9.926-3.7 18.343m-98.89-12.608c-4.5 3.998-7.4 7.762-8.68 11.292-1.29 3.53-1.7 9.422-1.24 17.675l-9.63 5.012M1277.88 654c3.57 2.251 5.87 4.371 6.89 6.36 1.02 1.988 1.35 5.306.99 9.954l8.06 6.296"/>
  <path fill="#fff" fill-rule="evenodd" stroke="#1D877A" stroke-width="3" d="M1331.62 595.368c-.08-.006-.15-.017-.18-.02a67.457 67.457 0 0 0-3.04-.21c-2.57-.134-6.2-.258-10.7-.366-8.76-.21-20.39-.353-32.12-.394-12.28-.043-23.74.028-32.23.21-4.58.1-8.24.23-10.84.388-1.34.082-2.38.172-3.11.266-.35.047-.73.138-.5-.097.17-.168.1.029.05.295-.11.507-.22 1.231-.33 2.15-.23 1.83-.44 4.385-.64 7.485-.4 6.237-.7 14.297-.82 22.245-.13 8.614-.05 16.52.27 22.477.32 6.112.96 10.249 1.38 10.612 1.34 1.144 22.43 2.139 46.76 2.139 11.73 0 23.01-.219 31.52-.623 4.47-.213 8.1-.473 10.72-.773 1.33-.153 2.39-.315 3.14-.482.55-.122.89-.25.82-.173.36-.362.89-4.586 1.13-10.772.24-5.97.28-13.897.14-22.649-.12-7.87-.38-15.968-.71-22.294-.16-3.076-.32-5.618-.49-7.424-.06-.665-.13-1.329-.22-1.99Z" clip-rule="evenodd"/>
  <path stroke="#000" stroke-linecap="round" stroke-width="4" d="M1274.56 637.595c4.82 3.097 8.51 4.646 11.08 4.646 2.57 0 6.27-1.549 11.09-4.646m-24.01-17.049v4.5m25.51-4.5v4.5"/>
  <path fill="#fff" fill-rule="evenodd" stroke="#1D877A" stroke-linecap="square" stroke-width="3" d="M1197.88 524.229c-1.46.626-1.46 23.736 0 69.328 26.39 45.193 39.92 67.316 40.57 66.366.97-1.423 0-12.136 0-30.174 0-12.025.31-23.541.94-34.548-26.22-47.941-40.06-71.598-41.51-70.972Z" clip-rule="evenodd"/>
  <path stroke="#1D877A" stroke-linecap="square" stroke-width="3" d="M1219.5 557.724h91"/>
  <path stroke="#000" stroke-linecap="round" stroke-width="5" d="M1219.29 600.434c-5.51-2.049-9.49-4.725-11.94-8.03-2.46-3.304-3.98-8.54-4.58-15.705"/>
  <path fill="#fff" fill-rule="evenodd" stroke="#1D877A" stroke-linecap="square" stroke-width="3" d="M277.814 215.077c.975-.706-16.501-41.929-20.144-44.037-3.643-2.108-84.203-17.767-85.924-16.702-.833.516 6.484 15.982 8.316 21.352 1.948 5.711 6.245 21.599 6.892 21.725 1.255.244 89.884 18.368 90.86 17.662Z" clip-rule="evenodd"/>
  <path stroke="#DAE875" stroke-linecap="round" stroke-width="5" d="M275.768 240.747c5.32-.838 8.896-3.002 10.731-6.492 1.834-3.49 2.901-8.98 3.201-16.469m-82.763 45.604c-3.939 1.528-6.599 3.171-7.982 4.927-1.383 1.757-2.338 4.951-2.868 9.584l-8.044 1.311m38.277-12.054c3.079 2.892 4.931 5.412 5.554 7.558.624 2.147.313 5.466-.931 9.961l6.967 4.229"/>
  <path fill="#fff" fill-rule="evenodd" stroke="#1D877A" stroke-width="3" d="M265.362 279.348c.42-.288 1.746-4.333 3.166-10.358 1.371-5.815 2.922-13.589 4.459-22.206 1.382-7.749 2.672-15.748 3.56-22.019.431-3.05.751-5.578.933-7.382.071-.664.124-1.329.16-1.996-.07-.02-.139-.044-.175-.054a67.742 67.742 0 0 0-2.941-.786c-2.488-.62-6.035-1.436-10.426-2.4-8.557-1.877-19.943-4.236-31.438-6.512-12.047-2.385-23.3-4.5-31.669-5.942-4.511-.775-8.131-1.346-10.708-1.686-1.33-.175-2.372-.286-3.103-.332-.356-.021-.743-.004-.47-.19.195-.134.091.047-.016.297a27.032 27.032 0 0 0-.734 2.048c-.568 1.754-1.268 4.22-2.056 7.225-1.583 6.046-3.413 13.901-5.049 21.68-1.771 8.431-3.197 16.208-4.026 22.115-.851 6.061-1.009 10.245-.661 10.682 1.094 1.378 21.599 6.378 45.469 11.018 11.515 2.238 22.626 4.174 31.047 5.4 4.427.643 8.039 1.081 10.663 1.285 1.339.104 2.407.147 3.179.127.564-.015.924-.075.836-.014Z" clip-rule="evenodd"/>
  <path stroke="#000" stroke-linecap="round" stroke-width="4" d="m214.475 229.851-.859 4.417m25.899.45-.858 4.418"/>
  <path fill="#fff" fill-rule="evenodd" stroke="#1D877A" stroke-linecap="square" stroke-width="3" d="M171.459 155.953c-1.55.337-5.785 22.123-12.704 65.355 9.253 27.254 14.289 40.478 15.108 39.67 1.23-1.211 2.316-11.913 5.758-29.62 2.294-11.804 4.801-23.048 7.519-33.733-8.905-28.118-14.132-42.009-15.681-41.672Z" clip-rule="evenodd"/>
  <path stroke="#1D877A" stroke-linecap="square" stroke-width="3" d="m179.345 174.679 88.864 17.274"/>
  <path fill="#fff" stroke="#000" stroke-width="3" d="M222.712 254.318c3.354.652 6.48-.912 6.982-3.495.502-2.582-1.811-5.204-5.165-5.856-3.354-.652-6.48.913-6.982 3.495-.502 2.582 1.81 5.204 5.165 5.856Z"/>
  <path stroke="#DAE875" stroke-linecap="round" stroke-width="5" d="M170.53 214.08c-5.016-3.061-8.415-6.448-10.192-10.161-1.777-3.711-4.38-8.844-7.805-15.398"/>
  <path stroke="#DAE875" stroke-linecap="round" stroke-width="6" d="m191.169 135.68-29.115 19.41 6.835 27.049m75.063-46.166 29.115 19.41-6.834 27.049"/>
  <path fill="#fff" fill-rule="evenodd" stroke="#DAE875" stroke-width="6" d="M191.874 100.24h51.373v35.309h-51.373V100.24Z" clip-rule="evenodd"/>
  <path stroke="#DAE875" stroke-linecap="square" stroke-width="6" d="M216.987 50.767v44.81"/>
  <path fill="#fff" fill-rule="evenodd" stroke="#DAE875" stroke-width="6" d="M217.56 50.36c26.142 0 47.334-21.192 47.334-47.334h-94.666c0 26.142 21.191 47.333 47.333 47.333l-.001.001Z" clip-rule="evenodd"/>
</svg>
