<svg viewBox="0 0 631 150" fill="none" xmlns="http://www.w3.org/2000/svg"><path fill="#007BC3" stroke="#000" d="M.5 19.5h54v114H.5z"/><path d="M37.516 40.75h9.047v48.328c0 6.531-1.97 11.641-5.907 15.328-3.906 3.688-9.125 5.532-15.656 5.532-6.781 0-12.063-1.735-15.844-5.204-3.781-3.468-5.672-8.328-5.672-14.578h9c0 3.906 1.063 6.953 3.188 9.14 2.156 2.188 5.265 3.282 9.328 3.282 3.719 0 6.719-1.172 9-3.516 2.313-2.343 3.484-5.624 3.516-9.843V40.75z" fill="#fff"/><path stroke="#fff" d="M1 109.5h53"/><path fill="#007BC3" stroke="#000" d="M207.5 33.5h34v116h-34z"/><path d="M230.172 47.172v62.484c0 7.875-1.391 13.422-4.172 16.641-2.781 3.25-7.281 4.875-13.5 4.875-2.875 0-5.594-.375-8.156-1.125v-9.985c2.687.688 5.156 1.032 7.406 1.032 2.188 0 3.812-.36 4.875-1.078 1.094-.688 1.844-1.797 2.25-3.328.437-1.532.656-3.704.656-6.516v-63h-9.047v-8.813h28.735v8.813h-9.047z" fill="#fff"/><path stroke="#fff" d="M208 109.5h34"/><path fill="#007BC3" stroke="#000" d="M491.5 12.5h43v125h-43z"/><path d="M530.203 39.688c-.25 3.406-.453 6.39-.609 8.953a485.517 485.517 0 00-.375 6.843 452.36 452.36 0 00-.141 5.25 177.563 177.563 0 00.188 8.484c.062 1.345.109 2.813.14 4.407.063 1.594.11 3.39.141 5.39.062 1.97.094 4.282.094 6.938 0 3.125-.313 6.14-.938 9.047-.625 2.906-1.687 5.484-3.187 7.734-1.5 2.219-3.516 4-6.047 5.344-2.531 1.344-5.703 2.016-9.516 2.016-2.25 0-4.25-.266-6-.797-1.719-.531-3.234-1.25-4.547-2.156a14.47 14.47 0 01-3.281-3.188 19.44 19.44 0 01-2.156-3.844 22.474 22.474 0 01-1.172-4.171 27.409 27.409 0 01-.328-4.126c0-1.75.281-3.203.843-4.359.594-1.156 1.297-2.078 2.11-2.766.844-.687 1.703-1.171 2.578-1.453.906-.28 1.688-.421 2.344-.421.687 0 1.484.14 2.39.421.938.25 1.828.704 2.672 1.36.844.625 1.547 1.453 2.11 2.484.593 1.031.89 2.297.89 3.797a9.224 9.224 0 01-.75 3.234c-.375.844-.968 1.688-1.781 2.532-.781.812-1.922 1.39-3.422 1.734.563.906 1.188 1.641 1.875 2.203a9.445 9.445 0 002.156 1.219 10.1 10.1 0 002.11.562c.656.094 1.203.141 1.64.141 1.657 0 2.985-.328 3.985-.984 1-.688 1.765-1.625 2.297-2.813.531-1.219.875-2.625 1.031-4.219.187-1.625.281-3.375.281-5.25 0-4.25-.016-8.453-.047-12.609 0-4.188-.047-8.328-.14-12.422-.094-4.094-.25-8.172-.469-12.234a220.747 220.747 0 00-.984-12.094c.343.063.781.125 1.312.188.844.093 2.141.14 3.891.14 1.093 0 2.375-.031 3.843-.094a66.695 66.695 0 004.969-.422z" fill="#fff"/><path stroke="#fff" d="M492 109.5h42"/><path fill="#007BC3" stroke="#000" d="M392.5.5h52v144h-52z"/><path d="M400.296 108.136a4.923 4.923 0 01-2.496-1.728c-.64-.832-.96-1.792-.96-2.88 0-.832.352-1.504 1.056-2.016.704-.512 1.472-.608 2.304-.288a41.208 41.208 0 0013.632 2.304c5.056 0 8.768-1.504 11.136-4.512 2.368-3.008 3.552-8 3.552-14.976V42.952c0-1.088.384-2.016 1.152-2.784.832-.832 1.792-1.248 2.88-1.248 1.088 0 2.016.416 2.784 1.248.832.768 1.248 1.696 1.248 2.784V85.96c0 8.32-1.856 14.4-5.568 18.24-3.712 3.84-9.44 5.76-17.184 5.76-4.544 0-9.056-.608-13.536-1.824z" fill="#fff"/><path stroke="#fff" d="M393 109.5h51"/><path fill="#007BC3" stroke="#000" d="M289.5 7.5h56v128h-56z"/><path d="M313.578 109.984c-3.781 0-7.219-.75-10.312-2.25-3.063-1.5-5.532-3.765-7.407-6.796-1.843-3.032-2.859-6.829-3.047-11.391l.094-.281h8.86c.125 4.593 1.172 7.968 3.14 10.125 2 2.156 4.844 3.234 8.532 3.234 3.874 0 6.718-1.203 8.531-3.61 1.812-2.437 2.719-5.562 2.719-9.374V48.016l-9.094-1.22V40.75h25.968v5.953l-7.64 1.313V89.64c0 6.125-1.734 11.047-5.203 14.765-3.438 3.719-8.485 5.578-15.141 5.578z" fill="#fff"/><path stroke="#fff" d="M290 109.5h55"/><path fill="#007BC3" stroke="#000" d="M101.5 10.5h59v128h-59z"/><path d="M153.552 83.656c0 8-2.304 14.4-6.912 19.2-4.608 4.8-10.816 7.2-18.624 7.2-5.76 0-10.784-1.504-15.072-4.512-4.224-3.008-7.328-7.232-9.312-12.672l6.72-2.784c1.728 4.416 4.064 7.712 7.008 9.888 3.008 2.176 6.592 3.264 10.752 3.264 5.44 0 9.792-1.792 13.056-5.376 3.328-3.584 4.992-8.352 4.992-14.304V41.8h7.392v41.856z" fill="#fff"/><path stroke="#fff" d="M102 109.5h58"/><path fill="#007BC3" stroke="#000" d="M581.5 9.5h49v126h-49z"/><path d="M605.016 30.297c2.718 0 5.14.828 7.265 2.484 2.157 1.625 3.969 4.125 5.438 7.5 1.5 3.344 2.625 7.578 3.375 12.703.781 5.094 1.172 11.125 1.172 18.094a60.3 60.3 0 01-.047 2.39 60.29 60.29 0 00-.047 2.391l1.547-1.921 1.922 1.453-3.657 4.125c-1 9.062-2.422 16.937-4.265 23.625-1.844 6.687-3.953 12.25-6.328 16.687-2.375 4.438-4.922 7.734-7.641 9.891-2.688 2.187-5.406 3.281-8.156 3.281-1.125 0-2.141-.234-3.047-.703a7.022 7.022 0 01-2.344-1.828c-.656-.781-1.156-1.703-1.5-2.766-.344-1.031-.515-2.141-.515-3.328 0-3 .656-6.078 1.968-9.234 1.313-3.125 3.11-6.375 5.391-9.75 2.312-3.375 5.047-6.875 8.203-10.5a540.936 540.936 0 0110.266-11.438c.156-2.844.296-5.766.422-8.766.124-3 .187-6.28.187-9.843 0-6.156-.234-11.297-.703-15.422-.438-4.125-1.078-7.422-1.922-9.89-.844-2.5-1.859-4.266-3.047-5.298-1.187-1.03-2.5-1.547-3.937-1.547-1.907 0-3.813.86-5.719 2.579-1.875 1.687-3.563 4.156-5.063 7.406-1.5 3.219-2.718 7.187-3.656 11.906-.937 4.688-1.406 10.031-1.406 16.031 0 3.157.25 5.829.75 8.016.5 2.188 1.172 3.969 2.016 5.344.843 1.344 1.812 2.328 2.906 2.953s2.234.937 3.422.937c1.687 0 3.234-.562 4.64-1.687 1.406-1.156 2.625-2.688 3.656-4.594 1.032-1.906 1.829-4.094 2.391-6.562a34.47 34.47 0 00.844-7.688c0-.75-.031-1.453-.094-2.11a22.561 22.561 0 00-.141-1.734 52.08 52.08 0 01-.234-1.547l2.391-.468c.062.406.14.89.234 1.453.063.5.109 1.11.141 1.828.062.688.094 1.516.094 2.484 0 2.875-.344 5.704-1.032 8.485-.687 2.75-1.672 5.203-2.953 7.36-1.281 2.155-2.844 3.905-4.687 5.25-1.813 1.312-3.875 1.968-6.188 1.968-2.531 0-4.781-.516-6.75-1.547-1.937-1.063-3.594-2.563-4.969-4.5-1.343-1.969-2.375-4.344-3.093-7.125-.688-2.813-1.032-5.953-1.032-9.422 0-3.437.328-6.75.985-9.937.687-3.188 1.609-6.157 2.765-8.907 1.157-2.78 2.5-5.312 4.032-7.593 1.562-2.282 3.203-4.235 4.922-5.86 1.75-1.625 3.546-2.875 5.39-3.75 1.875-.906 3.688-1.36 5.438-1.36zm-7.688 99.844c.719 0 1.563-.235 2.531-.703 1-.438 2.032-1.25 3.094-2.438 1.063-1.188 2.141-2.812 3.235-4.875 1.093-2.031 2.124-4.625 3.093-7.781.969-3.156 1.844-6.953 2.625-11.391.782-4.437 1.391-9.625 1.828-15.562a836.922 836.922 0 00-8.765 10.078c-2.563 2.969-4.735 5.812-6.516 8.531-1.781 2.719-3.141 5.391-4.078 8.016-.906 2.656-1.359 5.468-1.359 8.437 0 2.25.375 4.094 1.125 5.531.781 1.438 1.843 2.157 3.187 2.157z" fill="#fff"/><path stroke="#fff" d="M582 109.5h48"/><path stroke="#464646" stroke-dasharray="5 5" d="M.5.5h630v149H.5z"/></svg>
