<svg xmlns="http://www.w3.org/2000/svg" fill="none" viewBox="0 0 1280 453"><path fill="#FFDB01" d="M1100.67 385.17c99.04 0 179.33-80.291 179.33-179.335 0-99.044-80.29-179.335-179.33-179.335-99.05 0-179.34 80.291-179.34 179.335 0 99.044 80.29 179.335 179.34 179.335Z"/><path fill="#7F8C8D" d="M1087.65 294.027h-37.31c-1.88 0-3.4 1.519-3.4 3.392a3.395 3.395 0 0 0 3.4 3.392h37.31a3.393 3.393 0 0 0 0-6.784ZM1199.58 294.027h-20.35a3.393 3.393 0 0 0 0 6.784h20.35c1.88 0 3.4-1.519 3.4-3.392a3.395 3.395 0 0 0-3.4-3.392ZM1152.1 294.027h-37.32a3.393 3.393 0 0 0 0 6.784h37.32a3.393 3.393 0 0 0 0-6.784ZM1023.2 294.027h-20.35a3.39 3.39 0 0 0-3.394 3.392 3.39 3.39 0 0 0 3.394 3.392h20.35a3.393 3.393 0 0 0 0-6.784ZM1101.22 260.107c-1.88 0-3.4 1.518-3.4 3.392v27.136a3.395 3.395 0 0 0 6.79 0v-27.136a3.393 3.393 0 0 0-3.39-3.392ZM1165.66 243.147a3.393 3.393 0 0 0-3.39 3.392v44.096a3.395 3.395 0 0 0 6.79 0v-44.096a3.395 3.395 0 0 0-3.4-3.392ZM1036.77 243.147a3.386 3.386 0 0 0-3.39 3.392v44.096a3.393 3.393 0 0 0 3.39 3.392c1.87 0 3.39-1.519 3.39-3.392v-44.096a3.393 3.393 0 0 0-3.39-3.392Z"/><path fill="#BDC3C7" d="M1026.59 290.635h20.35c1.88 0 3.4 1.519 3.4 3.392v6.784a3.395 3.395 0 0 1-3.4 3.392h-20.35a3.393 3.393 0 0 1-3.39-3.392v-6.784a3.393 3.393 0 0 1 3.39-3.392ZM1155.49 290.635h20.35c1.87 0 3.39 1.519 3.39 3.392v6.784a3.393 3.393 0 0 1-3.39 3.392h-20.35a3.386 3.386 0 0 1-3.39-3.392v-6.784a3.393 3.393 0 0 1 3.39-3.392ZM1091.04 290.635h20.35c1.88 0 3.39 1.519 3.39 3.392v6.784a3.386 3.386 0 0 1-3.39 3.392h-20.35a3.393 3.393 0 0 1-3.39-3.392v-6.784a3.393 3.393 0 0 1 3.39-3.392Z"/><path fill="#2C3E50" d="M1009.63 124.427h57.67v122.112h-57.67a6.801 6.801 0 0 1-6.78-6.784V131.212a6.802 6.802 0 0 1 6.78-6.785Z"/><path fill="#35495E" d="M1002.85 131.212v27.136h64.45v-33.921h-57.67a6.802 6.802 0 0 0-6.78 6.785Z"/><path fill="#547580" d="M1046.94 175.308h-20.35a3.393 3.393 0 0 1 0-6.784h20.35c1.88 0 3.4 1.519 3.4 3.392a3.395 3.395 0 0 1-3.4 3.392ZM1026.59 182.092h20.35c1.88 0 3.4 1.519 3.4 3.392a3.395 3.395 0 0 1-3.4 3.392h-20.35a3.393 3.393 0 0 1 0-6.784Z"/><path fill="#4C8056" d="M1036.77 226.187c5.62 0 10.17-4.556 10.17-10.176s-4.55-10.176-10.17-10.176-10.18 4.556-10.18 10.176 4.56 10.176 10.18 10.176Z"/><path fill="#2C3E50" d="M1040.16 137.995h-23.74c-1.88 0-3.4 1.519-3.4 3.392a3.395 3.395 0 0 0 3.4 3.392h23.74a3.393 3.393 0 0 0 0-6.784ZM1057.12 137.995h-3.39a3.393 3.393 0 0 0 0 6.784h3.39a3.393 3.393 0 0 0 0-6.784ZM1192.8 124.427h-57.66v122.112h57.66a6.801 6.801 0 0 0 6.78-6.784V131.212a6.802 6.802 0 0 0-6.78-6.785Z"/><path fill="#35495E" d="M1199.58 131.212v27.136h-64.44v-33.921h57.66a6.802 6.802 0 0 1 6.78 6.785Z"/><path fill="#547580" d="M1155.49 175.308h20.35a3.393 3.393 0 0 0 0-6.784h-20.35a3.386 3.386 0 0 0-3.39 3.392 3.386 3.386 0 0 0 3.39 3.392ZM1175.84 182.092h-20.35a3.386 3.386 0 0 0-3.39 3.392 3.386 3.386 0 0 0 3.39 3.392h20.35a3.393 3.393 0 0 0 0-6.784Z"/><path fill="#4C8056" d="M1165.66 226.187c5.62 0 10.18-4.556 10.18-10.176s-4.56-10.176-10.18-10.176-10.17 4.556-10.17 10.176 4.55 10.176 10.17 10.176Z"/><path fill="#2C3E50" d="M1169.06 137.995h-23.75a3.393 3.393 0 0 0 0 6.784h23.75a3.393 3.393 0 0 0 0-6.784ZM1186.02 137.995h-3.4a3.393 3.393 0 0 0 0 6.784h3.4a3.393 3.393 0 0 0 0-6.784Z"/><path fill="#3F5C6C" d="M1060.51 158.347v98.368a6.804 6.804 0 0 0 6.79 6.784h67.84a6.8 6.8 0 0 0 6.78-6.784V114.251a6.801 6.801 0 0 0-6.78-6.784h-67.84a6.804 6.804 0 0 0-6.79 6.784v10.176"/><path fill="#547580" d="M1141.92 114.251v33.92h-81.41v-33.92a6.804 6.804 0 0 1 6.79-6.784h67.84a6.801 6.801 0 0 1 6.78 6.784Z"/><path fill="#71C285" d="M1101.22 243.147c5.62 0 10.17-4.556 10.17-10.176s-4.55-10.176-10.17-10.176-10.18 4.556-10.18 10.176 4.56 10.176 10.18 10.176Z"/><path fill="#3F5C6C" d="M1111.39 124.427h-37.31a3.393 3.393 0 0 0 0 6.784h37.31c1.88 0 3.39-1.519 3.39-3.392a3.386 3.386 0 0 0-3.39-3.392ZM1128.35 124.427h-3.39a3.393 3.393 0 0 0 0 6.784h3.39c1.88 0 3.39-1.519 3.39-3.392a3.386 3.386 0 0 0-3.39-3.392Z"/><path fill="#84B5CB" d="M1084.26 165.132h33.92a3.393 3.393 0 0 0 0-6.784h-33.92c-1.88 0-3.4 1.519-3.4 3.392a3.395 3.395 0 0 0 3.4 3.392ZM1118.18 171.916h-33.92c-1.88 0-3.4 1.519-3.4 3.392a3.394 3.394 0 0 0 3.4 3.391h33.92a3.392 3.392 0 0 0 0-6.783ZM1118.18 185.484h-33.92c-1.88 0-3.4 1.518-3.4 3.392a3.394 3.394 0 0 0 3.4 3.391h33.92a3.392 3.392 0 0 0 0-6.783Z"/><path fill="#21C9C9" d="M179.335 385.17c99.044 0 179.335-80.291 179.335-179.335 0-99.044-80.291-179.335-179.335-179.335C80.291 26.5 0 106.791 0 205.835 0 304.879 80.291 385.17 179.335 385.17Z"/><path fill="#fff" d="M64.49 154.414v133.809c0 1.065.852 1.846 1.846 1.846h225.927a1.833 1.833 0 0 0 1.846-1.846V154.414H64.489Z"/><path fill="#D4D4D4" d="M294.18 156.048v-22.799c0-6.463-5.256-11.719-11.719-11.719H76.208c-6.463 0-11.718 5.256-11.718 11.719v22.799h229.69Z"/><path fill="#fff" d="M200.784 147.17H88.14a8.275 8.275 0 0 1-8.31-8.31 8.276 8.276 0 0 1 8.31-8.31h112.644a8.276 8.276 0 0 1 8.31 8.31c0 4.546-3.693 8.31-8.31 8.31Z"/><path fill="#85C33D" d="M270.387 147.454a8.452 8.452 0 1 0 0-16.904 8.452 8.452 0 0 0 0 16.904Z"/><path fill="#E96E4C" d="M245.813 147.454a8.452 8.452 0 1 0 0-16.904 8.452 8.452 0 0 0 0 16.904Z"/><path fill="#324A5E" d="M88.78 141.914h-1.705l-1.989-5.824h1.705l1.136 3.48 1.137-3.48h1.562l1.137 3.48 1.136-3.48h1.705l-1.99 5.824H90.91l-1.065-3.196-1.065 3.196ZM98.51 141.914h-1.705l-1.988-5.824h1.704l1.137 3.48 1.136-3.48h1.563l1.136 3.48 1.136-3.48h1.705l-1.989 5.824h-1.704l-1.066-3.196-1.065 3.196ZM108.24 141.914h-1.704l-1.989-5.824h1.704l1.137 3.48 1.136-3.48h1.563l1.136 3.48 1.136-3.48h1.705l-1.989 5.824h-1.704l-1.066-3.196-1.065 3.196Z"/><path fill="#FFF0D3" d="M825.105 240.09v99.15l-12.544 4.182a3.784 3.784 0 0 0 2.394 7.177l15.128-5.044a3.78 3.78 0 0 0 2.586-3.587V240.09h-7.564Z"/><path fill="#FFD9D4" d="M862.931 240.09v99.15l12.543 4.182a3.784 3.784 0 0 1 2.393 4.785 3.781 3.781 0 0 1-4.785 2.392l-15.128-5.044a3.78 3.78 0 0 1-2.588-3.587V240.09h7.565Z"/><path fill="#1D877A" d="M896.975 170.74h-15.262a3.783 3.783 0 0 0 0 7.565h15.262a3.788 3.788 0 0 1 3.784 3.784 3.787 3.787 0 0 1-3.784 3.783h-52.958v7.565h52.958c6.257 0 11.349-5.092 11.349-11.348 0-6.257-5.092-11.349-11.349-11.349Z"/><path fill="#FF8646" d="M851.582 250.392v35.089a7.567 7.567 0 0 0 15.133 0v-35.089h-15.133Z"/><path fill="#FFA754" d="M821.322 250.392v35.089a7.566 7.566 0 0 0 15.13 0v-35.089h-15.13Z"/><path fill="#1D877A" d="M866.715 224.958v-35.304c0-5.572-4.518-10.087-10.089-10.087h-15.13l-5.044 45.391 22.698 37.827h15.13v-17.821c0-7.672-2.862-14.672-7.565-20.006Z"/><path fill="#43C280" d="M851.582 224.958v-35.304c0-5.572-4.515-10.087-10.086-10.087h-10.087a10.086 10.086 0 0 0-10.087 10.087v35.304a30.135 30.135 0 0 0-7.565 20.006v17.821h45.393v-17.821c0-7.672-2.862-14.672-7.568-20.006Z"/><path fill="#FFB4A9" d="M783.496 198.543v22.695h-1.262a3.783 3.783 0 0 0 0 7.565h8.827a7.565 7.565 0 0 0 7.566-7.565v-22.695h-15.131Z"/><path fill="#43C280" d="M806.192 179.567v22.695l-37.826.064v-22.697l37.826-.062Z"/><path fill="#EBEBEB" d="m764.13 175.453 7.565 15.524-7.565 15.525A47.032 47.032 0 0 0 749 217.456v-52.957a47.003 47.003 0 0 0 15.13 10.954Z"/><path fill="#CCC" d="M783.496 179.629v22.697a46.692 46.692 0 0 0-19.366 4.176v-31.049a46.692 46.692 0 0 0 19.366 4.176Z"/><path fill="#403D58" d="M827.996 141.741v15.765c-1.724 4.073-5.756 6.931-10.456 6.931-6.268 0-11.348-5.083-11.348-11.349s5.08-11.347 11.348-11.347h10.456Z"/><path fill="#FFD9D4" d="M857.635 123.585h-13.618v40.852c12.535 0 22.698-10.163 22.698-22.696 0-7.425-3.566-14.021-9.08-18.156Z"/><path fill="#FFF0D3" d="M850.676 130.967c.58 3.207.907 6.874.907 10.774 0 12.533-3.388 22.696-7.566 22.696-12.532 0-22.695-10.163-22.695-22.696l29.354-10.774Z"/><path fill="#020000" d="M857.635 123.584a45.556 45.556 0 0 1-6.959 7.383l-6.659-11.923c5.106 0 9.825 1.691 13.618 4.54Z"/><path fill="#403D58" d="M821.322 141.741c0-12.535 10.163-22.697 22.695-22.697 2.875 0 5.382 4.822 6.659 11.923-7.915 6.719-18.163 10.774-29.354 10.774Z"/><path fill="#43C280" d="m957.498 111.479-30.262 15.13 15.13-30.26h15.132v15.13Z"/><path fill="#999" d="m942.366 126.609-60.521-15.13v-15.13h60.521v30.26Z"/><path fill="#A8E5FF" d="m942.366 159.393-22.697-23.957 22.697-23.957h15.132v47.914h-15.132Z"/><path fill="#DBF4FF" d="M881.845 111.479h60.521v47.914h-60.521v-47.914Z"/><path fill="#fff" d="m826.563 24.772 7.452-19.008h1.044l6.516 19.152c.504 1.512.84 2.604 1.008 3.276.192-.792.528-1.872 1.008-3.24l6.624-19.692h1.8l-8.964 25.956h-1.008l-6.66-19.08a14.423 14.423 0 0 0-.324-.936l-.252-.828a5.828 5.828 0 0 0-.216-.612l-.144-.432a1.796 1.796 0 0 1-.036-.216c-.288.864-.66 1.86-1.116 2.988l-7.524 19.116h-1.008L815.727 5.26h1.908l6.588 19.368c.312.864.564 1.644.756 2.34.216.696.336 1.08.36 1.152.12-.552.528-1.668 1.224-3.348ZM856.913 31V7.636h10.908v1.44h-9.252v8.496h8.352v1.404h-8.352v10.512h9.612V31h-11.268Zm17.858-23.256a62.418 62.418 0 0 1 5.256-.216c1.8 0 3.336.432 4.608 1.296 1.296.864 1.944 2.124 1.944 3.78 0 1.248-.336 2.4-1.008 3.456-.672 1.056-1.488 1.86-2.448 2.412 1.56.456 2.856 1.272 3.888 2.448s1.548 2.508 1.548 3.996c0 2.064-.66 3.624-1.98 4.68-1.296 1.056-3.132 1.584-5.508 1.584s-4.476-.084-6.3-.252V7.744Zm3.276 11.448-1.62.036V29.56c1.032.096 2.7.144 5.004.144 1.56 0 2.844-.432 3.852-1.296 1.032-.888 1.548-1.992 1.548-3.312 0-1.344-.516-2.508-1.548-3.492-1.008-1.008-2.328-1.716-3.96-2.124-.84-.192-1.932-.288-3.276-.288Zm6.912-6.624c0-1.176-.492-2.076-1.476-2.7-.984-.648-2.16-.972-3.528-.972-1.368 0-2.544.036-3.528.108v8.82c2.088 0 3.756.06 5.004.18.936-.504 1.752-1.236 2.448-2.196.72-.984 1.08-2.064 1.08-3.24Zm-81.725 35.076c-1.296 0-2.352.312-3.168.936-.816.624-1.224 1.5-1.224 2.628 0 1.296.54 2.46 1.62 3.492.768.744 1.752 1.536 2.952 2.376 1.224.816 2.064 1.404 2.52 1.764.456.36 1.008.852 1.656 1.476 1.176 1.176 1.764 2.532 1.764 4.068 0 1.992-.672 3.504-2.016 4.536-1.32 1.008-3.18 1.512-5.58 1.512-2.376 0-4.368-.624-5.976-1.872l.864-1.26c1.632 1.104 3.36 1.656 5.184 1.656 1.824 0 3.24-.384 4.248-1.152 1.032-.768 1.548-1.848 1.548-3.24 0-1.2-.516-2.304-1.548-3.312-.72-.72-1.692-1.5-2.916-2.34-1.2-.84-2.04-1.44-2.52-1.8a25.397 25.397 0 0 1-1.692-1.512c-1.224-1.224-1.836-2.64-1.836-4.248s.564-2.868 1.692-3.78c1.152-.912 2.736-1.368 4.752-1.368 2.016 0 3.828.396 5.436 1.188l-.612 1.332c-1.488-.72-3.204-1.08-5.148-1.08ZM815.991 70V46.636h10.908v1.44h-9.252v8.496h8.352v1.404h-8.352v10.512h9.612V70h-11.268Zm17.894 0V46.744c2.064-.168 3.816-.252 5.256-.252 2.208 0 4.032.576 5.472 1.728 1.44 1.128 2.16 2.748 2.16 4.86 0 1.416-.408 2.724-1.224 3.924-.816 1.2-1.74 2.172-2.772 2.916 2.856 3.792 4.62 6.06 5.292 6.804 1.368 1.416 2.856 2.22 4.464 2.412l-.036 1.116c-1.344-.024-2.436-.216-3.276-.576-.84-.384-1.68-1.02-2.52-1.908-.816-.888-2.628-3.276-5.436-7.164-1.944 0-3.852-.06-5.724-.18V70h-1.656Zm6.48-10.764c.936 0 1.944-.624 3.024-1.872 1.08-1.248 1.62-2.7 1.62-4.356 0-1.656-.564-2.916-1.692-3.78-1.128-.864-2.592-1.296-4.392-1.296-.96 0-2.088.048-3.384.144v10.98c1.728.12 3.336.18 4.824.18Zm21.895 5.868 7.812-18.468h1.728l-10.044 23.508h-.972L850.74 46.636h1.8l8.82 20.772c.12-.36.42-1.128.9-2.304ZM876.565 70V46.636h10.908v1.44h-9.252v8.496h8.352v1.404h-8.352v10.512h9.612V70h-11.268Zm17.895 0V46.744c2.064-.168 3.816-.252 5.256-.252 2.208 0 4.032.576 5.472 1.728 1.44 1.128 2.16 2.748 2.16 4.86 0 1.416-.408 2.724-1.224 3.924-.816 1.2-1.74 2.172-2.772 2.916 2.856 3.792 4.62 6.06 5.292 6.804 1.368 1.416 2.856 2.22 4.464 2.412l-.036 1.116c-1.344-.024-2.436-.216-3.276-.576-.84-.384-1.68-1.02-2.52-1.908-.816-.888-2.628-3.276-5.436-7.164-1.944 0-3.852-.06-5.724-.18V70h-1.656Zm6.48-10.764c.936 0 1.944-.624 3.024-1.872 1.08-1.248 1.62-2.7 1.62-4.356 0-1.656-.564-2.916-1.692-3.78-1.128-.864-2.592-1.296-4.392-1.296-.96 0-2.088.048-3.384.144v10.98c1.728.12 3.336.18 4.824.18ZM703.084 173.061a1.5 1.5 0 0 0 0-2.122l-9.546-9.546a1.502 1.502 0 0 0-2.122 0 1.502 1.502 0 0 0 0 2.122l8.486 8.485-8.486 8.485a1.502 1.502 0 0 0 0 2.122 1.502 1.502 0 0 0 2.122 0l9.546-9.546ZM406 173.5h296.023v-3H406v3ZM404.916 262.539a1.5 1.5 0 0 0 0 2.121l9.546 9.546a1.5 1.5 0 0 0 2.122-2.121l-8.486-8.486 8.486-8.485a1.501 1.501 0 0 0-2.122-2.121l-9.546 9.546Zm297.084-.44H405.977v3H702v-3ZM506.23 156.99v-17.088c1.52-.112 2.792-.168 3.816-.168 1.632 0 2.976.424 4.032 1.272 1.056.832 1.584 2.016 1.584 3.552 0 1.04-.304 2.008-.912 2.904-.608.896-1.288 1.608-2.04 2.136.592.816 1.32 1.792 2.184 2.928.88 1.12 1.448 1.824 1.704 2.112.976 1.04 2.08 1.632 3.312 1.776l-.024.768c-.976-.016-1.768-.16-2.376-.432-.608-.288-1.192-.72-1.752-1.296-.544-.576-1.912-2.368-4.104-5.376-1.568 0-2.992-.048-4.272-.144v7.056h-1.152Zm4.728-7.872c.704 0 1.456-.464 2.256-1.392.8-.928 1.2-2 1.2-3.216 0-1.232-.416-2.16-1.248-2.784-.816-.64-1.904-.96-3.264-.96-.72 0-1.56.032-2.52.096v8.136c1.28.08 2.472.12 3.576.12Zm10.781 7.872v-15.576h7.272v.96h-6.168v5.664h5.568v.936h-5.568v7.008h6.408v1.008h-7.512Zm18.817.24c-2.224 0-4.088-.776-5.592-2.328-1.504-1.552-2.256-3.448-2.256-5.688 0-2.256.752-4.16 2.256-5.712 1.504-1.552 3.368-2.328 5.592-2.328 2.224 0 4.08.776 5.568 2.328 1.504 1.552 2.256 3.448 2.256 5.688 0 1.328-.28 2.56-.84 3.696a7.751 7.751 0 0 1-2.304 2.808c3.808 2.256 6.736 3.616 8.784 4.08a12.93 12.93 0 0 0 3.048.384c.976 0 2.024-.112 3.144-.336 1.136-.224 1.944-.456 2.424-.696l.264.624c-.608.288-1.496.568-2.664.84-1.152.288-2.24.432-3.264.432-1.008 0-2.088-.136-3.24-.408-1.152-.256-2.352-.672-3.6-1.248a58.38 58.38 0 0 1-2.904-1.416 75.186 75.186 0 0 1-2.928-1.656 7.737 7.737 0 0 1-3.744.936Zm-.024-15.072c-1.92 0-3.512.68-4.776 2.04-1.264 1.36-1.896 3.032-1.896 5.016 0 1.968.632 3.632 1.896 4.992 1.264 1.344 2.864 2.016 4.8 2.016 1.008 0 1.92-.192 2.736-.576-1.808-1.216-3.216-1.824-4.224-1.824a3.7 3.7 0 0 0-1.584.336l-.36-.672a3.286 3.286 0 0 1 1.824-.528c.672 0 1.328.12 1.968.36.64.24 1.176.488 1.608.744a33.52 33.52 0 0 1 1.728 1.08 6.484 6.484 0 0 0 2.184-2.496c.544-1.056.816-2.208.816-3.456 0-1.968-.64-3.632-1.92-4.992-1.264-1.36-2.864-2.04-4.8-2.04Zm23.748 13.224c-1.056 1.232-2.664 1.848-4.824 1.848-2.16 0-3.768-.616-4.824-1.848-1.056-1.232-1.584-2.936-1.584-5.112v-8.856h1.104v8.856c0 3.984 1.768 5.976 5.304 5.976 3.536 0 5.304-1.992 5.304-5.976v-8.856h1.104v8.856c0 2.176-.528 3.88-1.584 5.112Zm7.193 1.608v-15.576h7.272v.96h-6.168v5.664h5.568v.936h-5.568v7.008h6.408v1.008h-7.512Zm15.074-14.904c-.864 0-1.568.208-2.112.624-.544.416-.816 1-.816 1.752 0 .864.36 1.64 1.08 2.328.512.496 1.168 1.024 1.968 1.584.816.544 1.376.936 1.68 1.176.304.24.672.568 1.104.984.784.784 1.176 1.688 1.176 2.712 0 1.328-.448 2.336-1.344 3.024-.88.672-2.12 1.008-3.72 1.008-1.584 0-2.912-.416-3.984-1.248l.576-.84c1.088.736 2.24 1.104 3.456 1.104 1.216 0 2.16-.256 2.832-.768.688-.512 1.032-1.232 1.032-2.16 0-.8-.344-1.536-1.032-2.208-.48-.48-1.128-1-1.944-1.56-.8-.56-1.36-.96-1.68-1.2-.32-.256-.696-.592-1.128-1.008-.816-.816-1.224-1.76-1.224-2.832 0-1.072.376-1.912 1.128-2.52.768-.608 1.824-.912 3.168-.912s2.552.264 3.624.792l-.408.888c-.992-.48-2.136-.72-3.432-.72Zm11.288.312h-5.28v-.984h11.64v.984h-5.28v14.592h-1.08v-14.592ZM499.665 251v-17.088c1.52-.112 2.792-.168 3.816-.168 1.632 0 2.976.424 4.032 1.272 1.056.832 1.584 2.016 1.584 3.552 0 1.04-.304 2.008-.912 2.904-.608.896-1.288 1.608-2.04 2.136.592.816 1.32 1.792 2.184 2.928.88 1.12 1.448 1.824 1.704 2.112.976 1.04 2.08 1.632 3.312 1.776l-.024.768c-.976-.016-1.768-.16-2.376-.432-.608-.288-1.192-.72-1.752-1.296-.544-.576-1.912-2.368-4.104-5.376-1.568 0-2.992-.048-4.272-.144V251h-1.152Zm4.728-7.872c.704 0 1.456-.464 2.256-1.392.8-.928 1.2-2 1.2-3.216 0-1.232-.416-2.16-1.248-2.784-.816-.64-1.904-.96-3.264-.96-.72 0-1.56.032-2.52.096v8.136c1.28.08 2.472.12 3.576.12Zm10.78 7.872v-15.576h7.272v.96h-6.168v5.664h5.568v.936h-5.568v7.008h6.408V251h-7.512Zm15.074-14.904c-.864 0-1.568.208-2.112.624-.544.416-.816 1-.816 1.752 0 .864.36 1.64 1.08 2.328.512.496 1.168 1.024 1.968 1.584.816.544 1.376.936 1.68 1.176.304.24.672.568 1.104.984.784.784 1.176 1.688 1.176 2.712 0 1.328-.448 2.336-1.344 3.024-.88.672-2.12 1.008-3.72 1.008-1.584 0-2.912-.416-3.984-1.248l.576-.84c1.088.736 2.24 1.104 3.456 1.104 1.216 0 2.16-.256 2.832-.768.688-.512 1.032-1.232 1.032-2.16 0-.8-.344-1.536-1.032-2.208-.48-.48-1.128-1-1.944-1.56-.8-.56-1.36-.96-1.68-1.2-.32-.256-.696-.592-1.128-1.008-.816-.816-1.224-1.76-1.224-2.832 0-1.072.376-1.912 1.128-2.52.768-.608 1.824-.912 3.168-.912s2.552.264 3.624.792l-.408.888c-.992-.48-2.136-.72-3.432-.72ZM538.752 251v-15.48c1.2-.128 2.464-.192 3.792-.192 1.344 0 2.48.36 3.408 1.08.928.704 1.392 1.776 1.392 3.216 0 1.44-.632 2.624-1.896 3.552-1.264.912-2.76 1.368-4.488 1.368h-.264v-.768h.168c1.424 0 2.664-.376 3.72-1.128 1.056-.752 1.584-1.728 1.584-2.928s-.376-2.072-1.128-2.616c-.736-.544-1.712-.816-2.928-.816-.64 0-1.392.032-2.256.096V251h-1.104Zm19.567.24c-2.224 0-4.088-.776-5.592-2.328-1.504-1.552-2.256-3.448-2.256-5.688 0-2.256.752-4.16 2.256-5.712 1.504-1.552 3.368-2.328 5.592-2.328 2.224 0 4.088.776 5.592 2.328 1.504 1.552 2.256 3.456 2.256 5.712 0 2.24-.752 4.136-2.256 5.688-1.504 1.552-3.368 2.328-5.592 2.328Zm0-15.072c-1.92 0-3.52.68-4.8 2.04-1.264 1.36-1.896 3.032-1.896 5.016 0 1.968.632 3.632 1.896 4.992 1.28 1.344 2.88 2.016 4.8 2.016 1.936 0 3.536-.672 4.8-2.016 1.264-1.36 1.896-3.024 1.896-4.992 0-1.984-.632-3.656-1.896-5.016-1.264-1.36-2.864-2.04-4.8-2.04ZM570.978 251v-15.672h.528l10.224 11.76c.368.416.704.832 1.008 1.248.32.4.488.608.504.624-.032-.384-.048-1.136-.048-2.256v-11.28h1.104v15.672h-.528l-10.416-11.952-1.32-1.608c.032.32.048 1.072.048 2.256V251h-1.104Zm22.222-14.904c-.864 0-1.568.208-2.112.624-.544.416-.816 1-.816 1.752 0 .864.36 1.64 1.08 2.328.512.496 1.168 1.024 1.968 1.584.816.544 1.376.936 1.68 1.176.304.24.672.568 1.104.984.784.784 1.176 1.688 1.176 2.712 0 1.328-.448 2.336-1.344 3.024-.88.672-2.12 1.008-3.72 1.008-1.584 0-2.912-.416-3.984-1.248l.576-.84c1.088.736 2.24 1.104 3.456 1.104 1.216 0 2.16-.256 2.832-.768.688-.512 1.032-1.232 1.032-2.16 0-.8-.344-1.536-1.032-2.208-.48-.48-1.128-1-1.944-1.56-.8-.56-1.36-.96-1.68-1.2-.32-.256-.696-.592-1.128-1.008-.816-.816-1.224-1.76-1.224-2.832 0-1.072.376-1.912 1.128-2.52.768-.608 1.824-.912 3.168-.912s2.552.264 3.624.792l-.408.888c-.992-.48-2.136-.72-3.432-.72ZM601.705 251v-15.576h7.272v.96h-6.168v5.664h5.568v.936h-5.568v7.008h6.408V251h-7.512ZM821.412 385v-8.592h-11.784V385h-1.152v-17.16h1.152v7.536h11.784v-7.536h1.152V385h-1.152Zm7.958-5.4-2.232 5.4h-1.128l6.528-15.672h.648L839.762 385h-1.224l-2.256-5.4h-6.912Zm3.432-8.496c-.24.72-.456 1.32-.648 1.8l-2.4 5.76h6.144l-2.376-5.736a45.343 45.343 0 0 1-.72-1.824ZM842.922 385v-15.672h.528l10.224 11.76c.368.416.704.832 1.008 1.248.32.4.488.608.504.624-.032-.384-.048-1.136-.048-2.256v-11.28h1.104v15.672h-.528l-10.416-11.952-1.32-1.608c.032.32.048 1.072.048 2.256V385h-1.104Zm24.07-.816c2.048 0 3.688-.552 4.92-1.656 1.248-1.104 1.872-2.768 1.872-4.992s-.704-3.992-2.112-5.304c-1.392-1.312-3.112-1.968-5.16-1.968-1.456 0-2.576.032-3.36.096v13.656c.96.112 2.24.168 3.84.168Zm-.48-14.904c2.4 0 4.4.744 6 2.232 1.616 1.472 2.424 3.48 2.424 6.024s-.744 4.456-2.232 5.736c-1.472 1.28-3.376 1.92-5.712 1.92-1.616 0-3.28-.08-4.992-.24v-15.528a61.303 61.303 0 0 1 4.512-.144Zm13.23 15.72v-15.576h1.104v14.568h7.152V385h-8.256Zm11.532 0v-15.576h7.272v.96h-6.168v5.664h5.568v.936h-5.568v7.008h6.408V385h-7.512Zm-86.044 26v-17.088c1.52-.112 2.792-.168 3.816-.168 1.632 0 2.976.424 4.032 1.272 1.056.832 1.584 2.016 1.584 3.552 0 1.04-.304 2.008-.912 2.904-.608.896-1.288 1.608-2.04 2.136.592.816 1.32 1.792 2.184 2.928.88 1.12 1.448 1.824 1.704 2.112.976 1.04 2.08 1.632 3.312 1.776l-.024.768c-.976-.016-1.768-.16-2.376-.432-.608-.288-1.192-.72-1.752-1.296-.544-.576-1.912-2.368-4.104-5.376-1.568 0-2.992-.048-4.272-.144V411h-1.152Zm4.728-7.872c.704 0 1.456-.464 2.256-1.392.8-.928 1.2-2 1.2-3.216 0-1.232-.416-2.16-1.248-2.784-.816-.64-1.904-.96-3.264-.96-.72 0-1.56.032-2.52.096v8.136c1.28.08 2.472.12 3.576.12ZM820.739 411v-15.576h7.272v.96h-6.168v5.664h5.568v.936h-5.568v7.008h6.408V411h-7.512Zm18.817.24c-2.224 0-4.088-.776-5.592-2.328-1.504-1.552-2.256-3.448-2.256-5.688 0-2.256.752-4.16 2.256-5.712 1.504-1.552 3.368-2.328 5.592-2.328 2.224 0 4.08.776 5.568 2.328 1.504 1.552 2.256 3.448 2.256 5.688 0 1.328-.28 2.56-.84 3.696a7.751 7.751 0 0 1-2.304 2.808c3.808 2.256 6.736 3.616 8.784 4.08a12.93 12.93 0 0 0 3.048.384c.976 0 2.024-.112 3.144-.336 1.136-.224 1.944-.456 2.424-.696l.264.624c-.608.288-1.496.568-2.664.84-1.152.288-2.24.432-3.264.432-1.008 0-2.088-.136-3.24-.408-1.152-.256-2.352-.672-3.6-1.248a58.38 58.38 0 0 1-2.904-1.416 75.186 75.186 0 0 1-2.928-1.656 7.737 7.737 0 0 1-3.744.936Zm-.024-15.072c-1.92 0-3.512.68-4.776 2.04-1.264 1.36-1.896 3.032-1.896 5.016 0 1.968.632 3.632 1.896 4.992 1.264 1.344 2.864 2.016 4.8 2.016 1.008 0 1.92-.192 2.736-.576-1.808-1.216-3.216-1.824-4.224-1.824a3.7 3.7 0 0 0-1.584.336l-.36-.672a3.286 3.286 0 0 1 1.824-.528c.672 0 1.328.12 1.968.36.64.24 1.176.488 1.608.744a33.52 33.52 0 0 1 1.728 1.08 6.484 6.484 0 0 0 2.184-2.496c.544-1.056.816-2.208.816-3.456 0-1.968-.64-3.632-1.92-4.992-1.264-1.36-2.864-2.04-4.8-2.04Zm23.748 13.224c-1.056 1.232-2.664 1.848-4.824 1.848-2.16 0-3.768-.616-4.824-1.848-1.056-1.232-1.584-2.936-1.584-5.112v-8.856h1.104v8.856c0 3.984 1.768 5.976 5.304 5.976 3.536 0 5.304-1.992 5.304-5.976v-8.856h1.104v8.856c0 2.176-.528 3.88-1.584 5.112Zm7.193 1.608v-15.576h7.272v.96h-6.168v5.664h5.568v.936h-5.568v7.008h6.408V411h-7.512Zm15.074-14.904c-.864 0-1.568.208-2.112.624-.544.416-.816 1-.816 1.752 0 .864.36 1.64 1.08 2.328.512.496 1.168 1.024 1.968 1.584.816.544 1.376.936 1.68 1.176.304.24.672.568 1.104.984.784.784 1.176 1.688 1.176 2.712 0 1.328-.448 2.336-1.344 3.024-.88.672-2.12 1.008-3.72 1.008-1.584 0-2.912-.416-3.984-1.248l.576-.84c1.088.736 2.24 1.104 3.456 1.104 1.216 0 2.16-.256 2.832-.768.688-.512 1.032-1.232 1.032-2.16 0-.8-.344-1.536-1.032-2.208-.48-.48-1.128-1-1.944-1.56-.8-.56-1.36-.96-1.68-1.2-.32-.256-.696-.592-1.128-1.008-.816-.816-1.224-1.76-1.224-2.832 0-1.072.376-1.912 1.128-2.52.768-.608 1.824-.912 3.168-.912s2.552.264 3.624.792l-.408.888c-.992-.48-2.136-.72-3.432-.72Zm11.288.312h-5.28v-.984h11.64v.984h-5.28V411h-1.08v-14.592Z"/></svg>
