<svg xmlns="http://www.w3.org/2000/svg" fill="none" viewBox="0 0 1280 527"><path fill="#21C9C9" d="M130.48 215.67c59.556 0 107.835-48.28 107.835-107.835C238.315 48.279 190.036 0 130.48 0 70.925 0 22.645 48.28 22.645 107.835c0 59.555 48.28 107.835 107.835 107.835Z"/><path fill="#fff" d="M61.423 76.915v80.46c0 .641.513 1.11 1.11 1.11h135.851c.641 0 1.111-.512 1.111-1.11v-80.46H61.423Z"/><path fill="#D4D4D4" d="M199.537 77.897V64.188a7.053 7.053 0 0 0-7.046-7.046H68.47a7.054 7.054 0 0 0-7.047 7.047v13.708h138.114Z"/><path fill="#fff" d="M143.378 72.559H75.645a4.976 4.976 0 0 1-4.997-4.997 4.976 4.976 0 0 1 4.997-4.996h67.733a4.975 4.975 0 0 1 4.996 4.996c0 2.734-2.22 4.997-4.996 4.997Z"/><path fill="#85C33D" d="M185.23 72.73a5.083 5.083 0 1 0 0-10.166 5.083 5.083 0 0 0 0 10.166Z"/><path fill="#E96E4C" d="M170.454 72.73a5.082 5.082 0 1 0 0-10.164 5.082 5.082 0 0 0 0 10.164Z"/><path fill="#324A5E" d="M76.029 69.399h-1.025l-1.196-3.502h1.025l.683 2.092.684-2.092h.94l.683 2.092.683-2.092h1.025l-1.196 3.502H77.31l-.64-1.922-.641 1.922ZM81.88 69.399h-1.025l-1.196-3.502h1.025l.683 2.092.684-2.092h.94l.683 2.092.683-2.092h1.025l-1.196 3.502H83.16l-.64-1.922-.641 1.922ZM87.73 69.399h-1.024l-1.196-3.502h1.025l.683 2.092.683-2.092h.94l.683 2.092.684-2.092h1.025l-1.196 3.502h-1.025l-.64-1.922-.641 1.922Z"/><rect width="648.088" height="107.835" x="272.822" y="53.917" fill="#C4C4C4" opacity=".5" rx="20"/><path fill="#fff" d="M312.081 93.278c1.12 0 1.68 1.952 1.68 5.856l.288 7.488h.096l7.68-2.976c.768-6.528 1.472-9.792 2.112-9.792l.624-.096c.544 0 1.04.432 1.488 1.296-1.12 5.504-1.68 10.272-1.68 14.304v2.064c0 2.944.704 5.744 2.112 8.4-.32.896-.832 1.344-1.536 1.344-1.536 0-2.672-3.104-3.408-9.312v-4.896h-.288c-4.8 1.696-7.2 2.784-7.2 3.264 0 7.616-.704 11.424-2.112 11.424h-.192c-.672 0-1.104-.56-1.296-1.68.48-3.488.72-6.192.72-8.112l-2.112 1.104-.432.096c-.8-.288-1.2-.784-1.2-1.488s1.248-1.808 3.744-3.312v-.096c-.096-5.504-.304-10.064-.624-13.68 0-.704.512-1.104 1.536-1.2Zm20.73 9.504c1.28.032 3.44 2.272 6.48 6.72l.096.816c0 .896-2.192 1.584-6.576 2.064l-.144.144v.192c.672 2.88 1.376 4.32 2.112 4.32h.576c1.024 0 2.576-1.104 4.656-3.312h.288c.64 0 1.136.464 1.488 1.392 0 .768-1.344 2.096-4.032 3.984-.704.416-1.552.72-2.544.912-2.592 0-4.4-2.432-5.424-7.296-1.472-.224-2.208-.832-2.208-1.824 0-.704.544-1.168 1.632-1.392v.192l.48-.192v-1.2c0-3.68 1.04-5.52 3.12-5.52Zm.288 3.456h-.432l-.192 1.776v1.488h.192c1.792-.064 2.688-.256 2.688-.576-.832-1.248-1.584-2.144-2.256-2.688Zm13.269-12.672c.896.32 1.344.816 1.344 1.488l.48 18.288v5.904c0 1.088-.464 1.632-1.392 1.632h-.624c-.576-.384-.864-.832-.864-1.344v-5.568l-.432-19.008c0-.8.496-1.264 1.488-1.392Zm8.016 0c.896.32 1.344.816 1.344 1.488l.48 18.288v5.904c0 1.088-.464 1.632-1.392 1.632h-.624c-.576-.384-.864-.832-.864-1.344v-5.568l-.432-19.008c0-.8.496-1.264 1.488-1.392Zm12.959 8.352c2.368 0 4.16 1.76 5.376 5.28l.192 1.008c0 3.424-1.6 6.928-4.8 10.512-1.28 1.184-2.576 1.776-3.888 1.776-1.92 0-3.28-1.104-4.08-3.312-.288-1.024-.432-1.92-.432-2.688v-.576c0-5.056 1.84-8.896 5.52-11.52.64-.32 1.344-.48 2.112-.48Zm-4.8 12.48c0 2.176.56 3.264 1.68 3.264 2.336 0 4.272-2.992 5.808-8.976v-.912c-.544-1.984-1.552-2.976-3.024-2.976-.576 0-.864.4-.864 1.2 0 .544-.64.976-1.92 1.296-1.12 1.888-1.68 4.256-1.68 7.104Zm18.063-3.12c1.664.736 2.656 2.992 2.976 6.768 0 3.488-1.36 6.688-4.08 9.6l-.576.288c-.992-.32-1.488-.816-1.488-1.488l1.968-3.168c.8-1.632 1.2-3.28 1.2-4.944v-1.776c0-.8-.496-2-1.488-3.6v-.192c.224-.992.72-1.488 1.488-1.488Zm29.188-7.536 1.968-.288c.8 0 1.248.496 1.344 1.488 0 .864-1.04 1.424-3.12 1.68-1.312 1.024-1.968 2.336-1.968 3.936v1.584c.64 3.52 1.728 5.28 3.264 5.28h.48c.896 0 2.24-.848 4.032-2.544h.288c.64 0 1.152.448 1.536 1.344-.448 1.376-1.888 2.624-4.32 3.744-.448.192-1.008.288-1.68.288-3.296 0-5.44-2.592-6.432-7.776v-1.056c0-3.744 1.536-6.304 4.608-7.68Zm19.22-2.256c1.408 0 2.112.56 2.112 1.68l-.432.912-.288 8.784c0 3.968.8 6.432 2.4 7.392l.096.72c-.096.928-.528 1.392-1.296 1.392h-.288c-2.4-1.632-3.6-4.128-3.6-7.488h-.336c-1.28 3.584-2.832 5.376-4.656 5.376-1.696-.48-2.544-1.744-2.544-3.792 0-4.512 1.808-9.008 5.424-13.488 1.216-.992 2.352-1.488 3.408-1.488Zm-5.808 13.056-.192 1.344v.912h.48c2.4-5.984 3.6-9.632 3.6-10.944h-.192c-1.856 2.08-3.088 4.976-3.696 8.688Zm17.088-10.704c2.72.224 4.08 1.552 4.08 3.984l.096.624-.096 7.488c0 .864.496 2.032 1.488 3.504v.096c-.256.928-.72 1.392-1.392 1.392-1.984-.832-2.976-2.592-2.976-5.28v-.624l-.144-.096.144-.192v-.096l.144-6.624c0-.928-.4-1.392-1.2-1.392h-.576c-1.6.64-2.4 4.144-2.4 10.512 0 2.208-.56 3.312-1.68 3.312-.864 0-1.312-.544-1.344-1.632v-4.8c0-6.208.544-9.312 1.632-9.312l.48-.144 1.008.144c.864-.576 1.776-.864 2.736-.864Zm26.702 1.776c1.12 0 1.888 2.464 2.304 7.392.544 2.272.944 3.408 1.2 3.408h.288c.8-2.016 1.2-4.016 1.2-6l-.288-3.312c.352-.864.848-1.296 1.488-1.296 1.184 0 1.776 2.096 1.776 6.288.704 4.352 1.056 8.4 1.056 12.144v2.256c0 6.88-1.952 11.52-5.856 13.92l-1.056.192c-1.824 0-3.52-1.696-5.088-5.088l-.432-2.88v-.144c0-2.112.592-3.168 1.776-3.168l1.2.768-.144 3.024c0 1.472.752 2.96 2.256 4.464h.624c1.76 0 3.056-3.36 3.888-10.08l.096-2.784c-.032-3.232-.16-5.296-.384-6.192-1.28 1.12-2.288 1.68-3.024 1.68-1.632 0-3.088-4.368-4.368-13.104l-.144-.096c0-.736.544-1.2 1.632-1.392Zm18.847-3.696c2.368 0 4.16 1.76 5.376 5.28l.192 1.008c0 3.424-1.6 6.928-4.8 10.512-1.28 1.184-2.576 1.776-3.888 1.776-1.92 0-3.28-1.104-4.08-3.312-.288-1.024-.432-1.92-.432-2.688v-.576c0-5.056 1.84-8.896 5.52-11.52.64-.32 1.344-.48 2.112-.48Zm-4.8 12.48c0 2.176.56 3.264 1.68 3.264 2.336 0 4.272-2.992 5.808-8.976v-.912c-.544-1.984-1.552-2.976-3.024-2.976-.576 0-.864.4-.864 1.2 0 .544-.64.976-1.92 1.296-1.12 1.888-1.68 4.256-1.68 7.104Zm14.415-8.832.864-.48c.768 0 1.328.464 1.68 1.392a34.426 34.426 0 0 0-.768 7.296c0 1.248.368 2.608 1.104 4.08h.288c.928 0 2.032-3.664 3.312-10.992.448-.384.88-.576 1.296-.576.992 0 1.488 1.76 1.488 5.28.416 3.872.88 5.808 1.392 5.808l.72-.288c.928.352 1.392.848 1.392 1.488-.576 1.216-1.376 1.824-2.4 1.824-1.152 0-2.256-1.152-3.312-3.456-1.28 2.688-2.576 4.032-3.888 4.032-1.952 0-3.312-2.032-4.08-6.096l-.144-1.536v-.48c0-2.56.352-4.992 1.056-7.296Zm41.525-4.992c.864 0 1.456 1.456 1.776 4.368-.32.8-.848 1.2-1.584 1.2-.512-.096-1.024-.688-1.536-1.776l-.864-.288c-1.504 0-2.864.992-4.08 2.976v.432c0 .48 2.256 1.28 6.768 2.4 1.888 1.12 2.832 2.48 2.832 4.08 0 2.624-2.112 4.864-6.336 6.72l-1.776.288c-2.688-.288-4.032-1.632-4.032-4.032v-.144c0-.768.496-1.216 1.488-1.344.768 0 1.28.8 1.536 2.4l.384.288h.816c1.824 0 3.52-1.248 5.088-3.744v-.624c0-.96-2.096-1.856-6.288-2.688-2.208-.896-3.312-2.144-3.312-3.744 0-2.08 1.744-4.032 5.232-5.856 1.536-.192 2.832-.496 3.888-.912Zm9.391 2.208c1.28.032 3.44 2.272 6.48 6.72l.096.816c0 .896-2.192 1.584-6.576 2.064l-.144.144v.192c.672 2.88 1.376 4.32 2.112 4.32h.576c1.024 0 2.576-1.104 4.656-3.312h.288c.64 0 1.136.464 1.488 1.392 0 .768-1.344 2.096-4.032 3.984-.704.416-1.552.72-2.544.912-2.592 0-4.4-2.432-5.424-7.296-1.472-.224-2.208-.832-2.208-1.824 0-.704.544-1.168 1.632-1.392v.192l.48-.192v-1.2c0-3.68 1.04-5.52 3.12-5.52Zm.288 3.456h-.432l-.192 1.776v1.488h.192c1.792-.064 2.688-.256 2.688-.576-.832-1.248-1.584-2.144-2.256-2.688Zm16.773-2.4c2.72.224 4.08 1.552 4.08 3.984l.096.624-.096 7.488c0 .864.496 2.032 1.488 3.504v.096c-.256.928-.72 1.392-1.392 1.392-1.984-.832-2.976-2.592-2.976-5.28v-.624l-.144-.096.144-.192v-.096l.144-6.624c0-.928-.4-1.392-1.2-1.392h-.576c-1.6.64-2.4 4.144-2.4 10.512 0 2.208-.56 3.312-1.68 3.312-.864 0-1.312-.544-1.344-1.632v-4.8c0-6.208.544-9.312 1.632-9.312l.48-.144 1.008.144c.864-.576 1.776-.864 2.736-.864Zm18.352-10.176c.544 0 1.04.512 1.488 1.536l-2.112 13.344v3.744c0 3.904.608 5.856 1.824 5.856.8.384 1.2.896 1.2 1.536 0 .736-.64 1.168-1.92 1.296-1.408 0-2.512-1.296-3.312-3.888h-.48c-1.184 2.592-2.624 3.888-4.32 3.888-1.984 0-3.184-1.504-3.6-4.512 0-3.488 2.336-7.184 7.008-11.088.928 0 1.392-1.296 1.392-3.888.704-5.216 1.648-7.824 2.832-7.824Zm-8.4 22.416v1.296l.768.768h.288c1.024 0 2.224-3.088 3.6-9.264h-.288c-2.912 2.912-4.368 5.312-4.368 7.2Zm31.357-12.864c.224-.8.736-1.2 1.536-1.2s1.328.8 1.584 2.4h.192l2.208-.48c1.024 0 2.016.96 2.976 2.88h.192c1.408-2.208 2.848-3.312 4.32-3.312 3.136.576 4.704 2.624 4.704 6.144l.096 1.68-.432 9.696v.912c0 .8-.496 1.264-1.488 1.392-.992 0-1.488-1.168-1.488-3.504l.576-8.688c0-3.2-.752-4.8-2.256-4.8-.864 0-1.904 2.096-3.12 6.288-.608 4.8-1.104 7.2-1.488 7.2-.544 0-.816.112-.816.336-.992-.128-1.488-.64-1.488-1.536l.624-5.808c-.096-4-.496-6-1.2-6h-.144c-.8.608-1.2 1.808-1.2 3.6v2.544l-.192 7.344c-.224.8-.72 1.2-1.488 1.2-.672 0-1.104-.56-1.296-1.68l-.192-5.664.288-4.656c-.192-2.4-.528-4.496-1.008-6.288Zm24.786-.432c1.28.032 3.44 2.272 6.48 6.72l.096.816c0 .896-2.192 1.584-6.576 2.064l-.144.144v.192c.672 2.88 1.376 4.32 2.112 4.32h.576c1.024 0 2.576-1.104 4.656-3.312h.288c.64 0 1.136.464 1.488 1.392 0 .768-1.344 2.096-4.032 3.984-.704.416-1.552.72-2.544.912-2.592 0-4.4-2.432-5.424-7.296-1.472-.224-2.208-.832-2.208-1.824 0-.704.544-1.168 1.632-1.392v.192l.48-.192v-1.2c0-3.68 1.04-5.52 3.12-5.52Zm.288 3.456h-.432l-.192 1.776v1.488h.192c1.792-.064 2.688-.256 2.688-.576-.832-1.248-1.584-2.144-2.256-2.688Zm34.963-5.136c2.016 0 3.216 1.408 3.6 4.224v.432c0 3.104-1.6 5.952-4.8 8.544 1.856 1.824 5.104 2.736 9.744 2.736.704.224 1.056.72 1.056 1.488 0 .864-.56 1.296-1.68 1.296-3.136 0-6.432-.8-9.888-2.4v1.392c0 3.296-.704 4.944-2.112 4.944-.992 0-1.488-1.904-1.488-5.712v-3.744l-.144-1.344.336-1.536-.336-4.608v-.192c0-.864.448-1.456 1.344-1.776 1.248-2.496 2.704-3.744 4.368-3.744Zm-2.4 10.512c.928 0 1.968-1.664 3.12-4.992v-2.064l-.576-.624h-.432c-1.408.96-2.112 3.52-2.112 7.68Zm22.571-10.128c1.408 0 2.112.56 2.112 1.68l-.432.912-.288 8.784c0 3.968.8 6.432 2.4 7.392l.096.72c-.096.928-.528 1.392-1.296 1.392h-.288c-2.4-1.632-3.6-4.128-3.6-7.488h-.336c-1.28 3.584-2.832 5.376-4.656 5.376-1.696-.48-2.544-1.744-2.544-3.792 0-4.512 1.808-9.008 5.424-13.488 1.216-.992 2.352-1.488 3.408-1.488Zm-5.808 13.056-.192 1.344v.912h.48c2.4-5.984 3.6-9.632 3.6-10.944h-.192c-1.856 2.08-3.088 4.976-3.696 8.688Zm11.423-19.536c1.216.256 1.824.8 1.824 1.632-.32.896-.832 1.344-1.536 1.344-1.184-.224-1.776-.816-1.776-1.776.32-.8.816-1.2 1.488-1.2Zm1.824 6.72c.512 0 .944.464 1.296 1.392l-.432 3.408v2.256c0 2.624.448 6.064 1.344 10.32-.32.608-.864.912-1.632.912-1.312 0-2.176-3.84-2.592-11.52v-1.68c0-3.392.672-5.088 2.016-5.088Zm10.919 2.112c2.72.224 4.08 1.552 4.08 3.984l.096.624-.096 7.488c0 .864.496 2.032 1.488 3.504v.096c-.256.928-.72 1.392-1.392 1.392-1.984-.832-2.976-2.592-2.976-5.28v-.624l-.144-.096.144-.192v-.096l.144-6.624c0-.928-.4-1.392-1.2-1.392h-.576c-1.6.64-2.4 4.144-2.4 10.512 0 2.208-.56 3.312-1.68 3.312-.864 0-1.312-.544-1.344-1.632v-4.8c0-6.208.544-9.312 1.632-9.312l.48-.144 1.008.144c.864-.576 1.776-.864 2.736-.864Zm7.456-6.624c1.664 0 2.736 3.264 3.216 9.792l.288 1.488c1.472-3.008 2.672-4.512 3.6-4.512 0-.128.336-.224 1.008-.288h.192c2.112 0 3.456 1.648 4.032 4.944v.144c0 2.816-1.408 5.92-4.224 9.312-1.184 1.28-2.48 1.92-3.888 1.92-1.6-.352-2.4-1.152-2.4-2.4l-2.4-17.232-.72-1.776c0-.576.432-1.04 1.296-1.392Zm4.992 19.488h.144c1.664-.672 3.12-2.96 4.368-6.864v-1.824c-.288-.992-.656-1.488-1.104-1.488h-.384c-1.408.832-2.416 4.224-3.024 10.176Zm17.445-14.784c2.368 0 4.16 1.76 5.376 5.28l.192 1.008c0 3.424-1.6 6.928-4.8 10.512-1.28 1.184-2.576 1.776-3.888 1.776-1.92 0-3.28-1.104-4.08-3.312-.288-1.024-.432-1.92-.432-2.688v-.576c0-5.056 1.84-8.896 5.52-11.52.64-.32 1.344-.48 2.112-.48Zm-4.8 12.48c0 2.176.56 3.264 1.68 3.264 2.336 0 4.272-2.992 5.808-8.976v-.912c-.544-1.984-1.552-2.976-3.024-2.976-.576 0-.864.4-.864 1.2 0 .544-.64.976-1.92 1.296-1.12 1.888-1.68 4.256-1.68 7.104Zm26.079-9.456c2.208 1.472 3.312 3.744 3.312 6.816 0 4.16-1.392 6.992-4.176 8.496l-1.824.288c-1.088 0-2.24-.528-3.456-1.584h-.336c-.992 1.28-1.92 1.92-2.784 1.92-2.272 0-3.584-2.144-3.936-6.432v-2.592c.224-4.064 1.072-6.096 2.544-6.096.8 0 1.264.496 1.392 1.488-.736 1.28-1.104 3.072-1.104 5.376v.912c.128 2.88.432 4.32.912 4.32.48 0 .976-.832 1.488-2.496l-.096-3.312c0-2.208.528-3.312 1.584-3.312 1.216 0 1.824 1.2 1.824 3.6h.192l-.48 3.024c.544 1.6 1.296 2.4 2.256 2.4h.288c1.408 0 2.32-1.504 2.736-4.512v-2.688c0-1.024-.608-2.288-1.824-3.792l-.192-.432c0-.672.56-1.136 1.68-1.392Zm9.522 12.24c.672 0 1.072.544 1.2 1.632-.192 1.12-.752 1.68-1.68 1.68-.64 0-1.088-.56-1.344-1.68.384-1.088.992-1.632 1.824-1.632Zm6.847-23.664c.896 0 1.344 1.088 1.344 3.264l.576 8.256h.192l2.4-.912c2.688 0 4.32 2.752 4.896 8.256.224 1.568.336 3.872.336 6.912v3.888c0 1.216-.448 1.824-1.344 1.824h-.192c-.864-.128-1.296-.592-1.296-1.392v-4.512c0-7.232-.704-11.232-2.112-12h-.288c-.96 0-1.664 1.472-2.112 4.416v2.688c0 4.8-.4 7.2-1.2 7.2l-.912.096c-.896 0-1.344-1.328-1.344-3.984.096-2.816.288-5.12.576-6.912l-1.008-15.792c0-.832.496-1.264 1.488-1.296Zm17.664-2.64c.896.192 1.344.64 1.344 1.344l-.288 2.112v.624c0 1.408.16 2.896.48 4.464h.096c3.712-1.12 6.016-1.68 6.912-1.68.928.256 1.392.72 1.392 1.392 0 1.088-1.104 1.632-3.312 1.632l-4.992 1.776c0 4.32.464 10.192 1.392 17.616-.192.864-.656 1.296-1.392 1.296h-.096c-1.12 0-1.68-1.44-1.68-4.32-.416-2.144-.768-6.8-1.056-13.968h-.864c-3.008-.192-4.512-.896-4.512-2.112 0-.352.336-.784 1.008-1.296h.48l2.208.576h1.536l-.432-6c0-2.304.592-3.456 1.776-3.456Zm12.166 12.336c.224-.8.736-1.2 1.536-1.2s1.328.8 1.584 2.4h.192l2.208-.48c1.024 0 2.016.96 2.976 2.88h.192c1.408-2.208 2.848-3.312 4.32-3.312 3.136.576 4.704 2.624 4.704 6.144l.096 1.68-.432 9.696v.912c0 .8-.496 1.264-1.488 1.392-.992 0-1.488-1.168-1.488-3.504l.576-8.688c0-3.2-.752-4.8-2.256-4.8-.864 0-1.904 2.096-3.12 6.288-.608 4.8-1.104 7.2-1.488 7.2-.544 0-.816.112-.816.336-.992-.128-1.488-.64-1.488-1.536l.624-5.808c-.096-4-.496-6-1.2-6h-.144c-.8.608-1.2 1.808-1.2 3.6v2.544l-.192 7.344c-.224.8-.72 1.2-1.488 1.2-.672 0-1.104-.56-1.296-1.68l-.192-5.664.288-4.656c-.192-2.4-.528-4.496-1.008-6.288Zm23.203-9.648c.896.32 1.344.816 1.344 1.488l.48 18.288v5.904c0 1.088-.464 1.632-1.392 1.632h-.624c-.576-.384-.864-.832-.864-1.344v-5.568l-.432-19.008c0-.8.496-1.264 1.488-1.392Zm14.975-7.824c2.912.48 4.368 1.92 4.368 4.32 0 3.264-2.096 7.232-6.288 11.904.544 1.44 1.184 5.344 1.92 11.712.32.32.48.72.48 1.2h.144c0 .832-.608 1.328-1.824 1.488-1.28 0-2.176-3.808-2.688-11.424-.352-1.6-.848-2.4-1.488-2.4-.704-.704-1.056-1.36-1.056-1.968.224-.8.736-1.2 1.536-1.2l1.2.288c3.456-3.584 5.184-6.88 5.184-9.888-.192-.576-.528-.976-1.008-1.2h-.576c-2.08 0-4.048 2.064-5.904 6.192 0 2.08-.4 3.12-1.2 3.12l-.096.192h-.192c-.896 0-1.344-.768-1.344-2.304v-.096c0-2.848 1.712-5.712 5.136-8.592 1.184-.896 2.416-1.344 3.696-1.344Zm1.2 34.32c1.408.64 2.112 1.504 2.112 2.592-.32.8-.816 1.2-1.488 1.2-1.504-.864-2.256-1.664-2.256-2.4 0-.704.544-1.168 1.632-1.392ZM507.622 30.892c-1.248-2.784-1.872-5.952-1.872-9.504 0-3.552.624-6.72 1.872-9.504 1.248-2.784 2.844-4.968 4.788-6.552l.936 1.008c-1.632 1.536-3 3.66-4.104 6.372-1.08 2.688-1.62 5.58-1.62 8.676s.54 6 1.62 8.712c1.104 2.688 2.472 4.8 4.104 6.336l-.936 1.008c-1.944-1.584-3.54-3.768-4.788-6.552Zm11.207.108V5.368c2.28-.168 4.188-.252 5.724-.252 2.448 0 4.464.636 6.048 1.908 1.584 1.248 2.376 3.024 2.376 5.328 0 1.56-.456 3.012-1.368 4.356-.912 1.344-1.932 2.412-3.06 3.204.888 1.224 1.98 2.688 3.276 4.392 1.32 1.68 2.172 2.736 2.556 3.168 1.464 1.56 3.12 2.448 4.968 2.664l-.036 1.152c-1.464-.024-2.652-.24-3.564-.648-.912-.432-1.788-1.08-2.628-1.944-.816-.864-2.868-3.552-6.156-8.064-2.352 0-4.488-.072-6.408-.216V31h-1.728Zm7.092-11.808c1.056 0 2.184-.696 3.384-2.088 1.2-1.392 1.8-3 1.8-4.824 0-1.848-.624-3.24-1.872-4.176-1.224-.96-2.856-1.44-4.896-1.44-1.08 0-2.34.048-3.78.144v12.204c1.92.12 3.708.18 5.364.18ZM542.092 31V7.636H553v1.44h-9.252v8.496h8.352v1.404h-8.352v10.512h9.612V31h-11.268Zm28.227.36c-3.336 0-6.132-1.164-8.388-3.492-2.256-2.328-3.384-5.172-3.384-8.532 0-3.384 1.128-6.24 3.384-8.568 2.256-2.328 5.052-3.492 8.388-3.492 3.336 0 6.12 1.164 8.352 3.492 2.256 2.328 3.384 5.172 3.384 8.532 0 1.992-.42 3.84-1.26 5.544-.84 1.704-1.992 3.108-3.456 4.212 5.712 3.384 10.104 5.424 13.176 6.12 1.584.384 3.108.576 4.572.576s3.036-.168 4.716-.504c1.704-.336 2.916-.684 3.636-1.044l.396.936c-.912.432-2.244.852-3.996 1.26-1.728.432-3.36.648-4.896.648-1.512 0-3.132-.204-4.86-.612-1.728-.384-3.528-1.008-5.4-1.872-1.872-.864-3.324-1.572-4.356-2.124-1.008-.528-2.472-1.356-4.392-2.484-1.728.936-3.6 1.404-5.616 1.404Zm-.036-22.608c-2.88 0-5.268 1.02-7.164 3.06s-2.844 4.548-2.844 7.524c0 2.952.948 5.448 2.844 7.488 1.896 2.016 4.296 3.024 7.2 3.024 1.512 0 2.88-.288 4.104-.864-2.712-1.824-4.824-2.736-6.336-2.736-.864 0-1.656.168-2.376.504l-.54-1.008a4.929 4.929 0 0 1 2.736-.792c1.008 0 1.992.18 2.952.54.96.36 1.764.732 2.412 1.116.672.384 1.536.924 2.592 1.62 1.392-.936 2.484-2.184 3.276-3.744.816-1.584 1.224-3.312 1.224-5.184 0-2.952-.96-5.448-2.88-7.488-1.896-2.04-4.296-3.06-7.2-3.06Zm35.621 19.836c-1.584 1.848-3.996 2.772-7.236 2.772-3.24 0-5.652-.924-7.236-2.772-1.584-1.848-2.376-4.404-2.376-7.668V7.636h1.656V20.92c0 5.976 2.652 8.964 7.956 8.964s7.956-2.988 7.956-8.964V7.636h1.656V20.92c0 3.264-.792 5.82-2.376 7.668ZM616.694 31V7.636h10.908v1.44h-9.252v8.496h8.352v1.404h-8.352v10.512h9.612V31h-11.268Zm22.61-22.356c-1.296 0-2.352.312-3.168.936-.816.624-1.224 1.5-1.224 2.628 0 1.296.54 2.46 1.62 3.492.768.744 1.752 1.536 2.952 2.376 1.224.816 2.064 1.404 2.52 1.764.456.36 1.008.852 1.656 1.476 1.176 1.176 1.764 2.532 1.764 4.068 0 1.992-.672 3.504-2.016 4.536-1.32 1.008-3.18 1.512-5.58 1.512-2.376 0-4.368-.624-5.976-1.872l.864-1.26c1.632 1.104 3.36 1.656 5.184 1.656 1.824 0 3.24-.384 4.248-1.152 1.032-.768 1.548-1.848 1.548-3.24 0-1.2-.516-2.304-1.548-3.312-.72-.72-1.692-1.5-2.916-2.34-1.2-.84-2.04-1.44-2.52-1.8a25.397 25.397 0 0 1-1.692-1.512c-1.224-1.224-1.836-2.64-1.836-4.248s.564-2.868 1.692-3.78c1.152-.912 2.736-1.368 4.752-1.368 2.016 0 3.828.396 5.436 1.188l-.612 1.332c-1.488-.72-3.204-1.08-5.148-1.08Zm16.933.468h-7.92V7.636h17.46v1.476h-7.92V31h-1.62V9.112Zm16.546 2.772c1.248 2.784 1.872 5.952 1.872 9.504 0 3.552-.624 6.72-1.872 9.504-1.248 2.784-2.844 4.968-4.788 6.552l-.936-1.008c1.632-1.536 2.988-3.648 4.068-6.336 1.104-2.712 1.656-5.616 1.656-8.712s-.552-5.988-1.656-8.676c-1.08-2.712-2.436-4.836-4.068-6.372l.936-1.008c1.944 1.584 3.54 3.768 4.788 6.552Z"/><path fill="#FFDB01" d="M1172.17 438.888c59.55 0 107.83-48.279 107.83-107.835 0-59.555-48.28-107.835-107.83-107.835-59.56 0-107.84 48.28-107.84 107.835 0 59.556 48.28 107.835 107.84 107.835Z"/><path fill="#7F8C8D" d="M1164.34 384.083h-22.44c-1.12 0-2.04.913-2.04 2.04 0 1.126.92 2.039 2.04 2.039h22.44c1.12 0 2.04-.913 2.04-2.039 0-1.127-.92-2.04-2.04-2.04ZM1231.65 384.083h-12.24c-1.13 0-2.04.913-2.04 2.04 0 1.126.91 2.039 2.04 2.039h12.24c1.12 0 2.03-.913 2.03-2.039 0-1.127-.91-2.04-2.03-2.04ZM1203.09 384.083h-22.44c-1.12 0-2.03.913-2.03 2.04 0 1.126.91 2.039 2.03 2.039h22.44c1.13 0 2.04-.913 2.04-2.039 0-1.127-.91-2.04-2.04-2.04ZM1125.58 384.083h-12.23c-1.13 0-2.04.913-2.04 2.04 0 1.126.91 2.039 2.04 2.039h12.23c1.13 0 2.04-.913 2.04-2.039 0-1.127-.91-2.04-2.04-2.04ZM1172.5 363.687c-1.13 0-2.04.913-2.04 2.039v16.318c0 1.126.91 2.039 2.04 2.039 1.12 0 2.04-.913 2.04-2.039v-16.318c0-1.126-.92-2.039-2.04-2.039ZM1211.25 353.489c-1.13 0-2.04.913-2.04 2.04v26.515c0 1.126.91 2.039 2.04 2.039s2.04-.913 2.04-2.039v-26.515c0-1.127-.91-2.04-2.04-2.04ZM1133.74 353.489c-1.12 0-2.04.913-2.04 2.04v26.515c0 1.126.92 2.039 2.04 2.039 1.13 0 2.04-.913 2.04-2.039v-26.515c0-1.127-.91-2.04-2.04-2.04Z"/><path fill="#BDC3C7" d="M1127.62 382.044h12.24c1.13 0 2.04.913 2.04 2.039v4.079c0 1.127-.91 2.04-2.04 2.04h-12.24c-1.12 0-2.03-.913-2.03-2.04v-4.079a2.029 2.029 0 0 1 2.03-2.039ZM1205.13 382.043h12.24c1.12 0 2.04.914 2.04 2.04v4.079c0 1.127-.92 2.04-2.04 2.04h-12.24c-1.13 0-2.04-.913-2.04-2.04v-4.079c0-1.126.91-2.04 2.04-2.04ZM1166.38 382.043h12.24c1.12 0 2.03.914 2.03 2.04v4.079c0 1.127-.91 2.04-2.03 2.04h-12.24c-1.13 0-2.04-.913-2.04-2.04v-4.079c0-1.126.91-2.04 2.04-2.04Z"/><path fill="#2C3E50" d="M1117.43 282.102h34.67v73.427h-34.67a4.089 4.089 0 0 1-4.08-4.08v-65.268c0-2.25 1.83-4.072 4.08-4.079Z"/><path fill="#35495E" d="M1113.35 286.181v16.318h38.75v-20.397h-34.67a4.088 4.088 0 0 0-4.08 4.079Z"/><path fill="#547580" d="M1139.86 312.697h-12.24c-1.12 0-2.03-.914-2.03-2.04 0-1.127.91-2.04 2.03-2.04h12.24c1.13 0 2.04.914 2.04 2.04s-.91 2.04-2.04 2.04ZM1127.62 316.776h12.24c1.13 0 2.04.913 2.04 2.039 0 1.127-.91 2.04-2.04 2.04h-12.24c-1.12 0-2.03-.913-2.03-2.04 0-1.126.91-2.039 2.03-2.039Z"/><path fill="#4C8056" d="M1133.74 343.291a6.12 6.12 0 1 0 0-12.24 6.12 6.12 0 0 0 0 12.24Z"/><path fill="#2C3E50" d="M1135.78 290.261h-14.27c-1.13 0-2.04.913-2.04 2.039 0 1.126.91 2.04 2.04 2.04h14.27c1.13 0 2.04-.914 2.04-2.04s-.91-2.039-2.04-2.039ZM1145.98 290.261h-2.04c-1.12 0-2.04.913-2.04 2.039 0 1.126.92 2.04 2.04 2.04h2.04c1.13 0 2.04-.914 2.04-2.04s-.91-2.039-2.04-2.039ZM1227.57 282.102h-34.68v73.427h34.68a4.095 4.095 0 0 0 4.08-4.08v-65.267a4.095 4.095 0 0 0-4.08-4.08Z"/><path fill="#35495E" d="M1231.65 286.181v16.318h-38.76v-20.397h34.68a4.094 4.094 0 0 1 4.08 4.079Z"/><path fill="#547580" d="M1205.13 312.697h12.24c1.12 0 2.04-.914 2.04-2.04 0-1.127-.92-2.04-2.04-2.04h-12.24c-1.13 0-2.04.914-2.04 2.04s.91 2.04 2.04 2.04ZM1217.37 316.776h-12.24c-1.13 0-2.04.913-2.04 2.039 0 1.127.91 2.04 2.04 2.04h12.24c1.12 0 2.04-.913 2.04-2.04 0-1.126-.92-2.039-2.04-2.039Z"/><path fill="#4C8056" d="M1211.25 343.291a6.12 6.12 0 1 0 0-12.24 6.12 6.12 0 0 0 0 12.24Z"/><path fill="#2C3E50" d="M1213.29 290.261h-14.28c-1.12 0-2.04.913-2.04 2.039 0 1.126.92 2.04 2.04 2.04h14.28c1.13 0 2.04-.914 2.04-2.04s-.91-2.039-2.04-2.039ZM1223.49 290.261h-2.04c-1.13 0-2.04.913-2.04 2.039 0 1.126.91 2.04 2.04 2.04h2.04c1.12 0 2.04-.914 2.04-2.04s-.92-2.039-2.04-2.039Z"/><path fill="#3F5C6C" d="M1148.02 302.498v59.149a4.095 4.095 0 0 0 4.08 4.08h40.79a4.088 4.088 0 0 0 4.08-4.08v-85.664c0-2.25-1.83-4.072-4.08-4.079h-40.79a4.094 4.094 0 0 0-4.08 4.079v6.119"/><path fill="#547580" d="M1196.97 275.983v20.396h-48.95v-20.396a4.094 4.094 0 0 1 4.08-4.079h40.79a4.088 4.088 0 0 1 4.08 4.079Z"/><path fill="#71C285" d="M1172.5 353.489a6.12 6.12 0 1 0 0-12.238 6.12 6.12 0 1 0 0 12.238Z"/><path fill="#3F5C6C" d="M1178.62 282.102h-22.44c-1.13 0-2.04.913-2.04 2.04 0 1.126.91 2.039 2.04 2.039h22.44c1.12 0 2.03-.913 2.03-2.039 0-1.127-.91-2.04-2.03-2.04ZM1188.81 282.102h-2.04c-1.12 0-2.04.914-2.04 2.04s.92 2.039 2.04 2.039h2.04c1.13 0 2.04-.913 2.04-2.039 0-1.126-.91-2.04-2.04-2.04Z"/><path fill="#84B5CB" d="M1162.3 306.578h20.39c1.13 0 2.04-.914 2.04-2.04s-.91-2.039-2.04-2.039h-20.39c-1.13 0-2.04.913-2.04 2.039 0 1.126.91 2.04 2.04 2.04ZM1182.69 310.657h-20.39c-1.13 0-2.04.913-2.04 2.04 0 1.126.91 2.039 2.04 2.039h20.39c1.13 0 2.04-.913 2.04-2.039 0-1.127-.91-2.04-2.04-2.04ZM1182.69 318.815h-20.39c-1.13 0-2.04.913-2.04 2.04 0 1.126.91 2.039 2.04 2.039h20.39c1.13 0 2.04-.913 2.04-2.039 0-1.126-.91-2.04-2.04-2.04Z"/><rect width="464.768" height="107.835" x="560.741" y="283.606" fill="#C4C4C4" opacity=".5" rx="20"/><path fill="#fff" d="M618.253 321.287h.48c.896 0 1.408.528 1.536 1.584 0 .928-1.264 1.392-3.792 1.392-4.064 1.536-6.8 3.776-8.208 6.72l-.336 1.392v.288c0 1.408.944 2.112 2.832 2.112l5.28-.288c3.552 0 5.952 1.728 7.2 5.184l.288 1.68c0 3.328-2.688 6.368-8.064 9.12-1.6.448-3.008.752-4.224.912-3.264 0-5.568-1.84-6.912-5.52a12.827 12.827 0 0 1-.576-3.792c0-.384.304-.784.912-1.2h.576c.992 0 1.488 1.264 1.488 3.792.832 2.496 2.144 3.744 3.936 3.744h1.296c2.592 0 5.152-1.504 7.68-4.512.672-.96 1.008-2 1.008-3.12 0-1.568-1.232-2.672-3.696-3.312h-.192l-6.288.144c-3.488-.416-5.232-1.856-5.232-4.32l-.192-.624c0-3.296 2.464-6.496 7.392-9.6 2.144-1.184 4.08-1.776 5.808-1.776Zm9.22 13.968.864-.48c.768 0 1.328.464 1.68 1.392a34.426 34.426 0 0 0-.768 7.296c0 1.248.368 2.608 1.104 4.08h.288c.928 0 2.032-3.664 3.312-10.992.448-.384.88-.576 1.296-.576.992 0 1.488 1.76 1.488 5.28.416 3.872.88 5.808 1.392 5.808l.72-.288c.928.352 1.392.848 1.392 1.488-.576 1.216-1.376 1.824-2.4 1.824-1.152 0-2.256-1.152-3.312-3.456-1.28 2.688-2.576 4.032-3.888 4.032-1.952 0-3.312-2.032-4.08-6.096l-.144-1.536v-.48c0-2.56.352-4.992 1.056-7.296Zm20.119-4.464c2.016 0 3.216 1.408 3.6 4.224v.432c0 3.104-1.6 5.952-4.8 8.544 1.856 1.824 5.104 2.736 9.744 2.736.704.224 1.056.72 1.056 1.488 0 .864-.56 1.296-1.68 1.296-3.136 0-6.432-.8-9.888-2.4v1.392c0 3.296-.704 4.944-2.112 4.944-.992 0-1.488-1.904-1.488-5.712v-3.744l-.144-1.344.336-1.536-.336-4.608v-.192c0-.864.448-1.456 1.344-1.776 1.248-2.496 2.704-3.744 4.368-3.744Zm-2.4 10.512c.928 0 1.968-1.664 3.12-4.992v-2.064l-.576-.624h-.432c-1.408.96-2.112 3.52-2.112 7.68Zm17.915-8.832c1.28.032 3.44 2.272 6.48 6.72l.096.816c0 .896-2.192 1.584-6.576 2.064l-.144.144v.192c.672 2.88 1.376 4.32 2.112 4.32h.576c1.024 0 2.576-1.104 4.656-3.312h.288c.64 0 1.136.464 1.488 1.392 0 .768-1.344 2.096-4.032 3.984-.704.416-1.552.72-2.544.912-2.592 0-4.4-2.432-5.424-7.296-1.472-.224-2.208-.832-2.208-1.824 0-.704.544-1.168 1.632-1.392v.192l.48-.192v-1.2c0-3.68 1.04-5.52 3.12-5.52Zm.288 3.456h-.432l-.192 1.776v1.488h.192c1.792-.064 2.688-.256 2.688-.576-.832-1.248-1.584-2.144-2.256-2.688Zm16.101 5.04c1.664.736 2.656 2.992 2.976 6.768 0 3.488-1.36 6.688-4.08 9.6l-.576.288c-.992-.32-1.488-.816-1.488-1.488l1.968-3.168c.8-1.632 1.2-3.28 1.2-4.944v-1.776c0-.8-.496-2-1.488-3.6v-.192c.224-.992.72-1.488 1.488-1.488Zm26.307-17.76c.896 0 1.344 1.088 1.344 3.264l.576 8.256h.192l2.4-.912c2.688 0 4.32 2.752 4.896 8.256.224 1.568.336 3.872.336 6.912v3.888c0 1.216-.448 1.824-1.344 1.824h-.192c-.864-.128-1.296-.592-1.296-1.392v-4.512c0-7.232-.704-11.232-2.112-12h-.288c-.96 0-1.664 1.472-2.112 4.416v2.688c0 4.8-.4 7.2-1.2 7.2l-.912.096c-.896 0-1.344-1.328-1.344-3.984.096-2.816.288-5.12.576-6.912l-1.008-15.792c0-.832.496-1.264 1.488-1.296Zm16.32 9.264c1.28.032 3.44 2.272 6.48 6.72l.096.816c0 .896-2.192 1.584-6.576 2.064l-.144.144v.192c.672 2.88 1.376 4.32 2.112 4.32h.576c1.024 0 2.576-1.104 4.656-3.312h.288c.64 0 1.136.464 1.488 1.392 0 .768-1.344 2.096-4.032 3.984-.704.416-1.552.72-2.544.912-2.592 0-4.4-2.432-5.424-7.296-1.472-.224-2.208-.832-2.208-1.824 0-.704.544-1.168 1.632-1.392v.192l.48-.192v-1.2c0-3.68 1.04-5.52 3.12-5.52Zm.288 3.456h-.432l-.192 1.776v1.488h.192c1.792-.064 2.688-.256 2.688-.576-.832-1.248-1.584-2.144-2.256-2.688Zm16.868-5.136c2.016 0 3.216 1.408 3.6 4.224v.432c0 3.104-1.6 5.952-4.8 8.544 1.856 1.824 5.104 2.736 9.744 2.736.704.224 1.056.72 1.056 1.488 0 .864-.56 1.296-1.68 1.296-3.136 0-6.432-.8-9.888-2.4v1.392c0 3.296-.704 4.944-2.112 4.944-.992 0-1.488-1.904-1.488-5.712v-3.744l-.144-1.344.336-1.536-.336-4.608v-.192c0-.864.448-1.456 1.344-1.776 1.248-2.496 2.704-3.744 4.368-3.744Zm-2.4 10.512c.928 0 1.968-1.664 3.12-4.992v-2.064l-.576-.624h-.432c-1.408.96-2.112 3.52-2.112 7.68Zm17.916-8.832c1.28.032 3.44 2.272 6.48 6.72l.096.816c0 .896-2.192 1.584-6.576 2.064l-.144.144v.192c.672 2.88 1.376 4.32 2.112 4.32h.576c1.024 0 2.576-1.104 4.656-3.312h.288c.64 0 1.136.464 1.488 1.392 0 .768-1.344 2.096-4.032 3.984-.704.416-1.552.72-2.544.912-2.592 0-4.4-2.432-5.424-7.296-1.472-.224-2.208-.832-2.208-1.824 0-.704.544-1.168 1.632-1.392v.192l.48-.192v-1.2c0-3.68 1.04-5.52 3.12-5.52Zm.288 3.456h-.432l-.192 1.776v1.488h.192c1.792-.064 2.688-.256 2.688-.576-.832-1.248-1.584-2.144-2.256-2.688Zm30.162-.624c1.12 0 1.888 2.464 2.304 7.392.544 2.272.944 3.408 1.2 3.408h.288c.8-2.016 1.2-4.016 1.2-6l-.288-3.312c.352-.864.848-1.296 1.488-1.296 1.184 0 1.776 2.096 1.776 6.288.704 4.352 1.056 8.4 1.056 12.144v2.256c0 6.88-1.952 11.52-5.856 13.92l-1.056.192c-1.824 0-3.52-1.696-5.088-5.088l-.432-2.88v-.144c0-2.112.592-3.168 1.776-3.168l1.2.768-.144 3.024c0 1.472.752 2.96 2.256 4.464h.624c1.76 0 3.056-3.36 3.888-10.08l.096-2.784c-.032-3.232-.16-5.296-.384-6.192-1.28 1.12-2.288 1.68-3.024 1.68-1.632 0-3.088-4.368-4.368-13.104l-.144-.096c0-.736.544-1.2 1.632-1.392Zm18.847-3.696c2.368 0 4.16 1.76 5.376 5.28l.192 1.008c0 3.424-1.6 6.928-4.8 10.512-1.28 1.184-2.576 1.776-3.888 1.776-1.92 0-3.28-1.104-4.08-3.312-.288-1.024-.432-1.92-.432-2.688v-.576c0-5.056 1.84-8.896 5.52-11.52.64-.32 1.344-.48 2.112-.48Zm-4.8 12.48c0 2.176.56 3.264 1.68 3.264 2.336 0 4.272-2.992 5.808-8.976v-.912c-.544-1.984-1.552-2.976-3.024-2.976-.576 0-.864.4-.864 1.2 0 .544-.64.976-1.92 1.296-1.12 1.888-1.68 4.256-1.68 7.104Zm14.415-8.832.864-.48c.768 0 1.328.464 1.68 1.392a34.426 34.426 0 0 0-.768 7.296c0 1.248.368 2.608 1.104 4.08h.288c.928 0 2.032-3.664 3.312-10.992.448-.384.88-.576 1.296-.576.992 0 1.488 1.76 1.488 5.28.416 3.872.88 5.808 1.392 5.808l.72-.288c.928.352 1.392.848 1.392 1.488-.576 1.216-1.376 1.824-2.4 1.824-1.152 0-2.256-1.152-3.312-3.456-1.28 2.688-2.576 4.032-3.888 4.032-1.952 0-3.312-2.032-4.08-6.096l-.144-1.536v-.48c0-2.56.352-4.992 1.056-7.296Zm39.605-3.984c1.472 0 2.208.704 2.208 2.112.192 0 .288.24.288.72H856l-.192 1.392.192 9.696-.288 7.68c2.88 0 4.816 2.112 5.808 6.336 0 .864-.592 1.36-1.776 1.488-.544 0-1.152-1.2-1.824-3.6-.64-.928-1.376-1.392-2.208-1.392h-.192c-1.024 6.816-1.92 10.224-2.688 10.224-.928 1.696-2.272 2.544-4.032 2.544-2.592-.608-3.888-1.904-3.888-3.888v-.288c0-3.008 2.144-6.272 6.432-9.792l1.488-.912.192-5.184v-1.2h-.192c-1.088 1.376-2.128 2.064-3.12 2.064h-.288c-2.208 0-3.472-1.696-3.792-5.088v-1.056c0-4.096 1.504-7.648 4.512-10.656.928-.8 1.984-1.2 3.168-1.2Zm-4.8 11.232v2.304c.128 1.056.368 1.584.72 1.584h.48c.896 0 2-3.296 3.312-9.888v-2.4c-1.92 0-3.424 2.8-4.512 8.4Zm-.768 21.888c.128.8.576 1.2 1.344 1.2 1.536 0 2.64-2.736 3.312-8.208h-.288c-2.912 2.528-4.368 4.864-4.368 7.008Zm18.457-32.784c2.368 0 4.16 1.76 5.376 5.28l.192 1.008c0 3.424-1.6 6.928-4.8 10.512-1.28 1.184-2.576 1.776-3.888 1.776-1.92 0-3.28-1.104-4.08-3.312-.288-1.024-.432-1.92-.432-2.688v-.576c0-5.056 1.84-8.896 5.52-11.52.64-.32 1.344-.48 2.112-.48Zm-4.8 12.48c0 2.176.56 3.264 1.68 3.264 2.336 0 4.272-2.992 5.808-8.976v-.912c-.544-1.984-1.552-2.976-3.024-2.976-.576 0-.864.4-.864 1.2 0 .544-.64.976-1.92 1.296-1.12 1.888-1.68 4.256-1.68 7.104Zm16.383 2.784c.672 0 1.072.544 1.2 1.632-.192 1.12-.752 1.68-1.68 1.68-.64 0-1.088-.56-1.344-1.68.384-1.088.992-1.632 1.824-1.632Zm29.021-22.08c2.176 0 3.44 1.568 3.792 4.704 0 2.592-.608 4.224-1.824 4.896h-.288c-.928-.064-1.392-.4-1.392-1.008l.192-3.6v-1.776l-.288-.336h-.48c-1.024 0-2.224 2.848-3.6 8.544l-.288 3.6v1.056c0 3.328 1.488 5.28 4.464 5.856h2.016c3.328 0 7.36-2.144 12.096-6.432h.192c.864 0 1.36.544 1.488 1.632-.736 1.92-1.6 2.88-2.592 2.88-4.576 3.264-8.688 4.896-12.336 4.896-3.648 0-6.224-2-7.728-6l-.432-3.408v-.624c0-4.96 1.392-9.52 4.176-13.68.896-.8 1.84-1.2 2.832-1.2Zm19.44 10.512c1.12 0 1.888 2.464 2.304 7.392.544 2.272.944 3.408 1.2 3.408h.288c.8-2.016 1.2-4.016 1.2-6l-.288-3.312c.352-.864.848-1.296 1.488-1.296 1.184 0 1.776 2.096 1.776 6.288.704 4.352 1.056 8.4 1.056 12.144v2.256c0 6.88-1.952 11.52-5.856 13.92l-1.056.192c-1.824 0-3.52-1.696-5.088-5.088l-.432-2.88v-.144c0-2.112.592-3.168 1.776-3.168l1.2.768-.144 3.024c0 1.472.752 2.96 2.256 4.464h.624c1.76 0 3.056-3.36 3.888-10.08l.096-2.784c-.032-3.232-.16-5.296-.384-6.192-1.28 1.12-2.288 1.68-3.024 1.68-1.632 0-3.088-4.368-4.368-13.104l-.144-.096c0-.736.544-1.2 1.632-1.392Zm20.143-4.128c1.408 0 2.112.56 2.112 1.68l-.432.912-.288 8.784c0 3.968.8 6.432 2.4 7.392l.096.72c-.096.928-.528 1.392-1.296 1.392h-.288c-2.4-1.632-3.6-4.128-3.6-7.488h-.336c-1.28 3.584-2.832 5.376-4.656 5.376-1.696-.48-2.544-1.744-2.544-3.792 0-4.512 1.808-9.008 5.424-13.488 1.216-.992 2.352-1.488 3.408-1.488Zm-5.808 13.056-.192 1.344v.912h.48c2.4-5.984 3.6-9.632 3.6-10.944h-.192c-1.856 2.08-3.088 4.976-3.696 8.688Zm12.096-27.12c.864.352 1.296.864 1.296 1.536.256 9.088.624 15.648 1.104 19.68-.32.8-.784 1.2-1.392 1.2-1.184 0-1.776-1.904-1.776-5.712-.288-1.408-.528-6.512-.72-15.312 0-.8.496-1.264 1.488-1.392Zm.288 33.024c.288-.992.8-1.488 1.536-1.488.768 0 1.296.496 1.584 1.488-.352.928-.848 1.392-1.488 1.392h-.144c-.64 0-1.136-.464-1.488-1.392ZM693.099 259.502c-1.248-2.784-1.872-5.952-1.872-9.504 0-3.552.624-6.72 1.872-9.504 1.248-2.784 2.844-4.968 4.788-6.552l.936 1.008c-1.632 1.536-3 3.66-4.104 6.372-1.08 2.688-1.62 5.58-1.62 8.676s.54 6 1.62 8.712c1.104 2.688 2.472 4.8 4.104 6.336l-.936 1.008c-1.944-1.584-3.54-3.768-4.788-6.552Zm11.206.108v-25.632c2.28-.168 4.188-.252 5.724-.252 2.448 0 4.464.636 6.048 1.908 1.584 1.248 2.376 3.024 2.376 5.328 0 1.56-.456 3.012-1.368 4.356-.912 1.344-1.932 2.412-3.06 3.204.888 1.224 1.98 2.688 3.276 4.392 1.32 1.68 2.172 2.736 2.556 3.168 1.464 1.56 3.12 2.448 4.968 2.664l-.036 1.152c-1.464-.024-2.652-.24-3.564-.648-.912-.432-1.788-1.08-2.628-1.944-.816-.864-2.868-3.552-6.156-8.064-2.352 0-4.488-.072-6.408-.216v10.584h-1.728Zm7.092-11.808c1.056 0 2.184-.696 3.384-2.088 1.2-1.392 1.8-3 1.8-4.824 0-1.848-.624-3.24-1.872-4.176-1.224-.96-2.856-1.44-4.896-1.44-1.08 0-2.34.048-3.78.144v12.204c1.92.12 3.708.18 5.364.18Zm16.171 11.808v-23.364h10.908v1.44h-9.252v8.496h8.352v1.404h-8.352v10.512h9.612v1.512h-11.268Zm22.611-22.356c-1.296 0-2.352.312-3.168.936-.816.624-1.224 1.5-1.224 2.628 0 1.296.54 2.46 1.62 3.492.768.744 1.752 1.536 2.952 2.376 1.224.816 2.064 1.404 2.52 1.764.456.36 1.008.852 1.656 1.476 1.176 1.176 1.764 2.532 1.764 4.068 0 1.992-.672 3.504-2.016 4.536-1.32 1.008-3.18 1.512-5.58 1.512-2.376 0-4.368-.624-5.976-1.872l.864-1.26c1.632 1.104 3.36 1.656 5.184 1.656 1.824 0 3.24-.384 4.248-1.152 1.032-.768 1.548-1.848 1.548-3.24 0-1.2-.516-2.304-1.548-3.312-.72-.72-1.692-1.5-2.916-2.34-1.2-.84-2.04-1.44-2.52-1.8a25.397 25.397 0 0 1-1.692-1.512c-1.224-1.224-1.836-2.64-1.836-4.248s.564-2.868 1.692-3.78c1.152-.912 2.736-1.368 4.752-1.368 2.016 0 3.828.396 5.436 1.188l-.612 1.332c-1.488-.72-3.204-1.08-5.148-1.08Zm12.756 22.356v-23.22c1.8-.192 3.696-.288 5.688-.288 2.016 0 3.72.54 5.112 1.62 1.392 1.056 2.088 2.664 2.088 4.824 0 2.16-.948 3.936-2.844 5.328-1.896 1.368-4.14 2.052-6.732 2.052h-.396v-1.152h.252c2.136 0 3.996-.564 5.58-1.692 1.584-1.128 2.376-2.592 2.376-4.392 0-1.8-.564-3.108-1.692-3.924-1.104-.816-2.568-1.224-4.392-1.224-.96 0-2.088.048-3.384.144v21.924h-1.656Zm29.352.36c-3.336 0-6.132-1.164-8.388-3.492-2.256-2.328-3.384-5.172-3.384-8.532 0-3.384 1.128-6.24 3.384-8.568 2.256-2.328 5.052-3.492 8.388-3.492 3.336 0 6.132 1.164 8.388 3.492 2.256 2.328 3.384 5.184 3.384 8.568 0 3.36-1.128 6.204-3.384 8.532-2.256 2.328-5.052 3.492-8.388 3.492Zm0-22.608c-2.88 0-5.28 1.02-7.2 3.06-1.896 2.04-2.844 4.548-2.844 7.524 0 2.952.948 5.448 2.844 7.488 1.92 2.016 4.32 3.024 7.2 3.024 2.904 0 5.304-1.008 7.2-3.024 1.896-2.04 2.844-4.536 2.844-7.488 0-2.976-.948-5.484-2.844-7.524s-4.296-3.06-7.2-3.06Zm18.988 22.248v-23.508h.792l15.336 17.64a25.85 25.85 0 0 1 1.512 1.872c.48.6.732.912.756.936-.048-.576-.072-1.704-.072-3.384v-16.92h1.656v23.508h-.792l-15.624-17.928-1.98-2.412c.048.48.072 1.608.072 3.384v16.812h-1.656Zm33.333-22.356c-1.296 0-2.352.312-3.168.936-.816.624-1.224 1.5-1.224 2.628 0 1.296.54 2.46 1.62 3.492.768.744 1.752 1.536 2.952 2.376 1.224.816 2.064 1.404 2.52 1.764.456.36 1.008.852 1.656 1.476 1.176 1.176 1.764 2.532 1.764 4.068 0 1.992-.672 3.504-2.016 4.536-1.32 1.008-3.18 1.512-5.58 1.512-2.376 0-4.368-.624-5.976-1.872l.864-1.26c1.632 1.104 3.36 1.656 5.184 1.656 1.824 0 3.24-.384 4.248-1.152 1.032-.768 1.548-1.848 1.548-3.24 0-1.2-.516-2.304-1.548-3.312-.72-.72-1.692-1.5-2.916-2.34-1.2-.84-2.04-1.44-2.52-1.8a25.397 25.397 0 0 1-1.692-1.512c-1.224-1.224-1.836-2.64-1.836-4.248s.564-2.868 1.692-3.78c1.152-.912 2.736-1.368 4.752-1.368 2.016 0 3.828.396 5.436 1.188l-.612 1.332c-1.488-.72-3.204-1.08-5.148-1.08Zm12.757 22.356v-23.364h10.908v1.44h-9.252v8.496h8.352v1.404h-8.352v10.512h9.612v1.512h-11.268Zm20.019-19.116c1.248 2.784 1.872 5.952 1.872 9.504 0 3.552-.624 6.72-1.872 9.504-1.248 2.784-2.844 4.968-4.788 6.552l-.936-1.008c1.632-1.536 2.988-3.648 4.068-6.336 1.104-2.712 1.656-5.616 1.656-8.712s-.552-5.988-1.656-8.676c-1.08-2.712-2.436-4.836-4.068-6.372l.936-1.008c1.944 1.584 3.54 3.768 4.788 6.552Z"/><path stroke="#fff" stroke-dasharray="5 5" stroke-miterlimit="16" stroke-width="4" d="M0 484.335h1272.45"/><path fill="#FAFFFA" d="M415.164 446.436h442.123v79.798H415.164z"/><path fill="#000" d="M459.043 496.2c-3.744 0-6.96-1.272-9.648-3.816-2.688-2.568-4.032-5.724-4.032-9.468 0-3.768 1.176-6.924 3.528-9.468 2.352-2.568 5.364-3.852 9.036-3.852 2.88 0 5.796.48 8.748 1.44l-.468 1.44c-2.88-.864-5.64-1.296-8.28-1.296-3.144 0-5.712 1.128-7.704 3.384-1.992 2.256-2.988 5.016-2.988 8.28 0 3.264 1.152 6.048 3.456 8.352 2.328 2.28 5.112 3.42 8.352 3.42 2.832 0 5.28-.432 7.344-1.296l.54 1.224c-.912.528-2.112.936-3.6 1.224a22.17 22.17 0 0 1-4.284.432Zm14.224-.432v-23.364h1.656v21.852h10.728v1.512h-12.384Zm26.188.36c-3.336 0-6.132-1.164-8.388-3.492-2.256-2.328-3.384-5.172-3.384-8.532 0-3.384 1.128-6.24 3.384-8.568 2.256-2.328 5.052-3.492 8.388-3.492 3.336 0 6.132 1.164 8.388 3.492 2.256 2.328 3.384 5.184 3.384 8.568 0 3.36-1.128 6.204-3.384 8.532-2.256 2.328-5.052 3.492-8.388 3.492Zm0-22.608c-2.88 0-5.28 1.02-7.2 3.06-1.896 2.04-2.844 4.548-2.844 7.524 0 2.952.948 5.448 2.844 7.488 1.92 2.016 4.32 3.024 7.2 3.024 2.904 0 5.304-1.008 7.2-3.024 1.896-2.04 2.844-4.536 2.844-7.488 0-2.976-.948-5.484-2.844-7.524s-4.296-3.06-7.2-3.06Zm23.704-.108c-1.296 0-2.352.312-3.168.936-.816.624-1.224 1.5-1.224 2.628 0 1.296.54 2.46 1.62 3.492.768.744 1.752 1.536 2.952 2.376 1.224.816 2.064 1.404 2.52 1.764.456.36 1.008.852 1.656 1.476 1.176 1.176 1.764 2.532 1.764 4.068 0 1.992-.672 3.504-2.016 4.536-1.32 1.008-3.18 1.512-5.58 1.512-2.376 0-4.368-.624-5.976-1.872l.864-1.26c1.632 1.104 3.36 1.656 5.184 1.656 1.824 0 3.24-.384 4.248-1.152 1.032-.768 1.548-1.848 1.548-3.24 0-1.2-.516-2.304-1.548-3.312-.72-.72-1.692-1.5-2.916-2.34-1.2-.84-2.04-1.44-2.52-1.8a25.397 25.397 0 0 1-1.692-1.512c-1.224-1.224-1.836-2.64-1.836-4.248s.564-2.868 1.692-3.78c1.152-.912 2.736-1.368 4.752-1.368 2.016 0 3.828.396 5.436 1.188l-.612 1.332c-1.488-.72-3.204-1.08-5.148-1.08Zm12.757 22.356v-23.364h10.908v1.44h-9.252v8.496h8.352v1.404h-8.352v10.512h9.612v1.512h-11.268Zm49.047-1.152c-1.8 1.008-4.308 1.512-7.524 1.512-3.192 0-6.012-1.152-8.46-3.456-2.424-2.304-3.636-5.16-3.636-8.568 0-3.432 1.056-6.3 3.168-8.604 2.136-2.304 4.884-3.456 8.244-3.456 2.712 0 5.364.42 7.956 1.26l-.432 1.368a26.17 26.17 0 0 0-7.74-1.152c-2.664 0-4.908 1.02-6.732 3.06-1.8 2.016-2.7 4.5-2.7 7.452 0 2.928 1.044 5.424 3.132 7.488 2.112 2.064 4.548 3.096 7.308 3.096s5.052-.384 6.876-1.152l.54 1.152Zm15.882 1.512c-3.336 0-6.132-1.164-8.388-3.492-2.256-2.328-3.384-5.172-3.384-8.532 0-3.384 1.128-6.24 3.384-8.568 2.256-2.328 5.052-3.492 8.388-3.492 3.336 0 6.132 1.164 8.388 3.492 2.256 2.328 3.384 5.184 3.384 8.568 0 3.36-1.128 6.204-3.384 8.532-2.256 2.328-5.052 3.492-8.388 3.492Zm0-22.608c-2.88 0-5.28 1.02-7.2 3.06-1.896 2.04-2.844 4.548-2.844 7.524 0 2.952.948 5.448 2.844 7.488 1.92 2.016 4.32 3.024 7.2 3.024 2.904 0 5.304-1.008 7.2-3.024 1.896-2.04 2.844-4.536 2.844-7.488 0-2.976-.948-5.484-2.844-7.524s-4.296-3.06-7.2-3.06Zm18.989 22.248V472.26h.792l15.336 17.64a25.85 25.85 0 0 1 1.512 1.872c.48.6.732.912.756.936-.048-.576-.072-1.704-.072-3.384v-16.92h1.656v23.508h-.792l-15.624-17.928-1.98-2.412c.048.48.072 1.608.072 3.384v16.812h-1.656Zm28.617 0V472.26h.792l15.336 17.64a25.85 25.85 0 0 1 1.512 1.872c.48.6.732.912.756.936-.048-.576-.072-1.704-.072-3.384v-16.92h1.656v23.508h-.792l-15.624-17.928-1.98-2.412c.048.48.072 1.608.072 3.384v16.812h-1.656Zm28.617 0v-23.364h10.908v1.44h-9.252v8.496h8.352v1.404h-8.352v10.512h9.612v1.512h-11.268Zm36.075-1.152c-1.8 1.008-4.308 1.512-7.524 1.512-3.192 0-6.012-1.152-8.46-3.456-2.424-2.304-3.636-5.16-3.636-8.568 0-3.432 1.056-6.3 3.168-8.604 2.136-2.304 4.884-3.456 8.244-3.456 2.712 0 5.364.42 7.956 1.26l-.432 1.368a26.17 26.17 0 0 0-7.74-1.152c-2.664 0-4.908 1.02-6.732 3.06-1.8 2.016-2.7 4.5-2.7 7.452 0 2.928 1.044 5.424 3.132 7.488 2.112 2.064 4.548 3.096 7.308 3.096s5.052-.384 6.876-1.152l.54 1.152Zm10.078-20.736h-7.92v-1.476h17.46v1.476h-7.92v21.888h-1.62V473.88Zm14.421 21.888v-23.364h1.656v23.364h-1.656Zm20.633.36c-3.336 0-6.132-1.164-8.388-3.492-2.256-2.328-3.384-5.172-3.384-8.532 0-3.384 1.128-6.24 3.384-8.568 2.256-2.328 5.052-3.492 8.388-3.492 3.336 0 6.132 1.164 8.388 3.492 2.256 2.328 3.384 5.184 3.384 8.568 0 3.36-1.128 6.204-3.384 8.532-2.256 2.328-5.052 3.492-8.388 3.492Zm0-22.608c-2.88 0-5.28 1.02-7.2 3.06-1.896 2.04-2.844 4.548-2.844 7.524 0 2.952.948 5.448 2.844 7.488 1.92 2.016 4.32 3.024 7.2 3.024 2.904 0 5.304-1.008 7.2-3.024 1.896-2.04 2.844-4.536 2.844-7.488 0-2.976-.948-5.484-2.844-7.524s-4.296-3.06-7.2-3.06Zm18.988 22.248V472.26h.792l15.336 17.64a25.85 25.85 0 0 1 1.512 1.872c.48.6.732.912.756.936-.048-.576-.072-1.704-.072-3.384v-16.92h1.656v23.508h-.792l-15.624-17.928-1.98-2.412c.048.48.072 1.608.072 3.384v16.812h-1.656Z"/></svg>