<svg xmlns="http://www.w3.org/2000/svg" fill="none" viewBox="0 0 960 454"><path fill="#D4D4D4" d="M926.511 0H33.489C14.994 0 0 14.994 0 33.49v75.261c0 18.496 14.994 33.49 33.49 33.49H926.51c18.495 0 33.489-14.994 33.489-33.49V33.489C960 14.994 945.006 0 926.511 0Z"/><path fill="#F5F5F5" fill-rule="evenodd" d="M0 111.631h960v317.341c0 13.807-11.193 25-25 25H25c-13.807 0-25-11.193-25-25V111.631Z" clip-rule="evenodd"/><path fill="#E96E4C" d="M45.845 70.218c7.446 0 13.483-6.045 13.483-13.503 0-7.457-6.037-13.503-13.483-13.503-7.447 0-13.483 6.046-13.483 13.503 0 7.458 6.036 13.503 13.483 13.503Z"/><path fill="#E6AA34" fill-rule="evenodd" d="M87.193 70.22a13.492 13.492 0 0 0 13.485-13.507 13.5 13.5 0 0 0-3.946-9.543 13.492 13.492 0 0 0-9.539-3.958c-7.446 0-13.485 6.046-13.485 13.503s6.04 13.508 13.485 13.508v-.002Z" clip-rule="evenodd"/><path fill="#85C33D" d="M128.543 70.218c7.447 0 13.483-6.045 13.483-13.503 0-7.457-6.036-13.503-13.483-13.503-7.446 0-13.482 6.046-13.482 13.503 0 7.458 6.036 13.503 13.482 13.503Z"/><path fill="#fff" fill-rule="evenodd" d="M161.803 25.206h773.058v60.822H161.803V25.206Z" clip-rule="evenodd" opacity=".85"/><path fill="#000" fill-rule="evenodd" d="M202.044 242.981c0-10.627-14.178-10.5-14.178-10.5-1.29.063-2.65.648-2.65 1.683 0 1.943 2.389 33.186 2.389 34.874 0 1.619 3.823 2.009 3.823.386 0-.714-.324-8.555-.648-16.722 4.532-.067 11.261-1.429 11.261-9.723l.003.002Zm-11.909-5.769c2.59-.067 7.961.455 7.961 6.028 0 6.028-4.465 5.834-7.443 5.575l-.518-11.603Zm18.575 9.399c-.067-.777-.067-1.295-.067-1.556.067-2.201-5.112-2.072-5.175.261-.067 2.271 1.487 21.067 1.422 23.077 0 2.009 4.729 2.462 4.794.58 0-1.357-.518-11.207-.777-17.887.321-1.749 1.487-4.405 3.297-4.405 2.523 0 1.813 4.927 1.813 4.927s5.37 1.489 5.37-3.63c0-6.095-8.674-6.223-10.679-1.362l.002-.005Zm21.94-3.371c-4.92 0-8.93 7.649-8.93 15.039 0 7.457 4.01 11.797 8.93 11.797 4.917 0 8.864-4.342 8.864-11.797 0-7.39-3.947-15.039-8.864-15.039Zm.063 21.65c-2.137 0-4.532-2.463-4.532-6.676 0-4.148 2.136-10.435 4.273-10.435 2.072 0 4.532 3.63 4.532 10.632 0 4.148-2.201 6.481-4.273 6.481v-.002Zm20.71-20.871-.13-4.8c.067-2.266-4.983-2.201-5.113.197 0 .585.067 2.143.195 4.344h-1.876c0-.062-1.036.262-1.036 1.168 0 1.168.063 2.076.905 2.009h2.134c.326 6.417.844 14.975.909 17.567h-.067c.067 3.762 1.942 5.9 7.122 5.771 5.63-.13 5.179-4.927 5.179-4.927s.387-1.295-1.491-1.228c-1.875 0-1.813 1.161-1.813 1.161s.322 2.143-1.813 2.205c-1.683 0-2.266-1.424-2.395-2.462-.13-4.733-.454-12.38-.648-18.214h3.17s.844.067.844-.906c0-.715 0-1.753-.58-1.753l-3.496-.132Zm19.417-.781c-4.916 0-8.931 7.651-8.931 15.041 0 7.457 4.015 11.797 8.931 11.797 4.92 0 8.868-4.342 8.868-11.797 0-7.39-3.948-15.039-8.864-15.039l-.004-.002Zm.067 21.652c-2.137 0-4.532-2.463-4.532-6.676 0-4.148 2.136-10.435 4.273-10.435 2.072 0 4.532 3.63 4.532 10.632 0 4.148-2.201 6.481-4.273 6.481v-.002Zm26.405-2.657c-.904 0-.513 3.237-4.142 3.237-2.328 0-4.335-4.275-4.335-9.332 0-5.055 1.813-9.203 4.077-9.203 2.719 0 2.913 3.566 3.625 3.566.71 0 2.523-1.686 2.523-2.528 0-1.685-2.846-4.733-6.084-4.733-4.918 0-8.93 6.028-8.93 13.418s4.012 13.418 8.93 13.418c4.399 0 7.379-4.733 7.379-5.961 0-1.17-2.137-1.882-3.043-1.882Zm15.211-18.993c-4.919 0-8.931 7.649-8.931 15.039 0 7.457 4.012 11.797 8.931 11.797 4.918 0 8.863-4.342 8.863-11.797 0-7.39-3.945-15.039-8.863-15.039Zm.067 21.65c-2.139 0-4.532-2.463-4.532-6.676 0-4.148 2.134-10.435 4.271-10.435 2.069 0 4.532 3.63 4.532 10.632 0 4.148-2.204 6.481-4.273 6.481l.002-.002Zm12.815-31.891c0 2.271 2.845 33.384 2.845 35.394 0 1.942 4.465 2.333 4.465.453 0-1.88-1.617-34.226-1.617-36.363 0-2.206-5.693-1.75-5.693.516Z" clip-rule="evenodd"/><path stroke="#21C9C9" stroke-linecap="round" stroke-width="4" d="m231.628 112.964 21.574 102.629m-21.574-102.629-1.594 24.974 13.11-2.755-11.516-22.219Zm-52.746-24.74h77.305"/><path stroke="#F76477" stroke-linecap="round" stroke-width="4" d="m478.854 112.964 21.576 102.629M296.939 86.856h276.846m-96.523 51.082 1.594-24.974 11.52 22.219-13.114 2.755Z"/><path fill="#000" fill-rule="evenodd" d="M453.937 244.214s.907-7.714-5.954-7.714c-2.201 0-5.307 1.036-5.307 6.028 0 9.462 18.446 8.229 18.446 20.027 0 10.176-22.974 10.953-22.974 1.361 0-7.39 5.76-6.742 5.76-6.287l.126 5.508s1.294 3.505 5.179 3.505c4.142 0 6.341-1.428 6.341-4.152 0-9.462-17.861-8.942-17.861-20.286 0-10.891 21.616-12.38 21.616-2.918 0 6.937-5.372 4.928-5.372 4.928Zm22.588 17.24s.453 4.8-4.336 4.8c-1.813 0-3.496-2.4-3.496-7.327.969 0 12.815 1.361 12.815-8.685 0-5.705-4.856-7.067-9.515-7.067-4.921 0-8.931 6.028-8.931 13.418 0 7.453 4.01 13.419 8.931 13.419h.518c4.206.451 8.412-1.559 8.412-6.29 0-3.565-4.398-2.268-4.398-2.268Zm-3.626-14.843c3.952 0 3.885 2.918 3.885 4.086 0 4.146-2.009 5.381-8.091 5.381 0 0-.134-9.467 4.204-9.467h.002Zm19.029 0c-.067-.777-.067-1.295-.067-1.556.067-2.201-5.113-2.072-5.175.261-.067 2.271 1.489 21.068 1.424 23.077 0 2.009 4.724 2.462 4.789.58 0-1.357-.514-11.207-.775-17.887.324-1.749 1.489-4.405 3.305-4.405 2.522 0 1.808 4.927 1.808 4.927s5.372 1.489 5.372-3.63c0-6.095-8.674-6.223-10.681-1.362v-.005Zm28.93-.647c-.388 1.621-2.846 12.445-4.595 18.799-1.812-6.354-4.271-17.178-4.594-18.799-.518-2.139-6.019-2.268-5.437 0 .518 2.268 7.118 21.065 7.569 23.009.134.454.455.782.844 1.039.261.256.844.386 1.491.386.715.067 1.425-.067 1.684-.389.453-.261.777-.587.841-1.04.447-1.942 7.116-20.741 7.636-23.01.513-2.268-4.921-2.138-5.439 0v.005Zm21.165 15.49s.451 4.8-4.338 4.8c-1.808 0-3.491-2.4-3.491-7.327.971 0 12.815 1.361 12.815-8.685 0-5.705-4.856-7.067-9.516-7.067-4.918 0-8.93 6.028-8.93 13.418 0 7.453 4.012 13.419 8.93 13.419h.518c4.207.451 8.417-1.559 8.417-6.29 0-3.565-4.405-2.268-4.405-2.268Zm-3.625-14.843c3.947 0 3.884 2.918 3.884 4.086 0 4.146-2.009 5.381-8.091 5.381 0 0-.129-9.467 4.207-9.467Zm19.028 0c-.067-.777-.067-1.295-.067-1.556.067-2.201-5.112-2.072-5.175.261-.067 2.271 1.487 21.068 1.422 23.077 0 2.009 4.727 2.462 4.792.58 0-1.357-.518-11.207-.777-17.887.323-1.749 1.489-4.405 3.299-4.405 2.523 0 1.813 4.927 1.813 4.927s5.372 1.489 5.372-3.63c0-6.095-8.674-6.223-10.679-1.362v-.005Z" clip-rule="evenodd"/><path stroke="#FFDB01" stroke-linecap="round" stroke-width="4" d="m726.34 112.964 21.576 102.629M600.576 86.856h192.006m-67.834 51.082 1.594-24.974 11.521 22.219-13.115 2.755Z"/><path fill="#000" fill-rule="evenodd" d="M686.347 242.981c0-10.627-14.173-10.5-14.173-10.5-1.295.063-2.656.648-2.656 1.683 0 1.943 2.395 33.186 2.395 34.874 0 1.619 3.818 2.009 3.818.386 0-.714-.324-8.555-.647-16.722 4.532-.067 11.261-1.429 11.261-9.723l.002.002Zm-11.909-5.769c2.59-.067 7.962.455 7.962 6.028 0 6.028-4.465 5.834-7.446 5.575l-.518-11.603h.002Zm30.355 28.846c-.714-.715-1.168-4.213-1.295-5.314l-.391-10.956c.067-8.1-15.918-8.294-15.918-1.424 0 3.565 5.305 2.268 5.305 2.268s-.581-3.889 3.237-3.889c2.395 0 2.59 6.095 2.59 7.649-.972 0-12.235-1.362-12.235 8.556 0 7.584 7.964 8.751 13.076 5.186 1.876 2.98 3.751 1.295 3.751 1.295s2.657-2.59 1.88-3.371Zm-6.151-.909s-.906 1.429-3.623 1.429c-3.818 0-3.818-2.916-3.818-4.086 0-4.081 3.237-5.314 6.988-5.314l.453 7.971Zm17.214-21.127-.128-4.801c.067-2.266-4.983-2.201-5.112.197 0 .585.067 2.143.194 4.345h-1.875c0-.063-1.036.261-1.036 1.167 0 1.168.067 2.077.906 2.01h2.137c.323 6.416.841 14.974.906 17.566h-.067c.067 3.762 1.943 5.901 7.122 5.771 5.626-.129 5.175-4.927 5.175-4.927s.389-1.295-1.489-1.228c-1.875 0-1.808 1.161-1.808 1.161s.321 2.143-1.813 2.206c-1.683 0-2.266-1.425-2.396-2.463-.129-4.733-.453-12.38-.647-18.214h3.17s.842.067.842-.906c0-.715 0-1.753-.581-1.753l-3.496-.129-.004-.002Zm22.978 23.397c0 1.557.388 2.595 2.395 2.595 1.362 0 1.554-1.429 1.554-1.429l.514-20.161c0-.513-.063-.971-.127-1.362-.972-4.018-6.149-3.757-6.149-3.757-2.719 0-4.465 1.815-5.503 3.63-.384-7.193-.643-13.547-.643-14.454 0-2.206-5.694-1.753-5.694.514 0 2.27 2.845 33.384 2.845 35.393 0 1.943 4.465 2.334 4.465.454 0-.907-.388-9.266-.777-17.761.648-1.295 1.813-2.849 4.014-2.849 1.166 0 2.782.324 2.782 5.314l.324 13.871v.002Zm36.503-23.397-.129-4.801c.062-2.266-4.986-2.201-5.113.197 0 .585.063 2.143.192 4.345h-1.875c0-.063-1.038.261-1.038 1.167 0 1.168.067 2.077.908 2.01h2.137c.324 6.416.842 14.974.906 17.566h-.067c.067 3.762 1.943 5.901 7.122 5.771 5.627-.129 5.176-4.927 5.176-4.927s.388-1.295-1.487-1.228c-1.876 0-1.813 1.161-1.813 1.161s.324 2.143-1.813 2.206c-1.681 0-2.264-1.425-2.393-2.463-.13-4.733-.454-12.38-.648-18.214h3.17s.842.067.842-.906c0-.715 0-1.753-.58-1.753l-3.497-.129v-.002Zm19.415-.782c-4.918 0-8.93 7.651-8.93 15.041 0 7.457 4.012 11.798 8.93 11.798 4.921 0 8.868-4.343 8.868-11.798 0-7.39-3.947-15.039-8.868-15.039v-.002Zm.067 21.652c-2.136 0-4.532-2.462-4.532-6.675 0-4.149 2.137-10.436 4.273-10.436 2.07 0 4.532 3.631 4.532 10.632 0 4.148-2.203 6.481-4.275 6.481l.002-.002Zm32.943-15.622c-.581 0-.518 1.039-.518 1.751 0 .973.841.844.841.844h2.59c.648 7.452 1.358 15.427 1.358 16.528 0 1.942 4.465 2.333 4.465.453 0-1.036-.451-9.332-.775-16.981h.518c2.784 0 3.367-1.686 3.367-2.791 0-1.357-1.425-1.098-1.425-1.098l-2.656.323a230.495 230.495 0 0 1-.322-9.658c0-1.556 1.168-4.599 4.666-4.599 4.658 0 3.751 5.831 3.751 5.831s5.372 1.423 5.372-3.632c0-6.872-19.353-6.287-19.353 2.59 0 .911.389 5.124.777 10.113l-2.652.324-.004.002Zm15.597-4.407c-.13 2.269.971 21.65.906 23.659-.129 1.947 4.595 2.077 4.724.197.13-1.88.13-21.715.259-23.854.13-2.138-5.76-2.268-5.889 0v-.002Zm10.096-11.862c0 2.271 2.848 33.385 2.848 35.394 0 1.942 4.466 2.333 4.466.453 0-1.88-1.619-34.226-1.619-36.362 0-2.206-5.693-1.753-5.693.513l-.002.002Zm25.177 28.457s.453 4.8-4.336 4.8c-1.808 0-3.494-2.4-3.494-7.327.971 0 12.815 1.362 12.815-8.685 0-5.704-4.853-7.066-9.511-7.066-4.92 0-8.935 6.028-8.935 13.418 0 7.452 4.015 13.418 8.931 13.418h.52c4.206.451 8.413-1.558 8.413-6.289 0-3.566-4.399-2.271-4.399-2.271l-.004.002Zm-3.624-14.842c3.948 0 3.885 2.918 3.885 4.086 0 4.146-2.009 5.38-8.093 5.38 0 0-.13-9.466 4.208-9.466Z" clip-rule="evenodd"/><path fill="#000" d="M182.046 50.391c1.43-1.756 3.291-2.634 5.582-2.634 3.988 0 6 2.25 6.035 6.75V66.98h-3.227V54.49c-.012-1.36-.326-2.366-.942-3.018-.605-.65-1.552-.976-2.843-.976-1.047 0-1.965.279-2.756.837a5.685 5.685 0 0 0-1.849 2.198v13.448h-3.227V40.187h3.227v10.204ZM202.872 43.536v4.57h3.524V50.6h-3.524v11.704c0 .756.157 1.326.471 1.71.314.372.849.558 1.605.558.372 0 .884-.07 1.535-.21v2.617a9.356 9.356 0 0 1-2.477.349c-1.442 0-2.529-.436-3.262-1.309-.732-.872-1.098-2.11-1.098-3.715V50.6h-3.437v-2.494h3.437v-4.57h3.226ZM214.559 43.536v4.57h3.523V50.6h-3.523v11.704c0 .756.157 1.326.471 1.71.314.372.849.558 1.604.558.373 0 .884-.07 1.535-.21v2.617a9.349 9.349 0 0 1-2.476.349c-1.442 0-2.53-.436-3.262-1.309-.733-.872-1.099-2.11-1.099-3.715V50.6h-3.436v-2.494h3.436v-4.57h3.227ZM237.81 57.752c0 2.872-.657 5.186-1.971 6.942-1.314 1.756-3.094 2.634-5.338 2.634-2.291 0-4.093-.727-5.407-2.18v9.087h-3.227V48.106h2.948l.157 2.093c1.314-1.628 3.14-2.442 5.477-2.442 2.267 0 4.058.855 5.372 2.564 1.326 1.71 1.989 4.088 1.989 7.134v.297Zm-3.227-.367c0-2.127-.454-3.808-1.361-5.04-.907-1.233-2.151-1.85-3.733-1.85-1.953 0-3.418.867-4.395 2.6v9.017c.965 1.721 2.442 2.582 4.43 2.582 1.547 0 2.774-.61 3.681-1.832.918-1.232 1.378-3.058 1.378-5.477ZM252.915 61.973c0-.872-.332-1.547-.995-2.023-.651-.489-1.796-.908-3.436-1.256-1.628-.35-2.924-.768-3.889-1.256-.954-.489-1.663-1.07-2.128-1.745-.454-.674-.681-1.476-.681-2.407 0-1.546.652-2.854 1.954-3.924 1.314-1.07 2.988-1.605 5.023-1.605 2.14 0 3.873.553 5.198 1.657 1.337 1.105 2.006 2.518 2.006 4.239h-3.244c0-.884-.378-1.646-1.134-2.285-.744-.64-1.686-.96-2.826-.96-1.174 0-2.093.256-2.756.768-.662.512-.994 1.18-.994 2.006 0 .779.308 1.366.925 1.761.616.396 1.726.774 3.331 1.134 1.616.36 2.925.791 3.925 1.291 1 .5 1.738 1.105 2.215 1.814.488.698.732 1.552.732 2.564 0 1.686-.674 3.04-2.023 4.064-1.349 1.012-3.099 1.518-5.25 1.518-1.512 0-2.849-.268-4.012-.803-1.163-.535-2.075-1.279-2.738-2.232-.651-.966-.977-2.006-.977-3.123h3.227c.058 1.082.488 1.942 1.291 2.582.814.628 1.883.942 3.209.942 1.221 0 2.198-.244 2.93-.733.745-.5 1.117-1.163 1.117-1.988ZM260.24 65.287c0-.558.163-1.023.489-1.396.337-.372.837-.558 1.5-.558s1.163.186 1.5.559c.349.372.523.837.523 1.395 0 .535-.174.982-.523 1.343-.337.36-.837.54-1.5.54s-1.163-.18-1.5-.54c-.326-.36-.489-.808-.489-1.343Zm.018-15.402c0-.558.163-1.023.488-1.395.337-.372.837-.558 1.5-.558s1.163.186 1.5.558c.349.372.524.837.524 1.395 0 .535-.175.983-.524 1.343-.337.36-.837.541-1.5.541s-1.163-.18-1.5-.54c-.325-.361-.488-.809-.488-1.344ZM269.642 69.16h-2.773l10.605-27.577h2.755l-10.587 27.576ZM280.456 69.16h-2.773l10.605-27.577h2.756l-10.588 27.576ZM311.242 62.531l3.628-14.425h3.227l-5.495 18.873h-2.616l-4.587-14.303-4.465 14.303h-2.617l-5.477-18.873h3.21l3.715 14.128 4.395-14.128h2.599l4.483 14.425ZM338.103 62.531l3.628-14.425h3.227l-5.494 18.873h-2.617l-4.587-14.303-4.465 14.303h-2.617l-5.476-18.873h3.209l3.715 14.128 4.396-14.128h2.599l4.482 14.425ZM364.965 62.531l3.628-14.425h3.226l-5.494 18.873h-2.616l-4.588-14.303-4.465 14.303h-2.616l-5.477-18.873h3.209l3.715 14.128 4.396-14.128h2.599l4.483 14.425ZM373.023 65.287c0-.558.163-1.023.488-1.396.338-.372.838-.558 1.5-.558.663 0 1.163.186 1.5.559.349.372.524.837.524 1.395 0 .535-.175.982-.524 1.343-.337.36-.837.54-1.5.54-.662 0-1.162-.18-1.5-.54-.325-.36-.488-.808-.488-1.343ZM394.024 65.112c-1.256 1.477-3.099 2.216-5.53 2.216-2.011 0-3.546-.582-4.604-1.745-1.047-1.174-1.576-2.907-1.588-5.197v-12.28h3.227v12.192c0 2.86 1.163 4.291 3.489 4.291 2.465 0 4.104-.919 4.918-2.756V48.106h3.227V66.98h-3.07l-.069-1.867ZM405.134 48.106l.105 2.372c1.442-1.814 3.326-2.72 5.651-2.72 3.989 0 6.001 2.25 6.035 6.75v12.47h-3.226V54.49c-.012-1.36-.326-2.366-.942-3.018-.605-.65-1.553-.976-2.843-.976-1.047 0-1.966.279-2.756.837a5.685 5.685 0 0 0-1.849 2.198v13.448h-3.227V48.106h3.052ZM425.298 66.979h-3.227V48.106h3.227V66.98ZM421.809 43.1c0-.523.157-.965.471-1.325.326-.361.803-.541 1.43-.541.628 0 1.105.18 1.431.54.325.361.488.803.488 1.326s-.163.96-.488 1.308c-.326.35-.803.524-1.431.524-.627 0-1.104-.175-1.43-.524-.314-.349-.471-.785-.471-1.308ZM438.048 64.694c1.151 0 2.157-.349 3.018-1.047.86-.697 1.337-1.57 1.43-2.616h3.052c-.058 1.081-.43 2.11-1.116 3.087-.686.977-1.605 1.756-2.756 2.338a7.873 7.873 0 0 1-3.628.872c-2.57 0-4.616-.855-6.14-2.564-1.511-1.721-2.267-4.07-2.267-7.047v-.54c0-1.838.337-3.472 1.012-4.902.674-1.43 1.639-2.54 2.895-3.332 1.267-.79 2.762-1.186 4.483-1.186 2.116 0 3.872.634 5.267 1.901 1.407 1.268 2.157 2.913 2.25 4.937h-3.052c-.093-1.221-.558-2.221-1.395-3-.826-.791-1.849-1.187-3.07-1.187-1.64 0-2.913.593-3.82 1.78-.896 1.174-1.343 2.878-1.343 5.11v.61c0 2.175.447 3.85 1.343 5.024.895 1.175 2.174 1.762 3.837 1.762ZM448.322 57.368c0-1.849.36-3.512 1.081-4.989.733-1.476 1.744-2.616 3.035-3.418 1.302-.803 2.785-1.204 4.448-1.204 2.57 0 4.645.89 6.227 2.669 1.593 1.78 2.389 4.145 2.389 7.099v.227c0 1.837-.354 3.488-1.064 4.953-.697 1.454-1.703 2.588-3.017 3.402-1.302.814-2.802 1.22-4.5 1.22-2.558 0-4.634-.889-6.227-2.668-1.582-1.78-2.372-4.134-2.372-7.064v-.227Zm3.244.384c0 2.093.483 3.773 1.448 5.04.976 1.268 2.279 1.902 3.907 1.902 1.639 0 2.942-.64 3.907-1.919.965-1.29 1.448-3.093 1.448-5.407 0-2.07-.495-3.744-1.483-5.023-.977-1.291-2.279-1.937-3.907-1.937-1.593 0-2.878.634-3.855 1.902-.977 1.267-1.465 3.081-1.465 5.442ZM478.671 51.002a9.661 9.661 0 0 0-1.587-.123c-2.116 0-3.552.902-4.308 2.704v13.396h-3.227V48.106h3.14l.052 2.18c1.058-1.686 2.558-2.529 4.5-2.529.628 0 1.105.082 1.43.244v3ZM484.707 48.106l.104 2.372c1.442-1.814 3.326-2.72 5.652-2.72 3.988 0 6 2.25 6.035 6.75v12.47h-3.227V54.49c-.012-1.36-.326-2.366-.942-3.018-.605-.65-1.553-.976-2.843-.976-1.047 0-1.965.279-2.756.837a5.685 5.685 0 0 0-1.849 2.198v13.448h-3.227V48.106h3.053ZM501.434 65.287c0-.558.163-1.023.488-1.396.337-.372.837-.558 1.5-.558s1.163.186 1.5.559c.349.372.524.837.524 1.395 0 .535-.175.982-.524 1.343-.337.36-.837.54-1.5.54s-1.163-.18-1.5-.54c-.325-.36-.488-.808-.488-1.343ZM518.353 64.694c1.151 0 2.157-.349 3.017-1.047.861-.697 1.338-1.57 1.431-2.616h3.052c-.058 1.081-.43 2.11-1.116 3.087-.686.977-1.605 1.756-2.756 2.338a7.876 7.876 0 0 1-3.628.872c-2.57 0-4.617-.855-6.14-2.564-1.512-1.721-2.267-4.07-2.267-7.047v-.54c0-1.838.337-3.472 1.011-4.902.675-1.43 1.64-2.54 2.896-3.332 1.267-.79 2.761-1.186 4.482-1.186 2.117 0 3.873.634 5.268 1.901 1.407 1.268 2.157 2.913 2.25 4.937h-3.052c-.093-1.221-.558-2.221-1.396-3-.825-.791-1.849-1.187-3.07-1.187-1.639 0-2.912.593-3.819 1.78-.896 1.174-1.344 2.878-1.344 5.11v.61c0 2.175.448 3.85 1.344 5.024.895 1.175 2.174 1.762 3.837 1.762ZM528.626 57.368c0-1.849.361-3.512 1.082-4.989.732-1.476 1.744-2.616 3.035-3.418 1.302-.803 2.785-1.204 4.448-1.204 2.57 0 4.645.89 6.227 2.669 1.593 1.78 2.389 4.145 2.389 7.099v.227c0 1.837-.354 3.488-1.064 4.953-.697 1.454-1.703 2.588-3.017 3.402-1.303.814-2.803 1.22-4.5 1.22-2.559 0-4.634-.889-6.227-2.668-1.582-1.78-2.373-4.134-2.373-7.064v-.227Zm3.245.384c0 2.093.482 3.773 1.447 5.04.977 1.268 2.28 1.902 3.908 1.902 1.639 0 2.941-.64 3.907-1.919.965-1.29 1.447-3.093 1.447-5.407 0-2.07-.494-3.744-1.482-5.023-.977-1.291-2.279-1.937-3.907-1.937-1.593 0-2.878.634-3.855 1.902-.977 1.267-1.465 3.081-1.465 5.442ZM552.889 48.106l.087 2.093c1.384-1.628 3.25-2.442 5.599-2.442 2.64 0 4.436 1.012 5.39 3.035a7.174 7.174 0 0 1 2.442-2.198c1.011-.558 2.203-.837 3.575-.837 4.14 0 6.245 2.192 6.314 6.576v12.646h-3.226V54.525c0-1.349-.308-2.355-.925-3.018-.616-.674-1.651-1.011-3.105-1.011-1.197 0-2.191.36-2.982 1.081-.791.71-1.25 1.669-1.378 2.878V66.98h-3.244V54.612c0-2.744-1.343-4.116-4.03-4.116-2.116 0-3.564.9-4.343 2.703v13.78h-3.227V48.106h3.053ZM581.826 69.16h-2.774l10.605-27.577h2.756l-10.587 27.576ZM605.024 51.002a9.661 9.661 0 0 0-1.587-.123c-2.116 0-3.553.902-4.308 2.704v13.396h-3.227V48.106h3.139l.053 2.18c1.058-1.686 2.558-2.529 4.5-2.529.628 0 1.105.082 1.43.244v3ZM618.961 66.979c-.186-.372-.338-1.035-.454-1.989-1.5 1.559-3.291 2.338-5.372 2.338-1.861 0-3.39-.524-4.588-1.57-1.186-1.058-1.779-2.396-1.779-4.012 0-1.965.745-3.488 2.233-4.57 1.5-1.093 3.605-1.64 6.314-1.64h3.14v-1.482c0-1.128-.337-2.023-1.012-2.686-.674-.675-1.669-1.012-2.983-1.012-1.151 0-2.116.29-2.895.872-.779.582-1.169 1.285-1.169 2.11h-3.244c0-.941.331-1.848.994-2.72.675-.884 1.582-1.582 2.721-2.093 1.152-.512 2.413-.768 3.785-.768 2.175 0 3.878.547 5.111 1.64 1.233 1.081 1.872 2.575 1.919 4.483v8.686c0 1.733.221 3.11.662 4.134v.279h-3.383Zm-5.355-2.46a5.673 5.673 0 0 0 2.878-.785c.907-.523 1.564-1.203 1.971-2.04V57.82h-2.529c-3.954 0-5.931 1.157-5.931 3.471 0 1.012.337 1.803 1.012 2.373.674.57 1.541.854 2.599.854ZM630.246 66.979h-3.227V48.106h3.227V66.98ZM626.757 43.1c0-.523.157-.965.471-1.325.326-.361.803-.541 1.431-.541.627 0 1.104.18 1.43.54.325.361.488.803.488 1.326s-.163.96-.488 1.308c-.326.35-.803.524-1.43.524-.628 0-1.105-.175-1.431-.524-.314-.349-.471-.785-.471-1.308ZM638.479 48.106l.104 2.372c1.442-1.814 3.326-2.72 5.652-2.72 3.988 0 6 2.25 6.035 6.75v12.47h-3.227V54.49c-.012-1.36-.326-2.366-.942-3.018-.605-.65-1.552-.976-2.843-.976-1.047 0-1.965.279-2.756.837a5.685 5.685 0 0 0-1.849 2.198v13.448h-3.227V48.106h3.053ZM671.113 57.752c0 2.883-.662 5.203-1.988 6.96-1.326 1.743-3.105 2.616-5.337 2.616-2.384 0-4.227-.843-5.53-2.53l-.157 2.18h-2.965v-26.79h3.227v9.994c1.302-1.617 3.099-2.425 5.39-2.425 2.29 0 4.087.867 5.389 2.6 1.314 1.732 1.971 4.104 1.971 7.116v.279Zm-3.227-.367c0-2.197-.424-3.895-1.273-5.093-.849-1.197-2.07-1.796-3.663-1.796-2.128 0-3.657.988-4.587 2.965v8.163c.988 1.977 2.529 2.965 4.622 2.965 1.547 0 2.75-.599 3.611-1.796.86-1.198 1.29-3 1.29-5.407ZM674.34 57.368c0-1.849.361-3.512 1.082-4.989.732-1.476 1.744-2.616 3.035-3.418 1.302-.803 2.785-1.204 4.447-1.204 2.57 0 4.646.89 6.227 2.669 1.593 1.78 2.39 4.145 2.39 7.099v.227c0 1.837-.355 3.488-1.064 4.953-.698 1.454-1.704 2.588-3.018 3.402-1.302.814-2.802 1.22-4.5 1.22-2.558 0-4.634-.889-6.227-2.668-1.581-1.78-2.372-4.134-2.372-7.064v-.227Zm3.244.384c0 2.093.483 3.773 1.448 5.04.977 1.268 2.279 1.902 3.907 1.902 1.64 0 2.942-.64 3.907-1.919.966-1.29 1.448-3.093 1.448-5.407 0-2.07-.494-3.744-1.483-5.023-.976-1.291-2.279-1.937-3.907-1.937-1.593 0-2.878.634-3.854 1.902-.977 1.267-1.466 3.081-1.466 5.442ZM712.277 62.531l3.628-14.425h3.227l-5.494 18.873h-2.616l-4.588-14.303-4.465 14.303h-2.616l-5.477-18.873h3.209l3.715 14.128 4.396-14.128h2.599l4.482 14.425ZM720.336 65.287c0-.558.163-1.023.488-1.396.337-.372.837-.558 1.5-.558s1.163.186 1.5.559c.349.372.523.837.523 1.395 0 .535-.174.982-.523 1.343-.337.36-.837.54-1.5.54s-1.163-.18-1.5-.54c-.325-.36-.488-.808-.488-1.343ZM732.912 50.391c1.43-1.756 3.291-2.634 5.581-2.634 3.989 0 6 2.25 6.035 6.75V66.98h-3.227V54.49c-.011-1.36-.325-2.366-.941-3.018-.605-.65-1.553-.976-2.844-.976-1.046 0-1.965.279-2.755.837a5.685 5.685 0 0 0-1.849 2.198v13.448h-3.227V40.187h3.227v10.204ZM753.738 43.536v4.57h3.523V50.6h-3.523v11.704c0 .756.157 1.326.471 1.71.314.372.849.558 1.605.558.372 0 .883-.07 1.534-.21v2.617a9.349 9.349 0 0 1-2.476.349c-1.442 0-2.529-.436-3.262-1.309-.733-.872-1.099-2.11-1.099-3.715V50.6h-3.436v-2.494h3.436v-4.57h3.227ZM764.081 48.106l.087 2.093c1.384-1.628 3.251-2.442 5.599-2.442 2.64 0 4.437 1.012 5.39 3.035a7.174 7.174 0 0 1 2.442-2.198c1.012-.558 2.204-.837 3.576-.837 4.139 0 6.244 2.192 6.314 6.576v12.646h-3.227V54.525c0-1.349-.308-2.355-.924-3.018-.617-.674-1.652-1.011-3.105-1.011-1.198 0-2.192.36-2.983 1.081-.79.71-1.25 1.669-1.378 2.878V66.98h-3.244V54.612c0-2.744-1.343-4.116-4.029-4.116-2.117 0-3.564.9-4.343 2.703v13.78h-3.227V48.106h3.052ZM795.879 66.979h-3.227V40.187h3.227V66.98Z"/></svg>
