<svg xmlns="http://www.w3.org/2000/svg" fill="none" viewBox="0 0 2510 1616"><path stroke="#3E5978" stroke-width="30" d="M2420.19 1416.2H114.375S15 1385.79 15 1266.2s99.375-150 99.375-150H2365.71s107.39-39.09 107.39-150.001c0-110.906-107.39-150-107.39-150H114.375S15 777.074 15 663.043s99.375-145 99.375-145H2365.71s107.39-38.828 107.39-158.875-107.39-159.387-107.39-159.387H15"/><path fill="#3E5978" d="M2380.1 1464.43v-96.13l129.1 48.07-129.1 48.06z"/><path stroke="#3E5978" d="M2380.1 1464.43v-96.13l129.1 48.07-129.1 48.06z"/><path fill="#588DA8" d="M234 0c-27.614 0-50 22.386-50 50v299.003c0 27.614 22.386 50 50 50h642.393c27.614 0 50-22.386 50-50V50c0-27.614-22.386-50-50-50H234z"/><rect width="399.003" height="399.003" fill="#588DA8" rx="50" transform="matrix(0 1 1 0 1036.81 0)"/><rect width="399.003" height="568.407" fill="#588DA8" rx="50" transform="matrix(0 1 1 0 186.221 600)"/><rect width="399.003" height="786.313" fill="#588DA8" rx="50" transform="matrix(0 1 1 0 1545.31 0)"/><rect width="399.003" height="399.003" fill="#588DA8" rx="50" transform="matrix(0 1 1 0 186.625 1216.42)"/><rect width="399.003" height="1102.33" fill="#588DA8" rx="50" transform="matrix(0 1 1 0 707.799 1216.42)"/><rect width="399.003" height="399.003" fill="#588DA8" rx="50" transform="matrix(0 1 1 0 1932.89 1216.78)"/><rect width="399.003" height="399.003" fill="#588DA8" rx="50" transform="matrix(0 1 1 0 849.292 600)"/><rect width="399.003" height="494.815" fill="#588DA8" rx="50" transform="matrix(0 1 1 0 1342.96 600)"/><rect width="399.003" height="399.003" fill="#588DA8" rx="50" transform="matrix(0 1 1 0 1932.62 600)"/></svg>