<svg width="2792" height="2041" viewBox="0 0 2792 2041" fill="none" xmlns="http://www.w3.org/2000/svg">
<g id="2-dimensonal">
<g id="Group 7">
<rect id="Rectangle 3" x="256" y="32" width="40" height="1863" fill="#3E5978"/>
<path id="Rectangle 2" fill-rule="evenodd" clip-rule="evenodd" d="M344.34 1855.06H206.218L275.279 2040.56L344.34 1855.06Z" fill="#3E5978"/>
</g>
<g id="Group 7_2">
<rect id="Rectangle 3_2" x="783" y="32" width="40" height="1863" fill="#3E5978"/>
<path id="Rectangle 2_2" fill-rule="evenodd" clip-rule="evenodd" d="M871.34 1855.06H733.218L802.279 2040.56L871.34 1855.06Z" fill="#3E5978"/>
</g>
<g id="Group 7_3">
<rect id="Rectangle 3_3" x="1283" y="32" width="40" height="1863" fill="#3E5978"/>
<path id="Rectangle 2_3" fill-rule="evenodd" clip-rule="evenodd" d="M1371.34 1855.06H1233.22L1302.28 2040.56L1371.34 1855.06Z" fill="#3E5978"/>
</g>
<g id="Group 7_4">
<rect id="Rectangle 3_4" x="1827" y="32" width="40" height="1863" fill="#3E5978"/>
<path id="Rectangle 2_4" fill-rule="evenodd" clip-rule="evenodd" d="M1915.34 1855.06H1777.22L1846.28 2040.56L1915.34 1855.06Z" fill="#3E5978"/>
</g>
<g id="Group 7_5">
<rect id="Rectangle 3_5" x="2318" y="32" width="40" height="1863" fill="#3E5978"/>
<path id="Rectangle 2_5" fill-rule="evenodd" clip-rule="evenodd" d="M2406.34 1855.06H2268.22L2337.28 2040.56L2406.34 1855.06Z" fill="#3E5978"/>
</g>
<g id="Group 8">
<rect id="Rectangle 3_6" x="122" y="293" width="2538" height="40" fill="#3E5978"/>
<path id="Rectangle 2_6" fill-rule="evenodd" clip-rule="evenodd" d="M2606.06 244.218V382.34L2791.56 313.279L2606.06 244.218Z" fill="#3E5978"/>
</g>
<g id="Group 8_2">
<rect id="Rectangle 3_7" x="122" y="889" width="2538" height="40" fill="#3E5978"/>
<path id="Rectangle 2_7" fill-rule="evenodd" clip-rule="evenodd" d="M2606.06 840.218V978.34L2791.56 909.279L2606.06 840.218Z" fill="#3E5978"/>
</g>
<g id="Group 8_3">
<rect id="Rectangle 3_8" x="122" y="1490" width="2538" height="40" fill="#3E5978"/>
<path id="Rectangle 2_8" fill-rule="evenodd" clip-rule="evenodd" d="M2606.06 1441.22V1579.34L2791.56 1510.28L2606.06 1441.22Z" fill="#3E5978"/>
</g>
<rect id="Rectangle" width="551" height="585" rx="50" fill="#588DA8"/>
<rect id="Rectangle_2" x="658" width="899" height="585" rx="50" fill="#588DA8"/>
<rect id="Rectangle_3" x="2148" y="10" width="377" height="585" rx="50" fill="#588DA8"/>
<rect id="Rectangle_4" x="2149" y="705" width="377" height="1081" rx="50" fill="#588DA8"/>
<rect id="Rectangle_5" x="1664" y="10" width="377" height="1115" rx="50" fill="#588DA8"/>
<rect id="Rectangle_6" y="700" width="1547" height="420" rx="50" fill="#588DA8"/>
<rect id="Rectangle_7" y="1235" width="909" height="551" rx="50" fill="#588DA8"/>
<rect id="Rectangle_8" x="1012" y="1235" width="1023" height="551" rx="50" fill="#588DA8"/>
</g>
</svg>