<svg xmlns="http://www.w3.org/2000/svg" viewBox="0 0 3268 912"><g fill="none" fill-rule="evenodd"><path fill="#000" fill-rule="nonzero" d="M1144.035 439.865H683.216c-5.09 0-9.216 4.133-9.216 9.23v332.309c0 5.098 4.126 9.23 9.216 9.23h460.819c5.09 0 9.216-4.132 9.216-9.23V449.096c0-5.098-4.126-9.23-9.216-9.23zm-9.216 332.308H692.432v-258.46h442.386v258.46zm0-276.923H692.432v-36.923h442.386v36.923z"/><path fill="#000" fill-rule="nonzero" d="M1024.222 467.558h-18.432c-5.09 0-9.217 4.133-9.217 9.23 0 5.099 4.127 9.231 9.217 9.231h18.432c5.09 0 9.216-4.132 9.216-9.23 0-5.098-4.126-9.23-9.216-9.23zM1070.304 467.558h-18.432c-5.09 0-9.216 4.133-9.216 9.23 0 5.099 4.126 9.231 9.216 9.231h18.432c5.09 0 9.216-4.132 9.216-9.23 0-5.098-4.126-9.23-9.216-9.23zM1116.385 467.558h-18.432c-5.09 0-9.216 4.133-9.216 9.23 0 5.099 4.126 9.231 9.216 9.231h18.432c5.09 0 9.217-4.132 9.217-9.23 0-5.098-4.126-9.23-9.217-9.23z"/><path stroke="#000" stroke-width="8" d="M722.93 534.327h381.392V785.5H722.93z"/><path stroke="#000" stroke-linecap="square" stroke-width="8" d="M782.495 614.309v162.546M871.73 742.353v36.502M871.73 535.353v78.387M963.587 742.353v36.502M963.587 535.353v78.387M1023.446 534.616v241.239M726.56 614.309h372.432M726.56 740.781h294.554M726.56 694.309h55.931M1025.093 694.309h75.897"/><g fill-rule="nonzero"><g fill="#231F20" transform="translate(712 275)"><circle cx="106.58" cy="33.36" r="33.36"/><path d="M96.74 105h-61a12.53 12.53 0 0 1-10.26-5.34L24 97.41a21.28 21.28 0 0 1 17.38-33.48h34.83c11.325.033 20.497 9.205 20.53 20.53V105z"/><rect width="59.07" height="22.08" x="61.637" y="90.357" rx="11.04" transform="rotate(57.78 91.172 101.397)"/><rect width="47.49" height="22.08" x="18.556" y="95.245" rx="11.04" transform="rotate(57.78 42.3 106.285)"/><rect width="59.11" height="22.08" x="1.004" y="106.387" rx="11.04" transform="rotate(179.87 30.559 117.427)"/></g><path fill="#3F3525" d="M1068.1 407.84c8.84 0 12.81-4.3 14.59-7.91 1.16-2.35 3.26-8.57-2.2-15.69-6.93-9-20.09-18.14-36.63-22.18a57.29 57.29 0 0 1 39-20.14 37.54 37.54 0 0 0 22.85-10.16 32.91 32.91 0 0 0 10.12-23.86 34 34 0 0 0-34.06-34.06c-15 0-40.61 13.28-55.91 42.69-15.27-29.41-40.8-42.69-55.8-42.69A34 34 0 0 0 936 307.9a32.88 32.88 0 0 0 10.15 23.86A37.51 37.51 0 0 0 969 341.92a57 57 0 0 1 38.88 20.13c-16.56 4-29.74 13.14-36.67 22.19-5.46 7.12-3.36 13.34-2.21 15.69 1.78 3.61 5.76 7.91 14.59 7.91a111.5 111.5 0 0 0 12.77-1.2 227.12 227.12 0 0 1 29.49-2.31 227 227 0 0 1 29.48 2.31 111.5 111.5 0 0 0 12.77 1.2z" opacity=".15"/><path fill="#3F3525" d="M1068.1 405c8.84 0 12.81-4.3 14.59-7.91 1.16-2.35 3.26-8.57-2.2-15.69-6.93-9-20.09-18.13-36.63-22.18a57.29 57.29 0 0 1 39-20.14 37.54 37.54 0 0 0 22.85-10.16 32.91 32.91 0 0 0 10.14-23.86 34 34 0 0 0-34.08-34.06c-15 0-40.61 13.28-55.91 42.69-15.27-29.41-40.8-42.69-55.8-42.69A34 34 0 0 0 936 305.06a32.88 32.88 0 0 0 10.15 23.86A37.51 37.51 0 0 0 969 339.08a57 57 0 0 1 38.88 20.13c-16.56 4-29.74 13.15-36.67 22.19-5.46 7.12-3.36 13.34-2.21 15.69 1.78 3.61 5.76 7.91 14.59 7.91a111.5 111.5 0 0 0 12.77-1.2 227.12 227.12 0 0 1 29.49-2.31 227 227 0 0 1 29.48 2.31 111.5 111.5 0 0 0 12.77 1.2z"/><path fill="#514632" d="M1070.58 389c-6.05-7.89-22.37-19.47-44.73-19.47-22.36 0-38.68 11.58-44.73 19.47-6.05 7.89 15.78 0 44.73 0 28.95 0 50.78 7.9 44.73 0z"/><path fill="#39B44A" d="M1100.72 294.75a21.56 21.56 0 0 0-18.95-11.26c-14.77 0-53.37 22.51-55.92 79.99 16.28-58.7 70.51-68.07 74.87-68.73z"/><path fill="#6CD877" d="M1100.72 294.75c-4.36.66-58.59 10-74.87 68.73 0 0 16.21-33.42 55.92-36.84 11.87-1 21.58-9.66 21.58-21.58a21.48 21.48 0 0 0-2.63-10.31z"/><path fill="#39B44A" d="M951.08 294.8a21.52 21.52 0 0 0-2.59 10.26c0 11.92 9.7 20.56 21.57 21.58 39.74 3.42 55.79 36.84 55.79 36.84-16.97-61.17-74.76-68.68-74.77-68.68z"/><path fill="#6CD877" d="M970.06 283.49a21.56 21.56 0 0 0-19 11.31s57.8 7.51 74.77 68.68c-2.52-57.48-41-79.99-55.77-79.99z"/><path fill="#3F3525" d="M1003.88 385a1.67 1.67 0 0 1-1.67 1.67h-4.82a1.67 1.67 0 0 1-1.67-1.67 1.66 1.66 0 0 1 1.67-1.66h4.82a1.66 1.66 0 0 1 1.67 1.66zM1034 376.42a1.66 1.66 0 0 1-1.66 1.66h-4.83a1.66 1.66 0 0 1-1.66-1.66 1.66 1.66 0 0 1 1.66-1.67h4.83a1.66 1.66 0 0 1 1.66 1.67zM1061.5 386.68a1.66 1.66 0 0 1-1.67 1.66H1055a1.66 1.66 0 0 1-1.67-1.66A1.67 1.67 0 0 1 1055 385h4.82c.922 0 1.67.748 1.67 1.67l.01.01z"/></g><text fill="#000" font-family="iAWriterDuospace-Bold, iA Writer Duospace" font-size="64" font-weight="bold" transform="translate(674 271)"><tspan x="19" y="628">HTML Tables</tspan></text><g><g fill="#000" fill-rule="nonzero"><path d="M470.77 438.865H9.23a9.23 9.23 0 0 0-9.23 9.23v332.309a9.23 9.23 0 0 0 9.23 9.23h461.54a9.23 9.23 0 0 0 9.23-9.23V448.096a9.23 9.23 0 0 0-9.23-9.23zm-9.231 332.308H18.46v-258.46h443.077v258.46zm0-276.923H18.46v-36.923h443.077v36.923z"/><path d="M350.77 466.558h-18.462a9.23 9.23 0 0 0-9.23 9.23 9.23 9.23 0 0 0 9.23 9.231h18.461a9.23 9.23 0 0 0 9.231-9.23 9.23 9.23 0 0 0-9.23-9.23zM396.923 466.558h-18.46a9.23 9.23 0 0 0-9.231 9.23 9.23 9.23 0 0 0 9.23 9.231h18.461a9.23 9.23 0 0 0 9.231-9.23 9.23 9.23 0 0 0-9.23-9.23zM443.077 466.558h-18.462a9.23 9.23 0 0 0-9.23 9.23 9.23 9.23 0 0 0 9.23 9.231h18.462a9.23 9.23 0 0 0 9.23-9.23 9.23 9.23 0 0 0-9.23-9.23z"/></g><g fill-rule="nonzero"><g fill="#231F20"><path d="M135.47 254c-25.635.071-46.399 20.835-46.47 46.47v20.08L135.42 347l46.51-27.91v-18.62c-.071-25.631-20.829-46.393-46.46-46.47zm0 74.13a29.88 29.88 0 1 1 29.87-29.88 29.87 29.87 0 0 1-29.87 29.88z"/><path d="M180.27 372.46a46.44 46.44 0 0 1-2.27 6.35l-89-50.63v32c.071 25.635 20.835 46.399 46.47 46.47 25.631-.077 46.389-20.839 46.46-46.47v-33.35l-39.88 23.89 38.22 21.74z"/></g><path fill="#3F3525" d="M348.89 359.77l.83-1.14c5-6.84 12.5-17.18 12.5-32.94 0-26.37-20.76-41.81-21.64-42.45a12.47 12.47 0 0 0-14.71 0c-.87.64-21.65 16.08-21.65 42.45 0 15.76 7.53 26.1 12.5 32.94l.83 1.14c-17.64 3.73-31.71 13.23-38.97 22.72-5.46 7.12-3.36 13.34-2.2 15.69 1.78 3.61 5.76 7.91 14.59 7.91a111.5 111.5 0 0 0 12.77-1.2 227 227 0 0 1 29.48-2.31c9.87.128 19.72.9 29.49 2.31a111.5 111.5 0 0 0 12.77 1.2c8.83 0 12.81-4.3 14.59-7.91 1.15-2.35 3.26-8.57-2.2-15.69-7.26-9.49-21.34-18.99-38.98-22.72z" opacity=".15"/><path fill="#3F3525" d="M348.89 356.93l.83-1.13c5-6.85 12.5-17.18 12.5-32.95 0-26.37-20.76-41.85-21.64-42.45a12.47 12.47 0 0 0-14.71 0c-.87.6-21.65 16.08-21.65 42.45 0 15.77 7.53 26.1 12.5 32.95l.83 1.13c-17.64 3.74-31.71 13.26-39 22.72-5.43 7.12-3.33 13.35-2.17 15.69 1.78 3.66 5.76 7.91 14.62 7.91a111.5 111.5 0 0 0 12.77-1.2 227 227 0 0 1 29.48-2.31c9.87.128 19.72.9 29.49 2.31a111.5 111.5 0 0 0 12.77 1.2c8.83 0 12.81-4.3 14.59-7.91 1.15-2.34 3.26-8.57-2.2-15.69-7.29-9.46-21.37-18.99-39.01-22.72z"/><path fill="#514632" d="M378 387.25c-6.06-7.89-22.37-19.47-44.74-19.47s-38.67 11.58-44.73 19.47c-6.06 7.89 15.79 0 44.73 0 28.94 0 50.74 7.9 44.74 0z"/><path fill="#8CC53F" d="M333.22 290.49s-16.51 12-16.51 32.36c0 16.85 11.34 25 15.22 33.63-8.68-39.48 1.29-65.99 1.29-65.99z"/><path fill="#6F9B29" d="M333.22 290.49s-10 26.55-1.29 66a13.12 13.12 0 0 1 1.29 5.45c0-11.05 16.52-18.75 16.52-39.08s-16.52-32.37-16.52-32.37z"/><path fill="#3F3525" d="M311.38 379.27a1.66 1.66 0 0 1-1.66 1.67h-4.83a1.66 1.66 0 0 1-1.66-1.67 1.66 1.66 0 0 1 1.66-1.67h4.83a1.66 1.66 0 0 1 1.66 1.67zM336.54 374.67a1.66 1.66 0 0 1-1.67 1.66h-4.82a1.66 1.66 0 0 1-1.67-1.66 1.67 1.67 0 0 1 1.67-1.67h4.82c.922 0 1.67.748 1.67 1.67zM327.33 382.6a1.67 1.67 0 0 1-1.67 1.67h-4.82a1.67 1.67 0 0 1-1.67-1.67 1.66 1.66 0 0 1 1.67-1.66h4.82a1.66 1.66 0 0 1 1.67 1.66zM350.75 383.26a1.67 1.67 0 0 1-1.67 1.67h-4.82a1.67 1.67 0 0 1-1.67-1.67 1.66 1.66 0 0 1 1.67-1.66h4.82a1.66 1.66 0 0 1 1.67 1.66zM364.3 378a1.67 1.67 0 0 1-1.67 1.67h-4.82a1.67 1.67 0 0 1 0-3.34h4.82c.922 0 1.67.748 1.67 1.67z"/></g><text fill="#000" font-family="iAWriterDuospace-Bold, iA Writer Duospace" font-size="64" font-weight="bold" transform="translate(0 254)"><tspan x="67" y="645">No layout</tspan></text></g><g><g transform="translate(1348 151)"><rect width="25.76" height="91.17" x="46.27" y="165.28" fill="#231F20" fill-rule="nonzero" rx="12.88"/><rect width="25.76" height="91.17" x="79.31" y="165.28" fill="#231F20" fill-rule="nonzero" rx="12.88"/><path fill="#231F20" fill-rule="nonzero" d="M42.88 83.62c-7.104.022-12.858 5.776-12.88 12.88v68.8c.022 7.104 5.776 12.858 12.88 12.88V83.62zM108.46 83.62v94.56c7.104-.022 12.858-5.776 12.88-12.88V96.5c-.022-7.104-5.776-12.858-12.88-12.88zM87.19 85.21L78.68 93a3.21 3.21 0 0 1-4.33 0l-8.51-7.83a6 6 0 0 0-4.06-1.59H46.27v97.05h58.8v-97H91.25a6 6 0 0 0-4.06 1.58z"/><ellipse cx="75.67" cy="2.66" fill="#231F20" fill-rule="nonzero" rx="5.05" ry="2.66"/><path fill="#231F20" fill-rule="nonzero" d="M38.54 46.63c2.15 18.88 18.127 33.142 37.13 33.142 19.003 0 34.98-14.261 37.13-33.142H38.54zM127.28 32h-15.72C106.44 14.287 89.164 2.958 70.878 5.322 52.592 7.686 38.766 23.037 38.32 41.47h6.76c0-6.904 5.596-12.5 12.5-12.5s12.5 5.596 12.5 12.5h57.2a4.73 4.73 0 1 0 0-9.45V32z"/><path fill="#3F3525" fill-rule="nonzero" d="M417 249c1.16-2.34 3.26-8.56-2.2-15.68-7.47-9.75-22.18-19.56-40.57-23 2.9-3.58 9.1-8.49 20.39-12.25h.09c14.4-4.79 28-9.32 38.2-16.5 17.4-12.24 18.17-28 15.75-39-2.85-13-12.85-21.15-26.09-21.15-14.89 0-33.58 10.36-48.79 27a111.19 111.19 0 0 0-8 9.81c-6-25-17.37-53.07-38.74-69.83-20.1-15.86-42.18-24.56-62.12-24.56-23.25 0-42.2 11.83-50.69 31.64-6.48 15.13-5.49 30.83 2.77 44.23 11.15 18 34.39 29.72 62.16 31.31 19 1.09 52.12 7.73 67.17 39.21-18.51 3.43-33.34 13.29-40.85 23.08-5.46 7.13-3.36 13.35-2.2 15.69 1.78 3.61 5.76 7.91 14.59 7.91a111.5 111.5 0 0 0 12.77-1.2 227 227 0 0 1 29.49-2.31 227 227 0 0 1 29.48 2.31 111.5 111.5 0 0 0 12.77 1.2c8.87 0 12.85-4.3 14.62-7.91z" opacity=".15"/><path fill="#3F3525" fill-rule="nonzero" d="M417 246.16c1.16-2.34 3.26-8.56-2.2-15.68-7.47-9.75-22.18-19.56-40.57-23 2.9-3.58 9.1-8.49 20.39-12.25h.09c14.4-4.79 28-9.32 38.2-16.5 17.4-12.24 18.17-28 15.75-39-2.85-13-12.85-21.15-26.09-21.15-14.89 0-33.58 10.37-48.79 27a111.19 111.19 0 0 0-8 9.81c-6-25-17.37-53.06-38.74-69.83C306.94 69.7 284.86 61 264.92 61c-23.25 0-42.2 11.83-50.69 31.65-6.48 15.12-5.49 30.83 2.77 44.22 11.15 18 34.39 29.73 62.16 31.31 19 1.09 52.12 7.74 67.17 39.21-18.51 3.43-33.34 13.29-40.85 23.09-5.46 7.12-3.36 13.34-2.2 15.68 1.78 3.61 5.76 7.91 14.59 7.91a111.5 111.5 0 0 0 12.77-1.2 227 227 0 0 1 29.49-2.31 227 227 0 0 1 29.48 2.31 111.5 111.5 0 0 0 12.77 1.2c8.87 0 12.85-4.3 14.62-7.91z"/><path fill="#514632" fill-rule="nonzero" d="M404.9 238.07c-6.05-7.89-22.37-19.47-44.73-19.47-22.36 0-38.68 11.58-44.74 19.47-6.06 7.89 15.79 0 44.74 0 28.95 0 50.83 7.93 44.73 0z"/><path fill="#0FBC59" fill-rule="nonzero" d="M436.47 142.3c-7.22-33-76.3 11.44-76.3 65.52a.59.59 0 0 1 0-.13c.6-2.64 12.72-54.11 76.3-65.39zM225.71 97.56c-12.63 29.44 13.22 55.81 54.2 58.16 34.51 2 66.84 17.36 80.26 52.1C328.06 93.36 225.71 97.56 225.71 97.56z"/><path fill="#04A344" fill-rule="nonzero" d="M360.19 207.69c.33-1.44 4.19-15.59 30.5-24.35 27.08-9 51-17 45.78-41-63.58 11.24-75.7 62.71-76.28 65.35zM319.38 95.33c-40.26-31.58-81.04-27.23-93.67 2.23 0 0 102.35-4.2 134.46 110.26 0 0-.53-80.92-40.79-112.49z"/><path fill="#3F3525" fill-rule="nonzero" d="M340.83 234.08a1.67 1.67 0 0 1-1.67 1.67h-4.82a1.67 1.67 0 0 1-1.67-1.67 1.66 1.66 0 0 1 1.67-1.66h4.82a1.66 1.66 0 0 1 1.67 1.66zM362.4 225.18a1.66 1.66 0 0 1-1.66 1.67h-4.83a1.66 1.66 0 0 1-1.66-1.67c0-.917.743-1.66 1.66-1.66h4.83c.917 0 1.66.743 1.66 1.66zM385.29 234.08a1.66 1.66 0 0 1-1.66 1.67h-4.83a1.66 1.66 0 0 1-1.66-1.67c0-.917.743-1.66 1.66-1.66h4.83c.917 0 1.66.743 1.66 1.66zM379.77 226.85a1.66 1.66 0 0 1-1.67 1.66h-4.82a1.66 1.66 0 0 1-1.67-1.66c0-.922.748-1.67 1.67-1.67h4.82c.922 0 1.67.748 1.67 1.67z"/><path fill="#000" fill-rule="nonzero" d="M470.035 288.865H9.216c-5.09 0-9.216 4.133-9.216 9.23v332.309c0 5.098 4.126 9.23 9.216 9.23h460.819c5.09 0 9.216-4.132 9.216-9.23V298.096c0-5.098-4.126-9.23-9.216-9.23zm-9.216 332.308H18.432v-258.46h442.386v258.46zm0-276.923H18.432v-36.923h442.386v36.923z"/><path fill="#000" fill-rule="nonzero" d="M350.222 316.558H331.79c-5.09 0-9.217 4.133-9.217 9.23 0 5.099 4.127 9.231 9.217 9.231h18.432c5.09 0 9.216-4.132 9.216-9.23 0-5.098-4.126-9.23-9.216-9.23zM396.304 316.558h-18.432c-5.09 0-9.216 4.133-9.216 9.23 0 5.099 4.126 9.231 9.216 9.231h18.432c5.09 0 9.216-4.132 9.216-9.23 0-5.098-4.126-9.23-9.216-9.23zM442.385 316.558h-18.432c-5.09 0-9.216 4.133-9.216 9.23 0 5.099 4.126 9.231 9.216 9.231h18.432c5.09 0 9.217-4.132 9.217-9.23 0-5.098-4.126-9.23-9.217-9.23z"/><path stroke="#000" stroke-width="8" d="M48.93 383.327h381.392V634.5H48.93z"/><path stroke="#000" stroke-linecap="square" stroke-width="8" d="M54.446 440.617h371.421M129.89 442.617V626.62M315.874 442.617V626.62"/></g><text fill="#000" font-family="iAWriterDuospace-Bold, iA Writer Duospace" font-size="64" font-weight="bold" transform="translate(1348 151)"><tspan x="48" y="748">CSS Floats</tspan></text></g><g><path fill="#000" fill-rule="nonzero" d="M2492.035 439.865h-460.819c-5.09 0-9.216 4.133-9.216 9.23v332.309c0 5.098 4.126 9.23 9.216 9.23h460.819c5.09 0 9.216-4.132 9.216-9.23V449.096c0-5.098-4.126-9.23-9.216-9.23zm-9.216 332.308h-442.387v-258.46h442.386v258.46zm0-276.923h-442.387v-36.923h442.386v36.923z"/><path fill="#000" fill-rule="nonzero" d="M2372.222 467.558h-18.432c-5.09 0-9.217 4.133-9.217 9.23 0 5.099 4.127 9.231 9.217 9.231h18.432c5.09 0 9.216-4.132 9.216-9.23 0-5.098-4.126-9.23-9.216-9.23zM2418.304 467.558h-18.432c-5.09 0-9.216 4.133-9.216 9.23 0 5.099 4.126 9.231 9.216 9.231h18.432c5.09 0 9.216-4.132 9.216-9.23 0-5.098-4.126-9.23-9.216-9.23zM2464.385 467.558h-18.432c-5.09 0-9.216 4.133-9.216 9.23 0 5.099 4.126 9.231 9.216 9.231h18.432c5.09 0 9.217-4.132 9.217-9.23 0-5.098-4.126-9.23-9.217-9.23z"/><path stroke="#000" stroke-width="8" d="M2218.2 696.454h86.852v82H2218.2zM2179.303 582.454h164.645v39.884h-164.645zM2333.02 696.454h86.852v82h-86.852zM2103.379 696.454h86.852v82h-86.852z"/><path stroke="#000" stroke-width="8" d="M2070.93 534.327h381.392V785.5H2070.93z"/><path stroke="#000" stroke-linecap="square" stroke-width="8" d="M2076.446 663.913h371.421"/><g fill-rule="nonzero"><g fill="#231F20" transform="translate(2044 124)"><rect width="29.02" height="102.69" x="18.32" y="180.48" rx="14.51"/><rect width="29.02" height="102.69" x="55.54" y="180.48" rx="14.51"/><path d="M14.51 88.51C6.513 88.532.033 95.003 0 103v77.5c.027 8 6.51 14.478 14.51 14.5V88.51zM88.37 88.51V195c8.005-.022 14.488-6.505 14.51-14.51V103c-.033-7.997-6.513-14.468-14.51-14.49z"/><circle cx="51.44" cy="42.09" r="42.09"/><path d="M77.64 88.51l-15.63 11.56-10.57-11.56-10.58 11.56-15.62-11.56h-6.92V197.81h66.23V88.51z"/></g><path fill="#3F3525" d="M2451.58 272.13c-13.31 0-29 8.17-42.58 20.82V257a41.8 41.8 0 0 0 24.56-19.86c8.62-15.58 7.13-36.06 1.22-48.24-.71-1.47-1.4-2.84-2-4.13-5.09-10.23-6-12.08-3.35-21 5.4-18.08 1.89-32.14 1.47-33.68a12.46 12.46 0 0 0-8-8.53 12.23 12.23 0 0 0-4.08-.69 12.43 12.43 0 0 0-7.45 2.47 48.58 48.58 0 0 0-7.87 7.34 54.24 54.24 0 0 0-3.56-5.14 12.48 12.48 0 0 0-19.47 0 51.59 51.59 0 0 0-3.57 5.14 48.51 48.51 0 0 0-7.9-7.37 12.43 12.43 0 0 0-7.45-2.47 12.24 12.24 0 0 0-4.09.69 12.47 12.47 0 0 0-8 8.53c-.42 1.54-3.94 15.6 1.46 33.68 2.66 8.9 1.75 10.75-3.34 21-.65 1.29-1.33 2.66-2 4.13-5.12 10.55-6.92 27.31-1.72 41.73-16.63-10.35-34-15.94-50-15.94-23.25 0-42.2 11.83-50.69 31.65-6.42 15.1-5.43 30.81 2.83 44.2 11.15 18 34.39 29.73 62.16 31.32 19 1.09 52.25 7.75 67.26 39.38-18.08 3.59-32.53 13.28-39.91 22.91-5.46 7.12-3.36 13.34-2.2 15.68 1.78 3.61 5.76 7.91 14.59 7.91a111.5 111.5 0 0 0 12.77-1.2 228.91 228.91 0 0 1 29.48-2.3c9.87.13 19.72.899 29.49 2.3a111.5 111.5 0 0 0 12.77 1.2c8.83 0 12.81-4.3 14.59-7.91 1.15-2.34 3.26-8.56-2.2-15.68-7.59-9.89-22.63-19.85-41.4-23.19 2.65-3.23 8.36-8.15 20.19-12.09h.09c14.4-4.8 28-9.33 38.2-16.51 17.39-12.24 18.17-28 15.75-39-2.81-13.1-12.81-21.2-26.05-21.2z" opacity=".15"/><path fill="#3F3525" d="M2451.58 269.29c-13.31 0-29 8.17-42.58 20.82v-36a41.8 41.8 0 0 0 24.56-19.86c8.62-15.58 7.13-36.06 1.22-48.24-.71-1.46-1.4-2.83-2-4.13-5.09-10.23-6-12.08-3.35-21 5.4-18.08 1.89-32.14 1.47-33.68a12.48 12.48 0 0 0-19.5-6.75 48.58 48.58 0 0 0-7.87 7.34 54.24 54.24 0 0 0-3.56-5.14 12.48 12.48 0 0 0-19.47 0 51.59 51.59 0 0 0-3.57 5.14 48.51 48.51 0 0 0-7.93-7.32 12.48 12.48 0 0 0-19.5 6.75c-.42 1.54-3.94 15.6 1.46 33.68 2.66 8.9 1.75 10.75-3.34 21-.65 1.3-1.33 2.67-2 4.13-5.12 10.55-6.92 27.31-1.72 41.73-16.63-10.35-34-15.93-50-15.94-23.25 0-42.2 11.83-50.69 31.65-6.46 15.1-5.47 30.81 2.79 44.2 11.15 18 34.39 29.73 62.16 31.32 19 1.09 52.25 7.75 67.26 39.39-18.08 3.58-32.53 13.27-39.91 22.9-5.46 7.12-3.36 13.34-2.2 15.68 1.78 3.61 5.76 7.91 14.59 7.91 4.276-.15 8.54-.548 12.77-1.19a227 227 0 0 1 29.48-2.31c9.87.128 19.72.9 29.49 2.31 4.23.642 8.494 1.04 12.77 1.19 8.83 0 12.81-4.3 14.59-7.9 1.15-2.35 3.26-8.57-2.2-15.69-7.59-9.89-22.63-19.85-41.4-23.19 2.65-3.23 8.36-8.15 20.19-12.09h.09c14.4-4.8 28-9.33 38.2-16.51 17.39-12.23 18.17-28 15.75-39-2.81-13.1-12.81-21.2-26.05-21.2z"/><path fill="#C3996C" d="M2390.19 204.16a6.32 6.32 0 0 0-6.31 6.32V345.2c2.89 3.16 5.29 13.42 5.29 13.42s-.31-2.5 3.13-7.85V204.55a6.37 6.37 0 0 0-2.11-.39z"/><path fill="#A87D56" d="M2396.51 210.48a6.29 6.29 0 0 0-4.21-5.93v146.22a51.88 51.88 0 0 1 4.21-5.57V210.48z"/><path fill="#514632" d="M2434.93 388.88c-6.06-7.9-22.37-19.47-44.74-19.47s-38.68 11.59-44.73 19.47c-6.05 7.88 15.79 0 44.73 0 28.94 0 50.81 7.89 44.74 0z"/><path fill="#0FBC59" d="M2465.47 293.1c-7.22-33-76.3 11.45-76.3 65.52a.59.59 0 0 1 0-.13c.6-2.64 12.72-54.11 76.3-65.39z"/><path fill="#0FBC59" d="M2254.71 248.37c-12.63 29.47 13.22 55.81 54.2 58.15 34.51 2 66.84 17.37 80.26 52.1-32.11-114.46-134.46-110.25-134.46-110.25z"/><path fill="#04A344" d="M2389.19 358.49c.33-1.43 4.19-15.58 30.5-24.34 27.08-9 51-17 45.78-41.05-63.58 11.28-75.7 62.75-76.28 65.39zM2348.38 246.13c-40.26-31.57-81-27.23-93.67 2.24 0 0 102.35-4.21 134.46 110.25 0 0-.53-80.91-40.79-112.49z"/><path fill="#EFA3DB" d="M2401.6 161.83c-.11.78-.16 1.22-.16 1.22 0-18.55-11.25-32.56-11.25-32.56s-11.25 14-11.25 32.56c0 0 0-.44-.15-1.22-.54 8.68-1.59 43 11.4 82.53 13-39.54 11.94-73.85 11.41-82.53z"/><path fill="#E589C9" d="M2378.79 161.83c-.69-4.64-4-21.53-17.21-31.34 0 0-3.16 11.64 1.38 26.84s.59 20.32-6.12 34.14-8.09 52.89 33.35 52.89c-12.99-39.54-11.94-73.85-11.4-82.53z"/><path fill="#CC75B6" d="M2423.54 191.47c-6.71-13.82-10.65-18.95-6.11-34.14 4.54-15.19 1.38-26.84 1.38-26.84-13.19 9.81-16.53 26.7-17.21 31.34.53 8.68 1.59 43-11.41 82.53 41.44 0 40.06-39.08 33.35-52.89z"/><path fill="#3F3525" d="M2364.14 384.89a1.66 1.66 0 0 1-1.66 1.66h-4.83a1.66 1.66 0 0 1-1.66-1.66 1.66 1.66 0 0 1 1.66-1.67h4.83a1.66 1.66 0 0 1 1.66 1.67zM2383.88 377.65a1.67 1.67 0 0 1-1.67 1.67h-4.82a1.67 1.67 0 0 1-1.67-1.67 1.66 1.66 0 0 1 1.67-1.66h4.82a1.66 1.66 0 0 1 1.67 1.66zM2396.38 384.89a1.66 1.66 0 0 1-1.67 1.66h-4.82a1.66 1.66 0 0 1-1.67-1.66c0-.922.748-1.67 1.67-1.67h4.82a1.67 1.67 0 0 1 1.67 1.67zM2408.35 376a1.66 1.66 0 0 1-1.67 1.66h-4.82a1.66 1.66 0 0 1-1.67-1.66c0-.922.748-1.67 1.67-1.67h4.82c.922 0 1.67.748 1.67 1.67zM2427.32 386.55a1.67 1.67 0 0 1-1.67 1.67h-4.82a1.67 1.67 0 0 1-1.67-1.67 1.66 1.66 0 0 1 1.67-1.66h4.82a1.66 1.66 0 0 1 1.67 1.66z"/></g><text fill="#000" font-family="iAWriterDuospace-Bold, iA Writer Duospace" font-size="64" font-weight="bold" transform="translate(2022 117)"><tspan x="29" y="782">Frameworks</tspan></text></g><g><g fill-rule="nonzero" transform="translate(2744)"><rect width="33.51" height="118.59" x="21.16" y="289.44" fill="#231F20" rx="16.755"/><rect width="33.51" height="118.59" x="64.14" y="289.44" fill="#231F20" rx="16.755"/><circle cx="59.41" cy="129.61" r="48.61" fill="#231F20"/><path fill="#231F20" d="M71.62 191.15l-12.21-7.93-12.22 7.93-26-7.93v126.23h76.46V183.22l-26.03 7.93zm-12.21-.62l12.21 7.93-6.1 7.82H53.3l-6.11-7.82 12.22-7.93zm0 106.22l-15.52-21.42 10.38-64.77h10.27l10.38 64.77-15.51 21.42zM118.81 200c-.027-9.24-7.51-16.723-16.75-16.75v96.41h16.75V200zM102.06 284.17v22.05c9.243-.027 16.728-7.517 16.75-16.76v-5.29h-16.75zM16.76 279.63v-96.41C7.505 183.242.011 190.745 0 200v79.66l16.76-.03zM0 284.17v5.29c.027 9.245 7.515 16.733 16.76 16.76v-22.05H0z"/><path fill="#3F3525" d="M443.62 81.51l.27-.44A50.85 50.85 0 0 0 447 75l.17-.41c.31-.78.64-1.61.92-2.44l.06-.16.07-.21c.05-.14.1-.28.14-.42l.16-.5c0-.12.07-.23.1-.35l.2-.67.07-.26c.26-.9.41-1.57.51-2.06v-.09-.07a36.14 36.14 0 0 0-59.8-34c-.05-.19-.09-.37-.14-.55a49.83 49.83 0 0 0-2.13-6.51c0-.13-.1-.26-.16-.39-.33-.77-.69-1.59-1.08-2.39l-.16-.34c-.06-.13-.12-.25-.19-.37l-.18-.37-.08-.14-.16-.3-.13-.24-.35-.62c-.37-.67-.73-1.27-1.07-1.78l-.09-.13a36.17 36.17 0 0 0-66.39 18.17c-.15-.09-.3-.19-.45-.27a50.4 50.4 0 0 0-6.11-3.1l-.4-.17c-.82-.32-1.63-.64-2.46-.93l-.24-.08h-.11l-.36-.12-.39-.12-.17-.06-.34-.1-.91-.26c-.91-.26-1.59-.42-2.09-.52h-.21a36.17 36.17 0 0 0-34 59.81l-.51.13a50.86 50.86 0 0 0-6.54 2l-.39.16c-.78.33-1.6.69-2.4 1.08l-.27.12-.37.19-.28.15-.19.1-.36.19-.32.18-.52.28c-.78.44-1.36.8-1.76 1.06l-.22.14a36.19 36.19 0 0 0 18.22 66.38l-.27.44a50.87 50.87 0 0 0-3.09 6.1c-.06.14-.12.27-.17.41-.33.82-.64 1.62-.92 2.44l-.12.33c-.05.13-.1.29-.14.42l-.18.57-.09.3-.13.46-.14.48c-.26.9-.41 1.56-.51 2v.1a.19.19 0 0 1 0 .07 36.13 36.13 0 0 0 59.8 34c.05.19.09.38.14.56a49.64 49.64 0 0 0 2.13 6.5c0 .13.1.27.16.4.33.77.69 1.59 1.08 2.38l.06.14.08.17c.07.15.15.3.22.44v.05l.22.43.16.29v.06l.45.8c.36.66.71 1.25 1 1.75l.1.16a36.1 36.1 0 0 0 8.8 9.26V258a85.32 85.32 0 0 0-16.75-17.84c-20.15-15.8-42.23-24.5-62.17-24.5-23.25 0-42.2 11.83-50.69 31.65-6.42 15.11-5.43 30.81 2.83 44.21 11.15 18 34.39 29.72 62.16 31.31 19 1.09 52.1 7.73 67.15 39.18-18.58 3.41-33.46 13.3-41 23.12-5.46 7.12-3.36 13.34-2.21 15.68 1.78 3.61 5.76 7.91 14.59 7.91a111.3 111.3 0 0 0 12.77-1.2 227.12 227.12 0 0 1 29.54-2.31 227 227 0 0 1 29.48 2.31 111.5 111.5 0 0 0 12.77 1.2c8.84 0 12.81-4.3 14.59-7.91 1.16-2.34 3.26-8.56-2.2-15.68-7.44-9.71-22.08-19.49-40.37-23 2.59-3.23 8.28-8.27 20.35-12.29h.09c14.4-4.79 28-9.32 38.2-16.5 17.4-12.24 18.17-28 15.75-39-2.85-13-12.84-21.14-26.08-21.15-12.81 0-27.92 7.56-41.15 19.47v-54l1.19-.62a36.23 36.23 0 0 0 18.83-30.1l.43.26a51.9 51.9 0 0 0 6.11 3.1l.4.16c.82.33 1.63.65 2.46.93l.21.08h.12l.44.15.5.15.34.1h.07l.84.24a21.27 21.27 0 0 0 2.09.52h.19a35.79 35.79 0 0 0 7.24.74 36.16 36.16 0 0 0 26.79-60.55l.51-.12a51.17 51.17 0 0 0 6.5-2.13l.4-.17c.77-.33 1.59-.68 2.39-1.08l.27-.13.45-.23.42-.21.33-.18.36-.2.49-.27c.82-.46 1.4-.82 1.81-1.09l.19-.12a36.18 36.18 0 0 0-18.24-66.36l.06-.02z" opacity=".15"/><path fill="#3F3525" d="M443.62 78.67l.27-.44a50.85 50.85 0 0 0 3.09-6.1c.06-.14.12-.27.17-.41.31-.78.64-1.61.92-2.44l.06-.15.07-.21c.05-.14.1-.29.14-.43l.16-.5a3.57 3.57 0 0 0 .1-.35l.2-.67.07-.25c.26-.9.41-1.58.51-2.07v-.09-.06a36.14 36.14 0 0 0-59.8-34c-.05-.18-.09-.37-.14-.55a49.64 49.64 0 0 0-2.13-6.5c0-.14-.1-.27-.16-.4-.33-.77-.69-1.59-1.08-2.39l-.16-.34c-.06-.12-.12-.25-.19-.37l-.18-.36-.08-.15-.16-.3-.13-.24-.35-.62c-.37-.67-.73-1.27-1.07-1.78l-.09-.13a36.17 36.17 0 0 0-66.39 18.17l-.45-.27a51.9 51.9 0 0 0-6.11-3.1l-.4-.16c-.82-.33-1.63-.65-2.46-.93l-.2-.08h-.11l-.36-.12-.39-.12-.17-.06-.34-.1-.91-.26c-.91-.26-1.59-.42-2.09-.52h-.21a36.17 36.17 0 0 0-34 59.82l-.51.12a50.86 50.86 0 0 0-6.56 2.01l-.39.16c-.78.34-1.6.7-2.4 1.09l-.27.13-.37.18-.28.15-.19.1-.36.19-.32.18-.52.29c-.78.43-1.36.79-1.76 1.06l-.22.13a36.19 36.19 0 0 0 18.22 66.38l-.27.44a50.87 50.87 0 0 0-3.09 6.1c-.06.14-.12.27-.17.41-.33.82-.64 1.62-.92 2.44l-.12.33c-.05.13-.1.29-.14.42l-.18.57-.09.3-.13.46-.14.48c-.26.9-.41 1.57-.51 2.05v.1a.14.14 0 0 1 0 .07 36.13 36.13 0 0 0 59.8 34c.05.19.09.38.14.56a49.64 49.64 0 0 0 2.13 6.5c0 .14.1.27.16.4.33.77.69 1.59 1.08 2.39l.06.13.08.17c.07.15.15.3.22.44v.06l.22.42.16.3v.05l.45.8c.36.66.71 1.25 1 1.75l.1.16a36.1 36.1 0 0 0 8.8 9.26v22.74a85.32 85.32 0 0 0-16.75-17.84c-20.15-15.8-42.23-24.5-62.17-24.5-23.25 0-42.2 11.83-50.69 31.65-6.42 15.16-5.43 30.87 2.83 44.26 11.15 18 34.39 29.73 62.16 31.32 19 1.08 52.1 7.72 67.15 39.17-18.58 3.41-33.46 13.3-41 23.12-5.4 7.12-3.31 13.34-2.15 15.71 1.78 3.61 5.76 7.91 14.59 7.91a111.3 111.3 0 0 0 12.77-1.2 227.12 227.12 0 0 1 29.48-2.34 227 227 0 0 1 29.48 2.31 111.5 111.5 0 0 0 12.77 1.2c8.84 0 12.81-4.3 14.59-7.91 1.16-2.34 3.26-8.56-2.2-15.68-7.44-9.71-22.08-19.48-40.37-23 2.59-3.23 8.28-8.27 20.35-12.29h.09c14.4-4.79 28-9.32 38.2-16.5 17.4-12.24 18.17-28 15.75-39-2.85-13-12.84-21.14-26.08-21.14-12.81 0-27.92 7.55-41.15 19.46v-54l1.19-.62a36.2 36.2 0 0 0 18.84-30.2l.43.26a51.9 51.9 0 0 0 6.11 3.1l.4.16c.82.33 1.63.65 2.46.93l.21.08h.12l.44.15.5.15.34.11h.07l.84.24c.92.26 1.6.42 2.09.52h.19a36.18 36.18 0 0 0 34-59.82l.51-.12a51.17 51.17 0 0 0 6.5-2.13l.4-.16c.77-.34 1.59-.69 2.39-1.09l.27-.13c.15-.07.31-.14.45-.22l.42-.22.33-.18.36-.2.49-.27c.82-.45 1.4-.81 1.81-1.09l.19-.12a36.18 36.18 0 0 0-18.24-66.36l.08.08z"/><path fill="#C3996C" d="M360.64 205.17a6.32 6.32 0 0 0-6.32 6.32v134.72c0 3.48 3.87 13.29 3.87 13.29s0-4.09 3.93-8.84V205.37a6 6 0 0 0-1.48-.2z"/><path fill="#A87D56" d="M362.12 205.37v145.29a25.37 25.37 0 0 1 4.84-4.45V211.49a6.3 6.3 0 0 0-4.84-6.12z"/><path fill="#514632" d="M402.74 389.89c-6.05-7.9-22.37-19.48-44.73-19.48-22.36 0-38.68 11.59-44.73 19.48-6.05 7.89 15.78 0 44.73 0 28.95 0 50.78 7.89 44.73 0z"/><path fill="#EFA3DB" d="M373.25 23.18l.12.18s.29.45.58 1l.48.85.25.5.19.39c.27.54.54 1.18.85 1.89a39.9 39.9 0 0 1 1.63 4.92c.23.95.48 2 .69 3 .21 1 .34 2.15.53 3.3.34 2.3.57 4.75.75 7.32.18 2.57.26 5.26.14 8-.05 1.37 0 2.76-.15 4.15-.15 1.39-.25 2.79-.38 4.21s-.31 2.8-.55 4.2l-.69 4.17c-.58 2.76-1.32 5.46-2 8.07-.85 2.55-1.69 5.06-2.51 7.49l-2.82 6.66c-.9 2.09-2 4-2.92 5.69-.92 1.69-1.74 3.3-2.64 4.61l-2.21 3.4-1.93 2.91a7 7 0 0 1-12.76-4.31l.1-.78s.08-1.13.21-3.12c.07-1 .16-2.15.25-3.51.115-1.5.141-3.006.08-4.51 0-1.64.05-3.38-.12-5.23-.17-1.85-.31-3.71-.47-5.68-.16-1.97-.63-3.87-1-5.88-.51-2-.94-3.9-1.49-5.8l-.89-2.79a25.45 25.45 0 0 0-1-2.7l-1-2.57c-.34-.83-.78-1.62-1.15-2.41-.71-1.57-1.6-3-2.35-4.31-.75-1.31-1.6-2.49-2.37-3.5-.77-1.01-1.47-1.91-2.07-2.63-.26-.4-.54-.72-.76-1-.22-.28-.43-.57-.57-.79a5.27 5.27 0 0 1-.37-.53l-.07-.12v.06s.09.09 0-.11l-.11-.19-.12-.23c-6.038-11.154-2.22-25.085 8.662-31.602 10.881-6.517 24.965-3.306 31.948 7.282l.01.05z"/><path fill="#CC75B6" d="M343.5 216.32l-.12-.18s-.29-.45-.58-1l-.47-.86c-.09-.15-.17-.32-.26-.49l-.19-.39c-.27-.54-.54-1.18-.85-1.89a39.9 39.9 0 0 1-1.63-4.92c-.23-1-.47-2-.69-3-.22-1-.34-2.15-.53-3.3-.34-2.3-.57-4.75-.75-7.32-.18-2.57-.26-5.26-.14-8 .05-1.37 0-2.76.15-4.15.15-1.39.25-2.79.38-4.21s.31-2.81.55-4.2l.69-4.17c.58-2.76 1.32-5.46 2-8.07l2.5-7.49 2.83-6.67c.9-2.08 2-3.94 2.92-5.68.92-1.74 1.74-3.3 2.64-4.61l2.21-3.41 1.93-2.91a7 7 0 0 1 12.76 4.32l-.05.75s-.08 1.13-.21 3.12c-.07 1-.16 2.15-.25 3.51a40.91 40.91 0 0 0-.08 4.51c0 1.64-.05 3.38.12 5.22.17 1.84.31 3.72.47 5.69.16 1.97.63 3.87 1 5.87.51 2 .94 3.91 1.49 5.81l.89 2.79c.28.915.614 1.814 1 2.69l1 2.57c.34.84.78 1.63 1.15 2.42.71 1.57 1.6 3 2.35 4.31.75 1.31 1.6 2.49 2.37 3.5.77 1.01 1.47 1.91 2.07 2.63.26.39.54.71.76 1 .22.29.43.58.57.8.136.167.26.344.37.53l.07.12v-.06s-.09-.09 0 .11l.11.19.12.23c6.038 11.154 2.22 25.085-8.662 31.602-10.881 6.517-24.965 3.306-31.948-7.282l-.06-.03z"/><path fill="#E589C9" d="M455 134.63l-.18.12s-.46.29-1 .57l-.86.48-.49.26-.39.18c-.55.27-1.18.55-1.9.86a39.34 39.34 0 0 1-4.92 1.63c-.94.23-2 .47-3 .68l-3.31.53c-2.29.34-4.75.57-7.32.76-2.57.19-5.25.26-8 .14-1.38-.05-2.76 0-4.16-.16l-4.2-.38a40.08 40.08 0 0 1-4.21-.55l-4.17-.69c-2.75-.58-5.45-1.31-8.07-2l-7.48-2.5-6.67-2.82c-2.09-.9-3.94-2-5.68-2.93a52.82 52.82 0 0 1-4.61-2.64L371 124l-3-1.95a7 7 0 0 1 4.32-12.76l.75.06 3.11.21 3.51.25c1.5.105 3.006.131 4.51.08 1.65 0 3.39 0 5.23-.13l5.68-.46 5.88-1c2-.5 3.91-.94 5.8-1.48l2.8-.9a21 21 0 0 0 2.69-1l2.57-1c.84-.33 1.63-.78 2.41-1.14 1.58-.72 3-1.6 4.32-2.36 1.32-.76 2.49-1.59 3.5-2.36 1.01-.77 1.9-1.47 2.62-2.07.4-.27.72-.54 1-.77l.8-.57a3.68 3.68 0 0 1 .53-.37l.11-.07h-.06s-.09.08.12 0l.18-.1.24-.13c11.225-6.732 25.783-3.09 32.515 8.135 6.732 11.225 3.09 25.783-8.135 32.515zM261.8 104.87l.18-.12s.46-.29 1-.57l.86-.48.49-.26.4-.19c.54-.26 1.17-.54 1.89-.85a39.34 39.34 0 0 1 4.92-1.63c.94-.23 1.95-.47 3-.69l3.31-.52c2.29-.35 4.75-.57 7.32-.76 2.57-.19 5.25-.26 8-.14 1.38 0 2.76 0 4.16.15l4.2.38c1.41.11 2.81.31 4.21.55l4.17.7c2.75.58 5.45 1.31 8.07 2l7.48 2.51 6.67 2.82c2.09.9 3.94 2 5.68 2.93a52.9 52.9 0 0 1 4.61 2.63l3.41 2.21 2.91 1.94a7 7 0 0 1-4.32 12.75h-.75l-3.11-.21-3.51-.25a40.91 40.91 0 0 0-4.51-.08c-1.65 0-3.39-.05-5.23.12l-5.68.47-5.88 1c-2 .5-3.91.93-5.8 1.48l-2.8.89a22.65 22.65 0 0 0-2.69 1l-2.57 1c-.84.34-1.63.79-2.41 1.15-1.58.71-3 1.6-4.32 2.36-1.32.76-2.49 1.59-3.5 2.36-1.01.77-1.9 1.47-2.62 2.07-.4.27-.72.54-1 .76-.28.22-.58.43-.8.57a3.58 3.58 0 0 1-.53.38l-.11.07h.06s.09-.08-.12 0l-.18.1-.23.13c-11.247 6.719-25.811 3.047-32.53-8.2-6.719-11.247-3.047-25.811 8.2-32.53z"/><path fill="#CC75B6" d="M437.18 62v.21c0 .13-.12.53-.28 1.1l-.27.94c-.05.17-.11.35-.16.53l-.15.41c-.2.57-.45 1.22-.73 1.94a40.13 40.13 0 0 1-2.33 4.63c-.51.83-1.05 1.72-1.64 2.62l-2 2.71c-1.38 1.86-3 3.76-4.65 5.71-1.65 1.95-3.53 3.9-5.56 5.75-1 .94-2 1.93-3 2.83l-3.24 2.71c-1.07.92-2.21 1.76-3.37 2.58l-3.43 2.46c-2.37 1.54-4.79 2.93-7.11 4.31l-7.06 3.52-6.72 2.72c-2.11.84-4.22 1.35-6.08 2-1.86.65-3.56 1.11-5.13 1.4l-4 .84-3.42.69a7 7 0 0 1-6-12.07l.57-.49 2.35-2.06 2.66-2.3a43.93 43.93 0 0 0 3.24-3.13c1.13-1.2 2.43-2.36 3.61-3.79l3.72-4.42 3.47-4.84c1-1.74 2.1-3.42 3.06-5.15l1.34-2.61a22.56 22.56 0 0 0 1.23-2.58c.36-.86.72-1.71 1.08-2.55.35-.83.6-1.71.89-2.52.61-1.62 1-3.24 1.39-4.71.39-1.47.63-2.89.8-4.15.17-1.26.31-2.39.39-3.32.079-.413.136-.83.17-1.25.05-.35.11-.71.16-1a4.43 4.43 0 0 1 .11-.64v-.13 0l.06-.21.08-.25c3.192-12.689 16.066-20.387 28.755-17.195S440.372 49.311 437.18 62z"/><path fill="#EFA3DB" d="M279.57 177.51v-.21c0-.14.12-.52.28-1.09l.27-.94c0-.17.11-.35.16-.53l.15-.41c.2-.57.45-1.22.73-1.94a41 41 0 0 1 2.33-4.64c.51-.83 1-1.71 1.64-2.61l2-2.71c1.38-1.86 3-3.76 4.65-5.71a63.64 63.64 0 0 1 5.56-5.76c1-.93 2-1.92 3-2.83l3.24-2.7a40.41 40.41 0 0 1 3.42-2.58l3.43-2.47c2.37-1.53 4.79-2.92 7.11-4.3l7.06-3.52 6.72-2.72c2.11-.84 4.22-1.35 6.08-2a52.59 52.59 0 0 1 5.13-1.4l4-.84 3.42-.69a7 7 0 0 1 6 12.07l-.57.49-2.38 2.11-2.66 2.3a40.23 40.23 0 0 0-3.24 3.13c-1.13 1.2-2.43 2.36-3.61 3.79l-3.69 4.35-3.51 4.85c-1 1.74-2.1 3.42-3.06 5.15l-1.34 2.6c-.463.836-.87 1.7-1.22 2.59l-1.09 2.55c-.35.83-.6 1.7-.89 2.52-.61 1.62-1 3.24-1.39 4.71-.39 1.47-.63 2.89-.8 4.15-.17 1.26-.31 2.39-.39 3.32-.079.413-.136.83-.17 1.25 0 .35-.11.71-.16 1a4.43 4.43 0 0 1-.11.64v.13-.07.11l-.06.2-.07.26c-3.57 12.22-16.16 19.434-28.509 16.334-12.348-3.1-20.037-15.406-17.411-27.864l-.05-.07zM416.14 198.56l-.21-.05a9.76 9.76 0 0 1-1.09-.28l-1-.26-.53-.17-.41-.15c-.57-.19-1.21-.44-1.94-.73a38.58 38.58 0 0 1-4.63-2.33c-.83-.5-1.72-1.05-2.61-1.64l-2.71-2c-1.87-1.38-3.76-3-5.71-4.64-1.95-1.64-3.9-3.54-5.76-5.56-.94-1-1.93-2-2.83-3l-2.7-3.24c-.92-1.07-1.77-2.2-2.59-3.36L379 167.7c-1.53-2.36-2.92-4.79-4.31-7.11l-3.52-7.06c-.94-2.33-1.85-4.58-2.72-6.71-.87-2.13-1.35-4.23-2-6.09-.65-1.86-1.1-3.56-1.39-5.12-.29-1.56-.61-2.87-.85-4l-.69-3.43a7 7 0 0 1 12.07-6l.5.57 2 2.35 2.31 2.66a42 42 0 0 0 3.13 3.25c1.19 1.13 2.36 2.42 3.78 3.61l4.35 3.68 4.84 3.48c1.74 1 3.42 2.1 5.15 3l2.61 1.34a23.54 23.54 0 0 0 2.59 1.23l2.55 1.08c.83.36 1.7.6 2.51.89a47.83 47.83 0 0 0 4.72 1.39c1.49.34 2.89.64 4.15.8 1.26.16 2.38.31 3.32.4.47.09.89.12 1.24.16l1 .16c.24 0 .46.07.64.12h.13-.06s-.12 0 .11.05l.2.06.25.08c12.205 3.58 19.405 16.16 16.31 28.497-3.095 12.337-15.38 20.028-27.83 17.423l.05.1z"/><path fill="#CC75B6" d="M300.61 40.94l.21.05c.05 0 .53.11 1.09.27l1 .27.53.17.41.14c.57.2 1.22.45 1.94.74a38.58 38.58 0 0 1 4.63 2.33c.83.5 1.72 1 2.61 1.63l2.71 2c1.87 1.38 3.76 3 5.71 4.64 1.95 1.64 3.9 3.53 5.76 5.56.94 1 1.93 2 2.83 3l2.7 3.24c.92 1.07 1.77 2.2 2.59 3.36l2.46 3.44c1.53 2.36 2.92 4.79 4.31 7.11l3.47 7.11c.94 2.33 1.85 4.58 2.72 6.71.87 2.13 1.35 4.22 2 6.08.65 1.86 1.1 3.57 1.39 5.13.29 1.56.61 2.87.85 4l.69 3.43a7 7 0 0 1-12.07 6l-.5-.57s-.74-.86-2-2.35l-2.31-2.66a42 42 0 0 0-3.13-3.25c-1.19-1.13-2.36-2.43-3.78-3.61l-4.43-3.78-4.84-3.47c-1.74-1-3.43-2.1-5.15-3l-2.61-1.35a23.46 23.46 0 0 0-2.61-1.31l-2.55-1c-.83-.36-1.7-.6-2.51-.9-1.62-.61-3.25-1-4.72-1.38-1.47-.38-2.89-.64-4.15-.81-1.26-.17-2.38-.31-3.32-.39-.46-.09-.89-.13-1.24-.17-.35-.04-.71-.1-1-.16a4.69 4.69 0 0 1-.64-.11h-.13.06s.12 0-.1-.06l-.21-.06-.25-.07c-12.689-3.198-20.383-16.076-17.185-28.765 3.198-12.689 16.076-20.383 28.765-17.185z"/><path fill="#FFFBCA" d="M378.71 119.63c0 11.294-9.156 20.45-20.45 20.45-11.294 0-20.45-9.156-20.45-20.45 0-11.294 9.156-20.45 20.45-20.45 11.294 0 20.45 9.156 20.45 20.45z"/><path fill="#04A344" d="M358.19 359.5c.33-1.44 4.19-15.58 30.5-24.34 27.08-9 51-17 45.78-41.05-63.58 11.28-75.7 62.75-76.28 65.39z"/><path fill="#0FBC59" d="M223.71 249.38c-12.63 29.47 13.22 55.8 54.2 58.15 34.51 2 66.83 17.36 80.25 52.1-32.1-114.46-134.45-110.25-134.45-110.25zM434.47 294.11c-7.22-33-76.31 11.44-76.31 65.52v-.13c.61-2.64 12.73-54.11 76.31-65.39z"/><path fill="#04A344" d="M317.38 247.14c-40.26-31.58-81-27.23-93.67 2.24 0 0 102.35-4.21 134.45 110.25 0 0-.52-80.92-40.78-112.49z"/><path fill="#3F3525" d="M331.56 387.56a1.66 1.66 0 0 1-1.66 1.67h-4.83a1.66 1.66 0 0 1-1.66-1.67c0-.917.743-1.66 1.66-1.66h4.83c.917 0 1.66.743 1.66 1.66zM344.59 380.24a1.66 1.66 0 0 1-1.67 1.66h-4.82a1.66 1.66 0 0 1-1.67-1.66c0-.922.748-1.67 1.67-1.67h4.82c.922 0 1.67.748 1.67 1.67zM366.38 376.9a1.66 1.66 0 0 1-1.67 1.67h-4.82a1.67 1.67 0 0 1-1.67-1.67 1.66 1.66 0 0 1 1.67-1.66h4.82a1.66 1.66 0 0 1 1.67 1.66zM358 384.23a1.67 1.67 0 0 1-1.67 1.67h-4.82a1.67 1.67 0 1 1 0-3.34h4.82c.922 0 1.67.748 1.67 1.67zM377.35 384.23a1.67 1.67 0 0 1-1.67 1.67h-4.82a1.67 1.67 0 1 1 0-3.34h4.82c.922 0 1.67.748 1.67 1.67zM388.4 380.24a1.66 1.66 0 0 1-1.67 1.66h-4.82a1.66 1.66 0 0 1-1.67-1.66c0-.922.748-1.67 1.67-1.67h4.82c.922 0 1.67.748 1.67 1.67zM396.56 387.56a1.67 1.67 0 0 1-1.67 1.67h-4.82a1.67 1.67 0 0 1-1.67-1.67 1.66 1.66 0 0 1 1.67-1.66h4.82a1.66 1.66 0 0 1 1.67 1.66z"/><path fill="#000" d="M469.789 440H9.21C4.124 440 0 444.135 0 449.237v332.526C0 786.865 4.124 791 9.211 791H469.79c5.087 0 9.211-4.135 9.211-9.237V449.237c0-5.102-4.124-9.237-9.211-9.237zm-9.212 332.526H18.423v-258.63h442.153l.001 258.63zm0-277.105H18.423v-36.948h442.153v36.948h.001z"/><path fill="#000" d="M350.75 468h-18.5c-5.109 0-9.25 4.03-9.25 9s4.141 9 9.25 9h18.5c5.109 0 9.25-4.03 9.25-9s-4.141-9-9.25-9zM396.75 468h-18.5c-5.109 0-9.25 4.03-9.25 9s4.141 9 9.25 9h18.5c5.109 0 9.25-4.03 9.25-9s-4.141-9-9.25-9zM442.75 468h-18.5c-5.109 0-9.25 4.03-9.25 9s4.141 9 9.25 9h18.5c5.109 0 9.25-4.03 9.25-9s-4.141-9-9.25-9z"/><path fill="#F66" d="M283 617.389V606c-68.607 0-124 55.173-124 123h11.434c0-61.5 50.312-111.611 112.566-111.611z"/><path fill="#FFFB80" d="M171 729h11.377c0-55.365 45.002-100.571 100.623-100.571V617c-61.941 0-112 50.286-112 112z"/><path fill="#A3E66F" d="M283 640.364V629c-55.83 0-101 44.697-101 100h11.42c0-48.99 40.095-88.636 89.58-88.636"/><path fill="#66C2FF" d="M194 729h11.346c.252-42.852 34.793-77.59 77.654-77.59V640c-49.164 0-89 39.81-89 89z"/><path fill="#9180FF" d="M283 663.47V652c-43.192 0-78 34.922-78 78h11.433c0-36.706 29.727-66.53 66.567-66.53"/><path fill="#FFF" d="M151.224 755a19.31 19.31 0 0 1-5.319-.759C138.813 751.965 134 745.39 134 738.054c0-4.805 2.026-9.61 5.826-12.898l3.04-2.277 1.013-4.046c2.786-9.864 12.158-16.693 22.29-16.693 1.013 0 2.026 0 3.293.253 1.013.253 1.773.253 2.786.506l.507-.759c4.052-7.335 12.158-12.14 20.517-12.14 12.918 0 23.556 10.623 23.556 23.521v2.277c1.014.506 2.027.758 3.04 1.264 6.333 3.541 10.132 10.37 10.132 17.452 0 9.358-6.586 17.451-15.704 19.727-1.52.253-3.04.506-4.56.506l-58.512.253"/><path fill="#75D6FF" d="M193.86 692.87c11.108 0 20.196 8.904 20.196 20.098v1.527c-4.544.254-8.835 2.29-12.117 5.088 2.524-1.526 5.301-2.29 8.33-2.29 1.01 0 2.273 0 3.282.255 1.768.254 3.535 1.017 5.05 2.035 5.049 2.799 8.33 8.396 8.33 14.502 0 7.887-5.554 14.756-13.127 16.537-1.262.254-2.525.509-3.787.509H151.45c-1.515 0-3.03-.255-4.292-.764-5.554-1.78-9.34-6.869-9.34-12.975 0-4.07 1.766-7.887 4.796-10.43 1.262-1.273 2.777-2.036 4.544-2.545a14.195 14.195 0 0 1 4.544-.763c4.292 0 8.33 2.035 10.855 5.342-3.029-5.342-8.33-9.159-14.642-9.667 2.272-8.142 9.846-14.248 18.934-14.248 1.01 0 2.02 0 2.777.255 1.767.254 3.534.763 5.302 1.526 6.058 2.799 10.602 8.396 11.612 15.265 0-7.887-4.039-14.502-10.098-18.572 3.282-6.615 9.846-10.686 17.42-10.686zm0-6.87c-9.34 0-17.924 4.834-22.72 12.466h-.505c-1.515-.254-2.525-.254-3.787-.254-11.865 0-22.216 7.887-25.497 19.336l-.758 2.798c-.757.51-1.767 1.272-2.524 1.781A19.882 19.882 0 0 0 131 737.392c0 8.905 5.554 16.792 14.137 19.59 2.02.764 4.292 1.018 6.564 1.018h58.569c1.767 0 3.534-.254 5.301-.509C226.426 754.947 234 745.534 234 734.34c0-8.396-4.544-16.282-11.865-20.608-.253-.254-.758-.508-1.01-.508v-.255c-.252-15.01-12.37-26.968-27.265-26.968z"/><path fill="#6ADBC6" d="M101 593.131s-3.853-24.352-3.853-26.172c0-1.821 1.813-2.959 3.853-2.959s3.853 1.366 3.853 3.186c0 1.82-3.853 25.945-3.853 25.945m0 5.69s3.853 24.351 3.853 26.172c0 1.593-1.813 3.186-3.853 3.186s-3.853-1.365-3.853-3.186c0-1.82 3.853-26.172 3.853-26.172m-2.947-2.959s-24.253 3.869-26.066 3.869c-1.587 0-3.174-1.82-3.174-3.869 0-2.048 1.36-3.869 3.174-3.869 1.813 0 26.066 3.87 26.066 3.87m5.894 0s24.253-3.87 26.066-3.87c1.587 0 3.174 1.82 3.174 3.87 0 2.047-1.36 3.868-3.174 3.868-1.813 0-26.066-3.869-26.066-3.869m-4.987-2.048s-19.947-14.566-21.08-15.704c-1.133-1.138-.907-3.413.68-5.007 1.587-1.593 3.627-1.82 4.987-.682.906 1.593 15.413 21.393 15.413 21.393m4.08 4.096s19.947 14.566 21.08 15.704c1.133 1.138.907 3.414-.68 5.007-1.587 1.593-3.627 1.82-4.987.682-.906-1.365-15.413-21.393-15.413-21.393m-4.08 0s-14.507 20.028-15.64 21.166c-1.133 1.138-3.4.91-4.987-.683-1.586-1.593-1.813-3.641-.68-5.007 1.36-.91 21.307-15.476 21.307-15.476m4.08-4.096s14.507-20.028 15.64-21.166c1.133-1.138 3.4-.91 4.987.683 1.586 1.593 1.813 3.641.68 5.007-1.36 1.138-21.307 15.476-21.307 15.476"/><path fill="#FFCE31" d="M100.167 591.731S80 552.446 78.854 549.721c-1.146-2.725-.458-5.677 1.604-6.586 2.063-.908 4.584.909 5.73 3.634 1.145 2.725 13.979 44.962 13.979 44.962m3.666 9.538s20.167 39.285 21.313 42.01c1.146 2.725.458 5.677-1.604 6.586-2.063.908-4.584-.909-5.73-3.634-1.145-2.725-13.979-44.962-13.979-44.962m-6.645-2.725s-39.646 19.983-42.396 21.119c-2.75 1.135-5.73.454-6.646-1.59-.917-2.044.916-4.542 3.666-5.677 2.98-1.136 45.376-13.852 45.376-13.852m9.624-3.86s39.646-19.984 42.396-21.12c2.75-1.135 5.73-.454 6.646 1.59.917 2.044-.917 4.542-3.667 5.677l-45.375 13.852m-9.624-.227s-42.167-13.625-45.146-14.76c-2.98-1.136-4.355-3.634-3.438-5.677.917-2.044 3.896-2.498 6.646-1.363 2.75 1.136 41.938 21.8 41.938 21.8m9.624 4.088s42.167 13.625 45.146 14.76c2.75 1.136 4.355 3.86 3.667 5.677-.917 2.044-3.896 2.498-6.646 1.363-2.979-1.136-42.167-21.8-42.167-21.8m-6.874 2.725s-13.75 41.783-14.896 44.735c-1.146 2.725-3.896 4.315-5.73 3.634-2.062-.909-2.52-3.86-1.374-6.586 1.145-2.952 22-41.783 22-41.783m4.124-9.31s13.75-41.784 14.896-44.736c1.146-2.952 3.667-4.542 5.73-3.633 2.062.908 2.52 3.86 1.374 6.585-1.145 2.952-22 41.783-22 41.783"/><path fill="#42ADE2" d="M101.5 630.769s3.882 28.483 3.882 30.534c0 2.051-1.827 3.646-3.882 3.646s-3.882-1.595-3.882-3.646c0-2.05 3.882-30.534 3.882-30.534zm0-70.867s-3.882-26.661-3.882-28.484c0-1.823 1.599-3.418 3.882-3.418 2.283 0 3.882 1.595 3.882 3.418 0 1.823-3.882 28.484-3.882 28.484zm24.432 60.84s22.833 17.319 24.431 18.686c1.37 1.367 1.37 3.874-.228 5.24-1.598 1.368-3.882 1.596-5.252.229-1.598-1.367-18.951-24.154-18.951-24.154zm-50.234-50.13s-21.691-15.951-22.833-17.319c-1.37-1.367-1.142-3.645.457-5.24 1.598-1.596 3.881-1.596 5.251-.456.914 1.367 17.125 23.014 17.125 23.014zm50.234 1.367s17.353-22.787 18.723-24.382c1.37-1.367 3.882-1.367 5.252.228 1.598 1.595 1.598 3.873.228 5.24-1.37 1.596-24.203 18.914-24.203 18.914zm-50.234 50.13s-15.983 21.648-17.353 22.788c-1.37 1.367-3.653 1.14-5.252-.456-1.598-1.595-1.826-3.646-.456-4.785 1.37-1.367 23.061-17.546 23.061-17.546zm60.28-25.748s28.542-3.874 30.597-3.874c2.055 0 3.425 1.595 3.425 3.874 0 2.05-1.598 3.873-3.653 3.873-1.827 0-30.369-3.873-30.369-3.873zm-71.011 0s-26.715 3.873-28.542 3.873c-1.827 0-3.425-1.595-3.425-3.873 0-2.279 1.598-3.874 3.425-3.874 1.827 0 28.542 3.874 28.542 3.874z"/><ellipse cx="75.698" cy="535.064" fill="#42ADE2" rx="4.11" ry="4.102"/><ellipse cx="127.758" cy="535.064" fill="#42ADE2" rx="4.11" ry="4.102"/><ellipse cx="74.557" cy="657.885" fill="#42ADE2" rx="4.11" ry="4.102"/><ellipse cx="126.617" cy="657.885" fill="#42ADE2" rx="4.11" ry="4.102"/><ellipse cx="39.622" cy="621.882" fill="#42ADE2" rx="4.11" ry="4.102"/><ellipse cx="39.622" cy="569.928" fill="#42ADE2" rx="4.11" ry="4.102"/><ellipse cx="162.693" cy="623.021" fill="#42ADE2" rx="4.11" ry="4.102"/><ellipse cx="162.693" cy="571.067" fill="#42ADE2" rx="4.11" ry="4.102"/><path fill="#FF9C70" d="M303 528l10.593 14c.722-1.424 1.685-2.847 2.407-4.508L303 528"/><path fill="#FFE76E" d="M320.217 551c1.674-2.167 3.348-4.333 4.783-6.5l-8.609-6.5c-.717 1.444-1.674 2.889-2.391 4.574l6.217 8.426"/><path fill="#D3FF75" d="M326.034 559l7.966-8.115-9.172-6.885c-1.69 2.213-3.38 4.426-4.828 6.64l6.034 8.36"/><path fill="#59FFBA" d="M331.667 567L343 558.138 333.792 551 326 559.123l5.667 7.877"/><path fill="#73DEFF" d="M337.933 574c5.438-2.824 10.876-5.882 16.067-8.706L343.865 558 332 566.47l5.933 7.53"/><path fill="#8387F7" d="M353.931 566c-5.392 2.966-10.784 6.18-15.931 9.146L347.559 588l12.01-12.112 3.431-3.461-9.069-6.427"/><path fill="#FF639B" d="M376.145 565.774s10.161-17.224 53.71-21.348C385.58 539.574 373 555.586 373 555.586s1.694 6.55 3.145 10.188"/><path fill="#FF639B" d="M373.242 568.2s21.774-15.283 60.726-12.615l-35.565 17.224s20.323 2.911 47.903 4.61l-28.79 9.46s10.161 6.308 28.549 12.373l-19.355 2.911s15.242.97 21.048 15.04l-13.306-.97s6.048 14.313 13.306 22.561l-12.58-7.277s7.257 12.372 12.58 24.502l-13.064-3.882c6.048 14.313 11.612 20.378 11.612 20.378-32.66-9.704-73.064-104.315-73.064-104.315"/><path fill="#FCA9C9" d="M369 572.162s28.837-13.089 69.55-3.878l-44.105 8.726s29.564 1.455 47.497 14.06h-28.353s17.69 4.12 25.687 17.21l-16.72-1.697s18.174 7.757 25.444 23.27l-17.69-9.21s14.055 7.513 12.116 32.48l-10.178-21.33s3.878 25.936 11.632 31.996l-10.662-.243c4.846 5.333 7.27 9.454 7.27 9.454h-26.172L369 572.162"/><path fill="#B2C1C0" d="M366.11 569.099s-1.473-10.536 6.378-26.099c0 0 10.059 12.211 12.512 34l-18.89-7.901"/><path fill="#EFF6F7" d="M323.214 652.5c3.628 2.407 12.094-7.222 21.77-8.907 36.284-6.741 29.51-20.704 29.51-20.704 9.918 12.278-5.32 41.167-14.029 49.111H434c-.484-96.296-60.715-104-60.715-104-1.935-17.333-16.932-26-16.932-26-4.596 10.833-2.419 30.093-2.419 30.093-7.499 13-45.717 48.87-50.071 54.166-4.354 5.297 9.191 21.185 9.191 21.185 3.629.482 8.225 3.612 10.16 5.056"/><path fill="#B2C1C0" d="M334.04 649c1.92-1.457 6.48-4.371 13.44-5.829 4.8-.971 9.36-2.428 13.68-4.371 4.32-1.943 8.16-4.614 10.56-8.743 2.16-3.886 2.16-8.986.48-13.357 2.64 3.886 3.6 9.471 1.2 14.329-2.16 4.857-6.72 8.014-11.28 9.957-4.56 2.185-9.36 3.4-14.4 4.128-5.76.729-11.28 2.915-13.68 3.886m-21.36-15.057c-1.2.971-4.32 1.457-5.28.243-.96-1.215.72-3.886 1.92-4.615 1.2-.971 2.88-.728 3.84.486.96 1.457.72 3.157-.48 3.886m23.28-6.557c-.24 5.585-3.12 11.171-7.44 15.057-2.16 1.943-4.8 3.643-7.44 4.614-2.64.972-5.76 1.457-8.64 1.457 5.52-1.7 10.56-4.128 14.4-7.771 1.92-1.7 3.6-3.886 5.28-6.072 1.44-2.185 2.88-4.614 3.84-7.285"/><path fill="#3E4347" d="M338 608.471s2.175-1.7 4.108-1.214c0 0-2.658 2.672-.725 7.043 0 0 2.175-5.1 6.042-5.343 0 0-2.658 3.643.725 7.043 0 0 .725-5.1 5.558-6.8 0 0-.725 2.671 1.692 6.071 0 0-.725-4.614 2.658-7.042 3.384-2.186 7.25-3.643 8.942-9.229 0 0-8.217 8.5-19.575 6.071-2.658-.971-7.008-1.7-9.425 3.4"/><path fill="#B2C1C0" d="M359.854 575.273c-4.12-5.334-1.454-20.364-.97-22.546.485-2.424 14.054 6.788 10.42 23.03-.242 1.455-.97 2.91-2.423 2.91-1.454 0-1.454-4.122-.727-6.788.727-2.667-.97 0-1.454 1.697-.727 1.94-1.212.485-.97-1.455.243-1.94-1.453 1.94-.968 4.121.242 2.182 0 2.667-2.908-.97m-49.43 49.698c-1.212.727-.97 1.212 0 .727 1.21-.485 6.541-1.697 7.026 3.879 0 0 .242 2.666.97 0 .726-2.424-.728-8.97-7.997-4.606"/><path fill="#FF639B" d="M353.697 566.846s6.545 26.654 32.727 40.223c0 0-64.485-14.054-32.727-40.223m19.636 1.939s16.485 43.615 50.425 55.73c-33.455-31.984-25.213-49.915-51.88-62.515 0 0 0 3.15 1.455 6.785"/><path fill="#B2C1C0" d="M374.899 624s15.096 9.848 4.073 49H361s22.286-26.902 13.899-49"/></g><text fill="#000" font-family="iAWriterDuospace-Bold, iA Writer Duospace" font-size="64" font-weight="bold" transform="translate(2696)"><tspan x="0" y="899">Grid and beyond</tspan></text></g></g></svg>
