<svg xmlns="http://www.w3.org/2000/svg" viewBox="0 0 1357 535"><g fill="none" fill-rule="evenodd"><path stroke="#676767" stroke-linecap="round" stroke-width="14" d="M818.882 438.305c-2.239 11.515-3.358 24.265-3.358 38.25 0 13.984 1.12 26.734 3.358 38.25M882.054 438.305v76.5M459.977 438.305v76.5M523.148 438.305c3.012 16.472 4.518 29.222 4.518 38.25 0 9.027-1.506 21.777-4.518 38.25M125.851 450.938v76.5M189.023 450.938v76.5M1160.7 438.305c-3.479 16.984-5.218 29.734-5.218 38.25 0 8.515 1.74 21.265 5.217 38.25M1223.871 438.305c4.212 16.165 6.318 28.915 6.318 38.25s-2.106 22.085-6.318 38.25M599.402 338.695c20.114-22.432 35.643-46.599 46.585-72.5 10.943-25.9 16.766-52.703 17.47-80.406M969.615 338.695c20.115-22.432 35.643-46.599 46.586-72.5 10.943-25.9 16.766-52.703 17.469-80.406M265.073 351.328c20.115-22.432 35.644-46.599 46.586-72.5 10.943-25.9 16.766-52.703 17.47-80.406M71.655 277.531c-20.114 22.433-35.643 46.6-46.586 72.5-10.942 25.901-16.765 52.703-17.468 80.406M1285.757 305.922c20.114 22.432 35.643 46.599 46.586 72.5 10.942 25.9 16.765 52.703 17.468 80.406"/><path stroke="#676767" stroke-linecap="round" stroke-width="14" d="M388.183 351.328c-20.115-22.432-35.643-46.599-46.586-72.5-10.943-25.9-16.766-52.703-17.469-80.406M723.369 338.695c-20.115-22.432-35.643-46.599-46.586-72.5-10.943-25.9-16.766-52.703-17.469-80.406M1092.488 339.055c-20.115-22.433-35.643-46.6-46.586-72.5-10.943-25.901-16.766-52.703-17.469-80.407"/><g fill-rule="nonzero"><path fill="#2457CC" d="M849.128 198.672c68.208 0 123.268 55.06 123.268 123.268s-55.06 123.267-123.268 123.267c-68.207 0-123.267-55.06-123.267-123.267 0-68.209 55.06-123.268 123.267-123.268z"/><path fill="#A6C5F6" d="M870.494 451.78c62.455-10.683 110.12-64.098 110.12-129.841l-.822 1.643c1.644-12.327 1.644-23.831-.822-32.87-.821 7.395-1.643 11.504-3.287 13.148 0-.822 0-8.218-2.466-18.08-.821-7.395-2.465-14.792-4.93-21.366.821 3.287.821 5.753.821 8.218-9.86-25.476-32.871-57.525-91.217-56.703 0 0 20.544 2.465 29.584 16.435 0 0-9.861-2.465-17.258 1.644 9.04 3.286 17.258 7.395 23.832 11.504h.821c1.644.822 3.287 2.466 4.93 3.287 12.328 9.04 23.833 21.367 23.01 36.98-3.286-4.93-6.574-8.217-11.504-9.039 5.752 22.188 5.752 40.267 1.643 54.238-3.286-9.86-5.752-14.792-8.218-17.257 3.287 29.583-.821 50.95-13.97 64.92 2.466-8.218 3.287-15.614 3.287-21.367-15.614 23.01-32.871 35.337-52.594 36.159-7.396 0-14.793-.822-22.188-3.287-9.861-3.287-18.902-9.04-27.119-17.258 12.327.822 24.653-.821 34.515-6.574l16.435-10.683c2.466-.822 4.11-.822 6.575 0 4.109-.822 5.753-2.466 4.109-6.575-1.644-2.465-4.93-4.93-9.04-7.395-8.218-4.11-17.257-3.287-26.297 2.465-9.04 4.93-17.258 4.93-25.476-.822-4.93-3.286-10.683-8.218-15.613-14.792l-1.644-3.287c-.822 7.396 0 15.614 3.286 27.119-3.286-10.683-4.109-19.723-3.286-27.119 0-5.752 2.465-9.86 7.396-9.86h-1.644 2.465c5.753.82 11.505 1.643 18.901 4.108.822-6.574 0-13.97-4.93-21.366 6.574-6.574 12.327-10.684 17.258-13.149 2.465-.821 3.286-3.286 4.109-5.753 1.643-3.286.821-4.93-.822-6.574-4.93 0-9.04 0-13.97-.821-1.644-.822-4.109-2.466-7.396-4.93l-7.395-7.397-2.466-1.643-.821-.822.821-.821c.822-5.753 2.466-10.684 4.93-14.793l.822-.821c2.466-4.11 7.396-8.218 13.97-13.149-13.148 1.644-24.653 7.396-35.336 17.258-8.218-2.465-18.902-1.644-30.407 3.287l-1.643.821 1.643-.821c-7.395-3.287-12.327-13.149-14.792-29.584-9.86 9.04-13.969 26.297-13.969 50.129l-2.465 4.109-.822.821c-1.644 2.466-3.286 5.753-5.753 9.861-3.286 6.575-4.93 11.505-4.93 16.436v4.93l7.396-5.753c-2.466 7.396-4.93 14.793-5.753 22.188v3.287l-2.465-2.463c0 27.94 9.04 54.238 23.831 75.603l.822.822.821.821c10.684 14.793 24.654 27.119 41.09 36.98 11.505 6.575 23.832 11.506 36.98 14.793l2.466.822c2.465.821 5.752.821 8.218 1.643 2.465 0 4.109.822 6.574.822h19.723c3.287 0 6.574-.822 9.86-.822 0-1.643 2.466-1.643 2.466-1.643zm83-160.247v.822-.822z"/></g><g fill-rule="nonzero"><path fill="#285BC9" d="M608.872 278.273H490.494c-26.457-.026-47.926 21.4-47.952 47.858a47.904 47.904 0 0 0 6.115 23.467L389.468 248.04c43.111-55.796 123.291-66.08 179.088-22.97a127.671 127.671 0 0 1 40.316 53.203z"/><path fill="#A5C4F8" d="M618.24 326.178c-.06 70.528-57.219 127.687-127.746 127.746a113.94 113.94 0 0 1-15.969-1.065l57.486-102.729c13.175-22.936 5.321-52.208-17.565-65.47a47.458 47.458 0 0 0-23.846-6.387h118.271a125.954 125.954 0 0 1 9.368 47.905z"/><path fill="#689CF3" d="M532.011 350.13l-57.486 102.73h-.106c-69.955-8.839-119.499-72.714-110.66-142.669a127.672 127.672 0 0 1 25.71-62.15l59.188 101.557.32.532c13.199 22.93 42.486 30.818 65.416 17.619a47.9 47.9 0 0 0 17.618-17.619z"/><path fill="#F44336" d="M532.011 350.13c-13.2 22.93-42.487 30.818-65.416 17.619a47.908 47.908 0 0 1-17.619-17.619l-.319-.532c-12.935-23.08-4.71-52.275 18.37-65.21a47.907 47.907 0 0 1 23.467-6.115h.106a47.458 47.458 0 0 1 23.846 6.387c22.887 13.262 30.74 42.534 17.565 65.47z"/><path fill="#508FF3" d="M532.011 350.13c-13.2 22.93-42.487 30.818-65.416 17.619a47.908 47.908 0 0 1-17.619-17.619l-.319-.532c-12.935-23.08-4.71-52.275 18.37-65.21a47.907 47.907 0 0 1 23.467-6.115h.106a47.458 47.458 0 0 1 23.846 6.387c22.887 13.262 30.74 42.534 17.565 65.47z"/><path fill="#FAFAFA" d="M490.313 379.406a52.844 52.844 0 0 1-26.433-7.09 53.423 53.423 0 0 1-19.513-19.524c-14.698-25.458-5.976-58.011 19.483-72.71a53.233 53.233 0 0 1 26.644-7.131c29.397-.023 53.246 23.79 53.269 53.186a53.225 53.225 0 0 1-7.132 26.655 53.526 53.526 0 0 1-46.318 26.614zm.276-95.81a42.465 42.465 0 0 0-37.035 21.291c-11.759 20.39-4.762 46.451 15.627 58.21 20.39 11.759 46.451 4.762 58.21-15.627 11.758-20.367 4.78-46.41-15.586-58.169a42.584 42.584 0 0 0-21.205-5.704h-.01z"/></g><path fill="#285BC9" fill-rule="nonzero" d="M112.092 363.055c0 6.16.92 11.76 2.8 16.8 2 4.96 4.6 9.4 7.92 13.28 3.32 3.88 7.2 7.2 11.76 10 4.4 2.8 9.2 5.12 14.32 6.92 5.08 1.84 10.4 3.2 15.8 4.08 5.48.88 10.8 1.32 16.2 1.32 6.8 0 13.12-.52 19.12-1.6 6-1.12 11.84-2.6 17.6-4.48 5.76-1.88 11.32-4.12 16.88-6.68 5.6-2.56 11.28-5.36 17.12-8.48v54.24c-6.52 3.2-12.92 5.88-19.32 8.2-6.4 2.24-12.8 4.2-19.32 5.76-6.52 1.6-13.12 2.8-19.88 3.52-6.76.72-13.68 1.12-20.88 1.12-9.6 0-18.88-1.12-27.8-3.32-8.92-2.2-17.28-5.36-25.12-9.52-7.84-4.16-15-9.2-21.52-15.12-6.56-5.92-12.12-12.6-16.8-20-4.68-7.4-8.28-15.52-10.88-24.24-2.52-8.72-3.8-18-3.8-27.84 0-10.52 1.44-20.52 4.32-30.08 2.92-9.6 7.04-18.32 12.48-26.32 5.4-8 12-15.12 19.8-21.32 7.8-6.2 16.56-11.28 26.32-15.2-5.32 5.32-9.48 11.6-12.4 18.92-3 7.28-4.88 14.6-5.72 21.92h91.12c0-9.2-.92-17.2-2.8-24.08-1.88-6.88-4.88-12.6-9.08-17.12-4.16-4.56-9.52-8-16.12-10.24-6.6-2.28-14.56-3.44-23.88-3.44-11 0-22 1.6-33 4.92-11 3.2-21.44 7.8-31.36 13.6a151.95 151.95 0 0 0-27.36 20.72c-8.32 8-15.32 16.6-21 25.92 1.2-10.8 3.6-21.2 6.92-31.08 3.32-9.88 7.72-19.08 13-27.6 5.28-8.4 11.48-16.08 18.56-22.96 7.08-6.88 14.92-12.8 23.6-17.6 8.68-4.8 17.88-8.68 27.88-11.28 10-2.28 20.64-3.64 31.84-3.64 6.56 0 13.08.6 19.6 1.76 6.52 1.2 12.88 2.8 19.08 4.88 12.32 4.24 23.32 10.16 33 17.68 9.68 7.6 17.8 16.24 24.4 26.12 6.6 9.88 11.6 20.8 15.04 32.68 3.44 11.88 5.2 24.24 5.2 37.08v31.8h-163.64z"/><g fill-rule="nonzero"><path fill="#6A9EF0" d="M1295.002 340.232c15.854 12.362 15.854 32.7 0 45.16l-74.582 58.622c-15.854 12.363-41.664 12.363-57.519 0l-74.582-58.52c-15.853-12.362-15.853-32.7 0-45.165l74.582-58.617c15.854-12.362 41.664-12.362 57.518 0l74.583 58.52z"/><path fill="#A5C4F8" d="M1163.082 407.423l-74.916-58.877c-7.552-5.917-11.737-13.841-11.737-22.267s4.185-16.35 11.738-22.267l74.916-58.98c7.554-5.916 17.76-9.226 28.578-9.226 10.819 0 20.923 3.31 28.579 9.227l74.916 58.877c7.554 5.921 11.737 13.841 11.737 22.267s-4.183 16.35-11.737 22.267l-74.916 58.882c-7.656 6.014-17.76 9.325-28.579 9.325-10.818 0-20.922-3.31-28.578-9.228z"/><path fill="#285BC9" d="M1163.082 370.327l-74.916-58.877c-7.552-5.917-11.737-13.842-11.737-22.268 0-8.425 4.185-16.35 11.738-22.267l74.916-58.979c7.554-5.917 17.76-9.227 28.578-9.227 10.819 0 20.923 3.31 28.579 9.228l74.916 58.877c7.554 5.922 11.737 13.842 11.737 22.267 0 8.426-4.183 16.35-11.737 22.268l-74.916 58.881c-7.656 6.014-17.76 9.325-28.579 9.325-10.818 0-20.922-3.31-28.578-9.227v-.001z"/><path fill="#FFF" d="M1191.92 345.606c38.28 0 69.315-25.364 69.315-56.655 0-31.296-31.036-56.66-69.315-56.66-38.283-.002-69.315 25.364-69.315 56.66 0 31.29 31.032 56.655 69.315 56.655zm0 5.834c-42.225 0-76.451-27.98-76.451-62.49 0-34.513 34.226-62.493 76.451-62.493 42.22 0 76.452 27.98 76.452 62.494 0 34.509-34.231 62.489-76.452 62.489z"/><path fill="#A5C4F8" d="M1197.03 312.998c3.83-.5 7.563-1.572 10.986-3.204l21.817 8.968-11.43-17.12c6.014-7.748 6.014-17.556 0-25.3l11.43-17.12-20.565 8.45-.59 9.041c8.408 7.053 8.194 18.187-.542 24.994-2.23 1.78-4.79 3.033-7.475 3.923l-3.63 7.368zm-10.201-48.03c-6.33.825-11.074 3.222-11.074 3.222l-21.798-8.968 11.43 17.12c-6.014 7.744-6.014 17.552 0 25.3l-11.43 17.12 21.126-8.685.45-8.467c-8.838-7.03-8.769-18.275.144-25.337 2.072-1.855 6.76-3.821 7.46-3.923l3.692-7.382z"/><path fill="#FFF" d="M1181.431 287.077l-2.903 51.472 23.515-47.734 3.366-51.374-23.978 47.636zm-.301 41.58l18.83-38.213-16.502-3.01-2.328 41.224z"/></g><text fill="#000" font-family="Courier" font-size="200" transform="translate(7.346 -54.578)"><tspan x="191" y="191">#TeamWeb</tspan></text></g></svg>
