<svg xmlns="http://www.w3.org/2000/svg" viewBox="0 0 531 386" xmlns:xlink="http://www.w3.org/1999/xlink"><defs><path id="a" d="M0 0h460v305H0z"/></defs><g fill="none" fill-rule="evenodd"><g transform="translate(8 11)"><use fill="#D8D8D8" xlink:href="#a"/><path stroke="#595959" stroke-width="5" d="M-2.5-2.5h465v310h-465z"/></g><path stroke="#595959" stroke-width="5" d="M315.5 11v305M8 163.5h460M160.5 11v305" stroke-linecap="square"/><path fill="#4A90E2" fill-opacity=".75" d="M318 166h150v150H318z"/><path fill="#7ED321" fill-opacity=".75" d="M8 11h460v150H8z"/><text fill="#000" font-size="24" transform="translate(-2 -7)"><tspan x="343.356" y="254">Grid Cell</tspan></text><text fill="#000" font-size="24" transform="translate(-2 -7)"><tspan x="177.408" y="99">Grid Track</tspan></text><text fill="#000" font-size="24" transform="translate(473 -7)"><tspan x="45.3" y="24">1</tspan></text><text fill="#000" font-size="24" transform="translate(473 -7)"><tspan x="45.3" y="189">2</tspan></text><text fill="#000" font-size="24" transform="translate(473 -7)"><tspan x="44.3" y="333">3</tspan></text><path stroke="#979797" stroke-width="3" d="M473 8.5h35m-35 155h35m-35 155h35M5.5 321v35m155-35v35m155-35v35m155-35v35"/><text fill="#000" font-size="24" transform="translate(-2 321)"><tspan x=".3" y="64">1</tspan></text><text fill="#000" font-size="24" transform="translate(-2 321)"><tspan x="157.3" y="64">2</tspan></text><text fill="#000" font-size="24" transform="translate(-2 321)"><tspan x="310.3" y="64">3</tspan></text><text fill="#000" font-size="24" transform="translate(-2 321)"><tspan x="464.3" y="64">4</tspan></text></g></svg>
