<svg xmlns="http://www.w3.org/2000/svg" fill="none" viewBox="0 0 2099 409"><path fill="#3F3525" d="M512.1 407.825c8.84 0 12.81-4.3 14.59-7.91 1.16-2.35 3.26-8.57-2.2-15.69-6.93-9-20.09-18.14-36.63-22.18a57.287 57.287 0 0 1 39-20.14 37.546 37.546 0 0 0 22.85-10.16 32.911 32.911 0 0 0 10.12-23.86 34 34 0 0 0-34.06-34.06c-15 0-40.61 13.28-55.91 42.69-15.27-29.41-40.8-42.69-55.8-42.69a34 34 0 0 0-34.06 34.06 32.879 32.879 0 0 0 10.15 23.86 37.518 37.518 0 0 0 22.85 10.16 56.997 56.997 0 0 1 38.88 20.13c-16.56 4-29.74 13.14-36.67 22.19-5.46 7.12-3.36 13.34-2.21 15.69 1.78 3.61 5.76 7.91 14.59 7.91 4.276-.155 8.54-.556 12.77-1.2a227.06 227.06 0 0 1 29.49-2.31c9.867.128 19.714.9 29.48 2.31 4.23.644 8.494 1.045 12.77 1.2z" opacity=".15"/><path fill="#3F3525" d="M512.1 404.985c8.84 0 12.81-4.3 14.59-7.91 1.16-2.35 3.26-8.57-2.2-15.69-6.93-9-20.09-18.13-36.63-22.18a57.291 57.291 0 0 1 39-20.14 37.54 37.54 0 0 0 22.85-10.16 32.91 32.91 0 0 0 10.14-23.86 34.001 34.001 0 0 0-34.08-34.06c-15 0-40.61 13.28-55.91 42.69-15.27-29.41-40.8-42.69-55.8-42.69a34 34 0 0 0-34.06 34.06 32.879 32.879 0 0 0 10.15 23.86 37.507 37.507 0 0 0 22.85 10.16 57.001 57.001 0 0 1 38.88 20.13c-16.56 4-29.74 13.15-36.67 22.19-5.46 7.12-3.36 13.34-2.21 15.69 1.78 3.61 5.76 7.91 14.59 7.91 4.276-.155 8.54-.555 12.77-1.2a227.06 227.06 0 0 1 29.49-2.31c9.867.128 19.714.9 29.48 2.31 4.23.645 8.494 1.045 12.77 1.2z"/><path fill="#514632" d="M514.58 388.985c-6.05-7.89-22.37-19.47-44.73-19.47-22.36 0-38.68 11.58-44.73 19.47-6.05 7.89 15.78 0 44.73 0 28.95 0 50.78 7.9 44.73 0z"/><path fill="#39B44A" d="M544.72 294.735a21.56 21.56 0 0 0-18.95-11.26c-14.77 0-53.37 22.51-55.92 79.99 16.28-58.7 70.51-68.07 74.87-68.73z"/><path fill="#6CD877" d="M544.72 294.735c-4.36.66-58.59 10-74.87 68.73 0 0 16.21-33.42 55.92-36.84 11.87-1 21.58-9.66 21.58-21.58a21.472 21.472 0 0 0-2.63-10.31z"/><path fill="#39B44A" d="M395.08 294.785a21.516 21.516 0 0 0-2.59 10.26c0 11.92 9.7 20.56 21.57 21.58 39.74 3.42 55.79 36.84 55.79 36.84-16.97-61.17-74.76-68.68-74.77-68.68z"/><path fill="#6CD877" d="M414.06 283.475a21.56 21.56 0 0 0-19 11.31s57.8 7.51 74.77 68.68c-2.52-57.48-41-79.99-55.77-79.99z"/><path fill="#3F3525" d="M447.88 384.985a1.67 1.67 0 0 1-1.67 1.67h-4.82a1.67 1.67 0 0 1-1.67-1.67c0-.442.176-.866.489-1.178a1.663 1.663 0 0 1 1.181-.482h4.82a1.659 1.659 0 0 1 1.67 1.66zM478 376.405a1.66 1.66 0 0 1-1.66 1.66h-4.83a1.66 1.66 0 0 1-1.66-1.66 1.656 1.656 0 0 1 .483-1.18c.311-.314.735-.49 1.177-.49h4.83c.442 0 .866.176 1.177.49.312.313.486.738.483 1.18zM505.5 386.665c0 .442-.176.866-.49 1.177a1.656 1.656 0 0 1-1.18.483H499a1.656 1.656 0 0 1-1.18-.483 1.656 1.656 0 0 1-.49-1.177 1.665 1.665 0 0 1 .486-1.187 1.665 1.665 0 0 1 1.184-.493h4.82c.922 0 1.67.748 1.67 1.67l.01.01z"/><path fill="#3F3525" d="M73.896 359.755l.83-1.14c5-6.84 12.5-17.18 12.5-32.94 0-26.37-20.76-41.81-21.64-42.45a12.47 12.47 0 0 0-14.71 0c-.87.64-21.65 16.08-21.65 42.45 0 15.76 7.53 26.1 12.5 32.94l.83 1.14c-17.64 3.73-31.71 13.23-38.97 22.72-5.46 7.12-3.36 13.34-2.2 15.69 1.78 3.61 5.76 7.91 14.59 7.91a111.74 111.74 0 0 0 12.77-1.2 226.902 226.902 0 0 1 29.48-2.31c9.87.128 19.72.9 29.49 2.31a111.74 111.74 0 0 0 12.77 1.2c8.83 0 12.81-4.3 14.59-7.91 1.15-2.35 3.26-8.57-2.2-15.69-7.26-9.49-21.34-18.99-38.98-22.72z" opacity=".15"/><path fill="#3F3525" d="M73.896 356.915l.83-1.13c5-6.85 12.5-17.18 12.5-32.95 0-26.37-20.76-41.85-21.64-42.45a12.47 12.47 0 0 0-14.71 0c-.87.6-21.65 16.08-21.65 42.45 0 15.77 7.53 26.1 12.5 32.95l.83 1.13c-17.64 3.74-31.71 13.26-39 22.72-5.43 7.12-3.33 13.35-2.17 15.69 1.78 3.66 5.76 7.91 14.62 7.91 4.276-.155 8.54-.555 12.77-1.2a226.902 226.902 0 0 1 29.48-2.31c9.87.128 19.721.9 29.49 2.31 4.23.645 8.494 1.045 12.77 1.2 8.83 0 12.81-4.3 14.59-7.91 1.15-2.34 3.26-8.57-2.2-15.69-7.29-9.46-21.37-18.99-39.01-22.72z"/><path fill="#514632" d="M103.006 387.235c-6.06-7.89-22.37-19.47-44.74-19.47s-38.67 11.58-44.73 19.47c-6.06 7.89 15.79 0 44.73 0 28.94 0 50.74 7.9 44.74 0z"/><path fill="#8CC53F" d="M58.226 290.475s-16.51 12-16.51 32.36c0 16.85 11.34 25 15.22 33.63-8.68-39.48 1.29-65.99 1.29-65.99z"/><path fill="#6F9B29" d="M58.226 290.475s-10 26.55-1.29 66a13.121 13.121 0 0 1 1.29 5.45c0-11.05 16.52-18.75 16.52-39.08s-16.52-32.37-16.52-32.37z"/><path fill="#3F3525" d="M36.386 379.254a1.663 1.663 0 0 1-1.66 1.67h-4.83a1.661 1.661 0 0 1-1.66-1.67 1.66 1.66 0 0 1 1.66-1.67h4.83a1.662 1.662 0 0 1 1.66 1.67zM61.546 374.655a1.658 1.658 0 0 1-1.67 1.66h-4.82a1.657 1.657 0 0 1-1.67-1.66 1.67 1.67 0 0 1 1.67-1.67h4.82c.922 0 1.67.748 1.67 1.67zM52.336 382.585a1.67 1.67 0 0 1-1.67 1.67h-4.82a1.67 1.67 0 0 1-1.67-1.67 1.662 1.662 0 0 1 1.67-1.66h4.82a1.66 1.66 0 0 1 1.67 1.66zM75.756 383.245a1.67 1.67 0 0 1-1.67 1.67h-4.82a1.67 1.67 0 0 1-1.67-1.67 1.662 1.662 0 0 1 1.67-1.66h4.82a1.66 1.66 0 0 1 1.67 1.66zM89.306 377.985a1.67 1.67 0 0 1-1.67 1.67h-4.82a1.67 1.67 0 0 1-1.67-1.67c0-.922.748-1.67 1.67-1.67h4.82c.923 0 1.67.748 1.67 1.67z"/><path fill="#3F3525" d="M1030 399.985c1.16-2.34 3.26-8.56-2.2-15.68-7.47-9.75-22.18-19.56-40.568-23 2.9-3.58 9.1-8.49 20.388-12.25h.09c14.4-4.79 28-9.32 38.2-16.5 17.4-12.24 18.17-28 15.75-39-2.85-13-12.85-21.15-26.09-21.15-14.89 0-33.58 10.36-48.788 27a111.302 111.302 0 0 0-8 9.81c-6-25-17.37-53.07-38.74-69.83-20.1-15.86-42.18-24.56-62.12-24.56-23.25 0-42.2 11.83-50.69 31.64-6.48 15.13-5.49 30.83 2.77 44.23 11.15 18 34.39 29.72 62.16 31.31 19 1.09 52.12 7.73 67.17 39.21-18.51 3.43-33.34 13.29-40.85 23.08-5.46 7.13-3.36 13.35-2.2 15.69 1.78 3.61 5.76 7.91 14.59 7.91a111.72 111.72 0 0 0 12.77-1.2 226.898 226.898 0 0 1 29.49-2.31c9.867.128 19.714.9 29.478 2.31 4.23.644 8.5 1.045 12.77 1.2 8.87 0 12.85-4.3 14.62-7.91z" opacity=".15"/><path fill="#3F3525" d="M1030 397.145c1.16-2.34 3.26-8.56-2.2-15.68-7.47-9.75-22.18-19.56-40.568-23 2.9-3.58 9.1-8.49 20.388-12.25h.09c14.4-4.79 28-9.32 38.2-16.5 17.4-12.24 18.17-28 15.75-39-2.85-13-12.85-21.15-26.09-21.15-14.89 0-33.58 10.37-48.788 27a111.448 111.448 0 0 0-8 9.81c-6-25-17.37-53.06-38.74-69.83-20.1-15.86-42.18-24.56-62.12-24.56-23.25 0-42.2 11.83-50.69 31.65-6.48 15.12-5.49 30.83 2.77 44.22 11.15 18 34.39 29.73 62.16 31.31 19 1.09 52.12 7.74 67.17 39.21-18.51 3.43-33.34 13.29-40.85 23.09-5.46 7.12-3.36 13.34-2.2 15.68 1.78 3.61 5.76 7.91 14.59 7.91 4.277-.155 8.54-.555 12.77-1.2a227.074 227.074 0 0 1 29.49-2.31c9.867.128 19.714.9 29.478 2.31 4.23.645 8.5 1.045 12.77 1.2 8.87 0 12.85-4.3 14.62-7.91z"/><path fill="#514632" d="M1017.9 389.054c-6.05-7.89-22.367-19.47-44.727-19.47-22.36 0-38.68 11.58-44.74 19.47-6.06 7.89 15.79 0 44.74 0 28.947 0 50.827 7.93 44.727 0z"/><path fill="#0FBC59" d="M1049.47 293.285c-7.22-33-76.297 11.44-76.297 65.52a.565.565 0 0 1 0-.13c.6-2.64 12.72-54.11 76.297-65.39zM838.713 248.545c-12.63 29.44 13.22 55.81 54.2 58.16 34.51 2 66.84 17.36 80.26 52.1-32.11-114.46-134.46-110.26-134.46-110.26z"/><path fill="#04A344" d="M973.192 358.675c.33-1.44 4.19-15.59 30.498-24.35 27.08-9 51-17 45.78-41-63.578 11.24-75.698 62.71-76.278 65.35zM932.382 246.315c-40.26-31.58-81.04-27.23-93.67 2.23 0 0 102.35-4.2 134.46 110.26 0 0-.53-80.92-40.79-112.49z"/><path fill="#3F3525" d="M953.832 385.065a1.67 1.67 0 0 1-1.67 1.67h-4.82a1.67 1.67 0 0 1-1.67-1.67 1.66 1.66 0 0 1 1.67-1.66h4.82c.442-.003.867.171 1.181.482.313.312.489.736.489 1.178zM975.402 376.165a1.659 1.659 0 0 1-1.66 1.67h-4.83a1.658 1.658 0 0 1-1.66-1.67c0-.917.744-1.66 1.66-1.66h4.83c.917 0 1.66.743 1.66 1.66zM998.293 385.065a1.66 1.66 0 0 1-1.66 1.67h-4.83a1.66 1.66 0 0 1-1.66-1.67c0-.917.743-1.66 1.66-1.66h4.83c.916 0 1.66.743 1.66 1.66zM992.772 377.835a1.661 1.661 0 0 1-1.67 1.66h-4.82a1.662 1.662 0 0 1-1.67-1.66c0-.923.748-1.67 1.67-1.67h4.82c.923 0 1.67.747 1.67 1.67z"/><path fill="#3F3525" d="M1537.59 272.115c-13.31 0-29 8.17-42.58 20.82v-35.95a41.785 41.785 0 0 0 24.56-19.86c8.62-15.58 7.13-36.06 1.22-48.24-.71-1.47-1.4-2.84-2-4.13-5.09-10.23-6-12.08-3.35-21 5.4-18.08 1.89-32.14 1.47-33.68a12.447 12.447 0 0 0-8-8.53 12.21 12.21 0 0 0-4.08-.69c-2.68-.003-5.3.863-7.45 2.47a49.103 49.103 0 0 0-7.87 7.34 51.92 51.92 0 0 0-3.56-5.14 12.48 12.48 0 0 0-19.47 0 52.904 52.904 0 0 0-3.57 5.14c-2.35-2.743-5-5.215-7.9-7.37a12.41 12.41 0 0 0-7.45-2.47 12.26 12.26 0 0 0-4.09.69 12.494 12.494 0 0 0-8 8.53c-.42 1.54-3.94 15.6 1.46 33.68 2.66 8.9 1.75 10.75-3.34 21-.65 1.29-1.33 2.66-2 4.13-5.12 10.55-6.92 27.31-1.72 41.73-16.63-10.35-34-15.94-50-15.94-23.25 0-42.2 11.83-50.69 31.65-6.42 15.1-5.43 30.81 2.83 44.2 11.15 18 34.39 29.73 62.16 31.32 19 1.09 52.25 7.75 67.26 39.38-18.08 3.59-32.53 13.28-39.91 22.91-5.46 7.12-3.36 13.34-2.2 15.68 1.78 3.61 5.76 7.91 14.59 7.91 4.28-.155 8.54-.556 12.77-1.2 9.77-1.401 19.62-2.17 29.48-2.3 9.87.13 19.72.899 29.49 2.3 4.23.644 8.5 1.045 12.77 1.2 8.83 0 12.81-4.3 14.59-7.91 1.15-2.34 3.26-8.56-2.2-15.68-7.59-9.89-22.63-19.85-41.4-23.19 2.65-3.23 8.36-8.15 20.19-12.09h.09c14.4-4.8 28-9.33 38.2-16.51 17.39-12.24 18.17-28 15.75-39-2.81-13.1-12.81-21.2-26.05-21.2z" opacity=".15"/><path fill="#3F3525" d="M1537.59 269.275c-13.31 0-29 8.17-42.58 20.82v-36a41.785 41.785 0 0 0 24.56-19.86c8.62-15.58 7.13-36.06 1.22-48.24-.71-1.46-1.4-2.83-2-4.13-5.09-10.23-6-12.08-3.35-21 5.4-18.08 1.89-32.14 1.47-33.68a12.486 12.486 0 0 0-7.96-8.534 12.494 12.494 0 0 0-11.54 1.784 49.148 49.148 0 0 0-7.87 7.34 52.038 52.038 0 0 0-3.56-5.14 12.48 12.48 0 0 0-19.47 0 52.904 52.904 0 0 0-3.57 5.14 48.283 48.283 0 0 0-7.93-7.32 12.47 12.47 0 0 0-11.53-1.784 12.479 12.479 0 0 0-7.97 8.534c-.42 1.54-3.94 15.6 1.46 33.68 2.66 8.9 1.75 10.75-3.34 21-.65 1.3-1.33 2.67-2 4.13-5.12 10.55-6.92 27.31-1.72 41.73-16.63-10.35-34-15.93-50-15.94-23.25 0-42.2 11.83-50.69 31.65-6.46 15.1-5.47 30.81 2.79 44.2 11.15 18 34.39 29.73 62.16 31.32 19 1.09 52.25 7.75 67.26 39.39-18.08 3.58-32.53 13.27-39.91 22.9-5.46 7.12-3.36 13.34-2.2 15.68 1.78 3.61 5.76 7.91 14.59 7.91 4.28-.151 8.54-.548 12.77-1.19 9.77-1.41 19.62-2.182 29.48-2.31 9.87.128 19.72.9 29.49 2.31a111.4 111.4 0 0 0 12.77 1.19c8.83 0 12.81-4.3 14.59-7.9 1.15-2.35 3.26-8.57-2.2-15.69-7.59-9.89-22.63-19.85-41.4-23.19 2.65-3.23 8.36-8.15 20.19-12.09h.09c14.4-4.8 28-9.33 38.2-16.51 17.39-12.23 18.17-28 15.75-39-2.81-13.1-12.81-21.2-26.05-21.2z"/><path fill="#C3996C" d="M1476.2 204.145a6.324 6.324 0 0 0-6.31 6.32v134.72c2.89 3.16 5.29 13.42 5.29 13.42s-.31-2.5 3.13-7.85v-146.22a6.358 6.358 0 0 0-2.11-.39z"/><path fill="#A87D56" d="M1482.52 210.465c0-2.67-1.69-5.047-4.21-5.93v146.22a53.26 53.26 0 0 1 4.21-5.57v-134.72z"/><path fill="#514632" d="M1520.94 388.865c-6.06-7.9-22.37-19.47-44.74-19.47s-38.68 11.59-44.73 19.47c-6.05 7.88 15.79 0 44.73 0 28.94 0 50.81 7.89 44.74 0z"/><path fill="#0FBC59" d="M1551.48 293.085c-7.22-33-76.3 11.45-76.3 65.52v-.13c.6-2.64 12.72-54.11 76.3-65.39zM1340.72 248.355c-12.63 29.47 13.22 55.81 54.2 58.15 34.51 2 66.84 17.37 80.26 52.1-32.11-114.46-134.46-110.25-134.46-110.25z"/><path fill="#04A344" d="M1475.2 358.474c.33-1.43 4.19-15.58 30.5-24.34 27.08-9 51-17 45.78-41.05-63.58 11.28-75.7 62.75-76.28 65.39zM1434.39 246.115c-40.26-31.57-81-27.23-93.67 2.24 0 0 102.35-4.21 134.46 110.25 0 0-.53-80.91-40.79-112.49z"/><path fill="#EFA3DB" d="M1487.61 161.815c-.11.78-.16 1.22-.16 1.22 0-18.55-11.25-32.56-11.25-32.56s-11.25 14-11.25 32.56c0 0 0-.44-.15-1.22-.54 8.68-1.59 43 11.4 82.53 13-39.54 11.94-73.85 11.41-82.53z"/><path fill="#E589C9" d="M1464.8 161.815c-.69-4.64-4-21.53-17.21-31.34 0 0-3.16 11.64 1.38 26.84s.59 20.32-6.12 34.14-8.09 52.89 33.35 52.89c-12.99-39.54-11.94-73.85-11.4-82.53z"/><path fill="#CC75B6" d="M1509.55 191.455c-6.71-13.82-10.65-18.95-6.11-34.14 4.54-15.19 1.38-26.84 1.38-26.84-13.19 9.81-16.53 26.7-17.21 31.34.53 8.68 1.59 43-11.41 82.53 41.44 0 40.06-39.08 33.35-52.89z"/><path fill="#3F3525" d="M1450.15 384.875c0 .916-.74 1.66-1.66 1.66h-4.83c-.91 0-1.66-.744-1.66-1.66 0-.442.17-.867.49-1.181.31-.313.73-.489 1.17-.489h4.83c.45 0 .87.176 1.18.489.31.314.49.739.48 1.181zM1469.89 377.635c0 .922-.74 1.67-1.67 1.67h-4.82c-.92 0-1.67-.748-1.67-1.67 0-.442.18-.866.49-1.177.32-.312.74-.486 1.18-.483h4.82c.44-.003.87.171 1.18.483.32.311.49.735.49 1.177zM1482.39 384.875c0 .442-.17.865-.49 1.177-.31.312-.74.485-1.18.483h-4.82c-.44.002-.86-.171-1.18-.483a1.675 1.675 0 0 1-.49-1.177c0-.923.75-1.67 1.67-1.67h4.82c.45 0 .87.176 1.18.489.32.313.49.738.49 1.181zM1494.36 375.985c0 .442-.17.866-.49 1.177-.31.312-.73.486-1.18.483h-4.82c-.44.003-.86-.171-1.18-.483a1.673 1.673 0 0 1-.49-1.177c0-.922.75-1.67 1.67-1.67h4.82c.93 0 1.67.748 1.67 1.67zM1513.33 386.535c0 .922-.74 1.67-1.67 1.67h-4.82c-.92 0-1.67-.748-1.67-1.67 0-.442.18-.866.49-1.178.32-.311.74-.485 1.18-.482h4.82c.45-.003.87.171 1.18.482.32.312.49.736.49 1.178z"/><path fill="#3F3525" d="M2063.63 81.495l.27-.44a51.109 51.109 0 0 0 3.11-6.07l.17-.41c.31-.78.64-1.61.92-2.44l.06-.16.07-.21c.05-.14.1-.28.14-.42l.16-.5c0-.12.07-.23.1-.35l.2-.67.07-.26c.26-.9.41-1.57.51-2.06v-.09-.07c3.2-15.357-3.88-31.02-17.52-38.773-13.63-7.752-30.71-5.825-42.28 4.773-.05-.19-.09-.37-.14-.55a49.622 49.622 0 0 0-2.13-6.51c0-.13-.1-.26-.16-.39-.33-.77-.69-1.59-1.08-2.39l-.16-.34c-.06-.13-.12-.25-.19-.37l-.18-.37-.08-.14-.16-.3-.13-.24-.35-.62c-.37-.67-.73-1.27-1.07-1.78l-.09-.13c-8.59-13.125-24.67-19.211-39.8-15.07-15.13 4.142-25.87 17.567-26.59 33.24-.15-.09-.3-.19-.45-.27-1.96-1.171-4-2.207-6.11-3.1l-.4-.17c-.82-.32-1.63-.64-2.46-.93l-.24-.08h-.11l-.36-.12-.39-.12-.17-.06-.34-.1-.91-.26c-.91-.26-1.59-.42-2.09-.52h-.21c-15.35-3.155-30.98 3.932-38.72 17.554-7.75 13.622-5.84 30.681 4.72 42.256l-.51.13c-2.22.519-4.4 1.187-6.54 2l-.39.16c-.78.33-1.6.69-2.4 1.08l-.27.12-.37.19-.28.15-.19.1-.36.19-.32.18-.52.28c-.78.44-1.36.8-1.76 1.06l-.22.14c-13.09 8.619-19.15 24.69-15 39.808 4.15 15.118 17.56 25.845 33.22 26.572l-.27.44a52.853 52.853 0 0 0-3.09 6.1c-.06.14-.12.27-.17.41-.33.82-.64 1.62-.92 2.44l-.12.33c-.05.13-.1.29-.14.42l-.18.57-.09.3-.13.46-.14.48c-.26.9-.41 1.56-.51 2v.1c.01.023.01.046 0 .07-3.2 15.361 3.87 31.036 17.51 38.792s30.73 5.819 42.29-4.792c.05.19.09.38.14.56a49.524 49.524 0 0 0 2.13 6.5c0 .13.1.27.16.4.33.77.69 1.59 1.08 2.38l.06.14.08.17c.07.15.15.3.22.44v.05l.22.43.16.29v.06l.45.8c.36.66.71 1.25 1 1.75l.1.16a36.12 36.12 0 0 0 8.8 9.26v22.85a85.143 85.143 0 0 0-16.75-17.84c-20.15-15.8-42.23-24.5-62.17-24.5-23.25 0-42.2 11.83-50.69 31.65-6.42 15.11-5.43 30.81 2.83 44.21 11.15 18 34.39 29.72 62.16 31.31 19 1.09 52.1 7.73 67.15 39.18-18.58 3.41-33.46 13.3-41 23.12-5.46 7.12-3.36 13.34-2.21 15.68 1.78 3.61 5.76 7.91 14.59 7.91 4.28-.155 8.54-.555 12.77-1.2a227.084 227.084 0 0 1 29.54-2.31c9.87.128 19.72.9 29.48 2.31 4.23.644 8.5 1.045 12.77 1.2 8.84 0 12.81-4.3 14.59-7.91 1.16-2.34 3.26-8.56-2.2-15.68-7.44-9.71-22.08-19.49-40.37-23 2.59-3.23 8.28-8.27 20.35-12.29h.09c14.4-4.79 28-9.32 38.2-16.5 17.4-12.24 18.17-28 15.75-39-2.85-13-12.84-21.14-26.08-21.15-12.81 0-27.92 7.56-41.15 19.47v-54l1.19-.62a36.223 36.223 0 0 0 18.83-30.1l.43.26a52.596 52.596 0 0 0 6.11 3.1l.4.16c.82.33 1.63.65 2.46.93l.21.08h.12l.44.15.5.15.34.1h.07l.84.24c.69.208 1.39.382 2.09.52h.19c2.39.492 4.81.74 7.24.74a36.173 36.173 0 0 0 33.17-21.53 36.163 36.163 0 0 0-6.38-39.02l.51-.12a51.062 51.062 0 0 0 6.5-2.13l.4-.17c.77-.33 1.59-.68 2.39-1.08l.27-.13.45-.23.42-.21.33-.18.36-.2.49-.27c.82-.46 1.4-.82 1.81-1.09l.19-.12a36.162 36.162 0 0 0 14.99-39.807c-4.15-15.115-17.57-25.836-33.23-26.553l.06-.02z" opacity=".15"/><path fill="#3F3525" d="M2063.63 78.655l.27-.44c1.17-1.962 2.2-4 3.09-6.1.06-.14.12-.27.17-.41.31-.78.64-1.61.92-2.44l.06-.15.07-.21c.05-.14.1-.29.14-.43l.16-.5c.04-.115.08-.232.1-.35l.2-.67.07-.25c.26-.9.41-1.58.51-2.07v-.09-.06c3.2-15.357-3.88-31.02-17.52-38.773-13.63-7.752-30.71-5.824-42.28 4.773-.05-.18-.09-.37-.14-.55a49.475 49.475 0 0 0-2.13-6.5c0-.14-.1-.27-.16-.4-.33-.77-.69-1.59-1.08-2.39l-.16-.34c-.06-.12-.12-.25-.19-.37l-.18-.36-.08-.15-.16-.3-.13-.24-.35-.62c-.37-.67-.73-1.27-1.07-1.78l-.09-.13c-8.59-13.125-24.67-19.21-39.8-15.07-15.13 4.142-25.87 17.567-26.59 33.24l-.45-.27c-1.96-1.167-4-2.203-6.11-3.1l-.4-.16c-.82-.33-1.63-.65-2.46-.93l-.2-.08h-.11l-.36-.12-.39-.12-.17-.06-.34-.1-.91-.26c-.91-.26-1.59-.42-2.09-.52h-.21c-15.35-3.16-30.99 3.927-38.74 17.554-7.74 13.627-5.83 30.692 4.74 42.266l-.51.12a50.886 50.886 0 0 0-6.56 2.01l-.39.16c-.78.34-1.6.7-2.4 1.09l-.27.13-.37.18-.28.15-.19.1-.36.19-.32.18-.52.29c-.78.43-1.36.79-1.76 1.06l-.22.13c-13.09 8.619-19.15 24.69-15 39.808 4.15 15.118 17.56 25.845 33.22 26.572l-.27.44a52.853 52.853 0 0 0-3.09 6.1c-.06.14-.12.27-.17.41-.33.82-.64 1.62-.92 2.44l-.12.33c-.05.13-.1.29-.14.42l-.18.57-.09.3-.13.46-.14.48c-.26.9-.41 1.57-.51 2.05v.1c.01.023.01.047 0 .07-3.2 15.361 3.87 31.036 17.51 38.792s30.73 5.819 42.29-4.792c.05.19.09.38.14.56a49.475 49.475 0 0 0 2.13 6.5c0 .14.1.27.16.4.33.77.69 1.59 1.08 2.39l.06.13.08.17c.07.15.15.3.22.44v.06l.22.42.16.3v.05l.45.8c.36.66.71 1.25 1 1.75l.1.16a36.12 36.12 0 0 0 8.8 9.26v22.74a85.167 85.167 0 0 0-16.75-17.84c-20.15-15.8-42.23-24.5-62.17-24.5-23.25 0-42.2 11.83-50.69 31.65-6.42 15.16-5.43 30.87 2.83 44.26 11.15 18 34.39 29.73 62.16 31.32 19 1.08 52.1 7.72 67.15 39.17-18.58 3.41-33.46 13.3-41 23.12-5.4 7.12-3.31 13.34-2.15 15.71 1.78 3.61 5.76 7.91 14.59 7.91 4.28-.154 8.54-.555 12.77-1.2 9.77-1.42 19.62-2.202 29.48-2.34 9.87.128 19.72.9 29.48 2.31 4.23.644 8.5 1.045 12.77 1.2 8.84 0 12.81-4.3 14.59-7.91 1.16-2.34 3.26-8.56-2.2-15.68-7.44-9.71-22.08-19.48-40.37-23 2.59-3.23 8.28-8.27 20.35-12.29h.09c14.4-4.79 28-9.32 38.2-16.5 17.4-12.24 18.17-28 15.75-39-2.85-13-12.84-21.14-26.08-21.14-12.81 0-27.92 7.55-41.15 19.46v-54l1.19-.62a36.183 36.183 0 0 0 18.84-30.2l.43.26a52.596 52.596 0 0 0 6.11 3.1l.4.16c.82.33 1.63.65 2.46.93l.21.08h.12l.44.15.5.15.34.11h.07l.84.24c.92.26 1.6.42 2.09.52h.19c15.35 3.146 30.98-3.945 38.72-17.566 7.74-13.621 5.84-30.677-4.72-42.254l.51-.12a51.062 51.062 0 0 0 6.5-2.13l.4-.16c.77-.34 1.59-.69 2.39-1.09l.27-.13c.15-.07.31-.14.45-.22l.42-.22.33-.18.36-.2.49-.27c.82-.45 1.4-.81 1.81-1.09l.19-.12a36.162 36.162 0 0 0 14.99-39.807c-4.15-15.115-17.57-25.836-33.23-26.553l.08.08z"/><path fill="#C3996C" d="M1980.65 205.155a6.32 6.32 0 0 0-6.32 6.32v134.72c0 3.48 3.87 13.29 3.87 13.29s0-4.09 3.93-8.84v-145.29a5.992 5.992 0 0 0-1.48-.2z"/><path fill="#A87D56" d="M1982.13 205.355v145.29a25.548 25.548 0 0 1 4.84-4.45v-134.72c0-2.914-2-5.445-4.84-6.12z"/><path fill="#514632" d="M2022.75 389.875c-6.05-7.9-22.37-19.48-44.73-19.48-22.36 0-38.68 11.59-44.73 19.48-6.05 7.89 15.78 0 44.73 0 28.95 0 50.78 7.89 44.73 0z"/><path fill="#EFA3DB" d="M1993.26 23.165l.12.18s.29.45.58 1l.48.85.25.5.19.39c.27.54.54 1.18.85 1.89.65 1.603 1.2 3.246 1.63 4.92.23.95.48 2 .69 3 .21 1 .34 2.15.53 3.3.34 2.3.57 4.75.75 7.32.18 2.57.26 5.26.14 8-.05 1.37 0 2.76-.15 4.15-.15 1.39-.25 2.79-.38 4.21s-.31 2.8-.55 4.2l-.69 4.17c-.58 2.76-1.32 5.46-2 8.07-.85 2.55-1.69 5.06-2.51 7.49l-2.82 6.66c-.9 2.09-2 4-2.92 5.69-.92 1.69-1.74 3.3-2.64 4.61l-2.21 3.4-1.93 2.91a6.998 6.998 0 0 1-8.01 2.666 7.01 7.01 0 0 1-4.75-6.976l.1-.78s.08-1.13.21-3.12c.07-1 .16-2.15.25-3.51.12-1.5.14-3.007.08-4.51 0-1.64.05-3.38-.12-5.23-.17-1.85-.31-3.71-.47-5.68-.16-1.97-.63-3.87-1-5.88-.51-2-.94-3.9-1.49-5.8l-.89-2.79c-.28-.918-.61-1.82-1-2.7l-1-2.57c-.34-.83-.78-1.62-1.15-2.41-.71-1.57-1.6-3-2.35-4.31-.75-1.31-1.6-2.49-2.37-3.5-.77-1.01-1.47-1.91-2.07-2.63-.26-.4-.54-.72-.76-1-.22-.28-.43-.57-.57-.79a8.3 8.3 0 0 1-.37-.53l-.07-.12v.06s.09.09 0-.11l-.11-.19-.12-.23c-6.04-11.154-2.22-25.085 8.66-31.602 10.89-6.517 24.97-3.307 31.95 7.282l.01.05z"/><path fill="#CC75B6" d="M1963.51 216.305l-.12-.18s-.29-.45-.58-1l-.47-.86c-.09-.15-.17-.32-.26-.49l-.19-.39c-.27-.54-.54-1.18-.85-1.89a40.436 40.436 0 0 1-1.63-4.92c-.23-1-.47-2-.69-3-.22-1-.34-2.15-.53-3.3-.34-2.3-.57-4.75-.75-7.32-.18-2.57-.26-5.26-.14-8 .05-1.37 0-2.76.15-4.15.15-1.39.25-2.79.38-4.21s.31-2.81.55-4.2l.69-4.17c.58-2.76 1.32-5.46 2-8.07l2.5-7.49 2.83-6.67c.9-2.08 2-3.94 2.92-5.68.92-1.74 1.74-3.3 2.64-4.61l2.21-3.41 1.93-2.91a7.011 7.011 0 0 1 8.02-2.666 7.003 7.003 0 0 1 4.74 6.986l-.05.75s-.08 1.13-.21 3.12c-.07 1-.16 2.15-.25 3.51a42.411 42.411 0 0 0-.08 4.51c0 1.64-.05 3.38.12 5.22.17 1.84.31 3.72.47 5.69.16 1.97.63 3.87 1 5.87.51 2 .94 3.91 1.49 5.81l.89 2.79a25.6 25.6 0 0 0 1 2.69l1 2.57c.34.84.78 1.63 1.15 2.42.71 1.57 1.6 3 2.35 4.31.75 1.31 1.6 2.49 2.37 3.5.77 1.01 1.47 1.91 2.07 2.63.26.39.54.71.76 1 .22.29.43.58.57.8.14.167.26.344.37.53l.07.12v-.06s-.09-.09 0 .11l.11.19.12.23c6.04 11.154 2.22 25.085-8.66 31.602-10.88 6.517-24.96 3.307-31.95-7.282l-.06-.03z"/><path fill="#E589C9" d="M2075.01 134.615l-.18.12s-.46.29-1 .57l-.86.48-.49.26-.39.18c-.55.27-1.18.55-1.9.86-1.6.651-3.24 1.195-4.92 1.63-.94.23-2 .47-3 .68l-3.31.53c-2.29.34-4.75.57-7.32.76-2.57.19-5.25.26-8 .14-1.38-.05-2.76 0-4.16-.16l-4.2-.38a40.615 40.615 0 0 1-4.21-.55l-4.17-.69c-2.75-.58-5.45-1.31-8.07-2l-7.48-2.5-6.67-2.82c-2.09-.9-3.94-2-5.68-2.93a52.52 52.52 0 0 1-4.61-2.64l-3.38-2.17-3-1.95a6.992 6.992 0 0 1-2.66-8.014 6.987 6.987 0 0 1 6.98-4.746l.75.06 3.11.21 3.51.25c1.5.104 3.01.131 4.51.08 1.65 0 3.39 0 5.23-.13l5.68-.46 5.88-1c2-.5 3.91-.94 5.8-1.48l2.8-.9c.92-.272 1.82-.606 2.69-1l2.57-1c.84-.33 1.63-.78 2.41-1.14 1.58-.72 3-1.6 4.32-2.36 1.32-.76 2.49-1.59 3.5-2.36 1.01-.77 1.9-1.47 2.62-2.07.4-.27.72-.54 1-.77l.8-.57c.17-.139.35-.263.53-.37l.11-.07h-.06s-.09.08.12 0l.18-.1.24-.13c11.23-6.733 25.79-3.09 32.52 8.135 6.73 11.225 3.09 25.782-8.14 32.515zM1881.81 104.855l.18-.12s.46-.29 1-.57l.86-.48.49-.26.4-.19c.54-.26 1.17-.54 1.89-.85a39.864 39.864 0 0 1 4.92-1.63c.94-.23 1.95-.47 3-.69l3.31-.52c2.29-.35 4.75-.57 7.32-.76 2.57-.19 5.25-.26 8-.14 1.38 0 2.76 0 4.16.15l4.2.38c1.41.11 2.81.31 4.21.55l4.17.7c2.75.58 5.45 1.31 8.07 2l7.48 2.51 6.67 2.82c2.09.9 3.94 2 5.68 2.93 1.58.799 3.12 1.676 4.61 2.63l3.41 2.21 2.91 1.94a6.992 6.992 0 0 1 2.65 8.004 6.992 6.992 0 0 1-6.97 4.746h-.75l-3.11-.21-3.51-.25c-1.5-.11-3-.137-4.51-.08-1.65 0-3.39-.05-5.23.12l-5.68.47-5.88 1c-2 .5-3.91.93-5.8 1.48l-2.8.89c-.91.276-1.81.61-2.69 1l-2.57 1c-.84.34-1.63.79-2.41 1.15-1.58.71-3 1.6-4.32 2.36-1.32.76-2.49 1.59-3.5 2.36-1.01.77-1.9 1.47-2.62 2.07-.4.27-.72.54-1 .76-.28.22-.58.43-.8.57a3.33 3.33 0 0 1-.53.38l-.11.07h.06s.09-.08-.12 0l-.18.1-.23.13c-11.24 6.718-25.81 3.047-32.53-8.2-6.72-11.248-3.04-25.812 8.2-32.53z"/><path fill="#CC75B6" d="M2057.19 61.985v.21c0 .13-.12.53-.28 1.1l-.27.94c-.05.17-.11.35-.16.53l-.15.41c-.2.57-.45 1.22-.73 1.94a38.517 38.517 0 0 1-2.33 4.63c-.51.83-1.05 1.72-1.64 2.62l-2 2.71c-1.38 1.86-3 3.76-4.65 5.71-1.65 1.95-3.53 3.9-5.56 5.75-1 .94-2 1.93-3 2.83l-3.24 2.71c-1.07.92-2.21 1.76-3.37 2.58l-3.43 2.46c-2.37 1.54-4.79 2.93-7.11 4.31l-7.06 3.52-6.72 2.72c-2.11.84-4.22 1.35-6.08 2-1.86.65-3.56 1.11-5.13 1.4l-4 .84-3.42.69a7 7 0 0 1-7.57-3.761 7.005 7.005 0 0 1 1.57-8.309l.57-.49 2.35-2.06 2.66-2.3a41.498 41.498 0 0 0 3.24-3.13c1.13-1.2 2.43-2.36 3.61-3.79l3.72-4.42 3.47-4.84c1-1.74 2.1-3.42 3.06-5.15l1.34-2.61c.47-.833.88-1.695 1.23-2.58.36-.86.72-1.71 1.08-2.55.35-.83.6-1.71.89-2.52.61-1.62 1-3.24 1.39-4.71.39-1.47.63-2.89.8-4.15.17-1.26.31-2.39.39-3.32.08-.413.14-.83.17-1.25.05-.35.11-.71.16-1 .02-.216.06-.43.11-.64v-.13 0l.06-.21.08-.25c3.2-12.689 16.07-20.387 28.76-17.195 12.69 3.192 20.39 16.066 17.19 28.755z"/><path fill="#EFA3DB" d="M1899.58 177.495v-.21c0-.14.12-.52.28-1.09l.27-.94c0-.17.11-.35.16-.53l.15-.41c.2-.57.45-1.22.73-1.94a42.076 42.076 0 0 1 2.33-4.64c.51-.83 1-1.71 1.64-2.61l2-2.71c1.38-1.86 3-3.76 4.65-5.71a63.64 63.64 0 0 1 5.56-5.76c1-.93 2-1.92 3-2.83l3.24-2.7c1.1-.92 2.24-1.781 3.42-2.58l3.43-2.47c2.37-1.53 4.79-2.92 7.11-4.3l7.06-3.52 6.72-2.72c2.11-.84 4.22-1.35 6.08-2 1.69-.553 3.4-1.02 5.13-1.4l4-.84 3.42-.69a7.006 7.006 0 0 1 7.58 3.761 7.008 7.008 0 0 1-1.58 8.309l-.57.49-2.38 2.11-2.66 2.3a41.418 41.418 0 0 0-3.24 3.13c-1.13 1.2-2.43 2.36-3.61 3.79l-3.69 4.35-3.51 4.85c-1 1.74-2.1 3.42-3.06 5.15l-1.34 2.6a22.4 22.4 0 0 0-1.22 2.59l-1.09 2.55c-.35.83-.6 1.7-.89 2.52-.61 1.62-1 3.24-1.39 4.71-.39 1.47-.63 2.89-.8 4.15-.17 1.26-.31 2.39-.39 3.32-.08.413-.13.83-.17 1.25 0 .35-.11.71-.16 1-.02.216-.05.43-.11.64v.13-.07.11l-.06.2-.07.26c-3.57 12.221-16.16 19.434-28.51 16.334-12.34-3.101-20.03-15.407-17.41-27.864l-.05-.07zM2036.15 198.545l-.21-.05c-.37-.073-.73-.166-1.09-.28l-1-.26-.53-.17-.41-.15c-.57-.19-1.21-.44-1.94-.73a39.003 39.003 0 0 1-4.63-2.33c-.83-.5-1.72-1.05-2.61-1.64l-2.71-2c-1.87-1.38-3.76-3-5.71-4.64-1.95-1.64-3.9-3.54-5.76-5.56-.94-1-1.93-2-2.83-3l-2.7-3.24c-.92-1.07-1.77-2.2-2.59-3.36l-2.42-3.45c-1.53-2.36-2.92-4.79-4.31-7.11l-3.52-7.06c-.94-2.33-1.85-4.58-2.72-6.71-.87-2.13-1.35-4.23-2-6.09-.65-1.86-1.1-3.56-1.39-5.12-.29-1.56-.61-2.87-.85-4l-.69-3.43a7.006 7.006 0 0 1 3.76-7.575 7 7 0 0 1 8.31 1.575l.5.57 2 2.35 2.31 2.66a43.468 43.468 0 0 0 3.13 3.25c1.19 1.13 2.36 2.42 3.78 3.61l4.35 3.68 4.84 3.48c1.74 1 3.42 2.1 5.15 3l2.61 1.34c.84.462 1.71.873 2.59 1.23l2.55 1.08c.83.36 1.7.6 2.51.89 1.55.544 3.13 1.008 4.72 1.39 1.49.34 2.89.64 4.15.8 1.26.16 2.38.31 3.32.4.47.09.89.12 1.24.16l1 .16c.24 0 .46.07.64.12h.13-.06s-.12 0 .11.05l.2.06.25.08c12.21 3.58 19.41 16.159 16.31 28.496-3.09 12.337-15.38 20.029-27.83 17.424l.05.1z"/><path fill="#CC75B6" d="M1920.62 40.925l.21.05c.05 0 .53.11 1.09.27l1 .27.53.17.41.14c.57.2 1.22.45 1.94.74 1.6.672 3.14 1.45 4.63 2.33.83.5 1.72 1 2.61 1.63l2.71 2c1.87 1.38 3.76 3 5.71 4.64 1.95 1.64 3.9 3.53 5.76 5.56.94 1 1.93 2 2.83 3l2.7 3.24c.92 1.07 1.77 2.2 2.59 3.36l2.46 3.44c1.53 2.36 2.92 4.79 4.31 7.11l3.47 7.11c.94 2.33 1.85 4.58 2.72 6.71.87 2.13 1.35 4.22 2 6.08.65 1.86 1.1 3.57 1.39 5.13.29 1.56.61 2.87.85 4l.69 3.43a6.993 6.993 0 0 1-3.76 7.574 7.005 7.005 0 0 1-8.31-1.574l-.5-.57s-.74-.86-2-2.35l-2.31-2.66a41.206 41.206 0 0 0-3.13-3.25c-1.19-1.13-2.36-2.43-3.78-3.61l-4.43-3.78-4.84-3.47c-1.74-1-3.43-2.1-5.15-3l-2.61-1.35a22.97 22.97 0 0 0-2.61-1.31l-2.55-1c-.83-.36-1.7-.6-2.51-.9-1.62-.61-3.25-1-4.72-1.38-1.47-.38-2.89-.64-4.15-.81-1.26-.17-2.38-.31-3.32-.39-.46-.09-.89-.13-1.24-.17-.35-.04-.71-.1-1-.16a4.84 4.84 0 0 1-.64-.11h-.13.06s.12 0-.1-.06l-.21-.06-.25-.07c-12.69-3.198-20.38-16.077-17.18-28.765 3.2-12.69 16.07-20.383 28.76-17.185z"/><path fill="#FFFBCA" d="M1998.72 119.615c0 11.294-9.15 20.45-20.45 20.45-11.29 0-20.45-9.156-20.45-20.45 0-11.295 9.16-20.45 20.45-20.45 11.3 0 20.45 9.155 20.45 20.45z"/><path fill="#04A344" d="M1978.2 359.485c.33-1.44 4.19-15.58 30.5-24.34 27.08-9 51-17 45.78-41.05-63.58 11.28-75.7 62.75-76.28 65.39z"/><path fill="#0FBC59" d="M1843.72 249.365c-12.63 29.47 13.22 55.8 54.2 58.15 34.51 2 66.83 17.36 80.25 52.1-32.1-114.46-134.45-110.25-134.45-110.25zM2054.48 294.095c-7.22-33-76.31 11.44-76.31 65.52v-.13c.61-2.64 12.73-54.11 76.31-65.39z"/><path fill="#04A344" d="M1937.39 247.125c-40.26-31.58-81-27.23-93.67 2.24 0 0 102.35-4.21 134.45 110.25 0 0-.52-80.92-40.78-112.49z"/><path fill="#3F3525" d="M1951.57 387.545c.01.442-.17.867-.48 1.18-.31.314-.73.49-1.18.49h-4.83c-.44 0-.86-.176-1.17-.49a1.642 1.642 0 0 1-.49-1.18c0-.917.75-1.66 1.66-1.66h4.83c.92 0 1.66.743 1.66 1.66zM1964.6 380.225c0 .442-.17.865-.49 1.177-.31.312-.74.485-1.18.483h-4.82c-.44.002-.86-.171-1.18-.483a1.675 1.675 0 0 1-.49-1.177c0-.923.75-1.67 1.67-1.67h4.82c.93 0 1.67.747 1.67 1.67zM1986.39 376.885c.01.444-.17.87-.48 1.184-.32.314-.74.489-1.19.486h-4.82c-.92 0-1.67-.748-1.67-1.67 0-.442.18-.866.49-1.177.32-.312.74-.486 1.18-.483h4.82c.44-.003.87.171 1.18.483.32.311.49.735.49 1.177zM1978.01 384.215c0 .922-.74 1.67-1.67 1.67h-4.82c-.92 0-1.67-.748-1.67-1.67 0-.922.75-1.67 1.67-1.67h4.82c.93 0 1.67.748 1.67 1.67zM1997.36 384.215c0 .922-.74 1.67-1.67 1.67h-4.82c-.92 0-1.67-.748-1.67-1.67 0-.922.75-1.67 1.67-1.67h4.82c.93 0 1.67.748 1.67 1.67zM2008.41 380.225c0 .442-.17.865-.49 1.177-.31.312-.73.485-1.18.483h-4.82c-.44.002-.86-.171-1.18-.483a1.675 1.675 0 0 1-.49-1.177c0-.923.75-1.67 1.67-1.67h4.82c.93 0 1.67.747 1.67 1.67zM2016.57 387.545c0 .443-.17.867-.49 1.181a1.65 1.65 0 0 1-1.18.489h-4.82c-.92 0-1.67-.748-1.67-1.67 0-.442.18-.866.49-1.178.32-.311.74-.485 1.18-.482h4.82c.45-.003.87.171 1.18.482.32.312.49.736.49 1.178z"/></svg>