<svg xmlns="http://www.w3.org/2000/svg" width="744.094" height="283.465" version="1.2"><g font-family="Jedi Solid" font-weight="700" letter-spacing="0" word-spacing="0"><g fill="navy" font-size="144" style="text-align:start;line-height:125%;-inkscape-font-specification:Jedi Solid Bold"><path d="M127.172 35.158h7.242v28.757h-7.242v28.829c0 13.265-2.696 24.222-8.086 32.87-5.39 8.65-12.422 14.93-21.094 18.844-8.672 3.914-18.14 5.872-28.406 5.872h-36L12 121.5h57.586c7.594 0 13.09-2.25 16.488-6.75 3.399-4.5 5.098-11.835 5.098-22.007V35.158z"/><path d="M170.344 107.158v43.172h-36V35.158h72c8.25 0 15.644 1.5 22.183 4.5 6.54 3 11.672 7.242 15.399 12.726 3.726 5.485 5.59 11.742 5.59 18.774 0 5.343-1.055 10.23-3.164 14.66-2.11 4.43-5.086 8.238-8.93 11.426-3.844 3.187-8.438 5.636-13.781 7.347-5.344 1.711-11.11 2.567-17.297 2.567zm28.828-43.243h-28.828v17.86h28.828c3.797 0 6.96-.223 9.492-.668 2.531-.445 4.523-1.36 5.977-2.742 1.453-1.383 2.25-3.41 2.39-6.082 0-2.39-1.605-4.383-4.816-5.977-3.211-1.594-7.559-2.39-13.043-2.39zM371.86 35.158v28.757h-79.172V78.33h50.414v28.828h-50.414V121.5h86.414v28.829H256.688V35.158zM465.445 121.501v-14.343H443.86V78.33h50.344v72h-57.586c-11.484 0-21.62-2.731-30.41-8.192-8.79-5.46-15.516-12.621-20.18-21.48-4.664-8.86-6.996-18.164-6.996-27.914s2.332-19.055 6.996-27.914c4.664-8.86 11.403-16.02 20.215-21.48 8.813-5.462 18.938-8.192 30.375-8.192h64.828v28.757H443.86c-5.343 0-10.23 1.336-14.66 4.008-4.43 2.672-7.898 6.211-10.406 10.617-2.508 4.407-3.762 9.141-3.762 14.204 0 5.906 1.219 11.027 3.656 15.363 2.438 4.336 5.86 7.652 10.266 9.95 4.406 2.296 9.375 3.444 14.906 3.444zM667.102 78.33h14.414c5.484 0 9.832-.797 13.043-2.391 3.21-1.594 4.816-3.586 4.816-5.977-.14-2.671-.938-4.699-2.39-6.082-1.454-1.382-3.446-2.296-5.977-2.742-2.532-.445-5.696-.668-9.492-.668h-14.414c-3.797 0-6.973.223-9.528.668-2.555.446-4.57 1.36-6.047 2.742-1.476 1.383-2.238 3.41-2.285 6.082 0 2.391 1.606 4.383 4.817 5.977 3.21 1.594 7.558 2.39 13.043 2.39zM616.687 121.5h64.829c5.484 0 9.832-.796 13.043-2.39 3.21-1.594 4.816-3.563 4.816-5.906-.14-3.938-1.477-6.516-4.008-7.735-2.531-1.219-6.68-1.828-12.445-1.828h-17.297a78.044 78.044 0 0 1-18.14-2.11c-5.907-1.406-11.18-3.48-15.82-6.222-4.642-2.742-8.298-6.164-10.97-10.266-2.672-4.101-4.007-8.73-4.007-13.886 0-7.078 1.84-13.348 5.519-18.809 3.68-5.46 8.777-9.691 15.293-12.691s13.969-4.5 22.36-4.5h28.828c8.39 0 15.843 1.5 22.359 4.5 6.515 3 11.613 7.23 15.293 12.691 3.68 5.461 5.52 11.73 5.52 18.809v43.172c0 7.03-1.864 13.289-5.59 18.773-3.727 5.484-8.895 9.727-15.504 12.727-6.61 3-13.97 4.5-22.078 4.5h-72z"/></g><g fill="gray" font-size="48" style="text-align:start;line-height:125%;-inkscape-font-specification:Jedi Solid Bold"><path d="M42.61 238.818c.702 0 1.054-.094 1.054-.282 0-.187-.133-.363-.398-.527a14.753 14.753 0 0 0-.657-.387l-14.414-8.39a147.21 147.21 0 0 1-2.789-1.63c-.953-.57-1.742-1.179-2.367-1.827-.625-.649-1.121-1.469-1.488-2.461-.367-.992-.551-2.223-.551-3.692 0-1.703.492-3.16 1.477-4.37.984-1.212 2.238-2.2 3.761-2.966a20.639 20.639 0 0 1 4.711-1.699c1.617-.367 3.098-.55 4.442-.55h24v9.585h-24c-.5 0-.75.094-.75.282 0 .156.093.324.28.504.188.18.345.316.47.41l14.414 8.414c2.187 1.281 3.933 2.64 5.238 4.078 1.305 1.437 1.957 3.242 1.957 5.414-.031 1.86-.41 3.496-1.137 4.91-.726 1.414-2.148 2.567-4.265 3.457-2.118.89-5.114 1.336-8.989 1.336H21v-9.61zM59.438 210.036h40.804v9.586h-15.61v28.805h-12v-28.805H59.438z"/><path d="M113.414 238.818v-19.196H100.22v-9.586h40.804v9.586h-15.609v19.196h13.195v9.61h-38.39v-9.61z"/><path d="M141 248.427v-38.39h12v28.78h28.805v9.61z"/><path d="M181.781 248.427v-38.39h12v28.78h28.805v9.61zM274.195 238.818v-19.196H261v-9.586h40.805v9.586h-15.61v19.196h13.196v9.61H261v-9.61z"/><path d="M337.781 210.036h12v28.782h2.39v9.61h-14.39v-20.65l-12 20.65-12-20.65v20.65h-12v-38.392h12l12 22.547zM380.883 231.622l-5.086-11.601-4.711 11.601zm5.226 12h-19.921l-1.97 4.805h-12l15.657-38.39h15.54l16.804 38.39h-12zM429.023 238.818v-4.782h-7.195v-9.609h16.781v24h-19.195c-3.828 0-7.207-.91-10.137-2.73-2.93-1.82-5.172-4.207-6.726-7.16-1.555-2.954-2.332-6.055-2.332-9.305s.777-6.352 2.332-9.305c1.554-2.953 3.8-5.34 6.738-7.16 2.938-1.82 6.313-2.73 10.125-2.73h21.61v9.585h-19.196c-1.781 0-3.41.446-4.887 1.336a9.656 9.656 0 0 0-3.468 3.54 9.415 9.415 0 0 0-1.254 4.734c0 1.969.406 3.676 1.218 5.12a8.188 8.188 0 0 0 3.422 3.317c1.47.766 3.125 1.149 4.97 1.149z"/><path d="M479.39 210.036v9.586H453v4.805h16.805v9.61H453v4.78h28.805v9.61H441v-38.39zM561.023 219.622h-19.195c-1.781 0-3.41.446-4.887 1.336a9.656 9.656 0 0 0-3.468 3.54 9.415 9.415 0 0 0-1.254 4.734c0 1.969.406 3.676 1.218 5.12a8.188 8.188 0 0 0 3.422 3.317c1.47.766 3.125 1.149 4.97 1.149h16.78v9.61h-19.195c-3.828 0-7.207-.911-10.137-2.731-2.93-1.82-5.172-4.207-6.726-7.16-1.555-2.954-2.332-6.055-2.332-9.305s.777-6.352 2.332-9.305c1.554-2.953 3.8-5.34 6.738-7.16 2.938-1.82 6.313-2.73 10.125-2.73h21.61zM580.195 210.036c2.375 0 4.715.54 7.02 1.618a21.737 21.737 0 0 1 6.2 4.359 21.737 21.737 0 0 1 4.358 6.2c1.079 2.304 1.618 4.644 1.618 7.019 0 2.36-.54 4.687-1.618 6.984a21.838 21.838 0 0 1-4.37 6.2 21.922 21.922 0 0 1-6.223 4.382c-2.313 1.086-4.641 1.63-6.985 1.63-2.328 0-4.644-.54-6.949-1.618a21.877 21.877 0 0 1-6.234-4.395 21.877 21.877 0 0 1-4.395-6.234c-1.078-2.305-1.617-4.621-1.617-6.95 0-2.343.543-4.671 1.629-6.984a21.922 21.922 0 0 1 4.383-6.222 21.838 21.838 0 0 1 6.199-4.371c2.297-1.078 4.625-1.618 6.984-1.618zm0 28.782c1.578 0 3.11-.465 4.594-1.395a11.25 11.25 0 0 0 3.621-3.633c.93-1.492 1.395-3.011 1.395-4.558 0-1.531-.465-3.051-1.395-4.559a11.055 11.055 0 0 0-3.656-3.656c-1.508-.93-3.027-1.395-4.559-1.395-1.547 0-3.066.465-4.558 1.395a11.25 11.25 0 0 0-3.633 3.621c-.93 1.484-1.395 3.016-1.395 4.594 0 1.578.465 3.105 1.395 4.582a11.374 11.374 0 0 0 3.61 3.61c1.476.929 3.003 1.394 4.581 1.394zM618.586 219.622h-4.805v20.368h4.805c1 0 2.125-.293 3.375-.88 1.25-.585 2.434-1.382 3.55-2.39a13.26 13.26 0 0 0 2.755-3.469c.718-1.304 1.078-2.644 1.078-4.02 0-2.062-.602-3.82-1.805-5.273a11.251 11.251 0 0 0-4.383-3.257c-1.719-.72-3.242-1.079-4.57-1.079zm-4.805 28.805h-12v-38.39H620.977c2.375 0 4.714.539 7.02 1.617a21.737 21.737 0 0 1 6.198 4.359 21.737 21.737 0 0 1 4.36 6.2c1.078 2.304 1.617 4.644 1.617 7.019 0 2.36-.54 4.687-1.617 6.984a21.838 21.838 0 0 1-4.371 6.2 21.922 21.922 0 0 1-6.223 4.382c-2.313 1.086-4.64 1.63-6.984 1.63zM680.953 210.036v9.586h-26.39v4.805h16.804v9.61h-16.804v4.78h28.804v9.61h-40.804v-38.39zM724.148 219.622h-19.195c-1.781 0-3.41.446-4.887 1.336a9.656 9.656 0 0 0-3.468 3.54 9.415 9.415 0 0 0-1.254 4.734c0 1.969.406 3.676 1.218 5.12a8.188 8.188 0 0 0 3.422 3.317c1.47.766 3.125 1.149 4.97 1.149h16.78v9.61H702.54c-3.828 0-7.207-.911-10.137-2.731-2.93-1.82-5.172-4.207-6.726-7.16-1.555-2.954-2.332-6.055-2.332-9.305s.777-6.352 2.332-9.305c1.554-2.953 3.8-5.34 6.738-7.16 2.938-1.82 6.313-2.73 10.125-2.73h21.61z"/></g></g></svg>