<svg xmlns="http://www.w3.org/2000/svg" fill="none" viewBox="0 0 517 364"><path stroke="#000" stroke-linecap="round" stroke-width="15" d="M367 230l36.5 10.5L437 230M8 230l36.5 10.5L78 230M177.5 300v43L151 355.5M273 300v43l26.5 12.5"/><path fill="#445FEE" d="M73 0h300v300H73z"/><path fill="#000" d="M160.725 225.001c-7.028 0-12.725-5.893-12.725-13.162v-11.66c0-7.27 5.697-13.162 12.725-13.162s12.725 5.892 12.725 13.162v11.66c0 7.267-5.697 13.162-12.725 13.162zM285.275 224.984c-7.028 0-12.725-5.893-12.725-13.162v-11.66c0-7.269 5.697-13.162 12.725-13.162S298 192.893 298 200.162v11.66c0 7.268-5.697 13.162-12.725 13.162zM437.301 101.174l-1.143 1.312-4.83-4.21-4.291 4.921 4.829 4.211-1.144 1.312-9.864-8.601 1.144-1.312 3.869 3.373 4.291-4.922-3.868-3.373 1.143-1.312 9.864 8.601zm-5.242-11.427l-1.224 1.404-1.292-1.126 1.224-1.404 1.292 1.126zm8.569 7.612l-1.086 1.245-7.399-6.452 1.086-1.245 7.399 6.452zm2.514-6.694l2.71 5.651-.843.967-3.334-4.936 1.467-1.682zm11.222-9.06l-3.396 3.896-1.007-.878 1.126-1.292-7.85-6.845-1.126 1.292-1.007-.878 3.396-3.895 1.007.878-1.126 1.292 7.85 6.844 1.126-1.291 1.007.878zm-6.23-13.664l2.138 5.024-.797.914-2.75-4.322 1.409-1.616zm20.682-2.91l-1.086 1.245-4.213-3.673c-.318-.277-.639-.53-.961-.757-.319-.231-.608-.377-.865-.439a1.333 1.333 0 0 0-.812.062c-.263.105-.55.337-.862.694-.304.35-.52.775-.648 1.278a8.29 8.29 0 0 0-.25 1.624 8.255 8.255 0 0 1 .796.612l4.736 4.13-1.086 1.246-4.213-3.674a11.647 11.647 0 0 0-.968-.762c-.319-.232-.607-.378-.864-.44a1.285 1.285 0 0 0-.806.068c-.262.105-.55.337-.862.694-.296.34-.511.756-.643 1.247a8.184 8.184 0 0 0-.247 1.58l5.525 4.818-1.086 1.245-7.4-6.452 1.086-1.245.822.716a7.29 7.29 0 0 1 .255-1.818 3.851 3.851 0 0 1 .809-1.475c.439-.504.916-.838 1.433-1.002a2.593 2.593 0 0 1 1.568-.02c.015-.873.111-1.598.287-2.175.172-.58.464-1.107.876-1.58.709-.812 1.478-1.195 2.308-1.148.829.039 1.685.443 2.568 1.213l4.803 4.188zm5.079-19.72c.438.38.777.812 1.017 1.294.24.474.378.967.413 1.48a4.408 4.408 0 0 1-.283 1.875c-.236.61-.663 1.268-1.279 1.975l-1.144 1.312 3.677 3.205-1.144 1.312-9.864-8.6 2.334-2.677c.516-.592 1.004-1.049 1.464-1.37a4.42 4.42 0 0 1 1.416-.69 3.496 3.496 0 0 1 1.698-.047c.556.12 1.121.43 1.695.93zm-1.156 1.393c-.34-.297-.688-.495-1.044-.595a1.975 1.975 0 0 0-1.09.006 2.84 2.84 0 0 0-.926.474c-.297.216-.627.531-.989.946l-1.132 1.299 3.942 3.436.965-1.106c.462-.53.791-1 .987-1.413.191-.416.274-.818.247-1.207a2.481 2.481 0 0 0-.287-1.02 2.972 2.972 0 0 0-.673-.82zm1.994-5.899l-1.224 1.405-1.292-1.127 1.225-1.404 1.291 1.126zm8.569 7.612l-1.085 1.245-7.4-6.452 1.086-1.245 7.399 6.452zm7.735-8.87l-1.369 1.57-4.673-.378.999 4.59-1.265 1.452-1.171-6.106-6.205-.373 1.369-1.57 4.615.351-.971-4.53 1.271-1.458 1.108 6.085 6.292.367zm3.245-10.93l-4.754 5.451c.455.397.912.675 1.372.835.455.156.894.209 1.319.159a2.974 2.974 0 0 0 1.187-.4 4.37 4.37 0 0 0 1.072-.907 5.488 5.488 0 0 0 1.024-1.777c.244-.69.363-1.227.357-1.613l.058-.066 1.358 1.184a13.606 13.606 0 0 1-.677 1.672 6.904 6.904 0 0 1-1.022 1.534c-1.071 1.228-2.238 1.897-3.501 2.008-1.267.108-2.513-.372-3.736-1.438-1.21-1.055-1.884-2.222-2.021-3.5-.134-1.282.27-2.462 1.209-3.54.87-.998 1.832-1.512 2.885-1.543 1.056-.035 2.121.416 3.194 1.351l.676.59zm-2.011.38c-.657-.565-1.307-.84-1.95-.826-.639.01-1.247.347-1.825 1.01-.581.666-.849 1.37-.802 2.11.05.736.344 1.384.88 1.946l3.697-4.24zm8.325-.414l-1.086 1.246-10.307-8.988 1.086-1.245 10.307 8.987zm9.733-11.162l-1.178 1.351-1.477-1.288 1.178-1.351 1.477 1.288zm-3.223 3.697l-1.178 1.35-1.478-1.287 1.179-1.352 1.477 1.288zm-3.223 3.696l-1.178 1.351-1.478-1.288 1.179-1.351 1.477 1.288z"/><path stroke="#000" stroke-linecap="round" stroke-width="2" d="M418.5 115.527s-5.066 10.466-13.5 14.5c-8.434 4.033-21 5.034-21 5.034"/></svg>