<svg xmlns="http://www.w3.org/2000/svg" viewBox="0 0 515 284"><g transform="translate(-25 -15)"><path fill="#70BF4F" d="M326 82.25h17.9V249.2H326z"/><path fill="#E94037" d="M310.2 82.25H327V249.2h-16.8z"/><path fill="#465BA6" d="M342.9 82.25h15.97V249.2H342.9z"/><ellipse cx="335.355" cy="45.965" fill="#292929" rx="29.25" ry="29.25"/><path fill="#292929" d="M34.63 100.63c9.75-12.06 25.24-17.77 40.25-19.43 22.52-2.7 45.39 2.05 65.99 11.17l-13.75 34.77c-13.57-5.98-28.08-11.24-43.14-10.58-5.12.19-11.1 1.98-13.27 7.13-2.09 4.74.81 9.99 4.87 12.58 15.91 10.39 35.09 15.11 49.88 27.33 6.89 5.51 11.87 13.3 13.9 21.89 3.19 13.65 1.58 28.82-6.23 40.68-6.9 10.79-18.31 17.99-30.38 21.72-14.8 4.62-30.59 4.32-45.87 2.89-11.34-1.06-22.24-4.73-32.56-9.42l-.07-40.26c13.98 7.05 29.12 12.05 44.73 13.65 6.44.5 13.19.88 19.33-1.48 4.53-1.74 8.09-6.34 7.55-11.34-.22-5.16-4.76-8.55-8.83-10.94-15.07-8.32-32.09-13.33-45.53-24.42-8.31-6.84-13.99-16.77-15.4-27.46-2.01-13.23-.19-27.86 8.53-38.48M160.82 82.85h45.23v72.3l48.78-72.31 49.18.01-52.49 74.42 51.57 92.15-50.81-.02-33.1-63.65-12.95 7.7-.18 55.97h-45.23V82.85M426.45 218.16h54.255l8.605 31.24 49.23.02-54.98-167.24-60.13-.01-54.3 167.25 49.37.05 35.25-139.64 18.02 71.45H430.5M362.64 257.32l-27.348 36.072L307.8 257.48l54.84-.16"/><defs><linearGradient id="a" x1="160" x2="341" y1="290" y2="290" gradientUnits="userSpaceOnUse"><stop offset="0" stop-color="#565656" stop-opacity=".188"/><stop offset="1" stop-color="#565656"/></linearGradient></defs><path fill="url(#a)" d="M138 295.5q0-.111.027-.221t.081-.22q.054-.11.136-.219.081-.11.188-.218.108-.108.242-.215.135-.108.295-.213.16-.106.346-.21.186-.104.398-.206.211-.102.447-.202.236-.1.497-.197.26-.098.544-.193.284-.094.591-.186t.636-.181q.329-.088.679-.174.351-.085.722-.167t.761-.16q.391-.078.8-.152.409-.075.836-.145.427-.07.871-.136.443-.065.903-.127.459-.061.933-.118.473-.057.961-.109.487-.052.986-.099.499-.047 1.01-.09.51-.042 1.03-.079t1.049-.069q.528-.032 1.064-.059.536-.027 1.077-.049.542-.021 1.089-.037.546-.016 1.096-.027.549-.011 1.101-.017.552-.005 1.104-.005h158q.552 0 1.104.005.552.006 1.101.017.55.011 1.096.027.547.016 1.088.037.542.022 1.078.049.536.027 1.064.059.529.032 1.049.069.52.037 1.03.079.511.043 1.01.09t.986.099q.488.052.961.109.474.057.933.118.46.062.903.127.444.066.871.136t.836.145q.409.074.8.152.39.078.761.16t.722.167q.35.086.679.174.329.089.636.181t.591.186q.284.095.544.193.261.097.497.197t.447.202q.212.102.398.206.186.104.346.21.16.105.295.213.134.107.242.215.107.108.188.218.081.109.136.219.054.11.081.22.027.11.027.221 0 .11-.027.221-.027.11-.081.22-.055.11-.136.219-.081.11-.188.218-.108.108-.242.215-.135.108-.295.213-.16.106-.346.21-.186.104-.398.206-.211.102-.447.202-.236.1-.497.197-.26.098-.544.192-.284.095-.591.187t-.636.181q-.329.088-.679.174-.351.085-.722.167t-.761.16q-.391.078-.8.152-.409.074-.836.145-.427.07-.871.135-.443.066-.903.128-.459.061-.933.118-.473.057-.961.109-.487.052-.986.099-.499.047-1.01.089-.51.043-1.03.08-.52.037-1.049.069-.528.032-1.064.059-.536.027-1.078.048-.541.022-1.088.038-.546.016-1.096.027-.549.011-1.101.017-.552.005-1.104.005h-158q-.552 0-1.104-.005-.552-.006-1.101-.017-.55-.011-1.096-.027-.547-.016-1.089-.038-.541-.021-1.077-.048-.536-.027-1.064-.059-.529-.032-1.049-.069-.52-.037-1.03-.08-.511-.042-1.01-.089-.499-.047-.986-.099-.488-.052-.961-.109-.474-.057-.933-.118-.46-.062-.903-.128-.444-.065-.871-.135-.427-.071-.836-.145t-.8-.152q-.39-.078-.761-.16t-.722-.167q-.35-.086-.679-.174-.329-.089-.636-.181t-.591-.187q-.284-.094-.544-.192-.261-.097-.497-.197t-.447-.202q-.212-.102-.398-.206-.186-.104-.346-.21-.161-.105-.295-.213-.134-.107-.242-.215-.107-.108-.188-.218-.082-.109-.136-.219-.054-.11-.081-.22-.027-.111-.027-.221z"/></g></svg>