<svg xmlns="http://www.w3.org/2000/svg" viewBox="0 0 400 200" fill="none"><rect width="395" height="195" x="2.5" y="2.5" stroke="#000" stroke-width="5" rx="7.5"/><rect width="76" height="146" x="25" y="27" fill="#C4C4C4" rx="5"/><rect width="76" height="146" x="207" y="27" fill="#C4C4C4" rx="5"/><rect width="76" height="146" x="298" y="27" fill="#C4C4C4" rx="5"/><rect width="76" height="146" x="116" y="27" fill="#C4C4C4" rx="5"/><path fill="#000" d="M334.121 102.121a2.999 2.999 0 0 0 0-4.242l-19.092-19.092a3 3 0 1 0-4.242 4.242L327.757 100l-16.97 16.971a2.998 2.998 0 0 0 0 4.242 2.998 2.998 0 0 0 4.242 0l19.092-19.092zM52 103h280v-6H52v6z"/></svg>