<svg xmlns="http://www.w3.org/2000/svg" viewBox="0 0 200 400" fill="none"><rect width="195" height="395" x="2.5" y="2.5" stroke="#000" stroke-width="5" rx="7.5"/><rect width="143" height="96" x="29" y="27" fill="#C4C4C4" rx="5"/><rect width="143" height="66" x="29" y="307" fill="#C4C4C4" rx="5"/><rect width="143" height="31" x="29" y="150" fill="#C4C4C4" rx="5"/><rect width="143" height="14" x="29" y="198" fill="#C4C4C4" rx="5"/><rect width="143" height="14" x="29" y="276" fill="#C4C4C4" rx="5"/><rect width="143" height="14" x="29" y="250" fill="#C4C4C4" rx="5"/><rect width="143" height="14" x="29" y="224" fill="#C4C4C4" rx="5"/><path fill="#000" d="M97.879 330.121a2.999 2.999 0 0 0 4.242 0l19.092-19.092a2.998 2.998 0 0 0 0-4.242 2.998 2.998 0 0 0-4.242 0L100 323.757l-16.97-16.97a3 3 0 1 0-4.243 4.242l19.092 19.092zM97 71v257h6V71h-6z"/></svg>