<svg xmlns="http://www.w3.org/2000/svg" viewBox="0 0 374 287" fill="none"><path fill="#000" d="M50.866 23.983h4.979v231.898h-4.979z"/><path fill="#000" fill-rule="evenodd" d="M61.862 250.91H44.669L53.266 274l8.596-23.09z" clip-rule="evenodd"/><path fill="#000" d="M116.465 23.983h4.979v231.898h-4.979z"/><path fill="#000" fill-rule="evenodd" d="M127.461 250.91h-17.193l8.596 23.09 8.597-23.09z" clip-rule="evenodd"/><path fill="#000" d="M178.702 23.983h4.979v231.898h-4.979z"/><path fill="#000" fill-rule="evenodd" d="M189.699 250.91h-17.193l8.596 23.09 8.597-23.09z" clip-rule="evenodd"/><path fill="#000" d="M246.417 23.983h4.979v231.898h-4.979z"/><path fill="#000" fill-rule="evenodd" d="M257.413 250.91h-17.192l8.596 23.09 8.596-23.09z" clip-rule="evenodd"/><path fill="#000" d="M307.535 23.983h4.979v231.898h-4.979z"/><path fill="#000" fill-rule="evenodd" d="M318.531 250.91h-17.193l8.597 23.09 8.596-23.09z" clip-rule="evenodd"/><path fill="#000" d="M34.186 56.471h315.919v4.979H34.186z"/><path fill="#000" fill-rule="evenodd" d="M343.391 50.4v17.192l23.09-8.596-23.09-8.597z" clip-rule="evenodd"/><path fill="#000" d="M34.186 130.659h315.919v4.979H34.186z"/><path fill="#000" fill-rule="evenodd" d="M343.391 124.587v17.193l23.09-8.597-23.09-8.596z" clip-rule="evenodd"/><path fill="#000" d="M34.186 205.469h315.919v4.979H34.186z"/><path fill="#000" fill-rule="evenodd" d="M343.391 199.397v17.193l23.09-8.597-23.09-8.596z" clip-rule="evenodd"/><rect width="68.586" height="72.818" x="19" y="20" fill="#C4C4C4" rx="5"/><rect width="111.904" height="72.818" x="100.905" y="20" fill="#C4C4C4" rx="5"/><rect width="46.927" height="72.818" x="286.374" y="21.245" fill="#C4C4C4" rx="5"/><rect width="46.927" height="134.558" x="286.498" y="107.755" fill="#C4C4C4" rx="5"/><rect width="46.927" height="138.79" x="226.128" y="21.245" fill="#C4C4C4" rx="5"/><rect width="192.564" height="52.28" x="19" y="107.133" fill="#C4C4C4" rx="5"/><rect width="113.148" height="68.586" x="19" y="173.728" fill="#C4C4C4" rx="5"/><rect width="127.339" height="68.586" x="144.969" y="173.728" fill="#C4C4C4" rx="5"/><rect width="369" height="282" x="2.5" y="2.5" stroke="#000" stroke-width="5" rx="7.5"/></svg>