<svg xmlns="http://www.w3.org/2000/svg" width="845" height="399" fill="none"><path fill="#000" d="M841.801 24h-7.944v-1.536h2.736V8.928l-2.832 1.488-.648-1.176 3.48-2.04h2.52v15.264h2.688V24zM834.385 176.208h-2.304v-2.664c.624-.48 1.376-.864 2.256-1.152.88-.288 1.848-.432 2.904-.432.896 0 1.672.112 2.328.336.656.224 1.192.528 1.608.912.432.368.744.8.936 1.296.208.496.312 1.024.312 1.584 0 1.008-.248 2.016-.744 3.024a14.159 14.159 0 0 1-1.872 2.856 20.043 20.043 0 0 1-2.472 2.472 26.03 26.03 0 0 1-2.568 1.92l-.528.336c-.128.08-.256.168-.384.264-.128.08-.216.136-.264.168v.096l1.56-.144h5.568l.48-.48v-2.304h1.536V189h-10.896v-2.016c.416-.24.896-.56 1.44-.96.56-.4 1.136-.864 1.728-1.392a25.37 25.37 0 0 0 1.752-1.728 16.162 16.162 0 0 0 1.536-1.992 11.65 11.65 0 0 0 1.08-2.136 6.02 6.02 0 0 0 .432-2.208c0-.464-.072-.896-.216-1.296a2.88 2.88 0 0 0-.6-1.056 2.449 2.449 0 0 0-.984-.696 3.136 3.136 0 0 0-1.32-.264c-.528 0-.968.04-1.32.12a7.03 7.03 0 0 0-.984.312v2.52zM835.809 331.944c.592 0 1.128-.088 1.608-.264.48-.192.896-.448 1.248-.768s.624-.688.816-1.104c.192-.432.288-.896.288-1.392 0-.576-.104-1.08-.312-1.512a2.958 2.958 0 0 0-.864-1.104 3.36 3.36 0 0 0-1.248-.672c-.48-.16-.992-.24-1.536-.24h-1.704v-1.632l5.4-5.184v-.096l-1.44.144h-4.824l-.48.48v1.92h-1.536v-4.32h10.368v1.872l-4.512 4.224-.552.504-.408.36a1.347 1.347 0 0 1-.216.192v.048a2.846 2.846 0 0 0 .48-.096c.128-.032.272-.056.432-.072.848.032 1.616.16 2.304.384a4.96 4.96 0 0 1 1.776.936c.496.4.872.896 1.128 1.488.272.576.408 1.248.408 2.016 0 .8-.176 1.52-.528 2.16-.336.64-.8 1.184-1.392 1.632-.592.448-1.288.792-2.088 1.032s-1.656.36-2.568.36c-.416 0-.864-.032-1.344-.096-.464-.064-.92-.144-1.368-.24-.448-.112-.872-.24-1.272-.384a4.457 4.457 0 0 1-.96-.528v-2.832h2.304v2.136c.224.16.568.312 1.032.456.48.128 1 .192 1.56.192z"/><path stroke="#979797" stroke-width="3" d="M785 15.5h35M785 170.5h35M785 325.5h35"/><g stroke-width="5"><path stroke="#4A90E2" stroke-dasharray="10" d="M472.5 15.5h310v310h-310z"/><path fill="#D8D8D8" stroke="#595959" d="M7.5 15.5h465v310H7.5z"/><path stroke="#595959" stroke-linecap="square" d="M317.5 18v305M10 170.5h460"/><path stroke="#4A90E2" stroke-dasharray="5 9" stroke-linecap="square" d="M477.5 170.5h300"/><path stroke="#595959" stroke-linecap="square" d="M162.5 18v305"/><path stroke="#4A90E2" stroke-dasharray="5 9" stroke-linecap="square" d="M627.5 20.5v300"/></g><g><path stroke="#979797" stroke-width="3" d="M7.5 328v35M162.5 328v35M317.5 328v35M472.5 328v35"/><path fill="#000" d="M11.8 392H3.858v-1.536h2.736v-13.536l-2.832 1.488-.648-1.176 3.48-2.04h2.52v15.264H11.8V392zM161.385 379.208h-2.304v-2.664c.624-.48 1.376-.864 2.256-1.152.88-.288 1.848-.432 2.904-.432.896 0 1.672.112 2.328.336.656.224 1.192.528 1.608.912.432.368.744.8.936 1.296.208.496.312 1.024.312 1.584 0 1.008-.248 2.016-.744 3.024a14.159 14.159 0 0 1-1.872 2.856 20.043 20.043 0 0 1-2.472 2.472 26.03 26.03 0 0 1-2.568 1.92l-.528.336c-.128.08-.256.168-.384.264-.128.08-.216.136-.264.168v.096l1.56-.144h5.568l.48-.48v-2.304h1.536V392h-10.896v-2.016c.416-.24.896-.56 1.44-.96.56-.4 1.136-.864 1.728-1.392a25.37 25.37 0 0 0 1.752-1.728 16.162 16.162 0 0 0 1.536-1.992 11.65 11.65 0 0 0 1.08-2.136 6.02 6.02 0 0 0 .432-2.208c0-.464-.072-.896-.216-1.296a2.88 2.88 0 0 0-.6-1.056 2.449 2.449 0 0 0-.984-.696 3.136 3.136 0 0 0-1.32-.264c-.528 0-.968.04-1.32.12a7.03 7.03 0 0 0-.984.312v2.52zM316.809 390.944c.592 0 1.128-.088 1.608-.264.48-.192.896-.448 1.248-.768s.624-.688.816-1.104c.192-.432.288-.896.288-1.392 0-.576-.104-1.08-.312-1.512a2.958 2.958 0 0 0-.864-1.104 3.36 3.36 0 0 0-1.248-.672c-.48-.16-.992-.24-1.536-.24h-1.704v-1.632l5.4-5.184v-.096l-1.44.144h-4.824l-.48.48v1.92h-1.536v-4.32h10.368v1.872l-4.512 4.224-.552.504-.408.36a1.347 1.347 0 0 1-.216.192v.048a2.846 2.846 0 0 0 .48-.096c.128-.032.272-.056.432-.072.848.032 1.616.16 2.304.384a4.96 4.96 0 0 1 1.776.936c.496.4.872.896 1.128 1.488.272.576.408 1.248.408 2.016 0 .8-.176 1.52-.528 2.16-.336.64-.8 1.184-1.392 1.632-.592.448-1.288.792-2.088 1.032s-1.656.36-2.568.36c-.416 0-.864-.032-1.344-.096-.464-.064-.92-.144-1.368-.24-.448-.112-.872-.24-1.272-.384a4.457 4.457 0 0 1-.96-.528v-2.832h2.304v2.136c.224.16.568.312 1.032.456.48.128 1 .192 1.56.192zM477.457 392h-7.056v-1.536h2.472v-3.096h-8.232v-1.536l8.232-10.632h2.52v10.632h2.976v1.536h-2.976v3.096h2.064V392zm-4.584-13.176l.168-1.728h-.072l-.936 1.728-4.992 6.384-.888.792 1.728-.168h4.992v-7.008z"/><path stroke="#979797" stroke-width="3" d="M627.5 328v35"/><path fill="#000" d="M629.817 374h1.536v3.12h-7.32v4.56h1.536c.896 0 1.72.112 2.472.336.752.224 1.392.544 1.92.96.544.416.96.936 1.248 1.56.304.624.456 1.328.456 2.112 0 .928-.184 1.744-.552 2.448a5.389 5.389 0 0 1-1.416 1.752 6.297 6.297 0 0 1-2.064 1.056 8.442 8.442 0 0 1-2.376.336c-.736 0-1.456-.08-2.16-.24-.704-.16-1.312-.424-1.824-.792v-2.568h2.304v2.088c.176.032.416.08.72.144.304.048.616.072.936.072.592 0 1.128-.088 1.608-.264.48-.192.888-.456 1.224-.792.352-.336.616-.728.792-1.176a3.98 3.98 0 0 0 .288-1.536c0-.64-.128-1.184-.384-1.632a3.105 3.105 0 0 0-1.056-1.128 4.405 4.405 0 0 0-1.584-.648 8.11 8.11 0 0 0-1.92-.216h-1.704V375.2h6.84l.48-.48V374z"/><path stroke="#979797" stroke-width="3" d="M782.5 328v35"/><path fill="#000" d="M787.865 386.912c0 .752-.144 1.456-.432 2.112a4.986 4.986 0 0 1-1.224 1.704c-.512.48-1.136.864-1.872 1.152-.736.272-1.56.408-2.472.408-1.008 0-1.904-.152-2.688-.456-.784-.32-1.44-.76-1.968-1.32a5.58 5.58 0 0 1-1.2-1.992c-.272-.768-.408-1.608-.408-2.52 0-1.504.272-2.872.816-4.104a10.94 10.94 0 0 1 2.232-3.24 12.417 12.417 0 0 1 3.192-2.304 15.126 15.126 0 0 1 3.744-1.32l.336 1.2c-.832.24-1.672.576-2.52 1.008-.832.432-1.6.96-2.304 1.584a9.695 9.695 0 0 0-1.776 2.16 6.813 6.813 0 0 0-.888 2.736c.144-.208.344-.416.6-.624.272-.208.584-.392.936-.552.352-.16.744-.288 1.176-.384.448-.112.92-.168 1.416-.168.768 0 1.48.112 2.136.336a4.81 4.81 0 0 1 1.68.96 4.24 4.24 0 0 1 1.08 1.536c.272.608.408 1.304.408 2.088zm-2.688.216c0-1.152-.304-2.08-.912-2.784-.592-.704-1.432-1.056-2.52-1.056-.848 0-1.56.184-2.136.552-.576.368-1 .784-1.272 1.248a5.682 5.682 0 0 0-.048.792v.72c0 .512.072 1.04.216 1.584.16.528.392 1.016.696 1.464.304.432.688.792 1.152 1.08.48.288 1.032.432 1.656.432.56 0 1.04-.112 1.44-.336.4-.24.728-.552.984-.936a3.92 3.92 0 0 0 .552-1.296c.128-.48.192-.968.192-1.464z"/></g><g><path fill="#7ED321" fill-opacity=".75" d="M630 173h150v150H630z"/><path fill="#000" d="M665.843 254.948c0-.72.228-1.296.684-1.728.456-.432 1.044-.648 1.764-.648.744 0 1.344.216 1.8.648.456.432.684 1.008.684 1.728 0 .696-.228 1.26-.684 1.692-.456.432-1.056.648-1.8.648-.72 0-1.308-.216-1.764-.648-.456-.432-.684-.996-.684-1.692zM682.81 257h-7.992v-.9c.36-.192.732-.348 1.116-.468.384-.144.804-.276 1.26-.396v-14.148l-2.376-.288v-.936c.696-.288 1.452-.54 2.268-.756a29.806 29.806 0 0 1 2.448-.54h.9v16.668c.48.12.912.252 1.296.396.384.12.744.276 1.08.468v.9zm-6.3-24.12c0-.648.204-1.164.612-1.548.432-.384.996-.576 1.692-.576s1.248.192 1.656.576c.408.384.612.9.612 1.548s-.204 1.164-.612 1.548c-.408.36-.96.54-1.656.54s-1.26-.18-1.692-.54c-.408-.384-.612-.9-.612-1.548zm8.2 6.984a9.477 9.477 0 0 1 2.88-1.224v-3.06c.312-.24.672-.468 1.08-.684.432-.24.852-.444 1.26-.612h.9V239h5.4v1.8h-5.4v10.44c0 1.44.228 2.46.684 3.06.456.6 1.14.9 2.052.9.432 0 .972-.024 1.62-.072.648-.072 1.2-.192 1.656-.36l.252.54c-.192.216-.468.444-.828.684a7.76 7.76 0 0 1-1.188.684 7.808 7.808 0 0 1-1.44.54 6.13 6.13 0 0 1-1.62.216c-1.44 0-2.544-.408-3.312-1.224-.744-.816-1.116-2.136-1.116-3.96V240.8h-2.88v-.936zm28.875 14.616c-.192.408-.492.792-.9 1.152-.408.36-.876.672-1.404.936a7.74 7.74 0 0 1-1.728.612 7.308 7.308 0 0 1-1.908.252c-1.416 0-2.664-.216-3.744-.648-1.08-.456-1.98-1.092-2.7-1.908-.72-.84-1.272-1.836-1.656-2.988-.36-1.152-.54-2.448-.54-3.888 0-3.072.708-5.412 2.124-7.02 1.416-1.608 3.42-2.412 6.012-2.412.84 0 1.668.12 2.484.36a5.462 5.462 0 0 1 2.16 1.116c.648.528 1.164 1.236 1.548 2.124.408.864.612 1.944.612 3.24 0 .408-.024.828-.072 1.26a9.75 9.75 0 0 1-.18 1.332h-11.232c0 1.008.12 1.956.36 2.844.264.864.648 1.62 1.152 2.268a5.488 5.488 0 0 0 1.908 1.548c.768.36 1.668.54 2.7.54.84 0 1.692-.12 2.556-.36.864-.24 1.512-.552 1.944-.936l.504.576zm-6.588-14.328c-1.368 0-2.412.468-3.132 1.404-.72.912-1.152 2.532-1.296 4.86h7.92c.024-.216.036-.42.036-.612.024-.216.036-.42.036-.612 0-1.536-.288-2.76-.864-3.672-.576-.912-1.476-1.368-2.7-1.368zM735.363 257h-7.704v-.9a7.22 7.22 0 0 1 .864-.432c.36-.168.78-.312 1.26-.432v-8.316c0-.96-.048-1.824-.144-2.592-.072-.768-.228-1.404-.468-1.908-.216-.528-.54-.924-.972-1.188-.432-.288-.996-.432-1.692-.432-.528 0-1.02.108-1.476.324a4.558 4.558 0 0 0-1.188.864c-.336.36-.636.768-.9 1.224-.24.456-.432.936-.576 1.44v10.584c.384.12.744.252 1.08.396.36.12.708.276 1.044.468v.9h-7.74v-.9a9.765 9.765 0 0 1 1.116-.468c.408-.144.828-.276 1.26-.396v-14.148l-2.376-.288v-.936c.768-.336 1.548-.6 2.34-.792a23.43 23.43 0 0 1 2.376-.504h.9v4.068h.036a6.55 6.55 0 0 1 1.944-2.88c.936-.792 2.088-1.188 3.456-1.188.576 0 1.128.06 1.656.18a3.94 3.94 0 0 1 1.476.684c.456.312.84.756 1.152 1.332.312.576.54 1.32.684 2.232.432-1.32 1.128-2.388 2.088-3.204.96-.816 2.16-1.224 3.6-1.224.888 0 1.656.12 2.304.36a3.283 3.283 0 0 1 1.656 1.188c.432.576.744 1.356.936 2.34.216.984.324 2.232.324 3.744v9.036a7.474 7.474 0 0 1 2.376.864v.9h-7.74v-.9c.72-.384 1.428-.672 2.124-.864v-8.964c0-.864-.048-1.632-.144-2.304-.072-.672-.228-1.236-.468-1.692-.24-.48-.576-.84-1.008-1.08-.432-.264-1.008-.396-1.728-.396-1.152 0-2.052.396-2.7 1.188-.624.792-1.08 1.8-1.368 3.024v10.224c.84.24 1.62.528 2.34.864v.9z"/></g></svg>