<svg viewBox="0 0 293 279" fill="none" xmlns="http://www.w3.org/2000/svg"><path d="M119.383 189.972c0 11.163-9.051 20.218-20.219 20.218-11.163 0-20.214-9.055-20.214-20.218 0-11.164 9.051-20.219 20.214-20.219 11.168 0 20.219 9.055 20.219 20.219z" fill="#2574BB"/><path d="M98.442 134.121c28.377 0 51.92 20.446 56.864 47.395h-11.113l27.03 26.578 27.109-26.578h-13.55C179.602 138.414 142.938 105 98.442 105c-36.089 0-67.044 21.976-80.218 53.273l27.143 10.631c8.92-20.468 29.32-34.783 53.075-34.783zM98.442 249.879c-27.841 0-51.025-19.677-56.565-45.87H54.14l-27.03-26.577L0 204.009h12.291C18.143 246.372 54.47 279 98.442 279c36 0 66.892-21.866 80.121-53.036l-27.152-10.635c-8.974 20.345-29.307 34.55-52.968 34.55z" fill="#4C4D4F"/><path fill-rule="evenodd" clip-rule="evenodd" d="M168.854 31.636c0-4.71-42.123-29.636-47.681-29.636S48.075 25.462 46.178 29.385c-1.896 3.923 49.37 30.818 49.37 30.818" fill="#fff"/><path d="M168.854 31.636c0-4.71-42.123-29.636-47.681-29.636S48.075 25.462 46.178 29.385c-1.896 3.923 49.37 30.818 49.37 30.818" stroke="#ff8200" stroke-width="3" stroke-linecap="square"/><path d="M170 67.5s1.06 7.804 5 10.5c3.94 2.696 10 7 10 7M131.138 103.063s7.342 5.961 9.215 9.606c1.873 3.645 2.553 13.295 2.553 13.295l10.85-4.19M114.34 116.254s2.294 2.189 5.011 5.257c2.718 3.067 4.807 11.028 4.807 11.028l9.475-6.747" stroke="#000" stroke-width="5" stroke-linecap="round"/><path d="M144.796 15.557L68.311 44.73" stroke="#ff8200" stroke-width="3" stroke-linecap="square"/><path d="M169.07 32.123zm-.234-.02a4.986 4.986 0 0 0-.484.018c-.631.05-1.516.196-2.648.446-2.256.496-5.316 1.362-8.933 2.5-7.225 2.274-16.546 5.6-25.83 9.129-9.281 3.527-18.501 7.248-25.519 10.309-3.513 1.531-6.455 2.89-8.572 3.97-1.062.542-1.89 1-2.47 1.367a6.747 6.747 0 0 0-.666.467l-.022.083c-.04.161-.084.388-.128.69a32.612 32.612 0 0 0-.237 2.433c-.137 2.025-.224 4.745-.272 7.935-.095 6.375-.032 14.55.096 22.624.127 8.072.318 16.033.478 21.977a2214.622 2214.622 0 0 0 .224 7.864l1.175-.387c1.963-.646 4.775-1.575 8.167-2.705a2330.51 2330.51 0 0 0 25.178-8.542c9.291-3.218 18.751-6.584 26.249-9.449 3.75-1.433 6.995-2.734 9.475-3.825a54.178 54.178 0 0 0 3.081-1.451c.831-.433 1.329-.748 1.562-.943.102-.085.322-.352.592-.975.258-.594.509-1.391.746-2.392.472-1.998.849-4.651 1.131-7.77.562-6.227.734-14.137.604-22.008-.129-7.867-.558-15.652-1.186-21.62-.315-2.989-.677-5.488-1.067-7.303-.196-.91-.391-1.607-.574-2.09a3.85 3.85 0 0 0-.15-.352zm-.106-.187z" fill="#fff" stroke="#ff8200" stroke-width="3"/><path d="M94.6 59.712c-.005-.018-.008-.024-.006-.023a2.993 2.993 0 0 0-.167-.2 9.413 9.413 0 0 0-.478-.484c-.41-.39-.965-.877-1.657-1.453-1.382-1.148-3.255-2.602-5.471-4.248-4.43-3.29-10.183-7.309-16.018-11.12-5.842-3.815-11.733-7.4-16.447-9.831-2.363-1.22-4.38-2.123-5.92-2.628-.775-.253-1.37-.386-1.798-.425a2.05 2.05 0 0 0-.381-.006 2.8 2.8 0 0 0-.22.482c-.184.504-.363 1.234-.522 2.2-.317 1.92-.523 4.557-.636 7.701-.226 6.276-.076 14.385.228 22.431.303 8.04.758 15.986 1.137 21.924a956.794 956.794 0 0 0 .63 9.154v.005l1.478 1.049c1.308.925 3.18 2.245 5.434 3.823 4.51 3.156 10.55 7.341 16.672 11.459 6.128 4.122 12.32 8.163 17.141 11.04 2.417 1.442 4.453 2.57 5.95 3.269.568.265 1.027.453 1.379.573.113-.47.227-1.125.336-1.964.238-1.825.434-4.36.586-7.396.304-6.063.431-14.009.401-22.019-.03-8.009-.216-16.057-.535-22.323-.16-3.135-.352-5.805-.572-7.792a30.414 30.414 0 0 0-.341-2.389c-.1-.506-.18-.74-.203-.81zm.13 65.311z" fill="#fff" stroke="#ff8200" stroke-width="3"/><path d="M70.059 84.126s-10.233 1.241-15.029 9.39c-4.796 8.15 2.764 21.516 2.764 21.516" stroke="#000" stroke-width="5" stroke-linecap="round"/><path d="M143.669 66.804v3.667M120.589 74.935V78.6" stroke="#000" stroke-width="4" stroke-linecap="round"/><path d="M142.447 87.064s-3.158 5.045-6.069 5.968-9.578-1.007-9.578-1.007" stroke="#000" stroke-width="3" stroke-linecap="round"/><path d="M198.931 122.884s-10.162-10.111-15.132-17.384c-4.97-7.273 0-19 0-19" stroke="#000" stroke-width="5" stroke-linecap="round"/><path fill-rule="evenodd" clip-rule="evenodd" d="M184.403 111.348c0-3.854 34.466-24.25 39.014-24.25 4.548 0 59.811 19.198 61.362 22.408 1.552 3.21-40.395 25.216-40.395 25.216" fill="#fff"/><path d="M184.403 111.348c0-3.854 34.466-24.25 39.014-24.25 4.548 0 59.811 19.198 61.362 22.408 1.552 3.21-40.395 25.216-40.395 25.216" stroke="#f0537a" stroke-width="3" stroke-linecap="square"/><path d="M215.263 169.791s-6.007 4.877-7.54 7.859c-1.532 2.983-2.089 10.879-2.089 10.879l-8.878-3.428M237.746 179.584s1.177 2.312 2.945 5.162c1.767 2.849 7.517 6.355 7.517 6.355l-7.512 5.844" stroke="#000" stroke-width="5" stroke-linecap="round"/><path d="M204.088 98.191l62.582 23.87" stroke="#f0537a" stroke-width="3" stroke-linecap="square"/><path d="M184.276 112.014l.019-.003c-.012.003-.019.003-.019.003zm.317-.01c.058.003.125.006.2.012.497.039 1.207.156 2.129.359 1.834.404 4.329 1.109 7.286 2.04 5.904 1.859 13.526 4.578 21.119 7.464 7.592 2.885 15.131 5.928 20.869 8.43 2.872 1.253 5.273 2.361 6.999 3.242.865.442 1.535.813 2 1.106.205.129.351.232.448.307.029.119.061.289.095.517.071.483.135 1.142.191 1.969.112 1.65.183 3.87.222 6.478.078 5.212.026 11.897-.078 18.504-.104 6.603-.261 13.116-.391 17.978-.065 2.431-.124 4.449-.166 5.859l-.007.21-.614-.202a1886.389 1886.389 0 0 1-27.28-9.202c-7.601-2.632-15.338-5.385-21.469-7.728-3.067-1.171-5.717-2.235-7.741-3.125a43.678 43.678 0 0 1-2.504-1.179c-.678-.353-1.063-.6-1.23-.739-.035-.029-.195-.202-.409-.697-.202-.466-.403-1.101-.595-1.911-.382-1.618-.689-3.774-.919-6.32-.459-5.081-.599-11.544-.494-17.978.106-6.432.457-12.793.97-17.666.257-2.442.552-4.476.868-5.947.159-.739.315-1.293.458-1.67l.043-.111zm61.157 23.051l-.006-.007a.095.095 0 0 0 .006.007zm-61.028-23.313c.004-.006.005-.009.006-.008l-.006.008z" fill="#fff" stroke="#f0537a" stroke-width="3"/><path d="M245.261 135.035c.081-.412.142-.578.148-.605.016-.021.046-.057.094-.11.089-.098.213-.225.378-.381.328-.313.778-.708 1.341-1.176 1.126-.936 2.654-2.122 4.465-3.467 3.62-2.688 8.323-5.974 13.093-9.09 4.777-3.119 9.589-6.046 13.433-8.03 1.929-.995 3.564-1.727 4.805-2.133.623-.204 1.089-.306 1.41-.335a2.32 2.32 0 0 1 .12-.008c.026.054.056.126.09.219.143.39.286.969.415 1.75.257 1.556.425 3.699.517 6.268.185 5.125.062 11.752-.186 18.334a703.909 703.909 0 0 1-.931 17.931 766.105 766.105 0 0 1-.395 5.854l-.11 1.509-1.105.784c-1.07.757-2.601 1.837-4.445 3.127a921.116 921.116 0 0 1-13.637 9.374c-5.013 3.371-10.074 6.675-14.013 9.025-1.975 1.179-3.632 2.096-4.844 2.661-.316.148-.586.264-.813.353a18.884 18.884 0 0 1-.205-1.279c-.193-1.482-.352-3.548-.477-6.03-.248-4.954-.352-11.45-.328-18.002.024-6.549.177-13.131.438-18.252.13-2.563.287-4.741.467-6.359a25.1 25.1 0 0 1 .275-1.932zm.025 52.581c.014.025.013.029 0 0z" fill="#fff" stroke="#f0537a" stroke-width="3"/><path d="M264.979 150.297s10.024-1.641 15.367-9.352c5.343-7.711 7.211-15.074 7.211-15.074" stroke="#000" stroke-width="5" stroke-linecap="round"/><path d="M205.01 140.123v3M223.895 146.775v3" stroke="#000" stroke-width="4" stroke-linecap="round"/><path d="M206.01 156.7s2.584 4.128 4.966 4.883c2.381.755 7.836-.824 7.836-.824" stroke="#000" stroke-width="3" stroke-linecap="round"/></svg>