<svg xmlns="http://www.w3.org/2000/svg" viewBox="0 0 550 380" fill="none"><rect width="546" height="376" x="2" y="2" stroke="#fff" stroke-width="4" rx="48"/><circle cx="50" cy="50" r="47.5" stroke="#FED650" stroke-dasharray="8 8" stroke-width="5"/><circle cx="500" cy="50" r="47.5" stroke="#FED650" stroke-dasharray="8 8" stroke-width="5"/><circle cx="50" cy="330" r="47.5" stroke="#FED650" stroke-dasharray="8 8" stroke-width="5"/><circle cx="500" cy="330" r="47.5" stroke="#FED650" stroke-dasharray="8 8" stroke-width="5"/><path fill="#fff" d="M61.6 68.48v-.213h-9.067V30.4H48c-2.027 3.307-5.653 5.707-10.133 6.72l.48 4.48c4.48-.48 8.053-2.08 9.653-4.267v30.934h-9.227V72H61.92c-.32-1.067-.32-2.347-.32-3.52zM507.227 39.147c0 8.586-13.12 19.04-20.96 28.586V72h27.253v-4.267h-21.067c7.84-9.546 19.254-19.573 19.254-28.64 0-5.706-4.907-9.653-12-9.653-5.494 0-9.547 2.347-11.947 7.2l3.147 2.133c2.56-4 5.6-5.226 9.12-5.226 4.64 0 7.2 2.133 7.2 5.6zM57.227 318.147c0 8.586-13.12 19.04-20.96 28.586V351H63.52v-4.267H42.453c7.84-9.546 19.254-19.573 19.254-28.64 0-5.706-4.907-9.653-12-9.653-5.494 0-9.547 2.347-11.947 7.2l3.147 2.133c2.56-4 5.6-5.226 9.12-5.226 4.64 0 7.2 2.133 7.2 5.6zM511.6 347.48v-.213h-9.067V309.4H498c-2.027 3.307-5.653 5.707-10.133 6.72l.48 4.48c4.48-.48 8.053-2.08 9.653-4.267v30.934h-9.227V351h23.147c-.32-1.067-.32-2.347-.32-3.52z"/></svg>