<svg xmlns="http://www.w3.org/2000/svg" viewBox="0 0 550 380" fill="none"><rect width="546" height="376" x="2" y="2" stroke="#fff" stroke-width="4" rx="48"/><circle cx="50" cy="50" r="47.5" stroke="#FED650" stroke-dasharray="8 8" stroke-width="5"/><circle cx="500" cy="50" r="47.5" stroke="#FED650" stroke-dasharray="8 8" stroke-width="5"/><circle cx="50" cy="330" r="47.5" stroke="#FED650" stroke-dasharray="8 8" stroke-width="5"/><circle cx="500" cy="330" r="47.5" stroke="#FED650" stroke-dasharray="8 8" stroke-width="5"/><path fill="#fff" d="M61.6 68.48v-.213h-9.067V30.4H48c-2.027 3.307-5.653 5.707-10.133 6.72l.48 4.48c4.48-.48 8.053-2.08 9.653-4.267v30.934h-9.227V72H61.92c-.32-1.067-.32-2.347-.32-3.52zM507.227 39.147c0 8.586-13.12 19.04-20.96 28.586V72h27.253v-4.267h-21.067c7.84-9.546 19.254-19.573 19.254-28.64 0-5.706-4.907-9.653-12-9.653-5.494 0-9.547 2.347-11.947 7.2l3.147 2.133c2.56-4 5.6-5.226 9.12-5.226 4.64 0 7.2 2.133 7.2 5.6zM61.387 335.053h-5.814v-4.106c0-1.174 0-2.454.32-3.52H51.04v7.626H41.6L54.987 309.4h-4.8L36.8 335.053v4.267h14.24V351h4.533v-11.68h5.814v-4.267zM489.253 313.293l2.827 2.614c1.227-2.56 4.533-3.307 6.827-3.307 5.12 0 8.053 2.72 8.053 7.253 0 5.12-3.307 7.947-9.333 7.947h-2.347v3.733h2.347c6.293 0 9.973 3.2 9.973 8.907 0 4.693-2.773 7.307-8.053 7.307-4.587 0-6.934-1.334-9.44-5.014l-3.147 2.134c2.453 4.64 6.293 6.933 12 6.933 8.48 0 13.44-4.267 13.44-11.413 0-5.014-2.453-9.067-6.24-10.72 3.627-1.974 5.547-5.334 5.547-9.814 0-6.826-5.334-11.306-12.214-11.306-4.053 0-8.8 1.6-10.24 4.746z"/></svg>