<svg viewBox="0 0 1205 418" xmlns="http://www.w3.org/2000/svg"><g fill="none" fill-rule="evenodd"><path d="M419.213 374.762h337.16M430.013 377.762l-10.8-3 10.8-3M745.573 377.762l10.8-3-10.8-3" stroke="#fff" stroke-width="4"/><path d="M424.688 414.559c-1.076.692-2.138 1.148-3.186 1.367-1.048.219-1.992.241-2.83.068-.839-.173-1.522-.515-2.05-1.025-.53-.51-.812-1.158-.849-1.942l-.957-14.765a3.697 3.697 0 0 1 .274-1.696c.219-.51.492-.87.82-1.08a.965.965 0 0 1 1.012-.054c.346.173.62.624.82 1.353a15.681 15.681 0 0 1-.11 1.436c-.054.428-.095.852-.122 1.271-.028.42-.023.852.013 1.299.037.447.137.943.301 1.49 1.422-1.057 2.735-1.604 3.938-1.64 1.203-.037 2.242.264 3.117.902s1.568 1.522 2.078 2.652c.51 1.13.78 2.33.807 3.596a9.405 9.405 0 0 1-.684 3.719c-.483 1.212-1.28 2.228-2.392 3.049zm-6.645-8.532c-.091.183-.173.497-.246.944-.073.446-.11.948-.11 1.504s.042 1.13.124 1.722c.082.593.223 1.135.423 1.627.2.492.465.903.793 1.23.329.329.748.502 1.258.52 1.33-.291 2.384-.747 3.158-1.367.775-.62 1.327-1.312 1.655-2.078a5.19 5.19 0 0 0 .424-2.365 6.054 6.054 0 0 0-.547-2.243 4.945 4.945 0 0 0-1.286-1.709c-.537-.455-1.12-.706-1.75-.751-.628-.046-1.285.154-1.968.601-.684.447-1.326 1.235-1.928 2.365zm13.152 9.598c-.82-.401-1.453-.962-1.9-1.682a6.34 6.34 0 0 1-.875-2.379 8.98 8.98 0 0 1 0-2.707c.137-.938.37-1.85.697-2.734.328-.884.73-1.69 1.203-2.42.474-.729.985-1.321 1.532-1.777 1.002-.766 1.932-1.222 2.789-1.367.856-.146 1.622-.064 2.297.246.674.31 1.262.802 1.763 1.476a8 8 0 0 1 1.176 2.31c.283.867.451 1.796.506 2.79a11.47 11.47 0 0 1-.205 2.912 9.405 9.405 0 0 1-.957 2.652 5.95 5.95 0 0 1-1.778 2.024c-.738.528-1.622.866-2.652 1.011-1.03.146-2.228.028-3.596-.355zm2.106-2.27c.765.073 1.454-.095 2.064-.505a5.053 5.053 0 0 0 1.518-1.614 7.366 7.366 0 0 0 .875-2.256 6.83 6.83 0 0 0 .11-2.42 5.225 5.225 0 0 0-.766-2.105c-.401-.629-.976-1.07-1.723-1.326-.456-.091-.934.055-1.436.437-.5.383-.957.898-1.367 1.545a9.652 9.652 0 0 0-1.012 2.188 7.734 7.734 0 0 0-.396 2.406c0 .793.164 1.518.492 2.174.328.656.875 1.148 1.64 1.476zm11.703 1.723c-.128.292-.351.524-.67.697-.319.174-.652.26-.998.26s-.67-.1-.97-.3c-.302-.201-.507-.538-.616-1.012-.036-.183-.041-.56-.014-1.135.028-.574.032-1.386.014-2.434a98.269 98.269 0 0 0-.164-3.91c-.091-1.558-.264-3.422-.52-5.592.383-.346.752-.474 1.108-.382.355.09.679.291.97.601.292.31.53.688.712 1.135.182.446.282.861.3 1.244.091-.346.287-.706.588-1.08.301-.374.67-.716 1.108-1.025.437-.31.925-.575 1.462-.793a5.885 5.885 0 0 1 1.668-.41c.575-.055 1.149 0 1.723.163.574.165 1.108.474 1.6.93.018.164-.01.337-.082.52a2.138 2.138 0 0 1-.301.52 2.14 2.14 0 0 1-.438.423 1.342 1.342 0 0 1-.492.232c-1.057-.218-1.955-.205-2.693.041a3.948 3.948 0 0 0-1.818 1.217c-.474.565-.83 1.254-1.067 2.065a14.26 14.26 0 0 0-.492 2.584 21.714 21.714 0 0 0-.096 2.789c.028.948.087 1.832.178 2.652zm11.73.875c-1.184-.292-2.155-.857-2.912-1.695a7.494 7.494 0 0 1-1.627-2.885 9.321 9.321 0 0 1-.355-3.432 9.162 9.162 0 0 1 .889-3.35 7.48 7.48 0 0 1 2.119-2.624c.911-.72 2.023-1.144 3.336-1.272a10.797 10.797 0 0 1 2.023.028c.711.073 1.358.255 1.941.547l-.355-5.387c0-.219.16-.383.479-.492a2.81 2.81 0 0 1 1.052-.137c.383.018.734.118 1.053.3.319.183.479.466.479.848l1.777 18.567c.036.346-.05.62-.26.82-.21.2-.465.328-.766.383-.3.055-.606.036-.916-.055-.31-.091-.528-.255-.656-.492a1.886 1.886 0 0 1-.15-.383 72.346 72.346 0 0 1-.397-1.285c-.054-.182-.09-.273-.11-.273-.71.71-1.398 1.244-2.064 1.6-.665.355-1.29.592-1.873.71-.583.119-1.107.16-1.572.123a7.126 7.126 0 0 1-1.135-.164zm-2.105-6.152c.255 1.002.592 1.809 1.012 2.42.419.61.88 1.048 1.38 1.312.502.265 1.03.374 1.586.328a4.024 4.024 0 0 0 1.627-.506 6.368 6.368 0 0 0 1.504-1.175 7.534 7.534 0 0 0 1.23-1.723c.165-.328.26-.697.288-1.107.027-.41.009-.834-.055-1.272-.064-.437-.155-.88-.273-1.326-.119-.447-.233-.88-.342-1.299-.51-1.002-1.09-1.704-1.736-2.105-.647-.401-1.3-.58-1.955-.534-.657.046-1.286.283-1.887.711a5.812 5.812 0 0 0-1.531 1.627 6.615 6.615 0 0 0-.89 2.202 5.417 5.417 0 0 0 .042 2.447zm25.32 3.39a4.586 4.586 0 0 1-1.312 1.545 5.819 5.819 0 0 1-1.805.916 6.73 6.73 0 0 1-2.064.287 7.03 7.03 0 0 1-2.092-.341 7.505 7.505 0 0 1-1.9-.93 5.602 5.602 0 0 1-1.49-1.477 11.506 11.506 0 0 1-1.34-3.691c-.238-1.313-.229-2.552.027-3.719a6.636 6.636 0 0 1 1.558-3.062c.784-.875 1.878-1.459 3.282-1.75 1.33-.091 2.383.068 3.158.478.774.41 1.303.966 1.586 1.668.282.702.337 1.481.164 2.338-.173.857-.543 1.69-1.108 2.502-.565.811-1.312 1.531-2.242 2.16-.93.63-2.005 1.062-3.226 1.3.364.6.779 1.034 1.244 1.298a3.74 3.74 0 0 0 1.463.478c.51.055 1.016.023 1.517-.095a9.628 9.628 0 0 0 1.395-.438c.428-.173.806-.337 1.134-.492.329-.155.566-.26.711-.314.657-.201 1.103-.201 1.34 0 .237.2.237.647 0 1.34zm-7.246-9.761c-.437.328-.82.702-1.148 1.12-.328.42-.593.867-.793 1.34-.2.475-.333.967-.397 1.477-.064.51-.05 1.012.041 1.504a5.499 5.499 0 0 0 2.065-.71 6.383 6.383 0 0 0 1.531-1.245c.41-.465.706-.943.889-1.436.182-.492.232-.92.15-1.285-.082-.364-.314-.629-.697-.793-.383-.164-.93-.155-1.64.028zm12.168 11.648c-.127.292-.35.524-.67.697-.319.174-.651.26-.998.26-.346 0-.67-.1-.97-.3-.301-.201-.506-.538-.616-1.012-.036-.183-.04-.56-.013-1.135.027-.574.031-1.386.013-2.434a98.27 98.27 0 0 0-.164-3.91c-.091-1.558-.264-3.422-.52-5.592.383-.346.753-.474 1.108-.382.356.09.68.291.97.601.292.31.53.688.712 1.135.182.446.282.861.3 1.244.092-.346.288-.706.588-1.08.301-.374.67-.716 1.108-1.025.437-.31.925-.575 1.463-.793a5.885 5.885 0 0 1 1.668-.41c.574-.055 1.148 0 1.722.163.575.165 1.108.474 1.6.93.018.164-.01.337-.082.52a2.138 2.138 0 0 1-.3.52 2.14 2.14 0 0 1-.438.423 1.342 1.342 0 0 1-.493.232c-1.057-.218-1.955-.205-2.693.041a3.948 3.948 0 0 0-1.818 1.217c-.474.565-.83 1.254-1.067 2.065a14.26 14.26 0 0 0-.492 2.584 21.714 21.714 0 0 0-.096 2.789c.028.948.087 1.832.178 2.652zm8.86-6.344c-.547-.382-.816-.779-.807-1.19.009-.41.333-.715.97-.915l9.516-.055a.821.821 0 0 1 .52.492c.09.237.095.483.013.739a1.668 1.668 0 0 1-.478.71c-.237.22-.556.347-.957.383l-8.777-.164zm21.082 5.825c-1.076.692-2.138 1.148-3.186 1.367-1.048.219-1.992.241-2.83.068-.839-.173-1.522-.515-2.05-1.025-.53-.51-.812-1.158-.849-1.942l-.957-14.765a3.697 3.697 0 0 1 .274-1.696c.219-.51.492-.87.82-1.08a.965.965 0 0 1 1.012-.054c.346.173.62.624.82 1.353a15.681 15.681 0 0 1-.11 1.436c-.054.428-.095.852-.122 1.271-.028.42-.023.852.013 1.299.037.447.137.943.301 1.49 1.422-1.057 2.735-1.604 3.938-1.64 1.203-.037 2.242.264 3.117.902s1.568 1.522 2.078 2.652c.51 1.13.78 2.33.807 3.596a9.405 9.405 0 0 1-.684 3.719c-.483 1.212-1.28 2.228-2.392 3.049zm-6.645-8.532c-.091.183-.173.497-.246.944-.073.446-.11.948-.11 1.504s.042 1.13.124 1.722c.082.593.223 1.135.423 1.627.2.492.465.903.793 1.23.329.329.748.502 1.258.52 1.33-.291 2.384-.747 3.158-1.367.775-.62 1.327-1.312 1.655-2.078a5.19 5.19 0 0 0 .424-2.365 6.054 6.054 0 0 0-.547-2.243 4.945 4.945 0 0 0-1.286-1.709c-.537-.455-1.12-.706-1.75-.751-.628-.046-1.285.154-1.968.601-.684.447-1.326 1.235-1.928 2.365zm13.152 9.598c-.82-.401-1.453-.962-1.9-1.682a6.34 6.34 0 0 1-.875-2.379 8.98 8.98 0 0 1 0-2.707c.137-.938.37-1.85.697-2.734.328-.884.73-1.69 1.203-2.42.474-.729.985-1.321 1.532-1.777 1.002-.766 1.932-1.222 2.789-1.367.856-.146 1.622-.064 2.297.246.674.31 1.262.802 1.763 1.476a8 8 0 0 1 1.176 2.31c.283.867.451 1.796.506 2.79a11.47 11.47 0 0 1-.205 2.912 9.405 9.405 0 0 1-.957 2.652 5.95 5.95 0 0 1-1.778 2.024c-.738.528-1.622.866-2.652 1.011-1.03.146-2.228.028-3.596-.355zm2.106-2.27c.765.073 1.454-.095 2.064-.505a5.053 5.053 0 0 0 1.518-1.614 7.366 7.366 0 0 0 .875-2.256 6.83 6.83 0 0 0 .11-2.42 5.225 5.225 0 0 0-.766-2.105c-.401-.629-.976-1.07-1.723-1.326-.456-.091-.934.055-1.436.437-.5.383-.957.898-1.367 1.545a9.652 9.652 0 0 0-1.012 2.188 7.734 7.734 0 0 0-.396 2.406c0 .793.164 1.518.492 2.174.328.656.875 1.148 1.64 1.476zm13.207-7.546c-.091.036-.128.246-.11.628.019.383.06.866.124 1.45.063.583.14 1.24.232 1.968.091.73.155 1.45.191 2.16.037.712.032 1.381-.013 2.01-.046.63-.16 1.144-.342 1.545-.182.401-.451.652-.807.752-.355.1-.834-.013-1.435-.342l-.657-10.171a5.734 5.734 0 0 0-.984-.11c-.255 0-.497.014-.725.041-.227.028-.478.055-.751.082a6.075 6.075 0 0 1-1.067-.013c-.328-.2-.538-.456-.629-.766-.09-.31-.013-.615.233-.916.246-.3.683-.556 1.312-.766.629-.21 1.5-.314 2.611-.314.128-.073.165-.351.11-.834a69.394 69.394 0 0 0-.219-1.71 27.88 27.88 0 0 1-.205-2.05c-.046-.71.005-1.321.15-1.832.146-.51.424-.857.834-1.039.41-.182 1.026-.082 1.846.3.018 1.022.037 1.878.055 2.571.018.693.036 1.272.054 1.736.019.465.037.834.055 1.108a25.227 25.227 0 0 0 .11 1.217c.018.155.036.341.054.56.383.018.734.014 1.053-.013l.93-.082c.3-.028.61-.05.93-.069.318-.018.67-.018 1.052 0 .401.091.693.255.875.492.182.237.269.493.26.766-.01.273-.119.533-.328.78-.21.245-.488.432-.834.56l-3.965.3zm10.937 0c-.09.036-.127.246-.109.628.018.383.06.866.123 1.45.064.583.141 1.24.232 1.968.092.73.155 1.45.192 2.16.036.712.032 1.381-.014 2.01-.045.63-.16 1.144-.342 1.545-.182.401-.45.652-.806.752-.356.1-.834-.013-1.436-.342l-.656-10.171a5.734 5.734 0 0 0-.984-.11c-.256 0-.497.014-.725.041-.228.028-.479.055-.752.082a6.075 6.075 0 0 1-1.066-.013c-.329-.2-.538-.456-.63-.766-.09-.31-.013-.615.233-.916.246-.3.684-.556 1.313-.766.629-.21 1.499-.314 2.611-.314.128-.073.164-.351.11-.834a69.394 69.394 0 0 0-.22-1.71 27.88 27.88 0 0 1-.205-2.05c-.045-.71.005-1.321.15-1.832.147-.51.425-.857.835-1.039.41-.182 1.025-.082 1.846.3.018 1.022.036 1.878.054 2.571.018.693.037 1.272.055 1.736.018.465.036.834.055 1.108a25.227 25.227 0 0 0 .109 1.217c.018.155.036.341.055.56.383.018.733.014 1.052-.013l.93-.082c.3-.028.61-.05.93-.069.319-.018.67-.018 1.053 0 .4.091.692.255.875.492.182.237.268.493.26.766-.01.273-.12.533-.329.78-.21.245-.487.432-.834.56l-3.965.3zm6.782 9.816c-.82-.401-1.454-.962-1.9-1.682a6.34 6.34 0 0 1-.876-2.379 8.98 8.98 0 0 1 0-2.707c.137-.938.37-1.85.697-2.734.329-.884.73-1.69 1.204-2.42.474-.729.984-1.321 1.53-1.777 1.003-.766 1.933-1.222 2.79-1.367.857-.146 1.622-.064 2.297.246.674.31 1.262.802 1.763 1.476a8 8 0 0 1 1.176 2.31c.283.867.451 1.796.506 2.79a11.47 11.47 0 0 1-.205 2.912 9.405 9.405 0 0 1-.957 2.652 5.95 5.95 0 0 1-1.777 2.024c-.739.528-1.623.866-2.653 1.011-1.03.146-2.228.028-3.595-.355zm2.105-2.27c.766.073 1.454-.095 2.065-.505a5.053 5.053 0 0 0 1.517-1.614 7.366 7.366 0 0 0 .875-2.256 6.83 6.83 0 0 0 .11-2.42 5.225 5.225 0 0 0-.766-2.105c-.401-.629-.975-1.07-1.723-1.326-.456-.091-.934.055-1.435.437-.502.383-.957.898-1.368 1.545a9.652 9.652 0 0 0-1.011 2.188 7.734 7.734 0 0 0-.397 2.406c0 .793.164 1.518.492 2.174.329.656.875 1.148 1.641 1.476zm12.004 1.696c-.091.42-.3.72-.629.902a2.134 2.134 0 0 1-1.053.274c-.373 0-.729-.092-1.066-.274-.337-.182-.56-.437-.67-.765-.036-.967-.06-2.06-.068-3.282-.01-1.221-.032-2.447-.069-3.677a60.335 60.335 0 0 0-.205-3.541c-.1-1.13-.25-2.079-.451-2.844-.036-.401.027-.743.191-1.026.165-.282.379-.478.643-.588.264-.109.556-.104.875.014.319.119.606.37.861.752l.356 2.625c.601-.984 1.285-1.659 2.05-2.023.766-.365 1.49-.456 2.174-.274.684.183 1.281.62 1.791 1.313.51.692.82 1.604.93 2.734.037-.31.21-.693.52-1.148.31-.456.706-.916 1.19-1.381a10.05 10.05 0 0 1 1.612-1.258 6.31 6.31 0 0 1 1.791-.793 3.351 3.351 0 0 1 1.75 0c.566.155 1.058.533 1.477 1.135.219.346.406.83.56 1.449.155.62.283 1.308.383 2.064.1.757.192 1.55.274 2.38.082.829.16 1.626.232 2.392.073.766.155 1.476.246 2.133.091.656.21 1.185.356 1.586.054.547-.032 1.016-.26 1.408-.228.392-.506.656-.834.793a1.227 1.227 0 0 1-1.012-.027c-.346-.155-.62-.497-.82-1.026.073-2.77-.032-4.995-.314-6.672-.283-1.677-.652-2.87-1.108-3.582-.456-.71-.961-.98-1.517-.806-.556.173-1.067.724-1.532 1.654-.465.93-.852 2.192-1.162 3.787-.31 1.595-.446 3.459-.41 5.592-.128.364-.305.629-.533.793a1.259 1.259 0 0 1-.752.246c-.274 0-.556-.078-.848-.233a2.767 2.767 0 0 1-.793-.642c.055-1.914-.032-3.614-.26-5.1-.227-1.485-.524-2.666-.888-3.54-.365-.876-.757-1.418-1.176-1.628-.42-.21-.793 0-1.121.63-.328.628-.57 1.713-.725 3.253-.155 1.54-.15 3.614.014 6.22zm36.504.574c-1.076-.82-1.928-1.75-2.557-2.79a14.129 14.129 0 0 1-1.463-3.308 22.363 22.363 0 0 1-.752-3.636 188.598 188.598 0 0 1-.423-3.746c.072-.402.227-.743.464-1.026.237-.282.51-.474.82-.574.31-.1.63-.091.958.027.328.119.61.379.847.78a17.09 17.09 0 0 0 .028 3.199 21.37 21.37 0 0 0 .533 3.103c.246.976.538 1.86.875 2.653.337.793.693 1.403 1.066 1.832.374.428.743.642 1.108.642.364 0 .702-.31 1.012-.93.31-.62.574-1.58.792-2.884.22-1.304.356-3.03.41-5.182 0-.237.105-.442.315-.615.21-.173.46-.305.752-.397.292-.09.579-.15.861-.177.283-.028.506-.014.67.04.237.402.429.926.575 1.573.145.647.278 1.34.396 2.078.118.738.237 1.486.355 2.242.119.757.288 1.445.506 2.065.22.62.497 1.135.834 1.545.338.41.77.642 1.3.697.473.036.847-.105 1.12-.424.274-.319.479-.756.615-1.312.137-.556.21-1.199.22-1.928.008-.73-.01-1.477-.055-2.242a45.675 45.675 0 0 0-.192-2.27l-.219-2.01a25.872 25.872 0 0 1-.123-1.449c-.018-.374.019-.579.11-.615.547-.255 1.03-.264 1.449-.027.42.237.78.647 1.08 1.23.3.583.533 1.299.697 2.147.164.847.255 1.745.274 2.693a20.61 20.61 0 0 1-.15 2.885 13.668 13.668 0 0 1-.602 2.72c-.283.839-.643 1.568-1.08 2.188-.438.62-.966 1.057-1.586 1.312-.93.146-1.714.15-2.352.014-.638-.137-1.185-.387-1.64-.752-.456-.364-.862-.838-1.217-1.422a31.121 31.121 0 0 1-1.108-1.996 28.376 28.376 0 0 1-.806 1.942c-.301.656-.666 1.207-1.094 1.654a3.022 3.022 0 0 1-1.518.875c-.583.137-1.285-.005-2.105-.424zm19.879-1.914c.127.346.168.684.123 1.012a2.14 2.14 0 0 1-.315.875c-.164.255-.369.455-.615.601-.246.146-.497.21-.752.192-.255-.019-.497-.133-.724-.342-.228-.21-.406-.552-.534-1.026-.036-.127-.068-.442-.095-.943-.028-.501-.05-1.09-.069-1.764-.018-.674-.036-1.399-.054-2.173l-.055-2.174c-.018-.675-.037-1.263-.055-1.764-.018-.501-.045-.825-.082-.97-.127-.894-.136-1.618-.027-2.174.11-.556.278-.976.506-1.258.228-.283.487-.438.779-.465.292-.027.56.05.807.232.246.183.442.46.588.834.145.374.191.816.136 1.326l.438 9.98zm-1.969-14.547c-.401-.31-.643-.652-.725-1.025-.082-.374-.054-.707.082-.998a1.23 1.23 0 0 1 .657-.63c.3-.127.624-.109.97.055.401.22.648.53.739.93.09.401.073.77-.055 1.108a1.322 1.322 0 0 1-.643.738c-.3.155-.642.096-1.025-.178zm8.34 16.79c-1.185-.293-2.156-.858-2.912-1.696a7.494 7.494 0 0 1-1.627-2.885 9.321 9.321 0 0 1-.356-3.432 9.162 9.162 0 0 1 .889-3.35 7.48 7.48 0 0 1 2.12-2.624c.91-.72 2.023-1.144 3.335-1.272a10.797 10.797 0 0 1 2.024.028c.71.073 1.358.255 1.941.547l-.356-5.387c0-.219.16-.383.479-.492a2.81 2.81 0 0 1 1.053-.137c.383.018.733.118 1.052.3.32.183.479.466.479.848l1.777 18.567c.037.346-.05.62-.26.82-.21.2-.464.328-.765.383-.3.055-.606.036-.916-.055-.31-.091-.529-.255-.656-.492a1.886 1.886 0 0 1-.15-.383 72.346 72.346 0 0 1-.397-1.285c-.055-.182-.091-.273-.11-.273-.71.71-1.399 1.244-2.064 1.6-.665.355-1.29.592-1.873.71-.583.119-1.108.16-1.572.123a7.126 7.126 0 0 1-1.135-.164zm-2.106-6.153c.256 1.002.593 1.809 1.012 2.42.42.61.88 1.048 1.381 1.312.501.265 1.03.374 1.586.328a4.024 4.024 0 0 0 1.627-.506 6.368 6.368 0 0 0 1.504-1.175 7.534 7.534 0 0 0 1.23-1.723c.164-.328.26-.697.287-1.107.028-.41.01-.834-.054-1.272-.064-.437-.155-.88-.274-1.326l-.342-1.299c-.51-1.002-1.089-1.704-1.736-2.105s-1.299-.58-1.955-.534c-.656.046-1.285.283-1.887.711a5.812 5.812 0 0 0-1.53 1.627 6.615 6.615 0 0 0-.89 2.202 5.417 5.417 0 0 0 .041 2.447zm18.457-3.992c-.09.036-.127.246-.109.628.018.383.06.866.123 1.45.064.583.141 1.24.233 1.968.09.73.154 1.45.191 2.16.036.712.032 1.381-.014 2.01-.045.63-.16 1.144-.342 1.545-.182.401-.45.652-.806.752-.356.1-.834-.013-1.436-.342l-.656-10.171a5.734 5.734 0 0 0-.984-.11c-.256 0-.497.014-.725.041-.228.028-.478.055-.752.082a6.075 6.075 0 0 1-1.066-.013c-.328-.2-.538-.456-.63-.766-.09-.31-.013-.615.233-.916.246-.3.684-.556 1.313-.766.629-.21 1.5-.314 2.611-.314.128-.073.164-.351.11-.834a69.394 69.394 0 0 0-.22-1.71 27.88 27.88 0 0 1-.204-2.05c-.046-.71.004-1.321.15-1.832.146-.51.424-.857.834-1.039.41-.182 1.025-.082 1.846.3.018 1.022.036 1.878.054 2.571.019.693.037 1.272.055 1.736.018.465.037.834.055 1.108a25.23 25.23 0 0 0 .11 1.217c.017.155.036.341.054.56.383.018.734.014 1.053-.013l.93-.082c.3-.028.61-.05.929-.069.319-.018.67-.018 1.053 0 .4.091.692.255.875.492.182.237.269.493.26.766-.01.273-.12.533-.329.78-.21.245-.487.432-.834.56l-3.965.3zm8.176 9.925c-.328.401-.692.657-1.094.766-.4.11-.765.096-1.093-.041-.328-.137-.584-.392-.766-.766-.182-.373-.21-.852-.082-1.435l-.137-17.992c.128-.274.333-.488.616-.643.282-.155.574-.232.875-.232.3 0 .57.077.806.232.237.155.365.397.383.725v7.3c.346-.492.643-.893.889-1.203.246-.31.506-.57.779-.779.273-.21.588-.374.943-.492.356-.119.798-.233 1.327-.342 1.002-.128 1.818.046 2.447.52.629.474 1.116 1.125 1.463 1.955.346.83.583 1.768.71 2.816.128 1.048.21 2.083.247 3.104.036 1.02.05 1.968.04 2.843-.008.875.024 1.54.096 1.996.146.566.128 1.049-.054 1.45-.183.4-.433.665-.752.793-.32.127-.666.095-1.04-.096-.373-.192-.67-.606-.888-1.244a15.986 15.986 0 0 1-.205-2.133 68.637 68.637 0 0 1-.041-2.393c0-.81-.014-1.6-.041-2.365a14.428 14.428 0 0 0-.205-2.05c-.11-.602-.278-1.09-.506-1.464-.228-.373-.551-.57-.97-.587a3.519 3.519 0 0 0-1.696.93 5.28 5.28 0 0 0-1.107 1.667 10.136 10.136 0 0 0-.643 2.16 20.658 20.658 0 0 0-.3 2.407c-.055.82-.078 1.627-.07 2.42.01.793.033 1.517.07 2.173zm26.906 1.477c-1.403-1.531-2.415-3.254-3.035-5.168a16.895 16.895 0 0 1-.82-5.865c.073-1.996.47-3.965 1.19-5.907a18.82 18.82 0 0 1 2.994-5.29c.437-.438.834-.684 1.19-.739.355-.055.637-.023.847.096.21.118.314.282.314.492 0 .21-.137.36-.41.451-1.04 1.313-1.864 2.675-2.475 4.088a19.991 19.991 0 0 0-1.312 4.211 18.35 18.35 0 0 0-.328 4.06c.045 1.313.21 2.516.492 3.61.283 1.094.66 2.055 1.135 2.885.474.83 1.011 1.463 1.613 1.9.146.2.2.41.164.63a.913.913 0 0 1-.273.532.913.913 0 0 1-.575.233c-.237.018-.474-.055-.71-.22zm14.93-4.813c-.474 1.112-1.08 1.942-1.818 2.489-.738.547-1.527.87-2.365.97a5.41 5.41 0 0 1-2.53-.314 7.313 7.313 0 0 1-2.297-1.354 7.43 7.43 0 0 1-1.695-2.146 6.229 6.229 0 0 1-.725-2.734 15.024 15.024 0 0 1-.095-1.955c.009-.684.077-1.35.205-1.997a7.814 7.814 0 0 1 .615-1.859 5.146 5.146 0 0 1 1.162-1.572c.602-.492 1.253-.807 1.955-.944a5.41 5.41 0 0 1 2.024-.027 5.777 5.777 0 0 1 1.763.615c.529.292.912.616 1.149.971s.291.706.164 1.053c-.128.346-.51.629-1.149.847-.947-.546-1.768-.829-2.46-.847-.693-.018-1.258.141-1.696.478-.437.338-.76.811-.97 1.422a6.32 6.32 0 0 0-.329 1.983c-.009.71.082 1.426.274 2.146.191.72.465 1.367.82 1.941a4.15 4.15 0 0 0 1.313 1.354c.52.328 1.098.451 1.736.37.638-.083 1.34-.406 2.105-.972.766-.565 1.577-1.467 2.434-2.707.2-.109.37-.09.506.055.137.146.228.36.273.643.046.282.041.61-.013.984a3.65 3.65 0 0 1-.356 1.107zm3.938 3.227c-.82-.401-1.454-.962-1.9-1.682a6.34 6.34 0 0 1-.876-2.379 8.98 8.98 0 0 1 0-2.707c.137-.938.37-1.85.698-2.734.328-.884.729-1.69 1.203-2.42.474-.729.984-1.321 1.53-1.777 1.004-.766 1.933-1.222 2.79-1.367.857-.146 1.622-.064 2.297.246.674.31 1.262.802 1.764 1.476a8 8 0 0 1 1.175 2.31c.283.867.451 1.796.506 2.79a11.47 11.47 0 0 1-.205 2.912 9.405 9.405 0 0 1-.957 2.652 5.95 5.95 0 0 1-1.777 2.024c-.739.528-1.623.866-2.653 1.011-1.03.146-2.228.028-3.595-.355zm2.105-2.27c.766.073 1.454-.095 2.065-.505a5.053 5.053 0 0 0 1.517-1.614 7.366 7.366 0 0 0 .875-2.256 6.83 6.83 0 0 0 .11-2.42 5.225 5.225 0 0 0-.766-2.105c-.401-.629-.975-1.07-1.723-1.326-.455-.091-.934.055-1.435.437-.502.383-.957.898-1.367 1.545a9.653 9.653 0 0 0-1.012 2.188 7.734 7.734 0 0 0-.397 2.406c0 .793.164 1.518.493 2.174.328.656.875 1.148 1.64 1.476zm12.414 1.34c.128.456.11.807-.054 1.053a1.03 1.03 0 0 1-.711.451c-.31.055-.652.023-1.026-.095a2.362 2.362 0 0 1-.97-.588l-.93-18.54c-.128-.328-.132-.615-.014-.86.119-.247.292-.438.52-.575.228-.137.483-.223.765-.26.283-.036.538-.004.766.096.228.1.4.264.52.492.118.228.122.533.013.916l1.121 17.91zm4.13.93c-.821-.401-1.455-.962-1.901-1.682a6.34 6.34 0 0 1-.875-2.379 8.98 8.98 0 0 1 0-2.707c.136-.938.369-1.85.697-2.734.328-.884.73-1.69 1.203-2.42.474-.729.984-1.321 1.531-1.777 1.003-.766 1.933-1.222 2.79-1.367.856-.146 1.622-.064 2.296.246.675.31 1.263.802 1.764 1.476a8 8 0 0 1 1.176 2.31c.282.867.45 1.796.506 2.79a11.47 11.47 0 0 1-.205 2.912 9.405 9.405 0 0 1-.958 2.652 5.95 5.95 0 0 1-1.777 2.024c-.738.528-1.622.866-2.652 1.011-1.03.146-2.229.028-3.596-.355zm2.105-2.27c.765.073 1.453-.095 2.064-.505a5.053 5.053 0 0 0 1.518-1.614 7.366 7.366 0 0 0 .875-2.256 6.83 6.83 0 0 0 .109-2.42 5.225 5.225 0 0 0-.766-2.105c-.4-.629-.975-1.07-1.722-1.326-.456-.091-.935.055-1.436.437-.501.383-.957.898-1.367 1.545a9.652 9.652 0 0 0-1.012 2.188 7.734 7.734 0 0 0-.396 2.406c0 .793.164 1.518.492 2.174.328.656.875 1.148 1.64 1.476zm12.605 2.68a4.527 4.527 0 0 1-1.969-1.326 7.558 7.558 0 0 1-1.285-2.133 13.577 13.577 0 0 1-.752-2.611c-.173-.93-.291-1.86-.355-2.79a33.7 33.7 0 0 1-.082-2.665c.009-.848.032-1.59.068-2.229.037-.346.169-.601.397-.765.227-.164.492-.251.792-.26.301-.01.598.05.89.178.29.127.519.3.683.52.127.181.214.564.26 1.148.045.583.082 1.262.109 2.037.027.774.064 1.586.11 2.433.045.848.136 1.64.273 2.38.136.737.332 1.37.588 1.9.255.528.62.838 1.093.93.73-.019 1.308-.229 1.737-.63.428-.4.738-.925.93-1.572.19-.647.286-1.376.286-2.187 0-.812-.054-1.636-.164-2.475-.109-.839-.25-1.65-.423-2.434a77.667 77.667 0 0 0-.479-2.05c-.091-.438-.023-.72.205-.848.228-.128.515-.16.861-.096.347.064.702.187 1.067.37.364.182.629.373.793.574.383.802.683 1.74.902 2.816.219 1.076.32 2.178.301 3.309a15.558 15.558 0 0 1-.41 3.322c-.255 1.085-.656 2.032-1.203 2.844a5.52 5.52 0 0 1-2.12 1.873c-.865.437-1.9.583-3.103.437zm11.895-.957c-.128.292-.351.524-.67.697-.32.174-.652.26-.998.26-.347 0-.67-.1-.971-.3-.3-.201-.506-.538-.615-1.012-.037-.183-.041-.56-.014-1.135.027-.574.032-1.386.014-2.434a98.269 98.269 0 0 0-.164-3.91c-.092-1.558-.265-3.422-.52-5.592.383-.346.752-.474 1.107-.382.356.09.68.291.971.601.292.31.529.688.711 1.135.182.446.283.861.3 1.244.092-.346.288-.706.589-1.08.3-.374.67-.716 1.107-1.025.438-.31.925-.575 1.463-.793a5.885 5.885 0 0 1 1.668-.41c.574-.055 1.149 0 1.723.163.574.165 1.107.474 1.6.93.018.164-.01.337-.083.52a2.138 2.138 0 0 1-.3.52 2.14 2.14 0 0 1-.438.423 1.342 1.342 0 0 1-.492.232c-1.057-.218-1.955-.205-2.694.041a3.948 3.948 0 0 0-1.818 1.217c-.474.565-.83 1.254-1.066 2.065a14.26 14.26 0 0 0-.492 2.584 21.714 21.714 0 0 0-.096 2.789c.027.948.086 1.832.178 2.652zm10.199 2.434c-.237.164-.474.237-.711.218a.913.913 0 0 1-.574-.232.913.913 0 0 1-.274-.533.811.811 0 0 1 .164-.63c.584-.437 1.117-1.07 1.6-1.9.483-.829.866-1.79 1.148-2.884.283-1.094.447-2.297.492-3.61a18.35 18.35 0 0 0-.328-4.06 19.991 19.991 0 0 0-1.312-4.211c-.61-1.413-1.436-2.775-2.475-4.088-.273-.091-.41-.242-.41-.451 0-.21.105-.374.315-.492.21-.119.492-.15.847-.096.356.055.752.3 1.19.738a18.82 18.82 0 0 1 2.994 5.291 18.873 18.873 0 0 1 1.19 5.907c.072 1.996-.201 3.95-.821 5.865-.62 1.914-1.632 3.636-3.035 5.168z" fill="#fff"/><path d="M402.387 344.574V7.414M405.387 333.774l-3 10.8-3-10.8M405.387 18.214l-3-10.8-3 10.8" stroke="#fff" stroke-width="4"/><path d="M9.998 181.436c-1.075.693-2.137 1.148-3.185 1.367-1.049.219-1.992.242-2.83.068-.84-.173-1.523-.515-2.051-1.025-.529-.51-.812-1.158-.848-1.941l-.957-14.766a3.697 3.697 0 0 1 .273-1.695c.22-.51.493-.87.82-1.08a.965.965 0 0 1 1.012-.055c.347.173.62.624.82 1.353a15.681 15.681 0 0 1-.109 1.436c-.054.428-.095.852-.123 1.271-.027.42-.022.853.014 1.3.036.446.137.943.3 1.49 1.423-1.058 2.735-1.605 3.938-1.641 1.203-.037 2.242.264 3.117.902.876.638 1.568 1.522 2.079 2.653.51 1.13.779 2.328.806 3.595a9.405 9.405 0 0 1-.683 3.719c-.483 1.212-1.28 2.229-2.393 3.049zm-6.644-8.531c-.092.182-.174.496-.247.943-.072.447-.109.948-.109 1.504s.041 1.13.123 1.723c.082.592.223 1.134.424 1.626.2.493.465.903.793 1.231.328.328.747.501 1.258.52 1.33-.292 2.383-.748 3.158-1.368.775-.62 1.326-1.312 1.654-2.078a5.19 5.19 0 0 0 .424-2.365 6.054 6.054 0 0 0-.547-2.242A4.945 4.945 0 0 0 9 170.689c-.538-.455-1.121-.706-1.75-.751-.629-.046-1.285.155-1.969.601-.683.447-1.326 1.235-1.927 2.366zm13.152 9.597c-.82-.4-1.454-.961-1.9-1.681a6.34 6.34 0 0 1-.875-2.38 8.98 8.98 0 0 1 0-2.706c.136-.94.369-1.85.697-2.735.328-.884.729-1.69 1.203-2.42.474-.729.984-1.321 1.531-1.777 1.003-.766 1.932-1.221 2.79-1.367.856-.146 1.622-.064 2.296.246.675.31 1.262.802 1.764 1.477a8 8 0 0 1 1.176 2.31c.282.866.45 1.796.505 2.79a11.47 11.47 0 0 1-.205 2.911 9.405 9.405 0 0 1-.957 2.653 5.95 5.95 0 0 1-1.777 2.023c-.738.529-1.622.866-2.652 1.012-1.03.146-2.229.027-3.596-.356zm2.105-2.27c.766.074 1.454-.095 2.065-.505a5.053 5.053 0 0 0 1.517-1.613 7.366 7.366 0 0 0 .875-2.256 6.83 6.83 0 0 0 .11-2.42 5.225 5.225 0 0 0-.766-2.106c-.4-.629-.975-1.07-1.723-1.326-.455-.091-.934.055-1.435.438-.501.382-.957.897-1.367 1.545a9.653 9.653 0 0 0-1.012 2.187 7.734 7.734 0 0 0-.396 2.406c0 .793.164 1.518.492 2.174.328.656.875 1.149 1.64 1.477zm11.703 1.723c-.127.292-.35.524-.67.698-.318.173-.651.26-.997.26-.347 0-.67-.1-.971-.301-.301-.2-.506-.538-.615-1.012-.037-.182-.041-.56-.014-1.135.027-.574.032-1.385.014-2.433a98.27 98.27 0 0 0-.164-3.91c-.092-1.56-.265-3.423-.52-5.592.383-.347.752-.474 1.107-.383.356.091.68.291.971.601.292.31.529.689.711 1.135.182.447.283.861.3 1.244.092-.346.288-.706.589-1.08.3-.374.67-.715 1.107-1.025.438-.31.925-.574 1.463-.793a5.885 5.885 0 0 1 1.668-.41c.574-.055 1.148 0 1.723.164.574.164 1.107.474 1.6.93.018.163-.01.337-.083.519a2.138 2.138 0 0 1-.3.52 2.14 2.14 0 0 1-.438.423 1.342 1.342 0 0 1-.492.233c-1.058-.219-1.955-.205-2.694.04a3.948 3.948 0 0 0-1.818 1.218c-.474.565-.83 1.253-1.066 2.064a14.26 14.26 0 0 0-.493 2.584 21.714 21.714 0 0 0-.095 2.79c.027.947.086 1.831.177 2.651zm11.731.875c-1.185-.291-2.156-.856-2.912-1.695a7.494 7.494 0 0 1-1.627-2.885 9.321 9.321 0 0 1-.356-3.431 9.162 9.162 0 0 1 .89-3.35 7.48 7.48 0 0 1 2.118-2.625c.912-.72 2.024-1.144 3.336-1.271a10.797 10.797 0 0 1 2.024.027c.71.073 1.358.255 1.941.547l-.355-5.387c0-.219.16-.383.478-.492a2.81 2.81 0 0 1 1.053-.137c.383.018.734.119 1.053.301.319.182.478.465.478.848l1.777 18.566c.037.346-.05.62-.26.82-.209.2-.464.328-.765.383-.3.055-.606.037-.916-.055-.31-.09-.529-.255-.656-.492a1.886 1.886 0 0 1-.15-.383 72.336 72.336 0 0 1-.397-1.285c-.055-.182-.091-.273-.11-.273-.71.71-1.399 1.244-2.064 1.6-.665.355-1.29.592-1.873.71-.583.119-1.107.16-1.572.123a7.126 7.126 0 0 1-1.135-.164zm-2.106-6.152c.256 1.003.593 1.81 1.012 2.42.42.61.88 1.048 1.381 1.312.501.265 1.03.374 1.586.329a4.024 4.024 0 0 0 1.627-.506 6.368 6.368 0 0 0 1.504-1.176 7.534 7.534 0 0 0 1.23-1.723c.164-.328.26-.697.287-1.107.028-.41.01-.834-.054-1.272-.064-.437-.155-.88-.274-1.326l-.341-1.299c-.51-1.002-1.09-1.704-1.737-2.105s-1.299-.579-1.955-.533c-.656.045-1.285.282-1.887.71a5.812 5.812 0 0 0-1.53 1.628 6.615 6.615 0 0 0-.89 2.2 5.417 5.417 0 0 0 .041 2.448zm25.32 3.39a4.586 4.586 0 0 1-1.312 1.546 5.819 5.819 0 0 1-1.804.916 6.73 6.73 0 0 1-2.065.287 7.03 7.03 0 0 1-2.092-.342 7.505 7.505 0 0 1-1.9-.93 5.602 5.602 0 0 1-1.49-1.476 11.505 11.505 0 0 1-1.34-3.692c-.237-1.312-.228-2.552.027-3.718a6.636 6.636 0 0 1 1.559-3.063c.784-.875 1.877-1.458 3.281-1.75 1.33-.091 2.384.068 3.158.479.775.41 1.304.966 1.586 1.668.283.701.337 1.48.164 2.337-.173.857-.542 1.691-1.107 2.502-.565.812-1.313 1.532-2.242 2.16-.93.63-2.006 1.062-3.227 1.3.365.6.78 1.034 1.244 1.298a3.74 3.74 0 0 0 1.463.479c.51.054 1.016.022 1.518-.096a9.628 9.628 0 0 0 1.394-.438c.429-.173.807-.337 1.135-.492.328-.155.565-.26.711-.314.656-.2 1.103-.2 1.34 0 .237.2.237.647 0 1.34zm-7.245-9.761c-.438.328-.82.702-1.149 1.121-.328.42-.592.866-.793 1.34-.2.474-.332.966-.396 1.476s-.05 1.012.04 1.504a5.499 5.499 0 0 0 2.065-.71 6.383 6.383 0 0 0 1.532-1.245c.41-.465.706-.943.888-1.435.183-.492.233-.92.15-1.285-.081-.365-.314-.63-.697-.793-.382-.164-.93-.155-1.64.027zm12.168 11.648c-.128.292-.351.524-.67.698-.32.173-.652.26-.998.26-.347 0-.67-.1-.971-.301-.3-.2-.506-.538-.615-1.012-.037-.182-.041-.56-.014-1.135.027-.574.032-1.385.014-2.433a98.27 98.27 0 0 0-.164-3.91c-.091-1.56-.265-3.423-.52-5.592.383-.347.752-.474 1.108-.383.355.091.679.291.97.601.292.31.529.689.711 1.135.183.447.283.861.301 1.244.091-.346.287-.706.588-1.08.3-.374.67-.715 1.107-1.025.438-.31.925-.574 1.463-.793a5.885 5.885 0 0 1 1.668-.41c.574-.055 1.149 0 1.723.164.574.164 1.107.474 1.6.93.018.163-.01.337-.083.519a2.138 2.138 0 0 1-.3.52 2.14 2.14 0 0 1-.438.423 1.342 1.342 0 0 1-.492.233c-1.057-.219-1.955-.205-2.693.04a3.948 3.948 0 0 0-1.819 1.218c-.474.565-.83 1.253-1.066 2.064a14.26 14.26 0 0 0-.492 2.584 21.714 21.714 0 0 0-.096 2.79c.027.947.087 1.831.178 2.651zm8.86-6.343c-.548-.383-.817-.78-.808-1.19.01-.41.333-.715.971-.916l9.516-.055a.821.821 0 0 1 .52.493c.09.237.095.483.013.738a1.668 1.668 0 0 1-.479.71c-.237.22-.556.347-.957.384l-8.777-.164zm15.585 5.96c.128.456.11.807-.055 1.053a1.03 1.03 0 0 1-.71.451c-.31.055-.652.023-1.026-.095a2.362 2.362 0 0 1-.97-.588l-.93-18.54c-.128-.327-.133-.614-.014-.86.118-.247.292-.438.52-.575.227-.136.483-.223.765-.26.283-.036.538-.004.766.096.228.1.4.265.52.492.118.228.122.534.013.916l1.121 17.91zm13.398-1.503a4.586 4.586 0 0 1-1.312 1.545 5.819 5.819 0 0 1-1.805.916 6.73 6.73 0 0 1-2.064.287 7.03 7.03 0 0 1-2.092-.342 7.505 7.505 0 0 1-1.9-.93 5.602 5.602 0 0 1-1.49-1.476 11.505 11.505 0 0 1-1.34-3.692c-.237-1.312-.228-2.552.027-3.718a6.636 6.636 0 0 1 1.558-3.063c.784-.875 1.878-1.458 3.282-1.75 1.33-.091 2.383.068 3.158.479.775.41 1.303.966 1.586 1.668.282.701.337 1.48.164 2.337-.173.857-.542 1.691-1.108 2.502-.565.812-1.312 1.532-2.242 2.16-.93.63-2.005 1.062-3.226 1.3.364.6.779 1.034 1.244 1.298a3.74 3.74 0 0 0 1.463.479c.51.054 1.016.022 1.517-.096a9.628 9.628 0 0 0 1.395-.438c.428-.173.807-.337 1.135-.492.328-.155.565-.26.71-.314.657-.2 1.103-.2 1.34 0 .237.2.237.647 0 1.34zm-7.246-9.762c-.437.328-.82.702-1.148 1.121-.328.42-.593.866-.793 1.34-.2.474-.333.966-.397 1.476-.063.51-.05 1.012.041 1.504a5.499 5.499 0 0 0 2.065-.71 6.383 6.383 0 0 0 1.531-1.245c.41-.465.707-.943.889-1.435.182-.492.232-.92.15-1.285-.082-.365-.314-.63-.697-.793-.383-.164-.93-.155-1.64.027zm10.856 6.262c-.073-.055-.255-.096-.547-.123l-.998-.096a10.09 10.09 0 0 1-1.135-.178 3.27 3.27 0 0 1-.97-.355c-.265-.155-.429-.36-.493-.616-.064-.255.041-.583.315-.984.127-.219.3-.387.52-.506a2.65 2.65 0 0 1 .71-.26c.255-.054.515-.082.78-.082.264 0 .514.019.751.055-.31-2.078-.35-3.823-.123-5.236.228-1.413.625-2.552 1.19-3.418.565-.866 1.249-1.49 2.05-1.873.803-.383 1.61-.565 2.42-.547a5.62 5.62 0 0 1 2.311.547c.73.346 1.313.802 1.75 1.367.255.2.356.456.3.766-.054.31-.19.592-.41.847a1.738 1.738 0 0 1-.779.533c-.3.1-.57.023-.806-.232-.748-.857-1.431-1.349-2.051-1.477-.62-.127-1.162-.013-1.627.342-.465.356-.852.894-1.162 1.614-.31.72-.529 1.49-.656 2.31-.128.82-.155 1.636-.082 2.447.073.812.246 1.49.52 2.037l4.265-.027c.291.182.515.424.67.725.155.3.246.601.273.902.027.3 0 .57-.082.807-.082.237-.214.392-.396.465l-3.746.191c.036.164.127.46.273.889.146.428.3.916.465 1.463.164.546.31 1.125.437 1.736a8.5 8.5 0 0 1 .192 1.736c-.146.365-.37.625-.67.78a1.98 1.98 0 0 1-.916.232c-.31 0-.606-.082-.889-.246a1.295 1.295 0 0 1-.588-.711l-1.066-5.824zm14.11-3.883c-.092.036-.128.246-.11.629.018.383.06.866.123 1.449.064.583.141 1.24.232 1.969.091.729.155 1.449.192 2.16.036.71.032 1.38-.014 2.01-.046.629-.16 1.144-.342 1.545-.182.4-.451.651-.806.752-.356.1-.834-.014-1.436-.342l-.656-10.172a5.734 5.734 0 0 0-.985-.11c-.255 0-.496.014-.724.042-.228.027-.479.054-.752.082a6.075 6.075 0 0 1-1.067-.014c-.328-.2-.537-.456-.628-.766-.092-.31-.014-.615.232-.916.246-.3.684-.556 1.312-.765.63-.21 1.5-.315 2.612-.315.127-.073.164-.35.11-.834a69.389 69.389 0 0 0-.22-1.709 27.88 27.88 0 0 1-.205-2.05c-.045-.712.005-1.322.15-1.833.147-.51.425-.856.835-1.039.41-.182 1.025-.082 1.845.301.019 1.02.037 1.878.055 2.57.018.693.037 1.272.055 1.737.018.465.036.834.054 1.107a25.227 25.227 0 0 0 .11 1.217c.018.155.036.342.055.56.382.019.733.014 1.052-.013l.93-.082c.3-.028.61-.05.93-.069.319-.018.67-.018 1.052 0 .401.092.693.256.875.493.183.237.27.492.26.765-.009.274-.118.533-.328.78-.21.246-.488.432-.834.56l-3.965.3zm23.214 9.816c-1.075-.82-1.928-1.75-2.557-2.789a14.129 14.129 0 0 1-1.463-3.308 22.363 22.363 0 0 1-.751-3.637 188.592 188.592 0 0 1-.424-3.746c.073-.401.228-.743.465-1.026.237-.282.51-.474.82-.574.31-.1.629-.09.957.028.328.118.61.378.848.779a17.09 17.09 0 0 0 .027 3.2 21.37 21.37 0 0 0 .533 3.103c.246.975.538 1.859.875 2.652.337.793.693 1.404 1.067 1.832.373.428.742.643 1.107.643s.702-.31 1.012-.93c.31-.62.574-1.582.793-2.885.218-1.303.355-3.03.41-5.182 0-.237.105-.442.314-.615.21-.173.46-.305.752-.396.292-.091.579-.15.862-.178.282-.027.505-.014.67.041.236.401.428.925.574 1.572.145.647.278 1.34.396 2.078.119.739.237 1.486.356 2.243.118.756.287 1.444.505 2.064.22.62.497 1.135.834 1.545.338.41.77.643 1.3.697.473.037.847-.105 1.12-.424.274-.319.479-.756.616-1.312.136-.556.21-1.199.218-1.928.01-.729-.009-1.476-.054-2.242a45.677 45.677 0 0 0-.192-2.27c-.082-.747-.155-1.417-.218-2.01a25.871 25.871 0 0 1-.124-1.449c-.018-.373.019-.578.11-.615.547-.255 1.03-.264 1.45-.027.418.237.778.647 1.08 1.23.3.584.532 1.3.696 2.147.164.847.256 1.745.274 2.693a20.61 20.61 0 0 1-.15 2.885 13.668 13.668 0 0 1-.602 2.72c-.283.84-.643 1.568-1.08 2.188-.438.62-.966 1.057-1.586 1.313-.93.145-1.714.15-2.352.013-.638-.136-1.185-.387-1.64-.752-.456-.364-.862-.838-1.217-1.422a31.121 31.121 0 0 1-1.108-1.996 28.376 28.376 0 0 1-.806 1.942c-.301.656-.666 1.207-1.094 1.654a3.022 3.022 0 0 1-1.518.875c-.583.137-1.285-.004-2.105-.424zm19.879-1.914c.128.347.169.684.123 1.012a2.14 2.14 0 0 1-.314.875c-.165.255-.37.456-.616.601-.246.146-.496.21-.752.192-.255-.018-.496-.132-.724-.342-.228-.21-.406-.551-.533-1.025-.037-.128-.069-.442-.096-.944-.028-.5-.05-1.089-.069-1.763-.018-.675-.036-1.4-.054-2.174-.018-.775-.037-1.5-.055-2.174-.018-.674-.036-1.262-.055-1.764-.018-.5-.045-.825-.082-.97-.127-.894-.136-1.618-.027-2.174.11-.556.278-.975.506-1.258.228-.283.488-.437.78-.465.29-.027.56.05.806.233.246.182.442.46.588.834.146.373.191.815.136 1.326l.438 9.98zm-1.969-14.547c-.4-.31-.642-.651-.724-1.025-.082-.374-.055-.706.082-.998a1.23 1.23 0 0 1 .656-.629c.3-.128.624-.11.97.055.402.218.648.528.739.93.091.4.073.77-.055 1.107a1.322 1.322 0 0 1-.642.738c-.301.155-.643.096-1.026-.178zm8.34 16.79c-1.185-.292-2.156-.857-2.912-1.696a7.494 7.494 0 0 1-1.627-2.885 9.321 9.321 0 0 1-.356-3.431 9.162 9.162 0 0 1 .89-3.35 7.48 7.48 0 0 1 2.118-2.625c.912-.72 2.024-1.144 3.336-1.271a10.797 10.797 0 0 1 2.024.027c.71.073 1.358.255 1.941.547l-.355-5.387c0-.219.16-.383.478-.492a2.81 2.81 0 0 1 1.053-.137c.383.018.734.119 1.053.301.319.182.478.465.478.848l1.777 18.566c.037.346-.05.62-.26.82-.209.2-.464.328-.765.383-.3.055-.606.037-.916-.055-.31-.09-.529-.255-.656-.492a1.886 1.886 0 0 1-.15-.383 72.314 72.314 0 0 1-.397-1.285c-.055-.182-.091-.273-.11-.273-.71.71-1.399 1.244-2.064 1.6-.665.355-1.29.592-1.873.71-.583.119-1.107.16-1.572.123a7.126 7.126 0 0 1-1.135-.164zm-2.105-6.153c.255 1.003.592 1.81 1.011 2.42.42.61.88 1.048 1.381 1.312.501.265 1.03.374 1.586.329a4.024 4.024 0 0 0 1.627-.506 6.368 6.368 0 0 0 1.504-1.176 7.534 7.534 0 0 0 1.23-1.723c.164-.328.26-.697.288-1.107.027-.41.009-.834-.055-1.272-.064-.437-.155-.88-.274-1.326a323.7 323.7 0 0 1-.341-1.299c-.51-1.002-1.09-1.704-1.737-2.105s-1.299-.579-1.955-.533c-.656.045-1.285.282-1.887.71a5.812 5.812 0 0 0-1.53 1.628 6.615 6.615 0 0 0-.89 2.2 5.417 5.417 0 0 0 .042 2.448zm18.457-3.992c-.092.036-.128.246-.11.629.018.383.06.866.123 1.449.064.583.142 1.24.233 1.969.09.729.155 1.449.191 2.16.037.71.032 1.38-.014 2.01-.045.629-.16 1.144-.341 1.545-.183.4-.452.651-.807.752-.355.1-.834-.014-1.436-.342l-.656-10.172a5.734 5.734 0 0 0-.984-.11c-.255 0-.497.014-.725.042-.228.027-.478.054-.752.082a6.075 6.075 0 0 1-1.066-.014c-.328-.2-.538-.456-.63-.766-.09-.31-.013-.615.233-.916.246-.3.684-.556 1.313-.765.629-.21 1.5-.315 2.611-.315.128-.073.164-.35.11-.834a69.384 69.384 0 0 0-.22-1.709 27.88 27.88 0 0 1-.204-2.05c-.046-.712.004-1.322.15-1.833.146-.51.424-.856.834-1.039.41-.182 1.025-.082 1.846.301a312.8 312.8 0 0 0 .054 2.57c.019.693.037 1.272.055 1.737.018.465.037.834.055 1.107a25.227 25.227 0 0 0 .11 1.217c.017.155.036.342.054.56.383.019.734.014 1.053-.013l.93-.082c.3-.028.61-.05.929-.069.32-.018.67-.018 1.053 0 .4.092.692.256.875.493.182.237.269.492.26.765-.01.274-.119.533-.329.78-.21.246-.487.432-.834.56l-3.964.3zm8.175 9.926c-.328.4-.692.656-1.093.765-.401.11-.766.096-1.094-.04-.328-.137-.583-.393-.766-.766-.182-.374-.21-.853-.082-1.436l-.137-17.992c.128-.274.333-.488.616-.643.282-.155.574-.232.875-.232.3 0 .57.077.806.232.237.155.365.397.383.725v7.3c.347-.491.643-.893.889-1.202.246-.31.506-.57.78-.78.273-.21.587-.373.943-.492.355-.118.797-.232 1.326-.342 1.002-.127 1.818.046 2.447.52.629.474 1.116 1.125 1.463 1.955.346.83.583 1.768.71 2.816.128 1.049.21 2.083.247 3.104.036 1.02.05 1.969.04 2.844-.008.875.024 1.54.097 1.996.145.565.127 1.048-.055 1.449-.182.4-.433.665-.752.793-.32.127-.665.096-1.04-.096-.373-.191-.669-.606-.888-1.244a15.986 15.986 0 0 1-.205-2.133 68.637 68.637 0 0 1-.04-2.392c0-.812-.015-1.6-.042-2.366a14.428 14.428 0 0 0-.205-2.05c-.11-.602-.278-1.09-.506-1.463-.228-.374-.551-.57-.97-.588a3.519 3.519 0 0 0-1.696.93 5.28 5.28 0 0 0-1.107 1.667 10.136 10.136 0 0 0-.643 2.16 20.658 20.658 0 0 0-.3 2.407c-.055.82-.078 1.627-.069 2.42.01.793.032 1.517.068 2.174zm26.907 1.476c-1.404-1.531-2.416-3.254-3.036-5.168a16.895 16.895 0 0 1-.82-5.865c.073-1.996.47-3.965 1.19-5.906a18.82 18.82 0 0 1 2.994-5.291c.437-.438.834-.684 1.19-.739.355-.054.637-.022.847.096.21.119.314.283.314.492 0 .21-.136.36-.41.452-1.039 1.312-1.864 2.675-2.474 4.087a19.991 19.991 0 0 0-1.313 4.211 18.35 18.35 0 0 0-.328 4.06c.045 1.313.21 2.517.492 3.61.283 1.094.66 2.056 1.135 2.885.474.83 1.012 1.463 1.613 1.9.146.201.2.41.164.63a.913.913 0 0 1-.273.533.913.913 0 0 1-.574.232c-.237.018-.474-.055-.711-.219zm8.668-11.402c-.092.036-.128.246-.11.629.018.383.06.866.123 1.449.064.583.142 1.24.233 1.969.09.729.155 1.449.191 2.16.037.71.032 1.38-.014 2.01-.045.629-.16 1.144-.341 1.545-.183.4-.452.651-.807.752-.355.1-.834-.014-1.436-.342l-.656-10.172a5.734 5.734 0 0 0-.984-.11c-.255 0-.497.014-.725.042-.228.027-.478.054-.752.082a6.075 6.075 0 0 1-1.066-.014c-.328-.2-.538-.456-.63-.766-.09-.31-.013-.615.233-.916.246-.3.684-.556 1.313-.765.629-.21 1.5-.315 2.611-.315.128-.073.164-.35.11-.834a69.384 69.384 0 0 0-.22-1.709 27.88 27.88 0 0 1-.204-2.05c-.046-.712.004-1.322.15-1.833.146-.51.424-.856.834-1.039.41-.182 1.025-.082 1.846.301a312.8 312.8 0 0 0 .054 2.57c.019.693.037 1.272.055 1.737.018.465.037.834.055 1.107a25.227 25.227 0 0 0 .11 1.217c.017.155.036.342.054.56.383.019.734.014 1.053-.013l.93-.082c.3-.028.61-.05.929-.069.32-.018.67-.018 1.053 0 .4.092.692.256.875.493.182.237.269.492.26.765-.01.274-.119.533-.329.78-.21.246-.487.432-.834.56l-3.964.3zm8.558 9.27c-.127.291-.35.523-.67.697-.319.173-.651.26-.998.26-.346 0-.67-.1-.97-.301-.301-.2-.506-.538-.616-1.012-.036-.182-.04-.56-.013-1.135.027-.574.032-1.385.013-2.433a98.27 98.27 0 0 0-.164-3.91c-.09-1.56-.264-3.423-.52-5.592.383-.347.753-.474 1.108-.383.356.091.68.291.97.601.292.31.53.689.712 1.135.182.447.282.861.3 1.244.092-.346.288-.706.588-1.08.301-.374.67-.715 1.108-1.025.437-.31.925-.574 1.463-.793a5.885 5.885 0 0 1 1.668-.41c.574-.055 1.148 0 1.722.164.575.164 1.108.474 1.6.93.018.163-.01.337-.082.519a2.138 2.138 0 0 1-.3.52 2.14 2.14 0 0 1-.438.423 1.342 1.342 0 0 1-.493.233c-1.057-.219-1.955-.205-2.693.04a3.948 3.948 0 0 0-1.818 1.218c-.474.565-.83 1.253-1.067 2.064a14.26 14.26 0 0 0-.492 2.584 21.714 21.714 0 0 0-.096 2.79c.028.947.087 1.831.178 2.651zm21.356-.575c0 .529-.11.884-.328 1.067a1.16 1.16 0 0 1-.766.273c-.292 0-.57-.06-.834-.178s-.433-.232-.506-.342l-1.45-3.117c-.236.438-.51.862-.82 1.272-.31.41-.656.775-1.039 1.094a6.19 6.19 0 0 1-1.244.806 4.272 4.272 0 0 1-1.435.41c-1.222.037-2.238-.15-3.049-.56-.811-.41-1.458-.962-1.941-1.655-.484-.692-.803-1.49-.957-2.392a9.817 9.817 0 0 1-.069-2.79c.11-.956.337-1.9.684-2.83a10.67 10.67 0 0 1 1.312-2.501 7.492 7.492 0 0 1 1.846-1.832 4.458 4.458 0 0 1 2.256-.807c.802-.055 1.645.132 2.53.56.883.43 1.79 1.19 2.72 2.284l3.09 11.238zm-10.72-1.805c.84.292 1.573.36 2.202.206a3.347 3.347 0 0 0 1.6-.89c.437-.437.77-.983.998-1.64a8.42 8.42 0 0 0 .328-4.143 5.842 5.842 0 0 0-.602-1.804c-.282-.52-.642-.907-1.08-1.162-.437-.255-.948-.31-1.531-.164-.474.11-.898.387-1.272.834a6.14 6.14 0 0 0-.943 1.586 9.46 9.46 0 0 0-.574 1.982c-.128.711-.187 1.404-.178 2.078.01.675.1 1.29.274 1.846.173.556.433.98.779 1.271zm15.177 2.051c0 .565-.15.944-.451 1.135-.301.191-.63.255-.985.191a2.072 2.072 0 0 1-.984-.478c-.301-.255-.47-.556-.506-.902a183 183 0 0 0 .014-5.948 252.036 252.036 0 0 0-.178-6.63c.146-.493.396-.803.752-.93a1.115 1.115 0 0 1 1.025.123c.328.21.579.583.752 1.12.173.539.15 1.227-.068 2.065 1.166-1.713 2.26-2.834 3.281-3.363 1.02-.529 1.96-.638 2.816-.328.857.31 1.61.943 2.256 1.9.647.957 1.18 2.065 1.6 3.323a19.28 19.28 0 0 1 .861 3.95c.155 1.377.16 2.64.014 3.788.018.474-.123.83-.424 1.066-.3.237-.629.37-.984.397a1.467 1.467 0 0 1-.971-.26c-.292-.2-.42-.51-.383-.93.128-2.297.078-4.156-.15-5.578-.228-1.422-.556-2.484-.985-3.185-.428-.702-.925-1.09-1.49-1.162-.565-.073-1.135.077-1.709.45-.574.374-1.12.935-1.64 1.682-.52.748-.94 1.586-1.258 2.516-.32.93-.515 1.919-.588 2.967a7.651 7.651 0 0 0 .383 3.021zm12.742.766a1.647 1.647 0 0 1-.684-.356 1.515 1.515 0 0 1-.465-.642c-.09-.246-.077-.515.041-.807.119-.291.397-.574.834-.847.237.218.63.405 1.176.56.547.155 1.144.26 1.791.315.647.054 1.29.059 1.928.013.638-.045 1.171-.15 1.6-.314.428-.164.697-.388.806-.67.11-.283-.045-.634-.465-1.053a71.529 71.529 0 0 0-3.185-2.037c-.903-.538-1.668-1.066-2.297-1.586a6.642 6.642 0 0 1-1.504-1.723c-.374-.628-.643-1.435-.807-2.42-.054-.802.137-1.462.575-1.982.437-.52 1.002-.911 1.695-1.176.693-.264 1.467-.405 2.324-.424a9.172 9.172 0 0 1 2.502.288 7.58 7.58 0 0 1 2.201.943c.657.42 1.13.93 1.422 1.531.055.274.041.524-.04.752a1.573 1.573 0 0 1-.37.588c-.164.164-.37.287-.615.37a1.716 1.716 0 0 1-.78.068c-.565-.711-1.18-1.226-1.845-1.545-.666-.32-1.295-.488-1.887-.506-.592-.018-1.09.105-1.49.369-.401.264-.61.624-.63 1.08-.017.456.206.993.67 1.613.466.62 1.272 1.285 2.42 1.996 1.641.985 2.858 1.9 3.651 2.748.793.848 1.24 1.605 1.34 2.27.1.665-.096 1.235-.588 1.709s-1.194.83-2.105 1.066c-.912.237-1.992.347-3.24.328-1.25-.018-2.575-.191-3.98-.52zm15.613 6.262c.11.583.041 1.03-.205 1.34-.246.31-.547.487-.902.533-.356.045-.707-.037-1.053-.246-.346-.21-.565-.534-.656-.971.036-1.167.054-2.534.054-4.102a146.968 146.968 0 0 0-.328-9.734 53.896 53.896 0 0 0-.437-4.238c-.456.2-.83.273-1.121.218-.292-.054-.497-.186-.616-.396-.118-.21-.15-.474-.095-.793.054-.32.2-.66.437-1.025.602-.73 1.431-1.153 2.489-1.272 1.057-.118 2.178-.014 3.363.315 1.185.328 2.365.843 3.54 1.544 1.177.702 2.193 1.504 3.05 2.407.856.902 1.476 1.873 1.86 2.912.382 1.039.382 2.05 0 3.035-.256.693-.74 1.33-1.45 1.914a9.7 9.7 0 0 1-2.447 1.45c-.921.382-1.887.646-2.899.792-1.012.146-1.955.119-2.83-.082l.246 6.399zm-.164-8.805c1.932-.11 3.413-.397 4.443-.861 1.03-.465 1.71-1.021 2.038-1.668.328-.648.35-1.34.068-2.078-.283-.739-.761-1.431-1.436-2.079-.674-.647-1.494-1.207-2.46-1.681a8.926 8.926 0 0 0-3.036-.875l.383 9.242zm25.156 1.531c0 .529-.109.884-.328 1.067a1.16 1.16 0 0 1-.765.273c-.292 0-.57-.06-.834-.178-.265-.118-.433-.232-.506-.342l-1.45-3.117c-.236.438-.51.862-.82 1.272-.31.41-.656.775-1.039 1.094a6.19 6.19 0 0 1-1.244.806 4.272 4.272 0 0 1-1.436.41c-1.22.037-2.237-.15-3.048-.56-.812-.41-1.459-.962-1.942-1.655-.483-.692-.802-1.49-.957-2.392a9.817 9.817 0 0 1-.068-2.79c.11-.956.337-1.9.683-2.83a10.67 10.67 0 0 1 1.313-2.501 7.492 7.492 0 0 1 1.846-1.832 4.458 4.458 0 0 1 2.255-.807c.803-.055 1.646.132 2.53.56.884.43 1.79 1.19 2.72 2.284l3.09 11.238zm-10.718-1.805c.838.292 1.572.36 2.2.206a3.347 3.347 0 0 0 1.6-.89c.438-.437.77-.983.998-1.64a8.42 8.42 0 0 0 .328-4.143 5.842 5.842 0 0 0-.601-1.804c-.283-.52-.643-.907-1.08-1.162-.438-.255-.948-.31-1.531-.164-.474.11-.898.387-1.272.834a6.14 6.14 0 0 0-.943 1.586 9.46 9.46 0 0 0-.574 1.982c-.128.711-.187 1.404-.178 2.078.009.675.1 1.29.273 1.846.173.556.433.98.78 1.271zm15.668 2.38c-.128.291-.351.523-.67.697-.32.173-.652.26-.998.26-.347 0-.67-.1-.971-.301-.3-.2-.506-.538-.615-1.012-.037-.182-.041-.56-.014-1.135.027-.574.032-1.385.014-2.433a98.27 98.27 0 0 0-.164-3.91c-.092-1.56-.265-3.423-.52-5.592.383-.347.752-.474 1.107-.383.356.091.68.291.971.601.292.31.529.689.711 1.135.182.447.283.861.3 1.244.092-.346.288-.706.589-1.08.3-.374.67-.715 1.107-1.025.438-.31.925-.574 1.463-.793a5.885 5.885 0 0 1 1.668-.41c.574-.055 1.149 0 1.723.164.574.164 1.107.474 1.6.93.018.163-.01.337-.083.519a2.138 2.138 0 0 1-.3.52 2.14 2.14 0 0 1-.438.423 1.342 1.342 0 0 1-.492.233c-1.057-.219-1.955-.205-2.694.04a3.948 3.948 0 0 0-1.818 1.218c-.474.565-.83 1.253-1.066 2.064a14.26 14.26 0 0 0-.492 2.584 21.714 21.714 0 0 0-.096 2.79c.027.947.086 1.831.178 2.651zm19.66-1.887a4.586 4.586 0 0 1-1.313 1.545 5.819 5.819 0 0 1-1.804.916 6.73 6.73 0 0 1-2.065.287 7.03 7.03 0 0 1-2.092-.342 7.505 7.505 0 0 1-1.9-.93 5.602 5.602 0 0 1-1.49-1.476 11.506 11.506 0 0 1-1.34-3.692c-.237-1.312-.228-2.552.027-3.718a6.636 6.636 0 0 1 1.559-3.063c.784-.875 1.877-1.458 3.281-1.75 1.33-.091 2.383.068 3.158.479.775.41 1.304.966 1.586 1.668.283.701.337 1.48.164 2.337-.173.857-.542 1.691-1.107 2.502-.565.812-1.313 1.532-2.242 2.16-.93.63-2.006 1.062-3.227 1.3.365.6.78 1.034 1.244 1.298a3.74 3.74 0 0 0 1.463.479c.51.054 1.016.022 1.518-.096a9.628 9.628 0 0 0 1.394-.438c.429-.173.807-.337 1.135-.492.328-.155.565-.26.71-.314.657-.2 1.104-.2 1.34 0 .238.2.238.647 0 1.34zm-7.246-9.762c-.438.328-.82.702-1.149 1.121-.328.42-.592.866-.793 1.34-.2.474-.332.966-.396 1.476s-.05 1.012.04 1.504a5.499 5.499 0 0 0 2.065-.71 6.383 6.383 0 0 0 1.531-1.245c.41-.465.707-.943.89-1.435.181-.492.232-.92.15-1.285-.083-.365-.315-.63-.698-.793-.383-.164-.93-.155-1.64.027zm11.675 11.32c0 .565-.15.944-.45 1.135-.302.191-.63.255-.985.191a2.072 2.072 0 0 1-.985-.478c-.3-.255-.469-.556-.505-.902a183 183 0 0 0 .013-5.948 252.031 252.031 0 0 0-.177-6.63c.145-.493.396-.803.752-.93a1.115 1.115 0 0 1 1.025.123c.328.21.579.583.752 1.12.173.539.15 1.227-.069 2.065 1.167-1.713 2.26-2.834 3.282-3.363 1.02-.529 1.96-.638 2.816-.328.857.31 1.609.943 2.256 1.9.647.957 1.18 2.065 1.6 3.323a19.28 19.28 0 0 1 .861 3.95c.155 1.377.16 2.64.014 3.788.018.474-.123.83-.424 1.066-.301.237-.63.37-.985.397a1.467 1.467 0 0 1-.97-.26c-.292-.2-.42-.51-.383-.93.128-2.297.077-4.156-.15-5.578-.228-1.422-.556-2.484-.985-3.185-.428-.702-.925-1.09-1.49-1.162-.565-.073-1.135.077-1.71.45-.573.374-1.12.935-1.64 1.682-.52.748-.939 1.586-1.258 2.516-.319.93-.514 1.919-.587 2.967a7.651 7.651 0 0 0 .382 3.021zm16.844-8.941c-.091.036-.127.246-.11.629.019.383.06.866.124 1.449.064.583.141 1.24.232 1.969.091.729.155 1.449.192 2.16.036.71.032 1.38-.014 2.01-.046.629-.16 1.144-.342 1.545-.182.4-.451.651-.806.752-.356.1-.834-.014-1.436-.342l-.656-10.172a5.734 5.734 0 0 0-.985-.11c-.255 0-.496.014-.724.042-.228.027-.479.054-.752.082a6.075 6.075 0 0 1-1.067-.014c-.328-.2-.537-.456-.629-.766-.09-.31-.013-.615.233-.916.246-.3.684-.556 1.312-.765.63-.21 1.5-.315 2.612-.315.127-.073.164-.35.11-.834a69.394 69.394 0 0 0-.22-1.709 27.88 27.88 0 0 1-.205-2.05c-.045-.712.005-1.322.15-1.833.147-.51.425-.856.835-1.039.41-.182 1.025-.082 1.845.301.019 1.02.037 1.878.055 2.57.018.693.037 1.272.055 1.737.018.465.036.834.054 1.107a25.23 25.23 0 0 0 .11 1.217c.018.155.036.342.054.56.383.019.734.014 1.053-.013l.93-.082c.3-.028.61-.05.93-.069.319-.018.67-.018 1.052 0 .401.092.693.256.875.493.183.237.27.492.26.765-.009.274-.118.533-.328.78-.21.246-.488.432-.834.56l-3.965.3zm6.152 11.703c-.236.164-.473.237-.71.219a.913.913 0 0 1-.575-.233.913.913 0 0 1-.273-.533.811.811 0 0 1 .164-.629c.583-.437 1.116-1.07 1.6-1.9.483-.83.865-1.791 1.148-2.885.283-1.094.447-2.297.492-3.61a18.35 18.35 0 0 0-.328-4.06 19.991 19.991 0 0 0-1.312-4.21c-.611-1.414-1.436-2.776-2.475-4.089-.273-.09-.41-.241-.41-.45 0-.21.105-.375.314-.493.21-.119.492-.15.848-.096.355.055.752.301 1.19.739a18.82 18.82 0 0 1 2.994 5.29 18.873 18.873 0 0 1 1.189 5.907c.073 1.996-.2 3.951-.82 5.865-.62 1.914-1.632 3.637-3.036 5.168z" fill="#fff"/><path d="M776.936 344.574V7.414M779.936 333.774l-3 10.8-3-10.8M779.936 18.214l-3-10.8-3 10.8" stroke="#fff" stroke-width="4"/><path d="M819.947 181.436c-1.075.693-2.137 1.148-3.185 1.367-1.048.219-1.992.242-2.83.068-.839-.173-1.522-.515-2.051-1.025-.529-.51-.811-1.158-.848-1.941l-.957-14.766a3.697 3.697 0 0 1 .274-1.695c.218-.51.492-.87.82-1.08a.965.965 0 0 1 1.012-.055c.346.173.62.624.82 1.353a15.681 15.681 0 0 1-.11 1.436c-.054.428-.095.852-.122 1.271-.028.42-.023.853.013 1.3.037.446.137.943.301 1.49 1.422-1.058 2.734-1.605 3.938-1.641 1.203-.037 2.242.264 3.117.902s1.567 1.522 2.078 2.653c.51 1.13.78 2.328.806 3.595a9.405 9.405 0 0 1-.683 3.719c-.483 1.212-1.28 2.229-2.393 3.049zm-6.644-8.531c-.091.182-.173.496-.246.943-.073.447-.11.948-.11 1.504s.041 1.13.123 1.723c.082.592.224 1.134.424 1.626.2.493.465.903.793 1.231.328.328.748.501 1.258.52 1.33-.292 2.383-.748 3.158-1.368.775-.62 1.326-1.312 1.654-2.078a5.19 5.19 0 0 0 .424-2.365 6.054 6.054 0 0 0-.547-2.242 4.945 4.945 0 0 0-1.285-1.71c-.537-.455-1.12-.706-1.75-.751-.629-.046-1.285.155-1.968.601-.684.447-1.327 1.235-1.928 2.366zm13.152 9.597c-.82-.4-1.454-.961-1.9-1.681a6.34 6.34 0 0 1-.875-2.38 8.98 8.98 0 0 1 0-2.706c.136-.94.369-1.85.697-2.735.328-.884.73-1.69 1.203-2.42.474-.729.984-1.321 1.531-1.777 1.003-.766 1.933-1.221 2.79-1.367.856-.146 1.622-.064 2.296.246.675.31 1.263.802 1.764 1.477a8 8 0 0 1 1.176 2.31c.282.866.45 1.796.506 2.79a11.47 11.47 0 0 1-.205 2.911 9.405 9.405 0 0 1-.957 2.653 5.95 5.95 0 0 1-1.778 2.023c-.738.529-1.622.866-2.652 1.012-1.03.146-2.229.027-3.596-.356zm2.106-2.27c.765.074 1.453-.095 2.064-.505a5.053 5.053 0 0 0 1.518-1.613 7.366 7.366 0 0 0 .875-2.256 6.83 6.83 0 0 0 .109-2.42 5.225 5.225 0 0 0-.766-2.106c-.4-.629-.975-1.07-1.722-1.326-.456-.091-.935.055-1.436.438-.501.382-.957.897-1.367 1.545a9.653 9.653 0 0 0-1.012 2.187 7.734 7.734 0 0 0-.396 2.406c0 .793.164 1.518.492 2.174.328.656.875 1.149 1.64 1.477zm11.703 1.723c-.128.292-.351.524-.67.698-.32.173-.652.26-.998.26-.347 0-.67-.1-.971-.301-.3-.2-.506-.538-.615-1.012-.037-.182-.041-.56-.014-1.135.027-.574.032-1.385.014-2.433a98.27 98.27 0 0 0-.164-3.91c-.091-1.56-.265-3.423-.52-5.592.383-.347.752-.474 1.108-.383.355.091.679.291.97.601.292.31.529.689.711 1.135.183.447.283.861.301 1.244.091-.346.287-.706.588-1.08.3-.374.67-.715 1.107-1.025.438-.31.926-.574 1.463-.793a5.885 5.885 0 0 1 1.668-.41c.574-.055 1.149 0 1.723.164.574.164 1.107.474 1.6.93.018.163-.01.337-.083.519a2.138 2.138 0 0 1-.3.52 2.14 2.14 0 0 1-.438.423 1.342 1.342 0 0 1-.492.233c-1.057-.219-1.955-.205-2.693.04a3.948 3.948 0 0 0-1.819 1.218c-.474.565-.83 1.253-1.066 2.064a14.26 14.26 0 0 0-.492 2.584 21.714 21.714 0 0 0-.096 2.79c.027.947.087 1.831.178 2.651zm11.73.875c-1.185-.291-2.155-.856-2.912-1.695a7.494 7.494 0 0 1-1.627-2.885 9.321 9.321 0 0 1-.355-3.431 9.162 9.162 0 0 1 .888-3.35 7.48 7.48 0 0 1 2.12-2.625c.91-.72 2.023-1.144 3.335-1.271a10.797 10.797 0 0 1 2.024.027c.71.073 1.358.255 1.941.547l-.355-5.387c0-.219.16-.383.478-.492a2.81 2.81 0 0 1 1.053-.137c.383.018.734.119 1.053.301.319.182.478.465.478.848l1.778 18.566c.036.346-.05.62-.26.82-.21.2-.465.328-.766.383-.3.055-.606.037-.916-.055-.31-.09-.528-.255-.656-.492a1.886 1.886 0 0 1-.15-.383 72.346 72.346 0 0 1-.397-1.285c-.055-.182-.091-.273-.11-.273-.71.71-1.398 1.244-2.064 1.6-.665.355-1.29.592-1.873.71-.583.119-1.107.16-1.572.123a7.126 7.126 0 0 1-1.135-.164zm-2.105-6.152c.255 1.003.592 1.81 1.011 2.42.42.61.88 1.048 1.381 1.312.502.265 1.03.374 1.586.329a4.024 4.024 0 0 0 1.627-.506 6.368 6.368 0 0 0 1.504-1.176 7.534 7.534 0 0 0 1.23-1.723c.165-.328.26-.697.288-1.107.027-.41.009-.834-.055-1.272-.064-.437-.155-.88-.273-1.326-.119-.446-.233-.88-.342-1.299-.51-1.002-1.09-1.704-1.737-2.105s-1.298-.579-1.955-.533c-.656.045-1.285.282-1.886.71a5.812 5.812 0 0 0-1.532 1.628 6.615 6.615 0 0 0-.888 2.2 5.417 5.417 0 0 0 .04 2.448zm25.32 3.39a4.586 4.586 0 0 1-1.312 1.546 5.819 5.819 0 0 1-1.805.916 6.73 6.73 0 0 1-2.065.287 7.03 7.03 0 0 1-2.091-.342 7.505 7.505 0 0 1-1.9-.93 5.602 5.602 0 0 1-1.491-1.476 11.505 11.505 0 0 1-1.34-3.692c-.237-1.312-.228-2.552.027-3.718a6.636 6.636 0 0 1 1.56-3.063c.783-.875 1.877-1.458 3.28-1.75 1.331-.091 2.384.068 3.159.479.774.41 1.303.966 1.585 1.668.283.701.338 1.48.165 2.337-.174.857-.543 1.691-1.108 2.502-.565.812-1.312 1.532-2.242 2.16-.93.63-2.005 1.062-3.227 1.3.365.6.78 1.034 1.244 1.298a3.74 3.74 0 0 0 1.463.479c.51.054 1.017.022 1.518-.096a9.628 9.628 0 0 0 1.394-.438c.429-.173.807-.337 1.135-.492.328-.155.565-.26.711-.314.656-.2 1.103-.2 1.34 0 .237.2.237.647 0 1.34zm-7.246-9.761c-.438.328-.82.702-1.149 1.121-.328.42-.592.866-.792 1.34-.201.474-.333.966-.397 1.476s-.05 1.012.041 1.504a5.499 5.499 0 0 0 2.065-.71 6.383 6.383 0 0 0 1.53-1.245c.41-.465.707-.943.89-1.435.182-.492.232-.92.15-1.285-.082-.365-.315-.63-.697-.793-.383-.164-.93-.155-1.641.027zm12.168 11.648c-.128.292-.351.524-.67.698-.319.173-.652.26-.998.26s-.67-.1-.97-.301c-.302-.2-.507-.538-.616-1.012-.036-.182-.041-.56-.014-1.135.028-.574.032-1.385.014-2.433a98.269 98.269 0 0 0-.164-3.91c-.091-1.56-.264-3.423-.52-5.592.383-.347.752-.474 1.108-.383.355.091.679.291.97.601.292.31.53.689.711 1.135.183.447.283.861.301 1.244.091-.346.287-.706.588-1.08.3-.374.67-.715 1.108-1.025.437-.31.925-.574 1.462-.793a5.885 5.885 0 0 1 1.668-.41c.575-.055 1.149 0 1.723.164.574.164 1.107.474 1.6.93.018.163-.01.337-.082.519a2.138 2.138 0 0 1-.301.52 2.14 2.14 0 0 1-.438.423 1.342 1.342 0 0 1-.492.233c-1.057-.219-1.955-.205-2.693.04a3.948 3.948 0 0 0-1.819 1.218c-.473.565-.829 1.253-1.066 2.064a14.26 14.26 0 0 0-.492 2.584 21.714 21.714 0 0 0-.096 2.79c.028.947.087 1.831.178 2.651zm8.86-6.343c-.548-.383-.816-.78-.807-1.19.009-.41.332-.715.97-.916l9.516-.055a.821.821 0 0 1 .52.493c.09.237.095.483.013.738a1.668 1.668 0 0 1-.478.71c-.237.22-.556.347-.957.384l-8.778-.164zm14.874 6.343c-.127.292-.35.524-.67.698-.319.173-.651.26-.998.26-.346 0-.67-.1-.97-.301-.301-.2-.506-.538-.616-1.012-.036-.182-.04-.56-.013-1.135.027-.574.032-1.385.013-2.433a98.269 98.269 0 0 0-.164-3.91c-.09-1.56-.264-3.423-.52-5.592.384-.347.753-.474 1.108-.383.356.091.68.291.97.601.293.31.53.689.712 1.135.182.447.282.861.3 1.244.092-.346.288-.706.589-1.08.3-.374.67-.715 1.107-1.025.437-.31.925-.574 1.463-.793a5.885 5.885 0 0 1 1.668-.41c.574-.055 1.148 0 1.722.164.575.164 1.108.474 1.6.93.018.163-.01.337-.082.519a2.138 2.138 0 0 1-.3.52 2.14 2.14 0 0 1-.438.423 1.342 1.342 0 0 1-.492.233c-1.058-.219-1.956-.205-2.694.04a3.948 3.948 0 0 0-1.818 1.218c-.474.565-.83 1.253-1.067 2.064a14.26 14.26 0 0 0-.492 2.584 21.714 21.714 0 0 0-.095 2.79c.027.947.086 1.831.177 2.651zm11.54-1.367c.127.347.168.684.122 1.012a2.14 2.14 0 0 1-.314.875c-.164.255-.37.456-.615.601-.246.146-.497.21-.752.192-.255-.018-.497-.132-.725-.342-.228-.21-.405-.551-.533-1.025-.037-.128-.068-.442-.096-.944-.027-.5-.05-1.089-.068-1.763-.018-.675-.037-1.4-.055-2.174-.018-.775-.036-1.5-.055-2.174a192.28 192.28 0 0 0-.054-1.764c-.018-.5-.046-.825-.082-.97-.128-.894-.137-1.618-.028-2.174.11-.556.278-.975.506-1.258.228-.283.488-.437.78-.465.291-.027.56.05.806.233.246.182.442.46.588.834.146.373.192.815.137 1.326l.437 9.98zm-1.97-14.547c-.4-.31-.642-.651-.724-1.025-.082-.374-.055-.706.082-.998a1.23 1.23 0 0 1 .656-.629c.301-.128.625-.11.971.055.401.218.647.528.738.93.091.4.073.77-.054 1.107a1.322 1.322 0 0 1-.643.738c-.3.155-.643.096-1.025-.178zm12.114 28c-1.094-.255-2.005-.665-2.735-1.23-.729-.565-1.24-1.126-1.53-1.682-.292-.556-.338-1.039-.137-1.449.2-.41.683-.588 1.449-.533.857.82 1.681 1.372 2.474 1.654.793.283 1.518.333 2.174.15.656-.182 1.212-.574 1.668-1.175.456-.602.766-1.367.93-2.297.164-.93.16-2.01-.014-3.24-.173-1.23-.56-2.566-1.162-4.006a6.424 6.424 0 0 1-1.805 1.64 6.574 6.574 0 0 1-2.187.848c-.766.146-1.54.15-2.324.014a5.696 5.696 0 0 1-2.188-.875c-.674-.447-1.271-1.044-1.79-1.791-.52-.748-.899-1.668-1.136-2.762-.109-1.349-.036-2.593.22-3.732.254-1.14.65-2.133 1.189-2.98a7.162 7.162 0 0 1 1.968-2.08 6.375 6.375 0 0 1 2.557-1.052c.93-.164 1.919-.114 2.967.15 1.048.265 2.11.762 3.185 1.49.128.876.342 1.92.643 3.132.3 1.212.62 2.506.957 3.883.337 1.376.652 2.793.943 4.251a38.64 38.64 0 0 1 .616 4.239 20.932 20.932 0 0 1 0 3.855c-.119 1.203-.433 2.242-.944 3.117-.51.875-1.249 1.536-2.215 1.983-.966.446-2.224.606-3.773.478zm-5.578-19.168c0 1.24.182 2.238.547 2.995.364.756.829 1.307 1.394 1.654a3.1 3.1 0 0 0 1.832.465 4.316 4.316 0 0 0 1.873-.547 4.743 4.743 0 0 0 1.531-1.367 4.192 4.192 0 0 0 .78-2.024c-.091-.364-.173-.77-.246-1.217a43.722 43.722 0 0 0-.246-1.367 24.386 24.386 0 0 0-.301-1.34 9.928 9.928 0 0 0-.356-1.134c-.364-.474-.788-.78-1.271-.916a2.893 2.893 0 0 0-1.477-.028 4.597 4.597 0 0 0-1.476.656 6.215 6.215 0 0 0-1.3 1.149c-.382.447-.692.93-.929 1.45a3.757 3.757 0 0 0-.355 1.571zm16.625 7.739c-.328.4-.693.656-1.094.765-.401.11-.766.096-1.094-.04-.328-.137-.583-.393-.765-.766-.183-.374-.21-.853-.082-1.436l-.137-17.992c.127-.274.333-.488.615-.643.283-.155.574-.232.875-.232.3 0 .57.077.807.232.237.155.364.397.383.725v7.3c.346-.491.642-.893.888-1.202.246-.31.506-.57.78-.78.273-.21.587-.373.943-.492.355-.118.797-.232 1.326-.342 1.003-.127 1.818.046 2.447.52.63.474 1.117 1.125 1.463 1.955.347.83.584 1.768.711 2.816.128 1.049.21 2.083.246 3.104.037 1.02.05 1.969.041 2.844-.009.875.023 1.54.096 1.996.146.565.128 1.048-.055 1.449-.182.4-.433.665-.752.793-.319.127-.665.096-1.039-.096-.373-.191-.67-.606-.888-1.244a15.986 15.986 0 0 1-.205-2.133 68.637 68.637 0 0 1-.042-2.392c0-.812-.013-1.6-.04-2.366a14.428 14.428 0 0 0-.206-2.05c-.109-.602-.278-1.09-.505-1.463-.228-.374-.552-.57-.971-.588a3.519 3.519 0 0 0-1.695.93 5.28 5.28 0 0 0-1.108 1.667 10.136 10.136 0 0 0-.642 2.16 20.658 20.658 0 0 0-.301 2.407c-.055.82-.078 1.627-.069 2.42.01.793.032 1.517.069 2.174zm14.793-9.926c-.091.036-.128.246-.11.629.019.383.06.866.123 1.449.064.583.142 1.24.233 1.969.091.729.155 1.449.191 2.16.037.71.032 1.38-.013 2.01-.046.629-.16 1.144-.342 1.545-.183.4-.451.651-.807.752-.355.1-.834-.014-1.435-.342l-.657-10.172a5.734 5.734 0 0 0-.984-.11c-.255 0-.497.014-.725.042-.228.027-.478.054-.752.082a6.075 6.075 0 0 1-1.066-.014c-.328-.2-.538-.456-.629-.766-.091-.31-.014-.615.232-.916.247-.3.684-.556 1.313-.765.629-.21 1.5-.315 2.611-.315.128-.073.164-.35.11-.834a69.384 69.384 0 0 0-.22-1.709 27.88 27.88 0 0 1-.204-2.05c-.046-.712.004-1.322.15-1.833.146-.51.424-.856.834-1.039.41-.182 1.026-.082 1.846.301a312.8 312.8 0 0 0 .055 2.57c.018.693.036 1.272.054 1.737.019.465.037.834.055 1.107a25.227 25.227 0 0 0 .11 1.217c.018.155.036.342.054.56.383.019.734.014 1.053-.013l.93-.082c.3-.028.61-.05.93-.069.318-.018.67-.018 1.052 0 .4.092.693.256.875.493.182.237.269.492.26.765-.01.274-.119.533-.328.78-.21.246-.488.432-.834.56l-3.965.3zm23.215 9.816c-1.076-.82-1.928-1.75-2.557-2.789a14.129 14.129 0 0 1-1.463-3.308 22.363 22.363 0 0 1-.752-3.637 188.592 188.592 0 0 1-.424-3.746c.073-.401.228-.743.465-1.026.237-.282.51-.474.82-.574.31-.1.63-.09.957.028.329.118.611.378.848.779a17.09 17.09 0 0 0 .027 3.2 21.37 21.37 0 0 0 .534 3.103c.246.975.537 1.859.875 2.652.337.793.692 1.404 1.066 1.832.374.428.743.643 1.107.643.365 0 .702-.31 1.012-.93.31-.62.574-1.582.793-2.885.219-1.303.356-3.03.41-5.182 0-.237.105-.442.315-.615.21-.173.46-.305.752-.396.291-.091.578-.15.861-.178.283-.027.506-.014.67.041.237.401.428.925.574 1.572.146.647.278 1.34.397 2.078.118.739.237 1.486.355 2.243.119.756.287 1.444.506 2.064.219.62.497 1.135.834 1.545.337.41.77.643 1.299.697.474.037.847-.105 1.12-.424.274-.319.48-.756.616-1.312.137-.556.21-1.199.219-1.928.009-.729-.01-1.476-.055-2.242a45.675 45.675 0 0 0-.191-2.27l-.219-2.01a25.871 25.871 0 0 1-.123-1.449c-.018-.373.018-.578.11-.615.546-.255 1.03-.264 1.449-.027.419.237.779.647 1.08 1.23.3.584.533 1.3.697 2.147.164.847.255 1.745.273 2.693a20.61 20.61 0 0 1-.15 2.885 13.668 13.668 0 0 1-.602 2.72c-.282.84-.642 1.568-1.08 2.188-.437.62-.966 1.057-1.586 1.313-.93.145-1.713.15-2.351.013-.638-.136-1.185-.387-1.64-.752-.457-.364-.862-.838-1.218-1.422a31.121 31.121 0 0 1-1.107-1.996 28.376 28.376 0 0 1-.807 1.942c-.3.656-.665 1.207-1.093 1.654a3.022 3.022 0 0 1-1.518.875c-.583.137-1.285-.004-2.105-.424zm19.878-1.914c.128.347.17.684.124 1.012a2.14 2.14 0 0 1-.315.875c-.164.255-.37.456-.615.601-.246.146-.497.21-.752.192-.255-.018-.497-.132-.725-.342-.228-.21-.405-.551-.533-1.025-.036-.128-.068-.442-.096-.944-.027-.5-.05-1.089-.068-1.763l-.055-2.174c-.018-.775-.036-1.5-.054-2.174a192.28 192.28 0 0 0-.055-1.764c-.018-.5-.046-.825-.082-.97-.128-.894-.137-1.618-.027-2.174.109-.556.278-.975.505-1.258.228-.283.488-.437.78-.465.291-.027.56.05.806.233.246.182.442.46.588.834.146.373.192.815.137 1.326l.437 9.98zm-1.968-14.547c-.401-.31-.643-.651-.725-1.025-.082-.374-.055-.706.082-.998a1.23 1.23 0 0 1 .656-.629c.301-.128.625-.11.971.055.401.218.647.528.738.93.092.4.073.77-.054 1.107a1.322 1.322 0 0 1-.643.738c-.3.155-.642.096-1.025-.178zm8.34 16.79c-1.185-.292-2.156-.857-2.913-1.696a7.494 7.494 0 0 1-1.627-2.885 9.321 9.321 0 0 1-.355-3.431 9.162 9.162 0 0 1 .889-3.35 7.48 7.48 0 0 1 2.119-2.625c.911-.72 2.023-1.144 3.336-1.271a10.797 10.797 0 0 1 2.023.027c.711.073 1.358.255 1.942.547l-.356-5.387c0-.219.16-.383.479-.492a2.81 2.81 0 0 1 1.052-.137c.383.018.734.119 1.053.301.32.182.479.465.479.848l1.777 18.566c.036.346-.05.62-.26.82-.21.2-.465.328-.765.383-.301.055-.607.037-.916-.055-.31-.09-.529-.255-.657-.492a1.886 1.886 0 0 1-.15-.383 72.502 72.502 0 0 1-.397-1.285c-.054-.182-.09-.273-.109-.273-.71.71-1.399 1.244-2.064 1.6-.666.355-1.29.592-1.873.71-.584.119-1.108.16-1.573.123a7.126 7.126 0 0 1-1.134-.164zm-2.106-6.153c.255 1.003.593 1.81 1.012 2.42.42.61.88 1.048 1.38 1.312.502.265 1.03.374 1.587.329a4.024 4.024 0 0 0 1.627-.506 6.368 6.368 0 0 0 1.503-1.176 7.533 7.533 0 0 0 1.23-1.723c.165-.328.26-.697.288-1.107a6.02 6.02 0 0 0-.055-1.272c-.063-.437-.155-.88-.273-1.326-.119-.446-.233-.88-.342-1.299-.51-1.002-1.09-1.704-1.736-2.105-.647-.401-1.299-.579-1.955-.533-.657.045-1.285.282-1.887.71a5.812 5.812 0 0 0-1.531 1.628 6.614 6.614 0 0 0-.889 2.2 5.417 5.417 0 0 0 .041 2.448zm18.457-3.992c-.091.036-.127.246-.11.629.019.383.06.866.124 1.449.064.583.141 1.24.232 1.969.091.729.155 1.449.192 2.16.036.71.032 1.38-.014 2.01-.046.629-.16 1.144-.342 1.545-.182.4-.451.651-.806.752-.356.1-.834-.014-1.436-.342l-.656-10.172a5.734 5.734 0 0 0-.985-.11c-.255 0-.496.014-.724.042-.228.027-.479.054-.752.082a6.075 6.075 0 0 1-1.067-.014c-.328-.2-.537-.456-.629-.766-.09-.31-.013-.615.233-.916.246-.3.683-.556 1.312-.765.63-.21 1.5-.315 2.612-.315.127-.073.164-.35.11-.834a69.384 69.384 0 0 0-.22-1.709 27.88 27.88 0 0 1-.205-2.05c-.045-.712.005-1.322.15-1.833.146-.51.424-.856.835-1.039.41-.182 1.025-.082 1.845.301.019 1.02.037 1.878.055 2.57.018.693.036 1.272.055 1.737.018.465.036.834.054 1.107a25.226 25.226 0 0 0 .11 1.217c.018.155.036.342.054.56.383.019.734.014 1.053-.013l.93-.082c.3-.028.61-.05.93-.069.319-.018.67-.018 1.052 0 .401.092.693.256.875.493.183.237.27.492.26.765-.009.274-.118.533-.328.78-.21.246-.488.432-.834.56l-3.965.3zm8.176 9.926c-.328.4-.693.656-1.094.765-.4.11-.765.096-1.094-.04-.328-.137-.583-.393-.765-.766-.183-.374-.21-.853-.082-1.436l-.137-17.992c.128-.274.333-.488.615-.643.283-.155.574-.232.875-.232.301 0 .57.077.807.232.237.155.364.397.383.725v7.3c.346-.491.642-.893.888-1.202.246-.31.506-.57.78-.78.273-.21.588-.373.943-.492.356-.118.798-.232 1.326-.342 1.003-.127 1.819.046 2.447.52.63.474 1.117 1.125 1.463 1.955.347.83.584 1.768.711 2.816a36.44 36.44 0 0 1 .246 3.104c.037 1.02.05 1.969.041 2.844-.009.875.023 1.54.096 1.996.146.565.128 1.048-.055 1.449-.182.4-.433.665-.752.793-.319.127-.665.096-1.039-.096-.373-.191-.67-.606-.888-1.244a15.985 15.985 0 0 1-.205-2.133 68.622 68.622 0 0 1-.041-2.392c0-.812-.014-1.6-.041-2.366a14.428 14.428 0 0 0-.205-2.05c-.11-.602-.278-1.09-.506-1.463-.228-.374-.552-.57-.971-.588a3.519 3.519 0 0 0-1.695.93 5.28 5.28 0 0 0-1.108 1.667 10.136 10.136 0 0 0-.642 2.16 20.659 20.659 0 0 0-.301 2.407c-.055.82-.078 1.627-.068 2.42.009.793.031 1.517.068 2.174zm26.906 1.476c-1.404-1.531-2.415-3.254-3.035-5.168a16.895 16.895 0 0 1-.82-5.865c.073-1.996.47-3.965 1.19-5.906a18.82 18.82 0 0 1 2.993-5.291c.438-.438.834-.684 1.19-.739.355-.054.638-.022.847.096.21.119.315.283.315.492 0 .21-.137.36-.41.452-1.04 1.312-1.864 2.675-2.475 4.087a19.99 19.99 0 0 0-1.312 4.211 18.35 18.35 0 0 0-.329 4.06c.046 1.313.21 2.517.493 3.61.282 1.094.66 2.056 1.134 2.885.474.83 1.012 1.463 1.614 1.9.146.201.2.41.164.63a.913.913 0 0 1-.274.533.913.913 0 0 1-.574.232c-.237.018-.474-.055-.71-.219zm8.668-11.402c-.091.036-.127.246-.11.629.019.383.06.866.124 1.449.064.583.141 1.24.232 1.969.091.729.155 1.449.192 2.16.036.71.032 1.38-.014 2.01-.046.629-.16 1.144-.342 1.545-.182.4-.451.651-.806.752-.356.1-.834-.014-1.436-.342l-.656-10.172a5.734 5.734 0 0 0-.985-.11c-.255 0-.496.014-.724.042-.228.027-.479.054-.752.082a6.075 6.075 0 0 1-1.067-.014c-.328-.2-.537-.456-.629-.766-.09-.31-.013-.615.233-.916.246-.3.683-.556 1.312-.765.63-.21 1.5-.315 2.612-.315.127-.073.164-.35.11-.834a69.384 69.384 0 0 0-.22-1.709 27.88 27.88 0 0 1-.205-2.05c-.045-.712.005-1.322.15-1.833.146-.51.424-.856.835-1.039.41-.182 1.025-.082 1.845.301.019 1.02.037 1.878.055 2.57.018.693.036 1.272.055 1.737.018.465.036.834.054 1.107a25.226 25.226 0 0 0 .11 1.217c.018.155.036.342.054.56.383.019.734.014 1.053-.013l.93-.082c.3-.028.61-.05.93-.069.319-.018.67-.018 1.052 0 .401.092.693.256.875.493.183.237.27.492.26.765-.009.274-.118.533-.328.78-.21.246-.488.432-.834.56l-3.965.3zm8.559 9.27c-.128.291-.351.523-.67.697-.32.173-.652.26-.998.26-.347 0-.67-.1-.971-.301-.3-.2-.506-.538-.615-1.012-.037-.182-.041-.56-.014-1.135.027-.574.032-1.385.014-2.433a98.283 98.283 0 0 0-.164-3.91c-.091-1.56-.265-3.423-.52-5.592.383-.347.752-.474 1.108-.383.355.091.679.291.97.601.292.31.529.689.711 1.135.183.447.283.861.301 1.244.091-.346.287-.706.588-1.08.3-.374.67-.715 1.107-1.025.438-.31.925-.574 1.463-.793a5.885 5.885 0 0 1 1.668-.41c.574-.055 1.149 0 1.723.164.574.164 1.107.474 1.6.93.018.163-.01.337-.083.519a2.138 2.138 0 0 1-.3.52 2.14 2.14 0 0 1-.438.423 1.342 1.342 0 0 1-.492.233c-1.057-.219-1.955-.205-2.693.04a3.948 3.948 0 0 0-1.819 1.218c-.474.565-.83 1.253-1.066 2.064a14.26 14.26 0 0 0-.492 2.584 21.716 21.716 0 0 0-.096 2.79c.027.947.087 1.831.178 2.651zm21.355-.575c0 .529-.11.884-.328 1.067a1.16 1.16 0 0 1-.766.273c-.291 0-.57-.06-.834-.178s-.432-.232-.505-.342l-1.45-3.117c-.237.438-.51.862-.82 1.272-.31.41-.656.775-1.039 1.094a6.19 6.19 0 0 1-1.244.806 4.272 4.272 0 0 1-1.436.41c-1.221.037-2.237-.15-3.049-.56-.81-.41-1.458-.962-1.94-1.655-.484-.692-.803-1.49-.958-2.392a9.818 9.818 0 0 1-.068-2.79c.11-.956.337-1.9.683-2.83a10.67 10.67 0 0 1 1.313-2.501 7.492 7.492 0 0 1 1.845-1.832 4.458 4.458 0 0 1 2.256-.807c.802-.055 1.646.132 2.53.56.884.43 1.79 1.19 2.72 2.284l3.09 11.238zm-10.719-1.805c.839.292 1.573.36 2.202.206a3.347 3.347 0 0 0 1.6-.89c.437-.437.77-.983.997-1.64a8.42 8.42 0 0 0 .328-4.143 5.842 5.842 0 0 0-.601-1.804c-.283-.52-.643-.907-1.08-1.162-.438-.255-.948-.31-1.532-.164-.473.11-.897.387-1.271.834a6.14 6.14 0 0 0-.943 1.586 9.461 9.461 0 0 0-.575 1.982c-.127.711-.186 1.404-.177 2.078.009.675.1 1.29.273 1.846.173.556.433.98.78 1.271zm15.176 2.051c0 .565-.15.944-.451 1.135-.3.191-.629.255-.984.191a2.073 2.073 0 0 1-.985-.478c-.3-.255-.47-.556-.506-.902.037-1.86.041-3.842.014-5.948a252.045 252.045 0 0 0-.178-6.63c.146-.493.397-.803.752-.93a1.115 1.115 0 0 1 1.026.123c.328.21.578.583.752 1.12.173.539.15 1.227-.069 2.065 1.167-1.713 2.26-2.834 3.282-3.363 1.02-.529 1.96-.638 2.816-.328.857.31 1.609.943 2.256 1.9.647.957 1.18 2.065 1.6 3.323.419 1.257.706 2.574.86 3.95.156 1.377.16 2.64.014 3.788.019.474-.123.83-.423 1.066-.301.237-.63.37-.985.397a1.467 1.467 0 0 1-.97-.26c-.292-.2-.42-.51-.383-.93.127-2.297.077-4.156-.15-5.578-.229-1.422-.557-2.484-.985-3.185-.428-.702-.925-1.09-1.49-1.162-.565-.073-1.135.077-1.71.45-.573.374-1.12.935-1.64 1.682-.52.748-.939 1.586-1.258 2.516-.319.93-.515 1.919-.588 2.967a7.651 7.651 0 0 0 .383 3.021zm12.742.766a1.647 1.647 0 0 1-.683-.356 1.515 1.515 0 0 1-.465-.642c-.091-.246-.078-.515.041-.807.118-.291.396-.574.834-.847.237.218.629.405 1.176.56.547.155 1.144.26 1.79.315.648.054 1.29.059 1.928.013.639-.045 1.172-.15 1.6-.314.428-.164.697-.388.807-.67.11-.283-.046-.634-.465-1.053a71.533 71.533 0 0 0-3.186-2.037c-.902-.538-1.668-1.066-2.297-1.586a6.642 6.642 0 0 1-1.503-1.723c-.374-.628-.643-1.435-.807-2.42-.055-.802.137-1.462.574-1.982.438-.52 1.003-.911 1.695-1.176.693-.264 1.468-.405 2.325-.424a9.172 9.172 0 0 1 2.502.288 7.58 7.58 0 0 1 2.2.943c.657.42 1.131.93 1.423 1.531.054.274.04.524-.041.752a1.573 1.573 0 0 1-.37.588c-.164.164-.369.287-.615.37a1.716 1.716 0 0 1-.779.068c-.565-.711-1.18-1.226-1.846-1.545-.665-.32-1.294-.488-1.886-.506-.593-.018-1.09.105-1.49.369-.402.264-.611.624-.63 1.08-.018.456.206.993.67 1.613.465.62 1.272 1.285 2.42 1.996 1.64.985 2.858 1.9 3.65 2.748.794.848 1.24 1.605 1.34 2.27.1.665-.095 1.235-.587 1.709-.493.474-1.194.83-2.106 1.066-.911.237-1.991.347-3.24.328-1.249-.018-2.575-.191-3.979-.52zm15.614 6.262c.11.583.04 1.03-.205 1.34-.246.31-.547.487-.903.533-.355.045-.706-.037-1.052-.246-.347-.21-.566-.534-.657-.971a146.963 146.963 0 0 0-.273-13.836 53.895 53.895 0 0 0-.438-4.238c-.455.2-.83.273-1.12.218-.292-.054-.498-.186-.616-.396-.118-.21-.15-.474-.096-.793.055-.32.2-.66.438-1.025.601-.73 1.43-1.153 2.488-1.272 1.057-.118 2.178-.014 3.363.315 1.185.328 2.366.843 3.541 1.544 1.176.702 2.192 1.504 3.05 2.407.856.902 1.476 1.873 1.859 2.912.382 1.039.382 2.05 0 3.035-.256.693-.739 1.33-1.45 1.914a9.7 9.7 0 0 1-2.447 1.45c-.92.382-1.887.646-2.898.792-1.012.146-1.955.119-2.83-.082l.246 6.399zm-.164-8.805c1.932-.11 3.413-.397 4.443-.861 1.03-.465 1.709-1.021 2.037-1.668.328-.648.351-1.34.068-2.078-.282-.739-.76-1.431-1.435-2.079-.675-.647-1.495-1.207-2.461-1.681a8.926 8.926 0 0 0-3.035-.875l.383 9.242zm25.156 1.531c0 .529-.11.884-.328 1.067a1.16 1.16 0 0 1-.766.273c-.292 0-.57-.06-.834-.178s-.433-.232-.506-.342l-1.449-3.117c-.237.438-.51.862-.82 1.272-.31.41-.657.775-1.04 1.094a6.189 6.189 0 0 1-1.243.806 4.272 4.272 0 0 1-1.436.41c-1.221.037-2.238-.15-3.049-.56-.811-.41-1.458-.962-1.941-1.655-.483-.692-.802-1.49-.957-2.392a9.817 9.817 0 0 1-.069-2.79c.11-.956.338-1.9.684-2.83a10.67 10.67 0 0 1 1.312-2.501 7.492 7.492 0 0 1 1.846-1.832 4.458 4.458 0 0 1 2.256-.807c.802-.055 1.645.132 2.53.56.883.43 1.79 1.19 2.72 2.284l3.09 11.238zm-10.719-1.805c.839.292 1.572.36 2.201.206a3.347 3.347 0 0 0 1.6-.89c.437-.437.77-.983.998-1.64a8.42 8.42 0 0 0 .328-4.143 5.842 5.842 0 0 0-.601-1.804c-.283-.52-.643-.907-1.08-1.162-.438-.255-.948-.31-1.532-.164-.474.11-.898.387-1.271.834a6.14 6.14 0 0 0-.944 1.586 9.461 9.461 0 0 0-.574 1.982c-.127.711-.187 1.404-.178 2.078.01.675.1 1.29.274 1.846.173.556.433.98.78 1.271zm15.668 2.38c-.128.291-.35.523-.67.697-.319.173-.652.26-.998.26s-.67-.1-.97-.301c-.301-.2-.506-.538-.616-1.012-.036-.182-.04-.56-.013-1.135a40.06 40.06 0 0 0 .013-2.433 98.245 98.245 0 0 0-.164-3.91c-.091-1.56-.264-3.423-.52-5.592.383-.347.753-.474 1.108-.383.355.091.68.291.97.601.292.31.53.689.712 1.135.182.447.282.861.3 1.244.092-.346.288-.706.588-1.08.301-.374.67-.715 1.108-1.025.437-.31.925-.574 1.463-.793a5.884 5.884 0 0 1 1.668-.41c.574-.055 1.148 0 1.722.164.574.164 1.108.474 1.6.93.018.163-.01.337-.082.519a2.138 2.138 0 0 1-.3.52 2.14 2.14 0 0 1-.438.423 1.342 1.342 0 0 1-.493.233c-1.057-.219-1.955-.205-2.693.04a3.948 3.948 0 0 0-1.818 1.218c-.474.565-.83 1.253-1.067 2.064a14.26 14.26 0 0 0-.492 2.584 21.712 21.712 0 0 0-.096 2.79 32.6 32.6 0 0 0 .178 2.651zm19.66-1.887a4.586 4.586 0 0 1-1.312 1.545 5.819 5.819 0 0 1-1.805.916 6.73 6.73 0 0 1-2.064.287 7.03 7.03 0 0 1-2.092-.342 7.505 7.505 0 0 1-1.9-.93 5.602 5.602 0 0 1-1.49-1.476 11.506 11.506 0 0 1-1.34-3.692c-.238-1.312-.229-2.552.027-3.718a6.636 6.636 0 0 1 1.558-3.063c.784-.875 1.878-1.458 3.282-1.75 1.33-.091 2.383.068 3.158.479.774.41 1.303.966 1.586 1.668.282.701.337 1.48.164 2.337-.173.857-.543 1.691-1.108 2.502-.565.812-1.312 1.532-2.242 2.16-.93.63-2.005 1.062-3.226 1.3.364.6.779 1.034 1.244 1.298a3.74 3.74 0 0 0 1.463.479c.51.054 1.016.022 1.517-.096a9.628 9.628 0 0 0 1.395-.438c.428-.173.806-.337 1.134-.492.329-.155.566-.26.711-.314.657-.2 1.103-.2 1.34 0 .237.2.237.647 0 1.34zm-7.246-9.762c-.437.328-.82.702-1.148 1.121-.328.42-.593.866-.793 1.34-.2.474-.333.966-.397 1.476s-.05 1.012.041 1.504a5.499 5.499 0 0 0 2.065-.71 6.383 6.383 0 0 0 1.531-1.245c.41-.465.706-.943.889-1.435.182-.492.232-.92.15-1.285-.082-.365-.314-.63-.697-.793-.383-.164-.93-.155-1.64.027zm11.676 11.32c0 .565-.15.944-.451 1.135-.301.191-.63.255-.985.191a2.073 2.073 0 0 1-.984-.478c-.3-.255-.47-.556-.506-.902.037-1.86.041-3.842.014-5.948a252.045 252.045 0 0 0-.178-6.63c.146-.493.397-.803.752-.93a1.115 1.115 0 0 1 1.025.123c.329.21.58.583.752 1.12.174.539.15 1.227-.068 2.065 1.167-1.713 2.26-2.834 3.281-3.363 1.021-.529 1.96-.638 2.817-.328.856.31 1.608.943 2.256 1.9.647.957 1.18 2.065 1.6 3.323.418 1.257.706 2.574.86 3.95.155 1.377.16 2.64.014 3.788.018.474-.123.83-.424 1.066-.3.237-.629.37-.984.397a1.467 1.467 0 0 1-.97-.26c-.292-.2-.42-.51-.384-.93.128-2.297.078-4.156-.15-5.578-.228-1.422-.556-2.484-.984-3.185-.429-.702-.925-1.09-1.49-1.162-.566-.073-1.135.077-1.71.45-.574.374-1.12.935-1.64 1.682-.52.748-.939 1.586-1.258 2.516-.319.93-.515 1.919-.588 2.967a7.651 7.651 0 0 0 .383 3.021zm16.844-8.941c-.091.036-.128.246-.11.629.019.383.06.866.123 1.449.064.583.142 1.24.233 1.969.09.729.155 1.449.191 2.16.037.71.032 1.38-.013 2.01-.046.629-.16 1.144-.342 1.545-.183.4-.451.651-.807.752-.355.1-.834-.014-1.435-.342l-.657-10.172a5.734 5.734 0 0 0-.984-.11c-.255 0-.497.014-.725.042-.228.027-.478.054-.752.082a6.075 6.075 0 0 1-1.066-.014c-.328-.2-.538-.456-.629-.766-.091-.31-.014-.615.232-.916.247-.3.684-.556 1.313-.765.629-.21 1.5-.315 2.611-.315.128-.073.164-.35.11-.834a69.336 69.336 0 0 0-.22-1.709 27.88 27.88 0 0 1-.204-2.05c-.046-.712.004-1.322.15-1.833.146-.51.424-.856.834-1.039.41-.182 1.026-.082 1.846.301.018 1.02.036 1.878.055 2.57.018.693.036 1.272.054 1.737.019.465.037.834.055 1.107a25.191 25.191 0 0 0 .11 1.217c.018.155.036.342.054.56.383.019.734.014 1.053-.013l.93-.082c.3-.028.61-.05.93-.069.318-.018.67-.018 1.052 0 .4.092.693.256.875.493.182.237.269.492.26.765-.01.274-.119.533-.328.78-.21.246-.488.432-.834.56l-3.965.3zm6.152 11.703c-.237.164-.474.237-.71.219a.913.913 0 0 1-.575-.233.913.913 0 0 1-.274-.533.811.811 0 0 1 .164-.629c.584-.437 1.117-1.07 1.6-1.9.483-.83.866-1.791 1.149-2.885.282-1.094.446-2.297.492-3.61a18.35 18.35 0 0 0-.328-4.06 19.992 19.992 0 0 0-1.313-4.21c-.61-1.414-1.435-2.776-2.475-4.089-.273-.09-.41-.241-.41-.45 0-.21.105-.375.315-.493.21-.119.492-.15.847-.096.356.055.752.301 1.19.739a18.82 18.82 0 0 1 2.994 5.29 18.873 18.873 0 0 1 1.19 5.907c.072 1.996-.201 3.951-.82 5.865-.62 1.914-1.632 3.637-3.036 5.168z" fill="#fff"/><path fill="#D8D8D8" d="M414.763 354.508l174.5-174.5 174.71 174.71z"/></g></svg>
