<svg viewBox="0 0 393 300" xmlns="http://www.w3.org/2000/svg" xmlns:xlink="http://www.w3.org/1999/xlink"><defs><path d="M77.5 115c42.802 0 77.5-25.744 77.5-57.5S120.302 0 77.5 0 0 25.744 0 57.5 34.698 115 77.5 115z" id="a"/><mask id="b" x="0" y="0" width="155" height="115" fill="#fff"><use xlink:href="#a"/></mask></defs><g fill="none" fill-rule="evenodd"><path d="M67.472 299.37c-.772-.092-3.402-.398-5.845-.68-12.457-1.436-26.609-6.648-37.404-13.774-8.577-5.662-17.792-16.633-21.037-25.046C-.126 251.28.14 260.907.14 149.81c0-96.753.03-100.17.886-103.335 2.515-9.29 6.129-15.383 13.61-22.947C24.874 13.173 36.705 6.807 52.742 3.019 64.145.327 59.047.42 196.291.42c137.56 0 132.068-.101 143.78 2.653 29.212 6.87 49.506 25.964 52.12 49.035.38 3.352.485 31.738.375 101.444l-.153 96.789-1.072 3.74c-1.327 4.63-4.445 11.312-7.11 15.237-2.8 4.123-8.82 10.271-13.487 13.775-10.008 7.514-23.396 12.966-38.052 15.497-4.481.774-12.814.83-134.297.887-71.236.034-130.152-.014-130.923-.106zm261.47-9.77c10.054-1.307 16.61-3.158 24.715-6.98 14.621-6.893 24.418-17.164 28.337-29.708l1.095-3.507V51.15l-1.057-3.646c-5.666-19.552-27.138-34.235-54.45-37.236-6.388-.701-256.261-.696-262.583.006-10.34 1.148-19.462 3.779-27.982 8.07-14.35 7.229-23.711 17.706-26.827 30.028-.935 3.697-.943 4.732-.812 102.617.15 111.164-.22 100.418 3.721 108.343 7.923 15.931 27.273 27.464 51.1 30.457 1.8.226 60.862.437 131.25.47 112.565.052 128.64-.027 133.494-.659z" fill="#fff" fill-rule="nonzero"/><path d="M90.738 42.29c-.645-.353-1.172-.874-1.582-1.565-.41-.692-.657-1.559-.739-2.602-.082-1.043.035-2.268.352-3.674.316-1.406.879-2.994 1.687-4.763a.661.661 0 0 1 .317-.457.665.665 0 0 1 .5-.08c.17.041.314.15.431.326.118.175.159.421.123.738a31.71 31.71 0 0 0-.8 2.004 21.482 21.482 0 0 0-.667 2.197 15.513 15.513 0 0 0-.378 2.162c-.07.703-.059 1.339.035 1.907.094.569.287 1.043.58 1.424s.72.618 1.283.712c-.328-.773-.518-1.476-.571-2.11-.053-.632-.009-1.192.132-1.678.14-.486.354-.893.641-1.222a2.94 2.94 0 0 1 .95-.738c.345-.164.7-.243 1.063-.237.363.006.697.1 1.002.281.305.182.554.451.747.809.193.357.29.811.29 1.362.035.445-.012.914-.14 1.406a6.7 6.7 0 0 1-.554 1.424c-.24.457-.533.879-.88 1.266a4.552 4.552 0 0 1-1.133.931c-.41.235-.844.375-1.3.422a2.678 2.678 0 0 1-1.39-.246zm2.425-2.093c.446-.21.78-.504 1.002-.879.223-.375.358-.764.405-1.169.047-.404.029-.788-.053-1.151s-.205-.63-.37-.8c-.163-.17-.348-.208-.553-.114-.205.094-.395.387-.571.879a3.2 3.2 0 0 0-.14.747c-.024.287-.027.58-.01.879.018.299.053.589.106.87s.114.527.184.738zm6.803 2.198a3.093 3.093 0 0 1-1.538-.87 5.096 5.096 0 0 1-1.037-1.6 8.034 8.034 0 0 1-.545-2.066c-.1-.75-.117-1.511-.053-2.285.065-.773.208-1.53.431-2.267.223-.739.53-1.4.923-1.987a5.447 5.447 0 0 1 1.424-1.459 3.963 3.963 0 0 1 1.907-.685c.785.047 1.468.29 2.048.73.58.439 1.054.995 1.424 1.67.369.673.63 1.432.782 2.276.152.843.196 1.69.132 2.54a9.679 9.679 0 0 1-.51 2.46 6.388 6.388 0 0 1-1.152 2.057 4.52 4.52 0 0 1-1.792 1.292c-.704.281-1.518.346-2.444.194zm3.076-10.829c-.61-.527-1.177-.782-1.705-.764-.527.017-.996.217-1.406.597-.41.381-.753.9-1.028 1.556a8.48 8.48 0 0 0-.572 2.1 8.898 8.898 0 0 0-.035 2.233c.082.744.27 1.392.563 1.942.293.551.7.967 1.221 1.249.522.28 1.181.328 1.978.14.492-.2.896-.527 1.213-.984.316-.457.554-.979.712-1.565a7.942 7.942 0 0 0 .263-1.863 11.047 11.047 0 0 0-.105-1.89 7.244 7.244 0 0 0-.422-1.634c-.193-.487-.419-.859-.677-1.117zm6.487 14.573c.07.375.026.662-.132.861a.865.865 0 0 1-.58.343 1.029 1.029 0 0 1-.677-.158.908.908 0 0 1-.422-.624 94.48 94.48 0 0 0-.176-8.895 34.648 34.648 0 0 0-.28-2.725c-.294.13-.534.176-.722.141-.187-.035-.319-.12-.395-.255-.076-.135-.097-.305-.062-.51.035-.205.13-.424.282-.659.386-.469.92-.741 1.6-.817.679-.076 1.4-.009 2.161.202.762.21 1.52.542 2.277.993.756.451 1.409.967 1.96 1.547.55.58.949 1.204 1.195 1.872.246.668.246 1.318 0 1.951-.164.446-.475.856-.932 1.23a6.236 6.236 0 0 1-1.573.932 7.69 7.69 0 0 1-1.863.51 4.942 4.942 0 0 1-1.82-.053l.159 4.114zm-.106-5.66c1.242-.07 2.195-.255 2.857-.554.662-.299 1.098-.656 1.31-1.072.21-.416.225-.862.043-1.336-.182-.475-.49-.92-.923-1.336a6.22 6.22 0 0 0-1.582-1.081 5.738 5.738 0 0 0-1.95-.563l.245 5.942zm6.645 1.81c-.176-.129-.293-.26-.352-.395-.058-.135-.047-.32.035-.554.211-.211.478-.519.8-.923.322-.404.636-.826.94-1.266.305-.44.58-.87.827-1.292.246-.422.398-.755.457-1.002l-2.32-2.76c-.13-.222-.162-.442-.097-.659a1.13 1.13 0 0 1 .351-.544c.17-.147.364-.25.58-.308a.828.828 0 0 1 .624.07c.141.07.32.24.537.51.216.27.442.548.676.835.235.287.46.536.677.747.217.211.396.293.536.246.07-.058.182-.184.334-.378.153-.193.328-.407.528-.641.199-.235.413-.47.641-.704.229-.234.457-.418.686-.553.228-.135.442-.2.641-.194.2.006.37.132.51.378.117.293.132.58.044.862-.088.28-.226.55-.413.808a5.876 5.876 0 0 1-.65.747c-.247.24-.472.472-.677.695-.205.222-.37.433-.492.632-.123.2-.156.381-.097.545.21.305.448.604.712.897.263.293.524.586.782.879.258.293.501.592.73.896.228.305.418.627.57.967.118.246.124.475.018.686-.105.21-.263.369-.474.474a1.24 1.24 0 0 1-.686.123.86.86 0 0 1-.615-.351l-2.39-2.918c-.118.082-.258.255-.423.518-.164.264-.348.554-.553.87-.205.317-.425.64-.66.967-.234.328-.48.607-.738.835a1.942 1.942 0 0 1-.79.448c-.27.07-.54.006-.81-.193zM31.683 81.254c-.645-.222-1.146-.588-1.503-1.098a3.836 3.836 0 0 1-.668-1.67 4.187 4.187 0 0 1 .14-1.82c.182-.609.495-1.13.94-1.564.012-.012-.06-.088-.219-.228a4.794 4.794 0 0 1-.527-.572 5.188 5.188 0 0 1-.554-.87 3.233 3.233 0 0 1-.334-1.134c-.047-.416 0-.864.14-1.344.141-.48.44-.99.897-1.53a2.9 2.9 0 0 1 .879-.738c.328-.176.656-.299.984-.37.328-.07.639-.093.932-.07.293.024.54.08.738.168.2.088.331.202.396.342.064.141.038.293-.08.457a.651.651 0 0 1-.439.255c-.187.03-.392.05-.615.062-.223.012-.454.032-.694.061-.24.03-.466.112-.677.246-.211.135-.396.34-.554.616-.158.275-.266.659-.325 1.151.012.68.117 1.195.316 1.547.2.351.452.577.756.677.305.1.639.088 1.002-.035.364-.124.715-.32 1.055-.59.34-.269.647-.594.923-.975.275-.38.474-.782.597-1.204.123-.422.156-.844.097-1.266-.058-.422-.258-.814-.598-1.177.047-.094.138-.147.273-.159.135-.011.275-.003.422.027.146.03.278.07.395.123.117.053.188.097.211.132.469 1.02.677 1.986.624 2.9-.052.914-.39 1.87-1.01 2.865.62.492 1.054 1.037 1.3 1.635.246.598.346 1.19.3 1.775a3.742 3.742 0 0 1-.537 1.653c-.31.515-.715.94-1.213 1.274a4.275 4.275 0 0 1-1.714.66c-.644.105-1.33.035-2.056-.212zm.298-1.318c.422.223.835.305 1.24.246a2.535 2.535 0 0 0 1.107-.44 3.05 3.05 0 0 0 .844-.905c.228-.369.378-.758.448-1.168.07-.41.05-.818-.061-1.222a2.15 2.15 0 0 0-.695-1.064 3.328 3.328 0 0 0-1.318-.052c-.445.07-.853.205-1.222.404-.369.2-.682.457-.94.773a2.294 2.294 0 0 0-.492 1.037c-.07.375-.024.768.14 1.178.164.41.48.815.95 1.213zm9.317 1.53a3.093 3.093 0 0 1-1.538-.87 5.096 5.096 0 0 1-1.037-1.6 8.034 8.034 0 0 1-.545-2.066c-.1-.75-.117-1.511-.053-2.285.064-.773.208-1.53.43-2.268.223-.738.53-1.4.923-1.986a5.447 5.447 0 0 1 1.424-1.459 3.963 3.963 0 0 1 1.908-.685c.785.047 1.467.29 2.047.73.58.439 1.055.995 1.424 1.669.37.674.63 1.433.782 2.276.153.844.197 1.69.132 2.54a9.679 9.679 0 0 1-.51 2.461 6.388 6.388 0 0 1-1.15 2.057 4.52 4.52 0 0 1-1.794 1.292c-.703.281-1.517.346-2.443.193zm3.076-10.829c-.61-.527-1.178-.782-1.705-.764-.527.017-.996.216-1.406.597-.41.381-.753.9-1.029 1.556a8.48 8.48 0 0 0-.571 2.1 8.898 8.898 0 0 0-.035 2.233c.082.744.27 1.392.562 1.942.293.551.7.967 1.222 1.248.522.282 1.18.328 1.978.141.492-.2.896-.527 1.213-.984.316-.457.553-.979.711-1.565a7.943 7.943 0 0 0 .264-1.863 11.047 11.047 0 0 0-.105-1.89 7.244 7.244 0 0 0-.422-1.635c-.194-.486-.42-.858-.677-1.116zM50.86 85.21c.07.375.027.662-.132.86a.865.865 0 0 1-.58.344 1.029 1.029 0 0 1-.676-.159.908.908 0 0 1-.422-.624 94.48 94.48 0 0 0-.176-8.895 34.648 34.648 0 0 0-.281-2.724c-.293.13-.533.176-.721.14-.187-.034-.32-.12-.395-.254-.077-.135-.097-.305-.062-.51.035-.205.129-.425.281-.659.387-.469.92-.741 1.6-.817.68-.077 1.4-.01 2.162.202.762.21 1.52.542 2.276.993.756.451 1.41.967 1.96 1.547.551.58.95 1.204 1.196 1.872.246.668.246 1.318 0 1.951-.164.445-.475.856-.932 1.23a6.236 6.236 0 0 1-1.573.932 7.69 7.69 0 0 1-1.864.51 4.942 4.942 0 0 1-1.819-.053l.158 4.114zm-.105-5.66c1.242-.071 2.194-.256 2.856-.554.662-.3 1.099-.657 1.31-1.073.21-.416.225-.86.044-1.336-.182-.474-.49-.92-.923-1.335a6.22 6.22 0 0 0-1.582-1.082 5.738 5.738 0 0 0-1.951-.562l.246 5.941zm6.644 1.81c-.175-.129-.293-.26-.351-.396-.059-.134-.047-.319.035-.553.21-.211.478-.519.8-.923.322-.404.636-.826.94-1.266.305-.44.58-.87.826-1.292.246-.422.399-.756.457-1.002l-2.32-2.76c-.129-.222-.161-.442-.097-.659a1.13 1.13 0 0 1 .352-.545c.17-.146.363-.249.58-.307a.828.828 0 0 1 .624.07c.14.07.32.24.536.51.217.27.443.548.677.835.234.287.46.536.677.747.217.21.395.293.536.246.07-.059.182-.185.334-.378.152-.193.328-.407.527-.642.2-.234.413-.468.642-.703.228-.234.457-.419.685-.553.229-.135.443-.2.642-.194.2.006.37.132.51.378.117.293.132.58.044.862-.088.28-.226.55-.413.808a5.876 5.876 0 0 1-.65.747c-.247.24-.473.472-.678.695-.205.222-.369.433-.492.632-.123.2-.155.381-.096.545.21.305.448.604.711.897.264.293.525.586.783.879.258.293.5.591.73.896.228.305.418.627.57.967.118.246.124.475.018.685-.105.211-.264.37-.475.475a1.24 1.24 0 0 1-.685.123.86.86 0 0 1-.615-.351l-2.391-2.918c-.117.082-.258.254-.422.518-.164.264-.348.554-.554.87-.205.317-.424.639-.659.967-.234.328-.48.607-.738.835a1.942 1.942 0 0 1-.791.448c-.27.07-.54.006-.809-.193z" fill="#fff"/><path d="M78.5 8.5v46M75.5 19.3l3-10.8 3 10.8M75.5 43.7l3 10.8 3-10.8M72.5 60.5H10.33M61.7 57.5l10.8 3-10.8 3M21.13 57.5l-10.8 3 10.8 3" stroke="#fed650" stroke-width="4"/><use stroke="#fed650" mask="url(#b)" stroke-width="8" stroke-dasharray="8" xlink:href="#a"/><path d="M39.075 192.784c-1.075.693-2.137 1.148-3.185 1.367-1.048.219-1.992.242-2.83.068-.839-.173-1.522-.515-2.051-1.025-.529-.51-.811-1.158-.848-1.941l-.957-14.766a3.697 3.697 0 0 1 .274-1.695c.219-.51.492-.87.82-1.08a.965.965 0 0 1 1.012-.055c.346.173.62.624.82 1.353a15.681 15.681 0 0 1-.11 1.436c-.054.428-.095.852-.122 1.271-.028.42-.023.853.013 1.3.037.446.137.943.301 1.49 1.422-1.058 2.735-1.605 3.938-1.641 1.203-.037 2.242.264 3.117.902s1.568 1.522 2.078 2.653c.51 1.13.78 2.328.807 3.595a9.405 9.405 0 0 1-.684 3.719c-.483 1.212-1.28 2.229-2.393 3.049zm-6.644-8.531c-.091.182-.173.496-.246.943-.073.447-.11.948-.11 1.504s.041 1.13.123 1.723c.083.592.224 1.134.424 1.626.2.493.465.903.793 1.231.328.328.748.501 1.258.52 1.33-.292 2.384-.748 3.158-1.368.775-.62 1.326-1.312 1.655-2.078a5.19 5.19 0 0 0 .423-2.365 6.054 6.054 0 0 0-.546-2.242 4.945 4.945 0 0 0-1.286-1.71c-.537-.455-1.12-.706-1.75-.751-.629-.046-1.285.155-1.968.601-.684.447-1.327 1.235-1.928 2.366zm13.152 9.597c-.82-.4-1.454-.961-1.9-1.681a6.34 6.34 0 0 1-.875-2.38 8.98 8.98 0 0 1 0-2.706c.137-.94.369-1.85.697-2.735.328-.884.73-1.69 1.203-2.42.474-.729.985-1.321 1.532-1.777 1.002-.766 1.932-1.221 2.789-1.367.856-.146 1.622-.064 2.296.246.675.31 1.263.802 1.764 1.477a8 8 0 0 1 1.176 2.31c.282.866.451 1.796.506 2.79a11.47 11.47 0 0 1-.205 2.911 9.405 9.405 0 0 1-.957 2.653 5.95 5.95 0 0 1-1.778 2.023c-.738.529-1.622.866-2.652 1.012-1.03.146-2.229.027-3.596-.356zm2.106-2.27c.765.074 1.454-.095 2.064-.505a5.053 5.053 0 0 0 1.518-1.613 7.366 7.366 0 0 0 .875-2.256 6.83 6.83 0 0 0 .11-2.42 5.225 5.225 0 0 0-.766-2.106c-.402-.629-.976-1.07-1.723-1.326-.456-.091-.934.055-1.436.438-.501.382-.957.897-1.367 1.545a9.653 9.653 0 0 0-1.012 2.187 7.734 7.734 0 0 0-.396 2.406c0 .793.164 1.518.492 2.174.328.656.875 1.149 1.64 1.477zm11.703 1.723c-.128.292-.351.524-.67.698-.32.173-.652.26-.998.26s-.67-.1-.97-.301c-.302-.2-.507-.538-.616-1.012-.037-.182-.041-.56-.014-1.135.028-.574.032-1.385.014-2.433a98.27 98.27 0 0 0-.164-3.91c-.091-1.56-.264-3.423-.52-5.592.383-.347.752-.474 1.108-.383.355.09.679.291.97.601.292.31.53.689.711 1.135.183.447.283.861.301 1.244.091-.346.287-.706.588-1.08.3-.374.67-.715 1.108-1.025.437-.31.925-.574 1.462-.793a5.885 5.885 0 0 1 1.668-.41c.575-.055 1.149 0 1.723.164.574.164 1.107.474 1.6.93.018.163-.01.337-.082.519a2.138 2.138 0 0 1-.301.52 2.14 2.14 0 0 1-.438.423 1.342 1.342 0 0 1-.492.233c-1.057-.219-1.955-.205-2.693.04a3.948 3.948 0 0 0-1.819 1.218c-.474.565-.829 1.253-1.066 2.064a14.26 14.26 0 0 0-.492 2.584 21.714 21.714 0 0 0-.096 2.79c.027.947.087 1.831.178 2.651zm11.73.875c-1.185-.291-2.155-.856-2.912-1.695a7.494 7.494 0 0 1-1.627-2.885 9.321 9.321 0 0 1-.355-3.431 9.162 9.162 0 0 1 .888-3.35 7.48 7.48 0 0 1 2.12-2.625c.911-.72 2.023-1.144 3.336-1.271a10.797 10.797 0 0 1 2.023.027c.71.073 1.358.255 1.941.547l-.355-5.387c0-.219.16-.383.478-.492a2.81 2.81 0 0 1 1.053-.137c.383.018.734.119 1.053.301.319.182.478.465.478.848l1.778 18.566c.036.346-.05.62-.26.82-.21.2-.465.328-.766.383-.3.055-.606.037-.916-.055-.31-.09-.528-.255-.656-.492a1.886 1.886 0 0 1-.15-.383 72.323 72.323 0 0 1-.397-1.285c-.054-.182-.09-.273-.11-.273-.71.71-1.398 1.244-2.064 1.6-.665.355-1.29.592-1.873.71-.583.119-1.107.16-1.572.123a7.126 7.126 0 0 1-1.135-.164zm-2.105-6.152c.255 1.003.592 1.81 1.012 2.42.419.61.88 1.048 1.38 1.312.502.265 1.03.374 1.586.329a4.024 4.024 0 0 0 1.627-.506 6.368 6.368 0 0 0 1.504-1.176 7.534 7.534 0 0 0 1.23-1.723c.165-.328.26-.697.288-1.107.027-.41.009-.834-.055-1.272-.064-.437-.155-.88-.273-1.326-.119-.446-.233-.88-.342-1.299-.51-1.002-1.09-1.704-1.736-2.105-.648-.401-1.3-.579-1.956-.533-.656.045-1.285.282-1.886.71a5.812 5.812 0 0 0-1.531 1.628 6.615 6.615 0 0 0-.89 2.2 5.417 5.417 0 0 0 .042 2.448zm25.32 3.39a4.586 4.586 0 0 1-1.312 1.546 5.819 5.819 0 0 1-1.805.916 6.73 6.73 0 0 1-2.064.287 7.03 7.03 0 0 1-2.092-.342 7.505 7.505 0 0 1-1.9-.93 5.602 5.602 0 0 1-1.49-1.476 11.505 11.505 0 0 1-1.34-3.692c-.238-1.312-.229-2.552.027-3.718a6.636 6.636 0 0 1 1.558-3.063c.784-.875 1.878-1.458 3.281-1.75 1.331-.091 2.384.068 3.159.479.774.41 1.303.966 1.586 1.668.282.701.337 1.48.164 2.337-.174.857-.543 1.691-1.108 2.502-.565.812-1.312 1.532-2.242 2.16-.93.63-2.005 1.062-3.227 1.3.365.6.78 1.034 1.245 1.298a3.74 3.74 0 0 0 1.463.479c.51.054 1.016.022 1.517-.096a9.628 9.628 0 0 0 1.395-.438c.428-.173.806-.337 1.134-.492.329-.155.565-.26.711-.314.657-.2 1.103-.2 1.34 0 .237.2.237.647 0 1.34zm-7.246-9.761c-.437.328-.82.702-1.148 1.121-.328.42-.593.866-.793 1.34-.2.474-.333.966-.397 1.476s-.05 1.012.041 1.504a5.499 5.499 0 0 0 2.065-.71 6.383 6.383 0 0 0 1.53-1.245c.411-.465.707-.943.89-1.435.182-.492.232-.92.15-1.285-.082-.365-.314-.63-.697-.793-.383-.164-.93-.155-1.64.027zm12.168 11.648c-.128.292-.35.524-.67.698-.319.173-.652.26-.998.26s-.67-.1-.97-.301c-.301-.2-.506-.538-.616-1.012-.036-.182-.04-.56-.014-1.135.028-.574.032-1.385.014-2.433a98.27 98.27 0 0 0-.164-3.91c-.091-1.56-.264-3.423-.52-5.592.383-.347.752-.474 1.108-.383.355.09.679.291.97.601.292.31.53.689.712 1.135.182.447.282.861.3 1.244.092-.346.287-.706.588-1.08.301-.374.67-.715 1.108-1.025.437-.31.925-.574 1.463-.793a5.885 5.885 0 0 1 1.668-.41c.574-.055 1.148 0 1.722.164.574.164 1.108.474 1.6.93.018.163-.01.337-.082.519a2.138 2.138 0 0 1-.301.52 2.14 2.14 0 0 1-.437.423 1.342 1.342 0 0 1-.493.233c-1.057-.219-1.955-.205-2.693.04a3.948 3.948 0 0 0-1.818 1.218c-.474.565-.83 1.253-1.067 2.064a14.26 14.26 0 0 0-.492 2.584 21.714 21.714 0 0 0-.096 2.79c.028.947.087 1.831.178 2.651zm8.86-6.343c-.547-.383-.816-.78-.807-1.19.009-.41.332-.715.97-.916l9.516-.055a.821.821 0 0 1 .52.493c.09.237.095.483.013.738a1.668 1.668 0 0 1-.478.71c-.237.22-.556.347-.957.384l-8.778-.164zm14.874 6.343c-.127.292-.35.524-.67.698-.319.173-.651.26-.998.26-.346 0-.67-.1-.97-.301-.301-.2-.506-.538-.615-1.012-.037-.182-.042-.56-.014-1.135.027-.574.032-1.385.014-2.433a98.273 98.273 0 0 0-.165-3.91c-.09-1.56-.264-3.423-.52-5.592.384-.347.753-.474 1.108-.383.356.09.68.291.971.601.292.31.529.689.711 1.135.182.447.283.861.3 1.244.092-.346.288-.706.589-1.08.3-.374.67-.715 1.107-1.025.438-.31.925-.574 1.463-.793a5.885 5.885 0 0 1 1.668-.41c.574-.055 1.148 0 1.723.164.574.164 1.107.474 1.6.93.017.163-.01.337-.083.519a2.138 2.138 0 0 1-.3.52 2.14 2.14 0 0 1-.438.423 1.342 1.342 0 0 1-.492.233c-1.058-.219-1.955-.205-2.694.04a3.948 3.948 0 0 0-1.818 1.218c-.474.565-.83 1.253-1.066 2.064a14.26 14.26 0 0 0-.493 2.584 21.714 21.714 0 0 0-.095 2.79c.027.947.086 1.831.177 2.651zm21.356-.574c0 .529-.11.884-.328 1.067a1.16 1.16 0 0 1-.766.273c-.292 0-.57-.06-.834-.178s-.433-.232-.506-.342l-1.449-3.117c-.237.438-.51.862-.82 1.272-.31.41-.656.775-1.04 1.094a6.19 6.19 0 0 1-1.243.806 4.272 4.272 0 0 1-1.436.41c-1.221.037-2.238-.15-3.049-.56-.811-.41-1.458-.962-1.941-1.655-.483-.692-.802-1.49-.957-2.392a9.817 9.817 0 0 1-.069-2.79c.11-.956.338-1.9.684-2.83a10.67 10.67 0 0 1 1.312-2.501 7.492 7.492 0 0 1 1.846-1.832 4.458 4.458 0 0 1 2.256-.807c.802-.055 1.645.132 2.53.56.883.43 1.79 1.19 2.72 2.284l3.09 11.238zm-10.719-1.805c.839.292 1.572.36 2.201.206a3.347 3.347 0 0 0 1.6-.89c.437-.437.77-.983.998-1.64a8.42 8.42 0 0 0 .328-4.143 5.842 5.842 0 0 0-.601-1.804c-.283-.52-.643-.907-1.08-1.162-.438-.255-.948-.31-1.532-.164-.474.11-.898.387-1.271.834a6.14 6.14 0 0 0-.944 1.586 9.46 9.46 0 0 0-.574 1.982c-.127.711-.187 1.404-.178 2.078.01.675.1 1.29.274 1.846.173.556.433.98.78 1.271zm16.543 3.254c-1.185-.291-2.155-.856-2.912-1.695a7.494 7.494 0 0 1-1.627-2.885 9.321 9.321 0 0 1-.355-3.431 9.162 9.162 0 0 1 .888-3.35 7.48 7.48 0 0 1 2.12-2.625c.91-.72 2.023-1.144 3.335-1.271a10.797 10.797 0 0 1 2.024.027c.71.073 1.358.255 1.941.547l-.355-5.387c0-.219.16-.383.478-.492a2.81 2.81 0 0 1 1.053-.137c.383.018.734.119 1.053.301.319.182.478.465.478.848l1.778 18.566c.036.346-.05.62-.26.82-.21.2-.465.328-.766.383-.3.055-.606.037-.916-.055-.31-.09-.529-.255-.656-.492a1.886 1.886 0 0 1-.15-.383 72.336 72.336 0 0 1-.397-1.285c-.055-.182-.091-.273-.11-.273-.71.71-1.398 1.244-2.064 1.6-.665.355-1.29.592-1.873.71-.583.119-1.107.16-1.572.123a7.126 7.126 0 0 1-1.135-.164zm-2.105-6.152c.255 1.003.592 1.81 1.011 2.42.42.61.88 1.048 1.381 1.312.502.265 1.03.374 1.586.329a4.024 4.024 0 0 0 1.627-.506 6.368 6.368 0 0 0 1.504-1.176 7.534 7.534 0 0 0 1.23-1.723c.165-.328.26-.697.288-1.107.027-.41.009-.834-.055-1.272-.064-.437-.155-.88-.274-1.326l-.341-1.299c-.51-1.002-1.09-1.704-1.737-2.105s-1.298-.579-1.955-.533c-.656.045-1.285.282-1.886.71a5.812 5.812 0 0 0-1.532 1.628 6.615 6.615 0 0 0-.888 2.2 5.417 5.417 0 0 0 .04 2.448zm16.761 3.91c.128.347.169.684.123 1.012a2.14 2.14 0 0 1-.314.875c-.164.255-.37.456-.615.601-.246.146-.497.21-.752.192-.255-.018-.497-.132-.725-.342-.228-.21-.405-.551-.533-1.025-.037-.128-.068-.442-.096-.944-.027-.501-.05-1.089-.068-1.763-.018-.675-.037-1.4-.055-2.174-.018-.775-.036-1.5-.054-2.174-.019-.674-.037-1.262-.055-1.764-.018-.501-.046-.825-.082-.97-.128-.894-.137-1.618-.028-2.174.11-.556.278-.975.506-1.258.228-.283.488-.437.78-.465.291-.027.56.05.806.233.246.182.442.46.588.834.146.373.192.815.137 1.326l.437 9.98zm-1.968-14.547c-.401-.31-.643-.651-.725-1.025-.082-.374-.055-.706.082-.998a1.23 1.23 0 0 1 .656-.629c.301-.128.625-.11.971.055.401.218.647.528.738.93.091.4.073.77-.054 1.107a1.322 1.322 0 0 1-.643.738c-.3.155-.643.096-1.025-.178zm8.367 16.871a4.527 4.527 0 0 1-1.969-1.326 7.558 7.558 0 0 1-1.285-2.133 13.577 13.577 0 0 1-.752-2.61c-.173-.93-.292-1.86-.356-2.79a33.699 33.699 0 0 1-.082-2.666c.01-.848.032-1.59.069-2.228.036-.347.168-.602.396-.766.228-.164.492-.25.793-.26.301-.009.597.05.889.178.292.127.52.3.684.52.127.182.214.564.26 1.148.045.583.081 1.262.109 2.037.027.775.063 1.586.109 2.434.046.847.137 1.64.273 2.378.137.739.333 1.372.588 1.9.256.53.62.84 1.094.93.73-.018 1.308-.227 1.736-.628.429-.401.739-.926.93-1.573.192-.647.287-1.376.287-2.187 0-.811-.054-1.636-.164-2.475-.11-.838-.25-1.65-.424-2.433a77.668 77.668 0 0 0-.478-2.051c-.091-.438-.023-.72.205-.848.228-.127.515-.16.861-.095.347.063.702.186 1.067.369.364.182.629.373.793.574.382.802.683 1.74.902 2.816.219 1.076.319 2.179.3 3.309a15.558 15.558 0 0 1-.41 3.322c-.255 1.085-.656 2.033-1.203 2.844a5.52 5.52 0 0 1-2.119 1.873c-.866.437-1.9.583-3.103.437zm9.297-.52a1.647 1.647 0 0 1-.684-.355 1.515 1.515 0 0 1-.465-.642c-.09-.246-.077-.515.041-.807.119-.291.397-.574.834-.847.237.218.63.405 1.176.56.547.155 1.144.26 1.791.315.647.054 1.29.059 1.928.013.638-.045 1.171-.15 1.6-.314.428-.164.697-.388.806-.67.11-.283-.046-.634-.465-1.053a71.529 71.529 0 0 0-3.185-2.037c-.903-.538-1.668-1.066-2.297-1.586a6.642 6.642 0 0 1-1.504-1.723c-.374-.628-.643-1.435-.807-2.42-.054-.802.137-1.462.574-1.982.438-.52 1.003-.911 1.696-1.176.692-.264 1.467-.405 2.324-.424a9.172 9.172 0 0 1 2.502.288 7.58 7.58 0 0 1 2.201.943c.656.42 1.13.93 1.422 1.531.055.274.041.524-.041.752a1.573 1.573 0 0 1-.37.588c-.163.164-.368.287-.614.37a1.716 1.716 0 0 1-.78.068c-.565-.711-1.18-1.226-1.845-1.545-.666-.32-1.295-.488-1.887-.506-.593-.018-1.09.105-1.49.369-.401.264-.611.624-.63 1.08-.018.456.206.993.67 1.613.465.62 1.272 1.285 2.42 1.996 1.641.985 2.858 1.9 3.65 2.748.794.848 1.24 1.605 1.34 2.27.101.665-.095 1.235-.587 1.709s-1.194.83-2.106 1.066c-.911.237-1.991.347-3.24.328-1.249-.018-2.575-.191-3.978-.52zm12.195-4.73c-.365-.127-.602-.305-.711-.533a1.01 1.01 0 0 1-.068-.71c.063-.247.191-.47.382-.67.192-.201.41-.333.657-.397.246-.064.492-.037.738.082.246.118.451.378.615.78.183.637.114 1.088-.205 1.353-.319.264-.788.296-1.408.095zm0-4.484c-.365-.128-.602-.305-.711-.533a1.01 1.01 0 0 1-.068-.711c.063-.246.191-.47.382-.67.192-.2.41-.333.657-.396.246-.064.492-.037.738.082.246.118.451.378.615.779.183.638.114 1.089-.205 1.353-.319.265-.788.297-1.408.096zm21.355 9.324c-1.002-.346-1.781-.916-2.337-1.709a5.967 5.967 0 0 1-1.04-2.597 6.513 6.513 0 0 1 .22-2.83 5.55 5.55 0 0 1 1.462-2.434c.018-.018-.096-.137-.342-.356a7.457 7.457 0 0 1-.82-.888 8.07 8.07 0 0 1-.861-1.354 5.03 5.03 0 0 1-.52-1.763c-.073-.648 0-1.345.219-2.092.219-.748.684-1.54 1.394-2.38a4.51 4.51 0 0 1 1.368-1.148 5.828 5.828 0 0 1 1.53-.574c.511-.11.994-.146 1.45-.11.456.037.839.124 1.149.26.31.137.515.315.615.534.1.219.059.456-.123.71-.164.22-.392.352-.684.397-.292.046-.61.078-.957.096-.346.018-.706.05-1.08.096a2.496 2.496 0 0 0-1.053.383c-.328.21-.615.528-.861.957-.246.428-.415 1.025-.506 1.79.018 1.058.182 1.86.492 2.407.31.547.702.898 1.176 1.053.474.154.994.136 1.559-.055a5.466 5.466 0 0 0 1.64-.916 7.615 7.615 0 0 0 1.436-1.518 6.1 6.1 0 0 0 .93-1.873 4.665 4.665 0 0 0 .15-1.969c-.091-.656-.401-1.266-.93-1.832.073-.145.214-.227.424-.246.21-.018.428-.004.656.041.228.046.433.11.616.192.182.082.291.15.328.205.729 1.586 1.052 3.09.97 4.512-.082 1.421-.606 2.907-1.572 4.457.966.765 1.64 1.613 2.024 2.543.382.93.537 1.85.464 2.761a5.821 5.821 0 0 1-.834 2.57 6.224 6.224 0 0 1-1.886 1.983c-.775.52-1.664.861-2.666 1.025-1.003.164-2.07.055-3.2-.328zm.465-2.05c.657.346 1.3.473 1.928.382a3.943 3.943 0 0 0 1.723-.683c.52-.365.957-.834 1.312-1.408.356-.575.588-1.18.697-1.819a4.323 4.323 0 0 0-.095-1.9c-.173-.63-.533-1.18-1.08-1.655a5.177 5.177 0 0 0-2.051-.082 5.91 5.91 0 0 0-1.9.63c-.575.31-1.062.71-1.463 1.202a3.569 3.569 0 0 0-.766 1.614c-.11.583-.036 1.194.219 1.832.255.638.747 1.267 1.476 1.886zm14.492 2.378a4.81 4.81 0 0 1-2.392-1.353c-.665-.684-1.203-1.513-1.613-2.488a12.497 12.497 0 0 1-.848-3.213 16.51 16.51 0 0 1-.082-3.555 17.1 17.1 0 0 1 .67-3.527 11.453 11.453 0 0 1 1.435-3.09 8.473 8.473 0 0 1 2.215-2.27c.866-.601 1.855-.957 2.967-1.066 1.221.073 2.283.451 3.186 1.135a8.078 8.078 0 0 1 2.214 2.597c.575 1.048.98 2.229 1.217 3.541.237 1.313.306 2.63.205 3.952a15.056 15.056 0 0 1-.793 3.828c-.428 1.23-1.025 2.297-1.79 3.199a7.03 7.03 0 0 1-2.79 2.01c-1.093.437-2.36.537-3.8.3zm4.786-16.843c-.948-.82-1.832-1.217-2.653-1.19-.82.028-1.55.337-2.187.93-.638.592-1.171 1.399-1.6 2.42a13.19 13.19 0 0 0-.888 3.267 13.842 13.842 0 0 0-.055 3.473c.127 1.158.42 2.165.875 3.022.456.856 1.089 1.503 1.9 1.94.811.438 1.837.511 3.076.22a4.159 4.159 0 0 0 1.887-1.532 7.814 7.814 0 0 0 1.108-2.433c.246-.912.382-1.878.41-2.899.027-1.02-.028-2-.164-2.94a11.27 11.27 0 0 0-.657-2.542c-.3-.757-.651-1.335-1.052-1.736zm10.09 22.668c.109.583.04 1.03-.206 1.34-.246.31-.546.487-.902.533-.355.045-.706-.037-1.053-.246-.346-.21-.565-.534-.656-.971a146.968 146.968 0 0 0-.273-13.836 53.897 53.897 0 0 0-.438-4.238c-.456.2-.83.273-1.121.218-.292-.054-.497-.186-.615-.396-.119-.21-.15-.474-.096-.793.055-.32.2-.66.438-1.025.601-.73 1.43-1.153 2.488-1.272 1.057-.118 2.178-.014 3.363.315 1.185.328 2.365.843 3.541 1.544 1.176.702 2.192 1.504 3.049 2.407.857.902 1.477 1.873 1.86 2.912.382 1.039.382 2.05 0 3.035-.256.693-.739 1.33-1.45 1.914a9.7 9.7 0 0 1-2.447 1.45c-.92.382-1.887.646-2.899.792-1.011.146-1.955.119-2.83-.082l.246 6.399zm-.165-8.805c1.933-.11 3.414-.397 4.444-.861 1.03-.465 1.709-1.021 2.037-1.668.328-.648.35-1.34.068-2.078-.282-.739-.76-1.431-1.435-2.079-.675-.647-1.495-1.207-2.461-1.681a8.926 8.926 0 0 0-3.035-.875l.382 9.242zm10.336 2.816c-.273-.2-.455-.405-.547-.615-.09-.21-.072-.497.055-.861.328-.328.743-.807 1.244-1.436a36.76 36.76 0 0 0 1.463-1.969c.474-.683.903-1.353 1.285-2.01.383-.656.62-1.175.711-1.558l-3.61-4.293c-.2-.346-.25-.688-.15-1.025.1-.337.283-.62.547-.848.265-.228.566-.387.903-.478.337-.092.66-.055.97.109.22.11.497.374.834.793.338.42.689.852 1.053 1.299a13.8 13.8 0 0 0 1.053 1.162c.337.328.615.456.834.383.11-.091.282-.287.52-.588.236-.301.51-.634.82-.998.31-.365.642-.73.998-1.094.355-.365.71-.652 1.066-.861.356-.21.688-.31.998-.301.31.009.574.205.793.588.182.456.205.902.069 1.34a4.33 4.33 0 0 1-.643 1.257 9.14 9.14 0 0 1-1.012 1.163c-.383.373-.733.733-1.052 1.08a6.604 6.604 0 0 0-.766.984c-.192.31-.242.592-.15.848.328.474.697.938 1.107 1.394.41.456.816.912 1.217 1.367.4.456.779.92 1.134 1.395.356.474.652.975.89 1.504.181.383.19.738.027 1.066a1.61 1.61 0 0 1-.739.738 1.929 1.929 0 0 1-1.066.192c-.383-.037-.702-.219-.957-.547l-3.719-4.539c-.182.128-.401.396-.656.807-.255.41-.543.86-.862 1.353-.319.492-.66.994-1.025 1.504-.365.51-.747.943-1.148 1.299-.401.355-.812.588-1.23.697-.42.11-.84.01-1.259-.3zm29.504-.273c-.218.255-.46.328-.724.219a1.459 1.459 0 0 1-.657-.547 2.157 2.157 0 0 1-.341-.834c-.055-.301.009-.524.191-.67l9.297-18.02c.164-.273.369-.419.615-.437a1.01 1.01 0 0 1 .697.219c.22.164.392.41.52.738s.137.702.027 1.121l-9.625 18.21zm27.754.273c-1.002-.547-1.823-1.358-2.46-2.433-.639-1.076-1.022-2.425-1.15-4.047-.127-1.623.055-3.527.548-5.715.492-2.187 1.367-4.658 2.625-7.41.073-.328.237-.565.492-.711.255-.146.515-.187.78-.123.263.064.487.232.67.506.181.273.245.656.19 1.148-.419.948-.834 1.987-1.244 3.117-.41 1.13-.756 2.27-1.039 3.418a24.131 24.131 0 0 0-.588 3.364c-.109 1.093-.09 2.082.055 2.966.146.885.447 1.623.902 2.215.456.593 1.122.962 1.997 1.108-.51-1.203-.807-2.297-.89-3.282-.081-.984-.013-1.854.206-2.61.219-.757.551-1.39.998-1.901.447-.51.939-.894 1.477-1.149a3.677 3.677 0 0 1 1.654-.369c.565.01 1.084.155 1.558.438.474.282.862.701 1.163 1.257.3.556.45 1.263.45 2.12a6.57 6.57 0 0 1-.218 2.187c-.2.766-.488 1.504-.861 2.215a9.751 9.751 0 0 1-1.368 1.969 7.082 7.082 0 0 1-1.763 1.449 5.085 5.085 0 0 1-2.024.656c-.71.073-1.43-.055-2.16-.383zm3.774-3.254c.692-.328 1.212-.783 1.558-1.367.347-.583.556-1.19.63-1.818a5.308 5.308 0 0 0-.083-1.791c-.128-.565-.319-.98-.574-1.244-.255-.265-.542-.324-.861-.178-.32.146-.616.602-.89 1.367-.109.328-.181.716-.218 1.162a9.75 9.75 0 0 0-.014 1.367c.028.465.082.916.164 1.354.083.437.178.82.288 1.148zm10.582 3.418a4.81 4.81 0 0 1-2.393-1.353c-.665-.684-1.203-1.513-1.613-2.488a12.497 12.497 0 0 1-.848-3.213 16.51 16.51 0 0 1-.082-3.555 17.1 17.1 0 0 1 .67-3.527 11.453 11.453 0 0 1 1.436-3.09 8.473 8.473 0 0 1 2.214-2.27c.866-.601 1.855-.957 2.967-1.066 1.222.073 2.283.451 3.186 1.135a8.078 8.078 0 0 1 2.215 2.597c.574 1.048.98 2.229 1.216 3.541.237 1.313.306 2.63.205 3.952a15.056 15.056 0 0 1-.793 3.828c-.428 1.23-1.025 2.297-1.79 3.199a7.03 7.03 0 0 1-2.79 2.01c-1.093.437-2.36.537-3.8.3zm4.785-16.843c-.948-.82-1.832-1.217-2.653-1.19-.82.028-1.549.337-2.187.93-.638.592-1.171 1.399-1.6 2.42a13.19 13.19 0 0 0-.888 3.267 13.842 13.842 0 0 0-.055 3.473c.128 1.158.42 2.165.875 3.022.456.856 1.09 1.503 1.9 1.94.812.438 1.837.511 3.077.22a4.159 4.159 0 0 0 1.886-1.532 7.814 7.814 0 0 0 1.108-2.433c.246-.912.382-1.878.41-2.899.027-1.02-.028-2-.164-2.94a11.27 11.27 0 0 0-.656-2.542c-.301-.757-.652-1.335-1.053-1.736zm10.09 22.668c.109.583.04 1.03-.205 1.34-.247.31-.547.487-.903.533-.355.045-.706-.037-1.053-.246-.346-.21-.565-.534-.656-.971a146.97 146.97 0 0 0-.273-13.836 53.897 53.897 0 0 0-.438-4.238c-.455.2-.83.273-1.12.218-.292-.054-.498-.186-.616-.396-.119-.21-.15-.474-.096-.793.055-.32.2-.66.438-1.025.601-.73 1.43-1.153 2.488-1.272 1.057-.118 2.178-.014 3.363.315 1.185.328 2.366.843 3.541 1.544 1.176.702 2.192 1.504 3.05 2.407.856.902 1.476 1.873 1.859 2.912.382 1.039.382 2.05 0 3.035-.256.693-.739 1.33-1.45 1.914a9.7 9.7 0 0 1-2.447 1.45c-.92.382-1.887.646-2.898.792-1.012.146-1.955.119-2.83-.082l.246 6.399zm-.164-8.805c1.932-.11 3.413-.397 4.443-.861 1.03-.465 1.709-1.021 2.037-1.668.328-.648.351-1.34.068-2.078-.282-.739-.76-1.431-1.435-2.079-.675-.647-1.495-1.207-2.461-1.681a8.926 8.926 0 0 0-3.035-.875l.383 9.242zm10.336 2.816c-.274-.2-.456-.405-.547-.615-.092-.21-.073-.497.054-.861.328-.328.743-.807 1.244-1.436a36.76 36.76 0 0 0 1.463-1.969c.474-.683.903-1.353 1.286-2.01.382-.656.62-1.175.71-1.558l-3.609-4.293c-.2-.346-.25-.688-.15-1.025.1-.337.282-.62.547-.848.264-.228.565-.387.902-.478.337-.092.66-.055.97.109.22.11.497.374.835.793.337.42.688.852 1.052 1.299a13.8 13.8 0 0 0 1.053 1.162c.337.328.615.456.834.383.11-.091.283-.287.52-.588.237-.301.51-.634.82-.998.31-.365.642-.73.998-1.094.355-.365.71-.652 1.066-.861.356-.21.688-.31.998-.301.31.009.575.205.793.588.183.456.205.902.069 1.34a4.33 4.33 0 0 1-.643 1.257 9.14 9.14 0 0 1-1.012 1.163c-.382.373-.733.733-1.052 1.08a6.604 6.604 0 0 0-.766.984c-.191.31-.241.592-.15.848.328.474.697.938 1.107 1.394.41.456.816.912 1.217 1.367.4.456.78.92 1.135 1.395.355.474.651.975.888 1.504.183.383.192.738.028 1.066a1.61 1.61 0 0 1-.739.738 1.929 1.929 0 0 1-1.066.192c-.383-.037-.702-.219-.957-.547l-3.719-4.539c-.182.128-.4.396-.656.807-.255.41-.542.86-.861 1.353-.32.492-.661.994-1.026 1.504-.364.51-.747.943-1.148 1.299-.401.355-.811.588-1.23.697-.42.11-.84.01-1.258-.3z" fill="#fff"/></g></svg>
