<svg viewBox="0 0 516 280" xmlns="http://www.w3.org/2000/svg" xmlns:xlink="http://www.w3.org/1999/xlink"><g fill="none" fill-rule="evenodd"><path stroke="#000" stroke-dasharray="3" fill="#FACD9A" d="M116 0h400v280H116z"/><path stroke="#000" fill="#FEDE97" d="M141 26h350v230H141z"/><path stroke="#000" fill="#C2D086" d="M166 51h300v180H166z"/><path stroke="#000" stroke-dasharray="3" fill="#8AB5C1" d="M206 81h220v120H206z"/><text font-size="12" fill="#000"><tspan x="123" y="17">Margin</tspan></text><text font-size="12" fill="#000"><tspan x="149" y="43">Border</tspan></text><text font-size="12" fill="#000"><tspan x="177" y="69">Padding</tspan></text><text font-size="12" fill="#000"><tspan x="295" y="143">Content</tspan></text><path d="M113.5 16.5L79.56 33.138M102.482 18.56L113.5 16.5l-8.377 7.447M138.5 44.5L79.417 73.462M127.482 46.56L138.5 44.5l-8.377 7.447M163.5 71.5l-83.327 40.847M152.482 73.56L163.5 71.5l-8.377 7.447M203.5 107.5L80.664 167.714M192.482 109.56l11.018-2.06-8.377 7.447" stroke="#fff" stroke-width="2" stroke-linecap="square"/><text font-size="12" fill="#fff"><tspan x="7" y="37">Margin edge</tspan></text><text font-size="12" fill="#fff"><tspan x="0" y="117">Padding edge</tspan></text><text font-size="12" fill="#fff"><tspan x="8" y="78">Border edge</tspan></text><text font-size="12" fill="#fff"><tspan x="2" y="172">Content edge</tspan></text></g></svg>