<svg xmlns="http://www.w3.org/2000/svg" viewBox="0 0 932 250" fill="none"><path stroke="#fff" stroke-width="8" d="M4 4h242v242H4z"/><rect width="242" height="242" x="345" y="4" stroke="#fff" stroke-width="8" rx="46"/><circle cx="391" cy="50" r="46" stroke="#FED650" stroke-dasharray="8 8" stroke-width="8"/><path fill="#BABABA" d="M341 52l10 5.773V46.227L341 52zm50 0l-10-5.773v11.547L391 52zm-41 1h32v-2h-32v2z" mask="url(#)"/><path fill="#BABABA" d="M390 53l5.774-10h-11.548L390 53zm0-50l-5.774 10h11.548L390 3zm1 41V12h-2v32h2z" mask="url(#)"/><rect width="242" height="242" x="686" y="4" stroke="#fff" stroke-width="8" rx="121"/><circle cx="807" cy="125" r="121" stroke="#FED650" stroke-dasharray="8 8" stroke-width="8"/><path fill="#BABABA" d="M682 125l10 5.774v-11.548L682 125zm125 0l-10-5.774v11.548L807 125zm-116 1h107v-2H691v2zM807 125l5.774-10h-11.548L807 125zm0-125l-5.774 10h11.548L807 0zm1 116V9h-2v107h2z"/></svg>