<svg xmlns="http://www.w3.org/2000/svg" fill="none" viewBox="0 0 219 218"><path fill="#CFBA86" d="M108.441 217.068c-.217-.549-1.154-3.221-2.083-5.938a6673.71 6673.71 0 0 0-5.102-14.816 5561.832 5561.832 0 0 1-10.405-30.339 4201.913 4201.913 0 0 0-4.396-12.877l-1.64-4.762.385-6.174c.212-3.395.614-8.793.892-11.994.662-7.608.658-9.042-.023-9.303-.296-.114-8.735-.208-18.753-.209l-18.214-.002.237 9.784c.404 16.775 1.288 45.826 1.598 52.534.28 6.048.35 6.505 1.241 8.026 1.541 2.629 4.328 3.69 10.616 4.041l3.881.217v4.586l-20.421.091c-14.79.066-20.554-.019-20.903-.308-.598-.497-.64-3.539-.057-4.123.253-.253 1.494-.425 3.087-.429 5.706-.013 9.953-1.628 11.392-4.331l.79-1.484.356-32.102c.196-17.657.302-33.095.237-34.308l-.12-2.205h-12.61L28.06 122c-.682 2.532-3.565 5.694-5.67 6.219-.538.134-1.292.855-1.902 1.82-2.881 4.553-8.133 5.046-11.685 1.096-.864-.962-1.572-1.945-1.572-2.184 0-.239-.598-.614-1.33-.833-1.712-.514-3.992-2.714-5.061-4.885-.707-1.436-.841-2.241-.841-5.059 0-2.876.13-3.63.921-5.316 1.107-2.36 3.14-4.427 4.869-4.952.902-.274 1.53-.816 2.189-1.884 1.819-2.954 4.567-4.195 7.906-3.569 1.412.265 4.124 2.522 4.95 4.119.317.614.903 1.049 1.626 1.208 1.71.375 4.638 3.489 5.379 5.718l.607 1.827 6.461-.008 6.462-.008.215-12.944c.119-7.119.292-14.64.384-16.715l.17-3.772-1.314-.109c-1.157-.096-1.303-.21-1.219-.964.052-.47.634-2.216 1.293-3.88 1.12-2.828 1.211-3.377 1.412-8.406.15-3.756.1-5.38-.167-5.38-.21 0-.292-.145-.182-.322.11-.178 0-.403-.244-.502-.268-.108-.2-.19.172-.206.553-.025.618-.534.647-5.055.017-2.765.072-5.662.12-6.438.05-.776.208-4.904.351-9.172.473-14.07.866-19.614 1.6-22.55 1.23-4.917 4.353-9.98 8.393-13.608C57.164 1.548 62.257-.137 68.947.009c5.128.112 5.396.141 6.755.747.696.31 1.63.68 2.075.82 2.95.937 8.318 5.43 10.179 8.52 3.315 5.507 3.98 6.87 4.18 8.56.118.988.33 1.797.472 1.797.143 0 .346.754.453 1.676.107.922.464 3.501.794 5.733.505 3.412.611 7.337.668 24.694l.068 20.638 1.9 3.833c1.822 3.675 1.872 3.853 1.232 4.321-.367.269-1.272.489-2.011.489h-1.344v16.668l.002 16.669 12.611-.011c6.936-.006 13.603-.046 14.816-.088l2.204-.077V81.837h-1.343c-.739 0-1.645-.22-2.014-.49-.643-.47-.593-.65 1.263-4.498l1.932-4.008-.042-20.738c-.023-11.406.093-20.821.258-20.923.164-.102.299-.863.299-1.692 0-2.128 1.215-8.606 2.07-11.041.396-1.128.8-2.504.896-3.058.097-.554.401-1.189.677-1.411.275-.222.671-.919.879-1.549.6-1.812 5.078-6.905 7.411-8.429 4.28-2.795 4.118-2.726 8.705-3.657 2.647-.538 9.687-.268 11.641.445.776.284 1.748.463 2.159.398.418-.065 1.025.19 1.377.58.347.382.762.696.922.696.755 0 4.508 2.783 6.441 4.777 1.987 2.05 2.686 3.196 5.42 8.894.303.63.671 1.822.819 2.646 1.633 9.124 1.678 9.945 1.918 35.304.171 17.936.232 19.436.84 20.637 1.134 2.243 2.496 6.38 2.282 6.936-.134.349-.676.533-1.566.533h-1.361l.136 3.97c.075 2.182.148 9.631.164 16.553l.028 12.585 20.896.037c11.492.021 21.025.168 21.185.328.159.159.241 1.305.183 2.547l-.107 2.257-2.557.103-2.558.104v5.057c0 5.862-.04 5.942-2.882 5.78l-1.88-.108-.177-2.822c-.166-2.652-.226-2.825-.996-2.864-.585-.029-1.078.35-1.723 1.323-.496.75-1.106 1.364-1.356 1.364-.249 0-.787-.54-1.195-1.199-.8-1.296-1.488-1.715-2.3-1.403-.376.144-.543.927-.618 2.899l-.102 2.702-1.902.108c-1.047.06-2.065-.053-2.262-.251-.218-.217-.334-2.395-.294-5.516l.065-5.157-9.621.159-9.622.158.076 8.954c.09 10.457.74 40.439 1.121 51.661.249 7.331.314 7.874 1.125 9.344 1.5 2.718 5.358 4.179 11.101 4.204 1.723.008 3.007.179 3.263.436.549.549.549 3.543 0 4.092-.611.611-40.522.611-41.134 0-.548-.549-.548-3.543 0-4.092.254-.254 1.494-.426 3.087-.43 3.3-.008 7.006-.768 8.938-1.833 1.779-.981 2.971-2.964 3.242-5.39.196-1.756 1.01-32.728 1.448-55.088.219-11.217.202-11.7-.429-11.857-.362-.09-8.8-.198-18.753-.238l-18.095-.075.194 1.701c.287 2.518 1.164 13.567 1.604 20.222l.385 5.821-3.393 9.878c-1.866 5.433-4.505 13.132-5.865 17.11-1.36 3.977-3.237 9.454-4.17 12.171-.934 2.716-2.676 7.796-3.871 11.289-5.374 15.708-6.577 19.002-6.988 19.138-.241.08-.616-.304-.834-.853Zm1.587-25.252c.12-.825.536-4.436.924-8.026 1.34-12.396 2.415-16.937 5.479-23.149 1.381-2.799 2.562-4.607 4.119-6.306l2.184-2.383.254-4.63c.427-7.775 1.054-26.05.9-26.205-.08-.08-6.763-.192-14.849-.248l-14.704-.103.211 6.377c.117 3.507.362 9.234.546 12.726.184 3.493.334 7.525.334 8.96v2.61l2.919 3.035c2.065 2.147 3.341 3.859 4.365 5.856 3.125 6.093 4.14 10.968 5.246 25.2.308 3.964.641 7.338.739 7.496.475.768 1.132.171 1.333-1.21Zm-93.371-63.229c1.262-1.453 2.48-6.533 1.565-6.533-.164 0-.805.252-1.423.561-1.124.561-3.545.545-5.775-.037-.95-.248-.97-.221-.962 1.287.01 1.937 1.01 4.179 2.329 5.216 1.291 1.016 3.14.801 4.266-.494Zm7.294-7.246c.312-.78.567-2.285.567-3.344 0-2.059-.874-4.764-1.538-4.761-.221.001-.659 1.073-.973 2.382-.525 2.191-.525 2.567 0 4.758.314 1.308.752 2.38.973 2.381.222.001.659-.636.97-1.416Zm-17.599-.434c.59-3.255.089-7.776-.84-7.597-.983.19-1.62 2.053-1.6 4.687.02 2.874.543 4.41 1.5 4.41.509 0 .734-.359.94-1.5Zm9.017-2.04c1.755-.939-.198-2.556-2.124-1.758-1.268.525-1.393 1.312-.28 1.759 1.072.431 1.597.43 2.404-.001Zm72.065-6.25c.123-1.504.33-8.954.46-16.557l.237-13.824-1.556-.111c-.908-.065-1.525-.276-1.482-.507.944-5.105.767-7.656-.8-11.532-1.35-3.338-2.965-5.29-5.7-6.887-4.038-2.359-8.413-3.233-12.784-2.555-7.104 1.102-11.261 4.168-13.473 9.936-.972 2.537-1.234 7.003-.54 9.23.598 1.917.448 2.118-1.558 2.09l-1.378-.018v15.632c0 8.598.099 16.128.22 16.735l.22 1.102h37.911l.223-2.734Zm81.493-13.74c.13-9.044.145-16.536.033-16.649-.113-.112-.684-.228-1.269-.258-.586-.03-1.194-.19-1.351-.358-.157-.167-.044-1.487.252-2.933 1.039-5.076-.375-10.117-3.77-13.44-1.76-1.724-4.93-3.51-6.229-3.51-.43 0-.836-.158-.9-.352-.065-.193-1.454-.519-3.086-.724-7.104-.89-14.446 2.047-17.427 6.971-1.903 3.144-2.464 5.547-2.279 9.761.087 1.964.223 3.808.303 4.1.11.399-.222.555-1.353.637l-1.5.109.009 8.005c.009 8.647.553 24.243.862 24.743.104.169 8.577.316 18.829.325l18.639.018.237-16.445Zm-150.56 13.211c-.277-2.087-1.219-4.446-2.05-5.132-.306-.252-1.086-.544-1.733-.65-2.244-.364-4.506 2.549-4.522 5.823-.008 1.503.016 1.535.962 1.308 2.434-.582 4.185-.612 5.381-.091 2.099.913 2.237.824 1.962-1.258Zm70.026-52.387c.012-2.668.1-8.957.195-13.976.279-14.68-.751-20.212-4.912-26.38-.839-1.244-5.602-5.13-7.038-5.744-2.684-1.145-4.443-1.437-8.552-1.418-4.77.023-7.156.569-10.145 2.322-1.683.987-3.406 2.421-2.91 2.421.112 0-.318.461-.956 1.025-1.524 1.348-3.613 5.508-4.534 9.03-.698 2.67-.736 3.647-.692 18.16.04 13.463.115 15.413.606 15.955.51.565.51.637-.018.84-.646.248-.82 2.262-.196 2.262.406 0 3.385-2.263 4.104-3.118.235-.28 1.267-.818 2.293-1.195l3.632-1.337c2.628-.968 7.626-1.529 11.462-1.286 3.88.246 7.307 1.153 10.362 2.743 2.184 1.137 5.63 3.525 6.037 4.186.123.198.452.36.731.36.417 0 .513-.872.53-4.85Zm43.544 3.794c1.371-1.431 5.518-3.872 8.181-4.815 3.377-1.196 7.088-1.666 11.379-1.44 2.1.111 4.511.386 5.359.61 3.743.99 4.424 1.23 5.422 1.915.582.4 1.137.677 1.234.617.097-.06.494.14.882.446 1.972 1.551 4.098 3.018 4.375 3.018.172 0 .399-.226.505-.503.143-.371.371-26.181.264-29.836-.008-.291-.031-1.35-.051-2.355-.022-1.14-.207-1.891-.492-2-.281-.108-.389-.53-.281-1.096.36-1.882-1.658-6.874-3.426-8.474-.395-.357-.717-.907-.717-1.224 0-1.4-5.065-4.59-9.279-5.84-2.317-.689-7.617-.683-10.314.01-8.516 2.188-14.224 10-14.787 20.237-.09 1.62-.249 3.032-.354 3.138-.262.261-.239 11.663.042 20.975.164 5.428.351 7.673.639 7.673.224 0 .862-.475 1.419-1.056Z"/></svg>
