<svg xmlns="http://www.w3.org/2000/svg" viewBox="0 0 225 217.5"><path fill="#fff" d="M57 210.1c-54-15.3-73-49.6-42.3-76.6 10.4-9.2 25.1-16.3 42.2-21.2-.5-6-.7-12.1-.6-18.2-.2-4.8 2.2-9.8 7.3-14.3 15.3-13.5 49.7-18.2 76.7-10.5 18.8 5.3 29.1 15.3 28.4 25.4v1.8c0 1.5 2.7 2.4 4.2 1.5 1.6-.9 3.2-1.7 5-2.3 13.4-4.8 26.3 1.7 28.7 14.5 1.1 5.9-.2 12.3-3.4 17.8 25.4 17.3 29.7 41.1 7.1 61-30.6 27-99.3 36.5-153.3 21.1zm138.6-97.8c-1-5.2-6-8.8-13.9-6-4 1.4-7.3 4.1-9.5 7.3 8 2.4 15.1 5.4 21.3 8.6 1.9-3.3 2.6-6.9 2.1-9.9z"/><path fill="#e9ddd7" d="M60.5 197.5c-25.5-7.2-39.7-18.2-44.9-27.7-4.2-7.5-3.7-16.4 7.7-26.5 8.4-7.3 20.6-13.4 35-17.7 1.9 13.9 5.2 27.1 9.6 38.7 1.9 6.7 9.7 12.9 22.4 16.5 21.6 6.1 49.1 2.3 61.3-8.5 3-2.6 4.8-5.4 5.5-8.2 1.6-4 3-8.3 4.3-12.9.7-2.5 1.4-5.1 2-7.7.4-1.5 3.8-2.5 5.3-1.8 5.2 2.3 11.5 2.6 17.9.3 2.9-1 5.5-2.4 7.8-4.1 7.5 4.8 12.4 10 15 14.7 4.2 7.5 3.7 16.4-7.7 26.6-26.2 23-89.8 32.9-141.2 18.3zm108.7-71.1c4.9 1.6 9.4 3.3 13.5 5.1-7.4 2.6-12.2-.5-13.5-5.1z"/><path fill="#201816" d="M87.8 107.4c-12.2-3.5-17.9-8.5-19.7-11.6-1.2-2.3-.8-4.2 2.9-7.5 11.5-10.1 41.5-15.2 66.2-8.2 12.2 3.5 17.9 8.5 19.7 11.6 1.2 2.2.8 4.2-2.9 7.5-11.5 10.1-41.5 15.2-66.2 8.2z"/><path fill="#6e4228" d="M89.4 157.9c2.6-.7 5.3-1.5 8-2.5 1.8 3.4 3.3 6.3 6.6 7 3.2.6 5.1-.5 5-5.8l-.3-36.2c3.6.4 7 .6 10.4.6-.2 12.2-.5 24.3-.7 36.5-.3 11-5.6 16.3-13.7 14.4-7.4-1.7-12.4-8-15.3-14m33.8 4.7c2.4-1.8 4.9-3.8 7.3-5.9 1.8 3.4 4 5.7 8.2 4.4 3.5-1.1 5.9-4.3 6.1-7.2.2-3.6-2-3.8-5.8-4.8l-2.1-.6c-6.1-1.7-10.3-5.6-10-14.2.2-8.1 6-14.4 14.1-16.1 5.7-1.3 9.5-.3 11.9 4.4-2.4 2.6-4.7 5.2-7.1 7.6-1.3-2.7-2.8-3.5-5.4-2.8-2.6.6-4.4 2.8-4.5 5.4-.2 3.2 1.4 4.2 5.1 5.1.7.2 1.4.4 2.1.5 7.1 1.5 10.8 2.9 10.2 11.3-.6 9-7 17.9-15 20.7-7.8 2.6-12.7-1.8-15.1-7.8"/><path fill="#956f5a" d="M100.4 38.6c-1.4.1-2.4.3-3.1.6-.6.4-1.2.9-1.7 1.7-.5.8-.8 1.8-1 2.9-.2.9-.2 2.4-.2 4.6 0 3.5-.2 6-.5 7.4-.4 1.4-.9 2.6-1.8 3.4-.9.9-2.1 1.5-3.8 2-1.1.4-2.9.5-5.3.5h-1.4v-6.6c1.9 0 3.2-.1 3.8-.3.6-.3 1.1-.6 1.4-1.1.2-.5.4-1.3.4-2.4 0-1.1.1-3.2.2-6.4.1-1.9.4-3.4.8-4.5.4-1.2.9-2.2 1.6-3 .6-.8 1.5-1.5 2.5-2.1-1.3-.8-2.3-1.7-2.9-2.5-.9-1.2-1.5-2.8-1.8-4.7-.2-1.2-.3-4.1-.4-8.4 0-1.4-.2-2.3-.4-2.8-.2-.4-.6-.8-1.2-1-.6-.3-2-.4-4-.4V8.9H83c2.5 0 4.4.2 5.7.6 1.3.4 2.4 1.1 3.3 2 .9.9 1.5 2 1.9 3.4.3 1.3.5 3.5.5 6.4 0 3.3.1 5.5.4 6.5.4 1.5 1 2.5 1.8 3.2.8.6 2.1 1 3.8 1v6.6zm21.9-8.9c-1.4.1-2.4.3-3.1.6-.6.3-1.2.9-1.7 1.7-.5.8-.8 1.7-1 2.9-.2.9-.3 2.4-.3 4.6 0 3.5-.1 6-.4 7.4-.4 1.4-1 2.5-1.8 3.4-.9.8-2.1 1.5-3.8 2-1.1.3-2.9.5-5.3.5h-1.4v-6.6c1.9 0 3.2-.1 3.8-.4.6-.2 1.1-.6 1.3-1 .3-.5.5-1.3.5-2.4 0-1.1.1-3.3.2-6.4.1-1.9.4-3.4.8-4.6.4-1.1.9-2.1 1.6-2.9.6-.8 1.5-1.5 2.5-2.1-1.3-.9-2.3-1.7-2.9-2.6-.9-1.2-1.5-2.7-1.8-4.6-.2-1.3-.3-4.1-.4-8.4 0-1.4-.2-2.3-.4-2.8-.2-.4-.6-.8-1.2-1-.6-.3-2-.4-4-.4V0h1.4c2.5 0 4.4.2 5.7.6 1.3.4 2.4 1 3.3 2 .9.9 1.5 2 1.9 3.4.3 1.3.4 3.4.4 6.3 0 3.4.2 5.6.5 6.6.4 1.5 1 2.5 1.8 3.1.8.7 2.1 1 3.8 1.1v6.6zm21.8 8.9c-1.3.1-2.3.3-3 .6-.7.4-1.2.9-1.7 1.7-.5.8-.8 1.8-1 2.9-.2.9-.3 2.4-.3 4.6 0 3.5-.1 6-.5 7.4-.3 1.4-.9 2.6-1.7 3.4-.9.9-2.1 1.5-3.8 2-1.1.4-2.9.5-5.3.5h-1.4v-6.6c1.9 0 3.2-.1 3.8-.3.6-.3 1.1-.6 1.3-1.1.3-.5.5-1.3.5-2.4 0-1.1.1-3.2.2-6.4.1-1.9.3-3.4.8-4.5.4-1.2.9-2.2 1.6-3 .6-.8 1.5-1.5 2.5-2.1-1.3-.8-2.3-1.7-2.9-2.5-.9-1.2-1.5-2.8-1.8-4.7-.2-1.2-.3-4.1-.4-8.4-.1-1.4-.2-2.3-.4-2.8-.2-.4-.6-.8-1.2-1-.6-.3-2-.4-4-.4V8.9h1.4c2.5 0 4.4.2 5.7.6 1.3.4 2.4 1.1 3.3 2 .9.9 1.5 2 1.8 3.4.4 1.3.5 3.5.5 6.4 0 3.3.2 5.5.4 6.5.4 1.5 1.1 2.5 1.9 3.2.8.6 2.1 1 3.7 1v6.6z"/></svg>