<svg xmlns="http://www.w3.org/2000/svg" viewBox="0 0 350 240"><defs><linearGradient id="b" x1="0" x2="1" y1="0" y2="0" gradientTransform="scale(1086.057 -1086.057) rotate(36.695 3.333 .531)" gradientUnits="userSpaceOnUse" spreadMethod="pad"><stop offset="0" stop-color="#8c9bd6"/><stop offset="1" stop-color="#505e9b"/></linearGradient><linearGradient id="d" x1="0" x2="1" y1="0" y2="0" gradientTransform="scale(1095.087 -1095.087) rotate(36.695 4.593 .97)" gradientUnits="userSpaceOnUse" spreadMethod="pad"><stop offset="0" stop-color="#808fd0"/><stop offset="1" stop-color="#505e9b"/></linearGradient><linearGradient id="f" x1="0" x2="1" y1="0" y2="0" gradientTransform="scale(1081.295 -1081.295) rotate(36.695 2.45 .222)" gradientUnits="userSpaceOnUse" spreadMethod="pad"><stop offset="0" stop-color="#8c9bd6"/><stop offset="1" stop-color="#505e9b"/></linearGradient><linearGradient id="h" x1="0" x2="1" y1="0" y2="0" gradientTransform="scale(1081.284 -1081.284) rotate(36.695 3.184 .483)" gradientUnits="userSpaceOnUse" spreadMethod="pad"><stop offset="0" stop-color="#8c9bd6"/><stop offset="1" stop-color="#505e9b"/></linearGradient><linearGradient id="j" x1="0" x2="1" y1="0" y2="0" gradientTransform="scale(1049.603 -1049.603) rotate(36.695 3.41 .526)" gradientUnits="userSpaceOnUse" spreadMethod="pad"><stop offset="0" stop-color="#808fd0"/><stop offset="1" stop-color="#505e9b"/></linearGradient><linearGradient id="l" x1="0" x2="1" y1="0" y2="0" gradientTransform="scale(1091.548 -1091.548) rotate(36.695 2.927 .401)" gradientUnits="userSpaceOnUse" spreadMethod="pad"><stop offset="0" stop-color="#8c9bd6"/><stop offset="1" stop-color="#505e9b"/></linearGradient><linearGradient id="n" x1="0" x2="1" y1="0" y2="0" gradientTransform="scale(1024.277 -1024.277) rotate(55.545 1.742 -1.277)" gradientUnits="userSpaceOnUse" spreadMethod="pad"><stop offset="0" stop-color="#fafafd"/><stop offset="1" stop-color="#8892d2"/></linearGradient><linearGradient id="p" x1="0" x2="1" y1="0" y2="0" gradientTransform="scale(1193.517 -1193.517) rotate(55.545 2.45 -.63)" gradientUnits="userSpaceOnUse" spreadMethod="pad"><stop offset="0" stop-color="#fafafd"/><stop offset="1" stop-color="#8892d2"/></linearGradient><linearGradient id="r" x1="0" x2="1" y1="0" y2="0" gradientTransform="scale(1080.732 -1080.732) rotate(36.695 2.416 .212)" gradientUnits="userSpaceOnUse" spreadMethod="pad"><stop offset="0" stop-color="#8c9bd6"/><stop offset="1" stop-color="#505e9b"/></linearGradient><linearGradient id="t" x1="0" x2="1" y1="0" y2="0" gradientTransform="scale(1084.489 -1084.489) rotate(36.695 3.303 .52)" gradientUnits="userSpaceOnUse" spreadMethod="pad"><stop offset="0" stop-color="#8c9bd6"/><stop offset="1" stop-color="#505e9b"/></linearGradient><linearGradient id="v" x1="0" x2="1" y1="0" y2="0" gradientTransform="scale(1082.824 -1082.824) rotate(36.695 3.426 .562)" gradientUnits="userSpaceOnUse" spreadMethod="pad"><stop offset="0" stop-color="#8c9bd6"/><stop offset="1" stop-color="#505e9b"/></linearGradient><linearGradient id="x" x1="0" x2="1" y1="0" y2="0" gradientTransform="scale(1219.787 -1219.787) rotate(55.545 2.383 -.625)" gradientUnits="userSpaceOnUse" spreadMethod="pad"><stop offset="0" stop-color="#fafafd"/><stop offset="1" stop-color="#8892d2"/></linearGradient><clipPath id="a" clipPathUnits="userSpaceOnUse"><path d="M366.672 2445.95s127.719 141.37 216.176 199.96c28.183 18.65 237.797 128.95 372.402-250.67 73.64-207.85 74.87-362.68-92.516-428.71-100.234-39.55-64.41-113.59-64.41-113.59"/></clipPath><clipPath id="c" clipPathUnits="userSpaceOnUse"><path d="M2084.18 2364.09h268.24c22.51 0 40.74-14.93 40.74-33.29 0-18.37-18.23-33.27-40.74-33.27h-210.54z"/></clipPath><clipPath id="e" clipPathUnits="userSpaceOnUse"><path d="M1150.12 1702.08v-535.82c0-132.12-131.1-179.471-292.784-179.471-161.711 0-292.746 47.351-292.746 179.471v542.14"/></clipPath><clipPath id="g" clipPathUnits="userSpaceOnUse"><path d="M2045.81 1695.54v-535.81c0-132.14-131.09-179.468-292.78-179.468-161.7 0-292.79 47.328-292.79 179.468v542.13"/></clipPath><clipPath id="i" clipPathUnits="userSpaceOnUse"><path d="M903.801 2433.88c114.029-185.4 101.879-342.02-50.055-424.12-90.965-49.18-40.887-114.04-40.887-114.04"/></clipPath><clipPath id="k" clipPathUnits="userSpaceOnUse"><path d="M1569.91 2565.32s-189.32 2.23-881.043-20.69c-691.683-22.91-666.156-270.94-667.23-627.14v-856.76c0-72.468 62.793-101.699 140.273-101.699 77.469 0 140.356 29.231 140.356 101.699 0 0 17.863 244.81 33.285 393.73 34.5 541.01 687.579-88.96 1162.329-59.56 431.41 26.74 771.15 175.65 771.15 529.54 0 353.97-222.65 640.88-699.12 640.88z"/></clipPath><clipPath id="m" clipPathUnits="userSpaceOnUse"><path d="M40.508 1894c.738-80.46-10.578-783.24 33.808-825.44-13.945 31.12 16.563 711.97 16.172 754.76l-.41 25.04v35.37c-17.11 6.32-33.715 14.09-49.746 22.98z"/></clipPath><clipPath id="o" clipPathUnits="userSpaceOnUse"><path d="M1569.65 2541.75s-185.21 2.18-862.005-20.24c-676.766-22.42-666.38-271.78-666.38-607.02l.141-12.4c15.664-8.89 31.899-16.66 48.559-22.99.156 317.27 13.648 550.06 666.406 571.68 676.769 22.42 862.039 20.24 862.039 20.24 258.82 0 437-87.38 547.94-223.71-102.14 176.42-295.52 294.44-596.7 294.44z"/></clipPath><clipPath id="q" clipPathUnits="userSpaceOnUse"><path d="M1333.93 1456.26v-381.58c0-132.121-131.13-179.571-292.82-179.571-161.696 0-292.755 47.45-292.755 179.571v580.79"/></clipPath><clipPath id="s" clipPathUnits="userSpaceOnUse"><path d="M2229.92 1718.48V1089.6c0-132.112-131.12-179.53-292.81-179.53-161.71 0-292.75 47.418-292.75 179.53v361.33"/></clipPath><clipPath id="u" clipPathUnits="userSpaceOnUse"><path d="M571.879 2500.55s171.527 117.93 279.867 158.35c34.531 12.89 283.674 78.71 324.064-351.49 22.08-235.55-17.68-398.24-210.83-427.71-115.589-17.66-97.691-103.81-97.691-103.81"/></clipPath><clipPath id="w" clipPathUnits="userSpaceOnUse"><path d="M747.344 2531.75c194.211 121.45 302.026 59.35 302.026 59.35-84.444 77.21-179.436 51.62-200.444 43.74-107.969-40.42-316.485-189.8-316.485-189.8s-28.195-50.01 27.989-39.16c0 0 122.211 85.38 186.914 125.87z"/></clipPath></defs><g clip-path="url(#a)" transform="matrix(.13282 0 0 -.13174 0 355.179)"><path fill="url(#b)" d="M366.672 2445.95s127.719 141.37 216.176 199.96c28.183 18.65 237.797 128.95 372.402-250.67 73.64-207.85 74.87-362.68-92.516-428.71-100.234-39.55-64.41-113.59-64.41-113.59"/></g><path fill="#363254" d="M75.791 4.327c-11.918 7.83-28.557 26.035-29.259 26.805a2.67 2.67 0 00.28 3.881c1.195.995 3.01.88 4.053-.266.169-.186 16.867-18.456 28.18-25.885.338-.227 8.591-5.523 18.642-2.336 10.57 3.353 19.727 15.106 26.473 33.983 10.74 30.058 7.554 45.926-10.653 53.045-5.253 2.06-8.711 5.037-10.275 8.867-2.065 5.051.11 9.614.204 9.809.664 1.368 2.351 1.95 3.784 1.322 1.437-.62 2.075-2.245 1.434-3.624-.01-.026-1.239-2.732-.042-5.568.984-2.34 3.362-4.267 7.07-5.713 27.467-10.752 21.863-37.669 13.914-59.92-7.456-20.86-17.582-33.446-30.098-37.42-12.511-3.969-22.6 2.297-23.706 3.02"/><g clip-path="url(#c)" transform="matrix(.13282 0 0 -.13174 0 355.179)"><path fill="url(#d)" d="M2084.18 2364.09h268.24c22.51 0 40.74-14.93 40.74-33.29 0-18.37-18.23-33.27-40.74-33.27h-210.54l-57.7 66.56"/></g><path fill="#363254" d="M312.46 46.472c1.495 0 2.535.864 2.535 1.638 0 .772-1.04 1.636-2.536 1.636h-26.622c-.572-.65-1.429-1.64-2.858-3.274h29.48zm-41.775-5.496l12.467 14.268h29.307c4.57 0 8.285-3.2 8.285-7.134 0-3.935-3.714-7.134-8.285-7.134h-41.774"/><path fill="#8b9dd7" d="M323.485 33.53c4.899-2.315 10.624-1.749 12.8 1.263 2.167 3.02-.045 7.332-4.942 9.656-4.89 2.312-17.707 5.109-19.88 2.085-2.175-3.012 7.132-10.691 12.022-13.004"/><path fill="#363254" d="M324.755 35.993c3.8-1.794 7.972-1.288 9.162.362.331.463.408.994.235 1.629-.306 1.146-1.543 2.798-4.087 4.004-4.723 2.231-13.11 3.54-15.702 2.908.956-2.13 6.203-6.919 10.392-8.903zm-2.542-4.926c-4.097 1.933-12.427 8.095-13.745 12.965l.632 4.062c3.936 5.483 19.814.57 23.516-1.183 3.687-1.746 6.274-4.497 7.1-7.548.591-2.175.213-4.35-1.066-6.127-3-4.158-10.216-5.11-16.437-2.169"/><path fill="#8b9dd7" d="M332.188 51.323c5.252 1.739 8.177 5.766 6.556 9-1.635 3.236-7.207 4.438-12.455 2.694-5.24-1.736-15.78-8.278-14.152-11.507 1.633-3.244 14.81-1.926 20.05-.187"/><path fill="#363254" d="M333.132 48.729h-.005zm-1.886 5.19h.003c2.821.939 4.366 2.5 4.867 3.651.381.88.123 1.397.036 1.565-.864 1.716-4.868 2.63-8.92 1.285-4.632-1.532-10.86-5.85-12.032-7.836 2.173-.722 10.98-.348 16.046 1.334zm-21.697-3.601l.003 3.988c2.023 4.66 11.358 9.84 15.798 11.311 6.679 2.22 13.703.42 15.98-4.093a6.873 6.873 0 00.727-3.078c0-.998-.212-2.007-.64-2.996-1.287-2.957-4.308-5.404-8.29-6.721-3.973-1.321-20.576-4.375-23.577 1.589"/><path fill="#8b9dd7" d="M332.956 41.36c7.792-.051 14.14 2.734 14.17 6.227.038 3.49-6.243 6.36-14.04 6.41-7.781.053-25.415-2.652-25.45-6.14-.037-3.497 17.537-6.44 25.32-6.498"/><path fill="#363254" d="M344.252 47.613c0 .133-.125.393-.474.733-1.408 1.374-5.366 2.868-10.71 2.902-6.682.045-17.252-1.754-21.32-3.423 4.039-1.731 14.557-3.672 21.23-3.716h-.003c7.38-.05 11.27 2.58 11.277 3.504zm-11.314-9.005h-.004c-5.66.041-22.472 2.019-26.785 6.21l-1.385 3.066c.08 8.082 28.06 8.864 28.343 8.864 6.27-.043 11.932-1.784 14.771-4.546 1.408-1.37 2.14-2.971 2.122-4.643-.044-5.245-7.22-9.011-17.062-8.95"/><g clip-path="url(#e)" transform="matrix(.13282 0 0 -.13174 0 355.179)"><path fill="url(#f)" d="M1150.12 1702.08v-535.82c0-132.12-131.1-179.471-292.784-179.471-161.711 0-292.746 47.351-292.746 179.471v542.14"/></g><path fill="#363254" d="M72.119 130.107v71.424c0 17.023 14.825 26.394 41.756 26.394s41.762-9.371 41.762-26.394V130.94c0-1.52-1.287-2.751-2.873-2.751-1.587 0-2.873 1.232-2.873 2.75v70.592c0 17.272-19.582 20.895-36.016 20.895-16.427 0-36.01-3.623-36.01-20.895v-71.424c0-1.516-1.287-2.748-2.874-2.748-1.585 0-2.872 1.232-2.872 2.748"/><path fill="#8b9dd7" d="M92.034 201.447c0 7.041-4.115 12.766-9.194 12.766-5.08 0-9.197-5.725-9.197-12.766 0-7.055 4.117-22.983 9.197-22.983 5.079 0 9.194 15.928 9.194 22.983"/><path fill="#363254" d="M74.602 201.447c0-7.672 4.362-22.067 8.238-22.067 3.874 0 8.237 14.395 8.237 22.067 0 6.537-3.693 11.851-8.237 11.851-4.541 0-8.238-5.314-8.238-11.851zm-1.917 0c0 7.545 4.554 13.685 10.155 13.685 5.598 0 10.15-6.14 10.15-13.685 0-6.892-4.044-23.903-10.15-23.903-6.106 0-10.155 17.011-10.155 23.903"/><path fill="#a6bde6" d="M76.12 202.72c0-6.784 4.977-18.997 8.61-18.997.348 0 .69.173 1.018.435-.908-2.15-1.949-3.573-3.05-3.573-3.636 0-6.578 15.353-6.578 22.134"/><path fill="#8b9dd7" d="M96.37 208.229c0 5.44-3.271 9.853-7.31 9.853-4.043 0-7.32-4.412-7.32-9.853 0-5.457 3.277-17.746 7.32-17.746 4.039 0 7.31 12.289 7.31 17.746"/><path fill="#363254" d="M82.697 208.229c0-5.703 3.437-16.828 6.362-16.828 2.927 0 6.353 11.125 6.353 16.828 0 4.926-2.851 8.936-6.353 8.936-3.51 0-6.362-4.01-6.362-8.936zm-1.915 0c0 5.936 3.714 10.77 8.277 10.77 4.557 0 8.27-4.834 8.27-10.77 0-4.645-2.935-18.663-8.27-18.663-5.343 0-8.277 14.018-8.277 18.663"/><path fill="#a6bde6" d="M84.816 204.988c-.368-3.877 3.061-10.313 5.733-10.783.25-.033.507.026.763.133-.783-1.115-1.67-2.003-2.428-1.655-2.645 1.253-4.436 8.44-4.068 12.305"/><g clip-path="url(#g)" transform="matrix(.13282 0 0 -.13174 0 355.179)"><path fill="url(#h)" d="M2045.81 1695.54v-535.81c0-132.14-131.09-179.468-292.78-179.468-161.7 0-292.79 47.328-292.79 179.468v542.13"/></g><path fill="#363254" d="M191.082 130.969v71.422c0 17.019 14.832 26.394 41.764 26.394 12.121 0 21.841-1.899 28.893-5.64 8.417-4.469 12.868-11.644 12.868-20.754v-70.59c0-1.517-1.287-2.748-2.873-2.748-1.586 0-2.87 1.23-2.87 2.748v70.59c0 7.192-3.245 12.407-9.916 15.95-6.102 3.234-15.126 4.945-26.102 4.945-16.43 0-36.014-3.628-36.014-20.895V130.97c0-1.52-1.29-2.751-2.876-2.751-1.586 0-2.874 1.23-2.874 2.75"/><path fill="#7483ca" d="M211.003 202.306c0 7.041-4.114 12.775-9.192 12.775-5.087 0-9.2-5.734-9.2-12.775 0-7.051 4.113-22.98 9.2-22.98 5.078 0 9.192 15.929 9.192 22.98"/><path fill="#363254" d="M193.567 202.306c0-3.6 1.09-9.296 2.648-13.847 1.734-5.068 3.879-8.218 5.596-8.218 3.872 0 8.235 14.394 8.235 22.065 0 6.54-3.694 11.857-8.235 11.857-4.546 0-8.244-5.318-8.244-11.857zm.827-14.417c-1.615 4.712-2.743 10.643-2.743 14.417 0 7.547 4.558 13.69 10.16 13.69 5.597 0 10.15-6.143 10.15-13.69 0-6.892-4.045-23.896-10.15-23.896-3.45 0-5.937 5.151-7.417 9.479"/><path fill="#839ad6" d="M195.094 203.588c0-6.787 4.973-19.007 8.606-19.007.35 0 .69.178 1.019.436-.911-2.146-1.949-3.572-3.05-3.572-3.638 0-6.575 15.356-6.575 22.143"/><path fill="#7483ca" d="M215.342 209.087c0 5.448-3.27 9.85-7.313 9.85-4.04 0-7.315-4.402-7.315-9.85 0-5.456 3.275-17.744 7.315-17.744 4.043 0 7.313 12.288 7.313 17.744"/><path fill="#363254" d="M201.673 209.087c0-5.704 3.43-16.826 6.356-16.826 2.922 0 6.354 11.122 6.354 16.826 0 4.927-2.852 8.938-6.354 8.938-3.507 0-6.356-4.011-6.356-8.938zm-1.915 0c0 5.942 3.71 10.77 8.27 10.77 4.562 0 8.272-4.828 8.272-10.77 0-4.644-2.936-18.66-8.271-18.66-5.34 0-8.271 14.016-8.271 18.66"/><path fill="#839ad6" d="M203.789 205.848c-.373-3.873 3.058-10.307 5.73-10.78.252-.035.51.022.762.13-.782-1.115-1.668-2.004-2.428-1.655-2.646 1.253-4.437 8.44-4.064 12.305"/><g clip-path="url(#i)" transform="matrix(.13282 0 0 -.13174 0 355.179)"><path fill="url(#j)" d="M903.801 2433.88c114.029-185.4 101.879-342.02-50.055-424.12-90.965-49.18-40.887-114.04-40.887-114.04"/></g><path fill="#080604" d="M118.582 32.163c-1.367.776-1.82 2.464-1.007 3.77 8.432 13.589 11.449 25.897 8.73 35.584-1.932 6.886-6.752 12.434-14.308 16.49-4.777 2.559-7.626 5.786-8.473 9.588-1.153 5.167 2.006 9.303 2.142 9.475.942 1.211 2.72 1.456 3.995.567 1.272-.89 1.55-2.607.628-3.832-.014-.024-1.766-2.402-1.134-5.113.506-2.169 2.407-4.15 5.647-5.888 8.965-4.809 14.705-11.487 17.055-19.863 3.127-11.152-.098-24.92-9.34-39.816-.808-1.307-2.575-1.735-3.935-.962"/><g clip-path="url(#k)" transform="matrix(.13282 0 0 -.13174 0 355.179)"><path fill="url(#l)" d="M1569.91 2565.32s-189.32 2.23-881.043-20.69c-691.683-22.91-666.156-270.94-667.23-627.14v-856.76c0-72.468 62.793-101.699 140.273-101.699 77.469 0 140.356 29.231 140.356 101.699 0 0 17.863 244.81 33.285 393.73 34.5 541.01 687.579-88.96 1162.329-59.56 431.41 26.74 771.15 175.65 771.15 529.54 0 353.97-222.65 640.88-699.12 640.88"/></g><path fill="#363254" d="M5.747 215.434V102.56l.007-4.973c.016-43.408.028-72.084 85.841-74.904 90.687-2.977 116.64-2.727 116.893-2.725h.035c28.893 0 52.438 8.26 68.087 23.885 14.328 14.3 21.9 34.286 21.9 57.801 0 50.324-54.239 64.223-99.738 67.021-23.947 1.468-52.193-10.276-77.115-20.64-27.936-11.615-52.061-21.644-66.914-12.938-7.846 4.598-12.11 13.857-13.04 28.306-2.018 19.327-4.398 51.52-4.42 51.848-.007 9.456-9.888 10.842-15.777 10.842-5.884 0-15.76-1.386-15.76-10.65zm85.655-198.24C.036 20.193.02 52.653.007 97.583L0 102.553v112.88c0 10.111 8.04 16.154 21.506 16.154 13.477 0 21.516-6.043 21.516-16.153.017-.133 2.386-32.248 4.408-51.6.814-12.63 4.186-20.463 10.313-24.058 12.309-7.21 36.256 2.748 61.623 13.294 25.52 10.61 54.44 22.64 79.774 21.082 67.786-4.17 105.116-29.92 105.116-72.507 0-24.957-8.126-46.26-23.497-61.607-16.758-16.73-41.738-25.576-72.236-25.576h.034c-.25-.003-26.267-.262-117.155 2.731"/><g clip-path="url(#m)" transform="matrix(.13282 0 0 -.13174 0 355.179)"><path fill="url(#n)" d="M40.508 1894c.738-80.46-10.578-783.24 33.808-825.44-13.945 31.12 16.563 711.97 16.172 754.76l-.41 25.04v35.37c-17.11 6.32-33.715 14.09-49.746 22.98l.176-12.71"/></g><g clip-path="url(#o)" transform="matrix(.13282 0 0 -.13174 0 355.179)"><path fill="url(#p)" d="M1569.65 2541.75s-185.21 2.18-862.005-20.24c-676.766-22.42-666.38-271.78-666.38-607.02l.141-12.4c15.664-8.89 31.899-16.66 48.559-22.99.156 317.27 13.648 550.06 666.406 571.68 676.769 22.42 862.039 20.24 862.039 20.24 258.82 0 437-87.38 547.94-223.71-102.14 176.42-295.52 294.44-596.7 294.44"/></g><g clip-path="url(#q)" transform="matrix(.13282 0 0 -.13174 0 355.179)"><path fill="url(#r)" d="M1333.93 1456.26v-381.58c0-132.121-131.13-179.571-292.82-179.571-161.696 0-292.755 47.45-292.755 179.571v580.79"/></g><path fill="#363254" d="M96.527 137.08v76.516c0 17.028 14.833 26.404 41.758 26.404 26.933 0 41.768-9.376 41.768-26.404v-50.27c0-1.519-1.29-2.75-2.874-2.75-1.585 0-2.873 1.231-2.873 2.75v50.27c0 17.28-19.587 20.907-36.02 20.907-16.427 0-36.013-3.626-36.013-20.907V137.08c0-1.517-1.287-2.748-2.873-2.748-1.587 0-2.873 1.23-2.873 2.748"/><path fill="#8b9dd7" d="M123.863 218.472c0 6.548-5.491 11.858-12.272 11.858-6.78 0-12.272-5.31-12.272-11.858 0-6.556 5.493-21.353 12.272-21.353 6.78 0 12.272 14.797 12.272 21.353"/><path fill="#363254" d="M100.277 218.472c0-6.383 5.47-20.44 11.314-20.44 5.845 0 11.315 14.057 11.315 20.44 0 6.036-5.072 10.943-11.315 10.943-6.235 0-11.314-4.907-11.314-10.943zm-1.917 0c0 7.043 5.935 12.775 13.231 12.775 7.297 0 13.232-5.732 13.232-12.775 0-6.641-5.584-22.275-13.232-22.275-7.64 0-13.231 15.634-13.231 22.275"/><path fill="#a6bde6" d="M101.414 219.256c0-5.864 6.871-16.398 11.898-16.398.48 0 .944.15 1.409.38-1.267-1.853-2.696-3.086-4.214-3.086-5.03 0-9.093 13.248-9.093 19.104"/><path fill="#8b9dd7" d="M133.86 219.4c0 8.636-5.687 15.663-12.704 15.663-7.027 0-12.714-7.027-12.714-15.664 0-8.647 5.687-28.176 12.714-28.176 7.017 0 12.705 19.529 12.705 28.176"/><path fill="#363254" d="M109.398 219.4c0-8.518 5.688-27.262 11.758-27.262 6.07 0 11.748 18.744 11.748 27.261 0 8.129-5.269 14.745-11.748 14.745-6.48 0-11.758-6.616-11.758-14.745zm-1.915 0c0 9.14 6.135 16.58 13.673 16.58 7.536 0 13.664-7.44 13.664-16.58 0-8.681-5.77-29.091-13.664-29.091-7.896 0-13.673 20.41-13.673 29.09"/><path fill="#a6bde6" d="M111.868 220.966c0-8.328 6.878-23.294 11.9-23.294.478 0 .95.216 1.406.535-1.257-2.643-2.696-4.384-4.213-4.384-5.03 0-9.093 18.827-9.093 27.143"/><path fill="#8b9dd7" d="M140.53 224.05c0 6.114-4.094 11.07-9.146 11.07-5.05 0-9.144-4.956-9.144-11.07 0-6.143 4.094-19.96 9.144-19.96 5.052 0 9.146 13.817 9.146 19.96"/><path fill="#363254" d="M123.198 224.05c0-6.621 4.342-19.045 8.186-19.045 3.854 0 8.188 12.424 8.188 19.045 0 5.602-3.67 10.15-8.188 10.15-4.513 0-8.186-4.548-8.186-10.15zm-1.916 0c0 6.61 4.536 11.986 10.102 11.986 5.577 0 10.102-5.376 10.102-11.986 0-6.02-4.024-20.876-10.102-20.876-6.074 0-10.102 14.857-10.102 20.876"/><path fill="#a6bde6" d="M126.086 220.4c-.463-4.367 3.823-11.605 7.162-12.128.315-.05.635.024.958.144-.98-1.258-2.088-2.256-3.037-1.859-3.31 1.41-5.546 9.49-5.083 13.842"/><g clip-path="url(#s)" transform="matrix(.13282 0 0 -.13174 0 355.179)"><path fill="url(#t)" d="M2229.92 1718.48V1089.6c0-132.112-131.12-179.53-292.81-179.53-161.71 0-292.75 47.418-292.75 179.53v361.33"/></g><path fill="#363254" d="M293.311 128.78v82.85c0 17.279-19.586 20.903-36.015 20.903-16.425 0-36.01-3.624-36.01-20.903v-47.603c0-1.517-1.287-2.75-2.874-2.75-1.586 0-2.873 1.233-2.873 2.75v47.603c0 17.026 14.83 26.405 41.757 26.405 26.93 0 41.763-9.38 41.763-26.405v-82.85c0-1.52-1.285-2.748-2.87-2.748-1.59 0-2.878 1.228-2.878 2.747"/><path fill="#8b9dd7" d="M242.875 216.505c0 6.544-5.493 11.853-12.273 11.853-6.78 0-12.271-5.31-12.271-11.853 0-6.556 5.492-21.356 12.271-21.356 6.78 0 12.273 14.8 12.273 21.356"/><path fill="#363254" d="M219.29 216.505c0-6.386 5.468-20.436 11.312-20.436 5.847 0 11.317 14.05 11.317 20.436 0 6.031-5.078 10.941-11.317 10.941-6.237 0-11.312-4.91-11.312-10.941zm-1.917 0c0 7.043 5.933 12.774 13.23 12.774 7.295 0 13.23-5.731 13.23-12.774 0-6.643-5.585-22.271-13.23-22.271-7.644 0-13.23 15.628-13.23 22.271"/><path fill="#a6bde6" d="M220.425 217.285c0-5.861 6.87-16.394 11.899-16.394.48 0 .943.149 1.408.375-1.265-1.852-2.694-3.084-4.214-3.084-5.028 0-9.093 13.25-9.093 19.103"/><path fill="#8b9dd7" d="M252.874 217.429c0 8.64-5.686 15.666-12.708 15.666-7.028 0-12.714-7.025-12.714-15.666 0-8.648 5.686-28.171 12.714-28.171 7.022 0 12.708 19.523 12.708 28.17"/><path fill="#363254" d="M228.41 217.429c0-8.518 5.683-27.257 11.756-27.257 6.071 0 11.75 18.74 11.75 27.257 0 8.13-5.273 14.75-11.75 14.75-6.485 0-11.757-6.62-11.757-14.75zm-1.916 0c0 9.142 6.132 16.58 13.672 16.58 7.535 0 13.665-7.438 13.665-16.58 0-8.677-5.769-29.092-13.665-29.092-7.9 0-13.672 20.415-13.672 29.092"/><path fill="#a6bde6" d="M230.88 218.999c0-8.326 6.877-23.292 11.897-23.292.48 0 .951.214 1.41.532-1.257-2.643-2.694-4.38-4.215-4.38-5.03 0-9.092 18.82-9.092 27.14"/><path fill="#8b9dd7" d="M259.54 222.08c0 6.117-4.093 11.072-9.143 11.072-5.05 0-9.145-4.955-9.145-11.072 0-6.14 4.095-19.961 9.145-19.961s9.142 13.82 9.142 19.961"/><path fill="#363254" d="M242.208 222.08c0-6.62 4.339-19.04 8.19-19.04 3.848 0 8.186 12.42 8.186 19.04 0 5.6-3.676 10.155-8.187 10.155-4.513 0-8.189-4.554-8.189-10.155zm-1.915 0c0 6.613 4.53 11.986 10.104 11.986 5.57 0 10.1-5.373 10.1-11.986 0-6.016-4.025-20.876-10.1-20.876-6.078 0-10.104 14.86-10.104 20.876"/><path fill="#a6bde6" d="M245.099 218.432c-.463-4.367 3.822-11.602 7.162-12.127.313-.048.635.02.957.144-.983-1.26-2.088-2.252-3.037-1.863-3.31 1.41-5.545 9.494-5.082 13.846"/><path fill="#363254" d="M27.238 56.53c-1.015 1.367-.657 3.247.806 4.203 1.457.956 3.465.614 4.479-.75 5.778-7.787 18.775-9.933 24.954-7.72 1.231.442 2.787.25 3.467-.44.68-.68.235-1.594-.999-2.035-8.46-3.033-25.057-3.582-32.707 6.741M52.282 90.76c-5.336 1.116-10.041-1.845-10.504-6.612-.461-4.774 3.494-9.545 8.832-10.671 5.342-1.12 10.046 1.834 10.512 6.61.458 4.774-3.496 9.543-8.84 10.674zm11.035-11.308c-.535-5.563-6.091-8.985-12.423-7.664-6.325 1.328-11.023 6.898-10.491 12.453.532 5.551 6.09 8.983 12.415 7.667 6.331-1.332 11.031-6.9 10.499-12.456"/><path fill="#fcfcfc" d="M60.784 80.473c.406 4.196-3.055 8.398-7.727 9.379-4.692.99-8.806-1.62-9.224-5.817-.402-4.196 3.058-8.395 7.733-9.376 4.687-.988 8.813 1.614 9.218 5.814"/><path fill="#363254" d="M60.1 80.515c-1.266-3.198-4.626-5.051-7.476-4.16-1.528.468-2.574 1.64-3.062 3.103l3.983 1.955-3.66 2.62c1.357 3.016 4.565 4.747 7.333 3.887 2.862-.901 4.146-4.21 2.882-7.405"/><path fill="#fff" d="M57.167 79.145c.709-.102 1.544.75 1.847 1.931.306 1.167-.023 2.205-.748 2.316-.717.107-1.55-.75-1.857-1.929-.298-1.166.038-2.201.758-2.318"/><path fill="#363254" d="M45.578 74.325c-4.995 3.824-6.574 9.377-3.2 12.524-.292-.124.345.685.075.535-5.313-2.922-6.201-11.599-1.31-16.704 4.2-4.387 16.8-7.64 16.707-5.948-.52 1.94-4.209 4.404-8.79 7.081-1.474.831-2.537 1.79-3.482 2.512M127.65 128.214c-.258 1.302.63 2.37 1.969 2.37h7.695c1.342 0 2.645-1.068 2.904-2.37l2.05-10.476c.257-1.304 1.557-2.37 2.9-2.37h8.328c4.75 0 8.658-.496 11.722-1.488 3.07-.986 5.855-2.65 8.37-4.98 2.1-1.918 3.809-4.035 5.11-6.355 1.302-2.312 2.232-4.868 2.776-7.664 1.331-6.782.022-11.827-3.004-15.858-3.8-5.045-13.498-5.313-13.498-5.313-1.325-.197-3.504-.366-4.844-.366h-19.295c-1.34 0-2.642 1.07-2.901 2.375zM157.8 82.378c4.778 0 7.956.876 9.549 2.624 1.588 1.748 1.97 4.752 1.14 9.003-.873 4.431-2.547 7.597-5.025 9.49-2.479 1.892-8.897 2.577-8.897 2.577a54.513 54.513 0 01-4.859.262h-2.77c-1.34 0-2.23-1.068-1.973-2.371l3.764-19.211c.255-1.305 1.561-2.374 2.899-2.374h6.172"/><path fill="none" stroke="#fff" stroke-width="5.333" d="M128.138 232.844c-.258 1.317.633 2.399 1.977 2.399h7.725c1.347 0 2.655-1.082 2.915-2.399l2.057-10.603c.259-1.32 1.564-2.398 2.912-2.398h8.36c4.768 0 8.69-.502 11.767-1.506 3.082-.998 5.877-2.681 8.401-5.04 2.11-1.941 3.824-4.084 5.13-6.432 1.307-2.34 2.24-4.926 2.787-7.756 1.336-6.864.022-11.97-3.016-16.049-3.814-5.107-13.549-5.377-13.549-5.377-1.33-.2-3.517-.371-4.863-.371h-19.369c-1.344 0-2.652 1.083-2.912 2.404zm30.267-46.39c4.796 0 7.987.887 9.586 2.657 1.594 1.769 1.977 4.809 1.144 9.112-.876 4.484-2.556 7.688-5.044 9.604-2.488 1.914-8.931 2.608-8.931 2.608-1.34.146-3.535.265-4.877.265H147.5c-1.344 0-2.238-1.081-1.98-2.4l3.779-19.443c.256-1.32 1.567-2.402 2.91-2.402z" transform="matrix(.99619 0 0 .98808 0 -101.855)"/><path fill="#363254" d="M193.597 60.5c.255-1.301 1.558-2.369 2.897-2.369h7.6c1.34 0 2.227 1.068 1.969 2.37l-2.05 10.476c-.257 1.305.635 2.367 1.972 2.367h6.233c1.339 0 3.526.115 4.857.25 0 0 9.09.106 12.04 3.38 2.404 2.667 3.448 6.34 2.386 11.756l-4.75 24.266c-.253 1.305-1.56 2.372-2.9 2.372h-7.794c-1.34 0-2.23-1.067-1.973-2.372l4.035-20.585c.255-1.303.542-3.454.64-4.782 0 0 .18-2.436-.802-3.48-.977-1.05-3.065-1.571-6.256-1.571h-7.528c-1.342 0-2.64 1.064-2.901 2.369l-5.49 28.05c-.256 1.304-1.56 2.37-2.9 2.37h-7.6c-1.34 0-2.226-1.066-1.97-2.37L193.596 60.5"/><path fill="none" stroke="#fff" stroke-width="5.333" d="M194.339 164.313c.256-1.317 1.564-2.397 2.908-2.397h7.628c1.346 0 2.236 1.08 1.977 2.397l-2.059 10.603c-.257 1.321.639 2.396 1.98 2.396h6.258c1.344 0 3.54.116 4.876.253 0 0 9.125.107 12.086 3.422 2.412 2.698 3.46 6.416 2.395 11.897l-4.768 24.559c-.255 1.32-1.567 2.4-2.912 2.4h-7.824c-1.345 0-2.237-1.08-1.98-2.4l4.05-20.834c.257-1.318.545-3.496.643-4.84 0 0 .18-2.465-.805-3.522-.981-1.062-3.077-1.59-6.28-1.59h-7.557c-1.347 0-2.651 1.078-2.912 2.398l-5.511 28.388c-.257 1.32-1.565 2.4-2.91 2.4h-7.63c-1.345 0-2.235-1.08-1.979-2.4z" transform="matrix(.99619 0 0 .98808 0 -101.855)"/><path fill="#363254" d="M232.142 128.214c-.258 1.302.63 2.37 1.972 2.37h7.695c1.336 0 2.646-1.068 2.9-2.37l2.05-10.476c.256-1.304 1.562-2.37 2.898-2.37h8.332c4.749 0 8.654-.496 11.726-1.488 3.062-.986 5.851-2.65 8.361-4.98 2.108-1.918 3.809-4.035 5.114-6.355 1.303-2.312 2.229-4.868 2.778-7.664 1.33-6.782.126-11.905-3.008-15.858-3.887-4.906-13.499-5.313-13.499-5.313-1.325-.197-3.505-.366-4.844-.366h-19.295c-1.338 0-2.645 1.07-2.898 2.375zm30.155-45.836c4.772 0 7.953.876 9.549 2.624 1.584 1.748 1.964 4.752 1.133 9.003-.872 4.431-2.539 7.597-5.021 9.49-2.483 1.892-8.9 2.577-8.9 2.577a54.27 54.27 0 01-4.858.262h-2.774c-1.341 0-2.223-1.068-1.97-2.371l3.762-19.211c.258-1.305 1.562-2.374 2.901-2.374h6.178"/><path fill="none" stroke="#fff" stroke-width="5.333" d="M233.03 232.844c-.258 1.317.634 2.399 1.98 2.399h7.725c1.341 0 2.656-1.082 2.91-2.399l2.059-10.603c.257-1.32 1.568-2.398 2.91-2.398h8.363c4.767 0 8.687-.502 11.771-1.506 3.073-.998 5.873-2.681 8.393-5.04 2.116-1.941 3.823-4.084 5.134-6.432 1.308-2.34 2.237-4.926 2.788-7.756 1.334-6.864.126-12.049-3.019-16.049-3.903-4.965-13.55-5.377-13.55-5.377-1.331-.2-3.52-.371-4.863-.371h-19.37c-1.342 0-2.654 1.083-2.909 2.404zm30.271-46.39c4.791 0 7.984.887 9.586 2.657 1.59 1.769 1.972 4.809 1.137 9.112-.875 4.484-2.548 7.688-5.04 9.604-2.492 1.914-8.935 2.608-8.935 2.608a54.038 54.038 0 01-4.876.265h-2.784c-1.346 0-2.232-1.081-1.977-2.4l3.776-19.443c.259-1.32 1.568-2.402 2.912-2.402z" transform="matrix(.99619 0 0 .98808 0 -101.855)"/><path fill="#363254" d="M127.65 128.214c-.258 1.302.63 2.37 1.969 2.37h7.695c1.342 0 2.645-1.068 2.904-2.37l2.05-10.476c.257-1.304 1.557-2.37 2.9-2.37h8.328c4.75 0 8.658-.496 11.722-1.488 3.07-.986 5.855-2.65 8.37-4.98 2.1-1.918 3.809-4.035 5.11-6.355 1.302-2.312 2.232-4.868 2.776-7.664 1.331-6.782.022-11.827-3.004-15.858-3.8-5.045-13.498-5.313-13.498-5.313-1.325-.197-3.504-.366-4.844-.366h-19.295c-1.34 0-2.642 1.07-2.901 2.375zM157.8 82.378c4.778 0 7.956.876 9.549 2.624 1.588 1.748 1.97 4.752 1.14 9.003-.873 4.431-2.547 7.597-5.025 9.49-2.479 1.892-8.897 2.577-8.897 2.577a54.513 54.513 0 01-4.859.262h-2.77c-1.34 0-2.23-1.068-1.973-2.371l3.764-19.211c.255-1.305 1.561-2.374 2.899-2.374h6.172M193.597 60.5c.255-1.301 1.558-2.369 2.897-2.369h7.6c1.34 0 2.227 1.068 1.969 2.37l-2.05 10.476c-.257 1.305.635 2.367 1.972 2.367h6.233c1.339 0 3.526.115 4.857.25 0 0 9.09.106 12.04 3.38 2.404 2.667 3.448 6.34 2.386 11.756l-4.75 24.266c-.253 1.305-1.56 2.372-2.9 2.372h-7.794c-1.34 0-2.23-1.067-1.973-2.372l4.035-20.585c.255-1.303.542-3.454.64-4.782 0 0 .18-2.436-.802-3.48-.977-1.05-3.065-1.571-6.256-1.571h-7.528c-1.342 0-2.64 1.064-2.901 2.369l-5.49 28.05c-.256 1.304-1.56 2.37-2.9 2.37h-7.6c-1.34 0-2.226-1.066-1.97-2.37L193.596 60.5M232.142 128.214c-.258 1.302.63 2.37 1.972 2.37h7.695c1.336 0 2.646-1.068 2.9-2.37l2.05-10.476c.256-1.304 1.562-2.37 2.898-2.37h8.332c4.749 0 8.654-.496 11.726-1.488 3.062-.986 5.851-2.65 8.361-4.98 2.108-1.918 3.809-4.035 5.114-6.355 1.303-2.312 2.229-4.868 2.778-7.664 1.33-6.782.126-11.905-3.008-15.858-3.887-4.906-13.499-5.313-13.499-5.313-1.325-.197-3.505-.366-4.844-.366h-19.295c-1.338 0-2.645 1.07-2.898 2.375zm30.155-45.836c4.772 0 7.953.876 9.549 2.624 1.584 1.748 1.964 4.752 1.133 9.003-.872 4.431-2.539 7.597-5.021 9.49-2.483 1.892-8.9 2.577-8.9 2.577a54.27 54.27 0 01-4.858.262h-2.774c-1.341 0-2.223-1.068-1.97-2.371l3.762-19.211c.258-1.305 1.562-2.374 2.901-2.374h6.178"/><g clip-path="url(#u)" transform="matrix(.13282 0 0 -.13174 0 355.179)"><path fill="url(#v)" d="M571.879 2500.55s171.527 117.93 279.867 158.35c34.531 12.89 283.674 78.71 324.064-351.49 22.08-235.55-17.68-398.24-210.83-427.71-115.589-17.66-97.691-103.81-97.691-103.81"/></g><path fill="#363254" d="M112.093 2.32C97.535 7.71 75.235 22.865 74.29 23.509c-1.29.88-1.591 2.598-.669 3.832.92 1.236 2.716 1.523 4.007.642.225-.149 22.656-15.394 36.536-20.535.435-.158 10.65-3.826 20.455 1.998 10.208 6.067 16.671 20.585 18.7 41.995 3.232 34.217-4.423 50.179-25.594 53.387-6.002.906-10.37 3.19-12.99 6.797-3.44 4.72-2.403 9.915-2.354 10.135.312 1.476 1.807 2.429 3.356 2.146 1.55-.282 2.567-1.722 2.283-3.207-.007-.026-.579-3.225 1.473-5.992 1.7-2.29 4.771-3.79 9.13-4.453 31.476-4.763 32.792-34.2 30.421-59.31-2.23-23.528-9.432-39.062-21.391-46.167-12.007-7.134-24.205-2.956-25.56-2.455"/><g clip-path="url(#w)" transform="matrix(.13282 0 0 -.13174 0 355.179)"><path fill="url(#x)" d="M747.344 2531.75c194.211 121.45 302.026 59.35 302.026 59.35-84.444 77.21-179.436 51.62-200.444 43.74-107.969-40.42-316.485-189.8-316.485-189.8s-28.195-50.01 27.989-39.16c0 0 122.211 85.38 186.914 125.87"/></g><path fill="#363254" d="M89.957 97.14c-.224 12.99-4.56 24.819-11.323 30.853-3.069 2.741-6.491 4.098-9.908 3.932-1.053-.056-1.951.72-2.012 1.73-.05 1.015.76 1.874 1.817 1.926 4.476.224 8.871-1.473 12.718-4.907 7.496-6.693 12.3-19.52 12.538-33.48.021-1.007-.82-1.843-1.88-1.86-1.06-.014-1.93.794-1.95 1.806"/><path fill="#363254" d="M98.255 87.863c-1.443 3.282-3.964 5.373-6.924 5.722-2.885.337-5.817-1.001-7.844-3.585-.632-.807-1.837-.973-2.682-.365-.846.606-1.018 1.755-.382 2.563 2.862 3.65 7.117 5.528 11.378 5.027 4.36-.521 7.996-3.416 9.988-7.944.408-.934-.054-2-1.025-2.396-.978-.392-2.096.047-2.51.978"/></svg>