<svg xmlns="http://www.w3.org/2000/svg" version="1.0" viewBox="0 0 256 284"><path d="M117 2c-3 .9-12.2 5.7-20.5 10.5-8.2 4.8-22.2 12.9-31 18-8.8 5-23.2 13.4-32 18.4C14.9 59.7 10.4 63.1 6.2 69.7.2 79.2 0 81.1 0 142.1c0 58.6.2 60.6 4.8 69.4 4.7 8.8 9.4 12.5 32.7 26 9.4 5.4 20.6 11.9 25 14.5 36.3 21.3 51 29.3 56.2 30.7 6.1 1.6 14.8 1.3 21.3-.6 4.4-1.3 93.7-52.9 100.7-58.2 6.7-5 11.2-11.7 13.5-19.8 1.6-6 1.8-11.6 1.8-62.7 0-53.6-.1-56.5-2-62.8-2.4-7.6-6.7-13.7-13-18.4-8.4-6.2-94.5-55.5-101-57.8-7.8-2.8-15.3-2.9-23-.4zm21.4 12.7c1.7.8 23.6 13.3 48.5 27.7 29.8 17.1 47 27.5 49.7 30.3 7.6 7.3 7.5 7 7.2 71.4-.3 55.5-.3 56.5-2.4 60.4-3 5.4-6.2 8.8-12.6 12.8-16.5 10.5-91.3 52.8-95.2 53.9-8.8 2.3-11.4 1.2-61.4-27.7-26.5-15.3-48.4-28.6-51.1-31.1-8.9-8-8.6-5.4-8.9-67.3-.2-37.1.1-56.1.8-59.7.6-3 2.6-7.5 4.3-10.1 2.9-4.2 6.1-6.3 32.2-21.5 56.9-33 69.6-40.1 72.8-40.9 4.2-1 12.2-.2 16.1 1.8z"/><path d="M124.4 55.4c-7.5 1.7-11.6 3.8-14.2 7.1-1.1 1.4-2.5 2.5-3 2.5-2.4 0-6 2.4-7.1 4.6-.8 1.8-2.6 2.8-7.1 4.1-5.7 1.6-6 1.8-6 4.8 0 1.8.6 3.8 1.4 4.4.8.7 1.7 2.3 2 3.7.7 2.5.7 2.5 8.4 1.8 8.7-.7 9.3.9.9 2.5-2.7.5-5.1 1.2-5.5 1.5-.3.4 0 2.6.8 4.9 1.5 4 1.7 4.2 7.3 5.2l5.8 1-4.3 4.2c-3.9 3.8-4.9 4.3-9.1 4.3-5.2 0-10.1 2-11.1 4.5-1.1 3-.6 4.5 1.9 5.1 3.3.8 9 7.2 10.5 11.8.7 2.1 1.3 6.7 1.4 10.4l.1 6.7-12.5.5-12.5.5L52.8 165C42 172.4 33.1 178.8 33 179.1c0 .4 20.4 15.2 45.3 33 24.8 17.7 46.4 33.1 47.9 34.2l2.7 2 46.8-33.3c25.7-18.3 47.1-33.6 47.5-33.9.4-.4-8.3-7.2-19.5-15.1l-20.2-14.5-8-.5-8-.5-1.2-6.2c-.7-3.4-1.6-9.5-2.1-13.5-.8-6.6-.7-7.4.9-8.6 1.6-1.1 1.9-2.7 1.9-10.2 0-8 .2-8.9 2-9.5 2.4-.8 2.4.6 0-14.4-2.3-13.9-3.8-17.2-10.6-22.7-3-2.5-4.3-4.2-3.9-5.3.3-1-.1-2.6-.9-3.6-1.2-1.7-2.9-2-12.3-2.2-6.5-.1-13.2.3-16.9 1.1zm23.4 3.3c1.6.4 2.2 1.1 1.9 2.3-.6 2.2-.1 2.8 5 6.8 6.1 4.8 8 8.5 9.8 19.6 1.5 9.7 1.5 9.9-.5 11.3-1.8 1.2-2 2.5-2 10.7v9.4l-2.7.5c-1.6.3-3.1.3-3.5 0-.5-.2-.8-3.1-.8-6.4 0-5.2-.2-6-1.7-5.7-1.6.3-1.8 1.7-2.1 10.5l-.3 10.2-3.7.6c-7.4 1.2-8.2 1.2-8.2.4 0-.5.9-.9 2-.9 2 0 2.1-.5 1.8-8.3-.2-6.5-.6-8.2-1.8-8.2-1.1 0-1.6 1.5-1.8 6.1-.3 6.7-1 7.4-7.4 7.4h-2.7l-.3-8.7c-.3-7.4-.6-8.8-2-9.1-1.6-.3-1.8.8-1.8 12.7 0 7.2-.3 13.1-.7 13.1-.4 0-3.7-1-7.5-2.2-4.9-1.6-6.8-2.7-6.8-3.9 0-1.1.9-1.9 2.3-2.1 1.9-.3 2.2-1 2.5-4.8.3-5.2-.9-7.6-3.2-6.7-1 .4-1.6 1.8-1.6 3.8 0 3.1-.1 3.1-3.6 2.6-4.7-.8-4.8-1-3-4.5 1.7-3.3 6-7.1 12.7-11.2 6.3-3.8 8.8-9.2 9.2-19.6.2-7.3.1-7.9-1.8-7.9-1.8 0-2.1.9-2.6 8-.5 8.1-2.5 13.6-5.4 15.3-1.3.7-8.8-.5-15.2-2.4-2.1-.6-1.5-2.4.7-2.4 2.9 0 7.8-2.7 9-4.9 2.4-4.7-1.8-7.3-10.4-6.4-4.7.5-5.6.3-5.6-1 0-.9-.7-2-1.6-2.5-2-1.1-1.4-1.5 5.9-3.6 4.4-1.3 5.7-2.1 5.7-3.6 0-2.1 2.7-4 5.7-4 1 0 2.3-1 2.8-2.2 1.4-3.1 6.2-5.6 13.7-7.3 6.7-1.4 17.8-1.9 21.6-.8zM97.4 119c-.7 3.1-.5 3.3 4.8 4.4 2.2.5 2.7 1.2 3 4.4.3 3.6.5 3.8 6.3 5.8 6 2.1 6 2.1 7.8 8 2.6 8.4 3 8.8 7.3 9.5 5.5.7 8 2.4 9.3 6 1.3 3.9.1 9.4-3.1 13.4l-2.1 2.7-1.4-2.6c-4.2-8-15.6-4.9-15.8 4.2-.1 2.7-.8 4.9-2.2 6.4-2.9 3.2-4.3 6.2-4.3 9.4 0 2.5-.1 2.6-2.2 1.2-7.1-4.7-8.3-11.8-4.8-29.6 4.2-21.7 1-36.6-9.1-42.6-3.7-2.2-2.5-3.6 3.3-3.6 3.6 0 3.7.1 3.2 3zm62 8.7c.5 3.3.2 4.1-2 6.1-2 1.7-3.4 2.2-5.3 1.7-4.3-1.1-4.6-2.3-.7-3 3.3-.7 3.6-1 3.6-3.9 0-5.9 3.4-6.5 4.4-.9zm-25.2 3.5c.2 1.4 1.2 2.4 2.7 2.8l2.5.6-2.8 2.2c-1.6 1.2-4.1 2.2-5.6 2.2-2.7 0-2.8-.1-2.3-4.3.4-2.3 1.1-4.5 1.7-4.9 2-1.4 3.5-.8 3.8 1.4zm13.7 7.1l4.1 2.4-2.6 2.6c-3.1 3.1-6.9 3.5-10.3 1.1l-2.3-1.6 3.3-3.4c1.8-1.9 3.4-3.4 3.5-3.4.1 0 2.1 1.1 4.3 2.3zm13.1 1.2c0 .8-.4 1.5-.9 1.5-1.3 0-2.2-1.6-1.4-2.4 1.1-1.1 2.3-.6 2.3.9zm-32 4.2c.5.4-2 2.3-3.1 2.3-.4 0-.9-.9-1.2-2-.4-1.8-.2-2 1.6-1.4 1.2.3 2.4.8 2.7 1.1zm31.8 5.3c-2.4 3.7-7 4.5-10.6 1.7-.9-.7-.4-1.7 2-4.2l3.3-3.1 3.2 1.9c2.8 1.6 3.1 2.1 2.1 3.7zm-22.9-.7c3 1.8 3.8 2.6 2.9 3.5-.8.8-1.9.5-4-1.3-1.6-1.4-3.4-2.5-3.9-2.5-.6 0-.7-.5-.4-1 .8-1.3.7-1.4 5.4 1.3zm11.4 6.7c3.2 1.6 3.1 2.9-.4 4.9-3 1.7-7.9.8-7.9-1.5 0-1.5 4-5.6 5-5.1.3.2 1.7.9 3.3 1.7zm14.7.5c0 .9-.6 1.2-1.5.9-.8-.4-1.2-1-.9-1.5.8-1.4 2.4-1 2.4.6zm-2.2 5.3c2.1 1.4 2.2 1.6.6 3.3-2 2.2-5.5 2.5-8.4.7-1.9-1.2-1.9-1.3.7-4 1.4-1.5 3.1-2.4 3.7-2.1.6.4 2.1 1.3 3.4 2.1zm-67.5 7.4c-1.2 7.7-.8 16 1 19.5 2.4 4.5 7.9 8.8 13.9 10.9 4.3 1.5 8.3 1.9 20.8 1.9 14.6 0 15.8-.2 21-2.6 6.7-3.1 11.7-7.9 14.2-13.6 1.5-3.4 3.6-14.7 3.8-20.1 0-.8 1.7-1.2 5-1.2 4.6 0 5.7.6 17 8.6 6.7 4.8 11.8 9 11.3 9.4-1.9 1.8-71.4 51.1-72.6 51.6-1.6.6-75.1-51.4-75-53.1 0-.6 4.9-4.4 10.9-8.7l10.9-7.6 9.3-.1 9.4-.1-.9 5.2zm49.7-1.7c-.7.8-1.9 1.5-2.6 1.5-.8 0-1.4-.7-1.4-1.5 0-1 1-1.5 2.6-1.5 2.2 0 2.5.2 1.4 1.5zm9.1 5.6c-2.5 2-5.7 2.4-8 1-1.1-.7-.8-1.4 1.5-3.4 2.7-2.4 3-2.4 5.8-1l3 1.6-2.3 1.8zm10.9-.6c0 1.7-.7 2.8-2.2 3.4-3.5 1.4-4.5-.5-1.8-3.4 3-3.2 4-3.2 4 0zm-39.6-.2c3.8 2.7-.2 9.5-4.1 7.1-2.5-1.6-2.9-5.5-.7-7.1 1-.7 2.1-1.3 2.4-1.3.3 0 1.4.6 2.4 1.3zm16.4 3.7c1.6 1.6 2.7 3.2 2.4 3.5-1 1-9.1.5-9.7-.6-.6-.8 3-5.9 4.1-5.9.1 0 1.6 1.3 3.2 3zm19.2 5c1.1 0 2 .2 2 .4 0 4.4-6.7 5-10 .9-2-2.6-2-2.8-.3-3.4 1-.4 2.8-.1 4 .7 1.2.8 3.1 1.4 4.3 1.4zm-27.7 1.9c3.4 1.8 3.7 5.1.3 5.1-1.3 0-3.4-.8-4.7-1.9-2-1.6-2.2-2.1-1-3.5.8-.9 1.7-1.5 2-1.4.3.2 1.8 1 3.4 1.7zm-10.4 1.7c.2.2-.8 1.7-2.2 3.3-1.4 1.7-2.8 4.4-3.2 6.1-.5 2.2-1.1 3-2.2 2.6-.8-.3-1.9-.6-2.5-.6-1.8 0-.1-8 2.3-10.6 1.7-1.8 2.9-2.2 4.8-1.7 1.4.3 2.8.7 3 .9zm26.1-.1c1.9 2.2 0 3.7-4.1 3.3-4.1-.4-5.3-3.4-1.7-4.1 4.1-.8 4.5-.7 5.8.8zm-21 10.2c0 3.3-.2 3.4-3.2 3.1-3.7-.3-4-2.2-1.2-6.6 2-3.1 4.4-1.2 4.4 3.5zm29.4-4.9c.3.5-.8 1.6-2.3 2.5-2.5 1.5-3 1.5-3.5.2-.8-2.2 4.5-4.7 5.8-2.7zM137 194c0 2.5-.4 3-2.5 3-2.7 0-4.1-2-3.1-4.5.3-.8 1.7-1.5 3.1-1.5 2.1 0 2.5.5 2.5 3zm9.7-.3c.6 1.7-3.8 2.8-4.8 1.2-1.7-2.7-1-3.8 1.8-3 1.5.4 2.8 1.2 3 1.8z"/><path d="M110 76c0 1.6.7 2 3.5 2s3.5-.4 3.5-2-.7-2-3.5-2-3.5.4-3.5 2z"/></svg>