<svg xmlns="http://www.w3.org/2000/svg" xmlns:xlink="http://www.w3.org/1999/xlink" viewBox="0 0 154 155"><defs><path id="a" d="M76.595 153.154c-42.291 0-76.576-34.285-76.576-76.576C.02 35.51 32.35 1.994 72.95.09A77.24 77.24 0 0 1 76.595 0C96.2 0 114.08 7.372 127.628 19.49c-8.976-5.954-19.47-9.379-30.687-9.379-18.235 0-34.564 9.047-45.55 23.313-8.467 9.993-13.952 24.767-14.323 41.35-.002.042-.002 3.564 0 3.606.371 16.58 5.856 31.355 14.321 41.35 10.986 14.264 27.317 23.312 45.552 23.312 11.219 0 21.715-3.425 30.693-9.381-13.482 12.06-31.255 19.416-50.75 19.489-.097 0-.192.004-.289.004z"/><linearGradient id="b" x1="50%" x2="50%" y1="98.369%" y2="1.456%"><stop offset="0%" stop-color="#FF1B2D"/><stop offset="30%" stop-color="#FF1B2D"/><stop offset="61.4%" stop-color="#FF1B2D"/><stop offset="100%" stop-color="#A70014"/></linearGradient><path id="d" d="M51.39 119.73c7.026 8.296 16.101 13.296 26.018 13.296 22.292 0 40.362-25.274 40.362-56.448 0-31.178-18.07-56.453-40.362-56.453-9.915 0-18.992 5.005-26.017 13.299C62.377 19.158 78.706 10.11 96.941 10.11c11.217 0 21.71 3.425 30.687 9.378C143.3 33.511 153.17 53.89 153.17 76.578c0 22.684-9.868 43.06-25.537 57.083-8.978 5.956-19.474 9.381-30.693 9.381-18.235 0-34.566-9.048-45.552-23.312"/><linearGradient id="e" x1="50%" x2="50%" y1="99.147%" y2=".392%"><stop offset="0%" stop-color="#9C0000"/><stop offset="70%" stop-color="#FF4B4B"/><stop offset="100%" stop-color="#FF4B4B"/></linearGradient></defs><g fill="none" fill-rule="evenodd" transform="translate(.637 .902)"><mask id="c" fill="#fff"><use xlink:href="#a"/></mask><path fill="url(#b)" fill-rule="nonzero" d="M76.595 153.154c-42.291 0-76.576-34.285-76.576-76.576C.02 35.51 32.35 1.994 72.95.09A77.24 77.24 0 0 1 76.595 0C96.2 0 114.08 7.372 127.628 19.49c-8.976-5.954-19.47-9.379-30.687-9.379-18.235 0-34.564 9.047-45.55 23.313-8.467 9.993-13.952 24.767-14.323 41.35-.002.042-.002 3.564 0 3.606.371 16.58 5.856 31.355 14.321 41.35 10.986 14.264 27.317 23.312 45.552 23.312 11.219 0 21.715-3.425 30.693-9.381-13.482 12.06-31.255 19.416-50.75 19.489-.097 0-.192.004-.289.004z" mask="url(#c)" transform="matrix(1 0 0 -1 0 153.154)"/><mask id="f" fill="#fff"><use xlink:href="#d"/></mask><path fill="url(#e)" fill-rule="nonzero" d="M51.39 119.73c7.026 8.296 16.101 13.296 26.018 13.296 22.292 0 40.362-25.274 40.362-56.448 0-31.178-18.07-56.453-40.362-56.453-9.915 0-18.992 5.005-26.017 13.299C62.377 19.158 78.706 10.11 96.941 10.11c11.217 0 21.71 3.425 30.687 9.378C143.3 33.511 153.17 53.89 153.17 76.578c0 22.684-9.868 43.06-25.537 57.083-8.978 5.956-19.474 9.381-30.693 9.381-18.235 0-34.566-9.048-45.552-23.312" mask="url(#f)" transform="matrix(1 0 0 -1 0 153.154)"/></g></svg>
