<svg xmlns="http://www.w3.org/2000/svg" viewBox="0 0 468.116 468.116" width="10em"><path fill="#D1D5D5" d="M38.058 125.875s18.23-3.512 31.532 16.328c0 0-18.532 37.172-18.532 75.672s16.5 69 16.5 69l49 168s-1 2.833-12 7.833-17 6-24 2-32-23.666-40.667-54-13.66-47.333-14.33-88c0 0-14.33-39-14.66-66.333-.33-27.333.34-52.333 6.34-75.333s20.84-55.167 20.84-55.167z"/><path fill="#C6CBCB" d="M38.058 125.875s6.835 1.392 12.24 3.99c0 0-27.01 44.99-30.24 94.51-3 46 8.227 66.665 16.197 86s2.803 31 3.303 46.5 7.765 53.5 24.132 76.5 36.456 31.22 36.456 31.22-11.175 5.508-18.268.813-33.632-23.428-41.986-54.7-12.377-42.66-13.355-65.33-2.138-20.663-7.595-43.47-9.855-42.533-8.12-82.533 27.236-93.5 27.236-93.5z"/><path fill="#253744" d="M104.558 462.708c11-5 12-7.833 12-7.833l-46.22-158.47s-6.28 3.47-10.28 5.97-10 13-10 29-.5 32.5 11.5 65 43 66.333 43 66.333z"/><path fill="#2D404E" d="M116.558 454.875s-1 2.833-12 7.833c0 0-31-33.833-43-66.333s-11.5-49-11.5-65 6-26.5 10-29 10.28-5.97 10.28-5.97-12.515 5.97-6.648 49.97 25.66 75.643 33.72 87.754c10.148 15.24 19.148 20.74 19.148 20.74z"/><path fill="#2D404E" d="M89.558 260.375s-6.25 4.5-6.25 31 8.25 62 14.25 82 31 84.666 59 89.333c0 0-18 10.332-31-2s-30.334-40.334-44.5-77.334-14.5-75.332-13.833-89.666 2.333-21.667 6.333-25.334 11.666-6.998 16-8z"/><path fill="#253744" d="M89.558 260.375s-8.5 3.5-8.5 30 9.167 65 15.167 85 32.333 82.666 60.333 87.333c0 0 9.25-5.333 9-13.333s-59.965-185.18-59.965-185.18-3.535-5.82-16.035-3.82z"/><path fill="#DF584C" d="M144.152 466.584c-5.8.645-12.71-.294-18.594-5.877-13-12.333-30.334-40.333-44.5-77.333s-14.5-75.332-13.833-89.666 2.333-21.667 6.333-25.334c1.63-1.493 3.867-2.93 6.24-4.18 0 0-6.905 3.513-7.24 26.18s5.16 59.668 10.748 79 24.253 58.334 29.92 67.334 15.173 21.977 22.082 26 8.844 3.876 8.844 3.876z"/><path fill="#DF584C" d="M90.89 268.708c5.335-8.687 8.96-11.847 18.334-15 12.667-4.263 20-6.666 33.334 4.334 13.334 11 31.667 53 41.667 83s17.667 72 16 83.333-5.667 19.666-16.667 25.333-22.667 7.334-29 4.667-33.263-26.97-48.965-74.818S83.56 289.71 90.89 268.707z"/><path fill="#B9483E" d="M194.48 440.55c3.17-4.503 4.818-9.875 5.745-16.175 1.667-11.333-6-53.333-16-83.333s-28.333-72-41.667-83c0 0-7.334-4.666-12 0-4.668 4.666-.668 33.333 3 49.666s14 49.334 20 65.667 23.666 53 31.332 62.666 9.59 4.51 9.59 4.51z"/><path fill="#253744" d="M160.224 296.59c6.667 8.785 17 37.45 22 54.118s11 45.666 4 51.333-23-33.52-29.666-53.09-17.21-60.96-8.667-64.9c4.34-2 12.34 12.55 12.34 12.55z"/><path fill="#D1D5D5" d="M430.058 125.875s-18.23-3.512-31.53 16.328c0 0 18.53 37.172 18.53 75.672s-16.5 69-16.5 69l-49 168s1 2.833 12 7.833 17 6 24 2 32-23.666 40.666-54 13.666-47.333 14.333-88c0 0 14.333-39 14.667-66.333.332-27.333-.334-52.333-6.334-75.333s-20.832-55.167-20.832-55.167z"/><path fill="#C6CBCB" d="M430.058 125.875s-6.836 1.392-12.238 3.99c0 0 27.01 44.99 30.238 94.51 3 46-8.227 66.665-16.197 86-7.96 19.333-2.8 31-3.3 46.5s-7.76 53.5-24.13 76.5c-16.36 23-36.45 31.22-36.45 31.22s11.18 5.508 18.27.813 33.63-23.428 41.99-54.7 12.38-42.66 13.36-65.33 2.138-20.663 7.596-43.47 9.855-42.533 8.12-82.533-27.236-93.5-27.236-93.5z"/><path fill="#253744" d="M363.558 462.708c-11-5-12-7.833-12-7.833l46.22-158.47s6.28 3.47 10.28 5.97 10 13 10 29 .5 32.5-11.5 65-43 66.333-43 66.333z"/><path fill="#2D404E" d="M351.558 454.875s1 2.833 12 7.833c0 0 31-33.833 43-66.333s11.5-49 11.5-65-6-26.5-10-29-10.28-5.97-10.28-5.97 12.516 5.97 6.647 49.97c-5.867 44-25.658 75.643-33.72 87.754-10.147 15.24-19.147 20.74-19.147 20.74z"/><path fill="#2D404E" d="M378.558 260.375s6.252 4.5 6.252 31-8.252 62-14.252 82-31 84.666-59 89.333c0 0 18 10.332 31-2s30.334-40.334 44.5-77.334 14.5-75.332 13.833-89.666-2.33-21.667-6.33-25.334-11.66-6.998-16-8z"/><path fill="#253744" d="M378.558 260.375s8.5 3.5 8.5 30-9.166 65-15.166 85-32.334 82.666-60.334 87.333c0 0-9.25-5.333-9-13.333s59.965-185.18 59.965-185.18 3.535-5.82 16.035-3.82z"/><path fill="#DF584C" d="M323.964 466.584c5.8.645 12.71-.294 18.594-5.877 13-12.333 30.334-40.333 44.5-77.333s14.5-75.332 13.833-89.666-2.33-21.667-6.33-25.334c-1.63-1.493-3.86-2.93-6.24-4.18 0 0 6.91 3.513 7.24 26.18s-5.16 59.668-10.74 79c-5.58 19.334-24.25 58.334-29.92 67.334-5.66 9-15.17 21.977-22.08 26s-8.84 3.876-8.84 3.876z"/><path fill="#DF584C" d="M377.224 268.708c-5.334-8.687-8.957-11.847-18.332-15-12.667-4.263-20-6.666-33.334 4.334-13.334 11-31.667 53-41.667 83s-17.66 72-16 83.333 5.67 19.666 16.67 25.333 22.67 7.334 29 4.667 33.27-26.97 48.97-74.818 22.04-89.848 14.7-110.85z"/><path fill="#B9483E" d="M273.634 440.55c-3.17-4.503-4.816-9.875-5.743-16.175-1.66-11.333 6-53.333 16-83.333s28.34-72 41.67-83c0 0 7.34-4.666 12 0s.67 33.333-3 49.666-14 49.334-20 65.667-23.66 53-31.33 62.666c-7.66 9.67-9.59 4.51-9.59 4.51z"/><path fill="#253744" d="M307.892 296.59c-6.666 8.785-17 37.45-22 54.118s-11 45.666-4 51.333 22.998-33.52 29.666-53.09 17.21-60.96 8.668-64.9c-4.334-2-12.334 12.55-12.334 12.55z"/><path fill="#586A73" d="M352.558 43.375s-45.582-32.198-118-39.398v-.102c-.167.016-.333.035-.5.05-.167-.015-.333-.034-.5-.05v.102c-72.417 7.2-118 39.398-118 39.398-45.5 26.5-77.5 82.5-77.5 82.5s5 1 13.5 4.5 16.667 12 16.667 12 11.515.095 40.537-24.09 29.99-48.37 59.98-63.848C196.687 40.013 229.69 38.19 234.06 38.01c4.367.182 37.37 2.003 65.316 16.427 29.99 15.48 30.957 39.663 59.98 63.848s40.535 24.09 40.535 24.09 8.17-8.5 16.67-12 13.5-4.5 13.5-4.5-32-56-77.5-82.5z"/><path fill="#253744" d="M463.687 231.875s3.37-47.5-26.13-103.5-75-89-111-106C293.362 6.698 258.963 0 234.057 0c-21.587 0-59.3 6.698-92.5 22.375-36 17-81.5 50-111 106S4.43 231.875 4.43 231.875l2.07 1.346.39 4.56-2.332 1.6c2 45 11 67.67 13 74.67s4.667 21.67 5 36 1.333 38.67 15.333 68 30.67 43.34 39.34 48 16 0 16 0c-11.33-.08-18.75-5.99-27.41-16.16s-16.92-25.17-24.58-45.84-12.66-51.33-12.33-59-.33-23.66-2.33-31.33-11.72-30.12-13-54-1.384-53.81 8.666-88 24.33-53.67 41.46-75.332 48.54-53.666 94.2-72C198.84 7.95 233.75 9.368 234.07 9.34c.32.03 35.238-1.385 76.17 15.05 45.667 18.33 77.07 50.33 94.2 72 17.134 21.665 31.418 41.142 41.468 75.33 10.05 34.19 9.95 64.125 8.667 88s-11 46.334-13 54-2.662 23.665-2.33 31.33-4.664 38.336-12.33 59-15.917 35.66-24.583 45.838-16.083 16.084-27.416 16.167c0 0 7.334 4.668 16 0 8.667-4.664 25.33-18.665 39.33-48s15-53.665 15.336-68 3-29 5-36 11-29.665 13-74.665l-2.33-1.597.39-4.56 2.07-1.344z"/></svg>
