<svg xmlns="http://www.w3.org/2000/svg" viewBox="0 0 432 432" width="10em"><path fill="#80D440" d="M64 171.2H24c-8.8 0-16 7.2-16 16v128c0 8.8 7.2 16 16 16h48v48l49.6-44c2.8-2.8 6.8-4 10.8-4h52c8.8 0 16-7.2 16-16v-128c0-8.8-7.2-16-16-16H64z"/><path fill="#6EA62B" d="M64 396.8v-57.6H24c-13.2 0-24-10.8-24-24v-128c0-13.2 10.8-24 24-24h160.4c13.2 0 24 10.8 24 24v128c0 13.2-10.8 24-24 24h-52c-2.4 0-4 .8-5.2 1.6l-.4.4L64 396.8zM24 179.2c-4.4 0-8 3.6-8 8v128c0 4.4 3.6 8 8 8h56v38.4l36-32c4-4 10-6 16.4-6h52c4.4 0 8-3.6 8-8V187.2c0-4.4-3.6-8-8-8H24z"/><path fill="#80D440" d="M344 199.2v129.6L252.8 258c-5.6-4.4-12.4-6.8-19.6-6.8H104c-17.6 0-32-14.4-32-32v-144c0-17.6 14.4-32 32-32h288c17.6 0 32 14.4 32 32v144c0 17.6-14.4 32-32 32h-48"/><path fill="#6EA62B" d="M352 345.2l-104-80.8c-4.4-3.2-9.2-5.2-14.8-5.2H104c-22 0-40-18-40-40v-144c0-22 18-40 40-40h288c22 0 40 18 40 40v144c0 22-18 40-40 40h-40v86zm-248-294c-13.2 0-24 10.8-24 24v144c0 13.2 10.8 24 24 24h129.2c8.8 0 17.6 2.8 24.4 8.4l78.4 60.8V199.2c0-4.4 3.6-8 8-8s8 3.6 8 8v44h40c13.2 0 24-10.8 24-24v-144c0-13.2-10.8-24-24-24H104z"/><path fill="#68B82B" d="M352 195.2l48 48h-48v-48z"/><path fill="#FFF" d="M344 131.2H148c-4.4 0-8-3.6-8-8s3.6-8 8-8h196c4.4 0 8 3.6 8 8s-3.6 8-8 8zm-120 48h-76c-4.4 0-8-3.6-8-8s3.6-8 8-8h76c4.4 0 8 3.6 8 8s-3.6 8-8 8zm48 0h-12c-4.4 0-8-3.6-8-8s3.6-8 8-8h12c4.4 0 8 3.6 8 8s-3.6 8-8 8z"/></svg>
