<svg xmlns="http://www.w3.org/2000/svg" viewBox="0 0 123 60"><path fill="#fff" fill-rule="evenodd" d="M20.628 21c-1.067-2.176-2.08-3.98-3.04-5.408-.96-1.43-1.973-2.72-3.04-3.872l3.008-2.048c1.237 1.408 2.38 2.88 3.424 4.416 1.045 1.536 2.123 3.285 3.232 5.248L20.628 21zm22.4-9.28c-.384.34-.78.725-1.184 1.152-.405.427-.896 1.003-1.472 1.728-.576.725-1.248 1.62-2.016 2.688-.768 1.067-1.664 2.39-2.688 3.968l-3.2-1.92c1.45-1.493 2.763-3.06 3.936-4.704 1.173-1.643 2.23-3.34 3.168-5.088l3.456 2.176zm-30.72 36.864c-.427.725-.97 1.58-1.632 2.56-.66.98-1.365 1.984-2.112 3.008-.747 1.024-1.504 2.005-2.272 2.944-.768.94-1.472 1.728-2.112 2.368l-3.456-2.24c1.067-.94 1.984-1.813 2.752-2.624.768-.81 1.45-1.62 2.048-2.432.597-.81 1.163-1.675 1.696-2.592.533-.917 1.1-1.973 1.696-3.168l3.392 2.176zm40.384 9.92c-.555-.94-1.077-1.78-1.568-2.528-.49-.747-1.035-1.504-1.632-2.272-.597-.768-1.29-1.59-2.08-2.464-.79-.875-1.717-1.888-2.784-3.04l2.752-2.24c1.92 1.877 3.595 3.616 5.024 5.216 1.43 1.6 2.7 3.147 3.808 4.64l-3.52 2.688zm-29.76-.448c-.47-1.664-1.077-3.34-1.824-5.024-.747-1.685-1.675-3.21-2.784-4.576l3.264-1.6c.853 1.237 1.77 2.74 2.752 4.512.98 1.77 1.835 3.51 2.56 5.216l-3.968 1.472zm14.336-.832c-.427-.94-.81-1.76-1.152-2.464-.34-.704-.704-1.376-1.088-2.016-.384-.64-.832-1.29-1.344-1.952-.512-.66-1.13-1.42-1.856-2.272l3.136-1.92c1.152 1.493 2.24 3.008 3.264 4.544 1.024 1.536 1.9 2.987 2.624 4.352l-3.584 1.728zM26.516 7.88h-15.36v14.848h15.36V7.88zm3.84 14.848h15.808V7.88H30.356v14.848zm0 18.688c5.504 0 10.197-.043 14.08-.128 3.883-.085 7.403-.213 10.56-.384v4.032c-1.707-.085-3.488-.16-5.344-.224-1.856-.064-3.872-.117-6.048-.16s-4.555-.075-7.136-.096c-2.58-.02-5.408-.032-8.48-.032-3.115 0-5.94.01-8.48.032-2.54.02-4.896.053-7.072.096-2.176.043-4.18.096-6.016.16-1.835.064-3.605.14-5.312.224v-4.032c1.62.085 3.317.16 5.088.224 1.77.064 3.68.117 5.728.16 2.048.043 4.267.075 6.656.096 2.39.02 5.035.032 7.936.032v-6.72c-4.31 0-8.01.032-11.104.096-3.093.064-5.9.16-8.416.288v-3.712c2.517.128 5.312.224 8.384.288 3.072.064 6.784.096 11.136.096v-6.016c-2.26 0-4.32.01-6.176.032-1.856.02-3.573.043-5.152.064-1.58.02-3.03.064-4.352.128-1.323.064-2.603.117-3.84.16.085-.81.16-1.6.224-2.368.064-.768.107-1.568.128-2.4.02-.832.043-1.717.064-2.656.02-.94.032-2.005.032-3.2 0-2.432-.032-4.47-.096-6.112-.064-1.643-.18-3.296-.352-4.96 1.323.085 2.71.15 4.16.192 1.45.043 3.04.075 4.768.096 1.728.02 3.627.043 5.696.064 2.07.02 4.405.032 7.008.032 2.603 0 4.94-.01 7.008-.032 2.07-.02 3.968-.043 5.696-.064 1.728-.02 3.317-.053 4.768-.096 1.45-.043 2.837-.107 4.16-.192-.128 1.664-.224 3.328-.288 4.992-.064 1.664-.096 3.69-.096 6.08 0 1.237.01 2.325.032 3.264.02.94.043 1.803.064 2.592.02.79.053 1.568.096 2.336.043.768.107 1.557.192 2.368-1.237-.043-2.54-.085-3.904-.128-1.365-.043-2.837-.085-4.416-.128-1.58-.043-3.317-.064-5.216-.064h-6.368v6.016c4.352 0 8.085-.032 11.2-.096 3.115-.064 5.93-.16 8.448-.288v3.712c-2.517-.128-5.333-.224-8.448-.288-3.115-.064-6.848-.096-11.2-.096v6.72zM96.02 18.12c-1.237 4.736-3.104 9.536-5.6 14.4-2.496 4.864-6.005 9.75-10.528 14.656-.512-.597-1.11-1.1-1.792-1.504-.683-.405-1.45-.78-2.304-1.12 1.707-1.152 3.403-2.71 5.088-4.672 1.685-1.963 3.275-4.14 4.768-6.528 1.493-2.39 2.87-4.896 4.128-7.52 1.26-2.624 2.315-5.195 3.168-7.712-2.86 0-5.472.032-7.84.096-2.368.064-4.405.14-6.112.224v-3.968c2.176.128 4.82.235 7.936.32 3.115.085 6.592.128 10.432.128 0-2.347-.01-4.288-.032-5.824-.02-1.536-.043-2.816-.064-3.84-.02-1.024-.064-1.856-.128-2.496-.064-.64-.14-1.26-.224-1.856.853.256 1.61.437 2.272.544.66.107 1.44.14 2.336.096.768-.043 1.195.085 1.28.384.085.3-.192.747-.832 1.344-.34.34-.576 1.1-.704 2.272-.128 1.173-.192 2.976-.192 5.408v3.968c2.603 0 4.843-.01 6.72-.032 1.877-.02 3.54-.043 4.992-.064 1.45-.02 2.74-.064 3.872-.128 1.13-.064 2.23-.14 3.296-.224v3.968c-1.792-.085-3.83-.16-6.112-.224-2.283-.064-5.088-.096-8.416-.096.896 2.347 1.92 4.683 3.072 7.008 1.152 2.325 2.453 4.565 3.904 6.72 1.45 2.155 3.06 4.192 4.832 6.112 1.77 1.92 3.7 3.67 5.792 5.248-1.408.512-2.667 1.58-3.776 3.2-2.475-2.39-4.608-4.747-6.4-7.072-1.792-2.325-3.34-4.64-4.64-6.944-1.3-2.304-2.41-4.64-3.328-7.008-.917-2.368-1.717-4.79-2.4-7.264h-1.408v22.976c2.773 0 5.12-.053 7.04-.16 1.92-.107 3.627-.267 5.12-.48v4.288c-1.493-.213-3.19-.373-5.088-.48-1.9-.107-4.256-.16-7.072-.16 0 2.22.053 4.672.16 7.36.107 2.688.267 5.184.48 7.488h-4.928c.17-2.304.31-4.8.416-7.488.107-2.688.16-5.14.16-7.36-2.432.043-4.512.107-6.24.192-1.728.085-3.296.235-4.704.448v-4.288c1.45.213 3.03.363 4.736.448 1.707.085 3.776.15 6.208.192V18.12H96.02zm-24.832 3.136c-1.024 1.792-2.048 3.488-3.072 5.088s-1.963 3.02-2.816 4.256c-.512-.725-1.024-1.312-1.536-1.76-.512-.448-1.13-.843-1.856-1.184 1.237-1.11 2.688-2.88 4.352-5.312 1.664-2.432 3.37-5.27 5.12-8.512 1.408-2.603 2.464-4.928 3.168-6.976.704-2.048 1.27-4.032 1.696-5.952.683.427 1.397.78 2.144 1.056.747.277 1.397.46 1.952.544 1.707.3 1.835.853.384 1.664-.853.47-1.963 2.24-3.328 5.312-.34.725-.704 1.493-1.088 2.304-.384.81-.81 1.643-1.28 2.496v44.224h-4.544c.213-1.835.384-3.936.512-6.304.128-2.368.192-4.704.192-7.008V21.256z"/></svg>
