<svg xmlns="http://www.w3.org/2000/svg" viewBox="0 0 187.5 187.5"><path d="M18.451 154.432v-15.937h31.875v31.875H18.451v-15.938zm27.188 0v-11.25h-22.5v22.5h22.5v-11.25zm-17.813 0v-6.562h13.125v13.125H27.826v-6.563zm27.188 6.563v-9.375H59.7v-8.438h4.688v8.438h4.688v4.687H64.39v-4.687H59.7v9.375h4.688v4.687H59.7v4.688h-4.686v-9.375zm22.5 2.344v-7.032h9.375v-4.687H82.2v-13.125h-8.437v9.375h3.751v3.75h-3.75v-3.75h-4.688v-9.375H64.39v-9.375h4.686v4.687h4.688v-4.687h3.75v-4.688h-8.438v-4.687h4.688v-4.688h-4.688v-3.75h-9.375v3.75h4.688v9.375H59.7v14.063h-4.686v-4.688H37.2v-4.687h-4.686v4.687h-9.375v-4.687H18.45v-9.375H37.2v4.687h8.44v-4.687h4.686v4.687h4.688v-4.687H59.7v-4.688h-4.686v-3.75H59.7v-9.375h-4.686v-4.687h-9.375v4.687h4.687v4.688H37.201v4.687h3.75v3.75H23.14v-3.75h4.686v-9.375H23.14v4.688h-4.69V74.745h4.688v3.75h4.688v-8.438h-9.375V65.37h4.688v-4.688H18.45v-4.687H37.2v4.687h-4.686v4.688h8.436v-4.688h4.688v-4.687h4.688v4.687H45.64v4.688H59.7v-4.688h-4.686v-4.687H59.7v-4.688h-4.686V46.62H59.7v-4.688h-4.686V28.807H59.7v4.688h4.688v4.687h4.688v-9.375h22.5V24.12h9.375v-4.688h13.125v4.688h9.375v-4.688h9.375v36.563h4.688v4.687h4.686v4.688h4.688v4.687h3.75v4.688h4.688v3.75h9.375v4.687h-4.687v9.375h9.375v9.375H164.7v4.688h4.688v4.687H164.7v-4.687h-4.686v-4.688h-4.688v9.375h4.688v3.75h9.375v9.375H164.7v4.688h4.688v4.687H164.7v-4.687h-4.686v-4.688h-4.688v9.375h-4.686v4.688h9.375v13.125h4.685v-8.438h4.688v8.438H164.7v9.375h4.688v4.687H164.7v-4.687h-4.686v-9.375h-4.688v9.375h-4.686v4.687h9.375v4.688h-27.188v-4.688h-4.687v4.688h-4.688v-9.375h9.375v4.687h9.375v-4.687h-4.688v-4.688h9.375v4.688h3.75v-9.375h-22.5v4.687h-4.688v-4.687h-9.375v14.062h4.688v4.688h-4.688v-4.688h-3.75v4.688H96.264v-9.375h-9.375v4.687h4.687v4.688H77.514v-7.031zm32.812-6.563v-8.906h3.75v-4.688h4.688v4.688h4.686v-9.375h-4.686v-9.375h4.686v-4.688h-9.375v-4.687h9.375v-4.688h4.688v9.375h4.688v4.688h9.375v-4.688h4.688v4.688h3.75v-4.688h4.687v-4.687h4.688v-4.688h-4.688v-3.75h-4.686v-4.687h-3.75v-4.688h-9.375v-4.687h-4.688v-4.688h9.375v4.688h4.688v-4.688h-4.69V87.87h4.688v-4.688h3.75v9.375h4.688v-9.375h-4.686v-4.687h-3.75v4.687h-4.69v-8.437h-4.686v3.75h-4.688v4.687h-4.686v-8.437h4.686v-4.688h-4.686v4.688h-4.688v3.75h-4.688V65.37h4.686v-9.375h4.688v9.375h9.375v4.687h4.687V65.37h-4.686v-4.688h-4.688v-4.687h-4.686V38.182h-9.375v-4.687h9.375v-4.688h-17.814V24.12h-4.686v4.687h4.686V46.62h-4.686v9.375h13.125v4.687h-4.688v4.688h-13.125v4.687h-4.688v4.688h-4.688v3.75h4.688v4.687h-9.375v4.688H82.2v-4.688h-4.686v-8.437h-3.75v8.437h-4.688v4.688H64.39v-4.688H59.7v-8.437h4.688v3.75h4.688v-8.438h8.438v-9.375H82.2v9.375h9.375v-9.375h4.688v-9.375h4.687v-9.375h4.688v-3.75h-9.375v3.75h-9.375v9.375h4.688v4.688H86.89v4.687H82.2v-22.5h-4.686v-4.687h-3.75v8.437h-9.375v4.688H59.7v4.687h4.688v4.688H59.7v4.687h4.688v4.688H59.7v9.375h-4.686v-4.688h-9.375v4.688h9.375v8.437h-4.688v-4.687h-9.375v-8.438h-3.75v4.688h-4.687v3.75h-4.688v9.375H23.14v9.375h4.686V87.87h4.688v14.062h8.436V87.87h4.688v4.687H59.7V87.87h4.688v4.687h9.375v4.688H59.7v4.687h4.688v4.688h4.688v4.687h4.688v-4.687h-4.688v-4.688h4.688v-4.687h3.75v-4.688H82.2v4.688h4.688V87.87h9.375v4.687h-4.688v4.688h4.688v4.687h-4.688v4.688h4.688v-4.688h4.687v-9.375h4.688v14.063h4.688v4.687h-4.686v3.75h-9.375v4.688h9.375v4.687H91.576v-13.125H86.89v13.125h4.686v4.688h-9.375v4.687h14.062v4.688H86.89v4.687h9.375v4.688h-4.688v3.75h4.688v4.687h4.685v-8.437h4.688v13.125h-4.688v4.687h9.375v-8.906zm-4.687-11.25v-2.344h-9.375v-4.687h9.375v-14.063h4.687v14.063h3.75v4.687h-3.75v4.688h-4.686v-2.344zm-9.375-14.062v-2.344h4.686v4.687h-4.686v-2.343zm50.625-9.375v-2.344h3.75v-4.688h4.687v4.688h-4.686v4.687h-3.75v-2.343zm-41.25-4.688v-2.344h8.437v-3.75h4.688V97.245h-4.688v4.687h-3.75v-9.375h-4.686v-22.5h8.436v4.688h-3.75v3.75h8.438v9.375h9.375v4.687h-4.688v4.688h4.688v4.687h-4.688v13.125h-9.375v4.688h-8.438v-2.344zm31.875 0v-2.344h4.686v4.688h-4.686v-2.344zm-9.375-8.437v-2.344h4.687v-4.688h4.688v4.688h4.686v4.687h-14.06v-2.343zM73.764 87.87v-4.688h3.75v9.375h-3.75V87.87zM37.2 83.182v-4.687h3.75v9.375H37.2v-4.688zm8.438 2.344v-2.344h4.688v4.688H45.64v-2.344zm9.375 0v-2.344H59.7v4.688h-4.686v-2.344zm77.812 0v-2.344h9.375v4.688h-9.375v-2.344zM96.264 76.62v-1.875h4.686v3.75h-4.686V76.62zM69.076 53.651v-2.344H64.39V46.62h4.686v4.687h4.688v-9.375h3.75v9.375h-3.75v4.688h-4.688v-2.344zm22.5-4.687V46.62h4.688v4.687h-4.688v-2.343zm18.75 0V46.62h3.75v-4.688h9.375v9.375h-4.687V46.62h-4.688v4.687h-3.75v-2.343zm45 100.781v-1.875h-4.686v3.75h4.686v-1.875zm-8.437-8.906v-7.032h-14.063v14.063h14.062v-7.031zm-9.375 0v-2.344h4.686v4.687h-4.686v-2.343zm-105-14.063v-2.344h-9.375v4.688h9.375v-2.344zm17.812 0v-2.344H45.64v4.688h4.686v-2.344zm31.875-15.937v-8.907h-4.687v17.813H82.2v-8.906zm82.5-11.25v-2.344h-4.687v4.687h4.686V99.59zm-63.75-68.438v-2.344h-4.687v4.688h4.686v-2.344zM69.076 163.34v-2.344h4.688v4.686h-4.688v-2.343zM45.64 113.182v-1.875h4.686v3.75H45.64v-1.875zm114.375-40.78v-2.345h-4.688v-9.375h-8.439v-4.687h13.126v4.687h4.686v-4.687h4.688v14.062H164.7v4.688h-4.686v-2.344zM18.45 35.37V19.432h31.875v31.875H18.451V35.37zm27.188 0V24.12h-22.5v22.5h22.5V35.37zm-17.813 0v-6.563H40.95v13.125H27.826V35.37zm109.688 0V19.432h31.875v31.875h-31.875V35.37zm27.187 0V24.12h-22.5v22.5h22.5V35.37zm-17.812 0v-6.563h13.125v13.125h-13.125V35.37zM55.014 21.776v-2.344h9.375v4.688h-9.375v-2.344zm22.5 0v-2.344H82.2v4.688h-4.686v-2.344z"/></svg>
