<svg xmlns="http://www.w3.org/2000/svg" viewBox="0 0 232 232"><path fill="#314E55" d="M116 0C52.04 0 0 52.037 0 116s52.04 116 116 116 116-52.037 116-116S179.96 0 116 0z"/><path fill="#E65F58" d="M116 224C56.45 224 8 175.55 8 116S56.45 8 116 8s108 48.45 108 108-48.45 108-108 108z"/><path fill="#314E55" d="M175.977 76.809c.011-11.891.023-23.123-.176-34.207-.063-3.243-2.074-5.301-5.254-5.371-1.91-.06-3.813.08-5.719.214l-.973.067c-10.367.68-20.507 1.412-30.628 2.89-18.29 2.672-34.547 6.91-49.711 12.961-1.91.766-3.094 2.309-3.332 4.336-.168 1.418-.176 2.834-.176 4.348-.008 27.125-.016 54.25.008 81.467-8.989-1.706-17.41.22-25.11 5.73-4.707 3.367-7.93 7.635-9.578 12.676-2.598 7.91-1.422 14.994 3.488 21.057 2.418 2.98 5.567 4.503 8.328 5.695 4.407 1.902 8.774 2.853 13.082 2.853 6.473 0 12.813-2.144 18.954-6.423 6.82-4.75 10.527-11.623 10.722-19.877.094-3.95.098-7.897.102-11.846l.008-3.393c.02-6.213 0-12.426-.016-18.638-.035-11.29-.07-22.961.145-34.456 0-.068.003-.134.003-.199l.2-.056c11.855-3.457 23.765-6.168 35.394-8.057 7.758-1.26 14.258-2.018 20.207-2.35-.023 13.704-.027 27.403.004 41.104a26.059 26.059 0 0 0-4.406-.527c-10.438-.307-18.871 3.199-25.317 10.398-4.867 5.44-6.914 11.867-5.918 18.588 1.215 8.236 6.165 14.1 14.704 17.426 8.925 3.476 18.05 2.64 27.132-2.496v-.002c9.067-5.13 13.856-13.3 13.856-23.625v-46.73c-.04-8.384-.031-16.159-.023-23.557z"/><path fill="#FFF" d="M168 147.096c0 7.482-3.203 12.933-9.793 16.664-6.984 3.945-13.617 4.61-20.29 2.006-5.827-2.27-8.905-5.81-9.694-11.143-.653-4.418.644-8.369 3.964-12.082 4.868-5.44 11.09-7.978 19.121-7.738 2.176.064 4.352.63 6.192 1.176.668.197 2.703.8 4.57-.588.863-.645 1.89-1.899 1.89-4.223-.046-15.93-.042-31.857-.007-47.78.008-1.642-.492-2.96-1.484-3.923-.989-.955-2.34-1.373-3.926-1.358-7.063.237-14.715 1.055-24.086 2.577-11.953 1.941-24.184 4.724-36.387 8.283-4.676 1.36-5.84 2.887-5.93 7.814-.214 11.543-.18 23.26-.144 34.59.016 6.197.035 12.393.016 18.59l-.008 3.408c-.004 3.889-.008 7.776-.102 11.666-.133 5.68-2.586 10.225-7.293 13.504-7.918 5.514-15.867 6.428-24.293 2.79-2.473-1.07-4.129-1.966-5.281-3.391-3.18-3.92-3.848-8.217-2.106-13.528 1.125-3.44 3.297-6.271 6.633-8.66 4.512-3.228 9.215-4.832 14.227-4.832 2.512 0 5.098.4 7.777 1.201.676.203 2.746.817 4.598-.562 1.855-1.385 1.855-3.549 1.855-4.264-.027-28.414-.019-56.828-.011-85.34 0-.59-.004-1.178.015-1.767 14.133-5.493 29.32-9.38 46.36-11.868 9.828-1.435 19.797-2.154 30-2.824l1-.068c.82-.057 1.64-.115 2.46-.156.153 10.195.145 20.582.134 31.53-.008 7.413-.016 15.204.023 23.585v46.71z"/></svg>
