<svg xmlns="http://www.w3.org/2000/svg" viewBox="0 0 566 313" xmlns:xlink="http://www.w3.org/1999/xlink"><defs><path id="a" d="M0 0h450v190H0z"/><mask id="b" width="450" height="190" x="0" y="0" fill="#fff"><use xlink:href="#a"/></mask></defs><g fill="none" fill-rule="evenodd"><g stroke="#979797" transform="translate(104 110)"><use fill="#F5A623" fill-opacity=".4" stroke-width="10" mask="url(#b)" xlink:href="#a"/><path stroke-width="5" d="M3.5 146.5h443M66 6v136" stroke-linecap="square"/></g><path stroke="#000" stroke-width="5" d="M31.5 298.5h46" stroke-linecap="square"/><path fill="#000" d="M71.142 312.284l14.142-14.142L71.142 284"/><text fill="#000" font-family=".SFNSDisplay, .SF NS Display" font-size="36" transform="translate(-1 -9)"><tspan x="0" y="321">3</tspan></text><path stroke="#000" stroke-width="5" d="M31.5 257.5h46" stroke-linecap="square"/><path fill="#000" d="M71.142 271.284l14.142-14.142L71.142 243"/><text fill="#000" font-family=".SFNSDisplay, .SF NS Display" font-size="36" transform="translate(-1 -9)"><tspan x="0" y="280">2</tspan></text><path stroke="#000" stroke-width="5" d="M32.5 113.5h46" stroke-linecap="square"/><path fill="#000" d="M72.142 127.284l14.142-14.142L72.142 99"/><text fill="#000" font-family=".SFNSDisplay, .SF NS Display" font-size="36" transform="translate(-1 -9)"><tspan x="1" y="136">1</tspan></text><text fill="#000" font-family=".SFNSDisplay, .SF NS Display" font-size="36" transform="translate(-1 -9)"><tspan x="98" y="35">1</tspan></text><path stroke="#000" stroke-width="5" d="M105.5 41.5v46" stroke-linecap="square"/><path fill="#000" d="M119.284 81.142l-14.142 14.142L91 81.142"/><text fill="#000" font-family=".SFNSDisplay, .SF NS Display" font-size="36" transform="translate(-1 -9)"><tspan x="163" y="35">2</tspan></text><g><path stroke="#000" stroke-width="5" d="M170.5 41.5v46" stroke-linecap="square"/><path fill="#000" d="M184.284 81.142l-14.142 14.142L156 81.142"/></g><g><text fill="#000" font-family=".SFNSDisplay, .SF NS Display" font-size="36" transform="translate(537 -9)"><tspan x="6" y="35">3</tspan></text><path stroke="#000" stroke-width="5" d="M551.5 41.5v46" stroke-linecap="square"/><path fill="#000" d="M565.284 81.142l-14.142 14.142L537 81.142"/></g></g></svg>
