<svg xmlns="http://www.w3.org/2000/svg" fill="none" viewBox="0 0 867 578"><ellipse cx="660.5" cy="153.5" fill="#fff" rx="206.5" ry="153.5"/><path fill="#0089D0" d="M687.561 76.94c-.124-18.75-15.433-33.851-34.198-33.73-18.765.121-33.879 15.42-33.758 34.17.122 18.75 15.432 33.851 34.198 33.73a33.856 33.856 0 0014.511-3.35l-.125.139c1.51.879 7.484 6.472 7.484 6.472l-.076-11.353c7.377-6.275 12.03-15.641 11.964-26.077z"/><path fill="#00BDED" d="M704.651 164.419c0-24.204-26.146-43.825-58.398-43.825-32.251 0-58.396 19.621-58.396 43.825 0 24.203 26.145 43.824 58.396 43.824 11.864 0 22.901-2.655 32.114-7.217l10.548 11.22v-17.904c9.761-7.832 15.736-18.354 15.736-29.923z"/><path fill="#E8CA1A" d="M607.645 82.702c2.312-18.41-15.7-35.829-40.232-38.905-24.532-3.076-46.293 9.355-48.605 27.765-2.313 18.41 15.7 35.828 40.231 38.905 9.024 1.131 17.673.164 25.118-2.427l6.951 9.541 1.711-13.618c8.171-5.027 13.72-12.46 14.826-21.261z"/><path fill="#FF6765" d="M705.024 60.864c1.952-14.997 19.732-25.05 39.716-22.456 19.981 2.594 34.601 16.856 32.65 31.852-1.951 14.997-19.732 25.05-39.713 22.456-7.353-.955-13.978-3.488-19.317-7.055l-7.44 6.103 1.44-11.094c-5.412-5.638-8.265-12.638-7.336-19.806z"/><path fill="#fff" d="M610.995 167.098v12.393h-4.415v-29.244h4.415v12.416h5.326v-12.416h4.415v29.244h-4.415v-12.393h-5.326zm13.688 12.393v-29.268h12.567v4.435h-8.152v7.982h5.956v4.435h-5.956v7.982h8.152v4.434h-12.567zm27.633 0h-12.03v-29.244h4.415v24.856h7.615v4.388zm15.066 0h-12.03v-29.244h4.415v24.856h7.615v4.388zm12.425-22.709c0-.701-.245-1.296-.736-1.786a2.429 2.429 0 00-1.785-.735c-.701 0-1.302.245-1.8.735a2.414 2.414 0 00-.746 1.786v16.011c0 .7.249 1.295.746 1.785.498.49 1.099.736 1.8.736a2.43 2.43 0 001.785-.736c.491-.49.736-1.085.736-1.785v-16.011zm-2.404-6.909c1.945 0 3.599.685 4.963 2.054 1.361 1.37 2.045 3.019 2.045 4.948v15.964c0 1.946-.687 3.599-2.058 4.96-1.368 1.362-3.019 2.042-4.95 2.042-1.948 0-3.598-.684-4.953-2.054-1.355-1.368-2.032-3.018-2.032-4.948v-15.964c0-1.945.685-3.598 2.056-4.96 1.37-1.361 3.012-2.042 4.929-2.042z"/><path fill="#0089D0" d="M798.918 102.422h-83.342a2.733 2.733 0 00-2.732 2.73v52.558a2.734 2.734 0 002.732 2.731h9.657v11.841l11.087-11.841h62.598a2.73 2.73 0 002.732-2.731v-52.558a2.73 2.73 0 00-2.732-2.73z"/><path fill="#FF6765" d="M720.56 225.09H618.588a2.547 2.547 0 00-2.549 2.546v40.772a2.548 2.548 0 002.549 2.547h9.008V282l10.341-11.045h82.623a2.547 2.547 0 002.549-2.547v-40.772a2.547 2.547 0 00-2.549-2.546z"/><path fill="#fff" d="M754.84 140.262c-.577-2.847-2.335-7.207-4.152-10.446l1.786-.636c1.91 3.239 3.699 7.508 4.303 10.355l-1.937.727zm-11.001-10.204c-.09.212-.301.333-.667.333-.967 3.724-2.635 7.69-4.541 10.113-.398-.333-1.123-.787-1.607-1.03 1.848-2.301 3.423-6.207 4.363-10.082l2.452.666zm9.695-.999c.245-1.121.546-2.816.819-4.451h-6.027v17.682c0 2.18-.788 2.574-5.033 2.574-.121-.606-.421-1.484-.756-2.089.756.03 1.485.03 2.062.03h1.212c.394 0 .515-.122.515-.515v-17.682h-4.881c-.908 2.21-1.968 4.208-3.118 5.723-.366-.364-1.061-.969-1.548-1.242 2.183-2.816 3.972-7.569 5.001-12.323l2.515.666c-.062.212-.273.333-.667.303a46.174 46.174 0 01-1.454 4.966h13.391l1.06.03c0 .515-.725 4.481-1.364 6.661l-1.727-.333zm-20.754-.727c-.999 1.756-2.059 3.361-3.15 4.723-.273-.423-.909-1.211-1.303-1.634 2.85-3.392 5.575-9.145 7.302-14.746l2.515.757c-.121.303-.394.364-.726.333a66.756 66.756 0 01-2.88 7.176l.88.242c-.062.182-.214.333-.607.364v19.256h-2.031v-16.471zm54.208 1.877v1.968h-7.301v10.022c0 2.332-.912 2.695-6.272 2.635-.121-.546-.456-1.424-.76-2.029 1.454.03 2.787.061 3.637.061 1.029 0 1.333 0 1.333-.637v-10.052h-7.422v-1.968h7.422v-5.147l1.002.061c1.575-1.332 3.239-3.24 4.483-4.935h-11.667v-1.908h13.211l.393-.121 1.606.999c-.089.152-.304.242-.483.303-1.575 2.24-4.183 5.117-6.483 6.994v3.754h7.301zm-23.12-5.207a294.251 294.251 0 01-1.969 8.144c1.275.697 2.577 1.544 3.848 2.392 1.212-2.816 2.093-6.328 2.515-10.536h-4.394zm5.454-1.999l1.153.303-.183.424c-.424 5.359-1.392 9.658-2.908 13.019 1.485 1.151 2.756 2.271 3.575 3.301l-1.243 1.665c-.757-.969-1.907-2.059-3.24-3.149-1.548 2.816-3.575 4.875-6 6.328-.272-.515-.849-1.241-1.274-1.665 2.273-1.212 4.183-3.179 5.699-5.905a41.53 41.53 0 00-3.454-2.331l-.366 1.333-1.727-.909c.76-2.665 1.699-6.509 2.577-10.415h-3.03v-1.908h3.454c.484-2.271.909-4.451 1.271-6.388l2.487.302c-.031.212-.214.334-.608.364a191.337 191.337 0 01-1.212 5.722h4.666l.363-.091z"/><path fill="#E8CA1A" d="M723.592 208.599c0-9.81 7.803-18.183 18.786-21.48 2.967-7.634 10.393-13.045 19.079-13.045 3.527 0 6.842.89 9.737 2.457a20.411 20.411 0 0114.776-6.302c9.446 0 17.397 6.393 19.756 15.084a20.844 20.844 0 012.953-.213c11.304 0 20.468 9.156 20.468 20.45 0 11.295-9.164 20.45-20.468 20.45-2.369 0-4.646-.403-6.763-1.144-2.013 9.18-10.199 16.051-19.991 16.051-7.899 0-14.751-4.473-18.164-11.021a35.708 35.708 0 01-8.683 1.62l-8.573 11.682-3.036-12.8c-11.553-3.057-19.877-11.657-19.877-21.789z"/><path fill="#fff" d="M742.478 213.156h1.237c1.005 0 1.699-.517 2.086-1.55.134-.355.203-.762.203-1.222 0-1.096-.21-1.894-.628-2.395-.377-.459-.929-.689-1.661-.689h-1.237v5.856zm0-8.69h1.237c.918 0 1.537-.449 1.851-1.346.114-.334.169-.746.169-1.237 0-.815-.197-1.43-.594-1.848-.366-.386-.839-.579-1.426-.579h-1.237v5.01zm-3.198 11.617V196.45h4.435c1.17 0 2.224.308 3.167.924.805.522 1.378 1.331 1.723 2.426.187.585.28 1.279.28 2.083 0 1.315-.349 2.369-1.05 3.163-.283.328-.636.59-1.033.767.657.25 1.216.746 1.676 1.487.303.501.528 1.148.676 1.941.073.407.108.861.108 1.362 0 1.243-.235 2.297-.705 3.163a4.232 4.232 0 01-1.551 1.628c-.753.46-1.499.689-2.241.689h-5.485zm18.803-15.234c0-.469-.163-.869-.494-1.197a1.63 1.63 0 00-1.199-.493c-.469 0-.87.164-1.205.493a1.612 1.612 0 00-.501 1.197v10.741c0 .469.166.869.501 1.197.335.329.736.494 1.205.494.47 0 .871-.165 1.199-.494a1.62 1.62 0 00.494-1.197v-10.741zm-1.613-4.634c1.305 0 2.414.46 3.329 1.378.916.918 1.372 2.025 1.372 3.319v10.709c0 1.305-.46 2.414-1.378 3.327-.919.913-2.028 1.37-3.323 1.37-1.306 0-2.414-.459-3.323-1.378-.908-.918-1.361-2.024-1.361-3.319v-10.709c0-1.305.46-2.414 1.378-3.327.919-.913 2.021-1.37 3.306-1.37zm10.627.235l3.927 13.195V196.45h2.964v19.633h-3.181l-4.076-12.572v12.572h-2.96V196.45h3.326zm15.446 15.187c0 1.305-.459 2.408-1.371 3.311-.915.903-2.02 1.355-3.316 1.355-.749 0-1.36-.079-1.83-.235l.421-2.756c.335.063.622.094.864.094.145.01.352.005.625-.016.48-.031.884-.203 1.216-.516a1.56 1.56 0 00.493-1.175v-15.202h2.898v15.14zm8.884-10.788c0-.469-.166-.869-.494-1.197a1.63 1.63 0 00-1.199-.493 1.65 1.65 0 00-1.205.493 1.612 1.612 0 00-.501 1.197v10.741c0 .469.166.869.501 1.197.331.329.736.494 1.205.494.47 0 .871-.165 1.199-.494.328-.328.494-.727.494-1.197v-10.741zm-1.613-4.634c1.305 0 2.414.46 3.329 1.378.912.918 1.371 2.025 1.371 3.319v10.709c0 1.305-.459 2.414-1.381 3.327-.919.913-2.024 1.37-3.319 1.37-1.306 0-2.414-.459-3.323-1.378-.908-.918-1.364-2.024-1.364-3.319v-10.709c0-1.305.459-2.414 1.381-3.327.919-.913 2.021-1.37 3.306-1.37zm11.971 20.087c-1.306 0-2.414-.454-3.323-1.362-.908-.908-1.364-2.009-1.364-3.303v-15.171h2.901v15.14c0 .469.166.868.501 1.197.332.329.736.493 1.205.493.47 0 .871-.164 1.199-.493.328-.329.494-.728.494-1.197v-15.14h3.088v15.171c0 1.315-.46 2.422-1.382 3.319-.919.898-2.024 1.346-3.319 1.346zm13.771-15.108c0-1.138-.563-1.707-1.693-1.707h-1.786v6.279h1.786c.47 0 .871-.167 1.199-.502.331-.333.494-.735.494-1.205v-2.865zm-1.769-4.728c1.648 0 2.86.454 3.634 1.362.68.793 1.019 1.9 1.019 3.319v2.849c0 1.389-.529 2.563-1.582 3.523l2.193 8.564h-3.202l-1.796-7.389h-1.976v7.389h-2.959v-19.617h4.669zM634.5 90.536c-1.692 0-3.13-.59-4.314-1.775-1.185-1.183-1.777-2.613-1.777-4.29V70.592c0-1.691.595-3.128 1.787-4.312 1.191-1.183 2.626-1.775 4.304-1.775 1.692 0 3.128.595 4.305 1.785 1.178 1.19 1.767 2.624 1.767 4.302v2.9h-3.98v-2.981a2.13 2.13 0 00-.65-1.563 2.132 2.132 0 00-1.563-.649c-.609 0-1.127.217-1.554.649a2.148 2.148 0 00-.639 1.563V84.43c0 .608.213 1.126.639 1.552.427.426.944.639 1.554.639a2.15 2.15 0 001.563-.639c.433-.426.65-.944.65-1.552v-3.51h3.98v3.55c0 1.691-.596 3.125-1.787 4.302-1.192 1.176-2.62 1.765-4.285 1.765zm9.219-25.746h3.837v25.422h-3.837V64.79zm13.99 5.823l-1.421 10.023h2.842l-1.421-10.023zm-2.016 13.756l-.933 5.843h-3.995l4.325-25.422h5.279l4.264 25.422h-4.035l-.898-5.843h-4.007zm19.742-13.898c0-.609-.211-1.126-.639-1.552a2.113 2.113 0 00-1.554-.64c-.609 0-1.13.214-1.563.64-.433.426-.65.943-.65 1.552v13.918c0 .609.217 1.126.65 1.552.433.426.954.64 1.563.64.61 0 1.129-.214 1.554-.64.428-.426.639-.943.639-1.552V70.471zm-2.091-6.005c1.693 0 3.13.595 4.315 1.785 1.185 1.19 1.775 2.624 1.775 4.301V84.43c0 1.69-.594 3.128-1.785 4.311-1.192 1.184-2.625 1.775-4.305 1.775-1.692 0-3.127-.595-4.305-1.785-1.177-1.19-1.766-2.624-1.766-4.301V70.552c0-1.69.595-3.128 1.787-4.312 1.191-1.183 2.619-1.774 4.284-1.774z"/><path fill="#0089D0" d="M535.869 228.281c-1.62-14.843 13.101-28.622 32.879-30.776s37.123 8.132 38.743 22.975c1.619 14.842-13.101 28.621-32.879 30.775-7.276.793-14.222-.099-20.177-2.28l-5.719 7.585-1.197-10.98c-6.509-4.152-10.876-10.205-11.65-17.299z"/><path fill="#fff" d="M554.636 227.339v-2.586c0-.803-.13-1.434-.389-1.894l-.125-.213c-.402.362-.983.754-1.742 1.175.357.259.782.791 1.275 1.594.492.803.82 1.444.981 1.924zm-5.123 3.401c.544 0 .816-.279.816-.838 0-.543-.272-.815-.816-.815-.539 0-.809.272-.809.815 0 .559.27.838.809.838zm4.763-10.379c.338-.421.507-1.033.507-1.836h2.198c0 .402-.105.923-.316 1.565-.211.641-.517 1.123-.919 1.446.324.343.55.8.68 1.37.13.571.195 1.018.195 1.341v7.668h-2.073c-.823-2.928-1.967-5.186-3.433-6.772-.122.083-.308.285-.558.606a5.85 5.85 0 00-.677 1.127c-.201.431-.301.718-.301.86.681 0 1.223.184 1.625.554.401.37.602.907.602 1.612 0 .642-.206 1.173-.617 1.594-.412.421-.981.632-1.706.632-1.563 0-2.345-.864-2.345-2.593 0-1.361.452-2.769 1.357-4.223.904-1.454 2.348-2.664 4.333-3.629-.299-.156-.85-.235-1.654-.235-2.347 0-3.521 1.242-3.521 3.724h-1.904c0-1.723.488-3.047 1.463-3.97.975-.922 2.377-1.384 4.205-1.384 1.342 0 2.296.181 2.859.543zm11.232 10.232c.539 0 .809-.282.809-.845 0-.543-.27-.815-.809-.815-.544 0-.816.272-.816.815 0 .563.272.845.816.845zm.544-2.982v-3.636c0-1.709-.855-2.563-2.565-2.563-1.726 0-2.588.844-2.588 2.534v1.079h-1.838v-.962c0-1.224.383-2.237 1.147-3.041.764-.802 1.869-1.204 3.315-1.204 3.009 0 4.514 1.363 4.514 4.091v5.597c0 .906-.246 1.558-.739 1.957-.492.399-1.089.599-1.79.599-.764 0-1.348-.226-1.75-.676a2.295 2.295 0 01-.602-1.579c0-.441.1-.836.301-1.187.201-.349.488-.605.86-.767.373-.162.951-.242 1.735-.242zm-1.955-13.684c-.564 0-.846.279-.846.837 0 .564.282.845.846.845.558 0 .838-.281.838-.845 0-.558-.28-.837-.838-.837zm8.755-.455c-.3 1.102-1.042 2.054-2.228 2.857-1.181.783-2.555 1.175-4.124 1.175-1.484 0-2.619-.23-3.403-.69-.799-.46-1.198-1.111-1.198-1.954 0-.646.211-1.18.632-1.601.422-.421.983-.632 1.683-.632.642 0 1.154.211 1.537.632.382.421.573.923.573 1.505 0 .544-.152.906-.456 1.088 0 .058.331.088.992.088a4.775 4.775 0 002.772-.874c.862-.602 1.436-1.393 1.72-2.372l1.5.778zm6.388 13.867v-2.586c0-.803-.131-1.434-.39-1.894l-.125-.213c-.402.362-.983.754-1.742 1.175.357.259.782.791 1.275 1.594.492.803.82 1.444.982 1.924zm-5.124 3.401c.544 0 .816-.279.816-.838 0-.543-.272-.815-.816-.815-.539 0-.809.272-.809.815 0 .559.27.838.809.838zm4.763-10.379c.338-.421.507-1.033.507-1.836h2.198c0 .402-.105.923-.316 1.565-.211.641-.517 1.123-.919 1.446.324.343.55.8.68 1.37.13.571.195 1.018.195 1.341v7.668h-2.073c-.823-2.928-1.967-5.186-3.433-6.772-.122.083-.309.285-.558.606-.25.32-.476.697-.676 1.127-.201.431-.302.718-.302.86.681 0 1.223.184 1.625.554.401.37.602.907.602 1.612 0 .642-.206 1.173-.617 1.594-.412.421-.98.632-1.706.632-1.563 0-2.345-.864-2.345-2.593 0-1.361.452-2.769 1.357-4.223.904-1.454 2.348-2.664 4.333-3.629-.299-.156-.85-.235-1.654-.235-2.347 0-3.521 1.242-3.521 3.724h-1.904c0-1.723.488-3.047 1.463-3.97.975-.922 2.377-1.384 4.205-1.384 1.342 0 2.296.181 2.859.543zm11.048 3.643c-.602 0-.904.302-.904.904 0 .622.302.933.904.933.603 0 .905-.311.905-.933 0-.602-.302-.904-.905-.904zm-.749 2.916c-.985-.22-1.478-.871-1.478-1.953 0-.642.211-1.168.632-1.579.422-.412.963-.618 1.625-.618.622 0 1.149.185 1.58.555.431.37.647.907.647 1.612 0 .642-.311 1.313-.934 2.013l-4.329 4.965h-2.169v-8.006c0-1.283.487-2.285 1.46-3.008.972-.722 2.211-1.083 3.715-1.083 1.769 0 3.085.377 3.948 1.131.862.754 1.294 1.741 1.294 2.96v8.006h-1.985v-7.94c0-1.709-1.076-2.563-3.227-2.563-.883 0-1.639.212-2.272.635-.632.424-.948 1.066-.948 1.928v5.626l2.441-2.681zm-2.47-11.465c.24-.02.622-.029 1.147-.029 1.323 0 2.846.232 4.571.697-.097-.303-.453-.695-1.065-1.175a3.349 3.349 0 00-2.125-.72c-.661 0-1.228.125-1.701.375-.473.25-.749.534-.827.852zm6.476-1.109v-2.012h1.985v5.743c-2.853-.842-5.903-1.263-9.152-1.263-.343 0-.745.01-1.206.029l-.72.03c0-.745.462-1.632 1.385-2.663.924-1.031 2.229-1.546 3.915-1.546s2.95.561 3.793 1.682z"/><path fill="#FF6765" d="M576.704 146.637c-1.68-10.49-14.641-22.7-23.94-19.42-.547-9.953-8.188-13.308-15.996-12.059-3.167.505-5.994 1.933-8.327 4.024-4.012-3.617-9.137-5.45-14.357-4.617-8.487 1.357-14.536 9.335-15.168 18.967a15.86 15.86 0 00-2.692.197c-10.157 1.623-16.824 12.729-14.89 24.806 1.933 12.077 11.734 20.551 21.891 18.928a15.947 15.947 0 005.881-2.195c3.381 9.526 11.912 15.699 20.71 14.293 7.099-1.135 12.491-6.901 14.436-14.394 2.589.543 5.307.721 8.081.485l9.701 11.261.539-14.123c9.857-4.928 15.865-15.319 14.131-26.153z"/><path fill="#fff" d="M503.638 153.041v9.417h-3.355v-22.221h3.355v9.435h4.046v-9.435h3.355v22.221h-3.355v-9.417h-4.046zm16.275-7.714l-1.242 8.761h2.484l-1.242-8.761zm-1.762 12.024l-.815 5.107h-3.493l3.78-22.221h4.615l3.727 22.221h-3.527l-.785-5.107h-3.502zm19.776 5.107h-9.14v-22.221h3.354v18.887h5.786v3.334zm11.448 0h-9.141v-22.221h3.355v18.887h5.786v3.334zm9.442-17.255c0-.532-.186-.984-.559-1.357a1.85 1.85 0 00-1.358-.558c-.532 0-.988.186-1.366.558a1.832 1.832 0 00-.568 1.357v12.166c0 .532.189.984.568 1.356.378.373.834.559 1.366.559.533 0 .985-.186 1.358-.559.373-.372.559-.824.559-1.356v-12.166zm-1.828-5.25c1.479 0 2.736.521 3.772 1.561 1.035 1.041 1.553 2.294 1.553 3.76v12.13c0 1.478-.521 2.734-1.562 3.769-1.042 1.034-2.296 1.551-3.763 1.551-1.479 0-2.733-.52-3.763-1.56-1.029-1.04-1.544-2.294-1.544-3.76v-12.13c0-1.478.521-2.734 1.562-3.769 1.041-1.034 2.29-1.552 3.745-1.552zm73.513 103.798c.974-.749 2.305-1.666 3.317-2.172v-.019c-1.425.169-4.686.244-6.766.225 0-.356 0-.974-.018-1.311.412.019 7.608.132 10.682-.599l.15 1.386c-2.231.262-5.098 2.21-6.297 3.164l-1.068-.674zm8.414 9.456c-1.649.3-3.823.431-5.697.431-1.574 0-2.943-.094-3.673-.243-2.268-.506-3.243-1.929-3.243-3.577 0-1.441.806-2.884 1.912-4.007l1.087.562c-1.049 1.086-1.649 2.284-1.649 3.333 0 1.086.731 2.078 2.343 2.434.655.15 1.761.225 3.054.225 1.818 0 3.992-.15 5.773-.506l.093 1.348zm1.985.618c1.387-3.969 3.692-10.598 4.423-12.583.356-1.011.843-2.434.974-2.902l2.024.524c-.093.262-.356.356-.731.356-1.03 2.565-2.623 6.947-3.317 8.819h.019c1.106-1.348 2.792-2.303 4.104-2.303 1.631 0 2.418 1.105 2.362 2.846l-.057 2.228c-.018 1.405.731 2.173 1.95 2.173 1.686 0 3.242-1.929 4.104-5.15.374.263.824.506 1.218.693-1.031 3.577-2.886 5.823-5.379 5.823-1.986 0-3.279-1.198-3.279-3.108 0-.355.056-2.078.056-2.472 0-1.179-.488-1.797-1.312-1.797-2.156 0-4.329 3.127-4.798 4.344-.262.655-.675 1.854-1.03 2.94l-1.331-.431zm25.823-12.452c2.417-.056 5.678-.281 8.172-.712l.11 1.311c-2.323.394-6.09.637-8.245.693l-.037-1.292zm8.676 11.441c-.673.038-1.368.056-2.061.056-1.331 0-2.586-.074-3.486-.206-2.305-.337-3.373-1.61-3.373-3.108 0-1.292.712-2.378 1.761-3.614l1.219.524c-.937.974-1.594 1.873-1.594 2.94 0 2.173 3.187 2.173 5.136 2.173.787 0 1.631-.038 2.419-.094l-.021 1.329zm-11.938-13.688c-.056.206-.243.318-.618.3-.656 3.052-.993 6.404-.993 8.426 0 1.404.056 2.827.243 3.707.357-.917 1.163-2.883 1.425-3.538l.787.823c-.769 1.892-1.331 2.959-1.593 3.801-.094.319-.15.619-.15.881 0 .206.037.393.094.58l-1.331.243c-.6-1.778-.825-3.95-.825-6.441 0-2.453.394-5.88.994-9.119l1.967.337zm28.185 2.397c-2.435.618-5.83 1.011-8.058 1.086-.245 2.341-.58 4.269-.881 4.962 1.461-1.18 3.731-1.985 5.323-1.985 2.791 0 4.497 1.498 4.497 4.026 0 3.727-3.768 4.981-9.857 5.131-.077-.356-.208-.918-.377-1.236 5.381-.112 8.866-1.03 8.866-3.857 0-1.686-1.126-2.847-3.298-2.847-1.669 0-4.535 1.011-5.772 2.865l-1.312-.618c.601-.674 1.219-3.351 1.499-6.422h-4.387v-1.311c.788.019 3.095.019 4.501.019.072-1.068.11-2.266.11-3.39l1.986.187c-.038.319-.262.375-.597.413a69.454 69.454 0 01-.169 2.771c1.985-.056 5.432-.487 7.681-1.142l.245 1.348zm15.104 8.894c-.601-.187-1.236-.337-1.855-.337-1.143 0-2.514.412-2.514 1.592 0 1.049 1.126 1.573 2.494 1.573 1.388 0 1.892-.674 1.892-2.172l-.017-.656zm-5.136-7.359c1.575.019 3.15.038 4.722-.074a210.162 210.162 0 01-.166-4.382l1.893.056c-.021.187-.19.337-.487.393.017 1.199.055 2.416.093 3.839 1.478-.15 2.68-.412 3.671-.749l.17 1.31c-.898.282-2.194.544-3.786.675.067 1.823.142 3.645.225 5.467 1.423.581 2.849 1.499 3.823 2.378l-.732 1.199a11.216 11.216 0 00-3.036-2.135c-.017 1.592-.318 3.371-3.129 3.371-2.194 0-3.655-1.049-3.655-2.697 0-1.91 1.931-2.752 3.655-2.752.58 0 1.198.075 1.782.243-.059-1.179-.169-3.146-.263-4.981-.583.038-1.367.057-1.913.057h-2.85l-.017-1.218zm-4.759 11.029c-.581-1.348-.805-4.138-.805-6.591 0-2.49.39-5.617 1.009-8.745l1.82.357c-.038.187-.225.318-.487.336-.677 2.566-1.088 5.899-1.088 8.071 0 1.423.017 2.846.169 3.539a73.624 73.624 0 011.554-3.801l.843.786c-.618 1.274-1.927 4.12-1.927 5 0 .262.055.543.186.899l-1.274.149zm27.465-188.104v7.856h-2.798V55.3h2.798v7.872h3.374V55.3h2.802v18.54h-2.802v-7.857h-3.374zm14.6-6.54c0-.444-.156-.82-.467-1.132a1.538 1.538 0 00-1.133-.465c-.442 0-.825.155-1.139.465a1.52 1.52 0 00-.473 1.132v10.15c0 .444.155.821.473 1.132.314.31.697.466 1.139.466a1.54 1.54 0 001.133-.466 1.54 1.54 0 00.467-1.132v-10.15zm-1.524-4.38c1.234 0 2.28.435 3.147 1.303.863.868 1.295 1.914 1.295 3.136v10.12c0 1.234-.435 2.282-1.305 3.145-.867.863-1.914 1.294-3.137 1.294-1.236 0-2.283-.434-3.139-1.302-.86-.867-1.288-1.913-1.288-3.136v-10.12c0-1.233.431-2.281 1.302-3.145.867-.862 1.91-1.294 3.125-1.294zm14.541 18.776h-7.626V55.3h2.798v15.758h4.828v2.781zm6.988-14.292l-1.037 7.309h2.073l-1.036-7.31zm-1.472 10.031l-.68 4.261h-2.912l3.154-18.539h3.851l3.108 18.54h-2.943l-.656-4.262h-2.922zm-203.301-2.047c0-.324-.765-.853-2.531-1.617-.441-.147-.676-.323-.676-.441 0-.176.353-.294 1.059-.324.118 0 4.149.5 4.149 1.47 0 .207-.118.442-.118.736l-.029 9.232c.411-.03.882 0 1.324-.059 1.353-.264.735-.823 3.001-.823.588 0 1.677 0 1.677.794 0 .382-.324.735-.853.735l-5.179.118c-.029 5.321-.206 6.645-.5 7.468-.265.559-.588 1-.853 1s-.442-.353-.471-1.324V67.531zm-9.945 17.406c-.03-.558-.706-.823-2.207-1.264-.324-.088-.559-.206-.559-.353s.265-.294.941-.411c1.354 0 2.56.117 3.12.206.529.117.647.294.647.558 0 .206-.059.441-.089.765 0 1.293 0 3.028.03 4.057.029.676.412.941 1.442 1l5.325-.059c2.207-.176 1.148-.853 3.766-.853.971 0 2.207.118 2.207 1 0 .353-.294.647-.794.647h-10.622c-1.971-.03-3.06-.5-3.178-1.97l-.029-3.323zm-6.062-10.144c0 2 1.501 3.97 4.502 3.97 2.943 0 4.414-1.97 4.414-3.97 0-1.97-1.471-3.998-4.414-3.998-3.001 0-4.502 2.028-4.502 3.998zm3.737-5.174c.471-.088.854-.236.854-.588 0-.147-.089-.353-.265-.588-.265-.206-.383-.353-.383-.47 0-.09.118-.148.383-.148.882 0 1.942.5 1.942.94 0 .325-.353.618-.412.971 3.413.794 4.913 2.911 4.913 5.057 0 2.647-2.353 5.234-6.178 5.234-4.061 0-6.444-2.47-6.444-5.234 0-2.293 1.765-4.586 5.59-5.174zm43.018-2.235c-.029-.294-1.235-1.029-2.618-1.646-.295-.089-.824-.265-.824-.441 0-.206.735-.383.912-.383.618 0 4.561.588 4.561 1.53 0 .264-.177.528-.206.91l-.059 8.145c0 4.94-.383 5.822-.971 6.645-.118.176-.235.235-.324.235-.294 0-.471-.676-.471-1.823v-3.47c-1.353.03-2.677.148-3.648.207-.53.117-.588.353-.971.353-.53 0-2.589-.912-2.589-1.176 0-.118.176-.148.5-.148.294 0 1.677.06 2.001.06 1.383 0 2.824-.089 4.707-.207V71.09a57.44 57.44 0 00-3.766.176c-.706.088-.735.383-1.118.383-.441 0-2.383-.735-2.383-1.206 0-.088.118-.147.382-.147.148 0 .324.03.559.059.677.03 1.236.03 1.795.03 1.442 0 2.619-.06 4.531-.148v-2.852zm-8.385 19.023c0 1.941 1.441 3.852 4.325 3.852 2.648 0 3.972-1.91 3.972-3.852 0-1.91-1.324-3.822-3.972-3.822-2.884 0-4.325 1.911-4.325 3.822zm3.619-4.733c.294-.06.47-.265.47-.5 0-.176-.088-.382-.294-.559-.206-.176-.294-.323-.294-.411 0-.118.088-.147.265-.147.53 0 1.795.47 1.795.882 0 .235-.206.47-.265.852 3.266.53 4.767 2.588 4.767 4.675 0 2.47-2.119 4.97-5.797 4.97-3.854 0-5.914-2.5-5.914-4.97 0-2.146 1.589-4.292 4.973-4.704l.294-.088zm-12.299-11.262c0-.558-1.207-.94-2.325-1.264-.294-.088-.618-.206-.618-.382 0-.147.236-.294.913-.47 3.501.176 3.883.529 3.883 1 0 .146-.029.293-.029.47v6.82c-.029.442.118.677.942.677 1.118 0 5.737-1.147 8.856-2.91.265-.118.471-.177.589-.177.058 0 .088 0 .088.059 0 .088-.147.264-.5.558-3.619 2.44-9.386 4.264-10.357 4.264-.854 0-1.236-1.5-1.354-2.117l-.088-6.528z"/><path stroke="#887ACC" stroke-linecap="round" stroke-width="15" d="M68.349 454.587l-57.762 51.064M177.315 514.847l-11.697 53.079-27.933-4.095M243.064 514.545l10.88 53.253 27.992-3.665M366.651 454.587l57.763 51.065"/><g filter="url(#filter0_d)"><rect width="365" height="231" x="34" y="298" fill="#fff" rx="5"/></g><mask id="a" width="365" height="231" x="34" y="298" maskUnits="userSpaceOnUse"><rect width="365" height="231" x="34" y="298" fill="#fff" rx="5"/></mask><g mask="url(#a)"><g filter="url(#filter1_d)"><path fill="url(#paint0_linear)" d="M34 298h365v30H34z"/></g><path fill="#909090" d="M92.7 316.45v-1.925c0-1.183-.5-2.408-1.733-2.408-.584 0-1.209.275-1.434.691V310.5l-.708-.05V317h.708v-3.433c.209-.417.509-.742 1.084-.742.841 0 1.325.683 1.325 1.525V317h.808c-.05-.167-.05-.367-.05-.55zm5.031-.717c-.208.484-.608.692-.991.692-.484 0-.934-.342-.934-1.05v-2.483h2.025v-.642h-2.025v-1.75l-.708-.05v1.8h-.767v.642h.767v2.483c0 1.117.808 1.75 1.65 1.75.617 0 1.258-.325 1.617-1.108l-.634-.284zm5.498 0c-.208.484-.608.692-.991.692-.484 0-.934-.342-.934-1.05v-2.483h2.025v-.642h-2.025v-1.75l-.708-.05v1.8h-.767v.642h.767v2.483c0 1.117.808 1.75 1.65 1.75.617 0 1.258-.325 1.617-1.108l-.634-.284zm4.065-3.616c-.633 0-1.067.225-1.425.733v-.017c0-.216.108-.475.183-.583h-.891v6.467l.708-.05v-2.025c.35.308.817.475 1.342.475 1.316 0 2.191-1.042 2.191-2.625 0-1.5-.775-2.375-2.108-2.375zm-.083 4.325c-.709 0-1.125-.225-1.342-.734v-2.025c.308-.6.825-.941 1.425-.941.85 0 1.4.691 1.4 1.75 0 1.141-.617 1.95-1.483 1.95zm5.815-2.159c-.917-.175-1.334-.391-1.334-.775 0-.433.525-.741 1.25-.741.517 0 .867.158 1.259.575l.45-.45c-.35-.5-.984-.775-1.784-.775-1.108 0-1.841.566-1.841 1.408 0 .742.566 1.175 1.941 1.45.825.167 1.075.317 1.075.633 0 .475-.566.884-1.216.884-.567 0-1.067-.309-1.525-.85l-.475.483c.491.658 1.141 1 1.991 1 1.15 0 1.892-.633 1.892-1.525 0-.717-.483-1.092-1.683-1.317zm4.689-1.1c0 .342.184.525.525.525.334 0 .517-.183.517-.525 0-.333-.183-.516-.517-.516-.333 0-.525.183-.525.516zm0 3.167c0 .342.184.525.525.525.334 0 .517-.183.517-.525 0-.333-.183-.517-.517-.517-.333 0-.525.184-.525.517zm8.182-6.042l-.517-.316-3.792 7.825.509.325 3.8-7.834zm5.498 0l-.517-.316-3.792 7.825.509.325 3.8-7.834z"/><path fill="#292929" d="M134.568 312.117c-.692 0-1.342.291-1.809.8l.425.516c.534-.516.984-.675 1.409-.675.841 0 1.425.625 1.425 1.525v.059a9.907 9.907 0 00-.5-.017c-1.909 0-2.867.492-2.867 1.442 0 .883.833 1.35 1.883 1.35.667-.009 1.242-.284 1.484-.7 0 .216-.109.475-.184.583h.892v-2.717c0-1.266-.9-2.166-2.158-2.166zm-.159 4.4c-.566 0-1.033-.259-1.033-.75 0-.584.667-.817 2.108-.817.167 0 .35 0 .534.008v.767c-.384.533-1.042.792-1.609.792zm7.398-4.4c0 1.366-.225 2.525-.558 3.725-.308-.867-.525-1.559-.667-2.425h-.716c-.159.866-.409 1.558-.734 2.425a14.444 14.444 0 01-.483-3.725h-.708c.025 1.725.358 3.3.75 4.883h.675c.35-.883.641-1.6.825-2.483.166.883.433 1.6.766 2.483h.675c.442-1.583.884-3.158.884-4.883h-.709zm3.957 0c-1.359 0-2.075.891-2.117 2.425v.425c0 1.258.9 2.158 2.158 2.158.692 0 1.342-.292 1.809-.8l-.425-.517c-.534.517-.984.675-1.409.675-.841 0-1.425-.625-1.425-1.516l3.384-.017.016-.408c.059-1.542-.641-2.425-1.991-2.425zm1.233 2.208h-2.633c.041-.975.408-1.583 1.325-1.583.925 0 1.358.566 1.308 1.583zm4.515-.042c-.917-.175-1.333-.391-1.333-.775 0-.433.525-.741 1.25-.741.516 0 .866.158 1.258.575l.45-.45c-.35-.5-.983-.775-1.783-.775-1.109 0-1.842.566-1.842 1.408 0 .742.567 1.175 1.942 1.45.825.167 1.075.317 1.075.633 0 .475-.567.884-1.217.884-.567 0-1.067-.309-1.525-.85l-.475.483c.492.658 1.142 1 1.992 1 1.15 0 1.891-.633 1.891-1.525 0-.717-.483-1.092-1.683-1.317zm5.206 2.842c1.325 0 2.2-1.017 2.2-2.55 0-1.492-.866-2.458-2.2-2.458-1.341 0-2.183.941-2.183 2.458 0 1.55.858 2.55 2.183 2.55zm0-.608c-.841 0-1.35-.734-1.35-1.942 0-1.192.509-1.867 1.35-1.875.875-.008 1.392.658 1.392 1.875 0 1.225-.517 1.942-1.392 1.942zm6.698-4.4c-.541 0-.741.225-.925.708v.042c-.15-.45-.45-.75-.908-.75-.4 0-.608.15-.8.558v-.425h-.708V317h.758c-.05-.167-.05-.367-.05-.55v-3.017c.2-.408.35-.608.608-.608.359 0 .55.308.55.675v3.5h.675v-3.325c0-.092 0-.175-.008-.258.217-.5.4-.675.617-.675.358 0 .55.308.55.675V317h.675v-3.408c0-.842-.192-1.475-1.034-1.475zm4.34 0c-1.358 0-2.075.891-2.117 2.425v.425c0 1.258.9 2.158 2.159 2.158a2.45 2.45 0 001.808-.8l-.425-.517c-.533.517-.983.675-1.408.675-.842 0-1.425-.625-1.425-1.516l3.383-.017.017-.408c.058-1.542-.642-2.425-1.992-2.425zm1.233 2.208h-2.633c.042-.975.408-1.583 1.325-1.583.925 0 1.358.566 1.308 1.583zm4.332-2.208c-.634 0-1.067.225-1.425.733v-2.35l-.709-.05V317h.892a1.015 1.015 0 01-.142-.325c.342.283.792.442 1.3.442 1.317 0 2.192-1.042 2.192-2.625 0-1.5-.775-2.375-2.108-2.375zm-.084 4.325c-.708 0-1.125-.225-1.341-.734v-2.025c.308-.6.825-.941 1.425-.941.85 0 1.4.691 1.4 1.75 0 1.141-.617 1.95-1.484 1.95zm7.415-3.409l.442-.691c-.542-.209-.725-.225-.909-.225-.366 0-1.116.058-1.45.691 0-.108.075-.466.134-.558h-1.75v.525l.975.058v3.584h-1.475V317h3.616c-.05-.167-.05-.367-.05-.55v-.033h-1.408v-2.725c.167-.717 1.058-1.1 1.875-.659zm3.556 4.092c1.325 0 2.2-1.017 2.2-2.55 0-1.492-.866-2.458-2.2-2.458-1.341 0-2.183.941-2.183 2.458 0 1.55.858 2.55 2.183 2.55zm0-.608c-.841 0-1.35-.734-1.35-1.942 0-1.192.509-1.867 1.35-1.875.875-.008 1.392.658 1.392 1.875 0 1.225-.517 1.942-1.392 1.942zm7.082-4.4c0 1.366-.225 2.525-.558 3.725-.309-.867-.525-1.559-.667-2.425h-.717c-.158.866-.408 1.558-.733 2.425a14.444 14.444 0 01-.483-3.725h-.709c.025 1.725.359 3.3.75 4.883h.675c.35-.883.642-1.6.825-2.483.167.883.434 1.6.767 2.483h.675c.442-1.583.883-3.158.883-4.883h-.708zm4.206 2.166c-.916-.175-1.333-.391-1.333-.775 0-.433.525-.741 1.25-.741.517 0 .867.158 1.258.575l.45-.45c-.35-.5-.983-.775-1.783-.775-1.108 0-1.842.566-1.842 1.408 0 .742.567 1.175 1.942 1.45.825.167 1.075.317 1.075.633 0 .475-.567.884-1.217.884-.566 0-1.066-.309-1.525-.85l-.475.483c.492.658 1.142 1 1.992 1 1.15 0 1.892-.633 1.892-1.525 0-.717-.484-1.092-1.684-1.317zm4.69 2.317c0 .342.183.525.525.525.333 0 .517-.183.517-.525 0-.333-.184-.517-.517-.517s-.525.184-.525.517zm6.056-4.483c-1.358 0-2.075.891-2.116 2.425v.425c0 1.258.9 2.158 2.158 2.158.692 0 1.342-.292 1.808-.8l-.425-.517c-.533.517-.983.675-1.408.675-.842 0-1.425-.625-1.425-1.516l3.383-.017.017-.408c.058-1.542-.642-2.425-1.992-2.425zm1.234 2.208h-2.634c.042-.975.409-1.583 1.325-1.583.925 0 1.359.566 1.309 1.583zm6.164-1.292l.442-.691c-.542-.209-.725-.225-.908-.225-.367 0-1.117.058-1.45.691 0-.108.075-.466.133-.558h-1.75v.525l.975.058v3.584h-1.475V317h3.617c-.05-.167-.05-.367-.05-.55v-.033h-1.409v-2.725c.167-.717 1.059-1.1 1.875-.659z"/><path fill="#34C749" fill-rule="evenodd" d="M74 317a4 4 0 100-8 4 4 0 000 8z" clip-rule="evenodd"/><path fill="#FDBC40" fill-rule="evenodd" d="M61 317a4 4 0 100-8 4 4 0 000 8z" clip-rule="evenodd"/><path fill="#FC605C" fill-rule="evenodd" d="M48 317a4 4 0 100-8 4 4 0 000 8z" clip-rule="evenodd"/><ellipse cx="160.5" cy="445.5" fill="#333" rx="12.5" ry="31.5"/><ellipse cx="271.5" cy="445.5" fill="#333" rx="12.5" ry="31.5"/></g><ellipse cx="435.5" cy="237" fill="#fff" rx="29.5" ry="21"/><ellipse cx="380" cy="269.5" fill="#fff" rx="19" ry="14.5"/><defs><filter id="filter0_d" width="379" height="245" x="27" y="291" color-interpolation-filters="sRGB" filterUnits="userSpaceOnUse"><feFlood flood-opacity="0" result="BackgroundImageFix"/><feColorMatrix in="SourceAlpha" values="0 0 0 0 0 0 0 0 0 0 0 0 0 0 0 0 0 0 127 0"/><feOffset/><feGaussianBlur stdDeviation="3.5"/><feColorMatrix values="0 0 0 0 0 0 0 0 0 0 0 0 0 0 0 0 0 0 0.2 0"/><feBlend in2="BackgroundImageFix" result="effect1_dropShadow"/><feBlend in="SourceGraphic" in2="effect1_dropShadow" result="shape"/></filter><filter id="filter1_d" width="369" height="34" x="32" y="296" color-interpolation-filters="sRGB" filterUnits="userSpaceOnUse"><feFlood flood-opacity="0" result="BackgroundImageFix"/><feColorMatrix in="SourceAlpha" values="0 0 0 0 0 0 0 0 0 0 0 0 0 0 0 0 0 0 127 0"/><feOffset/><feGaussianBlur stdDeviation="1"/><feColorMatrix values="0 0 0 0 0 0 0 0 0 0 0 0 0 0 0 0 0 0 0.15 0"/><feBlend in2="BackgroundImageFix" result="effect1_dropShadow"/><feBlend in="SourceGraphic" in2="effect1_dropShadow" result="shape"/></filter><linearGradient id="paint0_linear" x1="34" x2="34" y1="298" y2="328" gradientUnits="userSpaceOnUse"><stop stop-color="#fff"/><stop offset="1" stop-color="#FAFBFC"/></linearGradient></defs></svg>
