<svg xmlns="http://www.w3.org/2000/svg" fill="none" viewBox="0 0 1075 290"><path fill="#000" d="M358.316 153.073V43.158h12.109v109.915h-12.109ZM407.373 153.073h-11.798V73.586h11.798v5.59c8.694-4.658 16.767-7.142 24.529-7.142 10.557 0 17.698 2.794 21.424 8.694 3.726 5.589 5.589 15.835 5.589 30.428v41.917h-11.799v-41.606c0-10.868-1.241-18.63-3.104-22.666-2.174-4.037-6.831-6.21-13.973-6.21-3.415 0-6.83.62-10.867 1.552-3.726.932-6.52 1.863-8.694 2.795l-3.105 1.552v64.583ZM521.324 84.143h-25.15v37.88c0 9.005.621 15.215 1.863 18.009 1.242 2.794 4.347 4.347 9.315 4.347l13.972-.932.932 9.936c-7.142 1.242-12.42 1.863-16.146 1.863-8.383 0-13.972-1.863-17.077-5.899-3.105-4.037-4.657-11.799-4.657-22.977V84.143h-11.178V73.897h11.178V49.68h11.798v24.218h25.15v10.246ZM589.943 143.137l4.657-.621.31 9.315c-12.109 1.552-22.355 2.484-31.049 2.484-11.488 0-19.561-3.416-24.218-9.936-4.658-6.521-7.142-16.767-7.142-30.739 0-27.944 11.178-41.606 33.223-41.606 10.557 0 18.63 3.105 23.908 9.004 5.278 5.9 8.073 15.525 8.073 28.255l-.621 9.004h-52.473c0 8.694 1.552 15.215 4.657 19.561 3.105 4.347 8.694 6.21 16.456 6.21 8.073 0 16.146-.31 24.219-.931Zm-4.347-34.465c0-9.625-1.553-16.456-4.658-20.492-3.105-4.037-8.073-5.9-15.214-5.9s-12.42 2.174-15.835 6.21c-3.415 4.347-5.278 10.867-5.589 20.182h41.296ZM616.024 153.073V73.586h11.799v10.868c9.315-6.21 18.94-10.557 29.186-12.42v12.11c-4.346.93-9.004 2.173-13.972 4.036-4.968 1.863-8.383 3.415-11.177 4.657l-4.037 2.173v58.063h-11.799ZM671.913 153.073V39.122h11.799v113.951h-11.799ZM761.645 143.137l4.657-.621.311 9.315c-12.109 1.552-22.356 2.484-31.049 2.484-11.489 0-19.561-3.416-24.219-9.936-4.657-6.521-7.141-16.767-7.141-30.739 0-27.944 11.178-41.606 33.223-41.606 10.556 0 18.629 3.105 23.907 9.004 5.279 5.9 8.073 15.525 8.073 28.255l-.621 9.004h-52.473c0 8.694 1.553 15.215 4.657 19.561 3.105 4.347 8.694 6.21 16.457 6.21 8.072 0 16.145-.31 24.218-.931Zm-4.347-34.465c0-9.625-1.552-16.456-4.657-20.492-3.105-4.037-8.073-5.9-15.214-5.9-7.142 0-12.42 2.174-15.836 6.21-3.415 4.347-5.278 10.867-5.588 20.182h41.295ZM848.583 39.122v113.951h-11.798v-5.279c-8.073 4.658-16.146 6.831-24.219 6.831-4.347 0-8.073-.621-11.178-1.552-3.105-.932-6.21-3.105-9.004-5.589-5.589-5.589-8.694-16.146-8.694-31.67 0-15.525 2.484-26.392 7.763-33.223 5.278-6.83 13.661-10.246 25.46-10.246 6.21 0 12.73.62 19.561 2.173V39.122h12.109Zm-40.985 103.704c1.863.621 4.347 1.242 7.452 1.242 3.105 0 6.52-.621 10.246-1.552 3.726-.932 6.831-1.863 8.694-2.794l3.105-1.553V84.454c-6.831-1.242-13.041-1.863-18.94-1.863-8.073 0-13.662 2.484-16.767 7.762-3.105 5.279-4.657 13.041-4.657 23.908 0 12.42 1.863 20.493 5.589 24.84 1.552 1.552 3.105 3.104 5.278 3.725ZM902.297 190.332c-12.73 0-21.424-1.863-26.702-5.279-4.968-3.415-7.452-9.625-7.452-18.94 0-4.347.932-7.762 2.795-10.557 1.863-2.794 5.278-5.588 9.625-9.004-3.105-1.863-4.347-5.589-4.347-10.867 0-1.863 1.242-5.278 4.036-9.936l1.553-2.484c-8.383-3.726-12.42-11.798-12.42-23.908 0-18.008 9.936-27.013 29.808-27.013 4.967 0 9.935.622 13.972 1.553l2.484.62 23.597-.62v10.246l-15.214-.31c3.415 3.415 5.278 8.694 5.278 15.835 0 9.936-2.484 16.766-7.452 20.803-4.967 4.036-12.73 5.899-23.286 5.899-2.795 0-5.589-.31-7.763-.621-1.863 4.658-2.794 7.763-2.794 9.004 0 3.416.931 5.279 3.105 6.21 1.863.932 8.073 1.242 18.319 1.242 10.246 0 17.387 1.553 22.045 4.658 4.657 3.105 6.52 9.314 6.52 18.629-.31 16.456-12.109 24.84-35.707 24.84Zm-22.355-24.84c0 5.589 1.552 9.626 4.657 11.799s9.005 3.105 17.388 3.105c8.383 0 14.593-1.242 18.008-3.416 3.416-2.173 5.589-6.209 5.589-11.798s-1.242-9.005-4.036-10.557c-2.794-1.552-7.762-2.484-15.525-2.484l-17.077-.931c-3.415 2.484-5.899 4.657-7.141 6.52-1.242 2.484-1.863 4.657-1.863 7.762Zm1.242-66.135c0 6.21 1.552 10.557 4.347 13.352 2.794 2.794 7.452 4.036 13.972 4.036s11.178-1.242 13.662-4.036c2.794-2.795 4.036-7.142 4.036-13.352s-1.242-10.867-4.036-13.35c-2.795-2.795-7.452-4.037-13.662-4.037-6.52 0-11.178 1.242-13.972 4.036-3.105 2.484-4.347 7.141-4.347 13.351ZM1007.24 143.137l4.66-.621.31 9.315c-12.11 1.552-22.353 2.484-31.046 2.484-11.489 0-19.561-3.416-24.219-9.936-4.657-6.521-7.141-16.767-7.141-30.739 0-27.944 11.178-41.606 33.223-41.606 10.556 0 18.633 3.105 23.903 9.004 5.28 5.9 8.08 15.525 8.08 28.255l-.62 9.004h-52.477c0 8.694 1.552 15.215 4.657 19.561 3.105 4.347 8.694 6.21 16.457 6.21 8.072 0 16.145-.31 24.213-.931Zm-4.34-34.465c0-9.625-1.55-16.456-4.659-20.492-3.105-4.037-8.073-5.9-15.214-5.9-7.142 0-12.42 2.174-15.836 6.21-3.415 4.347-5.278 10.867-5.588 20.182h41.297ZM1033.33 153.073V73.586h11.79v10.868c9.32-6.21 18.94-10.557 29.19-12.42v12.11c-4.35.93-9 2.173-13.97 4.036-4.97 1.863-8.38 3.415-11.18 4.657l-4.04 2.173v58.063h-11.79Z"/><path fill="#815281" d="M97.19 248.394c-21.423-10.557-39.121-27.013-50.299-47.505-18.94-13.351-33.533-32.602-40.985-54.957C2.491 156.799.628 168.597.628 180.396c0 27.634 10.246 52.473 27.012 71.724 5.9 6.52 12.42 12.73 19.562 17.698C65.21 282.548 87.255 290 111.163 290c12.73 0 24.839-2.173 36.328-6.21-20.182-6.831-37.57-19.25-50.3-35.396Z"/><path fill="#8075B2" d="M196.859 247.773c.31 0 .31 0 0 0-15.215 7.452-31.981 11.488-49.99 11.799-18.008 0-34.775-4.037-49.989-11.178h-.31c13.04 16.146 30.117 28.565 50.299 35.396 20.182-7.141 37.259-19.871 49.99-36.017Z"/><path fill="#A2BDDB" d="M97.191 248.394c15.214 7.141 31.981 11.178 49.989 11.178 18.009 0 34.776-4.347 49.99-11.799-17.698-4.036-34.465-10.246-49.99-18.629a211.166 211.166 0 0 1-49.989 19.25Z"/><path fill="#56B6B4" d="M287.213 144.379c3.726 10.867 5.589 22.356 5.589 34.465 0 27.634-9.626 52.783-26.392 72.034-5.589 6.831-12.109 12.73-19.251 18.009-18.008 13.04-40.053 20.803-63.651 20.803-12.73 0-24.839-2.174-36.327-5.9 19.871-7.141 36.948-19.561 49.679-36.017 21.113-10.557 38.501-27.323 49.678-47.816 18.94-13.972 33.223-33.223 40.675-55.578Z"/><path fill="#2E9B85" d="M246.538 89.422c9.005 16.146 13.972 34.775 14.283 54.647 0 20.182-4.968 39.122-13.972 55.578 18.629-13.662 32.912-32.912 40.364-55.578-7.452-22.045-22.045-41.296-40.675-54.647Z"/><path fill="#80D3BD" d="M246.848 199.647c9.005-16.456 13.972-35.396 13.972-55.578 0-19.872-5.278-38.501-14.282-54.647-3.416 19.561-9.625 38.191-18.319 55.268 8.694 17.077 15.214 35.396 18.629 54.957Z"/><path fill="#97E0CF" d="M228.219 144.689c-2.794 5.589-5.899 11.178-9.315 16.457-14.282 22.665-33.223 42.227-55.578 57.441-5.278 3.726-10.867 7.141-16.456 10.246 15.525 8.383 32.291 14.593 49.989 18.629 21.114-10.556 38.501-27.323 49.679-47.815-3.105-19.561-9.625-37.88-18.319-54.958Z"/><path fill="#FF7A7F" d="M45.65 90.664C57.137 69.24 74.835 52.163 96.26 41.606 108.99 25.46 126.067 13.04 145.627 6.21 134.14 2.173 122.03.31 109.3.31c-24.218 0-46.263 8.073-64.272 21.424-6.52 4.658-12.73 10.247-18.008 16.456C9.943 57.752-.304 83.213.007 111.156c0 12.109 2.173 23.598 5.589 34.465 7.452-22.356 21.734-41.606 40.053-54.957Z"/><path fill="#E7666D" d="M46.581 200.889c-9.004-16.456-14.283-35.397-14.283-55.579 0-19.871 4.968-38.501 13.662-54.957-18.63 13.662-32.602 32.912-40.053 55.268 7.451 22.666 22.045 41.916 40.674 55.268Z"/><path fill="#FFA5B1" d="M45.96 90.353c-9.004 16.456-13.662 35.086-13.662 54.957 0 20.182 5.279 39.123 14.594 55.268 3.415-19.561 9.625-38.19 18.008-55.268-9.004-16.766-15.524-35.396-18.94-54.957Z"/><path fill="#FFD0D0" d="M130.414 218.897c-22.356-14.903-41.606-34.464-56.2-57.13-3.415-5.279-6.52-10.867-9.625-16.456-8.694 17.077-14.903 35.706-18.008 55.267 11.488 20.493 29.186 37.259 50.3 47.506h.31c17.698-4.347 34.465-10.868 49.679-19.251-5.589-2.794-11.178-6.21-16.456-9.936Z"/><path fill="#68C080" d="M145.628 6.21C157.116 2.173 169.226 0 181.956 0c24.218 0 46.574 7.452 64.893 20.803 6.52 4.657 12.419 10.246 18.008 16.146 17.077 19.25 27.634 44.71 27.945 72.655 0 12.109-1.863 23.597-5.279 34.465-7.452-22.356-21.734-41.296-40.674-54.647-11.488-21.114-29.497-37.88-51.231-48.127C182.577 25.15 165.5 13.041 145.628 6.21Z"/><path fill="#FF9752" d="M96.26 41.606c14.903-7.452 31.67-11.488 49.368-11.488s34.464 3.726 49.679 10.867C182.576 25.15 165.189 12.73 145.628 6.21 126.067 13.35 108.99 25.77 96.26 41.606Z"/><path fill="#FFB884" d="M145.938 60.546c15.214-8.694 31.981-15.214 49.369-19.25-14.904-7.142-31.981-11.178-49.679-10.868-17.698 0-34.465 4.347-49.368 11.489 17.698 4.036 34.464 10.246 49.678 18.63Z"/><path fill="#C4E2A0" d="M145.938 60.546c5.9 3.105 11.489 6.52 17.077 10.246 22.045 15.215 40.985 34.465 55.579 57.131 3.415 5.278 6.52 10.867 9.625 16.767 8.694-17.077 14.903-35.707 18.319-55.268-11.488-21.114-29.497-37.88-51.231-48.126-17.388 4.036-33.844 10.867-49.369 19.25Z"/><path fill="#EEC9A7" d="M64.9 145.621a225.937 225.937 0 0 1 9.315-16.767c14.282-22.665 32.912-42.537 54.957-57.751 5.278-3.726 11.178-7.141 16.766-10.557-15.524-8.383-31.98-14.904-49.678-18.94-21.424 10.557-39.122 27.634-50.3 48.747 3.415 19.561 9.936 38.191 18.94 55.268Z"/><path fill="#fff" d="M163.016 70.792c-5.589-3.726-11.178-7.141-17.077-10.246-5.9 3.105-11.488 6.83-16.767 10.557-22.045 15.214-40.674 35.085-54.957 57.751a145.454 145.454 0 0 0-9.315 16.767c2.795 5.589 6.21 11.178 9.625 16.456 14.594 22.666 33.844 42.227 56.2 57.131 5.278 3.726 10.867 6.831 16.456 9.935 5.589-3.104 11.177-6.52 16.456-10.246 22.045-15.214 40.985-34.775 55.578-57.441 3.415-5.278 6.52-10.867 9.315-16.456-2.795-5.589-6.21-11.178-9.626-16.767-14.903-22.666-33.843-42.227-55.888-57.44Z"/><path fill="#000" d="M358.723 263.669V208.37h34.309v7.831h-25.349v18.648h21.07v7.83h-21.07v20.99h-8.96ZM410.743 251.963c1.83 3.175 5.328 4.763 10.495 4.763 5.166 0 8.638-1.561 10.414-4.682 1.829-3.122 2.744-8.342 2.744-15.661 0-7.374-.941-12.729-2.825-16.065-1.83-3.337-5.274-5.005-10.333-5.005s-8.531 1.668-10.414 5.005c-1.884 3.336-2.826 8.665-2.826 15.984 0 7.265.915 12.486 2.745 15.661Zm27.932 5.813c-3.283 4.52-9.095 6.781-17.437 6.781s-14.182-2.261-17.518-6.781c-3.337-4.575-5.005-11.733-5.005-21.474s1.668-16.98 5.005-21.716c3.39-4.736 9.23-7.104 17.518-7.104s14.1 2.368 17.437 7.104c3.337 4.682 5.005 11.921 5.005 21.716 0 9.795-1.668 16.953-5.005 21.474ZM462.671 245.989c0 7.158 3.768 10.737 11.302 10.737 7.535 0 11.302-3.579 11.302-10.737V208.37h9.042v37.458c0 6.512-1.722 11.275-5.167 14.289-3.39 2.96-8.476 4.44-15.257 4.44-6.728 0-11.787-1.48-15.177-4.44-3.391-3.014-5.086-7.777-5.086-14.289V208.37h9.041v37.619ZM506.619 263.669V208.37h15.661l16.792 47.387h1.211V208.37h8.96v55.299h-15.338l-17.195-47.468h-1.13v47.468h-8.961ZM581.094 263.669h-19.132V208.37h19.132c8.504 0 14.316 2.153 17.438 6.458 3.121 4.306 4.682 11.06 4.682 20.263 0 4.682-.323 8.665-.969 11.948-.592 3.229-1.668 6.162-3.229 8.799-3.068 5.22-9.042 7.831-17.922 7.831Zm12.836-28.578c0-6.674-.834-11.49-2.502-14.45-1.669-2.96-5.113-4.44-10.334-4.44h-10.171v39.556h10.171c5.328 0 8.88-1.964 10.656-5.893a22.717 22.717 0 0 0 1.696-6.377c.323-2.261.484-5.059.484-8.396ZM607.969 263.669l13.643-55.299h17.841l13.724 55.299h-9.042l-2.987-11.867h-21.231l-2.987 11.867h-8.961Zm20.586-47.791-6.862 28.012h17.679l-6.781-28.012h-4.036ZM652.419 216.362v-7.992h40.365v7.992h-15.581v47.307h-9.042v-47.307h-15.742ZM700.24 263.669V208.37h8.961v55.299h-8.961ZM731.527 251.963c1.83 3.175 5.328 4.763 10.494 4.763 5.167 0 8.638-1.561 10.414-4.682 1.83-3.122 2.745-8.342 2.745-15.661 0-7.374-.942-12.729-2.825-16.065-1.83-3.337-5.275-5.005-10.334-5.005-5.059 0-8.53 1.668-10.414 5.005-1.883 3.336-2.825 8.665-2.825 15.984 0 7.265.915 12.486 2.745 15.661Zm27.932 5.813c-3.283 4.52-9.096 6.781-17.438 6.781-8.342 0-14.181-2.261-17.518-6.781-3.336-4.575-5.005-11.733-5.005-21.474s1.669-16.98 5.005-21.716c3.391-4.736 9.23-7.104 17.518-7.104s14.101 2.368 17.438 7.104c3.336 4.682 5.005 11.921 5.005 21.716 0 9.795-1.669 16.953-5.005 21.474ZM774.898 263.669V208.37h15.661l16.791 47.387h1.211V208.37h8.961v55.299h-15.338l-17.195-47.468h-1.13v47.468h-8.961Z"/></svg>
