<svg xmlns="http://www.w3.org/2000/svg" fill="none" viewBox="0 0 2216 1735"><path stroke="#828081" stroke-width="30" d="M199.427 202.125V1598.57s39.809 99.38 151.871 99.38c112.063 0 148.129-99.38 148.129-99.38V122.391S540.236 15 650.455 15c110.218 0 148.972 107.391 148.972 107.391l-.004 1476.179s30.407 99.38 150 99.38c119.597 0 149.997-99.38 149.997-99.38V122.391S1138.52 15 1249.42 15c110.91 0 150 107.391 150 107.391V1598.57s39.13 99.38 153.16 99.38 145-99.38 145-99.38V122.391S1736.41 15 1856.45 15c120.05 0 159.39 107.391 159.39 107.391V1697.95"/><path fill="#828081" fill-rule="evenodd" d="M2064.08 1604.94h-96.14l48.07 129.11 48.07-129.11z" clip-rule="evenodd"/><rect width="399.003" height="371.196" y="155.732" fill="#4ABC41" rx="50"/><rect width="399.003" height="572.047" x="600" y="155.688" fill="#4ABC41" rx="50"/><rect width="399.003" height="433.829" y="1139.91" fill="#4ABC41" rx="50"/><rect width="399.003" height="786.313" x="600" y="787.281" fill="#4ABC41" rx="50"/><rect width="399.003" height="478.639" y="594.732" fill="#4ABC41" rx="50"/><rect width="399.003" height="299.252" x="1816" y="834.723" fill="#4ABC41" rx="50"/><rect width="399.003" height="299.252" x="1816" y="495.103" fill="#4ABC41" rx="50"/><rect width="399.003" height="299.252" x="1816" y="155.482" fill="#4ABC41" rx="50"/><rect width="399.003" height="399.003" x="1816.42" y="1174.59" fill="#4ABC41" rx="50"/><rect width="399.003" height="399.003" x="1200" y="155.732" fill="#4ABC41" rx="50"/><rect width="399.003" height="494.815" x="1200" y="617.162" fill="#4ABC41" rx="50"/><rect width="399.003" height="399.003" x="1200" y="1174.59" fill="#4ABC41" rx="50"/></svg>