<svg xmlns="http://www.w3.org/2000/svg" fill="none" viewBox="0 0 5104 1735"><path stroke="#828081" stroke-width="30" d="M2420.19 1483.2H114.375S15 1452.79 15 1333.2s99.375-150 99.375-150H2365.71s107.39-39.09 107.39-150c0-110.907-107.39-150.001-107.39-150.001H114.375S15 844.074 15 730.043s99.375-145 99.375-145H2365.71s107.39-38.828 107.39-158.875-107.39-159.387-107.39-159.387H15"/><path fill="#828081" fill-rule="evenodd" d="M2380.1 1531.43v-96.13l129.1 48.07-129.1 48.06z" clip-rule="evenodd"/><rect width="399.003" height="742.393" fill="#A50104" rx="50" transform="matrix(0 1 1 0 184.263 67.357)"/><rect width="399.003" height="399.003" fill="#A50104" rx="50" transform="matrix(0 1 1 0 1037.08 67.357)"/><rect width="399.003" height="568.407" fill="#A50104" rx="50" transform="matrix(0 1 1 0 186.484 667.357)"/><rect width="399.003" height="786.313" fill="#A50104" rx="50" transform="matrix(0 1 1 0 1545.58 67.357)"/><rect width="399.003" height="399.003" fill="#A50104" rx="50" transform="matrix(0 1 1 0 186.888 1283.78)"/><rect width="399.003" height="1102.33" fill="#A50104" rx="50" transform="matrix(0 1 1 0 708.062 1283.78)"/><rect width="399.003" height="399.003" fill="#A50104" rx="50" transform="matrix(0 1 1 0 1932.89 1283.78)"/><rect width="399.003" height="399.003" fill="#A50104" rx="50" transform="matrix(0 1 1 0 849.555 667.357)"/><rect width="399.003" height="494.815" fill="#A50104" rx="50" transform="matrix(0 1 1 0 1343.22 667.357)"/><rect width="399.003" height="399.003" fill="#A50104" rx="50" transform="matrix(0 1 1 0 1932.89 667.357)"/><path stroke="#828081" stroke-width="30" d="M3087.43 202.125V1598.57s39.81 99.38 151.87 99.38 148.13-99.38 148.13-99.38V122.391S3428.24 15 3538.45 15c110.22 0 148.98 107.391 148.98 107.391l-.01 1476.179s30.41 99.38 150 99.38c119.6 0 150-99.38 150-99.38V122.391S4026.52 15 4137.42 15c110.91 0 150 107.391 150 107.391V1598.57s39.13 99.38 153.16 99.38 145-99.38 145-99.38V122.391S4624.41 15 4744.45 15c120.05 0 159.39 107.391 159.39 107.391V1697.95"/><path fill="#828081" fill-rule="evenodd" d="M4952.08 1604.94h-96.14l48.07 129.11 48.07-129.11z" clip-rule="evenodd"/><rect width="399.003" height="371.196" x="2888" y="155.732" fill="#A50104" rx="50"/><rect width="399.003" height="572.047" x="3488" y="155.688" fill="#A50104" rx="50"/><rect width="399.003" height="433.829" x="2888" y="1139.91" fill="#A50104" rx="50"/><rect width="399.003" height="786.313" x="3488" y="787.281" fill="#A50104" rx="50"/><rect width="399.003" height="478.639" x="2888" y="594.732" fill="#A50104" rx="50"/><rect width="399.003" height="299.252" x="4704" y="834.723" fill="#A50104" rx="50"/><rect width="399.003" height="299.252" x="4704" y="495.103" fill="#A50104" rx="50"/><rect width="399.003" height="299.252" x="4704" y="155.482" fill="#A50104" rx="50"/><rect width="399.003" height="399.003" x="4704.42" y="1174.59" fill="#A50104" rx="50"/><rect width="399.003" height="399.003" x="4088" y="155.732" fill="#A50104" rx="50"/><rect width="399.003" height="494.815" x="4088" y="617.162" fill="#A50104" rx="50"/><rect width="399.003" height="399.003" x="4088" y="1174.59" fill="#A50104" rx="50"/></svg>