<svg xmlns="http://www.w3.org/2000/svg" fill="none" viewBox="0 0 2792 2041"><g fill="#828081"><path d="M256 32h40v1863h-40z"/><path fill-rule="evenodd" d="M344.34 1855.06H206.218l69.061 185.5 69.061-185.5z" clip-rule="evenodd"/></g><g fill="#828081"><path d="M783 32h40v1863h-40z"/><path fill-rule="evenodd" d="M871.34 1855.06H733.218l69.061 185.5 69.061-185.5z" clip-rule="evenodd"/></g><g fill="#828081"><path d="M1283 32h40v1863h-40z"/><path fill-rule="evenodd" d="M1371.34 1855.06h-138.12l69.06 185.5 69.06-185.5z" clip-rule="evenodd"/></g><g fill="#828081"><path d="M1827 32h40v1863h-40z"/><path fill-rule="evenodd" d="M1915.34 1855.06h-138.12l69.06 185.5 69.06-185.5z" clip-rule="evenodd"/></g><g fill="#828081"><path d="M2318 32h40v1863h-40z"/><path fill-rule="evenodd" d="M2406.34 1855.06h-138.12l69.06 185.5 69.06-185.5z" clip-rule="evenodd"/></g><g fill="#828081"><path d="M122 293h2538v40H122z"/><path fill-rule="evenodd" d="M2606.06 244.218V382.34l185.5-69.061-185.5-69.061z" clip-rule="evenodd"/></g><g fill="#828081"><path d="M122 889h2538v40H122z"/><path fill-rule="evenodd" d="M2606.06 840.218V978.34l185.5-69.061-185.5-69.061z" clip-rule="evenodd"/></g><g fill="#828081"><path d="M122 1490h2538v40H122z"/><path fill-rule="evenodd" d="M2606.06 1441.22v138.12l185.5-69.06-185.5-69.06z" clip-rule="evenodd"/></g><rect width="551" height="585" fill="#A50104" rx="50"/><rect width="899" height="585" x="658" fill="#A50104" rx="50"/><rect width="377" height="585" x="2148" y="10" fill="#A50104" rx="50"/><rect width="377" height="1081" x="2149" y="705" fill="#A50104" rx="50"/><rect width="377" height="1115" x="1664" y="10" fill="#A50104" rx="50"/><rect width="1547" height="420" y="700" fill="#A50104" rx="50"/><rect width="909" height="551" y="1235" fill="#A50104" rx="50"/><rect width="1023" height="551" x="1012" y="1235" fill="#A50104" rx="50"/></svg>