<svg xmlns="http://www.w3.org/2000/svg" fill="none" viewBox="0 0 640 587"><path fill="#fff" fill-rule="evenodd" stroke="#a50104" stroke-linecap="square" stroke-width="3" d="M146.046 57.415c.823-.878-24.198-38.01-28.176-39.384-3.978-1.375-86.045-1.375-87.531 0-.72.666 9.413 14.451 12.236 19.372 3.003 5.235 10.253 20.012 10.912 20.012 1.277 0 91.737.879 92.559 0z" clip-rule="evenodd"/><path stroke="#000" stroke-linecap="round" stroke-width="5" d="M148.936 83.003s7.594-2.756 9.295-8.42c1.701-5.664 0-16.777 0-16.777M85.69 118.365s-5.362 3.377-6.895 6.359c-1.532 2.983-.986 9.955-.986 9.955l-7.646 2.822M105.436 118.365s5.362 3.377 6.895 6.359c1.532 2.983.986 9.955.986 9.955l7.646 2.822"/><path fill="#fff" stroke="#a50104" stroke-width="3" d="M53.302 57.825l.03-.136c.12-.02.261-.04.426-.062.727-.095 1.773-.185 3.11-.267 2.666-.163 6.39-.291 10.832-.387 8.877-.191 20.555-.252 32.22-.21 11.665.04 23.305.181 32.103.393 4.401.106 8.081.23 10.693.365a67.527 67.527 0 0 1 3.22.23c.071.48.146 1.146.223 1.991.167 1.82.335 4.37.492 7.424.314 6.104.582 14.166.708 22.294.126 8.132.11 16.309-.14 22.649-.126 3.174-.309 5.858-.557 7.835-.124.992-.261 1.768-.404 2.324a4.315 4.315 0 0 1-.176.562 6.403 6.403 0 0 1-.813.224c-.75.166-1.805.328-3.145.482-2.673.307-6.348.565-10.712.773-8.721.415-20.098.623-31.506.623-11.408 0-22.824-.208-31.622-.623-4.402-.208-8.127-.466-10.859-.773-1.369-.154-2.458-.317-3.247-.485a7.702 7.702 0 0 1-.885-.232 2.307 2.307 0 0 1-.106-.039 3.667 3.667 0 0 1-.223-.578c-.168-.539-.332-1.298-.484-2.275-.303-1.949-.535-4.601-.7-7.746-.33-6.281-.39-14.39-.267-22.477.122-8.084.426-16.118.819-22.244.196-3.066.414-5.635.64-7.486.112-.93.224-1.65.33-2.15zm.144-.547a.14.14 0 0 1 .011-.026l-.01.026z"/><path stroke="#000" stroke-linecap="round" stroke-width="4" d="M88.53 100.052s7.227 4.646 11.085 4.646c3.857 0 11.085-4.646 11.085-4.646M86.69 83.003v4.5M112.2 83.003v4.5"/><path fill="#fff" fill-rule="evenodd" stroke="#a50104" stroke-linecap="square" stroke-width="3" d="M30.364 19.671c-2.184.94 0 66.578 0 66.578s21.425 37.482 22.4 36.059c.977-1.424 0-12.137 0-30.175 0-18.037.944-34.548.944-34.548S32.548 18.732 30.364 19.67z" clip-rule="evenodd"/><path stroke="#a50104" stroke-linecap="square" stroke-width="3" d="M41.679 36.548h90.527"/><path stroke="#000" stroke-linecap="round" stroke-width="5" d="M40.544 76.907s-8.263-3.072-11.944-8.03C24.92 63.922 18 55.25 18 55.25"/><path stroke="#ffbe3d" stroke-dasharray="18" stroke-width="6" d="M3 3h634v581H3z"/><path fill="#fff" fill-rule="evenodd" stroke="#a50104" stroke-linecap="square" stroke-width="3" d="M357.046 57.415c.823-.878-24.198-38.01-28.176-39.384-3.978-1.375-86.045-1.375-87.531 0-.72.666 9.413 14.451 12.236 19.372 3.003 5.235 10.253 20.012 10.912 20.012 1.277 0 91.737.879 92.559 0z" clip-rule="evenodd"/><path stroke="#000" stroke-linecap="round" stroke-width="5" d="M359.936 83.003s7.594-2.756 9.295-8.42c1.701-5.664 0-16.777 0-16.777M296.69 118.365s-5.362 3.377-6.895 6.359c-1.532 2.983-.986 9.955-.986 9.955l-7.646 2.822M316.436 118.365s5.362 3.377 6.895 6.359c1.532 2.983.986 9.955.986 9.955l7.646 2.822"/><path fill="#fff" stroke="#a50104" stroke-width="3" d="M264.302 57.825l.03-.136c.12-.02.261-.04.426-.062.728-.095 1.773-.185 3.11-.267 2.666-.163 6.39-.291 10.832-.387 8.877-.191 20.555-.252 32.221-.21 11.664.04 23.304.181 32.102.393 4.401.106 8.081.23 10.693.365a67.527 67.527 0 0 1 3.22.23c.071.48.146 1.146.223 1.991.167 1.82.335 4.37.492 7.424.314 6.104.582 14.166.708 22.294.126 8.132.11 16.309-.14 22.649-.126 3.174-.309 5.858-.557 7.835-.124.992-.261 1.768-.404 2.324a4.315 4.315 0 0 1-.176.562 6.403 6.403 0 0 1-.813.224c-.75.166-1.805.328-3.145.482-2.673.307-6.348.565-10.712.773-8.721.415-20.098.623-31.506.623-11.408 0-22.824-.208-31.622-.623-4.402-.208-8.127-.466-10.859-.773-1.369-.154-2.458-.317-3.247-.485a7.736 7.736 0 0 1-.885-.232 2.952 2.952 0 0 1-.106-.039 3.624 3.624 0 0 1-.223-.578c-.168-.539-.332-1.298-.484-2.275-.303-1.949-.535-4.601-.701-7.746-.33-6.281-.389-14.39-.266-22.477.122-8.084.426-16.118.819-22.244.196-3.066.414-5.635.639-7.486.113-.93.225-1.65.331-2.15zm.144-.547a.175.175 0 0 1 .011-.026c.001 0-.003.01-.011.026z"/><path stroke="#000" stroke-linecap="round" stroke-width="4" d="M299.53 100.052s7.227 4.646 11.085 4.646c3.857 0 11.085-4.646 11.085-4.646M297.69 83.003v4.5M323.2 83.003v4.5"/><path fill="#fff" fill-rule="evenodd" stroke="#a50104" stroke-linecap="square" stroke-width="3" d="M241.364 19.671c-2.184.94 0 66.578 0 66.578s21.425 37.482 22.401 36.059c.976-1.424 0-12.137 0-30.175 0-18.037.943-34.548.943-34.548s-21.159-38.853-23.344-37.914z" clip-rule="evenodd"/><path stroke="#a50104" stroke-linecap="square" stroke-width="3" d="M252.679 36.548h90.527"/><path stroke="#000" stroke-linecap="round" stroke-width="5" d="M251.544 76.907s-8.263-3.072-11.944-8.03C235.92 63.922 229 55.25 229 55.25"/><g><path fill="#fff" fill-rule="evenodd" stroke="#a50104" stroke-linecap="square" stroke-width="3" d="M146.046 260.533c.823-.879-24.198-38.01-28.176-39.385-3.978-1.374-86.045-1.374-87.531 0-.72.666 9.413 14.452 12.236 19.373 3.003 5.235 10.253 20.012 10.912 20.012 1.277 0 91.737.879 92.559 0z" clip-rule="evenodd"/><path stroke="#000" stroke-linecap="round" stroke-width="5" d="M148.936 286.121s7.594-2.756 9.295-8.42c1.701-5.664 0-16.777 0-16.777M85.69 321.482s-5.362 3.377-6.895 6.36c-1.532 2.982-.986 9.955-.986 9.955l-7.646 2.822M105.436 321.482s5.362 3.377 6.895 6.36c1.532 2.982.986 9.955.986 9.955l7.646 2.822"/><path fill="#fff" stroke="#a50104" stroke-width="3" d="M53.302 260.942l.03-.135c.12-.02.261-.041.426-.063.727-.095 1.773-.184 3.11-.266 2.666-.164 6.39-.292 10.832-.387 8.877-.192 20.555-.252 32.22-.211 11.665.04 23.305.182 32.103.394 4.401.106 8.081.229 10.693.365 1.31.068 2.333.139 3.038.21l.182.02c.071.479.146 1.146.223 1.991.167 1.819.335 4.37.492 7.424.314 6.104.582 14.165.708 22.294.126 8.132.11 16.308-.14 22.648-.126 3.175-.309 5.859-.557 7.835-.124.992-.261 1.768-.404 2.325a4.366 4.366 0 0 1-.176.562 6.403 6.403 0 0 1-.813.224c-.75.166-1.805.328-3.145.482-2.673.307-6.348.565-10.712.773-8.721.415-20.098.623-31.506.623-11.408 0-22.824-.208-31.622-.623-4.402-.208-8.127-.467-10.859-.774-1.369-.154-2.458-.316-3.247-.484a7.702 7.702 0 0 1-.885-.232 2.159 2.159 0 0 1-.106-.04 3.623 3.623 0 0 1-.223-.578c-.168-.538-.332-1.297-.484-2.275-.303-1.949-.535-4.6-.7-7.746-.33-6.281-.39-14.389-.267-22.476.122-8.084.426-16.119.819-22.245.196-3.066.414-5.635.64-7.486.112-.929.224-1.649.33-2.149zm.144-.546a.113.113 0 0 1 .011-.026l-.01.026z"/><path stroke="#000" stroke-linecap="round" stroke-width="4" d="M88.53 303.17s7.227 4.646 11.085 4.646c3.857 0 11.085-4.646 11.085-4.646M86.69 286.121v4.5M112.2 286.121v4.5"/><path fill="#fff" fill-rule="evenodd" stroke="#a50104" stroke-linecap="square" stroke-width="3" d="M30.364 222.789c-2.184.939 0 66.578 0 66.578s21.425 37.482 22.4 36.058c.977-1.424 0-12.136 0-30.174s.944-34.548.944-34.548-21.16-38.853-23.344-37.914z" clip-rule="evenodd"/><path stroke="#a50104" stroke-linecap="square" stroke-width="3" d="M41.679 239.666h90.527"/><path stroke="#000" stroke-linecap="round" stroke-width="5" d="M40.544 280.025s-8.263-3.072-11.944-8.029c-3.68-4.957-10.6-13.628-10.6-13.628"/></g><g><path fill="#fff" fill-rule="evenodd" stroke="#a50104" stroke-linecap="square" stroke-width="3" d="M357.046 260.533c.823-.879-24.198-38.01-28.176-39.385-3.978-1.374-86.045-1.374-87.531 0-.72.666 9.413 14.452 12.236 19.373 3.003 5.235 10.253 20.012 10.912 20.012 1.277 0 91.737.879 92.559 0z" clip-rule="evenodd"/><path stroke="#000" stroke-linecap="round" stroke-width="5" d="M359.936 286.121s7.594-2.756 9.295-8.42c1.701-5.664 0-16.777 0-16.777M296.69 321.482s-5.362 3.377-6.895 6.36c-1.532 2.982-.986 9.955-.986 9.955l-7.646 2.822M316.436 321.482s5.362 3.377 6.895 6.36c1.532 2.982.986 9.955.986 9.955l7.646 2.822"/><path fill="#fff" stroke="#a50104" stroke-width="3" d="M264.302 260.942l.03-.135c.12-.02.261-.041.426-.063.728-.095 1.773-.184 3.11-.266 2.666-.164 6.39-.292 10.832-.387 8.877-.192 20.555-.252 32.221-.211 11.664.04 23.304.182 32.102.394 4.401.106 8.081.229 10.693.365 1.31.068 2.333.139 3.038.21l.182.02c.071.479.146 1.146.223 1.991.167 1.819.335 4.37.492 7.424.314 6.104.582 14.165.708 22.294.126 8.132.11 16.308-.14 22.648-.126 3.175-.309 5.859-.557 7.835-.124.992-.261 1.768-.404 2.325a4.366 4.366 0 0 1-.176.562 6.403 6.403 0 0 1-.813.224c-.75.166-1.805.328-3.145.482-2.673.307-6.348.565-10.712.773-8.721.415-20.098.623-31.506.623-11.408 0-22.824-.208-31.622-.623-4.402-.208-8.127-.467-10.859-.774-1.369-.154-2.458-.316-3.247-.484a7.736 7.736 0 0 1-.885-.232c-.043-.015-.078-.029-.106-.04a3.58 3.58 0 0 1-.223-.578c-.168-.538-.332-1.297-.484-2.275-.303-1.949-.535-4.6-.701-7.746-.33-6.281-.389-14.389-.266-22.476.122-8.084.426-16.119.819-22.245.196-3.066.414-5.635.639-7.486.113-.929.225-1.649.331-2.149zm.144-.546a.136.136 0 0 1 .011-.026c.001.001-.003.01-.011.026z"/><path stroke="#000" stroke-linecap="round" stroke-width="4" d="M299.53 303.17s7.227 4.646 11.085 4.646c3.857 0 11.085-4.646 11.085-4.646M297.69 286.121v4.5M323.2 286.121v4.5"/><path fill="#fff" fill-rule="evenodd" stroke="#a50104" stroke-linecap="square" stroke-width="3" d="M241.364 222.789c-2.184.939 0 66.578 0 66.578s21.425 37.482 22.401 36.058c.976-1.424 0-12.136 0-30.174s.943-34.548.943-34.548-21.159-38.853-23.344-37.914z" clip-rule="evenodd"/><path stroke="#a50104" stroke-linecap="square" stroke-width="3" d="M252.679 239.666h90.527"/><path stroke="#000" stroke-linecap="round" stroke-width="5" d="M251.544 280.025s-8.263-3.072-11.944-8.029c-3.68-4.957-10.6-13.628-10.6-13.628"/></g><g><path fill="#fff" fill-rule="evenodd" stroke="#a50104" stroke-linecap="square" stroke-width="3" d="M569.046 57.415c.823-.878-24.198-38.01-28.176-39.384-3.978-1.375-86.045-1.375-87.531 0-.72.666 9.413 14.451 12.236 19.372 3.003 5.235 10.253 20.012 10.912 20.012 1.277 0 91.737.879 92.559 0z" clip-rule="evenodd"/><path stroke="#000" stroke-linecap="round" stroke-width="5" d="M571.936 83.003s7.594-2.756 9.295-8.42c1.701-5.664 0-16.777 0-16.777M508.69 118.365s-5.362 3.377-6.895 6.359c-1.532 2.983-.986 9.955-.986 9.955l-7.646 2.822M528.436 118.365s5.362 3.377 6.895 6.359c1.532 2.983.986 9.955.986 9.955l7.646 2.822"/><path fill="#fff" stroke="#a50104" stroke-width="3" d="M476.302 57.825l.03-.136c.12-.02.261-.04.426-.062.728-.095 1.773-.185 3.11-.267 2.666-.163 6.39-.291 10.832-.387 8.877-.191 20.555-.252 32.221-.21 11.664.04 23.304.181 32.102.393 4.401.106 8.081.23 10.693.365a67.527 67.527 0 0 1 3.22.23c.071.48.146 1.146.223 1.991.167 1.82.335 4.37.492 7.424.314 6.104.582 14.166.708 22.294.126 8.132.11 16.309-.14 22.649-.126 3.174-.309 5.858-.557 7.835-.124.992-.261 1.768-.404 2.324a4.315 4.315 0 0 1-.176.562 6.403 6.403 0 0 1-.813.224c-.75.166-1.805.328-3.145.482-2.673.307-6.348.565-10.712.773-8.721.415-20.098.623-31.506.623-11.408 0-22.824-.208-31.622-.623-4.402-.208-8.127-.466-10.859-.773-1.369-.154-2.458-.317-3.247-.485a7.736 7.736 0 0 1-.885-.232 2.952 2.952 0 0 1-.106-.039 3.624 3.624 0 0 1-.223-.578c-.168-.539-.332-1.298-.484-2.275-.303-1.949-.535-4.601-.701-7.746-.33-6.281-.389-14.39-.266-22.477.122-8.084.426-16.118.819-22.244.196-3.066.414-5.635.639-7.486.113-.93.225-1.65.331-2.15zm.144-.547a.175.175 0 0 1 .011-.026c.001 0-.003.01-.011.026z"/><path stroke="#000" stroke-linecap="round" stroke-width="4" d="M511.53 100.052s7.227 4.646 11.085 4.646c3.857 0 11.085-4.646 11.085-4.646M509.69 83.003v4.5M535.2 83.003v4.5"/><path fill="#fff" fill-rule="evenodd" stroke="#a50104" stroke-linecap="square" stroke-width="3" d="M453.364 19.671c-2.184.94 0 66.578 0 66.578s21.425 37.482 22.401 36.059c.976-1.424 0-12.137 0-30.175 0-18.037.943-34.548.943-34.548s-21.159-38.853-23.344-37.914z" clip-rule="evenodd"/><path stroke="#a50104" stroke-linecap="square" stroke-width="3" d="M464.679 36.548h90.527"/><path stroke="#000" stroke-linecap="round" stroke-width="5" d="M463.544 76.907s-8.263-3.072-11.944-8.03C447.92 63.922 441 55.25 441 55.25"/></g><g><path fill="#fff" fill-rule="evenodd" stroke="#a50104" stroke-linecap="square" stroke-width="3" d="M569.046 260.962c.823-.879-24.198-38.01-28.176-39.384-3.978-1.375-86.045-1.375-87.531 0-.72.665 9.413 14.451 12.236 19.372 3.003 5.235 10.253 20.012 10.912 20.012 1.277 0 91.737.879 92.559 0z" clip-rule="evenodd"/><path stroke="#000" stroke-linecap="round" stroke-width="5" d="M571.936 286.55s7.594-2.756 9.295-8.42c1.701-5.664 0-16.777 0-16.777M508.69 321.912s-5.362 3.377-6.895 6.359c-1.532 2.982-.986 9.955-.986 9.955l-7.646 2.822M528.436 321.912s5.362 3.377 6.895 6.359c1.532 2.982.986 9.955.986 9.955l7.646 2.822"/><path fill="#fff" stroke="#a50104" stroke-width="3" d="M476.302 261.372l.03-.136c.12-.02.261-.041.426-.063.728-.094 1.773-.184 3.11-.266 2.666-.163 6.39-.292 10.832-.387 8.877-.192 20.555-.252 32.221-.211 11.664.041 23.304.182 32.102.394 4.401.106 8.081.229 10.693.365a67.32 67.32 0 0 1 3.038.211l.182.019c.071.479.146 1.146.223 1.991.167 1.819.335 4.37.492 7.424.314 6.104.582 14.166.708 22.294.126 8.132.11 16.308-.14 22.649-.126 3.174-.309 5.858-.557 7.835-.124.991-.261 1.768-.404 2.324a4.315 4.315 0 0 1-.176.562 6.403 6.403 0 0 1-.813.224c-.75.166-1.805.328-3.145.482-2.673.307-6.348.565-10.712.773-8.721.415-20.098.623-31.506.623-11.408 0-22.824-.208-31.622-.623-4.402-.208-8.127-.466-10.859-.773-1.369-.154-2.458-.317-3.247-.485a7.736 7.736 0 0 1-.885-.232 1.702 1.702 0 0 1-.106-.04 3.552 3.552 0 0 1-.223-.577c-.168-.539-.332-1.298-.484-2.276-.303-1.948-.535-4.6-.701-7.745-.33-6.281-.389-14.39-.266-22.477.122-8.084.426-16.119.819-22.244.196-3.067.414-5.635.639-7.487.113-.929.225-1.648.331-2.148zm.144-.547a.136.136 0 0 1 .011-.026c.001.001-.003.01-.011.026z"/><path stroke="#000" stroke-linecap="round" stroke-width="4" d="M511.53 303.599s7.227 4.646 11.085 4.646c3.857 0 11.085-4.646 11.085-4.646M509.69 286.55v4.5M535.2 286.55v4.5"/><path fill="#fff" fill-rule="evenodd" stroke="#a50104" stroke-linecap="square" stroke-width="3" d="M453.364 223.218c-2.184.94 0 66.578 0 66.578s21.425 37.482 22.401 36.058c.976-1.423 0-12.136 0-30.174 0-18.037.943-34.548.943-34.548s-21.159-38.853-23.344-37.914z" clip-rule="evenodd"/><path stroke="#a50104" stroke-linecap="square" stroke-width="3" d="M464.679 240.095h90.527"/><path stroke="#000" stroke-linecap="round" stroke-width="5" d="M463.544 280.454s-8.263-3.072-11.944-8.029c-3.68-4.957-10.6-13.628-10.6-13.628"/></g><path stroke="#ffbe3d" stroke-dasharray="16 24" stroke-linecap="square" stroke-width="6" d="M9.749 202.5H631.28M9.749 390.5H631.28M214 581.012V7M425 580.012V6"/><g><path fill="#fff" fill-rule="evenodd" stroke="#a50104" stroke-linecap="square" stroke-width="3" d="M146.046 449.415c.823-.878-24.198-38.01-28.176-39.384-3.978-1.375-86.045-1.375-87.531 0-.72.666 9.413 14.451 12.236 19.372 3.003 5.235 10.253 20.012 10.912 20.012 1.277 0 91.737.879 92.559 0z" clip-rule="evenodd"/><path stroke="#000" stroke-linecap="round" stroke-width="5" d="M148.936 475.003s7.594-2.756 9.295-8.42c1.701-5.664 0-16.777 0-16.777M85.69 510.365s-5.362 3.377-6.895 6.359c-1.532 2.983-.986 9.955-.986 9.955l-7.646 2.822M105.436 510.365s5.362 3.377 6.895 6.359c1.532 2.983.986 9.955.986 9.955l7.646 2.822"/><path fill="#fff" stroke="#a50104" stroke-width="3" d="M53.302 449.825l.03-.136c.12-.02.261-.041.426-.062.727-.095 1.773-.185 3.11-.267 2.666-.163 6.39-.291 10.832-.387 8.877-.191 20.555-.252 32.22-.211 11.665.041 23.305.182 32.103.394 4.401.106 8.081.229 10.693.365a67.32 67.32 0 0 1 3.038.211l.182.019c.071.479.146 1.146.223 1.991.167 1.819.335 4.37.492 7.424.314 6.104.582 14.166.708 22.294.126 8.132.11 16.309-.14 22.649-.126 3.174-.309 5.858-.557 7.835-.124.992-.261 1.768-.404 2.324a4.315 4.315 0 0 1-.176.562 6.403 6.403 0 0 1-.813.224c-.75.166-1.805.328-3.145.482-2.673.307-6.348.565-10.712.773-8.721.415-20.098.623-31.506.623-11.408 0-22.824-.208-31.622-.623-4.402-.208-8.127-.466-10.859-.773-1.369-.154-2.458-.317-3.247-.485a7.702 7.702 0 0 1-.885-.232 2.307 2.307 0 0 1-.106-.039 3.667 3.667 0 0 1-.223-.578c-.168-.539-.332-1.298-.484-2.275-.303-1.949-.535-4.601-.7-7.746-.33-6.281-.39-14.39-.267-22.477.122-8.084.426-16.118.819-22.244.196-3.066.414-5.635.64-7.487a26.49 26.49 0 0 1 .33-2.148zm.144-.547z"/><path stroke="#000" stroke-linecap="round" stroke-width="4" d="M88.53 492.052s7.227 4.646 11.085 4.646c3.857 0 11.085-4.646 11.085-4.646M86.69 475.003v4.5M112.2 475.003v4.5"/><path fill="#fff" fill-rule="evenodd" stroke="#a50104" stroke-linecap="square" stroke-width="3" d="M30.364 411.671c-2.184.94 0 66.578 0 66.578s21.425 37.482 22.4 36.059c.977-1.424 0-12.137 0-30.175 0-18.037.944-34.548.944-34.548s-21.16-38.853-23.344-37.914z" clip-rule="evenodd"/><path stroke="#a50104" stroke-linecap="square" stroke-width="3" d="M41.679 428.548h90.527"/><path stroke="#000" stroke-linecap="round" stroke-width="5" d="M40.544 468.907s-8.263-3.072-11.944-8.029C24.92 455.921 18 447.25 18 447.25"/></g><g><path fill="#fff" fill-rule="evenodd" stroke="#a50104" stroke-linecap="square" stroke-width="3" d="M357.046 449.415c.823-.878-24.198-38.01-28.176-39.384-3.978-1.375-86.045-1.375-87.531 0-.72.666 9.413 14.451 12.236 19.372 3.003 5.235 10.253 20.012 10.912 20.012 1.277 0 91.737.879 92.559 0z" clip-rule="evenodd"/><path stroke="#000" stroke-linecap="round" stroke-width="5" d="M359.936 475.003s7.594-2.756 9.295-8.42c1.701-5.664 0-16.777 0-16.777M296.69 510.365s-5.362 3.377-6.895 6.359c-1.532 2.983-.986 9.955-.986 9.955l-7.646 2.822M316.436 510.365s5.362 3.377 6.895 6.359c1.532 2.983.986 9.955.986 9.955l7.646 2.822"/><path fill="#fff" stroke="#a50104" stroke-width="3" d="M264.302 449.825l.03-.136c.12-.02.261-.041.426-.062.728-.095 1.773-.185 3.11-.267 2.666-.163 6.39-.291 10.832-.387 8.877-.191 20.555-.252 32.221-.211 11.664.041 23.304.182 32.102.394 4.401.106 8.081.229 10.693.365a67.32 67.32 0 0 1 3.038.211l.182.019c.071.479.146 1.146.223 1.991.167 1.819.335 4.37.492 7.424.314 6.104.582 14.166.708 22.294.126 8.132.11 16.309-.14 22.649-.126 3.174-.309 5.858-.557 7.835-.124.992-.261 1.768-.404 2.324a4.315 4.315 0 0 1-.176.562 6.403 6.403 0 0 1-.813.224c-.75.166-1.805.328-3.145.482-2.673.307-6.348.565-10.712.773-8.721.415-20.098.623-31.506.623-11.408 0-22.824-.208-31.622-.623-4.402-.208-8.127-.466-10.859-.773-1.369-.154-2.458-.317-3.247-.485a7.736 7.736 0 0 1-.885-.232 2.952 2.952 0 0 1-.106-.039 3.624 3.624 0 0 1-.223-.578c-.168-.539-.332-1.298-.484-2.275-.303-1.949-.535-4.601-.701-7.746-.33-6.281-.389-14.39-.266-22.477.122-8.084.426-16.118.819-22.244.196-3.066.414-5.635.639-7.487.113-.929.225-1.648.331-2.148zm.144-.547l.011-.026c.001.001-.003.01-.011.026z"/><path stroke="#000" stroke-linecap="round" stroke-width="4" d="M299.53 492.052s7.227 4.646 11.085 4.646c3.857 0 11.085-4.646 11.085-4.646M297.69 475.003v4.5M323.2 475.003v4.5"/><path fill="#fff" fill-rule="evenodd" stroke="#a50104" stroke-linecap="square" stroke-width="3" d="M241.364 411.671c-2.184.94 0 66.578 0 66.578s21.425 37.482 22.401 36.059c.976-1.424 0-12.137 0-30.175 0-18.037.943-34.548.943-34.548s-21.159-38.853-23.344-37.914z" clip-rule="evenodd"/><path stroke="#a50104" stroke-linecap="square" stroke-width="3" d="M252.679 428.548h90.527"/><path stroke="#000" stroke-linecap="round" stroke-width="5" d="M251.544 468.907s-8.263-3.072-11.944-8.029c-3.68-4.957-10.6-13.628-10.6-13.628"/></g><g><path fill="#fff" fill-rule="evenodd" stroke="#a50104" stroke-linecap="square" stroke-width="3" d="M569.046 449.415c.823-.878-24.198-38.01-28.176-39.384-3.978-1.375-86.045-1.375-87.531 0-.72.666 9.413 14.451 12.236 19.372 3.003 5.235 10.253 20.012 10.912 20.012 1.277 0 91.737.879 92.559 0z" clip-rule="evenodd"/><path stroke="#000" stroke-linecap="round" stroke-width="5" d="M571.936 475.003s7.594-2.756 9.295-8.42c1.701-5.664 0-16.777 0-16.777M508.69 510.365s-5.362 3.377-6.895 6.359c-1.532 2.983-.986 9.955-.986 9.955l-7.646 2.822M528.436 510.365s5.362 3.377 6.895 6.359c1.532 2.983.986 9.955.986 9.955l7.646 2.822"/><path fill="#fff" stroke="#a50104" stroke-width="3" d="M476.302 449.825l.03-.136c.12-.02.261-.041.426-.062.728-.095 1.773-.185 3.11-.267 2.666-.163 6.39-.291 10.832-.387 8.877-.191 20.555-.252 32.221-.211 11.664.041 23.304.182 32.102.394 4.401.106 8.081.229 10.693.365a67.32 67.32 0 0 1 3.038.211l.182.019c.071.479.146 1.146.223 1.991.167 1.819.335 4.37.492 7.424.314 6.104.582 14.166.708 22.294.126 8.132.11 16.309-.14 22.649-.126 3.174-.309 5.858-.557 7.835-.124.992-.261 1.768-.404 2.324a4.315 4.315 0 0 1-.176.562 6.403 6.403 0 0 1-.813.224c-.75.166-1.805.328-3.145.482-2.673.307-6.348.565-10.712.773-8.721.415-20.098.623-31.506.623-11.408 0-22.824-.208-31.622-.623-4.402-.208-8.127-.466-10.859-.773-1.369-.154-2.458-.317-3.247-.485a7.736 7.736 0 0 1-.885-.232 2.952 2.952 0 0 1-.106-.039 3.624 3.624 0 0 1-.223-.578c-.168-.539-.332-1.298-.484-2.275-.303-1.949-.535-4.601-.701-7.746-.33-6.281-.389-14.39-.266-22.477.122-8.084.426-16.118.819-22.244.196-3.066.414-5.635.639-7.487.113-.929.225-1.648.331-2.148zm.144-.547l.011-.026c.001.001-.003.01-.011.026z"/><path stroke="#000" stroke-linecap="round" stroke-width="4" d="M511.53 492.052s7.227 4.646 11.085 4.646c3.857 0 11.085-4.646 11.085-4.646M509.69 475.003v4.5M535.2 475.003v4.5"/><path fill="#fff" fill-rule="evenodd" stroke="#a50104" stroke-linecap="square" stroke-width="3" d="M453.364 411.671c-2.184.94 0 66.578 0 66.578s21.425 37.482 22.401 36.059c.976-1.424 0-12.137 0-30.175 0-18.037.943-34.548.943-34.548s-21.159-38.853-23.344-37.914z" clip-rule="evenodd"/><path stroke="#a50104" stroke-linecap="square" stroke-width="3" d="M464.679 428.548h90.527"/><path stroke="#000" stroke-linecap="round" stroke-width="5" d="M463.544 468.907s-8.263-3.072-11.944-8.029c-3.68-4.957-10.6-13.628-10.6-13.628"/></g></svg>