<svg xmlns="http://www.w3.org/2000/svg" viewBox="0 0 564 324" fill="none"><path stroke="#000" stroke-linecap="round" stroke-linejoin="bevel" stroke-width="5" d="M557.621 47.5H5.57a3 3 0 0 0-3 3v267.508a3 3 0 0 0 3 3h552.051a3 3 0 0 0 3-3V50.5a3 3 0 0 0-3-3z"/><path stroke="#000" stroke-linecap="round" stroke-linejoin="bevel" stroke-width="5" d="M184.206 129H36.794c-.99 0-1.794 1.345-1.794 3.004v139.992c0 1.659.803 3.004 1.794 3.004h147.412c.991 0 1.794-1.345 1.794-3.004V132.004c0-1.659-.803-3.004-1.794-3.004zM355.206 129H207.794c-.991 0-1.794 1.345-1.794 3.004v139.992c0 1.659.803 3.004 1.794 3.004h147.412c.991 0 1.794-1.345 1.794-3.004V132.004c0-1.659-.803-3.004-1.794-3.004zM526.206 129H378.794c-.991 0-1.794 1.345-1.794 3.004v139.992c0 1.659.803 3.004 1.794 3.004h147.412c.991 0 1.794-1.345 1.794-3.004V132.004c0-1.659-.803-3.004-1.794-3.004z"/><path fill="#000" d="M15.096 20.744v-1.488H5.472V35H7.2v-7.2h6.48v-1.344H7.2v-5.712h7.896zm6.634 12.84v-15.72h-5.375l-.192 1.416h3.887v14.304h-3.887V35h9.264l.215-1.416H21.73zm11.561.384c-2.664 0-4.104-1.872-4.248-4.44h8.472l.552-.6c0-3.84-2.136-5.928-5.16-5.928-3.672 0-5.664 2.568-5.664 6.264 0 3.648 2.328 6.12 5.952 6.12 1.656 0 3.192-.552 4.416-1.344l-.672-1.056c-.984.552-2.424.984-3.648.984zm-2.352-9.48a6.557 6.557 0 0 1 1.464-.144c2.016 0 3.864 1.296 3.888 3.792v.168l-7.248.264c.12-2.208 1.08-3.528 1.896-4.08zM50.734 35l-4.656-6.24 4.008-5.376H48.31l-3.12 4.176-3.12-4.176h-1.92l4.08 5.472L39.646 35h1.8l3.672-4.944L48.79 35h1.944zm2.493 2.664l8.592-20.88h-1.44l-8.592 20.88h1.44zm21.633-10.92v6.384a9.273 9.273 0 0 1-3.624.744c-3.288 0-6.168-2.856-6.168-6.672 0-3.792 2.04-5.976 3.144-6.696 1.128-.192 2.592-.192 3.576-.144 1.296.048 2.664.264 3.96.624l.432-1.728a27.125 27.125 0 0 0-4.776-.408c-1.176 0-2.376.072-3.552.216-1.536 1.032-4.56 3.312-4.56 8.136 0 4.896 3.12 8.184 7.8 8.184 2.28 0 3.888-.792 5.496-1.896v-6.744H74.86zm13.455-2.04l2.4.6.432-1.992L87.979 23c-1.272.744-2.184 1.848-2.976 3.168v-2.784H79.65l-.216 1.416h3.888v8.784h-3.888V35h9.264l.216-1.416h-3.912v-6.336c1.08-1.296 2.28-1.968 3.312-2.544zM98.6 18.248h-1.968v2.568H98.6v-2.568zm-.168 15.336v-10.2H93.08l-.216 1.416h3.888v8.784h-3.888V35h9.264l.216-1.416h-3.912zm14.738-15.72v5.952c-1.008-.504-2.352-.816-3.672-.816-.672 0-1.488.096-2.232.336-1.776 1.152-3.36 3.168-3.36 6.12 0 3.36 2.016 5.928 5.568 5.928l3.696-1.776V35h1.68V17.864h-1.68zm-3.744 16.032c-2.256 0-3.768-1.872-3.768-4.584 0-2.184 1.008-3.888 2.184-4.752.408-.12.888-.216 1.416-.216 1.32 0 2.856.552 3.912 1.44v6.84l-3.744 1.272zm17.67-15.144h16.344v2.712h1.8V17.12h-8.472c-.288-.72-.792-1.656-1.224-2.376l-1.824.432c.336.576.696 1.32.96 1.944h-9.312v4.344h1.728v-2.712zm10.272 2.16c2.208 1.368 4.896 3.408 6.192 4.776l1.248-1.176c-1.32-1.368-4.08-3.312-6.264-4.608l-1.176 1.008zm-6.072-1.032c-1.392 1.752-3.648 3.432-5.784 4.512.384.312.984 1.008 1.248 1.344 2.184-1.248 4.608-3.216 6.192-5.304l-1.656-.552zm-.816 8.952c1.824-1.248 3.504-2.712 4.872-4.296a24.804 24.804 0 0 0 5.16 4.296h-10.032zm-.12 5.616V30.44h9.84v4.008h-9.84zm4.824-12.48c-2.28 3.528-6.504 6.504-10.896 8.136a8.72 8.72 0 0 1 1.128 1.44 23.36 23.36 0 0 0 3.216-1.56v6.888h1.728v-.816h9.84v.72h1.8V29.72c.984.552 2.016 1.08 3.072 1.536a6.467 6.467 0 0 1 1.152-1.512c-3.84-1.512-7.224-3.384-9.936-6.456.168-.216.312-.432.456-.624l-1.56-.696zm31.344-1.056h-4.44v-3.384h4.44v3.384zm1.728-4.92h-7.824v6.456h7.824v-6.456zm-6.264 18.576V31.04h4.248v3.528h-4.248zm-5.592 0h-3.984V31.04h3.984v3.528zm-.24-13.656h-4.248v-3.384h4.248v3.384zm13.848 5.544v-1.584h-4.152l.576-.6c-.792-.624-2.304-1.368-3.528-1.776l-.936.936c.96.36 2.064.912 2.856 1.44h-6.696a18.753 18.753 0 0 0 1.44-2.352l-1.704-.336v-6.192h-7.56v6.456h7.296a10.876 10.876 0 0 1-1.608 2.424h-7.392v1.584h5.856c-1.608 1.392-3.696 2.664-6.288 3.624.336.288.816.936.96 1.344.576-.216 1.104-.456 1.632-.696v6.096h1.656v-.696h3.984v.576h1.704V29.48h-5.064a18.734 18.734 0 0 0 3.768-3.024h4.488c1.08 1.128 2.472 2.184 4.008 3.024h-4.968v7.344h1.656v-.696h4.248v.576h1.728v-6c.456.168.912.312 1.368.456.24-.432.72-1.08 1.128-1.416-2.52-.624-5.136-1.824-6.936-3.288h6.48zM47.096 101.744v-1.488h-9.624V116H39.2v-7.2h6.48v-1.344H39.2v-5.712h7.896zm6.635 12.84v-15.72h-5.377l-.191 1.416h3.888v14.304h-3.889V116h9.264l.216-1.416H53.73zm11.56.384c-2.664 0-4.104-1.872-4.248-4.44h8.472l.552-.6c0-3.84-2.136-5.928-5.16-5.928-3.672 0-5.664 2.568-5.664 6.264 0 3.648 2.328 6.12 5.952 6.12 1.656 0 3.192-.552 4.416-1.344l-.672-1.056c-.984.552-2.424.984-3.648.984zm-2.352-9.48a6.557 6.557 0 0 1 1.464-.144c2.016 0 3.864 1.296 3.888 3.792v.168l-7.248.264c.12-2.208 1.08-3.528 1.896-4.08zM82.734 116l-4.656-6.24 4.008-5.376H80.31l-3.12 4.176-3.12-4.176h-1.92l4.08 5.472L71.646 116h1.8l3.672-4.944L80.79 116h1.944zm2.493 2.664l8.592-20.88h-1.44l-8.592 20.88h1.44zm21.633-10.92v6.384a9.273 9.273 0 0 1-3.624.744c-3.288 0-6.168-2.856-6.168-6.672 0-3.792 2.04-5.976 3.144-6.696 1.128-.192 2.592-.192 3.576-.144 1.296.048 2.664.264 3.96.624l.432-1.728a27.125 27.125 0 0 0-4.776-.408c-1.176 0-2.376.072-3.552.216-1.536 1.032-4.56 3.312-4.56 8.136 0 4.896 3.12 8.184 7.8 8.184 2.28 0 3.888-.792 5.496-1.896v-6.744h-1.728zm13.455-2.04l2.4.6.432-1.992-3.168-.312c-1.272.744-2.184 1.848-2.976 3.168v-2.784h-5.352l-.216 1.416h3.888v8.784h-3.888V116h9.264l.216-1.416h-3.912v-6.336c1.08-1.296 2.28-1.968 3.312-2.544zm10.286-6.456h-1.968v2.568h1.968v-2.568zm-.168 15.336v-10.2h-5.352l-.216 1.416h3.888v8.784h-3.888V116h9.264l.216-1.416h-3.912zm14.738-15.72v5.952c-1.008-.504-2.352-.816-3.672-.816-.672 0-1.488.096-2.232.336-1.776 1.152-3.36 3.168-3.36 6.12 0 3.36 2.016 5.928 5.568 5.928l3.696-1.776V116h1.68V98.864h-1.68zm-3.744 16.032c-2.256 0-3.768-1.872-3.768-4.584 0-2.184 1.008-3.888 2.184-4.752.408-.12.888-.216 1.416-.216 1.32 0 2.856.552 3.912 1.44v6.84l-3.744 1.272zm23.886-13.8v11.208h1.752v-9.6h7.776v9.552h1.776v-11.16h-5.616c.36-.72.72-1.632 1.08-2.496h6.12v-1.608h-13.752V98.6h5.568c-.24.816-.576 1.752-.84 2.496h-3.864zm-1.152 8.088l-2.904.888v-9.624h2.76v-1.704h-7.536v1.704h3.024v10.128c-1.32.408-2.496.744-3.432.984l.48 1.848c2.184-.72 5.088-1.728 7.848-2.688l-.24-1.536zm7.728-5.136h-1.752v5.016c0 2.52-.672 5.568-7.152 7.32.384.36.888 1.008 1.104 1.416 6.768-2.112 7.8-5.616 7.8-8.712v-5.04zm-.096 9.744c1.872 1.176 4.2 2.904 5.328 4.032l1.176-1.272c-1.176-1.104-3.528-2.736-5.376-3.864l-1.128 1.104zm13.128.528v-3.936h12.552v3.936h-12.552zm12.552-9.576v3.936h-12.552v-3.936h12.552zm0-5.592v3.888h-12.552v-3.888h12.552zm-14.304-1.728v20.28h1.752v-1.632h12.552v1.632h1.848v-20.28h-16.152z"/></svg>