<svg xmlns="http://www.w3.org/2000/svg" xmlns:xlink="http://www.w3.org/1999/xlink" viewBox="0 0 635 614"><defs><circle id="a" cx="64.949" cy="64.699" r="64.5"/><circle id="b" cx="65.072" cy="64.746" r="64.5"/><circle id="c" cx="64.928" cy="64.609" r="64.5"/><radialGradient id="d" cx="86.85%" cy="30.027%" r="241.262%" fx="86.85%" fy="30.027%" gradientTransform="matrix(1 0 0 .36288 0 .191)"><stop offset="4.5%" stop-color="#FFEA00"/><stop offset="12%" stop-color="#FFDE00"/><stop offset="25.4%" stop-color="#FFBF00"/><stop offset="42.9%" stop-color="#FF8E00"/><stop offset="76.9%" stop-color="#FF272D"/><stop offset="87.2%" stop-color="#E0255A"/><stop offset="95.3%" stop-color="#CC2477"/><stop offset="100%" stop-color="#C42482"/></radialGradient><radialGradient id="e" cx="70.828%" cy="12.393%" r="89.17%" fx="70.828%" fy="12.393%" gradientTransform="scale(1 .9947)"><stop offset="0%" stop-color="#00CCDA"/><stop offset="22%" stop-color="#0083FF"/><stop offset="26.1%" stop-color="#007AF9"/><stop offset="33%" stop-color="#0060E8"/><stop offset="33.3%" stop-color="#005FE7"/><stop offset="43.8%" stop-color="#2639AD"/><stop offset="52.2%" stop-color="#401E84"/><stop offset="56.6%" stop-color="#4A1475"/></radialGradient><linearGradient id="f" x1="57.339%" x2="35.146%" y1="75.22%" y2="6.805%"><stop offset="0%" stop-color="#000F43" stop-opacity=".4"/><stop offset="48.5%" stop-color="#001962" stop-opacity=".173"/><stop offset="100%" stop-color="#002079" stop-opacity="0"/></linearGradient><radialGradient id="g" cx="58.192%" cy="-89.852%" r="129.483%" fx="58.192%" fy="-89.852%" gradientTransform="matrix(.92332 0 0 1 .045 0)"><stop offset=".3%" stop-color="#FFEA00"/><stop offset="49.7%" stop-color="#FF272D"/><stop offset="100%" stop-color="#C42482"/></radialGradient><radialGradient id="h" cx="-17.849%" cy="-110.521%" r="370.47%" fx="-17.849%" fy="-110.521%" gradientTransform="matrix(1 0 0 .54148 0 -.507)"><stop offset=".3%" stop-color="#FFE900"/><stop offset="15.7%" stop-color="#FFAF0E"/><stop offset="31.6%" stop-color="#FF7A1B"/><stop offset="47.2%" stop-color="#FF4E26"/><stop offset="62.1%" stop-color="#FF2C2E"/><stop offset="76.2%" stop-color="#FF1434"/><stop offset="89.2%" stop-color="#FF0538"/><stop offset="100%" stop-color="#FF0039"/></radialGradient><radialGradient id="i" cx="137.826%" cy="-95.693%" r="164.388%" fx="137.826%" fy="-95.693%" gradientTransform="matrix(.53347 0 0 1 .643 0)"><stop offset=".3%" stop-color="#FF272D"/><stop offset="49.7%" stop-color="#C42482"/><stop offset="98.6%" stop-color="#620700"/></radialGradient><radialGradient id="j" cx="76.845%" cy="39.179%" r="84.043%" fx="76.845%" fy="39.179%" gradientTransform="matrix(1 0 0 .95947 0 .016)"><stop offset="15.6%" stop-color="#FFEA00"/><stop offset="23.1%" stop-color="#FFDE00"/><stop offset="36.5%" stop-color="#FFBF00"/><stop offset="54.1%" stop-color="#FF8E00"/><stop offset="76.3%" stop-color="#FF272D"/><stop offset="79.6%" stop-color="#F92433"/><stop offset="84.1%" stop-color="#E91C45"/><stop offset="89.3%" stop-color="#CF0E62"/><stop offset="93.5%" stop-color="#B5007F"/></radialGradient><radialGradient id="k" cx="24.953%" cy=".138%" r="249.815%" fx="24.953%" fy=".138%" gradientTransform="scale(1 .39648)"><stop offset="27.9%" stop-color="#FFEA00"/><stop offset="40.2%" stop-color="#FD0"/><stop offset="63%" stop-color="#FFBA00"/><stop offset="85.6%" stop-color="#FF9100"/><stop offset="93.3%" stop-color="#FF6711"/><stop offset="99.4%" stop-color="#FF4A1D"/></radialGradient><linearGradient id="l" x1="-258.841%" x2="4.999%" y1="-19.24%" y2="-54.395%"><stop offset="0%" stop-color="#C42482" stop-opacity=".5"/><stop offset="47.4%" stop-color="#FF272D" stop-opacity=".5"/><stop offset="48.6%" stop-color="#FF2C2C" stop-opacity=".513"/><stop offset="67.5%" stop-color="#FF7A1A" stop-opacity=".72"/><stop offset="82.9%" stop-color="#FFB20D" stop-opacity=".871"/><stop offset="94.2%" stop-color="#FFD605" stop-opacity=".964"/><stop offset="100%" stop-color="#FFE302"/></linearGradient><linearGradient id="m" x1="56.539%" x2="19.511%" y1="93.57%" y2="4.159%"><stop offset="0%" stop-color="#891551" stop-opacity=".6"/><stop offset="100%" stop-color="#C42482" stop-opacity="0"/></linearGradient><linearGradient id="n" x1="7.867%" x2="47.75%" y1="6.83%" y2="48.025%"><stop offset=".5%" stop-color="#891551" stop-opacity=".5"/><stop offset="48.4%" stop-color="#FF272D" stop-opacity=".5"/><stop offset="100%" stop-color="#FF272D" stop-opacity="0"/></linearGradient><linearGradient id="o" x1="47.4%" x2="49.895%" y1="103.035%" y2="32.108%"><stop offset="0%" stop-color="#C42482"/><stop offset="8.3%" stop-color="#C42482" stop-opacity=".81"/><stop offset="20.6%" stop-color="#C42482" stop-opacity=".565"/><stop offset="32.8%" stop-color="#C42482" stop-opacity=".362"/><stop offset="44.7%" stop-color="#C42482" stop-opacity=".204"/><stop offset="56.2%" stop-color="#C42482" stop-opacity=".091"/><stop offset="67.3%" stop-color="#C42482" stop-opacity=".023"/><stop offset="77.3%" stop-color="#C42482" stop-opacity="0"/></linearGradient><linearGradient id="p" x1="6.334%" x2="92.351%" y1="1.647%" y2="89.461%"><stop offset="0%" stop-color="#FFF14F"/><stop offset="26.8%" stop-color="#FFEE4C"/><stop offset="45.2%" stop-color="#FFE643"/><stop offset="61.2%" stop-color="#FFD834"/><stop offset="75.7%" stop-color="#FFC41E"/><stop offset="89.2%" stop-color="#FFAB02"/><stop offset="90.2%" stop-color="#FFA900"/><stop offset="94.9%" stop-color="#FFA000"/><stop offset="100%" stop-color="#FF9100"/></linearGradient><linearGradient id="q" x1="71.789%" x2="42.746%" y1="7.159%" y2="81.948%"><stop offset="0%" stop-color="#FF8E00"/><stop offset="4%" stop-color="#FF8E00" stop-opacity=".858"/><stop offset="8.4%" stop-color="#FF8E00" stop-opacity=".729"/><stop offset="13%" stop-color="#FF8E00" stop-opacity=".628"/><stop offset="17.8%" stop-color="#FF8E00" stop-opacity=".557"/><stop offset="22.7%" stop-color="#FF8E00" stop-opacity=".514"/><stop offset="28.2%" stop-color="#FF8E00" stop-opacity=".5"/><stop offset="38.9%" stop-color="#FF8E00" stop-opacity=".478"/><stop offset="52.4%" stop-color="#FF8E00" stop-opacity=".416"/><stop offset="67.6%" stop-color="#FF8E00" stop-opacity=".314"/><stop offset="83.8%" stop-color="#FF8E00" stop-opacity=".172"/><stop offset="100%" stop-color="#FF8E00" stop-opacity="0"/></linearGradient><circle id="r" cx="65.023" cy="64.539" r="64.5"/><linearGradient id="s" x1="49.939%" x2="49.939%" y1="-.019%" y2="100%"><stop offset="0%" stop-color="#81B4E0"/><stop offset="100%" stop-color="#0C5A94"/></linearGradient><linearGradient id="t" x1="50.001%" x2="50.001%" y1=".139%" y2="71.694%"><stop offset="0%" stop-color="#F06B59"/><stop offset="100%" stop-color="#DF2227"/></linearGradient><linearGradient id="u" x1="18.17%" x2="48.84%" y1="81.96%" y2="38.283%"><stop offset="0%" stop-color="#388B41"/><stop offset="100%" stop-color="#4CB749"/></linearGradient><linearGradient id="v" x1="65.067%" x2="24.384%" y1="85.353%" y2="12.208%"><stop offset="0%" stop-color="#E4B022"/><stop offset="30%" stop-color="#FCD209"/></linearGradient><linearGradient id="w" x1="49.999%" x2="49.999%" y1="96.299%" y2="-2.466%"><stop offset="0%" stop-color="#FFF" stop-opacity=".15"/><stop offset="30%" stop-color="#FFF" stop-opacity=".06"/><stop offset="100%" stop-color="#FFF" stop-opacity=".03"/></linearGradient><linearGradient id="x" x1="105.963%" x2="-6.282%" y1="8.542%" y2="78.541%"><stop offset="0%" stop-color="#FFF" stop-opacity=".15"/><stop offset="30%" stop-color="#FFF" stop-opacity=".06"/><stop offset="100%" stop-color="#FFF" stop-opacity=".03"/></linearGradient><linearGradient id="y" x1="39.928%" x2="47.695%" y1="547.095%" y2="131.316%"><stop offset="0%" stop-color="#FFF" stop-opacity=".15"/><stop offset="30%" stop-color="#FFF" stop-opacity=".06"/><stop offset="100%" stop-color="#FFF" stop-opacity=".03"/></linearGradient><circle id="z" cx="65.471" cy="64.574" r="64.5"/></defs><g fill="none" fill-rule="evenodd"><path fill="#000" fill-rule="nonzero" d="M268.765 207.979c-9.76 6.448-22.888 5.064-31.264-3.304-5.432-5.432-8.056-12.928-7.208-20.568.848-7.528 4.984-14.152 11.368-18.168 10.256-6.472 25.776-13.728 46.608-17.544-6.408-7.096 7.517 1.304 29.573 1.304s35.987-8.4 29.571-1.304c20.832 3.816 36.352 11.072 46.608 17.544 6.384 4.008 10.528 10.64 11.368 18.168.856 7.64-1.768 15.128-7.208 20.568-8.376 8.376-21.496 9.768-31.256 3.304a82.851 82.851 0 0 0-9.08-5.192v14.912h-80v-14.912a82.113 82.113 0 0 0-9.08 5.192zm-22.56-22.096a9.09 9.09 0 0 0 2.616 7.48c3 3 7.68 3.552 11.12 1.272 7.136-4.72 14.984-8.536 23.344-11.36l10.56-3.568v21.992h48v-21.992l10.56 3.576c8.36 2.824 16.208 6.64 23.344 11.36 3.432 2.264 8.112 1.728 11.12-1.272a9.09 9.09 0 0 0 2.616-7.48c-.168-1.576-.92-4.488-3.992-6.424-12.856-8.104-35.032-17.768-67.648-17.768s-54.792 9.664-67.648 17.76c-3.072 1.936-3.824 4.856-3.992 6.424zm-72.104 181.592c10.544-5.368 15.936-17.44 12.824-28.712a81.56 81.56 0 0 1-2.144-10.24l14.176 4.608 24.728-76.088-14.176-4.6a84.465 84.465 0 0 1 7.744-7.04c9.152-7.272 11.88-20.2 6.504-30.744-3.488-6.84-9.8-11.664-17.32-13.208-7.432-1.512-15.008.36-20.808 5.192-9.32 7.752-21.016 20.256-31.072 38.888-4.944-8.592-3.702 6.083-10.518 27.059-3.304 10.168-12.946 31.613-7.786 29.317-2.784 20.936-.68 37.904 2.296 49.632 1.856 7.312 6.88 13.304 13.784 16.432a25.09 25.09 0 0 0 10.368 2.248c3.912 0 7.808-.92 11.4-2.744zm-20.04-19.872c-3.744-14.728-6.08-38.8 4.008-69.832 10.08-31.024 26.12-49.12 37.8-58.832 1.912-1.592 3.928-2.008 5.504-2.008a9.074 9.074 0 0 1 8.128 4.992c1.928 3.792 1 8.4-2.216 10.96-6.712 5.352-12.776 11.64-18.024 18.704l-6.648 8.936 20.912 6.8-14.832 45.648-20.912-6.792.128 11.144c.104 8.832 1.312 17.48 3.592 25.712 1.104 3.968-.856 8.24-4.656 10.176a9.076 9.076 0 0 1-7.904.176c-1.44-.64-3.984-2.256-4.88-5.784zm131.952 109.416a82.251 82.251 0 0 1-10.416-1.136l8.768-12.072-64.712-47.016-8.776 12.064a83.024 83.024 0 0 1-4.288-9.544c-4.104-10.936-15.536-17.568-27.232-15.688-7.584 1.192-14.12 5.72-17.912 12.392-3.744 6.584-4.288 14.384-1.496 21.384 4.488 11.256 12.768 26.256 27.384 41.584-9.704 2.048 14.904 12.8 23.544 19.08 6.904 5.024 25.336 25.208 24.32 15.704 19.104 9.16 35.92 12.4 48.016 13.2.544.032 1.096.056 1.64.056 6.928 0 13.504-2.896 18.24-8.088 5.168-5.672 7.456-13.28 6.248-20.872-1.848-11.688-11.664-20.536-23.328-21.048zm5.272 31.136c-1.064 1.16-3.248 3.08-7.016 2.84-15.16-.992-38.776-6.2-65.168-25.376-26.4-19.192-38.648-40.04-44.28-54.144v-.008c-1.344-3.368-.232-6.168.544-7.536a9.05 9.05 0 0 1 6.496-4.504 9.892 9.892 0 0 1 1.448-.112c3.672 0 7.032 2.2 8.304 5.608 2.984 7.984 7.096 15.696 12.2 22.912l6.448 9.096 12.928-17.792 38.832 28.216-12.912 17.784 10.624 3.32c8.408 2.632 17.008 4.16 25.568 4.536 4.112.176 7.576 3.368 8.248 7.56a9.075 9.075 0 0 1-2.264 7.6zm157.064-29.168c14.616-15.336 22.896-30.328 27.384-41.576 2.8-7.008 2.248-14.808-1.496-21.392-3.8-6.672-10.328-11.192-17.912-12.392-11.68-1.872-23.136 4.752-27.232 15.688a81.808 81.808 0 0 1-4.288 9.544l-8.776-12.064-64.712 47.016 8.768 12.072c-3.472.6-6.944.976-10.408 1.136-11.664.512-21.488 9.36-23.344 21.048a25.027 25.027 0 0 0 6.248 20.864c4.736 5.184 11.312 8.088 18.24 8.088.544 0 1.096-.024 1.64-.056 12.096-.792 28.92-4.04 48.016-13.2-1.016 9.504 21.704-10.672 28.616-15.696 8.64-6.28 28.96-17.032 19.256-19.08zm-96.928 32.008c-3.816.224-5.96-1.688-7.016-2.84a9.079 9.079 0 0 1-2.272-7.576c.672-4.2 4.144-7.392 8.256-7.568 8.552-.384 17.16-1.904 25.56-4.536l10.624-3.32-12.912-17.784 38.832-28.216 12.928 17.792 6.448-9.096c5.112-7.216 9.216-14.928 12.2-22.912 1.44-3.848 5.52-6.12 9.752-5.504a9.064 9.064 0 0 1 6.496 4.504c.784 1.368 1.888 4.168.544 7.544-5.632 14.104-17.88 34.944-44.28 54.136-26.384 19.176-50 24.384-65.16 25.376zm141.181-216.233c-6.816-20.984-6.533-37.823-11.477-29.231-10.064-18.632-21.76-31.136-31.072-38.888-5.808-4.832-13.376-6.712-20.808-5.192-7.52 1.544-13.832 6.368-17.32 13.208-5.376 10.536-2.64 23.472 6.496 30.744a82.408 82.408 0 0 1 7.752 7.04l-14.176 4.6 24.728 76.088 14.176-4.608a78.929 78.929 0 0 1-2.144 10.248c-3.12 11.264 2.272 23.336 12.816 28.696a25.139 25.139 0 0 0 11.408 2.76c3.52 0 7.048-.752 10.368-2.248 6.896-3.128 11.92-9.12 13.784-16.432 2.984-11.728 5.088-28.696 2.296-49.632 5.168 2.304-3.515-17.001-6.827-27.153zm-10.973 72.841c-.888 3.52-3.44 5.144-4.872 5.792-2.52 1.16-5.408 1.096-7.912-.184-3.792-1.928-5.752-6.2-4.648-10.168 2.28-8.24 3.496-16.888 3.592-25.72l.128-11.144-20.912 6.792-14.832-45.648 20.912-6.8-6.648-8.936c-5.248-7.064-11.312-13.352-18.032-18.704-3.208-2.56-4.144-7.168-2.208-10.96a9.095 9.095 0 0 1 6.296-4.808c1.544-.328 4.56-.496 7.344 1.824 11.68 9.72 27.72 27.816 37.8 58.84 10.064 31.032 7.728 55.096 3.992 69.824z"/><g transform="translate(253 16)"><use fill="#FFF" xlink:href="#a"/><circle cx="64.949" cy="64.699" r="72.5" stroke="#000" stroke-width="16"/></g><path fill="#005A9C" fill-rule="nonzero" d="M288.932 54.34l9.396 31.946 9.396-31.946h25.475v3.175l-9.592 16.525c3.37 1.081 5.918 3.047 7.645 5.898 1.728 2.851 2.593 6.198 2.593 10.042 0 4.754-1.265 8.75-3.792 11.988-2.527 3.239-5.8 4.859-9.817 4.859-3.025 0-5.66-.961-7.905-2.883-2.246-1.922-3.909-4.524-4.989-7.809l5.312-2.202c.779 1.987 1.805 3.553 3.08 4.697 1.273 1.145 2.774 1.716 4.502 1.716 1.815 0 3.348-1.014 4.601-3.044 1.253-2.031 1.88-4.47 1.88-7.324 0-3.154-.67-5.595-2.009-7.322-1.556-2.03-3.997-3.046-7.324-3.046h-2.59V76.5l9.07-15.682h-10.95l-.623 1.06-13.319 44.946h-.647l-9.721-32.528-9.72 32.528h-.647L262.69 54.34h6.803l9.396 31.946 6.35-21.512-3.11-10.434h6.804z"/><path fill="#000" fill-rule="nonzero" d="M368.556 54.34c-1.336 0-2.536.482-3.444 1.405-.965.979-1.501 2.245-1.501 3.554 0 1.308.51 2.52 1.447 3.471.951.965 2.176 1.488 3.5 1.488 1.293 0 2.548-.523 3.525-1.473.937-.909 1.447-2.12 1.447-3.485a4.954 4.954 0 0 0-1.432-3.485 4.896 4.896 0 0 0-3.542-1.475zm4.312 5.001a4.115 4.115 0 0 1-1.253 2.989c-.855.827-1.915 1.268-3.087 1.268a4.225 4.225 0 0 1-3.002-1.281c-.812-.827-1.268-1.888-1.268-3.017s.469-2.232 1.309-3.085c.785-.8 1.845-1.225 3.002-1.225 1.184 0 2.245.442 3.072 1.28.8.798 1.227 1.872 1.227 3.071zm-4.175-2.948h-2.121v5.62h1.06v-2.396h1.048l1.144 2.396h1.184l-1.255-2.561c.813-.166 1.281-.716 1.281-1.516 0-1.02-.77-1.543-2.341-1.543zm-.193.688c.992 0 1.446.276 1.446.965 0 .66-.454.895-1.42.895h-.895v-1.86h.87zm-8.286-3.036l1.103 6.7-3.901 7.465s-1.498-3.167-3.986-4.92c-2.097-1.476-3.462-1.797-5.598-1.356-2.743.566-5.852 3.845-7.21 7.888-1.623 4.837-1.64 7.179-1.697 9.33-.09 3.447.452 5.484.452 5.484s-2.369-4.382-2.346-10.8c.015-4.582.736-8.736 2.855-12.836 1.865-3.604 4.637-5.767 7.098-6.022 2.543-.262 4.553.963 6.107 2.29 1.631 1.393 3.279 4.439 3.279 4.439l3.844-7.662zm.481 37.914s-1.724 3.082-2.798 4.27c-1.075 1.187-2.997 3.279-5.371 4.325-2.374 1.045-3.619 1.243-5.965 1.018-2.344-.225-4.523-1.583-5.286-2.149-.764-.566-2.715-2.234-3.818-3.788-1.103-1.555-2.827-4.665-2.827-4.665s.96 3.116 1.563 4.44c.346.761 1.41 3.09 2.918 5.116 1.409 1.89 4.143 5.146 8.298 5.88 4.156.736 7.011-1.13 7.718-1.583.706-.452 2.196-1.7 3.139-2.708.984-1.052 1.915-2.395 2.43-3.201.378-.587.991-1.782.991-1.782l-.992-5.173z"/><g transform="rotate(-72 200.381 146.398)"><use fill="#FFF" xlink:href="#b"/><circle cx="65.072" cy="64.746" r="72.5" stroke="#000" stroke-width="16"/></g><path fill="#0078D7" fill-rule="nonzero" d="M84.39 269.189c2.234.726 4.374 1.052 6.424.964 2.035-.14 3.953-.56 5.752-1.308a18.748 18.748 0 0 0 5.014-3.087 26.585 26.585 0 0 0 4.198-4.38 33.611 33.611 0 0 0 3.343-5.25 38.644 38.644 0 0 0 2.388-5.722c.802-2.467 1.358-4.821 1.673-7.125a52.78 52.78 0 0 0 .45-6.913 59.413 59.413 0 0 0-.434-6.912 117.4 117.4 0 0 0-1.058-7.21l19.677 6.393c.393 2.743.61 5.38.698 7.976.058 2.586.015 5.139-.188 7.688a57.12 57.12 0 0 1-1.066 7.627 74.908 74.908 0 0 1-2.055 7.707 44.158 44.158 0 0 1-4.482 9.694c-1.85 2.977-3.981 5.637-6.414 7.991a40.155 40.155 0 0 1-8.022 6.025 36.43 36.43 0 0 1-9.236 3.737c-3.237.826-6.607 1.175-10.077 1.09-3.46-.114-6.978-.743-10.548-1.903-3.816-1.24-7.274-2.941-10.403-5.113-3.139-2.191-5.816-4.714-8.077-7.63-2.266-2.902-4.071-6.136-5.401-9.696-1.33-3.56-2.14-7.338-2.412-11.34 1.303 2.557 3.091 4.806 5.402 6.728a31.214 31.214 0 0 0 7.278 4.66l10.741-33.058c-3.337-1.084-6.348-1.693-9.066-1.822-2.717-.13-5.146.285-7.28 1.276-2.146.971-4.025 2.51-5.616 4.64-1.605 2.126-2.964 4.877-4.063 8.258a43.335 43.335 0 0 0-2.105 12.552c-.135 4.368.303 8.698 1.238 12.98a57.962 57.962 0 0 0 4.291 12.368c1.922 3.962 4.217 7.515 6.928 10.674a56.964 56.964 0 0 1-10.46-6.174 50.467 50.467 0 0 1-8.48-7.97 47.222 47.222 0 0 1-6.142-9.439c-1.66-3.38-2.884-6.922-3.603-10.636-.718-3.715-1.041-7.51-.805-11.444a54.523 54.523 0 0 1 2.432-11.98 42.57 42.57 0 0 1 2.949-6.904 52.99 52.99 0 0 1 4.02-6.346c2.99-3.97 6.434-7.263 10.303-9.888 3.899-2.616 7.99-4.543 12.352-5.773 4.363-1.23 8.914-1.757 13.63-1.604 4.714.152 9.406.97 14.064 2.484l11.537 3.749-19.29 59.366z"/><g transform="rotate(72 182.238 494.099)"><use fill="#FFF" xlink:href="#c"/><circle cx="64.928" cy="64.609" r="72.5" stroke="#000" stroke-width="16"/></g><path fill="url(#d)" fill-rule="nonzero" d="M93.677 24.798c-2.384 2.775-3.494 9.022-1.077 15.355 2.417 6.332 6.122 4.957 8.431 11.415 3.049 8.52 1.63 19.967 1.63 19.967s3.664 10.612 6.218-.66c5.652-21.173-15.202-40.863-15.202-46.077z" transform="rotate(72 182.238 494.099)"/><path fill="url(#e)" fill-rule="nonzero" d="M64.589 112.702c24.411 0 44.187-19.882 44.187-44.399 0-24.516-19.776-44.399-44.163-44.399-24.388 0-44.164 19.883-44.164 44.4-.047 24.54 19.752 44.398 44.14 44.398z" transform="rotate(72 182.238 494.099)"/><path fill="url(#f)" fill-rule="nonzero" d="M97.697 95.68a24.576 24.576 0 0 1-2.998 1.81 70.079 70.079 0 0 0 3.812-6.267c.942-1.042 1.805-2.056 2.508-3.151.342-.538.728-1.202 1.136-1.973 2.48-4.47 5.216-11.702 5.294-19.132v-.018c.001-.183.002-.366.001-.549a25.642 25.642 0 0 0-.569-5.55c.02.143.038.285.056.428-.022-.11-.04-.22-.064-.33.036.202.065.398.097.596.507 4.301.146 8.498-1.66 11.591l-.087.132c.936-4.702 1.25-9.893.208-15.09 0 0-.417-2.527-3.522-10.198-1.787-4.415-4.96-8.035-7.764-10.672-2.458-3.04-4.69-5.081-5.92-6.377-2.571-2.706-3.648-4.735-4.09-6.058-.384-.193-5.29-4.958-5.68-5.14-2.14 3.32-8.875 13.705-5.672 23.407 1.452 4.397 5.124 8.96 8.966 11.521.169.193 2.286 2.493 3.293 7.68 1.04 5.36.494 9.542-1.647 15.727-2.517 5.425-8.965 10.789-15.003 11.338-12.909 1.172-17.634-6.481-17.634-6.481 4.612 1.844 9.712 1.458 12.813-.454 3.126-1.934 5.017-3.367 6.551-2.802 1.513.563 2.718-1.07 1.637-2.764a7.814 7.814 0 0 0-7.904-3.441c-3.129.508-5.995 2.987-10.095.586a8.514 8.514 0 0 1-.769-.504c-.27-.177.879.27.61.069-.797-.434-2.21-1.378-2.576-1.714-.06-.056.62.217.558.16-3.833-3.156-3.354-5.288-3.234-6.626.097-1.07.793-2.44 1.966-2.997.567.31.92.545.92.545s-.242-.493-.372-.754c.046-.02.09-.014.135-.034.464.224 1.49.807 2.031 1.162.704.496.929.939.929.939s.185-.102.048-.535c-.05-.178-.264-.742-.96-1.312l.043.005c.417.238.812.513 1.181.82.197-.714.55-1.46.472-2.796-.047-.938-.025-1.182-.19-1.544-.149-.311.082-.433.34-.11a3.268 3.268 0 0 0-.22-.736l.002-.025c.321-1.118 6.794-4.027 7.265-4.367a6.705 6.705 0 0 0 1.904-2.07c.36-.574.631-1.38.697-2.6.035-.88-.374-1.467-6.919-2.152-1.79-.176-2.84-1.473-3.437-2.67-.109-.258-.22-.491-.33-.725a5.774 5.774 0 0 1-.255-.84c1.07-3.072 2.868-5.67 5.511-7.634.144-.131-.575.034-.432-.098.168-.153 1.265-.595 1.472-.694.253-.12-1.083-.687-2.262-.549-1.202.136-1.457.279-2.098.55.266-.264 1.112-.611.914-.609-1.295.199-2.905.951-4.28 1.804a1.068 1.068 0 0 1 .083-.433c-.642.272-2.216 1.373-2.675 2.304.02-.179.029-.358.027-.538a8.41 8.41 0 0 0-1.314 1.376l-.024.022c-3.718-1.498-6.99-1.595-9.76-.924-.606-.608-.902-.163-2.28-3.192-.094-.182.071.18 0 0-.227-.587.138.784 0 0-2.318 1.829-5.368 3.901-6.832 5.364-.018.059 1.708-.487 0 0-.598.171-.557.526-.648 3.733-.022.244-.003.516-.022.735-1.17 1.49-1.966 2.751-2.267 3.405-1.513 2.606-3.178 6.669-4.793 13.095a33.284 33.284 0 0 1 2.567-5.017c-1.343 3.411-2.64 8.768-2.9 17.017a48.14 48.14 0 0 1 1.247-5.043 47.088 47.088 0 0 0 3.458 20.014c.929 2.272 2.465 5.72 5.08 9.496 8.215 8.645 19.804 14.026 32.635 14.026 13.396 0 25.425-5.86 33.691-15.168z" transform="rotate(72 182.238 494.099)"/><path fill="url(#g)" fill-rule="nonzero" d="M87.785 101.959c16.213-1.878 23.39-18.585 14.173-18.914-8.325-.266-21.852 19.8-14.173 18.914z" transform="rotate(72 182.238 494.099)"/><path fill="url(#h)" fill-rule="nonzero" d="M103.126 79.633c11.154-6.492 8.246-20.514 8.246-20.514s-4.305 5-7.23 12.972c-2.889 7.894-7.723 11.462-1.016 7.542z" transform="rotate(72 182.238 494.099)"/><path fill="url(#i)" fill-rule="nonzero" d="M67.715 110.256c15.551 4.962 28.917-7.289 20.678-11.38-7.49-3.69-28.06 9.034-20.678 11.38z" transform="rotate(72 182.238 494.099)"/><path fill="url(#j)" fill-rule="nonzero" d="M104.284 85.586c.379-.534.89-2.243 1.342-3.007 2.746-4.432 2.765-7.966 2.765-8.047 1.659-8.284 1.508-11.666.488-17.922-.821-5.037-4.412-12.253-7.522-15.728-3.206-3.58-.947-2.413-4.051-5.028-2.72-3.016-5.358-6.002-6.794-7.203-10.38-8.678-10.146-10.52-9.946-10.835l-.146.163c-.123-.49-.21-.902-.21-.902s-5.674 5.674-6.868 15.13c-.78 6.175 1.53 12.61 4.877 16.724a37.963 37.963 0 0 0 5.873 5.774v-.003c2.529 3.631 3.92 8.112 3.92 12.932 0 12.069-9.789 21.852-21.865 21.852a21.926 21.926 0 0 1-4.89-.549c-5.698-1.086-8.988-3.96-10.63-5.911-.94-1.118-1.34-1.933-1.34-1.933 5.106 1.828 10.75 1.446 14.182-.45 3.46-1.918 5.552-3.34 7.25-2.779 1.675.558 3.008-1.062 1.813-2.741-1.172-1.677-4.221-4.078-8.748-3.413-3.463.504-6.635 2.962-11.173.582a9.587 9.587 0 0 1-.851-.5c-.3-.176.972.268.675.068-.883-.43-2.446-1.366-2.851-1.7-.068-.055.685.216.617.16-4.242-3.13-3.713-5.245-3.58-6.572.108-1.061.878-2.42 2.177-2.972.627.306 1.018.54 1.018.54s-.268-.49-.413-.747c.051-.02.1-.015.15-.034.514.222 1.65.8 2.248 1.152.78.492 1.027.931 1.027.931s.206-.101.054-.53c-.056-.176-.292-.736-1.064-1.3l.049.004c.458.233.895.506 1.307.814.218-.71.61-1.45.523-2.774-.053-.93-.028-1.172-.211-1.531-.164-.309.092-.43.376-.109a2.99 2.99 0 0 0-.243-.73l.002-.025c.356-1.109 7.52-3.994 8.04-4.331a6.999 6.999 0 0 0 2.109-2.054c.398-.568.698-1.367.77-2.577.025-.546-.143-.977-2.04-1.39-1.139-.248-2.9-.49-5.617-.744-1.981-.175-3.144-1.461-3.804-2.648-.12-.256-.243-.488-.366-.72a5.287 5.287 0 0 1-.282-.831 15.775 15.775 0 0 1 6.1-7.572c.159-.13-.637.033-.478-.097.186-.151 1.4-.59 1.63-.688.28-.118-1.2-.681-2.505-.544-1.33.134-1.612.276-2.322.546.295-.263 1.231-.608 1.011-.605-1.433.197-3.215.943-4.738 1.789a.963.963 0 0 1 .092-.43c-.71.27-2.452 1.362-2.96 2.285a3.93 3.93 0 0 0 .03-.533 8.827 8.827 0 0 0-1.454 1.364l-.026.022c-4.116-1.486-7.738-1.582-10.803-.916-.67-.603-1.748-1.516-3.274-4.52-.104-.18-.16.374-.239.196-.593-1.375-.95-3.628-.892-5.18 0 0-1.226.558-2.241 2.892-.189.42-.31.65-.43.882-.056.068.126-.766.097-.72-.177.298-.633.715-.833 1.255-.138.4-.331.625-.455 1.124l-.029.046c-.01-.147.037-.606.003-.512a23.502 23.502 0 0 0-1.225 2.97c-.547 1.797-1.183 4.242-1.284 7.423-.024.241-.002.511-.024.729-1.294 1.477-2.176 2.728-2.51 3.377C21 48.31 19.157 52.339 17.37 58.712a31.769 31.769 0 0 1 2.84-4.976c-1.485 3.383-2.922 8.695-3.209 16.876.36-1.693.822-3.363 1.38-5.001-.256 5.455.38 12.218 3.828 19.848 2.048 4.488 6.761 13.602 18.278 20.715 0 0 3.917 2.917 10.652 5.103.498.18 1.002.358 1.517.53a10.005 10.005 0 0 1-.47-.203 48.267 48.267 0 0 0 13.817 2.03c17.438.015 22.58-6.988 22.58-6.988l-.05.038c.246-.232.483-.473.71-.723-2.75 2.599-9.03 2.77-11.377 2.583 4.004-1.175 6.639-2.17 11.764-4.132.6-.223 1.213-.476 1.84-.761l.204-.093c.124-.058.247-.113.373-.174a34.761 34.761 0 0 0 6.994-4.378c5.146-4.111 6.266-8.119 6.851-10.761-.081.253-.336.844-.514 1.226-1.326 2.835-4.265 4.575-7.457 6.067a68.585 68.585 0 0 0 4.22-6.215c1.041-1.033 1.366-2.65 2.144-3.737z" transform="rotate(72 182.238 494.099)"/><path fill="url(#k)" fill-rule="nonzero" d="M98.02 95.416c2.099-2.313 3.983-4.96 5.41-7.96 3.674-7.723 9.353-20.564 4.88-33.975-3.535-10.6-8.389-16.396-14.551-22.057-10.009-9.195-12.804-13.3-12.804-15.74 0 0-11.556 12.881-6.544 26.317 5.011 13.436 15.276 12.943 22.066 26.964 7.991 16.498-6.465 34.503-18.42 39.542.732-.162 26.575-6.01 27.934-20.793-.031.272-.613 4.36-7.97 7.702z" transform="rotate(72 182.238 494.099)"/><path fill="url(#l)" fill-rule="nonzero" d="M64.541 47.475c.04-.873-.414-1.46-7.633-2.136-2.97-.275-4.108-3.02-4.454-4.175-1.057 2.744-1.493 5.623-1.258 9.106.16 2.281 1.693 4.73 2.426 6.168 0 0 .162-.212.238-.29 1.38-1.437 7.16-3.625 7.703-3.936.6-.378 2.878-2.043 2.978-4.737z" transform="rotate(72 182.238 494.099)"/><path fill="url(#m)" fill-rule="nonzero" d="M32.76 31.26c-.105-.182-.16.373-.24.194-.593-1.375-.953-3.603-.868-5.178 0 0-1.226.559-2.24 2.893-.19.42-.31.65-.43.882-.056.068.125-.766.096-.72-.176.298-.633.715-.83 1.23-.165.423-.334.65-.46 1.173-.039.142.04-.63.005-.536-2.36 4.562-2.81 11.46-2.562 11.167 5.025-5.365 10.783-6.637 10.783-6.637-.612-.452-1.944-1.755-3.255-4.469z" transform="rotate(72 182.238 494.099)"/><path fill="url(#n)" fill-rule="nonzero" d="M51.825 87.365c-6.94-2.964-14.832-7.143-14.534-16.638.406-12.504 11.661-10.033 11.661-10.033-.424.104-1.56.912-1.962 1.774-.426 1.078-1.202 3.512 1.15 6.062 3.691 4.001-7.586 9.492 9.82 19.866.44.239-4.08-.143-6.135-1.031z" transform="rotate(72 182.238 494.099)"/><path fill="url(#o)" fill-rule="nonzero" d="M49.359 81.133c4.922 1.713 10.655 1.413 14.088-.483 2.298-1.28 5.246-3.328 7.06-2.823-1.571-.62-2.76-.91-4.191-.981-.244 0-.536-.005-.801-.032a13.56 13.56 0 0 0-1.569.086c-.886.081-1.868.64-2.76.55-.05-.004.865-.375.79-.358-.472.098-.986.12-1.53.187-.344.038-.641.081-.984.096-10.25.869-18.915-5.556-18.915-5.556-.737 2.483 3.302 7.396 8.812 9.314z" transform="rotate(72 182.238 494.099)"/><path fill="url(#p)" fill-rule="nonzero" d="M98.002 95.482c10.369-10.18 15.615-22.555 13.397-36.435 0 0 .886 7.118-2.473 14.397 1.613-7.107 1.801-15.938-2.487-25.084-5.723-12.207-15.135-18.63-18.728-21.31-5.445-4.06-7.702-8.194-7.742-9.047-1.627 3.332-6.547 14.752-.529 24.587 5.638 9.214 14.52 11.95 20.738 20.401 11.455 15.57-2.176 32.491-2.176 32.491z" transform="rotate(72 182.238 494.099)"/><path fill="url(#q)" fill-rule="nonzero" d="M96.517 68.994c-3.624-7.486-8.147-10.75-12.425-14.29.498.697.62.944.896 1.394 3.766 4.013 9.318 13.802 5.287 26.091-7.588 23.132-37.94 12.24-41.122 9.18 1.287 13.387 23.694 19.793 38.284 11.111 8.302-7.859 15.018-21.218 9.08-33.486z" transform="rotate(72 182.238 494.099)"/><g transform="rotate(144 187.398 363.359)"><use fill="#FFF" xlink:href="#r"/><circle cx="65.023" cy="64.539" r="72.5" stroke="#000" stroke-width="16"/><circle cx="65.023" cy="64.539" r="48.029" fill="#FFF" fill-rule="nonzero"/><path fill="#000" fill-opacity=".1" fill-rule="nonzero" d="M95.586 73.271c0-16.88-13.684-30.563-30.563-30.563-16.88 0-30.563 13.683-30.563 30.563h8.731c0-12.058 9.774-21.831 21.831-21.831s21.831 9.774 21.831 21.831"/><circle cx="67.206" cy="70.652" r="16.592" fill="#000" fill-opacity=".1" fill-rule="nonzero"/><circle cx="65.023" cy="64.538" r="17.901" fill="url(#s)" fill-rule="nonzero"/><path fill="url(#t)" fill-rule="nonzero" d="M108.685 42.708C96.665 18.523 67.315 8.66 43.128 20.68a48.904 48.904 0 0 0-18.711 16.35l19.649 34.057c-3.62-11.5 2.771-23.758 14.272-27.376a21.854 21.854 0 0 1 6.248-1.004"/><path fill="url(#u)" fill-rule="nonzero" d="M24.417 37.032c-15.039 22.433-9.044 52.81 13.39 67.85a48.906 48.906 0 0 0 23.286 8.122l20.522-34.93c-7.674 9.301-21.432 10.62-30.733 2.947a21.83 21.83 0 0 1-6.817-9.932"/><path fill="url(#v)" fill-rule="nonzero" d="M61.093 113.004c26.93 2.036 50.413-18.145 52.45-45.076a48.903 48.903 0 0 0-4.859-25.22H64.585c12.056.055 21.786 9.874 21.73 21.931a21.843 21.843 0 0 1-4.703 13.436"/><path fill="url(#w)" fill-rule="nonzero" d="M24.417 37.032l19.649 34.056a21.83 21.83 0 0 1 .873-14.845l-19.65-20.521"/><path fill="url(#x)" fill-rule="nonzero" d="M61.093 113.004l20.522-34.93a21.835 21.835 0 0 1-12.662 7.423l-8.733 27.507"/><path fill="url(#y)" fill-rule="nonzero" d="M108.685 42.708H64.586a21.829 21.829 0 0 1 17.028 8.295l27.944-6.986"/></g><g transform="rotate(-144 194.318 281.091)"><use fill="#FFF" xlink:href="#z"/><circle cx="65.471" cy="64.574" r="72.5" stroke="#000" stroke-width="16"/></g><path fill="#7170F1" fill-rule="nonzero" d="M206.958 501.047c6.063 4.949 10.27 10.61 12.645 17.017 1.115 3.009 1.779 6.12 2.01 9.43.106 1.498.064 3.791-.1 5.45-.095.965-.43 3.072-.643 4.035-.97 4.406-2.7 8.528-5.436 12.96-.598.967-12.63 17.528-13.36 18.388-3.96 4.662-7.917 7.872-12.637 10.249-5.13 2.584-10.674 3.79-16.396 3.566-6.295-.246-12.709-2.276-18.74-5.929-1.62-.98-2.361-1.506-10.118-7.164-7.95-5.8-7.815-5.698-9.361-7.074-9.357-8.327-13.903-19.462-12.61-30.892.69-6.101 2.865-11.919 6.58-17.606.676-1.035 11.1-15.382 11.841-16.299 3.77-4.658 7.966-8.199 12.663-10.682 2.84-1.503 5.522-2.497 8.75-3.244.893-.206 3.104-.553 4.098-.643a34.881 34.881 0 0 1 9.359.406c4.502.818 8.894 2.467 13.11 4.923 1.748 1.019 1.442.804 9.835 6.89 4.387 3.18 8.217 5.98 8.51 6.219zm-20.289 7.46c-5.357-3.355-11.54-4.795-17.803-4.149-.438.045-.898.1-1.022.123l-.226.041.123.061c.411.205 1.76 1.116 3.343 2.258l1.82 1.314.383.02c1.66.087 3.757.466 5.532 1.001 2.87.866 5.845 2.46 8.193 4.394 4.57 3.763 7.53 8.871 8.507 14.673.421 2.506.454 4.986.098 7.482-.074.523-.074.527.086.85a55.433 55.433 0 0 1 1.956 4.528l.36.956.108-.298a28.157 28.157 0 0 0 .653-16.96c-.987-3.623-2.787-7.14-5.18-10.124a29.875 29.875 0 0 0-3.994-4.054c-.47-.388-2.423-1.795-2.937-2.117zm-20.39-.314c-3.323-2.235-6.208-3.688-8.861-4.462-3.583-1.045-6.35-.726-8.219.945-.431.386-1.085 1.303-1.344 1.884-1.074 2.41-1.083 5.706-.027 9.933l.207.826-.126.174c-.335.461-1.336 2.344-1.78 3.347-2.172 4.916-2.895 10.194-2.116 15.463.488 3.304 1.42 6.152 2.974 9.084a27.59 27.59 0 0 0 6.813 8.399c1.19.993 3.11 2.303 4.431 3.023 5.094 2.776 10.674 3.907 16.392 3.322 2.048-.21 4.837-.831 6.42-1.432.158-.06.252-.064.347-.017l.633.318c1.483.743 2.997 1.344 4.3 1.707 1.924.536 3.56.682 4.966.445 2.776-.47 4.522-2.357 5.048-5.458 1.285-7.577-4.698-21.053-14.722-33.158-4.84-5.845-10.314-10.964-15.337-14.343zm-.636 4.616c10.292 7.98 21.228 22.22 25.397 33.069l.206.534-.34.468c-1.071 1.477-2.843 3.256-4.512 4.532-6.73 5.143-15.8 6.378-23.633 3.216a24.212 24.212 0 0 1-11.586-9.782c-1.26-2.057-2.2-4.31-2.835-6.792-.236-.922-.58-3.074-.644-4.023-.197-2.927.071-5.575.851-8.388.5-1.805 1.3-3.69 2.341-5.522.447-.786 2.11-3.1 2.702-3.758 2.242-2.497 4.399-4.165 7.299-5.645.744-.38 1.02-.499 1.087-.47.31.135 2.591 1.727 3.667 2.561zm-8.124-4.743c-2.775 1.74-4.479 3.117-6.343 5.126-.232.25-.433.457-.445.459-.034.005-.099-.582-.126-1.146-.06-1.245.115-2.37.491-3.142.089-.182.27-.455.47-.706.365-.459.677-.699 1.22-.94.38-.167 1.339-.32 1.879-.3.581.022 1.423.17 2.11.369.799.232.813.237.744.28zm35.116 43.675c.3 2.563-.138 4.351-1.305 5.319-1.265 1.048-3.352 1.033-6.102-.045-.09-.035-.161-.07-.156-.077.005-.006.232-.139.504-.294 2.433-1.387 4.799-3.25 6.609-5.202.177-.19.334-.337.35-.326.016.011.06.293.1.625z"/><path fill="#000" d="M229.332 309.289l9.996 35.7h10.336l4.352-15.096 2.448-9.248h.204l2.516 9.248 4.352 15.096h10.54l9.86-35.7h-9.316l-3.468 14.416-2.448 10.88h-.272l-2.924-10.88-4.148-14.416h-9.18l-4.08 14.416-2.856 10.88h-.272l-2.448-10.88-3.468-14.416h-9.724zm61.2 0l9.996 35.7h10.336l4.352-15.096 2.448-9.248h.204l2.516 9.248 4.352 15.096h10.54l9.86-35.7h-9.316l-3.468 14.416-2.448 10.88h-.272l-2.924-10.88-4.148-14.416h-9.18l-4.08 14.416-2.856 10.88h-.272l-2.448-10.88-3.468-14.416h-9.724zm61.2 0l9.996 35.7h10.336l4.352-15.096 2.448-9.248h.204l2.516 9.248 4.352 15.096h10.54l9.86-35.7h-9.316l-3.468 14.416-2.448 10.88h-.272l-2.924-10.88-4.148-14.416h-9.18l-4.08 14.416-2.856 10.88h-.272l-2.448-10.88-3.468-14.416h-9.724z"/><path fill="#030104" fill-rule="nonzero" d="M249.56 299.978a73.607 73.607 0 0 1 7.044-13.575c.413.08.8.246 1.233.246h12.529c-1.327 4.225-2.366 8.724-3.266 13.329h13.695c1.033-4.659 2.233-9.17 3.745-13.329h66.549c1.513 4.159 2.712 8.67 3.745 13.329h13.695c-.9-4.605-1.94-9.104-3.265-13.329h12.528c.434 0 .82-.166 1.24-.246a74.404 74.404 0 0 1 7.037 13.575h14.135C388.934 265.218 356.28 240 317.814 240c-38.465 0-71.12 25.217-82.395 59.978h14.141zm118.41-26.657h-7.918c-1.72-3.619-3.612-6.997-5.67-10.123a73.45 73.45 0 0 1 13.587 10.123zm-50.155-19.993c10.336 0 19.879 7.69 27.07 19.993h-54.14c7.19-12.302 16.733-19.993 27.07-19.993zm-36.58 9.87a84.45 84.45 0 0 0-5.665 10.123h-7.91a73.803 73.803 0 0 1 13.575-10.123zm104.835 90.093a74.017 74.017 0 0 1-7.045 13.575c-.413-.08-.8-.246-1.233-.246h-12.535c1.326-4.225 2.366-8.724 3.265-13.329h-13.694c-1.027 4.659-2.233 9.177-3.746 13.329H284.54c-1.512-4.152-2.712-8.67-3.745-13.329h-13.688c.9 4.605 1.94 9.104 3.265 13.329h-12.535c-.433 0-.82.166-1.233.246a74.017 74.017 0 0 1-7.044-13.575h-14.141c11.275 34.76 43.93 59.978 82.396 59.978 38.465 0 71.12-25.217 82.39-59.978h-14.136zm-118.41 26.657h7.917c1.72 3.619 3.612 7.004 5.665 10.123a73.625 73.625 0 0 1-13.582-10.123zm50.155 19.993c-10.337 0-19.88-7.69-27.07-19.993h54.133c-7.184 12.302-16.727 19.993-27.063 19.993zm36.573-9.87c2.059-3.119 3.952-6.504 5.671-10.123h7.917a73.896 73.896 0 0 1-13.588 10.123z"/></g></svg>
