<svg width="225" height="225" viewBox="0 0 225 225" xmlns="http://www.w3.org/2000/svg"><g fill="none" fill-rule="evenodd"><path fill="#F8E81C" d="M0 0h225v225H0z"/><path d="M164.815 150.637c2.868-1.776 5.327-3.074 7.376-3.893.957-.547 1.572-.478 1.845.205.273.82-.068 1.434-1.024 1.843-3.55 2.46-7.444 6.76-11.68 12.908-.682.684-1.16.615-1.433-.204-.547-1.64-1.57-3.007-3.073-4.1-.547-.682-.547-1.16 0-1.433 2.048-1.776 3.072-3.415 3.072-4.918v-16.597c-1.64 0-3.483.205-5.532.615-.547.273-.957.068-1.23-.615-.274-1.23-.888-2.254-1.843-3.073-.546-.41-.683-.752-.41-1.025.274-.273.616-.273 1.026 0 2.595.547 5.258.82 7.99.82v-11.883c-.136-2.73-.273-5.12-.41-7.17-.136-1.093.137-1.57.82-1.434 3.688 1.23 6.146 2.117 7.376 2.663.956.683.888 1.23-.204 1.638-1.094.547-1.777 1.16-2.05 1.844-.41.957-.614 1.777-.614 2.46v8.195c5.19-5.464 8.674-10.518 10.45-15.162.41-.682.82-.818 1.23-.41 2.458 1.914 4.643 3.69 6.556 5.33.41.546.546.956.41 1.23-.41.272-1.025.34-1.844.203-1.367-.273-3.484.683-6.352 2.868-3.688 3.143-7.172 5.875-10.45 8.197v1.435h9.425c.41 0 .82-.205 1.23-.614l3.687-4.302c.41-.41.887-.41 1.434 0 1.776 1.776 3.28 3.415 4.51 4.917.68.957.818 1.777.41 2.46-.41.41-1.026.683-1.846.82H173.01c1.64 3.55 3.62 7.102 5.94 10.654 2.05 2.595 4.987 5.258 8.81 7.99.41.137.48.478.207 1.024-.274.548-.82.684-1.64.41-2.322.82-3.756 1.778-4.302 2.87-.274.41-.615.34-1.024-.205-3.005-5.19-5.463-9.767-7.375-13.728-1.367-3.28-2.324-6.284-2.87-9.016h-5.94v16.188zm40.774.205c-.138 3.005-.753 5.532-1.845 7.58-1.64 3.007-3.28 5.056-4.918 6.148-.547.547-.957.82-1.23.82-.136 0-.41-.82-.818-2.46-.685-2.322-1.368-3.893-2.05-4.712-.548-1.092-2.05-1.91-4.508-2.458-1.094-.136-1.572-.75-1.434-1.844 0-1.093.546-1.57 1.64-1.434 4.506 1.23 7.51 1.434 9.014.615.82-.547 1.298-1.708 1.435-3.485V85.89c-.137-6.557-.274-11.816-.41-15.777-.274-1.365-.07-1.912.614-1.64 3.826 1.64 6.353 2.87 7.583 3.69.682.683.546 1.297-.41 1.844-1.094.683-1.777 1.365-2.05 2.048-.41 1.503-.614 4.78-.614 9.835v64.952zm-16.8-62.903c-.14-1.504.202-2.05 1.022-1.64 3.552 1.366 5.874 2.46 6.967 3.28.955.546.886 1.228-.206 2.047-.957.547-1.572 1.23-1.845 2.05-.548 1.64-.82 4.917-.82 9.834v4.713c0 9.562.135 17.553.41 23.973.135.683 0 1.16-.41 1.434-.957.82-2.323 1.98-4.098 3.483-.82.82-1.23.342-1.23-1.434.41-10.93.615-20.08.615-27.457v-4.713c0-6.557-.137-11.747-.41-15.572h.002zm2.047-35.653c.546.547 1.024 1.093 1.434 1.64 1.367 3.413 1.846 6.623 1.436 9.63-.41 2.458-1.024 3.687-1.844 3.687-.683.273-1.98-.614-3.893-2.663-2.46-3.004-6.08-6.146-10.86-9.425-4.918-3.415-13.865-7.65-26.84-12.703-1.503-.547-2.118-1.434-1.845-2.663.546-1.094 1.707-1.23 3.483-.41 4.917.82 12.635 3.005 23.153 6.556 4.645 1.365 8.606 2.867 11.885 4.506l3.893 1.844zm-84.62-13.93c1.23-.82 2.117-.957 2.664-.41 4.918 3.28 8.47 5.942 10.656 7.99.683.82.956 1.503.82 2.05-.274.41-1.094.547-2.46.41-1.912-.273-4.302-.205-7.17.205-1.912.273-5.942 1.844-12.09 4.712-9.288 3.96-19.67 7.445-31.143 10.45-1.64.41-2.665-.068-3.073-1.434-.41-1.367.204-2.323 1.844-2.87C79.65 54.133 92.97 47.1 106.22 38.357h-.003zM70.565 33.85c-.274 1.775-.615 3.55-1.025 5.326-1.776 5.737-3.96 9.903-6.556 12.498-2.187 1.503-4.168 2.186-5.943 2.05-1.775-.41-3.073-1.093-3.892-2.05-.684-1.367-.957-2.937-.82-4.712.136-1.64 1.23-3.143 3.28-4.508 2.866-2.05 5.393-4.78 7.58-8.196 2.05-3.687 3.55-8.263 4.507-13.727.137-1.228.684-1.775 1.64-1.64.956 0 1.503.684 1.64 2.05.136 2.87.136 5.602 0 8.197h56.96v-.41c-.547-2.322-1.23-4.37-2.048-6.147-.956-2.322-2.117-4.166-3.483-5.532-.41-.82-.207-1.5.613-2.048l3.893.82c3.552 1.502 6.01 2.868 7.377 4.098 1.502 1.367 2.32 2.46 2.458 3.278 0 2.322-.615 4.303-1.843 5.942h49.993c1.366 0 2.323-.273 2.87-.82l5.327-6.556c.683-.683 1.298-1.025 1.844-1.025.546.136 1.093.477 1.64 1.024 3.824 3.416 7.65 7.24 11.474 11.475.546.683.75 1.297.615 1.844-.41.682-1.3.955-2.665.82-3.005 0-6.01 1.092-9.015 3.277-2.732 1.502-5.054 3.073-6.966 4.712-2.597 2.73-4.51 3.824-5.74 3.277-1.366-.547-1.093-2.39.82-5.532 1.777-3.005 3.21-5.6 4.304-7.786H70.564zm59.83 110.23c.41 0 .818-.274 1.228-.82l3.688-3.28c.547-.546 1.026-.546 1.436 0 1.776 1.23 3.278 2.596 4.508 4.1.82.956.956 1.776.41 2.46-.274.408-.888.613-1.844.613h-13.115c-2.868.137-5.395.41-7.58.82-.547.136-.888-.07-1.024-.615-.273-1.23-.956-2.254-2.05-3.073-.41-.547-.545-.957-.41-1.23.274-.136.684-.067 1.23.206 2.596.548 5.465.82 8.607.82h4.917zm-32.17 6.556c2.868-1.777 5.327-3.075 7.376-3.894.957-.547 1.57-.478 1.845.205.273.82-.068 1.435-1.024 1.845-3.55 2.46-7.445 6.76-11.68 12.908-.682.683-1.16.614-1.433-.205-.547-1.64-1.57-3.006-3.073-4.098-.547-.683-.547-1.16 0-1.434 2.048-1.776 3.072-3.415 3.072-4.918V134.45c-1.64 0-3.483.204-5.532.614-.547.273-.957.068-1.23-.615-.274-1.23-.888-2.255-1.843-3.074-.546-.41-.683-.753-.41-1.026.274-.273.615-.273 1.025 0 2.596.547 5.26.82 7.992.82v-11.883c-.137-2.732-.274-5.122-.41-7.17-.136-1.093.137-1.572.82-1.436 3.688 1.23 6.146 2.118 7.376 2.665.956.683.888 1.23-.205 1.64-1.094.547-1.777 1.16-2.05 1.843-.41.957-.613 1.777-.613 2.46v8.196c5.19-5.464 8.674-10.518 10.45-15.162.41-.683.82-.82 1.23-.41 2.458 1.912 4.643 3.688 6.556 5.327.41.546.547.956.41 1.23-.41.272-1.024.34-1.844.205-1.366-.273-3.482.683-6.35 2.868-3.688 3.142-7.172 5.874-10.45 8.196v1.433h9.425c.41 0 .82-.205 1.23-.615l3.688-4.303c.41-.41.888-.41 1.435 0 1.775 1.775 3.277 3.414 4.507 4.917.683.956.82 1.776.41 2.46-.41.41-1.024.683-1.844.82H106.42c1.64 3.55 3.62 7.102 5.942 10.654 2.05 2.595 4.986 5.26 8.81 7.99.41.137.478.478.206 1.025-.274.548-.82.684-1.64.41-2.322.82-3.756 1.777-4.302 2.87-.274.41-.615.342-1.024-.205-3.006-5.19-5.464-9.767-7.376-13.728-1.367-3.278-2.324-6.283-2.87-9.015h-5.94v16.187-.004zm8.4 37.085c-2.05 0-3.893-.41-5.532-1.23-1.64-.82-2.458-2.39-2.458-4.71v-13.73c0-2.048-.205-3.96-.615-5.736 0-.82.478-1.162 1.434-1.025 6.283.955 10.517 1.775 12.702 2.46.956.272.956.546 0 .82-2.186.818-3.483 1.364-3.893 1.637-.82.41-1.23 1.025-1.23 1.845v10.654c.136 1.23.546 1.98 1.23 2.253.82.546 1.912.82 3.278.82h45.488c1.638 0 2.936-.138 3.893-.41 1.094-.41 1.982-1.23 2.664-2.46 1.913-1.913 3.553-5.26 4.92-10.04.136-1.64.818-2.39 2.048-2.254 1.502.137 2.186.957 2.05 2.46-.547 4.917-.343 8.468.613 10.653.684 1.228 1.64 2.048 2.87 2.457.41.137.546.343.41.616-1.094 1.64-2.596 2.8-4.508 3.483-2.186.956-5.054 1.434-8.606 1.434h-56.755zm76.632-18.03c-1.503-1.366-1.98-2.46-1.435-3.28.273-.82 1.024-.887 2.254-.204 8.06 3.005 14.07 5.737 18.032 8.196 2.732 1.64 4.166 3.143 4.303 4.508.137 1.093-.614 2.46-2.253 4.098-1.23 1.23-2.458 1.776-3.687 1.64-1.094 0-1.708-.547-1.844-1.64-1.504-3.28-3.553-5.874-6.148-7.786-2.596-2.322-5.67-4.166-9.22-5.532zm-50.61-5.942c-1.094-.82-1.435-1.777-1.024-2.87.956-.273 1.844-.137 2.664.41l14.752 7.377c2.184 1.092 3.482 2.185 3.892 3.278.273 1.093-.274 2.46-1.64 4.097-1.64.41-3.14.273-4.507-.41-2.596-1.365-4.713-3.345-6.352-5.94-2.322-1.777-4.918-3.758-7.786-5.943zm-48.15 1.844c.683-.956 1.503-1.434 2.46-1.434 1.365 0 2.116.547 2.253 1.64-.274 3.96-1.503 7.443-3.688 10.45-2.46 3.277-5.328 5.6-8.606 6.965-1.638.683-3.277.957-4.916.82-1.367-.273-2.392-.615-3.074-1.025-.547-.547-.684-1.23-.41-2.05.273-.682 1.23-1.296 2.87-1.843 2.458-1.093 4.848-2.733 7.17-4.918 2.596-2.187 4.577-5.055 5.943-8.606l-.003.002zm-17.005-87.9V91.83h11.883V77.693H67.493zm0 20.694v14.752h11.883v-14.75H67.493v-.002zm16.187 46.716c0 3.55-.41 6.966-1.23 10.245-.957 2.05-1.982 3.006-3.074 2.87-.41.547-.683.547-.82 0-.41-1.503-1.228-2.87-2.457-4.1-1.095-1.775-3.35-3.618-6.763-5.53l-.614-.615c0-1.367.273-1.98.82-1.844 2.732.273 4.712.615 5.942 1.025 1.912.41 3.004.205 3.278-.615.41-.41.615-1.912.615-4.507V119.9h-12.09c0 3.553-.07 6.695-.205 9.427-.274 6.83-1.298 13.113-3.073 18.85-1.094 3.96-2.528 8.4-4.303 13.317-.82 1.093-1.64 1.162-2.458.205-.41-.548-.343-1.504.204-2.87 1.64-5.19 2.87-9.767 3.688-13.728.956-5.327 1.57-9.903 1.844-13.728.273-6.693.41-14.616.41-23.768v-24.18c0-6.966-.07-11.746-.206-14.34-.137-.548-.137-1.094 0-1.64.136-.41.478-.41 1.025 0 .682.41 1.432 1.57 2.252 3.483h12.908c.41 0 .615-.07.615-.206l1.64-3.073c.136-.546.272-.82.41-.82.136 0 .34.274.614.82 1.228.957 2.39 3.21 3.482 6.76.273 1.23.273 2.12 0 2.666-1.367 2.185-2.118 3.62-2.254 4.302-.137.683-.205 1.297-.205 1.844V145.1l.002.002zm38.315-36.06c.135-1.914.203-3.827.203-5.738v-7.787c0-2.322-.068-4.302-.204-5.94 0-.82.136-1.23.408-1.23.273-.273.75 0 1.435.82.956 1.092 2.048 2.184 3.278 3.277h12.295c.546.137.888.068 1.024-.205l2.048-2.87c.546-1.092 1.16-1.23 1.844-.41 1.502 1.504 2.937 3.21 4.303 5.123.41.683.614 1.093.614 1.23l-.41.41c-1.367.956-2.118 1.64-2.254 2.048-.137.274-.205.548-.205.82v2.87c0 .956.205 2.39.616 4.3 0 .82-.204 1.368-.614 1.64-2.458 1.64-3.96 2.46-4.506 2.46-.41 0-.615-.477-.615-1.434v-2.665h-13.73v1.845c-.136.82-.34 1.23-.614 1.23-.682.41-1.775.955-3.277 1.638l-1.64-1.434h.002zm54.296-8.4c-.136-.412-.204-.753-.204-1.026-.956-2.87-2.117-5.26-3.482-7.173-.41-.82-.41-1.503 0-2.05.546-.545 1.16-.34 1.844.616 3.414 3.277 5.873 6.42 7.376 9.424 1.093 2.05 1.64 3.62 1.64 4.713-.41 1.913-1.163 3.28-2.255 4.1-1.095.955-1.846 1.365-2.255 1.228-.41-.137-.752-1.093-1.025-2.868-.274-1.64-.547-3.074-.82-4.303-3.142.273-6.283.75-9.425 1.434-3.825.957-7.377 2.118-10.655 3.484-.683.273-1.093.137-1.23-.41-.41-1.64-.888-3.278-1.434-4.917-.272-.683-.136-1.16.41-1.434 1.23-.41 2.05-.887 2.46-1.434 1.776-1.775 4.098-4.78 6.966-9.015 1.093-2.048 2.186-3.892 3.28-5.53-1.64.272-3.144.614-4.51 1.024-2.458.683-4.78 1.57-6.965 2.664-.547.273-.888.137-1.024-.41-.547-1.503-1.094-2.938-1.64-4.304-.274-.547-.205-.957.206-1.23.82-.547 1.433-1.093 1.843-1.638 1.093-1.64 2.527-4.235 4.303-7.786 2.184-4.918 3.89-9.357 5.12-13.318.137-.547.274-.888.41-1.025.273-.137.683.067 1.23.614 2.05 2.323 3.552 4.1 4.508 5.328.41.41.546.753.41 1.026-.137.41-.41.614-.82.614-.683 0-1.23.41-1.64 1.23-1.776 1.775-3.688 4.234-5.736 7.376-1.776 2.87-3.484 5.19-5.123 6.966-.274.547-.41.888-.41 1.025.136.137.477.137 1.024 0 3.004-.137 6.487-.478 10.45-1.025 1.5-2.732 2.8-5.327 3.892-7.786.273-.683.546-1.024.82-1.024.41 0 .75.34 1.024 1.024 2.05 3.005 3.484 5.19 4.304 6.557.41.548.478.958.205 1.23-.138.274-.41.342-.82.205-.684 0-1.367.41-2.05 1.23-2.732 2.185-5.737 5.19-9.015 9.015-2.87 3.415-5.532 6.215-7.99 8.4-.41.547-.616.888-.616 1.025.136.273.682.41 1.64.41 4.506-.683 9.765-1.434 15.776-2.254zm-48.764-5.33v7.58h13.73v-7.58h-13.73zm8.4-11.473c.956-.138 1.57-.206 1.845-.206.41-.273.89-.615 1.436-1.025l2.05-2.46c.408-.546.818-.546 1.228 0 2.322 1.64 4.44 2.8 6.352 3.484.82.683 1.16 1.297 1.024 1.844 0 .683-.615 1.025-1.844 1.025h-16.8c-2.05 0-4.304.342-6.762 1.025-.274.137-.48.068-.615-.205-.957-.956-1.777-2.117-2.46-3.483-.41-.82-.137-1.162.82-1.025 4.37.547 6.83.888 7.376 1.025h6.352-.002zm0-8.4c.956-.138 1.57-.207 1.845-.207.41-.273.89-.615 1.436-1.024l2.05-2.46c.408-.548.818-.548 1.228 0 2.322 1.64 4.44 2.8 6.352 3.483.82.683 1.16 1.298 1.024 1.844 0 .683-.615 1.025-1.844 1.025h-16.8c-2.05 0-4.304.34-6.762 1.024-.274.136-.48.067-.615-.206-.957-.956-1.777-2.117-2.46-3.483-.41-.82-.137-1.09.82-.818 4.37.408 6.83.682 7.376.82h6.352-.002zm-9.22-5.33c-1.912 0-4.098.274-6.556.82-.274.137-.478.068-.614-.205-.957-1.775-1.777-2.936-2.46-3.483-.41-.82-.136-1.093.82-.82 4.37.547 6.762.82 7.172.82h8.4c0-.41-.068-.887-.204-1.434-.41-2.32-.957-4.438-1.64-6.35-.274-.683-.274-1.298 0-1.845.546-.683 1.16-.546 1.845.41 3.55 2.46 5.257 4.098 5.12 4.917-.136 2.05-.75 3.484-1.843 4.303h3.074c.957 0 1.64-.137 2.05-.41.274-.136.684-.477 1.23-1.024l2.253-2.664c.41-.41.888-.41 1.435 0 2.46 1.913 4.714 3.28 6.762 4.098.82.547 1.16 1.093 1.025 1.64 0 .683-.615 1.093-1.844 1.23h-26.025v-.003zm-14.137 29.917c-.138-.41-.275-.753-.41-1.026-.957-2.73-1.982-4.916-3.074-6.555-.41-.82-.41-1.503 0-2.05.41-.683 1.024-.546 1.844.41 3.005 3.005 5.258 5.805 6.76 8.4 1.093 1.913 1.572 3.28 1.436 4.1-.137 2.048-.82 3.482-2.05 4.302-1.092.956-1.843 1.434-2.253 1.434-.41-.136-.684-1.092-.82-2.867-.274-1.23-.547-2.39-.82-3.484-3.142.546-6.283 1.23-9.424 2.05-3.827.955-7.378 2.32-10.656 4.096-.684.136-1.094 0-1.23-.41-.41-1.776-.957-3.347-1.64-4.713-.274-.82-.137-1.298.41-1.434 1.093-.684 1.98-1.3 2.664-1.845 1.64-1.913 3.825-5.056 6.557-9.427 1.228-2.322 2.39-4.44 3.482-6.35-1.367.272-2.733.68-4.098 1.228-2.46.683-4.713 1.572-6.76 2.665-.548.41-.89.342-1.027-.204-.41-1.503-.956-2.937-1.64-4.303-.274-.683-.205-1.16.206-1.434.82-.548 1.433-1.026 1.843-1.436 1.093-1.64 2.46-4.234 4.098-7.786 2.323-4.78 4.098-9.15 5.328-13.113 0-.547.136-.82.41-.82.273-.137.615.068 1.025.614 2.185 2.458 3.756 4.234 4.712 5.327.273.547.34.888.205 1.024 0 .41-.205.616-.615.616-.547 0-1.162.41-1.844 1.23-1.775 1.776-3.687 4.167-5.736 7.172-1.776 2.73-3.416 4.985-4.918 6.76-.41.41-.547.684-.41.82 0 .137.273.206.82.206 2.868-.41 6.214-.957 10.04-1.64 1.365-2.732 2.526-5.26 3.483-7.58.272-.683.545-1.025.82-1.025.272 0 .613.272 1.023.82 2.048 2.867 3.55 4.984 4.506 6.35.272.546.34.956.204 1.23-.136.272-.41.41-.818.41-.684 0-1.367.34-2.05 1.024-2.732 2.46-5.668 5.737-8.81 9.835-2.87 3.687-5.532 6.76-7.99 9.22-.41.41-.615.75-.615 1.024.137.273.615.34 1.435.204 4.78-.82 10.245-1.844 16.393-3.073v.002zm-80.74 6.89c-3.688 0-7.854.478-12.5 1.433-.683.137-1.093 0-1.23-.41-1.775-2.595-3.345-4.985-4.71-7.17-.82-1.367-.343-1.845 1.433-1.435 8.333.683 12.977 1.093 13.933 1.23h6.147c.956-.547 1.64-.888 2.05-1.025l4.712-5.328c.818-1.093 1.706-1.23 2.662-.41 4.508 3.28 8.674 6.625 12.5 10.04.956.683 1.024 1.298.204 1.845-3.96 2.595-6.01 4.098-6.146 4.507-.41.82-.615 2.323-.615 4.508v57.575c-.138 2.595.68 4.713 2.457 6.352 5.326 5.326 12.498 9.628 21.514 12.907 9.972 3.55 20.9 5.26 32.784 5.122l62.698-.616c8.196 0 19.943-.82 35.242-2.458l6.762-1.23c.82-.137 1.23.273 1.23 1.23.136 1.092-.684 1.91-2.46 2.457-2.595.683-4.917 1.913-6.966 3.69-2.322 2.048-3.757 4.37-4.303 6.965-.41.956-1.297 1.366-2.663 1.23-7.514-.547-15.64-.752-24.383-.615l-63.312.614c-11.338.273-22.402-2.117-33.193-7.17-11.337-5.327-20.147-12.157-26.43-20.49-1.367-1.64-2.324-2.46-2.87-2.46-.546.137-1.228.684-2.048 1.64-4.234 7.513-8.058 13.32-11.474 17.416-2.596 2.595-4.986 6.215-7.17 10.86-.684 1.093-1.3 1.708-1.845 1.843-.684 0-1.094-.41-1.23-1.23-1.23-3.688-3.346-7.24-6.35-10.655-.82-1.092-.548-1.912.818-2.457 7.923-3.69 14.138-8.47 18.646-14.343 3.552-3.552 5.123-6.42 4.713-8.606v-65.36h-8.607v.003zM19.33 26.397c-.547-.957-.547-1.846 0-2.665.82-.82 1.912-.615 3.278.615 7.103 4.644 12.908 9.698 17.415 15.162 2.868 3.277 4.37 6.42 4.508 9.424.136 2.732-.888 6.01-3.073 9.835-1.776 3.14-3.484 4.644-5.123 4.507-1.367-.273-2.118-1.708-2.254-4.303-1.094-7.103-3.142-13.318-6.146-18.645-2.732-4.918-5.6-9.563-8.606-13.934h.002zm125.81 129.49c-.82 2.458-3.416 4.233-7.786 5.326-.547.137-.82.068-.82-.205-.41-1.64-1.024-2.8-1.844-3.482-1.094-.82-3.074-1.57-5.942-2.254-.956-.137-1.434-.547-1.434-1.23.136-.683.614-.956 1.434-.82 6.966.684 10.996.41 12.09-.818 1.365-1.093 2.39-2.733 3.073-4.918.546-4.78 1.024-8.195 1.434-10.245h-20.49c-.546.82-.955 1.368-1.228 1.64-.275.548-.616.616-1.026.205-.956-1.367-2.39-2.46-4.303-3.278-.546-.41-.546-.753 0-1.026.547-.408 1.162-.886 1.846-1.433.272-.273.544-.615.818-1.024 1.64-3.142 2.254-6.694 1.844-10.655 0-.683.273-.956.82-.82 2.185.82 4.507 1.98 6.966 3.484.683.273 1.025.615 1.025 1.025 0 .41-.41.75-1.23 1.023-1.095.41-1.846 1.16-2.255 2.254-.274.547-.957 1.708-2.05 3.483l-.41 2.05h9.426l3.69-17.417h-6.763c-2.868.137-5.395.41-7.58.82-.547.137-.89-.068-1.025-.615-.274-1.23-.957-2.322-2.05-3.278-.547-.41-.684-.752-.41-1.025.273-.273.683-.273 1.23 0 2.595.683 5.464 1.025 8.606 1.025h7.376c.41-.137.75-.342 1.024-.615l1.434-2.05c.41-.682.956-.75 1.64-.204 1.638 1.23 3.21 2.597 4.712 4.1.546.547.683 1.025.41 1.434-.137.273-.547.478-1.23.614-.956.137-1.64.342-2.05.615-.272.274-.477.684-.613 1.23l-3.28 15.367h2.05c.82-.137 1.367-.342 1.64-.615l2.254-3.28c.41-.682.956-.682 1.64 0 2.458 2.187 4.44 4.1 5.942 5.738.273.547.205.888-.205 1.025-2.186.683-3.347 1.57-3.482 2.664-1.23 8.468-2.87 13.863-4.918 16.186h.002z" fill="#000" fill-rule="nonzero"/></g></svg>
