<svg xmlns="http://www.w3.org/2000/svg" viewBox="0 0 212 60"><g fill="none" fill-rule="evenodd"><path fill="#000" fill-rule="nonzero" d="M157.78 29.156h-16.405l-2.875 6.688c-.708 1.646-1.063 2.875-1.063 3.687 0 .65.303 1.22.907 1.72.625.48 1.958.8 4 .94v1.16H129v-1.16c1.77-.31 2.917-.72 3.438-1.22 1.062-1 2.24-3.03 3.53-6.09L150.876 0h1.094l14.75 35.25c1.186 2.833 2.26 4.677 3.218 5.53.98.835 2.333 1.303 4.062 1.408v1.156h-16.72v-1.156c1.69-.084 2.824-.365 3.407-.844.605-.48.907-1.063.907-1.75 0-.917-.417-2.365-1.25-4.344l-2.563-6.094m-.87-2.312L149.72 9.72l-7.376 17.124h14.562M211.938.97v1.155c-1.5.27-2.636.75-3.407 1.438-1.1 1.02-2.08 2.583-2.93 4.687l-14.78 36.063h-1.16L173.78 7.78c-.81-1.874-1.384-3.02-1.718-3.436-.52-.646-1.166-1.146-1.937-1.5-.75-.375-1.77-.615-3.063-.72V.97h17.313v1.155c-1.958.188-3.23.52-3.813 1-.583.48-.875 1.094-.875 1.844 0 1.04.48 2.66 1.438 4.87l10.78 24.84 10-24.53c.98-2.42 1.47-4.098 1.47-5.03 0-.61-.302-1.18-.906-1.72-.61-.56-1.63-.96-3.07-1.19-.11-.02-.28-.055-.53-.097V.97h13.06M30.78 29.156H14.376L11.5 35.844c-.708 1.646-1.063 2.875-1.063 3.687 0 .65.303 1.22.907 1.72.625.48 1.958.8 4 .94v1.16H2v-1.16c1.77-.31 2.917-.72 3.438-1.22 1.062-1 2.24-3.03 3.53-6.09L23.876 0h1.094l14.75 35.25c1.186 2.833 2.26 4.677 3.218 5.53.98.835 2.333 1.303 4.062 1.407v1.157H30.28v-1.157c1.69-.083 2.824-.364 3.407-.843.605-.48.907-1.063.907-1.75 0-.917-.417-2.365-1.25-4.344l-2.563-6.094m-.87-2.312L22.72 9.72l-7.376 17.124h14.562M91.876 0v1.156c-1.5.27-2.636.75-3.407 1.438-1.11 1.02-2.09 2.583-2.94 4.687L70.75 43.35h-1.156L53.72 6.812c-.814-1.874-1.387-3.02-1.72-3.437-.52-.646-1.167-1.146-1.938-1.5-.75-.375-1.77-.615-3.062-.72V0h17.313v1.156c-1.96.188-3.23.52-3.813 1-.583.48-.875 1.094-.875 1.844 0 1.042.48 2.667 1.438 4.875l10.78 24.844 10-24.54c.98-2.42 1.47-4.098 1.47-5.03 0-.61-.303-1.18-.907-1.72-.604-.56-1.625-.96-3.062-1.19-.104-.02-.282-.055-.53-.097V0h13.06"/><path stroke="#0097FF" stroke-width=".5" d="M167 0v42.433M174 0v42.433M47 0v42.433"/><text fill="navy" font-size="11" transform="translate(-1)"><tspan x=".341" y="56.207">No kerning</tspan></text><text fill="navy" font-size="11.151" transform="translate(-1)"><tspan x="129" y="55">Kerning applied</tspan></text></g></svg>
