<?xml version="1.0" encoding="UTF-8"?>
<svg width="280px" height="165px" viewBox="0 0 280 165" version="1.1" xmlns="http://www.w3.org/2000/svg" xmlns:xlink="http://www.w3.org/1999/xlink">
    <!-- Generator: Sketch 51.1 (57501) - http://www.bohemiancoding.com/sketch -->
    <title>Group 14</title>
    <desc>Created with Sketch.</desc>
    <defs></defs>
    <g id="Boxes" stroke="none" stroke-width="1" fill="none" fill-rule="evenodd">
        <g id="Group-14" transform="translate(0.031250, 0.000000)">
            <g id="Boxie2" transform="translate(54.249519, 60.003070)">
                <path d="M167.729004,22.0311366 C168.551567,21.1524245 161.567943,2.43115234 157.589635,1.05694194 C153.611328,-0.317268468 15.9389648,-0.317268468 14.453125,1.05694194 C13.7331882,1.72279072 17.1366254,6.27970138 19.9594727,11.2004866 C22.962552,16.4354522 24.5110036,22.0311366 25.1694336,22.0311366 C26.4467773,22.0311366 166.906441,22.9098486 167.729004,22.0311366 Z" id="Line-8" stroke="#1D877A" stroke-width="3" fill="#FFFFFF" stroke-linecap="square"></path>
                <path d="M170.618771,30.8076172 C175.681271,32.6448568 178.779578,35.4514974 179.913693,39.2275391 C181.047808,43.0035807 181.047808,48.5960286 179.913693,56.0048828" id="Line-15" stroke="#000000" stroke-width="5" stroke-linecap="round" transform="translate(175.691525, 43.406250) scale(1, -1) translate(-175.691525, -43.406250) "></path>
                <path d="M87,82.9804688 C83.4253404,85.2317889 81.1271633,87.3515806 80.1054688,89.3398438 C79.0837742,91.3281069 78.7548354,94.6464663 79.1186523,99.2949219 L71.4726562,102.117188" id="Line-6" stroke="#000000" stroke-width="5" stroke-linecap="round"></path>
                <path d="M117.273438,82.9804688 C113.698778,85.2317889 111.400601,87.3515806 110.378906,89.3398438 C109.357212,91.3281069 109.028273,94.6464663 109.39209,99.2949219 L101.746094,102.117188" id="Line-6" stroke="#000000" stroke-width="5" stroke-linecap="round" transform="translate(109.509766, 92.548828) scale(-1, 1) translate(-109.509766, -92.548828) "></path>
                <path d="M167.77338,87.49393 C168.129193,87.1143601 168.657608,82.8956612 168.901346,76.7246078 C169.137123,70.7550794 169.177226,62.828406 169.04144,54.0760736 C168.919331,46.2052929 168.659121,38.1075374 168.333617,31.7819301 C168.175316,28.7056402 168.007149,26.1642363 167.841726,24.357868 C167.765479,23.5252612 167.690647,22.8585374 167.61967,22.3762689 C167.379435,22.4020596 167.015109,22.3579373 166.923864,22.3517533 C165.850601,22.2790149 164.290397,22.207521 162.275726,22.138355 C158.371346,22.0043132 152.802618,21.8804303 145.900079,21.7720442 C132.476241,21.5612584 114.602923,21.4187899 96.5865601,21.3778845 C77.7117929,21.3350302 60.1315469,21.4058175 47.1524008,21.5889282 C40.1461526,21.6877729 34.5618932,21.8178571 30.6323326,21.9777405 C28.5887819,22.0608872 27.003041,22.1517243 25.9041237,22.2491634 C25.3828127,22.2953871 24.627595,22.4247382 24.9047609,22.145334 C25.0713521,21.9773975 25.003774,22.1739535 24.9473391,22.4404569 C24.8401009,22.9468691 24.7283547,23.6710537 24.6165641,24.5893156 C24.39361,26.4206881 24.1759893,28.975047 23.977354,32.075476 C23.5777788,38.3123043 23.2787763,46.3724311 23.1581524,54.3197714 C23.0274085,62.9338791 23.1116764,70.8403318 23.4249167,76.7966066 C23.7463741,82.9091288 24.3903495,87.0455613 24.8152772,87.4092977 C25.3022616,87.8261544 34.4454204,88.5147622 47.7233118,88.923807 C60.8677378,89.3287402 78.3829704,89.5478516 96.5698242,89.5478516 C114.756607,89.5478516 132.231409,89.3287414 145.301083,88.9238151 C152.194313,88.7102482 157.754682,88.4488358 161.713288,88.1465064 C163.755124,87.9905659 165.357381,87.8246704 166.486843,87.6518029 C167.299038,87.527494 167.893597,87.3656349 167.773401,87.4939103 Z" id="Rectangle-3" stroke="#1D877A" stroke-width="3" fill="#FFFFFF"></path>
                <path d="M84.8398438,65.9453125 C89.6581369,69.0429688 93.3531239,70.5917969 95.9248047,70.5917969 C98.4964855,70.5917969 102.191472,69.0429688 107.009766,65.9453125" id="Line-13" stroke="#000000" stroke-width="4" stroke-linecap="round"></path>
                <path d="M83,48.8964844 L83,53.3964844" id="Line-12" stroke="#000000" stroke-width="4" stroke-linecap="round"></path>
                <path d="M108.509766,48.8964844 L108.509766,53.3964844" id="Line-12" stroke="#000000" stroke-width="4" stroke-linecap="round"></path>
                <path d="M13.8789062,1.22900391 C12.422526,1.85530599 12.422526,24.9645182 13.8789062,70.5566406 C20.273763,82.4169922 23.7965495,87.8725586 24.4472656,86.9233398 C25.4233398,85.4995117 24.4472656,74.7867019 24.4472656,56.7491042 C24.4472656,44.7240391 24.7617187,33.2078989 25.390625,22.2006836 C19.172526,7.59326172 15.3352865,0.602701823 13.8789062,1.22900391 Z" id="Line-9" stroke="#1D877A" stroke-width="3" fill="#FFFFFF" stroke-linecap="square"></path>
                <path d="M20.84375,10.4873047 L161.984375,10.4873047" id="Line-10" stroke="#1D877A" stroke-width="3" stroke-linecap="square"></path>
                <path d="M17.088623,29.1621094 C11.5801595,31.2102865 7.59903971,33.8867188 5.14526367,37.1914062 C2.69148763,40.4960938 1.16414388,45.7311198 0.563232422,52.8964844" id="Line-14" stroke="#000000" stroke-width="5" stroke-linecap="round" transform="translate(8.825928, 41.029297) scale(1, -1) translate(-8.825928, -41.029297) "></path>
            </g>
            <g id="Group-10" fill="#000000">
                <path d="M268.495197,93.6869465 C267.923042,93.9070062 267.378402,93.8519921 266.861262,93.5219025 C266.344122,93.1918129 266.041544,92.7186915 265.95352,92.1025243 C266.327622,91.6183929 266.690715,91.2938096 267.04281,91.1287648 C267.394906,90.96372 267.713988,90.9142073 268.000065,90.9802253 C268.286143,91.0462432 268.528205,91.1892799 268.726259,91.4093396 C268.924313,91.6293993 269.056347,91.8824642 269.122365,92.1685419 C269.188382,92.4546195 269.171878,92.7351915 269.072851,93.0102662 C268.973824,93.2853408 268.781275,93.5108987 268.495197,93.6869465 Z M265.967599,82.6141843 C265.531872,82.198263 265.304109,81.7427369 265.284303,81.2475925 C265.264497,80.752448 265.368476,80.2325542 265.596243,79.6878953 C265.824009,79.1432364 266.140897,78.5886829 266.546915,78.0242182 C266.952934,77.4597536 267.368849,76.9052001 267.794673,76.3605412 C268.220497,75.8158823 268.611655,75.2959884 268.968159,74.800844 C269.324663,74.3056995 269.582135,73.8551249 269.740581,73.4491064 C269.899027,73.043088 269.90893,72.6915407 269.770289,72.394454 C269.631649,72.0973673 269.265248,71.879507 268.671074,71.7408666 C268.274959,71.6616435 267.794676,71.7210599 267.230211,71.9191177 C266.665746,72.1171755 266.091387,72.3795981 265.507117,72.7063934 C264.922847,73.0331888 264.368293,73.3896874 263.84344,73.7759001 C263.318587,74.1621128 262.887818,74.5037573 262.551119,74.800844 C262.115392,74.800844 261.778699,74.7909413 261.54103,74.7711355 C261.30336,74.7513297 261.055792,74.5829831 260.798317,74.2660907 C260.758705,73.8303635 260.976566,73.3500806 261.451904,72.8252275 C261.927243,72.3003744 262.541213,71.800286 263.293832,71.3249473 C264.046452,70.8496087 264.883234,70.4237908 265.804202,70.0474811 C266.725171,69.6711713 267.616418,69.4037973 268.477969,69.2453511 C269.33952,69.0869048 270.121837,69.0670994 270.824942,69.185934 C271.528047,69.3047687 272.033087,69.6266077 272.340076,70.1514609 C272.647066,70.676314 272.711434,71.4338736 272.533182,72.4241625 C272.35493,73.4144514 271.810279,74.6919049 270.899213,76.2565614 C270.483292,76.9497636 270.077279,77.5488794 269.681164,78.0539268 C269.285048,78.5589741 268.963209,79.039257 268.715637,79.4947899 C268.468065,79.9503228 268.324475,80.4256543 268.284863,80.9207988 C268.245252,81.4159432 268.373988,82.0002049 268.671074,82.6736014 C268.512628,82.9508823 268.309622,83.134083 268.06205,83.223209 C267.814477,83.312335 267.557006,83.3420432 267.289628,83.3123345 C267.02225,83.2826258 266.76973,83.2034039 266.532061,83.0746664 C266.294392,82.9459288 266.106239,82.7924363 265.967599,82.6141843 Z" id="Do-you-box-model?" transform="translate(266.712574, 81.464261) rotate(67.000000) translate(-266.712574, -81.464261) "></path>
                <path d="M20.7480575,79.902915 C20.3203615,80.0997232 19.922972,80.1359978 19.5558769,80.01174 C19.1887819,79.8874821 18.8857596,79.6936354 18.646801,79.4301939 C18.4078423,79.1667524 18.2438445,78.8849819 18.1548028,78.5848739 C18.065761,78.2847658 18.0620197,78.0490036 18.1435787,77.8775803 C16.1933631,76.1779231 14.5259466,74.7071392 13.1412794,73.4651844 C11.7566122,72.2232296 10.5885921,71.1736321 9.63718427,70.3163605 C8.68577641,69.4590889 7.92014097,68.7622038 7.34025499,68.2256843 C6.760369,67.6891649 6.28880493,67.2488228 5.92554864,66.9046449 C5.56229235,66.560467 5.28007078,66.3002026 5.07887546,66.1238437 C4.87768015,65.9474849 4.67621366,65.7868371 4.47446996,65.6418954 C4.10412437,66.1539718 3.71476584,66.6303541 3.30638269,67.0710565 C2.89799955,67.5117589 2.50035569,67.7876542 2.11343919,67.8987507 C1.72652269,68.0098473 1.3708717,67.9054323 1.04647555,67.5855028 C0.722079399,67.2655733 0.466690739,66.5933077 0.28030191,65.5686859 C2.97143908,62.6301216 5.5088223,60.3960089 7.89252768,58.8662807 C10.2762331,57.3365525 12.4619431,56.3454947 14.4497233,55.8930774 C16.4375035,55.4406601 18.2086871,55.4676479 19.7633272,55.9740417 C21.3179673,56.4804355 22.61136,57.3240225 23.643544,58.5048279 C24.6757281,59.6856333 25.4166268,61.1245317 25.8662624,62.8215662 C26.315898,64.5186007 26.445308,66.3317971 26.2544964,68.2612096 C26.0636848,70.1906222 25.5186159,72.1609615 24.6192733,74.1722868 C23.7199308,76.183612 22.4295384,78.0938023 20.7480575,79.902915 Z M19.8547833,75.7154468 C20.7558505,74.505533 21.4340886,73.2328239 21.889518,71.8972812 C22.3449474,70.5617385 22.6074629,69.2503467 22.6770726,67.9630663 C22.7466822,66.6757859 22.6304154,65.4599176 22.3282688,64.3154251 C22.0261221,63.1709326 21.5641547,62.1807987 20.9423527,61.3449937 C20.3205506,60.5091888 19.5382472,59.8670087 18.5954189,59.4184342 C17.6525905,58.9698597 16.5791742,58.8018484 15.3751377,58.9143955 C14.1711012,59.0269425 12.8475079,59.4634479 11.4043181,60.2239249 C9.96112819,60.9844019 8.40872684,62.151502 6.74706744,63.7252603 C7.81532991,64.6395683 8.90218357,65.6131117 10.007661,66.6459195 C11.1131385,67.6787274 12.2184623,68.7193739 13.3236655,69.7678903 C14.4288688,70.8164068 15.5264755,71.849062 16.6165186,72.8658871 C17.7065616,73.8827122 18.7859724,74.8325559 19.8547833,75.7154468 Z" id="Combined-Shape"></path>
                <path d="M35.5309958,62.0932355 C34.4663913,62.4176312 33.4357721,62.4445224 32.4391074,62.1739099 C31.4424427,61.9032975 30.5233018,61.438892 29.6816573,60.7806794 C28.8400127,60.1224668 28.089946,59.3181187 27.4314346,58.367611 C26.7729232,57.4171033 26.2224606,56.4114314 25.7800303,55.3505654 C25.3376,54.2896993 25.0245739,53.2372979 24.8409424,52.1933295 C24.657311,51.1493611 24.6198278,50.1969736 24.7284915,49.3361384 C24.9857952,47.820231 25.4356959,46.6411986 26.0782071,45.7990058 C26.7207183,44.9568129 27.4713833,44.3935152 28.3302247,44.1090958 C29.1890662,43.8246763 30.1222385,43.7747318 31.1297696,43.9592607 C32.1373007,44.1437896 33.1268724,44.5045426 34.0985146,45.0415305 C35.0701567,45.5785183 35.9932602,46.2670766 36.8678527,47.107226 C37.7424453,47.9473754 38.4883998,48.8694822 39.1057386,49.873574 C39.7230775,50.8776659 40.1736259,51.9309396 40.4573973,53.0334268 C40.7411687,54.135914 40.7737173,55.229612 40.5550441,56.3145534 C40.3363709,57.3994949 39.8286002,58.4350237 39.0317169,59.4211709 C38.2348335,60.4073181 37.0679382,61.2979974 35.5309958,62.0932355 Z M35.5212764,58.3199848 C36.2643762,57.7485538 36.7376292,57.0262257 36.9410496,56.1529789 C37.14447,55.2797321 37.1483829,54.3798812 36.9527885,53.4533992 C36.7571941,52.5269171 36.3921298,51.6141813 35.8575847,50.7151641 C35.3230395,49.816147 34.6850242,49.0668029 33.9435197,48.4671092 C33.2020151,47.8674155 32.3911375,47.4539515 31.5108625,47.2267048 C30.6305875,46.9994581 29.7512727,47.082724 28.8728917,47.4765049 C28.3908838,47.7740837 28.0855584,48.301842 27.9569066,49.0597957 C27.8282547,49.8177494 27.8500867,50.6556181 28.0224032,51.573427 C28.1947196,52.4912359 28.5002192,53.4215421 28.9389111,54.3643736 C29.377603,55.307205 29.9265204,56.1320394 30.5856798,56.8389013 C31.2448392,57.5457633 31.9934107,58.0553034 32.8314165,58.367537 C33.6694224,58.6797705 34.5660334,58.66392 35.5212764,58.3199848 Z" id="Combined-Shape" transform="translate(32.682848, 53.104434) rotate(-8.000000) translate(-32.682848, -53.104434) "></path>
                <path d="M72.8168005,37.8204514 C71.7209584,37.6261697 70.7904617,37.1822386 70.0252824,36.4886449 C69.2601031,35.7950511 68.6519783,34.9639815 68.2008898,33.9954112 C67.7498012,33.0268409 67.4466533,31.9696383 67.2914368,30.8237718 C67.1362203,29.6779053 67.10232,28.5319403 67.1897349,27.3858426 C67.2771497,26.2397449 67.4760216,25.1599374 67.7863565,24.1463879 C68.0966915,23.1328383 68.4956685,22.2672378 68.9832996,21.5495603 C69.9007664,20.3156904 70.8369004,19.4694155 71.7917296,19.0107101 C72.7465588,18.5520047 73.6711381,18.3908976 74.5654951,18.5273839 C75.4598522,18.6638702 76.3139891,19.0430206 77.1279315,19.6648466 C77.9418739,20.2866727 78.6598104,21.0573621 79.2817625,21.9769381 C79.9037146,22.8965141 80.413607,23.9291042 80.8114548,25.0747395 C81.2093026,26.2203748 81.4553252,27.3806342 81.54953,28.5555526 C81.6437348,29.7304709 81.567,30.8734894 81.3193235,31.9846422 C81.071647,33.095795 80.6041195,34.0850638 79.9167271,34.9524782 C79.2293347,35.8198925 78.3067875,36.5120324 77.1490578,37.0289185 C75.9913281,37.5458046 74.5472568,37.8096463 72.8168005,37.8204514 Z M74.5211605,34.4540478 C75.4426915,34.2822593 76.1922931,33.8535127 76.7699877,33.167795 C77.3476824,32.4820774 77.7596926,31.6820808 78.0060308,30.7677813 C78.2523689,29.8534817 78.3414677,28.8744924 78.2733297,27.8307838 C78.2051917,26.7870753 77.976911,25.8297519 77.5884809,24.9587848 C77.2000507,24.0878178 76.6652622,23.351288 75.9840993,22.7491732 C75.3029363,22.1470585 74.4816592,21.8220483 73.5202432,21.7741331 C72.955673,21.8204507 72.4440289,22.152072 71.9852955,22.7690069 C71.5265621,23.3859419 71.1656301,24.1423999 70.9024887,25.0384036 C70.6393472,25.9344074 70.4891992,26.9020102 70.45204,27.9412411 C70.4148808,28.9804721 70.5295028,29.9646081 70.7959095,30.8936789 C71.0623163,31.8227496 71.4979719,32.6165975 72.1028895,33.2752463 C72.7078072,33.9338952 73.5138894,34.3268251 74.5211605,34.4540478 Z" id="Combined-Shape" transform="translate(74.365481, 28.150444) rotate(-17.000000) translate(-74.365481, -28.150444) "></path>
                <path d="M58.6813657,55.8864554 C58.3112726,55.7107325 58.0617864,55.3961936 57.9328997,54.9428293 C57.8040129,54.489465 57.7721327,54.0354799 57.837258,53.5808606 C57.9023833,53.1262413 58.0634363,52.7505235 58.3204219,52.453696 C58.5774074,52.1568686 58.8864235,52.0861684 59.2474795,52.2415936 C60.6648784,53.2400575 61.8694021,53.8833369 62.8610868,54.171451 C63.8527714,54.4595651 64.662661,54.4759544 65.2907797,54.2206193 C65.9188985,53.9652841 66.3799306,53.4985688 66.6738899,52.8204593 C66.9678492,52.1423497 67.1258006,51.3363153 67.1477487,50.402332 C67.1696969,49.4683486 67.0833081,48.4549287 66.8885797,47.3620418 C66.6938513,46.2691548 66.421307,45.1926907 66.0709386,44.1326172 C65.7205702,43.0725436 65.3003135,42.0740058 64.8101559,41.1369738 C64.3199983,40.1999417 63.8152883,39.4214124 63.2960107,38.8013623 C63.1272448,39.4602142 62.8925147,40.1484265 62.5918133,40.8660198 C62.291112,41.5836132 61.9057827,42.2476728 61.435814,42.8582187 C60.9658453,43.4687645 60.3931772,43.9851834 59.7177925,44.4074908 C59.0424079,44.8297982 58.2512914,45.060421 57.3444195,45.0993661 C56.4622923,45.0300087 55.6274077,44.7389764 54.8397407,44.2262603 C54.0520737,43.7135442 53.3054976,43.0609413 52.5999901,42.268432 C51.8944826,41.4759226 51.2379901,40.588644 50.6304929,39.6065695 C50.0229957,38.624495 49.473029,37.6350659 48.9805763,36.6382523 C48.4881236,35.6414387 48.048717,34.6818282 47.6623433,33.759392 C47.2759696,32.8369558 46.9494539,32.0216509 46.6827866,31.3134529 C46.7411699,30.8983174 46.9101123,30.5130067 47.1896191,30.1575095 C47.4691259,29.8020122 47.7938135,29.5480075 48.1636917,29.3954878 C48.5335699,29.2429681 48.9102919,29.2150863 49.2938691,29.3118416 C49.6774462,29.4085969 50.0081222,29.6869878 50.285907,30.1470225 C50.4463521,30.5620148 50.669498,31.131491 50.9553514,31.8554682 C51.2412048,32.5794454 51.5744623,33.3552671 51.9551341,34.1829566 C52.3358059,35.0106461 52.7559551,35.845065 53.2155944,36.6862386 C53.6752338,37.5274121 54.1742778,38.2659025 54.7127414,38.9017317 C55.251205,39.5375609 55.8155166,40.0402639 56.4056931,40.4098555 C56.9958695,40.7794472 57.6067472,40.9087632 58.2383444,40.7978075 C59.1178184,40.2603124 59.7270471,39.5938502 60.0660489,38.798401 C60.4050506,38.0029519 60.5528175,37.1467298 60.5093538,36.229709 C60.4658901,35.3126882 60.2819767,34.36701 59.957608,33.392646 C59.6332393,32.418282 59.2525016,31.4811924 58.8153835,30.5813491 C58.3782654,29.6815057 57.92767,28.8606423 57.4635837,28.118734 C56.9994974,27.3768258 56.6139003,26.7702331 56.3067807,26.2989378 C56.3042707,25.9109136 56.4653595,25.5899022 56.790052,25.3358937 C57.1147444,25.0818852 57.4829137,24.9118854 57.8945708,24.8258893 C58.3062279,24.7398931 58.7235806,24.7486436 59.1466416,24.852141 C59.5697025,24.9556383 59.8783419,25.1708776 60.0725688,25.4978652 C63.1323611,30.0213252 65.4676398,34.0646786 67.0784748,37.6280466 C68.6893098,41.1914147 69.7375125,44.2695088 70.2231143,46.8624212 C70.7087161,49.4553335 70.712928,51.5815447 70.2357502,53.2411184 C69.7585724,54.9006921 68.9590637,56.0957304 67.8372,56.8262692 C66.7153363,57.5568079 65.352377,57.8413834 63.7482811,57.6800042 C62.1441853,57.518625 60.4552303,56.9207814 58.6813657,55.8864554 Z" id="Path"></path>
                <path d="M89.5179482,30.7844894 C88.5625458,30.4512095 87.7626859,29.9124151 87.1183448,29.1680899 C86.4740036,28.4237648 85.9518729,27.55725 85.551937,26.5685195 C85.1520011,25.5797891 84.8464991,24.518864 84.6354218,23.3857123 C84.4243445,22.2525605 84.2799254,21.1194258 84.2021601,19.9862741 C84.1243948,18.8531224 84.0910673,17.7699789 84.1021766,16.7368112 C84.1132859,15.7036434 84.1410588,14.7982466 84.1854962,14.0205934 C84.2299335,13.5984388 84.3910164,13.2873823 84.6687496,13.0874143 C84.9464829,12.8874464 85.2686487,12.7819093 85.6352566,12.7708 C86.0018645,12.7596906 86.3629123,12.8319002 86.7184109,12.9874308 C87.0739095,13.1429615 87.3516386,13.3540356 87.5516065,13.6206595 C87.7071371,13.8428461 87.8126742,14.309431 87.8682208,15.0204282 C87.9237675,15.7314253 87.9682041,16.559058 88.0015321,17.5033511 C88.0348601,18.4476442 88.0792968,19.4363598 88.1348434,20.4695276 C88.1903901,21.5026953 88.3014817,22.4691926 88.4681217,23.3690483 C88.6347616,24.2689041 88.8736087,25.040991 89.1846699,25.6853322 C89.4957312,26.3296734 89.9400977,26.7073849 90.5177829,26.8184782 C91.4065294,26.7962596 92.1119613,26.5407488 92.6340998,26.0519383 C93.1562384,25.5631277 93.5339499,24.9243508 93.7672459,24.1355883 C94.0005418,23.3468258 94.117188,22.4580927 94.117188,21.4693623 C94.117188,20.4806319 94.0505331,19.4752526 93.9172211,18.4531941 C93.7839091,17.4311357 93.6117171,16.4424201 93.4006398,15.4870177 C93.1895625,14.5316153 92.9951522,13.698428 92.8174029,12.9874308 C92.7063096,12.454183 92.7896283,12.1097989 93.0673615,11.9542683 C93.3450948,11.7987376 93.6950335,11.7598556 94.117188,11.8376209 C94.5393426,11.9153862 94.9726,12.0653599 95.4169732,12.2875465 C95.8613464,12.5097331 96.1835122,12.7430256 96.3834801,12.9874308 C96.850072,13.9650519 97.2166744,15.1092958 97.4832984,16.4201968 C97.7499223,17.7310978 97.8721231,19.0753067 97.8499044,20.4528636 C97.8276858,21.8304206 97.6610483,23.1801841 97.3499871,24.5021944 C97.0389258,25.8242047 96.5501226,26.9795578 95.8835628,27.9682882 C95.2170029,28.9570186 94.3560427,29.7179964 93.3006563,30.2512442 C92.2452699,30.7844921 90.9843798,30.9622387 89.5179482,30.7844894 Z" id="Path" transform="translate(90.976281, 21.324942) rotate(-11.000000) translate(-90.976281, -21.324942) "></path>
                <path d="M126.628801,24.1142086 C125.3179,24.9585178 124.023682,25.513976 122.746109,25.7805999 C121.468536,26.0472238 120.318738,26.0749967 119.296679,25.8639195 C118.274621,25.6528422 117.441434,25.2362485 116.797092,24.614126 C116.152751,23.9920035 115.808367,23.2032529 115.76393,22.2478504 L114.597456,4.2508249 C114.553019,3.49539042 114.66411,2.80662225 114.930734,2.18449974 C115.197358,1.56237723 115.530633,1.12356526 115.930569,0.868050653 C116.330505,0.61253605 116.741544,0.590317722 117.163699,0.801395003 C117.585853,1.01247228 117.919128,1.5623759 118.163533,2.45112234 C118.141315,3.09546352 118.096878,3.67869462 118.030222,4.20083316 C117.963566,4.7229717 117.913575,5.23954782 117.880247,5.75057703 C117.846919,6.26160623 117.852473,6.78929152 117.896911,7.33364872 C117.941348,7.87800591 118.063549,8.48345535 118.263517,9.15001518 C119.996572,7.86133284 121.596292,7.194783 123.062724,7.15034568 C124.529155,7.10590836 125.7956,7.47251077 126.862096,8.25016391 C127.928591,9.02781705 128.772888,10.1054059 129.39501,11.4829629 C130.017133,12.8605199 130.344853,14.321375 130.378181,15.8655719 C130.411509,17.4097689 130.13378,18.9206152 129.544986,20.3981561 C128.956191,21.8756971 127.984139,23.1143689 126.628801,24.1142086 Z M118.530139,13.7159272 C118.419046,13.9381138 118.319064,14.32138 118.230189,14.8657372 C118.141314,15.4100944 118.096878,16.0210984 118.096878,16.6987676 C118.096878,17.3764367 118.146869,18.0763141 118.246853,18.7984205 C118.346837,19.520527 118.519029,20.1815223 118.763434,20.7814261 C119.007839,21.38133 119.330005,21.8812424 119.729941,22.2811783 C120.129877,22.6811142 120.640899,22.8921883 121.263021,22.9144069 C122.884983,22.5589084 124.168092,22.0034502 125.112385,21.2480157 C126.056678,20.4925812 126.728782,19.6482847 127.128718,18.715101 C127.528654,17.7819172 127.700846,16.8209745 127.6453,15.8322441 C127.589753,14.8435137 127.36757,13.9325622 126.978743,13.0993625 C126.589916,12.2661627 126.067786,11.5718399 125.412335,11.0163734 C124.756885,10.4609069 124.045898,10.1554048 123.279354,10.0998582 C122.512811,10.0443115 121.712951,10.2887132 120.879751,10.8330703 C120.046551,11.3774275 119.263355,12.3383702 118.530139,13.7159272 Z" id="Combined-Shape"></path>
                <path d="M136.321026,25.1434035 C135.35772,24.5860384 134.635172,23.850631 134.153362,22.9371594 C133.671552,22.0236877 133.384344,21.0347468 133.29173,19.9703071 C133.199116,18.9058673 133.275834,17.8087392 133.521888,16.6788897 C133.767942,15.5490402 134.128029,14.4605908 134.602161,13.4135089 C135.076292,12.3664269 135.632487,11.419758 136.27076,10.5734738 C136.909034,9.72718958 137.580003,9.05024934 138.283686,8.54263276 C139.567831,7.69696643 140.736953,7.22190479 141.791085,7.11743357 C142.845218,7.01296236 143.76914,7.17779591 144.562879,7.61193918 C145.356619,8.04608246 146.029568,8.69449937 146.581747,9.55720939 C147.133925,10.4199194 147.544974,11.3896793 147.814904,12.4665182 C148.084834,13.5433572 148.21081,14.6880679 148.192834,15.9006849 C148.174858,17.1133019 148.009212,18.2877338 147.69589,19.4240159 C147.382568,20.5602979 146.919525,21.6081391 146.306749,22.5675709 C145.693972,23.5270026 144.91629,24.2967073 143.97368,24.8767082 C143.031069,25.456709 141.927432,25.791578 140.662737,25.8813252 C139.398041,25.9710724 137.950819,25.725101 136.321026,25.1434035 Z M139.073979,22.5629444 C139.99869,22.7166982 140.849725,22.570187 141.627109,22.1234064 C142.404494,21.6766258 143.065272,21.0657907 143.609463,20.2908827 C144.153654,19.5159748 144.572213,18.6264993 144.865154,17.6224295 C145.158095,16.6183598 145.271005,15.6406934 145.203888,14.6894012 C145.136771,13.738109 144.886143,12.8630889 144.451994,12.0643146 C144.017846,11.2655404 143.357258,10.6792374 142.47021,10.3053882 C141.923846,10.1558181 141.329637,10.2924476 140.687564,10.7152808 C140.045492,11.138114 139.447603,11.7255059 138.893879,12.4774744 C138.340156,13.2294428 137.868123,14.0873384 137.477767,15.0511868 C137.087411,16.0150353 136.858526,16.9790237 136.791106,17.9431811 C136.723685,18.9073385 136.861556,19.8023145 137.204721,20.628136 C137.547887,21.4539574 138.170966,22.0988871 139.073979,22.5629444 Z" id="Combined-Shape" transform="translate(140.724129, 16.493179) rotate(-6.000000) translate(-140.724129, -16.493179) "></path>
                <path d="M148.559801,24.411124 C148.312541,24.0799564 148.173146,23.775962 148.141612,23.4991316 C148.110078,23.2223013 148.233638,22.8941493 148.512295,22.5146658 C149.011685,22.2491351 149.665586,21.8391727 150.474017,21.2847662 C151.282447,20.7303597 152.084674,20.1392182 152.880721,19.5113241 C153.676768,18.88343 154.414813,18.2552408 155.094877,17.6267379 C155.77494,16.998235 156.236294,16.4771296 156.478951,16.0634061 L153.801732,9.77334859 C153.691432,9.29818299 153.754801,8.88192848 153.991842,8.52457256 C154.228883,8.16721664 154.542046,7.90284061 154.931341,7.73143653 C155.320636,7.56003246 155.728059,7.48130107 156.153624,7.49524001 C156.579189,7.50917894 156.94334,7.66697811 157.246088,7.96864225 C157.462085,8.17408241 157.691917,8.58123521 157.935591,9.19011287 C158.179265,9.79899052 158.433999,10.4286667 158.699801,11.0791602 C158.965603,11.7296537 159.236577,12.3062112 159.512731,12.8088498 C159.788886,13.3114884 160.067438,13.559285 160.348396,13.552247 C160.508363,13.4849846 160.780047,13.3182862 161.163454,13.0521467 C161.546861,12.7860072 161.984126,12.4956806 162.475261,12.1811582 C162.966396,11.8666358 163.484083,11.5602382 164.028337,11.261956 C164.572592,10.9636739 165.08923,10.7556981 165.578268,10.6380224 C166.067305,10.5203466 166.4908,10.5220376 166.848765,10.6430954 C167.206729,10.7641531 167.444986,11.0867558 167.563541,11.6109131 C167.613617,12.2070695 167.481024,12.7357531 167.165759,13.1969797 C166.850494,13.6582064 166.451427,14.0705706 165.968548,14.4340847 C165.485669,14.7975989 164.95455,15.1289319 164.375176,15.4280937 C163.795801,15.7272556 163.258491,16.0218454 162.763228,16.3118719 C162.267965,16.6018984 161.853572,16.8934092 161.520036,17.1864128 C161.186501,17.4794165 161.027382,17.7908886 161.042675,18.1208385 C161.256237,18.7902115 161.520851,19.4635668 161.836524,20.1409245 C162.152197,20.8182822 162.462553,21.4940058 162.767602,22.1681154 C163.072652,22.8422251 163.347889,23.5188284 163.593322,24.1979456 C163.838756,24.8770627 164.005387,25.566929 164.093222,26.2675649 C164.169282,26.77873 164.053233,27.1963041 163.745073,27.5202998 C163.436913,27.8442954 163.062375,28.0434404 162.62145,28.1177408 C162.180524,28.1920411 161.743462,28.1397351 161.31025,27.9608213 C160.877038,27.7819074 160.570167,27.4557523 160.389628,26.9823461 L157.672619,20.3664682 C157.414668,20.4502418 157.063882,20.6856902 156.62025,21.0728204 C156.176618,21.4599507 155.681194,21.883514 155.133962,22.343523 C154.586731,22.803532 154.0097,23.2660379 153.402853,23.7310544 C152.796006,24.196071 152.195528,24.5642827 151.601402,24.8357007 C151.007276,25.1071186 150.446383,25.2318639 149.918707,25.2099403 C149.391031,25.1880167 148.938066,24.9217472 148.559801,24.411124 Z" id="Path"></path>
                <path d="M187.967497,33.4319319 C187.63651,33.836827 187.242414,34.0474726 186.785198,34.0638753 C186.327982,34.0802779 185.896461,33.9850882 185.490623,33.7783035 C185.084785,33.5715187 184.749185,33.2758406 184.483811,32.8912603 C184.218438,32.5066799 184.117146,32.1059618 184.179931,31.689094 C184.674951,30.6196803 185.25542,29.4192712 185.921354,28.0878305 C186.587289,26.7563899 187.240888,25.4124548 187.882171,24.0559851 C188.523453,22.6995154 189.102343,21.3798547 189.618858,20.0969636 C190.135372,18.8140725 190.496569,17.7014284 190.702459,16.7589979 C190.88478,16.3032904 191.143198,15.9674069 191.47772,15.7513374 C191.812242,15.5352679 192.153288,15.4409748 192.500866,15.4684554 C192.848444,15.495936 193.16267,15.6622757 193.443551,15.9674796 C193.724432,16.2726834 193.897534,16.7037566 193.962864,17.2607118 L192.896373,20.3081583 C194.094375,19.5719948 195.209966,19.2177769 196.24318,19.245494 C197.276394,19.2732112 198.113746,19.5751825 198.755262,20.151417 C199.396778,20.7276515 199.803033,21.533118 199.97404,22.5678406 C200.145047,23.6025633 199.977245,24.7638745 199.470629,26.0518091 C199.681703,25.7354347 200.081596,25.4155302 200.670321,25.0920859 C201.259046,24.7686417 201.944319,24.4881659 202.726158,24.2506502 C203.507998,24.0131346 204.323999,23.8553749 205.174185,23.7773664 C206.024372,23.699358 206.818973,23.7426525 207.558013,23.9072513 C208.297053,24.07185 208.930547,24.3946311 209.458513,24.8756043 C209.986479,25.3565774 210.311686,26.039705 210.434143,26.9250075 C210.480053,27.4221947 210.415666,28.0501974 210.24098,28.8090345 C210.066294,29.5678715 209.82409,30.3858044 209.51436,31.2628576 C209.20463,32.1399107 208.864833,33.0515007 208.494958,33.9976547 C208.125083,34.9438087 207.767917,35.8527826 207.423448,36.7246036 C207.07898,37.5964247 206.774675,38.4138861 206.510526,39.1770124 C206.246376,39.9401387 206.082534,40.5798072 206.018995,41.0960371 C205.775774,41.7202074 205.422002,42.182059 204.957668,42.4816056 C204.493334,42.7811523 204.045174,42.9143787 203.613176,42.8812889 C203.181178,42.8481991 202.819983,42.6516929 202.52958,42.2917645 C202.239178,41.931836 202.131357,41.4093447 202.206115,40.7242749 C203.818536,37.7554834 204.935308,35.2822893 205.556465,33.3046184 C206.177622,31.3269475 206.437431,29.8260054 206.335903,28.801747 C206.234374,27.7774885 205.833798,27.2055758 205.134163,27.0859917 C204.434528,26.9664076 203.575092,27.2828235 202.55583,28.035249 C201.536567,28.7876745 200.417369,29.9442475 199.198202,31.5050025 C197.979036,33.0657575 196.799174,35.0143157 195.658582,37.3507355 C195.318262,37.6760656 194.978984,37.86477 194.640739,37.9168545 C194.302493,37.9689389 193.984898,37.919329 193.687943,37.7680231 C193.390989,37.6167171 193.127009,37.3762342 192.895998,37.0465669 C192.664986,36.7168997 192.496456,36.3380286 192.390401,35.9099422 C193.508933,33.8615213 194.355503,31.9675685 194.930137,30.2280271 C195.50477,28.4884856 195.836202,27.0427386 195.924441,25.8907427 C196.012681,24.7387468 195.887138,23.9329272 195.547808,23.4732596 C195.208479,23.013592 194.686648,23.0344721 193.982299,23.5359006 C193.27795,24.037329 192.415473,25.0815796 191.394842,26.6686837 C190.374211,28.2557878 189.231774,30.5101814 187.967497,33.4319319 Z" id="Path" transform="translate(197.305194, 29.175015) rotate(-5.000000) translate(-197.305194, -29.175015) "></path>
                <path d="M211.647504,45.7395137 C210.947921,44.8739504 210.536912,43.9284506 210.414462,42.9029859 C210.292012,41.8775213 210.378285,40.8513394 210.673284,39.8244094 C210.968282,38.7974793 211.433081,37.8007155 212.067694,36.8340879 C212.702306,35.8674603 213.428542,34.980349 214.246423,34.1727273 C215.064303,33.3651057 215.922811,32.6806363 216.821972,32.1192988 C217.721133,31.5579613 218.59013,31.1664368 219.428989,30.9447135 C220.930901,30.6154125 222.192617,30.5908798 223.214173,30.8711148 C224.23573,31.1513498 225.039215,31.6363393 225.624651,32.3260978 C226.210088,33.0158563 226.605968,33.862369 226.812304,34.8656613 C227.018639,35.8689537 227.054855,36.9216091 226.920952,38.0236592 C226.787049,39.1257093 226.49443,40.2395344 226.043085,41.365168 C225.59174,42.4908015 225.016217,43.5278658 224.316499,44.4763918 C223.61678,45.4249179 222.80898,46.2372224 221.893074,46.9133296 C220.977169,47.5894369 219.975303,48.0293219 218.887446,48.2329978 C217.799589,48.4366738 216.64925,48.3537929 215.436392,47.9843528 C214.223534,47.6149127 212.960584,46.8666405 211.647504,45.7395137 Z M215.14236,44.3170175 C215.950552,44.7919458 216.797566,44.9601495 217.683429,44.8216336 C218.569292,44.6831177 219.405085,44.3496556 220.190833,43.8212374 C220.976582,43.2928191 221.6861,42.6124205 222.31941,41.7800212 C222.95272,40.9476218 223.408495,40.075355 223.686749,39.1631948 C223.965003,38.2510345 224.0446,37.3443156 223.925542,36.4430107 C223.806485,35.5417058 223.399885,34.7576112 222.705731,34.0907035 C222.249257,33.7552685 221.645551,33.6698775 220.894595,33.834528 C220.143639,33.9991786 219.374959,34.333292 218.588532,34.8368783 C217.802105,35.3404646 217.053983,35.9722177 216.344141,36.7321566 C215.6343,37.4920955 215.075155,38.3100313 214.66669,39.1859884 C214.258224,40.0619455 214.066206,40.946886 214.090631,41.8408362 C214.115056,42.7347865 214.465628,43.560172 215.14236,44.3170175 Z" id="Combined-Shape"></path>
                <path d="M224.269703,54.784179 C223.567522,53.4730446 223.287711,52.1329348 223.43026,50.7638094 C223.572809,49.394684 224.001495,48.1192365 224.716331,46.9374286 C225.431167,45.7556208 226.370624,44.7153945 227.534731,43.8167186 C228.698838,42.9180427 229.951752,42.2757521 231.29351,41.8898273 C232.635267,41.5039026 234.003911,41.4301065 235.399482,41.6684368 C236.795053,41.9067671 238.085828,42.5683077 239.271848,43.6530786 C239.841734,44.186386 240.383556,44.8047426 240.89733,45.5081669 C241.411103,46.2115913 241.773766,46.9464169 241.985329,47.7126658 L246.574598,42.997458 C246.772738,42.8190518 247.051427,42.8297241 247.410673,43.0294755 C247.769919,43.2292268 248.097387,43.5099045 248.393086,43.8715171 C248.688785,44.2331296 248.884161,44.632743 248.97922,45.0703693 C249.074279,45.5079957 248.948438,45.8829086 248.601692,46.1951196 L233.234171,62.947154 C232.950183,63.2626539 232.631893,63.4072291 232.279292,63.3808838 C231.926691,63.3545385 231.602974,63.2274471 231.30813,62.9996059 C231.013286,62.7717647 230.780776,62.4803312 230.610592,62.1252966 C230.440409,61.7702621 230.410608,61.4383222 230.52119,61.129467 C230.54099,61.0518421 230.615686,60.9023669 230.74528,60.6810369 C230.874873,60.459707 231.017259,60.2193856 231.172442,59.9600654 C231.327625,59.7007453 231.465472,59.4719852 231.585988,59.2737782 C231.706503,59.0755713 231.759326,58.9682136 231.744459,58.951702 C230.520683,58.8875666 229.476496,58.6991186 228.611866,58.3863523 C227.747236,58.073586 227.023393,57.7013398 226.440318,57.2696027 C225.857242,56.8378655 225.392666,56.3966124 225.046576,55.9458301 C224.700486,55.4950479 224.441531,55.1078347 224.269703,54.784179 Z M228.125216,47.8594389 C227.425214,48.9082977 226.969622,49.8716224 226.758426,50.7494418 C226.54723,51.6272613 226.526346,52.4009821 226.695774,53.0706276 C226.865203,53.7402731 227.197276,54.3083065 227.692004,54.7747449 C228.186733,55.2411832 228.781756,55.594879 229.477091,55.8358429 C230.172426,56.0768067 230.936264,56.2112315 231.768626,56.2391212 C232.600988,56.2670109 233.455605,56.1702089 234.332502,55.9487122 C234.763517,55.8297079 235.175925,55.615337 235.569739,55.3055928 C235.963553,54.9958487 236.332577,54.6336803 236.676822,54.219077 C237.021067,53.8044736 237.347135,53.3613926 237.655034,52.8898206 C237.962934,52.4182486 238.262162,51.9619617 238.552727,51.5209463 C239.044589,50.240924 239.208253,49.1443078 239.043725,48.231065 C238.879197,47.3178221 238.508689,46.5825854 237.932191,46.0253328 C237.355693,45.4680802 236.628135,45.0917062 235.749493,44.8961995 C234.870851,44.7006928 233.963361,44.6806648 233.026995,44.8361148 C232.090629,44.9915648 231.184456,45.3216492 230.308448,45.826378 C229.432439,46.3311068 228.704703,47.008787 228.125216,47.8594389 Z" id="Combined-Shape"></path>
                <path d="M254.443658,69.9601882 C254.043723,70.7156226 253.510483,71.3432904 252.843923,71.8432103 C252.177363,72.3431302 251.444158,72.7152871 250.644286,72.9596924 C249.844415,73.2040977 249.005673,73.3207439 248.128036,73.3096346 C247.250398,73.2985252 246.400547,73.1596607 245.578457,72.8930368 C244.756367,72.6264128 243.98428,72.2487013 243.262173,71.7598907 C242.540067,71.2710802 241.934617,70.6711853 241.445807,69.9601882 C240.645935,68.5604125 240.101586,67.0606754 239.812743,65.4609318 C239.523901,63.8611882 239.53501,62.3503419 239.846071,60.9283476 C240.157132,59.5063533 240.790355,58.2621269 241.745757,57.1956312 C242.70116,56.1291354 244.034259,55.4181489 245.745096,55.0626504 C247.367058,54.951557 248.650167,55.1459674 249.59446,55.6458873 C250.538753,56.1458072 251.183084,56.8234662 251.527474,57.6788846 C251.871863,58.5343031 251.938518,59.4841366 251.727441,60.5284137 C251.516363,61.5726907 251.066442,62.5891792 250.377664,63.5779097 C249.688885,64.5666401 248.777934,65.444264 247.644782,66.2108078 C246.51163,66.9773516 245.200749,67.5050369 243.712099,67.7938795 C244.156472,68.5270953 244.661939,69.0547806 245.228515,69.3769512 C245.795091,69.6991218 246.389431,69.8935322 247.011553,69.9601882 C247.633676,70.0268441 248.250235,69.9879621 248.861248,69.8435408 C249.472261,69.6991195 250.038828,69.5213729 250.560967,69.3102956 C251.083105,69.0992183 251.544136,68.8992533 251.944072,68.7103947 C252.344007,68.5215361 252.632846,68.3937807 252.810595,68.3271247 C253.610467,68.0827195 254.154816,68.0827195 254.443658,68.3271247 C254.732501,68.57153 254.732501,69.115879 254.443658,69.9601882 Z M245.611785,58.0621546 C245.078537,58.4620905 244.611952,58.9175662 244.212016,59.4285954 C243.81208,59.9396246 243.489914,60.4839737 243.245509,61.0616589 C243.001104,61.6393441 242.840021,62.2392389 242.762256,62.8613614 C242.68449,63.4834839 242.701154,64.0944879 242.812247,64.6943918 C243.745431,64.5610798 244.584173,64.2722416 245.328498,63.8278683 C246.072823,63.3834951 246.694937,62.8780282 247.194856,62.3114523 C247.694776,61.7448764 248.055824,61.1616453 248.278011,60.5617415 C248.500197,59.9618376 248.561298,59.4397069 248.461314,58.9953337 C248.36133,58.5509605 248.078046,58.2287947 247.611454,58.0288268 C247.144862,57.8288588 246.478313,57.839968 245.611785,58.0621546 Z" id="Combined-Shape" transform="translate(247.132212, 64.171356) rotate(50.000000) translate(-247.132212, -64.171356) "></path>
                <path d="M262.787566,81.267652 C262.943096,81.8231185 262.920878,82.2508213 262.72091,82.5507733 C262.520942,82.8507252 262.232104,83.0340264 261.854387,83.1006824 C261.476669,83.1673384 261.060076,83.1284563 260.604593,82.984035 C260.149111,82.8396137 259.754735,82.6007667 259.421455,82.2674867 L258.288309,59.6712213 C258.132779,59.2712854 258.127224,58.9213468 258.271645,58.6213949 C258.416067,58.3214429 258.627141,58.0881505 258.904874,57.9215105 C259.182607,57.7548706 259.493664,57.6493335 259.838053,57.6048962 C260.182442,57.5604589 260.493499,57.5993409 260.771232,57.7215436 C261.048966,57.8437462 261.26004,58.0437112 261.404461,58.3214444 C261.548882,58.5991777 261.554437,58.9713347 261.421125,59.4379266 L262.787566,81.267652 Z" id="Path" transform="translate(260.528487, 70.359689) rotate(52.000000) translate(-260.528487, -70.359689) "></path>
            </g>
        </g>
    </g>
</svg>