<svg xmlns="http://www.w3.org/2000/svg" fill="none" viewBox="0 0 1014 566"><path stroke="#556080" stroke-linecap="round" stroke-miterlimit="10" stroke-width="5" d="M176 104.667v16c0 22.056-17.944 40-40 40s-40-17.944-40-40v-16"/><path fill="#C7CAC7" d="M136 147.333c-14.667 0-26.667-12-26.667-26.666v-64C109.333 42 121.333 30 136 30c14.667 0 26.667 12 26.667 26.667v64c0 14.666-12 26.666-26.667 26.666z"/><path stroke="#556080" stroke-linecap="round" stroke-miterlimit="10" stroke-width="5" d="M136 160.667v18.666M152 179.333h-32"/><path fill="#AFB6BB" d="M162.667 120.667v-64C162.667 42 150.667 30 136 30v117.333c14.667 0 26.667-12 26.667-26.666z"/><path fill="#000" d="M24.176 223v-7.152h2.664L30.92 223h2.256l-4.272-7.248c2.664-.264 4.128-1.992 4.128-4.68 0-3.024-1.68-4.824-4.776-4.824H22.16V223h2.016zm4.032-8.856h-4.032V208h4.032c1.68 0 2.688.888 2.688 2.448v1.248c0 1.56-1.008 2.448-2.688 2.448zm13.599 9.144c2.448 0 4.224-1.2 4.968-2.856l-1.416-.96c-.648 1.344-1.896 2.16-3.552 2.16-2.328 0-3.792-1.584-3.792-3.768v-.576h9.168v-.912c0-3.504-2.16-6.048-5.496-6.048-3.36 0-5.688 2.544-5.688 6.504 0 3.912 2.256 6.456 5.808 6.456zm-.12-11.376c2.04 0 3.432 1.488 3.432 3.672v.264h-7.104v-.168c0-2.16 1.56-3.768 3.672-3.768zm14.726 11.376c2.472 0 4.032-1.224 4.752-2.88l-1.368-.936c-.624 1.344-1.704 2.16-3.36 2.16-2.328 0-3.576-1.584-3.576-3.768v-2.112c0-2.184 1.272-3.768 3.528-3.768 1.536 0 2.592.744 3.048 2.016l1.536-.816c-.696-1.68-2.184-2.856-4.584-2.856-3.504 0-5.592 2.544-5.592 6.48 0 3.912 2.064 6.48 5.616 6.48zm13.959 0c3.48 0 5.616-2.544 5.616-6.48 0-3.936-2.136-6.48-5.616-6.48-3.48 0-5.616 2.544-5.616 6.48 0 3.936 2.136 6.48 5.616 6.48zm0-1.656c-2.136 0-3.576-1.272-3.576-3.936v-1.776c0-2.664 1.44-3.936 3.576-3.936s3.576 1.272 3.576 3.936v1.776c0 2.664-1.44 3.936-3.576 3.936zm9.038-.264V223h10.344v-1.632h-4.8v-6.792c0-1.176 1.297-2.04 3.457-2.04h2.567v-1.92h-2.183c-2.064 0-3.24 1.032-3.72 2.208h-.12v-2.208H79.41v1.632h3.623v9.12H79.41zm22.743-.384V223h1.92v-17.76h-1.92v7.392h-.096c-.792-1.512-2.088-2.304-3.816-2.304-3.024 0-4.848 2.424-4.848 6.48 0 4.056 1.824 6.48 4.848 6.48 1.728 0 3.024-.792 3.816-2.304h.096zm-3.168.6c-2.232 0-3.528-1.488-3.528-3.72v-2.112c0-2.232 1.296-3.72 3.528-3.72 1.704 0 3.168.888 3.168 2.544v4.464c0 1.656-1.464 2.544-3.168 2.544zm31.877-.6V223h1.92v-12.384h-1.92v8.592c0 1.632-1.536 2.376-3.072 2.376-1.896 0-2.928-1.104-2.928-3.36v-7.608h-1.92v7.944c0 3 1.704 4.728 4.296 4.728 2.04 0 3-1.08 3.528-2.304h.096zM142.925 223h4.824v-1.632h-5.64v-9.12h5.64v-1.632h-5.64v-4.368h-1.848v3.24c0 .84-.312 1.128-1.128 1.128h-3.072v1.632h4.128v7.92c0 1.656.864 2.832 2.736 2.832zm14.391 0h4.824v-1.632h-5.64v-9.12h5.64v-1.632h-5.64v-4.368h-1.848v3.24c0 .84-.312 1.128-1.128 1.128h-3.072v1.632h4.128v7.92c0 1.656.864 2.832 2.736 2.832zm14.006.288c2.448 0 4.224-1.2 4.968-2.856l-1.416-.96c-.648 1.344-1.896 2.16-3.552 2.16-2.328 0-3.792-1.584-3.792-3.768v-.576h9.168v-.912c0-3.504-2.16-6.048-5.496-6.048-3.36 0-5.688 2.544-5.688 6.504 0 3.912 2.256 6.456 5.808 6.456zm-.12-11.376c2.04 0 3.432 1.488 3.432 3.672v.264h-7.104v-.168c0-2.16 1.56-3.768 3.672-3.768zm8.943 9.456V223h10.344v-1.632h-4.8v-6.792c0-1.176 1.296-2.04 3.456-2.04h2.568v-1.92h-2.184c-2.064 0-3.24 1.032-3.72 2.208h-.12v-2.208h-5.544v1.632h3.624v9.12h-3.624zM204.568 223h1.32v-1.68h-1.728v-6.816c0-2.616-1.848-4.176-4.752-4.176-2.52 0-4.104 1.2-4.728 2.496l1.296.96c.648-1.128 1.656-1.824 3.312-1.824 1.872 0 2.952.936 2.952 2.736v1.224h-2.64c-3.72 0-5.329 1.32-5.329 3.6 0 2.328 1.657 3.768 4.249 3.768 2.016 0 3.192-.888 3.72-2.304h.12c.144 1.152.72 2.016 2.208 2.016zm-5.713-1.32c-1.583 0-2.567-.672-2.567-1.944v-.504c0-1.2 1.032-1.872 3.312-1.872h2.64v2.04c0 1.272-1.416 2.28-3.385 2.28zM209.43 223h1.92v-8.592c0-1.632 1.536-2.376 3.072-2.376 1.896 0 2.928 1.104 2.928 3.36V223h1.92v-7.944c0-3-1.704-4.728-4.296-4.728-2.04 0-3 1.08-3.528 2.304h-.096v-2.016h-1.92V223zm19.671.288c2.472 0 4.032-1.224 4.752-2.88l-1.368-.936c-.624 1.344-1.704 2.16-3.36 2.16-2.328 0-3.576-1.584-3.576-3.768v-2.112c0-2.184 1.272-3.768 3.528-3.768 1.536 0 2.592.744 3.048 2.016l1.536-.816c-.696-1.68-2.184-2.856-4.584-2.856-3.504 0-5.592 2.544-5.592 6.48 0 3.912 2.064 6.48 5.616 6.48zm14.174 0c2.448 0 4.224-1.2 4.968-2.856l-1.416-.96c-.648 1.344-1.896 2.16-3.552 2.16-2.328 0-3.792-1.584-3.792-3.768v-.576h9.168v-.912c0-3.504-2.16-6.048-5.496-6.048-3.36 0-5.688 2.544-5.688 6.504 0 3.912 2.256 6.456 5.808 6.456zm-.12-11.376c2.04 0 3.432 1.488 3.432 3.672v.264h-7.104v-.168c0-2.16 1.56-3.768 3.672-3.768zM717.16 529h2.016v-7.104h4.08c3.096 0 4.776-1.8 4.776-4.824s-1.68-4.824-4.776-4.824h-6.096V529zm2.016-8.856V514h4.032c1.68 0 2.688.888 2.688 2.448v1.248c0 1.56-1.008 2.448-2.688 2.448h-4.032zm12.063 7.224V529h10.344v-1.632h-4.8v-6.792c0-1.176 1.296-2.04 3.456-2.04h2.568v-1.92h-2.184c-2.064 0-3.24 1.032-3.72 2.208h-.12v-2.208h-5.544v1.632h3.624v9.12h-3.624zm19.742 1.92c3.48 0 5.616-2.544 5.616-6.48 0-3.936-2.136-6.48-5.616-6.48-3.48 0-5.616 2.544-5.616 6.48 0 3.936 2.136 6.48 5.616 6.48zm0-1.656c-2.136 0-3.576-1.272-3.576-3.936v-1.776c0-2.664 1.44-3.936 3.576-3.936s3.576 1.272 3.576 3.936v1.776c0 2.664-1.44 3.936-3.576 3.936zm14.823 1.656c2.472 0 4.032-1.224 4.752-2.88l-1.368-.936c-.624 1.344-1.704 2.16-3.36 2.16-2.328 0-3.576-1.584-3.576-3.768v-2.112c0-2.184 1.272-3.768 3.528-3.768 1.536 0 2.592.744 3.048 2.016l1.536-.816c-.696-1.68-2.184-2.856-4.584-2.856-3.504 0-5.592 2.544-5.592 6.48 0 3.912 2.064 6.48 5.616 6.48zm14.175 0c2.448 0 4.224-1.2 4.968-2.856l-1.416-.96c-.648 1.344-1.896 2.16-3.552 2.16-2.328 0-3.792-1.584-3.792-3.768v-.576h9.168v-.912c0-3.504-2.16-6.048-5.496-6.048-3.36 0-5.688 2.544-5.688 6.504 0 3.912 2.256 6.456 5.808 6.456zm-.12-11.376c2.04 0 3.432 1.488 3.432 3.672v.264h-7.104v-.168c0-2.16 1.56-3.768 3.672-3.768zm14.438 11.376c3.168 0 5.232-1.416 5.232-3.864 0-2.688-2.472-3.168-4.248-3.432l-1.944-.288c-1.104-.168-2.184-.504-2.184-1.8 0-1.272 1.08-1.968 3.024-1.968 2.184 0 3.288.864 3.864 1.56l1.248-1.176c-1.176-1.248-2.808-1.992-5.04-1.992-2.88 0-4.992 1.224-4.992 3.696 0 2.688 2.496 3.168 4.248 3.432l1.944.288c1.128.168 2.184.504 2.184 1.8 0 1.464-1.368 2.136-3.288 2.136-1.968 0-3.312-.696-4.488-1.944l-1.296 1.128c1.296 1.464 3.144 2.424 5.736 2.424zm14.391 0c3.168 0 5.232-1.416 5.232-3.864 0-2.688-2.472-3.168-4.248-3.432l-1.944-.288c-1.104-.168-2.184-.504-2.184-1.8 0-1.272 1.08-1.968 3.024-1.968 2.184 0 3.288.864 3.864 1.56l1.248-1.176c-1.176-1.248-2.808-1.992-5.04-1.992-2.88 0-4.992 1.224-4.992 3.696 0 2.688 2.496 3.168 4.248 3.432l1.944.288c1.128.168 2.184.504 2.184 1.8 0 1.464-1.368 2.136-3.288 2.136-1.968 0-3.312-.696-4.488-1.944l-1.296 1.128c1.296 1.464 3.144 2.424 5.736 2.424zm15.014-15.408c1.104 0 1.512-.528 1.512-1.224v-.384c0-.696-.408-1.224-1.512-1.224s-1.512.528-1.512 1.224v.384c0 .696.408 1.224 1.512 1.224zm-5.424 13.488V529h10.56v-1.632h-4.176v-10.752h-6.384v1.632h4.464v9.12h-4.464zM832.477 529h1.92v-8.592c0-1.632 1.536-2.376 3.072-2.376 1.896 0 2.928 1.104 2.928 3.36V529h1.92v-7.944c0-3-1.704-4.728-4.296-4.728-2.04 0-3 1.08-3.528 2.304h-.096v-2.016h-1.92V529zm24.159-.408v-11.976h-1.92v2.016h-.096c-.792-1.512-2.088-2.304-3.816-2.304-3.024 0-4.848 2.424-4.848 6.312 0 3.888 1.824 6.312 4.848 6.312 1.728 0 3.024-.792 3.816-2.304h.096v2.064c0 2.448-1.176 3.696-3.504 3.696-1.416 0-2.496-.48-3.336-1.344l-1.128 1.32c.984 1.008 2.424 1.704 4.44 1.704 3.456 0 5.448-2.088 5.448-5.496zm-5.088-1.344c-2.232 0-3.528-1.488-3.528-3.72v-1.776c0-2.232 1.296-3.72 3.528-3.72 1.704 0 3.168.888 3.168 2.544v4.128c0 1.656-1.464 2.544-3.168 2.544zm24.029-16.008V529h1.92v-2.016h.096c.792 1.512 2.088 2.304 3.816 2.304 3.024 0 4.848-2.424 4.848-6.48 0-4.056-1.824-6.48-4.848-6.48-1.728 0-3.024.792-3.816 2.304h-.096v-7.392h-1.92zm5.088 16.344c-1.704 0-3.168-.888-3.168-2.544v-4.464c0-1.656 1.464-2.544 3.168-2.544 2.232 0 3.528 1.488 3.528 3.72v2.112c0 2.232-1.296 3.72-3.528 3.72zm18.231-10.968l-2.088 5.184-1.848 4.704h-.096l-1.848-4.704-2.088-5.184h-1.968l4.992 12.144-1.392 3.408h-2.88v1.632h1.824c1.872 0 2.592-.672 3.168-2.088l6.144-15.096h-1.92zm24.917 12.672c3.168 0 5.232-1.416 5.232-3.864 0-2.688-2.472-3.168-4.248-3.432l-1.944-.288c-1.104-.168-2.184-.504-2.184-1.8 0-1.272 1.08-1.968 3.024-1.968 2.184 0 3.288.864 3.864 1.56l1.248-1.176c-1.176-1.248-2.808-1.992-5.04-1.992-2.88 0-4.992 1.224-4.992 3.696 0 2.688 2.496 3.168 4.248 3.432l1.944.288c1.128.168 2.184.504 2.184 1.8 0 1.464-1.368 2.136-3.288 2.136-1.968 0-3.312-.696-4.488-1.944l-1.296 1.128c1.296 1.464 3.144 2.424 5.736 2.424zm9.326-12.672V533.8h1.92v-6.816h.096c.792 1.512 2.088 2.304 3.816 2.304 3.024 0 4.848-2.424 4.848-6.48 0-4.056-1.824-6.48-4.848-6.48-1.728 0-3.024.792-3.816 2.304h-.096v-2.016h-1.92zm5.088 10.968c-1.704 0-3.168-.888-3.168-2.544v-4.464c0-1.656 1.464-2.544 3.168-2.544 2.232 0 3.528 1.488 3.528 3.72v2.112c0 2.232-1.296 3.72-3.528 3.72zm14.439 1.704c2.448 0 4.224-1.2 4.968-2.856l-1.416-.96c-.648 1.344-1.896 2.16-3.552 2.16-2.328 0-3.792-1.584-3.792-3.768v-.576h9.168v-.912c0-3.504-2.16-6.048-5.496-6.048-3.36 0-5.688 2.544-5.688 6.504 0 3.912 2.256 6.456 5.808 6.456zm-.12-11.376c2.04 0 3.432 1.488 3.432 3.672v.264h-7.104v-.168c0-2.16 1.56-3.768 3.672-3.768zm14.511 11.376c2.448 0 4.224-1.2 4.968-2.856l-1.416-.96c-.648 1.344-1.896 2.16-3.552 2.16-2.328 0-3.792-1.584-3.792-3.768v-.576h9.168v-.912c0-3.504-2.16-6.048-5.496-6.048-3.36 0-5.688 2.544-5.688 6.504 0 3.912 2.256 6.456 5.808 6.456zm-.12-11.376c2.04 0 3.432 1.488 3.432 3.672v.264h-7.104v-.168c0-2.16 1.56-3.768 3.672-3.768zm14.726 11.376c2.472 0 4.032-1.224 4.752-2.88l-1.368-.936c-.624 1.344-1.704 2.16-3.36 2.16-2.328 0-3.576-1.584-3.576-3.768v-2.112c0-2.184 1.272-3.768 3.528-3.768 1.536 0 2.592.744 3.048 2.016l1.536-.816c-.696-1.68-2.184-2.856-4.584-2.856-3.504 0-5.592 2.544-5.592 6.48 0 3.912 2.064 6.48 5.616 6.48zm9.111-18.048V529h1.92v-8.592c0-1.632 1.536-2.376 3.072-2.376 1.896 0 2.928 1.104 2.928 3.36V529h1.916v-7.944c0-3-1.7-4.728-4.292-4.728-2.04 0-3 1.08-3.528 2.304h-.096v-7.392h-1.92zm-273.926 47.128V560h10.344v-1.632h-4.8v-6.792c0-1.176 1.296-2.04 3.456-2.04h2.568v-1.92h-2.184c-2.064 0-3.24 1.032-3.72 2.208h-.12v-2.208h-5.544v1.632h3.624v9.12h-3.624zm19.959 1.92c2.448 0 4.224-1.2 4.968-2.856l-1.416-.96c-.648 1.344-1.896 2.16-3.552 2.16-2.328 0-3.792-1.584-3.792-3.768v-.576h9.168v-.912c0-3.504-2.16-6.048-5.496-6.048-3.36 0-5.688 2.544-5.688 6.504 0 3.912 2.256 6.456 5.808 6.456zm-.12-11.376c2.04 0 3.432 1.488 3.432 3.672v.264h-7.104v-.168c0-2.16 1.56-3.768 3.672-3.768zm14.726 11.376c2.472 0 4.032-1.224 4.752-2.88l-1.368-.936c-.624 1.344-1.704 2.16-3.36 2.16-2.328 0-3.576-1.584-3.576-3.768v-2.112c0-2.184 1.272-3.768 3.528-3.768 1.536 0 2.592.744 3.048 2.016l1.536-.816c-.696-1.68-2.184-2.856-4.584-2.856-3.504 0-5.592 2.544-5.592 6.48 0 3.912 2.064 6.48 5.616 6.48zm13.959 0c3.48 0 5.616-2.544 5.616-6.48 0-3.936-2.136-6.48-5.616-6.48-3.48 0-5.616 2.544-5.616 6.48 0 3.936 2.136 6.48 5.616 6.48zm0-1.656c-2.136 0-3.576-1.272-3.576-3.936v-1.776c0-2.664 1.44-3.936 3.576-3.936s3.576 1.272 3.576 3.936v1.776c0 2.664-1.44 3.936-3.576 3.936zm19.31.96v-11.976h-1.919v2.016h-.096c-.792-1.512-2.088-2.304-3.816-2.304-3.024 0-4.848 2.424-4.848 6.312 0 3.888 1.824 6.312 4.848 6.312 1.728 0 3.024-.792 3.816-2.304h.096v2.064c0 2.448-1.176 3.696-3.504 3.696-1.416 0-2.496-.48-3.336-1.344l-1.128 1.32c.984 1.008 2.424 1.704 4.44 1.704 3.456 0 5.447-2.088 5.447-5.496zm-5.087-1.344c-2.232 0-3.528-1.488-3.528-3.72v-1.776c0-2.232 1.296-3.72 3.528-3.72 1.704 0 3.168.888 3.168 2.544v4.128c0 1.656-1.464 2.544-3.168 2.544zm9.71 1.752h1.92v-8.592c0-1.632 1.536-2.376 3.072-2.376 1.896 0 2.928 1.104 2.928 3.36V560h1.92v-7.944c0-3-1.704-4.728-4.296-4.728-2.04 0-3 1.08-3.528 2.304h-.096v-2.016h-1.92V560zm20.007-15.12c1.104 0 1.512-.528 1.512-1.224v-.384c0-.696-.408-1.224-1.512-1.224s-1.512.528-1.512 1.224v.384c0 .696.408 1.224 1.512 1.224zm-5.424 13.488V560h10.56v-1.632h-4.176v-10.752h-6.384v1.632h4.464v9.12h-4.464zM823.534 560h4.824v-1.632h-5.64v-9.12h5.64v-1.632h-5.64v-4.368h-1.848v3.24c0 .84-.312 1.128-1.128 1.128h-3.072v1.632h4.128v7.92c0 1.656.864 2.832 2.736 2.832zm14.559-15.12c1.104 0 1.512-.528 1.512-1.224v-.384c0-.696-.408-1.224-1.512-1.224s-1.512.528-1.512 1.224v.384c0 .696.408 1.224 1.512 1.224zm-5.424 13.488V560h10.56v-1.632h-4.176v-10.752h-6.384v1.632h4.464v9.12h-4.464zm19.047 1.92c3.48 0 5.616-2.544 5.616-6.48 0-3.936-2.136-6.48-5.616-6.48-3.48 0-5.616 2.544-5.616 6.48 0 3.936 2.136 6.48 5.616 6.48zm0-1.656c-2.136 0-3.576-1.272-3.576-3.936v-1.776c0-2.664 1.44-3.936 3.576-3.936s3.576 1.272 3.576 3.936v1.776c0 2.664-1.44 3.936-3.576 3.936zm9.542 1.368h1.92v-8.592c0-1.632 1.536-2.376 3.072-2.376 1.896 0 2.928 1.104 2.928 3.36V560h1.92v-7.944c0-3-1.704-4.728-4.296-4.728-2.04 0-3 1.08-3.528 2.304h-.096v-2.016h-1.92V560zm33.846.288c2.448 0 4.224-1.2 4.968-2.856l-1.416-.96c-.648 1.344-1.896 2.16-3.552 2.16-2.328 0-3.792-1.584-3.792-3.768v-.576h9.168v-.912c0-3.504-2.16-6.048-5.496-6.048-3.36 0-5.688 2.544-5.688 6.504 0 3.912 2.256 6.456 5.808 6.456zm-.12-11.376c2.04 0 3.432 1.488 3.432 3.672v.264h-7.104v-.168c0-2.16 1.56-3.768 3.672-3.768zM904.43 560h1.92v-8.592c0-1.632 1.536-2.376 3.072-2.376 1.896 0 2.928 1.104 2.928 3.36V560h1.92v-7.944c0-3-1.704-4.728-4.296-4.728-2.04 0-3 1.08-3.528 2.304h-.096v-2.016h-1.92V560zm24.159-.408v-11.976h-1.92v2.016h-.096c-.792-1.512-2.088-2.304-3.816-2.304-3.024 0-4.848 2.424-4.848 6.312 0 3.888 1.824 6.312 4.848 6.312 1.728 0 3.024-.792 3.816-2.304h.096v2.064c0 2.448-1.176 3.696-3.504 3.696-1.416 0-2.496-.48-3.336-1.344l-1.128 1.32c.984 1.008 2.424 1.704 4.44 1.704 3.456 0 5.448-2.088 5.448-5.496zm-5.088-1.344c-2.232 0-3.528-1.488-3.528-3.72v-1.776c0-2.232 1.296-3.72 3.528-3.72 1.704 0 3.168.888 3.168 2.544v4.128c0 1.656-1.464 2.544-3.168 2.544zm15.326-13.368c1.104 0 1.512-.528 1.512-1.224v-.384c0-.696-.408-1.224-1.512-1.224s-1.512.528-1.512 1.224v.384c0 .696.408 1.224 1.512 1.224zm-5.424 13.488V560h10.56v-1.632h-4.176v-10.752h-6.384v1.632h4.464v9.12h-4.464zM947.602 560h1.92v-8.592c0-1.632 1.536-2.376 3.072-2.376 1.896 0 2.928 1.104 2.928 3.36V560h1.92v-7.944c0-3-1.704-4.728-4.296-4.728-2.04 0-3 1.08-3.528 2.304h-.096v-2.016h-1.92V560zm19.455.288c2.448 0 4.224-1.2 4.968-2.856l-1.416-.96c-.648 1.344-1.896 2.16-3.552 2.16-2.328 0-3.792-1.584-3.792-3.768v-.576h9.168v-.912c0-3.504-2.16-6.048-5.496-6.048-3.36 0-5.688 2.544-5.688 6.504 0 3.912 2.256 6.456 5.808 6.456zm-.12-11.376c2.04 0 3.432 1.488 3.432 3.672v.264h-7.104v-.168c0-2.16 1.56-3.768 3.672-3.768zM4.176 550v-7.152H6.84L10.92 550h2.256l-4.272-7.248c2.664-.264 4.128-1.992 4.128-4.68 0-3.024-1.68-4.824-4.776-4.824H2.16V550h2.016zm4.032-8.856H4.176V535h4.032c1.68 0 2.688.888 2.688 2.448v1.248c0 1.56-1.008 2.448-2.688 2.448zm13.599 9.144c2.448 0 4.224-1.2 4.968-2.856l-1.416-.96c-.648 1.344-1.896 2.16-3.552 2.16-2.328 0-3.792-1.584-3.792-3.768v-.576h9.168v-.912c0-3.504-2.16-6.048-5.496-6.048-3.36 0-5.688 2.544-5.688 6.504 0 3.912 2.256 6.456 5.808 6.456zm-.12-11.376c2.04 0 3.432 1.488 3.432 3.672v.264h-7.104v-.168c0-2.16 1.56-3.768 3.672-3.768zm14.726 11.376c2.472 0 4.032-1.224 4.752-2.88l-1.368-.936c-.624 1.344-1.704 2.16-3.36 2.16-2.328 0-3.576-1.584-3.576-3.768v-2.112c0-2.184 1.272-3.768 3.528-3.768 1.536 0 2.592.744 3.048 2.016l1.536-.816c-.696-1.68-2.184-2.856-4.584-2.856-3.504 0-5.592 2.544-5.592 6.48 0 3.912 2.064 6.48 5.616 6.48zm14.175 0c2.448 0 4.224-1.2 4.968-2.856l-1.416-.96c-.648 1.344-1.896 2.16-3.552 2.16-2.328 0-3.792-1.584-3.792-3.768v-.576h9.168v-.912c0-3.504-2.16-6.048-5.496-6.048-3.36 0-5.688 2.544-5.688 6.504 0 3.912 2.256 6.456 5.808 6.456zm-.12-11.376c2.04 0 3.432 1.488 3.432 3.672v.264h-7.104v-.168c0-2.16 1.56-3.768 3.672-3.768zm15.063-4.032c1.103 0 1.511-.528 1.511-1.224v-.384c0-.696-.407-1.224-1.511-1.224-1.105 0-1.513.528-1.513 1.224v.384c0 .696.409 1.224 1.513 1.224zm-5.425 13.488V550h10.56v-1.632h-4.175v-10.752h-6.385v1.632h4.464v9.12h-4.463zM77.93 550h2.448l4.44-12.384h-1.896l-3.696 10.776h-.096l-3.696-10.776H73.49L77.93 550zm15.83.288c2.449 0 4.225-1.2 4.969-2.856l-1.416-.96c-.648 1.344-1.896 2.16-3.552 2.16-2.328 0-3.792-1.584-3.792-3.768v-.576h9.168v-.912c0-3.504-2.16-6.048-5.496-6.048-3.36 0-5.688 2.544-5.688 6.504 0 3.912 2.256 6.456 5.808 6.456zm-.12-11.376c2.04 0 3.433 1.488 3.433 3.672v.264h-7.104v-.168c0-2.16 1.56-3.768 3.672-3.768zM122.926 550h4.824v-1.632h-5.64v-9.12h5.64v-1.632h-5.64v-4.368h-1.848v3.24c0 .84-.312 1.128-1.128 1.128h-3.072v1.632h4.128v7.92c0 1.656.864 2.832 2.736 2.832zm8.439-1.632V550h10.344v-1.632h-4.8v-6.792c0-1.176 1.296-2.04 3.456-2.04h2.568v-1.92h-2.184c-2.064 0-3.24 1.032-3.72 2.208h-.12v-2.208h-5.544v1.632h3.624v9.12h-3.624zM155.786 550h1.32v-1.68h-1.728v-6.816c0-2.616-1.848-4.176-4.752-4.176-2.52 0-4.104 1.2-4.728 2.496l1.296.96c.648-1.128 1.656-1.824 3.312-1.824 1.872 0 2.952.936 2.952 2.736v1.224h-2.64c-3.72 0-5.328 1.32-5.328 3.6 0 2.328 1.656 3.768 4.248 3.768 2.016 0 3.192-.888 3.72-2.304h.12c.144 1.152.72 2.016 2.208 2.016zm-5.712-1.32c-1.584 0-2.568-.672-2.568-1.944v-.504c0-1.2 1.032-1.872 3.312-1.872h2.64v2.04c0 1.272-1.416 2.28-3.384 2.28zm10.575 1.32h1.92v-8.592c0-1.632 1.536-2.376 3.072-2.376 1.896 0 2.928 1.104 2.928 3.36V550h1.92v-7.944c0-3-1.704-4.728-4.296-4.728-2.04 0-3 1.08-3.528 2.304h-.096v-2.016h-1.92V550zm19.383.288c3.168 0 5.232-1.416 5.232-3.864 0-2.688-2.472-3.168-4.248-3.432l-1.944-.288c-1.104-.168-2.184-.504-2.184-1.8 0-1.272 1.08-1.968 3.024-1.968 2.184 0 3.288.864 3.864 1.56l1.247-1.176c-1.175-1.248-2.807-1.992-5.039-1.992-2.88 0-4.992 1.224-4.992 3.696 0 2.688 2.496 3.168 4.248 3.432l1.944.288c1.128.168 2.184.504 2.184 1.8 0 1.464-1.368 2.136-3.288 2.136-1.968 0-3.312-.696-4.488-1.944l-1.296 1.128c1.296 1.464 3.144 2.424 5.736 2.424zm14.678 0c2.472 0 4.032-1.224 4.752-2.88l-1.368-.936c-.624 1.344-1.704 2.16-3.36 2.16-2.328 0-3.576-1.584-3.576-3.768v-2.112c0-2.184 1.272-3.768 3.528-3.768 1.536 0 2.592.744 3.048 2.016l1.536-.816c-.696-1.68-2.184-2.856-4.584-2.856-3.504 0-5.592 2.544-5.592 6.48 0 3.912 2.064 6.48 5.616 6.48zm8.607-1.92V550h10.344v-1.632h-4.8v-6.792c0-1.176 1.296-2.04 3.456-2.04h2.568v-1.92h-2.184c-2.064 0-3.24 1.032-3.72 2.208h-.12v-2.208h-5.544v1.632h3.624v9.12h-3.624zm20.51-13.488c1.104 0 1.512-.528 1.512-1.224v-.384c0-.696-.408-1.224-1.512-1.224s-1.512.528-1.512 1.224v.384c0 .696.408 1.224 1.512 1.224zm-5.424 13.488V550h10.56v-1.632h-4.176v-10.752h-6.384v1.632h4.464v9.12h-4.464zm14.127-10.752V554.8h1.92v-6.816h.096c.792 1.512 2.088 2.304 3.816 2.304 3.024 0 4.848-2.424 4.848-6.48 0-4.056-1.824-6.48-4.848-6.48-1.728 0-3.024.792-3.816 2.304h-.096v-2.016h-1.92zm5.088 10.968c-1.704 0-3.168-.888-3.168-2.544v-4.464c0-1.656 1.464-2.544 3.168-2.544 2.232 0 3.528 1.488 3.528 3.72v2.112c0 2.232-1.296 3.72-3.528 3.72zM252.441 550h4.824v-1.632h-5.64v-9.12h5.64v-1.632h-5.64v-4.368h-1.848v3.24c0 .84-.312 1.128-1.128 1.128h-3.072v1.632h4.128v7.92c0 1.656.864 2.832 2.736 2.832zM541.29 182.141a2.498 2.498 0 00.851-3.431l-11.609-19.273a2.501 2.501 0 00-4.283 2.58l10.32 17.131-17.132 10.32a2.501 2.501 0 002.58 4.283l19.273-11.61zm-271.892-66.715l270 67 1.204-4.852-270-67-1.204 4.852zM268.71 447.141a2.498 2.498 0 01-.851-3.431l11.609-19.273a2.501 2.501 0 014.283 2.58l-10.32 17.131 17.132 10.32a2.501 2.501 0 01-2.58 4.283l-19.273-11.61zm271.892-66.715l-270 67-1.204-4.852 270-67 1.204 4.852z"/><path fill="#FFE163" d="M466.562 0v112.75H382V23.22L405.22 0h61.342z"/><path fill="#F7C800" d="M405.255 0h-.05L382 23.205v.05h23.255V0z"/><path fill="#fff" d="M427.805 7.047h7.047v7.047h-7.047V7.047zM413.711 7.047h7.047v7.047h-7.047V7.047z"/><path fill="#E76E54" d="M427.805 88.086h-8.506l-10.57-10.57h-12.635V56.375h12.635l10.57-10.57h8.506v42.28z"/><path fill="#fff" d="M446.705 89.369l-4.983-4.983c9.616-9.615 9.616-25.266 0-34.882l4.983-4.982c12.363 12.364 12.363 32.483 0 44.847z"/><path fill="#fff" d="M436.74 79.4l-4.982-4.981a10.497 10.497 0 003.094-7.474c0-2.825-1.099-5.478-3.094-7.473l4.982-4.982a17.493 17.493 0 015.159 12.455c0 4.708-1.832 9.13-5.159 12.456z"/><path fill="#FFE163" d="M466.562 439v112.75H382v-89.53L405.22 439h61.342z"/><path fill="#F7C800" d="M405.255 439h-.05L382 462.205v.05h23.255V439z"/><path fill="#fff" d="M427.805 446.047h7.047v7.047h-7.047v-7.047zM413.711 446.047h7.047v7.047h-7.047v-7.047zM397 481h54v7h-54v-7zM397 493h54v7h-54v-7zM397 505h54v7h-54v-7zM397 517h54v7h-54v-7zM397 529h54v7h-54v-7z"/><path fill="#03232E" d="M845.868 212.824l-123.493-10.125v149.604l123.493-10.125V212.824z"/><path fill="#07485E" d="M619.134 212.824v129.354l113.368 10.125V202.699l-113.368 10.125z"/><path fill="#07485E" d="M862 148H732.502l-10.127 32.411 10.127 32.412H862V148zM862 309.911V245.09H732.502l-10.127 32.41 10.127 32.411H862zM862 406.999v-64.823H732.502l-10.127 32.413 10.127 32.41H862z"/><path fill="#0B799D" d="M603 148h129.502v64.823H603V148zM603 245.09h129.502v64.821H603V245.09zM603 342.176h129.502v64.823H603v-64.823z"/><path fill="#B4D2D7" d="M767.946 172.822H837.8v15.176h-69.854v-15.176zM767.946 269.912H837.8v15.176h-69.854v-15.176zM767.946 367.002H837.8v15.176h-69.854v-15.176z"/><path fill="#00FF94" d="M627.2 172.822h16.133v15.176H627.2v-15.176z"/><path fill="#FFD422" d="M659.467 172.822h16.134v15.176h-16.134v-15.176z"/><path fill="#00FF94" d="M627.2 269.912h16.133v15.176H627.2v-15.176z"/><path fill="#FFD422" d="M659.467 269.912h16.134v15.176h-16.134v-15.176z"/><path fill="#00FF94" d="M627.2 367.002h16.133v15.176H627.2v-15.176z"/><path fill="#FFD422" d="M659.467 367.002h16.134v15.176h-16.134v-15.176z"/><path fill="#C9D8E4" d="M915.777 419c0 39.642-32.135 71.777-71.777 71.777S772.223 458.642 772.223 419s32.135-71.777 71.777-71.777 71.777 32.135 71.777 71.777z"/><path fill="#FF5526" d="M844 358.941c-33.169 0-60.059 26.89-60.059 60.059s26.89 60.059 60.059 60.059 60.059-26.89 60.059-60.059-26.89-60.059-60.059-60.059zm0 96.68c-20.225 0-36.621-16.396-36.621-36.621s16.396-36.621 36.621-36.621 36.621 16.396 36.621 36.621-16.396 36.621-36.621 36.621z"/><path fill="#FF4927" d="M844 373.59c-25.079 0-45.41 20.331-45.41 45.41 0 25.079 20.331 45.41 45.41 45.41 25.079 0 45.41-20.331 45.41-45.41 0-25.079-20.331-45.41-45.41-45.41zm0 82.031c-20.225 0-36.621-16.396-36.621-36.621s16.396-36.621 36.621-36.621 36.621 16.396 36.621 36.621-16.396 36.621-36.621 36.621z"/><path fill="#FFB23C" d="M842.828 455.6v23.444c-31.156-.597-56.499-24.918-58.722-55.65h-13.052c-1.628 0-2.607-1.807-1.718-3.171l26.786-41.07a2.05 2.05 0 013.435 0l26.786 41.07c.889 1.364-.089 3.171-1.718 3.171h-16.981c2.127 17.773 16.978 31.634 35.184 32.206z"/><path fill="#FFA40C" d="M784.106 423.394h-13.052c-1.628 0-2.607-1.807-1.718-3.171l26.786-41.07a2.05 2.05 0 013.435 0l3.849 5.901L785.181 413c-.636.974.063 2.265 1.226 2.265h4.437a4.394 4.394 0 014.394 4.394v3.735c.954 13.187 6.167 25.19 14.266 34.648l-6.878 4.486c-10.514-9.997-17.409-23.763-18.52-39.134z"/><path fill="#FFF5F5" d="M845.464 479.035v12.911c0 1.629-1.807 2.607-3.171 1.718l-41.07-26.786a2.05 2.05 0 010-3.435l41.07-26.786c1.364-.89 3.171.089 3.171 1.718v17.213c19.158-.754 34.532-16.221 35.136-35.416h23.444c-.616 32.14-26.477 58.093-58.58 58.863z"/><path fill="#066DAE" d="M918.664 417.777l-26.786 41.07a2.052 2.052 0 01-3.436 0l-26.785-41.07c-.89-1.365.089-3.172 1.718-3.172h16.98c-2.126-17.772-16.977-31.633-35.183-32.206v-23.443c31.156.597 56.499 24.917 58.722 55.649h13.052c1.628 0 2.607 1.807 1.718 3.172z"/><path fill="#FF5526" d="M845.706 344.336l41.07 26.786a2.05 2.05 0 010 3.435l-41.07 26.786c-1.364.889-3.171-.089-3.171-1.718v-53.571c0-1.628 1.807-2.607 3.171-1.718z"/><path fill="#FF4927" d="M886.776 374.558l-41.07 26.785c-1.364.89-3.171-.089-3.171-1.718V373.59h3.736a4.394 4.394 0 014.394 4.394v6.616c0 1.164 1.291 1.863 2.265 1.227l28.197-18.389 5.649 3.684a2.05 2.05 0 010 3.436z"/><path fill="#015D96" d="M896.019 452.496l-4.141 6.351a2.05 2.05 0 01-3.436 0l-26.785-41.07c-.89-1.364.089-3.171 1.717-3.171h16.981c-1.275-10.658-7.127-19.908-15.534-25.73l7.287-4.752c9.512 6.448 15.552 18.308 17.009 30.482v3.735a4.395 4.395 0 01-4.395 4.395h-5.408c-1.164 0-1.863 1.29-1.227 2.264l17.932 27.496z"/><path fill="#EAFAFF" d="M888.672 459.133c-10.69 11.89-26.057 19.491-43.208 19.902v12.911c0 1.628-1.807 2.607-3.171 1.717l-41.07-26.785a2.05 2.05 0 010-3.435l4.104-2.677 29.742 19.397c.975.636 2.265-.064 2.265-1.227v-4.296a4.395 4.395 0 014.395-4.394h3.735c15.378-.369 29.322-6.517 39.746-16.355l3.232 4.956c.069.106.147.199.23.286z"/><path fill="#CCC" d="M34 387.452v112.602c0 .894.727 1.565 1.566 1.565h189.813c.894 0 1.565-.727 1.565-1.565V387.452H34z"/><path fill="#4CDBC4" d="M227 388.961V369.84c0-5.423-4.417-9.84-9.84-9.84H43.84c-5.423 0-9.84 4.417-9.84 9.84v19.121h193z"/><path fill="#fff" d="M148.503 381.47H53.848a6.991 6.991 0 01-6.989-6.989 6.991 6.991 0 016.99-6.989h94.654a6.991 6.991 0 016.989 6.989 6.991 6.991 0 01-6.989 6.989z"/><path fill="#2C9984" d="M206.984 381.749a7.156 7.156 0 10.001-14.313 7.156 7.156 0 00-.001 14.313zM186.41 381.749a7.156 7.156 0 100-14.312 7.156 7.156 0 000 14.312z"/></svg>