<svg xmlns="http://www.w3.org/2000/svg" viewBox="0 0 692 528"><g fill="none" fill-rule="evenodd"><path stroke="#fff" stroke-width="5" d="M235.85 8v514.567m225-511.6v514.58" stroke-linecap="square" stroke-dasharray="10"/><path fill="#7ED321" fill-opacity=".75" d="M8.5 116.703h120v143.535H8.5z"/><path stroke="#fff" stroke-width="5" d="M8.5 261.5h673.727" stroke-linecap="square" stroke-dasharray="10"/><path stroke="#DF581D" stroke-width="8" d="M4.5 4h683v519.262H4.5z"/><path stroke="#fff" stroke-width="10" d="M72.422 44.708v30" stroke-linecap="square"/><path fill="#fff" d="M84.857 78.542l-12.436 29.99-12.43-29.99m24.87-37.336l-12.44-29.99-12.434 29.99"/><path stroke="#fff" stroke-width="10" d="M196.26 188.684h-30" stroke-linecap="square"/><path fill="#fff" d="M162.426 201.12l-29.99-12.437 29.99-12.436m37.336 24.873l29.99-12.437-29.99-12.436"/><path fill="#7ED321" fill-opacity=".75" d="M238 115.465h120V259H238z"/><path stroke="#fff" stroke-width="10" d="M301.922 43.47v30" stroke-linecap="square"/><path fill="#fff" d="M314.357 77.305l-12.436 29.99-12.43-29.99m24.87-37.337l-12.44-29.99-12.434 29.99"/><path stroke="#fff" stroke-width="10" d="M422.76 187.446h-30" stroke-linecap="square"/><path fill="#fff" d="M388.926 199.88l-29.99-12.434 29.99-12.436m37.336 24.87l29.99-12.434-29.99-12.436"/><path fill="#7ED321" fill-opacity=".75" d="M462.5 115.465h120V259h-120z"/><path stroke="#fff" stroke-width="10" d="M526.422 43.47v30" stroke-linecap="square"/><path fill="#fff" d="M538.857 77.305l-12.436 29.99-12.43-29.99m24.87-37.337l-12.44-29.99-12.434 29.99"/><path stroke="#fff" stroke-width="10" d="M648.26 187.446h-30" stroke-linecap="square"/><path fill="#fff" d="M614.426 199.88l-29.99-12.434 29.99-12.436m37.336 24.87l29.99-12.434-29.99-12.436"/><path fill="#7ED321" fill-opacity=".75" d="M8.5 375.727h120v143.535H8.5z"/><path stroke="#fff" stroke-width="10" d="M72.422 303.732v30" stroke-linecap="square"/><path fill="#fff" d="M84.857 337.566l-12.436 29.99-12.43-29.99m24.87-37.336l-12.44-29.99-12.434 29.99"/><path stroke="#fff" stroke-width="10" d="M196.26 447.708h-30" stroke-linecap="square"/><path fill="#fff" d="M162.426 460.143l-29.99-12.436 29.99-12.436m37.336 24.877l29.99-12.436-29.99-12.436"/><path fill="#7ED321" fill-opacity=".75" d="M238 375.727h120v143.535H238z"/><path stroke="#fff" stroke-width="10" d="M301.922 303.732v30" stroke-linecap="square"/><path fill="#fff" d="M314.357 337.566l-12.436 29.99-12.43-29.99m24.87-37.336l-12.435-29.99-12.434 29.99"/><path stroke="#fff" stroke-width="10" d="M423.76 447.708h-30" stroke-linecap="square"/><path fill="#fff" d="M389.926 460.143l-29.99-12.436 29.99-12.436m37.336 24.877l29.99-12.436-29.99-12.436"/><path fill="#7ED321" fill-opacity=".75" d="M463 375.727h120v143.535H463z"/><path stroke="#fff" stroke-width="10" d="M526.922 303.732v30" stroke-linecap="square"/><path fill="#fff" d="M539.357 337.566l-12.436 29.99-12.43-29.99m24.87-37.336l-12.435-29.99-12.434 29.99"/><path stroke="#fff" stroke-width="10" d="M648.76 447.708h-30" stroke-linecap="square"/><path fill="#fff" d="M614.926 460.143l-29.99-12.436 29.99-12.436m37.336 24.877l29.99-12.436-29.99-12.436"/></g></svg>
