<svg xmlns="http://www.w3.org/2000/svg" viewBox="0 0 2506 1616"><g fill="none" fill-rule="evenodd" transform="translate(10)"><path stroke="#828081" stroke-width="20" d="M2406.156 1415.919H100.344s-99.375-30.407-99.375-150c0-119.594 99.375-150 99.375-150H2351.68s107.39-39.094 107.39-150c0-110.907-107.39-150-107.39-150H100.344S.969 776.794.969 662.762c0-114.03 99.375-145 99.375-145H2351.68s107.39-38.828 107.39-158.875c0-120.046-107.39-159.387-107.39-159.387H.969"/><path fill="#828081" d="M2366.066 1464.152v-96.132l129.106 48.066z"/><rect width="399.002" height="742.393" x="341.927" y="-171.618" fill="#e8c796" rx="50" transform="matrix(0 1 1 0 341.85 -341.85)"/><path fill="#FFF" fill-rule="nonzero" stroke="#000" stroke-width="5" d="M478.788 183.185c-19.76-2.876-47.05-10.852-60.058-11.774-11.5-.815-19.7 5.678-24.25 15.682-1.644 3.617-2.551 7.86-2.551 12.32s.907 8.703 2.552 12.32c4.549 10.004 12.749 16.497 24.25 15.682 13.007-.922 40.296-8.897 60.057-11.774M495.258 154.12c-15.675-12.37-35.32-32.923-46.125-40.225-9.552-6.456-19.9-4.933-28.84 1.456-3.234 2.31-6.141 5.531-8.371 9.394-2.23 3.863-3.566 7.99-3.95 11.946-1.063 10.938 2.792 20.66 13.16 25.705 11.726 5.706 39.347 12.443 57.898 19.832M557.481 136.937c2.877-19.76 10.852-47.05 11.775-60.058.815-11.5-5.678-19.7-15.682-24.249-3.617-1.645-7.86-2.552-12.32-2.552s-8.704.907-12.321 2.552c-10.004 4.549-16.497 12.749-15.682 24.25.922 13.007 8.898 40.297 11.774 60.057M524.067 137.194c-7.39-18.55-14.127-46.172-19.832-57.898-5.045-10.368-14.768-14.222-25.705-13.16-3.956.384-8.084 1.72-11.946 3.95-3.863 2.23-7.084 5.138-9.394 8.37-6.39 8.942-7.913 19.29-1.456 28.842 7.302 10.804 27.854 30.45 40.225 46.124M586.55 153.423c12.37-15.675 32.923-35.32 40.225-46.125 6.456-9.552 4.933-19.9-1.456-28.84-2.31-3.234-5.531-6.141-9.394-8.371-3.863-2.23-7.99-3.566-11.946-3.95-10.938-1.063-20.66 2.792-25.705 13.16-5.705 11.725-12.443 39.346-19.832 57.898M603.48 182.232c18.551-7.39 46.172-14.127 57.899-19.833 10.367-5.044 14.222-14.767 13.16-25.705-.385-3.955-1.72-8.083-3.951-11.946-2.23-3.862-5.137-7.083-8.37-9.394-8.941-6.389-19.29-7.912-28.841-1.456-10.805 7.303-30.45 27.855-46.125 40.226M603.738 215.645c19.76 2.876 47.05 10.852 60.057 11.774 11.501.815 19.7-5.678 24.25-15.682 1.644-3.617 2.551-7.86 2.551-12.32s-.907-8.704-2.551-12.321c-4.55-10.004-12.749-16.497-24.25-15.682-13.008.923-40.297 8.898-60.057 11.775M587.258 244.709c15.675 12.371 35.32 32.923 46.125 40.225 9.552 6.457 19.9 4.933 28.84-1.456 3.234-2.31 6.141-5.531 8.371-9.394 2.23-3.862 3.566-7.99 3.95-11.946 1.063-10.937-2.792-20.66-13.159-25.705-11.726-5.705-39.347-12.443-57.899-19.832M558.454 261.642c7.39 18.551 14.127 46.172 19.832 57.899 5.044 10.367 14.768 14.222 25.705 13.16 3.955-.385 8.084-1.721 11.946-3.951 3.863-2.23 7.084-5.137 9.394-8.37 6.39-8.941 7.913-19.29 1.456-28.842-7.302-10.804-27.854-30.45-40.225-46.124M525.055 261.894c-2.876 19.76-10.852 47.05-11.774 60.058-.815 11.5 5.678 19.7 15.681 24.249 3.618 1.644 7.86 2.551 12.321 2.551 4.46 0 8.703-.907 12.32-2.551 10.004-4.55 16.497-12.75 15.682-24.25-.922-13.007-8.898-40.297-11.774-60.057M479.048 216.6c-18.552 7.39-46.173 14.127-57.899 19.833-10.367 5.044-14.222 14.767-13.16 25.705.385 3.955 1.72 8.083 3.95 11.946 2.23 3.862 5.138 7.084 8.37 9.394 8.942 6.389 19.29 7.912 28.842 1.456 10.804-7.303 30.45-27.854 46.125-40.226M495.988 245.429c-12.372 15.675-32.923 35.32-40.226 46.124-6.456 9.553-4.933 19.9 1.456 28.842 2.31 3.233 5.532 6.14 9.394 8.37 3.863 2.23 7.991 3.566 11.946 3.95 10.938 1.063 20.661-2.792 25.705-13.16 5.706-11.726 12.443-39.347 19.832-57.898"/><path fill="#FFD800" fill-rule="nonzero" stroke="#020000" stroke-width="6" d="M541.263 263.386c35.33 0 63.97-28.64 63.97-63.97s-28.64-63.971-63.97-63.971-63.97 28.64-63.97 63.97 28.64 63.97 63.97 63.97z"/><rect width="399.002" height="399.002" x="1023.045" y=".077" fill="#e8c796" rx="50" transform="scale(-1 1) rotate(90 0 -1022.968)"/><path fill="#FFF" fill-rule="nonzero" stroke="#000" stroke-width="5" d="M1160.28 183.56c-19.761-2.877-47.05-10.853-60.059-11.775-11.5-.815-19.7 5.678-24.249 15.682-1.644 3.617-2.552 7.86-2.552 12.32s.908 8.703 2.552 12.32c4.55 10.004 12.749 16.497 24.25 15.682 13.007-.922 40.297-8.897 60.057-11.774M1176.75 154.495c-15.675-12.372-35.321-32.923-46.125-40.226-9.552-6.456-19.9-4.933-28.841 1.456-3.233 2.31-6.14 5.531-8.37 9.394-2.23 3.863-3.567 7.99-3.95 11.946-1.063 10.938 2.791 20.66 13.159 25.705 11.726 5.706 39.347 12.443 57.898 19.832M1238.973 137.311c2.876-19.76 10.852-47.05 11.774-60.058.815-11.5-5.678-19.7-15.682-24.249-3.617-1.645-7.86-2.552-12.32-2.552s-8.703.907-12.32 2.552c-10.004 4.549-16.498 12.749-15.682 24.25.922 13.007 8.897 40.297 11.774 60.057M1205.558 137.568c-7.389-18.55-14.126-46.172-19.832-57.898-5.044-10.368-14.767-14.222-25.705-13.16-3.955.384-8.083 1.72-11.946 3.95-3.863 2.23-7.084 5.138-9.394 8.37-6.389 8.942-7.912 19.29-1.456 28.842 7.303 10.804 27.854 30.45 40.226 46.124M1268.04 153.797c12.372-15.675 32.924-35.32 40.227-46.125 6.456-9.552 4.933-19.9-1.456-28.84-2.31-3.234-5.532-6.141-9.394-8.371-3.863-2.23-7.991-3.566-11.946-3.95-10.938-1.063-20.661 2.792-25.706 13.16-5.705 11.725-12.443 39.347-19.832 57.898M1284.972 182.606c18.55-7.39 46.172-14.127 57.898-19.832 10.368-5.045 14.222-14.768 13.16-25.706-.384-3.955-1.72-8.083-3.95-11.946-2.23-3.862-5.138-7.083-8.37-9.394-8.942-6.389-19.29-7.912-28.842-1.456-10.804 7.303-30.45 27.855-46.124 40.226M1285.23 216.019c19.76 2.876 47.049 10.852 60.057 11.774 11.5.815 19.7-5.678 24.249-15.682 1.645-3.617 2.552-7.86 2.552-12.32s-.907-8.704-2.552-12.32c-4.549-10.005-12.749-16.498-24.25-15.682-13.007.922-40.296 8.897-60.057 11.774M1268.75 245.083c15.675 12.371 35.32 32.923 46.124 40.225 9.552 6.457 19.9 4.933 28.841-1.455 3.233-2.31 6.14-5.532 8.37-9.395 2.23-3.862 3.567-7.99 3.951-11.945 1.062-10.938-2.792-20.661-13.16-25.706-11.726-5.705-39.347-12.443-57.898-19.832M1239.945 262.016c7.39 18.551 14.127 46.172 19.833 57.899 5.044 10.367 14.767 14.222 25.705 13.16 3.955-.385 8.083-1.72 11.946-3.951 3.862-2.23 7.083-5.137 9.394-8.37 6.389-8.941 7.912-19.29 1.456-28.841-7.303-10.805-27.855-30.45-40.226-46.125M1206.546 262.268c-2.876 19.76-10.852 47.05-11.774 60.058-.815 11.5 5.678 19.7 15.682 24.249 3.617 1.644 7.86 2.551 12.32 2.551s8.704-.907 12.321-2.551c10.004-4.55 16.497-12.749 15.682-24.25-.922-13.007-8.898-40.297-11.775-60.057M1160.539 216.975c-18.551 7.389-46.172 14.126-57.899 19.832-10.367 5.044-14.222 14.767-13.16 25.705.385 3.955 1.721 8.083 3.951 11.946 2.23 3.863 5.137 7.084 8.37 9.394 8.942 6.389 19.29 7.912 28.842 1.456 10.804-7.303 30.45-27.854 46.124-40.226M1177.48 245.803c-12.372 15.675-32.924 35.32-40.226 46.124-6.457 9.553-4.933 19.9 1.456 28.842 2.31 3.233 5.531 6.14 9.394 8.37 3.862 2.23 7.99 3.566 11.946 3.95 10.937 1.063 20.66-2.792 25.705-13.16 5.705-11.726 12.443-39.347 19.832-57.898"/><path fill="#FFD800" fill-rule="nonzero" stroke="#020000" stroke-width="6" d="M1222.754 263.76c35.33 0 63.97-28.64 63.97-63.97s-28.64-63.971-63.97-63.971-63.97 28.64-63.97 63.97 28.64 63.97 63.97 63.97z"/><rect width="399.002" height="568.407" x="257.155" y="515.375" fill="#e8c796" rx="50" transform="scale(-1 1) rotate(90 0 342.922)"/><path fill="#FFF" fill-rule="nonzero" stroke="#000" stroke-width="5" d="M394.39 783.56c-19.76-2.877-47.05-10.853-60.058-11.775-11.5-.815-19.7 5.678-24.25 15.682-1.644 3.617-2.551 7.86-2.551 12.32s.907 8.703 2.552 12.32c4.549 10.004 12.748 16.497 24.249 15.682 13.008-.922 40.297-8.897 60.058-11.774M410.86 754.495c-15.675-12.372-35.32-32.923-46.125-40.226-9.552-6.456-19.9-4.933-28.84 1.456-3.234 2.31-6.141 5.531-8.371 9.394-2.23 3.863-3.566 7.99-3.95 11.946-1.063 10.938 2.792 20.66 13.16 25.705 11.725 5.706 39.346 12.443 57.898 19.832M473.083 737.311c2.877-19.76 10.852-47.05 11.774-60.058.816-11.5-5.677-19.7-15.681-24.249-3.617-1.645-7.86-2.552-12.32-2.552s-8.704.907-12.321 2.552c-10.004 4.549-16.497 12.749-15.682 24.25.922 13.007 8.898 40.297 11.774 60.057M439.669 737.568c-7.39-18.55-14.127-46.172-19.832-57.898-5.045-10.368-14.768-14.222-25.706-13.16-3.955.384-8.083 1.72-11.946 3.95-3.862 2.23-7.083 5.138-9.393 8.37-6.39 8.942-7.913 19.29-1.457 28.842 7.303 10.804 27.855 30.45 40.226 46.124M502.151 753.797c12.372-15.675 32.923-35.32 40.226-46.125 6.456-9.552 4.933-19.9-1.456-28.84-2.31-3.234-5.531-6.141-9.394-8.371-3.863-2.23-7.99-3.566-11.946-3.95-10.938-1.063-20.66 2.792-25.705 13.16-5.706 11.725-12.443 39.347-19.832 57.898M519.082 782.606c18.551-7.39 46.172-14.127 57.899-19.832 10.367-5.045 14.222-14.768 13.16-25.706-.385-3.955-1.721-8.083-3.951-11.946-2.23-3.862-5.137-7.083-8.37-9.394-8.942-6.389-19.29-7.912-28.841-1.456-10.805 7.303-30.45 27.855-46.125 40.226M519.34 816.019c19.76 2.876 47.05 10.852 60.057 11.774 11.5.815 19.7-5.678 24.25-15.682 1.644-3.617 2.551-7.86 2.551-12.32s-.907-8.704-2.552-12.32c-4.548-10.005-12.748-16.498-24.249-15.682-13.008.922-40.297 8.897-60.057 11.774M502.86 845.083c15.675 12.371 35.32 32.923 46.125 40.225 9.552 6.457 19.9 4.933 28.84-1.455 3.234-2.31 6.141-5.532 8.371-9.395 2.23-3.862 3.566-7.99 3.95-11.945 1.063-10.938-2.792-20.661-13.16-25.706-11.726-5.705-39.347-12.443-57.898-19.832M474.056 862.016c7.389 18.551 14.127 46.172 19.832 57.899 5.044 10.367 14.767 14.222 25.705 13.16 3.955-.385 8.083-1.72 11.946-3.951 3.863-2.23 7.084-5.137 9.394-8.37 6.39-8.941 7.912-19.29 1.456-28.841-7.302-10.805-27.854-30.45-40.226-46.125M440.657 862.268c-2.877 19.76-10.852 47.05-11.774 60.058-.815 11.5 5.678 19.7 15.681 24.249 3.618 1.644 7.86 2.551 12.32 2.551 4.461 0 8.704-.907 12.321-2.551 10.004-4.55 16.497-12.749 15.682-24.25-.922-13.007-8.898-40.297-11.774-60.057M394.65 816.975c-18.552 7.389-46.173 14.126-57.9 19.832-10.367 5.044-14.221 14.767-13.159 25.705.384 3.955 1.72 8.083 3.95 11.946 2.23 3.863 5.138 7.084 8.37 9.394 8.942 6.389 19.29 7.912 28.842 1.456 10.804-7.303 30.45-27.854 46.124-40.226M411.59 845.803c-12.372 15.675-32.923 35.32-40.226 46.124-6.456 9.553-4.933 19.9 1.456 28.842 2.31 3.233 5.531 6.14 9.394 8.37 3.863 2.23 7.99 3.566 11.946 3.95 10.938 1.063 20.66-2.792 25.705-13.16 5.706-11.726 12.443-39.347 19.832-57.898"/><path fill="#FFD800" fill-rule="nonzero" stroke="#020000" stroke-width="6" d="M456.865 863.76c35.33 0 63.97-28.64 63.97-63.97s-28.64-63.971-63.97-63.971-63.97 28.64-63.97 63.97 28.64 63.97 63.97 63.97z"/><rect width="399.002" height="786.313" x="1725.202" y="-193.578" fill="#e8c796" rx="50" transform="scale(-1 1) rotate(90 0 -1725.125)"/><path fill="#FFF" fill-rule="nonzero" stroke="#000" stroke-width="5" d="M1862.437 183.56c-19.76-2.877-47.05-10.853-60.058-11.775-11.5-.815-19.7 5.678-24.25 15.682-1.644 3.617-2.551 7.86-2.551 12.32s.907 8.703 2.552 12.32c4.548 10.004 12.748 16.497 24.249 15.682 13.008-.922 40.297-8.897 60.058-11.774M1878.907 154.495c-15.675-12.372-35.32-32.923-46.125-40.226-9.552-6.456-19.9-4.933-28.841 1.456-3.233 2.31-6.14 5.531-8.37 9.394-2.23 3.863-3.566 7.99-3.95 11.946-1.063 10.938 2.792 20.66 13.159 25.705 11.726 5.706 39.347 12.443 57.899 19.832M1941.13 137.311c2.877-19.76 10.852-47.05 11.774-60.058.815-11.5-5.678-19.7-15.681-24.249-3.618-1.645-7.86-2.552-12.32-2.552-4.461 0-8.704.907-12.321 2.552-10.004 4.549-16.497 12.749-15.682 24.25.922 13.007 8.898 40.297 11.774 60.057M1907.716 137.568c-7.39-18.55-14.127-46.172-19.833-57.898-5.044-10.368-14.767-14.222-25.705-13.16-3.955.384-8.083 1.72-11.946 3.95-3.862 2.23-7.083 5.138-9.394 8.37-6.389 8.942-7.912 19.29-1.456 28.842 7.303 10.804 27.855 30.45 40.226 46.124M1970.198 153.797c12.372-15.675 32.923-35.32 40.226-46.125 6.456-9.552 4.933-19.9-1.456-28.84-2.31-3.234-5.532-6.141-9.394-8.371-3.863-2.23-7.991-3.566-11.946-3.95-10.938-1.063-20.661 2.792-25.705 13.16-5.706 11.725-12.443 39.347-19.832 57.898M1987.129 182.606c18.551-7.39 46.172-14.127 57.898-19.832 10.368-5.045 14.223-14.768 13.16-25.706-.384-3.955-1.72-8.083-3.95-11.946-2.23-3.862-5.137-7.083-8.37-9.394-8.942-6.389-19.29-7.912-28.842-1.456-10.804 7.303-30.45 27.855-46.124 40.226M1987.386 216.019c19.76 2.876 47.05 10.852 60.058 11.774 11.5.815 19.7-5.678 24.25-15.682 1.644-3.617 2.551-7.86 2.551-12.32s-.907-8.704-2.552-12.32c-4.548-10.005-12.748-16.498-24.249-15.682-13.008.922-40.297 8.897-60.058 11.774M1970.907 245.083c15.675 12.371 35.32 32.923 46.125 40.225 9.552 6.457 19.9 4.933 28.84-1.455 3.234-2.31 6.14-5.532 8.371-9.395 2.23-3.862 3.566-7.99 3.95-11.945 1.063-10.938-2.792-20.661-13.16-25.706-11.726-5.705-39.347-12.443-57.898-19.832M1942.103 262.016c7.389 18.551 14.126 46.172 19.832 57.899 5.044 10.367 14.767 14.222 25.705 13.16 3.955-.385 8.083-1.72 11.946-3.951 3.863-2.23 7.084-5.137 9.394-8.37 6.389-8.941 7.912-19.29 1.456-28.841-7.303-10.805-27.854-30.45-40.226-46.125M1908.704 262.268c-2.877 19.76-10.852 47.05-11.774 60.058-.816 11.5 5.678 19.7 15.681 24.249 3.617 1.644 7.86 2.551 12.32 2.551 4.461 0 8.704-.907 12.321-2.551 10.004-4.55 16.497-12.749 15.682-24.25-.922-13.007-8.898-40.297-11.774-60.057M1862.696 216.975c-18.55 7.389-46.172 14.126-57.898 19.832-10.368 5.044-14.222 14.767-13.16 25.705.384 3.955 1.72 8.083 3.95 11.946 2.23 3.863 5.138 7.084 8.37 9.394 8.942 6.389 19.29 7.912 28.842 1.456 10.804-7.303 30.45-27.854 46.124-40.226M1879.637 245.803c-12.372 15.675-32.924 35.32-40.226 46.124-6.456 9.553-4.933 19.9 1.456 28.842 2.31 3.233 5.531 6.14 9.394 8.37 3.863 2.23 7.99 3.566 11.946 3.95 10.938 1.063 20.66-2.792 25.705-13.16 5.705-11.726 12.443-39.347 19.832-57.898"/><path fill="#FFD800" fill-rule="nonzero" stroke="#020000" stroke-width="6" d="M1924.912 263.76c35.33 0 63.97-28.64 63.97-63.97s-28.64-63.971-63.97-63.971-63.971 28.64-63.971 63.97 28.64 63.97 63.97 63.97z"/><rect width="399.002" height="399.002" x="172.857" y="1216.495" fill="#e8c796" rx="50" transform="scale(-1 1) rotate(90 0 1043.638)"/><path fill="#FFF" fill-rule="nonzero" stroke="#000" stroke-width="5" d="M310.092 1399.978c-19.76-2.877-47.05-10.852-60.058-11.774-11.5-.816-19.7 5.678-24.25 15.681-1.644 3.618-2.551 7.86-2.551 12.32 0 4.461.907 8.704 2.552 12.321 4.549 10.004 12.748 16.497 24.249 15.682 13.008-.922 40.297-8.898 60.058-11.774M326.562 1370.913c-15.675-12.371-35.32-32.923-46.125-40.225-9.552-6.457-19.9-4.933-28.84 1.456-3.234 2.31-6.141 5.531-8.371 9.394-2.23 3.862-3.566 7.99-3.95 11.946-1.063 10.937 2.792 20.66 13.16 25.705 11.725 5.705 39.347 12.443 57.898 19.832M388.785 1353.73c2.877-19.76 10.852-47.05 11.774-60.058.816-11.5-5.677-19.7-15.681-24.249-3.617-1.645-7.86-2.552-12.32-2.552s-8.704.907-12.321 2.552c-10.004 4.549-16.497 12.749-15.682 24.25.922 13.007 8.898 40.297 11.774 60.057M355.37 1353.987c-7.388-18.551-14.126-46.172-19.831-57.899-5.045-10.367-14.768-14.222-25.706-13.16-3.955.385-8.083 1.721-11.945 3.951-3.863 2.23-7.084 5.137-9.394 8.37-6.39 8.942-7.913 19.29-1.456 28.842 7.302 10.804 27.854 30.45 40.225 46.124M417.853 1370.215c12.372-15.674 32.923-35.32 40.226-46.124 6.456-9.552 4.933-19.9-1.456-28.841-2.31-3.233-5.531-6.14-9.394-8.37-3.863-2.23-7.99-3.567-11.946-3.95-10.938-1.063-20.66 2.791-25.705 13.159-5.706 11.726-12.443 39.347-19.832 57.899M434.784 1399.024c18.551-7.389 46.172-14.126 57.899-19.832 10.367-5.044 14.222-14.767 13.16-25.705-.385-3.955-1.72-8.083-3.951-11.946-2.23-3.863-5.137-7.084-8.37-9.394-8.941-6.389-19.29-7.912-28.841-1.456-10.805 7.303-30.45 27.854-46.125 40.226M435.042 1432.437c19.76 2.877 47.05 10.852 60.057 11.774 11.5.816 19.7-5.677 24.25-15.681 1.644-3.617 2.551-7.86 2.551-12.32s-.907-8.704-2.551-12.321c-4.55-10.004-12.75-16.497-24.25-15.682-13.008.922-40.297 8.898-60.057 11.774M418.562 1461.502c15.675 12.37 35.32 32.923 46.125 40.225 9.552 6.456 19.9 4.933 28.84-1.456 3.234-2.31 6.141-5.531 8.371-9.394 2.23-3.863 3.566-7.99 3.95-11.946 1.063-10.938-2.792-20.66-13.16-25.705-11.725-5.705-39.347-12.443-57.898-19.832M389.758 1478.435c7.389 18.551 14.127 46.172 19.832 57.898 5.044 10.368 14.767 14.222 25.705 13.16 3.955-.384 8.083-1.72 11.946-3.95 3.863-2.23 7.084-5.138 9.394-8.37 6.39-8.942 7.912-19.29 1.456-28.842-7.302-10.804-27.854-30.45-40.225-46.124M356.359 1478.686c-2.876 19.76-10.852 47.05-11.774 60.058-.815 11.5 5.678 19.7 15.681 24.25 3.618 1.644 7.86 2.551 12.321 2.551 4.46 0 8.703-.907 12.32-2.552 10.004-4.548 16.497-12.748 15.682-24.249-.922-13.008-8.898-40.297-11.774-60.058M310.352 1433.393c-18.552 7.39-46.173 14.127-57.9 19.833-10.367 5.044-14.221 14.767-13.159 25.705.384 3.955 1.72 8.083 3.95 11.946 2.23 3.862 5.138 7.083 8.37 9.394 8.942 6.389 19.29 7.912 28.842 1.456 10.804-7.303 30.45-27.855 46.125-40.226M327.292 1462.222c-12.372 15.674-32.923 35.32-40.226 46.124-6.456 9.552-4.933 19.9 1.456 28.841 2.31 3.233 5.532 6.14 9.394 8.37 3.863 2.23 7.991 3.567 11.946 3.95 10.938 1.063 20.66-2.791 25.705-13.159 5.706-11.726 12.443-39.347 19.832-57.898"/><path fill="#FFD800" fill-rule="nonzero" stroke="#020000" stroke-width="6" d="M372.567 1480.179c35.33 0 63.97-28.64 63.97-63.97s-28.64-63.971-63.97-63.971-63.97 28.64-63.97 63.97 28.64 63.97 63.97 63.97z"/><rect width="399.002" height="1102.328" x="1045.694" y="864.832" fill="#e8c796" rx="50" transform="scale(-1 1) rotate(90 0 170.801)"/><path fill="#FFF" fill-rule="nonzero" stroke="#000" stroke-width="5" d="M1182.929 1399.978c-19.76-2.877-47.05-10.852-60.058-11.774-11.5-.816-19.7 5.678-24.25 15.681-1.644 3.618-2.551 7.86-2.551 12.32 0 4.461.907 8.704 2.552 12.321 4.549 10.004 12.748 16.497 24.249 15.682 13.008-.922 40.297-8.898 60.058-11.774M1199.399 1370.913c-15.675-12.371-35.32-32.923-46.125-40.225-9.552-6.457-19.9-4.933-28.84 1.456-3.234 2.31-6.141 5.531-8.371 9.394-2.23 3.862-3.566 7.99-3.95 11.946-1.063 10.937 2.792 20.66 13.16 25.705 11.725 5.705 39.347 12.443 57.898 19.832M1261.622 1353.73c2.877-19.76 10.852-47.05 11.774-60.058.816-11.5-5.677-19.7-15.681-24.249-3.617-1.645-7.86-2.552-12.32-2.552s-8.704.907-12.321 2.552c-10.004 4.549-16.497 12.749-15.682 24.25.922 13.007 8.898 40.297 11.774 60.057M1228.208 1353.987c-7.39-18.551-14.127-46.172-19.832-57.899-5.045-10.367-14.768-14.222-25.706-13.16-3.955.385-8.083 1.721-11.945 3.951-3.863 2.23-7.084 5.137-9.394 8.37-6.39 8.942-7.913 19.29-1.456 28.842 7.302 10.804 27.854 30.45 40.225 46.124M1290.69 1370.215c12.372-15.674 32.924-35.32 40.226-46.124 6.456-9.552 4.933-19.9-1.456-28.841-2.31-3.233-5.531-6.14-9.394-8.37-3.863-2.23-7.99-3.567-11.946-3.95-10.938-1.063-20.66 2.791-25.705 13.159-5.706 11.726-12.443 39.347-19.832 57.899M1307.621 1399.024c18.551-7.389 46.172-14.126 57.899-19.832 10.367-5.044 14.222-14.767 13.16-25.705-.385-3.955-1.72-8.083-3.951-11.946-2.23-3.863-5.137-7.084-8.37-9.394-8.941-6.389-19.29-7.912-28.841-1.456-10.805 7.303-30.45 27.854-46.125 40.226M1307.879 1432.437c19.76 2.877 47.05 10.852 60.057 11.774 11.501.816 19.7-5.677 24.25-15.681 1.644-3.617 2.551-7.86 2.551-12.32s-.907-8.704-2.551-12.321c-4.55-10.004-12.749-16.497-24.25-15.682-13.008.922-40.297 8.898-60.057 11.774M1291.4 1461.502c15.674 12.37 35.32 32.923 46.124 40.225 9.552 6.456 19.9 4.933 28.84-1.456 3.234-2.31 6.141-5.531 8.371-9.394 2.23-3.863 3.566-7.99 3.95-11.946 1.063-10.938-2.792-20.66-13.16-25.705-11.725-5.705-39.347-12.443-57.898-19.832M1262.595 1478.435c7.389 18.551 14.127 46.172 19.832 57.898 5.044 10.368 14.767 14.222 25.705 13.16 3.955-.384 8.084-1.72 11.946-3.95 3.863-2.23 7.084-5.138 9.394-8.37 6.39-8.942 7.912-19.29 1.456-28.842-7.302-10.804-27.854-30.45-40.225-46.124M1229.196 1478.686c-2.876 19.76-10.852 47.05-11.774 60.058-.815 11.5 5.678 19.7 15.681 24.25 3.618 1.644 7.86 2.551 12.321 2.551 4.46 0 8.703-.907 12.32-2.552 10.004-4.548 16.497-12.748 15.682-24.249-.922-13.008-8.898-40.297-11.774-60.058M1183.189 1433.393c-18.552 7.39-46.173 14.127-57.9 19.833-10.366 5.044-14.221 14.767-13.159 25.705.384 3.955 1.72 8.083 3.95 11.946 2.23 3.862 5.138 7.083 8.37 9.394 8.942 6.389 19.29 7.912 28.842 1.456 10.804-7.303 30.45-27.855 46.125-40.226M1200.129 1462.222c-12.372 15.674-32.923 35.32-40.226 46.124-6.456 9.552-4.933 19.9 1.456 28.841 2.31 3.233 5.532 6.14 9.394 8.37 3.863 2.23 7.991 3.567 11.946 3.95 10.938 1.063 20.66-2.791 25.705-13.159 5.706-11.726 12.443-39.347 19.832-57.898"/><path fill="#FFD800" fill-rule="nonzero" stroke="#020000" stroke-width="6" d="M1245.404 1480.179c35.33 0 63.97-28.64 63.97-63.97s-28.64-63.971-63.97-63.971-63.97 28.64-63.97 63.97 28.64 63.97 63.97 63.97z"/><rect width="399.002" height="399.002" x="1918.857" y="1216.495" fill="#e8c796" rx="50" transform="matrix(0 1 1 0 702.362 -702.362)"/><path fill="#FFF" fill-rule="nonzero" stroke="#000" stroke-width="5" d="M2056.092 1399.978c-19.76-2.877-47.05-10.852-60.058-11.774-11.5-.816-19.7 5.678-24.25 15.681-1.644 3.618-2.551 7.86-2.551 12.32 0 4.461.907 8.704 2.552 12.321 4.549 10.004 12.748 16.497 24.249 15.682 13.008-.922 40.297-8.898 60.058-11.774M2072.562 1370.913c-15.675-12.371-35.32-32.923-46.125-40.225-9.552-6.457-19.9-4.933-28.84 1.456-3.234 2.31-6.141 5.531-8.371 9.394-2.23 3.862-3.566 7.99-3.95 11.946-1.063 10.937 2.792 20.66 13.16 25.705 11.725 5.705 39.347 12.443 57.898 19.832M2134.785 1353.73c2.877-19.76 10.852-47.05 11.774-60.058.816-11.5-5.677-19.7-15.681-24.249-3.617-1.645-7.86-2.552-12.32-2.552s-8.704.907-12.321 2.552c-10.004 4.549-16.497 12.749-15.682 24.25.922 13.007 8.898 40.297 11.774 60.057M2101.37 1353.987c-7.388-18.551-14.126-46.172-19.831-57.899-5.045-10.367-14.768-14.222-25.706-13.16-3.955.385-8.083 1.721-11.945 3.951-3.863 2.23-7.084 5.137-9.394 8.37-6.39 8.942-7.913 19.29-1.456 28.842 7.302 10.804 27.854 30.45 40.225 46.124M2163.853 1370.215c12.372-15.674 32.923-35.32 40.226-46.124 6.456-9.552 4.933-19.9-1.456-28.841-2.31-3.233-5.531-6.14-9.394-8.37-3.863-2.23-7.99-3.567-11.946-3.95-10.938-1.063-20.66 2.791-25.705 13.159-5.706 11.726-12.443 39.347-19.832 57.899M2180.784 1399.024c18.551-7.389 46.172-14.126 57.899-19.832 10.367-5.044 14.222-14.767 13.16-25.705-.385-3.955-1.72-8.083-3.951-11.946-2.23-3.863-5.137-7.084-8.37-9.394-8.941-6.389-19.29-7.912-28.841-1.456-10.805 7.303-30.45 27.854-46.125 40.226M2181.042 1432.437c19.76 2.877 47.05 10.852 60.057 11.774 11.5.816 19.7-5.677 24.25-15.681 1.644-3.617 2.551-7.86 2.551-12.32s-.907-8.704-2.551-12.321c-4.55-10.004-12.75-16.497-24.25-15.682-13.008.922-40.297 8.898-60.057 11.774M2164.562 1461.502c15.675 12.37 35.32 32.923 46.125 40.225 9.552 6.456 19.9 4.933 28.84-1.456 3.234-2.31 6.141-5.531 8.371-9.394 2.23-3.863 3.566-7.99 3.95-11.946 1.063-10.938-2.792-20.66-13.16-25.705-11.725-5.705-39.347-12.443-57.898-19.832M2135.758 1478.435c7.389 18.551 14.127 46.172 19.832 57.898 5.044 10.368 14.767 14.222 25.705 13.16 3.955-.384 8.083-1.72 11.946-3.95 3.863-2.23 7.084-5.138 9.394-8.37 6.39-8.942 7.912-19.29 1.456-28.842-7.302-10.804-27.854-30.45-40.225-46.124M2102.359 1478.686c-2.876 19.76-10.852 47.05-11.774 60.058-.815 11.5 5.678 19.7 15.681 24.25 3.618 1.644 7.86 2.551 12.321 2.551 4.46 0 8.703-.907 12.32-2.552 10.004-4.548 16.497-12.748 15.682-24.249-.922-13.008-8.898-40.297-11.774-60.058M2056.352 1433.393c-18.552 7.39-46.173 14.127-57.9 19.833-10.367 5.044-14.221 14.767-13.159 25.705.384 3.955 1.72 8.083 3.95 11.946 2.23 3.862 5.138 7.083 8.37 9.394 8.942 6.389 19.29 7.912 28.842 1.456 10.804-7.303 30.45-27.855 46.125-40.226M2073.292 1462.222c-12.372 15.674-32.923 35.32-40.226 46.124-6.456 9.552-4.933 19.9 1.456 28.841 2.31 3.233 5.532 6.14 9.394 8.37 3.863 2.23 7.991 3.567 11.946 3.95 10.938 1.063 20.66-2.791 25.705-13.159 5.706-11.726 12.443-39.347 19.832-57.898"/><path fill="#FFD800" fill-rule="nonzero" stroke="#020000" stroke-width="6" d="M2118.567 1480.179c35.33 0 63.97-28.64 63.97-63.97s-28.64-63.971-63.97-63.971-63.97 28.64-63.97 63.97 28.64 63.97 63.97 63.97z"/><rect width="399.002" height="399.002" x="835.524" y="600.077" fill="#e8c796" rx="50" transform="matrix(0 1 1 0 235.447 -235.447)"/><path fill="#FFF" fill-rule="nonzero" stroke="#000" stroke-width="5" d="M972.758 783.56c-19.76-2.877-47.05-10.853-60.057-11.775-11.5-.815-19.7 5.678-24.25 15.682-1.644 3.617-2.551 7.86-2.551 12.32s.907 8.703 2.552 12.32C893 822.112 901.2 828.605 912.7 827.79c13.008-.922 40.297-8.897 60.057-11.774M989.228 754.495c-15.674-12.372-35.32-32.923-46.124-40.226-9.552-6.456-19.9-4.933-28.841 1.456-3.233 2.31-6.14 5.531-8.37 9.394-2.23 3.863-3.567 7.99-3.95 11.946-1.063 10.938 2.791 20.66 13.159 25.705 11.726 5.706 39.347 12.443 57.899 19.832M1051.452 737.311c2.876-19.76 10.852-47.05 11.774-60.058.815-11.5-5.678-19.7-15.681-24.249-3.618-1.645-7.86-2.552-12.321-2.552-4.46 0-8.703.907-12.32 2.552-10.004 4.549-16.497 12.749-15.682 24.25.922 13.007 8.898 40.297 11.774 60.057M1018.037 737.568c-7.389-18.55-14.126-46.172-19.832-57.898-5.044-10.368-14.767-14.222-25.705-13.16-3.955.384-8.083 1.72-11.946 3.95-3.862 2.23-7.084 5.138-9.394 8.37-6.389 8.942-7.912 19.29-1.456 28.842 7.303 10.804 27.854 30.45 40.226 46.124M1080.52 753.797c12.371-15.675 32.923-35.32 40.226-46.125 6.456-9.552 4.933-19.9-1.456-28.84-2.31-3.234-5.532-6.141-9.394-8.371-3.863-2.23-7.991-3.566-11.946-3.95-10.938-1.063-20.661 2.792-25.705 13.16-5.706 11.725-12.443 39.347-19.833 57.898M1097.45 782.606c18.552-7.39 46.173-14.127 57.9-19.832 10.367-5.045 14.221-14.768 13.159-25.706-.384-3.955-1.72-8.083-3.95-11.946-2.23-3.862-5.138-7.083-8.37-9.394-8.942-6.389-19.29-7.912-28.842-1.456-10.804 7.303-30.45 27.855-46.124 40.226M1097.708 816.019c19.76 2.876 47.05 10.852 60.058 11.774 11.5.815 19.7-5.678 24.25-15.682 1.644-3.617 2.551-7.86 2.551-12.32s-.907-8.704-2.552-12.32c-4.549-10.005-12.748-16.498-24.249-15.682-13.008.922-40.297 8.897-60.058 11.774M1081.229 845.083c15.675 12.371 35.32 32.923 46.124 40.225 9.553 6.457 19.9 4.933 28.842-1.455 3.233-2.31 6.14-5.532 8.37-9.395 2.23-3.862 3.566-7.99 3.95-11.945 1.063-10.938-2.792-20.661-13.16-25.706-11.726-5.705-39.347-12.443-57.898-19.832M1052.425 862.016c7.389 18.551 14.126 46.172 19.832 57.899 5.044 10.367 14.767 14.222 25.705 13.16 3.955-.385 8.083-1.72 11.946-3.951 3.862-2.23 7.084-5.137 9.394-8.37 6.389-8.941 7.912-19.29 1.456-28.841-7.303-10.805-27.854-30.45-40.226-46.125M1019.026 862.268c-2.877 19.76-10.852 47.05-11.775 60.058-.815 11.5 5.678 19.7 15.682 24.249 3.617 1.644 7.86 2.551 12.32 2.551s8.704-.907 12.321-2.551c10.004-4.55 16.497-12.749 15.682-24.25-.922-13.007-8.898-40.297-11.774-60.057M973.018 816.975c-18.551 7.389-46.172 14.126-57.898 19.832-10.368 5.044-14.223 14.767-13.16 25.705.384 3.955 1.72 8.083 3.95 11.946 2.23 3.863 5.137 7.084 8.37 9.394 8.942 6.389 19.29 7.912 28.842 1.456 10.804-7.303 30.45-27.854 46.124-40.226M989.958 845.803c-12.37 15.675-32.923 35.32-40.225 46.124-6.457 9.553-4.933 19.9 1.456 28.842 2.31 3.233 5.531 6.14 9.394 8.37 3.862 2.23 7.99 3.566 11.946 3.95 10.937 1.063 20.66-2.792 25.705-13.16 5.705-11.726 12.443-39.347 19.832-57.898"/><path fill="#FFD800" fill-rule="nonzero" stroke="#020000" stroke-width="6" d="M1035.233 863.76c35.33 0 63.97-28.64 63.97-63.97s-28.64-63.971-63.97-63.971-63.97 28.64-63.97 63.97 28.64 63.97 63.97 63.97z"/><rect width="399.002" height="494.815" x="1377.097" y="552.171" fill="#e8c796" rx="50" transform="matrix(0 1 1 0 777.02 -777.02)"/><path fill="#FFF" fill-rule="nonzero" stroke="#000" stroke-width="5" d="M1514.331 783.56c-19.76-2.877-47.05-10.853-60.058-11.775-11.5-.815-19.7 5.678-24.249 15.682-1.645 3.617-2.552 7.86-2.552 12.32s.907 8.703 2.552 12.32c4.549 10.004 12.749 16.497 24.25 15.682 13.007-.922 40.297-8.897 60.057-11.774M1530.801 754.495c-15.675-12.372-35.32-32.923-46.124-40.226-9.552-6.456-19.9-4.933-28.841 1.456-3.234 2.31-6.14 5.531-8.37 9.394-2.23 3.863-3.567 7.99-3.951 11.946-1.063 10.938 2.792 20.66 13.16 25.705 11.726 5.706 39.347 12.443 57.898 19.832M1593.025 737.311c2.876-19.76 10.852-47.05 11.774-60.058.815-11.5-5.678-19.7-15.682-24.249-3.617-1.645-7.86-2.552-12.32-2.552s-8.704.907-12.32 2.552c-10.005 4.549-16.498 12.749-15.682 24.25.922 13.007 8.897 40.297 11.774 60.057M1559.61 737.568c-7.389-18.55-14.127-46.172-19.832-57.898-5.044-10.368-14.767-14.222-25.705-13.16-3.955.384-8.083 1.72-11.946 3.95-3.863 2.23-7.084 5.138-9.394 8.37-6.39 8.942-7.912 19.29-1.456 28.842 7.302 10.804 27.854 30.45 40.226 46.124M1622.093 753.797c12.371-15.675 32.923-35.32 40.225-46.125 6.457-9.552 4.933-19.9-1.456-28.84-2.31-3.234-5.53-6.141-9.394-8.371-3.862-2.23-7.99-3.566-11.945-3.95-10.938-1.063-20.661 2.792-25.706 13.16-5.705 11.725-12.443 39.347-19.832 57.898M1639.023 782.606c18.552-7.39 46.173-14.127 57.9-19.832 10.366-5.045 14.221-14.768 13.159-25.706-.385-3.955-1.72-8.083-3.95-11.946-2.23-3.862-5.138-7.083-8.37-9.394-8.942-6.389-19.29-7.912-28.842-1.456-10.804 7.303-30.45 27.855-46.125 40.226M1639.281 816.019c19.76 2.876 47.05 10.852 60.058 11.774 11.5.815 19.7-5.678 24.249-15.682 1.645-3.617 2.552-7.86 2.552-12.32s-.907-8.704-2.552-12.32c-4.549-10.005-12.749-16.498-24.25-15.682-13.007.922-40.297 8.897-60.057 11.774M1622.802 845.083c15.674 12.371 35.32 32.923 46.124 40.225 9.552 6.457 19.9 4.933 28.841-1.455 3.233-2.31 6.14-5.532 8.37-9.395 2.23-3.862 3.567-7.99 3.95-11.945 1.063-10.938-2.791-20.661-13.159-25.706-11.726-5.705-39.347-12.443-57.898-19.832M1593.997 862.016c7.39 18.551 14.127 46.172 19.832 57.899 5.045 10.367 14.768 14.222 25.706 13.16 3.955-.385 8.083-1.72 11.946-3.951 3.862-2.23 7.083-5.137 9.394-8.37 6.389-8.941 7.912-19.29 1.456-28.841-7.303-10.805-27.855-30.45-40.226-46.125M1560.598 862.268c-2.876 19.76-10.852 47.05-11.774 60.058-.815 11.5 5.678 19.7 15.682 24.249 3.617 1.644 7.86 2.551 12.32 2.551s8.704-.907 12.32-2.551c10.005-4.55 16.498-12.749 15.682-24.25-.922-13.007-8.897-40.297-11.774-60.057M1514.59 816.975c-18.55 7.389-46.171 14.126-57.898 19.832-10.367 5.044-14.222 14.767-13.16 25.705.385 3.955 1.72 8.083 3.951 11.946 2.23 3.863 5.137 7.084 8.37 9.394 8.941 6.389 19.29 7.912 28.841 1.456 10.805-7.303 30.45-27.854 46.125-40.226M1531.531 845.803c-12.371 15.675-32.923 35.32-40.225 46.124-6.457 9.553-4.933 19.9 1.456 28.842 2.31 3.233 5.53 6.14 9.394 8.37 3.862 2.23 7.99 3.566 11.945 3.95 10.938 1.063 20.661-2.792 25.706-13.16 5.705-11.726 12.443-39.347 19.832-57.898"/><path fill="#FFD800" fill-rule="nonzero" stroke="#020000" stroke-width="6" d="M1576.806 863.76c35.33 0 63.97-28.64 63.97-63.97s-28.64-63.971-63.97-63.971-63.97 28.64-63.97 63.97 28.64 63.97 63.97 63.97z"/><rect width="399.002" height="399.002" x="1918.857" y="600.077" fill="#e8c796" rx="50" transform="matrix(0 1 1 0 1318.78 -1318.78)"/><path fill="#FFF" fill-rule="nonzero" stroke="#000" stroke-width="5" d="M2056.092 783.56c-19.76-2.877-47.05-10.853-60.058-11.775-11.5-.815-19.7 5.678-24.25 15.682-1.644 3.617-2.551 7.86-2.551 12.32s.907 8.703 2.552 12.32c4.549 10.004 12.748 16.497 24.249 15.682 13.008-.922 40.297-8.897 60.058-11.774M2072.562 754.495c-15.675-12.372-35.32-32.923-46.125-40.226-9.552-6.456-19.9-4.933-28.84 1.456-3.234 2.31-6.141 5.531-8.371 9.394-2.23 3.863-3.566 7.99-3.95 11.946-1.063 10.938 2.792 20.66 13.16 25.705 11.725 5.706 39.347 12.443 57.898 19.832M2134.785 737.311c2.877-19.76 10.852-47.05 11.774-60.058.816-11.5-5.677-19.7-15.681-24.249-3.617-1.645-7.86-2.552-12.32-2.552s-8.704.907-12.321 2.552c-10.004 4.549-16.497 12.749-15.682 24.25.922 13.007 8.898 40.297 11.774 60.057M2101.37 737.568c-7.388-18.55-14.126-46.172-19.831-57.898-5.045-10.368-14.768-14.222-25.706-13.16-3.955.384-8.083 1.72-11.945 3.95-3.863 2.23-7.084 5.138-9.394 8.37-6.39 8.942-7.913 19.29-1.457 28.842 7.303 10.804 27.855 30.45 40.226 46.124M2163.853 753.797c12.372-15.675 32.924-35.32 40.226-46.125 6.456-9.552 4.933-19.9-1.456-28.84-2.31-3.234-5.531-6.141-9.394-8.371-3.863-2.23-7.99-3.566-11.946-3.95-10.938-1.063-20.66 2.792-25.705 13.16-5.706 11.725-12.443 39.347-19.832 57.898M2180.784 782.606c18.551-7.39 46.172-14.127 57.899-19.832 10.367-5.045 14.222-14.768 13.16-25.706-.385-3.955-1.72-8.083-3.951-11.946-2.23-3.862-5.137-7.083-8.37-9.394-8.941-6.389-19.29-7.912-28.841-1.456-10.805 7.303-30.45 27.855-46.125 40.226M2181.042 816.019c19.76 2.876 47.05 10.852 60.057 11.774 11.5.815 19.7-5.678 24.25-15.682 1.644-3.617 2.551-7.86 2.551-12.32s-.907-8.704-2.551-12.32c-4.55-10.005-12.75-16.498-24.25-15.682-13.008.922-40.297 8.897-60.057 11.774M2164.562 845.083c15.675 12.371 35.32 32.923 46.125 40.225 9.552 6.457 19.9 4.933 28.84-1.455 3.234-2.31 6.141-5.532 8.371-9.395 2.23-3.862 3.566-7.99 3.95-11.945 1.063-10.938-2.792-20.661-13.16-25.706-11.725-5.705-39.347-12.443-57.898-19.832M2135.758 862.016c7.389 18.551 14.127 46.172 19.832 57.899 5.044 10.367 14.767 14.222 25.705 13.16 3.955-.385 8.083-1.72 11.946-3.951 3.863-2.23 7.084-5.137 9.394-8.37 6.39-8.941 7.912-19.29 1.456-28.841-7.302-10.805-27.854-30.45-40.225-46.125M2102.359 862.268c-2.876 19.76-10.852 47.05-11.774 60.058-.815 11.5 5.678 19.7 15.681 24.249 3.618 1.644 7.86 2.551 12.321 2.551 4.46 0 8.703-.907 12.32-2.551 10.004-4.55 16.497-12.749 15.682-24.25-.922-13.007-8.898-40.297-11.774-60.057M2056.352 816.975c-18.552 7.389-46.173 14.126-57.9 19.832-10.366 5.044-14.221 14.767-13.159 25.705.384 3.955 1.72 8.083 3.95 11.946 2.23 3.863 5.138 7.084 8.37 9.394 8.942 6.389 19.29 7.912 28.842 1.456 10.804-7.303 30.45-27.854 46.125-40.226M2073.292 845.803c-12.372 15.675-32.923 35.32-40.226 46.124-6.456 9.553-4.933 19.9 1.456 28.842 2.31 3.233 5.532 6.14 9.394 8.37 3.863 2.23 7.991 3.566 11.946 3.95 10.938 1.063 20.66-2.792 25.705-13.16 5.706-11.726 12.443-39.347 19.832-57.898"/><path fill="#FFD800" fill-rule="nonzero" stroke="#020000" stroke-width="6" d="M2118.567 863.76c35.33 0 63.97-28.64 63.97-63.97s-28.64-63.971-63.97-63.971-63.97 28.64-63.97 63.97 28.64 63.97 63.97 63.97z"/></g></svg>
