<svg xmlns="http://www.w3.org/2000/svg" viewBox="0 0 2792 2041"><g fill="none" fill-rule="evenodd"><g fill="#828081"><path d="M256 32h40v1863h-40z"/><path d="M344.34 1855.061H206.22l69.06 185.497z"/></g><g fill="#828081"><path d="M783 32h40v1863h-40z"/><path d="M871.34 1855.061H733.22l69.06 185.497z"/></g><g fill="#828081"><path d="M1283 32h40v1863h-40z"/><path d="M1371.34 1855.061H1233.22l69.06 185.497z"/></g><g fill="#828081"><path d="M1827 32h40v1863h-40z"/><path d="M1915.34 1855.061H1777.22l69.06 185.497z"/></g><g fill="#828081"><path d="M2318 32h40v1863h-40z"/><path d="M2406.34 1855.061H2268.22l69.06 185.497z"/></g><g fill="#828081"><path d="M122 293h2538v40H122z"/><path d="M2606.061 244.218V382.34l185.497-69.061z"/></g><g fill="#828081"><path d="M122 889h2538v40H122z"/><path d="M2606.061 840.218V978.34l185.497-69.061z"/></g><g fill="#828081"><path d="M122 1490h2538v40H122z"/><path d="M2606.061 1441.218v138.122l185.497-69.061z"/></g><rect width="551" height="585" fill="#E8C796" rx="50"/><rect width="899" height="585" x="648" fill="#E8C796" rx="50"/><rect width="377" height="585" x="2149" y="10" fill="#E8C796" rx="50"/><rect width="377" height="1081" x="2149" y="705" fill="#E8C796" rx="50"/><rect width="377" height="1115" x="1658" y="10" fill="#E8C796" rx="50"/><rect width="1547" height="420" y="700" fill="#E8C796" rx="50"/><rect width="909" height="551" y="1235" fill="#E8C796" rx="50"/><rect width="1023" height="551" x="1012" y="1235" fill="#E8C796" rx="50"/></g></svg>
