<svg xmlns="http://www.w3.org/2000/svg" viewBox="0 0 2197 972"><g fill="none" fill-rule="evenodd"><path fill="#000" fill-rule="nonzero" d="M541.51 152.414v292.01H169.277v-292.01c69.103 0 69.644-151.82 69.644-151.82h68.585c0 21.603 21.435 39.127 47.886 39.127 26.451 0 47.888-17.524 47.888-39.127h68.585s.54 151.82 69.643 151.82z"/><path fill="#959595" fill-rule="nonzero" d="M169.278 444.424h372.231v26.817H169.278z"/><path fill="#E7E5E2" fill-rule="nonzero" d="M169.278 471.244h372.23v26.817h-372.23z"/><path fill="#FFFDF8" d="M300.103 236.27c0 3.093-.338 5.896-1.015 8.41-.676 2.513-1.71 4.66-3.103 6.438-1.392 1.778-3.16 3.151-5.307 4.118-2.146.966-4.688 1.45-7.627 1.45H271.51v-41.064h11.542c2.939 0 5.481.483 7.627 1.45 2.146.966 3.915 2.349 5.307 4.147 1.392 1.798 2.427 3.963 3.103 6.496.677 2.532 1.015 5.384 1.015 8.555zm-9.338 0c0-4.138-.705-7.26-2.117-9.367-1.411-2.108-3.238-3.161-5.48-3.161h-2.263v24.824h2.262c2.243 0 4.07-1.054 5.481-3.161 1.412-2.108 2.117-5.153 2.117-9.135zm14.732 20.416v-30.334h9.164v30.334h-9.164zm9.57-38.57c0 1.47-.464 2.716-1.392 3.74-.928 1.025-2.126 1.538-3.596 1.538-1.47 0-2.668-.513-3.596-1.537-.928-1.025-1.392-2.272-1.392-3.741 0-.735.126-1.421.377-2.06a5.662 5.662 0 0 1 1.015-1.681 4.73 4.73 0 0 1 1.566-1.16 4.723 4.723 0 0 1 2.03-.435c.735 0 1.412.145 2.03.435a4.73 4.73 0 0 1 1.566 1.16 5.662 5.662 0 0 1 1.015 1.682c.252.638.377 1.324.377 2.059zm20.822 16.762a9.298 9.298 0 0 0-2.262-1.682 5.662 5.662 0 0 0-2.668-.638c-.734 0-1.363.232-1.885.696-.522.464-.783 1.102-.783 1.914 0 .773.28 1.343.841 1.71.56.368 1.615.784 3.161 1.248.89.27 1.779.638 2.668 1.102a8.972 8.972 0 0 1 2.378 1.798c.696.734 1.267 1.614 1.711 2.639.445 1.024.667 2.233.667 3.625 0 1.856-.328 3.441-.986 4.756-.657 1.314-1.488 2.378-2.494 3.19a10.052 10.052 0 0 1-3.393 1.798c-1.256.386-2.465.58-3.625.58-2.01 0-3.953-.368-5.829-1.102-1.875-.735-3.49-1.76-4.843-3.074l4.524-5.8c.812.85 1.692 1.546 2.64 2.088a6.146 6.146 0 0 0 3.102.812c.85 0 1.518-.252 2.001-.754.484-.503.725-1.16.725-1.972 0-.967-.386-1.673-1.16-2.117-.773-.445-1.933-.919-3.48-1.421a18.602 18.602 0 0 1-2.436-1.015 7.462 7.462 0 0 1-2.175-1.653c-.638-.696-1.16-1.537-1.566-2.523-.406-.986-.609-2.195-.609-3.625 0-1.702.31-3.18.928-4.437.619-1.257 1.421-2.3 2.407-3.132a9.981 9.981 0 0 1 3.306-1.856 11.58 11.58 0 0 1 3.683-.61c1.856 0 3.635.33 5.336.987a14.875 14.875 0 0 1 4.524 2.726l-4.408 5.742zm17.748-8.526v3.596h.174c.542-1.315 1.305-2.398 2.291-3.248.986-.85 2.33-1.276 4.031-1.276 1.624 0 3.065.406 4.321 1.218 1.257.812 2.3 1.923 3.132 3.335.832 1.411 1.47 3.074 1.914 4.988.445 1.914.667 3.992.667 6.235 0 2.281-.222 4.427-.667 6.438-.444 2.01-1.082 3.75-1.914 5.22-.831 1.47-1.875 2.63-3.132 3.48-1.256.85-2.697 1.276-4.32 1.276-1.74 0-3.113-.426-4.119-1.276-1.005-.85-1.701-1.818-2.088-2.9h-.116v17.168h-8.932v-44.254h8.758zm-.174 15.138c0 1.121.078 2.184.232 3.19.155 1.005.397 1.885.725 2.639.329.754.735 1.343 1.218 1.769a2.506 2.506 0 0 0 1.711.638c.696 0 1.286-.213 1.77-.638.483-.426.889-1.015 1.217-1.77.329-.753.56-1.633.696-2.638.136-1.006.203-2.069.203-3.19 0-1.16-.067-2.233-.203-3.22-.135-.985-.367-1.855-.696-2.61-.328-.753-.734-1.343-1.218-1.768-.483-.426-1.073-.638-1.769-.638-.657 0-1.227.212-1.71.638-.484.425-.89 1.015-1.219 1.769-.328.754-.57 1.624-.725 2.61a20.82 20.82 0 0 0-.232 3.219zm22.04 15.196v-43.848h9.28v43.848h-9.28zm28.768-13.224h-1.624c-.657 0-1.295.058-1.914.174a4.067 4.067 0 0 0-1.624.667 3.526 3.526 0 0 0-1.102 1.276c-.27.522-.406 1.189-.406 2 0 1.2.261 2.08.783 2.64s1.15.84 1.885.84c.696 0 1.305-.173 1.827-.521a3.842 3.842 0 0 0 1.247-1.363c.31-.56.542-1.199.696-1.914a9.997 9.997 0 0 0 .232-2.117v-1.682zm.29 9.454a5.983 5.983 0 0 1-2.29 3.277c-1.141.831-2.62 1.247-4.438 1.247a8.59 8.59 0 0 1-2.726-.464c-.928-.31-1.778-.822-2.552-1.537-.773-.716-1.411-1.663-1.914-2.842-.502-1.18-.754-2.64-.754-4.38 0-2.087.377-3.808 1.131-5.161.754-1.354 1.74-2.436 2.958-3.248 1.218-.812 2.6-1.383 4.147-1.711a22.54 22.54 0 0 1 4.698-.493h1.16v-.464c0-1.47-.338-2.533-1.015-3.19-.676-.658-1.575-.986-2.697-.986-1.121 0-2.136.251-3.045.754a8.372 8.372 0 0 0-2.349 1.914l-4.002-5.568c1.238-1.47 2.775-2.61 4.611-3.422 1.837-.812 3.664-1.218 5.481-1.218 2.05 0 3.79.31 5.22.928 1.43.618 2.59 1.527 3.48 2.726.89 1.198 1.528 2.658 1.914 4.379.387 1.72.58 3.702.58 5.945v17.284h-7.482v-3.77h-.116zm29.638 4.814a47.55 47.55 0 0 1-1.595 4.93c-.6 1.546-1.363 2.91-2.29 4.089a10.286 10.286 0 0 1-3.423 2.813c-1.353.696-3.016 1.044-4.988 1.044-.89 0-1.788-.058-2.697-.174a26.931 26.931 0 0 1-2.407-.406l1.218-8.236c.348.154.754.27 1.218.348.464.077.87.116 1.218.116 1.16 0 2.001-.31 2.523-.928.522-.619.9-1.354 1.131-2.204l.464-1.682-9.048-31.088h9.57l4.35 20.242h.116l4.002-20.242h9.222L434.2 257.73z"/><path fill="#000" fill-rule="nonzero" d="M2028.51 152.414v292.01h-372.232v-292.01c69.103 0 69.644-151.82 69.644-151.82h68.585c0 21.603 21.435 39.127 47.886 39.127 26.451 0 47.888-17.524 47.888-39.127h68.585s.54 151.82 69.643 151.82z"/><path fill="#959595" fill-rule="nonzero" d="M1656.278 444.424h372.231v26.817h-372.231z"/><path fill="#E7E5E2" fill-rule="nonzero" d="M1656.278 471.244h372.23v26.817h-372.23z"/><path fill="#FFFDF8" d="M1774.778 252.22c-1.121 1.585-2.59 2.91-4.408 3.973-1.817 1.063-4.137 1.595-6.96 1.595-2.397 0-4.572-.532-6.525-1.595-1.952-1.064-3.625-2.552-5.017-4.466-1.392-1.914-2.474-4.196-3.248-6.844-.773-2.649-1.16-5.559-1.16-8.73 0-3.209.387-6.147 1.16-8.815.774-2.668 1.856-4.95 3.248-6.844 1.392-1.895 3.065-3.364 5.017-4.408 1.953-1.044 4.128-1.566 6.525-1.566 2.746 0 5.037.493 6.873 1.479 1.837.986 3.316 2.213 4.437 3.683l-4.988 6.728c-.696-.928-1.479-1.663-2.349-2.204-.87-.542-1.962-.812-3.277-.812-1.237 0-2.31.328-3.219.986-.908.657-1.682 1.556-2.32 2.697-.638 1.14-1.111 2.494-1.42 4.06-.31 1.566-.465 3.238-.465 5.017 0 1.778.155 3.441.464 4.988.31 1.546.783 2.9 1.421 4.06.638 1.16 1.421 2.068 2.35 2.726.927.657 2.01.986 3.247.986 1.238 0 2.32-.31 3.248-.928.928-.619 1.663-1.354 2.204-2.204l5.162 6.438zm21.054-26.738a7.392 7.392 0 0 0-2.436-1.885 6.633 6.633 0 0 0-2.9-.667 4.418 4.418 0 0 0-2.813.986c-.831.657-1.247 1.74-1.247 3.248 0 1.276.426 2.271 1.276 2.987.85.715 2.108 1.498 3.77 2.349a36.214 36.214 0 0 1 2.93 1.653 13.46 13.46 0 0 1 2.812 2.349c.85.928 1.557 2.04 2.117 3.335s.841 2.832.841 4.61c0 2.205-.348 4.148-1.044 5.83-.696 1.682-1.633 3.074-2.813 4.176a11.825 11.825 0 0 1-4.089 2.494c-1.546.56-3.151.84-4.814.84-2.474 0-4.727-.463-6.757-1.391-2.03-.928-3.663-2.01-4.9-3.248l4.755-6.96c.89.928 1.914 1.672 3.074 2.233 1.16.56 2.34.84 3.538.84 1.122 0 2.069-.367 2.842-1.101.774-.735 1.16-1.76 1.16-3.074 0-1.354-.464-2.427-1.392-3.22-.928-.792-2.281-1.633-4.06-2.522a26.307 26.307 0 0 1-3.16-1.798 11.73 11.73 0 0 1-2.61-2.378c-.755-.928-1.344-2.01-1.77-3.248-.425-1.238-.638-2.707-.638-4.408 0-2.282.377-4.244 1.131-5.887.754-1.644 1.74-2.987 2.958-4.031a12.174 12.174 0 0 1 4.06-2.32 13.97 13.97 0 0 1 4.495-.754c2.243 0 4.254.367 6.032 1.102 1.779.734 3.268 1.74 4.466 3.016l-4.814 6.844zm26.738 0a7.392 7.392 0 0 0-2.436-1.885 6.633 6.633 0 0 0-2.9-.667 4.418 4.418 0 0 0-2.813.986c-.831.657-1.247 1.74-1.247 3.248 0 1.276.426 2.271 1.276 2.987.85.715 2.108 1.498 3.77 2.349a36.214 36.214 0 0 1 2.93 1.653 13.46 13.46 0 0 1 2.812 2.349c.85.928 1.557 2.04 2.117 3.335s.841 2.832.841 4.61c0 2.205-.348 4.148-1.044 5.83-.696 1.682-1.633 3.074-2.813 4.176a11.825 11.825 0 0 1-4.089 2.494c-1.546.56-3.151.84-4.814.84-2.474 0-4.727-.463-6.757-1.391-2.03-.928-3.663-2.01-4.9-3.248l4.755-6.96c.89.928 1.914 1.672 3.074 2.233 1.16.56 2.34.84 3.538.84 1.122 0 2.069-.367 2.842-1.101.774-.735 1.16-1.76 1.16-3.074 0-1.354-.464-2.427-1.392-3.22-.928-.792-2.281-1.633-4.06-2.522a26.307 26.307 0 0 1-3.16-1.798 11.73 11.73 0 0 1-2.61-2.378c-.755-.928-1.344-2.01-1.77-3.248-.425-1.238-.638-2.707-.638-4.408 0-2.282.377-4.244 1.131-5.887.754-1.644 1.74-2.987 2.958-4.031a12.174 12.174 0 0 1 4.06-2.32 13.97 13.97 0 0 1 4.495-.754c2.243 0 4.254.367 6.032 1.102 1.779.734 3.268 1.74 4.466 3.016l-4.814 6.844zm47.444 28.768c-1.314 1.005-2.9 1.817-4.756 2.436-1.856.618-4.04.928-6.554.928-2.59 0-4.9-.522-6.93-1.566-2.03-1.044-3.751-2.504-5.163-4.38-1.411-1.875-2.494-4.127-3.248-6.756-.754-2.63-1.13-5.549-1.13-8.758 0-3.21.376-6.139 1.13-8.787.754-2.649 1.827-4.93 3.22-6.844 1.391-1.914 3.064-3.393 5.016-4.437 1.953-1.044 4.128-1.566 6.525-1.566 2.784 0 5.114.473 6.99 1.42 1.875.948 3.354 2.137 4.436 3.568l-5.046 6.786c-1.392-1.934-3.286-2.9-5.684-2.9-1.276 0-2.378.338-3.306 1.015-.928.676-1.701 1.595-2.32 2.755-.618 1.16-1.073 2.513-1.363 4.06a26.734 26.734 0 0 0-.435 4.93c0 1.74.136 3.383.406 4.93.27 1.546.706 2.9 1.305 4.06.6 1.16 1.354 2.088 2.262 2.784.909.696 2.001 1.044 3.277 1.044 1.392 0 2.475-.29 3.248-.87v-7.656h-4.408v-8.062h12.528v21.866zm6.322-27.898h8.874v5.104h.058c1.083-4.022 3.113-6.032 6.09-6.032.31 0 .56.01.754.029.194.02.426.067.696.145l-.58 9.106c-.31-.078-.609-.145-.899-.203a5.586 5.586 0 0 0-1.073-.087c-.773 0-1.45.203-2.03.609a5.337 5.337 0 0 0-1.479 1.595c-.406.657-.715 1.43-.928 2.32a11.68 11.68 0 0 0-.319 2.726v15.022h-9.164v-30.334zm19.778 30.334v-30.334h9.164v30.334h-9.164zm9.57-38.57c0 1.47-.464 2.716-1.392 3.74-.928 1.025-2.126 1.538-3.596 1.538-1.47 0-2.668-.513-3.596-1.537-.928-1.025-1.392-2.272-1.392-3.741 0-.735.126-1.421.377-2.06a5.662 5.662 0 0 1 1.015-1.681c.426-.484.948-.87 1.566-1.16a4.723 4.723 0 0 1 2.03-.435c.735 0 1.412.145 2.03.435.619.29 1.14.676 1.566 1.16a5.662 5.662 0 0 1 1.015 1.682c.252.638.377 1.324.377 2.059zm21.286 38.57v-3.654h-.116a7.745 7.745 0 0 1-2.117 3.219c-.986.908-2.407 1.363-4.263 1.363-1.585 0-3.006-.435-4.263-1.305-1.256-.87-2.31-2.05-3.16-3.538-.851-1.489-1.5-3.239-1.944-5.25-.444-2.01-.667-4.156-.667-6.437 0-2.243.213-4.321.638-6.235.426-1.914 1.064-3.567 1.914-4.96.85-1.391 1.905-2.484 3.161-3.276 1.257-.793 2.697-1.19 4.321-1.19 1.508 0 2.813.387 3.915 1.16 1.102.774 1.827 1.721 2.175 2.843h.174v-16.588h8.99v43.848h-8.758zm.174-15.196c0-1.16-.077-2.233-.232-3.22-.154-.985-.396-1.855-.725-2.61-.328-.753-.734-1.343-1.218-1.768a2.506 2.506 0 0 0-1.71-.638c-.697 0-1.286.212-1.77.638-.483.425-.88 1.015-1.189 1.769-.31.754-.541 1.624-.696 2.61a20.82 20.82 0 0 0-.232 3.219c0 1.121.078 2.184.232 3.19.155 1.005.387 1.885.696 2.639.31.754.706 1.343 1.19 1.769.483.425 1.072.638 1.768.638.658 0 1.228-.213 1.711-.638.484-.426.89-1.015 1.218-1.77.329-.753.57-1.633.725-2.638a20.98 20.98 0 0 0 .232-3.19z"/><path fill="#000" fill-rule="nonzero" d="M1037.51 152.414v292.01H665.277v-292.01c69.103 0 69.644-151.82 69.644-151.82h68.585c0 21.603 21.435 39.127 47.886 39.127 26.451 0 47.888-17.524 47.888-39.127h68.585s.54 151.82 69.643 151.82z"/><path fill="#959595" fill-rule="nonzero" d="M665.278 444.424h372.231v26.817H665.278z"/><path fill="#E7E5E2" fill-rule="nonzero" d="M665.278 471.244h372.23v26.817h-372.23z"/><path fill="#FFFDF8" d="M837.341 204.97c0 2.204-.357 4.05-1.073 5.539-.715 1.488-1.653 2.687-2.813 3.596a11.164 11.164 0 0 1-3.915 1.972c-1.45.406-2.91.609-4.379.609h-13.63v-41.064h12.296c1.276 0 2.63.135 4.06.406 1.43.27 2.736.783 3.915 1.537 1.18.754 2.166 1.827 2.958 3.219.793 1.392 1.19 3.19 1.19 5.394 0 2.436-.494 4.379-1.48 5.829-.986 1.45-2.194 2.503-3.625 3.16v.117c.774.193 1.547.541 2.32 1.044a8.592 8.592 0 0 1 2.088 1.943c.619.792 1.122 1.75 1.508 2.87.387 1.122.58 2.398.58 3.829zm-9.57-17.284c0-1.586-.444-2.707-1.334-3.364-.89-.658-1.933-.986-3.132-.986h-3.132v8.874h3.19c1.122 0 2.137-.348 3.045-1.044.909-.696 1.363-1.856 1.363-3.48zm.754 16.414c0-.928-.145-1.711-.435-2.35-.29-.637-.676-1.16-1.16-1.565a4.787 4.787 0 0 0-1.624-.9 5.74 5.74 0 0 0-1.769-.29h-3.364v9.977h3.48c1.354 0 2.504-.406 3.451-1.218.948-.812 1.421-2.03 1.421-3.654zm37.874-2.552c0 2.358-.29 4.533-.87 6.525-.58 1.991-1.401 3.702-2.465 5.133a11.39 11.39 0 0 1-3.944 3.364c-1.566.812-3.335 1.218-5.307 1.218-1.972 0-3.731-.406-5.278-1.218a12.036 12.036 0 0 1-3.973-3.364c-1.102-1.43-1.943-3.142-2.523-5.133-.58-1.992-.87-4.167-.87-6.525 0-2.359.29-4.544.87-6.554.58-2.01 1.412-3.732 2.494-5.162a11.662 11.662 0 0 1 3.973-3.364c1.566-.812 3.335-1.218 5.307-1.218 1.972 0 3.741.406 5.307 1.218a11.39 11.39 0 0 1 3.944 3.364c1.064 1.43 1.885 3.151 2.465 5.162.58 2.01.87 4.195.87 6.554zm-8.7-.058c0-1.16-.077-2.233-.232-3.22-.154-.985-.386-1.855-.696-2.61-.31-.753-.705-1.343-1.189-1.768-.483-.426-1.073-.638-1.769-.638-.657 0-1.227.212-1.71.638-.484.425-.88 1.015-1.19 1.769-.31.754-.541 1.624-.696 2.61a20.82 20.82 0 0 0-.232 3.219c0 1.16.078 2.233.232 3.219.155.986.387 1.856.696 2.61.31.754.706 1.343 1.19 1.769a2.506 2.506 0 0 0 1.71.638c.696 0 1.286-.213 1.77-.638.483-.426.879-1.015 1.188-1.77.31-.753.542-1.623.696-2.61a20.82 20.82 0 0 0 .232-3.218zm17.284-.696l-6.728-14.442h9.686l3.422 9.338 3.596-9.338h9.628l-6.96 14.5 7.424 15.834h-9.918l-3.77-9.628-3.654 9.628h-10.034l7.308-15.892zm-126.237 94.892l-1.682-7.482h-9.222l-1.682 7.482h-9.28l9.976-41.064h11.658l9.918 41.064h-9.686zm-6.148-32.132h-.232l-3.48 17.458h7.018l-3.306-17.458zm19.372 32.132v-43.848h9.28v43.848h-9.28zm16.298 0v-30.334h9.164v30.334h-9.164zm9.57-38.57c0 1.47-.464 2.716-1.392 3.74-.928 1.025-2.126 1.538-3.596 1.538-1.47 0-2.668-.513-3.596-1.537-.928-1.025-1.392-2.272-1.392-3.741 0-.735.126-1.421.377-2.06a5.662 5.662 0 0 1 1.015-1.681 4.73 4.73 0 0 1 1.566-1.16 4.723 4.723 0 0 1 2.03-.435c.735 0 1.412.145 2.03.435a4.73 4.73 0 0 1 1.566 1.16 5.662 5.662 0 0 1 1.015 1.682c.252.638.377 1.324.377 2.059zm29.986 8.236v28.188c0 5.181-1.082 9.154-3.248 11.919-2.165 2.764-5.606 4.147-10.324 4.147-2.126 0-4.195-.377-6.206-1.131-2.01-.754-3.673-1.692-4.988-2.813l4.234-6.728c.89.773 1.866 1.411 2.93 1.914a7.972 7.972 0 0 0 3.45.754c1.895 0 3.258-.658 4.09-1.972.83-1.315 1.246-2.958 1.246-4.93v-2.494h-.116c-.425 1.005-1.198 1.904-2.32 2.697-1.121.792-2.416 1.189-3.886 1.189-1.662 0-3.122-.397-4.379-1.19-1.256-.792-2.31-1.894-3.16-3.305-.851-1.412-1.49-3.074-1.915-4.988-.425-1.914-.638-3.973-.638-6.177 0-2.32.223-4.457.667-6.41.445-1.952 1.102-3.634 1.972-5.045.87-1.412 1.924-2.523 3.161-3.335 1.238-.812 2.668-1.218 4.292-1.218 1.74 0 3.103.425 4.09 1.276.985.85 1.71 1.933 2.174 3.248h.174v-3.596h8.7zm-8.526 15.138c0-1.16-.077-2.233-.232-3.22-.154-.985-.396-1.855-.725-2.61-.328-.753-.734-1.343-1.218-1.768a2.506 2.506 0 0 0-1.71-.638c-.697 0-1.286.212-1.77.638-.483.425-.88 1.015-1.189 1.769-.31.754-.541 1.624-.696 2.61a20.82 20.82 0 0 0-.232 3.219c0 1.121.078 2.184.232 3.19.155 1.005.387 1.885.696 2.639.31.754.706 1.343 1.19 1.769.483.425 1.072.638 1.768.638.658 0 1.228-.213 1.711-.638.484-.426.89-1.015 1.218-1.77.329-.753.57-1.633.725-2.638a20.98 20.98 0 0 0 .232-3.19zm24.592-15.138v4.292h.116c.503-1.47 1.392-2.736 2.668-3.8 1.276-1.063 2.862-1.594 4.756-1.594 1.74 0 3.132.357 4.176 1.073 1.044.715 1.856 1.672 2.436 2.87.58 1.2.967 2.572 1.16 4.119a38.8 38.8 0 0 1 .29 4.814v18.56h-9.106v-18.618c0-1.276-.183-2.398-.55-3.364-.368-.967-1.093-1.45-2.176-1.45-1.121 0-1.991.512-2.61 1.537-.618 1.024-.928 2.368-.928 4.03v17.865h-9.106v-30.334h8.874zm31.32 0v4.292h.116c.387-1.47 1.199-2.736 2.436-3.8 1.238-1.063 2.823-1.594 4.756-1.594 2.166 0 3.78.522 4.843 1.566 1.064 1.044 1.808 2.32 2.233 3.828h.116a9.54 9.54 0 0 1 1.073-2.001 7.99 7.99 0 0 1 1.624-1.711 8.09 8.09 0 0 1 2.204-1.218c.832-.31 1.77-.464 2.813-.464 1.74 0 3.152.357 4.234 1.073a7.052 7.052 0 0 1 2.494 2.87c.58 1.2.977 2.572 1.19 4.119a35.32 35.32 0 0 1 .318 4.814v18.56h-8.99v-18.618c0-1.276-.193-2.398-.58-3.364-.386-.967-1.121-1.45-2.204-1.45-1.121 0-1.981.512-2.58 1.537-.6 1.024-.9 2.368-.9 4.03v17.865h-8.932v-18.618c0-1.276-.183-2.398-.55-3.364-.368-.967-1.093-1.45-2.176-1.45-1.121 0-1.981.512-2.58 1.537-.6 1.024-.9 2.368-.9 4.03v17.865h-8.932v-30.334h8.874zm44.254 17.458c0 .85.107 1.653.32 2.407.212.754.492 1.411.84 1.972.348.56.774 1.005 1.276 1.334a3.008 3.008 0 0 0 1.682.493c1.006 0 1.818-.329 2.436-.986a7.143 7.143 0 0 0 1.45-2.32l6.67 3.77c-1.005 2.242-2.407 4.021-4.205 5.336-1.798 1.314-4.03 1.972-6.699 1.972-1.778 0-3.431-.348-4.959-1.044-1.527-.696-2.861-1.73-4.002-3.103-1.14-1.373-2.03-3.065-2.668-5.075-.638-2.01-.957-4.33-.957-6.96 0-2.475.3-4.727.9-6.757.599-2.03 1.45-3.75 2.551-5.162 1.102-1.412 2.407-2.504 3.915-3.277 1.508-.774 3.17-1.16 4.988-1.16 2.088 0 3.867.406 5.336 1.218a10.328 10.328 0 0 1 3.625 3.335c.948 1.411 1.634 3.093 2.06 5.046.425 1.952.637 4.089.637 6.409v2.552h-15.196zm6.844-5.916c0-1.624-.251-2.978-.754-4.06-.502-1.083-1.334-1.624-2.494-1.624-.618 0-1.15.183-1.595.55a4.764 4.764 0 0 0-1.13 1.393 7.09 7.09 0 0 0-.697 1.856 8.494 8.494 0 0 0-.232 1.885h6.902zm22.504-11.542v4.292h.116c.503-1.47 1.392-2.736 2.668-3.8 1.276-1.063 2.862-1.594 4.756-1.594 1.74 0 3.132.357 4.176 1.073 1.044.715 1.856 1.672 2.436 2.87.58 1.2.967 2.572 1.16 4.119a38.8 38.8 0 0 1 .29 4.814v18.56h-9.106v-18.618c0-1.276-.183-2.398-.55-3.364-.368-.967-1.093-1.45-2.176-1.45-1.121 0-1.991.512-2.61 1.537-.618 1.024-.928 2.368-.928 4.03v17.865h-9.106v-30.334h8.874zm36.54 30.102c-.502.27-1.218.502-2.146.696-.928.193-1.856.29-2.784.29-3.054 0-5.278-.822-6.67-2.465-1.392-1.644-2.088-4.109-2.088-7.395v-14.152h-3.654v-7.076h3.596v-7.308h8.816v7.308h5.22v7.076h-5.22v12.064c0 1.47.232 2.542.696 3.219.464.676 1.199 1.015 2.204 1.015.812 0 1.489-.136 2.03-.406v7.134z"/><path fill="#000" fill-rule="nonzero" d="M1532.51 152.414v292.01h-372.232v-292.01c69.103 0 69.644-151.82 69.644-151.82h68.585c0 21.603 21.435 39.127 47.886 39.127 26.451 0 47.888-17.524 47.888-39.127h68.585s.54 151.82 69.643 151.82z"/><path fill="#959595" fill-rule="nonzero" d="M1160.278 444.424h372.231v26.817h-372.231z"/><path fill="#E7E5E2" fill-rule="nonzero" d="M1160.278 471.244h372.23v26.817h-372.23z"/><path fill="#FFFDF8" d="M1216.921 224.032v8.352h9.802v7.946h-9.744v16.356h-9.396v-41.064h20.01v8.41h-10.672zm15.66 32.654v-43.848h9.28v43.848h-9.28zm23.432-12.876c0 .85.107 1.653.32 2.407.212.754.492 1.411.84 1.972.348.56.774 1.005 1.276 1.334a3.008 3.008 0 0 0 1.682.493c1.006 0 1.818-.329 2.436-.986a7.143 7.143 0 0 0 1.45-2.32l6.67 3.77c-1.005 2.242-2.407 4.021-4.205 5.336-1.798 1.314-4.03 1.972-6.699 1.972-1.778 0-3.431-.348-4.959-1.044-1.527-.696-2.861-1.73-4.002-3.103-1.14-1.373-2.03-3.065-2.668-5.075-.638-2.01-.957-4.33-.957-6.96 0-2.475.3-4.727.9-6.757.599-2.03 1.45-3.75 2.551-5.162 1.102-1.412 2.407-2.504 3.915-3.277 1.508-.774 3.17-1.16 4.988-1.16 2.088 0 3.867.406 5.336 1.218a10.328 10.328 0 0 1 3.625 3.335c.948 1.411 1.634 3.093 2.06 5.046.425 1.952.637 4.089.637 6.409v2.552h-15.196zm6.844-5.916c0-1.624-.251-2.978-.754-4.06-.502-1.083-1.334-1.624-2.494-1.624-.618 0-1.15.183-1.595.55a4.764 4.764 0 0 0-1.13 1.393 7.09 7.09 0 0 0-.697 1.856 8.494 8.494 0 0 0-.232 1.885h6.902zm16.878 2.9l-6.728-14.442h9.686l3.422 9.338 3.596-9.338h9.628l-6.96 14.5 7.424 15.834h-9.918l-3.77-9.628-3.654 9.628h-10.034l7.308-15.892zm23.374 15.892v-30.334h9.164v30.334h-9.164zm9.57-38.57c0 1.47-.464 2.716-1.392 3.74-.928 1.025-2.126 1.538-3.596 1.538-1.47 0-2.668-.513-3.596-1.537-.928-1.025-1.392-2.272-1.392-3.741 0-.735.126-1.421.377-2.06a5.662 5.662 0 0 1 1.015-1.681c.426-.484.948-.87 1.566-1.16a4.723 4.723 0 0 1 2.03-.435c.735 0 1.412.145 2.03.435.619.29 1.14.676 1.566 1.16a5.662 5.662 0 0 1 1.015 1.682c.252.638.377 1.324.377 2.059zm6.612-5.278h9.048v16.588h.174c.348-1.122 1.073-2.069 2.175-2.842 1.102-.774 2.388-1.16 3.857-1.16 1.624 0 3.065.396 4.321 1.189 1.257.792 2.31 1.885 3.161 3.277.85 1.392 1.489 3.045 1.914 4.959.426 1.914.638 3.992.638 6.235 0 2.281-.222 4.427-.667 6.438-.444 2.01-1.092 3.76-1.943 5.249-.85 1.488-1.904 2.668-3.16 3.538-1.257.87-2.678 1.305-4.264 1.305-1.856 0-3.267-.455-4.234-1.363a8.42 8.42 0 0 1-2.146-3.22h-.116v3.655h-8.758v-43.848zm8.584 28.652c0 1.121.078 2.184.232 3.19.155 1.005.397 1.885.725 2.639.329.754.735 1.343 1.218 1.769a2.506 2.506 0 0 0 1.711.638c.696 0 1.286-.213 1.77-.638.483-.426.889-1.015 1.217-1.77.329-.753.56-1.633.696-2.638.136-1.006.203-2.069.203-3.19 0-1.16-.067-2.233-.203-3.22-.135-.985-.367-1.855-.696-2.61-.328-.753-.734-1.343-1.218-1.768-.483-.426-1.073-.638-1.769-.638-.657 0-1.227.212-1.71.638-.484.425-.89 1.015-1.219 1.769-.328.754-.57 1.624-.725 2.61a20.82 20.82 0 0 0-.232 3.219zm22.04 15.196v-43.848h9.28v43.848h-9.28zm23.432-12.876c0 .85.107 1.653.32 2.407.212.754.492 1.411.84 1.972.348.56.774 1.005 1.276 1.334a3.008 3.008 0 0 0 1.682.493c1.006 0 1.818-.329 2.436-.986a7.143 7.143 0 0 0 1.45-2.32l6.67 3.77c-1.005 2.242-2.407 4.021-4.205 5.336-1.798 1.314-4.03 1.972-6.699 1.972-1.778 0-3.431-.348-4.959-1.044-1.527-.696-2.861-1.73-4.002-3.103-1.14-1.373-2.03-3.065-2.668-5.075-.638-2.01-.957-4.33-.957-6.96 0-2.475.3-4.727.9-6.757.599-2.03 1.45-3.75 2.551-5.162 1.102-1.412 2.407-2.504 3.915-3.277 1.508-.774 3.17-1.16 4.988-1.16 2.088 0 3.867.406 5.336 1.218a10.328 10.328 0 0 1 3.625 3.335c.948 1.411 1.634 3.093 2.06 5.046.425 1.952.637 4.089.637 6.409v2.552h-15.196zm6.844-5.916c0-1.624-.251-2.978-.754-4.06-.502-1.083-1.334-1.624-2.494-1.624-.618 0-1.15.183-1.595.55a4.764 4.764 0 0 0-1.13 1.393 7.09 7.09 0 0 0-.697 1.856 8.494 8.494 0 0 0-.232 1.885h6.902zm51.098 7.076c0 2.204-.357 4.05-1.073 5.539-.715 1.488-1.653 2.687-2.813 3.596a11.164 11.164 0 0 1-3.915 1.972c-1.45.406-2.91.609-4.379.609h-13.63v-41.064h12.296c1.276 0 2.63.135 4.06.406 1.43.27 2.736.783 3.915 1.537 1.18.754 2.166 1.827 2.958 3.219.793 1.392 1.19 3.19 1.19 5.394 0 2.436-.494 4.379-1.48 5.829-.986 1.45-2.194 2.503-3.625 3.16v.117c.774.193 1.547.541 2.32 1.044a8.592 8.592 0 0 1 2.088 1.943c.619.792 1.122 1.75 1.508 2.87.387 1.122.58 2.398.58 3.829zm-9.57-17.284c0-1.586-.444-2.707-1.334-3.364-.89-.658-1.933-.986-3.132-.986h-3.132v8.874h3.19c1.122 0 2.137-.348 3.045-1.044.909-.696 1.363-1.856 1.363-3.48zm.754 16.414c0-.928-.145-1.711-.435-2.35-.29-.637-.676-1.16-1.16-1.565a4.787 4.787 0 0 0-1.624-.9 5.74 5.74 0 0 0-1.769-.29h-3.364v9.977h3.48c1.354 0 2.504-.406 3.451-1.218.948-.812 1.421-2.03 1.421-3.654zm37.874-2.552c0 2.358-.29 4.533-.87 6.525-.58 1.991-1.401 3.702-2.465 5.133a11.39 11.39 0 0 1-3.944 3.364c-1.566.812-3.335 1.218-5.307 1.218-1.972 0-3.731-.406-5.278-1.218a12.036 12.036 0 0 1-3.973-3.364c-1.102-1.43-1.943-3.142-2.523-5.133-.58-1.992-.87-4.167-.87-6.525 0-2.359.29-4.544.87-6.554.58-2.01 1.412-3.732 2.494-5.162a11.662 11.662 0 0 1 3.973-3.364c1.566-.812 3.335-1.218 5.307-1.218 1.972 0 3.741.406 5.307 1.218a11.39 11.39 0 0 1 3.944 3.364c1.064 1.43 1.885 3.151 2.465 5.162.58 2.01.87 4.195.87 6.554zm-8.7-.058c0-1.16-.077-2.233-.232-3.22-.154-.985-.386-1.855-.696-2.61-.31-.753-.705-1.343-1.189-1.768-.483-.426-1.073-.638-1.769-.638-.657 0-1.227.212-1.71.638-.484.425-.88 1.015-1.19 1.769-.31.754-.541 1.624-.696 2.61a20.82 20.82 0 0 0-.232 3.219c0 1.16.078 2.233.232 3.219.155.986.387 1.856.696 2.61.31.754.706 1.343 1.19 1.769a2.506 2.506 0 0 0 1.71.638c.696 0 1.286-.213 1.77-.638.483-.426.879-1.015 1.188-1.77.31-.753.542-1.623.696-2.61a20.82 20.82 0 0 0 .232-3.218zm17.284-.696l-6.728-14.442h9.686l3.422 9.338 3.596-9.338h9.628l-6.96 14.5 7.424 15.834h-9.918l-3.77-9.628-3.654 9.628h-10.034l7.308-15.892z"/><path fill="#000" fill-rule="nonzero" d="M2196.295 716.12v215.515h-279.502V716.121c51.888 0 52.295-112.05 52.295-112.05h51.499c0 15.944 16.095 28.878 35.956 28.878 19.862 0 35.959-12.934 35.959-28.877H2144s.405 112.049 52.294 112.049z"/><path fill="#E7E5E2" fill-rule="nonzero" d="M1916.793 951.706h279.501v20.136h-279.501z"/><path fill="#959595" fill-rule="nonzero" d="M1916.812 931.567h279.501v20.136h-279.501z"/><path fill="#FFFDF8" d="M2046.462 770.482c-.928 1.312-2.144 2.408-3.648 3.288-1.504.88-3.424 1.32-5.76 1.32-1.984 0-3.784-.44-5.4-1.32-1.616-.88-3-2.112-4.152-3.696-1.152-1.584-2.048-3.472-2.688-5.664-.64-2.192-.96-4.6-.96-7.224 0-2.656.32-5.088.96-7.296.64-2.208 1.536-4.096 2.688-5.664 1.152-1.568 2.536-2.784 4.152-3.648 1.616-.864 3.416-1.296 5.4-1.296 2.272 0 4.168.408 5.688 1.224 1.52.816 2.744 1.832 3.672 3.048l-4.128 5.568c-.576-.768-1.224-1.376-1.944-1.824-.72-.448-1.624-.672-2.712-.672-1.024 0-1.912.272-2.664.816-.752.544-1.392 1.288-1.92 2.232-.528.944-.92 2.064-1.176 3.36a21.411 21.411 0 0 0-.384 4.152c0 1.472.128 2.848.384 4.128.256 1.28.648 2.4 1.176 3.36.528.96 1.176 1.712 1.944 2.256.768.544 1.664.816 2.688.816 1.024 0 1.92-.256 2.688-.768.768-.512 1.376-1.12 1.824-1.824l4.272 5.328zm17.424-22.128a6.118 6.118 0 0 0-2.016-1.56 5.49 5.49 0 0 0-2.4-.552c-.864 0-1.64.272-2.328.816-.688.544-1.032 1.44-1.032 2.688 0 1.056.352 1.88 1.056 2.472.704.592 1.744 1.24 3.12 1.944.768.384 1.576.84 2.424 1.368a11.14 11.14 0 0 1 2.328 1.944c.704.768 1.288 1.688 1.752 2.76.464 1.072.696 2.344.696 3.816 0 1.824-.288 3.432-.864 4.824-.576 1.392-1.352 2.544-2.328 3.456a9.786 9.786 0 0 1-3.384 2.064c-1.28.464-2.608.696-3.984.696-2.048 0-3.912-.384-5.592-1.152-1.68-.768-3.032-1.664-4.056-2.688l3.936-5.76a8.798 8.798 0 0 0 2.544 1.848c.96.464 1.936.696 2.928.696.928 0 1.712-.304 2.352-.912.64-.608.96-1.456.96-2.544 0-1.12-.384-2.008-1.152-2.664-.768-.656-1.888-1.352-3.36-2.088a21.77 21.77 0 0 1-2.616-1.488 9.707 9.707 0 0 1-2.16-1.968c-.624-.768-1.112-1.664-1.464-2.688-.352-1.024-.528-2.24-.528-3.648 0-1.888.312-3.512.936-4.872.624-1.36 1.44-2.472 2.448-3.336a10.075 10.075 0 0 1 3.36-1.92 11.562 11.562 0 0 1 3.72-.624c1.856 0 3.52.304 4.992.912 1.472.608 2.704 1.44 3.696 2.496l-3.984 5.664zm22.128 0a6.118 6.118 0 0 0-2.016-1.56 5.49 5.49 0 0 0-2.4-.552c-.864 0-1.64.272-2.328.816-.688.544-1.032 1.44-1.032 2.688 0 1.056.352 1.88 1.056 2.472.704.592 1.744 1.24 3.12 1.944.768.384 1.576.84 2.424 1.368a11.14 11.14 0 0 1 2.328 1.944c.704.768 1.288 1.688 1.752 2.76.464 1.072.696 2.344.696 3.816 0 1.824-.288 3.432-.864 4.824-.576 1.392-1.352 2.544-2.328 3.456a9.786 9.786 0 0 1-3.384 2.064c-1.28.464-2.608.696-3.984.696-2.048 0-3.912-.384-5.592-1.152-1.68-.768-3.032-1.664-4.056-2.688l3.936-5.76a8.798 8.798 0 0 0 2.544 1.848c.96.464 1.936.696 2.928.696.928 0 1.712-.304 2.352-.912.64-.608.96-1.456.96-2.544 0-1.12-.384-2.008-1.152-2.664-.768-.656-1.888-1.352-3.36-2.088a21.77 21.77 0 0 1-2.616-1.488 9.707 9.707 0 0 1-2.16-1.968c-.624-.768-1.112-1.664-1.464-2.688-.352-1.024-.528-2.24-.528-3.648 0-1.888.312-3.512.936-4.872.624-1.36 1.44-2.472 2.448-3.336a10.075 10.075 0 0 1 3.36-1.92 11.562 11.562 0 0 1 3.72-.624c1.856 0 3.52.304 4.992.912 1.472.608 2.704 1.44 3.696 2.496l-3.984 5.664zm-122.592 64.368v27.456h-7.536v-27.456h-6.24v-6.528h20.016v6.528h-6.24zm7.44 2.352h7.344v4.224h.048c.896-3.328 2.576-4.992 5.04-4.992.256 0 .464.008.624.024.16.016.352.056.576.12l-.48 7.536c-.256-.064-.504-.12-.744-.168a4.623 4.623 0 0 0-.888-.072c-.64 0-1.2.168-1.68.504-.48.336-.888.776-1.224 1.32-.336.544-.592 1.184-.768 1.92a9.666 9.666 0 0 0-.264 2.256v12.432h-7.584v-25.104zm26.4 14.16h-1.344c-.544 0-1.072.048-1.584.144-.512.096-.96.28-1.344.552a2.918 2.918 0 0 0-.912 1.056c-.224.432-.336.984-.336 1.656 0 .992.216 1.72.648 2.184.432.464.952.696 1.56.696.576 0 1.08-.144 1.512-.432a3.18 3.18 0 0 0 1.032-1.128c.256-.464.448-.992.576-1.584a8.273 8.273 0 0 0 .192-1.752v-1.392zm.24 7.824a4.952 4.952 0 0 1-1.896 2.712c-.944.688-2.168 1.032-3.672 1.032a7.11 7.11 0 0 1-2.256-.384 5.79 5.79 0 0 1-2.112-1.272c-.64-.592-1.168-1.376-1.584-2.352-.416-.976-.624-2.184-.624-3.624 0-1.728.312-3.152.936-4.272.624-1.12 1.44-2.016 2.448-2.688 1.008-.672 2.152-1.144 3.432-1.416a18.654 18.654 0 0 1 3.888-.408h.96v-.384c0-1.216-.28-2.096-.84-2.64-.56-.544-1.304-.816-2.232-.816-.928 0-1.768.208-2.52.624-.752.416-1.4.944-1.944 1.584l-3.312-4.608c1.024-1.216 2.296-2.16 3.816-2.832 1.52-.672 3.032-1.008 4.536-1.008 1.696 0 3.136.256 4.32.768 1.184.512 2.144 1.264 2.88 2.256.736.992 1.264 2.2 1.584 3.624.32 1.424.48 3.064.48 4.92v14.304h-6.192v-3.12h-.096zm19.248-21.984v3.552h.096c.416-1.216 1.152-2.264 2.208-3.144 1.056-.88 2.368-1.32 3.936-1.32 1.44 0 2.592.296 3.456.888.864.592 1.536 1.384 2.016 2.376s.8 2.128.96 3.408c.16 1.28.24 2.608.24 3.984v15.36h-7.536V824.77c0-1.056-.152-1.984-.456-2.784-.304-.8-.904-1.2-1.8-1.2-.928 0-1.648.424-2.16 1.272-.512.848-.768 1.96-.768 3.336v14.784h-7.536v-25.104h7.344zm30.336 7.056a7.695 7.695 0 0 0-1.872-1.392 4.686 4.686 0 0 0-2.208-.528c-.608 0-1.128.192-1.56.576-.432.384-.648.912-.648 1.584 0 .64.232 1.112.696 1.416.464.304 1.336.648 2.616 1.032.736.224 1.472.528 2.208.912.736.384 1.392.88 1.968 1.488a7.455 7.455 0 0 1 1.416 2.184c.368.848.552 1.848.552 3 0 1.536-.272 2.848-.816 3.936-.544 1.088-1.232 1.968-2.064 2.64a8.319 8.319 0 0 1-2.808 1.488c-1.04.32-2.04.48-3 .48-1.664 0-3.272-.304-4.824-.912-1.552-.608-2.888-1.456-4.008-2.544l3.744-4.8c.672.704 1.4 1.28 2.184 1.728.784.448 1.64.672 2.568.672.704 0 1.256-.208 1.656-.624.4-.416.6-.96.6-1.632 0-.8-.32-1.384-.96-1.752-.64-.368-1.6-.76-2.88-1.176a15.395 15.395 0 0 1-2.016-.84 6.176 6.176 0 0 1-1.8-1.368c-.528-.576-.96-1.272-1.296-2.088-.336-.816-.504-1.816-.504-3 0-1.408.256-2.632.768-3.672s1.176-1.904 1.992-2.592a8.26 8.26 0 0 1 2.736-1.536 9.584 9.584 0 0 1 3.048-.504c1.536 0 3.008.272 4.416.816a12.31 12.31 0 0 1 3.744 2.256l-3.648 4.752zm19.248-12.96c-.48-.16-.992-.24-1.536-.24-1.056 0-1.768.408-2.136 1.224-.368.816-.552 1.768-.552 2.856v2.064h3.84v5.856h-3.792v19.248h-7.344V820.93h-2.976v-5.856h2.976v-2.112c0-1.376.144-2.68.432-3.912.288-1.232.768-2.32 1.44-3.264.672-.944 1.568-1.696 2.688-2.256 1.12-.56 2.512-.84 4.176-.84.448 0 .976.032 1.584.096.608.064 1.136.16 1.584.288l-.384 6.096zm21.888 18.48c0 1.952-.24 3.752-.72 5.4-.48 1.648-1.16 3.064-2.04 4.248a9.426 9.426 0 0 1-3.264 2.784c-1.296.672-2.76 1.008-4.392 1.008-1.632 0-3.088-.336-4.368-1.008a9.96 9.96 0 0 1-3.288-2.784c-.912-1.184-1.608-2.6-2.088-4.248-.48-1.648-.72-3.448-.72-5.4 0-1.952.24-3.76.72-5.424.48-1.664 1.168-3.088 2.064-4.272a9.652 9.652 0 0 1 3.288-2.784c1.296-.672 2.76-1.008 4.392-1.008 1.632 0 3.096.336 4.392 1.008a9.426 9.426 0 0 1 3.264 2.784c.88 1.184 1.56 2.608 2.04 4.272.48 1.664.72 3.472.72 5.424zm-7.2-.048c0-.96-.064-1.848-.192-2.664-.128-.816-.32-1.536-.576-2.16-.256-.624-.584-1.112-.984-1.464-.4-.352-.888-.528-1.464-.528-.544 0-1.016.176-1.416.528-.4.352-.728.84-.984 1.464s-.448 1.344-.576 2.16a17.23 17.23 0 0 0-.192 2.664c0 .96.064 1.848.192 2.664.128.816.32 1.536.576 2.16.256.624.584 1.112.984 1.464.4.352.872.528 1.416.528.576 0 1.064-.176 1.464-.528.4-.352.728-.84.984-1.464s.448-1.344.576-2.16a17.23 17.23 0 0 0 .192-2.664zm11.616-12.528h7.344v4.224h.048c.896-3.328 2.576-4.992 5.04-4.992.256 0 .464.008.624.024.16.016.352.056.576.12l-.48 7.536c-.256-.064-.504-.12-.744-.168a4.623 4.623 0 0 0-.888-.072c-.64 0-1.2.168-1.68.504-.48.336-.888.776-1.224 1.32-.336.544-.592 1.184-.768 1.92a9.666 9.666 0 0 0-.264 2.256v12.432h-7.584v-25.104zm23.856 0v3.552h.096c.32-1.216.992-2.264 2.016-3.144 1.024-.88 2.336-1.32 3.936-1.32 1.792 0 3.128.432 4.008 1.296.88.864 1.496 1.92 1.848 3.168h.096c.224-.576.52-1.128.888-1.656s.816-1 1.344-1.416a6.696 6.696 0 0 1 1.824-1.008c.688-.256 1.464-.384 2.328-.384 1.44 0 2.608.296 3.504.888a5.836 5.836 0 0 1 2.064 2.376c.48.992.808 2.128.984 3.408a29.23 29.23 0 0 1 .264 3.984v15.36h-7.44V824.77c0-1.056-.16-1.984-.48-2.784-.32-.8-.928-1.2-1.824-1.2-.928 0-1.64.424-2.136 1.272-.496.848-.744 1.96-.744 3.336v14.784h-7.392V824.77c0-1.056-.152-1.984-.456-2.784-.304-.8-.904-1.2-1.8-1.2-.928 0-1.64.424-2.136 1.272-.496.848-.744 1.96-.744 3.336v14.784h-7.392v-25.104h7.344zm42.624 7.056a7.695 7.695 0 0 0-1.872-1.392 4.686 4.686 0 0 0-2.208-.528c-.608 0-1.128.192-1.56.576-.432.384-.648.912-.648 1.584 0 .64.232 1.112.696 1.416.464.304 1.336.648 2.616 1.032.736.224 1.472.528 2.208.912.736.384 1.392.88 1.968 1.488a7.455 7.455 0 0 1 1.416 2.184c.368.848.552 1.848.552 3 0 1.536-.272 2.848-.816 3.936-.544 1.088-1.232 1.968-2.064 2.64a8.319 8.319 0 0 1-2.808 1.488c-1.04.32-2.04.48-3 .48-1.664 0-3.272-.304-4.824-.912-1.552-.608-2.888-1.456-4.008-2.544l3.744-4.8c.672.704 1.4 1.28 2.184 1.728.784.448 1.64.672 2.568.672.704 0 1.256-.208 1.656-.624.4-.416.6-.96.6-1.632 0-.8-.32-1.384-.96-1.752-.64-.368-1.6-.76-2.88-1.176a15.395 15.395 0 0 1-2.016-.84 6.176 6.176 0 0 1-1.8-1.368c-.528-.576-.96-1.272-1.296-2.088-.336-.816-.504-1.816-.504-3 0-1.408.256-2.632.768-3.672s1.176-1.904 1.992-2.592a8.26 8.26 0 0 1 2.736-1.536 9.584 9.584 0 0 1 3.048-.504c1.536 0 3.008.272 4.416.816a12.31 12.31 0 0 1 3.744 2.256l-3.648 4.752z"/><path fill="#000" fill-rule="nonzero" d="M1812.328 716.12v215.515h-279.502V716.121c51.889 0 52.295-112.05 52.295-112.05h51.5c0 15.944 16.094 28.878 35.956 28.878 19.861 0 35.958-12.934 35.958-28.877h51.5s.405 112.049 52.293 112.049z"/><path fill="#E7E5E2" fill-rule="nonzero" d="M1532.826 951.706h279.501v20.136h-279.501z"/><path fill="#959595" fill-rule="nonzero" d="M1532.845 931.567h279.501v20.136h-279.501z"/><path fill="#FFFDF8" d="M1588.936 783.482c-.928 1.312-2.144 2.408-3.648 3.288-1.504.88-3.424 1.32-5.76 1.32-1.984 0-3.784-.44-5.4-1.32-1.616-.88-3-2.112-4.152-3.696-1.152-1.584-2.048-3.472-2.688-5.664-.64-2.192-.96-4.6-.96-7.224 0-2.656.32-5.088.96-7.296.64-2.208 1.536-4.096 2.688-5.664 1.152-1.568 2.536-2.784 4.152-3.648 1.616-.864 3.416-1.296 5.4-1.296 2.272 0 4.168.408 5.688 1.224 1.52.816 2.744 1.832 3.672 3.048l-4.128 5.568c-.576-.768-1.224-1.376-1.944-1.824-.72-.448-1.624-.672-2.712-.672-1.024 0-1.912.272-2.664.816-.752.544-1.392 1.288-1.92 2.232-.528.944-.92 2.064-1.176 3.36a21.411 21.411 0 0 0-.384 4.152c0 1.472.128 2.848.384 4.128.256 1.28.648 2.4 1.176 3.36.528.96 1.176 1.712 1.944 2.256.768.544 1.664.816 2.688.816 1.024 0 1.92-.256 2.688-.768.768-.512 1.376-1.12 1.824-1.824l4.272 5.328zm17.424-22.128a6.118 6.118 0 0 0-2.016-1.56 5.49 5.49 0 0 0-2.4-.552c-.864 0-1.64.272-2.328.816-.688.544-1.032 1.44-1.032 2.688 0 1.056.352 1.88 1.056 2.472.704.592 1.744 1.24 3.12 1.944.768.384 1.576.84 2.424 1.368a11.14 11.14 0 0 1 2.328 1.944c.704.768 1.288 1.688 1.752 2.76.464 1.072.696 2.344.696 3.816 0 1.824-.288 3.432-.864 4.824-.576 1.392-1.352 2.544-2.328 3.456a9.786 9.786 0 0 1-3.384 2.064 11.6 11.6 0 0 1-3.984.696c-2.048 0-3.912-.384-5.592-1.152-1.68-.768-3.032-1.664-4.056-2.688l3.936-5.76a8.799 8.799 0 0 0 2.544 1.848c.96.464 1.936.696 2.928.696.928 0 1.712-.304 2.352-.912.64-.608.96-1.456.96-2.544 0-1.12-.384-2.008-1.152-2.664-.768-.656-1.888-1.352-3.36-2.088-.928-.448-1.8-.944-2.616-1.488a9.707 9.707 0 0 1-2.16-1.968c-.624-.768-1.112-1.664-1.464-2.688-.352-1.024-.528-2.24-.528-3.648 0-1.888.312-3.512.936-4.872.624-1.36 1.44-2.472 2.448-3.336a10.075 10.075 0 0 1 3.36-1.92 11.562 11.562 0 0 1 3.72-.624c1.856 0 3.52.304 4.992.912 1.472.608 2.704 1.44 3.696 2.496l-3.984 5.664zm22.128 0a6.118 6.118 0 0 0-2.016-1.56 5.49 5.49 0 0 0-2.4-.552c-.864 0-1.64.272-2.328.816-.688.544-1.032 1.44-1.032 2.688 0 1.056.352 1.88 1.056 2.472.704.592 1.744 1.24 3.12 1.944.768.384 1.576.84 2.424 1.368a11.14 11.14 0 0 1 2.328 1.944c.704.768 1.288 1.688 1.752 2.76.464 1.072.696 2.344.696 3.816 0 1.824-.288 3.432-.864 4.824-.576 1.392-1.352 2.544-2.328 3.456a9.786 9.786 0 0 1-3.384 2.064 11.6 11.6 0 0 1-3.984.696c-2.048 0-3.912-.384-5.592-1.152-1.68-.768-3.032-1.664-4.056-2.688l3.936-5.76a8.799 8.799 0 0 0 2.544 1.848c.96.464 1.936.696 2.928.696.928 0 1.712-.304 2.352-.912.64-.608.96-1.456.96-2.544 0-1.12-.384-2.008-1.152-2.664-.768-.656-1.888-1.352-3.36-2.088-.928-.448-1.8-.944-2.616-1.488a9.707 9.707 0 0 1-2.16-1.968c-.624-.768-1.112-1.664-1.464-2.688-.352-1.024-.528-2.24-.528-3.648 0-1.888.312-3.512.936-4.872.624-1.36 1.44-2.472 2.448-3.336a10.075 10.075 0 0 1 3.36-1.92 11.562 11.562 0 0 1 3.72-.624c1.856 0 3.52.304 4.992.912 1.472.608 2.704 1.44 3.696 2.496l-3.984 5.664zm31.728 0a6.118 6.118 0 0 0-2.016-1.56 5.49 5.49 0 0 0-2.4-.552c-.864 0-1.64.272-2.328.816-.688.544-1.032 1.44-1.032 2.688 0 1.056.352 1.88 1.056 2.472.704.592 1.744 1.24 3.12 1.944.768.384 1.576.84 2.424 1.368a11.14 11.14 0 0 1 2.328 1.944c.704.768 1.288 1.688 1.752 2.76.464 1.072.696 2.344.696 3.816 0 1.824-.288 3.432-.864 4.824-.576 1.392-1.352 2.544-2.328 3.456a9.786 9.786 0 0 1-3.384 2.064 11.6 11.6 0 0 1-3.984.696c-2.048 0-3.912-.384-5.592-1.152-1.68-.768-3.032-1.664-4.056-2.688l3.936-5.76a8.799 8.799 0 0 0 2.544 1.848c.96.464 1.936.696 2.928.696.928 0 1.712-.304 2.352-.912.64-.608.96-1.456.96-2.544 0-1.12-.384-2.008-1.152-2.664-.768-.656-1.888-1.352-3.36-2.088-.928-.448-1.8-.944-2.616-1.488a9.707 9.707 0 0 1-2.16-1.968c-.624-.768-1.112-1.664-1.464-2.688-.352-1.024-.528-2.24-.528-3.648 0-1.888.312-3.512.936-4.872.624-1.36 1.44-2.472 2.448-3.336a10.075 10.075 0 0 1 3.36-1.92 11.562 11.562 0 0 1 3.72-.624c1.856 0 3.52.304 4.992.912 1.472.608 2.704 1.44 3.696 2.496l-3.984 5.664zm15.456 25.824h-7.536V750.89h7.536v14.544h.144c.384-1.12 1.08-2.112 2.088-2.976 1.008-.864 2.28-1.296 3.816-1.296 1.44 0 2.6.296 3.48.888a5.9 5.9 0 0 1 2.04 2.376c.48.992.8 2.128.96 3.408.16 1.28.24 2.608.24 3.984v15.36h-7.536V771.77c0-1.056-.152-1.984-.456-2.784-.304-.8-.92-1.2-1.848-1.2s-1.648.424-2.16 1.272c-.512.848-.768 1.96-.768 3.336v14.784zm28.56-10.944h-1.344c-.544 0-1.072.048-1.584.144-.512.096-.96.28-1.344.552a2.918 2.918 0 0 0-.912 1.056c-.224.432-.336.984-.336 1.656 0 .992.216 1.72.648 2.184.432.464.952.696 1.56.696.576 0 1.08-.144 1.512-.432a3.18 3.18 0 0 0 1.032-1.128c.256-.464.448-.992.576-1.584a8.273 8.273 0 0 0 .192-1.752v-1.392zm.24 7.824a4.951 4.951 0 0 1-1.896 2.712c-.944.688-2.168 1.032-3.672 1.032a7.11 7.11 0 0 1-2.256-.384 5.79 5.79 0 0 1-2.112-1.272c-.64-.592-1.168-1.376-1.584-2.352-.416-.976-.624-2.184-.624-3.624 0-1.728.312-3.152.936-4.272.624-1.12 1.44-2.016 2.448-2.688 1.008-.672 2.152-1.144 3.432-1.416a18.654 18.654 0 0 1 3.888-.408h.96v-.384c0-1.216-.28-2.096-.84-2.64-.56-.544-1.304-.816-2.232-.816-.928 0-1.768.208-2.52.624-.752.416-1.4.944-1.944 1.584l-3.312-4.608c1.024-1.216 2.296-2.16 3.816-2.832 1.52-.672 3.032-1.008 4.536-1.008 1.696 0 3.136.256 4.32.768 1.184.512 2.144 1.264 2.88 2.256.736.992 1.264 2.2 1.584 3.624.32 1.424.48 3.064.48 4.92v14.304h-6.192v-3.12h-.096zm19.152-21.984v2.976h.144c.448-1.088 1.08-1.984 1.896-2.688.816-.704 1.928-1.056 3.336-1.056 1.344 0 2.536.336 3.576 1.008 1.04.672 1.904 1.592 2.592 2.76.688 1.168 1.216 2.544 1.584 4.128.368 1.584.552 3.304.552 5.16 0 1.888-.184 3.664-.552 5.328-.368 1.664-.896 3.104-1.584 4.32-.688 1.216-1.552 2.176-2.592 2.88-1.04.704-2.232 1.056-3.576 1.056-1.44 0-2.576-.352-3.408-1.056-.832-.704-1.408-1.504-1.728-2.4h-.096v14.208h-7.392v-36.624h7.248zm-.144 12.528c0 .928.064 1.808.192 2.64.128.832.328 1.56.6 2.184.272.624.608 1.112 1.008 1.464.4.352.872.528 1.416.528.576 0 1.064-.176 1.464-.528.4-.352.736-.84 1.008-1.464s.464-1.352.576-2.184a19.8 19.8 0 0 0 .168-2.64c0-.96-.056-1.848-.168-2.664-.112-.816-.304-1.536-.576-2.16-.272-.624-.608-1.112-1.008-1.464-.4-.352-.888-.528-1.464-.528-.544 0-1.016.176-1.416.528-.4.352-.736.84-1.008 1.464s-.472 1.344-.6 2.16a17.23 17.23 0 0 0-.192 2.664zm24 1.92c0 .704.088 1.368.264 1.992.176.624.408 1.168.696 1.632.288.464.64.832 1.056 1.104.416.272.88.408 1.392.408.832 0 1.504-.272 2.016-.816a5.911 5.911 0 0 0 1.2-1.92l5.52 3.12c-.832 1.856-1.992 3.328-3.48 4.416-1.488 1.088-3.336 1.632-5.544 1.632-1.472 0-2.84-.288-4.104-.864-1.264-.576-2.368-1.432-3.312-2.568-.944-1.136-1.68-2.536-2.208-4.2-.528-1.664-.792-3.584-.792-5.76 0-2.048.248-3.912.744-5.592.496-1.68 1.2-3.104 2.112-4.272.912-1.168 1.992-2.072 3.24-2.712 1.248-.64 2.624-.96 4.128-.96 1.728 0 3.2.336 4.416 1.008a8.548 8.548 0 0 1 3 2.76c.784 1.168 1.352 2.56 1.704 4.176.352 1.616.528 3.384.528 5.304v2.112h-12.576zm5.664-4.896c0-1.344-.208-2.464-.624-3.36-.416-.896-1.104-1.344-2.064-1.344-.512 0-.952.152-1.32.456-.368.304-.68.688-.936 1.152a5.868 5.868 0 0 0-.576 1.536 7.03 7.03 0 0 0-.192 1.56h5.712zm23.04-2.496a7.695 7.695 0 0 0-1.872-1.392 4.686 4.686 0 0 0-2.208-.528c-.608 0-1.128.192-1.56.576-.432.384-.648.912-.648 1.584 0 .64.232 1.112.696 1.416.464.304 1.336.648 2.616 1.032.736.224 1.472.528 2.208.912.736.384 1.392.88 1.968 1.488a7.454 7.454 0 0 1 1.416 2.184c.368.848.552 1.848.552 3 0 1.536-.272 2.848-.816 3.936-.544 1.088-1.232 1.968-2.064 2.64a8.319 8.319 0 0 1-2.808 1.488c-1.04.32-2.04.48-3 .48-1.664 0-3.272-.304-4.824-.912-1.552-.608-2.888-1.456-4.008-2.544l3.744-4.8c.672.704 1.4 1.28 2.184 1.728.784.448 1.64.672 2.568.672.704 0 1.256-.208 1.656-.624.4-.416.6-.96.6-1.632 0-.8-.32-1.384-.96-1.752-.64-.368-1.6-.76-2.88-1.176a15.395 15.395 0 0 1-2.016-.84 6.176 6.176 0 0 1-1.8-1.368c-.528-.576-.96-1.272-1.296-2.088-.336-.816-.504-1.816-.504-3 0-1.408.256-2.632.768-3.672s1.176-1.904 1.992-2.592a8.26 8.26 0 0 1 2.736-1.536 9.584 9.584 0 0 1 3.048-.504c1.536 0 3.008.272 4.416.816a12.31 12.31 0 0 1 3.744 2.256l-3.648 4.752z"/><path fill="#000" fill-rule="nonzero" d="M280.461 716.12v215.515H.96V716.121c51.888 0 52.294-112.05 52.294-112.05h51.5c0 15.944 16.095 28.878 35.956 28.878 19.862 0 35.958-12.934 35.958-28.877h51.5s.405 112.049 52.293 112.049z"/><path fill="#E7E5E2" fill-rule="nonzero" d="M.96 951.706h279.501v20.136H.96z"/><path fill="#959595" fill-rule="nonzero" d="M.979 931.567H280.48v20.136H.979z"/><path fill="#FFFDF8" d="M108.141 774.178l-4.56-13.536h-2.256v13.536h-7.392v-33.984h10.896c3.296 0 5.856.856 7.68 2.568 1.824 1.712 2.736 4.264 2.736 7.656 0 1.248-.144 2.368-.432 3.36-.288.992-.664 1.84-1.128 2.544-.464.704-.984 1.28-1.56 1.728-.576.448-1.136.768-1.68.96l5.808 15.168h-8.112zm-.48-23.328c0-.864-.12-1.568-.36-2.112s-.552-.976-.936-1.296a3.106 3.106 0 0 0-1.272-.648 5.817 5.817 0 0 0-1.368-.168h-2.4v8.592h2.256c1.088 0 2.04-.344 2.856-1.032.816-.688 1.224-1.8 1.224-3.336zm24.528 23.328v-3.552h-.096c-.416 1.216-1.152 2.264-2.208 3.144-1.056.88-2.368 1.32-3.936 1.32-1.44 0-2.592-.296-3.456-.888-.864-.592-1.536-1.384-2.016-2.376s-.8-2.128-.96-3.408a32.11 32.11 0 0 1-.24-3.984v-15.36h7.536v15.36c0 .544.032 1.056.096 1.536s.176.896.336 1.248c.16.352.392.64.696.864.304.224.68.336 1.128.336.928 0 1.648-.424 2.16-1.272.512-.848.768-1.96.768-3.336v-14.736h7.536v25.104h-7.344zm13.296-36.288h7.488v13.728h.144c.288-.928.888-1.712 1.8-2.352.912-.64 1.976-.96 3.192-.96 1.344 0 2.536.328 3.576.984 1.04.656 1.912 1.56 2.616 2.712.704 1.152 1.232 2.52 1.584 4.104.352 1.584.528 3.304.528 5.16 0 1.888-.184 3.664-.552 5.328-.368 1.664-.904 3.112-1.608 4.344-.704 1.232-1.576 2.208-2.616 2.928-1.04.72-2.216 1.08-3.528 1.08-1.536 0-2.704-.376-3.504-1.128a6.968 6.968 0 0 1-1.776-2.664h-.096v3.024h-7.248V737.89zm7.104 23.712c0 .928.064 1.808.192 2.64.128.832.328 1.56.6 2.184.272.624.608 1.112 1.008 1.464.4.352.872.528 1.416.528.576 0 1.064-.176 1.464-.528.4-.352.736-.84 1.008-1.464s.464-1.352.576-2.184a19.8 19.8 0 0 0 .168-2.64c0-.96-.056-1.848-.168-2.664-.112-.816-.304-1.536-.576-2.16-.272-.624-.608-1.112-1.008-1.464-.4-.352-.888-.528-1.464-.528-.544 0-1.016.176-1.416.528-.4.352-.736.84-1.008 1.464s-.472 1.344-.6 2.16a17.23 17.23 0 0 0-.192 2.664zm30.864 13.44c-.384 1.44-.824 2.8-1.32 4.08-.496 1.28-1.128 2.408-1.896 3.384a8.512 8.512 0 0 1-2.832 2.328c-1.12.576-2.496.864-4.128.864-.736 0-1.48-.048-2.232-.144a22.287 22.287 0 0 1-1.992-.336l1.008-6.816c.288.128.624.224 1.008.288.384.064.72.096 1.008.096.96 0 1.656-.256 2.088-.768.432-.512.744-1.12.936-1.824l.384-1.392-7.488-25.728h7.92l3.6 16.752h.096l3.312-16.752h7.632l-7.104 25.968zm-104.76 65.136v-33.984h7.776v26.88h9.072v7.104H78.693zm30.432-10.944h-1.344c-.544 0-1.072.048-1.584.144-.512.096-.96.28-1.344.552a2.918 2.918 0 0 0-.912 1.056c-.224.432-.336.984-.336 1.656 0 .992.216 1.72.648 2.184.432.464.952.696 1.56.696.576 0 1.08-.144 1.512-.432a3.18 3.18 0 0 0 1.032-1.128c.256-.464.448-.992.576-1.584a8.273 8.273 0 0 0 .192-1.752v-1.392zm.24 7.824a4.952 4.952 0 0 1-1.896 2.712c-.944.688-2.168 1.032-3.672 1.032a7.11 7.11 0 0 1-2.256-.384 5.79 5.79 0 0 1-2.112-1.272c-.64-.592-1.168-1.376-1.584-2.352-.416-.976-.624-2.184-.624-3.624 0-1.728.312-3.152.936-4.272.624-1.12 1.44-2.016 2.448-2.688 1.008-.672 2.152-1.144 3.432-1.416a18.654 18.654 0 0 1 3.888-.408h.96v-.384c0-1.216-.28-2.096-.84-2.64-.56-.544-1.304-.816-2.232-.816-.928 0-1.768.208-2.52.624-.752.416-1.4.944-1.944 1.584l-3.312-4.608c1.024-1.216 2.296-2.16 3.816-2.832 1.52-.672 3.032-1.008 4.536-1.008 1.696 0 3.136.256 4.32.768 1.184.512 2.144 1.264 2.88 2.256.736.992 1.264 2.2 1.584 3.624.32 1.424.48 3.064.48 4.92v14.304h-6.192v-3.12h-.096zm24.528 3.984c-.384 1.44-.824 2.8-1.32 4.08-.496 1.28-1.128 2.408-1.896 3.384a8.512 8.512 0 0 1-2.832 2.328c-1.12.576-2.496.864-4.128.864-.736 0-1.48-.048-2.232-.144a22.287 22.287 0 0 1-1.992-.336l1.008-6.816c.288.128.624.224 1.008.288.384.064.72.096 1.008.096.96 0 1.656-.256 2.088-.768.432-.512.744-1.12.936-1.824l.384-1.392-7.488-25.728h7.92l3.6 16.752h.096l3.312-16.752h7.632l-7.104 25.968zm29.568-13.392c0 1.952-.24 3.752-.72 5.4-.48 1.648-1.16 3.064-2.04 4.248a9.426 9.426 0 0 1-3.264 2.784c-1.296.672-2.76 1.008-4.392 1.008-1.632 0-3.088-.336-4.368-1.008a9.96 9.96 0 0 1-3.288-2.784c-.912-1.184-1.608-2.6-2.088-4.248-.48-1.648-.72-3.448-.72-5.4 0-1.952.24-3.76.72-5.424.48-1.664 1.168-3.088 2.064-4.272a9.652 9.652 0 0 1 3.288-2.784c1.296-.672 2.76-1.008 4.392-1.008 1.632 0 3.096.336 4.392 1.008a9.426 9.426 0 0 1 3.264 2.784c.88 1.184 1.56 2.608 2.04 4.272.48 1.664.72 3.472.72 5.424zm-7.2-.048c0-.96-.064-1.848-.192-2.664-.128-.816-.32-1.536-.576-2.16-.256-.624-.584-1.112-.984-1.464-.4-.352-.888-.528-1.464-.528-.544 0-1.016.176-1.416.528-.4.352-.728.84-.984 1.464s-.448 1.344-.576 2.16a17.23 17.23 0 0 0-.192 2.664c0 .96.064 1.848.192 2.664.128.816.32 1.536.576 2.16.256.624.584 1.112.984 1.464.4.352.872.528 1.416.528.576 0 1.064-.176 1.464-.528.4-.352.728-.84.984-1.464s.448-1.344.576-2.16a17.23 17.23 0 0 0 .192-2.664zm24.24 12.576v-3.552h-.096c-.416 1.216-1.152 2.264-2.208 3.144-1.056.88-2.368 1.32-3.936 1.32-1.44 0-2.592-.296-3.456-.888-.864-.592-1.536-1.384-2.016-2.376s-.8-2.128-.96-3.408a32.11 32.11 0 0 1-.24-3.984v-15.36h7.536v15.36c0 .544.032 1.056.096 1.536s.176.896.336 1.248c.16.352.392.64.696.864.304.224.68.336 1.128.336.928 0 1.648-.424 2.16-1.272.512-.848.768-1.96.768-3.336v-14.736h7.536v25.104h-7.344zm24.96-.192c-.416.224-1.008.416-1.776.576-.768.16-1.536.24-2.304.24-2.528 0-4.368-.68-5.52-2.04-1.152-1.36-1.728-3.4-1.728-6.12V820.93h-3.024v-5.856h2.976v-6.048h7.296v6.048h4.32v5.856h-4.32v9.984c0 1.216.192 2.104.576 2.664.384.56.992.84 1.824.84.672 0 1.232-.112 1.68-.336v5.904z"/><path fill="#000" fill-rule="nonzero" d="M663.461 716.12v215.515H383.96V716.121c51.888 0 52.294-112.05 52.294-112.05h51.5c0 15.944 16.095 28.878 35.956 28.878 19.862 0 35.958-12.934 35.958-28.877h51.5s.405 112.049 52.293 112.049z"/><path fill="#E7E5E2" fill-rule="nonzero" d="M383.96 951.706h279.501v20.136H383.96z"/><path fill="#959595" fill-rule="nonzero" d="M383.979 931.567H663.48v20.136H383.979z"/><path fill="#FFFDF8" d="M469.229 774.178v-33.984h7.728v33.984h-7.728zm21.072-25.104v3.552h.096c.416-1.216 1.152-2.264 2.208-3.144 1.056-.88 2.368-1.32 3.936-1.32 1.44 0 2.592.296 3.456.888.864.592 1.536 1.384 2.016 2.376s.8 2.128.96 3.408c.16 1.28.24 2.608.24 3.984v15.36h-7.536V758.77c0-1.056-.152-1.984-.456-2.784-.304-.8-.904-1.2-1.8-1.2-.928 0-1.648.424-2.16 1.272-.512.848-.768 1.96-.768 3.336v14.784h-7.536v-25.104h7.344zm18.576 25.104V737.89h7.68v36.288h-7.68zm13.488 0v-25.104h7.584v25.104h-7.584zm7.92-31.92c0 1.216-.384 2.248-1.152 3.096-.768.848-1.76 1.272-2.976 1.272s-2.208-.424-2.976-1.272c-.768-.848-1.152-1.88-1.152-3.096 0-.608.104-1.176.312-1.704.208-.528.488-.992.84-1.392.352-.4.784-.72 1.296-.96a3.908 3.908 0 0 1 1.68-.36c.608 0 1.168.12 1.68.36s.944.56 1.296.96c.352.4.632.864.84 1.392.208.528.312 1.096.312 1.704zm12.816 6.816v3.552h.096c.416-1.216 1.152-2.264 2.208-3.144 1.056-.88 2.368-1.32 3.936-1.32 1.44 0 2.592.296 3.456.888.864.592 1.536 1.384 2.016 2.376s.8 2.128.96 3.408c.16 1.28.24 2.608.24 3.984v15.36h-7.536V758.77c0-1.056-.152-1.984-.456-2.784-.304-.8-.904-1.2-1.8-1.2-.928 0-1.648.424-2.16 1.272-.512.848-.768 1.96-.768 3.336v14.784h-7.536v-25.104h7.344zm24.336 14.448c0 .704.088 1.368.264 1.992.176.624.408 1.168.696 1.632.288.464.64.832 1.056 1.104.416.272.88.408 1.392.408.832 0 1.504-.272 2.016-.816a5.911 5.911 0 0 0 1.2-1.92l5.52 3.12c-.832 1.856-1.992 3.328-3.48 4.416-1.488 1.088-3.336 1.632-5.544 1.632-1.472 0-2.84-.288-4.104-.864-1.264-.576-2.368-1.432-3.312-2.568-.944-1.136-1.68-2.536-2.208-4.2-.528-1.664-.792-3.584-.792-5.76 0-2.048.248-3.912.744-5.592.496-1.68 1.2-3.104 2.112-4.272.912-1.168 1.992-2.072 3.24-2.712 1.248-.64 2.624-.96 4.128-.96 1.728 0 3.2.336 4.416 1.008a8.548 8.548 0 0 1 3 2.76c.784 1.168 1.352 2.56 1.704 4.176.352 1.616.528 3.384.528 5.304v2.112h-12.576zm5.664-4.896c0-1.344-.208-2.464-.624-3.36-.416-.896-1.104-1.344-2.064-1.344-.512 0-.952.152-1.32.456-.368.304-.68.688-.936 1.152a5.868 5.868 0 0 0-.576 1.536 7.03 7.03 0 0 0-.192 1.56h5.712zm-111.408 81.552v-33.984h7.776v26.88h9.072v7.104h-16.848zm30.432-10.944h-1.344c-.544 0-1.072.048-1.584.144-.512.096-.96.28-1.344.552a2.918 2.918 0 0 0-.912 1.056c-.224.432-.336.984-.336 1.656 0 .992.216 1.72.648 2.184.432.464.952.696 1.56.696.576 0 1.08-.144 1.512-.432a3.18 3.18 0 0 0 1.032-1.128c.256-.464.448-.992.576-1.584a8.273 8.273 0 0 0 .192-1.752v-1.392zm.24 7.824a4.952 4.952 0 0 1-1.896 2.712c-.944.688-2.168 1.032-3.672 1.032a7.11 7.11 0 0 1-2.256-.384 5.79 5.79 0 0 1-2.112-1.272c-.64-.592-1.168-1.376-1.584-2.352-.416-.976-.624-2.184-.624-3.624 0-1.728.312-3.152.936-4.272.624-1.12 1.44-2.016 2.448-2.688 1.008-.672 2.152-1.144 3.432-1.416a18.654 18.654 0 0 1 3.888-.408h.96v-.384c0-1.216-.28-2.096-.84-2.64-.56-.544-1.304-.816-2.232-.816-.928 0-1.768.208-2.52.624-.752.416-1.4.944-1.944 1.584l-3.312-4.608c1.024-1.216 2.296-2.16 3.816-2.832 1.52-.672 3.032-1.008 4.536-1.008 1.696 0 3.136.256 4.32.768 1.184.512 2.144 1.264 2.88 2.256.736.992 1.264 2.2 1.584 3.624.32 1.424.48 3.064.48 4.92v14.304h-6.192v-3.12h-.096zm24.528 3.984c-.384 1.44-.824 2.8-1.32 4.08-.496 1.28-1.128 2.408-1.896 3.384a8.512 8.512 0 0 1-2.832 2.328c-1.12.576-2.496.864-4.128.864-.736 0-1.48-.048-2.232-.144a22.287 22.287 0 0 1-1.992-.336l1.008-6.816c.288.128.624.224 1.008.288.384.064.72.096 1.008.096.96 0 1.656-.256 2.088-.768.432-.512.744-1.12.936-1.824l.384-1.392-7.488-25.728h7.92l3.6 16.752h.096l3.312-16.752h7.632l-7.104 25.968zm29.568-13.392c0 1.952-.24 3.752-.72 5.4-.48 1.648-1.16 3.064-2.04 4.248a9.426 9.426 0 0 1-3.264 2.784c-1.296.672-2.76 1.008-4.392 1.008-1.632 0-3.088-.336-4.368-1.008a9.96 9.96 0 0 1-3.288-2.784c-.912-1.184-1.608-2.6-2.088-4.248-.48-1.648-.72-3.448-.72-5.4 0-1.952.24-3.76.72-5.424.48-1.664 1.168-3.088 2.064-4.272a9.652 9.652 0 0 1 3.288-2.784c1.296-.672 2.76-1.008 4.392-1.008 1.632 0 3.096.336 4.392 1.008a9.426 9.426 0 0 1 3.264 2.784c.88 1.184 1.56 2.608 2.04 4.272.48 1.664.72 3.472.72 5.424zm-7.2-.048c0-.96-.064-1.848-.192-2.664-.128-.816-.32-1.536-.576-2.16-.256-.624-.584-1.112-.984-1.464-.4-.352-.888-.528-1.464-.528-.544 0-1.016.176-1.416.528-.4.352-.728.84-.984 1.464s-.448 1.344-.576 2.16a17.23 17.23 0 0 0-.192 2.664c0 .96.064 1.848.192 2.664.128.816.32 1.536.576 2.16.256.624.584 1.112.984 1.464.4.352.872.528 1.416.528.576 0 1.064-.176 1.464-.528.4-.352.728-.84.984-1.464s.448-1.344.576-2.16a17.23 17.23 0 0 0 .192-2.664zm24.24 12.576v-3.552h-.096c-.416 1.216-1.152 2.264-2.208 3.144-1.056.88-2.368 1.32-3.936 1.32-1.44 0-2.592-.296-3.456-.888-.864-.592-1.536-1.384-2.016-2.376s-.8-2.128-.96-3.408a32.11 32.11 0 0 1-.24-3.984v-15.36h7.536v15.36c0 .544.032 1.056.096 1.536s.176.896.336 1.248c.16.352.392.64.696.864.304.224.68.336 1.128.336.928 0 1.648-.424 2.16-1.272.512-.848.768-1.96.768-3.336v-14.736h7.536v25.104h-7.344zm24.96-.192c-.416.224-1.008.416-1.776.576-.768.16-1.536.24-2.304.24-2.528 0-4.368-.68-5.52-2.04-1.152-1.36-1.728-3.4-1.728-6.12V820.93h-3.024v-5.856h2.976v-6.048h7.296v6.048h4.32v5.856h-4.32v9.984c0 1.216.192 2.104.576 2.664.384.56.992.84 1.824.84.672 0 1.232-.112 1.68-.336v5.904z"/><path fill="#000" fill-rule="nonzero" d="M1046.395 716.12v215.515H766.893V716.121c51.888 0 52.295-112.05 52.295-112.05h51.499c0 15.944 16.095 28.878 35.956 28.878 19.862 0 35.959-12.934 35.959-28.877H994.1s.405 112.049 52.294 112.049z"/><path fill="#E7E5E2" fill-rule="nonzero" d="M766.893 951.706h279.501v20.136H766.893z"/><path fill="#959595" fill-rule="nonzero" d="M766.912 931.567h279.501v20.136H766.912z"/><path fill="#FFFDF8" d="M827.778 750.85c0 1.888-.288 3.52-.864 4.896-.576 1.376-1.344 2.512-2.304 3.408a9.305 9.305 0 0 1-3.264 1.992 10.969 10.969 0 0 1-3.696.648h-3.312v12.384h-7.536v-33.984h10.56c1.216 0 2.44.176 3.672.528a9.39 9.39 0 0 1 3.36 1.752c1.008.816 1.824 1.912 2.448 3.288.624 1.376.936 3.072.936 5.088zm-7.2.144c0-1.536-.368-2.64-1.104-3.312-.736-.672-1.632-1.008-2.688-1.008h-2.448v8.88h2.448c1.056 0 1.952-.392 2.688-1.176.736-.784 1.104-1.912 1.104-3.384zm29.136 10.656c0 1.952-.24 3.752-.72 5.4-.48 1.648-1.16 3.064-2.04 4.248a9.426 9.426 0 0 1-3.264 2.784c-1.296.672-2.76 1.008-4.392 1.008-1.632 0-3.088-.336-4.368-1.008a9.96 9.96 0 0 1-3.288-2.784c-.912-1.184-1.608-2.6-2.088-4.248-.48-1.648-.72-3.448-.72-5.4 0-1.952.24-3.76.72-5.424.48-1.664 1.168-3.088 2.064-4.272a9.652 9.652 0 0 1 3.288-2.784c1.296-.672 2.76-1.008 4.392-1.008 1.632 0 3.096.336 4.392 1.008a9.426 9.426 0 0 1 3.264 2.784c.88 1.184 1.56 2.608 2.04 4.272.48 1.664.72 3.472.72 5.424zm-7.2-.048c0-.96-.064-1.848-.192-2.664-.128-.816-.32-1.536-.576-2.16-.256-.624-.584-1.112-.984-1.464-.4-.352-.888-.528-1.464-.528-.544 0-1.016.176-1.416.528-.4.352-.728.84-.984 1.464s-.448 1.344-.576 2.16a17.23 17.23 0 0 0-.192 2.664c0 .96.064 1.848.192 2.664.128.816.32 1.536.576 2.16.256.624.584 1.112.984 1.464.4.352.872.528 1.416.528.576 0 1.064-.176 1.464-.528.4-.352.728-.84.984-1.464s.448-1.344.576-2.16a17.23 17.23 0 0 0 .192-2.664zm23.376-5.472a7.695 7.695 0 0 0-1.872-1.392 4.686 4.686 0 0 0-2.208-.528c-.608 0-1.128.192-1.56.576-.432.384-.648.912-.648 1.584 0 .64.232 1.112.696 1.416.464.304 1.336.648 2.616 1.032.736.224 1.472.528 2.208.912.736.384 1.392.88 1.968 1.488a7.455 7.455 0 0 1 1.416 2.184c.368.848.552 1.848.552 3 0 1.536-.272 2.848-.816 3.936-.544 1.088-1.232 1.968-2.064 2.64a8.319 8.319 0 0 1-2.808 1.488c-1.04.32-2.04.48-3 .48-1.664 0-3.272-.304-4.824-.912-1.552-.608-2.888-1.456-4.008-2.544l3.744-4.8c.672.704 1.4 1.28 2.184 1.728.784.448 1.64.672 2.568.672.704 0 1.256-.208 1.656-.624.4-.416.6-.96.6-1.632 0-.8-.32-1.384-.96-1.752-.64-.368-1.6-.76-2.88-1.176a15.395 15.395 0 0 1-2.016-.84 6.176 6.176 0 0 1-1.8-1.368c-.528-.576-.96-1.272-1.296-2.088-.336-.816-.504-1.816-.504-3 0-1.408.256-2.632.768-3.672s1.176-1.904 1.992-2.592a8.26 8.26 0 0 1 2.736-1.536 9.584 9.584 0 0 1 3.048-.504c1.536 0 3.008.272 4.416.816a12.31 12.31 0 0 1 3.744 2.256l-3.648 4.752zm7.296 18.048v-25.104h7.584v25.104h-7.584zm7.92-31.92c0 1.216-.384 2.248-1.152 3.096-.768.848-1.76 1.272-2.976 1.272s-2.208-.424-2.976-1.272c-.768-.848-1.152-1.88-1.152-3.096 0-.608.104-1.176.312-1.704.208-.528.488-.992.84-1.392.352-.4.784-.72 1.296-.96a3.908 3.908 0 0 1 1.68-.36c.608 0 1.168.12 1.68.36s.944.56 1.296.96c.352.4.632.864.84 1.392.208.528.312 1.096.312 1.704zm17.136 31.728c-.416.224-1.008.416-1.776.576-.768.16-1.536.24-2.304.24-2.528 0-4.368-.68-5.52-2.04-1.152-1.36-1.728-3.4-1.728-6.12V754.93h-3.024v-5.856h2.976v-6.048h7.296v6.048h4.32v5.856h-4.32v9.984c0 1.216.192 2.104.576 2.664.384.56.992.84 1.824.84.672 0 1.232-.112 1.68-.336v5.904zm3.312.192v-25.104h7.584v25.104h-7.584zm7.92-31.92c0 1.216-.384 2.248-1.152 3.096-.768.848-1.76 1.272-2.976 1.272s-2.208-.424-2.976-1.272c-.768-.848-1.152-1.88-1.152-3.096 0-.608.104-1.176.312-1.704.208-.528.488-.992.84-1.392.352-.4.784-.72 1.296-.96a3.908 3.908 0 0 1 1.68-.36c.608 0 1.168.12 1.68.36s.944.56 1.296.96c.352.4.632.864.84 1.392.208.528.312 1.096.312 1.704zm24.816 19.392c0 1.952-.24 3.752-.72 5.4-.48 1.648-1.16 3.064-2.04 4.248a9.426 9.426 0 0 1-3.264 2.784c-1.296.672-2.76 1.008-4.392 1.008-1.632 0-3.088-.336-4.368-1.008a9.96 9.96 0 0 1-3.288-2.784c-.912-1.184-1.608-2.6-2.088-4.248-.48-1.648-.72-3.448-.72-5.4 0-1.952.24-3.76.72-5.424.48-1.664 1.168-3.088 2.064-4.272a9.652 9.652 0 0 1 3.288-2.784c1.296-.672 2.76-1.008 4.392-1.008 1.632 0 3.096.336 4.392 1.008a9.426 9.426 0 0 1 3.264 2.784c.88 1.184 1.56 2.608 2.04 4.272.48 1.664.72 3.472.72 5.424zm-7.2-.048c0-.96-.064-1.848-.192-2.664-.128-.816-.32-1.536-.576-2.16-.256-.624-.584-1.112-.984-1.464-.4-.352-.888-.528-1.464-.528-.544 0-1.016.176-1.416.528-.4.352-.728.84-.984 1.464s-.448 1.344-.576 2.16a17.23 17.23 0 0 0-.192 2.664c0 .96.064 1.848.192 2.664.128.816.32 1.536.576 2.16.256.624.584 1.112.984 1.464.4.352.872.528 1.416.528.576 0 1.064-.176 1.464-.528.4-.352.728-.84.984-1.464s.448-1.344.576-2.16a17.23 17.23 0 0 0 .192-2.664zm18.96-12.528v3.552h.096c.416-1.216 1.152-2.264 2.208-3.144 1.056-.88 2.368-1.32 3.936-1.32 1.44 0 2.592.296 3.456.888.864.592 1.536 1.384 2.016 2.376s.8 2.128.96 3.408c.16 1.28.24 2.608.24 3.984v15.36h-7.536V758.77c0-1.056-.152-1.984-.456-2.784-.304-.8-.904-1.2-1.8-1.2-.928 0-1.648.424-2.16 1.272-.512.848-.768 1.96-.768 3.336v14.784h-7.536v-25.104h7.344zm24.336 14.448c0 .704.088 1.368.264 1.992.176.624.408 1.168.696 1.632.288.464.64.832 1.056 1.104.416.272.88.408 1.392.408.832 0 1.504-.272 2.016-.816a5.911 5.911 0 0 0 1.2-1.92l5.52 3.12c-.832 1.856-1.992 3.328-3.48 4.416-1.488 1.088-3.336 1.632-5.544 1.632-1.472 0-2.84-.288-4.104-.864-1.264-.576-2.368-1.432-3.312-2.568-.944-1.136-1.68-2.536-2.208-4.2-.528-1.664-.792-3.584-.792-5.76 0-2.048.248-3.912.744-5.592.496-1.68 1.2-3.104 2.112-4.272.912-1.168 1.992-2.072 3.24-2.712 1.248-.64 2.624-.96 4.128-.96 1.728 0 3.2.336 4.416 1.008a8.548 8.548 0 0 1 3 2.76c.784 1.168 1.352 2.56 1.704 4.176.352 1.616.528 3.384.528 5.304v2.112h-12.576zm5.664-4.896c0-1.344-.208-2.464-.624-3.36-.416-.896-1.104-1.344-2.064-1.344-.512 0-.952.152-1.32.456-.368.304-.68.688-.936 1.152a5.868 5.868 0 0 0-.576 1.536 7.03 7.03 0 0 0-.192 1.56h5.712zm23.424 15.552v-3.024h-.096a6.41 6.41 0 0 1-1.752 2.664c-.816.752-1.992 1.128-3.528 1.128-1.312 0-2.488-.36-3.528-1.08-1.04-.72-1.912-1.696-2.616-2.928-.704-1.232-1.24-2.68-1.608-4.344-.368-1.664-.552-3.44-.552-5.328 0-1.856.176-3.576.528-5.16.352-1.584.88-2.952 1.584-4.104.704-1.152 1.576-2.056 2.616-2.712 1.04-.656 2.232-.984 3.576-.984 1.248 0 2.328.32 3.24.96.912.64 1.512 1.424 1.8 2.352h.144V737.89h7.44v36.288h-7.248zm.144-12.576c0-.96-.064-1.848-.192-2.664-.128-.816-.328-1.536-.6-2.16-.272-.624-.608-1.112-1.008-1.464a2.074 2.074 0 0 0-1.416-.528c-.576 0-1.064.176-1.464.528-.4.352-.728.84-.984 1.464s-.448 1.344-.576 2.16a17.23 17.23 0 0 0-.192 2.664c0 .928.064 1.808.192 2.64.128.832.32 1.56.576 2.184.256.624.584 1.112.984 1.464.4.352.888.528 1.464.528.544 0 1.016-.176 1.416-.528.4-.352.736-.84 1.008-1.464s.472-1.352.6-2.184c.128-.832.192-1.712.192-2.64zm-154.992 78.576v-33.984h7.776v26.88h9.072v7.104h-16.848zm30.432-10.944h-1.344c-.544 0-1.072.048-1.584.144-.512.096-.96.28-1.344.552a2.918 2.918 0 0 0-.912 1.056c-.224.432-.336.984-.336 1.656 0 .992.216 1.72.648 2.184.432.464.952.696 1.56.696.576 0 1.08-.144 1.512-.432a3.18 3.18 0 0 0 1.032-1.128c.256-.464.448-.992.576-1.584a8.273 8.273 0 0 0 .192-1.752v-1.392zm.24 7.824a4.952 4.952 0 0 1-1.896 2.712c-.944.688-2.168 1.032-3.672 1.032a7.11 7.11 0 0 1-2.256-.384 5.79 5.79 0 0 1-2.112-1.272c-.64-.592-1.168-1.376-1.584-2.352-.416-.976-.624-2.184-.624-3.624 0-1.728.312-3.152.936-4.272.624-1.12 1.44-2.016 2.448-2.688 1.008-.672 2.152-1.144 3.432-1.416a18.654 18.654 0 0 1 3.888-.408h.96v-.384c0-1.216-.28-2.096-.84-2.64-.56-.544-1.304-.816-2.232-.816-.928 0-1.768.208-2.52.624-.752.416-1.4.944-1.944 1.584l-3.312-4.608c1.024-1.216 2.296-2.16 3.816-2.832 1.52-.672 3.032-1.008 4.536-1.008 1.696 0 3.136.256 4.32.768 1.184.512 2.144 1.264 2.88 2.256.736.992 1.264 2.2 1.584 3.624.32 1.424.48 3.064.48 4.92v14.304h-6.192v-3.12h-.096zm24.528 3.984c-.384 1.44-.824 2.8-1.32 4.08-.496 1.28-1.128 2.408-1.896 3.384a8.512 8.512 0 0 1-2.832 2.328c-1.12.576-2.496.864-4.128.864-.736 0-1.48-.048-2.232-.144a22.287 22.287 0 0 1-1.992-.336l1.008-6.816c.288.128.624.224 1.008.288.384.064.72.096 1.008.096.96 0 1.656-.256 2.088-.768.432-.512.744-1.12.936-1.824l.384-1.392-7.488-25.728h7.92l3.6 16.752h.096l3.312-16.752h7.632l-7.104 25.968zm29.568-13.392c0 1.952-.24 3.752-.72 5.4-.48 1.648-1.16 3.064-2.04 4.248a9.426 9.426 0 0 1-3.264 2.784c-1.296.672-2.76 1.008-4.392 1.008-1.632 0-3.088-.336-4.368-1.008a9.96 9.96 0 0 1-3.288-2.784c-.912-1.184-1.608-2.6-2.088-4.248-.48-1.648-.72-3.448-.72-5.4 0-1.952.24-3.76.72-5.424.48-1.664 1.168-3.088 2.064-4.272a9.652 9.652 0 0 1 3.288-2.784c1.296-.672 2.76-1.008 4.392-1.008 1.632 0 3.096.336 4.392 1.008a9.426 9.426 0 0 1 3.264 2.784c.88 1.184 1.56 2.608 2.04 4.272.48 1.664.72 3.472.72 5.424zm-7.2-.048c0-.96-.064-1.848-.192-2.664-.128-.816-.32-1.536-.576-2.16-.256-.624-.584-1.112-.984-1.464-.4-.352-.888-.528-1.464-.528-.544 0-1.016.176-1.416.528-.4.352-.728.84-.984 1.464s-.448 1.344-.576 2.16a17.23 17.23 0 0 0-.192 2.664c0 .96.064 1.848.192 2.664.128.816.32 1.536.576 2.16.256.624.584 1.112.984 1.464.4.352.872.528 1.416.528.576 0 1.064-.176 1.464-.528.4-.352.728-.84.984-1.464s.448-1.344.576-2.16a17.23 17.23 0 0 0 .192-2.664zm24.24 12.576v-3.552h-.096c-.416 1.216-1.152 2.264-2.208 3.144-1.056.88-2.368 1.32-3.936 1.32-1.44 0-2.592-.296-3.456-.888-.864-.592-1.536-1.384-2.016-2.376s-.8-2.128-.96-3.408a32.11 32.11 0 0 1-.24-3.984v-15.36h7.536v15.36c0 .544.032 1.056.096 1.536s.176.896.336 1.248c.16.352.392.64.696.864.304.224.68.336 1.128.336.928 0 1.648-.424 2.16-1.272.512-.848.768-1.96.768-3.336v-14.736h7.536v25.104h-7.344zm24.96-.192c-.416.224-1.008.416-1.776.576-.768.16-1.536.24-2.304.24-2.528 0-4.368-.68-5.52-2.04-1.152-1.36-1.728-3.4-1.728-6.12V820.93h-3.024v-5.856h2.976v-6.048h7.296v6.048h4.32v5.856h-4.32v9.984c0 1.216.192 2.104.576 2.664.384.56.992.84 1.824.84.672 0 1.232-.112 1.68-.336v5.904z"/><path fill="#000" fill-rule="nonzero" d="M1429.361 716.12v215.515H1149.86V716.121c51.888 0 52.294-112.05 52.294-112.05h51.5c0 15.944 16.095 28.878 35.956 28.878 19.862 0 35.958-12.934 35.958-28.877h51.5s.405 112.049 52.293 112.049z"/><path fill="#E7E5E2" fill-rule="nonzero" d="M1149.86 951.706h279.501v20.136H1149.86z"/><path fill="#959595" fill-rule="nonzero" d="M1149.879 931.567h279.501v20.136h-279.501z"/><path fill="#FFFDF8" d="M1188.397 787.178h-8.16l-4.176-22.8h-.096l-4.128 22.8h-8.16l-6.384-33.984h7.824l3.504 23.664h.192l3.696-23.664h7.44l3.84 23.664h.144l3.456-23.664h7.44l-6.432 33.984zm9.216-25.104h7.344v4.224h.048c.896-3.328 2.576-4.992 5.04-4.992.256 0 .464.008.624.024.16.016.352.056.576.12l-.48 7.536c-.256-.064-.504-.12-.744-.168a4.623 4.623 0 0 0-.888-.072c-.64 0-1.2.168-1.68.504-.48.336-.888.776-1.224 1.32-.336.544-.592 1.184-.768 1.92a9.666 9.666 0 0 0-.264 2.256v12.432h-7.584v-25.104zm16.368 25.104v-25.104h7.584v25.104h-7.584zm7.92-31.92c0 1.216-.384 2.248-1.152 3.096-.768.848-1.76 1.272-2.976 1.272s-2.208-.424-2.976-1.272c-.768-.848-1.152-1.88-1.152-3.096 0-.608.104-1.176.312-1.704.208-.528.488-.992.84-1.392.352-.4.784-.72 1.296-.96a3.908 3.908 0 0 1 1.68-.36c.608 0 1.168.12 1.68.36s.944.56 1.296.96c.352.4.632.864.84 1.392.208.528.312 1.096.312 1.704zm17.136 31.728c-.416.224-1.008.416-1.776.576-.768.16-1.536.24-2.304.24-2.528 0-4.368-.68-5.52-2.04-1.152-1.36-1.728-3.4-1.728-6.12V767.93h-3.024v-5.856h2.976v-6.048h7.296v6.048h4.32v5.856h-4.32v9.984c0 1.216.192 2.104.576 2.664.384.56.992.84 1.824.84.672 0 1.232-.112 1.68-.336v5.904zm3.312.192v-25.104h7.584v25.104h-7.584zm7.92-31.92c0 1.216-.384 2.248-1.152 3.096-.768.848-1.76 1.272-2.976 1.272s-2.208-.424-2.976-1.272c-.768-.848-1.152-1.88-1.152-3.096 0-.608.104-1.176.312-1.704.208-.528.488-.992.84-1.392.352-.4.784-.72 1.296-.96a3.908 3.908 0 0 1 1.68-.36c.608 0 1.168.12 1.68.36s.944.56 1.296.96c.352.4.632.864.84 1.392.208.528.312 1.096.312 1.704zm12.816 6.816v3.552h.096c.416-1.216 1.152-2.264 2.208-3.144 1.056-.88 2.368-1.32 3.936-1.32 1.44 0 2.592.296 3.456.888.864.592 1.536 1.384 2.016 2.376s.8 2.128.96 3.408c.16 1.28.24 2.608.24 3.984v15.36h-7.536V771.77c0-1.056-.152-1.984-.456-2.784-.304-.8-.904-1.2-1.8-1.2-.928 0-1.648.424-2.16 1.272-.512.848-.768 1.96-.768 3.336v14.784h-7.536v-25.104h7.344zm37.92 0v23.328c0 4.288-.896 7.576-2.688 9.864-1.792 2.288-4.64 3.432-8.544 3.432-1.76 0-3.472-.312-5.136-.936-1.664-.624-3.04-1.4-4.128-2.328l3.504-5.568c.736.64 1.544 1.168 2.424 1.584.88.416 1.832.624 2.856.624 1.568 0 2.696-.544 3.384-1.632.688-1.088 1.032-2.448 1.032-4.08v-2.064h-.096c-.352.832-.992 1.576-1.92 2.232-.928.656-2 .984-3.216.984-1.376 0-2.584-.328-3.624-.984-1.04-.656-1.912-1.568-2.616-2.736-.704-1.168-1.232-2.544-1.584-4.128-.352-1.584-.528-3.288-.528-5.112 0-1.92.184-3.688.552-5.304.368-1.616.912-3.008 1.632-4.176.72-1.168 1.592-2.088 2.616-2.76 1.024-.672 2.208-1.008 3.552-1.008 1.44 0 2.568.352 3.384 1.056.816.704 1.416 1.6 1.8 2.688h.144v-2.976h7.2zm-7.056 12.528c0-.96-.064-1.848-.192-2.664-.128-.816-.328-1.536-.6-2.16-.272-.624-.608-1.112-1.008-1.464a2.074 2.074 0 0 0-1.416-.528c-.576 0-1.064.176-1.464.528-.4.352-.728.84-.984 1.464s-.448 1.344-.576 2.16a17.23 17.23 0 0 0-.192 2.664c0 .928.064 1.808.192 2.64.128.832.32 1.56.576 2.184.256.624.584 1.112.984 1.464.4.352.888.528 1.464.528.544 0 1.016-.176 1.416-.528.4-.352.736-.84 1.008-1.464s.472-1.352.6-2.184c.128-.832.192-1.712.192-2.64zm46.08 12.576l.288-23.328h-.192l-5.712 23.328h-5.424l-5.52-23.328h-.144l.24 23.328h-6.96v-33.984h9.696l5.472 21.888h.192l5.328-21.888h10.272v33.984h-7.536zm32.88-12.528c0 1.952-.24 3.752-.72 5.4-.48 1.648-1.16 3.064-2.04 4.248a9.426 9.426 0 0 1-3.264 2.784c-1.296.672-2.76 1.008-4.392 1.008-1.632 0-3.088-.336-4.368-1.008a9.96 9.96 0 0 1-3.288-2.784c-.912-1.184-1.608-2.6-2.088-4.248-.48-1.648-.72-3.448-.72-5.4 0-1.952.24-3.76.72-5.424.48-1.664 1.168-3.088 2.064-4.272a9.652 9.652 0 0 1 3.288-2.784c1.296-.672 2.76-1.008 4.392-1.008 1.632 0 3.096.336 4.392 1.008a9.426 9.426 0 0 1 3.264 2.784c.88 1.184 1.56 2.608 2.04 4.272.48 1.664.72 3.472.72 5.424zm-7.2-.048c0-.96-.064-1.848-.192-2.664-.128-.816-.32-1.536-.576-2.16-.256-.624-.584-1.112-.984-1.464-.4-.352-.888-.528-1.464-.528-.544 0-1.016.176-1.416.528-.4.352-.728.84-.984 1.464s-.448 1.344-.576 2.16a17.23 17.23 0 0 0-.192 2.664c0 .96.064 1.848.192 2.664.128.816.32 1.536.576 2.16.256.624.584 1.112.984 1.464.4.352.872.528 1.416.528.576 0 1.064-.176 1.464-.528.4-.352.728-.84.984-1.464s.448-1.344.576-2.16c.128-.816.192-1.704.192-2.664zm23.76 12.576v-3.024h-.096a6.41 6.41 0 0 1-1.752 2.664c-.816.752-1.992 1.128-3.528 1.128-1.312 0-2.488-.36-3.528-1.08-1.04-.72-1.912-1.696-2.616-2.928-.704-1.232-1.24-2.68-1.608-4.344-.368-1.664-.552-3.44-.552-5.328 0-1.856.176-3.576.528-5.16.352-1.584.88-2.952 1.584-4.104.704-1.152 1.576-2.056 2.616-2.712 1.04-.656 2.232-.984 3.576-.984 1.248 0 2.328.32 3.24.96.912.64 1.512 1.424 1.8 2.352h.144V750.89h7.44v36.288h-7.248zm.144-12.576c0-.96-.064-1.848-.192-2.664-.128-.816-.328-1.536-.6-2.16-.272-.624-.608-1.112-1.008-1.464a2.074 2.074 0 0 0-1.416-.528c-.576 0-1.064.176-1.464.528-.4.352-.728.84-.984 1.464s-.448 1.344-.576 2.16a17.23 17.23 0 0 0-.192 2.664c0 .928.064 1.808.192 2.64.128.832.32 1.56.576 2.184.256.624.584 1.112.984 1.464.4.352.888.528 1.464.528.544 0 1.016-.176 1.416-.528.4-.352.736-.84 1.008-1.464s.472-1.352.6-2.184c.128-.832.192-1.712.192-2.64zm18.816 1.92c0 .704.088 1.368.264 1.992.176.624.408 1.168.696 1.632.288.464.64.832 1.056 1.104.416.272.88.408 1.392.408.832 0 1.504-.272 2.016-.816a5.911 5.911 0 0 0 1.2-1.92l5.52 3.12c-.832 1.856-1.992 3.328-3.48 4.416-1.488 1.088-3.336 1.632-5.544 1.632-1.472 0-2.84-.288-4.104-.864-1.264-.576-2.368-1.432-3.312-2.568-.944-1.136-1.68-2.536-2.208-4.2-.528-1.664-.792-3.584-.792-5.76 0-2.048.248-3.912.744-5.592.496-1.68 1.2-3.104 2.112-4.272.912-1.168 1.992-2.072 3.24-2.712 1.248-.64 2.624-.96 4.128-.96 1.728 0 3.2.336 4.416 1.008a8.548 8.548 0 0 1 3 2.76c.784 1.168 1.352 2.56 1.704 4.176.352 1.616.528 3.384.528 5.304v2.112h-12.576zm5.664-4.896c0-1.344-.208-2.464-.624-3.36-.416-.896-1.104-1.344-2.064-1.344-.512 0-.952.152-1.32.456-.368.304-.68.688-.936 1.152a5.868 5.868 0 0 0-.576 1.536 7.03 7.03 0 0 0-.192 1.56h5.712z"/></g></svg>
