<svg xmlns="http://www.w3.org/2000/svg" viewBox="0 0 2197 972"><g fill="none" fill-rule="evenodd"><path fill="#43C280" fill-rule="nonzero" d="M541.51 152.445v292.01H169.277v-292.01c69.103 0 69.644-151.82 69.644-151.82h68.585c0 21.603 21.435 39.127 47.886 39.127 26.451 0 47.888-17.524 47.888-39.127h68.585s.54 151.82 69.643 151.82z"/><path fill="#959595" fill-rule="nonzero" d="M169.278 444.455h372.231v26.817H169.278z"/><path fill="#E7E5E2" fill-rule="nonzero" d="M169.278 471.275h372.23v26.817h-372.23z"/><text fill="#000" font-family="Amaranth-Regular, Amaranth" font-size="58"><tspan x="262.548" y="253.717">Display</tspan></text><path fill="#43C280" fill-rule="nonzero" d="M2028.51 152.445v292.01h-372.232v-292.01c69.103 0 69.644-151.82 69.644-151.82h68.585c0 21.603 21.435 39.127 47.886 39.127 26.451 0 47.888-17.524 47.888-39.127h68.585s.54 151.82 69.643 151.82z"/><path fill="#959595" fill-rule="nonzero" d="M1656.278 444.455h372.231v26.817h-372.231z"/><path fill="#E7E5E2" fill-rule="nonzero" d="M1656.278 471.275h372.23v26.817h-372.23z"/><text fill="#000" font-family="Amaranth-Regular, Amaranth" font-size="58"><tspan x="1739.369" y="253.717">CSS Grid</tspan></text><path fill="#43C280" fill-rule="nonzero" d="M1037.51 152.445v292.01H665.277v-292.01c69.103 0 69.644-151.82 69.644-151.82h68.585c0 21.603 21.435 39.127 47.886 39.127 26.451 0 47.888-17.524 47.888-39.127h68.585s.54 151.82 69.643 151.82z"/><path fill="#959595" fill-rule="nonzero" d="M665.278 444.455h372.231v26.817H665.278z"/><path fill="#E7E5E2" fill-rule="nonzero" d="M665.278 471.275h372.23v26.817h-372.23z"/><text fill="#000" font-family="Amaranth-Regular, Amaranth" font-size="58"><tspan x="806.833" y="213.717">Box</tspan> <tspan x="723.4" y="284.717">Alignment</tspan></text><path fill="#43C280" fill-rule="nonzero" d="M1532.51 152.445v292.01h-372.232v-292.01c69.103 0 69.644-151.82 69.644-151.82h68.585c0 21.603 21.435 39.127 47.886 39.127 26.451 0 47.888-17.524 47.888-39.127h68.585s.54 151.82 69.643 151.82z"/><path fill="#959595" fill-rule="nonzero" d="M1160.278 444.455h372.231v26.817h-372.231z"/><path fill="#E7E5E2" fill-rule="nonzero" d="M1160.278 471.275h372.23v26.817h-372.23z"/><text fill="#000" font-family="Amaranth-Regular, Amaranth" font-size="58"><tspan x="1200.072" y="253.717">Flexible Box</tspan></text><path fill="#43C280" fill-rule="nonzero" d="M2196.295 716.152v215.514h-279.502V716.152c51.888 0 52.295-112.05 52.295-112.05h51.499c0 15.945 16.095 28.878 35.956 28.878 19.862 0 35.959-12.933 35.959-28.877H2144s.405 112.049 52.294 112.049z"/><path fill="#E7E5E2" fill-rule="nonzero" d="M1916.793 951.737h279.501v20.136h-279.501z"/><path fill="#959595" fill-rule="nonzero" d="M1916.812 931.598h279.501v20.136h-279.501z"/><text fill="#000" font-family="Amaranth-Regular, Amaranth" font-size="48"><tspan x="2019.75" y="771.209">CSS </tspan> <tspan x="1945.446" y="829.209">Transforms</tspan></text><path fill="#43C280" fill-rule="nonzero" d="M1812.328 716.152v215.514h-279.502V716.152c51.889 0 52.295-112.05 52.295-112.05h51.5c0 15.945 16.094 28.878 35.956 28.878 19.861 0 35.958-12.933 35.958-28.877h51.5s.405 112.049 52.293 112.049z"/><path fill="#E7E5E2" fill-rule="nonzero" d="M1532.826 951.737h279.501v20.136h-279.501z"/><path fill="#959595" fill-rule="nonzero" d="M1532.845 931.598h279.501v20.136h-279.501z"/><text fill="#000" font-family="Amaranth-Regular, Amaranth" font-size="48"><tspan x="1557.756" y="800">CSS Shapes</tspan></text><path fill="#43C280" fill-rule="nonzero" d="M280.461 716.152v215.514H.96V716.152c51.888 0 52.294-112.05 52.294-112.05h51.5c0 15.945 16.095 28.878 35.956 28.878 19.862 0 35.958-12.933 35.958-28.877h51.5s.405 112.049 52.293 112.049z"/><path fill="#E7E5E2" fill-rule="nonzero" d="M.96 951.737h279.501v20.136H.96z"/><path fill="#959595" fill-rule="nonzero" d="M.979 931.598H280.48v20.136H.979z"/><text fill="#000" font-family="Amaranth-Regular, Amaranth" font-size="48"><tspan x="88.773" y="771.209">Ruby</tspan> <tspan x="70.653" y="829.209">Layout</tspan></text><path fill="#43C280" fill-rule="nonzero" d="M663.461 716.152v215.514H383.96V716.152c51.888 0 52.294-112.05 52.294-112.05h51.5c0 15.945 16.095 28.878 35.956 28.878 19.862 0 35.958-12.933 35.958-28.877h51.5s.405 112.049 52.293 112.049z"/><path fill="#E7E5E2" fill-rule="nonzero" d="M383.96 951.737h279.501v20.136H383.96z"/><path fill="#959595" fill-rule="nonzero" d="M383.979 931.598H663.48v20.136H383.979z"/><text fill="#000" font-family="Amaranth-Regular, Amaranth" font-size="48"><tspan x="466.901" y="771.209">Inline</tspan> <tspan x="453.653" y="829.209">Layout</tspan></text><path fill="#43C280" fill-rule="nonzero" d="M1046.395 716.152v215.514H766.893V716.152c51.888 0 52.295-112.05 52.295-112.05h51.499c0 15.945 16.095 28.878 35.956 28.878 19.862 0 35.959-12.933 35.959-28.877H994.1s.405 112.049 52.294 112.049z"/><path fill="#E7E5E2" fill-rule="nonzero" d="M766.893 951.737h279.501v20.136H766.893z"/><path fill="#959595" fill-rule="nonzero" d="M766.912 931.598h279.501v20.136H766.912z"/><text fill="#000" font-family="Amaranth-Regular, Amaranth" font-size="48"><tspan x="802.026" y="771.209">Positioned</tspan> <tspan x="836.586" y="829.209">Layout</tspan></text><path fill="#43C280" fill-rule="nonzero" d="M1429.361 716.152v215.514H1149.86V716.152c51.888 0 52.294-112.05 52.294-112.05h51.5c0 15.945 16.095 28.878 35.956 28.878 19.862 0 35.958-12.933 35.958-28.877h51.5s.405 112.049 52.293 112.049z"/><path fill="#E7E5E2" fill-rule="nonzero" d="M1149.86 951.737h279.501v20.136H1149.86z"/><path fill="#959595" fill-rule="nonzero" d="M1149.879 931.598h279.501v20.136h-279.501z"/><text fill="#000" font-family="Amaranth-Regular, Amaranth" font-size="48"><tspan x="1151.428" y="800">Writing Mode</tspan></text></g></svg>
