<svg xmlns="http://www.w3.org/2000/svg" viewBox="0 0 1052 1052"><path fill="#f0db4f" d="M0 0h1052v1052H0z"/><path fill="#f42a41" stroke="#f42a41" d="M269.449 130.387c19.876-19.333 33.399-24.232 79.128-28.672 24.853-2.41 31.57-5.574 48.811-23.007 15.521-15.685 25.502-22.689 42.969-30.154 21.558-9.205 36.322-11.107 80.86-10.404 42.976.675 67.162 3.5 96.952 11.329 36.053 9.486 53.851 16.428 76.669 29.931 24.973 14.773 44.071 29.44 30.241 23.218-1.778-.793-3.882-1.853-4.678-2.342-1.217-.749-11.682-4.117-31.677-10.193-34.042-10.353-69.734-12.271-104.15-5.585-48.867 9.49-88.989 28.62-119.924 57.185l-7.611 7.029h-50.46c-27.759 0-73.249-.106-101.101-.244-29.162-.146-50.633-.615-50.633-1.113-.004-1.298 7.782-10.352 14.604-16.978zM132.807 367.919c1.403-12.331 4.977-25.204 9.346-33.657l1.517-2.924 6.386 6.267c5.938 5.824 16.919 13.834 23.67 17.262 1.589.807 6.554 2.646 11.04 4.105 7.373 2.382 9.598 2.646 23.039 2.746 16.626.119 21.894-.9 34.371-6.658 9.683-4.469 14.156-8.28 17.506-14.917 4.852-9.611 3.384-21.187-3.581-28.149-7.729-7.732-21.828-11.219-45.417-11.239-28.951-.028-51.315 3.859-62.288 10.815-2.377 1.509-4.68 2.741-5.117 2.741-.914 0-1.303-.875-6.406-14.396-13.428-35.635-13.542-35.988-13.542-43.484 0-5.091.563-8.414 1.946-11.544 4.228-9.557 10.042-13.667 24.515-17.34 11.742-2.981 13.389-4.507 12.45-11.55-.344-2.62-.882-5.17-1.185-5.659-.874-1.424-11.729-.126-18.049 2.157-10.405 3.752-9.505 3.971-8.784-2.166 1.172-9.935 4.084-15.812 11.576-23.304 4.991-4.996 8.732-7.725 14.006-10.225 13.238-6.267 15.441-6.473 68.926-6.473h47.913l3.549 5.744c7.936 12.854 21.239 16.694 34.826 10.046 5.069-2.481 8.12-5.744 12.026-12.839l1.647-3.005 164.685.528 5.077 2.292c13.179 5.958 19.248 22.364 13.588 36.72-2.245 5.692-4.096 8.479-10.59 15.898-14.938 17.077-34.251 24.888-59.68 24.147-14.35-.425-14.688-.14-11.086 9.416 12.383 32.889 11.517 63.429-2.607 91.993-11.425 23.106-29.281 39.752-54.122 50.462-19.108 8.24-28.151 9.253-88.883 9.986-71.303.861-80.403 1.431-95.514 5.972-13.382 4.024-21.385 8.996-30.433 18.89-2.72 2.971-5.11 5.409-5.321 5.409-.211 0-1.271-.974-2.357-2.166-2.798-3.064-9.358-15.416-12.197-22.947-5.599-14.889-8.134-34.127-6.446-48.954zM373.47 925.657c-3.078 5.067-8.437 16.183-10.933 22.681-.61 1.591-2.285 7.42-3.721 12.96-2.382 9.208-2.616 11.668-2.66 28.324-.021 10.025.269 19.634.656 21.357.94 4.23-.431 4.064-7.916-.96-3.342-2.243-7.618-5.123-9.511-6.392-8.233-5.556-40.663-30.283-48.548-37.027-22.828-19.526-47.582-44.939-65.307-67.047-11.967-14.924-37.203-53.134-43.854-66.407-17.633-35.147-29.334-81.07-30.976-121.537-1.74-43.186 13.079-92.722 39.109-130.672 12.086-17.626 25.999-32.829 49.627-54.236 23.199-21.005 65.823-50.984 102.756-72.262 28.235-16.267 32.148-18.711 44.683-27.898 20.591-15.082 38.07-32.082 51.772-50.321 10.629-14.145 19.414-37.171 21.762-57.047 1.285-10.867.503-32.843-1.45-40.579-1.031-4.11-1.104-5.712-.276-6.401.608-.501 4.777-1.853 9.265-2.998 4.487-1.138 11.583-3.428 15.767-5.076l7.606-3.005 6.645 7.159c12.575 13.556 24.117 33.544 28.909 50.07 4.228 14.595 5.54 22.981 6.06 38.681 1.339 40.566-11.125 82.799-36.289 122.973-12.457 19.877-34.007 47.86-58.118 75.441-3.093 3.542-9.723 11.139-14.739 16.898-21.115 24.215-51.826 65.762-62.944 85.152-1.517 2.63-3.787 6.305-5.044 8.152-4.469 6.558-20.233 40.001-23.986 50.877-3.502 10.16-7.095 25.971-9.718 42.716-1.692 10.85-1.481 38.866.378 49.434 7.129 40.587 21.643 71.721 46.357 99.429 4.357 4.881 7.923 9.618 7.923 10.515-.003.906-1.485 4.072-3.285 7.046zM521.616 771.71c.635 6.342 1.363 12.263 1.627 13.164.531 1.804-2.071 3.842-15.023 11.799-7.547 4.634-17.647 11.346-31.398 20.861-24.392 16.88-63.977 53.877-77.816 72.732-3.817 5.209-8.113 9.596-9.384 9.596-.643 0-4.117-3.168-7.737-7.045-21.53-23.087-37.164-58.97-41.677-95.663-3.595-29.198 5.441-69.966 23.296-105.107 18.083-35.592 55.878-86.773 99.229-134.396 23.436-25.739 31.987-36.189 42.411-51.836 8.605-12.913 22.544-38.288 28.056-51.077 8.459-19.63 15.488-42.836 17.819-58.834 2.5-17.213 2.973-44.635.958-56.765-6.067-36.689-16.117-59.179-37.223-83.331-2.516-2.88-4.574-5.712-4.574-6.295 0-.582 1.561-2.546 3.468-4.367 1.906-1.822 6.009-6.766 9.114-10.989 7.79-10.59 7.333-10.165 10.26-9.53 6.979 1.515 24.093 8.214 35.715 13.978 30.043 14.913 53.827 34.854 77.3 64.797 10.528 13.436 24.096 40.737 31.986 64.375 7.916 23.72 9.743 48.878 5.448 75.168-1.489 9.14-6.236 26.759-8.654 32.153-.71 1.589-2.817 6.466-4.684 10.849-5.79 13.641-23.008 41.911-35.495 58.272-12 15.717-30.684 37.771-41.941 49.494-21.892 22.8-42.964 52.869-54.115 77.212-13.824 30.171-20.218 68.157-16.966 100.785zm253.343-129.034c-13.296 16.498-29.141 32.635-39.348 40.074-10.358 7.551-55.447 30.486-76.108 38.717-4.487 1.791-25.557 11.186-38.701 17.277-3.302 1.528-9.782 4.441-14.4 6.473-8.122 3.578-44.035 21.169-55.115 26.992-6.951 3.655-8.115 3.614-8.834-.256-1.397-7.472-1.786-31.715-.658-40.299 6.312-47.632 26.16-84.337 70.234-129.848 31.518-32.548 53.351-63.02 72.899-101.754 12.765-25.31 21.104-53.909 21.536-73.91.211-9.775-1.532-31.432-3.298-41.002-3.593-19.419-12.05-43.055-22.271-62.176-7.238-13.57-24.315-38.652-34.847-51.202-5.102-6.076-13.242-14.35-18.094-18.38-8.746-7.269-28.541-20.808-40.202-27.501-8.127-4.66-28.512-13.616-39.427-17.315-4.88-1.656-9.405-3.428-10.068-3.946-.701-.549-1.206-3.177-1.21-6.34-.024-7.491-2.036-15.282-5.549-21.511-1.631-2.9-2.707-5.54-2.388-5.865 1.178-1.178 37.488-.563 48.3.822 36.622 4.671 56.568 11.039 91.797 29.319 57.428 29.799 106.758 79.101 134.982 134.915 9.768 19.319 16.341 39.263 19.802 60.125 7.69 46.282 8.194 91.158 1.418 126.044-2.591 13.313-6.859 29.356-11.9 44.692-5.381 16.373-10.042 27.144-20.957 48.421-2.654 5.188-14.326 23.375-17.593 27.434zM912.68 503.418c-10.862 26.334-31.609 59.799-51.137 82.481-13.746 15.957-54.748 53.422-54.748 50.017 0-.603 2.331-5.499 5.176-10.879 9.616-18.183 20.718-47.727 25.952-69.086 1.399-5.687 4.051-15.838 5.906-22.558 7.252-26.328 9.193-49.369 7.193-85.519-2.045-37.071-10.41-78.358-21.219-104.767-8.112-19.823-21.96-44.683-31.537-56.629-26.932-33.611-46.429-52.962-75.316-74.759-27.984-21.114-55.315-35.779-87.02-46.7-36.053-12.415-60.453-15.713-112.504-15.196-17.459.179-30.658-.067-30.969-.563-1.343-2.178 19.811-16.21 36.231-24.046 17.122-8.162 25.264-11.093 45.808-16.508 24.967-6.58 57.5-7.758 84.946-3.071 42.325 7.229 90.682 28.42 126.111 55.272 20.001 15.164 47.36 41.294 60.123 57.413 3.141 3.964 7.473 9.146 9.646 11.524 5.505 6.029 15.28 19.041 21.994 29.274a1788.93 1788.93 0 008.254 12.482c3.128 4.655 9.911 18.084 15.867 31.421 12.582 28.162 21.855 62.856 25.854 96.717 4.094 34.686-.964 70.598-14.611 103.68z"/><path fill="#323330" d="M996.917 868.869c-4.956-30.893-25.101-56.832-84.764-81.031-20.725-9.525-43.83-16.348-50.717-32.051-2.446-9.141-2.768-14.289-1.223-19.824 4.44-17.957 25.873-23.557 42.864-18.408 10.941 3.67 21.304 12.1 27.547 25.553 29.22-18.924 29.155-18.795 49.558-31.795-7.465-11.586-11.456-16.928-16.348-21.883-17.57-19.631-41.513-29.736-79.809-28.963-6.629.836-13.322 1.738-19.952 2.574-19.114 4.826-37.329 14.867-48.013 28.318-32.053 36.365-22.913 100.02 16.09 126.215 38.424 28.834 94.869 35.398 102.078 62.365 7.015 33.018-24.265 43.701-55.352 39.904-22.912-4.762-35.656-16.412-49.43-37.586-25.358 14.674-25.358 14.674-51.425 29.67 6.179 13.516 12.68 19.629 23.042 31.344 49.043 49.752 171.781 47.307 193.792-27.998.904-2.574 6.825-19.822 2.062-46.404zM743.333 664.457h-63.332c0 54.707-.258 109.029-.258 163.736 0 34.818 1.803 66.742-3.861 76.525-9.269 19.244-33.275 16.863-44.217 13.131-11.134-5.473-16.798-13.26-23.363-24.266-1.802-3.154-3.153-5.6-3.604-5.793-17.185 10.492-34.305 21.047-51.489 31.537 8.56 17.572 21.175 32.824 37.33 42.736 24.135 14.482 56.573 18.922 90.491 11.135 22.076-6.436 41.128-19.758 51.104-40.033 14.417-26.58 11.328-58.762 11.199-94.354.322-58.053 0-116.106 0-174.354z"/></svg>