<svg xmlns="http://www.w3.org/2000/svg" viewBox="0 0 311.71 440"><defs><style>.cls-1{fill:#1572b6;}.cls-2{fill:#33a9dc;}.cls-3{fill:#131313;}.cls-4{fill:#fff;stroke:#fff;}</style></defs><g><path d="M28.37 404.66L0 86.49h311.71l-28.4 318.12L155.66 440z" class="cls-1"/><path d="M155.86 413L259 384.36l24.27-271.85H155.86z" class="cls-2"/></g><path d="M244.26 16.29h-25.87l26.9 29.19v13.9h-55.41V43.11h26.9l-26.9-29.2V0h54.38v16.29zm-65.37 0H153l26.9 29.19v13.9h-55.39V43.11h26.9l-26.9-29.2V0h54.39v16.29zm-64.72.71H86.25v25.43h27.92v17H66.41V0h47.76v17z" class="cls-3"/><path d="M91.53 154.41c5-4.83 8.35-6.06 19.78-7.17 6.21-.6 7.89-1.39 12.2-5.75 3.88-3.92 6.37-5.67 10.74-7.54 5.39-2.3 9.08-2.78 20.21-2.6 10.74.17 16.79.87 24.23 2.83 9 2.37 13.46 4.11 19.16 7.48 6.24 3.69 11 7.36 7.56 5.8-.44-.2-1-.46-1.17-.59s-2.92-1-7.92-2.55a54 54 0 0 0-26-1.4c-12.22 2.37-22.24 7.15-30 14.29l-1.9 1.76h-12.61c-6.94 0-18.31 0-25.27-.06-7.29 0-12.66-.15-12.66-.28 0-.3 1.95-2.56 3.65-4.22zm-34.15 59.37a26.18 26.18 0 0 1 2.34-8.41l.38-.73 1.6 1.57a29.71 29.71 0 0 0 5.92 4.31 28 28 0 0 0 2.76 1c1.84.6 2.4.66 5.76.69 4.16 0 5.47-.22 8.59-1.66 2.42-1.12 3.54-2.07 4.38-3.73a6.13 6.13 0 0 0-.9-7c-1.93-1.93-5.46-2.8-11.35-2.81-7.24 0-12.83 1-15.57 2.7a6.14 6.14 0 0 1-1.28.69c-.23 0-.33-.22-1.6-3.6-3.36-8.91-3.39-9-3.39-10.87a6.76 6.76 0 0 1 .48-2.93c1.06-2.39 2.51-3.42 6.13-4.33 2.94-.75 3.35-1.13 3.11-2.89a6.53 6.53 0 0 0-.3-1.41c-.22-.36-2.93 0-4.51.54-2.6.94-2.38 1-2.2-.54a8.68 8.68 0 0 1 2.89-5.83 11.55 11.55 0 0 1 3.5-2.56c3.31-1.57 3.86-1.62 17.23-1.62h12l.89 1.44a6.34 6.34 0 0 0 8.71 2.51 6.56 6.56 0 0 0 3-3.21l.41-.75 41.17.13 1.27.57a7.17 7.17 0 0 1 3.4 9.18 11.65 11.65 0 0 1-2.65 4c-3.73 4.27-8.56 6.22-14.92 6-3.59-.11-3.67 0-2.77 2.35 3.1 8.22 2.88 15.86-.65 23a25.9 25.9 0 0 1-13.53 12.61c-4.78 2.06-7 2.31-22.22 2.5-17.82.22-20.1.36-23.88 1.49a15 15 0 0 0-7.58 4.77 13.9 13.9 0 0 1-1.33 1.35 2.66 2.66 0 0 1-.59-.54A27.05 27.05 0 0 1 59 226a28.48 28.48 0 0 1-1.62-12.22zm60.16 139.42a46.12 46.12 0 0 0-2.73 5.67c-.15.4-.57 1.85-.93 3.24-.6 2.3-.65 2.92-.66 7.08a52.59 52.59 0 0 0 .16 5.34c.23 1.06-.11 1-2-.24l-2.38-1.6c-2.06-1.39-10.16-7.57-12.14-9.26a134 134 0 0 1-16.32-16.76 149.57 149.57 0 0 1-11-16.6 78.76 78.76 0 0 1-7.74-30.38c-.43-10.8 3.27-23.18 9.78-32.66 3-4.41 6.5-8.21 12.41-13.56s16.45-12.74 25.69-18.06c7.06-4.07 8-4.68 11.17-7a61.75 61.75 0 0 0 12.94-12.58 32.19 32.19 0 0 0 5.44-14.26 41.07 41.07 0 0 0-.36-10.14c-.26-1-.28-1.43-.07-1.6a12.39 12.39 0 0 1 2.32-.75 39.56 39.56 0 0 0 3.94-1.27l1.9-.75 1.66 1.79a34.24 34.24 0 0 1 7.23 12.52 33.49 33.49 0 0 1 1.51 9.67c.33 10.14-2.78 20.7-9.07 30.74a165.2 165.2 0 0 1-14.53 18.86l-3.68 4.22c-5.28 6.05-13 16.44-15.73 21.29-.38.66-.95 1.58-1.26 2a105.78 105.78 0 0 0-6 12.72 68.31 68.31 0 0 0-2.43 10.68 57.48 57.48 0 0 0 .09 12.36c1.78 10.15 5.41 17.93 11.59 24.85a12 12 0 0 1 2 2.63 6.28 6.28 0 0 1-.8 1.81zm37-38.48c.16 1.59.34 3.07.41 3.29.13.45-.52 1-3.76 2.95-1.89 1.16-4.41 2.84-7.85 5.21-6.1 4.22-16 13.47-19.45 18.18-1 1.3-2 2.4-2.35 2.4a9.37 9.37 0 0 1-1.93-1.76c-5.38-5.77-9.29-14.74-10.42-23.91-.9-7.3 1.36-17.49 5.82-26.27s14-21.69 24.8-33.59c5.86-6.43 8-9 10.6-13a106.81 106.81 0 0 0 7-12.77 65.39 65.39 0 0 0 4.45-14.71 60.57 60.57 0 0 0 .24-14.19c-1.52-9.17-4-14.79-9.3-20.83a6.64 6.64 0 0 1-1.14-1.57 3.32 3.32 0 0 1 .87-1.09 27.35 27.35 0 0 0 2.28-2.75c1.95-2.65 1.83-2.54 2.56-2.38a53.52 53.52 0 0 1 8.93 3.49c7.51 3.73 13.46 8.71 19.32 16.2 2.63 3.36 6 10.18 8 16.09a38.84 38.84 0 0 1 1.38 18.83 49.19 49.19 0 0 1-2.16 8c-.18.4-.7 1.62-1.17 2.71a90 90 0 0 1-8.87 14.57c-3 3.93-7.67 9.44-10.48 12.37a76.85 76.85 0 0 0-13.53 19.3 51.27 51.27 0 0 0-4.22 25.23zm63.33-32.25a62.8 62.8 0 0 1-9.84 10c-2.59 1.89-13.86 7.62-19 9.68-1.12.45-6.39 2.8-9.67 4.32-.83.38-2.45 1.11-3.6 1.62-2 .89-11 5.29-13.78 6.75-1.74.91-2 .9-2.21-.06a53.33 53.33 0 0 1-.16-10.07c1.58-11.91 6.54-21.08 17.56-32.46a98.53 98.53 0 0 0 18.22-25.44c3.19-6.33 5.28-13.48 5.38-18.48a71 71 0 0 0-.82-10.25 57.59 57.59 0 0 0-5.57-15.54 97.08 97.08 0 0 0-8.71-12.8 44 44 0 0 0-4.52-4.59 93.2 93.2 0 0 0-10-6.87 77.2 77.2 0 0 0-9.86-4.33 18.51 18.51 0 0 1-2.52-1 2.78 2.78 0 0 1-.3-1.58A11.3 11.3 0 0 0 157 166a3.51 3.51 0 0 1-.6-1.47c.29-.29 9.37-.14 12.07.21 9.15 1.17 14.14 2.76 22.95 7.33a79.55 79.55 0 0 1 33.78 33.73 51.88 51.88 0 0 1 4.95 15c1.92 11.57 2 22.79.35 31.51a96.41 96.41 0 0 1-3 11.17 73.56 73.56 0 0 1-5.24 12.1 78.66 78.66 0 0 1-4.36 6.88zm34.43-34.81a84.9 84.9 0 0 1-12.78 20.62c-3.44 4-13.69 13.35-13.69 12.5a20.66 20.66 0 0 1 1.29-2.72 87.18 87.18 0 0 0 6.49-17.27c.35-1.42 1-4 1.48-5.64 1.81-6.58 2.3-12.34 1.8-21.38-.51-9.27-2.6-19.59-5.3-26.19a68.37 68.37 0 0 0-7.88-14.16c-6.73-8.4-11.61-13.24-18.83-18.69a76.15 76.15 0 0 0-21.75-11.67c-9-3.1-15.11-3.93-28.12-3.8a67.15 67.15 0 0 1-7.74-.14c-.34-.54 5-4.05 9.06-6a52.87 52.87 0 0 1 11.46-4.12 53.56 53.56 0 0 1 21.23-.77A77.13 77.13 0 0 1 220.54 162a101.31 101.31 0 0 1 15 14.35c.79 1 1.87 2.29 2.41 2.88a71.24 71.24 0 0 1 5.5 7.32l2.06 3.12a71.64 71.64 0 0 1 4 7.85 85.94 85.94 0 0 1 6.49 24.22 52.18 52.18 0 0 1-3.68 25.91z" class="cls-4"/></svg>
