<svg xmlns="http://www.w3.org/2000/svg" xmlns:xlink="http://www.w3.org/1999/xlink" viewBox="0 0 565.375 87.5"><defs><path id="a" d="M-16.875-17.64h600.37v121.89h-600.37z"/></defs><clipPath id="b"><use overflow="visible" xlink:href="#a"/></clipPath><g clip-path="url(#b)"><path d="M374.901 25.637h6.596v35.398h-6.596V25.637z"/></g><g><defs><path id="c" d="M-16.875-17.64h600.37v121.89h-600.37z"/></defs><clipPath id="d"><use overflow="visible" xlink:href="#c"/></clipPath><g clip-path="url(#d)"><defs><path id="e" d="M-16.875-17.64h600.37v121.89h-600.37z"/></defs><defs><path id="g" d="M-16.875-17.64h600.37v121.89h-600.37z"/></defs><defs><path id="i" d="M-16.875-17.64h600.37v121.89h-600.37z"/></defs><defs><path id="k" d="M-16.875-17.64h600.37v121.89h-600.37z"/></defs><defs><path id="m" d="M-16.875-17.64h600.37v121.89h-600.37z"/></defs><defs><path id="o" d="M-16.875-17.64h600.37v121.89h-600.37z"/></defs><defs><path id="q" d="M-16.875-17.64h600.37v121.89h-600.37z"/></defs><clipPath id="f"><use overflow="visible" xlink:href="#e"/></clipPath><clipPath id="h" clip-path="url(#f)"><use overflow="visible" xlink:href="#g"/></clipPath><clipPath id="j" clip-path="url(#h)"><use overflow="visible" xlink:href="#i"/></clipPath><clipPath id="l" clip-path="url(#j)"><use overflow="visible" xlink:href="#k"/></clipPath><clipPath id="n" clip-path="url(#l)"><use overflow="visible" xlink:href="#m"/></clipPath><clipPath id="p" clip-path="url(#n)"><use overflow="visible" xlink:href="#o"/></clipPath><clipPath id="r" clip-path="url(#p)"><use overflow="visible" xlink:href="#q"/></clipPath><path d="M386.398 32.653h6.498v3.492c1.892-2.473 4.85-4.074 8.486-4.074 6.982 0 11.25 4.559 11.25 12.124v16.827h-6.645V44.874c0-4.365-2.133-7.128-6.4-7.128-3.732 0-6.645 2.764-6.645 7.71v15.565h-6.545V32.653h.001zM414.675 32.653h4.851v-4.315l6.595-4.51v8.825h5.771v5.868h-5.771v10.62c0 4.945.679 5.723 5.771 5.723v6.158h-.921c-8.776 0-11.444-2.813-11.444-11.832V38.521h-4.85l-.002-5.868zM433.639 46.91c0-8.292 6.448-14.839 14.742-14.839 8.438 0 14.596 6.207 14.596 14.597v2.473h-23.082c.873 3.978 4.073 6.692 8.729 6.692 3.637 0 6.498-1.987 7.855-4.995l5.383 3.104c-2.474 4.56-6.936 7.662-13.238 7.662-8.924 0-14.985-6.499-14.985-14.694m6.594-3.249h16.1c-.97-3.782-3.879-5.818-7.952-5.818-3.929 0-6.984 2.376-8.148 5.818M466.377 32.653h6.498v4.219c1.309-2.813 3.685-4.219 7.273-4.219 2.036 0 3.733.485 4.994 1.213l-2.474 6.207c-.97-.631-2.085-1.115-3.928-1.115-3.782 0-5.819 2.036-5.819 6.933v15.131h-6.546l.002-28.369zM487.765 32.653h6.498v3.492c1.892-2.473 4.85-4.074 8.485-4.074 6.983 0 11.25 4.559 11.25 12.124v16.827h-6.643V44.874c0-4.365-2.135-7.128-6.402-7.128-3.732 0-6.644 2.764-6.644 7.71v15.565h-6.546l.002-28.368zM517.349 46.91c0-8.292 6.448-14.839 14.742-14.839 8.438 0 14.597 6.207 14.597 14.597v2.473h-23.082c.872 3.978 4.072 6.692 8.729 6.692 3.637 0 6.498-1.987 7.855-4.995l5.383 3.104c-2.474 4.56-6.936 7.662-13.238 7.662-8.925 0-14.986-6.499-14.986-14.694m6.594-3.249h16.1c-.97-3.782-3.879-5.818-7.952-5.818-3.929 0-6.984 2.376-8.148 5.818M547.854 32.653h4.85v-4.315l6.596-4.51v8.825h5.771v5.868H559.3v10.62c0 4.945.68 5.723 5.771 5.723v6.158h-.922c-8.776 0-11.444-2.813-11.444-11.832V38.521h-4.849v-5.868h-.002z" clip-path="url(#r)"/><g><defs><path id="s" d="M-16.875-17.64h600.37v121.89h-600.37z"/></defs><clipPath id="t"><use overflow="visible" xlink:href="#s"/></clipPath><g clip-path="url(#t)"><defs><path id="u" d="M-16.875-17.64h600.37v121.89h-600.37z"/></defs><clipPath id="v"><use overflow="visible" xlink:href="#u"/></clipPath><path d="M123.727 35.168c-.161-.666-.123-1.371-.034-1.738.226-1.053.941-2.228 3.027-2.228 1.934 0 3.073 1.202 3.073 3.004v2.047h8.25V33.93c0-7.194-6.487-8.341-11.163-8.341-5.875 0-10.674 1.95-11.553 7.351-.24 1.483-.281 2.786.066 4.457 1.432 6.762 13.187 8.716 14.896 12.996.321.795.224 1.817.065 2.442-.272 1.11-1.018 2.233-3.23 2.233-2.066 0-3.302-1.205-3.302-3.012l-.012-3.182h-8.874v2.527c0 7.395 5.807 9.617 12.023 9.617 5.975 0 10.882-2.035 11.683-7.57.397-2.854.1-4.711-.035-5.413-1.396-6.939-13.939-8.995-14.88-12.867m107.558.082a4.42 4.42 0 0 1-.029-1.71c.237-1.059.948-2.213 2.997-2.213 1.911 0 3.03 1.19 3.03 2.977v2.023h8.154v-2.305c0-7.126-6.389-8.246-11.014-8.246-5.826 0-10.583 1.921-11.452 7.282-.23 1.46-.287 2.755.078 4.408 1.417 6.685 13.056 8.625 14.745 12.853.299.802.213 1.822.061 2.425-.253 1.101-.993 2.207-3.187 2.207-2.059 0-3.297-1.183-3.297-2.966l-.002-3.176h-8.777v2.523c0 7.311 5.726 9.518 11.894 9.518 5.907 0 10.785-2.02 11.568-7.49.373-2.827.092-4.668-.058-5.361-1.368-6.859-13.772-8.921-14.711-12.749m75.097 18.02l-7.788-26.626h-12.271V59.37h8.119l-.474-27.479 8.364 27.479h11.771V26.643h-8.172l.451 26.627zM150.343 26.643l-6.126 33.072h8.934l4.617-30.616 4.505 30.616h8.872l-6.101-33.072h-14.701zm49.955 0l-4.173 25.852-4.169-25.852h-13.493l-.715 33.072h8.266l.223-30.616 5.687 30.616h8.386l5.693-30.616.225 30.616h8.287l-.74-33.072h-13.477zm76.853 0h-8.364v24.466c.012.427 0 .904-.074 1.257-.174.821-.871 2.401-3.178 2.401-2.278 0-2.993-1.58-3.154-2.401-.084-.353-.094-.83-.084-1.257V26.643h-8.362V50.35c-.01.611.038 1.86.074 2.188.577 6.178 5.446 8.184 11.526 8.184 6.091 0 10.957-2.006 11.545-8.184.046-.326.107-1.575.071-2.188V26.643zm57.43 14.508v4.824h3.39v4.784c.012.429-.013.89-.087 1.259-.134.893-.981 2.412-3.388 2.412-2.393 0-3.225-1.521-3.37-2.412a8.304 8.304 0 0 1-.086-1.259V35.645c0-.535.036-1.119.149-1.562.164-.806.879-2.395 3.289-2.395 2.527 0 3.16 1.675 3.306 2.395.095.476.1 1.275.1 1.275v1.835h8.33v-1.084s.037-1.133-.063-2.189c-.625-6.204-5.736-8.166-11.6-8.166-5.871 0-10.88 1.98-11.607 8.166-.066.566-.168 1.584-.168 2.189v13.905c0 .604.02 1.074.133 2.18.544 6.033 5.771 8.173 11.621 8.173 5.885 0 11.076-2.14 11.63-8.173.098-1.104.108-1.574.122-2.18v-8.862l-11.701-.001z" clip-path="url(#v)"/><g><defs><path id="w" d="M-16.875-17.64h600.37v121.89h-600.37z"/></defs><clipPath id="x"><use overflow="visible" xlink:href="#w"/></clipPath><g clip-path="url(#x)"><defs><path id="y" d="M-16.875-17.64h600.37v121.89h-600.37z"/></defs><defs><path id="A" d="M-16.875-17.64h600.37v121.89h-600.37z"/></defs><defs><path id="C" d="M-16.875-17.64h600.37v121.89h-600.37z"/></defs><clipPath id="z"><use overflow="visible" xlink:href="#y"/></clipPath><clipPath id="B" clip-path="url(#z)"><use overflow="visible" xlink:href="#A"/></clipPath><clipPath id="D" clip-path="url(#B)"><use overflow="visible" xlink:href="#C"/></clipPath><path fill="#7882FF" d="M85.55 31.227c-1.046-7.896-3.841-15.052-8.77-20.293h-.001c-5.24-4.928-12.396-7.723-20.292-8.769-7.542-.999-12.677-.752-12.677-.752s-5.135-.247-12.677.752c-7.897 1.046-15.051 3.841-20.292 8.769-4.928 5.241-7.724 12.397-8.77 20.293-1 7.542-.753 12.678-.753 12.678s-.247 5.134.753 12.676c1.046 7.896 3.842 15.052 8.77 20.293 5.241 4.929 12.395 7.724 20.292 8.771 7.542.998 12.677.752 12.677.752s5.135.246 12.677-.752c7.896-1.047 15.052-3.842 20.292-8.771h.001c4.929-5.241 7.724-12.397 8.77-20.293.999-7.542.752-12.676.752-12.676s.247-5.136-.752-12.678" clip-path="url(#D)"/><path fill="#FFF" d="M65.569 37.608c3.359 12.078-3.708 24.593-15.787 27.953-12.077 3.359-24.592-3.709-27.951-15.788-3.36-12.078 3.709-24.592 15.786-27.952 12.078-3.359 24.593 3.709 27.952 15.787" clip-path="url(#D)"/><g clip-path="url(#D)"><g opacity=".1"><defs><path id="E" d="M.694.786h86.232v86.235H.694z"/></defs><clipPath id="F"><use overflow="visible" xlink:href="#E"/></clipPath><path d="M45.386 1.385c2.07 0 6.045.11 11.101.78 7.897 1.046 15.052 3.841 20.292 8.768h.002c4.928 5.242 7.723 12.398 8.769 20.293.999 7.542.753 12.677.753 12.677s.246 5.136-.753 12.678c-1.046 7.896-3.841 15.052-8.769 20.293h-.002c-5.24 4.929-12.395 7.724-20.292 8.771-5.052.668-9.023.779-11.095.779-1.021 0-1.582-.027-1.582-.027s-.56.027-1.581.027c-2.072 0-6.045-.111-11.096-.779-7.897-1.047-15.051-3.842-20.292-8.771-4.928-5.241-7.724-12.397-8.769-20.293-1-7.542-.754-12.678-.754-12.678s-.246-5.135.754-12.677c1.045-7.895 3.841-15.051 8.769-20.293 5.241-4.927 12.395-7.722 20.292-8.768 5.057-.67 9.031-.78 11.102-.78 1.017 0 1.575.026 1.575.026s.558-.026 1.576-.026m0-.6c-.905 0-1.447.021-1.576.026a40.113 40.113 0 0 0-1.575-.026c-1.962 0-6.022.103-11.181.786-8.476 1.123-15.607 4.209-20.623 8.927l-.014.013-.012.012C5.687 15.541 2.6 22.673 1.478 31.148.521 38.367.701 43.475.719 43.903c-.018.43-.198 5.537.759 12.757 1.122 8.475 4.209 15.605 8.926 20.624l.013.014.014.013c5.016 4.717 12.147 7.805 20.623 8.928 5.155.683 9.214.785 11.175.785.907 0 1.453-.021 1.581-.026.129.006.674.026 1.582.026 1.96 0 6.019-.104 11.173-.785 8.442-1.118 15.549-4.186 20.56-8.866l.017-.009.075-.078c4.716-5.018 7.804-12.148 8.926-20.624.957-7.222.776-12.328.759-12.757.017-.427.198-5.535-.759-12.755-1.122-8.476-4.21-15.608-8.926-20.625l-.178-.188h-.025c-5.004-4.626-12.07-7.655-20.45-8.765C51.407.888 47.346.785 45.386.785" clip-path="url(#F)"/></g><defs><path id="G" d="M-16.875-17.64h600.37v121.89h-600.37z"/></defs><defs><path id="I" d="M-16.875-17.64h600.37v121.89h-600.37z"/></defs><defs><path id="K" d="M-16.875-17.64h600.37v121.89h-600.37z"/></defs><defs><path id="M" d="M-16.875-17.64h600.37v121.89h-600.37z"/></defs><clipPath id="H"><use overflow="visible" xlink:href="#G"/></clipPath><clipPath id="J" clip-path="url(#H)"><use overflow="visible" xlink:href="#I"/></clipPath><clipPath id="L" clip-path="url(#J)"><use overflow="visible" xlink:href="#K"/></clipPath><clipPath id="N" clip-path="url(#L)"><use overflow="visible" xlink:href="#M"/></clipPath><path fill="#FFF" d="M65.569 37.608a22.593 22.593 0 0 1-.693 14.261M65.218 37.608a22.634 22.634 0 0 1 .586 9.442" clip-path="url(#N)"/><path fill="#4D5CC1" d="M58.886 59.632h-.003c-5.737-.001-12.731-1.458-19.693-4.104-6.962-2.645-13.158-6.198-17.448-10.008-6.972-6.192-6.54-10.991-5.663-13.3.878-2.31 3.742-6.184 13.063-6.184h.003c5.737.001 12.731 1.458 19.693 4.105C55.8 32.786 61.996 36.34 66.286 40.15c6.972 6.191 6.54 10.99 5.663 13.3-.878 2.308-3.742 6.182-13.063 6.182m-29.744-26.41c-4.307 0-6.16 1.064-6.345 1.55-.184.485.495 2.512 3.717 5.373 3.601 3.198 9.151 6.356 15.229 8.666 6.078 2.311 12.325 3.635 17.141 3.637h.002c4.307 0 6.16-1.065 6.345-1.551.184-.485-.495-2.514-3.716-5.373-3.602-3.198-9.152-6.356-15.23-8.667-6.078-2.31-12.325-3.634-17.141-3.635h-.002z" clip-path="url(#N)"/><path fill="#FFF" d="M22.798 34.852l42.405 16.111a22.59 22.59 0 0 0 .366-13.354c-3.36-12.078-15.874-19.146-27.952-15.786-6.935 1.927-12.213 6.879-14.819 13.029" clip-path="url(#N)"/></g></g></g></g></g></g></g></svg>