<svg viewBox="0 0 138 73" fill="none" xmlns="http://www.w3.org/2000/svg">
<path d="M33.695 5.60101L45.757 46.617L57.824 5.60101H66.555L46.587 72.987H45.756L33.276 31.228L20.797 72.987H19.965L0 5.60101H8.736L20.797 46.617L28.951 18.999L24.958 5.60201H33.695V5.60101Z" fill="#005A9C"/>
<path d="M91.355 51.356C91.355 57.46 89.731 62.59 86.493 66.75C83.245 70.908 79.043 72.987 73.886 72.987C70.004 72.987 66.623 71.749 63.738 69.285C60.853 66.815 58.718 63.473 57.332 59.263L64.152 56.434C65.153 58.986 66.469 60.996 68.105 62.462C69.741 63.931 71.665 64.669 73.886 64.669C76.215 64.669 78.186 63.363 79.795 60.758C81.404 58.152 82.206 55.02 82.206 51.357C82.206 47.308 81.345 44.178 79.624 41.958C77.629 39.354 74.495 38.046 70.227 38.046H66.9V34.055L78.546 13.922H64.484L60.573 20.577H58.08V5.60101H90.521V9.67601L78.211 30.893C82.535 32.278 85.807 34.804 88.026 38.464C90.246 42.123 91.355 46.417 91.355 51.356Z" fill="#005A9C"/>
<path d="M125.211 5.224L126.625 13.824L121.617 23.407C121.617 23.407 119.693 19.343 116.5 17.093C113.807 15.194 112.053 14.784 109.314 15.347C105.787 16.077 101.798 20.285 100.056 25.477C97.972 31.687 97.952 34.695 97.878 37.455C97.763 41.883 98.458 44.498 98.458 44.498C98.458 44.498 95.418 38.872 95.447 30.632C95.465 24.75 96.394 19.414 99.113 14.153C101.509 9.526 105.063 6.749 108.222 6.425C111.486 6.082 114.07 7.654 116.063 9.363C118.152 11.151 120.276 15.061 120.276 15.061L125.211 5.224Z" fill="#221B0A"/>
<path d="M125.823 53.898C125.823 53.898 123.615 57.855 122.234 59.378C120.855 60.902 118.385 63.587 115.338 64.933C112.289 66.276 110.692 66.531 107.677 66.239C104.667 65.949 101.87 64.207 100.891 63.475C99.9121 62.753 97.4051 60.611 95.9941 58.621C94.5741 56.621 92.3601 52.626 92.3601 52.626C92.3601 52.626 93.5931 56.627 94.3671 58.325C94.8091 59.302 96.1771 62.29 98.1161 64.897C99.9211 67.322 103.431 71.501 108.768 72.442C114.104 73.387 117.77 70.993 118.675 70.411C119.582 69.833 121.494 68.233 122.707 66.936C123.971 65.585 125.166 63.857 125.823 62.828C126.31 62.07 127.099 60.542 127.099 60.542L125.823 53.898Z" fill="#221B0A"/>
<path d="M132.592 0C135.085 0 137.077 2.032 137.077 4.525C137.077 7.058 135.085 9.068 132.572 9.068C130.081 9.068 128.048 7.058 128.048 4.525C128.048 2.032 130.081 0 132.572 0H132.592ZM132.554 0.906C130.665 0.906 129.137 2.535 129.137 4.545C129.137 6.574 130.665 8.164 132.573 8.164C134.485 8.183 136.033 6.574 136.033 4.545C136.033 2.535 134.485 0.906 132.573 0.906H132.554ZM131.791 7.16H130.724V2.131C131.125 2.073 131.57 1.99 132.334 1.99C133.196 1.99 133.721 2.131 134.06 2.394C134.34 2.615 134.505 2.957 134.505 3.479C134.505 4.082 134.082 4.503 133.539 4.645V4.687C133.98 4.765 134.263 5.166 134.34 5.913C134.443 6.696 134.543 6.998 134.624 7.16H133.52C133.397 6.977 133.317 6.535 133.215 5.85C133.138 5.308 132.815 5.087 132.273 5.087H131.792V7.16H131.791ZM131.791 4.262H132.291C132.915 4.262 133.396 4.063 133.396 3.539C133.396 3.118 133.095 2.795 132.371 2.795C132.11 2.795 131.93 2.795 131.791 2.816V4.262Z" fill="#221B0A"/>
</svg>
