<svg xmlns="http://www.w3.org/2000/svg" fill="none" viewBox="0 0 946 145"><path fill="#fff" fill-rule="evenodd" stroke="#1d877a" stroke-linecap="square" stroke-width="3" d="M220.745 61.031s-24.198-38.01-28.177-39.385c-3.978-1.374-166.045-1.374-167.531 0-.72.666 9.413 14.452 12.236 19.373 3.003 5.235 10.253 20.012 10.912 20.012h172.56z" clip-rule="evenodd"/><path stroke="#f48136" stroke-linecap="round" stroke-width="5" d="M223.634 86.619s7.594-2.756 9.295-8.42c1.701-5.664 0-16.777 0-16.777M120.388 121.98s-5.362 3.377-6.894 6.36c-1.533 2.982-.987 9.955-.987 9.955l-7.646 2.822M140.134 121.98s5.362 3.377 6.895 6.36c1.532 2.982.987 9.955.987 9.955l7.646 2.822"/><path fill="#fff" stroke="#1d877a" stroke-width="3" d="M49.62 61.61zm.302-.056a28.4 28.4 0 0 1 1.75-.17c1.388-.1 3.34-.191 5.785-.273 4.886-.165 11.69-.293 19.773-.388 16.166-.191 37.421-.252 58.642-.211 21.221.04 42.401.182 58.418.393 8.009.106 14.721.23 19.499.366 2.39.068 4.286.14 5.615.213.573.032 1.027.064 1.366.095.127.45.268 1.122.417 2.012.299 1.792.603 4.318.888 7.358.57 6.072 1.056 14.098 1.285 22.193.229 8.101.199 16.231-.254 22.523-.227 3.153-.557 5.79-.997 7.715-.221.965-.458 1.695-.695 2.203-.206.442-.354.586-.382.613l-.008.002c-.048.016-.211.071-.559.141a21.89 21.89 0 0 1-1.725.263c-1.456.177-3.447.344-5.911.499-4.923.31-11.655.569-19.606.776-15.899.415-36.621.623-57.385.623-20.763 0-41.555-.208-57.594-.623-8.021-.207-14.84-.466-19.869-.776-2.516-.155-4.566-.322-6.086-.499a26.637 26.637 0 0 1-1.832-.266 7.352 7.352 0 0 1-.544-.122 2.01 2.01 0 0 1-.201-.065c-.04-.019-.246-.151-.538-.664-.28-.494-.563-1.206-.832-2.153-.537-1.891-.953-4.491-1.253-7.611-.596-6.226-.705-14.283-.482-22.336.223-8.048.775-16.041 1.486-22.128.356-3.049.748-5.586 1.15-7.401.203-.913.399-1.598.576-2.058.039-.098.073-.18.103-.244zm.107-.2a.076.076 0 0 1 .01-.013l-.01.013z"/><path stroke="#000" stroke-linecap="round" stroke-width="4" d="M121.228 103.668s7.227 4.646 11.085 4.646c3.858 0 11.085-4.646 11.085-4.646M119.388 86.619v4.5M144.898 86.619v4.5"/><path fill="#fff" fill-rule="evenodd" stroke="#1d877a" stroke-linecap="square" stroke-width="3" d="M25.063 23.287c-2.185.94 0 66.578 0 66.578s21.424 37.482 22.4 36.058c.976-1.424 0-12.136 0-30.174 0-18.037.943-34.548.943-34.548S27.247 22.348 25.063 23.287z" clip-rule="evenodd"/><path stroke="#1d877a" stroke-linecap="square" stroke-width="3" d="M36.377 40.164h170.527"/><path stroke="#f48136" stroke-linecap="round" stroke-width="5" d="M35.242 80.523s-8.263-3.072-11.943-8.03c-3.681-4.956-10.6-13.627-10.6-13.627"/><g><path fill="#fff" fill-rule="evenodd" stroke="#1d877a" stroke-linecap="square" stroke-width="3" d="M368.37 61.031c.822-.879-24.198-38.01-28.177-39.385-3.978-1.374-86.045-1.374-87.531 0-.72.666 9.413 14.452 12.236 19.373 3.003 5.235 10.254 20.012 10.912 20.012 1.277 0 91.737.879 92.56 0z" clip-rule="evenodd"/><path stroke="#f48136" stroke-linecap="round" stroke-width="5" d="M371.259 86.619s7.594-2.756 9.295-8.42c1.701-5.664 0-16.777 0-16.777M308.013 121.98s-5.362 3.377-6.894 6.36c-1.533 2.982-.987 9.955-.987 9.955l-7.646 2.822M327.759 121.98s5.362 3.377 6.895 6.36c1.532 2.982.987 9.955.987 9.955l7.646 2.822"/><path fill="#fff" stroke="#1d877a" stroke-width="3" d="M275.625 61.44l.03-.135c.12-.02.261-.041.426-.063.728-.094 1.773-.184 3.11-.266 2.666-.163 6.391-.292 10.832-.387 8.877-.192 20.556-.252 32.221-.211 11.664.04 23.304.182 32.102.394 4.402.106 8.081.229 10.694.365a67.39 67.39 0 0 1 3.219.23c.071.479.146 1.146.223 1.99.167 1.82.335 4.37.492 7.425.314 6.104.582 14.166.708 22.294.126 8.132.11 16.308-.14 22.649-.125 3.174-.308 5.858-.557 7.834-.124.992-.261 1.769-.403 2.325a4.653 4.653 0 0 1-.176.562 6.503 6.503 0 0 1-.813.224c-.751.166-1.805.328-3.146.482-2.673.307-6.348.565-10.712.773-8.72.415-20.098.623-31.506.623-11.408 0-22.824-.208-31.622-.623-4.402-.208-8.126-.467-10.858-.774-1.37-.153-2.459-.316-3.248-.484a7.736 7.736 0 0 1-.885-.232 2.124 2.124 0 0 1-.105-.04 3.645 3.645 0 0 1-.224-.578c-.168-.538-.332-1.297-.484-2.275-.303-1.949-.535-4.6-.7-7.745-.331-6.281-.39-14.39-.267-22.477.123-8.084.427-16.119.819-22.245.197-3.066.414-5.635.639-7.486.113-.93.225-1.649.331-2.149zm.144-.546c.007-.019.011-.027.012-.026l-.012.026z"/><path stroke="#000" stroke-linecap="round" stroke-width="4" d="M310.853 103.668s7.227 4.646 11.085 4.646c3.858 0 11.085-4.646 11.085-4.646M309.013 86.619v4.5M334.523 86.619v4.5"/><path fill="#fff" fill-rule="evenodd" stroke="#1d877a" stroke-linecap="square" stroke-width="3" d="M252.688 23.287c-2.185.94 0 66.578 0 66.578s21.424 37.482 22.4 36.058c.976-1.424 0-12.136 0-30.174 0-18.037.943-34.548.943-34.548s-21.159-38.853-23.343-37.914z" clip-rule="evenodd"/><path stroke="#1d877a" stroke-linecap="square" stroke-width="3" d="M264.002 40.164h90.527"/><path stroke="#f48136" stroke-linecap="round" stroke-width="5" d="M262.867 80.523s-8.263-3.072-11.943-8.03c-3.681-4.956-10.601-13.627-10.601-13.627"/></g><g><path fill="#fff" fill-rule="evenodd" stroke="#1d877a" stroke-linecap="square" stroke-width="3" d="M496.37 61.031c.822-.879-24.198-38.01-28.177-39.385-3.978-1.374-66.045-1.374-67.531 0-.72.666 9.413 14.452 12.236 19.373 3.003 5.235 10.254 20.012 10.912 20.012 1.277 0 71.737.879 72.56 0z" clip-rule="evenodd"/><path stroke="#f48136" stroke-linecap="round" stroke-width="5" d="M499.259 86.619s7.594-2.756 9.295-8.42c1.701-5.664 0-16.777 0-16.777M453.013 121.98s-5.362 3.377-6.894 6.36c-1.533 2.982-.987 9.955-.987 9.955l-7.646 2.822M465.759 121.98s5.362 3.377 6.895 6.36c1.532 2.982.987 9.955.987 9.955l7.646 2.822"/><path fill="#fff" stroke="#1d877a" stroke-width="3" d="M422.98 61.509l.021-.12c.038-.008.079-.015.122-.022.558-.09 1.375-.178 2.437-.26 2.114-.162 5.076-.29 8.618-.385 7.077-.19 16.392-.25 25.699-.21 9.307.04 18.592.182 25.608.393 3.511.105 6.44.228 8.516.363.985.065 1.757.13 2.3.196.057.485.117 1.152.179 1.99.133 1.82.268 4.368.393 7.417.251 6.092.465 14.136.565 22.247.101 8.113.088 16.275-.112 22.607-.1 3.17-.246 5.856-.446 7.84-.1.995-.21 1.782-.327 2.352-.052.252-.1.44-.143.574-.11.044-.266.096-.478.155-.568.157-1.385.315-2.445.467-2.112.303-5.028.56-8.506.766-6.945.414-16.015.621-25.113.621-9.099 0-18.199-.207-25.206-.621-3.508-.206-6.464-.463-8.624-.767-1.083-.152-1.929-.311-2.53-.47a4.95 4.95 0 0 1-.616-.199 4.605 4.605 0 0 1-.177-.58c-.138-.554-.271-1.325-.393-2.307-.244-1.958-.429-4.614-.562-7.755-.264-6.275-.311-14.37-.213-22.44.098-8.067.341-16.086.654-22.201.157-3.06.331-5.63.512-7.484.09-.93.181-1.657.267-2.167zm73.594 64.906l-.011.007.011-.007zm-73.467-65.498a.298.298 0 0 1 0 0z"/><path stroke="#000" stroke-linecap="round" stroke-width="4" d="M448.853 103.668s7.227 4.646 11.085 4.646c3.858 0 11.085-4.646 11.085-4.646M447.013 86.619v4.5M472.523 86.619v4.5"/><path fill="#fff" fill-rule="evenodd" stroke="#1d877a" stroke-linecap="square" stroke-width="3" d="M400.688 23.287c-2.185.94 0 66.578 0 66.578s21.424 37.482 22.4 36.058c.976-1.424 0-12.136 0-30.174 0-18.037.943-34.548.943-34.548s-21.159-38.853-23.343-37.914z" clip-rule="evenodd"/><path stroke="#1d877a" stroke-linecap="square" stroke-width="3" d="M414.002 40.164h68.527"/><path stroke="#f48136" stroke-linecap="round" stroke-width="5" d="M410.867 80.523s-8.263-3.072-11.943-8.03c-3.681-4.956-10.601-13.627-10.601-13.627"/></g><g><path fill="#fff" fill-rule="evenodd" stroke="#1d877a" stroke-linecap="square" stroke-width="3" d="M625.37 61.031c.822-.879-24.198-38.01-28.177-39.385-3.978-1.374-66.045-1.374-67.531 0-.72.666 9.413 14.452 12.236 19.373 3.003 5.235 10.254 20.012 10.912 20.012 1.277 0 71.737.879 72.56 0z" clip-rule="evenodd"/><path stroke="#f48136" stroke-linecap="round" stroke-width="5" d="M628.259 86.619s7.594-2.756 9.295-8.42c1.701-5.664 0-16.777 0-16.777M582.013 121.98s-5.362 3.377-6.894 6.36c-1.533 2.982-.987 9.955-.987 9.955l-7.646 2.822M594.759 121.98s5.362 3.377 6.895 6.36c1.532 2.982.987 9.955.987 9.955l7.646 2.822"/><path fill="#fff" stroke="#1d877a" stroke-width="3" d="M551.98 61.509l.021-.12c.038-.008.079-.015.122-.022.558-.09 1.375-.178 2.437-.26 2.114-.162 5.076-.29 8.618-.385 7.077-.19 16.392-.25 25.699-.21 9.307.04 18.592.182 25.608.393 3.511.105 6.44.228 8.516.363.985.065 1.757.13 2.3.196.057.485.117 1.152.179 1.99.133 1.82.268 4.368.393 7.417.251 6.092.465 14.136.565 22.247.101 8.113.088 16.275-.112 22.607-.1 3.17-.246 5.856-.446 7.84-.1.995-.21 1.782-.327 2.352-.052.252-.1.44-.143.574-.11.044-.266.096-.478.155-.568.157-1.385.315-2.445.467-2.112.303-5.028.56-8.506.766-6.945.414-16.015.621-25.113.621-9.099 0-18.199-.207-25.206-.621-3.508-.206-6.464-.463-8.624-.767-1.083-.152-1.929-.311-2.53-.47a4.95 4.95 0 0 1-.616-.199 4.605 4.605 0 0 1-.177-.58c-.138-.554-.271-1.325-.393-2.307-.244-1.958-.429-4.614-.562-7.755-.264-6.275-.311-14.37-.213-22.44.098-8.067.341-16.086.654-22.201.157-3.06.331-5.63.512-7.484.09-.93.181-1.657.267-2.167zm73.594 64.906l-.011.007.011-.007zm-73.467-65.498a.298.298 0 0 1 0 0z"/><path stroke="#000" stroke-linecap="round" stroke-width="4" d="M577.853 103.668s7.227 4.646 11.085 4.646c3.858 0 11.085-4.646 11.085-4.646M576.013 86.619v4.5M601.523 86.619v4.5"/><path fill="#fff" fill-rule="evenodd" stroke="#1d877a" stroke-linecap="square" stroke-width="3" d="M529.688 23.287c-2.185.94 0 66.578 0 66.578s21.424 37.482 22.4 36.058c.976-1.424 0-12.136 0-30.174 0-18.037.943-34.548.943-34.548s-21.159-38.853-23.343-37.914z" clip-rule="evenodd"/><path stroke="#1d877a" stroke-linecap="square" stroke-width="3" d="M543.002 40.164h68.527"/><path stroke="#f48136" stroke-linecap="round" stroke-width="5" d="M539.867 80.523s-8.263-3.072-11.943-8.03c-3.681-4.956-10.601-13.627-10.601-13.627"/></g><g><path fill="#fff" fill-rule="evenodd" stroke="#1d877a" stroke-linecap="square" stroke-width="3" d="M781.159 61.531c.822-.879-24.198-38.01-28.177-39.385-3.978-1.374-86.045-1.374-87.531 0-.72.666 9.414 14.452 12.236 19.373 3.003 5.235 10.254 20.012 10.912 20.012 1.277 0 91.737.879 92.56 0z" clip-rule="evenodd"/><path stroke="#f48136" stroke-linecap="round" stroke-width="5" d="M784.048 87.119s7.594-2.756 9.295-8.42c1.701-5.664 0-16.777 0-16.777M720.802 122.48s-5.362 3.377-6.894 6.36c-1.533 2.982-.987 9.955-.987 9.955l-7.646 2.822M740.548 122.48s5.362 3.377 6.895 6.36c1.532 2.982.987 9.955.987 9.955l7.646 2.822"/><path fill="#fff" stroke="#1d877a" stroke-width="3" d="M688.414 61.94l.03-.135c.12-.02.262-.041.427-.063.727-.094 1.772-.184 3.109-.266 2.666-.163 6.391-.292 10.832-.387 8.877-.192 20.556-.252 32.221-.211 11.664.04 23.304.182 32.103.394 4.401.106 8.08.229 10.693.365a67.39 67.39 0 0 1 3.219.23c.071.479.146 1.146.223 1.99.167 1.82.335 4.37.492 7.425.314 6.104.582 14.166.708 22.294.126 8.132.11 16.308-.14 22.649-.125 3.174-.308 5.858-.557 7.834-.124.992-.261 1.769-.403 2.325a4.653 4.653 0 0 1-.176.562 6.503 6.503 0 0 1-.813.224c-.751.166-1.805.328-3.146.482-2.673.307-6.348.565-10.712.773-8.72.415-20.098.623-31.506.623-11.408 0-22.824-.208-31.622-.623-4.402-.208-8.126-.467-10.858-.774-1.37-.153-2.459-.316-3.248-.484a7.736 7.736 0 0 1-.885-.232 2.124 2.124 0 0 1-.105-.04 3.645 3.645 0 0 1-.224-.578c-.168-.538-.331-1.297-.484-2.275-.303-1.949-.535-4.6-.7-7.745-.331-6.281-.39-14.39-.267-22.477.123-8.084.427-16.119.819-22.245.197-3.066.414-5.635.639-7.486.114-.93.225-1.649.331-2.149zm.144-.546z"/><path stroke="#000" stroke-linecap="round" stroke-width="4" d="M723.642 104.168s7.228 4.646 11.085 4.646c3.858 0 11.085-4.646 11.085-4.646M721.802 87.119v4.5M747.312 87.119v4.5"/><path fill="#fff" fill-rule="evenodd" stroke="#1d877a" stroke-linecap="square" stroke-width="3" d="M665.477 23.787c-2.185.94 0 66.578 0 66.578s21.424 37.482 22.4 36.058c.976-1.424 0-12.136 0-30.174 0-18.037.943-34.548.943-34.548s-21.159-38.853-23.343-37.914z" clip-rule="evenodd"/><path stroke="#1d877a" stroke-linecap="square" stroke-width="3" d="M676.791 40.664h90.527"/><path stroke="#f48136" stroke-linecap="round" stroke-width="5" d="M675.656 81.023s-8.263-3.072-11.943-8.03c-3.681-4.956-10.601-13.627-10.601-13.627"/></g><g><path fill="#fff" fill-rule="evenodd" stroke="#1d877a" stroke-linecap="square" stroke-width="3" d="M930.159 61.531c.822-.879-24.198-38.01-28.177-39.385-3.978-1.374-86.045-1.374-87.531 0-.72.666 9.414 14.452 12.236 19.373 3.003 5.235 10.254 20.012 10.912 20.012 1.277 0 91.737.879 92.56 0z" clip-rule="evenodd"/><path stroke="#f48136" stroke-linecap="round" stroke-width="5" d="M933.048 87.119s7.594-2.756 9.295-8.42c1.701-5.664 0-16.777 0-16.777M869.802 122.48s-5.362 3.377-6.894 6.36c-1.533 2.982-.987 9.955-.987 9.955l-7.646 2.822M889.548 122.48s5.362 3.377 6.895 6.36c1.532 2.982.987 9.955.987 9.955l7.646 2.822"/><path fill="#fff" stroke="#1d877a" stroke-width="3" d="M837.414 61.94l.03-.135c.12-.02.262-.041.427-.063.727-.094 1.772-.184 3.109-.266 2.666-.163 6.391-.292 10.832-.387 8.877-.192 20.556-.252 32.221-.211 11.664.04 23.304.182 32.103.394 4.401.106 8.08.229 10.693.365a67.39 67.39 0 0 1 3.219.23c.071.479.146 1.146.223 1.99.167 1.82.335 4.37.492 7.425.314 6.104.582 14.166.708 22.294.126 8.132.11 16.308-.14 22.649-.125 3.174-.308 5.858-.557 7.834-.124.992-.261 1.769-.403 2.325a4.653 4.653 0 0 1-.176.562 6.503 6.503 0 0 1-.813.224c-.751.166-1.805.328-3.146.482-2.673.307-6.348.565-10.712.773-8.72.415-20.098.623-31.506.623-11.408 0-22.824-.208-31.622-.623-4.402-.208-8.126-.467-10.858-.774-1.37-.153-2.459-.316-3.248-.484a7.736 7.736 0 0 1-.885-.232 2.124 2.124 0 0 1-.105-.04 3.645 3.645 0 0 1-.224-.578c-.168-.538-.331-1.297-.484-2.275-.303-1.949-.535-4.6-.7-7.745-.331-6.281-.39-14.39-.267-22.477.123-8.084.427-16.119.819-22.245.197-3.066.414-5.635.639-7.486.114-.93.225-1.649.331-2.149zm.144-.546z"/><path stroke="#000" stroke-linecap="round" stroke-width="4" d="M872.642 104.168s7.228 4.646 11.085 4.646c3.858 0 11.085-4.646 11.085-4.646M870.802 87.119v4.5M896.312 87.119v4.5"/><path fill="#fff" fill-rule="evenodd" stroke="#1d877a" stroke-linecap="square" stroke-width="3" d="M814.477 23.787c-2.185.94 0 66.578 0 66.578s21.424 37.482 22.4 36.058c.976-1.424 0-12.136 0-30.174 0-18.037.943-34.548.943-34.548s-21.159-38.853-23.343-37.914z" clip-rule="evenodd"/><path stroke="#1d877a" stroke-linecap="square" stroke-width="3" d="M825.791 40.664h90.527"/><path stroke="#f48136" stroke-linecap="round" stroke-width="5" d="M824.656 81.023s-8.263-3.072-11.943-8.03c-3.681-4.956-10.601-13.627-10.601-13.627"/></g><path stroke="#f9d056" stroke-dasharray="18" stroke-width="6" d="M3 3h643.5v136H3z"/></svg>