<svg width="260" height="154" viewBox="0 0 260 154" fill="none" xmlns="http://www.w3.org/2000/svg">
<path d="M70.2743 7.85936C71.025 6.70059 70.6943 5.15262 69.5355 4.40187C68.3767 3.65112 66.8288 3.98188 66.078 5.14065L70.2743 7.85936ZM22.5 77L20.4019 75.6406L19.5148 77.0098L20.4108 78.373L22.5 77ZM66.0869 147.873C66.8453 149.027 68.3954 149.348 69.5492 148.589C70.703 147.831 71.0237 146.281 70.2653 145.127L66.0869 147.873ZM66.078 5.14065L20.4019 75.6406L24.5981 78.3594L70.2743 7.85936L66.078 5.14065ZM20.4108 78.373L66.0869 147.873L70.2653 145.127L24.5892 75.627L20.4108 78.373Z" fill="#fff"/>
<path d="M192.263 5.12364C191.503 3.97102 189.952 3.65285 188.8 4.413C187.647 5.17314 187.329 6.72375 188.089 7.87637L192.263 5.12364ZM237 77.5L239.069 78.9038L240.008 77.5199L239.087 76.1236L237 77.5ZM188.107 145.096C187.332 146.239 187.63 147.793 188.772 148.569C189.915 149.344 191.469 149.046 192.245 147.904L188.107 145.096ZM188.089 7.87637L234.913 78.8764L239.087 76.1236L192.263 5.12364L188.089 7.87637ZM234.931 76.0962L188.107 145.096L192.245 147.904L239.069 78.9038L234.931 76.0962Z" fill="#fff"/>
<circle cx="129.5" cy="76.5" r="38.5" stroke="#fff" stroke-width="5"/>
</svg>
