<svg xmlns="http://www.w3.org/2000/svg" fill="none" viewBox="0 0 786 534"><path fill="#fff" fill-rule="evenodd" stroke="#1d877a" stroke-linecap="square" stroke-width="3" d="M451.046 53.415c.823-.878-24.198-38.01-28.176-39.384-3.978-1.375-86.045-1.375-87.531 0-.72.665 9.413 14.451 12.236 19.372 3.003 5.235 10.253 20.012 10.912 20.012 1.277 0 91.737.879 92.559 0z" clip-rule="evenodd"/><path stroke="#f48136" stroke-linecap="round" stroke-width="5" d="M453.936 79.003s7.594-2.756 9.295-8.42c1.701-5.664 0-16.777 0-16.777M390.69 114.365s-5.362 3.377-6.895 6.359c-1.532 2.983-.986 9.955-.986 9.955l-7.646 2.822M410.436 114.365s5.362 3.377 6.895 6.359c1.532 2.983.986 9.955.986 9.955l7.646 2.822"/><path fill="#fff" stroke="#1d877a" stroke-width="3" d="M358.302 53.825l.03-.136c.12-.02.261-.04.426-.062.728-.095 1.773-.185 3.11-.267 2.666-.163 6.39-.291 10.832-.387 8.877-.191 20.555-.252 32.221-.21 11.664.04 23.304.181 32.102.393 4.401.106 8.081.23 10.693.365a67.527 67.527 0 0 1 3.22.23c.071.48.146 1.146.223 1.991.167 1.82.335 4.37.492 7.424.314 6.104.582 14.166.708 22.294.126 8.132.11 16.309-.14 22.649-.126 3.174-.309 5.858-.557 7.835-.124.992-.261 1.768-.404 2.324a4.315 4.315 0 0 1-.176.562 6.403 6.403 0 0 1-.813.224c-.75.166-1.805.328-3.145.482-2.673.307-6.348.565-10.712.773-8.721.415-20.098.623-31.506.623-11.408 0-22.824-.208-31.622-.623-4.402-.208-8.127-.466-10.859-.773-1.369-.154-2.458-.317-3.247-.485a7.736 7.736 0 0 1-.885-.232 2.952 2.952 0 0 1-.106-.039 3.624 3.624 0 0 1-.223-.578c-.168-.539-.332-1.298-.484-2.275-.303-1.949-.535-4.601-.701-7.746-.33-6.281-.389-14.39-.266-22.477.122-8.084.426-16.118.819-22.244.196-3.066.414-5.635.639-7.486.113-.93.225-1.65.331-2.15zm.144-.547a.175.175 0 0 1 .011-.026c.001 0-.003.01-.011.026z"/><path stroke="#000" stroke-linecap="round" stroke-width="4" d="M393.53 96.052s7.227 4.646 11.085 4.646c3.857 0 11.085-4.646 11.085-4.646M391.69 79.003v4.5M417.2 79.003v4.5"/><path fill="#fff" fill-rule="evenodd" stroke="#1d877a" stroke-linecap="square" stroke-width="3" d="M335.364 15.671c-2.184.94 0 66.578 0 66.578s21.425 37.482 22.401 36.059c.976-1.424 0-12.137 0-30.175 0-18.037.943-34.548.943-34.548s-21.159-38.853-23.344-37.914z" clip-rule="evenodd"/><path stroke="#1d877a" stroke-linecap="square" stroke-width="3" d="M346.679 32.548h90.527"/><path stroke="#f48136" stroke-linecap="round" stroke-width="5" d="M345.544 72.907s-8.263-3.072-11.944-8.03C329.92 59.922 323 51.25 323 51.25"/><path fill="#fff" fill-rule="evenodd" stroke="#1d877a" stroke-linecap="square" stroke-width="3" d="M211.713 254.031c.823-.879-24.198-38.01-28.176-39.385-3.978-1.374-86.045-1.374-87.531 0-.72.666 9.413 14.452 12.236 19.373 3.003 5.235 10.253 20.012 10.912 20.012 1.277 0 91.737.879 92.559 0z" clip-rule="evenodd"/><path stroke="#f48136" stroke-linecap="round" stroke-width="5" d="M214.603 279.619s7.594-2.756 9.295-8.42c1.701-5.664 0-16.777 0-16.777M151.357 314.98s-5.362 3.377-6.895 6.36c-1.532 2.982-.986 9.955-.986 9.955l-7.646 2.822M171.103 314.98s5.362 3.377 6.895 6.36c1.532 2.982.986 9.955.986 9.955l7.646 2.822"/><path fill="#fff" stroke="#1d877a" stroke-width="3" d="M118.969 254.44l.03-.135c.12-.02.261-.041.426-.063.727-.095 1.773-.184 3.11-.266 2.666-.163 6.39-.292 10.832-.387 8.877-.192 20.555-.252 32.221-.211 11.664.04 23.304.182 32.102.394 4.401.106 8.081.229 10.693.365 1.31.068 2.332.139 3.038.21l.182.02c.071.479.146 1.146.223 1.991.167 1.819.335 4.37.492 7.424.314 6.104.582 14.165.708 22.294.126 8.132.11 16.308-.14 22.649-.126 3.174-.309 5.858-.557 7.834-.125.992-.261 1.769-.404 2.325a4.315 4.315 0 0 1-.176.562 6.403 6.403 0 0 1-.813.224c-.75.166-1.805.328-3.145.482-2.673.307-6.348.565-10.712.773-8.721.415-20.098.623-31.506.623-11.408 0-22.824-.208-31.622-.623-4.402-.208-8.127-.467-10.859-.774-1.369-.153-2.458-.316-3.247-.484a7.736 7.736 0 0 1-.885-.232c-.043-.015-.078-.029-.106-.04a3.58 3.58 0 0 1-.223-.578c-.168-.538-.332-1.297-.484-2.275-.303-1.949-.535-4.6-.701-7.745-.33-6.281-.389-14.39-.266-22.477.122-8.084.426-16.119.819-22.245.196-3.066.414-5.635.639-7.486.113-.929.225-1.649.331-2.149zm.144-.546a.136.136 0 0 1 .011-.026c.001.001-.003.01-.011.026z"/><path stroke="#000" stroke-linecap="round" stroke-width="4" d="M154.197 296.668s7.227 4.646 11.085 4.646c3.857 0 11.085-4.646 11.085-4.646M152.357 279.619v4.5M177.867 279.619v4.5"/><path fill="#fff" fill-rule="evenodd" stroke="#1d877a" stroke-linecap="square" stroke-width="3" d="M96.031 216.287c-2.184.94 0 66.578 0 66.578s21.425 37.482 22.401 36.058c.976-1.424 0-12.136 0-30.174s.943-34.548.943-34.548-21.16-38.853-23.344-37.914z" clip-rule="evenodd"/><path stroke="#1d877a" stroke-linecap="square" stroke-width="3" d="M107.346 233.164h90.527"/><path stroke="#f48136" stroke-linecap="round" stroke-width="5" d="M106.211 273.523s-8.263-3.072-11.944-8.029c-3.68-4.957-10.6-13.628-10.6-13.628"/><g><path fill="#fff" fill-rule="evenodd" stroke="#1d877a" stroke-linecap="square" stroke-width="3" d="M370.448 254.031c.822-.879-24.198-38.01-28.177-39.385-3.978-1.374-86.045-1.374-87.531 0-.72.666 9.414 14.452 12.236 19.373 3.004 5.235 10.254 20.012 10.912 20.012 1.277 0 91.737.879 92.56 0z" clip-rule="evenodd"/><path stroke="#f48136" stroke-linecap="round" stroke-width="5" d="M373.337 279.619s7.594-2.756 9.295-8.42c1.701-5.664 0-16.777 0-16.777M310.091 314.98s-5.362 3.377-6.894 6.36c-1.533 2.982-.987 9.955-.987 9.955l-7.646 2.822M329.837 314.98s5.362 3.377 6.895 6.36c1.532 2.982.987 9.955.987 9.955l7.646 2.822"/><path fill="#fff" stroke="#1d877a" stroke-width="3" d="M277.703 254.44l.03-.135c.12-.02.262-.041.427-.063.727-.095 1.772-.184 3.109-.266 2.666-.163 6.391-.292 10.832-.387 8.877-.192 20.556-.252 32.221-.211 11.665.04 23.304.182 32.103.394 4.401.106 8.08.229 10.693.365 1.309.068 2.332.139 3.037.21l.182.02c.071.479.146 1.146.224 1.991.166 1.819.334 4.37.491 7.424.314 6.104.582 14.165.708 22.294.126 8.132.111 16.308-.14 22.649-.125 3.174-.308 5.858-.557 7.834-.124.992-.261 1.769-.403 2.325a4.653 4.653 0 0 1-.176.562 6.453 6.453 0 0 1-.813.224c-.751.166-1.805.328-3.146.482-2.673.307-6.348.565-10.712.773-8.72.415-20.098.623-31.506.623-11.408 0-22.824-.208-31.622-.623-4.402-.208-8.126-.467-10.858-.774-1.37-.153-2.459-.316-3.248-.484a7.65 7.65 0 0 1-.884-.232 1.87 1.87 0 0 1-.106-.04 3.645 3.645 0 0 1-.224-.578c-.167-.538-.331-1.297-.484-2.275-.303-1.949-.535-4.6-.7-7.745-.331-6.281-.39-14.39-.267-22.477.123-8.084.427-16.119.819-22.245.197-3.066.414-5.635.639-7.486.114-.929.225-1.649.331-2.149zm.144-.546a.225.225 0 0 1 0 0z"/><path stroke="#000" stroke-linecap="round" stroke-width="4" d="M312.931 296.668s7.228 4.646 11.085 4.646c3.858 0 11.085-4.646 11.085-4.646M311.091 279.619v4.5M336.601 279.619v4.5"/><path fill="#fff" fill-rule="evenodd" stroke="#1d877a" stroke-linecap="square" stroke-width="3" d="M254.766 216.287c-2.185.94 0 66.578 0 66.578s21.424 37.482 22.4 36.058c.976-1.424 0-12.136 0-30.174s.943-34.548.943-34.548-21.159-38.853-23.343-37.914z" clip-rule="evenodd"/><path stroke="#1d877a" stroke-linecap="square" stroke-width="3" d="M266.08 233.164h90.527"/><path stroke="#f48136" stroke-linecap="round" stroke-width="5" d="M264.945 273.523s-8.263-3.072-11.943-8.029c-3.681-4.957-10.601-13.628-10.601-13.628"/></g><g><path fill="#fff" fill-rule="evenodd" stroke="#1d877a" stroke-linecap="square" stroke-width="3" d="M529.338 254.031c.823-.879-24.198-38.01-28.176-39.385-3.978-1.374-86.045-1.374-87.531 0-.72.666 9.413 14.452 12.236 19.373 3.003 5.235 10.253 20.012 10.912 20.012 1.277 0 91.737.879 92.559 0z" clip-rule="evenodd"/><path stroke="#f48136" stroke-linecap="round" stroke-width="5" d="M532.228 279.619s7.594-2.756 9.295-8.42c1.701-5.664 0-16.777 0-16.777M468.982 314.98s-5.362 3.377-6.895 6.36c-1.532 2.982-.986 9.955-.986 9.955l-7.646 2.822M488.728 314.98s5.362 3.377 6.895 6.36c1.532 2.982.986 9.955.986 9.955l7.646 2.822"/><path fill="#fff" stroke="#1d877a" stroke-width="3" d="M436.594 254.44l.03-.135c.12-.02.261-.041.426-.063.727-.095 1.773-.184 3.11-.266 2.666-.163 6.39-.292 10.832-.387 8.877-.192 20.555-.252 32.221-.211 11.664.04 23.304.182 32.102.394 4.401.106 8.081.229 10.693.365 1.31.068 2.332.139 3.038.21l.182.02c.071.479.146 1.146.223 1.991.167 1.819.335 4.37.492 7.424.314 6.104.582 14.165.708 22.294.126 8.132.11 16.308-.14 22.649-.126 3.174-.309 5.858-.557 7.834-.125.992-.261 1.769-.404 2.325a4.315 4.315 0 0 1-.176.562 6.403 6.403 0 0 1-.813.224c-.75.166-1.805.328-3.145.482-2.673.307-6.348.565-10.712.773-8.721.415-20.098.623-31.506.623-11.408 0-22.824-.208-31.622-.623-4.402-.208-8.127-.467-10.859-.774-1.369-.153-2.458-.316-3.247-.484a7.736 7.736 0 0 1-.885-.232c-.043-.015-.078-.029-.106-.04a3.58 3.58 0 0 1-.223-.578c-.168-.538-.332-1.297-.484-2.275-.303-1.949-.535-4.6-.701-7.745-.33-6.281-.389-14.39-.266-22.477.122-8.084.426-16.119.819-22.245.196-3.066.414-5.635.639-7.486.113-.929.225-1.649.331-2.149zm.144-.546a.136.136 0 0 1 .011-.026c.001.001-.003.01-.011.026z"/><path stroke="#000" stroke-linecap="round" stroke-width="4" d="M471.822 296.668s7.227 4.646 11.085 4.646c3.857 0 11.085-4.646 11.085-4.646M469.982 279.619v4.5M495.492 279.619v4.5"/><path fill="#fff" fill-rule="evenodd" stroke="#1d877a" stroke-linecap="square" stroke-width="3" d="M413.656 216.287c-2.184.94 0 66.578 0 66.578s21.425 37.482 22.401 36.058c.976-1.424 0-12.136 0-30.174s.943-34.548.943-34.548-21.159-38.853-23.344-37.914z" clip-rule="evenodd"/><path stroke="#1d877a" stroke-linecap="square" stroke-width="3" d="M424.971 233.164h90.527"/><path stroke="#f48136" stroke-linecap="round" stroke-width="5" d="M423.836 273.523s-8.263-3.072-11.944-8.029c-3.68-4.957-10.6-13.628-10.6-13.628"/></g><g><path fill="#fff" fill-rule="evenodd" stroke="#1d877a" stroke-linecap="square" stroke-width="3" d="M687.338 254.031c.823-.879-24.198-38.01-28.176-39.385-3.978-1.374-86.045-1.374-87.531 0-.72.666 9.413 14.452 12.236 19.373 3.003 5.235 10.253 20.012 10.912 20.012 1.277 0 91.737.879 92.559 0z" clip-rule="evenodd"/><path stroke="#f48136" stroke-linecap="round" stroke-width="5" d="M690.228 279.619s7.594-2.756 9.295-8.42c1.701-5.664 0-16.777 0-16.777M626.982 314.98s-5.362 3.377-6.895 6.36c-1.532 2.982-.986 9.955-.986 9.955l-7.646 2.822M646.728 314.98s5.362 3.377 6.895 6.36c1.532 2.982.986 9.955.986 9.955l7.646 2.822"/><path fill="#fff" stroke="#1d877a" stroke-width="3" d="M594.594 254.44l.03-.135c.12-.02.261-.041.426-.063.727-.095 1.773-.184 3.11-.266 2.666-.163 6.39-.292 10.832-.387 8.877-.192 20.555-.252 32.221-.211 11.664.04 23.304.182 32.102.394 4.401.106 8.081.229 10.693.365 1.31.068 2.332.139 3.038.21l.182.02c.071.479.146 1.146.223 1.991.167 1.819.335 4.37.492 7.424.314 6.104.582 14.165.708 22.294.126 8.132.11 16.308-.14 22.649-.126 3.174-.309 5.858-.557 7.834-.125.992-.261 1.769-.404 2.325a4.315 4.315 0 0 1-.176.562 6.403 6.403 0 0 1-.813.224c-.75.166-1.805.328-3.145.482-2.673.307-6.348.565-10.712.773-8.721.415-20.098.623-31.506.623-11.408 0-22.824-.208-31.622-.623-4.402-.208-8.127-.467-10.859-.774-1.369-.153-2.458-.316-3.247-.484a7.736 7.736 0 0 1-.885-.232c-.043-.015-.078-.029-.106-.04a3.58 3.58 0 0 1-.223-.578c-.168-.538-.332-1.297-.484-2.275-.303-1.949-.535-4.6-.701-7.745-.33-6.281-.389-14.39-.266-22.477.122-8.084.426-16.119.819-22.245.196-3.066.414-5.635.639-7.486.113-.929.225-1.649.331-2.149zm.144-.546a.136.136 0 0 1 .011-.026c.001.001-.003.01-.011.026z"/><path stroke="#000" stroke-linecap="round" stroke-width="4" d="M629.822 296.668s7.227 4.646 11.085 4.646c3.857 0 11.085-4.646 11.085-4.646M627.982 279.619v4.5M653.492 279.619v4.5"/><path fill="#fff" fill-rule="evenodd" stroke="#1d877a" stroke-linecap="square" stroke-width="3" d="M571.656 216.287c-2.184.94 0 66.578 0 66.578s21.425 37.482 22.401 36.058c.976-1.424 0-12.136 0-30.174s.943-34.548.943-34.548-21.159-38.853-23.344-37.914z" clip-rule="evenodd"/><path stroke="#1d877a" stroke-linecap="square" stroke-width="3" d="M582.971 233.164h90.527"/><path stroke="#f48136" stroke-linecap="round" stroke-width="5" d="M581.836 273.523s-8.263-3.072-11.944-8.029c-3.68-4.957-10.6-13.628-10.6-13.628"/></g><path stroke="#f9d056" stroke-dasharray="18" stroke-linecap="square" stroke-width="6" d="M720.425 138.855H64.938V3h656.5"/><g stroke="#f9d056" stroke-dasharray="18" stroke-linecap="square" stroke-width="6"><path d="M63.547 200h656.5M63.547 335h656.5"/></g><path stroke="#f9d056" stroke-dasharray="18" stroke-linecap="square" stroke-width="6" d="M65.95 531h655.488V395.145h-656.5"/><g><path stroke="#f48136" stroke-linecap="square" stroke-width="6" d="M724.961 72h21c34.914 0 34.914 12.25 34.914 43.922 0 31.672 0 55.07-34.914 55.07-24.078 0-630.152-5.044-710.602 0C3 171.109 3 187.633 3 218.828s0 51.391 32.36 51.391h20.718"/><path fill="#f48136" fill-rule="evenodd" d="M35.321 236.71l31.072 31.071-31.072 31.072V236.71z" clip-rule="evenodd"/></g><g><path stroke="#f48136" stroke-linecap="square" stroke-width="6" d="M726.211 267.5h21c34.914 0 34.914 12.25 34.914 43.922 0 31.672 0 55.07-34.914 55.07-24.078 0-630.152-5.044-710.602 0-32.359.117-32.359 16.641-32.359 47.836s0 51.391 32.36 51.391h20.718"/><path fill="#f48136" fill-rule="evenodd" d="M36.571 432.21l31.072 31.071-31.072 31.072V432.21z" clip-rule="evenodd"/></g><g><path fill="#fff" fill-rule="evenodd" stroke="#1d877a" stroke-linecap="square" stroke-width="3" d="M562.046 446.415s-24.198-38.01-28.176-39.384c-3.978-1.375-151.045-1.375-152.531 0-.72.666 9.413 14.451 12.236 19.372 3.003 5.235 10.253 20.012 10.912 20.012h157.559z" clip-rule="evenodd"/><path stroke="#f48136" stroke-linecap="round" stroke-width="5" d="M565.936 472.003s7.594-2.756 9.295-8.42c1.701-5.664 0-16.777 0-16.777M474.69 507.365s-5.362 3.377-6.895 6.359c-1.532 2.983-.986 9.955-.986 9.955l-7.646 2.822M494.436 507.365s5.362 3.377 6.895 6.359c1.532 2.983.986 9.955.986 9.955l7.646 2.822"/><path fill="#fff" stroke="#1d877a" stroke-width="3" d="M405.32 446.602l.018-.005c-.011.004-.017.006-.018.005zm.332-.063l.054-.008c.339-.049.825-.099 1.465-.149 1.275-.098 3.071-.189 5.325-.271 4.504-.165 10.776-.293 18.23-.388 14.907-.191 34.508-.252 54.078-.211 19.569.041 39.102.182 53.871.393 7.386.106 13.574.229 17.979.366 2.204.068 3.95.14 5.172.213.475.029.861.057 1.157.085.118.455.247 1.124.382 2.003.277 1.796.557 4.325.821 7.366.525 6.075.973 14.103 1.185 22.201.211 8.102.184 16.237-.234 22.534-.21 3.155-.515 5.8-.923 7.732-.204.969-.424 1.706-.645 2.219-.172.399-.299.554-.335.596-.05.017-.188.064-.464.125-.38.084-.902.171-1.572.259-1.337.176-3.168.342-5.438.497-4.535.31-10.74.569-18.072.776-14.66.415-33.768.623-52.915.623s-38.32-.208-53.108-.623c-7.396-.207-13.682-.466-18.315-.776-2.319-.155-4.204-.321-5.6-.498a21.881 21.881 0 0 1-1.672-.263 6.644 6.644 0 0 1-.486-.117c-.109-.033-.154-.053-.155-.053l.001.001c.001 0-.186-.113-.462-.641-.261-.499-.525-1.217-.774-2.169-.497-1.898-.882-4.506-1.158-7.629-.551-6.233-.651-14.295-.445-22.351.205-8.05.714-16.047 1.37-22.138.329-3.05.691-5.591 1.064-7.412.187-.915.369-1.604.534-2.07.031-.087.06-.161.085-.222zm.112-.231l.011-.016-.011.016z"/><path stroke="#000" stroke-linecap="round" stroke-width="4" d="M473.53 489.052s7.227 4.646 11.085 4.646c3.857 0 11.085-4.646 11.085-4.646M471.69 472.003v4.5M497.2 472.003v4.5"/><path fill="#fff" fill-rule="evenodd" stroke="#1d877a" stroke-linecap="square" stroke-width="3" d="M381.364 408.671c-2.184.94 0 66.578 0 66.578s21.425 37.482 22.401 36.059c.976-1.424 0-12.137 0-30.175 0-18.037.943-34.548.943-34.548s-21.159-38.853-23.344-37.914z" clip-rule="evenodd"/><path stroke="#1d877a" stroke-linecap="square" stroke-width="3" d="M392.679 425.548h154.527"/><path stroke="#f48136" stroke-linecap="round" stroke-width="5" d="M391.544 465.907s-8.263-3.072-11.944-8.029c-3.68-4.957-10.6-13.628-10.6-13.628"/></g><g><path fill="#fff" fill-rule="evenodd" stroke="#1d877a" stroke-linecap="square" stroke-width="3" d="M348.046 446.415c.823-.878-24.198-38.01-28.176-39.384-3.978-1.375-66.045-1.375-67.531 0-.72.666 9.413 14.451 12.236 19.372 3.003 5.235 10.253 20.012 10.912 20.012 1.277 0 71.737.879 72.559 0z" clip-rule="evenodd"/><path stroke="#f48136" stroke-linecap="round" stroke-width="5" d="M350.936 472.003s7.594-2.756 9.295-8.42c1.701-5.664 0-16.777 0-16.777M304.69 507.365s-5.362 3.377-6.895 6.359c-1.532 2.983-.986 9.955-.986 9.955l-7.646 2.822M317.436 507.365s5.362 3.377 6.895 6.359c1.532 2.983.986 9.955.986 9.955l7.646 2.822"/><path fill="#fff" stroke="#1d877a" stroke-width="3" d="M274.657 446.893l.021-.121.122-.02c.558-.091 1.374-.179 2.436-.261 2.115-.162 5.077-.289 8.619-.385 7.077-.19 16.392-.25 25.699-.21 9.307.041 18.592.182 25.608.393 3.51.106 6.44.228 8.515.364.986.064 1.758.13 2.301.195.057.485.117 1.153.179 1.99.133 1.82.267 4.369.393 7.417.251 6.092.464 14.137.565 22.247.101 8.114.088 16.275-.112 22.607-.1 3.17-.247 5.856-.446 7.84-.1.995-.21 1.782-.327 2.352a5.986 5.986 0 0 1-.143.574c-.11.044-.266.097-.478.155-.568.157-1.385.315-2.446.467-2.111.303-5.027.56-8.505.767-6.946.413-16.015.62-25.113.62-9.099 0-18.199-.207-25.207-.62-3.508-.207-6.463-.464-8.623-.767-1.084-.152-1.93-.311-2.531-.471a5.017 5.017 0 0 1-.615-.198 4.687 4.687 0 0 1-.177-.581c-.138-.554-.271-1.325-.393-2.307-.244-1.958-.43-4.614-.562-7.755-.264-6.274-.311-14.37-.213-22.439.098-8.067.341-16.086.654-22.202.157-3.061.331-5.629.512-7.484.09-.93.18-1.657.267-2.167zm73.594 64.906l-.011.007.011-.007zm-73.467-65.498a.112.112 0 0 1 .008-.023.088.088 0 0 1-.008.023z"/><path stroke="#000" stroke-linecap="round" stroke-width="4" d="M300.53 489.052s7.227 4.646 11.085 4.646c3.857 0 11.085-4.646 11.085-4.646M298.69 472.003v4.5M324.2 472.003v4.5"/><path fill="#fff" fill-rule="evenodd" stroke="#1d877a" stroke-linecap="square" stroke-width="3" d="M252.364 408.671c-2.184.94 0 66.578 0 66.578s21.425 37.482 22.401 36.059c.976-1.424 0-12.137 0-30.175 0-18.037.943-34.548.943-34.548s-21.159-38.853-23.344-37.914z" clip-rule="evenodd"/><path stroke="#1d877a" stroke-linecap="square" stroke-width="3" d="M265.679 425.548h68.527"/><path stroke="#f48136" stroke-linecap="round" stroke-width="5" d="M262.544 465.907s-8.263-3.072-11.944-8.029c-3.68-4.957-10.6-13.628-10.6-13.628"/></g><g><path fill="#fff" fill-rule="evenodd" stroke="#1d877a" stroke-linecap="square" stroke-width="3" d="M692.046 446.415c.823-.878-24.198-38.01-28.176-39.384-3.978-1.375-66.045-1.375-67.531 0-.72.666 9.413 14.451 12.236 19.372 3.003 5.235 10.253 20.012 10.912 20.012 1.277 0 71.737.879 72.559 0z" clip-rule="evenodd"/><path stroke="#f48136" stroke-linecap="round" stroke-width="5" d="M694.936 472.003s7.594-2.756 9.295-8.42c1.701-5.664 0-16.777 0-16.777M648.69 507.365s-5.362 3.377-6.895 6.359c-1.532 2.983-.986 9.955-.986 9.955l-7.646 2.822M661.436 507.365s5.362 3.377 6.895 6.359c1.532 2.983.986 9.955.986 9.955l7.646 2.822"/><path fill="#fff" stroke="#1d877a" stroke-width="3" d="M618.657 446.893l.021-.121.122-.02c.558-.091 1.374-.179 2.436-.261 2.115-.162 5.077-.289 8.619-.385 7.077-.19 16.392-.25 25.699-.21 9.307.041 18.592.182 25.608.393 3.51.106 6.44.228 8.515.364.986.064 1.758.13 2.301.195.057.485.117 1.153.179 1.99.133 1.82.267 4.369.393 7.417.251 6.092.464 14.137.565 22.247.101 8.114.088 16.275-.112 22.607-.1 3.17-.247 5.856-.446 7.84-.1.995-.21 1.782-.327 2.352a5.986 5.986 0 0 1-.143.574c-.11.044-.266.097-.478.155-.568.157-1.385.315-2.446.467-2.111.303-5.027.56-8.505.767-6.946.413-16.015.62-25.113.62-9.099 0-18.199-.207-25.207-.62-3.508-.207-6.463-.464-8.623-.767-1.084-.152-1.93-.311-2.531-.471a5.017 5.017 0 0 1-.615-.198 4.687 4.687 0 0 1-.177-.581c-.138-.554-.271-1.325-.393-2.307-.244-1.958-.43-4.614-.562-7.755-.264-6.274-.311-14.37-.213-22.439.098-8.067.341-16.086.654-22.202.157-3.061.331-5.629.512-7.484.09-.93.18-1.657.267-2.167zm73.594 64.906l-.011.007.011-.007zm-73.467-65.498a.112.112 0 0 1 .008-.023.088.088 0 0 1-.008.023z"/><path stroke="#000" stroke-linecap="round" stroke-width="4" d="M644.53 489.052s7.227 4.646 11.085 4.646c3.857 0 11.085-4.646 11.085-4.646M642.69 472.003v4.5M668.2 472.003v4.5"/><path fill="#fff" fill-rule="evenodd" stroke="#1d877a" stroke-linecap="square" stroke-width="3" d="M596.364 408.671c-2.184.94 0 66.578 0 66.578s21.425 37.482 22.401 36.059c.976-1.424 0-12.137 0-30.175 0-18.037.943-34.548.943-34.548s-21.159-38.853-23.344-37.914z" clip-rule="evenodd"/><path stroke="#1d877a" stroke-linecap="square" stroke-width="3" d="M609.679 425.548h68.527"/><path stroke="#f48136" stroke-linecap="round" stroke-width="5" d="M606.544 465.907s-8.263-3.072-11.944-8.029c-3.68-4.957-10.6-13.628-10.6-13.628"/></g><g><path fill="#fff" fill-rule="evenodd" stroke="#1d877a" stroke-linecap="square" stroke-width="3" d="M216.046 446.415c.823-.878-24.198-38.01-28.176-39.384-3.978-1.375-66.045-1.375-67.531 0-.72.666 9.413 14.451 12.236 19.372 3.003 5.235 10.253 20.012 10.912 20.012 1.277 0 71.737.879 72.559 0z" clip-rule="evenodd"/><path stroke="#f48136" stroke-linecap="round" stroke-width="5" d="M218.936 472.003s7.594-2.756 9.295-8.42c1.701-5.664 0-16.777 0-16.777M172.69 507.365s-5.362 3.377-6.895 6.359c-1.532 2.983-.986 9.955-.986 9.955l-7.646 2.822M185.436 507.365s5.362 3.377 6.895 6.359c1.532 2.983.986 9.955.986 9.955l7.646 2.822"/><path fill="#fff" stroke="#1d877a" stroke-width="3" d="M142.657 446.893l.021-.121.122-.02c.558-.091 1.374-.179 2.436-.261 2.115-.162 5.077-.289 8.619-.385 7.077-.19 16.392-.25 25.699-.21 9.307.041 18.592.182 25.608.393 3.51.106 6.44.228 8.515.364.986.064 1.758.13 2.301.195.057.485.117 1.153.179 1.99.133 1.82.267 4.369.393 7.417.251 6.092.464 14.137.565 22.247.101 8.114.088 16.275-.112 22.607-.1 3.17-.247 5.856-.446 7.84-.1.995-.21 1.782-.327 2.352a5.986 5.986 0 0 1-.143.574c-.11.044-.266.097-.478.155-.568.157-1.385.315-2.446.467-2.111.303-5.027.56-8.505.767-6.946.413-16.015.62-25.113.62-9.099 0-18.199-.207-25.207-.62-3.508-.207-6.463-.464-8.623-.767-1.084-.152-1.93-.311-2.531-.471a5.017 5.017 0 0 1-.615-.198 4.687 4.687 0 0 1-.177-.581c-.138-.554-.271-1.325-.393-2.307-.244-1.958-.43-4.614-.562-7.755-.264-6.274-.311-14.37-.213-22.439.098-8.067.341-16.086.654-22.202.157-3.061.331-5.629.512-7.484.09-.93.18-1.657.267-2.167zm73.594 64.906l-.011.007.011-.007zm-73.467-65.498a.112.112 0 0 1 .008-.023.088.088 0 0 1-.008.023z"/><path stroke="#000" stroke-linecap="round" stroke-width="4" d="M168.53 489.052s7.227 4.646 11.085 4.646c3.857 0 11.085-4.646 11.085-4.646M166.69 472.003v4.5M192.2 472.003v4.5"/><path fill="#fff" fill-rule="evenodd" stroke="#1d877a" stroke-linecap="square" stroke-width="3" d="M120.364 408.671c-2.184.94 0 66.578 0 66.578s21.425 37.482 22.401 36.059c.976-1.424 0-12.137 0-30.175 0-18.037.943-34.548.943-34.548s-21.159-38.853-23.344-37.914z" clip-rule="evenodd"/><path stroke="#1d877a" stroke-linecap="square" stroke-width="3" d="M133.679 425.548h68.527"/><path stroke="#f48136" stroke-linecap="round" stroke-width="5" d="M130.544 465.907s-8.263-3.072-11.944-8.029c-3.68-4.957-10.6-13.628-10.6-13.628"/></g><g><path fill="#fff" fill-rule="evenodd" stroke="#1d877a" stroke-linecap="square" stroke-width="3" d="M692.046 53.415s-24.198-38.01-28.176-39.384c-3.978-1.375-166.045-1.375-167.531 0-.72.665 9.413 14.451 12.236 19.372 3.003 5.235 10.253 20.012 10.912 20.012h172.559z" clip-rule="evenodd"/><path stroke="#f48136" stroke-linecap="round" stroke-width="5" d="M694.936 79.003s7.594-2.756 9.295-8.42c1.701-5.664 0-16.777 0-16.777M591.69 114.365s-5.362 3.377-6.895 6.359c-1.532 2.983-.986 9.955-.986 9.955l-7.646 2.822M611.436 114.365s5.362 3.377 6.895 6.359c1.532 2.983.986 9.955.986 9.955l7.646 2.822"/><path fill="#fff" stroke="#1d877a" stroke-width="3" d="M520.923 53.995a.17.17 0 0 1 0 0zm.301-.057a28.425 28.425 0 0 1 1.751-.17c1.387-.1 3.338-.19 5.783-.273 4.887-.164 11.69-.293 19.774-.388 16.166-.191 37.42-.251 58.642-.21 21.22.04 42.401.181 58.417.392 8.01.106 14.722.23 19.499.366 2.391.069 4.287.14 5.616.214.572.032 1.027.063 1.365.094.128.45.269 1.122.418 2.012.299 1.792.603 4.318.888 7.358.57 6.072 1.055 14.098 1.284 22.193.23 8.101.2 16.231-.253 22.523-.227 3.153-.557 5.791-.997 7.715-.221.965-.458 1.696-.695 2.203-.207.442-.354.586-.382.613l-.008.003a4.73 4.73 0 0 1-.559.141c-.422.086-.995.174-1.725.263-1.457.176-3.448.343-5.912.498-4.922.31-11.654.569-19.606.777-15.898.415-36.621.622-57.384.622-20.763 0-41.556-.207-57.594-.622-8.021-.208-14.841-.467-19.869-.777-2.516-.155-4.566-.322-6.086-.499a26.552 26.552 0 0 1-1.832-.266 7.306 7.306 0 0 1-.544-.122 2.698 2.698 0 0 1-.154-.046c-.032-.011-.046-.018-.047-.018-.041-.02-.247-.152-.538-.665-.28-.494-.564-1.206-.832-2.153-.537-1.891-.954-4.49-1.253-7.611-.597-6.226-.705-14.283-.482-22.336.223-8.047.774-16.041 1.485-22.128.356-3.049.749-5.586 1.152-7.401.202-.913.398-1.597.575-2.057.038-.1.073-.18.103-.245zm.106-.2z"/><path stroke="#000" stroke-linecap="round" stroke-width="4" d="M592.53 96.052s7.227 4.646 11.085 4.646c3.857 0 11.085-4.646 11.085-4.646M590.69 79.003v4.5M616.2 79.003v4.5"/><path fill="#fff" fill-rule="evenodd" stroke="#1d877a" stroke-linecap="square" stroke-width="3" d="M496.364 15.671c-2.184.94 0 66.578 0 66.578s21.425 37.482 22.401 36.059c.976-1.424 0-12.137 0-30.175 0-18.037.943-34.548.943-34.548s-21.159-38.853-23.344-37.914z" clip-rule="evenodd"/><path stroke="#1d877a" stroke-linecap="square" stroke-width="3" d="M507.679 32.548h170.527"/><path stroke="#f48136" stroke-linecap="round" stroke-width="5" d="M506.544 72.907s-8.263-3.072-11.944-8.03C490.92 59.922 484 51.25 484 51.25"/></g><g><path fill="#fff" fill-rule="evenodd" stroke="#1d877a" stroke-linecap="square" stroke-width="3" d="M288.046 53.415s-24.198-38.01-28.176-39.384c-3.978-1.375-166.045-1.375-167.531 0-.72.665 9.413 14.451 12.236 19.372 3.003 5.235 10.253 20.012 10.912 20.012h172.559z" clip-rule="evenodd"/><path stroke="#f48136" stroke-linecap="round" stroke-width="5" d="M290.936 79.003s7.594-2.756 9.295-8.42c1.701-5.664 0-16.777 0-16.777M187.69 114.365s-5.362 3.377-6.895 6.359c-1.532 2.983-.986 9.955-.986 9.955l-7.646 2.822M207.436 114.365s5.362 3.377 6.895 6.359c1.532 2.983.986 9.955.986 9.955l7.646 2.822"/><path fill="#fff" stroke="#1d877a" stroke-width="3" d="M116.923 53.995a.17.17 0 0 1 0 0zm.301-.057a28.425 28.425 0 0 1 1.751-.17c1.387-.1 3.338-.19 5.783-.273 4.887-.164 11.69-.293 19.774-.388 16.166-.191 37.42-.251 58.642-.21 21.22.04 42.401.181 58.417.392 8.01.106 14.722.23 19.499.366 2.391.069 4.287.14 5.616.214.572.032 1.027.063 1.365.094.128.45.269 1.122.418 2.012.299 1.792.603 4.318.888 7.358.57 6.072 1.055 14.098 1.284 22.193.23 8.101.2 16.231-.253 22.523-.227 3.153-.557 5.791-.997 7.715-.221.965-.458 1.696-.695 2.203-.207.442-.354.586-.382.613l-.008.003a4.73 4.73 0 0 1-.559.141c-.422.086-.995.174-1.725.263-1.457.176-3.448.343-5.912.498-4.922.31-11.654.569-19.606.777-15.898.415-36.621.622-57.384.622-20.763 0-41.556-.207-57.594-.622-8.021-.208-14.841-.467-19.869-.777-2.516-.155-4.566-.322-6.086-.499a26.552 26.552 0 0 1-1.832-.266 7.306 7.306 0 0 1-.544-.122 2.698 2.698 0 0 1-.154-.046c-.032-.011-.046-.018-.047-.018-.041-.02-.247-.152-.538-.665-.28-.494-.564-1.206-.832-2.153-.537-1.891-.954-4.49-1.253-7.611-.597-6.226-.705-14.283-.482-22.336.223-8.047.774-16.041 1.485-22.128.356-3.049.749-5.586 1.152-7.401.202-.913.398-1.597.575-2.057.038-.1.073-.18.103-.245zm.106-.2z"/><path stroke="#000" stroke-linecap="round" stroke-width="4" d="M188.53 96.052s7.227 4.646 11.085 4.646c3.857 0 11.085-4.646 11.085-4.646M186.69 79.003v4.5M212.2 79.003v4.5"/><path fill="#fff" fill-rule="evenodd" stroke="#1d877a" stroke-linecap="square" stroke-width="3" d="M92.364 15.671c-2.184.94 0 66.578 0 66.578s21.425 37.482 22.401 36.059c.976-1.424 0-12.137 0-30.175 0-18.037.943-34.548.943-34.548S94.548 14.732 92.364 15.67z" clip-rule="evenodd"/><path stroke="#1d877a" stroke-linecap="square" stroke-width="3" d="M103.679 32.548h170.527"/><path stroke="#f48136" stroke-linecap="round" stroke-width="5" d="M102.544 72.907s-8.263-3.072-11.944-8.03C86.92 59.922 80 51.25 80 51.25"/></g></svg>