<svg xmlns="http://www.w3.org/2000/svg" fill="none" viewBox="0 0 764 491"><path stroke="#0CF7DA" stroke-width="5" d="M81.5 73.5h620v415h-620z"/><path stroke="#EB1AF2" stroke-linecap="square" stroke-width="20" d="M391.5 85.94v390"/><path fill="#EB1AF2" fill-opacity=".75" d="M84 76h142.5v410H84zM246.5 76H699v410H246.5z"/><path fill="#BDDBFF" fill-opacity=".65" d="M556.5 76H699v410H556.5zM246.5 76h290v410h-290z"/><path stroke="#9013FE" stroke-width="3" d="M81.5 36v35"/><path fill="#fff" d="M2.349 7.2h5.16v1.008h-2.76v20.304h2.76v1.008h-5.16V7.2zm20.056 4.2v1.536h-2.808c.224.224.432.536.624.936s.288.88.288 1.44c0 1.184-.463 2.136-1.392 2.856-.928.72-2.264 1.08-4.008 1.08h-.816a4.22 4.22 0 01-.72-.12 4.99 4.99 0 01-.312.528 1.052 1.052 0 00-.167.576c0 .336.208.592.623.768.416.16.936.312 1.56.456.625.128 1.304.264 2.04.408a8.906 8.906 0 012.04.6c.64.256 1.169.6 1.585 1.032.416.432.623 1 .623 1.704 0 .608-.16 1.136-.48 1.584-.303.464-.744.84-1.32 1.128-.56.304-1.232.528-2.015.672a14.24 14.24 0 01-2.569.216c-2 0-3.495-.264-4.487-.792-.993-.528-1.489-1.256-1.489-2.184 0-.896.304-1.584.912-2.064.608-.48 1.464-.88 2.568-1.2a4.186 4.186 0 01-1.008-.576c-.255-.208-.383-.52-.383-.936 0-.192.047-.384.143-.576.097-.208.225-.4.385-.576.16-.192.336-.36.528-.504a3.47 3.47 0 01.552-.384c-1.024-.272-1.816-.736-2.377-1.392-.543-.656-.816-1.44-.816-2.352 0-1.168.457-2.104 1.369-2.808.912-.704 2.256-1.056 4.032-1.056h7.296zm-3.36 14.376c0-.528-.192-.952-.576-1.272-.367-.304-.84-.552-1.416-.744a11.635 11.635 0 00-1.824-.504 18.363 18.363 0 01-1.847-.456c-.672.4-1.12.8-1.345 1.2a2.913 2.913 0 00-.312 1.32c0 .672.337 1.232 1.008 1.68.672.448 1.649.672 2.928.672.656 0 1.2-.056 1.633-.168.431-.096.776-.232 1.032-.408.271-.176.456-.376.552-.6.111-.224.168-.464.168-.72zM12.23 15.264c0 .416.049.8.145 1.152.095.352.247.656.455.912.224.24.52.432.888.576.368.144.832.216 1.393.216 1.024 0 1.76-.256 2.207-.768.448-.528.672-1.224.672-2.088 0-.336-.015-.616-.047-.84a3.14 3.14 0 00-.096-.6 2.67 2.67 0 00-.12-.456l-.145-.432a4.115 4.115 0 00-1.175-.312 8.515 8.515 0 00-1.296-.096c-1.088 0-1.84.224-2.256.672-.416.448-.624 1.136-.624 2.064zm17.228-1.704a3.374 3.374 0 00-.912.672c-.24.256-.496.624-.768 1.104V22.8h2.112V24H23.48v-1.2h1.776V12.6H23.48v-1.2h4.296v2.424h.096c.272-.528.592-.984.96-1.368A6.61 6.61 0 0130.08 11.4h2.304v2.16h-2.928zM40.175 24h-6.072v-1.2h1.776V12.6h-1.776v-1.2H38.4v11.4h1.776V24zM35.351 7.512c0-.464.16-.832.48-1.104.336-.272.76-.408 1.272-.408.544 0 .968.136 1.272.408.32.272.48.64.48 1.104 0 .464-.16.832-.48 1.104-.304.272-.728.408-1.272.408-.512 0-.936-.136-1.272-.408-.32-.272-.48-.64-.48-1.104zm15.837 13.992a3.48 3.48 0 01-.48 1.056 3.474 3.474 0 01-.792.888 3.422 3.422 0 01-1.056.6c-.4.144-.832.216-1.296.216-1.776 0-3.112-.52-4.008-1.56-.88-1.056-1.32-2.696-1.32-4.92 0-1.072.144-2.016.432-2.832.304-.832.728-1.528 1.272-2.088s1.2-.984 1.968-1.272c.768-.288 1.624-.432 2.568-.432.336 0 .624.008.864.024s.464.04.672.072c.208.032.408.08.6.144.192.048.4.104.624.168V7.2h-2.04V6h4.56v16.8h1.632V24H51.5l-.216-2.496h-.096zm-3.072 1.152c.88 0 1.568-.248 2.064-.744s.848-1.184 1.056-2.064v-7.08c-.32-.16-.68-.28-1.08-.36-.384-.08-.896-.12-1.536-.12-.592 0-1.12.128-1.584.384a3.435 3.435 0 00-1.152 1.104c-.304.48-.536 1.064-.696 1.752a9.758 9.758 0 00-.24 2.256c0 .672.056 1.304.168 1.896.128.592.32 1.112.576 1.56.256.432.584.776.984 1.032s.88.384 1.44.384zm19.608-.264c-.336.464-.872.896-1.608 1.296-.72.384-1.576.576-2.568.576-1.056 0-1.984-.152-2.784-.456-.784-.32-1.44-.76-1.968-1.32a5.48 5.48 0 01-1.176-2.064c-.256-.816-.384-1.72-.384-2.712 0-2.128.56-3.752 1.68-4.872 1.136-1.12 2.672-1.68 4.608-1.68.88 0 1.608.056 2.184.168a6.147 6.147 0 011.584.528v3.12h-2.16v-2.304c-.24-.144-.72-.216-1.44-.216-.608 0-1.144.088-1.608.264a2.72 2.72 0 00-1.176.864c-.32.4-.56.936-.72 1.608-.16.672-.24 1.496-.24 2.472 0 .64.088 1.256.264 1.848.176.576.44 1.088.792 1.536.352.432.792.776 1.32 1.032.544.256 1.176.384 1.896.384.384 0 .72-.04 1.008-.12.304-.08.568-.16.792-.24.224-.096.424-.2.6-.312.176-.112.344-.232.504-.36l.6.96zm2.075-4.68c0-1.056.152-1.992.456-2.808.304-.816.728-1.496 1.272-2.04a5.483 5.483 0 012.016-1.272c.8-.288 1.68-.432 2.64-.432 1.12 0 2.08.16 2.88.48.816.304 1.48.744 1.992 1.32.512.56.888 1.248 1.128 2.064.256.8.384 1.696.384 2.688 0 1.056-.152 1.992-.456 2.808-.288.8-.712 1.48-1.272 2.04-.544.544-1.216.96-2.016 1.248-.784.288-1.664.432-2.64.432-1.088 0-2.032-.152-2.832-.456-.8-.32-1.464-.76-1.992-1.32a5.48 5.48 0 01-1.176-2.064c-.256-.8-.384-1.696-.384-2.688zm2.712 0c0 .768.072 1.48.216 2.136.144.656.376 1.224.696 1.704.336.48.76.864 1.272 1.152.528.272 1.168.408 1.92.408.944 0 1.72-.432 2.328-1.296.608-.864.912-2.232.912-4.104a9.96 9.96 0 00-.216-2.136c-.144-.672-.376-1.248-.696-1.728a3.186 3.186 0 00-1.2-1.152c-.48-.272-1.072-.408-1.776-.408-1.056 0-1.896.432-2.52 1.296-.624.864-.936 2.24-.936 4.128zM90.8 24h-6.073v-1.2h1.776V7.2h-2.04V6h4.56v16.8H90.8V24zm2.9-7.536h7.584V18h-7.584v-1.536zM114.668 24h-7.944v-1.536h2.736V8.928l-2.832 1.488-.648-1.176 3.48-2.04h2.52v15.264h2.688V24zm8.991 5.52h-5.16v-1.008h2.76V8.208h-2.76V7.2h5.16v22.32z"/><path stroke="#9013FE" stroke-width="3" d="M236.5 36v35"/><path fill="#fff" d="M175.349 7.2h5.16v1.008h-2.76v20.304h2.76v1.008h-5.16V7.2zm20.057 4.2v1.536h-2.808c.224.224.432.536.624.936s.288.88.288 1.44c0 1.184-.464 2.136-1.392 2.856-.928.72-2.264 1.08-4.008 1.08h-.816a4.22 4.22 0 01-.72-.12 4.99 4.99 0 01-.312.528 1.052 1.052 0 00-.168.576c0 .336.208.592.624.768.416.16.936.312 1.56.456.624.128 1.304.264 2.04.408a8.906 8.906 0 012.04.6c.64.256 1.168.6 1.584 1.032.416.432.624 1 .624 1.704 0 .608-.16 1.136-.48 1.584-.304.464-.744.84-1.32 1.128-.56.304-1.232.528-2.016.672a14.24 14.24 0 01-2.568.216c-2 0-3.496-.264-4.488-.792-.992-.528-1.488-1.256-1.488-2.184 0-.896.304-1.584.912-2.064.608-.48 1.464-.88 2.568-1.2a4.186 4.186 0 01-1.008-.576c-.256-.208-.384-.52-.384-.936 0-.192.048-.384.144-.576.096-.208.224-.4.384-.576.16-.192.336-.36.528-.504a3.47 3.47 0 01.552-.384c-1.024-.272-1.816-.736-2.376-1.392-.544-.656-.816-1.44-.816-2.352 0-1.168.456-2.104 1.368-2.808.912-.704 2.256-1.056 4.032-1.056h7.296zm-3.36 14.376c0-.528-.192-.952-.576-1.272-.368-.304-.84-.552-1.416-.744a11.635 11.635 0 00-1.824-.504 18.363 18.363 0 01-1.848-.456c-.672.4-1.12.8-1.344 1.2a2.913 2.913 0 00-.312 1.32c0 .672.336 1.232 1.008 1.68.672.448 1.648.672 2.928.672.656 0 1.2-.056 1.632-.168.432-.096.776-.232 1.032-.408.272-.176.456-.376.552-.6.112-.224.168-.464.168-.72zm-6.816-10.512c0 .416.048.8.144 1.152.096.352.248.656.456.912.224.24.52.432.888.576.368.144.832.216 1.392.216 1.024 0 1.76-.256 2.208-.768.448-.528.672-1.224.672-2.088 0-.336-.016-.616-.048-.84a3.14 3.14 0 00-.096-.6 2.67 2.67 0 00-.12-.456l-.144-.432a4.115 4.115 0 00-1.176-.312 8.515 8.515 0 00-1.296-.096c-1.088 0-1.84.224-2.256.672-.416.448-.624 1.136-.624 2.064zm17.227-1.704a3.374 3.374 0 00-.912.672c-.24.256-.496.624-.768 1.104V22.8h2.112V24h-6.408v-1.2h1.776V12.6h-1.776v-1.2h4.296v2.424h.096c.272-.528.592-.984.96-1.368a6.61 6.61 0 011.248-1.056h2.304v2.16h-2.928zM213.175 24h-6.072v-1.2h1.776V12.6h-1.776v-1.2h4.296v11.4h1.776V24zm-4.824-16.488c0-.464.16-.832.48-1.104.336-.272.76-.408 1.272-.408.544 0 .968.136 1.272.408.32.272.48.64.48 1.104 0 .464-.16.832-.48 1.104-.304.272-.728.408-1.272.408-.512 0-.936-.136-1.272-.408-.32-.272-.48-.64-.48-1.104zm15.837 13.992a3.48 3.48 0 01-.48 1.056 3.474 3.474 0 01-.792.888 3.422 3.422 0 01-1.056.6c-.4.144-.832.216-1.296.216-1.776 0-3.112-.52-4.008-1.56-.88-1.056-1.32-2.696-1.32-4.92 0-1.072.144-2.016.432-2.832.304-.832.728-1.528 1.272-2.088s1.2-.984 1.968-1.272c.768-.288 1.624-.432 2.568-.432.336 0 .624.008.864.024s.464.04.672.072c.208.032.408.08.6.144.192.048.4.104.624.168V7.2h-2.04V6h4.56v16.8h1.632V24H224.5l-.216-2.496h-.096zm-3.072 1.152c.88 0 1.568-.248 2.064-.744s.848-1.184 1.056-2.064v-7.08c-.32-.16-.68-.28-1.08-.36-.384-.08-.896-.12-1.536-.12-.592 0-1.12.128-1.584.384a3.435 3.435 0 00-1.152 1.104c-.304.48-.536 1.064-.696 1.752a9.758 9.758 0 00-.24 2.256c0 .672.056 1.304.168 1.896.128.592.32 1.112.576 1.56.256.432.584.776.984 1.032s.88.384 1.44.384zm19.608-.264c-.336.464-.872.896-1.608 1.296-.72.384-1.576.576-2.568.576-1.056 0-1.984-.152-2.784-.456-.784-.32-1.44-.76-1.968-1.32a5.48 5.48 0 01-1.176-2.064c-.256-.816-.384-1.72-.384-2.712 0-2.128.56-3.752 1.68-4.872 1.136-1.12 2.672-1.68 4.608-1.68.88 0 1.608.056 2.184.168a6.147 6.147 0 011.584.528v3.12h-2.16v-2.304c-.24-.144-.72-.216-1.44-.216-.608 0-1.144.088-1.608.264a2.72 2.72 0 00-1.176.864c-.32.4-.56.936-.72 1.608-.16.672-.24 1.496-.24 2.472 0 .64.088 1.256.264 1.848.176.576.44 1.088.792 1.536.352.432.792.776 1.32 1.032.544.256 1.176.384 1.896.384.384 0 .72-.04 1.008-.12.304-.08.568-.16.792-.24.224-.096.424-.2.6-.312.176-.112.344-.232.504-.36l.6.96zm2.075-4.68c0-1.056.152-1.992.456-2.808.304-.816.728-1.496 1.272-2.04a5.483 5.483 0 012.016-1.272c.8-.288 1.68-.432 2.64-.432 1.12 0 2.08.16 2.88.48.816.304 1.48.744 1.992 1.32.512.56.888 1.248 1.128 2.064.256.8.384 1.696.384 2.688 0 1.056-.152 1.992-.456 2.808a5.45 5.45 0 01-1.272 2.04c-.544.544-1.216.96-2.016 1.248-.784.288-1.664.432-2.64.432-1.088 0-2.032-.152-2.832-.456-.8-.32-1.464-.76-1.992-1.32a5.48 5.48 0 01-1.176-2.064c-.256-.8-.384-1.696-.384-2.688zm2.712 0c0 .768.072 1.48.216 2.136.144.656.376 1.224.696 1.704.336.48.76.864 1.272 1.152.528.272 1.168.408 1.92.408.944 0 1.72-.432 2.328-1.296.608-.864.912-2.232.912-4.104a9.96 9.96 0 00-.216-2.136c-.144-.672-.376-1.248-.696-1.728a3.186 3.186 0 00-1.2-1.152c-.48-.272-1.072-.408-1.776-.408-1.056 0-1.896.432-2.52 1.296-.624.864-.936 2.24-.936 4.128zM263.8 24h-6.072v-1.2h1.776V7.2h-2.04V6h4.56v16.8h1.776V24zm2.901-7.536h7.584V18h-7.584v-1.536zm13.551-5.256h-2.304V8.544c.624-.48 1.376-.864 2.256-1.152.88-.288 1.848-.432 2.904-.432.896 0 1.672.112 2.328.336.656.224 1.192.528 1.608.912.432.368.744.8.936 1.296.208.496.312 1.024.312 1.584 0 1.008-.248 2.016-.744 3.024a14.159 14.159 0 01-1.872 2.856 20.043 20.043 0 01-2.472 2.472 26.03 26.03 0 01-2.568 1.92l-.528.336c-.128.08-.256.168-.384.264-.128.08-.216.136-.264.168v.096l1.56-.144h5.568l.48-.48v-2.304h1.536V24h-10.896v-2.016c.416-.24.896-.56 1.44-.96.56-.4 1.136-.864 1.728-1.392a25.37 25.37 0 001.752-1.728 16.162 16.162 0 001.536-1.992 11.65 11.65 0 001.08-2.136 6.02 6.02 0 00.432-2.208c0-.464-.072-.896-.216-1.296a2.88 2.88 0 00-.6-1.056 2.449 2.449 0 00-.984-.696 3.136 3.136 0 00-1.32-.264c-.528 0-.968.04-1.32.12a7.03 7.03 0 00-.984.312v2.52zm16.407 18.312h-5.16v-1.008h2.76V8.208h-2.76V7.2h5.16v22.32z"/><path stroke="#9013FE" stroke-width="3" d="M391.5 36v35"/><path fill="#fff" d="M330.349 7.2h5.16v1.008h-2.76v20.304h2.76v1.008h-5.16V7.2zm20.057 4.2v1.536h-2.808c.224.224.432.536.624.936s.288.88.288 1.44c0 1.184-.464 2.136-1.392 2.856-.928.72-2.264 1.08-4.008 1.08h-.816a4.22 4.22 0 01-.72-.12 4.99 4.99 0 01-.312.528 1.052 1.052 0 00-.168.576c0 .336.208.592.624.768.416.16.936.312 1.56.456.624.128 1.304.264 2.04.408a8.906 8.906 0 012.04.6c.64.256 1.168.6 1.584 1.032.416.432.624 1 .624 1.704 0 .608-.16 1.136-.48 1.584-.304.464-.744.84-1.32 1.128-.56.304-1.232.528-2.016.672a14.24 14.24 0 01-2.568.216c-2 0-3.496-.264-4.488-.792-.992-.528-1.488-1.256-1.488-2.184 0-.896.304-1.584.912-2.064.608-.48 1.464-.88 2.568-1.2a4.186 4.186 0 01-1.008-.576c-.256-.208-.384-.52-.384-.936 0-.192.048-.384.144-.576.096-.208.224-.4.384-.576.16-.192.336-.36.528-.504a3.47 3.47 0 01.552-.384c-1.024-.272-1.816-.736-2.376-1.392-.544-.656-.816-1.44-.816-2.352 0-1.168.456-2.104 1.368-2.808.912-.704 2.256-1.056 4.032-1.056h7.296zm-3.36 14.376c0-.528-.192-.952-.576-1.272-.368-.304-.84-.552-1.416-.744a11.635 11.635 0 00-1.824-.504 18.363 18.363 0 01-1.848-.456c-.672.4-1.12.8-1.344 1.2a2.913 2.913 0 00-.312 1.32c0 .672.336 1.232 1.008 1.68.672.448 1.648.672 2.928.672.656 0 1.2-.056 1.632-.168.432-.096.776-.232 1.032-.408.272-.176.456-.376.552-.6.112-.224.168-.464.168-.72zm-6.816-10.512c0 .416.048.8.144 1.152.096.352.248.656.456.912.224.24.52.432.888.576.368.144.832.216 1.392.216 1.024 0 1.76-.256 2.208-.768.448-.528.672-1.224.672-2.088 0-.336-.016-.616-.048-.84a3.14 3.14 0 00-.096-.6 2.67 2.67 0 00-.12-.456l-.144-.432a4.115 4.115 0 00-1.176-.312 8.515 8.515 0 00-1.296-.096c-1.088 0-1.84.224-2.256.672-.416.448-.624 1.136-.624 2.064zm17.227-1.704a3.374 3.374 0 00-.912.672c-.24.256-.496.624-.768 1.104V22.8h2.112V24h-6.408v-1.2h1.776V12.6h-1.776v-1.2h4.296v2.424h.096c.272-.528.592-.984.96-1.368a6.61 6.61 0 011.248-1.056h2.304v2.16h-2.928zM368.175 24h-6.072v-1.2h1.776V12.6h-1.776v-1.2h4.296v11.4h1.776V24zm-4.824-16.488c0-.464.16-.832.48-1.104.336-.272.76-.408 1.272-.408.544 0 .968.136 1.272.408.32.272.48.64.48 1.104 0 .464-.16.832-.48 1.104-.304.272-.728.408-1.272.408-.512 0-.936-.136-1.272-.408-.32-.272-.48-.64-.48-1.104zm15.837 13.992a3.48 3.48 0 01-.48 1.056 3.474 3.474 0 01-.792.888 3.422 3.422 0 01-1.056.6c-.4.144-.832.216-1.296.216-1.776 0-3.112-.52-4.008-1.56-.88-1.056-1.32-2.696-1.32-4.92 0-1.072.144-2.016.432-2.832.304-.832.728-1.528 1.272-2.088s1.2-.984 1.968-1.272c.768-.288 1.624-.432 2.568-.432.336 0 .624.008.864.024s.464.04.672.072c.208.032.408.08.6.144.192.048.4.104.624.168V7.2h-2.04V6h4.56v16.8h1.632V24H379.5l-.216-2.496h-.096zm-3.072 1.152c.88 0 1.568-.248 2.064-.744s.848-1.184 1.056-2.064v-7.08c-.32-.16-.68-.28-1.08-.36-.384-.08-.896-.12-1.536-.12-.592 0-1.12.128-1.584.384a3.435 3.435 0 00-1.152 1.104c-.304.48-.536 1.064-.696 1.752a9.758 9.758 0 00-.24 2.256c0 .672.056 1.304.168 1.896.128.592.32 1.112.576 1.56.256.432.584.776.984 1.032s.88.384 1.44.384zm19.608-.264c-.336.464-.872.896-1.608 1.296-.72.384-1.576.576-2.568.576-1.056 0-1.984-.152-2.784-.456-.784-.32-1.44-.76-1.968-1.32a5.48 5.48 0 01-1.176-2.064c-.256-.816-.384-1.72-.384-2.712 0-2.128.56-3.752 1.68-4.872 1.136-1.12 2.672-1.68 4.608-1.68.88 0 1.608.056 2.184.168a6.147 6.147 0 011.584.528v3.12h-2.16v-2.304c-.24-.144-.72-.216-1.44-.216-.608 0-1.144.088-1.608.264a2.72 2.72 0 00-1.176.864c-.32.4-.56.936-.72 1.608-.16.672-.24 1.496-.24 2.472 0 .64.088 1.256.264 1.848.176.576.44 1.088.792 1.536.352.432.792.776 1.32 1.032.544.256 1.176.384 1.896.384.384 0 .72-.04 1.008-.12.304-.08.568-.16.792-.24.224-.096.424-.2.6-.312.176-.112.344-.232.504-.36l.6.96zm2.075-4.68c0-1.056.152-1.992.456-2.808.304-.816.728-1.496 1.272-2.04a5.483 5.483 0 012.016-1.272c.8-.288 1.68-.432 2.64-.432 1.12 0 2.08.16 2.88.48.816.304 1.48.744 1.992 1.32.512.56.888 1.248 1.128 2.064.256.8.384 1.696.384 2.688 0 1.056-.152 1.992-.456 2.808a5.45 5.45 0 01-1.272 2.04c-.544.544-1.216.96-2.016 1.248-.784.288-1.664.432-2.64.432-1.088 0-2.032-.152-2.832-.456-.8-.32-1.464-.76-1.992-1.32a5.48 5.48 0 01-1.176-2.064c-.256-.8-.384-1.696-.384-2.688zm2.712 0c0 .768.072 1.48.216 2.136.144.656.376 1.224.696 1.704.336.48.76.864 1.272 1.152.528.272 1.168.408 1.92.408.944 0 1.72-.432 2.328-1.296.608-.864.912-2.232.912-4.104a9.96 9.96 0 00-.216-2.136c-.144-.672-.376-1.248-.696-1.728a3.186 3.186 0 00-1.2-1.152c-.48-.272-1.072-.408-1.776-.408-1.056 0-1.896.432-2.52 1.296-.624.864-.936 2.24-.936 4.128zM418.8 24h-6.072v-1.2h1.776V7.2h-2.04V6h4.56v16.8h1.776V24zm2.901-7.536h7.584V18h-7.584v-1.536zm15.975 6.48c.592 0 1.128-.088 1.608-.264.48-.192.896-.448 1.248-.768s.624-.688.816-1.104c.192-.432.288-.896.288-1.392 0-.576-.104-1.08-.312-1.512a2.958 2.958 0 00-.864-1.104 3.36 3.36 0 00-1.248-.672c-.48-.16-.992-.24-1.536-.24h-1.704v-1.632l5.4-5.184v-.096l-1.44.144h-4.824l-.48.48v1.92h-1.536V7.2h10.368v1.872l-4.512 4.224-.552.504-.408.36a1.347 1.347 0 01-.216.192v.048a2.846 2.846 0 00.48-.096c.128-.032.272-.056.432-.072.848.032 1.616.16 2.304.384a4.96 4.96 0 011.776.936c.496.4.872.896 1.128 1.488.272.576.408 1.248.408 2.016 0 .8-.176 1.52-.528 2.16-.336.64-.8 1.184-1.392 1.632-.592.448-1.288.792-2.088 1.032s-1.656.36-2.568.36c-.416 0-.864-.032-1.344-.096-.464-.064-.92-.144-1.368-.24-.448-.112-.872-.24-1.272-.384a4.457 4.457 0 01-.96-.528V20.16h2.304v2.136c.224.16.568.312 1.032.456.48.128 1 .192 1.56.192zm13.983 6.576h-5.16v-1.008h2.76V8.208h-2.76V7.2h5.16v22.32z"/><path stroke="#9013FE" stroke-width="3" d="M546.5 36v35"/><path fill="#fff" d="M485.349 7.2h5.16v1.008h-2.76v20.304h2.76v1.008h-5.16V7.2zm20.057 4.2v1.536h-2.808c.224.224.432.536.624.936s.288.88.288 1.44c0 1.184-.464 2.136-1.392 2.856-.928.72-2.264 1.08-4.008 1.08h-.816a4.22 4.22 0 01-.72-.12 4.99 4.99 0 01-.312.528 1.052 1.052 0 00-.168.576c0 .336.208.592.624.768.416.16.936.312 1.56.456.624.128 1.304.264 2.04.408a8.906 8.906 0 012.04.6c.64.256 1.168.6 1.584 1.032.416.432.624 1 .624 1.704 0 .608-.16 1.136-.48 1.584-.304.464-.744.84-1.32 1.128-.56.304-1.232.528-2.016.672a14.24 14.24 0 01-2.568.216c-2 0-3.496-.264-4.488-.792-.992-.528-1.488-1.256-1.488-2.184 0-.896.304-1.584.912-2.064.608-.48 1.464-.88 2.568-1.2a4.186 4.186 0 01-1.008-.576c-.256-.208-.384-.52-.384-.936 0-.192.048-.384.144-.576.096-.208.224-.4.384-.576.16-.192.336-.36.528-.504a3.47 3.47 0 01.552-.384c-1.024-.272-1.816-.736-2.376-1.392-.544-.656-.816-1.44-.816-2.352 0-1.168.456-2.104 1.368-2.808.912-.704 2.256-1.056 4.032-1.056h7.296zm-3.36 14.376c0-.528-.192-.952-.576-1.272-.368-.304-.84-.552-1.416-.744a11.635 11.635 0 00-1.824-.504 18.363 18.363 0 01-1.848-.456c-.672.4-1.12.8-1.344 1.2a2.913 2.913 0 00-.312 1.32c0 .672.336 1.232 1.008 1.68.672.448 1.648.672 2.928.672.656 0 1.2-.056 1.632-.168.432-.096.776-.232 1.032-.408.272-.176.456-.376.552-.6.112-.224.168-.464.168-.72zm-6.816-10.512c0 .416.048.8.144 1.152.096.352.248.656.456.912.224.24.52.432.888.576.368.144.832.216 1.392.216 1.024 0 1.76-.256 2.208-.768.448-.528.672-1.224.672-2.088 0-.336-.016-.616-.048-.84a3.14 3.14 0 00-.096-.6 2.67 2.67 0 00-.12-.456l-.144-.432a4.115 4.115 0 00-1.176-.312 8.515 8.515 0 00-1.296-.096c-1.088 0-1.84.224-2.256.672-.416.448-.624 1.136-.624 2.064zm17.227-1.704a3.374 3.374 0 00-.912.672c-.24.256-.496.624-.768 1.104V22.8h2.112V24h-6.408v-1.2h1.776V12.6h-1.776v-1.2h4.296v2.424h.096c.272-.528.592-.984.96-1.368a6.61 6.61 0 011.248-1.056h2.304v2.16h-2.928zM523.175 24h-6.072v-1.2h1.776V12.6h-1.776v-1.2h4.296v11.4h1.776V24zm-4.824-16.488c0-.464.16-.832.48-1.104.336-.272.76-.408 1.272-.408.544 0 .968.136 1.272.408.32.272.48.64.48 1.104 0 .464-.16.832-.48 1.104-.304.272-.728.408-1.272.408-.512 0-.936-.136-1.272-.408-.32-.272-.48-.64-.48-1.104zm15.837 13.992a3.48 3.48 0 01-.48 1.056 3.474 3.474 0 01-.792.888 3.422 3.422 0 01-1.056.6c-.4.144-.832.216-1.296.216-1.776 0-3.112-.52-4.008-1.56-.88-1.056-1.32-2.696-1.32-4.92 0-1.072.144-2.016.432-2.832.304-.832.728-1.528 1.272-2.088s1.2-.984 1.968-1.272c.768-.288 1.624-.432 2.568-.432.336 0 .624.008.864.024s.464.04.672.072c.208.032.408.08.6.144.192.048.4.104.624.168V7.2h-2.04V6h4.56v16.8h1.632V24H534.5l-.216-2.496h-.096zm-3.072 1.152c.88 0 1.568-.248 2.064-.744s.848-1.184 1.056-2.064v-7.08c-.32-.16-.68-.28-1.08-.36-.384-.08-.896-.12-1.536-.12-.592 0-1.12.128-1.584.384a3.435 3.435 0 00-1.152 1.104c-.304.48-.536 1.064-.696 1.752a9.758 9.758 0 00-.24 2.256c0 .672.056 1.304.168 1.896.128.592.32 1.112.576 1.56.256.432.584.776.984 1.032s.88.384 1.44.384zm19.608-.264c-.336.464-.872.896-1.608 1.296-.72.384-1.576.576-2.568.576-1.056 0-1.984-.152-2.784-.456-.784-.32-1.44-.76-1.968-1.32a5.48 5.48 0 01-1.176-2.064c-.256-.816-.384-1.72-.384-2.712 0-2.128.56-3.752 1.68-4.872 1.136-1.12 2.672-1.68 4.608-1.68.88 0 1.608.056 2.184.168a6.147 6.147 0 011.584.528v3.12h-2.16v-2.304c-.24-.144-.72-.216-1.44-.216-.608 0-1.144.088-1.608.264a2.72 2.72 0 00-1.176.864c-.32.4-.56.936-.72 1.608-.16.672-.24 1.496-.24 2.472 0 .64.088 1.256.264 1.848.176.576.44 1.088.792 1.536.352.432.792.776 1.32 1.032.544.256 1.176.384 1.896.384.384 0 .72-.04 1.008-.12.304-.08.568-.16.792-.24.224-.096.424-.2.6-.312.176-.112.344-.232.504-.36l.6.96zm2.075-4.68c0-1.056.152-1.992.456-2.808.304-.816.728-1.496 1.272-2.04a5.483 5.483 0 012.016-1.272c.8-.288 1.68-.432 2.64-.432 1.12 0 2.08.16 2.88.48.816.304 1.48.744 1.992 1.32.512.56.888 1.248 1.128 2.064.256.8.384 1.696.384 2.688 0 1.056-.152 1.992-.456 2.808a5.45 5.45 0 01-1.272 2.04c-.544.544-1.216.96-2.016 1.248-.784.288-1.664.432-2.64.432-1.088 0-2.032-.152-2.832-.456-.8-.32-1.464-.76-1.992-1.32a5.48 5.48 0 01-1.176-2.064c-.256-.8-.384-1.696-.384-2.688zm2.712 0c0 .768.072 1.48.216 2.136.144.656.376 1.224.696 1.704.336.48.76.864 1.272 1.152.528.272 1.168.408 1.92.408.944 0 1.72-.432 2.328-1.296.608-.864.912-2.232.912-4.104a9.96 9.96 0 00-.216-2.136c-.144-.672-.376-1.248-.696-1.728a3.186 3.186 0 00-1.2-1.152c-.48-.272-1.072-.408-1.776-.408-1.056 0-1.896.432-2.52 1.296-.624.864-.936 2.24-.936 4.128zM573.8 24h-6.072v-1.2h1.776V7.2h-2.04V6h4.56v16.8h1.776V24zm2.901-7.536h7.584V18h-7.584v-1.536zM599.324 24h-7.056v-1.536h2.472v-3.096h-8.232v-1.536L594.74 7.2h2.52v10.632h2.976v1.536h-2.976v3.096h2.064V24zm-4.584-13.176l.168-1.728h-.072l-.936 1.728-4.992 6.384-.888.792 1.728-.168h4.992v-7.008zm11.919 18.696h-5.16v-1.008h2.76V8.208h-2.76V7.2h5.16v22.32z"/><path stroke="#9013FE" stroke-width="3" d="M701.5 36v35"/><path fill="#fff" d="M640.349 7.2h5.16v1.008h-2.76v20.304h2.76v1.008h-5.16V7.2zm20.057 4.2v1.536h-2.808c.224.224.432.536.624.936s.288.88.288 1.44c0 1.184-.464 2.136-1.392 2.856-.928.72-2.264 1.08-4.008 1.08h-.816a4.22 4.22 0 01-.72-.12 4.99 4.99 0 01-.312.528 1.052 1.052 0 00-.168.576c0 .336.208.592.624.768.416.16.936.312 1.56.456.624.128 1.304.264 2.04.408a8.906 8.906 0 012.04.6c.64.256 1.168.6 1.584 1.032.416.432.624 1 .624 1.704 0 .608-.16 1.136-.48 1.584-.304.464-.744.84-1.32 1.128-.56.304-1.232.528-2.016.672a14.24 14.24 0 01-2.568.216c-2 0-3.496-.264-4.488-.792-.992-.528-1.488-1.256-1.488-2.184 0-.896.304-1.584.912-2.064.608-.48 1.464-.88 2.568-1.2a4.186 4.186 0 01-1.008-.576c-.256-.208-.384-.52-.384-.936 0-.192.048-.384.144-.576.096-.208.224-.4.384-.576.16-.192.336-.36.528-.504a3.47 3.47 0 01.552-.384c-1.024-.272-1.816-.736-2.376-1.392-.544-.656-.816-1.44-.816-2.352 0-1.168.456-2.104 1.368-2.808.912-.704 2.256-1.056 4.032-1.056h7.296zm-3.36 14.376c0-.528-.192-.952-.576-1.272-.368-.304-.84-.552-1.416-.744a11.635 11.635 0 00-1.824-.504 18.363 18.363 0 01-1.848-.456c-.672.4-1.12.8-1.344 1.2a2.913 2.913 0 00-.312 1.32c0 .672.336 1.232 1.008 1.68.672.448 1.648.672 2.928.672.656 0 1.2-.056 1.632-.168.432-.096.776-.232 1.032-.408.272-.176.456-.376.552-.6.112-.224.168-.464.168-.72zm-6.816-10.512c0 .416.048.8.144 1.152.096.352.248.656.456.912.224.24.52.432.888.576.368.144.832.216 1.392.216 1.024 0 1.76-.256 2.208-.768.448-.528.672-1.224.672-2.088 0-.336-.016-.616-.048-.84a3.14 3.14 0 00-.096-.6 2.67 2.67 0 00-.12-.456l-.144-.432a4.115 4.115 0 00-1.176-.312 8.515 8.515 0 00-1.296-.096c-1.088 0-1.84.224-2.256.672-.416.448-.624 1.136-.624 2.064zm17.227-1.704a3.374 3.374 0 00-.912.672c-.24.256-.496.624-.768 1.104V22.8h2.112V24h-6.408v-1.2h1.776V12.6h-1.776v-1.2h4.296v2.424h.096c.272-.528.592-.984.96-1.368a6.61 6.61 0 011.248-1.056h2.304v2.16h-2.928zM678.175 24h-6.072v-1.2h1.776V12.6h-1.776v-1.2h4.296v11.4h1.776V24zm-4.824-16.488c0-.464.16-.832.48-1.104.336-.272.76-.408 1.272-.408.544 0 .968.136 1.272.408.32.272.48.64.48 1.104 0 .464-.16.832-.48 1.104-.304.272-.728.408-1.272.408-.512 0-.936-.136-1.272-.408-.32-.272-.48-.64-.48-1.104zm15.837 13.992a3.48 3.48 0 01-.48 1.056 3.474 3.474 0 01-.792.888 3.422 3.422 0 01-1.056.6c-.4.144-.832.216-1.296.216-1.776 0-3.112-.52-4.008-1.56-.88-1.056-1.32-2.696-1.32-4.92 0-1.072.144-2.016.432-2.832.304-.832.728-1.528 1.272-2.088s1.2-.984 1.968-1.272c.768-.288 1.624-.432 2.568-.432.336 0 .624.008.864.024s.464.04.672.072c.208.032.408.08.6.144.192.048.4.104.624.168V7.2h-2.04V6h4.56v16.8h1.632V24H689.5l-.216-2.496h-.096zm-3.072 1.152c.88 0 1.568-.248 2.064-.744s.848-1.184 1.056-2.064v-7.08c-.32-.16-.68-.28-1.08-.36-.384-.08-.896-.12-1.536-.12-.592 0-1.12.128-1.584.384a3.435 3.435 0 00-1.152 1.104c-.304.48-.536 1.064-.696 1.752a9.758 9.758 0 00-.24 2.256c0 .672.056 1.304.168 1.896.128.592.32 1.112.576 1.56.256.432.584.776.984 1.032s.88.384 1.44.384zm19.608-.264c-.336.464-.872.896-1.608 1.296-.72.384-1.576.576-2.568.576-1.056 0-1.984-.152-2.784-.456-.784-.32-1.44-.76-1.968-1.32a5.48 5.48 0 01-1.176-2.064c-.256-.816-.384-1.72-.384-2.712 0-2.128.56-3.752 1.68-4.872 1.136-1.12 2.672-1.68 4.608-1.68.88 0 1.608.056 2.184.168a6.147 6.147 0 011.584.528v3.12h-2.16v-2.304c-.24-.144-.72-.216-1.44-.216-.608 0-1.144.088-1.608.264a2.72 2.72 0 00-1.176.864c-.32.4-.56.936-.72 1.608-.16.672-.24 1.496-.24 2.472 0 .64.088 1.256.264 1.848.176.576.44 1.088.792 1.536.352.432.792.776 1.32 1.032.544.256 1.176.384 1.896.384.384 0 .72-.04 1.008-.12.304-.08.568-.16.792-.24.224-.096.424-.2.6-.312.176-.112.344-.232.504-.36l.6.96zm2.075-4.68c0-1.056.152-1.992.456-2.808.304-.816.728-1.496 1.272-2.04a5.483 5.483 0 012.016-1.272c.8-.288 1.68-.432 2.64-.432 1.12 0 2.08.16 2.88.48.816.304 1.48.744 1.992 1.32.512.56.888 1.248 1.128 2.064.256.8.384 1.696.384 2.688 0 1.056-.152 1.992-.456 2.808a5.45 5.45 0 01-1.272 2.04c-.544.544-1.216.96-2.016 1.248-.784.288-1.664.432-2.64.432-1.088 0-2.032-.152-2.832-.456-.8-.32-1.464-.76-1.992-1.32a5.48 5.48 0 01-1.176-2.064c-.256-.8-.384-1.696-.384-2.688zm2.712 0c0 .768.072 1.48.216 2.136.144.656.376 1.224.696 1.704.336.48.76.864 1.272 1.152.528.272 1.168.408 1.92.408.944 0 1.72-.432 2.328-1.296.608-.864.912-2.232.912-4.104a9.96 9.96 0 00-.216-2.136c-.144-.672-.376-1.248-.696-1.728a3.186 3.186 0 00-1.2-1.152c-.48-.272-1.072-.408-1.776-.408-1.056 0-1.896.432-2.52 1.296-.624.864-.936 2.24-.936 4.128zM728.8 24h-6.072v-1.2h1.776V7.2h-2.04V6h4.56v16.8h1.776V24zm2.901-7.536h7.584V18h-7.584v-1.536zM751.684 6h1.536v3.12h-7.32v4.56h1.536c.896 0 1.72.112 2.472.336.752.224 1.392.544 1.92.96.544.416.96.936 1.248 1.56.304.624.456 1.328.456 2.112 0 .928-.184 1.744-.552 2.448a5.389 5.389 0 01-1.416 1.752 6.297 6.297 0 01-2.064 1.056 8.442 8.442 0 01-2.376.336c-.736 0-1.456-.08-2.16-.24-.704-.16-1.312-.424-1.824-.792V20.64h2.304v2.088c.176.032.416.08.72.144.304.048.616.072.936.072.592 0 1.128-.088 1.608-.264.48-.192.888-.456 1.224-.792.352-.336.616-.728.792-1.176a3.98 3.98 0 00.288-1.536c0-.64-.128-1.184-.384-1.632a3.105 3.105 0 00-1.056-1.128 4.405 4.405 0 00-1.584-.648 8.11 8.11 0 00-1.92-.216h-1.704V7.2h6.84l.48-.48V6zm9.975 23.52h-5.16v-1.008h2.76V8.208h-2.76V7.2h5.16v22.32z"/><path stroke="#0CF7DA" stroke-width="3" d="M391.5 76v35"/><path fill="#fff" d="M333.231 124.2h5.16v1.008h-2.76v20.304h2.76v1.008h-5.16V124.2zm14.057 13.944c0-.432-.16-.808-.48-1.128-.32-.336-.72-.64-1.2-.912-.48-.288-1-.568-1.56-.84-.56-.288-1.08-.608-1.56-.96a5.31 5.31 0 01-1.2-1.272c-.32-.496-.48-1.088-.48-1.776 0-.464.112-.88.336-1.248.224-.384.52-.712.888-.984.384-.272.832-.48 1.344-.624a5.441 5.441 0 011.632-.24c.48 0 .904.016 1.272.048s.704.08 1.008.144c.304.048.592.112.864.192s.552.168.84.264v3.24h-1.536v-1.896l-.456-.528a7.263 7.263 0 00-.672-.12 5.818 5.818 0 00-.768-.048c-.768 0-1.344.152-1.728.456-.368.288-.552.656-.552 1.104 0 .432.16.808.48 1.128.32.32.72.624 1.2.912.48.272 1 .544 1.56.816.56.272 1.08.584 1.56.936.48.336.88.728 1.2 1.176.32.448.48.984.48 1.608a2.9 2.9 0 01-.408 1.536 3.517 3.517 0 01-1.08 1.152c-.448.304-.984.544-1.608.72-.608.16-1.256.24-1.944.24a8.9 8.9 0 01-2.256-.288c-.72-.208-1.288-.448-1.704-.72v-3.144h1.536v1.824l.48.504c.208.16.456.288.744.384.288.096.664.144 1.128.144.768 0 1.4-.16 1.896-.48.496-.32.744-.76.744-1.32zm5.792-2.136c0-1.056.024-2.136.072-3.24.048-1.104.072-2.16.072-3.168h-1.776v-1.2h4.272c-.032 1.248-.064 2.448-.096 3.6-.016 1.136-.024 2.32-.024 3.552 0 .656.032 1.24.096 1.752.08.496.216.92.408 1.272a2 2 0 00.84.792c.352.176.8.264 1.344.264.8 0 1.472-.256 2.016-.768s.96-1.2 1.248-2.064v-7.2H359.8v-1.2h4.272v11.4h1.776v1.2h-4.008l-.168-2.736h-.12c-.08.336-.24.68-.48 1.032a4.054 4.054 0 01-.864.96 4.84 4.84 0 01-1.224.72 4.229 4.229 0 01-1.512.264c-.72 0-1.352-.08-1.896-.24-.544-.144-1-.416-1.368-.816-.368-.4-.648-.936-.84-1.608-.192-.672-.288-1.528-.288-2.568zm15.491-11.808h-2.04V123h4.56v7.872h.072c.304-.848.816-1.512 1.536-1.992.72-.48 1.528-.72 2.424-.72 1.632 0 2.88.512 3.744 1.536.88 1.024 1.32 2.616 1.32 4.776 0 2.224-.608 3.912-1.824 5.064-1.2 1.136-2.92 1.704-5.16 1.704-.448 0-.904-.032-1.368-.096a17.465 17.465 0 01-1.32-.192c-.416-.096-.792-.2-1.128-.312a3.977 3.977 0 01-.816-.36V124.2zm5.76 5.568c-.864 0-1.56.264-2.088.792-.512.512-.896 1.176-1.152 1.992v6.984c.32.176.704.32 1.152.432.464.096.96.144 1.488.144 1.184 0 2.104-.48 2.76-1.44.656-.96.984-2.36.984-4.2 0-.656-.056-1.272-.168-1.848-.112-.576-.296-1.072-.552-1.488a2.832 2.832 0 00-.984-1.008c-.384-.24-.864-.36-1.44-.36zm18.51 9.624c-.336.464-.872.896-1.608 1.296-.72.384-1.576.576-2.568.576-1.056 0-1.984-.152-2.784-.456-.784-.32-1.44-.76-1.968-1.32a5.48 5.48 0 01-1.176-2.064c-.256-.816-.384-1.72-.384-2.712 0-2.128.56-3.752 1.68-4.872 1.136-1.12 2.672-1.68 4.608-1.68.88 0 1.608.056 2.184.168a6.147 6.147 0 011.584.528v3.12h-2.16v-2.304c-.24-.144-.72-.216-1.44-.216-.608 0-1.144.088-1.608.264a2.72 2.72 0 00-1.176.864c-.32.4-.56.936-.72 1.608-.16.672-.24 1.496-.24 2.472 0 .64.088 1.256.264 1.848.176.576.44 1.088.792 1.536.352.432.792.776 1.32 1.032.544.256 1.176.384 1.896.384.384 0 .72-.04 1.008-.12.304-.08.568-.16.792-.24.224-.096.424-.2.6-.312.176-.112.344-.232.504-.36l.6.96zm2.075-4.68c0-1.056.152-1.992.456-2.808.304-.816.728-1.496 1.272-2.04a5.483 5.483 0 012.016-1.272c.8-.288 1.68-.432 2.64-.432 1.12 0 2.08.16 2.88.48.816.304 1.48.744 1.992 1.32.512.56.888 1.248 1.128 2.064.256.8.384 1.696.384 2.688 0 1.056-.152 1.992-.456 2.808a5.45 5.45 0 01-1.272 2.04c-.544.544-1.216.96-2.016 1.248-.784.288-1.664.432-2.64.432-1.088 0-2.032-.152-2.832-.456-.8-.32-1.464-.76-1.992-1.32a5.48 5.48 0 01-1.176-2.064c-.256-.8-.384-1.696-.384-2.688zm2.712 0c0 .768.072 1.48.216 2.136.144.656.376 1.224.696 1.704.336.48.76.864 1.272 1.152.528.272 1.168.408 1.92.408.944 0 1.72-.432 2.328-1.296.608-.864.912-2.232.912-4.104a9.96 9.96 0 00-.216-2.136c-.144-.672-.376-1.248-.696-1.728a3.186 3.186 0 00-1.2-1.152c-.48-.272-1.072-.408-1.776-.408-1.056 0-1.896.432-2.52 1.296-.624.864-.936 2.24-.936 4.128zm18.29 6.288h-6.072v-1.2h1.776v-15.6h-2.04V123h4.56v16.8h1.776v1.2zm2.9-7.536h7.584V135h-7.584v-1.536zm13.551-5.256h-2.304v-2.664c.624-.48 1.376-.864 2.256-1.152.88-.288 1.848-.432 2.904-.432.896 0 1.672.112 2.328.336.656.224 1.192.528 1.608.912.432.368.744.8.936 1.296.208.496.312 1.024.312 1.584 0 1.008-.248 2.016-.744 3.024a14.159 14.159 0 01-1.872 2.856 20.043 20.043 0 01-2.472 2.472 26.03 26.03 0 01-2.568 1.92l-.528.336c-.128.08-.256.168-.384.264-.128.08-.216.136-.264.168v.096l1.56-.144h5.568l.48-.48v-2.304h1.536V141h-10.896v-2.016c.416-.24.896-.56 1.44-.96.56-.4 1.136-.864 1.728-1.392a25.37 25.37 0 001.752-1.728 16.162 16.162 0 001.536-1.992 11.65 11.65 0 001.08-2.136 6.02 6.02 0 00.432-2.208c0-.464-.072-.896-.216-1.296a2.88 2.88 0 00-.6-1.056 2.449 2.449 0 00-.984-.696 3.136 3.136 0 00-1.32-.264c-.528 0-.968.04-1.32.12a7.03 7.03 0 00-.984.312v2.52zm16.407 18.312h-5.16v-1.008h2.76v-20.304h-2.76V124.2h5.16v22.32z"/><path stroke="#0CF7DA" stroke-width="3" d="M236.5 76v35"/><path fill="#fff" d="M178.231 124.2h5.16v1.008h-2.76v20.304h2.76v1.008h-5.16V124.2zm14.057 13.944c0-.432-.16-.808-.48-1.128-.32-.336-.72-.64-1.2-.912-.48-.288-1-.568-1.56-.84-.56-.288-1.08-.608-1.56-.96a5.31 5.31 0 01-1.2-1.272c-.32-.496-.48-1.088-.48-1.776 0-.464.112-.88.336-1.248.224-.384.52-.712.888-.984.384-.272.832-.48 1.344-.624a5.441 5.441 0 011.632-.24c.48 0 .904.016 1.272.048s.704.08 1.008.144c.304.048.592.112.864.192s.552.168.84.264v3.24h-1.536v-1.896l-.456-.528a7.263 7.263 0 00-.672-.12 5.818 5.818 0 00-.768-.048c-.768 0-1.344.152-1.728.456-.368.288-.552.656-.552 1.104 0 .432.16.808.48 1.128.32.32.72.624 1.2.912.48.272 1 .544 1.56.816.56.272 1.08.584 1.56.936.48.336.88.728 1.2 1.176.32.448.48.984.48 1.608a2.9 2.9 0 01-.408 1.536 3.517 3.517 0 01-1.08 1.152c-.448.304-.984.544-1.608.72-.608.16-1.256.24-1.944.24a8.9 8.9 0 01-2.256-.288c-.72-.208-1.288-.448-1.704-.72v-3.144h1.536v1.824l.48.504c.208.16.456.288.744.384.288.096.664.144 1.128.144.768 0 1.4-.16 1.896-.48.496-.32.744-.76.744-1.32zm5.792-2.136c0-1.056.024-2.136.072-3.24.048-1.104.072-2.16.072-3.168h-1.776v-1.2h4.272c-.032 1.248-.064 2.448-.096 3.6-.016 1.136-.024 2.32-.024 3.552 0 .656.032 1.24.096 1.752.08.496.216.92.408 1.272a2 2 0 00.84.792c.352.176.8.264 1.344.264.8 0 1.472-.256 2.016-.768s.96-1.2 1.248-2.064v-7.2H204.8v-1.2h4.272v11.4h1.776v1.2h-4.008l-.168-2.736h-.12c-.08.336-.24.68-.48 1.032a4.054 4.054 0 01-.864.96 4.84 4.84 0 01-1.224.72 4.229 4.229 0 01-1.512.264c-.72 0-1.352-.08-1.896-.24-.544-.144-1-.416-1.368-.816-.368-.4-.648-.936-.84-1.608-.192-.672-.288-1.528-.288-2.568zm15.491-11.808h-2.04V123h4.56v7.872h.072c.304-.848.816-1.512 1.536-1.992.72-.48 1.528-.72 2.424-.72 1.632 0 2.88.512 3.744 1.536.88 1.024 1.32 2.616 1.32 4.776 0 2.224-.608 3.912-1.824 5.064-1.2 1.136-2.92 1.704-5.16 1.704-.448 0-.904-.032-1.368-.096a17.465 17.465 0 01-1.32-.192c-.416-.096-.792-.2-1.128-.312a3.977 3.977 0 01-.816-.36V124.2zm5.76 5.568c-.864 0-1.56.264-2.088.792-.512.512-.896 1.176-1.152 1.992v6.984c.32.176.704.32 1.152.432.464.096.96.144 1.488.144 1.184 0 2.104-.48 2.76-1.44.656-.96.984-2.36.984-4.2 0-.656-.056-1.272-.168-1.848-.112-.576-.296-1.072-.552-1.488a2.832 2.832 0 00-.984-1.008c-.384-.24-.864-.36-1.44-.36zm18.51 9.624c-.336.464-.872.896-1.608 1.296-.72.384-1.576.576-2.568.576-1.056 0-1.984-.152-2.784-.456-.784-.32-1.44-.76-1.968-1.32a5.48 5.48 0 01-1.176-2.064c-.256-.816-.384-1.72-.384-2.712 0-2.128.56-3.752 1.68-4.872 1.136-1.12 2.672-1.68 4.608-1.68.88 0 1.608.056 2.184.168a6.147 6.147 0 011.584.528v3.12h-2.16v-2.304c-.24-.144-.72-.216-1.44-.216-.608 0-1.144.088-1.608.264a2.72 2.72 0 00-1.176.864c-.32.4-.56.936-.72 1.608-.16.672-.24 1.496-.24 2.472 0 .64.088 1.256.264 1.848.176.576.44 1.088.792 1.536.352.432.792.776 1.32 1.032.544.256 1.176.384 1.896.384.384 0 .72-.04 1.008-.12.304-.08.568-.16.792-.24.224-.096.424-.2.6-.312.176-.112.344-.232.504-.36l.6.96zm2.075-4.68c0-1.056.152-1.992.456-2.808.304-.816.728-1.496 1.272-2.04a5.483 5.483 0 012.016-1.272c.8-.288 1.68-.432 2.64-.432 1.12 0 2.08.16 2.88.48.816.304 1.48.744 1.992 1.32.512.56.888 1.248 1.128 2.064.256.8.384 1.696.384 2.688 0 1.056-.152 1.992-.456 2.808a5.45 5.45 0 01-1.272 2.04c-.544.544-1.216.96-2.016 1.248-.784.288-1.664.432-2.64.432-1.088 0-2.032-.152-2.832-.456-.8-.32-1.464-.76-1.992-1.32a5.48 5.48 0 01-1.176-2.064c-.256-.8-.384-1.696-.384-2.688zm2.712 0c0 .768.072 1.48.216 2.136.144.656.376 1.224.696 1.704.336.48.76.864 1.272 1.152.528.272 1.168.408 1.92.408.944 0 1.72-.432 2.328-1.296.608-.864.912-2.232.912-4.104a9.96 9.96 0 00-.216-2.136c-.144-.672-.376-1.248-.696-1.728a3.186 3.186 0 00-1.2-1.152c-.48-.272-1.072-.408-1.776-.408-1.056 0-1.896.432-2.52 1.296-.624.864-.936 2.24-.936 4.128zm18.29 6.288h-6.072v-1.2h1.776v-15.6h-2.04V123h4.56v16.8h1.776v1.2zm2.9-7.536h7.584V135h-7.584v-1.536zM284.785 141h-7.944v-1.536h2.736v-13.536l-2.832 1.488-.648-1.176 3.48-2.04h2.52v15.264h2.688V141zm8.991 5.52h-5.16v-1.008h2.76v-20.304h-2.76V124.2h5.16v22.32z"/><path stroke="#0CF7DA" stroke-width="3" d="M546.5 76v35"/><path fill="#fff" d="M488.231 124.2h5.16v1.008h-2.76v20.304h2.76v1.008h-5.16V124.2zm14.057 13.944c0-.432-.16-.808-.48-1.128-.32-.336-.72-.64-1.2-.912-.48-.288-1-.568-1.56-.84-.56-.288-1.08-.608-1.56-.96a5.31 5.31 0 01-1.2-1.272c-.32-.496-.48-1.088-.48-1.776 0-.464.112-.88.336-1.248.224-.384.52-.712.888-.984.384-.272.832-.48 1.344-.624a5.441 5.441 0 011.632-.24c.48 0 .904.016 1.272.048s.704.08 1.008.144c.304.048.592.112.864.192s.552.168.84.264v3.24h-1.536v-1.896l-.456-.528a7.263 7.263 0 00-.672-.12 5.818 5.818 0 00-.768-.048c-.768 0-1.344.152-1.728.456-.368.288-.552.656-.552 1.104 0 .432.16.808.48 1.128.32.32.72.624 1.2.912.48.272 1 .544 1.56.816.56.272 1.08.584 1.56.936.48.336.88.728 1.2 1.176.32.448.48.984.48 1.608a2.9 2.9 0 01-.408 1.536 3.517 3.517 0 01-1.08 1.152c-.448.304-.984.544-1.608.72-.608.16-1.256.24-1.944.24a8.9 8.9 0 01-2.256-.288c-.72-.208-1.288-.448-1.704-.72v-3.144h1.536v1.824l.48.504c.208.16.456.288.744.384.288.096.664.144 1.128.144.768 0 1.4-.16 1.896-.48.496-.32.744-.76.744-1.32zm5.792-2.136c0-1.056.024-2.136.072-3.24.048-1.104.072-2.16.072-3.168h-1.776v-1.2h4.272c-.032 1.248-.064 2.448-.096 3.6-.016 1.136-.024 2.32-.024 3.552 0 .656.032 1.24.096 1.752.08.496.216.92.408 1.272a2 2 0 00.84.792c.352.176.8.264 1.344.264.8 0 1.472-.256 2.016-.768s.96-1.2 1.248-2.064v-7.2H514.8v-1.2h4.272v11.4h1.776v1.2h-4.008l-.168-2.736h-.12c-.08.336-.24.68-.48 1.032a4.054 4.054 0 01-.864.96 4.84 4.84 0 01-1.224.72 4.229 4.229 0 01-1.512.264c-.72 0-1.352-.08-1.896-.24-.544-.144-1-.416-1.368-.816-.368-.4-.648-.936-.84-1.608-.192-.672-.288-1.528-.288-2.568zm15.491-11.808h-2.04V123h4.56v7.872h.072c.304-.848.816-1.512 1.536-1.992.72-.48 1.528-.72 2.424-.72 1.632 0 2.88.512 3.744 1.536.88 1.024 1.32 2.616 1.32 4.776 0 2.224-.608 3.912-1.824 5.064-1.2 1.136-2.92 1.704-5.16 1.704-.448 0-.904-.032-1.368-.096a17.465 17.465 0 01-1.32-.192c-.416-.096-.792-.2-1.128-.312a3.977 3.977 0 01-.816-.36V124.2zm5.76 5.568c-.864 0-1.56.264-2.088.792-.512.512-.896 1.176-1.152 1.992v6.984c.32.176.704.32 1.152.432.464.096.96.144 1.488.144 1.184 0 2.104-.48 2.76-1.44.656-.96.984-2.36.984-4.2 0-.656-.056-1.272-.168-1.848-.112-.576-.296-1.072-.552-1.488a2.832 2.832 0 00-.984-1.008c-.384-.24-.864-.36-1.44-.36zm18.51 9.624c-.336.464-.872.896-1.608 1.296-.72.384-1.576.576-2.568.576-1.056 0-1.984-.152-2.784-.456-.784-.32-1.44-.76-1.968-1.32a5.48 5.48 0 01-1.176-2.064c-.256-.816-.384-1.72-.384-2.712 0-2.128.56-3.752 1.68-4.872 1.136-1.12 2.672-1.68 4.608-1.68.88 0 1.608.056 2.184.168a6.147 6.147 0 011.584.528v3.12h-2.16v-2.304c-.24-.144-.72-.216-1.44-.216-.608 0-1.144.088-1.608.264a2.72 2.72 0 00-1.176.864c-.32.4-.56.936-.72 1.608-.16.672-.24 1.496-.24 2.472 0 .64.088 1.256.264 1.848.176.576.44 1.088.792 1.536.352.432.792.776 1.32 1.032.544.256 1.176.384 1.896.384.384 0 .72-.04 1.008-.12.304-.08.568-.16.792-.24.224-.096.424-.2.6-.312.176-.112.344-.232.504-.36l.6.96zm2.075-4.68c0-1.056.152-1.992.456-2.808.304-.816.728-1.496 1.272-2.04a5.483 5.483 0 012.016-1.272c.8-.288 1.68-.432 2.64-.432 1.12 0 2.08.16 2.88.48.816.304 1.48.744 1.992 1.32.512.56.888 1.248 1.128 2.064.256.8.384 1.696.384 2.688 0 1.056-.152 1.992-.456 2.808a5.45 5.45 0 01-1.272 2.04c-.544.544-1.216.96-2.016 1.248-.784.288-1.664.432-2.64.432-1.088 0-2.032-.152-2.832-.456-.8-.32-1.464-.76-1.992-1.32a5.48 5.48 0 01-1.176-2.064c-.256-.8-.384-1.696-.384-2.688zm2.712 0c0 .768.072 1.48.216 2.136.144.656.376 1.224.696 1.704.336.48.76.864 1.272 1.152.528.272 1.168.408 1.92.408.944 0 1.72-.432 2.328-1.296.608-.864.912-2.232.912-4.104a9.96 9.96 0 00-.216-2.136c-.144-.672-.376-1.248-.696-1.728a3.186 3.186 0 00-1.2-1.152c-.48-.272-1.072-.408-1.776-.408-1.056 0-1.896.432-2.52 1.296-.624.864-.936 2.24-.936 4.128zm18.29 6.288h-6.072v-1.2h1.776v-15.6h-2.04V123h4.56v16.8h1.776v1.2zm2.9-7.536h7.584V135h-7.584v-1.536zm15.975 6.48c.592 0 1.128-.088 1.608-.264.48-.192.896-.448 1.248-.768s.624-.688.816-1.104c.192-.432.288-.896.288-1.392 0-.576-.104-1.08-.312-1.512a2.958 2.958 0 00-.864-1.104 3.36 3.36 0 00-1.248-.672c-.48-.16-.992-.24-1.536-.24h-1.704v-1.632l5.4-5.184v-.096l-1.44.144h-4.824l-.48.48v1.92h-1.536v-4.32h10.368v1.872l-4.512 4.224-.552.504-.408.36a1.347 1.347 0 01-.216.192v.048a2.846 2.846 0 00.48-.096c.128-.032.272-.056.432-.072.848.032 1.616.16 2.304.384a4.96 4.96 0 011.776.936c.496.4.872.896 1.128 1.488.272.576.408 1.248.408 2.016 0 .8-.176 1.52-.528 2.16-.336.64-.8 1.184-1.392 1.632-.592.448-1.288.792-2.088 1.032s-1.656.36-2.568.36c-.416 0-.864-.032-1.344-.096-.464-.064-.92-.144-1.368-.24-.448-.112-.872-.24-1.272-.384a4.457 4.457 0 01-.96-.528v-2.832h2.304v2.136c.224.16.568.312 1.032.456.48.128 1 .192 1.56.192zm13.983 6.576h-5.16v-1.008h2.76v-20.304h-2.76V124.2h5.16v22.32z"/><path stroke="#0CF7DA" stroke-width="3" d="M701.5 76v35"/><path fill="#fff" d="M643.231 124.2h5.16v1.008h-2.76v20.304h2.76v1.008h-5.16V124.2zm14.057 13.944c0-.432-.16-.808-.48-1.128-.32-.336-.72-.64-1.2-.912-.48-.288-1-.568-1.56-.84-.56-.288-1.08-.608-1.56-.96a5.31 5.31 0 01-1.2-1.272c-.32-.496-.48-1.088-.48-1.776 0-.464.112-.88.336-1.248.224-.384.52-.712.888-.984.384-.272.832-.48 1.344-.624a5.441 5.441 0 011.632-.24c.48 0 .904.016 1.272.048s.704.08 1.008.144c.304.048.592.112.864.192s.552.168.84.264v3.24h-1.536v-1.896l-.456-.528a7.263 7.263 0 00-.672-.12 5.818 5.818 0 00-.768-.048c-.768 0-1.344.152-1.728.456-.368.288-.552.656-.552 1.104 0 .432.16.808.48 1.128.32.32.72.624 1.2.912.48.272 1 .544 1.56.816.56.272 1.08.584 1.56.936.48.336.88.728 1.2 1.176.32.448.48.984.48 1.608a2.9 2.9 0 01-.408 1.536 3.517 3.517 0 01-1.08 1.152c-.448.304-.984.544-1.608.72-.608.16-1.256.24-1.944.24a8.9 8.9 0 01-2.256-.288c-.72-.208-1.288-.448-1.704-.72v-3.144h1.536v1.824l.48.504c.208.16.456.288.744.384.288.096.664.144 1.128.144.768 0 1.4-.16 1.896-.48.496-.32.744-.76.744-1.32zm5.792-2.136c0-1.056.024-2.136.072-3.24.048-1.104.072-2.16.072-3.168h-1.776v-1.2h4.272c-.032 1.248-.064 2.448-.096 3.6-.016 1.136-.024 2.32-.024 3.552 0 .656.032 1.24.096 1.752.08.496.216.92.408 1.272a2 2 0 00.84.792c.352.176.8.264 1.344.264.8 0 1.472-.256 2.016-.768s.96-1.2 1.248-2.064v-7.2H669.8v-1.2h4.272v11.4h1.776v1.2h-4.008l-.168-2.736h-.12c-.08.336-.24.68-.48 1.032a4.054 4.054 0 01-.864.96 4.84 4.84 0 01-1.224.72 4.229 4.229 0 01-1.512.264c-.72 0-1.352-.08-1.896-.24-.544-.144-1-.416-1.368-.816-.368-.4-.648-.936-.84-1.608-.192-.672-.288-1.528-.288-2.568zm15.491-11.808h-2.04V123h4.56v7.872h.072c.304-.848.816-1.512 1.536-1.992.72-.48 1.528-.72 2.424-.72 1.632 0 2.88.512 3.744 1.536.88 1.024 1.32 2.616 1.32 4.776 0 2.224-.608 3.912-1.824 5.064-1.2 1.136-2.92 1.704-5.16 1.704-.448 0-.904-.032-1.368-.096a17.465 17.465 0 01-1.32-.192c-.416-.096-.792-.2-1.128-.312a3.977 3.977 0 01-.816-.36V124.2zm5.76 5.568c-.864 0-1.56.264-2.088.792-.512.512-.896 1.176-1.152 1.992v6.984c.32.176.704.32 1.152.432.464.096.96.144 1.488.144 1.184 0 2.104-.48 2.76-1.44.656-.96.984-2.36.984-4.2 0-.656-.056-1.272-.168-1.848-.112-.576-.296-1.072-.552-1.488a2.832 2.832 0 00-.984-1.008c-.384-.24-.864-.36-1.44-.36zm18.51 9.624c-.336.464-.872.896-1.608 1.296-.72.384-1.576.576-2.568.576-1.056 0-1.984-.152-2.784-.456-.784-.32-1.44-.76-1.968-1.32a5.48 5.48 0 01-1.176-2.064c-.256-.816-.384-1.72-.384-2.712 0-2.128.56-3.752 1.68-4.872 1.136-1.12 2.672-1.68 4.608-1.68.88 0 1.608.056 2.184.168a6.147 6.147 0 011.584.528v3.12h-2.16v-2.304c-.24-.144-.72-.216-1.44-.216-.608 0-1.144.088-1.608.264a2.72 2.72 0 00-1.176.864c-.32.4-.56.936-.72 1.608-.16.672-.24 1.496-.24 2.472 0 .64.088 1.256.264 1.848.176.576.44 1.088.792 1.536.352.432.792.776 1.32 1.032.544.256 1.176.384 1.896.384.384 0 .72-.04 1.008-.12.304-.08.568-.16.792-.24.224-.096.424-.2.6-.312.176-.112.344-.232.504-.36l.6.96zm2.075-4.68c0-1.056.152-1.992.456-2.808.304-.816.728-1.496 1.272-2.04a5.483 5.483 0 012.016-1.272c.8-.288 1.68-.432 2.64-.432 1.12 0 2.08.16 2.88.48.816.304 1.48.744 1.992 1.32.512.56.888 1.248 1.128 2.064.256.8.384 1.696.384 2.688 0 1.056-.152 1.992-.456 2.808a5.45 5.45 0 01-1.272 2.04c-.544.544-1.216.96-2.016 1.248-.784.288-1.664.432-2.64.432-1.088 0-2.032-.152-2.832-.456-.8-.32-1.464-.76-1.992-1.32a5.48 5.48 0 01-1.176-2.064c-.256-.8-.384-1.696-.384-2.688zm2.712 0c0 .768.072 1.48.216 2.136.144.656.376 1.224.696 1.704.336.48.76.864 1.272 1.152.528.272 1.168.408 1.92.408.944 0 1.72-.432 2.328-1.296.608-.864.912-2.232.912-4.104a9.96 9.96 0 00-.216-2.136c-.144-.672-.376-1.248-.696-1.728a3.186 3.186 0 00-1.2-1.152c-.48-.272-1.072-.408-1.776-.408-1.056 0-1.896.432-2.52 1.296-.624.864-.936 2.24-.936 4.128zm18.29 6.288h-6.072v-1.2h1.776v-15.6h-2.04V123h4.56v16.8h1.776v1.2zm2.9-7.536h7.584V135h-7.584v-1.536zM751.441 141h-7.056v-1.536h2.472v-3.096h-8.232v-1.536l8.232-10.632h2.52v10.632h2.976v1.536h-2.976v3.096h2.064V141zm-4.584-13.176l.168-1.728h-.072l-.936 1.728-4.992 6.384-.888.792 1.728-.168h4.992v-7.008zm11.919 18.696h-5.16v-1.008h2.76v-20.304h-2.76V124.2h5.16v22.32z"/></svg>