<svg xmlns="http://www.w3.org/2000/svg" viewBox="0 0 828 259"><g fill="#000" fill-rule="evenodd"><path d="M6.882 206.32c-1.368.326-2.458.196-3.272-.39-.814-.586-1.35-1.35-1.611-2.295-.26-.944-.244-1.953.049-3.027s.927-1.937 1.904-2.588l20.312-42.187c1.563-3.581 2.279-6.364 2.149-8.35-.13-1.986-.781-3.353-1.953-4.102-1.172-.748-2.686-.944-4.541-.586-1.856.359-3.744 1.107-5.664 2.247a24.181 24.181 0 0 0-5.274 4.248c-1.595 1.692-2.685 3.483-3.271 5.37-.782.326-1.547.375-2.295.147a4.881 4.881 0 0 1-1.953-1.123A4.276 4.276 0 0 1 .29 151.78c-.228-.749-.147-1.514.244-2.295 1.367-3.906 3.418-7.048 6.152-9.424 2.735-2.376 5.697-4.02 8.887-4.932 3.19-.911 6.315-1.106 9.375-.585 3.06.52 5.534 1.757 7.422 3.71 1.888 1.954 2.962 4.59 3.223 7.91.26 3.321-.814 7.325-3.223 12.012l-18.067 39.258c2.67.26 5.355.293 8.057.098 2.702-.195 5.404-.472 8.106-.83 2.701-.358 5.403-.668 8.105-.928 2.702-.26 5.42-.293 8.154-.098.391-.065.814.163 1.27.684.456.52.83 1.188 1.123 2.002.293.814.423 1.676.39 2.588a4.14 4.14 0 0 1-.878 2.441c-.554.716-1.433 1.253-2.637 1.612-1.205.358-2.88.374-5.03.048l-34.081 1.27zM136.49 8.417c-.326-.228-.486-.464-.481-.708.005-.245.198-.426.578-.546l5.665-.032a.489.489 0 0 1 .31.293.643.643 0 0 1 .008.44.993.993 0 0 1-.285.423c-.141.13-.331.206-.57.227l-5.226-.097zm16.963 4.167c-.195.24-.413.391-.651.456a.982.982 0 0 1-.651-.024.888.888 0 0 1-.456-.456c-.109-.222-.125-.507-.05-.855l-.08-10.712a.832.832 0 0 1 .366-.382 1.07 1.07 0 0 1 .52-.139c.18 0 .34.046.48.139.142.092.218.236.229.431v4.347c.206-.293.382-.532.529-.717.146-.184.301-.339.464-.464.163-.124.35-.222.562-.293.211-.07.474-.138.79-.203.596-.076 1.082.027 1.456.31.375.281.665.67.871 1.163.206.494.347 1.053.423 1.677.076.624.125 1.24.147 1.848.022.608.03 1.172.024 1.693-.005.52.014.917.057 1.188.087.337.076.624-.032.863-.109.239-.258.396-.448.472-.19.076-.396.057-.619-.057-.222-.114-.398-.36-.529-.74a9.518 9.518 0 0 1-.122-1.27 40.865 40.865 0 0 1-.024-1.425c0-.483-.008-.952-.025-1.408a8.59 8.59 0 0 0-.122-1.22c-.065-.36-.165-.65-.3-.872a.679.679 0 0 0-.579-.35 2.095 2.095 0 0 0-1.01.554 3.144 3.144 0 0 0-.658.993c-.169.39-.296.82-.383 1.286a12.3 12.3 0 0 0-.18 1.432c-.032.489-.045.97-.04 1.441.006.472.02.904.04 1.294zm7.375-.065a2.68 2.68 0 0 1-1.132-1c-.266-.43-.44-.902-.52-1.417a5.347 5.347 0 0 1 0-1.612c.08-.559.219-1.102.414-1.628a7.282 7.282 0 0 1 .717-1.44c.282-.435.586-.788.911-1.059.597-.456 1.15-.727 1.66-.814.511-.087.967-.038 1.368.147.402.184.752.477 1.05.879.299.401.532.86.7 1.375a6.48 6.48 0 0 1 .302 1.661 6.829 6.829 0 0 1-.122 1.734 5.6 5.6 0 0 1-.57 1.579c-.266.488-.619.89-1.058 1.205-.44.314-.966.515-1.58.602-.613.087-1.326.016-2.14-.212zm1.253-1.35c.456.043.866-.058 1.23-.302.363-.244.664-.564.903-.96.239-.397.412-.844.52-1.344.11-.499.131-.98.066-1.44a3.11 3.11 0 0 0-.456-1.254 1.905 1.905 0 0 0-1.026-.79c-.27-.054-.556.033-.854.26-.299.229-.57.535-.814.92-.244.386-.445.82-.603 1.303-.157.483-.236.96-.236 1.433 0 .472.098.903.293 1.294.196.39.521.684.977.88zm6.968 1.025a.866.866 0 0 1-.399.415c-.19.103-.388.155-.594.155-.206 0-.399-.06-.578-.18-.18-.119-.301-.32-.366-.602-.022-.108-.025-.334-.008-.676.016-.341.019-.824.008-1.448s-.044-1.4-.098-2.328a58.175 58.175 0 0 0-.31-3.33c.229-.206.448-.282.66-.228.212.055.404.174.578.359.174.184.315.41.423.675.109.266.168.513.18.74.054-.205.17-.42.35-.642.178-.223.398-.426.659-.61.26-.185.55-.343.87-.473.32-.13.652-.211.994-.244.342-.033.683 0 1.025.098.342.097.66.282.953.553.01.098-.006.201-.05.31a1.273 1.273 0 0 1-.178.309 1.274 1.274 0 0 1-.26.252.8.8 0 0 1-.294.139c-.63-.13-1.164-.123-1.603.024-.44.147-.8.388-1.083.724a3.344 3.344 0 0 0-.635 1.23A8.49 8.49 0 0 0 169 8.954a12.928 12.928 0 0 0-.057 1.66c.016.565.052 1.091.106 1.58zm6.87-.814c.076.206.1.407.073.602-.027.195-.09.37-.187.521-.098.152-.22.271-.366.358a.758.758 0 0 1-.448.114.708.708 0 0 1-.431-.203c-.136-.125-.242-.329-.318-.61-.021-.077-.04-.264-.057-.562-.016-.299-.03-.649-.04-1.05l-.033-1.295c-.01-.461-.022-.892-.033-1.294-.01-.402-.021-.752-.032-1.05-.01-.299-.027-.491-.049-.578-.076-.532-.081-.963-.016-1.294.065-.331.165-.58.301-.75.136-.167.29-.26.464-.276a.677.677 0 0 1 .48.138c.147.109.263.275.35.497.087.223.114.486.082.79l.26 5.942zm-1.172-8.661c-.239-.185-.383-.388-.431-.61a.909.909 0 0 1 .048-.595.733.733 0 0 1 .391-.374c.18-.076.372-.065.578.032.239.13.385.315.44.554.054.239.043.458-.033.66a.787.787 0 0 1-.383.439c-.179.092-.382.057-.61-.106zm2.881 9.947a.894.894 0 0 1-.325-.228 2.013 2.013 0 0 1-.31-.399 1.21 1.21 0 0 1-.162-.448.417.417 0 0 1 .114-.374c.911-.814 1.639-1.528 2.181-2.14.543-.614.955-1.14 1.237-1.58.283-.44.467-.809.554-1.107a3.45 3.45 0 0 0 .147-.74c.01-.131-.128-.223-.416-.278a6.109 6.109 0 0 0-1.033-.09 19.12 19.12 0 0 0-1.238.025 33.65 33.65 0 0 0-1.025.065c-.424-.303-.619-.594-.586-.87.032-.277.293-.513.781-.709 1.357-.12 2.44-.133 3.248-.04.808.092 1.392.28 1.75.561.358.282.524.649.497 1.1-.028.45-.196.968-.505 1.554-.31.586-.73 1.229-1.262 1.93-.532.7-1.123 1.44-1.774 2.221l3.451-.26c.228.076.383.2.464.374a.82.82 0 0 1 .057.546c-.043.19-.147.36-.31.512-.162.152-.374.25-.634.293l-4.9.082zm8.01-.147a2.68 2.68 0 0 1-1.131-1c-.266-.43-.44-.902-.521-1.417a5.347 5.347 0 0 1 0-1.612c.081-.559.22-1.102.415-1.628a7.282 7.282 0 0 1 .716-1.44c.282-.435.586-.788.912-1.059.597-.456 1.15-.727 1.66-.814.51-.087.966-.038 1.368.147.402.184.752.477 1.05.879.298.401.532.86.7 1.375a6.48 6.48 0 0 1 .301 1.661 6.828 6.828 0 0 1-.122 1.734 5.6 5.6 0 0 1-.57 1.579c-.266.488-.618.89-1.058 1.205-.44.314-.966.515-1.579.602-.613.087-1.327.016-2.14-.212zm1.254-1.35c.456.043.865-.058 1.229-.302.363-.244.665-.564.903-.96.24-.397.413-.844.521-1.344.109-.499.13-.98.065-1.44a3.11 3.11 0 0 0-.455-1.254 1.905 1.905 0 0 0-1.026-.79c-.271-.054-.556.033-.855.26-.298.229-.57.535-.814.92-.244.386-.445.82-.602 1.303-.157.483-.236.96-.236 1.433 0 .472.098.903.293 1.294.195.39.52.684.977.88zm6.674.83c0 .336-.09.561-.268.675a.794.794 0 0 1-.586.114 1.234 1.234 0 0 1-.586-.285.802.802 0 0 1-.301-.537c.021-1.107.024-2.287.008-3.541-.017-1.254-.052-2.57-.106-3.948.087-.293.236-.477.448-.553a.664.664 0 0 1 .61.073c.195.125.345.347.448.667.103.32.09.73-.041 1.23.695-1.02 1.346-1.688 1.954-2.003.607-.315 1.166-.38 1.676-.195.51.184.958.561 1.344 1.131.385.57.702 1.23.952 1.978.25.749.42 1.533.513 2.353.092.819.095 1.57.008 2.254.01.282-.073.494-.253.635-.179.141-.374.22-.586.236a.873.873 0 0 1-.578-.154c-.173-.12-.25-.304-.227-.554.076-1.367.046-2.474-.09-3.321s-.331-1.479-.586-1.897c-.255-.417-.55-.648-.887-.691-.337-.044-.676.046-1.018.268-.342.223-.667.556-.977 1.001-.309.445-.559.945-.748 1.498a6.893 6.893 0 0 0-.35 1.766 4.555 4.555 0 0 0 .227 1.8zm10.029-5.324c-.054.022-.076.146-.065.374.01.228.035.516.073.863.038.347.084.738.138 1.172.055.434.093.863.114 1.286.022.424.02.823-.008 1.197-.027.374-.095.681-.203.92-.109.239-.269.388-.48.447-.212.06-.497-.008-.855-.203l-.391-6.056a3.414 3.414 0 0 0-.586-.065c-.152 0-.296.008-.431.024-.136.016-.285.033-.448.049a3.617 3.617 0 0 1-.635-.008.798.798 0 0 1-.375-.456c-.054-.184-.008-.366.139-.545.146-.18.407-.331.781-.456.375-.125.893-.187 1.555-.187.076-.044.098-.21.065-.497a41.312 41.312 0 0 0-.13-1.017 16.6 16.6 0 0 1-.122-1.221c-.027-.424.003-.787.09-1.091.086-.304.252-.51.496-.619.244-.108.61-.049 1.099.18.01.607.021 1.117.032 1.53.011.412.022.757.033 1.033.01.277.022.497.032.66a15.016 15.016 0 0 0 .066.724c.01.092.021.204.032.334.228.01.437.008.627-.008l.553-.05c.18-.015.364-.029.554-.04.19-.01.399-.01.627 0 .238.054.412.152.52.293.11.141.16.293.155.456a.746.746 0 0 1-.195.464c-.125.147-.29.258-.497.334l-2.36.179zm10.989 5.177c0 .315-.065.526-.196.635a.69.69 0 0 1-.455.163 1.2 1.2 0 0 1-.497-.106c-.157-.07-.258-.139-.301-.204l-.863-1.856a5.98 5.98 0 0 1-.488.757c-.185.245-.391.462-.619.652-.228.19-.475.35-.74.48-.267.13-.552.211-.855.244-.728.022-1.333-.09-1.816-.334a3.064 3.064 0 0 1-1.156-.985 3.486 3.486 0 0 1-.57-1.424 5.845 5.845 0 0 1-.04-1.66c.065-.57.2-1.132.407-1.686.206-.553.467-1.05.781-1.49a4.46 4.46 0 0 1 1.1-1.09 2.654 2.654 0 0 1 1.342-.48c.478-.033.98.078 1.506.333.527.256 1.067.709 1.62 1.36l1.84 6.69zm-6.382-1.075c.5.174.936.215 1.31.122.375-.092.692-.268.953-.529.26-.26.458-.586.594-.976a5.013 5.013 0 0 0 .195-2.466 3.478 3.478 0 0 0-.358-1.075 1.732 1.732 0 0 0-.643-.692c-.26-.152-.564-.185-.911-.098-.283.065-.535.23-.757.497-.223.266-.41.58-.562.944a5.633 5.633 0 0 0-.342 1.18 6.499 6.499 0 0 0-.106 1.237c.006.402.06.768.163 1.1.103.33.258.583.464.756zm9.752 1.189c.076.271.065.48-.033.627a.613.613 0 0 1-.423.268 1.279 1.279 0 0 1-.61-.057 1.406 1.406 0 0 1-.579-.35l-.553-11.038c-.076-.195-.079-.366-.008-.512a.788.788 0 0 1 .31-.342c.135-.082.287-.133.455-.155a.844.844 0 0 1 .456.057c.135.06.239.157.309.293.07.136.073.318.008.546l.668 10.663zm1.286-3.55c-.326-.227-.486-.463-.48-.707.005-.245.198-.426.577-.546l5.666-.032a.489.489 0 0 1 .31.293.643.643 0 0 1 .007.44.993.993 0 0 1-.285.423c-.14.13-.33.206-.57.227l-5.225-.097zm9.751-1.741c-.054.022-.076.146-.065.374.011.228.036.516.074.863s.084.738.138 1.172c.054.434.092.863.114 1.286.022.424.019.823-.008 1.197-.027.374-.095.681-.204.92-.108.239-.268.388-.48.447-.212.06-.497-.008-.855-.203l-.39-6.056a3.414 3.414 0 0 0-.586-.065c-.152 0-.296.008-.432.024s-.285.033-.448.049a3.617 3.617 0 0 1-.635-.008.798.798 0 0 1-.374-.456c-.054-.184-.008-.366.138-.545.147-.18.407-.331.782-.456.374-.125.893-.187 1.555-.187.076-.044.097-.21.065-.497a41.312 41.312 0 0 0-.13-1.017c-.055-.391-.096-.798-.123-1.221-.027-.424.003-.787.09-1.091.087-.304.252-.51.496-.619.245-.108.61-.049 1.1.18.01.607.021 1.117.032 1.53.01.412.022.757.032 1.033.011.277.022.497.033.66a15.016 15.016 0 0 0 .065.724c.011.092.022.204.033.334.228.01.437.008.626-.008l.554-.05c.179-.015.364-.029.553-.04.19-.01.4-.01.627 0 .239.054.413.152.521.293.109.141.16.293.155.456a.746.746 0 0 1-.195.464c-.125.147-.29.258-.497.334l-2.36.179zm8.27 5.21c-.64.412-1.272.683-1.896.813-.624.13-1.186.144-1.685.041-.5-.103-.906-.306-1.221-.61-.315-.304-.483-.69-.505-1.156l-.57-8.791a2.2 2.2 0 0 1 .163-1.01c.13-.304.293-.518.489-.643a.574.574 0 0 1 .602-.032c.206.103.37.371.488.806-.01.314-.032.6-.065.854-.032.255-.057.508-.073.757-.016.25-.013.508.008.774.022.265.082.561.18.887.846-.63 1.627-.955 2.344-.977.716-.022 1.335.157 1.856.537.52.38.933.906 1.237 1.58.304.672.464 1.386.48 2.14a5.6 5.6 0 0 1-.407 2.214 4.127 4.127 0 0 1-1.424 1.815zm-3.955-5.08c-.055.109-.104.296-.147.562a5.588 5.588 0 0 0-.065.895c0 .331.024.673.073 1.026.049.353.133.675.253.968.119.293.276.538.472.733.195.195.445.298.749.31.792-.174 1.419-.446 1.88-.815.461-.369.79-.781.985-1.237a3.09 3.09 0 0 0 .252-1.408 3.604 3.604 0 0 0-.325-1.335 2.944 2.944 0 0 0-.766-1.018c-.32-.27-.667-.42-1.042-.447-.374-.027-.765.092-1.172.358-.407.266-.79.735-1.147 1.408zm-96.817 24.236c-.325-.228-.485-.464-.48-.708.005-.244.198-.426.578-.545l5.665-.033a.489.489 0 0 1 .31.293.643.643 0 0 1 .008.44.993.993 0 0 1-.285.423c-.141.13-.331.206-.57.228l-5.226-.098zm20.61 3.712c-.184.336-.41.548-.675.635-.266.087-.556.005-.871-.244l-.301-.448c-.18-.266-.445-.695-.798-1.286a87.052 87.052 0 0 1-1.327-2.328c-.532-.96-1.161-2.152-1.888-3.574a.77.77 0 0 1-.13-.561.895.895 0 0 1 .236-.48.974.974 0 0 1 1.05-.228c.108.043.238.176.39.398.152.223.318.497.497.823.179.325.369.686.57 1.082.2.396.401.79.602 1.18.2.391.396.766.586 1.124.19.358.366.66.53.903.162.245.309.418.439.521.13.103.233.095.31-.024.032-.054.083-.18.154-.375.07-.195.152-.431.244-.708.092-.277.19-.567.293-.87l.293-.872a30.881 30.881 0 0 1 .383-1.082c.054-.141.119-.318.195-.53.076-.211.163-.428.26-.65.098-.223.21-.427.334-.611.125-.185.263-.318.415-.399a.627.627 0 0 1 .497-.04c.179.054.382.216.61.488.066.076.106.17.122.285.017.114-.005.282-.065.504-.06.223-.157.513-.293.871-.135.358-.323.828-.561 1.408-.24.581-.532 1.287-.88 2.117-.347.83-.754 1.82-1.22 2.97zm10.745-1.058a2.73 2.73 0 0 1-.781.92 3.464 3.464 0 0 1-1.075.545c-.39.12-.8.176-1.229.17a4.185 4.185 0 0 1-1.245-.203 4.468 4.468 0 0 1-1.132-.553 3.335 3.335 0 0 1-.887-.88 6.85 6.85 0 0 1-.798-2.197c-.14-.781-.135-1.52.017-2.214a3.95 3.95 0 0 1 .928-1.823c.466-.521 1.118-.869 1.953-1.042.793-.055 1.42.04 1.88.285.462.244.777.575.945.993.168.417.2.881.097 1.392a3.98 3.98 0 0 1-.659 1.49 5.044 5.044 0 0 1-1.335 1.285 5.13 5.13 0 0 1-1.92.774c.216.358.463.615.74.773.277.157.567.252.87.285.305.032.606.013.904-.057.299-.07.576-.158.83-.26.256-.104.48-.201.676-.294.196-.092.337-.154.424-.187.39-.12.656-.12.797 0 .141.12.141.385 0 .798zm-4.314-5.812a3.625 3.625 0 0 0-1.156 1.465c-.12.282-.198.575-.236.88-.038.303-.03.602.025.895a3.274 3.274 0 0 0 1.229-.424 3.8 3.8 0 0 0 .911-.74c.245-.277.421-.562.53-.855.108-.293.138-.548.09-.765-.05-.217-.188-.375-.416-.472-.228-.098-.554-.093-.977.016zm7.245 6.935a.866.866 0 0 1-.4.415c-.19.103-.387.155-.593.155-.207 0-.4-.06-.578-.18-.18-.119-.302-.32-.367-.602-.021-.108-.024-.333-.008-.675s.02-.825.008-1.45c-.01-.623-.043-1.4-.097-2.327a58.175 58.175 0 0 0-.31-3.33c.228-.206.448-.282.66-.227.211.054.404.173.578.358.173.184.314.41.423.676.108.265.168.512.179.74.054-.206.17-.42.35-.643.18-.222.399-.426.66-.61.26-.185.55-.342.87-.472.32-.13.652-.212.993-.245.342-.032.684 0 1.026.098.342.098.66.282.952.554.011.097-.005.2-.048.309a1.273 1.273 0 0 1-.18.31 1.274 1.274 0 0 1-.26.252.8.8 0 0 1-.293.138c-.63-.13-1.164-.122-1.604.024-.44.147-.8.388-1.082.725a3.344 3.344 0 0 0-.635 1.229 8.49 8.49 0 0 0-.293 1.538 12.928 12.928 0 0 0-.057 1.66c.016.565.051 1.092.106 1.58zm7.88-5.519c-.055.022-.077.147-.066.375.01.228.035.515.073.862.038.348.084.738.139 1.173.054.434.092.862.114 1.286.021.423.019.822-.009 1.196-.027.375-.095.681-.203.92-.109.239-.269.388-.48.448-.212.06-.497-.008-.855-.204l-.39-6.056a3.414 3.414 0 0 0-.587-.065c-.152 0-.296.008-.431.025a22.93 22.93 0 0 1-.448.048 3.617 3.617 0 0 1-.635-.008.798.798 0 0 1-.374-.456c-.055-.184-.008-.366.138-.545.147-.18.407-.331.782-.456.374-.125.892-.187 1.554-.187.076-.043.098-.209.065-.497a41.317 41.317 0 0 0-.13-1.017c-.054-.39-.095-.798-.122-1.221-.027-.423.003-.787.09-1.09.086-.305.252-.51.496-.62.244-.108.61-.048 1.099.18.01.607.022 1.117.033 1.53.01.412.021.757.032 1.034.011.276.022.496.033.659a15.02 15.02 0 0 0 .065.724c.01.093.022.204.032.334.228.011.437.008.627-.008s.375-.032.554-.049c.179-.016.363-.03.553-.04.19-.011.399-.011.627 0 .239.054.412.151.52.293.11.14.161.293.156.455a.746.746 0 0 1-.196.464c-.125.147-.29.258-.496.334l-2.36.18zm4.46 4.705c.076.206.1.407.073.602-.027.196-.09.37-.187.521-.098.152-.22.272-.366.359a.758.758 0 0 1-.448.114.708.708 0 0 1-.432-.204c-.135-.125-.241-.328-.317-.61-.022-.076-.04-.264-.057-.562-.016-.299-.03-.649-.04-1.05-.012-.402-.022-.833-.033-1.294l-.033-1.295c-.01-.401-.022-.751-.032-1.05-.011-.298-.028-.49-.05-.578-.075-.531-.08-.963-.016-1.294.066-.33.166-.58.302-.749.135-.168.29-.26.464-.277a.677.677 0 0 1 .48.139c.146.108.263.274.35.496.087.223.114.486.081.79l.26 5.942zm-1.172-8.66c-.24-.185-.383-.389-.432-.611a.909.909 0 0 1 .05-.595.733.733 0 0 1 .39-.374c.179-.076.371-.065.578.033.238.13.385.314.44.553.054.239.043.459-.033.66a.787.787 0 0 1-.383.439c-.179.092-.382.057-.61-.106zm9.068 7.879c-.283.662-.644 1.156-1.083 1.481-.44.326-.91.518-1.408.578a3.22 3.22 0 0 1-1.506-.187 4.354 4.354 0 0 1-1.368-.806 4.423 4.423 0 0 1-1.009-1.278 3.709 3.709 0 0 1-.431-1.628 8.945 8.945 0 0 1-.057-1.164c.005-.407.046-.803.122-1.188.076-.386.198-.755.366-1.107.168-.353.399-.665.692-.937a2.61 2.61 0 0 1 1.164-.561 3.22 3.22 0 0 1 1.205-.016c.385.07.735.192 1.05.366.314.173.542.366.683.578.141.211.174.42.098.627-.076.206-.304.374-.684.504-.564-.325-1.052-.494-1.465-.504-.412-.011-.749.084-1.01.284-.26.201-.452.483-.577.847-.125.364-.19.757-.196 1.18-.005.424.05.85.163 1.278.114.429.277.814.489 1.156.211.342.472.61.781.806.31.195.654.269 1.034.22.38-.05.798-.242 1.253-.578.456-.337.94-.874 1.45-1.612.119-.065.22-.054.3.033a.713.713 0 0 1 .163.382 2.173 2.173 0 0 1-.22 1.245zm9.295 1.253c0 .315-.065.527-.195.635a.69.69 0 0 1-.456.163 1.2 1.2 0 0 1-.496-.106c-.158-.07-.258-.138-.302-.203l-.862-1.856a5.98 5.98 0 0 1-.489.757c-.184.244-.39.461-.618.65-.228.19-.475.35-.741.481-.266.13-.551.212-.855.244-.727.022-1.332-.09-1.815-.333a3.064 3.064 0 0 1-1.156-.985 3.486 3.486 0 0 1-.57-1.425 5.845 5.845 0 0 1-.04-1.66c.065-.57.2-1.132.407-1.685.206-.554.466-1.05.781-1.49a4.46 4.46 0 0 1 1.099-1.09 2.654 2.654 0 0 1 1.343-.48c.477-.033.98.078 1.506.333s1.066.708 1.62 1.36l1.84 6.69zm-6.381-1.074c.499.173.936.214 1.31.122.375-.092.692-.269.953-.53.26-.26.458-.585.594-.976a5.013 5.013 0 0 0 .195-2.466 3.478 3.478 0 0 0-.358-1.075 1.732 1.732 0 0 0-.643-.692c-.26-.152-.564-.184-.912-.098-.282.066-.534.231-.757.497-.222.266-.41.58-.561.944a5.633 5.633 0 0 0-.342 1.18 6.499 6.499 0 0 0-.106 1.238c.005.401.06.768.163 1.099.103.33.257.583.464.757zm9.751 1.188c.076.271.065.48-.032.627a.613.613 0 0 1-.424.269 1.279 1.279 0 0 1-.61-.057 1.406 1.406 0 0 1-.578-.35l-.554-11.038c-.076-.196-.078-.366-.008-.513a.788.788 0 0 1 .31-.342c.135-.081.287-.133.455-.155a.844.844 0 0 1 .456.057c.136.06.24.158.31.293.07.136.073.318.008.546l.667 10.663zm1.286-3.549c-.325-.228-.485-.464-.48-.708.006-.244.198-.426.578-.545l5.665-.033a.489.489 0 0 1 .31.293.643.643 0 0 1 .008.44.993.993 0 0 1-.285.423c-.141.13-.331.206-.57.228l-5.226-.098zm8.857 3.777a.866.866 0 0 1-.4.415c-.19.103-.387.155-.593.155-.207 0-.4-.06-.578-.18-.18-.119-.302-.32-.367-.602-.021-.108-.024-.333-.008-.675s.02-.825.008-1.45c-.01-.623-.043-1.4-.097-2.327a58.175 58.175 0 0 0-.31-3.33c.228-.206.448-.282.66-.227.211.054.404.173.578.358.173.184.314.41.423.676.108.265.168.512.179.74.054-.206.17-.42.35-.643.179-.222.399-.426.66-.61.26-.185.55-.342.87-.472.32-.13.651-.212.993-.245.342-.032.684 0 1.026.098.342.098.66.282.952.554.011.097-.005.2-.049.309a1.273 1.273 0 0 1-.179.31 1.274 1.274 0 0 1-.26.252.8.8 0 0 1-.293.138c-.63-.13-1.164-.122-1.604.024-.44.147-.8.388-1.082.725a3.344 3.344 0 0 0-.635 1.229 8.49 8.49 0 0 0-.293 1.538 12.928 12.928 0 0 0-.057 1.66c.016.565.051 1.092.106 1.58zm7.407-.228c.076.271.065.48-.033.627a.613.613 0 0 1-.423.269 1.279 1.279 0 0 1-.61-.057 1.406 1.406 0 0 1-.578-.35l-.554-11.038c-.076-.196-.079-.366-.008-.513a.788.788 0 0 1 .31-.342c.135-.081.287-.133.455-.155a.844.844 0 0 1 .456.057c.136.06.239.158.31.293.07.136.073.318.007.546l.668 10.663zm-84.737 19.075c-.325-.227-.485-.463-.48-.708.005-.244.198-.426.578-.545l5.665-.033a.489.489 0 0 1 .31.293.643.643 0 0 1 .008.44.993.993 0 0 1-.285.423c-.141.13-.331.206-.57.228l-5.226-.098zm20.61 3.712c-.184.337-.41.548-.675.635-.266.087-.556.006-.871-.244l-.301-.448c-.18-.266-.445-.694-.798-1.286a87.052 87.052 0 0 1-1.327-2.328c-.532-.96-1.161-2.151-1.888-3.573a.77.77 0 0 1-.13-.562.895.895 0 0 1 .236-.48.974.974 0 0 1 1.05-.228c.108.043.238.176.39.399.152.222.318.496.497.822.179.326.369.686.57 1.083.2.396.401.79.602 1.18.2.39.396.765.586 1.123.19.358.366.66.53.904.162.244.309.418.439.52.13.104.233.096.31-.024.032-.054.083-.179.154-.374.07-.196.152-.432.244-.708.092-.277.19-.567.293-.871l.293-.871a30.881 30.881 0 0 1 .383-1.083c.054-.141.119-.317.195-.53.076-.21.163-.428.26-.65.098-.223.21-.426.334-.61.125-.185.263-.318.415-.4a.627.627 0 0 1 .497-.04c.179.054.382.217.61.488.066.076.106.171.122.285.017.114-.005.282-.065.505-.06.222-.157.512-.293.87-.135.359-.323.828-.561 1.409-.24.58-.532 1.286-.88 2.116-.347.83-.754 1.82-1.22 2.971zm10.745-1.058a2.73 2.73 0 0 1-.781.92 3.464 3.464 0 0 1-1.075.545c-.39.12-.8.177-1.229.171a4.185 4.185 0 0 1-1.245-.203 4.468 4.468 0 0 1-1.132-.554 3.335 3.335 0 0 1-.887-.879 6.85 6.85 0 0 1-.798-2.198c-.14-.781-.135-1.52.017-2.214a3.95 3.95 0 0 1 .928-1.823c.466-.521 1.118-.868 1.953-1.042.793-.054 1.42.04 1.88.285.462.244.777.575.945.993.168.418.2.882.097 1.392a3.98 3.98 0 0 1-.659 1.49 5.044 5.044 0 0 1-1.335 1.286 5.13 5.13 0 0 1-1.92.773c.216.358.463.616.74.773.277.158.567.253.87.285.305.033.606.014.904-.057.299-.07.576-.157.83-.26.256-.103.48-.201.676-.293.196-.093.337-.155.424-.188.39-.119.656-.119.797 0 .141.12.141.386 0 .798zm-4.314-5.812a3.625 3.625 0 0 0-1.156 1.465c-.12.283-.198.576-.236.88-.038.303-.03.602.025.895a3.274 3.274 0 0 0 1.229-.423 3.8 3.8 0 0 0 .911-.741c.245-.277.421-.562.53-.855.108-.293.138-.548.09-.765-.05-.217-.188-.374-.416-.472-.228-.098-.554-.092-.977.016zm7.245 6.935a.866.866 0 0 1-.4.416c-.19.103-.387.154-.593.154-.207 0-.4-.06-.578-.179-.18-.12-.302-.32-.367-.602-.021-.109-.024-.334-.008-.676s.02-.825.008-1.449c-.01-.624-.043-1.4-.097-2.328a58.175 58.175 0 0 0-.31-3.329c.228-.206.448-.282.66-.228.211.054.404.174.578.358.173.185.314.41.423.676.108.266.168.513.179.74.054-.206.17-.42.35-.642.18-.223.399-.426.66-.611.26-.184.55-.342.87-.472.32-.13.652-.212.993-.244.342-.033.684 0 1.026.097.342.098.66.283.952.554.011.098-.005.2-.048.31a1.273 1.273 0 0 1-.18.309 1.274 1.274 0 0 1-.26.252.8.8 0 0 1-.293.138c-.63-.13-1.164-.122-1.604.025-.44.146-.8.388-1.082.724a3.344 3.344 0 0 0-.635 1.23 8.49 8.49 0 0 0-.293 1.538 12.928 12.928 0 0 0-.057 1.66c.016.565.051 1.091.106 1.58zm7.88-5.518c-.055.021-.077.146-.066.374.01.228.035.516.073.863.038.347.084.738.139 1.172.054.434.092.863.114 1.286.021.423.019.822-.009 1.197-.027.374-.095.68-.203.92-.109.238-.269.387-.48.447-.212.06-.497-.008-.855-.203l-.39-6.056a3.414 3.414 0 0 0-.587-.066c-.152 0-.296.009-.431.025a22.93 22.93 0 0 1-.448.049 3.617 3.617 0 0 1-.635-.008.798.798 0 0 1-.374-.456c-.055-.185-.008-.367.138-.546.147-.179.407-.33.782-.456.374-.124.892-.187 1.554-.187.076-.043.098-.209.065-.496a41.317 41.317 0 0 0-.13-1.018c-.054-.39-.095-.797-.122-1.22-.027-.424.003-.788.09-1.091.086-.304.252-.51.496-.62.244-.108.61-.048 1.099.18.01.608.022 1.118.033 1.53.01.413.021.757.032 1.034s.022.497.033.66a15.02 15.02 0 0 0 .065.724c.01.092.022.203.032.334.228.01.437.008.627-.009l.554-.048c.179-.017.363-.03.553-.041.19-.011.399-.011.627 0 .239.054.412.152.52.293.11.141.161.293.156.456a.746.746 0 0 1-.196.464c-.125.146-.29.257-.496.333l-2.36.18zm4.46 4.704c.076.207.1.407.073.603-.027.195-.09.369-.187.52-.098.153-.22.272-.366.359a.758.758 0 0 1-.448.114.708.708 0 0 1-.432-.204c-.135-.124-.241-.328-.317-.61-.022-.076-.04-.263-.057-.562-.016-.298-.03-.648-.04-1.05-.012-.401-.022-.833-.033-1.294l-.033-1.294c-.01-.402-.022-.752-.032-1.05-.011-.299-.028-.492-.05-.578-.075-.532-.08-.964-.016-1.295.066-.33.166-.58.302-.748.135-.169.29-.26.464-.277a.677.677 0 0 1 .48.138c.146.109.263.274.35.497.087.222.114.485.081.79l.26 5.941zm-1.172-8.66c-.24-.185-.383-.388-.432-.611a.909.909 0 0 1 .05-.594.733.733 0 0 1 .39-.375c.179-.076.371-.065.578.033.238.13.385.315.44.553.054.24.043.459-.033.66a.787.787 0 0 1-.383.44c-.179.092-.382.056-.61-.106zm9.068 7.879c-.283.662-.644 1.156-1.083 1.481-.44.326-.91.519-1.408.578a3.22 3.22 0 0 1-1.506-.187 4.354 4.354 0 0 1-1.368-.806 4.423 4.423 0 0 1-1.009-1.278 3.709 3.709 0 0 1-.431-1.628 8.945 8.945 0 0 1-.057-1.164c.005-.407.046-.803.122-1.188.076-.385.198-.754.366-1.107.168-.353.399-.665.692-.936a2.61 2.61 0 0 1 1.164-.562 3.22 3.22 0 0 1 1.205-.016c.385.07.735.193 1.05.366.314.174.542.366.683.578.141.212.174.42.098.627-.076.206-.304.374-.684.505-.564-.326-1.052-.494-1.465-.505-.412-.011-.749.084-1.01.285-.26.2-.452.483-.577.846-.125.364-.19.757-.196 1.18-.005.424.05.85.163 1.279.114.428.277.814.489 1.155.211.342.472.61.781.806.31.196.654.269 1.034.22.38-.049.798-.241 1.253-.578.456-.336.94-.874 1.45-1.612.119-.065.22-.054.3.033a.713.713 0 0 1 .163.383 2.173 2.173 0 0 1-.22 1.245zm9.295 1.254c0 .314-.065.526-.195.634a.69.69 0 0 1-.456.163 1.2 1.2 0 0 1-.496-.106c-.158-.07-.258-.138-.302-.203l-.862-1.856a5.98 5.98 0 0 1-.489.757c-.184.244-.39.461-.618.651-.228.19-.475.35-.741.48s-.551.212-.855.245c-.727.021-1.332-.09-1.815-.334a3.064 3.064 0 0 1-1.156-.985 3.486 3.486 0 0 1-.57-1.424 5.845 5.845 0 0 1-.04-1.661c.065-.57.2-1.131.407-1.685.206-.553.466-1.05.781-1.49a4.46 4.46 0 0 1 1.099-1.09 2.654 2.654 0 0 1 1.343-.48c.477-.033.98.078 1.506.333s1.066.708 1.62 1.36l1.84 6.69zm-6.381-1.075c.499.174.936.214 1.31.122.375-.092.692-.268.953-.529.26-.26.458-.586.594-.977a5.013 5.013 0 0 0 .195-2.466 3.478 3.478 0 0 0-.358-1.075 1.732 1.732 0 0 0-.643-.691c-.26-.152-.564-.185-.912-.098-.282.065-.534.23-.757.496-.222.266-.41.581-.561.945a5.633 5.633 0 0 0-.342 1.18 6.499 6.499 0 0 0-.106 1.237c.005.402.06.768.163 1.099.103.331.257.583.464.757zm9.751 1.188c.076.272.065.48-.032.627a.613.613 0 0 1-.424.269 1.279 1.279 0 0 1-.61-.057 1.406 1.406 0 0 1-.578-.35l-.554-11.038c-.076-.195-.078-.366-.008-.513a.788.788 0 0 1 .31-.342c.135-.08.287-.132.455-.154a.844.844 0 0 1 .456.057c.136.06.24.157.31.293.07.135.073.317.008.545l.667 10.663zm1.286-3.549c-.325-.227-.485-.463-.48-.708.006-.244.198-.426.578-.545l5.665-.033a.489.489 0 0 1 .31.293.643.643 0 0 1 .008.44.993.993 0 0 1-.285.423c-.141.13-.331.206-.57.228l-5.226-.098zm9.28 3.55c.076.27.065.48-.033.626a.613.613 0 0 1-.423.269 1.279 1.279 0 0 1-.61-.057 1.406 1.406 0 0 1-.578-.35l-.554-11.038c-.076-.195-.079-.366-.008-.513a.788.788 0 0 1 .31-.342c.135-.08.287-.132.455-.154a.844.844 0 0 1 .456.057c.136.06.239.157.31.293.07.135.073.317.007.545l.668 10.663zm2.995.227a.866.866 0 0 1-.399.416c-.19.103-.388.154-.594.154-.206 0-.399-.06-.578-.179-.179-.12-.3-.32-.366-.602-.022-.109-.024-.334-.008-.676s.019-.825.008-1.449c-.01-.624-.043-1.4-.098-2.328a58.175 58.175 0 0 0-.309-3.329c.228-.206.448-.282.66-.228.211.054.404.174.577.358.174.185.315.41.424.676.108.266.168.513.179.74.054-.206.17-.42.35-.642.179-.223.399-.426.659-.611.26-.184.55-.342.871-.472.32-.13.651-.212.993-.244.342-.033.684 0 1.026.097.342.098.659.283.952.554.01.098-.005.2-.049.31a1.273 1.273 0 0 1-.179.309 1.274 1.274 0 0 1-.26.252.8.8 0 0 1-.293.138c-.63-.13-1.164-.122-1.604.025-.44.146-.8.388-1.083.724a3.344 3.344 0 0 0-.634 1.23 8.49 8.49 0 0 0-.293 1.538 12.928 12.928 0 0 0-.057 1.66c.016.565.051 1.091.105 1.58zM136.49 76.29c-.325-.228-.485-.464-.48-.708.005-.245.198-.426.578-.546l5.665-.032a.489.489 0 0 1 .31.293.643.643 0 0 1 .008.44.993.993 0 0 1-.285.423c-.141.13-.331.206-.57.228l-5.226-.098zm15.645 4.037a.98.98 0 0 1-.407-.211.902.902 0 0 1-.277-.383.647.647 0 0 1 .025-.48c.07-.174.236-.342.496-.505.142.13.375.242.7.334a5.66 5.66 0 0 0 1.067.187c.385.033.768.035 1.148.008.38-.027.697-.09.952-.187.255-.098.415-.23.48-.399.065-.168-.027-.377-.277-.627a42.587 42.587 0 0 0-1.896-1.213c-.537-.32-.993-.634-1.368-.944a3.955 3.955 0 0 1-.895-1.025c-.223-.375-.383-.855-.48-1.441-.033-.478.081-.871.342-1.18.26-.31.596-.543 1.009-.7a4.104 4.104 0 0 1 1.384-.253 5.46 5.46 0 0 1 1.49.171c.482.125.92.312 1.31.562.39.25.673.553.846.911a.824.824 0 0 1-.024.448.936.936 0 0 1-.22.35.92.92 0 0 1-.366.22 1.022 1.022 0 0 1-.464.04c-.337-.423-.703-.73-1.099-.92-.396-.19-.77-.29-1.123-.3-.353-.011-.649.062-.888.22a.773.773 0 0 0-.374.642c-.01.272.122.592.399.961s.757.765 1.44 1.188c.977.587 1.702 1.132 2.174 1.637.472.504.738.955.798 1.35a1.11 1.11 0 0 1-.35 1.018c-.293.282-.711.494-1.254.635-.543.141-1.186.206-1.929.196a11.14 11.14 0 0 1-2.369-.31zm8.498-1.074c.076.206.1.407.074.602-.028.195-.09.37-.188.521-.097.152-.22.271-.366.358a.758.758 0 0 1-.448.114.708.708 0 0 1-.431-.203c-.136-.125-.242-.329-.318-.61-.021-.077-.04-.264-.056-.562-.017-.299-.03-.649-.041-1.05l-.033-1.295c-.01-.461-.021-.892-.032-1.294s-.022-.752-.033-1.05c-.01-.299-.027-.491-.049-.578-.076-.532-.081-.963-.016-1.294.065-.331.166-.58.301-.75.136-.167.29-.26.464-.276a.677.677 0 0 1 .48.139c.147.108.264.274.35.496.087.223.114.486.082.79l.26 5.942zm-1.172-8.661c-.239-.185-.382-.388-.431-.61a.909.909 0 0 1 .049-.595.733.733 0 0 1 .39-.374c.18-.076.372-.065.578.032.239.13.386.315.44.554.054.239.043.458-.033.66a.787.787 0 0 1-.382.439c-.18.092-.383.057-.61-.106zm4.966 9.996c-.706-.174-1.284-.51-1.734-1.01a4.462 4.462 0 0 1-.969-1.717 5.55 5.55 0 0 1-.212-2.043c.055-.717.231-1.381.53-1.995a4.453 4.453 0 0 1 1.261-1.562c.543-.43 1.205-.681 1.986-.757.38-.033.782-.028 1.205.016.423.043.809.152 1.156.325l-.212-3.207c0-.13.095-.228.285-.293.19-.065.399-.092.627-.081.228.01.437.07.627.179.19.108.285.277.285.505l1.058 11.054c.022.206-.03.369-.155.488a.868.868 0 0 1-.456.228c-.179.032-.36.022-.545-.033a.614.614 0 0 1-.39-.293 1.123 1.123 0 0 1-.09-.228 43.042 43.042 0 0 1-.236-.765c-.033-.108-.055-.163-.065-.163-.424.424-.833.741-1.23.953a4.146 4.146 0 0 1-1.115.423c-.347.07-.66.095-.936.073a4.243 4.243 0 0 1-.675-.097zm-1.254-3.663c.152.597.353 1.077.602 1.44.25.364.524.625.822.782.299.157.614.222.945.195.33-.027.654-.127.968-.3.315-.175.614-.408.896-.7.282-.294.526-.636.732-1.027.098-.195.155-.415.171-.659a3.585 3.585 0 0 0-.032-.757 7.04 7.04 0 0 0-.163-.79l-.204-.773c-.303-.597-.648-1.015-1.033-1.253-.386-.24-.774-.345-1.164-.318-.391.027-.766.168-1.124.424a3.46 3.46 0 0 0-.911.968c-.25.39-.426.828-.53 1.31-.103.484-.094.97.025 1.458zm15.075 2.018a2.73 2.73 0 0 1-.781.92 3.464 3.464 0 0 1-1.075.546c-.39.119-.8.176-1.229.17a4.185 4.185 0 0 1-1.245-.203 4.468 4.468 0 0 1-1.132-.553 3.335 3.335 0 0 1-.887-.88 6.85 6.85 0 0 1-.798-2.197c-.14-.782-.135-1.52.017-2.214a3.95 3.95 0 0 1 .927-1.824c.467-.52 1.118-.868 1.954-1.042.792-.054 1.42.041 1.88.285.462.244.776.575.945.993.168.418.2.882.097 1.392a3.98 3.98 0 0 1-.659 1.49 5.044 5.044 0 0 1-1.335 1.286 5.13 5.13 0 0 1-1.921.773c.217.358.464.616.74.774.277.157.568.252.872.284.304.033.605.014.903-.057.299-.07.575-.157.83-.26.256-.103.48-.2.676-.293.195-.092.337-.155.423-.187.391-.12.657-.12.798 0 .141.12.141.385 0 .797zm-4.314-5.811a3.625 3.625 0 0 0-1.156 1.465c-.12.282-.198.575-.236.879-.038.304-.03.602.024.895a3.274 3.274 0 0 0 1.23-.423 3.8 3.8 0 0 0 .911-.74c.244-.278.42-.562.53-.855.108-.294.138-.549.089-.766-.049-.217-.187-.374-.415-.472-.228-.097-.554-.092-.977.017zm8.156 7.26a6.004 6.004 0 0 1-1.522-1.66 8.412 8.412 0 0 1-.871-1.97 13.315 13.315 0 0 1-.448-2.165c-.092-.75-.176-1.493-.252-2.23a1.29 1.29 0 0 1 .277-.611c.14-.168.304-.282.488-.342a.858.858 0 0 1 .57.016c.195.07.364.225.505.464-.055.619-.05 1.254.016 1.905.065.651.17 1.267.317 1.848.147.58.32 1.107.521 1.579s.413.836.635 1.09c.223.256.442.383.66.383.217 0 .417-.184.602-.553.184-.37.342-.942.472-1.718.13-.776.212-1.804.244-3.085 0-.14.063-.263.187-.366.125-.103.274-.182.448-.236.174-.054.345-.09.513-.106a.997.997 0 0 1 .399.024c.14.24.255.551.342.937.087.385.165.797.236 1.237l.211 1.335c.07.45.171.86.302 1.229.13.369.295.675.496.92.2.244.459.382.773.415.283.022.505-.063.668-.253.163-.19.285-.45.366-.781.082-.331.125-.714.13-1.148.006-.434-.005-.879-.032-1.335a27.196 27.196 0 0 0-.114-1.35l-.13-1.197c-.038-.353-.063-.64-.074-.863-.01-.223.011-.345.065-.367.326-.152.614-.157.863-.016.25.141.464.385.643.733.18.347.318.773.416 1.278.097.504.151 1.039.162 1.603.011.565-.019 1.137-.09 1.718-.07.58-.19 1.12-.357 1.62-.169.499-.383.933-.643 1.302s-.576.63-.945.781c-.553.087-1.02.09-1.4.009a2.313 2.313 0 0 1-.977-.448 3.202 3.202 0 0 1-.724-.847 18.529 18.529 0 0 1-.66-1.188c-.14.38-.3.765-.48 1.156-.179.39-.396.719-.65.985a1.8 1.8 0 0 1-.904.52c-.348.082-.765-.002-1.254-.252zm18.364-.667c0 .315-.065.526-.196.635a.69.69 0 0 1-.455.163 1.2 1.2 0 0 1-.497-.106c-.157-.07-.258-.139-.301-.204l-.863-1.856a5.98 5.98 0 0 1-.488.757c-.185.245-.391.462-.619.652-.228.19-.475.35-.74.48-.267.13-.551.211-.855.244-.728.022-1.333-.09-1.816-.334a3.064 3.064 0 0 1-1.155-.985 3.486 3.486 0 0 1-.57-1.424 5.845 5.845 0 0 1-.04-1.66c.064-.57.2-1.132.406-1.686.206-.553.467-1.05.781-1.49a4.46 4.46 0 0 1 1.1-1.09 2.654 2.654 0 0 1 1.342-.48c.478-.033.98.078 1.506.333.527.256 1.067.709 1.62 1.36l1.84 6.69zm-6.382-1.075c.5.174.936.215 1.31.122.375-.092.693-.268.953-.529.26-.26.459-.586.594-.976a5.013 5.013 0 0 0 .195-2.466 3.478 3.478 0 0 0-.358-1.075 1.732 1.732 0 0 0-.643-.692c-.26-.152-.564-.185-.911-.098-.282.065-.535.23-.757.497-.223.266-.41.58-.562.944a5.633 5.633 0 0 0-.342 1.18 6.499 6.499 0 0 0-.106 1.237c.006.402.06.768.163 1.1.103.33.258.583.464.756zm7.83 6.659c-.13-.152-.178-.342-.146-.57.033-.228.109-.437.228-.627.12-.19.266-.325.44-.407.173-.081.325-.051.456.09.434.727.843 1.253 1.229 1.579.385.326.743.494 1.074.505.331.01.63-.106.896-.35.265-.245.496-.573.691-.985.196-.413.359-.882.489-1.409.13-.526.222-1.06.277-1.603a9.755 9.755 0 0 0 .032-1.587 6.397 6.397 0 0 0-.212-1.343c-.206.26-.447.52-.724.781-.277.26-.58.48-.912.66-.33.178-.689.295-1.074.35-.385.054-.784 0-1.197-.163a2.588 2.588 0 0 1-.944-.888 5.462 5.462 0 0 1-.61-1.318 9.334 9.334 0 0 1-.35-1.58 17.442 17.442 0 0 1-.147-1.652 24.917 24.917 0 0 1-.016-1.547c.01-.488.027-.917.049-1.286.108-.173.26-.312.455-.415.196-.103.391-.152.587-.146a.86.86 0 0 1 .52.187c.152.12.245.31.277.57l-.04.895c-.017.38-.022.792-.017 1.237.006.445.027.901.065 1.368.038.467.114.895.228 1.286.114.39.266.727.456 1.01.19.282.437.46.74.537.5-.066.904-.242 1.214-.53.309-.287.545-.64.708-1.058.163-.418.269-.876.317-1.375.05-.5.065-.993.05-1.482a12.891 12.891 0 0 0-.115-1.367c-.06-.424-.111-.77-.154-1.042a.568.568 0 0 1 .407-.334c.195-.049.393-.052.594-.008.2.043.385.13.553.26.169.13.263.288.285.473.467 2.626.706 4.894.717 6.804.01 1.91-.133 3.492-.432 4.746-.298 1.254-.719 2.203-1.262 2.849-.542.646-1.136 1.02-1.782 1.123-.646.103-1.31-.04-1.995-.431-.683-.39-1.318-.993-1.904-1.807zm8.743-4.982a.98.98 0 0 1-.407-.211.902.902 0 0 1-.277-.383.647.647 0 0 1 .025-.48c.07-.174.236-.342.496-.505.141.13.375.242.7.334a5.66 5.66 0 0 0 1.067.187c.385.033.767.035 1.147.008.38-.027.698-.09.953-.187.255-.098.415-.23.48-.399.065-.168-.027-.377-.277-.627a42.586 42.586 0 0 0-1.896-1.213c-.538-.32-.993-.634-1.368-.944a3.955 3.955 0 0 1-.895-1.025c-.223-.375-.383-.855-.48-1.441-.033-.478.08-.871.341-1.18.26-.31.597-.543 1.01-.7a4.104 4.104 0 0 1 1.383-.253 5.46 5.46 0 0 1 1.49.171c.483.125.92.312 1.31.562.391.25.673.553.847.911a.824.824 0 0 1-.024.448.936.936 0 0 1-.22.35.92.92 0 0 1-.366.22 1.022 1.022 0 0 1-.464.04c-.337-.423-.703-.73-1.1-.92-.395-.19-.77-.29-1.123-.3-.352-.011-.648.062-.887.22a.773.773 0 0 0-.374.642c-.011.272.122.592.399.961.276.369.757.765 1.44 1.188.977.587 1.702 1.132 2.174 1.637.472.504.738.955.797 1.35a1.11 1.11 0 0 1-.35 1.018c-.293.282-.71.494-1.253.635-.543.141-1.186.206-1.93.196a11.14 11.14 0 0 1-2.368-.31zm6.903-4.037c-.326-.228-.486-.464-.48-.708.005-.245.197-.426.577-.546l5.666-.032a.489.489 0 0 1 .309.293.643.643 0 0 1 .008.44.993.993 0 0 1-.285.423c-.14.13-.33.206-.57.228l-5.225-.098zm9.28 3.549c.075.271.064.48-.033.627a.613.613 0 0 1-.424.268 1.279 1.279 0 0 1-.61-.057 1.406 1.406 0 0 1-.578-.35l-.554-11.038c-.076-.195-.078-.366-.008-.512a.788.788 0 0 1 .31-.342c.135-.082.287-.133.455-.155a.844.844 0 0 1 .456.057c.136.06.239.157.31.293.07.136.073.318.008.546l.667 10.663zm2.995.228a.866.866 0 0 1-.4.415c-.19.103-.387.155-.593.155-.207 0-.4-.06-.578-.18-.18-.119-.302-.32-.367-.602-.021-.108-.024-.334-.008-.676.017-.341.02-.824.008-1.448-.01-.624-.043-1.4-.097-2.328a58.175 58.175 0 0 0-.31-3.33c.228-.206.448-.282.66-.228.211.055.404.174.578.359.173.184.314.41.423.675.108.266.168.513.179.74.054-.205.17-.42.35-.642.18-.223.399-.426.66-.61.26-.185.55-.342.87-.473.32-.13.652-.211.993-.244.342-.032.684 0 1.026.098.342.097.66.282.952.553.011.098-.005.201-.048.31a1.273 1.273 0 0 1-.18.309 1.274 1.274 0 0 1-.26.252.8.8 0 0 1-.293.139c-.63-.13-1.164-.122-1.604.024-.44.147-.8.388-1.082.724a3.344 3.344 0 0 0-.635 1.23 8.49 8.49 0 0 0-.293 1.538 12.928 12.928 0 0 0-.057 1.66c.016.565.051 1.091.106 1.58zM194.191 176.063h-12.647c-4.46 0-8.74.292-12.841.878-.39-.325-.814-.65-1.27-.976-.456-.326-.781-.781-.976-1.367-.196-.586-.196-1.351 0-2.295.195-.944.716-2.263 1.562-3.955.586-.196 1.53-1.254 2.832-3.174 1.302-1.92 2.783-4.232 4.443-6.934a520.14 520.14 0 0 1 5.47-8.691c1.985-3.093 4.003-5.925 6.054-8.496 2.05-2.572 4.053-4.639 6.006-6.201 1.953-1.563 3.743-2.214 5.37-1.954.782.196 1.417.782 1.905 1.758.488.977.88 2.718 1.172 5.225.293 2.506.488 5.973.586 10.4.098 4.427.114 10.189.049 17.285l5.86-.39c.65 2.734.992 4.687 1.025 5.86.032 1.171-.245 1.92-.83 2.245-.586.326-1.465.472-2.637.44-1.172-.033-2.572.081-4.2.341l.782 26.954c.195.52-.016 1.106-.635 1.757-.618.651-1.383 1.14-2.295 1.465a4.289 4.289 0 0 1-2.783.05c-.944-.294-1.611-1.124-2.002-2.491v-27.734zm-1.074-31.934c-1.172 1.107-2.49 2.767-3.955 4.98a186.897 186.897 0 0 0-4.395 6.983 1919.015 1919.015 0 0 0-4.2 7.031c-1.334 2.246-2.49 3.988-3.466 5.225a54.86 54.86 0 0 0 3.565.097 106.97 106.97 0 0 0 8.984-.39c1.465-.13 2.718-.293 3.76-.489l-.293-23.437zM450.446 10.442c-.324-.227-.484-.462-.478-.705.005-.243.197-.424.575-.543l5.643-.033a.487.487 0 0 1 .308.292.64.64 0 0 1 .008.438.99.99 0 0 1-.284.422c-.14.13-.33.205-.567.227l-5.205-.098zm17.123 3.762a.863.863 0 0 1-.398.414c-.189.102-.386.154-.592.154-.205 0-.397-.06-.575-.179-.179-.119-.3-.319-.365-.6-.022-.108-.024-.332-.008-.673.016-.34.019-.821.008-1.443a58.272 58.272 0 0 0-.097-2.318 57.942 57.942 0 0 0-.308-3.316c.227-.206.446-.281.656-.227.211.054.403.173.576.357.173.183.313.408.422.672.108.265.167.511.178.738.054-.205.17-.419.348-.64.179-.222.398-.425.657-.608.26-.184.549-.34.868-.47.319-.13.648-.211.989-.244.34-.032.68 0 1.021.098.34.097.657.28.949.55.01.098-.006.2-.049.309a1.269 1.269 0 0 1-.438.56.796.796 0 0 1-.292.137c-.627-.13-1.159-.122-1.597.024a2.341 2.341 0 0 0-1.078.722 3.33 3.33 0 0 0-.632 1.224c-.14.481-.238.992-.292 1.532-.054.54-.073 1.092-.057 1.654.016.562.051 1.087.106 1.573zm6.42.324a2.67 2.67 0 0 1-1.127-.997 3.76 3.76 0 0 1-.518-1.41 5.325 5.325 0 0 1 0-1.606 7.932 7.932 0 0 1 .413-1.621 7.253 7.253 0 0 1 .714-1.435c.28-.433.583-.784.908-1.054.594-.454 1.145-.724 1.653-.81.508-.087.962-.039 1.362.145.4.184.749.476 1.046.876.298.4.53.856.697 1.37.168.513.268 1.065.3 1.654a6.801 6.801 0 0 1-.121 1.727 5.577 5.577 0 0 1-.568 1.572 3.529 3.529 0 0 1-1.054 1.2c-.437.314-.962.514-1.572.6-.611.087-1.322.016-2.133-.21zm1.249-1.345a1.82 1.82 0 0 0 1.224-.3c.362-.244.662-.563.9-.957.238-.395.41-.84.519-1.338a4.05 4.05 0 0 0 .065-1.435 3.098 3.098 0 0 0-.454-1.248 1.897 1.897 0 0 0-1.022-.787c-.27-.054-.554.033-.851.26a3.474 3.474 0 0 0-.81.916 5.724 5.724 0 0 0-.6 1.297 4.586 4.586 0 0 0-.236 1.427c0 .47.097.9.292 1.289.195.39.519.681.973.876zm7.848 1.345a5.98 5.98 0 0 1-1.516-1.654 8.378 8.378 0 0 1-.868-1.961 13.261 13.261 0 0 1-.446-2.157c-.092-.746-.175-1.486-.251-2.221.043-.238.135-.44.276-.608.14-.168.302-.281.486-.34a.855.855 0 0 1 .568.015c.194.07.362.225.502.462-.054.617-.048 1.249.016 1.898.065.648.17 1.262.317 1.84.145.578.318 1.102.518 1.573.2.47.411.832.633 1.086.221.254.44.381.656.381.217 0 .417-.184.6-.551.184-.368.34-.938.47-1.71.13-.774.211-1.798.244-3.073a.46.46 0 0 1 .186-.365 1.3 1.3 0 0 1 .446-.235c.173-.054.343-.09.51-.106a.993.993 0 0 1 .398.025c.14.237.254.548.34.932.087.384.166.794.236 1.232l.21 1.33c.07.448.17.856.3 1.224.13.367.295.673.495.916s.457.381.77.413c.281.022.503-.062.665-.25.162-.19.284-.45.365-.78.08-.329.124-.71.13-1.142a18.49 18.49 0 0 0-.033-1.33 27.085 27.085 0 0 0-.113-1.346l-.13-1.191a15.342 15.342 0 0 1-.073-.86c-.01-.221.01-.343.065-.365.324-.15.61-.156.86-.016.248.14.461.384.64.73.178.346.316.77.413 1.273.097.502.151 1.035.162 1.597.011.562-.019 1.132-.089 1.71a8.105 8.105 0 0 1-.357 1.614c-.167.497-.38.93-.64 1.297-.26.367-.573.627-.94.778-.552.087-1.017.09-1.395.008a2.304 2.304 0 0 1-.973-.446 3.189 3.189 0 0 1-.721-.843c-.211-.346-.43-.74-.657-1.183-.14.378-.3.762-.478 1.15a3.52 3.52 0 0 1-.649.982 1.792 1.792 0 0 1-.9.519c-.346.08-.762-.003-1.248-.252zm-32.64 18.448c-.324-.227-.484-.462-.478-.706.005-.243.197-.424.575-.543l5.643-.032a.487.487 0 0 1 .308.292.64.64 0 0 1 .008.437.99.99 0 0 1-.284.422c-.14.13-.33.205-.567.227l-5.205-.097zm17.123 3.761a.863.863 0 0 1-.398.414c-.189.103-.386.154-.592.154-.205 0-.397-.06-.575-.178-.179-.12-.3-.32-.365-.6-.022-.108-.024-.333-.008-.673s.019-.822.008-1.443a58.272 58.272 0 0 0-.097-2.319 57.942 57.942 0 0 0-.308-3.316c.227-.205.446-.28.656-.227.211.054.403.173.576.357.173.184.313.408.422.673.108.265.167.51.178.738.054-.206.17-.42.348-.641.179-.222.398-.424.657-.608.26-.184.549-.34.868-.47.319-.13.648-.211.989-.243.34-.033.68 0 1.021.097.34.097.657.28.949.551.01.097-.006.2-.049.308a1.269 1.269 0 0 1-.438.56.796.796 0 0 1-.292.137c-.627-.13-1.159-.121-1.597.025a2.341 2.341 0 0 0-1.078.721 3.33 3.33 0 0 0-.632 1.224c-.14.482-.238.992-.292 1.533-.054.54-.073 1.091-.057 1.654.016.562.051 1.086.106 1.572zm6.42.325a2.67 2.67 0 0 1-1.127-.998 3.76 3.76 0 0 1-.518-1.41 5.325 5.325 0 0 1 0-1.605 7.932 7.932 0 0 1 .413-1.622 7.253 7.253 0 0 1 .714-1.435c.28-.432.583-.783.908-1.054.594-.454 1.145-.724 1.653-.81.508-.087.962-.038 1.362.145.4.184.749.476 1.046.876.298.4.53.857.697 1.37.168.514.268 1.065.3 1.654a6.801 6.801 0 0 1-.121 1.727 5.577 5.577 0 0 1-.568 1.573 3.529 3.529 0 0 1-1.054 1.2c-.437.313-.962.513-1.572.6-.611.086-1.322.016-2.133-.211zm1.249-1.346a1.82 1.82 0 0 0 1.224-.3c.362-.243.662-.562.9-.957.238-.394.41-.84.519-1.337a4.05 4.05 0 0 0 .065-1.435 3.098 3.098 0 0 0-.454-1.249 1.897 1.897 0 0 0-1.022-.786c-.27-.054-.554.032-.851.26a3.474 3.474 0 0 0-.81.915 5.724 5.724 0 0 0-.6 1.297 4.586 4.586 0 0 0-.236 1.427c0 .47.097.9.292 1.29.195.388.519.68.973.875zm7.848 1.346a5.98 5.98 0 0 1-1.516-1.654 8.378 8.378 0 0 1-.868-1.962 13.261 13.261 0 0 1-.446-2.157c-.092-.746-.175-1.486-.251-2.221.043-.238.135-.44.276-.608.14-.168.302-.281.486-.34a.855.855 0 0 1 .568.016c.194.07.362.224.502.462-.054.616-.048 1.248.016 1.897.065.648.17 1.262.317 1.84.145.579.318 1.103.518 1.573s.411.832.633 1.086c.221.254.44.381.656.381.217 0 .417-.183.6-.55.184-.368.34-.939.47-1.712.13-.772.211-1.797.244-3.072a.46.46 0 0 1 .186-.365 1.3 1.3 0 0 1 .446-.235c.173-.054.343-.09.51-.105a.993.993 0 0 1 .398.024c.14.238.254.548.34.932.087.384.166.795.236 1.232l.21 1.33c.07.449.17.857.3 1.224.13.368.295.673.495.916.2.244.457.381.77.414.281.021.503-.062.665-.252.162-.189.284-.448.365-.778.08-.33.124-.71.13-1.143a18.49 18.49 0 0 0-.033-1.33 27.085 27.085 0 0 0-.113-1.345l-.13-1.192a15.342 15.342 0 0 1-.073-.86c-.01-.221.01-.343.065-.364.324-.152.61-.157.86-.016.248.14.461.383.64.73.178.345.316.77.413 1.272.097.503.151 1.035.162 1.597.011.562-.019 1.132-.089 1.71a8.105 8.105 0 0 1-.357 1.614c-.167.497-.38.93-.64 1.297-.26.368-.573.627-.94.779-.552.086-1.017.089-1.395.008a2.304 2.304 0 0 1-.973-.446 3.189 3.189 0 0 1-.721-.843c-.211-.346-.43-.74-.657-1.184-.14.378-.3.762-.478 1.151a3.52 3.52 0 0 1-.649.981 1.792 1.792 0 0 1-.9.519c-.346.081-.762-.003-1.248-.251zm10.198-4.086c-.324-.227-.483-.462-.478-.706.006-.243.197-.424.576-.543l5.642-.032a.487.487 0 0 1 .308.292.64.64 0 0 1 .009.437.99.99 0 0 1-.284.422c-.14.13-.33.205-.568.227l-5.204-.097zm8.821 3.761a.863.863 0 0 1-.397.414c-.19.103-.387.154-.592.154-.205 0-.397-.06-.576-.178-.178-.12-.3-.32-.364-.6-.022-.108-.025-.333-.008-.673.016-.34.018-.822.008-1.443a58.272 58.272 0 0 0-.098-2.319 57.942 57.942 0 0 0-.308-3.316c.227-.205.446-.28.657-.227.21.054.403.173.576.357.172.184.313.408.421.673.108.265.168.51.178.738.055-.206.17-.42.35-.641.177-.222.396-.424.656-.608s.548-.34.867-.47c.32-.13.649-.211.99-.243.34-.033.68 0 1.02.097.341.097.657.28.95.551.01.097-.006.2-.05.308a1.269 1.269 0 0 1-.438.56.796.796 0 0 1-.29.137c-.628-.13-1.16-.121-1.598.025a2.341 2.341 0 0 0-1.078.721 3.33 3.33 0 0 0-.633 1.224c-.14.482-.237.992-.292 1.533-.054.54-.072 1.091-.056 1.654.016.562.051 1.086.105 1.572zm11.918-1.118a2.72 2.72 0 0 1-.779.916 3.45 3.45 0 0 1-1.07.543 4.169 4.169 0 0 1-2.465-.032 4.45 4.45 0 0 1-1.126-.552 3.322 3.322 0 0 1-.884-.875 6.823 6.823 0 0 1-.794-2.19c-.141-.778-.136-1.513.016-2.204.151-.692.46-1.298.924-1.817.465-.518 1.113-.864 1.946-1.037.789-.054 1.413.04 1.872.284.46.243.773.572.94.989.168.416.2.878.098 1.386a3.965 3.965 0 0 1-.656 1.484 5.024 5.024 0 0 1-1.33 1.28 5.11 5.11 0 0 1-1.913.77c.216.357.462.614.737.77.276.158.565.252.868.285.303.032.603.013.9-.057a5.71 5.71 0 0 0 .827-.26c.254-.102.478-.2.673-.291a6.39 6.39 0 0 1 .421-.187c.39-.119.654-.119.795 0 .14.119.14.384 0 .795zm-4.297-5.789a3.61 3.61 0 0 0-1.151 1.46 3.28 3.28 0 0 0-.235.875c-.038.303-.03.6.024.892a3.26 3.26 0 0 0 1.224-.422c.362-.216.665-.462.908-.738.243-.275.419-.559.527-.85.108-.293.138-.547.09-.763-.05-.216-.187-.373-.414-.47-.227-.097-.552-.092-.973.016zm10.62 6.843c-.183.335-.408.545-.673.632-.264.086-.554.005-.867-.243l-.3-.446a30.569 30.569 0 0 1-.795-1.281 86.703 86.703 0 0 1-1.321-2.319c-.53-.956-1.157-2.143-1.88-3.559a.766.766 0 0 1-.13-.56.891.891 0 0 1 .235-.478.97.97 0 0 1 1.045-.227c.108.044.238.176.39.398.15.221.316.494.494.818.178.325.368.684.568 1.079.2.394.4.786.6 1.175.2.39.394.762.583 1.12.19.356.365.656.527.899.162.243.308.416.438.519.13.103.232.094.308-.024a2.7 2.7 0 0 0 .154-.373c.07-.195.151-.43.243-.706l.292-.867c.103-.303.2-.592.292-.868a30.754 30.754 0 0 1 .381-1.078c.054-.14.119-.316.195-.527.075-.21.162-.427.259-.648a3.83 3.83 0 0 1 .332-.609c.125-.183.263-.316.414-.397a.625.625 0 0 1 .494-.04c.179.054.381.216.608.486.065.076.106.17.122.284.016.113-.005.28-.065.503-.06.221-.157.51-.292.867a56.35 56.35 0 0 1-.56 1.403c-.237.578-.529 1.28-.875 2.107-.346.827-.75 1.814-1.216 2.96zm10.702-1.054a2.72 2.72 0 0 1-.779.916 3.45 3.45 0 0 1-1.07.543 4.169 4.169 0 0 1-2.465-.032 4.45 4.45 0 0 1-1.126-.552 3.322 3.322 0 0 1-.884-.875 6.823 6.823 0 0 1-.794-2.19c-.14-.778-.135-1.513.016-2.204.151-.692.46-1.298.924-1.817.465-.518 1.113-.864 1.946-1.037.789-.054 1.413.04 1.873.284.459.243.772.572.94.989.168.416.2.878.097 1.386a3.965 3.965 0 0 1-.656 1.484 5.024 5.024 0 0 1-1.33 1.28 5.11 5.11 0 0 1-1.913.77c.216.357.462.614.737.77.276.158.565.252.868.285.303.032.603.013.9-.057a5.71 5.71 0 0 0 .827-.26c.254-.102.478-.2.673-.291a6.39 6.39 0 0 1 .421-.187c.39-.119.654-.119.795 0 .14.119.14.384 0 .795zm-4.297-5.789a3.61 3.61 0 0 0-1.151 1.46 3.281 3.281 0 0 0-.235.875c-.038.303-.03.6.024.892a3.26 3.26 0 0 0 1.224-.422c.362-.216.665-.462.908-.738.243-.275.419-.559.527-.85.108-.293.138-.547.09-.763-.05-.216-.187-.373-.414-.47-.227-.097-.551-.092-.973.016zm7.215 6.907a.863.863 0 0 1-.397.414c-.19.103-.386.154-.592.154-.205 0-.397-.06-.575-.178-.179-.12-.3-.32-.365-.6-.022-.108-.024-.333-.008-.673s.019-.822.008-1.443a58.272 58.272 0 0 0-.097-2.319 57.942 57.942 0 0 0-.309-3.316c.227-.205.446-.28.657-.227.211.054.403.173.576.357.173.184.313.408.421.673.108.265.168.51.179.738.054-.206.17-.42.348-.641.179-.222.398-.424.657-.608.26-.184.549-.34.867-.47.32-.13.649-.211.99-.243.34-.033.68 0 1.021.097.34.097.657.28.949.551.01.097-.006.2-.049.308a1.269 1.269 0 0 1-.438.56.796.796 0 0 1-.292.137c-.627-.13-1.159-.121-1.597.025a2.341 2.341 0 0 0-1.078.721 3.33 3.33 0 0 0-.632 1.224c-.14.482-.238.992-.292 1.533-.054.54-.073 1.091-.057 1.654.016.562.051 1.086.105 1.572zm5.416.26a.977.977 0 0 1-.405-.211.898.898 0 0 1-.276-.381.644.644 0 0 1 .024-.478c.07-.173.235-.34.495-.503.14.13.373.24.697.332.324.092.678.154 1.062.187.384.032.765.035 1.143.008.379-.027.695-.09.949-.186.254-.098.413-.23.478-.398.065-.167-.027-.375-.276-.624a42.415 42.415 0 0 0-1.889-1.208c-.535-.319-.989-.632-1.362-.94a3.939 3.939 0 0 1-.891-1.022c-.222-.373-.381-.851-.479-1.435-.032-.475.081-.867.34-1.175.26-.308.595-.54 1.006-.698.41-.156.87-.24 1.378-.25a5.439 5.439 0 0 1 1.484.17c.481.124.916.31 1.305.559.39.248.67.551.843.908a.82.82 0 0 1-.024.446.933.933 0 0 1-.219.348.916.916 0 0 1-.365.22c-.146.048-.3.061-.462.04-.335-.422-.7-.727-1.094-.916-.395-.19-.768-.29-1.12-.3-.35-.011-.645.062-.883.218a.77.77 0 0 0-.373.64c-.01.271.122.59.398.958.275.367.754.762 1.435 1.183.972.584 1.694 1.127 2.164 1.63.47.502.735.951.795 1.346.06.394-.057.732-.349 1.013-.292.281-.708.492-1.248.632s-1.181.206-1.922.195c-.74-.01-1.527-.114-2.359-.308zm13.539-1.378a2.72 2.72 0 0 1-.778.916 3.45 3.45 0 0 1-1.07.543 4.169 4.169 0 0 1-2.465-.032 4.45 4.45 0 0 1-1.127-.552 3.322 3.322 0 0 1-.884-.875 6.823 6.823 0 0 1-.794-2.19c-.14-.778-.135-1.513.016-2.204.151-.692.46-1.298.924-1.817.465-.518 1.114-.864 1.946-1.037.79-.054 1.413.04 1.873.284.46.243.773.572.94.989.168.416.2.878.097 1.386a3.965 3.965 0 0 1-.656 1.484 5.024 5.024 0 0 1-1.33 1.28 5.11 5.11 0 0 1-1.913.77c.216.357.462.614.738.77.275.158.564.252.867.285.303.032.603.013.9-.057a5.71 5.71 0 0 0 .827-.26c.254-.102.478-.2.673-.291a6.39 6.39 0 0 1 .421-.187c.39-.119.654-.119.795 0 .14.119.14.384 0 .795zm-4.297-5.789a3.61 3.61 0 0 0-1.151 1.46 3.28 3.28 0 0 0-.235.875c-.038.303-.03.6.024.892a3.26 3.26 0 0 0 1.224-.422c.362-.216.665-.462.908-.738.244-.275.42-.559.527-.85.108-.293.138-.547.09-.763-.05-.216-.187-.373-.414-.47-.227-.097-.551-.092-.973.016zM450.446 55.51c-.324-.227-.484-.462-.478-.705.005-.244.197-.425.575-.544l5.643-.032a.487.487 0 0 1 .308.292.64.64 0 0 1 .008.438.99.99 0 0 1-.284.421c-.14.13-.33.206-.567.227l-5.205-.097zm21.727 2.173c-.28.66-.64 1.15-1.078 1.475a2.912 2.912 0 0 1-1.402.576 3.208 3.208 0 0 1-1.5-.187 4.336 4.336 0 0 1-1.362-.802 4.406 4.406 0 0 1-1.006-1.273 3.694 3.694 0 0 1-.43-1.621 8.909 8.909 0 0 1-.056-1.16c.005-.405.046-.8.122-1.183.075-.384.197-.752.364-1.103.168-.351.398-.662.69-.932a2.6 2.6 0 0 1 1.159-.56 3.208 3.208 0 0 1 1.2-.016c.384.07.732.192 1.046.365.313.173.54.365.68.575.141.211.174.42.098.625-.076.205-.303.373-.681.502-.562-.324-1.049-.491-1.46-.502-.41-.011-.745.083-1.005.283-.26.2-.451.481-.575.844-.125.362-.19.754-.195 1.175-.005.422.049.846.162 1.273.114.427.276.81.487 1.151.21.34.47.608.778.803a1.51 1.51 0 0 0 1.03.219c.378-.049.794-.24 1.248-.576.454-.335.935-.87 1.443-1.605.12-.065.22-.054.3.032a.71.71 0 0 1 .162.381 2.164 2.164 0 0 1-.219 1.24zm2.335 1.913a2.67 2.67 0 0 1-1.127-.997 3.76 3.76 0 0 1-.519-1.41 5.325 5.325 0 0 1 0-1.606 7.932 7.932 0 0 1 .414-1.621 7.253 7.253 0 0 1 .713-1.435c.281-.433.584-.784.908-1.054.595-.454 1.146-.725 1.654-.811.508-.087.962-.038 1.362.146.4.184.749.475 1.046.875.297.4.53.857.697 1.37.168.514.268 1.065.3 1.654a6.801 6.801 0 0 1-.121 1.727 5.577 5.577 0 0 1-.568 1.573 3.529 3.529 0 0 1-1.054 1.2c-.438.313-.962.513-1.573.6-.61.086-1.321.016-2.132-.211zm1.249-1.346a1.82 1.82 0 0 0 1.224-.3c.362-.243.662-.562.9-.956.238-.395.41-.84.519-1.338a4.05 4.05 0 0 0 .065-1.435 3.098 3.098 0 0 0-.454-1.249 1.897 1.897 0 0 0-1.022-.786c-.27-.054-.554.032-.851.26a3.474 3.474 0 0 0-.81.916 5.724 5.724 0 0 0-.6 1.297 4.586 4.586 0 0 0-.236 1.427c0 .47.097.9.292 1.289.194.389.519.68.973.875zm7.361.795c.076.27.065.478-.032.624a.611.611 0 0 1-.422.268 1.273 1.273 0 0 1-.608-.057 1.4 1.4 0 0 1-.576-.349l-.55-10.993c-.077-.195-.08-.365-.009-.51a.784.784 0 0 1 .308-.341 1.16 1.16 0 0 1 .454-.154.84.84 0 0 1 .454.056c.135.06.238.157.308.292.07.135.073.316.008.543l.665 10.62zm3.519.794a2.684 2.684 0 0 1-1.168-.786 4.482 4.482 0 0 1-.762-1.265 8.05 8.05 0 0 1-.446-1.548 14.414 14.414 0 0 1-.21-1.654 19.983 19.983 0 0 1-.05-1.581c.006-.503.02-.943.041-1.322.022-.205.1-.356.235-.454a.828.828 0 0 1 .47-.154c.179-.005.355.03.528.106a.988.988 0 0 1 .405.308c.076.108.127.335.154.68.027.347.049.75.065 1.209.016.46.038.94.065 1.443a11 11 0 0 0 .162 1.41c.08.438.197.814.348 1.127.152.314.368.498.649.552.432-.011.776-.135 1.03-.373s.437-.549.55-.933a4.57 4.57 0 0 0 .171-1.297c0-.48-.032-.97-.097-1.467a16.701 16.701 0 0 0-.251-1.443c-.103-.465-.198-.87-.284-1.216-.054-.26-.014-.427.121-.503.136-.076.306-.094.511-.057.206.038.416.111.633.22.216.107.372.22.47.34a7.22 7.22 0 0 1 .535 1.67c.13.638.189 1.292.178 1.962a9.226 9.226 0 0 1-.243 1.97 5.06 5.06 0 0 1-.713 1.686 3.273 3.273 0 0 1-1.257 1.11c-.514.26-1.127.347-1.84.26zm7.231-.583c-.054.248-.178.427-.373.535a1.265 1.265 0 0 1-.624.162c-.222 0-.432-.054-.632-.162a.794.794 0 0 1-.398-.454 64.982 64.982 0 0 1-.04-1.946 98.44 98.44 0 0 0-.04-2.181c-.022-.73-.063-1.43-.122-2.1-.06-.67-.149-1.232-.268-1.686-.021-.238.016-.44.114-.608a.788.788 0 0 1 .38-.349.69.69 0 0 1 .52.008c.189.07.359.22.51.446l.211 1.557c.357-.584.762-.984 1.216-1.2.454-.216.884-.27 1.29-.162.405.108.759.367 1.061.778.303.411.487.951.552 1.622.021-.184.124-.411.308-.681.183-.27.419-.544.705-.82a5.96 5.96 0 0 1 .957-.745 3.742 3.742 0 0 1 1.062-.47 1.987 1.987 0 0 1 1.037 0c.335.092.627.316.876.673.13.205.24.491.332.859.092.368.168.776.227 1.224.06.449.114.919.163 1.41l.137 1.42c.044.454.092.875.146 1.264.054.39.125.703.211.94.032.325-.019.603-.154.836-.135.232-.3.389-.495.47a.728.728 0 0 1-.6-.016c-.205-.092-.367-.295-.486-.608.043-1.643-.019-2.962-.186-3.957-.168-.994-.387-1.702-.657-2.124-.27-.421-.57-.58-.9-.478-.33.103-.632.43-.908.981-.276.551-.505 1.3-.689 2.246-.184.946-.265 2.05-.243 3.316-.076.216-.181.372-.316.47a.746.746 0 0 1-.446.146 1.07 1.07 0 0 1-.503-.138 1.641 1.641 0 0 1-.47-.381c.032-1.135-.02-2.143-.154-3.024-.135-.881-.311-1.581-.527-2.1-.216-.519-.449-.84-.697-.965-.249-.124-.47 0-.665.373-.195.373-.338 1.016-.43 1.93-.092.913-.09 2.143.008 3.689zm12.145-.179c0 .335-.09.56-.268.673a.79.79 0 0 1-.583.114 1.229 1.229 0 0 1-.584-.284.798.798 0 0 1-.3-.535c.021-1.103.024-2.278.008-3.527-.016-1.248-.051-2.56-.105-3.932.086-.292.235-.475.445-.551a.661.661 0 0 1 .608.073c.195.124.344.346.446.665.103.318.09.727-.04 1.224.692-1.016 1.34-1.681 1.946-1.995.605-.313 1.162-.378 1.67-.194s.954.56 1.337 1.127c.384.567.7 1.224.949 1.97s.419 1.527.51 2.343c.093.816.095 1.564.009 2.245.01.281-.073.492-.252.633a1.06 1.06 0 0 1-.583.235.87.87 0 0 1-.576-.154c-.173-.119-.249-.303-.227-.551.076-1.362.046-2.465-.09-3.308-.134-.843-.329-1.473-.583-1.89-.254-.415-.548-.645-.883-.688-.336-.043-.673.046-1.014.267-.34.222-.665.554-.973.997a6.02 6.02 0 0 0-.746 1.492 6.865 6.865 0 0 0-.348 1.76 4.537 4.537 0 0 0 .227 1.791zm-55.567 18.966c-.324-.227-.484-.462-.478-.705.005-.243.197-.424.575-.543l5.643-.033a.487.487 0 0 1 .308.292.64.64 0 0 1 .008.438.99.99 0 0 1-.284.422c-.14.13-.33.205-.567.227l-5.205-.098zm21.727 2.173c-.28.66-.64 1.151-1.078 1.476a2.912 2.912 0 0 1-1.402.575 3.208 3.208 0 0 1-1.5-.186 4.336 4.336 0 0 1-1.362-.803 4.406 4.406 0 0 1-1.006-1.273 3.694 3.694 0 0 1-.43-1.621 8.909 8.909 0 0 1-.056-1.16c.005-.405.046-.8.122-1.183.075-.384.197-.751.364-1.103.168-.351.398-.662.69-.932a2.6 2.6 0 0 1 1.159-.56 3.208 3.208 0 0 1 1.2-.016c.384.07.732.192 1.046.365.313.173.54.365.68.576.141.21.174.419.098.624-.076.205-.303.373-.681.503-.562-.325-1.049-.492-1.46-.503-.41-.01-.745.084-1.005.284-.26.2-.451.48-.575.843-.125.362-.19.754-.195 1.175-.005.422.049.846.162 1.273.114.427.276.811.487 1.152.21.34.47.608.778.802a1.51 1.51 0 0 0 1.03.219c.378-.049.794-.24 1.248-.576.454-.335.935-.87 1.443-1.605.12-.065.22-.054.3.033a.71.71 0 0 1 .162.38 2.164 2.164 0 0 1-.219 1.24zm2.335 1.913a2.67 2.67 0 0 1-1.127-.997 3.76 3.76 0 0 1-.519-1.41 5.325 5.325 0 0 1 0-1.606 7.932 7.932 0 0 1 .414-1.621 7.253 7.253 0 0 1 .713-1.435c.281-.432.584-.784.908-1.054.595-.454 1.146-.724 1.654-.81.508-.087.962-.039 1.362.145.4.184.749.476 1.046.876.297.4.53.856.697 1.37.168.513.268 1.065.3 1.654a6.801 6.801 0 0 1-.121 1.727 5.577 5.577 0 0 1-.568 1.572 3.529 3.529 0 0 1-1.054 1.2c-.438.314-.962.514-1.573.6-.61.087-1.321.016-2.132-.21zm1.249-1.345a1.82 1.82 0 0 0 1.224-.3c.362-.244.662-.562.9-.957.238-.395.41-.84.519-1.338a4.05 4.05 0 0 0 .065-1.435 3.098 3.098 0 0 0-.454-1.248 1.897 1.897 0 0 0-1.022-.787c-.27-.054-.554.033-.851.26a3.474 3.474 0 0 0-.81.916 5.724 5.724 0 0 0-.6 1.297 4.586 4.586 0 0 0-.236 1.427c0 .47.097.9.292 1.289.194.39.519.681.973.876zm7.361.794c.076.27.065.478-.032.624a.611.611 0 0 1-.422.268 1.273 1.273 0 0 1-.608-.057 1.4 1.4 0 0 1-.576-.348l-.55-10.994c-.077-.194-.08-.365-.009-.51a.784.784 0 0 1 .308-.341 1.16 1.16 0 0 1 .454-.154.84.84 0 0 1 .454.057c.135.06.238.156.308.291.07.136.073.317.008.544l.665 10.62zm3.519.795a2.684 2.684 0 0 1-1.168-.787 4.482 4.482 0 0 1-.762-1.265 8.05 8.05 0 0 1-.446-1.548 14.414 14.414 0 0 1-.21-1.654 19.983 19.983 0 0 1-.05-1.58c.006-.503.02-.944.041-1.322.022-.206.1-.357.235-.454a.828.828 0 0 1 .47-.154c.179-.006.355.03.528.105a.988.988 0 0 1 .405.308c.076.108.127.335.154.681.027.346.049.749.065 1.208.016.46.038.94.065 1.443a11 11 0 0 0 .162 1.41c.08.439.197.814.348 1.128.152.313.368.497.649.551.432-.01.776-.135 1.03-.373s.437-.548.55-.932a4.57 4.57 0 0 0 .171-1.297c0-.481-.032-.97-.097-1.468a16.701 16.701 0 0 0-.251-1.443c-.103-.465-.198-.87-.284-1.216-.054-.26-.014-.427.121-.503.136-.075.306-.094.511-.056.206.038.416.11.633.219.216.108.372.221.47.34a7.22 7.22 0 0 1 .535 1.67c.13.638.189 1.292.178 1.962a9.226 9.226 0 0 1-.243 1.97 5.06 5.06 0 0 1-.713 1.686 3.273 3.273 0 0 1-1.257 1.111c-.514.26-1.127.346-1.84.26zm7.231-.584c-.054.248-.178.427-.373.535a1.265 1.265 0 0 1-.624.162c-.222 0-.432-.054-.632-.162a.794.794 0 0 1-.398-.454 64.982 64.982 0 0 1-.04-1.946 98.44 98.44 0 0 0-.04-2.18c-.022-.73-.063-1.43-.122-2.1-.06-.67-.149-1.233-.268-1.687-.021-.237.016-.44.114-.608a.788.788 0 0 1 .38-.348.69.69 0 0 1 .52.008c.189.07.359.219.51.446l.211 1.556c.357-.583.762-.983 1.216-1.2.454-.216.884-.27 1.29-.162.405.108.759.368 1.061.779.303.41.487.95.552 1.621.021-.184.124-.41.308-.681.183-.27.419-.543.705-.819a5.96 5.96 0 0 1 .957-.746 3.742 3.742 0 0 1 1.062-.47 1.987 1.987 0 0 1 1.037 0c.335.092.627.316.876.673.13.205.24.492.332.86.092.367.168.775.227 1.224.06.448.114.918.163 1.41l.137 1.419c.044.454.092.875.146 1.265.054.389.125.702.211.94.032.324-.019.603-.154.835-.135.233-.3.39-.495.47a.728.728 0 0 1-.6-.016c-.205-.092-.367-.294-.486-.608.043-1.643-.019-2.962-.186-3.956-.168-.995-.387-1.703-.657-2.124-.27-.422-.57-.581-.9-.479-.33.103-.632.43-.908.981-.276.552-.505 1.3-.689 2.246-.184.946-.265 2.051-.243 3.316-.076.216-.181.373-.316.47a.746.746 0 0 1-.446.146 1.07 1.07 0 0 1-.503-.138 1.641 1.641 0 0 1-.47-.38c.032-1.136-.02-2.144-.154-3.025-.135-.88-.311-1.58-.527-2.1-.216-.518-.449-.84-.697-.964-.249-.125-.47 0-.665.373-.195.373-.338 1.016-.43 1.93-.092.913-.09 2.142.008 3.688zm12.145-.178c0 .335-.09.559-.268.672a.79.79 0 0 1-.583.114 1.229 1.229 0 0 1-.584-.284.798.798 0 0 1-.3-.535c.021-1.103.024-2.278.008-3.527-.016-1.248-.051-2.559-.105-3.932.086-.291.235-.475.445-.55a.661.661 0 0 1 .608.072c.195.124.344.346.446.665.103.319.09.727-.04 1.224.692-1.016 1.34-1.68 1.946-1.994.605-.314 1.162-.379 1.67-.195s.954.56 1.337 1.127c.384.568.7 1.224.949 1.97s.419 1.527.51 2.343c.093.816.095 1.565.009 2.246.01.28-.073.492-.252.632a1.06 1.06 0 0 1-.583.235.87.87 0 0 1-.576-.154c-.173-.119-.249-.302-.227-.551.076-1.362.046-2.465-.09-3.308-.134-.843-.329-1.473-.583-1.889-.254-.416-.548-.646-.883-.689-.336-.043-.673.046-1.014.268-.34.221-.665.554-.973.997a6.02 6.02 0 0 0-.746 1.492 6.865 6.865 0 0 0-.348 1.759 4.537 4.537 0 0 0 .227 1.792zm7.394-3.568c-.325-.227-.484-.462-.479-.705.006-.243.197-.424.576-.543l5.642-.033a.487.487 0 0 1 .308.292.64.64 0 0 1 .009.438.99.99 0 0 1-.284.422c-.14.13-.33.205-.568.227l-5.204-.098zm8.82 3.762a.863.863 0 0 1-.397.414c-.19.102-.387.154-.592.154-.205 0-.397-.06-.576-.179-.178-.119-.3-.319-.364-.6-.022-.108-.025-.332-.008-.673.016-.34.018-.821.008-1.443a58.274 58.274 0 0 0-.098-2.318 57.942 57.942 0 0 0-.308-3.316c.227-.206.446-.281.657-.227.21.054.403.173.576.357.173.183.313.408.421.672.108.265.168.511.179.738.054-.205.17-.419.348-.64.178-.222.397-.425.657-.608.26-.184.548-.34.867-.47.32-.13.649-.211.99-.244.34-.032.68 0 1.02.098.341.097.658.28.95.55.01.098-.006.2-.05.309a1.269 1.269 0 0 1-.438.56.796.796 0 0 1-.29.137c-.628-.13-1.16-.121-1.598.024a2.341 2.341 0 0 0-1.078.722 3.33 3.33 0 0 0-.633 1.224c-.14.481-.237.992-.291 1.532-.055.54-.073 1.092-.057 1.654.016.562.051 1.087.105 1.573zm11.918-1.119a2.72 2.72 0 0 1-.779.916 3.45 3.45 0 0 1-1.07.544 4.169 4.169 0 0 1-2.465-.032 4.45 4.45 0 0 1-1.126-.552 3.322 3.322 0 0 1-.884-.876 6.823 6.823 0 0 1-.794-2.189c-.14-.778-.136-1.513.016-2.205.151-.692.46-1.297.924-1.816.465-.519 1.113-.865 1.946-1.038.789-.054 1.413.041 1.873.284.459.243.772.573.94.99.168.415.2.878.097 1.386a3.965 3.965 0 0 1-.656 1.483 5.024 5.024 0 0 1-1.33 1.281 5.11 5.11 0 0 1-1.913.77c.216.357.462.614.737.77.276.157.565.252.868.284.303.033.603.014.9-.056a5.71 5.71 0 0 0 .827-.26c.254-.103.478-.2.673-.292a6.39 6.39 0 0 1 .421-.186c.39-.12.654-.12.795 0 .14.119.14.384 0 .794zm-4.297-5.788a3.61 3.61 0 0 0-1.151 1.46 3.281 3.281 0 0 0-.235.875c-.038.302-.03.6.024.891a3.26 3.26 0 0 0 1.224-.421c.362-.216.665-.462.908-.738.243-.276.419-.56.527-.851.108-.292.138-.546.09-.762-.05-.216-.187-.373-.414-.47-.227-.098-.552-.092-.973.016zm10.62 6.842c-.183.335-.408.546-.673.633-.264.086-.554.005-.867-.244l-.3-.446a30.57 30.57 0 0 1-.795-1.28 86.703 86.703 0 0 1-1.321-2.32c-.53-.956-1.157-2.142-1.88-3.558a.766.766 0 0 1-.13-.56.891.891 0 0 1 .235-.478.97.97 0 0 1 1.045-.227c.108.043.238.176.39.397.15.222.316.495.494.82.178.323.368.683.568 1.077.2.395.4.787.6 1.176.2.39.394.762.583 1.119.19.356.365.656.527.9.162.243.308.416.438.519.13.102.232.094.308-.025a2.7 2.7 0 0 0 .154-.373c.07-.194.151-.43.243-.705l.292-.868c.103-.302.2-.591.292-.867a30.759 30.759 0 0 1 .381-1.078c.054-.14.119-.316.195-.527.075-.211.162-.427.259-.649a3.83 3.83 0 0 1 .332-.608c.125-.184.263-.316.414-.397a.625.625 0 0 1 .494-.04c.179.053.381.216.608.486.065.075.106.17.122.284.016.113-.005.28-.065.502-.06.222-.157.511-.292.868a56.35 56.35 0 0 1-.559 1.402c-.238.579-.53 1.281-.876 2.108-.346.827-.75 1.813-1.216 2.96zm10.702-1.054a2.72 2.72 0 0 1-.778.916 3.45 3.45 0 0 1-1.07.544 4.169 4.169 0 0 1-2.465-.032 4.45 4.45 0 0 1-1.127-.552 3.322 3.322 0 0 1-.884-.876 6.823 6.823 0 0 1-.794-2.189c-.14-.778-.135-1.513.016-2.205.151-.692.46-1.297.924-1.816.465-.519 1.114-.865 1.946-1.038.789-.054 1.413.041 1.873.284.459.243.773.573.94.99.168.415.2.878.097 1.386a3.965 3.965 0 0 1-.656 1.483 5.024 5.024 0 0 1-1.33 1.281 5.11 5.11 0 0 1-1.913.77c.216.357.462.614.738.77.275.157.564.252.867.284.303.033.603.014.9-.056a5.71 5.71 0 0 0 .827-.26c.254-.103.478-.2.673-.292a6.39 6.39 0 0 1 .421-.186c.39-.12.654-.12.795 0 .14.119.14.384 0 .794zm-4.297-5.788a3.61 3.61 0 0 0-1.151 1.46 3.281 3.281 0 0 0-.235.875c-.038.302-.03.6.024.891a3.26 3.26 0 0 0 1.224-.421c.362-.216.665-.462.908-.738.243-.276.42-.56.527-.851.108-.292.138-.546.09-.762-.05-.216-.187-.373-.414-.47-.227-.098-.551-.092-.973.016zm7.215 6.907a.863.863 0 0 1-.397.414c-.189.102-.386.154-.592.154-.205 0-.397-.06-.575-.179-.179-.119-.3-.319-.365-.6-.022-.108-.024-.332-.008-.673.016-.34.019-.821.008-1.443a58.272 58.272 0 0 0-.097-2.318 57.942 57.942 0 0 0-.308-3.316c.227-.206.445-.281.656-.227.211.054.403.173.576.357.173.183.313.408.421.672.108.265.168.511.179.738.054-.205.17-.419.348-.64.179-.222.398-.425.657-.608.26-.184.549-.34.868-.47.318-.13.648-.211.989-.244.34-.032.68 0 1.021.098.34.097.657.28.949.55.01.098-.006.2-.049.309a1.269 1.269 0 0 1-.438.56.796.796 0 0 1-.292.137c-.627-.13-1.159-.121-1.597.024a2.341 2.341 0 0 0-1.078.722 3.33 3.33 0 0 0-.632 1.224c-.14.481-.238.992-.292 1.532-.054.54-.073 1.092-.057 1.654.016.562.051 1.087.105 1.573zm5.416.26a.977.977 0 0 1-.405-.211.898.898 0 0 1-.276-.381.644.644 0 0 1 .024-.479c.07-.173.235-.34.495-.502.14.13.373.24.697.332.324.092.678.154 1.062.187.384.032.765.035 1.143.008.379-.027.695-.09.949-.187s.413-.23.478-.397c.065-.168-.027-.376-.276-.624a42.415 42.415 0 0 0-1.889-1.208c-.535-.32-.989-.633-1.362-.94a3.939 3.939 0 0 1-.891-1.022c-.222-.373-.381-.851-.479-1.435-.032-.476.081-.868.34-1.176.26-.308.595-.54 1.006-.697.41-.157.87-.24 1.378-.251a5.439 5.439 0 0 1 1.484.17c.481.124.916.31 1.305.56.39.248.67.55.843.907a.82.82 0 0 1-.024.446.933.933 0 0 1-.219.349.916.916 0 0 1-.365.219c-.146.048-.3.062-.462.04-.335-.421-.7-.727-1.094-.916-.395-.189-.768-.289-1.119-.3-.351-.01-.646.062-.884.22a.77.77 0 0 0-.373.64c-.01.27.122.589.398.956.275.368.754.762 1.435 1.184.972.584 1.694 1.127 2.164 1.63.47.502.735.95.795 1.345.06.395-.057.733-.349 1.014-.292.28-.708.491-1.248.632-.54.14-1.181.205-1.922.195-.74-.011-1.527-.114-2.359-.308zm13.539-1.379a2.72 2.72 0 0 1-.778.916 3.45 3.45 0 0 1-1.07.544 4.169 4.169 0 0 1-2.465-.032 4.45 4.45 0 0 1-1.127-.552 3.322 3.322 0 0 1-.884-.876 6.823 6.823 0 0 1-.794-2.189c-.14-.778-.135-1.513.016-2.205.151-.692.46-1.297.924-1.816.465-.519 1.114-.865 1.946-1.038.79-.054 1.413.041 1.873.284.46.243.773.573.94.99.168.415.2.878.098 1.386a3.965 3.965 0 0 1-.657 1.483 5.024 5.024 0 0 1-1.33 1.281 5.11 5.11 0 0 1-1.913.77c.216.357.462.614.738.77.275.157.565.252.867.284.303.033.603.014.9-.056a5.71 5.71 0 0 0 .827-.26c.254-.103.478-.2.673-.292a6.39 6.39 0 0 1 .421-.186c.39-.12.654-.12.795 0 .14.119.14.384 0 .794zm-4.297-5.788a3.61 3.61 0 0 0-1.151 1.46 3.281 3.281 0 0 0-.235.875c-.038.302-.03.6.024.891a3.26 3.26 0 0 0 1.224-.421c.362-.216.665-.462.908-.738.244-.276.42-.56.527-.851.108-.292.138-.546.09-.762-.05-.216-.187-.373-.414-.47-.227-.098-.551-.092-.973.016zM519.617 176.063H506.97c-4.46 0-8.74.292-12.841.878-.39-.325-.814-.65-1.27-.976-.456-.326-.781-.781-.976-1.367-.196-.586-.196-1.351 0-2.295.195-.944.716-2.263 1.562-3.955.586-.196 1.53-1.254 2.832-3.174 1.302-1.92 2.783-4.232 4.443-6.934a520.14 520.14 0 0 1 5.47-8.691c1.985-3.093 4.003-5.925 6.054-8.496 2.05-2.572 4.053-4.639 6.006-6.201 1.953-1.563 3.743-2.214 5.37-1.954.782.196 1.417.782 1.905 1.758.488.977.88 2.718 1.172 5.225.293 2.506.488 5.973.586 10.4.098 4.427.114 10.189.049 17.285l5.86-.39c.65 2.734.992 4.687 1.025 5.86.032 1.171-.245 1.92-.83 2.245-.586.326-1.465.472-2.637.44-1.172-.033-2.572.081-4.2.341l.782 26.954c.195.52-.016 1.106-.635 1.757-.618.651-1.383 1.14-2.295 1.465a4.289 4.289 0 0 1-2.783.05c-.944-.294-1.611-1.124-2.002-2.491v-27.734zm-1.074-31.934c-1.172 1.107-2.49 2.767-3.955 4.98a186.897 186.897 0 0 0-4.395 6.983 1919.015 1919.015 0 0 0-4.2 7.031c-1.334 2.246-2.49 3.988-3.466 5.225a54.86 54.86 0 0 0 3.565.097 106.969 106.969 0 0 0 8.984-.39c1.465-.13 2.718-.293 3.76-.489l-.293-23.437zM117.251 151.336c-.065 4.232-.309 7.422-.732 9.57-.423 2.149-.977 3.565-1.66 4.248-.684.684-1.449.765-2.295.244-.847-.52-1.774-1.35-2.783-2.49-1.01-1.14-2.035-2.457-3.077-3.955a84.61 84.61 0 0 0-3.027-4.101c-1.107.195-2.327.439-3.662.732a24.022 24.022 0 0 1-3.955.537 13.067 13.067 0 0 1-3.76-.342c-1.204-.293-2.23-.993-3.076-2.1-.912-1.106-1.025-2.131-.342-3.075.684-.945 1.611-1.856 2.783-2.735a69.808 69.808 0 0 0 3.418-2.734c1.107-.944 1.66-1.97 1.66-3.076-1.822-1.954-3.043-3.597-3.662-4.932-.618-1.335-.797-2.36-.537-3.076.26-.716.863-1.188 1.807-1.416.944-.228 2.05-.244 3.32-.05 1.27.196 2.588.554 3.955 1.075 1.367.521 2.604 1.14 3.711 1.856.847.586 1.677.472 2.49-.342.814-.814 1.644-1.823 2.49-3.028a27.487 27.487 0 0 1 2.735-3.32c.977-1.009 2.083-1.416 3.32-1.22.391.065.83.211 1.319.439.488.228.846.732 1.074 1.514.228.78.26 1.969.098 3.564-.163 1.595-.7 3.825-1.612 6.69 1.172.195 2.556.585 4.15 1.171 1.596.586 2.947 1.335 4.053 2.246 1.107.912 1.742 1.954 1.905 3.125.162 1.172-.57 2.442-2.198 3.81-.195.194-.78.439-1.757.731-.977.293-3.028.44-6.153.44zM332.308 206.32c-1.368.326-2.458.196-3.272-.39-.814-.586-1.35-1.35-1.611-2.295-.26-.944-.244-1.953.049-3.027s.927-1.937 1.904-2.588l20.312-42.187c1.563-3.581 2.279-6.364 2.149-8.35-.13-1.986-.781-3.353-1.953-4.102-1.172-.748-2.686-.944-4.541-.586-1.856.359-3.744 1.107-5.664 2.247a24.181 24.181 0 0 0-5.274 4.248c-1.595 1.692-2.685 3.483-3.271 5.37-.782.326-1.547.375-2.295.147a4.881 4.881 0 0 1-1.953-1.123 4.276 4.276 0 0 1-1.172-1.904c-.228-.749-.147-1.514.244-2.295 1.367-3.906 3.418-7.048 6.152-9.424 2.735-2.376 5.697-4.02 8.887-4.932 3.19-.911 6.315-1.106 9.375-.585 3.06.52 5.534 1.757 7.422 3.71 1.888 1.954 2.962 4.59 3.223 7.91.26 3.321-.814 7.325-3.223 12.012l-18.067 39.258c2.67.26 5.355.293 8.057.098 2.702-.195 5.404-.472 8.106-.83 2.701-.358 5.403-.668 8.105-.928 2.702-.26 5.42-.293 8.154-.098.391-.065.814.163 1.27.684.456.52.83 1.188 1.123 2.002.293.814.423 1.676.39 2.588a4.14 4.14 0 0 1-.878 2.441c-.554.716-1.433 1.253-2.637 1.612-1.205.358-2.88.374-5.03.048l-34.081 1.27zM276.531 151.336c-.065 4.232-.31 7.422-.732 9.57-.424 2.149-.977 3.565-1.66 4.248-.684.684-1.45.765-2.296.244-.846-.52-1.774-1.35-2.783-2.49-1.009-1.14-2.034-2.457-3.076-3.955a84.61 84.61 0 0 0-3.027-4.101c-1.107.195-2.328.439-3.662.732a24.022 24.022 0 0 1-3.955.537 13.067 13.067 0 0 1-3.76-.342c-1.205-.293-2.23-.993-3.076-2.1-.912-1.106-1.026-2.131-.342-3.075.683-.945 1.611-1.856 2.783-2.735a69.808 69.808 0 0 0 3.418-2.734c1.107-.944 1.66-1.97 1.66-3.076-1.823-1.954-3.043-3.597-3.662-4.932-.618-1.335-.797-2.36-.537-3.076.26-.716.863-1.188 1.807-1.416.944-.228 2.05-.244 3.32-.05 1.27.196 2.588.554 3.955 1.075 1.367.521 2.604 1.14 3.71 1.856.847.586 1.677.472 2.491-.342.814-.814 1.644-1.823 2.49-3.028a27.487 27.487 0 0 1 2.735-3.32c.976-1.009 2.083-1.416 3.32-1.22.39.065.83.211 1.318.439.489.228.847.732 1.075 1.514.228.78.26 1.969.097 3.564-.162 1.595-.7 3.825-1.611 6.69 1.172.195 2.555.585 4.15 1.171 1.595.586 2.946 1.335 4.053 2.246 1.107.912 1.742 1.954 1.904 3.125.163 1.172-.57 2.442-2.197 3.81-.195.194-.781.439-1.758.731-.976.293-3.027.44-6.152.44zM442.677 151.336c-.065 4.232-.309 7.422-.732 9.57-.423 2.149-.977 3.565-1.66 4.248-.684.684-1.449.765-2.295.244-.847-.52-1.774-1.35-2.783-2.49-1.01-1.14-2.035-2.457-3.077-3.955a84.611 84.611 0 0 0-3.027-4.101c-1.107.195-2.327.439-3.662.732a24.022 24.022 0 0 1-3.955.537 13.067 13.067 0 0 1-3.76-.342c-1.204-.293-2.23-.993-3.076-2.1-.912-1.106-1.025-2.131-.342-3.075.684-.945 1.611-1.856 2.783-2.735a69.808 69.808 0 0 0 3.418-2.734c1.107-.944 1.66-1.97 1.66-3.076-1.822-1.954-3.043-3.597-3.662-4.932-.618-1.335-.797-2.36-.537-3.076.26-.716.863-1.188 1.807-1.416.944-.228 2.05-.244 3.32-.05 1.27.196 2.588.554 3.955 1.075 1.367.521 2.604 1.14 3.711 1.856.847.586 1.677.472 2.49-.342.814-.814 1.644-1.823 2.49-3.028a27.487 27.487 0 0 1 2.735-3.32c.977-1.009 2.083-1.416 3.32-1.22.391.065.83.211 1.319.439.488.228.846.732 1.074 1.514.228.78.26 1.969.098 3.564-.163 1.595-.7 3.825-1.612 6.69 1.172.195 2.556.585 4.15 1.171 1.596.586 2.947 1.335 4.053 2.246 1.107.912 1.742 1.954 1.905 3.125.162 1.172-.57 2.442-2.198 3.81-.195.194-.78.439-1.757.731-.977.293-3.028.44-6.153.44zM578.864 180.639c-1.563-.195-2.735-.7-3.516-1.514-.781-.813-1.188-1.692-1.22-2.636-.033-.944.276-1.823.927-2.637.651-.814 1.563-1.318 2.734-1.514 1.628.065 3.5.082 5.616.05 2.116-.034 4.345-.066 6.69-.099l7.128-.097a167.2 167.2 0 0 1 7.031.049c.977-.066 1.758.162 2.344.683.586.521.993 1.172 1.22 1.953.229.782.245 1.628.05 2.54-.196.91-.619 1.757-1.27 2.538l-27.734.684zm-.977-13.477c-1.562-.195-2.734-.7-3.516-1.513-.78-.814-1.188-1.693-1.22-2.637-.033-.944.276-1.823.927-2.637.651-.813 1.563-1.318 2.735-1.513 1.627.065 3.5.081 5.615.048 2.116-.032 4.346-.065 6.69-.097l7.128-.098a167.2 167.2 0 0 1 7.032.049c.976-.065 1.757.163 2.343.684.586.52.993 1.171 1.221 1.953.228.781.244 1.627.049 2.539-.195.911-.619 1.758-1.27 2.539l-27.734.683zM693.773 204.43c-4.296-2.345-7.812-5.821-10.546-10.43-2.735-4.61-4.375-10.391-4.922-17.344-.547-6.954.234-15.118 2.343-24.493 2.11-9.375 5.86-19.96 11.25-31.757.313-1.407 1.016-2.422 2.11-3.047 1.094-.625 2.207-.801 3.34-.528 1.132.274 2.09.997 2.87 2.168.782 1.172 1.055 2.813.821 4.922-1.797 4.063-3.574 8.516-5.332 13.36a143.217 143.217 0 0 0-4.453 14.648c-1.211 4.922-2.05 9.727-2.52 14.414-.468 4.688-.39 8.926.235 12.715.625 3.79 1.914 6.953 3.867 9.492 1.953 2.54 4.805 4.121 8.555 4.746-2.188-5.156-3.457-9.843-3.809-14.062-.352-4.219-.059-7.95.879-11.192.937-3.242 2.363-5.957 4.277-8.144 1.914-2.188 4.024-3.828 6.328-4.922 2.305-1.094 4.668-1.621 7.09-1.582 2.422.039 4.649.664 6.68 1.875 2.031 1.21 3.691 3.008 4.98 5.39 1.29 2.383 1.934 5.41 1.934 9.083.234 2.968-.078 6.093-.938 9.375a44.663 44.663 0 0 1-3.69 9.492 41.79 41.79 0 0 1-5.86 8.437c-2.305 2.578-4.824 4.649-7.559 6.211-2.734 1.563-5.625 2.5-8.672 2.813-3.047.312-6.133-.235-9.258-1.64zm16.172-13.946c2.97-1.406 5.196-3.36 6.68-5.86 1.484-2.5 2.383-5.097 2.695-7.793.313-2.695.196-5.253-.351-7.675-.547-2.422-1.367-4.2-2.461-5.332-1.094-1.133-2.324-1.387-3.692-.762-1.367.625-2.636 2.578-3.808 5.86-.469 1.406-.781 3.066-.938 4.98a41.787 41.787 0 0 0-.058 5.86 46.16 46.16 0 0 0 .703 5.8c.351 1.875.762 3.516 1.23 4.922zm57.89-20.508H752.66c-5.351 0-10.488.352-15.41 1.055-.469-.391-.977-.782-1.523-1.172-.547-.39-.938-.938-1.172-1.64-.235-.704-.235-1.622 0-2.755.234-1.133.86-2.715 1.875-4.746.703-.234 1.836-1.504 3.398-3.808 1.563-2.305 3.34-5.079 5.332-8.32a624.171 624.171 0 0 1 6.563-10.43c2.382-3.711 4.804-7.11 7.265-10.196 2.461-3.086 4.864-5.566 7.207-7.441 2.344-1.875 4.492-2.656 6.446-2.344.937.234 1.699.938 2.285 2.11.586 1.171 1.054 3.261 1.406 6.269.352 3.008.586 7.168.703 12.48.117 5.313.137 12.227.059 20.743l7.031-.47c.781 3.282 1.191 5.626 1.23 7.032.04 1.406-.292 2.305-.996 2.695-.703.391-1.757.567-3.164.528-1.406-.04-3.086.097-5.039.41l.938 32.344c.234.625-.02 1.328-.762 2.11-.742.78-1.66 1.366-2.754 1.757-1.094.39-2.207.41-3.34.058-1.133-.351-1.933-1.347-2.402-2.988v-33.281zm-1.288-38.32c-1.406 1.328-2.988 3.32-4.746 5.976a224.278 224.278 0 0 0-5.274 8.38c-1.757 2.929-3.437 5.741-5.039 8.437-1.601 2.695-2.988 4.785-4.16 6.27 1.172.077 2.598.116 4.277.116a128.365 128.365 0 0 0 10.782-.468c1.758-.157 3.261-.352 4.511-.586l-.351-28.125zM.654 34.244c-.332-.233-.496-.473-.49-.722.006-.25.202-.435.59-.557l5.777-.033c.155.056.26.155.315.3a.656.656 0 0 1 .008.447c-.05.155-.146.3-.29.432-.144.133-.338.21-.581.232l-5.33-.1zm16.087 3.934a14.583 14.583 0 0 1-.374-2.515 64.775 64.775 0 0 1-.124-2.739 332.02 332.02 0 0 0-.075-2.656 13.687 13.687 0 0 0-.24-2.266c-.023-.42.04-.775.19-1.063.15-.288.321-.487.515-.598a.59.59 0 0 1 .572-.033c.189.089.321.288.399.598.077.896.119 1.751.124 2.565.006.813.006 1.621 0 2.424-.005.802.003 1.616.025 2.44.022.825.094 1.702.216 2.631.42 0 .794-.016 1.12-.05.327-.033.657-.082.989-.149.332-.066.697-.144 1.095-.232.399-.089.886-.188 1.461-.299.233.122.415.268.548.44.133.171.213.34.24.506a.709.709 0 0 1-.074.465.573.573 0 0 1-.398.282c-.277.045-.617.108-1.021.191-.404.083-.828.17-1.27.258-.443.088-.886.166-1.329.232a9.165 9.165 0 0 1-1.211.108 2.986 2.986 0 0 1-.922-.108c-.249-.077-.401-.221-.456-.432zm13.214.183c-.132.255-.287.415-.464.481a.828.828 0 0 1-.515.034 1.233 1.233 0 0 1-.457-.233 1.042 1.042 0 0 1-.29-.332l-.232-10.376h-3.155c-.221 0-.387-.074-.498-.224a.979.979 0 0 1-.19-.506 1.134 1.134 0 0 1 .099-.565.678.678 0 0 1 .39-.382c.686-.022 1.4-.033 2.142-.033h2.25c.757 0 1.52-.008 2.29-.025.77-.016 1.52-.058 2.25-.124.265.01.453.066.564.166.11.1.172.216.183.348a.863.863 0 0 1-.083.424c-.067.15-.15.282-.25.398-.099.116-.204.208-.315.274-.11.067-.199.083-.265.05a22.802 22.802 0 0 0-1.843.008c-.631.028-1.245.092-1.843.191l.232 10.426zm5.695-.614c.033.32-.036.556-.208.705a.838.838 0 0 1-.589.216 1.11 1.11 0 0 1-.63-.224.754.754 0 0 1-.316-.614c0-1.472-.017-2.809-.05-4.01-.033-1.2-.053-2.263-.058-3.187-.006-.924.014-1.704.058-2.34.044-.637.144-1.135.299-1.495.155-.36.376-.573.664-.64.288-.066.675.012 1.162.233.741-.155 1.403-.177 1.984-.066.58.11 1.084.313 1.51.606.427.293.772.656 1.038 1.087.266.432.448.891.548 1.378.1.487.113.982.041 1.486a4.073 4.073 0 0 1-.464 1.403 3.74 3.74 0 0 1-.98 1.137c-.415.327-.921.556-1.519.689.51.332 1.03.578 1.56.739.532.16.997.307 1.395.44.399.133.692.29.88.473.188.182.194.462.017.838-.133.343-.3.554-.498.631-.2.078-.435.072-.706-.017a5.086 5.086 0 0 1-.938-.44c-.354-.204-.744-.42-1.17-.647-.426-.227-.897-.44-1.412-.64a7.777 7.777 0 0 0-1.651-.43l.033 2.689zm-.15-4.948c.82.1 1.506.072 2.059-.083.553-.154.993-.384 1.32-.688.326-.305.545-.656.656-1.055a2.775 2.775 0 0 0-.374-2.3 2.248 2.248 0 0 0-.872-.771c-.354-.177-.76-.246-1.22-.207-.459.038-.96.235-1.502.589l-.067 4.515zM.654 57.244c-.332-.233-.496-.473-.49-.722.006-.25.202-.435.59-.557l5.777-.033c.155.056.26.155.315.3a.656.656 0 0 1 .008.447c-.05.155-.146.3-.29.432-.144.133-.338.21-.581.232l-5.33-.1zm17.216 3.503c.033.32-.036.556-.208.705a.838.838 0 0 1-.59.216 1.11 1.11 0 0 1-.63-.224.754.754 0 0 1-.316-.614c0-1.472-.016-2.809-.05-4.01-.033-1.2-.052-2.263-.058-3.187-.005-.924.014-1.704.059-2.34.044-.637.143-1.135.298-1.495.155-.36.377-.573.664-.64.288-.066.676.012 1.163.233.741-.155 1.402-.177 1.983-.066.582.11 1.085.313 1.511.606.426.293.772.656 1.038 1.087.265.432.448.891.548 1.378.1.487.113.982.041 1.486a4.073 4.073 0 0 1-.465 1.403 3.74 3.74 0 0 1-.98 1.137c-.414.327-.92.556-1.518.689.509.332 1.03.578 1.56.739.532.16.996.307 1.395.44.398.133.692.29.88.473.188.182.193.462.016.838-.132.343-.298.554-.498.631-.199.078-.434.072-.705-.017a5.086 5.086 0 0 1-.938-.44c-.354-.204-.745-.42-1.17-.647-.427-.227-.897-.44-1.412-.64a7.777 7.777 0 0 0-1.652-.43l.034 2.689zm-.15-4.948c.82.1 1.505.072 2.059-.083.553-.154.993-.384 1.32-.688.326-.305.545-.656.655-1.055a2.775 2.775 0 0 0-.374-2.3 2.248 2.248 0 0 0-.87-.771c-.355-.177-.762-.246-1.221-.207-.46.038-.96.235-1.502.589l-.067 4.515zm12.534 5.562c-.132.255-.287.415-.465.481a.828.828 0 0 1-.514.034 1.233 1.233 0 0 1-.457-.233 1.042 1.042 0 0 1-.29-.332l-.233-10.376h-3.154c-.221 0-.387-.074-.498-.224a.979.979 0 0 1-.19-.506 1.134 1.134 0 0 1 .099-.565.678.678 0 0 1 .39-.382c.686-.022 1.4-.033 2.141-.033h2.25c.758 0 1.522-.008 2.291-.025.77-.016 1.519-.058 2.25-.124.265.01.453.066.564.166.11.1.171.216.183.348a.863.863 0 0 1-.083.424c-.067.15-.15.282-.25.398-.1.116-.204.208-.315.274-.11.067-.2.083-.266.05a22.802 22.802 0 0 0-1.842.008c-.631.028-1.245.092-1.843.191l.232 10.426zm4.566-.183a14.583 14.583 0 0 1-.374-2.515 64.775 64.775 0 0 1-.124-2.739 332.02 332.02 0 0 0-.075-2.656 13.687 13.687 0 0 0-.24-2.266c-.023-.42.04-.775.19-1.063.15-.288.321-.487.515-.598a.59.59 0 0 1 .573-.033c.188.089.32.288.398.598.078.896.119 1.751.125 2.565.005.813.005 1.621 0 2.424-.006.802.002 1.616.024 2.44.023.825.095 1.702.216 2.631.42 0 .794-.016 1.12-.05.327-.033.657-.082.989-.149.332-.066.697-.144 1.095-.232.399-.089.886-.188 1.461-.299.233.122.415.268.548.44.133.171.213.34.24.506a.709.709 0 0 1-.074.465.573.573 0 0 1-.398.282c-.277.045-.617.108-1.021.191-.404.083-.828.17-1.27.258-.443.088-.886.166-1.328.232a9.165 9.165 0 0 1-1.212.108 2.986 2.986 0 0 1-.922-.108c-.249-.077-.4-.221-.456-.432zM292.475 30.491c-.332-.232-.496-.473-.49-.722.005-.25.202-.434.59-.556l5.777-.033c.155.055.26.155.315.298a.656.656 0 0 1 .008.449c-.05.155-.146.299-.29.431-.144.133-.338.21-.581.233l-5.33-.1zm18.46 4.184a6.123 6.123 0 0 1-1.552-1.694 8.578 8.578 0 0 1-.888-2.008 13.578 13.578 0 0 1-.456-2.208 114.5 114.5 0 0 1-.258-2.275c.045-.243.139-.45.283-.622.143-.172.31-.288.498-.349a.875.875 0 0 1 .58.017c.2.072.371.23.515.473-.055.63-.05 1.278.017 1.942.066.664.174 1.292.324 1.884.149.593.326 1.13.53 1.61.206.482.421.853.648 1.113.227.26.451.39.673.39.221 0 .426-.188.614-.564.188-.377.349-.96.481-1.752.133-.791.216-1.84.25-3.146 0-.144.063-.268.19-.373.128-.105.28-.186.457-.241.177-.055.351-.091.523-.108.171-.017.307-.008.407.025.143.243.26.562.348.955.089.392.169.813.24 1.261.073.449.145.902.217 1.362.072.459.174.877.307 1.253.133.376.301.689.506.938.205.25.468.39.789.423.288.023.514-.063.68-.257.166-.194.291-.46.374-.797.083-.337.127-.728.133-1.17.005-.443-.006-.897-.033-1.362a27.732 27.732 0 0 0-.117-1.377l-.132-1.22c-.04-.36-.064-.654-.075-.88-.011-.227.01-.352.066-.374.332-.155.626-.16.88-.017.255.144.473.393.656.747.183.355.324.789.423 1.304.1.514.155 1.06.166 1.635.011.575-.02 1.16-.091 1.751a8.298 8.298 0 0 1-.365 1.652c-.172.51-.39.952-.656 1.328-.266.377-.587.642-.963.797-.564.089-1.04.091-1.428.008a2.359 2.359 0 0 1-.996-.456 3.265 3.265 0 0 1-.739-.863c-.215-.355-.44-.759-.672-1.212-.144.387-.307.78-.49 1.178a3.604 3.604 0 0 1-.664 1.005c-.26.271-.567.448-.921.531-.354.083-.78-.003-1.278-.257zm12.186-.332a.884.884 0 0 1-.407.423 1.253 1.253 0 0 1-.606.158c-.21 0-.406-.061-.589-.183-.183-.122-.307-.326-.373-.614-.023-.11-.025-.34-.009-.69.017-.348.02-.84.009-1.477a59.662 59.662 0 0 0-.1-2.374 59.325 59.325 0 0 0-.315-3.395c.232-.21.456-.287.672-.232.216.055.412.177.59.365.176.188.32.418.43.69.112.27.172.522.183.754.056-.21.175-.428.357-.655.183-.227.407-.435.673-.623.265-.188.561-.348.888-.481a3.573 3.573 0 0 1 1.013-.25c.348-.033.697 0 1.046.1.348.1.672.288.97.565a.65.65 0 0 1-.049.315c-.044.11-.105.216-.183.316-.077.1-.166.185-.265.257-.1.072-.2.119-.3.141-.641-.133-1.186-.124-1.634.025-.449.15-.817.396-1.104.739a3.41 3.41 0 0 0-.648 1.253 8.658 8.658 0 0 0-.299 1.569 13.183 13.183 0 0 0-.058 1.693c.017.576.053 1.113.108 1.61zm13.663-.349c0 .321-.066.537-.199.648a.704.704 0 0 1-.465.166c-.177 0-.346-.036-.506-.108-.16-.072-.263-.141-.307-.208l-.88-1.892c-.144.265-.31.522-.498.772-.188.249-.399.47-.631.664a3.758 3.758 0 0 1-.755.49 2.593 2.593 0 0 1-.872.248c-.742.022-1.359-.091-1.851-.34a3.125 3.125 0 0 1-1.179-1.004 3.555 3.555 0 0 1-.58-1.453 5.96 5.96 0 0 1-.042-1.693 7.272 7.272 0 0 1 .415-1.719c.21-.564.476-1.07.797-1.519a4.549 4.549 0 0 1 1.12-1.112 2.706 2.706 0 0 1 1.37-.49c.487-.033.999.08 1.535.34.537.26 1.088.723 1.652 1.387l1.876 6.823zm-6.508-1.096c.51.177.955.219 1.337.125s.705-.274.971-.54a2.58 2.58 0 0 0 .606-.996 5.112 5.112 0 0 0 .2-2.515 3.547 3.547 0 0 0-.366-1.096 1.766 1.766 0 0 0-.656-.705c-.265-.155-.575-.188-.93-.1-.287.067-.545.235-.771.507a3.728 3.728 0 0 0-.573.962c-.155.371-.271.772-.349 1.204a6.627 6.627 0 0 0-.108 1.262c.006.41.061.783.166 1.12.105.338.263.595.473.772zm10.21 5.512c.067.354.025.625-.124.814a.817.817 0 0 1-.548.323.971.971 0 0 1-.64-.15.857.857 0 0 1-.398-.588 89.232 89.232 0 0 0-.166-8.4 32.722 32.722 0 0 0-.265-2.574c-.277.122-.504.166-.68.133-.178-.033-.302-.114-.374-.241-.072-.127-.092-.288-.059-.481.034-.194.122-.402.266-.623.365-.443.869-.7 1.51-.772.643-.072 1.323-.008 2.043.19.72.2 1.436.513 2.15.939.714.426 1.33.913 1.85 1.46.521.549.897 1.138 1.13 1.769.232.63.232 1.245 0 1.843-.155.42-.449.808-.88 1.162a5.89 5.89 0 0 1-1.486.88 7.262 7.262 0 0 1-1.76.481 4.668 4.668 0 0 1-1.718-.05l.15 3.885zm-.1-5.346c1.174-.066 2.073-.24 2.699-.523.625-.282 1.037-.62 1.236-1.012.2-.393.213-.814.042-1.262-.172-.448-.462-.869-.872-1.262a5.874 5.874 0 0 0-1.494-1.02 5.42 5.42 0 0 0-1.843-.532l.233 5.611zm-47.911 20.427c-.332-.232-.496-.473-.49-.722.005-.25.202-.434.59-.556l5.777-.033c.155.055.26.155.315.298a.656.656 0 0 1 .008.449c-.05.155-.146.299-.29.431-.144.133-.338.21-.581.233l-5.33-.1zm18.46 4.184a6.123 6.123 0 0 1-1.552-1.694 8.578 8.578 0 0 1-.888-2.008 13.578 13.578 0 0 1-.456-2.208 114.5 114.5 0 0 1-.258-2.275c.045-.243.139-.45.283-.622.143-.172.31-.288.498-.349a.875.875 0 0 1 .58.017c.2.072.371.23.515.473-.055.63-.05 1.278.017 1.942.066.664.174 1.292.324 1.884.149.593.326 1.13.53 1.61.206.482.421.853.648 1.113.227.26.451.39.673.39.221 0 .426-.188.614-.564.188-.377.349-.96.481-1.752.133-.791.216-1.84.25-3.146 0-.144.063-.268.19-.373.128-.105.28-.186.457-.241.177-.055.351-.091.523-.108.171-.017.307-.008.407.025.143.243.26.562.348.955.089.392.169.813.24 1.261.073.449.145.902.217 1.362.072.459.174.877.307 1.253.133.376.301.689.506.938.205.25.468.39.789.423.288.023.514-.063.68-.257.166-.194.291-.46.374-.797.083-.337.127-.728.133-1.17.005-.443-.006-.897-.033-1.362a27.732 27.732 0 0 0-.117-1.377l-.132-1.22c-.04-.36-.064-.654-.075-.88-.011-.227.01-.352.066-.374.332-.155.626-.16.88-.017.255.144.473.393.656.747.183.355.324.789.423 1.304.1.514.155 1.06.166 1.635.011.575-.02 1.16-.091 1.751a8.298 8.298 0 0 1-.365 1.652c-.172.51-.39.952-.656 1.328-.266.377-.587.642-.963.797-.564.089-1.04.091-1.428.008a2.359 2.359 0 0 1-.996-.456 3.265 3.265 0 0 1-.739-.863c-.215-.355-.44-.759-.672-1.212-.144.387-.307.78-.49 1.178a3.604 3.604 0 0 1-.664 1.005c-.26.271-.567.448-.921.531-.354.083-.78-.003-1.278-.257zm12.186-.332a.884.884 0 0 1-.407.423 1.253 1.253 0 0 1-.606.158c-.21 0-.406-.061-.589-.183-.183-.122-.307-.326-.373-.614-.023-.11-.025-.34-.009-.69.017-.348.02-.84.009-1.477a59.662 59.662 0 0 0-.1-2.374 59.325 59.325 0 0 0-.315-3.395c.232-.21.456-.287.672-.232.216.055.412.177.59.365.176.188.32.418.43.69.112.27.172.522.183.754.056-.21.175-.428.357-.655.183-.227.407-.435.673-.623.265-.188.561-.348.888-.481a3.573 3.573 0 0 1 1.013-.25c.348-.033.697 0 1.046.1.348.1.672.288.97.565a.65.65 0 0 1-.049.315c-.044.11-.105.216-.183.316-.077.1-.166.185-.265.257-.1.072-.2.119-.3.141-.641-.133-1.186-.124-1.634.025-.449.15-.817.396-1.104.739a3.41 3.41 0 0 0-.648 1.253 8.658 8.658 0 0 0-.299 1.569 13.183 13.183 0 0 0-.058 1.693c.017.576.053 1.113.108 1.61zm13.663-.349c0 .321-.066.537-.199.648a.704.704 0 0 1-.465.166c-.177 0-.346-.036-.506-.108-.16-.072-.263-.141-.307-.208l-.88-1.892c-.144.265-.31.522-.498.772-.188.249-.399.47-.631.664a3.758 3.758 0 0 1-.755.49 2.593 2.593 0 0 1-.872.248c-.742.022-1.359-.091-1.851-.34a3.125 3.125 0 0 1-1.179-1.004 3.555 3.555 0 0 1-.58-1.453 5.96 5.96 0 0 1-.042-1.693 7.272 7.272 0 0 1 .415-1.719c.21-.564.476-1.07.797-1.519a4.549 4.549 0 0 1 1.12-1.112 2.706 2.706 0 0 1 1.37-.49c.487-.033.999.08 1.535.34.537.26 1.088.723 1.652 1.387l1.876 6.823zm-6.508-1.096c.51.177.955.219 1.337.125s.705-.274.971-.54a2.58 2.58 0 0 0 .606-.996 5.112 5.112 0 0 0 .2-2.515 3.547 3.547 0 0 0-.366-1.096 1.766 1.766 0 0 0-.656-.705c-.265-.155-.575-.188-.93-.1-.287.067-.545.235-.771.507a3.728 3.728 0 0 0-.573.962c-.155.371-.271.772-.349 1.204a6.627 6.627 0 0 0-.108 1.262c.006.41.061.783.166 1.12.105.338.263.595.473.772zm10.21 5.512c.067.354.025.625-.124.814a.817.817 0 0 1-.548.323.971.971 0 0 1-.64-.15.857.857 0 0 1-.398-.588 89.232 89.232 0 0 0-.166-8.4 32.722 32.722 0 0 0-.265-2.574c-.277.122-.504.166-.68.133-.178-.033-.302-.114-.374-.241-.072-.127-.092-.288-.059-.481.034-.194.122-.402.266-.623.365-.443.869-.7 1.51-.772.643-.072 1.323-.008 2.043.19.72.2 1.436.513 2.15.939.714.426 1.33.913 1.85 1.46.521.549.897 1.138 1.13 1.769.232.63.232 1.245 0 1.843-.155.42-.449.808-.88 1.162a5.89 5.89 0 0 1-1.486.88 7.262 7.262 0 0 1-1.76.481 4.668 4.668 0 0 1-1.718-.05l.15 3.885zm-.1-5.346c1.174-.066 2.073-.24 2.699-.523.625-.282 1.037-.62 1.236-1.012.2-.393.213-.814.042-1.262-.172-.448-.462-.869-.872-1.262a5.874 5.874 0 0 0-1.494-1.02 5.42 5.42 0 0 0-1.843-.532l.233 5.611zm6.99-2.573c-.332-.232-.495-.473-.49-.722.006-.25.202-.434.59-.556l5.777-.033c.155.055.26.155.315.298a.656.656 0 0 1 .009.449c-.05.155-.147.299-.29.431-.145.133-.338.21-.582.233l-5.329-.1zm9.031 3.852a.884.884 0 0 1-.406.423 1.253 1.253 0 0 1-.606.158c-.21 0-.407-.061-.59-.183-.182-.122-.307-.326-.373-.614-.022-.11-.025-.34-.009-.69.017-.348.02-.84.009-1.477a59.664 59.664 0 0 0-.1-2.374 59.325 59.325 0 0 0-.315-3.395c.232-.21.456-.287.672-.232.216.055.412.177.59.365.176.188.32.418.431.69.11.27.172.522.183.754.055-.21.174-.428.357-.655.182-.227.406-.435.672-.623s.562-.348.888-.481a3.573 3.573 0 0 1 1.013-.25c.348-.033.697 0 1.046.1.348.1.672.288.97.565a.65.65 0 0 1-.049.315c-.044.11-.105.216-.183.316-.077.1-.166.185-.265.257-.1.072-.2.119-.299.141-.642-.133-1.187-.124-1.635.025-.448.15-.816.396-1.104.739a3.41 3.41 0 0 0-.648 1.253 8.658 8.658 0 0 0-.299 1.569 13.183 13.183 0 0 0-.058 1.693c.017.576.053 1.113.108 1.61zm12.202-1.146c-.199.377-.464.69-.796.938a3.533 3.533 0 0 1-1.096.556 4.268 4.268 0 0 1-2.523-.033 4.556 4.556 0 0 1-1.154-.564 3.401 3.401 0 0 1-.905-.897 6.985 6.985 0 0 1-.814-2.241c-.144-.797-.138-1.55.017-2.258.155-.708.47-1.328.946-1.86.476-.53 1.14-.885 1.992-1.062.808-.055 1.448.042 1.918.29.47.25.791.587.963 1.014.171.426.205.899.1 1.419a4.06 4.06 0 0 1-.673 1.519c-.343.493-.797.93-1.361 1.312a5.232 5.232 0 0 1-1.96.788c.222.365.474.628.756.789.282.16.578.257.888.29.31.033.617.014.922-.058.304-.072.586-.16.846-.266.26-.105.49-.204.69-.298.199-.094.342-.158.43-.191.4-.122.67-.122.814 0 .144.121.144.393 0 .813zm-4.399-5.927c-.266.2-.498.427-.697.681-.2.255-.36.526-.482.814a3.36 3.36 0 0 0-.24.896c-.04.31-.03.614.024.913.465-.066.883-.21 1.254-.431.37-.222.68-.474.93-.756a2.79 2.79 0 0 0 .54-.871c.11-.3.14-.56.09-.78-.05-.222-.19-.383-.423-.482-.232-.1-.564-.094-.996.016zm10.874 7.006c-.188.343-.418.56-.689.648-.271.088-.567.005-.888-.25l-.307-.456a31.298 31.298 0 0 1-.814-1.311c-.36-.604-.81-1.395-1.353-2.374a128.64 128.64 0 0 1-1.926-3.644.785.785 0 0 1-.132-.573.913.913 0 0 1 .24-.49.993.993 0 0 1 1.071-.232c.11.044.244.18.399.406.155.227.323.507.506.839.183.332.376.7.581 1.104.205.404.41.805.614 1.203.205.399.404.78.598 1.146.194.365.373.672.54.921.166.25.315.426.448.532.133.105.238.096.315-.025.033-.056.086-.183.158-.382.072-.2.155-.44.249-.722.094-.283.194-.579.299-.889l.299-.888a31.487 31.487 0 0 1 .39-1.104c.055-.144.121-.323.199-.54.077-.215.166-.436.266-.663.1-.227.213-.435.34-.623.127-.188.268-.324.423-.407a.64.64 0 0 1 .507-.041c.182.055.39.221.622.498a.556.556 0 0 1 .125.29c.016.117-.006.288-.067.515-.06.227-.16.523-.299.888-.138.366-.329.844-.572 1.436-.244.592-.543 1.312-.897 2.159-.354.846-.77 1.856-1.245 3.03zm10.957-1.079c-.2.377-.465.69-.797.938a3.533 3.533 0 0 1-1.096.556 4.268 4.268 0 0 1-2.523-.033 4.556 4.556 0 0 1-1.154-.564 3.401 3.401 0 0 1-.905-.897 6.985 6.985 0 0 1-.813-2.241c-.144-.797-.138-1.55.017-2.258.155-.708.47-1.328.946-1.86.476-.53 1.14-.885 1.992-1.062.808-.055 1.447.042 1.918.29.47.25.79.587.962 1.014.172.426.205.899.1 1.419a4.06 4.06 0 0 1-.672 1.519c-.343.493-.797.93-1.362 1.312a5.232 5.232 0 0 1-1.959.788c.222.365.474.628.756.789.282.16.578.257.888.29.31.033.617.014.921-.058.305-.072.587-.16.847-.266.26-.105.49-.204.689-.298.2-.094.343-.158.432-.191.398-.122.67-.122.813 0 .144.121.144.393 0 .813zm-4.4-5.927c-.265.2-.497.427-.697.681-.199.255-.36.526-.481.814a3.36 3.36 0 0 0-.24.896c-.04.31-.031.614.024.913.465-.066.883-.21 1.254-.431.37-.222.68-.474.93-.756a2.79 2.79 0 0 0 .539-.871c.11-.3.14-.56.091-.78-.05-.222-.19-.383-.423-.482-.233-.1-.565-.094-.996.016zm7.388 7.073a.884.884 0 0 1-.406.423 1.253 1.253 0 0 1-.606.158c-.21 0-.407-.061-.59-.183-.182-.122-.307-.326-.373-.614-.022-.11-.025-.34-.009-.69.017-.348.02-.84.009-1.477a59.662 59.662 0 0 0-.1-2.374 59.325 59.325 0 0 0-.315-3.395c.232-.21.456-.287.672-.232.216.055.412.177.59.365.177.188.32.418.431.69.11.27.172.522.183.754.055-.21.174-.428.357-.655.182-.227.406-.435.672-.623s.562-.348.888-.481a3.573 3.573 0 0 1 1.013-.25c.349-.033.697 0 1.046.1.348.1.672.288.971.565a.65.65 0 0 1-.05.315 1.299 1.299 0 0 1-.448.573c-.1.072-.2.119-.299.141-.642-.133-1.187-.124-1.635.025-.448.15-.816.396-1.104.739a3.41 3.41 0 0 0-.648 1.253 8.658 8.658 0 0 0-.298 1.569 13.183 13.183 0 0 0-.059 1.693c.017.576.053 1.113.108 1.61zm5.545.265a1 1 0 0 1-.415-.215.92.92 0 0 1-.282-.39.66.66 0 0 1 .025-.49c.072-.177.24-.349.506-.515.144.133.382.246.714.34.332.094.695.158 1.088.191.392.033.783.036 1.17.009.387-.028.711-.092.971-.191.26-.1.423-.236.49-.407.066-.172-.028-.385-.282-.64a43.427 43.427 0 0 0-1.934-1.236 11.204 11.204 0 0 1-1.395-.963 4.033 4.033 0 0 1-.913-1.046c-.227-.382-.39-.871-.49-1.47-.033-.486.083-.887.349-1.203a2.465 2.465 0 0 1 1.03-.714c.42-.16.89-.246 1.41-.257a5.569 5.569 0 0 1 1.52.174c.492.128.937.319 1.336.573.398.255.686.565.863.93a.84.84 0 0 1-.025.456.955.955 0 0 1-.224.357c-.1.1-.224.175-.374.224-.149.05-.307.064-.473.042-.343-.432-.716-.744-1.12-.938-.404-.194-.786-.296-1.146-.307-.36-.011-.661.063-.905.224a.789.789 0 0 0-.381.656c-.011.276.124.603.406.98.283.375.772.78 1.47 1.211.996.598 1.734 1.154 2.216 1.669.481.514.752.974.813 1.377.061.404-.058.75-.357 1.038-.298.288-.725.504-1.278.648-.553.143-1.21.21-1.967.199a11.361 11.361 0 0 1-2.416-.316zm13.863-1.41c-.2.376-.465.688-.797.937a3.533 3.533 0 0 1-1.096.556 4.268 4.268 0 0 1-2.523-.033 4.556 4.556 0 0 1-1.154-.564 3.401 3.401 0 0 1-.905-.897 6.985 6.985 0 0 1-.814-2.241c-.143-.797-.138-1.55.017-2.258.155-.708.47-1.328.946-1.86.476-.53 1.14-.885 1.993-1.062.808-.055 1.447.042 1.917.29.47.25.791.587.963 1.014.171.426.205.899.1 1.419a4.06 4.06 0 0 1-.673 1.519c-.343.493-.797.93-1.361 1.312a5.232 5.232 0 0 1-1.96.788c.222.365.474.628.756.789.282.16.579.257.888.29.31.033.617.014.922-.058.304-.072.586-.16.846-.266.26-.105.49-.204.69-.298.199-.094.343-.158.431-.191.399-.122.67-.122.814 0 .143.121.143.393 0 .813zm-4.4-5.928c-.265.2-.498.427-.697.681-.2.255-.36.526-.482.814a3.36 3.36 0 0 0-.24.896c-.039.31-.03.614.025.913.464-.066.882-.21 1.253-.431.37-.222.68-.474.93-.756a2.79 2.79 0 0 0 .54-.871c.11-.3.14-.56.09-.78-.05-.222-.19-.383-.423-.482-.232-.1-.564-.094-.996.016z"/><path fill-rule="nonzero" d="M824.201 175.53l-.53-.817c-3.468-5.345-7.059-10.894-10.69-16.28 3.142-4.691 6.202-9.506 9.221-14.157l1.714-2.652c2.978-4.61 3.794-9.588 2.325-14.036-1.51-4.447-5.181-7.956-10.322-9.873-3.346-1.224-6.691-2.53-9.996-3.754a960.08 960.08 0 0 0-8.528-3.223c-.204-4.325-.448-8.732-.693-12.975-.123-2.448-.286-4.937-.408-7.385-.449-8.894-6.692-15.096-15.178-15.096-1.55 0-3.142.204-4.733.653l-1.469.408a958.32 958.32 0 0 0-18.278 5.018c-2.734-3.427-5.55-6.854-8.242-10.2-1.51-1.836-3.02-3.672-4.488-5.549-3.305-4.08-7.712-6.324-12.363-6.324s-9.058 2.244-12.403 6.365l-1.959 2.407c-3.55 4.366-7.221 8.895-10.771 13.465-4.855-1.388-9.751-2.693-13.75-3.754a469.816 469.816 0 0 1-4.04-1.06c-.04 0-.08-.042-.121-.042-2.163-.53-4.203-.775-6.12-.775-8.895 0-14.77 5.549-15.423 14.525-.53 7.507-.857 14.892-1.061 20.686a1097.04 1097.04 0 0 0-19.217 7.385c-4.774 1.877-8.16 5.345-9.547 9.67-1.428 4.365-.653 9.18 2.162 13.545 3.55 5.509 7.385 11.384 11.22 17.178a955.95 955.95 0 0 0-11.383 17.666c-2.57 4.08-3.223 8.854-1.795 13.138 1.428 4.284 4.855 7.752 9.384 9.507l1.713.652c5.794 2.244 11.792 4.57 17.749 6.732.122 2.122.244 4.244.408 6.284.326 4.488.612 8.731.57 13.015-.04 4.366 1.633 8.65 4.652 11.67 2.856 2.896 6.732 4.487 10.894 4.487 1.754 0 3.55-.285 5.386-.857 4.039-1.264 8.282-2.407 12.362-3.468 2.122-.57 4.284-1.142 6.447-1.713 4.284 5.385 8.69 10.73 12.77 15.749 3.346 4.08 7.752 6.365 12.363 6.365 4.61 0 9.017-2.285 12.322-6.365a1449.092 1449.092 0 0 0 12.689-15.83c5.181 1.427 10.445 2.814 15.504 4.16l4.243 1.102c1.55.408 3.06.612 4.57.612 8.364 0 14.77-6.283 15.178-14.933.122-2.244.244-4.529.367-6.773.245-4.488.49-9.139.693-13.79 5.916-2.244 11.873-4.57 17.667-6.814l1.346-.53c4.856-1.877 8.324-5.386 9.752-9.792 1.428-4.448.653-9.303-2.163-13.628zm-7.14 10.567c-.49 1.55-1.917 2.856-3.998 3.672l-1.347.53a1593.994 1593.994 0 0 1-18.482 7.1c-3.428 1.305-5.223 3.712-5.345 7.262-.163 4.937-.449 9.955-.735 14.81-.122 2.285-.244 4.57-.367 6.814-.163 3.509-2.244 5.671-5.426 5.671a7.723 7.723 0 0 1-2.081-.285l-4.243-1.102c-5.508-1.469-11.18-2.937-16.729-4.488-.816-.204-1.55-.326-2.284-.326-2.285 0-4.285 1.02-5.876 3.06a2050.053 2050.053 0 0 1-13.423 16.728c-1.02 1.265-2.652 2.734-4.733 2.734-1.632 0-3.305-.98-4.774-2.775-4.365-5.304-9.017-10.975-13.505-16.687-1.59-2-3.55-2.979-5.834-2.979-.775 0-1.55.123-2.367.368-2.488.693-5.1 1.387-7.589 2.04-4.202 1.101-8.568 2.244-12.81 3.59a7.691 7.691 0 0 1-2.449.408c-1.918 0-3.223-.857-3.917-1.591-1.183-1.183-1.836-2.897-1.795-4.651.04-4.652-.286-9.303-.571-13.791a408.155 408.155 0 0 1-.45-7.263c-.162-3.508-1.917-5.916-5.18-7.14-6.243-2.285-12.608-4.733-18.728-7.099l-1.714-.653c-1.836-.693-3.1-1.917-3.59-3.468-.49-1.51-.204-3.223.816-4.814a1215.176 1215.176 0 0 1 11.873-18.36c1.999-3.02 1.999-6.04 0-9.018-4.04-5.997-8.038-12.158-11.75-17.952-1.184-1.836-1.551-3.672-1.062-5.222.49-1.51 1.836-2.775 3.836-3.59 6.405-2.53 13.219-5.142 20.237-7.794 3.304-1.224 5.018-3.63 5.14-7.18.205-5.876.49-13.669 1.061-21.543.286-3.795 1.959-5.427 5.672-5.427 1.142 0 2.407.163 3.794.49 1.224.326 2.57.693 3.999 1.06a960.027 960.027 0 0 1 14.28 3.877c.979.285 1.917.408 2.774.408 2.53 0 4.692-1.143 6.447-3.428 3.631-4.692 7.425-9.384 11.097-13.913l1.959-2.407c1.428-1.754 3.142-2.733 4.774-2.733 1.632 0 3.345.979 4.732 2.692 1.51 1.877 3.02 3.713 4.53 5.55 2.937 3.59 5.956 7.303 8.853 10.975 1.673 2.121 3.713 3.182 6.08 3.182.815 0 1.631-.122 2.529-.367 6.365-1.836 12.893-3.59 19.217-5.263l1.469-.408a8.602 8.602 0 0 1 2.203-.286c3.183 0 5.223 2.162 5.386 5.794.122 2.489.285 4.937.408 7.425.245 4.61.53 9.344.734 13.995.204 4.406 2.897 6.324 5.182 7.18a527.122 527.122 0 0 1 9.629 3.632c3.305 1.265 6.691 2.53 10.078 3.795 2.325.856 3.916 2.203 4.447 3.794.653 2-.327 4.162-1.265 5.63l-1.714 2.653c-3.182 4.896-6.446 9.996-9.71 14.933-2 3.019-2.04 6.079 0 9.017 3.794 5.63 7.589 11.465 11.22 17.095l.53.857c.98 1.754 1.347 3.631.857 5.182z"/></g></svg>
