<svg width="1233" height="552" xmlns="http://www.w3.org/2000/svg" xmlns:xlink="http://www.w3.org/1999/xlink" viewBox="0 0 1233 552"><defs><path id="O" d="M0 0v-2a2 2 0 0 0-2 2h2Zm38.486 0h2a2 2 0 0 0-2-2v2Zm0 44.899v2a2 2 0 0 0 2-2h-2ZM0 44.899h-2a2 2 0 0 0 2 2v-2ZM0 2h38.486v-4H0v4Zm36.486-2v44.899h4V0h-4Zm2 42.899H0v4h38.486v-4ZM2 44.899V0h-4v44.899h4Z"/><path id="P" d="M0 0v-2a2 2 0 0 0-2 2h2Zm25.656 0h2a2 2 0 0 0-2-2v2Zm0 44.899v2a2 2 0 0 0 2-2h-2ZM0 44.899h-2a2 2 0 0 0 2 2v-2ZM0 2h25.656v-4H0v4Zm23.656-2v44.899h4V0h-4Zm2 42.899H0v4h25.656v-4ZM2 44.899V0h-4v44.899h4Z"/></defs><g clip-path="url(#a)" transform="translate(-306 716)"><g transform="translate(1030.68 -480)"><use xlink:href="#b" fill="#4500EE"/><use xlink:href="#c" fill="#FFF"/></g><g fill="#4500EE" transform="translate(1320.68 -480)"><use xlink:href="#d"/><use xlink:href="#e"/></g><g fill="#FFF" transform="translate(1320.68 -480)"><use xlink:href="#f"/><use xlink:href="#g"/></g><g fill="#4500EE"><use xlink:href="#h" transform="translate(1431.68 -530)"/><use xlink:href="#i" transform="translate(1431.68 -480)"/></g><g fill="#FFF"><use xlink:href="#j" transform="translate(1431.68 -530)"/><use xlink:href="#k" transform="translate(1431.68 -480)"/></g><g fill="#4500EE"><use xlink:href="#l" transform="translate(351.677 -540)"/><use xlink:href="#m" transform="translate(331.677 -540)"/></g><g fill="#FFF"><use xlink:href="#n" transform="translate(351.677 -540)"/><use xlink:href="#o" transform="translate(331.677 -540)"/></g><g fill="#4500EE"><use xlink:href="#p" transform="translate(484.677 -480)"/><use xlink:href="#q" transform="translate(564.677 -480)"/></g><g fill="#FFF"><use xlink:href="#r" transform="translate(484.677 -480)"/><use xlink:href="#s" transform="translate(564.677 -480)"/></g><g fill="#4500EE"><use xlink:href="#p" transform="translate(747.677 -480)"/><use xlink:href="#q" transform="translate(827.677 -480)"/></g><g fill="#FFF"><use xlink:href="#r" transform="translate(747.677 -480)"/><use xlink:href="#s" transform="translate(827.677 -480)"/></g><g transform="translate(616.677 -480)"><use xlink:href="#t" fill="#4500EE"/><use xlink:href="#u" fill="#FFF"/></g><g fill="#4500EE"><use xlink:href="#v" transform="translate(1241.68 -480)"/><use xlink:href="#w" transform="translate(1261.68 -510)"/><use xlink:href="#i" transform="translate(1241.68 -380)"/></g><g fill="#FFF"><use xlink:href="#x" transform="translate(1241.68 -480)"/><use xlink:href="#y" transform="translate(1261.68 -510)"/><use xlink:href="#k" transform="translate(1241.68 -380)"/></g><g transform="translate(881.677 -540)"><use xlink:href="#z" fill="#4500EE"/><use xlink:href="#A" fill="#FFF"/></g><use xlink:href="#B" fill="#FFF" transform="translate(1259.76 -511.419)"/><use xlink:href="#C" fill="#4500EE" transform="translate(1128.18 -492.5)"/><use xlink:href="#D" fill="#4500EE" transform="translate(1154.71 -492.5)"/><use xlink:href="#E" fill="#4500EE" transform="translate(1128.18 -392.5)"/><use xlink:href="#x" fill="#FFF" transform="translate(1140.68 -480)"/><use xlink:href="#F" fill="#FFF" transform="translate(1160.68 -480)"/><use xlink:href="#k" fill="#FFF" transform="translate(1140.68 -380)"/><g fill="#333"><use xlink:href="#G" transform="translate(871.677 -700)"/><use xlink:href="#H" transform="translate(895.677 -630)"/><use xlink:href="#I" transform="translate(601.677 -660)"/><use xlink:href="#J" transform="translate(741.677 -680)"/><use xlink:href="#K" transform="translate(791.677 -680)"/><use xlink:href="#J" transform="translate(1021.68 -680)"/><use xlink:href="#L" transform="translate(1171.68 -660)"/><use xlink:href="#M" transform="translate(1171.68 -600)"/><use xlink:href="#L" transform="translate(1171.68 -540)"/><use xlink:href="#K" transform="translate(1071.68 -680)"/><use xlink:href="#N" transform="translate(1171.68 -660)"/></g><g fill="#333"><use xlink:href="#O" transform="rotate(-45.001 291.265 -1584.173)"/><use xlink:href="#P" transform="rotate(-45.001 287.54 -1637.052)"/><use xlink:href="#Q" transform="translate(1196.43 -267.104)"/><use xlink:href="#O" transform="rotate(-45.001 291.265 -1584.173)"/><use xlink:href="#P" transform="rotate(-45.001 287.54 -1637.052)"/><use xlink:href="#Q" transform="translate(1196.43 -267.104)"/><use xlink:href="#R" transform="rotate(-134.999 266.197 -242.812)"/><use xlink:href="#S" transform="rotate(-134.999 244.29 -244.366)"/><use xlink:href="#T" transform="translate(589.819 -267.104)"/><use xlink:href="#R" transform="rotate(-134.999 266.197 -242.812)"/><use xlink:href="#S" transform="rotate(-134.999 244.29 -244.366)"/><use xlink:href="#T" transform="translate(589.819 -267.104)"/></g><g fill="#333"><g transform="translate(1305.72 -656.302)"><use xlink:href="#U"/><use xlink:href="#V"/></g><g transform="translate(402.077 -655.368)"><use xlink:href="#W"/><use xlink:href="#X"/><use xlink:href="#Y"/></g></g><g fill="#333"><use xlink:href="#Z" transform="translate(861.677 -270)"/><use xlink:href="#aa" transform="translate(1001.68 -270)"/><use xlink:href="#ab" transform="translate(721.677 -320)"/><use xlink:href="#ac" transform="translate(861.677 -270)"/><use xlink:href="#ad" transform="translate(1001.68 -270)"/><use xlink:href="#ae" transform="translate(721.677 -320)"/></g><use xlink:href="#af" fill="#333" transform="translate(1071.68 -320)"/></g><defs><path id="b" d="M60 112.5h12.5v-25H60v25ZM20 100l-8.839 8.839A12.5 12.5 0 0 0 20 112.5V100ZM0 80h-12.5a12.5 12.5 0 0 0 3.661 8.839L0 80Zm0-60-8.839-8.839A12.5 12.5 0 0 0-12.5 20H0ZM20 0v-12.5a12.5 12.5 0 0 0-8.839 3.661L20 0Zm40 12.5h12.5v-25H60v25Zm0 75H20v25h40v-25Zm-31.161 3.661-20-20L-8.84 88.84l20 20L28.84 91.161ZM12.5 80V20h-25v60h25ZM8.839 28.839l20-20L11.16-8.84l-20 20L8.84 28.84ZM20 12.5h40v-25H20v25Z"/><path id="c" d="M60 101a1 1 0 0 0 0-2v2Zm-40-1-.707.707A.998.998 0 0 0 20 101v-1ZM0 80h-1a1 1 0 0 0 .293.707L0 80Zm0-60-.707-.707A1 1 0 0 0-1 20h1ZM20 0v-1a1 1 0 0 0-.707.293L20 0Zm40 1a1 1 0 1 0 0-2v2Zm0 98H20v2h40v-2Zm-39.293.293-20-20-1.414 1.414 20 20 1.414-1.414ZM1 80V20h-2v60h2ZM.707 20.707l20-20-1.414-1.414-20 20 1.414 1.414ZM20 1h40v-2H20v2Z"/><path id="d" d="M12.5 0v-12.5h-25V0h25Zm-25 170v12.5h25V170h-25Zm0-170v170h25V0h-25Z"/><path id="e" d="M20 0v-12.5a12.5 12.5 0 0 0-8.839 3.661L20 0Zm30 0 8.839-8.839A12.5 12.5 0 0 0 50-12.5V0Zm20 20h12.5a12.5 12.5 0 0 0-3.661-8.839L70 20Zm0 60 8.839 8.839A12.5 12.5 0 0 0 82.5 80H70Zm-20 20v12.5a12.5 12.5 0 0 0 8.839-3.661L50 100Zm-30 0-8.839 8.839A12.5 12.5 0 0 0 20 112.5V100ZM8.839 28.839l20-20L11.16-8.84l-20 20L8.84 28.84ZM20 12.5h30v-25H20v25Zm21.161-3.661 20 20L78.84 11.16l-20-20L41.16 8.84ZM57.5 20v60h25V20h-25Zm3.661 51.161-20 20L58.84 108.84l20-20L61.16 71.16ZM50 87.5H20v25h30v-25Zm-21.161 3.661-20-20L-8.84 88.84l20 20L28.84 91.161Z"/><path id="f" d="M1 0a1 1 0 1 0-2 0h2Zm-2 170a1 1 0 0 0 2 0h-2ZM-1 0v170h2V0h-2Z"/><path id="g" d="M-.707 19.293a1 1 0 1 0 1.414 1.414l-1.414-1.414ZM20 0v-1a1 1 0 0 0-.707.293L20 0Zm30 0 .707-.707A1 1 0 0 0 50-1v1Zm20 20h1a1 1 0 0 0-.293-.707L70 20Zm0 60 .707.707A1 1 0 0 0 71 80h-1Zm-20 20v1c.265 0 .52-.105.707-.293L50 100Zm-30 0-.707.707A.998.998 0 0 0 20 101v-1ZM.707 79.293a1 1 0 0 0-1.414 1.414l1.414-1.414Zm0-58.586 20-20-1.414-1.414-20 20 1.414 1.414ZM20 1h30v-2H20v2ZM49.293.707l20 20 1.414-1.414-20-20L49.293.707ZM69 20v60h2V20h-2Zm.293 59.293-20 20 1.414 1.414 20-20-1.414-1.414ZM50 99H20v2h30v-2Zm-29.293.293-20-20-1.414 1.414 20 20 1.414-1.414Z"/><path id="h" d="M12.5 0v-12.5h-25V0h25ZM0 130h-12.5a12.5 12.5 0 0 0 3.661 8.839L0 130Zm20 20-8.839 8.839A12.5 12.5 0 0 0 20 162.5V150Zm20 12.5h12.5v-25H40v25ZM-12.5 0v130h25V0h-25Zm3.661 138.839 20 20 17.678-17.678-20-20-17.678 17.678ZM20 162.5h20v-25H20v25Z"/><path id="i" d="M0-12.5h-12.5v25H0v-25Zm40 25h12.5v-25H40v25Zm-40 0h40v-25H0v25Z"/><path id="j" d="M1 0a1 1 0 1 0-2 0h2ZM0 130h-1a1 1 0 0 0 .293.707L0 130Zm20 20-.707.707A.998.998 0 0 0 20 151v-1Zm20 1a1 1 0 0 0 0-2v2ZM-1 0v130h2V0h-2Zm.293 130.707 20 20 1.414-1.414-20-20-1.414 1.414ZM20 151h20v-2H20v2Z"/><path id="k" d="M0-1a1 1 0 1 0 0 2v-2Zm40 2a1 1 0 1 0 0-2v2ZM0 1h40v-2H0v2Z"/><path id="l" d="M0-12.5h-12.5v25H0v-25Zm160 25h12.5v-25H160v25Zm-160 0h160v-25H0v25Z"/><path id="m" d="M112.5 0v-12.5h-25V0h25ZM100 200.114l8.749 8.927a12.499 12.499 0 0 0 3.751-8.927H100Zm-20 19.601.06 12.5a12.5 12.5 0 0 0 8.69-3.573L80 219.715ZM20 220l-8.813 8.864a12.5 12.5 0 0 0 8.872 3.636L20 220ZM8.814 191.25l-8.865-8.814-17.627 17.729 8.864 8.813L8.814 191.25ZM87.5 0v200.114h25V0h-25Zm3.75 191.187-20 19.601 17.5 17.854 19.999-19.601-17.498-17.854Zm-11.31 16.028-60 .285.12 25 60-.285-.12-25Zm-51.126 3.921-20-19.886-17.628 17.728 20 19.886 17.628-17.728Z"/><path id="n" d="M0-1a1 1 0 1 0 0 2v-2Zm160 2a1 1 0 0 0 0-2v2ZM0 1h160v-2H0v2Z"/><path id="o" d="M101 0a1 1 0 0 0-2 0h2Zm-1 200.114.7.714a.999.999 0 0 0 .3-.714h-1Zm-20 19.601.005 1a1 1 0 0 0 .695-.286l-.7-.714ZM20 220l-.705.709a1 1 0 0 0 .71.291L20 220ZM.705 199.405a1 1 0 1 0-1.41 1.418l1.41-1.418ZM99 0v200.114h2V0h-2Zm.3 199.4-20 19.601 1.4 1.428 20-19.601-1.4-1.428Zm-19.305 19.315-60 .285.01 2 60-.285-.01-2Zm-59.29.576-20-19.886-1.41 1.418 20 19.886 1.41-1.418Z"/><path id="p" d="m0 20-8.839-8.839A12.5 12.5 0 0 0-12.5 20H0ZM20 0v-12.5a12.5 12.5 0 0 0-8.839 3.661L20 0Zm40 0 8.839-8.839A12.5 12.5 0 0 0 60-12.5V0Zm20 20h12.5a12.5 12.5 0 0 0-3.661-8.839L80 20Zm0 60 8.839 8.839A12.5 12.5 0 0 0 92.5 80H80Zm-20 20v12.5a12.5 12.5 0 0 0 8.839-3.661L60 100Zm-40 0-8.839 8.839A12.5 12.5 0 0 0 20 112.5V100ZM0 80h-12.5a12.5 12.5 0 0 0 3.661 8.839L0 80Zm8.839-51.161 20-20L11.16-8.84l-20 20L8.84 28.84ZM20 12.5h40v-25H20v25Zm31.161-3.661 20 20L88.84 11.16l-20-20L51.16 8.84ZM67.5 20v60h25V20h-25Zm3.661 51.161-20 20L68.84 108.84l20-20L71.16 71.16ZM60 87.5H20v25h40v-25Zm-31.161 3.661-20-20L-8.84 88.84l20 20L28.84 91.161ZM12.5 80V20h-25v60h25Z"/><path id="q" d="M12.5 0v-12.5h-25V0h25Zm-25 100v12.5h25V100h-25Zm0-100v100h25V0h-25Z"/><path id="r" d="m0 20-.707-.707A1 1 0 0 0-1 20h1ZM20 0v-1a1 1 0 0 0-.707.293L20 0Zm40 0 .707-.707A1 1 0 0 0 60-1v1Zm20 20h1a1 1 0 0 0-.293-.707L80 20Zm0 60 .707.707A1 1 0 0 0 81 80h-1Zm-20 20v1c.265 0 .52-.105.707-.293L60 100Zm-40 0-.707.707A.998.998 0 0 0 20 101v-1ZM0 80h-1a1 1 0 0 0 .293.707L0 80Zm.707-59.293 20-20-1.414-1.414-20 20 1.414 1.414ZM20 1h40v-2H20v2ZM59.293.707l20 20 1.414-1.414-20-20L59.293.707ZM79 20v60h2V20h-2Zm.293 59.293-20 20 1.414 1.414 20-20-1.414-1.414ZM60 99H20v2h40v-2Zm-39.293.293-20-20-1.414 1.414 20 20 1.414-1.414ZM1 80V20h-2v60h2Z"/><path id="s" d="M1 0a1 1 0 1 0-2 0h2Zm-2 100a1 1 0 0 0 2 0h-2ZM-1 0v100h2V0h-2Z"/><path id="t" d="M11.606-4.642 6.964-16.248l-23.212 9.284 4.642 11.606 23.212-9.284ZM40 100l-11.606 4.642a12.5 12.5 0 0 0 23.212 0L40 100ZM91.606 4.642l4.642-11.606-23.212-9.284-4.642 11.606 23.212 9.284Zm-103.212 0 40 100 23.212-9.284-40-100-23.212 9.284Zm63.212 100 40-100-23.212-9.284-40 100 23.212 9.284Z"/><path id="u" d="M.928-.371A1 1 0 0 0-.928.37L.928-.37ZM40 100l-.928.371a1 1 0 0 0 1.856 0L40 100ZM80.928.371a1 1 0 0 0-1.856-.742l1.856.742Zm-81.856 0 40 100 1.856-.742-40-100L-.928.37Zm41.856 100 40-100-1.856-.742-40 100 1.856.742Z"/><path id="v" d="M7.5 100v12.5h25V100h-25ZM20 0h12.5c0-6.904-5.596-12.5-12.5-12.5V0ZM0-12.5h-12.5v25H0v-25ZM32.5 100V0h-25v100h25ZM20-12.5H0v25h20v-25Z"/><path id="w" d="M-12.5 1v12.5h25V1h-25Zm25-1v-12.5h-25V0h25Zm0 1V0h-25v1h25Z"/><path id="x" d="M19 100a1 1 0 0 0 2 0h-2ZM20 0h1a1 1 0 0 0-1-1v1ZM0-1a1 1 0 1 0 0 2v-2Zm21 101V0h-2v100h2ZM20-1H0v2h20v-2Z"/><path id="y" d="M-1 1a1 1 0 0 0 2 0h-2Zm2-1a1 1 0 1 0-2 0h2Zm0 1V0h-2v1h2Z"/><path id="z" d="M91.161 28.839 100 37.678 117.678 20l-8.839-8.839L91.161 28.84ZM80 0l8.839-8.839A12.5 12.5 0 0 0 80-12.5V0ZM20 0v-12.5a12.5 12.5 0 0 0-8.839 3.661L20 0ZM0 20l-8.839-8.839A12.5 12.5 0 0 0-12.5 20H0Zm0 70h-12.5a12.5 12.5 0 0 0 3.661 8.839L0 90Zm20 20-8.839 8.839A12.5 12.5 0 0 0 20 122.5V110Zm60 0 8.839-8.839A12.5 12.5 0 0 0 80 97.5V110Zm20 20h12.5c0-3.315-1.317-6.495-3.661-8.839L100 130Zm0 70 8.839 8.839A12.501 12.501 0 0 0 112.5 200H100Zm-20 20v12.5a12.5 12.5 0 0 0 8.839-3.661L80 220Zm-60 0-8.839 8.839A12.5 12.5 0 0 0 20 232.5V220ZM8.839 191.161 0 182.322-17.678 200l8.84 8.839 17.677-17.678Zm100-180-20-20L71.16 8.84l20 20L108.84 11.16ZM80-12.5H20v25h60v-25ZM11.161-8.839l-20 20L8.84 28.84l20-20L11.16-8.84ZM-12.5 20v70h25V20h-25Zm3.661 78.839 20 20 17.678-17.678-20-20L-8.84 98.84ZM20 122.5h60v-25H20v25Zm51.161-3.661 20 20 17.678-17.678-20-20-17.678 17.678ZM87.5 130v70h25v-70h-25Zm3.661 61.161-20 20 17.678 17.678 20-20-17.678-17.678ZM80 207.5H20v25h60v-25Zm-51.161 3.661-20-20-17.678 17.678 20 20 17.678-17.678Z"/><path id="A" d="M99.293 20.707a1 1 0 1 0 1.414-1.414l-1.414 1.414ZM80 0l.707-.707A1 1 0 0 0 80-1v1ZM20 0v-1a1 1 0 0 0-.707.293L20 0ZM0 20l-.707-.707A1 1 0 0 0-1 20h1Zm0 70h-1a1 1 0 0 0 .293.707L0 90Zm20 20-.707.707A.998.998 0 0 0 20 111v-1Zm60 0 .707-.707A.998.998 0 0 0 80 109v1Zm20 20h1a.997.997 0 0 0-.293-.707L100 130Zm0 70 .707.707A.997.997 0 0 0 101 200h-1Zm-20 20v1c.265 0 .52-.105.707-.293L80 220Zm-60 0-.707.707A.998.998 0 0 0 20 221v-1ZM.707 199.293a1 1 0 1 0-1.414 1.414l1.414-1.414Zm100-180-20-20L79.293.707l20 20 1.414-1.414ZM80-1H20v2h60v-2Zm-60.707.293-20 20 1.414 1.414 20-20-1.414-1.414ZM-1 20v70h2V20h-2Zm.293 70.707 20 20 1.414-1.414-20-20-1.414 1.414ZM20 111h60v-2H20v2Zm59.293-.293 20 20 1.414-1.414-20-20-1.414 1.414ZM99 130v70h2v-70h-2Zm.293 69.293-20 20 1.414 1.414 20-20-1.414-1.414ZM80 219H20v2h60v-2Zm-59.293.293-20-20-1.414 1.414 20 20 1.414-1.414Z"/><path id="B" d="M1.919 3.838a1.919 1.919 0 1 0 0-3.838 1.919 1.919 0 0 0 0 3.838Z"/><path id="C" d="M45 125H20V25H0V0h32.5C39.403 0 45 5.597 45 12.5V125Z"/><path id="D" d="M5.964 50.178 0 20.786 17.125 3.661A12.5 12.5 0 0 1 25.964 0h32.5v25H31.142L5.964 50.178Z"/><path id="E" d="M65 0H0v25h65V0Z"/><path id="F" d="M-.707 19.293a1 1 0 1 0 1.414 1.414l-1.414-1.414ZM20 0v-1a1 1 0 0 0-.707.293L20 0Zm20 1a1 1 0 1 0 0-2v2ZM.707 20.707l20-20-1.414-1.414-20 20 1.414 1.414ZM20 1h20v-2H20v2Z"/><path id="G" d="M-4.39 107.606a5 5 0 0 0 1.996 6.783 4.999 4.999 0 0 0 6.783-1.995l-8.778-4.788ZM60 0l4.39-2.394a5 5 0 0 0-8.78 0L60 0Zm55.611 112.394a4.998 4.998 0 0 0 6.783 1.995 4.998 4.998 0 0 0 1.995-6.783l-8.778 4.788Zm-111.222 0 60-110-8.778-4.788-60 110 8.778 4.788Zm51.221-110 60.001 110 8.778-4.788-60-110-8.778 4.788Z"/><path id="H" d="M0-5A5 5 0 0 0 0 5V-5ZM72 5a5 5 0 0 0 0-10V5ZM0 5h72V-5H0V5Z"/><path id="I" d="M90 5a5 5 0 0 0 0-10V5ZM0 115a5 5 0 0 0 0 10v-10ZM90 0v-5H20V5h69.999L90 0ZM20-5C13.374-5 7.166-1.737 2.714 2.714-1.737 7.166-5 13.374-5 20H5c0-3.374 1.737-7.166 4.786-10.214C12.834 6.737 16.626 5 20 5V-5ZM-5 20v20H5V20H-5Zm0 20c0 6.626 3.263 12.834 7.714 17.285C7.166 61.737 13.374 65 20 65V55c-3.374 0-7.166-1.737-10.214-4.785C6.737 47.166 5 43.373 5 40H-5Zm25 25h50V55H20v10Zm50 0c3.374 0 7.166 1.737 10.215 4.785C83.263 72.835 85 76.626 85 80h10c0-6.626-3.263-12.834-7.715-17.285C82.835 58.263 76.626 55 70 55v10Zm15 15v20h10V80H85Zm0 20c0 3.374-1.737 7.166-4.785 10.214C77.165 113.263 73.374 115 70 115v10c6.626 0 12.834-3.263 17.285-7.714C91.737 112.834 95 106.626 95 100H85Zm-15 15H.001L0 120v5h70v-10Z"/><path id="J" d="M0-5A5 5 0 0 0 0 5V-5ZM100 5a5 5 0 0 0 0-10V5ZM0 5h100V-5H0V5Z"/><path id="K" d="M5 0A5 5 0 0 0-5 0H5ZM-5 140a5 5 0 0 0 10 0H-5ZM-5 0v140H5V0H-5Z"/><path id="L" d="M0-5A5 5 0 0 0 0 5V-5ZM90 5a5 5 0 0 0 0-10V5ZM0 5h90V-5H0V5Z"/><path id="M" d="M0-5A5 5 0 0 0 0 5V-5ZM70 5a5 5 0 0 0 0-10V5ZM0 5h70V-5H0V5Z"/><path id="N" d="M5 0A5 5 0 0 0-5 0H5ZM-5 120a5 5 0 0 0 10 0H-5ZM-5 0v120H5V0H-5Z"/><path id="Q" d="M1.414-1.414a2 2 0 1 0-2.828 2.828l2.828-2.828ZM75.69 78.518a2 2 0 1 0 2.828-2.828l-2.828 2.828ZM-1.414 1.414 75.69 78.518l2.828-2.828L1.414-1.414l-2.828 2.828Z"/><path id="T" d="M78.518 1.414a2 2 0 0 0-2.828-2.828l2.828 2.828ZM-1.414 75.69a2 2 0 1 0 2.828 2.828l-2.828-2.828ZM75.69-1.414-1.414 75.69l2.828 2.828L78.518 1.414 75.69-1.414Z"/><path id="U" d="M0 44.733c0-4.713.919-8.952 2.757-12.717 1.868-3.765 4.447-6.67 7.737-8.716 3.32-2.045 7.1-3.068 11.34-3.068 6.55 0 11.842 2.268 15.874 6.804 4.06 4.535 6.092 10.568 6.092 18.097v.579c0 4.683-.905 8.893-2.713 12.628-1.779 3.706-4.343 6.596-7.693 8.671-3.32 2.075-7.144 3.113-11.472 3.113-6.522 0-11.813-2.268-15.875-6.804C2.016 58.785 0 52.782 0 45.311v-.578Zm8.27.979c0 5.335 1.231 9.62 3.691 12.85 2.49 3.232 5.81 4.847 9.961 4.847 4.18 0 7.5-1.63 9.96-4.891 2.461-3.29 3.691-7.886 3.691-13.785 0-5.276-1.26-9.545-3.78-12.806-2.49-3.29-5.81-4.936-9.96-4.936-4.061 0-7.337 1.616-9.827 4.847-2.49 3.231-3.735 7.856-3.735 13.874Z"/><path id="V" d="M58.162 69.234V27.48h-7.604v-6.358h7.604v-4.936c0-5.158 1.379-9.145 4.136-11.962C65.055 1.408 68.953 0 73.992 0c1.897 0 3.78.252 5.647.756l-.444 6.67a23.625 23.625 0 0 0-4.447-.4c-2.668 0-4.728.785-6.18 2.356-1.453 1.542-2.18 3.765-2.18 6.67v5.07H76.66v6.358H66.388v41.754h-8.226Z"/><path id="W" d="M16.986 8.538v11.65h8.982v6.359h-8.982v29.836c0 1.927.4 3.38 1.2 4.358.801.949 2.165 1.423 4.092 1.423.948 0 2.253-.178 3.913-.533v6.67c-2.164.592-4.269.889-6.314.889-3.676 0-6.448-1.112-8.316-3.335-1.867-2.223-2.801-5.38-2.801-9.472V26.546H0v-6.358h8.76V8.538h8.226Z"/><path id="X" d="M43.844 26.013c3.646-4.476 8.39-6.715 14.23-6.715 10.167 0 15.296 5.737 15.385 17.209v31.794h-8.227V36.462c-.03-3.468-.83-6.032-2.4-7.692-1.542-1.66-3.958-2.49-7.249-2.49-2.668 0-5.01.711-7.026 2.134-2.015 1.423-3.587 3.29-4.713 5.603V68.3h-8.226V0h8.226v26.013Z"/><path id="Y" d="M105.741 69.19c-6.521 0-11.828-2.135-15.919-6.403-4.09-4.299-6.136-10.035-6.136-17.209v-1.512c0-4.772.904-9.026 2.712-12.762 1.838-3.764 4.388-6.7 7.649-8.804 3.29-2.134 6.847-3.201 10.672-3.201 6.255 0 11.116 2.06 14.585 6.18 3.468 4.12 5.202 10.02 5.202 17.698v3.424H91.912c.119 4.743 1.497 8.582 4.136 11.517 2.668 2.905 6.047 4.357 10.138 4.357 2.905 0 5.366-.593 7.381-1.778 2.016-1.186 3.78-2.757 5.292-4.714l5.025 3.913c-4.032 6.196-10.079 9.294-18.143 9.294Zm-1.022-43.133c-3.321 0-6.107 1.216-8.36 3.647-2.253 2.4-3.646 5.78-4.18 10.138h24.101v-.623c-.237-4.18-1.364-7.41-3.38-9.693-2.015-2.313-4.743-3.469-8.181-3.469Z"/><path id="Z" d="M-5 20v50H5V20H-5Zm0 50c0 5 .008 9.026.343 12.115.346 3.117 1.132 6.431 3.621 8.92 2.49 2.49 5.804 3.276 8.921 3.622C10.973 94.992 15 95 20 95V85c-5 0-8.473.008-11.01-.282-2.508-.279-2.944-.743-2.954-.754-.011-.01-.475-.446-.754-2.954C4.992 78.473 5 75 5 70H-5Zm25 25h30V85H20v10Zm30 0c5 0 9.026-.008 12.115-.343 3.117-.346 6.431-1.132 8.92-3.621 2.49-2.49 3.276-5.804 3.622-8.921C74.992 79.027 75 75 75 70H65c0 5 .008 8.474-.282 11.01-.279 2.508-.743 2.944-.754 2.954-.01.011-.446.475-2.954.754C58.474 85.008 55 85 50 85v10Zm25-25V20H65v50h10Zm0-50c0-5-.008-9.027-.343-12.115-.346-3.117-1.132-6.431-3.621-8.92-2.49-2.49-5.804-3.276-8.921-3.622C59.026-4.992 55-5 50-5V5c5 0 8.474-.008 11.01.282 2.508.279 2.944.743 2.955.754.01.01.474.446.753 2.954C65.008 11.527 65 15 65 20h10ZM50-5H19.75V5H50V-5ZM19.75-5c-4.938 0-8.92.008-11.977.344-3.093.348-6.39 1.14-8.862 3.643-2.46 2.49-3.232 5.797-3.573 8.905C-4.992 10.977-5 15-5 20H5c0-5-.007-8.477.279-11.017.276-2.517.738-2.96.747-2.97.16-.215-.004-.1.508-.26.608-.237 1.186-.345 2.357-.472C11.39 4.992 14.812 5 19.75 5V-5Z"/><path id="aa" d="M-5 90a5 5 0 0 0 10 0H-5ZM5 0A5 5 0 0 0-5 0H5Zm0 90V0H-5v90H5Z"/><path id="ab" d="M70 145a5 5 0 0 0 0-10v10Zm-70-5h-5a5 5 0 0 0 5 5v-5ZM-5 20a5 5 0 0 0 10 0H-5Zm75 115H20v10h50v-10Zm-50 0H0v10h20v-10Zm-20 5h5V90H-5V140h5Zm5-50c0-5.432.163-8.73 1.66-10.977C7.786 77.337 10.66 75 20 75V65C9.34 65 2.214 67.664-1.66 73.477-5.163 78.73-5 85.431-5 90H5Zm15-15h30V65H20v10Zm30 0c5 0 9.026-.008 12.115-.343 3.117-.346 6.431-1.132 8.92-3.621 2.49-2.49 3.276-5.804 3.622-8.921C74.992 59.026 75 55 75 50H65c0 5 .008 8.474-.282 11.01-.279 2.508-.743 2.944-.754 2.955-.01.01-.446.474-2.954.753C58.474 65.008 55 65 50 65v10Zm25-25V20H65v30h10Zm0-30c0-5-.008-9.027-.343-12.115-.346-3.117-1.132-6.431-3.621-8.92-2.49-2.49-5.804-3.276-8.921-3.622C59.026-4.992 55-5 50-5V5c5 0 8.474-.008 11.01.282 2.508.279 2.944.743 2.955.754.01.01.474.446.753 2.954C65.008 11.527 65 15 65 20h10ZM50-5H20V5h30V-5ZM20-5c-5 0-9.027.008-12.115.343-3.117.346-6.431 1.132-8.92 3.621-2.49 2.49-3.276 5.804-3.622 8.921C-4.992 10.973-5 15-5 20H5c0-5-.008-8.473.282-11.01.279-2.508.743-2.944.754-2.954.01-.011.446-.475 2.954-.754C11.527 4.992 15 5 20 5V-5Z"/><path id="ac" d="M-2 20v50h4V20h-4Zm0 50c0 5 .003 8.86.325 11.783.326 2.935 1.015 5.386 2.76 7.131 1.746 1.746 4.197 2.435 7.132 2.761C11.139 91.997 15 92 20 92v-4c-5 0-8.64.003-11.342-.3-2.69-.3-3.99-.86-4.744-1.614C3.16 85.33 2.6 84.032 2.3 81.342 1.997 78.639 2 75 2 70h-4Zm22 22h30v-4H20v4Zm30 0c5 0 8.86-.003 11.783-.325 2.935-.326 5.386-1.015 7.131-2.76 1.746-1.746 2.435-4.197 2.761-7.132C71.997 78.861 72 75 72 70h-4c0 5 .003 8.64-.3 11.342-.3 2.69-.86 3.99-1.614 4.744-.755.754-2.054 1.315-4.744 1.614C58.639 88.003 55 88 50 88v4Zm22-22V20h-4v50h4Zm0-50c0-5-.003-8.86-.325-11.783-.326-2.935-1.015-5.386-2.76-7.131-1.746-1.746-4.197-2.435-7.132-2.761C58.861-1.997 55-2 50-2v4c5 0 8.64-.003 11.342.3 2.69.3 3.99.86 4.744 1.614.754.755 1.315 2.054 1.614 4.744C68.003 11.361 68 15 68 20h4ZM50-2H19.75v4H50v-4ZM19.75-2c-4.938 0-8.753.003-11.642.325-2.903.327-5.333 1.018-7.062 2.77C-.68 2.84-1.358 5.289-1.68 8.219-1.997 11.141-2 15-2 20h4c0-5-.003-8.64.297-11.344.295-2.695.85-3.997 1.595-4.75.74-.75 2.012-1.308 4.664-1.606C11.22 1.997 14.813 2 19.75 2v-4Z"/><path id="ad" d="M-2 90a2 2 0 1 0 4 0h-4ZM2 0a2 2 0 1 0-4 0h4Zm0 90V0h-4v90h4Z"/><path id="ae" d="M70 142a2 2 0 1 0 0-4v4Zm-70-2h-2a2 2 0 0 0 2 2v-2ZM-2 20a2 2 0 1 0 4 0h-4Zm72 118H20v4h50v-4Zm-50 0H0v4h20v-4Zm-20 2h2V90h-4V140h2Zm2-50c0-5.173.065-9.492 2.164-12.64C6.114 74.433 10.264 72 20 72v-4C9.736 68 3.886 70.566.836 75.14-2.065 79.493-2 85.174-2 90h4Zm18-18h30v-4H20v4Zm30 0c5 0 8.86-.003 11.783-.325 2.935-.326 5.386-1.015 7.131-2.76 1.746-1.746 2.435-4.197 2.761-7.132C71.997 58.861 72 55 72 50h-4c0 5 .003 8.64-.3 11.342-.3 2.69-.86 3.99-1.614 4.744-.755.754-2.054 1.315-4.744 1.614C58.639 68.003 55 68 50 68v4Zm22-22V20h-4v30h4Zm0-30c0-5-.003-8.86-.325-11.783-.326-2.935-1.015-5.386-2.76-7.131-1.746-1.746-4.197-2.435-7.132-2.761C58.861-1.997 55-2 50-2v4c5 0 8.64-.003 11.342.3 2.69.3 3.99.86 4.744 1.614.754.755 1.315 2.054 1.614 4.744C68.003 11.361 68 15 68 20h4ZM50-2H20v4h30v-4ZM20-2c-5 0-8.86.003-11.783.325C5.282-1.35 2.83-.66 1.086 1.085-.66 2.832-1.35 5.283-1.675 8.218-1.997 11.139-2 15-2 20h4c0-5-.003-8.64.3-11.342.3-2.69.86-3.99 1.614-4.744C4.67 3.16 5.968 2.6 8.658 2.3 11.361 1.997 15 2 20 2v-4Z"/><path id="af" d="M-5 20a5 5 0 0 0 10 0H-5Zm70 120a5 5 0 0 0 10 0H65ZM5 20c0-5-.008-8.473.282-11.01.279-2.508.743-2.944.754-2.954.01-.011.446-.475 2.954-.754C11.527 4.992 15 5 20 5V-5c-5 0-9.027.008-12.115.343-3.117.346-6.431 1.132-8.92 3.621-2.49 2.49-3.276 5.804-3.622 8.921C-4.992 10.973-5 15-5 20H5ZM20 5h30V-5H20V5Zm30 0c5 0 8.474-.008 11.01.282 2.508.279 2.944.743 2.955.754.01.01.474.446.753 2.954C65.008 11.527 65 15 65 20h10c0-5-.008-9.027-.343-12.115-.346-3.117-1.132-6.431-3.621-8.92-2.49-2.49-5.804-3.276-8.921-3.622C59.026-4.992 55-5 50-5V5Zm15 15V139.999l5 .001 5-.001V20H65Z"/><use xlink:href="#O"/><use xlink:href="#P"/><use xlink:href="#O" id="R"/><use xlink:href="#P" id="S"/></defs></svg>
