<svg xmlns="http://www.w3.org/2000/svg" fill="none" viewBox="0 0 870 147"><path fill="#fff" d="M3.11 144V42.437h16.992V144H3.109Zm8.495-118.75c-2.93 0-5.436-1.042-7.52-3.125-2.082-2.083-3.124-4.59-3.124-7.52 0-2.994 1.042-5.5 3.125-7.52 2.083-2.082 4.59-3.124 7.52-3.124 2.994 0 5.5 1.042 7.519 3.125 2.083 2.018 3.125 4.525 3.125 7.52 0 2.93-1.042 5.436-3.125 7.519-2.018 2.083-4.525 3.125-7.52 3.125Zm43.067 68.457V78.082h36.914c10.091 0 17.904-2.604 23.437-7.813 5.534-5.273 8.301-12.532 8.301-21.777v-.195c0-9.31-2.767-16.57-8.301-21.777-5.533-5.209-13.346-7.813-23.437-7.813H54.672V3.082h41.406c8.854 0 16.667 1.888 23.438 5.664 6.77 3.776 12.076 9.05 15.918 15.82 3.906 6.771 5.859 14.616 5.859 23.536v.195c0 8.92-1.953 16.797-5.859 23.633-3.842 6.836-9.148 12.174-15.918 16.015-6.771 3.842-14.584 5.762-23.438 5.762H54.672ZM45.882 144V3.082h17.579V144H45.883Zm113.868 0V3.082h16.992v55.566h.391c2.734-5.729 6.803-10.188 12.207-13.379 5.403-3.19 11.881-4.785 19.433-4.785 7.227 0 13.542 1.758 18.946 5.274 5.469 3.45 9.733 8.268 12.793 14.453 3.06 6.185 4.59 13.379 4.59 21.582V144h-16.993V84.723c0-9.18-2.213-16.341-6.64-21.485-4.427-5.143-10.612-7.715-18.555-7.715-5.208 0-9.798 1.237-13.769 3.711-3.907 2.474-6.967 5.892-9.18 10.254-2.149 4.362-3.223 9.44-3.223 15.235V144H159.75Zm149.023 1.953c-9.375 0-17.61-2.148-24.707-6.445-7.031-4.297-12.532-10.384-16.504-18.262-3.906-7.943-5.859-17.285-5.859-28.027v-.196c0-10.807 1.953-20.117 5.859-27.93 3.972-7.877 9.473-13.932 16.504-18.163 7.097-4.297 15.3-6.446 24.61-6.446 9.375 0 17.578 2.149 24.609 6.446 7.097 4.231 12.598 10.286 16.504 18.164 3.971 7.812 5.957 17.122 5.957 27.93v.195c0 10.807-1.986 20.149-5.957 28.027-3.906 7.878-9.375 13.965-16.406 18.262-7.031 4.297-15.235 6.445-24.61 6.445Zm.098-15.039c5.99 0 11.165-1.465 15.527-4.394 4.428-2.995 7.845-7.292 10.254-12.891 2.474-5.664 3.711-12.468 3.711-20.41v-.196c0-7.942-1.237-14.713-3.711-20.312-2.409-5.599-5.859-9.863-10.351-12.793-4.427-2.93-9.636-4.395-15.625-4.395-5.86 0-11.035 1.498-15.528 4.493-4.427 2.93-7.877 7.194-10.351 12.793-2.474 5.533-3.711 12.272-3.711 20.214v.196c0 7.942 1.237 14.746 3.711 20.41 2.474 5.599 5.924 9.896 10.351 12.891 4.493 2.929 9.734 4.394 15.723 4.394ZM372.934 144V42.437h16.992v14.454h.39c2.735-4.753 6.706-8.66 11.914-11.72 5.209-3.124 11.654-4.687 19.336-4.687 11.133 0 19.76 3.386 25.879 10.157 6.185 6.705 9.278 15.852 9.278 27.441V144H439.73V81.11c0-8.269-1.953-14.584-5.859-18.946-3.841-4.427-9.668-6.64-17.48-6.64-5.339 0-9.994 1.204-13.965 3.613-3.972 2.343-7.064 5.664-9.278 9.96-2.148 4.297-3.222 9.343-3.222 15.137V144h-16.992Zm147.265 1.953c-9.7 0-18.066-2.148-25.097-6.445-6.967-4.297-12.338-10.352-16.114-18.164-3.711-7.878-5.566-17.123-5.566-27.735v-.097c0-10.482 1.888-19.694 5.664-27.637 3.776-8.008 9.082-14.225 15.918-18.652 6.836-4.492 14.876-6.739 24.121-6.739s17.187 2.149 23.828 6.446c6.706 4.231 11.849 10.188 15.43 17.87 3.581 7.683 5.371 16.602 5.371 26.759v6.25h-81.836V84.527h73.437l-8.593 12.305v-6.543c0-7.877-1.205-14.388-3.614-19.531-2.343-5.143-5.599-8.952-9.765-11.426-4.167-2.539-8.952-3.809-14.356-3.809-5.403 0-10.254 1.335-14.55 4.004-4.297 2.605-7.683 6.51-10.157 11.72-2.474 5.142-3.711 11.49-3.711 19.042v6.543c0 7.161 1.205 13.281 3.614 18.359 2.474 5.079 5.957 8.985 10.449 11.719 4.492 2.669 9.798 4.004 15.918 4.004 4.297 0 8.138-.651 11.523-1.953 3.386-1.302 6.218-3.093 8.496-5.371 2.279-2.279 3.907-4.883 4.883-7.813l.293-.879h16.699l-.195.977c-.846 4.167-2.474 8.073-4.883 11.719-2.344 3.646-5.371 6.868-9.082 9.668-3.711 2.734-7.942 4.883-12.695 6.445-4.753 1.497-9.896 2.246-15.43 2.246Zm163.965.391c-13.346 0-24.902-2.962-34.668-8.887-9.7-5.924-17.187-14.323-22.461-25.195-5.273-10.873-7.91-23.763-7.91-38.672v-.196c0-14.908 2.637-27.766 7.91-38.574 5.339-10.872 12.858-19.27 22.559-25.195 9.765-5.924 21.289-8.887 34.57-8.887 13.281 0 24.772 2.963 34.473 8.887 9.7 5.925 17.187 14.323 22.461 25.195 5.273 10.808 7.91 23.666 7.91 38.574v.196c0 14.909-2.637 27.799-7.91 38.672-5.274 10.872-12.761 19.271-22.461 25.195-9.636 5.925-21.127 8.887-34.473 8.887Zm0-16.211c9.701 0 18.034-2.311 25-6.934 7.031-4.687 12.435-11.263 16.211-19.726 3.776-8.464 5.664-18.425 5.664-29.883v-.196c0-11.523-1.921-21.516-5.762-29.98-3.776-8.464-9.179-14.974-16.211-19.531-7.031-4.623-15.332-6.934-24.902-6.934s-17.904 2.311-25 6.934c-7.031 4.557-12.467 11.067-16.309 19.531-3.841 8.398-5.761 18.392-5.761 29.98v.196c0 11.523 1.92 21.517 5.761 29.98 3.842 8.464 9.278 15.007 16.309 19.629 7.031 4.623 15.365 6.934 25 6.934Zm132.813 16.211c-10.157 0-19.109-1.563-26.856-4.688-7.682-3.19-13.802-7.715-18.359-13.574-4.492-5.859-7.032-12.793-7.617-20.801l-.098-1.367h17.578l.195 1.367c.716 4.688 2.637 8.757 5.762 12.207 3.125 3.386 7.259 6.022 12.402 7.91 5.209 1.823 11.198 2.735 17.969 2.735 6.771 0 12.63-.944 17.578-2.832 4.948-1.953 8.757-4.72 11.426-8.301 2.734-3.581 4.102-7.78 4.102-12.598v-.097c0-6.185-2.149-11.133-6.446-14.844-4.297-3.711-11.295-6.64-20.996-8.79l-15.625-3.417c-13.737-3.06-23.926-7.748-30.566-14.063-6.576-6.38-9.864-14.713-9.864-25v-.097c.066-7.748 2.214-14.551 6.446-20.41 4.232-5.925 10.058-10.547 17.48-13.868 7.487-3.385 16.048-5.078 25.684-5.078 9.18 0 17.383 1.66 24.609 4.98 7.227 3.256 12.989 7.813 17.285 13.673 4.362 5.859 6.804 12.63 7.325 20.312l.097 1.465H848.91l-.195-1.367c-.716-4.818-2.474-8.92-5.274-12.305-2.799-3.385-6.477-5.99-11.035-7.812-4.492-1.823-9.733-2.735-15.722-2.735-6.25 0-11.719.944-16.407 2.832-4.687 1.888-8.333 4.525-10.937 7.91-2.539 3.386-3.809 7.357-3.809 11.915v.097c0 5.73 2.181 10.45 6.543 14.16 4.362 3.711 11.133 6.576 20.313 8.594l15.625 3.418c9.635 2.083 17.448 4.85 23.437 8.3 6.055 3.451 10.482 7.748 13.281 12.891 2.865 5.078 4.297 11.198 4.297 18.36v.097c0 8.334-2.116 15.56-6.347 21.68-4.167 6.12-10.157 10.84-17.969 14.16-7.747 3.321-16.992 4.981-27.734 4.981Z"/></svg>