<svg xmlns="http://www.w3.org/2000/svg" viewBox="0 0 536 448">
  <path fill="none" d="M0 0h536v448H0zm268 224"/>
  <path fill="#00A651" stroke="#000" d="M137.999 117.08c8.96.645 17.598 1.602 26.558 1.602 8.638 0 17.603-.957 26.24-1.602 12.798 53.765 27.52 106.885 42.242 160.001 18.237-53.438 39.038-105.918 55.357-160.001 5.444.645 10.561.962 16.001.962 5.439 0 10.561-.317 16.001-.962 14.399 54.082 35.2 106.241 50.879 160.001 16.963-52.798 33.921-105.918 47.363-160.001 5.117.645 9.917.962 15.039.962 4.8 0 9.917-.317 14.717-.962-27.197 73.921-52.158 145.923-74.556 219.517-5.444-.64-10.884-1.597-16.001-1.597-5.44 0-10.879.957-16.323 1.597-14.399-53.433-32.637-104.956-51.196-156.153-17.92 50.879-36.802 101.119-55.362 156.153-5.439-.64-10.879-1.597-16.001-1.597-5.439 0-10.879.957-16.318 1.597-18.56-71.035-40.322-140.474-61.763-210.235l-2.877-9.282z"/>
  <path fill="#82CA9C" stroke="#000" d="M113.999 133.08c8.96.645 17.598 1.601 26.558 1.601 8.638 0 17.603-.957 26.24-1.601 12.798 53.765 27.52 106.885 42.242 160.001 18.237-53.438 39.038-105.919 55.357-160.001 5.444.645 10.561.962 16.001.962 5.439 0 10.561-.317 16.001-.962 14.399 54.082 35.2 106.241 50.879 160.001 16.963-52.798 33.921-105.919 47.364-160.001 5.117.645 9.917.962 15.039.962 4.8 0 9.917-.317 14.717-.962-27.197 73.921-52.159 145.923-74.556 219.517-5.444-.64-10.884-1.597-16.001-1.597-5.44 0-10.879.957-16.323 1.597-14.399-53.433-32.637-104.956-51.196-156.153-17.92 50.879-36.802 101.119-55.362 156.153-5.439-.64-10.879-1.597-16.001-1.597-5.439 0-10.879.957-16.318 1.597-18.56-71.035-40.322-140.474-61.763-210.235l-2.878-9.282z"/>
  <path fill="#fff" stroke="#000" d="M89.999 149.08c8.96.645 17.598 1.602 26.558 1.602 8.638 0 17.603-.957 26.24-1.602 12.798 53.765 27.52 106.885 42.242 160.001 18.237-53.438 39.038-105.919 55.357-160.001 5.444.645 10.562.962 16.001.962 5.439 0 10.561-.317 16.001-.962 14.399 54.082 35.2 106.241 50.879 160.001 16.963-52.798 33.921-105.919 47.363-160.001 5.117.645 9.917.962 15.039.962 4.8 0 9.917-.317 14.717-.962-27.197 73.921-52.158 145.923-74.556 219.517-5.444-.64-10.884-1.597-16.001-1.597-5.44 0-10.879.957-16.323 1.597-14.399-53.433-32.637-104.956-51.196-156.153-17.92 50.879-36.802 101.119-55.362 156.153-5.439-.64-10.879-1.597-16.001-1.597-5.439 0-10.879.957-16.318 1.597-18.56-71.035-40.322-140.474-61.763-210.235l-2.877-9.282z"/>
  <path fill="#fff" d="M113.456 394.45c1.075.077 2.112.192 3.187.192 1.037 0 2.112-.115 3.149-.192 1.536 6.451 3.302 12.826 5.069 19.2 2.188-6.413 4.685-12.71 6.643-19.2a16.06 16.06 0 0 0 3.84 0c1.728 6.49 4.224 12.749 6.105 19.2 2.036-6.336 4.071-12.71 5.684-19.2.614.077 1.19.116 1.805.116.576 0 1.19-.038 1.766-.116-3.264 8.871-6.259 17.511-8.947 26.342-.653-.077-1.306-.192-1.92-.192-.653 0-1.306.115-1.959.192-1.728-6.412-3.917-12.595-6.144-18.738-2.15 6.105-4.416 12.134-6.643 18.738-.653-.077-1.305-.192-1.92-.192-.653 0-1.305.115-1.958.192-2.227-8.524-4.839-16.857-7.412-25.228l-.345-1.114zm39.091 17.434c0-6.029 3.494-10.061 9.37-10.061 5.799 0 9.447 3.533 9.447 9.216 0 5.837-3.456 10.099-9.485 10.099-5.684 0-9.332-3.571-9.332-9.254zm5.683-.115c0 2.457.307 7.642 3.647 7.642 2.957-.077 3.802-4.762 3.802-8.986 0-3.725-.96-6.874-3.533-6.874-3.109 0-3.916 3.687-3.916 8.218zm16.973-9.6c.884.077 1.767.192 2.65.192.884 0 1.767-.115 2.65-.192v4.762c.807-2.803 2.496-5.108 6.26-5.108-.192 1.805-.308 3.571-.192 5.223l-.346.308c-.499-.346-1.343-.499-1.958-.499-1.69 0-3.072.883-3.533 2.534-.346 1.113-.231 3.226-.231 4.454v6.95c-.883-.077-1.766-.192-2.65-.192-.883 0-1.766.115-2.65.192v-18.624zm20.352 18.623c-.883-.077-1.767-.192-2.65-.192s-1.767.115-2.65.192v-29.183c.883.077 1.767.192 2.65.192s1.767-.115 2.65-.192v29.183zm21.811 0c-.844-.077-1.689-.192-2.534-.192-.883 0-1.728.115-2.573.192v-3.379c-.806 2.266-2.726 3.724-5.261 3.724-5.684 0-7.565-4.684-7.565-9.638 0-4.877 2.342-9.677 7.411-9.677 2.265 0 4.109.768 5.222 2.765v-12.979c.884.077 1.767.192 2.65.192.884 0 1.767-.115 2.65-.192v29.184zm-12.249-9.177c0 2.227.269 7.027 3.38 7.027 3.302 0 3.725-5.03 3.725-7.45 0-2.227-.346-6.874-3.418-6.874-3.303.001-3.687 4.878-3.687 7.297zm25.728-17.165c1.075.077 2.112.192 3.187.192 1.037 0 2.112-.115 3.149-.192 1.536 6.451 3.302 12.826 5.069 19.2 2.188-6.413 4.685-12.71 6.643-19.2a16.06 16.06 0 0 0 3.84 0c1.728 6.49 4.224 12.749 6.105 19.2 2.036-6.336 4.071-12.71 5.684-19.2.614.077 1.19.116 1.805.116.576 0 1.19-.038 1.766-.116-3.264 8.871-6.259 17.511-8.947 26.342-.653-.077-1.306-.192-1.92-.192-.653 0-1.305.115-1.959.192-1.728-6.412-3.916-12.595-6.144-18.738-2.15 6.105-4.416 12.134-6.643 18.738-.653-.077-1.305-.192-1.92-.192-.653 0-1.305.115-1.958.192-2.227-8.524-4.839-16.857-7.412-25.228l-.345-1.114zm40.512 7.719c.883.077 1.767.192 2.65.192s1.767-.115 2.65-.192v18.624c-.883-.077-1.767-.192-2.65-.192s-1.767.115-2.65.192v-18.624zm2.611-10.061c1.652 0 3.072 1.382 3.072 3.034 0 1.651-1.42 3.033-3.072 3.033-1.651 0-2.995-1.42-2.995-3.033s1.343-3.034 2.995-3.034zm24.499 28.684c-.844-.077-1.689-.192-2.534-.192-.883 0-1.728.115-2.573.192v-3.379c-.806 2.266-2.726 3.724-5.261 3.724-5.684 0-7.565-4.684-7.565-9.638 0-4.877 2.343-9.677 7.412-9.677 2.265 0 4.109.768 5.222 2.765v-12.979c.884.077 1.767.192 2.65.192.884 0 1.767-.115 2.65-.192v29.184zm-12.25-9.177c0 2.227.269 7.027 3.38 7.027 3.302 0 3.725-5.03 3.725-7.45 0-2.227-.346-6.874-3.418-6.874-3.302.001-3.687 4.878-3.687 7.297zm21.505-.115c-.115 3.956 1.267 7.143 5.337 7.143 1.574 0 3.302-.73 4.493-1.728l.461.346-.845 2.15c-1.536 1.075-3.609 1.727-5.491 1.727-6.374 0-9.639-3.84-9.639-10.099 0-5.376 3.226-9.216 8.794-9.216 6.029 0 8.295 4.186 7.872 9.677h-10.982zm5.683-1.843c0-2.036-.23-6.106-2.534-6.106-2.804 0-3.072 4.07-3.149 6.106h5.683zm17.741-15.207c1.075.077 2.112.192 3.187.192 1.037 0 2.112-.115 3.149-.192 1.536 6.451 3.302 12.826 5.069 19.2 2.189-6.413 4.685-12.71 6.643-19.2a16.06 16.06 0 0 0 3.84 0c1.728 6.49 4.224 12.749 6.105 19.2 2.036-6.336 4.07-12.71 5.684-19.2.614.077 1.19.116 1.805.116.576 0 1.19-.038 1.766-.116-3.264 8.871-6.259 17.511-8.947 26.342-.653-.077-1.306-.192-1.92-.192-.653 0-1.306.115-1.959.192-1.728-6.412-3.917-12.595-6.144-18.738-2.15 6.105-4.416 12.134-6.643 18.738-.653-.077-1.305-.192-1.92-.192-.653 0-1.306.115-1.958.192-2.227-8.524-4.839-16.857-7.411-25.228l-.346-1.114zm44.851 17.05c-.115 3.956 1.267 7.143 5.337 7.143 1.574 0 3.302-.73 4.493-1.728l.461.346-.845 2.15c-1.536 1.075-3.609 1.727-5.491 1.727-6.374 0-9.639-3.84-9.639-10.099 0-5.376 3.226-9.216 8.794-9.216 6.029 0 8.295 4.186 7.872 9.677h-10.982zm5.683-1.843c0-2.036-.23-6.106-2.534-6.106-2.804 0-3.072 4.07-3.149 6.106h5.683zm8.563-18.048c.884.077 1.767.192 2.65.192.884 0 1.767-.115 2.65-.192v13.248c.998-1.882 2.995-3.034 5.146-3.034 5.03 0 7.565 4.493 7.565 9.024 0 2.458-.538 5.376-2.189 7.296-1.651 1.958-3.916 2.995-6.489 2.995-2.035 0-4.147-.921-5.261-2.688-1.152.653-2.227 1.46-3.302 2.15h-.768v-28.991zm8.679 27.802c2.381 0 3.648-3.149 3.648-7.911 0-2.381-.039-7.181-3.418-7.181s-3.61 4.877-3.61 7.296c.001 2.343-.038 7.796 3.38 7.796zM63.871 105.075c2.822-1.788 5.079-3.536 7.14-5.16.223.495.434 1.044.722 1.497.288.454.693.879 1.045 1.292l-12.294 7.788-13.994-22.09c.852-.449 1.725-.865 2.536-1.379.811-.514 1.56-1.125 2.331-1.704l12.514 19.756zm11.368-15.089c1.868 3.488 4.653 5.565 8.184 3.539 1.366-.784 2.501-2.276 3.037-3.735l.571.071.338 2.285c-.798 1.697-2.272 3.295-3.904 4.231-5.529 3.172-10.271 1.466-13.386-3.963-2.675-4.663-1.788-9.599 3.041-12.37 5.229-3 9.278-.497 11.644 4.476l-9.525 5.466zm4.013-4.427c-1.013-1.766-3.238-5.182-5.237-4.035-2.431 1.395-.639 5.06.307 6.863l4.93-2.828zm16.716-1.605c1.223 2.35 2.015 3.54 4.639 1.179l.691 1.328c-1.012 1.132-2.079 2.077-3.135 2.626-3.543 1.844-5.549-.099-7.197-3.267l-4.751-9.129-2.317 1.206a8.774 8.774 0 0 0-1.135-2.181l2.317-1.205-2.003-3.849c1.214-1.411 2.374-2.924 3.602-4.558l3.102 5.961 2.895-1.507c.306.837.624 1.45 1.135 2.181l-2.895 1.507 5.052 9.708zM94.57 65.935c-.255-1.241-.543-2.551-.608-3.84-.065-1.289.239-2.074 1.451-2.656 1.696-.814 3.773.319 3.535 2.307-.525 3.787-1.187 7.555-1.848 11.323l-1.014.018-1.516-7.152zm17.212 10.662c1.4 1.485 3.415 2.073 5.317 1.246 1.232-.536 2.312-2.095 1.776-3.328-1.441-3.309-9.022 1.499-11.689-4.628-1.563-3.592.415-6.84 3.619-8.235 1.76-.766 3.942-1.046 5.826-.567.143 1.194.306 2.338.504 3.466l-.986.429c-.941-1.391-3.048-2.191-4.632-1.501-1.268.552-2.345 1.733-1.717 3.176 1.487 3.415 9.01-1.912 11.861 4.637 1.425 3.274-.083 6.737-4.343 8.591-1.725.751-3.614 1.029-5.487.672a60.202 60.202 0 0 0-.927-3.575l.878-.383zm29.256-28.985c-1.382-1.68-3.184-2.447-5.256-1.743-2.872.975-3.493 2.849-2.79 4.921 1.667 4.909 12.412.246 15.24 8.573 1.581 4.654-1.283 9.357-6.919 11.271-2 .679-4.305.935-6.385.425-.082-1.675-.201-3.338-.514-4.976l.691-.235c1.397 2.324 3.867 3.148 6.376 2.296 2.255-.766 3.822-2.717 2.97-5.226-1.976-5.818-12.095-.029-15.071-8.792-1.42-4.181.28-8.611 5.806-10.488 2.618-.889 5.278-.698 6.338-.206-.041 1.312.003 2.635.059 3.995l-.545.185zm13.655 1.823c.902-1.799 2.693-3.84 4.693-4.387 1.704-.465 3.253-.331 4.8.521 1.735.959 2.345 2.465 2.841 4.28l3.247 11.89c-.873.159-1.755.28-2.607.513-.852.233-1.674.577-2.505.883l-2.519-9.224c-.941-3.445-2.074-5.842-4.666-5.134-3.408.931-2.05 5.177-1.402 7.548l2.326 8.519c-.872.159-1.755.28-2.607.513-.852.233-1.674.577-2.505.883l-7.688-28.153c.872-.158 1.755-.28 2.607-.513.852-.233 1.674-.576 2.505-.883l3.48 12.744zm32.724 4.994c.294 1.39.802 1.754 2.289 1.361l.182.864c-.815.603-2.115 1.506-3.167 1.728-1.766.373-3.349-.431-4.299-1.957-.612 1.935-2.276 3.346-4.23 3.758-3.081.651-5.73-.556-6.42-3.824-.754-3.569 1.204-5.082 5.662-7.201.891-.424 1.821-.856 2.536-1.556.363-.508.373-1.021.254-1.584-.381-1.804-2.54-2.917-4.268-2.552-2.405.508-4.009 2.573-4.092 3.297l-.263.056-.965-2.151c1.417-2.026 4.052-3.485 6.419-3.985 3.156-.666 7.408-.23 8.202 3.527l2.16 10.219zm-6.565-5.443c-.852.612-2.472 1.307-3.378 2.401-.81.996-.798 2.17-.544 3.373.293 1.39 1.086 2.91 2.701 2.569 2.292-.484 2.312-2.804 1.991-4.699l-.77-3.644zm9.346-10.589c.884-.066 1.774-.095 2.646-.237.871-.142 1.725-.398 2.584-.617l.767 4.7c.344-2.896 1.641-5.442 5.354-6.049.101 1.812.272 3.574.652 5.185l-.291.359c-.548-.261-1.407-.276-2.014-.177-1.667.272-2.89 1.367-3.078 3.07-.162 1.155.292 3.221.491 4.433l1.12 6.859c-.884.066-1.774.095-2.646.238-.872.142-1.725.398-2.584.616l-3.001-18.38zm20.968 6.271c.354 3.941 2.105 6.941 6.146 6.459 1.563-.187 3.193-1.116 4.257-2.248l.499.289-.584 2.235c-1.398 1.25-3.38 2.143-5.248 2.366-6.33.756-10.025-2.67-10.767-8.885-.638-5.338 2.11-9.534 7.639-10.194 5.986-.715 8.732 3.173 8.964 8.676l-10.906 1.302zm5.425-2.504c-.241-2.021-.952-6.035-3.24-5.762-2.783.332-2.568 4.405-2.403 6.436l5.643-.674zm17.134-17.487c1.077.041 2.117.122 3.191.087 1.036-.034 2.107-.184 3.141-.295 1.748 6.397 3.723 12.71 5.698 19.023 1.977-6.482 4.264-12.858 6.007-19.408a16.05 16.05 0 0 0 3.838-.127c1.941 6.429 4.642 12.603 6.735 18.988 1.825-6.4 3.649-12.838 5.048-19.377.617.056 1.194.076 1.807.055a13.597 13.597 0 0 0 1.762-.173c-2.97 8.973-5.68 17.707-8.075 26.622-.655-.055-1.311-.148-1.925-.128-.652.021-1.301.158-1.951.256-1.938-6.352-4.33-12.459-6.758-18.526-1.948 6.173-4.014 12.273-6.023 18.947-.655-.055-1.311-.148-1.925-.128-.653.021-1.302.158-1.951.256-2.507-8.447-5.391-16.689-8.238-24.971l-.381-1.101zm46.239 9.657c1.384-1.461 3.689-2.896 5.762-2.84 1.766.048 3.21.625 4.444 1.887 1.383 1.42 1.531 3.038 1.48 4.919l-.334 12.321c-.881-.1-1.76-.239-2.643-.263-.883-.024-1.768.067-2.654.119l.259-9.557c.097-3.57-.293-6.193-2.98-6.265-3.531-.096-3.46 4.362-3.526 6.819l-.239 8.828c-.881-.1-1.761-.239-2.643-.263s-1.769.067-2.654.119l.79-29.173c.88.101 1.761.24 2.643.264.883.024 1.768-.068 2.654-.12l-.359 13.205zm30.082 14.011c-.106 1.417.281 1.908 1.818 1.945l-.066.881c-.951.353-2.451.856-3.523.776-1.8-.134-3.096-1.348-3.582-3.078-1.127 1.687-3.119 2.577-5.111 2.429-3.14-.234-5.348-2.132-5.099-5.463.272-3.638 2.573-4.544 7.445-5.335.975-.158 1.988-.313 2.87-.787.491-.387.643-.876.686-1.451.137-1.838-1.625-3.51-3.386-3.641-2.451-.183-4.568 1.353-4.85 2.025l-.267-.02-.326-2.335c1.925-1.55 4.863-2.217 7.276-2.037 3.217.24 7.179 1.846 6.893 5.675l-.778 10.416zm-4.787-7.058c-.989.35-2.738.565-3.914 1.363-1.056.73-1.372 1.861-1.463 3.086-.106 1.417.231 3.098 1.878 3.221 2.336.174 3.003-2.048 3.222-3.956l.277-3.714zm16.238 6.561c-.305 2.632-.316 4.061 3.18 3.578l-.173 1.488c-1.473.37-2.886.554-4.069.417-3.967-.46-4.539-3.193-4.128-6.741l1.185-10.222-2.594-.301a8.822 8.822 0 0 0 .283-2.442l2.594.301.5-4.31c1.796-.488 3.605-1.09 5.538-1.754l-.774 6.675 3.243.376a8.742 8.742 0 0 0-.283 2.442l-3.243-.376-1.259 10.869zm19.197-18.417c1.033.308 2.02.646 3.07.879 1.012.225 2.086.345 3.116.496.099 6.631.441 13.237.782 19.843 3.528-5.785 7.331-11.391 10.651-17.301a16.129 16.129 0 0 0 3.748.833c.279 6.71 1.357 13.362 1.794 20.068 3.361-5.743 6.731-11.524 9.714-17.51.583.208 1.137.371 1.737.504a13.64 13.64 0 0 0 1.75.271c-5.111 7.951-9.909 15.736-14.45 23.773-.62-.217-1.233-.471-1.833-.604-.637-.142-1.299-.171-1.953-.237-.295-6.635-1.091-13.145-1.932-19.626-3.424 5.494-6.944 10.888-10.551 16.851-.621-.217-1.233-.471-1.833-.604-.637-.142-1.299-.17-1.954-.237-.325-8.804-1.065-17.505-1.76-26.235l-.096-1.164zm40.003 27.316c-1.304 3.736-.949 7.192 2.931 8.421 1.501.476 3.368.302 4.805-.29l.335.469-1.455 1.795c-1.789.561-3.962.556-5.756-.012-6.077-1.926-8.028-6.572-6.138-12.539 1.624-5.125 5.859-7.811 11.167-6.129 5.747 1.821 6.642 6.496 4.581 11.603l-10.47-3.318zm5.975-.04c.615-1.941 1.624-5.891-.572-6.587-2.672-.847-4.158 2.952-4.846 4.87l5.418 1.717zm25.418-7.661c.853.449 1.689.933 2.572 1.311.882.378 1.81.65 2.723.957l-4.732 11.048c4.698-2.29 9.342-4.646 13.91-7.118.605.343 1.195.721 1.831.993.6.257 1.281.423 1.947.625l-.122.283-8.389 3.592c-1.593.696-3.146 1.493-4.941 2.27l3.644 17.727-.212.494c-.852-.449-1.689-.933-2.572-1.311-.883-.378-1.81-.65-2.723-.958l-3.204-14.657-4.808 11.225c-.852-.449-1.689-.933-2.571-1.311-.883-.378-1.811-.65-2.724-.957l10.371-24.213zm18.585 16.841c.719.45 1.421.934 2.209 1.332.754.381 1.56.659 2.348.972l-1.282 2.536c2.185-.917 4.59-1.25 6.715-.176 4.318 2.183 4.011 5.513 1.932 9.625l-5.076 10.04c-.753-.467-1.49-.967-2.279-1.366-.788-.398-1.628-.695-2.451-1.025l4.314-8.532c1.611-3.187 2.378-5.725-.021-6.938-2.981-1.507-5.008 2.502-6.1 4.661L427 84.897c-.754-.467-1.49-.968-2.278-1.366-.789-.399-1.628-.695-2.451-1.025l8.404-16.619zm13.913 18.467c3.005-5.226 8.044-6.981 13.137-4.053 5.027 2.89 6.429 7.771 3.597 12.698-2.909 5.06-8.029 7.033-13.256 4.028-4.927-2.833-6.31-7.746-3.478-12.673zm4.985 2.732c-1.225 2.131-3.542 6.778-.646 8.443 2.602 1.407 5.669-2.234 7.774-5.896 1.856-3.229 2.593-6.438.362-7.72-2.696-1.549-5.232 1.245-7.49 5.173zm19.26 15.289c3.552-2.869 7.06-5.812 10.449-8.924.57.461 1.087.934 1.7 1.33.612.397 1.255.676 1.909 1.008l-3.875 13.184a198.799 198.799 0 0 0 10.449-8.924 9.918 9.918 0 0 0 2.546 1.649c-4.885 3.515-10.433 7.7-15.541 12.122-.538-.44-1.056-.912-1.604-1.267-.58-.376-1.223-.655-1.844-.967l3.656-12.775c-3.383 2.75-6.798 5.479-10.23 8.516-.538-.44-1.056-.913-1.636-1.288-.613-.397-1.255-.676-1.877-.988 1.877-6.287 3.618-12.434 5.099-18.887.731.565 1.474 1.184 2.248 1.686.805.522 1.674.947 2.489 1.384l-3.938 13.141z"/>
</svg>
