<svg xmlns="http://www.w3.org/2000/svg" fill="none" viewBox="0 0 254 59"><path fill="#FCA311" d="M13.604 36.754h-.798c-.684 0-1.38.038-2.09.114a8.12 8.12 0 00-1.862.342 3.338 3.338 0 00-1.33.798c-.355.33-.532.773-.532 1.33 0 .355.076.659.228.912.177.253.393.456.646.608.253.152.545.266.874.342.33.05.646.076.95.076 1.267 0 2.23-.342 2.888-1.026.684-.71 1.026-1.66 1.026-2.85v-.646zM2.166 28.66a10.946 10.946 0 013.876-2.394 13.507 13.507 0 014.56-.798c1.596 0 2.939.203 4.028.608 1.115.38 2.014.988 2.698 1.824.684.81 1.178 1.85 1.482 3.116.33 1.241.494 2.723.494 4.446V45h-5.7v-2.014h-.114c-.481.785-1.216 1.393-2.204 1.824-.963.43-2.014.646-3.154.646a9.7 9.7 0 01-2.356-.304 7.126 7.126 0 01-2.242-.988C2.875 43.708 2.331 43.1 1.9 42.34c-.43-.76-.646-1.697-.646-2.812 0-1.368.367-2.47 1.102-3.306.76-.836 1.723-1.482 2.888-1.938 1.19-.456 2.508-.76 3.952-.912a40.295 40.295 0 014.218-.228v-.304c0-.937-.33-1.621-.988-2.052-.659-.456-1.47-.684-2.432-.684-.887 0-1.748.19-2.584.57a8.29 8.29 0 00-2.09 1.368L2.166 28.66zm236.213 19.19c-.38.988-.811 1.862-1.292 2.622a7.084 7.084 0 01-1.672 1.976c-.634.557-1.394.975-2.28 1.254-.862.279-1.888.418-3.078.418-.583 0-1.191-.038-1.824-.114a11.213 11.213 0 01-1.596-.304l.684-5.244c.304.101.633.177.988.228.38.076.722.114 1.026.114.962 0 1.659-.228 2.09-.684.43-.43.798-1.051 1.102-1.862l.608-1.558-7.904-18.62h6.916l4.218 12.16h.114l3.762-12.16h6.612l-8.474 21.774z"/><path fill="#fff" d="M38.89 32.194c-.355-.456-.837-.823-1.445-1.102a4.426 4.426 0 00-1.862-.418 3.79 3.79 0 00-1.786.418 4 4 0 00-1.368 1.064 5.06 5.06 0 00-.912 1.52 5.63 5.63 0 00-.304 1.862c0 .659.102 1.28.304 1.862a4.95 4.95 0 00.874 1.558c.406.43.874.773 1.406 1.026a4.45 4.45 0 001.862.38c.634 0 1.254-.114 1.862-.342.634-.253 1.14-.608 1.52-1.064l3.458 4.218c-.785.76-1.798 1.355-3.04 1.786a11.97 11.97 0 01-3.952.646c-1.494 0-2.888-.228-4.18-.684-1.292-.456-2.419-1.115-3.382-1.976a9.949 9.949 0 01-2.242-3.192c-.532-1.241-.798-2.647-.798-4.218 0-1.545.266-2.939.798-4.18.558-1.241 1.305-2.293 2.242-3.154a9.69 9.69 0 013.382-2.014c1.292-.481 2.673-.722 4.142-.722.684 0 1.356.063 2.014.19.684.127 1.33.304 1.938.532a7.078 7.078 0 011.71.798c.532.304.988.646 1.368 1.026l-3.61 4.18zm21.01 0c-.354-.456-.835-.823-1.443-1.102a4.426 4.426 0 00-1.862-.418 3.79 3.79 0 00-1.786.418 4 4 0 00-1.368 1.064 5.06 5.06 0 00-.912 1.52 5.627 5.627 0 00-.304 1.862c0 .659.101 1.28.304 1.862.202.583.494 1.102.874 1.558.405.43.874.773 1.406 1.026.557.253 1.178.38 1.862.38.633 0 1.254-.114 1.862-.342.633-.253 1.14-.608 1.52-1.064l3.458 4.218c-.786.76-1.799 1.355-3.04 1.786-1.242.43-2.559.646-3.952.646-1.495 0-2.888-.228-4.18-.684-1.292-.456-2.42-1.115-3.382-1.976a9.946 9.946 0 01-2.242-3.192c-.532-1.241-.798-2.647-.798-4.218 0-1.545.266-2.939.798-4.18.557-1.241 1.304-2.293 2.242-3.154a9.689 9.689 0 013.382-2.014c1.292-.481 2.672-.722 4.142-.722.684 0 1.355.063 2.014.19.684.127 1.33.304 1.938.532a7.082 7.082 0 011.71.798c.532.304.988.646 1.368 1.026l-3.61 4.18zm21.012 1.178c0-.988-.317-1.837-.95-2.546-.608-.71-1.533-1.064-2.774-1.064-.608 0-1.165.101-1.672.304a4.05 4.05 0 00-1.33.76c-.38.33-.684.722-.912 1.178-.228.43-.355.887-.38 1.368h8.018zm5.738 2.394v.76c0 .253-.013.494-.038.722H72.894c.05.532.203 1.013.456 1.444.279.43.62.81 1.026 1.14.43.304.9.545 1.406.722a5.136 5.136 0 001.634.266c.988 0 1.824-.177 2.508-.532a5.158 5.158 0 001.672-1.444l4.332 2.736c-.887 1.292-2.065 2.293-3.534 3.002-1.444.684-3.129 1.026-5.054 1.026-1.419 0-2.761-.215-4.028-.646a10.436 10.436 0 01-3.344-1.938c-.937-.861-1.685-1.913-2.242-3.154-.532-1.241-.798-2.66-.798-4.256 0-1.545.266-2.939.798-4.18.532-1.267 1.254-2.33 2.166-3.192a9.505 9.505 0 013.23-2.052c1.241-.481 2.584-.722 4.028-.722 1.393 0 2.673.24 3.838.722a8.151 8.151 0 013.002 2.014c.836.887 1.482 1.963 1.938 3.23.481 1.267.722 2.71.722 4.332zm16.899-4.104a6.948 6.948 0 00-1.786-1.216 4.932 4.932 0 00-2.166-.494c-.583 0-1.127.114-1.634.342-.481.228-.722.62-.722 1.178 0 .532.266.912.798 1.14.557.228 1.444.481 2.66.76.709.152 1.418.367 2.128.646a7.512 7.512 0 011.976 1.102 5.287 5.287 0 011.406 1.672c.354.659.532 1.444.532 2.356 0 1.19-.241 2.204-.722 3.04a5.918 5.918 0 01-1.9 1.976 7.898 7.898 0 01-2.584 1.102c-.963.228-1.925.342-2.888.342-1.546 0-3.066-.24-4.56-.722-1.47-.507-2.698-1.241-3.686-2.204l3.496-3.686a6.984 6.984 0 002.052 1.52c.81.405 1.672.608 2.584.608.507 0 1-.114 1.482-.342.506-.253.76-.684.76-1.292 0-.583-.304-1.013-.912-1.292-.608-.279-1.558-.57-2.85-.874a14.732 14.732 0 01-1.976-.608 6.559 6.559 0 01-1.786-1.026 5.237 5.237 0 01-1.254-1.596c-.33-.633-.494-1.393-.494-2.28 0-1.14.24-2.103.722-2.888a6.05 6.05 0 011.862-1.976 7.967 7.967 0 012.508-1.102c.937-.253 1.862-.38 2.774-.38 1.418 0 2.799.228 4.142.684 1.368.43 2.52 1.09 3.458 1.976l-3.42 3.534zm19.824 0a6.948 6.948 0 00-1.786-1.216 4.931 4.931 0 00-2.166-.494c-.583 0-1.128.114-1.634.342-.482.228-.722.62-.722 1.178 0 .532.266.912.798 1.14.557.228 1.444.481 2.66.76.709.152 1.418.367 2.128.646a7.512 7.512 0 011.976 1.102 5.287 5.287 0 011.406 1.672c.354.659.532 1.444.532 2.356 0 1.19-.241 2.204-.722 3.04a5.918 5.918 0 01-1.9 1.976 7.898 7.898 0 01-2.584 1.102 12.5 12.5 0 01-2.888.342c-1.546 0-3.066-.24-4.56-.722-1.47-.507-2.698-1.241-3.686-2.204l3.496-3.686a6.976 6.976 0 002.052 1.52 5.7 5.7 0 002.584.608c.506 0 1-.114 1.482-.342.506-.253.76-.684.76-1.292 0-.583-.304-1.013-.912-1.292-.608-.279-1.558-.57-2.85-.874a14.687 14.687 0 01-1.976-.608 6.555 6.555 0 01-1.786-1.026 5.227 5.227 0 01-1.254-1.596c-.33-.633-.494-1.393-.494-2.28 0-1.14.24-2.103.722-2.888a6.048 6.048 0 011.862-1.976 7.967 7.967 0 012.508-1.102 10.6 10.6 0 012.774-.38c1.418 0 2.799.228 4.142.684 1.368.43 2.52 1.09 3.458 1.976l-3.42 3.534zm15.453-11.628c0 .481-.101.937-.304 1.368-.177.405-.43.76-.76 1.064a3.254 3.254 0 01-1.14.722c-.43.177-.886.266-1.368.266-1.013 0-1.862-.33-2.546-.988-.684-.684-1.026-1.495-1.026-2.432 0-.456.089-.887.266-1.292a3.08 3.08 0 01.76-1.102 3.81 3.81 0 011.14-.722c.431-.203.9-.304 1.406-.304.482 0 .938.089 1.368.266.456.177.836.418 1.14.722.33.304.583.671.76 1.102.203.405.304.849.304 1.33zM132.138 45V26.076h6.232V45h-6.232zm34.159-9.538c0 1.317-.203 2.584-.608 3.8a9.82 9.82 0 01-1.786 3.23 8.644 8.644 0 01-2.812 2.204c-1.115.557-2.382.836-3.8.836a8.789 8.789 0 01-3.61-.76c-1.115-.532-1.976-1.28-2.584-2.242h-.076V45h-5.738V16.272h6.232V28.09h.076c.532-.633 1.279-1.216 2.242-1.748.962-.532 2.14-.798 3.534-.798 1.368 0 2.596.266 3.686.798a8.218 8.218 0 012.812 2.166c.785.912 1.38 1.976 1.786 3.192.43 1.19.646 2.445.646 3.762zm-6.004 0c0-.608-.102-1.203-.304-1.786a4.054 4.054 0 00-.836-1.52 4.323 4.323 0 00-1.406-1.102c-.558-.279-1.204-.418-1.938-.418-.71 0-1.343.14-1.9.418a4.749 4.749 0 00-1.444 1.102c-.38.456-.684.975-.912 1.558a5.392 5.392 0 000 3.572c.228.583.532 1.102.912 1.558.405.456.886.823 1.444 1.102.557.279 1.19.418 1.9.418.734 0 1.38-.14 1.938-.418a4.323 4.323 0 002.242-2.66 5.757 5.757 0 00.304-1.824zm18.626-15.428c0 .481-.101.937-.304 1.368-.177.405-.43.76-.76 1.064a3.254 3.254 0 01-1.14.722c-.43.177-.886.266-1.368.266-1.013 0-1.862-.33-2.546-.988-.684-.684-1.026-1.495-1.026-2.432 0-.456.089-.887.266-1.292a3.08 3.08 0 01.76-1.102 3.81 3.81 0 011.14-.722c.431-.203.9-.304 1.406-.304.482 0 .938.089 1.368.266.456.177.836.418 1.14.722.33.304.583.671.76 1.102.203.405.304.849.304 1.33zM172.231 45V26.076h6.232V45h-6.232zm13.145 0V16.272h6.308V45h-6.308zm19.906-24.966c0 .481-.101.937-.304 1.368-.177.405-.431.76-.76 1.064a3.254 3.254 0 01-1.14.722 3.56 3.56 0 01-1.368.266c-1.013 0-1.862-.33-2.546-.988-.684-.684-1.026-1.495-1.026-2.432 0-.456.089-.887.266-1.292.177-.43.431-.798.76-1.102a3.786 3.786 0 011.14-.722 3.26 3.26 0 011.406-.304c.481 0 .937.089 1.368.266.456.177.836.418 1.14.722.329.304.583.671.76 1.102.203.405.304.849.304 1.33zM198.594 45V26.076h6.232V45h-6.232zm19.832-14.25v7.22c0 .887.165 1.558.494 2.014.355.43.975.646 1.862.646.304 0 .621-.025.95-.076.355-.05.646-.127.874-.228l.076 4.56c-.431.152-.975.279-1.634.38-.659.127-1.317.19-1.976.19-1.267 0-2.331-.152-3.192-.456-.861-.33-1.558-.785-2.09-1.368a5.677 5.677 0 01-1.102-2.128c-.228-.836-.342-1.76-.342-2.774v-7.98h-3.04v-4.674h3.002v-4.978h6.118v4.978h4.446v4.674h-4.446zM33.79 10h-.97V4.1l-1.34 1.12-.57-.67 2.01-1.63h.87V10zm22.277 0h-4.62v-.93l2.82-2.8c.214-.22.397-.45.55-.69.154-.24.23-.51.23-.81 0-.187-.033-.353-.1-.5a1.107 1.107 0 00-.67-.63 1.333 1.333 0 00-.49-.09c-.36 0-.656.117-.89.35-.233.227-.38.52-.44.88l-.95-.16a2.16 2.16 0 01.25-.74c.134-.233.3-.433.5-.6.2-.173.43-.307.69-.4.267-.093.55-.14.85-.14a2.7 2.7 0 01.84.13c.274.087.514.213.72.38.207.167.37.377.49.63.127.253.19.543.19.87 0 .227-.03.437-.09.63a2.41 2.41 0 01-.25.55c-.1.173-.22.34-.36.5-.14.153-.286.307-.44.46l-2.3 2.24h3.47V10zm20.658-4.1h.31c.2 0 .393-.017.58-.05.193-.04.363-.103.51-.19a1.078 1.078 0 00.49-.94c0-.18-.034-.34-.1-.48a1.028 1.028 0 00-.28-.37 1.185 1.185 0 00-.4-.23 1.229 1.229 0 00-.47-.09c-.3 0-.557.077-.77.23a1.414 1.414 0 00-.47.64l-.88-.31c.173-.427.45-.76.83-1a2.42 2.42 0 011.33-.37c.293 0 .57.043.83.13.266.08.5.2.7.36.2.16.356.36.47.6.12.24.18.517.18.83 0 .2-.034.387-.1.56-.06.173-.147.33-.26.47-.107.14-.237.26-.39.36-.154.1-.32.173-.5.22v.02c.206.04.396.11.57.21.18.1.333.227.46.38.126.147.226.317.3.51.073.193.11.403.11.63 0 .353-.067.667-.2.94a2.02 2.02 0 01-.53.67c-.22.18-.474.317-.76.41-.287.093-.58.14-.88.14-.56 0-1.054-.127-1.48-.38-.427-.253-.737-.647-.93-1.18l.9-.3c.106.307.286.557.54.75.26.193.576.29.95.29.18 0 .353-.027.52-.08.173-.06.326-.147.46-.26a1.256 1.256 0 00.44-1.01c0-.247-.054-.453-.16-.62a1.206 1.206 0 00-.42-.4 1.588 1.588 0 00-.57-.22 2.942 2.942 0 00-.63-.07h-.3v-.8zm23.227 1.68h1.02v.83h-1.02V10h-.94V8.41h-3.26v-.88l3.01-4.61h1.19v4.66zm-.94-3.55h-.02l-2.24 3.55h2.26V4.03zm22.177-.25h-2.92l-.06 1.86c.133-.047.28-.08.44-.1.167-.02.323-.03.47-.03.34 0 .653.053.94.16a2.054 2.054 0 011.25 1.15c.12.273.18.58.18.92 0 .373-.063.71-.19 1.01-.127.3-.3.557-.52.77-.22.207-.48.367-.78.48-.3.12-.627.18-.98.18-.553 0-1.02-.127-1.4-.38a2.432 2.432 0 01-.86-1.04l.88-.35c.113.287.29.517.53.69.247.173.53.26.85.26.207 0 .4-.037.58-.11a1.386 1.386 0 00.78-.79c.08-.187.12-.393.12-.62 0-.267-.047-.497-.14-.69a1.293 1.293 0 00-.36-.49 1.495 1.495 0 00-.53-.28c-.2-.06-.41-.09-.63-.09-.267 0-.54.037-.82.11a3.66 3.66 0 00-.75.28l.1-3.76h3.82v.86zm12.457 1.99l.01.02c.1-.06.234-.107.4-.14.167-.033.327-.05.48-.05.307 0 .594.057.86.17.274.107.51.26.71.46.2.193.357.427.47.7.114.273.17.57.17.89 0 .353-.063.677-.19.97-.12.287-.29.533-.51.74-.22.207-.48.367-.78.48a2.64 2.64 0 01-.96.17c-.353 0-.68-.06-.98-.18-.3-.113-.56-.273-.78-.48a2.338 2.338 0 01-.51-.74 2.384 2.384 0 01-.18-.93c0-.387.064-.737.19-1.05.127-.313.294-.633.5-.96l1.85-2.92h1.15l-1.9 2.85zm-.81 2.09c0 .207.034.403.1.59.074.18.174.337.3.47.134.133.29.24.47.32.18.08.38.12.6.12a1.5 1.5 0 00.59-.11c.18-.073.334-.177.46-.31.134-.14.234-.3.3-.48.074-.187.11-.39.11-.61 0-.213-.036-.41-.11-.59a1.345 1.345 0 00-.74-.78c-.18-.073-.38-.11-.6-.11-.22 0-.423.037-.61.11-.18.073-.336.177-.47.31-.126.133-.226.29-.3.47-.066.18-.1.38-.1.6zm24.498-4.06l-2.84 6.2h-1.11l2.95-6.22h-3.51v-.86h4.51v.88zm19.707 2.47c.187.047.36.127.52.24a1.71 1.71 0 01.71.92c.073.2.11.413.11.64 0 .333-.063.63-.19.89s-.3.48-.52.66c-.213.18-.463.317-.75.41-.287.1-.59.15-.91.15-.32 0-.627-.05-.92-.15a2.32 2.32 0 01-.76-.41c-.213-.18-.383-.4-.51-.66a2.002 2.002 0 01-.19-.89c0-.233.033-.45.1-.65.073-.2.17-.377.29-.53.127-.153.27-.28.43-.38.167-.107.34-.187.52-.24v-.02a1.671 1.671 0 01-.79-.58c-.2-.273-.3-.607-.3-1a1.821 1.821 0 01.63-1.4c.193-.173.417-.303.67-.39.26-.093.537-.14.83-.14.287 0 .56.047.82.14.26.087.483.213.67.38a1.79 1.79 0 01.63 1.39c0 .387-.103.723-.31 1.01-.2.287-.46.483-.78.59v.02zm-2.19-1.57c0 .16.027.31.08.45.06.14.14.263.24.37.107.1.23.18.37.24a1.23 1.23 0 00.92 0c.14-.06.263-.14.37-.24.107-.107.19-.23.25-.37.06-.14.09-.29.09-.45 0-.167-.033-.32-.1-.46a1.033 1.033 0 00-.25-.37.95.95 0 00-.36-.24 1.23 1.23 0 00-.92 0 1.046 1.046 0 00-.61.61 1.29 1.29 0 00-.08.46zm-.23 3.32c0 .2.033.383.1.55.067.167.16.31.28.43.127.113.273.203.44.27.173.067.363.1.57.1a1.47 1.47 0 00.99-.37c.12-.12.213-.263.28-.43.073-.167.11-.35.11-.55 0-.193-.037-.37-.11-.53a1.269 1.269 0 00-.28-.43 1.248 1.248 0 00-.44-.28 1.47 1.47 0 00-.55-.1c-.2 0-.387.033-.56.1-.167.067-.313.16-.44.28a1.39 1.39 0 00-.29.43c-.067.16-.1.337-.1.53zm14.207-.88l-.01-.01c-.1.06-.237.107-.41.14l-.25.04c-.08.007-.157.01-.23.01-.313 0-.603-.053-.87-.16a2.275 2.275 0 01-.7-.46 2.16 2.16 0 01-.47-.71 2.307 2.307 0 01-.17-.89c0-.353.06-.673.18-.96a2.23 2.23 0 011.3-1.23c.3-.113.623-.17.97-.17s.67.06.97.18a2.214 2.214 0 011.28 1.22c.127.287.19.597.19.93 0 .387-.063.737-.19 1.05-.127.313-.29.633-.49.96l-1.85 2.92h-1.15l1.9-2.86zm.81-2.08c0-.207-.037-.4-.11-.58a1.283 1.283 0 00-.3-.48c-.127-.14-.28-.25-.46-.33-.18-.08-.38-.12-.6-.12-.22 0-.42.04-.6.12-.18.073-.337.177-.47.31a1.455 1.455 0 00-.3.48c-.067.187-.1.39-.1.61 0 .213.033.41.1.59.073.18.173.337.3.47.127.133.28.237.46.31.18.073.38.11.6.11.22 0 .42-.037.6-.11.187-.073.343-.177.47-.31.133-.133.233-.29.3-.47.073-.18.11-.38.11-.6zm8.577 4.94h-.97V4.1l-1.34 1.12-.57-.67 2.01-1.63h.87V10zm5.538-7.26c.42 0 .78.097 1.08.29.306.193.556.46.75.8.2.333.346.727.44 1.18.093.453.14.937.14 1.45a7.26 7.26 0 01-.14 1.46 3.89 3.89 0 01-.44 1.18 2.26 2.26 0 01-.75.79c-.3.193-.66.29-1.08.29-.42 0-.784-.097-1.09-.29a2.332 2.332 0 01-.76-.79 4.02 4.02 0 01-.43-1.18 7.188 7.188 0 01-.14-1.46c0-.513.046-.997.14-1.45.093-.453.236-.847.43-1.18.2-.34.453-.607.76-.8.306-.193.67-.29 1.09-.29zm0 .81a.955.955 0 00-.72.29 1.923 1.923 0 00-.44.72c-.1.287-.17.6-.21.94-.04.34-.06.66-.06.96 0 .3.02.62.06.96.04.34.11.653.21.94.106.287.253.527.44.72.186.187.426.28.72.28a.93.93 0 00.7-.28c.186-.193.333-.433.44-.72.106-.287.18-.6.22-.94.04-.34.06-.66.06-.96 0-.3-.02-.62-.06-.96a4.076 4.076 0 00-.22-.94 1.948 1.948 0 00-.44-.72.914.914 0 00-.7-.29z"/><path fill="#FCA311" d="M213.81 10h-.97V4.1l-1.34 1.12-.57-.67 2.01-1.63h.87V10zm6.347 0h-.97V4.1l-1.34 1.12-.57-.67 2.01-1.63h.87V10z"/></svg>
