<svg xmlns="http://www.w3.org/2000/svg" viewBox="0 0 394 200"><g fill="none" fill-rule="evenodd"><path d="M240.502 66.551a4.324 4.324 0 0 1 2.63-3.935 114.459 114.459 0 0 1-1.97-17.513 4.248 4.248 0 0 1-.78-8c-2.164-5.925-7.446-11.168-15.889-15.633a58.33 58.33 0 0 0-40.58-5.135v.303a4.278 4.278 0 0 1-7.987 2.137 4.266 4.266 0 0 1 .714-5.164 21.347 21.347 0 0 0-1.689-1.979 1.831 1.831 0 0 0-2.067-.367 25.224 25.224 0 0 0-12.99 13.751 4.258 4.258 0 0 1 .486 7.737 4.27 4.27 0 0 1-4.598-.375 57.865 57.865 0 0 0-14.808 52.79h.357a4.247 4.247 0 1 1 2.035 7.99 57.515 57.515 0 0 0 4.265 8.82c8.324 14.054 23.813 23.525 42.02 25.946a4.264 4.264 0 0 1 4.218-2.999 4.258 4.258 0 1 1 1.894 7.999 4.269 4.269 0 0 1-5.117-.794 49.595 49.595 0 0 0-14.58 15.027 4.248 4.248 0 0 1 1.494 2.454h26.508a4.263 4.263 0 0 1 3.68-3.395 25.657 25.657 0 0 0-6.05-16.4.82.82 0 0 1 .563-1.384 66.941 66.941 0 0 0 23.077-5.232 90.84 90.84 0 0 0 5.931-2.79 4.212 4.212 0 0 1-.26-1.415 4.249 4.249 0 0 1 2.813-4.07 4.257 4.257 0 0 1 4.764 1.345c7.978-5.048 14.96-11.373 17.406-18.162a.767.767 0 0 1 0-.216c.737-2.365.882-4.874.422-7.308v-.152a.821.821 0 0 1 .444-.994c.266-.118.523-.255.768-.411a10.808 10.808 0 0 0-3.096-5.265.82.82 0 0 1-.13-1.08c.253-.455.326-.987.206-1.493a2.238 2.238 0 0 0-.909-1.448 2.167 2.167 0 0 0-2.782.118.823.823 0 0 1-1.223.109 10.467 10.467 0 0 1-2.002-2.476 32.408 32.408 0 0 1-2.555-6.714h-.292a4.327 4.327 0 0 1-4.34-4.227zm109 112.411a6.318 6.318 0 0 0-6.44 6.097v4.692a6.426 6.426 0 0 0 6.424 6.159 6.426 6.426 0 0 0 6.424-6.159v-4.692a6.296 6.296 0 0 0-6.408-6.097zm-81.55 5.028c-.205-.595-.39-1.222-.714-2.163l-2.425 6.79 4.135-1.828c-.357-.962-.595-1.557-.692-1.88-.098-.325-.217-.595-.304-.92zm-223.378-5.028a6.318 6.318 0 0 0-6.44 6.097v4.692a6.426 6.426 0 0 0 6.424 6.159 6.426 6.426 0 0 0 6.424-6.159v-4.692a6.296 6.296 0 0 0-6.408-6.097z"/><path fill="#E7ECE4" fill-rule="nonzero" d="M18.477 190.205h-2.003a.856.856 0 0 0-.93.811v-.065a6.547 6.547 0 0 1-1.083 2.573 5.87 5.87 0 0 1-6.53 2.057 5.86 5.86 0 0 1-4.034-5.527v-5.19a5.874 5.874 0 0 1 5.845-5.87 5.76 5.76 0 0 1 4.697 2.336c.48.718.845 1.505 1.083 2.335.135.397.51.663.93.66h1.95c.573 0 .81-.476.93-.866v-.302c-.887-4.963-5.421-8.427-10.449-7.983-5.027.445-8.882 4.65-8.883 9.69v5.2c0 5.374 4.362 9.73 9.742 9.73a10.25 10.25 0 0 0 9.309-6.724 5.702 5.702 0 0 0 .39-1.86.961.961 0 0 0-.964-1.005zm26.129-15.07c-5.747 0-10.51 4.4-10.51 9.903v4.692c.165 5.623 4.847 10.057 10.478 9.924 5.625.133 10.298-4.306 10.445-9.924v-4.692a10.124 10.124 0 0 0-3.146-7.113 10.15 10.15 0 0 0-7.267-2.79zm6.376 14.595a6.426 6.426 0 0 1-6.424 6.158 6.426 6.426 0 0 1-6.424-6.158v-4.692a6.426 6.426 0 0 1 6.424-6.158 6.426 6.426 0 0 1 6.424 6.158v4.692zm36.467-14.238h-2.035a.995.995 0 0 0-.985.951v14.908l-10.273-15.437a.855.855 0 0 0-.811-.476H71.18a.963.963 0 0 0-.964.951l.065 22.011a.907.907 0 0 0 .899.951h2.067a.995.995 0 0 0 .985-.951v-14.832c3.68 5.405 6.798 10.043 10.391 15.405a.899.899 0 0 0 .834.454h2.035a.995.995 0 0 0 .985-.951v-22.022a.994.994 0 0 0-1.028-.962zm31.346 12.205a9.119 9.119 0 0 0-2.1-1.016c-.746-.27-2.035-.595-3.831-1.081l-3.442-.951a2.945 2.945 0 0 1-1.288-.779 2.225 2.225 0 0 1-.477-2.162 3.387 3.387 0 0 1 3.248-2.627h2.273c1.915 0 2.965.951 3.052 3.503.011.526.436.95.963.962h1.981c.931 0 .931-.573.964-1.168a6.666 6.666 0 0 0-2.1-5.405 7.81 7.81 0 0 0-4.85-1.73h-2.273a7.261 7.261 0 0 0-7.122 5.74 7.397 7.397 0 0 0-.184 2.066v.421c0 4.011 4.135 5.179 7.967 6.044 2.164.508 3.983.81 4.816 1.524a2.16 2.16 0 0 1 .455 1.73c-.007.2-.029.398-.065.594a3.42 3.42 0 0 1-3.626 2.573h-2.273a3.311 3.311 0 0 1-3.247-2.54c0-.39-.065-.66-.065-.811.034-.32.005-.643-.087-.952a.844.844 0 0 0-.898-.713h-1.981c-.931 0-.964.573-.964 1.167v-.064c-.03.812.04 1.625.206 2.421.141.7.425 1.362.834 1.946a7.309 7.309 0 0 0 6.224 3.384h2.273a8.017 8.017 0 0 0 5.412-1.708 8.643 8.643 0 0 0 2.273-5.979 4.97 4.97 0 0 0-2.068-4.389zm32.635-12.205h-15.965c-.931 0-.964.573-.964 1.167v1.525c0 .962.152 1.167 1.202 1.167h5.812v18.898c0 .594 0 1.167.964 1.167h2.067c.93 0 .963-.573.963-1.167V179.35h5.748c1.082 0 1.169-.205 1.169-1.167v-1.525c-.01-.594-.076-1.167-.996-1.167zm31.087 19.946h-11.614v-6.67h9.969a.931.931 0 0 0 .963-.984v-2.033a.93.93 0 0 0-.963-.983h-9.97v-5.309h11.226c1.082 0 1.201-.086 1.201-1.167v-1.643c0-.595 0-1.168-.985-1.168h-14.472a.964.964 0 0 0-1.017.951l.065 22.011a.908.908 0 0 0 .963.952h14.85c.986 0 .986-.595.986-1.2v-1.611c0-1.049-.152-1.146-1.202-1.146zm29.853 0h-9.958v-18.779c0-.594 0-1.167-.963-1.167h-2.068a.856.856 0 0 0-.963.951l.065 22.011c0 .627.303.951.898.951h13.173c.931 0 .964-.594.964-1.2v-1.61c.021-1.06-.065-1.157-1.148-1.157zm29.767 0H232.2v-18.779c0-.594 0-1.167-.963-1.167h-2.068a.856.856 0 0 0-.963.951l.065 22.011c0 .627.303.951.898.951h13.173c.931 0 .964-.594.964-1.2v-1.61c0-1.06-.087-1.157-1.17-1.157zm27.385-19.222c-.206-.389-.325-.778-.93-.778h-2.631c-.596 0-.747.324-.964.778-.779 1.881-7.63 22.076-7.63 22.195.017.53.453.951.984.951h2.068c.714 0 .78-.303.985-.778l1.645-4.606 7.371-3.243 2.728 7.87c.206.454.325.779.963.779h2.165a.856.856 0 0 0 .964-.952 1.846 1.846 0 0 0 0-.356l-7.718-21.86zm-4.676 12.357l2.425-6.79c.324.93.508 1.558.714 2.163.087.324.206.595.303.93.097.335.325.93.693 1.88l-4.135 1.817zm39.606-13.081h-15.955c-.931 0-.964.573-.964 1.167v1.525c0 .962.152 1.167 1.202 1.167h5.812v18.898c0 .594 0 1.167.964 1.167h2.067c.931 0 .964-.573.964-1.167V179.35h5.747c1.083 0 1.17-.205 1.17-1.167v-1.525c-.012-.594-.077-1.167-1.007-1.167zm18.444 0h-2.035a.963.963 0 0 0-.963.951l.065 22.011a.907.907 0 0 0 .898.951h2.035a.995.995 0 0 0 .985-.95v-22a.995.995 0 0 0-.985-.963zm26.638-.357c-5.747 0-10.51 4.4-10.51 9.903v4.692c.255 5.589 4.865 9.989 10.467 9.989s10.212-4.4 10.467-9.99v-4.691a10.124 10.124 0 0 0-3.15-7.117 10.15 10.15 0 0 0-7.274-2.786zm6.376 14.595a6.426 6.426 0 0 1-6.424 6.158 6.426 6.426 0 0 1-6.425-6.158v-4.692a6.426 6.426 0 0 1 6.425-6.158 6.426 6.426 0 0 1 6.424 6.158v4.692zm36.466-14.238h-2.035a.995.995 0 0 0-.985.951v14.908l-10.272-15.437a.855.855 0 0 0-.812-.476h-2.164a.963.963 0 0 0-.964.951l.065 22.011a.907.907 0 0 0 .899.951h2.067a.995.995 0 0 0 .985-.951v-14.832a2417.71 2417.71 0 0 1 10.391 15.405.899.899 0 0 0 .834.454h2.035a.995.995 0 0 0 .985-.951v-22.022a.994.994 0 0 0-1.029-.962z"/><ellipse cx="121.263" cy="60.735" fill="#E7ECE4" fill-rule="nonzero" rx="1.786" ry="1.784"/><ellipse cx="301.064" cy="128.962" fill="#E7ECE4" fill-rule="nonzero" rx="2.392" ry="2.389"/><ellipse cx="249.67" cy="3.892" fill="#E7ECE4" fill-rule="nonzero" rx="3.897" ry="3.892"/><ellipse cx="108.393" cy="40.897" fill="#E7ECE4" fill-rule="nonzero" rx="3.821" ry="3.816"/><ellipse cx="139.026" cy="124.67" fill="#E7ECE4" fill-rule="nonzero" rx="3.821" ry="3.816"/><ellipse cx="281.721" cy="133.254" fill="#E7ECE4" fill-rule="nonzero" rx="1.905" ry="1.903"/><ellipse cx="90.414" cy="126.573" fill="#E7ECE4" fill-rule="nonzero" rx="1.905" ry="1.903"/><ellipse cx="275.605" cy="38.941" fill="#E7ECE4" fill-rule="nonzero" rx="2.446" ry="2.443"/><ellipse cx="123.06" cy="111.87" fill="#E7ECE4" fill-rule="nonzero" rx="1.472" ry="1.47"/><ellipse cx="267.693" cy="53.47" fill="#E7ECE4" fill-rule="nonzero" rx="1.472" ry="1.47"/><path fill="#FFF" fill-rule="nonzero" d="M189.629 127.892c-18.174-2.4-33.696-11.892-42.02-25.946a57.515 57.515 0 0 1-4.264-8.822 4.247 4.247 0 0 0-2.035-7.989h-.358a57.865 57.865 0 0 1 14.819-52.703c.73.551 1.618.85 2.533.854a4.258 4.258 0 1 0 1.58-8.216 25.224 25.224 0 0 1 12.989-13.751 1.831 1.831 0 0 1 2.067.367 21.347 21.347 0 0 1 1.689 1.979 4.33 4.33 0 0 1 1.385-.908 23.392 23.392 0 0 0-1.894-2.216 3.478 3.478 0 0 0-3.918-.811 26.856 26.856 0 0 0-13.953 14.984 4.327 4.327 0 0 0-4.221 4.259c.01.764.226 1.512.628 2.162a59.518 59.518 0 0 0-15.284 54.476 4.247 4.247 0 0 0 1.948 8.043c.152.008.304.008.455 0a59.157 59.157 0 0 0 4.416 9.178c8.595 14.476 24.571 24.26 43.297 26.714v-.378a4.2 4.2 0 0 1 .14-1.276zm-33.945-98.919a2.619 2.619 0 1 1 5.187-.547 2.62 2.62 0 1 1-5.187.547zm-14.493 63.038a2.617 2.617 0 0 1-2.402-2.667 2.618 2.618 0 0 1 2.52-2.555 2.618 2.618 0 0 1 2.62 2.616 2.618 2.618 0 0 1-2.62 2.617l-.118-.011zm83.281-70.541c8.443 4.465 13.768 9.73 15.89 15.633a4.248 4.248 0 0 0 .779 8 114.47 114.47 0 0 0 1.97 17.513 4.248 4.248 0 0 1 1.602-.324 109.945 109.945 0 0 1-1.927-17.124 4.26 4.26 0 0 0 3.576-4.531 4.263 4.263 0 0 0-4.225-3.934h-.163c-2.219-6.39-7.836-12-16.734-16.714a60.01 60.01 0 0 0-41.781-5.275 4.19 4.19 0 0 1 .433 1.6 58.33 58.33 0 0 1 40.58 5.156zm20.295 19.46a2.596 2.596 0 0 1-2.605 2.573 2.596 2.596 0 0 1-2.59-2.588 2.596 2.596 0 0 1 2.576-2.601 2.58 2.58 0 0 1 .335 0 2.606 2.606 0 0 1 2.284 2.659v-.043zm-40.72 108.648h-26.53a4.248 4.248 0 0 0-1.494-2.454 49.595 49.595 0 0 1 14.58-15.027 4.324 4.324 0 0 1-.888-1.373 51.196 51.196 0 0 0-15.154 15.622c-.402-.13-.821-.2-1.244-.205a4.273 4.273 0 0 0-4.273 3.99 4.272 4.272 0 0 0 3.713 4.514 4.275 4.275 0 0 0 4.749-3.413h26.508a4.114 4.114 0 0 1 0-1.654h.033zm-28.078.822a2.661 2.661 0 0 1-2.62 2.616 2.627 2.627 0 0 1-.591-5.194 2.63 2.63 0 0 1 3.06 1.756c.094.264.145.542.15.822zm81.646-52.205c.732-2.454.892-5.043.466-7.568.354-.191.685-.424.985-.692a.821.821 0 0 0 .238-.821 13.195 13.195 0 0 0-3.247-6.152 3.93 3.93 0 0 0 .14-2.086 3.848 3.848 0 0 0-1.612-2.508 3.966 3.966 0 0 0-4.33-.141 8.822 8.822 0 0 1-1.158-1.557 31.846 31.846 0 0 1-2.382-6.302c-.5.248-1.044.395-1.602.432a32.408 32.408 0 0 0 2.555 6.714A10.5 10.5 0 0 0 249.616 80a.823.823 0 0 0 1.223-.108 2.167 2.167 0 0 1 2.782-.119c.483.344.81.865.91 1.449.12.505.046 1.037-.206 1.492a.82.82 0 0 0 .13 1.08 10.808 10.808 0 0 1 3.095 5.276 5.793 5.793 0 0 1-.768.411.821.821 0 0 0-.444.995v.151c.46 2.434.315 4.943-.422 7.308a.767.767 0 0 0 0 .216c-2.446 6.79-9.428 13.114-17.405 18.163.354.423.623.911.79 1.437 8.378-5.297 15.727-12.01 18.25-19.265a.767.767 0 0 0 .064-.291zm-32.299 24.983a66.941 66.941 0 0 1-23.077 5.233.823.823 0 0 0-.563 1.384 25.657 25.657 0 0 1 6.05 16.4 3.316 3.316 0 0 1 1.668.13 27.49 27.49 0 0 0-5.412-16.357 68.262 68.262 0 0 0 21.994-5.265 93.949 93.949 0 0 0 6.127-2.887 4.248 4.248 0 0 1-.844-1.416c-2.003 1.016-3.951 1.946-5.943 2.778zm-33.263 7.979c1.008.82 2.463.79 3.436-.072a2.646 2.646 0 0 0 .48-3.399 2.654 2.654 0 0 0-3.282-1.018 2.648 2.648 0 0 0-1.532 3.073c.135.558.45 1.055.898 1.416z"/><path fill="#FFF" fill-rule="nonzero" d="M179.681 19.254a2.607 2.607 0 0 0 2.609-2.508v-.108a2.622 2.622 0 0 0-4.476-1.846 2.614 2.614 0 0 0 1.867 4.462zm29.648 128.778a2.6 2.6 0 0 0-1.083-.248 2.608 2.608 0 0 0-2.468 1.794 2.614 2.614 0 0 0 .358 2.347 2.62 2.62 0 0 0 2.11 1.091 2.615 2.615 0 1 0 1.082-4.984zm32.819-81.481a2.607 2.607 0 0 0 2.478 2.638h.163a2.606 2.606 0 0 0 .303-5.2h-.303a2.65 2.65 0 0 0-2.62 2.616l-.021-.054zm-6.885 49.806a2.594 2.594 0 1 0-.99 4.99 2.6 2.6 0 0 0 3.153-.949 2.592 2.592 0 0 0-2.163-4.041z"/></g></svg>
