<svg xmlns="http://www.w3.org/2000/svg" fill="#fff" fill-rule="evenodd" clip-rule="evenodd" viewBox="0 0 220 160"><defs><linearGradient id="a" x1="58.653" x2="58.653" y1="52.537" y2="25.183" gradientUnits="userSpaceOnUse" gradientTransform="matrix(1.6 0 0 1.6 .6 -60.1)"><stop offset="0" stop-color="#fff"/><stop offset="1" stop-color="#1e90ff"/></linearGradient><linearGradient id="b" x1="39.585" x2="39.585" y1="35.631" y2="96.789" gradientUnits="userSpaceOnUse" gradientTransform="matrix(1.6 0 0 1.6 .6 -60.1)"><stop offset="0" stop-color="#fff"/><stop offset="1" stop-color="#3C3"/></linearGradient><linearGradient id="c" x1="55.477" x2="112.599" y1="55.399" y2="55.399" gradientUnits="userSpaceOnUse" gradientTransform="matrix(1.6 0 0 1.6 .6 -60.1)"><stop offset="0" stop-color="#fff"/><stop offset="1" stop-color="#F93"/></linearGradient></defs><path fill="url(#a)" fill-rule="nonzero" stroke="#87cefa" stroke-width=".578" d="M83.357 23.996l-.005-30.11 11.076-13.657 11.08 13.64.006 30.11-22.157.016zM94.434 23.987" transform="translate(0 59.6)"/><g fill="#000" font-weight="bold" font-size="23.418"><text x="69.044" y="73.6" transform="matrix(1.6 0 0 1.6 -27 -34.9)">Text</text><text x="69.088" y="97.018" transform="matrix(1.6 0 0 1.6 -27 -34.9)">Flow</text></g><path fill="url(#b)" fill-rule="nonzero" stroke="#cfc" stroke-width=".578" d="M55.207-3.054v55.916h-9.992L63.925 94.8l18.71-41.938H72.64V-3.054H55.208zM63.926-3.054" transform="translate(0 59.6)"/><path fill="url(#c)" fill-rule="nonzero" stroke="#fc6" stroke-width=".578" d="M89.35 27.38h66.257v-2.924l25.14 4.12-25.14 4.12V29.77H89.35V27.38zM89.35 28.574" transform="translate(0 59.6)"/><text x="10.124" y="-202.778" fill="#FFDBB7" font-size="16.058" transform="rotate(90 -29.8 29.8)">inline</text><text x="-19.141" y="-184.838" fill="#FFDBB7" font-size="16.058" transform="rotate(90 -29.8 29.8)">base direction</text><text x="83.232" y="-43.24" fill="#D8ECFF" font-size="16.058" transform="translate(0 59.6)">line</text><text x="58.872" y="-25.301" fill="#D8ECFF" font-size="16.058" transform="translate(0 59.6)">orientation</text><text x="-48.91" y="19.262" fill="#D7FFD7" font-size="16.058" transform="rotate(-90 29.8 29.8)">block</text><text x="-78.784" y="37.201" fill="#D7FFD7" font-size="16.058" transform="rotate(-90 29.8 29.8)">flow direction</text></svg>
