<svg xmlns="http://www.w3.org/2000/svg" viewBox="0 0 136 58"><path fill="#fff" fill-rule="evenodd" d="M38.56 56.368c1.088-.512 1.984-1.28 2.432-2.432.192-.192 0-.384-.128-.448s-.384-.128-.576 0c-1.28.96-2.816 1.6-4.48 1.92-1.088.256-2.304.192-3.904-.512-2.24-.896-4.352-2.176-6.4-3.584s-4.16-2.88-6.016-4.544l-1.344-1.216-1.28-1.28c-.832-.832-1.792-1.6-2.816-2.048.128-.64.448-1.216.576-1.92 3.84-1.856 10.432-5.12 13.952-7.488.064-.64-.128-1.472-.832-1.728-1.344-.832-2.816-1.28-4.352-1.6-1.664-.128-3.456-.192-4.928.32-1.024.384-1.92 1.024-2.624 2.112-.704 1.088-1.216 2.24-1.664 3.52-.448 1.152-.832 2.368-1.28 3.584C8.8 40.816 4.704 42.672.672 44.72c-.64.64.192 1.472 1.024 1.344 3.456-1.344 6.848-3.136 10.368-4.48-.832 2.432-1.92 4.8-3.264 7.104-1.536 2.496-3.584 4.864-6.144 6.848-.192.448.064.704.384.832.32.064.768.064 1.152-.064 1.984-.768 5.184-4.928 6.208-6.592 1.152-1.728 2.176-3.584 2.944-5.504 1.024.448 1.856 1.152 2.752 2.048.96.96 1.792 1.856 2.816 2.624 3.328 2.496 6.656 5.44 10.496 7.168 2.176.96 3.968 1.536 5.888 1.344 1.152-.256 2.24-.576 3.264-1.024zM24.416 25.456c.704-.32 1.408-.64 1.984-1.28.32-.896-.896-1.472-1.984-1.024-3.072 1.408-5.888 3.264-8.64 5.12-.384.128-.768 0-.96-.384-.128-.832-.128-1.6 0-2.432.064-.768.256-1.472.384-2.176 1.536-.96 3.072-1.728 4.544-2.56 1.536-.896 3.072-1.856 4.48-3.072.064-.704-.256-1.344-1.024-2.048-1.28-1.152-2.944-1.664-4.672-1.216-1.6.448-2.56 1.344-3.264 2.56-.512.768-.768 1.664-1.088 2.56-.32.832-.576 1.728-.96 2.56-3.584 1.728-7.104 3.712-10.624 5.248-.512.256-.256.896-.064 1.088.448.384.96.384 1.472.32.512-.128.96-.32 1.408-.384 2.496-1.344 5.696-3.008 7.552-3.904 0 .384-.128.832-.192 1.28-.064.576-.128 1.216-.128 1.792.064.96.32 1.92 1.216 2.56.64.448 1.472.448 2.176.256 2.24-1.216 4.16-2.752 6.336-3.968.64-.32 1.344-.576 2.048-.896zM6.88 18.288c2.816-1.472 5.76-2.752 8.832-3.712 2.624-.832 5.376-1.408 8.192-1.664.576-.576.576-1.536-.32-1.856-2.624 0-5.248.896-7.808 1.536 2.496-2.432 4.736-5.184 6.656-7.936.192-.512.576-.96.832-1.408.256-.512.448-1.088.32-1.792-.192-.832-1.216-.448-1.6-.128-1.792 3.136-3.84 6.4-6.528 8.896-1.6-.256-3.904-3.008-5.12-4.864l-.448-.896c-.448-.896-.704-1.792-1.344-2.624-.448-.32-.96-.192-1.152.128-.32.448-.256.896-.128 1.28.64 1.92 1.344 3.392 2.56 5.056 1.088 1.472 2.432 2.752 4.096 3.392-2.176 2.496-5.248 3.52-8.128 4.8l-.704.32c-.192.192-.384.448-.192.832.512.704 1.28.704 1.984.64zM25.888 31.92c.064.128.064.256 0 .32-3.392 1.92-6.848 3.84-10.368 5.504.192-.448.32-.96.448-1.408.64-1.856 1.536-3.712 3.264-4.8 2.048-.704 4.672-.32 6.656.384zm-4.096-15.424c.256.192.256.448.128.576-1.984 1.152-3.968 2.368-6.016 3.52.256-.96.576-1.984 1.088-2.88.512-.768 1.216-1.536 2.24-1.728.896-.128 1.664.064 2.56.512zm57.152 20.608c.768-.832.768-2.24.448-3.2-.32-.448-1.28-.64-1.408.064 0 .896-.192 1.728-.96 2.112-.768.32-1.408-.192-2.112-.384-4.288-2.816-7.36-6.912-10.56-10.88l-.576-.384-.448-.32c0-.448 0-1.216.064-1.664.128-.32.384-.576.576-.896.256-.32.512-.64.704-1.024.32-.448.448-1.024.256-1.664-.576-.256-1.152-.128-1.536.128-.128-.704-.192-2.112-.064-2.816 2.176-.704 5.952-2.048 8.32-2.752.384-.192.896-.512 1.088-1.088-.256-.448-.448-.64-.832-.896-.832-.064-1.6.064-2.304.256l-2.048.64-2.24.832c-.64.256-1.344.512-1.984.704-.064-1.728 0-3.328.192-4.864.128-.32.32-.384.704-.448.384-.064.768-.192 1.088-.512.256-.192.256-.768-.064-1.088-.512-.064-.896-.32-1.28-.576-.512-.32-.832-.64-1.408-.768-.576.192-.896.512-1.216.896-.32 2.688-.064 5.76-.256 8.32-2.368.96-4.864 2.048-7.232 2.944-1.344.512-2.688.896-4.032.832-.384 0-.704.512-.576.896.768.832 1.664 1.152 2.688.96 2.304-.384 7.104-2.496 9.216-3.456v4.672c-2.432 3.584-4.864 7.232-7.616 10.56-2.496 3.008-5.184 5.952-8.384 8.512-.256.704.384.96.832.96.832-.064 1.472-.448 2.24-.832 2.496-2.176 4.8-4.672 6.976-7.296 2.048-2.496 4.032-5.12 5.952-7.744 0 4.224-.064 17.728-.064 23.488-.128.768-.32 2.752-.448 3.776 0 .512.384.64.832.32.768-.576 1.344-1.408 1.6-2.304.512-1.536.384-3.264.384-4.8-.064-5.312-.128-14.592-.128-19.648 1.28 1.92 3.392 4.736 4.736 6.08 2.304 2.24 4.992 4.8 7.616 5.568 1.344.128 2.432-.32 3.264-1.216zm-1.408-24.768c.32.384 1.024.256 1.152-.448-.384-1.344-1.28-2.368-2.048-3.52-.512-.448-.896-1.024-1.344-1.536-.448-.576-.96-1.152-1.472-1.472-.64-.448-1.344-.64-2.24-.448-.512.32-1.088.896-.704 1.6 1.024.384 1.856.96 2.624 1.6 1.536 1.28 2.688 2.816 4.032 4.224zM135.2 37.552c.32-.192.768-.512.64-1.024-1.024-.448-1.856-1.088-2.688-1.728-4.416-3.456-7.936-8.576-12.672-11.392 0-3.584 0-6.912.256-10.432 2.944-.768 6.016-1.344 9.088-1.92.704-.256 1.088-.448.832-1.152-.512-.576-1.216-.768-1.92-.64-2.432.384-5.696 1.088-8 1.6-.064-.64.064-1.344.128-1.984.064-.64.064-1.216-.32-1.792-.256-.512-1.088-1.152-1.6-.384-.256 1.088-.32 3.136-.256 4.736-3.2.832-6.464 2.112-9.664 3.008-.832.448-1.536 1.408-1.984 2.624 1.088-.064 1.984-.384 2.56-.576 2.944-1.152 5.888-2.048 8.896-2.816-.064 1.728-.192 4.8-.192 6.912-1.856 3.008-4.224 7.104-6.912 10.88-2.816 3.904-5.76 7.104-9.024 9.536-.384.256-.32.896.256 1.152 1.856-.192 3.456-1.6 4.864-2.944 4.416-4.288 7.68-9.792 10.816-15.04-.128 5.12.128 9.92.256 14.592-2.176.768-4.352 1.664-6.784 2.24-.256.384-.256.832 0 1.216.512.32 1.216.32 1.664.32 1.728-.32 3.456-.896 5.184-1.472 0 2.432.128 4.864-.32 7.232-.32 1.536-1.152 2.816-2.304 3.136-.832.256-1.728.064-2.752-.768-1.408-1.216-2.176-2.816-3.136-4.416-.256-.384-1.088 0-.896.64.448 1.792 1.344 3.776 2.816 5.12 1.856 1.664 3.584 1.984 5.056 1.408 1.792-.768 3.072-2.816 3.456-5.312.384-2.304.384-5.504.32-7.808 2.176-.704 4.352-1.216 6.656-1.152.32.064.832-.256.576-.704-.256-.512-.896-.96-1.472-1.152-2.048-.128-3.968.256-5.888.768-.192-4.224-.64-8.384-.32-12.48 3.136 2.88 6.336 6.464 9.536 9.344 1.664 1.088 3.072 2.88 5.248 2.624zm-36.544 1.92c.192-4.352.384-10.432.512-16 0-.384-.064-1.088-.192-1.664-.32-.64-1.024-.768-1.536-.832-1.088.32-1.472 1.088-1.984 1.92-.256.512.384.896.768.384.704-.32.64.576.64 1.024-.256 4.416-.256 10.304-.32 16.128 0 1.856-.64 6.144-.768 8.704 0 .384.32.576.576.576.32.064.64-.128.896-.512.832-3.136 1.28-6.4 1.408-9.728zm1.792-24.704c.32.064.64 0 .832-.448-.448-.96-1.344-1.664-2.304-1.792-.576.128-.96.448-1.408.704-4.928 5.76-8.32 12.224-11.072 18.816-.32.704-.512 1.728-.192 2.624l.32.576c.128.192.32.32.64.256.768-.128.896-.896.832-1.664 1.024-2.688 3.52-8.448 6.336-13.056 1.728-2.752 3.52-5.12 5.184-6.016h.832z"/></svg>
