<svg xmlns="http://www.w3.org/2000/svg" viewBox="0 0 125 61"><path fill="#fff" fill-rule="evenodd" d="M24.496.336C30.3 2.34 33.2 4.326 33.2 6.288c0 1.024-.256 1.93-.768 2.72-.512.79-1.077 1.184-1.696 1.184-.62 0-1.035-.597-1.248-1.792-.512-2.603-2.24-5.077-5.184-7.424l.192-.64zm31.296 11.008c.427.384.64.693.64.928 0 .235-.437.46-1.312.672-.875.213-1.835.747-2.88 1.6-1.045.853-2.784 2.56-5.216 5.12l-.832-.384 4.352-7.36H10.992c-.3 3.328-.98 5.568-2.048 6.72-1.067 1.152-2.25 1.728-3.552 1.728-1.3 0-1.952-.512-1.952-1.536 0-.768.523-1.45 1.568-2.048 1.045-.597 2.1-1.77 3.168-3.52 1.067-1.75 1.77-3.733 2.112-5.952h.96c0 .896-.043 1.963-.128 3.2h38.976l2.048-2.496 3.648 3.328zm4.032 38.528c-2.73 0-4.715.768-5.952 2.304-.3.384-.576.576-.832.576-.64 0-2.57-1.077-5.792-3.232-3.22-2.155-6.09-4.95-8.608-8.384-2.517-3.435-4.352-7.563-5.504-12.384H30.64v17.472c0 4.01.043 6.987.128 8.928.085 1.94.128 2.997.128 3.168 0 .725-.437 1.26-1.312 1.6-.875.34-1.45.512-1.728.512-.277 0-.416-.49-.416-1.472l.128-4.992c.085-2.133.128-4.757.128-7.872V29.328c-3.968 7.125-8.043 12.736-12.224 16.832C11.292 50.256 6.3 53.776.496 56.72l-.512-.768c10.752-7.125 18.88-16.192 24.384-27.2H6.896c-1.664 0-3.093.235-4.288.704L.816 27.088c2.048.17 3.605.256 4.672.256h22.208V23.44c0-2.86-.085-5.973-.256-9.344l4.288 2.112c.597.256.896.5.896.736 0 .235-.256.544-.768.928l-1.216.96v8.512h19.904l2.816-3.84 4.032 3.84c.512.47.768.82.768 1.056 0 .235-.405.352-1.216.352H34.096c2.603 6.4 5.952 11.22 10.048 14.464 4.096 3.243 9.323 5.205 15.68 5.888v.768zm64.448-3.456c-1.152-.213-2.187-.32-3.104-.32-.917 0-1.76.363-2.528 1.088-.128.128-.256.192-.384.192-.81 0-2.955-2.87-6.432-8.608-3.477-5.74-5.728-13.088-6.752-22.048h-2.944v26.944h4.16l2.176-2.816 3.648 2.88c.3.256.448.544.448.864 0 .32-.256.48-.768.48h-9.664c0 3.925.032 7.05.096 9.376.064 2.325.096 3.53.096 3.616 0 .768-.437 1.43-1.312 1.984-.875.555-1.43.832-1.664.832-.235 0-.352-.384-.352-1.152l.064-5.248c.043-1.963.064-5.1.064-9.408h-6.464c-1.58 0-2.944.213-4.096.64l-1.728-2.304c1.92.17 3.413.256 4.48.256h7.808V19.216c-2.944 7.34-6.112 13.493-9.504 18.464-3.392 4.97-7.328 9.355-11.808 13.152l-.512-.576c4.523-4.78 8.203-9.568 11.04-14.368 2.837-4.8 5.685-11.19 8.544-19.168H85.872c-1.664 0-3.093.235-4.288.704l-1.792-2.368c2.048.17 3.605.256 4.672.256H99.12V9.808c0-2.86-.085-5.973-.256-9.344l4.928 2.368c.384.128.576.3.576.512 0 .213-.15.427-.448.64l-1.792 1.408v9.92h12.16l2.56-3.52 4.352 3.584c.34.256.512.544.512.864 0 .32-.32.48-.96.48h-14.4c1.11 6.87 3.34 13.056 6.688 18.56 3.35 5.504 7.093 9.003 11.232 10.496v.64zM79.088 1.872l3.904 2.688c.555.3.832.544.832.736 0 .192-.3.373-.896.544-.597.17-1.024.363-1.28.576-.256.213-.576.79-.96 1.728-2.048 4.82-3.67 8.448-4.864 10.88l2.368 1.024c.256.128.384.277.384.448 0 .17-.128.363-.384.576l-1.6 1.536v24.64c0 3.243.02 5.483.064 6.72l.128 3.456c0 .768-.437 1.43-1.312 1.984-.875.555-1.43.832-1.664.832-.235 0-.352-.192-.352-.576 0-.384.043-1.75.128-4.096.085-2.347.128-5.163.128-8.448V23.44c-2.645 5.077-5.824 9.92-9.536 14.528l-.64-.512C70.32 26.533 75.504 14.672 79.088 1.872z"/></svg>
