<svg xmlns="http://www.w3.org/2000/svg" fill-rule="evenodd" shape-rendering="geometricPrecision" text-rendering="geometricPrecision" image-rendering="optimizeQuality" clip-rule="evenodd" viewBox="0 0 160 220.001"><defs><linearGradient id="a" x1="64.196" x2="107.805" y1="94.001" y2="94.001" gradientUnits="userSpaceOnUse"><stop offset="0" stop-color="#fff"/><stop offset="1" stop-color="#0072B5"/></linearGradient><linearGradient id="b" x1="51.25" x2="148.748" y1="60.002" y2="60.002" gradientUnits="userSpaceOnUse"><stop offset="0" stop-color="#fff"/><stop offset="1" stop-color="#15A739"/></linearGradient><linearGradient id="c" x1="56.001" x2="56.001" y1="88.468" y2="179.533" gradientUnits="userSpaceOnUse"><stop offset="0" stop-color="#fff"/><stop offset="1" stop-color="#EA8A2F"/></linearGradient></defs><path fill="url(#a)" fill-rule="nonzero" stroke="#6FBDE4" stroke-width=".576" d="M64.196 82.965l30.002-.005 13.607 11.036-13.592 11.04-30.002.006-.014-22.077zM64.204 94.002"/><path fill="url(#b)" fill-rule="nonzero" stroke="#B2D9AA" stroke-width=".576" d="M51.25 51.316h55.713V41.36l41.785 18.642-41.785 18.642v-9.956H51.25V51.316zM51.25 60"/><path fill="url(#c)" fill-rule="nonzero" stroke="#F3C35C" stroke-width=".576" d="M57.194 88.468v66.016h2.912L56 179.534l-4.104-25.05h2.913V88.468h2.383zM55.998 88.468"/><text x="41.87" y="195.107" fill="#FFDBB7" font-size="15.999">inline</text><text x="12.938" y="212.981" fill="#FFDBB7" font-size="16">base direction</text><g><text x="67.516" y="110" fill="#D8ECFF" font-size="16" transform="rotate(90 62.4 76.9)">line</text><text x="42.641" y="127.875" fill="#D8ECFF" font-size="15.999" transform="rotate(90 62.4 76.9)">orientation</text></g><text x="68.993" y="20.214" fill="#D7FFD7" font-size="15.999">block</text><text x="44.208" y="38.088" fill="#D7FFD7" font-size="16">flow direction</text><g fill="#1F1A17" font-weight="bold" font-size="37.334"><text x="80.07" y="147.334" transform="rotate(91 123.6 125.1)">Flow</text><text x="80.141" y="184.668" transform="rotate(91 123.6 125.1)">Text</text></g></svg>
