<svg xmlns="http://www.w3.org/2000/svg" viewBox="0 0 844 519" xmlns:xlink="http://www.w3.org/1999/xlink"><defs><linearGradient id="a" x1=".258%" x2="101.258%" y1="49.75%" y2="49.75%"><stop stop-color="#3023AE" offset="0%"/><stop stop-color="#53A0FE" offset="47.525%"/><stop stop-color="#B4ED50" offset="100%"/></linearGradient><path id="b" d="M.188 0h236.25v120H.188z"/><path id="d" d="M.938 0h236.25v120H.938z"/><path id="f" d="M.125 0h236.25v120H.125z"/></defs><g fill="none" fill-rule="evenodd"><path fill="#FFF" stroke="#979797" stroke-width="4" d="M2 2h840v515H2z"/><text fill="#000" font-size="20" transform="translate(2 2)"><tspan x="35" y="431.551">Probably some more marketing copy for each of the 3 images above that will only get passed to </tspan> <tspan x="35" y="453.551">you after you’ve built most of site, which is never the length of the lorem ipsum your designer </tspan> <tspan x="35" y="475.551">used and hence he/she will ask you how come the columns cannot be the same height.</tspan></text><path fill="url(#a)" d="M0 0h840v200H0" transform="translate(2 2)"/><text fill="#FFF" transform="translate(262 88)" font-size="24"><tspan x=".18" y="23">Some (hopefully) relevant text</tspan></text><text fill="#000" transform="translate(205 221)" font-size="24"><tspan x=".364" y="23">Be thankful they didn’t ask for a carousel</tspan></text><g transform="translate(305 276)"><mask id="c" fill="#fff"><use xlink:href="#b"/></mask><path fill="#D8D8D8" stroke="#979797" stroke-width="4" d="M.188 0h236.25v120H.188z" mask="url(#c)"/></g><g transform="translate(572 276)"><mask id="e" fill="#fff"><use xlink:href="#d"/></mask><path fill="#D8D8D8" stroke="#979797" stroke-width="4" d="M.938 0h236.25v120H.938z" mask="url(#e)"/></g><g transform="translate(36 276)"><mask id="g" fill="#fff"><use xlink:href="#f"/></mask><path fill="#D8D8D8" stroke="#979797" stroke-width="4" d="M.125 0h236.25v120H.125z" mask="url(#g)"/></g></g></svg>
