<svg xmlns="http://www.w3.org/2000/svg" viewBox="0 0 1117 452"><g fill="none" fill-rule="evenodd"><text fill="#fff"><tspan x="460" y="446.495">Illustration by Stéphanie Walter</tspan></text><path fill="#5E8EB8" d="M450.55 218.945s16.27 1.247 26.337 8.518c10.067 7.27 22.82 6.38 28.66 6.194 5.84-.187 15.493-1.548 15.493-1.548l3.098 16.26-1.55 34.07.775 54.97-3.098 16.26-17.816 3.09h-48.03s-8.71-5.6-8.52-11.62c.18-6.02 0-85.18 0-85.18l4.64-41.04zm-272.114 41.04s24.394 10.656 34.857 12.39c10.463 1.73 27.317-2.415 42.603 0 15.286 2.41 17.688 3.67 26.336 3.87 8.65.2 25.374-1.49 35.632-3.098 10.257-1.61 17.04 0 17.04 0s-.205 16.18 0 18.583c.206 2.403-6.17 23.093-7.745 25.552-1.58 2.46-11.91 15.664-16.27 18.584-4.36 2.92-23.59 13.23-32.54 13.163-8.95-.07-24.12-1.44-30.99-3.88-6.87-2.44-23.42-11.09-24.01-13.17-.6-2.08-6.83-13-9.3-13.94-2.47-.94-21.44-14.84-22.47-16.26-1.03-1.43-13.49-20.74-13.17-23.23.32-2.5 0-18.59 0-18.59zM1.602 291.73s21.225 2.063 32.533 0c11.308-2.066 37.62-2.5 48.8 1.548 11.177 4.047 15.49.774 15.49.774s5.024 22.607-13.167 37.167c-12.06 9.65-23.704 15.96-36.908 14.31-18.298-2.29-25.74-6.95-32.806-13.54-8.44-7.88-14.326-19.58-13.942-40.27zm629.973-61.17s17.288 7.38 28.66 10.066c11.373 2.685 32.272-3.83 37.18-3.872 4.91-.04 10.845 0 10.845 0v92.143h-76.685V230.56zM558.777.55s-1.134 15.61-6.197 23.228c-5.062 7.617-2.69 21.037 6.972 24.778 7.15 2.77 14.747-4.83 16.266-11.615 3.206-14.31-7.97-26.78-17.04-36.39z"/><path fill="#5F8FB7" d="M810.504 225.914s70.942 10.73 104.57 10.066c21.28-.42 85.766-7.81 107.666-5.42 39.8 4.342 75.14-1.55 75.14-1.55v70.463h-286.6l-.776-73.56z"/><path fill="#F3F1D9" d="M498.576 122.33c3.91.002 6.747 2.864 6.747 6.806v.298c0 3.892-2.755 7.092-6.238 7.38.445 5.113 2.454 17.264 10.753 42.62 13.356 40.808 14.325 65.91 14.36 66.96l.002.05v99.413c0 5.803-4.416 10.524-9.844 10.524h-57.222c-5.558 0-10.434-4.91-10.434-10.52v-99.43l.003-.07c.047-1.05 1.304-26.13 14.654-66.92 8.44-25.79 10.543-37.73 11.028-42.69-3.42-.58-6.218-3.74-6.218-7.3v-.3c0-3.75 3.29-6.8 7.337-6.8h25.072zm-2.605 13.95H475.5c-.418 5.278-2.586 17.71-11.23 44.123-13.372 40.855-14.503 66.093-14.503 66.093v99.36c0 3.944 3.466 7.44 7.375 7.44h57.22c3.91-.003 6.784-3.497 6.784-7.44v-99.36s-.835-25.238-14.207-66.093c-8.65-26.412-10.62-38.845-10.96-44.122zm4.46-3.1c1.15-.77 1.84-2.23 1.84-3.746v-.298c0-2.218-1.49-3.72-3.68-3.72h-25.08c-2.2 0-4.27 1.502-4.27 3.72v.298c0 1.517.97 2.976 2.29 3.747h28.91zM310.3 353.28h-79.05c-1.134 0-2.02-.106-2.02 1.034 0 .045.01.086.013.13-.003.043-.013.084-.013.13 0 .997.805 1.807 1.8 1.807h79.952c1.134 0 2.418-.41 2.418-1.55 0-1.14-1.966-1.55-3.1-1.55zm-40.834-150.35c5.676.002 9.638 3.447 9.638 8.38v.92h16.887c3.66 0 7.02 1.825 8.97 4.882 1.65 2.568 2.06 5.683 1.17 8.558 8.77 5.88 15.89 13.678 20.97 22.738 2.31-2.577 9.86-9.802 21.32-9.027 15.24 1.03 24.25 9.55 25.35 24.02 1.22 15.97-12.58 27.82-18.49 29.14-4.36.98-19.08 8.95-24.68 16.31-3.27 7.8-8.02 14.96-14.12 21.08-12.48 12.55-28.45 18.71-46.47 18.71-11.51 0-23.73-2.13-33.76-7.56-10.37-5.61-19.07-13.88-25.18-23.93-20.75-11.11-33.46-29.44-34.89-50.34-.16-2.37-.24-4.71-.32-6.97-.21-6.26-.41-12.18-2.3-18.4l-.09-.29c-1.18-3.92-2.66-8.8-5.58-11.36-.3-.26-1.45-.77-2.37-1.17-2.94-1.29-6.6-2.89-7.06-5.77-.22-1.39.35-2.77 1.7-4.1l-.01-.01.32-.27c.04-.03.07-.06.1-.09h.01l.117-.1.078-.064v.003c.22-.18.457-.33.797-.378.965-.323 2.92-.67 7.2-.76h.076c10.86.295 19.696 12.838 24.98 20.334l.09.13c.855 1.21 1.68 2.57 2.48 3.882 2.92 4.797 5.673 9.327 10.462 9.327.625 0 1.284-.08 1.97-.23 5.32-10.28 13.174-18.81 23.362-25.39-.71-2.845-.19-5.797 1.495-8.264 1.978-2.886 5.267-4.61 8.806-4.61h17.1v-.92c0-4.933 3.876-8.38 9.425-8.38h.47zm58.413 104.392c-.71.964-1.29 1.928-1.71 2.883l.35.158c-3.05 6.378-7.15 12.25-12.24 17.365-11.9 11.958-27.1 17.803-44.29 17.803-23.22 0-44.87-10.88-56.53-30.36-.15-.24-.36-.44-.61-.57-20.01-10.58-32.27-28.08-33.63-48.01-.16-2.32-.24-4.63-.32-6.86-.22-6.47-.43-12.58-2.43-19.2l-.09-.28c-1.3-4.3-2.92-9.65-6.508-12.8-.66-.58-1.77-1.06-3.17-1.68-1.767-.77-5.055-2.21-5.246-3.41-.057-.37.32-.95 1.02-1.59.59-.24 2.93-.53 6.27-.6 9.3.28 17.562 12.01 22.503 19.03l.09.13c.797 1.13 1.56 2.387 2.37 3.715 3.08 5.07 6.572 10.81 13.09 10.81 1.014 0 2.08-.14 3.17-.43.52-.052.98-.37 1.216-.84 5.23-10.37 14.31-18.33 24.68-24.82h66.65c16.25 10.49 27.737 27.72 29.86 47.434 1.21 11.196-.41 22.216-4.526 32.16zm26.72-17.82c-3.64.814-14.18 6.107-21.54 12.41 2.55-8.6 3.41-17.784 2.41-27.083-.92-8.53-3.35-16.63-7.08-23.97l.4.31c.07-.1 7.4-9.5 19.4-8.7 9.56.64 21.23 4.83 22.48 21.15 1.08 14.14-11.67 24.88-16.09 25.87zm-77.05-74.17c-.86-.003-1.54-.696-1.54-1.55v-2.472c0-3.647-3.3-5.28-6.56-5.28h-.48c-2.93 0-6.34 1.383-6.34 5.28v2.47c0 .857-.69 1.55-1.54 1.55h-18.64c-2.52 0-4.86 1.222-6.26 3.267-1.12 1.63-.69 4.146-.31 6.034h68.2c.54-1.95-.62-4.08-1.74-5.84-1.39-2.16-3.77-3.45-6.38-3.45h-18.43z"/><path fill="#5E8EB8" d="M85.65 353.352c-.326-.36-.797-.588-1.323-.588h.257c.507 0 .958.246 1.24.626.48.12.822.38.822.924 0 1.14-.925 2.067-2.062 2.067H16.797c-.997 0-1.805-.81-1.805-1.8 0-.04.01-.08.013-.13-.002-.04-.013-.08-.013-.13 0-1.14 1.22-1.03 2.358-1.03H84c.534 0 1.147-.02 1.65.07.266.29.438.67.468 1.09.003-.04.013-.08.013-.13 0-.34-.11-.66-.3-.92l-.07-.02-.1-.02zm15.43-86.87v9.345c.787-.225 1.67-.372 2.706-.372 6.288 0 11.213 5.106 11.213 11.625v10.333c0 6.52-4.93 11.625-11.22 11.625-1.2 0-2.32-.182-3.41-.552-2.16 11.823-9.19 22.57-19.4 29.17-9.04 5.84-18.89 9.425-29.53 9.425H49.9c-6.428 0-11.754-1.62-17.81-3.83C12.78 336.2.3 319.74.3 301.31c0-3.028-.002-32.972 0-33.272v-1.55h100.78zm-3.13 34.1c0 13.523-7.548 26.68-18.928 34.035-8.45 5.46-19.178 9.364-29.122 9.364-5.862 0-10.92-2.06-16.575-4.13C15.455 333.33 3.4 319.03 3.4 302.13c0-3.14-.032-26.435 0-32.55h94.55v31zm13.95-3.1c0 4.565-3.78 7.94-8.114 7.94-1.03 0-1.957-.192-2.9-.608.128-1.334.194-2.68.194-4.028v-21.108c.835-.387 1.63-.606 2.706-.606 4.335 0 8.114 2.993 8.114 7.56v10.85z"/><path fill="#F3F1D9" d="M714.12 356.38h-88.85c-3.595 0-6.52-2.924-6.52-6.52V192.402c0-3.597 2.925-6.52 6.52-6.52h88.85c3.595 0 6.93 2.923 6.93 6.52V349.86c0 3.593-3.328 6.515-6.93 6.52zm3.83-162.75c0-1.904-2.455-4.74-4.36-4.74h-88.384c-1.904 0-3.447 1.543-3.447 3.448v157.585c0 1.905 1.54 3.45 3.44 3.45h88.38c1.9 0 4.36-2.837 4.36-4.742v-155zm-47.908 156.357c-3.876 0-7.028-3.154-7.028-7.03 0-3.875 3.152-7.028 7.028-7.028 3.876 0 7.03 3.15 7.03 7.02 0 3.87-3.154 7.03-7.03 7.03zm0-10.985c-2.18 0-3.956 1.775-3.956 3.956 0 2.182 1.775 3.957 3.956 3.957 2.182 0 3.957-1.775 3.957-3.957 0-2.18-1.78-3.956-3.96-3.956zm38.608-7.42h-77.5v-133.3h77.5v133.3zm-3.1-130.2h-71.3v127.1h71.3v-127.1zM910.506 356.38c-1.685 0-3.056-1.366-3.056-3.046 0-1.17.678-2.23 1.72-2.735l14.93-14.37v-20.15l-125.728-.02c-3.32 0-6.022-2.71-6.022-6.03V123.71c0-3.324 2.702-6.03 6.022-6.03h311.908c3.32 0 6.02 2.706 6.02 6.03v186.33c0 3.323-2.7 6.028-6.02 6.028l-125.73.012v20.15l15.69 14.64c.79.573 1.26 1.485 1.26 2.462 0 1.68-1.37 3.047-3.06 3.047h-87.934zm199.774-235.597H798.372c-1.66.05-2.924 1.344-2.924 2.928v186.33c0 1.62 1.312 2.93 2.924 2.93l127.278.02c.856 0 1.55.7 1.55 1.55v21.7c0 .6.49 2.84 0 3.1l-16.16 13.76c-.084.08-.174.14-.27.19h87.52l-.03-.02-16.47-14.51c-.34-.29-.34-.51-.34-.96v-23.25c0-.85.51-1.56 1.36-1.56h127.47c1.61 0 2.92-1.31 2.92-2.93V123.71c0-1.583-1.26-2.878-2.92-2.927zM1097.7 302.13H814.05c-1.63 0-4.65-2.242-4.65-3.1V136.28c0-.856 2.244-3.1 3.1-3.1h285.2c.86 0 3.1 2.244 3.1 3.1v162.75c0 .836-2.13 2.99-3.1 3.1zm0-165.85H812.5v162.75h285.2V136.28z"/></g></svg>
