<svg xmlns="http://www.w3.org/2000/svg" fill="none" viewBox="0 0 199 279"><path fill="#2574BB" d="M119.383 189.972c0 11.163-9.051 20.218-20.219 20.218-11.163 0-20.214-9.055-20.214-20.218 0-11.164 9.051-20.219 20.214-20.219 11.168 0 20.219 9.055 20.219 20.219z"/><path fill="#4C4D4F" d="M98.442 134.121c28.377 0 51.92 20.446 56.864 47.395h-11.113l27.03 26.578 27.109-26.578h-13.55C179.602 138.414 142.938 105 98.442 105c-36.089 0-67.044 21.976-80.218 53.273l27.143 10.631c8.92-20.468 29.32-34.783 53.075-34.783zM98.442 249.879c-27.841 0-51.025-19.677-56.565-45.87H54.14l-27.03-26.577L0 204.009h12.291C18.143 246.372 54.47 279 98.442 279c36 0 66.892-21.866 80.121-53.036l-27.152-10.635c-8.974 20.345-29.307 34.55-52.968 34.55z"/><path fill="#fff" fill-rule="evenodd" d="M168.854 31.636c0-4.71-42.123-29.636-47.681-29.636S48.075 25.462 46.178 29.385c-1.896 3.923 49.37 30.818 49.37 30.818" clip-rule="evenodd"/><path stroke="#A50104" stroke-linecap="square" stroke-width="3" d="M168.854 31.636c0-4.71-42.123-29.636-47.681-29.636S48.075 25.462 46.178 29.385c-1.896 3.923 49.37 30.818 49.37 30.818"/><path stroke="#000" stroke-linecap="round" stroke-width="5" d="M171.779 60.693s9.532 1.53 13.472 4.225c3.94 2.696 9.749 11.663 9.749 11.663M131.138 103.063s7.342 5.961 9.215 9.606c1.873 3.645 2.553 13.295 2.553 13.295l10.85-4.19M114.34 116.254s2.294 2.189 5.011 5.257c2.718 3.067 4.807 11.028 4.807 11.028l9.475-6.747"/><path stroke="#A50104" stroke-linecap="square" stroke-width="3" d="M144.796 15.557L68.311 44.73"/><path fill="#fff" stroke="#A50104" stroke-width="3" d="M169.07 32.123zm-.234-.02a4.986 4.986 0 0 0-.484.018c-.631.05-1.516.196-2.648.446-2.256.496-5.316 1.362-8.933 2.5-7.225 2.274-16.546 5.6-25.83 9.129-9.281 3.527-18.501 7.248-25.519 10.309-3.513 1.531-6.455 2.89-8.572 3.97-1.062.542-1.89 1-2.47 1.367a6.747 6.747 0 0 0-.666.467l-.022.083c-.04.161-.084.388-.128.69a32.612 32.612 0 0 0-.237 2.433c-.137 2.025-.224 4.745-.272 7.935-.095 6.375-.032 14.55.096 22.624.127 8.072.318 16.033.478 21.977a2214.622 2214.622 0 0 0 .224 7.864l1.175-.387c1.963-.646 4.775-1.575 8.167-2.705a2330.51 2330.51 0 0 0 25.178-8.542c9.291-3.218 18.751-6.584 26.249-9.449 3.75-1.433 6.995-2.734 9.475-3.825a54.178 54.178 0 0 0 3.081-1.451c.831-.433 1.329-.748 1.562-.943.102-.085.322-.352.592-.975.258-.594.509-1.391.746-2.392.472-1.998.849-4.651 1.131-7.77.562-6.227.734-14.137.604-22.008-.129-7.867-.558-15.652-1.186-21.62-.315-2.989-.677-5.488-1.067-7.303-.196-.91-.391-1.607-.574-2.09a3.85 3.85 0 0 0-.15-.352zm-.106-.187z"/><path fill="#fff" stroke="#A50104" stroke-width="3" d="M94.6 59.712c-.005-.018-.008-.024-.006-.023a2.993 2.993 0 0 0-.167-.2 9.413 9.413 0 0 0-.478-.484c-.41-.39-.965-.877-1.657-1.453-1.382-1.148-3.255-2.602-5.471-4.248-4.43-3.29-10.183-7.309-16.018-11.12-5.842-3.815-11.733-7.4-16.447-9.831-2.363-1.22-4.38-2.123-5.92-2.628-.775-.253-1.37-.386-1.798-.425a2.05 2.05 0 0 0-.381-.006 2.8 2.8 0 0 0-.22.482c-.184.504-.363 1.234-.522 2.2-.317 1.92-.523 4.557-.636 7.701-.226 6.276-.076 14.385.228 22.431.303 8.04.758 15.986 1.137 21.924a956.794 956.794 0 0 0 .63 9.154v.005l1.478 1.049c1.308.925 3.18 2.245 5.434 3.823 4.51 3.156 10.55 7.341 16.672 11.459 6.128 4.122 12.32 8.163 17.141 11.04 2.417 1.442 4.453 2.57 5.95 3.269.568.265 1.027.453 1.379.573.113-.47.227-1.125.336-1.964.238-1.825.434-4.36.586-7.396.304-6.063.431-14.009.401-22.019-.03-8.009-.216-16.057-.535-22.323-.16-3.135-.352-5.805-.572-7.792a30.414 30.414 0 0 0-.341-2.389c-.1-.506-.18-.74-.203-.81zm.13 65.311z"/><path stroke="#000" stroke-linecap="round" stroke-width="5" d="M70.059 84.126s-10.233 1.241-15.029 9.39c-4.796 8.15 2.764 21.516 2.764 21.516"/><path stroke="#000" stroke-linecap="round" stroke-width="4" d="M143.669 66.804v3.667M120.589 74.935V78.6"/><path stroke="#000" stroke-linecap="round" stroke-width="3" d="M142.447 87.064s-3.158 5.045-6.069 5.968-9.578-1.007-9.578-1.007"/></svg>