<svg xmlns="http://www.w3.org/2000/svg" xmlns:xlink="http://www.w3.org/1999/xlink" viewBox="0 0 961.063 429"><defs><linearGradient id="a" x1="464.315" x2="464.315" y1="532.267" y2="108.459" gradientTransform="matrix(1 0 0 -1 .14 777.638)" gradientUnits="userSpaceOnUse"><stop offset=".15" stop-color="#2a4f84"/><stop offset=".388" stop-color="#294e82"/><stop offset="1" stop-color="#172e4e"/></linearGradient><linearGradient xlink:href="#a" id="b" x1="464.315" x2="464.315" y1="532.267" y2="108.459" gradientTransform="matrix(1 0 0 -1 -110.82 852.735)" gradientUnits="userSpaceOnUse"/></defs><path fill="url(#b)" d="M778.763 662.534c0 44.958-36.784 81.742-81.742 81.742H9.97c-44.959 0-81.743-36.784-81.743-81.742V402.21c0-44.958 36.785-81.742 81.743-81.742h687.05c44.958 0 81.742 36.784 81.742 81.742v260.324z" transform="translate(130.531 -317.844)"/><path fill="#f6f6f6" d="M765.57 208.967c35.909 12.563 53.856 34.088 53.856 64.543 0 20.046-7.443 35.957-22.296 47.725-14.838 11.776-36.005 19.084-63.557 19.084s-53.037-7.983-76.51-21.088c.254-6.95 2.09-14.575 5.463-22.852 3.372-8.277 7.363-14.853 11.936-19.656 21.573 11.211 40.346 16.826 56.28 16.826 7.532 0 13.359-1.264 17.415-3.809 4.063-2.536 6.083-5.94 6.083-10.217 0-8.039-6.226-14.051-18.638-18.058l-22.296-8.42c-33.73-12.294-50.596-32.324-50.596-60.147 0-20.316 7.085-36.418 21.255-48.33 14.17-11.895 33.269-22.137 57.283-22.137 11.88 0 24.96 1.67 39.272 5.01 14.297 3.348 26.042 11.594 35.218 16.125.54 7.49-.962 15.712-4.452 24.665-3.515 8.961-7.824 15.306-12.97 19.052-22.684-10.162-41.561-15.243-56.685-15.243-5.415 0-9.494 1.201-12.357 3.618-2.831 2.41-4.223 5.478-4.223 9.224 0 6.417 5.12 11.49 15.386 15.235l25.133 8.85zM586.215 208.967c35.909 12.563 53.848 34.088 53.848 64.543 0 20.046-7.443 35.957-22.272 47.725-14.853 11.776-36.028 19.084-63.572 19.084-27.528 0-53.045-7.983-76.51-21.088.254-6.95 2.09-14.575 5.47-22.852 3.372-8.277 7.347-14.853 11.936-19.656 21.597 11.211 40.362 16.826 56.289 16.826 7.538 0 13.366-1.264 17.406-3.809 4.048-2.536 6.083-5.94 6.083-10.217 0-8.039-6.226-14.051-18.638-18.058l-22.281-8.42c-33.738-12.294-50.611-32.324-50.611-60.147 0-20.316 7.085-36.418 21.27-48.33 14.162-11.895 33.253-22.137 57.267-22.137 11.872 0 24.984 1.67 39.265 5.01 14.313 3.348 26.042 11.594 35.225 16.125.54 7.49-.962 15.712-4.452 24.665-3.507 8.961-7.824 15.306-12.961 19.052-22.694-10.162-41.571-15.243-56.702-15.243-5.407 0-9.502 1.201-12.35 3.618-2.822 2.41-4.23 5.478-4.23 9.224 0 6.417 5.129 11.49 15.395 15.235l25.125 8.85zM455.42 211.797c0-12.293-1.956-23.656-5.868-34.089-3.904-10.432-9.51-19.378-16.794-26.868-7.292-7.49-16.126-13.367-26.511-17.645-10.401-4.27-22.074-10.71-35.027-10.71-15.387 0-28.816 6.965-40.282 12.316-11.466 5.344-20.913 12.691-28.332 22.05-7.435 9.366-12.97 20.388-16.611 33.086-3.642 12.699-5.463 26.534-5.463 41.499 0 15.49 1.479 29.818 4.453 42.914 2.966 13.08 8.03 24.435 15.18 34.073 7.156 9.621 16.467 17.104 27.94 22.439 11.475 5.344 25.716 9.447 42.717 9.447 31.305 0 57.752-9.065 79.348-24.292-2.14-15.49-7.657-27.807-16.523-36.896-11.03 4.142-20.786 7.108-29.246 8.93-8.468 1.798-15.935 2.704-22.383 2.704-12.906 0-22.193-3.284-27.83-9.915-5.631-6.608-8.72-14.424-9.267-26.296h105.265c3.477-11.243 5.234-26.438 5.234-42.747zm-110.9 2.776c.802-13.645 3.292-28.244 7.435-34.255 4.15-6.019 10.504-9.025 19.083-9.025 8.835 0 15.466 3.197 19.879 9.614 4.422 6.417 6.63 19.346 6.63 29.237l.009 4.43H344.52z"/><path fill="#f6f6f6" stroke="#404040" stroke-miterlimit="10" stroke-width="5.151" d="M930.486 241.25c-11.442 9.995-18.082 24.379-18.082 43.185v70.037c0 23.282-7.157 40.99-23.322 53.164-16.15 12.158-34.98 18.177-56.472 18.757l-12.738-.096v-34.899c11.228-3.276 15.839-7.084 20.308-11.41 8.095-7.315 14.297-19.219 14.297-35.75v-56.543c.302-19.219 1.78-34.279 8.778-45.157 7.022-10.878 20.69-20.388 41.006-28.602-22.44-10.273-37.508-23.688-45.19-40.235-4.515-9.828-4.603-23.091-4.603-39.774V82.075c0-17.128-5.606-29.126-12.5-35.973-4.484-4.469-9.701-8.039-22.113-10.734V2.607c15.18.159 22.845-.015 31.687 0 13.613-.111 25.016 7.332 34.939 15.084 10.807 8.5 18.487 19.991 22.988 34.454 2.56 8.357 2.926 16.341 2.926 23.942v59.971c0 21.182 6.258 36.927 16.953 47.208 6.028 5.964 14.536 11.418 29.143 16.341v27.091c-12.944 3.579-21.071 8.429-28.005 14.552zM125.287 2.625v.047c-4.35-.024-8.286-.04-11.434-.032-13.621-.119-25.023 7.324-34.938 15.084-10.822 8.5-20.085 19.593-22.987 34.454-1.654 8.715-1.304 16.332-1.304 23.942v59.971c0 21.175-7.88 36.911-18.567 47.21-6.02 5.962-18.87 11.408-33.485 16.33v27.09c12.953 3.571 25.422 8.405 32.339 14.544 11.45 10.003 19.703 24.396 19.703 43.2v70.037c0 23.267 5.55 40.991 21.7 53.148 16.15 12.15 34.97 18.193 56.464 18.781l14.384-.096v-34.923c-11.22-3.284-17.453-7.093-21.946-11.403-8.087-7.324-12.667-19.219-12.667-35.742v-56.55c-.31-19.235-3.411-34.28-10.416-45.166-7.005-10.862-20.674-20.388-41.014-28.594 22.448-10.28 37.508-23.688 45.189-40.227 4.525-9.836 6.242-23.099 6.242-39.78V82.096c0-17.128 3.975-29.126 10.862-35.98 3.737-3.721 10.384-6.783 19.617-9.263l14.599.102V2.622h-32.34v.003h-.001z"/><path fill="#f6f6f6" d="M259.884 286.764H248.95c-11.887 0-16.364-6.25-16.364-18.805V37.214c0-13.875-4.007-23.616-9.137-29.229-5.13-5.598-14.034-5.542-26.717-5.542h-24.69l-2.91-.056v.238l-.024 34.343v242.156c0 19.258 4.326 33.349 12.022 42.318 7.705 8.953 20.722 13.422 39.074 13.422 12.69 0 27.13-1.336 43.32-4.016.81-2.704 1.217-8.492 1.217-17.374 0-8.906-1.621-17.788-4.858-26.71z"/></svg>
