<svg xmlns="http://www.w3.org/2000/svg" viewBox="0 0 569 379" xmlns:xlink="http://www.w3.org/1999/xlink"><defs><path id="a" d="M0 0h450v260H0z"/><mask id="b" width="450" height="260" x="0" y="0" fill="#fff"><use xlink:href="#a"/></mask></defs><g fill="none" fill-rule="evenodd"><g stroke="#979797" transform="translate(104 106)"><use fill="#7ED321" fill-opacity=".4" stroke-width="10" mask="url(#b)" xlink:href="#a"/><path stroke-width="5" d="M5 70h440M226.5 6v60" stroke-linecap="square"/></g><text fill="#000" font-family=".AppleSystemUIFont" font-size="36" transform="translate(-1 -9)"><tspan x="97" y="35">1</tspan></text><text fill="#000" font-family=".SFNSDisplay, .SF NS Display" font-size="36" transform="translate(-1 -9)"><tspan x="4" y="131">1</tspan></text><path stroke="#000" stroke-width="5" d="M104.5 41.5v46" stroke-linecap="square"/><path fill="#000" d="M118.284 81.142l-14.142 14.142L90 81.142"/><path stroke="#000" stroke-width="5" d="M35.5 108.5h46" stroke-linecap="square"/><path fill="#000" d="M75.142 122.284l14.142-14.142L75.142 94"/><path stroke="#000" stroke-width="5" d="M35.5 364.5h46" stroke-linecap="square"/><path fill="#000" d="M75.142 378.284l14.142-14.142L75.142 350"/><path stroke="#000" stroke-width="5" d="M35.5 176.5h46" stroke-linecap="square"/><path fill="#000" d="M75.142 190.284l14.142-14.142L75.142 162"/><text fill="#000" font-family=".SFNSDisplay, .SF NS Display" font-size="36" transform="translate(-1 -9)"><tspan x="320" y="35">2</tspan></text><text fill="#000" font-family=".SFNSDisplay, .SF NS Display" font-size="36" transform="translate(-1 -9)"><tspan x="0" y="199">2</tspan></text><g><path stroke="#000" stroke-width="5" d="M329.5 41.5v46" stroke-linecap="square"/><path fill="#000" d="M343.284 81.142l-14.142 14.142L315 81.142"/></g><text fill="#000" font-family=".SFNSDisplay, .SF NS Display" font-size="36" transform="translate(-1 -9)"><tspan x="545" y="35">3</tspan></text><text fill="#000" font-family=".SFNSDisplay, .SF NS Display" font-size="36" transform="translate(-1 -9)"><tspan x="4" y="387">3</tspan></text><g><path stroke="#000" stroke-width="5" d="M554.5 41.5v46" stroke-linecap="square"/><path fill="#000" d="M568.284 81.142l-14.142 14.142L540 81.142"/></g></g></svg>
