<svg xmlns="http://www.w3.org/2000/svg" viewBox="0 0 692 528" xmlns:xlink="http://www.w3.org/1999/xlink"><defs><path id="a" d="M0 0h454v302H0z"/><mask id="b" width="464" height="312" x="-5" y="-5"><path fill="#fff" d="M-5-5h464v312H-5z"/><use xlink:href="#a"/></mask></defs><g fill="none" fill-rule="evenodd"><g transform="translate(118.435 112)"><use stroke="#223843" stroke-width="10" mask="url(#b)" stroke-dasharray="9" xlink:href="#a"/><path stroke="#223843" stroke-width="5" d="M152.5 0v302m152-300v302" stroke-linecap="square" stroke-dasharray="10"/><path fill="#D77A61" fill-opacity=".75" d="M307 192h70v110h-70zm-115-37h70v70h-70zm15-140h40v120h-40zM354.133 0H454v120h-99.867zM0 0h150v150H0zm0 232h150v70H0z"/><path stroke="#223843" stroke-width="5" d="M0 152.5h454" stroke-linecap="square" stroke-dasharray="10"/></g><path stroke="#FFD400" stroke-width="8" d="M4.5 4h683v519.262H4.5z"/><path stroke="#223843" stroke-width="10" d="M346.213 44.74v30" stroke-linecap="square"/><path fill="#223843" d="M358.65 78.574l-12.437 29.99-12.436-29.99m24.873-37.336l-12.437-29.99-12.436 29.99"/><path stroke="#223843" stroke-width="10" d="M346.713 452.74v30" stroke-linecap="square"/><path fill="#223843" d="M359.15 486.574l-12.437 29.99-12.436-29.99m24.873-37.336l-12.437-29.99-12.436 29.99"/><path stroke="#223843" stroke-width="10" d="M646.26 264.713h-30" stroke-linecap="square"/><path fill="#223843" d="M612.426 277.15l-29.99-12.437 29.99-12.436m37.336 24.873l29.99-12.437-29.99-12.436"/><path stroke="#223843" stroke-width="10" d="M75.13 264.713h-30" stroke-linecap="square"/><path fill="#223843" d="M41.296 277.15l-29.99-12.437 29.99-12.436m37.336 24.873l29.99-12.437-29.99-12.436"/></g></svg>
