<svg xmlns="http://www.w3.org/2000/svg" viewBox="0 0 381 414"><g fill="none" fill-rule="evenodd"><g transform="rotate(11 -728.024 628.877)"><path fill="#FFF" stroke="#D77A61" stroke-linecap="square" stroke-width="3" d="M128.729 41.031c.823-.879-24.198-38.01-28.176-39.385-3.979-1.374-86.046-1.374-87.532 0-.72.666 9.414 14.452 12.237 19.373C28.26 26.254 35.51 41.03 36.169 41.03c1.278 0 91.737.879 92.56 0z"/><path stroke="#223843" stroke-linecap="round" stroke-width="5" d="M131.619 66.619c5.062-1.837 8.16-4.644 9.295-8.42 1.134-3.776 1.134-9.368 0-16.777M68.373 101.98c-3.575 2.252-5.873 4.372-6.895 6.36-1.022 1.988-1.35 5.306-.987 9.955l-7.646 2.822M88.119 101.98c3.574 2.252 5.873 4.372 6.894 6.36 1.022 1.988 1.35 5.306.987 9.955l7.646 2.822"/><path fill="#FFF" stroke="#D77A61" stroke-width="3" d="M128.77 106.497c.357-.363.887-4.587 1.131-10.772.236-5.97.276-13.897.14-22.649-.122-7.87-.382-15.968-.707-22.294-.159-3.076-.327-5.618-.492-7.424a38.38 38.38 0 0 0-.224-1.99c-.073-.006-.145-.017-.182-.02a67.357 67.357 0 0 0-3.037-.21c-2.561-.134-6.198-.258-10.693-.366-8.758-.21-20.384-.353-32.103-.394-12.28-.043-23.73.028-32.22.21-4.577.1-8.239.23-10.833.388-1.339.082-2.383.172-3.11.266-.353.047-.73.138-.498-.097.166-.168.099.029.042.295-.107.507-.219 1.231-.33 2.15-.223 1.83-.44 4.385-.64 7.485-.4 6.237-.698 14.297-.819 22.245-.13 8.614-.046 16.52.267 22.477.321 6.112.965 10.249 1.39 10.612 1.337 1.144 22.419 2.139 46.736 2.139 11.73 0 23.006-.219 31.507-.623 4.468-.213 8.097-.473 10.712-.773 1.334-.153 2.391-.315 3.145-.482.551-.122.893-.25.819-.173z"/><path stroke="#223843" stroke-linecap="round" stroke-width="4" d="M69.373 67.619v4.5M94.882 67.619v4.5"/><path fill="#FFF" stroke="#D77A61" stroke-linecap="square" stroke-width="3" d="M13.047 3.287c-1.457.626-1.457 22.82 0 66.578 14.283 24.988 21.75 37.008 22.4 36.058.976-1.423 0-12.136 0-30.174 0-12.025.315-23.541.944-34.548C22.285 15.299 14.503 2.66 13.047 3.287z"/><path stroke="#D77A61" stroke-linecap="square" stroke-width="3" d="M24.361 20.164h90.528"/><ellipse cx="82.127" cy="85.302" fill="#FFF" stroke="#223843" stroke-width="3" rx="6.187" ry="4.763"/><path stroke="#223843" stroke-linecap="round" stroke-width="5" d="M23.226 60.523c-5.508-2.048-9.49-4.724-11.943-8.03C8.83 49.19 5.296 44.647.683 38.867"/></g><g stroke="#223843" stroke-width="6"><path stroke-linecap="round" d="M138.51 135.91l-29.115 19.41 6.835 27.05M191.293 136.203l29.115 19.41-6.834 27.05"/><path fill="#FFF" d="M139.215 100.47h51.373v35.31h-51.373z"/><path stroke-linecap="square" d="M164.328 50.998v44.81"/><path fill="#FFF" d="M164.902 50.59c26.141 0 47.333-21.192 47.333-47.333h-94.666c0 26.141 21.191 47.333 47.333 47.333z"/></g><path fill="#FFF" stroke="#D77A61" stroke-linecap="square" stroke-width="3" d="M364.74 330.719c.822-.88-24.198-38.01-28.177-39.385-3.978-1.374-86.045-1.374-87.53 0-.72.666 9.413 14.451 12.235 19.372 3.004 5.235 10.254 20.013 10.912 20.013 1.277 0 91.737.878 92.56 0z"/><path stroke="#223843" stroke-linecap="round" stroke-width="5" d="M367.63 356.306c5.062-1.837 8.16-4.643 9.294-8.42 1.134-3.776 1.134-9.368 0-16.777M304.383 391.668c-3.574 2.251-5.873 4.371-6.894 6.36-1.022 1.988-1.35 5.306-.987 9.954l-7.646 2.823M324.13 391.668c3.574 2.251 5.872 4.371 6.894 6.36 1.022 1.988 1.35 5.306.987 9.954l7.646 2.823"/><path fill="#FFF" stroke="#D77A61" stroke-width="3" d="M364.782 396.184c.355-.362.886-4.586 1.13-10.772.236-5.97.276-13.896.14-22.648-.122-7.871-.382-15.969-.708-22.295-.158-3.076-.326-5.617-.492-7.424a38.38 38.38 0 0 0-.223-1.99c-.074-.005-.145-.016-.182-.02a67.357 67.357 0 0 0-3.037-.21c-2.561-.134-6.198-.258-10.693-.366-8.759-.21-20.384-.353-32.103-.394-12.28-.042-23.73.028-32.221.211-4.576.099-8.238.229-10.832.388-1.339.082-2.383.171-3.11.266-.353.046-.731.137-.498-.097.166-.168.099.028.042.295-.107.506-.219 1.23-.33 2.149-.224 1.831-.441 4.386-.64 7.486-.4 6.237-.698 14.297-.82 22.244-.13 8.614-.046 16.52.268 22.477.321 6.113.965 10.25 1.39 10.613 1.337 1.144 22.419 2.138 46.736 2.138 11.729 0 23.006-.218 31.506-.623 4.468-.212 8.097-.472 10.712-.773 1.335-.153 2.392-.315 3.146-.482.551-.122.893-.249.819-.173z"/><path stroke="#223843" stroke-linecap="round" stroke-width="4" d="M307.223 373.355c4.818 3.098 8.513 4.647 11.085 4.647 2.572 0 6.267-1.55 11.085-4.647M305.383 356.306v4.5M330.893 356.306v4.5"/><path fill="#FFF" stroke="#D77A61" stroke-linecap="square" stroke-width="3" d="M249.058 292.975c-1.457.626-1.457 22.819 0 66.578 14.282 24.988 21.75 37.007 22.4 36.058.976-1.424 0-12.137 0-30.174 0-12.025.314-23.542.943-34.549-14.106-25.902-21.887-38.54-23.343-37.913z"/><path stroke="#D77A61" stroke-linecap="square" stroke-width="3" d="M260.372 309.852h90.527"/><path stroke="#223843" stroke-linecap="round" stroke-width="5" d="M259.237 350.21c-5.508-2.048-9.49-4.724-11.943-8.029-2.454-3.304-5.987-7.847-10.6-13.628"/><g><path fill="#FFF" stroke="#D77A61" stroke-linecap="square" stroke-width="3" d="M131.07 330.719c.822-.88-24.198-38.01-28.176-39.385-3.979-1.374-86.046-1.374-87.532 0-.72.666 9.414 14.451 12.237 19.372 3.003 5.235 10.253 20.013 10.911 20.013 1.278 0 91.737.878 92.56 0z"/><path stroke="#223843" stroke-linecap="round" stroke-width="5" d="M133.96 356.306c5.062-1.837 8.16-4.643 9.295-8.42 1.134-3.776 1.134-9.368 0-16.777M70.714 391.668c-3.575 2.251-5.873 4.371-6.895 6.36-1.022 1.988-1.35 5.306-.987 9.954l-7.646 2.823M90.46 391.668c3.574 2.251 5.872 4.371 6.894 6.36 1.022 1.988 1.35 5.306.987 9.954l7.646 2.823"/><path fill="#FFF" stroke="#D77A61" stroke-width="3" d="M131.112 396.184c.356-.362.886-4.586 1.13-10.772.236-5.97.276-13.896.14-22.648-.122-7.871-.382-15.969-.707-22.295-.159-3.076-.327-5.617-.492-7.424a38.38 38.38 0 0 0-.224-1.99c-.073-.005-.145-.016-.182-.02a67.357 67.357 0 0 0-3.037-.21c-2.561-.134-6.198-.258-10.693-.366-8.758-.21-20.384-.353-32.103-.394-12.28-.042-23.73.028-32.22.211-4.577.099-8.239.229-10.833.388-1.339.082-2.383.171-3.11.266-.353.046-.73.137-.498-.097.166-.168.099.028.042.295-.107.506-.219 1.23-.33 2.149-.223 1.831-.441 4.386-.64 7.486-.4 6.237-.698 14.297-.819 22.244-.13 8.614-.046 16.52.267 22.477.321 6.113.965 10.25 1.39 10.613 1.337 1.144 22.419 2.138 46.736 2.138 11.73 0 23.006-.218 31.506-.623 4.468-.212 8.098-.472 10.712-.773 1.335-.153 2.392-.315 3.146-.482.551-.122.893-.249.819-.173z"/><path stroke="#223843" stroke-linecap="round" stroke-width="4" d="M73.553 373.355c4.819 3.098 8.514 4.647 11.085 4.647 2.572 0 6.267-1.55 11.085-4.647M71.714 356.306v4.5M97.223 356.306v4.5"/><path fill="#FFF" stroke="#D77A61" stroke-linecap="square" stroke-width="3" d="M15.388 292.975c-1.457.626-1.457 22.819 0 66.578 14.283 24.988 21.75 37.007 22.4 36.058.976-1.424 0-12.137 0-30.174 0-12.025.315-23.542.944-34.549-14.107-25.902-21.888-38.54-23.344-37.913z"/><path stroke="#D77A61" stroke-linecap="square" stroke-width="3" d="M26.702 309.852h90.528"/><path stroke="#223843" stroke-linecap="round" stroke-width="5" d="M25.567 350.21c-5.508-2.048-9.49-4.724-11.943-8.029-2.454-3.304-5.987-7.847-10.6-13.628"/></g></g></svg>
