<svg xmlns="http://www.w3.org/2000/svg" viewBox="0 0 235 244"><g fill="none" fill-rule="evenodd"><text fill="#223843" font-family="SetFiretotheRain, Set Fire to the Rain" font-size="24" transform="rotate(-17 35.724 103.73)"><tspan x="26.868" y="70.577">vertical-</tspan> <tspan x="46.18" y="94.577">align</tspan></text><path fill="#FFF" stroke="#D77A61" stroke-linecap="square" stroke-width="3" d="M219.25 161.031c.823-.879-24.197-38.01-28.176-39.385-3.978-1.374-86.045-1.374-87.53 0-.72.666 9.413 14.452 12.235 19.373 3.004 5.235 10.254 20.012 10.912 20.012 1.277 0 91.737.879 92.56 0z"/><path stroke="#223843" stroke-linecap="round" stroke-width="5" d="M222.14 186.619c5.063-1.837 8.161-4.644 9.295-8.42 1.134-3.776 1.134-9.368 0-16.777M158.894 221.98c-3.574 2.252-5.873 4.372-6.894 6.36-1.022 1.988-1.35 5.306-.987 9.955l-7.646 2.822M178.64 221.98c3.575 2.252 5.873 4.372 6.895 6.36 1.022 1.988 1.35 5.306.987 9.955l7.646 2.822"/><path fill="#FFF" stroke="#D77A61" stroke-width="3" d="M219.293 226.497c.355-.363.886-4.587 1.13-10.772.236-5.97.276-13.897.14-22.649-.122-7.87-.382-15.968-.708-22.294-.158-3.076-.326-5.618-.492-7.424a38.38 38.38 0 0 0-.223-1.99c-.074-.006-.145-.017-.182-.02a67.357 67.357 0 0 0-3.037-.21c-2.561-.134-6.198-.258-10.694-.366-8.758-.21-20.384-.353-32.102-.394-12.28-.043-23.73.028-32.221.21-4.576.1-8.238.23-10.832.388-1.339.082-2.383.172-3.11.266-.353.047-.731.138-.498-.097.166-.168.099.029.042.295-.107.507-.219 1.231-.33 2.15-.224 1.83-.441 4.385-.64 7.485-.4 6.237-.698 14.297-.82 22.245-.13 8.614-.046 16.52.268 22.477.321 6.112.965 10.249 1.39 10.612 1.337 1.144 22.418 2.139 46.736 2.139 11.729 0 23.006-.219 31.506-.623 4.468-.213 8.097-.473 10.712-.773 1.335-.153 2.392-.315 3.146-.482.551-.122.893-.25.819-.173z"/><path stroke="#223843" stroke-linecap="round" stroke-width="4" d="M161.734 203.668c4.818 3.097 8.513 4.646 11.085 4.646 2.572 0 6.267-1.549 11.085-4.646M159.894 186.619v4.5M185.404 186.619v4.5"/><path fill="#FFF" stroke="#D77A61" stroke-linecap="square" stroke-width="3" d="M103.569 123.287c-1.457.626-1.457 22.82 0 66.578 14.282 24.988 21.75 37.008 22.4 36.058.976-1.423 0-12.136 0-30.174 0-12.025.314-23.541.943-34.548-14.106-25.902-21.887-38.54-23.343-37.914z"/><path stroke="#D77A61" stroke-linecap="square" stroke-width="3" d="M114.883 140.164h90.527"/><path stroke="#223843" stroke-linecap="round" stroke-width="5" d="M113.748 180.523c-5.508-2.048-9.49-4.724-11.943-8.03-2.454-3.304-5.988-7.847-10.6-13.627"/><path stroke="#223843" stroke-linecap="round" stroke-opacity=".797" stroke-width="9" d="M79.79 118.516c.12.39.245.795.371 1.21l12.311 40.267c.97 3.169 1.716 5.75 1.668 5.764-.048.015-.872-2.542-1.84-5.711l-12.312-40.267-.368-1.211c-30.58 9.248-62.9-7.984-72.247-38.558-9.365-30.63 7.875-63.054 38.506-72.418 30.63-9.365 63.053 7.874 72.418 38.505 9.365 30.63-7.875 63.054-38.506 72.419zM89.42 12.321L35.725 113.31 89.42 12.32z"/></g></svg>
