<svg xmlns="http://www.w3.org/2000/svg" viewBox="0 0 236 244"><g fill="none" fill-rule="evenodd"><path fill="#FFF" stroke="#D77A61" stroke-linecap="square" stroke-width="3" d="M219.768 161.031c.823-.879-24.198-38.01-28.176-39.385-3.979-1.374-86.046-1.374-87.531 0-.72.666 9.413 14.452 12.236 19.373 3.003 5.235 10.253 20.012 10.911 20.012 1.278 0 91.738.879 92.56 0z"/><path stroke="#223843" stroke-linecap="round" stroke-width="5" d="M222.658 186.619c5.062-1.837 8.16-4.644 9.295-8.42 1.134-3.776 1.134-9.368 0-16.777M159.412 221.98c-3.575 2.252-5.873 4.372-6.895 6.36-1.022 1.988-1.35 5.306-.987 9.955l-7.646 2.822M179.158 221.98c3.574 2.252 5.873 4.372 6.894 6.36 1.022 1.988 1.35 5.306.987 9.955l7.646 2.822"/><path fill="#FFF" stroke="#D77A61" stroke-width="3" d="M219.81 226.497c.356-.363.886-4.587 1.13-10.772.236-5.97.276-13.897.14-22.649-.122-7.87-.382-15.968-.707-22.294-.159-3.076-.327-5.618-.492-7.424a38.38 38.38 0 0 0-.224-1.99c-.073-.006-.144-.017-.182-.02a67.357 67.357 0 0 0-3.037-.21c-2.56-.134-6.198-.258-10.693-.366-8.758-.21-20.384-.353-32.103-.394-12.28-.043-23.73.028-32.22.21-4.577.1-8.239.23-10.833.388-1.338.082-2.383.172-3.11.266-.353.047-.73.138-.498-.097.167-.168.099.029.043.295-.108.507-.22 1.231-.331 2.15-.223 1.83-.44 4.385-.64 7.485-.399 6.237-.698 14.297-.819 22.245-.13 8.614-.046 16.52.267 22.477.322 6.112.966 10.249 1.39 10.612 1.337 1.144 22.419 2.139 46.736 2.139 11.73 0 23.007-.219 31.507-.623 4.468-.213 8.097-.473 10.712-.773 1.334-.153 2.391-.315 3.145-.482.552-.122.893-.25.819-.173z"/><path stroke="#223843" stroke-linecap="round" stroke-width="4" d="M162.252 203.668c4.818 3.097 8.513 4.646 11.084 4.646 2.572 0 6.267-1.549 11.085-4.646M160.412 186.619v4.5M185.921 186.619v4.5"/><path fill="#FFF" stroke="#D77A61" stroke-linecap="square" stroke-width="3" d="M104.086 123.287c-1.456.626-1.456 22.82 0 66.578 14.283 24.988 21.75 37.008 22.4 36.058.976-1.423 0-12.136 0-30.174 0-12.025.315-23.541.944-34.548-14.106-25.902-21.888-38.54-23.344-37.914z"/><path stroke="#D77A61" stroke-linecap="square" stroke-width="3" d="M115.4 140.164h90.528"/><path stroke="#223843" stroke-linecap="round" stroke-width="5" d="M114.266 180.523c-5.509-2.048-9.49-4.724-11.944-8.03-2.454-3.304-5.987-7.847-10.6-13.627"/><text fill="#223843" font-family="SetFiretotheRain, Set Fire to the Rain" font-size="32" transform="rotate(-17 34.744 99.1)"><tspan x="40.762" y="67.571">float</tspan> <tspan x="38.762" y="103.571">clear</tspan></text><path stroke="#223843" stroke-linecap="round" stroke-opacity=".797" stroke-width="9" d="M80.307 118.516l.372 1.21 12.31 40.267c.97 3.169 1.716 5.75 1.668 5.764-.047.015-.871-2.542-1.84-5.711l-12.311-40.267-.368-1.211c-30.58 9.248-62.9-7.984-72.248-38.558-9.364-30.63 7.875-63.054 38.506-72.418 30.63-9.365 63.054 7.874 72.418 38.505 9.365 30.63-7.874 63.054-38.505 72.419zm9.632-106.195L36.242 113.31 89.94 12.32z"/></g></svg>
