<svg xmlns="http://www.w3.org/2000/svg" fill="none" viewBox="0 0 563 291"><rect width="558" height="249" x="2.5" y="39.5" stroke="#000" stroke-linecap="round" stroke-linejoin="bevel" stroke-width="5" rx="5.5"/><rect width="156" height="136" x="26.5" y="107.5" stroke="#000" stroke-linecap="round" stroke-linejoin="bevel" stroke-width="5" rx="5.5"/><path fill="#000" d="M7.04 18h2.855v-7.248h5.232l.36-2.16H9.895v-4.68h6.792v-2.16H7.04V18Zm14.142.096c1.536 0 2.52-.432 2.52-.432l-.336-1.728s-.624.192-1.272.192c-.552 0-.84-.264-.84-.984V.576l-2.736.504v14.328c0 1.56.864 2.688 2.664 2.688Zm3.369-5.784c0 3.504 1.488 5.856 5.184 5.856 2.424 0 4.512-1.104 4.512-1.104l-.72-1.704s-2.016.84-3.408.84c-1.896 0-2.496-1.224-2.664-2.712 4.224-.048 6.888-2.016 6.888-4.32 0-1.92-1.152-3.408-4.008-3.408-3.264 0-5.784 2.28-5.784 6.552Zm5.568-4.68c.888 0 1.488.6 1.488 1.536 0 1.128-1.176 2.472-4.224 2.592.048-1.968.624-4.128 2.736-4.128ZM38.007 18l1.8-3.072.936-1.776.936 1.752L43.455 18h3.12l-3.888-6.312c.672-.744 1.44-1.728 1.968-2.688.96-1.776 1.296-2.976 1.296-2.952h-2.832c0-.024-.312 1.104-1.08 2.52a23.77 23.77 0 0 1-1.056 1.704c-.312-.672-.672-1.44-.864-1.752l-1.512-2.472h-3.168l3.504 5.616L34.935 18h3.072Zm8.339 3.024h2.856L56.834.504h-2.856l-7.632 20.52Zm19.061 2.328c1.968-.984 4.272-2.112 4.272-6v-7.224h-2.808v2.184c0 2.28-1.728 3.648-3.216 3.648-2.28 0-3.168-2.472-3.168-6.096 0-3.384.936-6.12 3.672-6.12 1.248 0 2.544.504 3.36 1.32l1.392-1.824c-.816-.864-2.28-1.704-4.416-1.704-4.848 0-7.104 3.576-7.104 8.568 0 4.848 1.704 8.088 5.712 8.088 1.848 0 3.336-.744 4.056-2.088v.336c0 1.56.024 3.6-2.856 5.016l1.104 1.896ZM77.685 8.544c.792 0 1.2.264 1.176.264l.768-2.664c.024 0-.744-.264-1.488-.264-1.536 0-2.808.768-3.456 2.616-.288-1.656-1.152-2.52-1.152-2.52l-2.16.864s1.176 1.296 1.176 5.112V18h2.736v-6.576c0-1.704 1.248-2.88 2.4-2.88Zm6.028 9.552c1.128 0 1.704-.336 1.704-.336l-.288-1.728s-.384.048-.624.048c-.456 0-.672-.216-.672-.936V6.048h-2.736v9.336c0 1.584.936 2.712 2.616 2.712ZM82.513.72c-1.104 0-1.68.72-1.68 1.704 0 .888.576 1.608 1.608 1.608 1.08 0 1.656-.72 1.656-1.68S83.52.72 82.513.72Zm15.62 16.608c-.072-.168-1.152-1.296-1.152-5.112V1.08L94.245.6v5.424c-.648-.096-1.32-.168-1.896-.168-3.408 0-5.736 2.688-5.736 6.336 0 3.6 1.416 5.952 4.416 5.952 2.04 0 3.216-.984 3.744-2.904.144 1.92 1.128 2.856 1.224 2.952l2.136-.864ZM91.485 16.2c-1.752 0-1.92-2.016-1.92-4.248 0-2.424.696-4.176 3.096-4.176.504 0 1.272.168 1.584.264v3.456c0 2.352-1.176 4.704-2.76 4.704Zm22.849-8.808c-.72-1.008-1.752-1.632-3.24-1.632-3.096 0-5.496 2.328-5.496 6.552 0 3.504 1.536 5.856 5.232 5.856 2.016 0 3.216-.648 3.384-.72l-.672-1.728c-.312.096-1.464.48-2.352.48-1.128 0-2.64-.504-2.64-4.248s1.536-4.08 2.52-4.08c.816 0 1.248.456 1.728.984l1.536-1.464Zm6.345-1.632c-3.672 0-5.472 2.76-5.472 6.384 0 3.792 1.584 6.096 5.256 6.096s5.472-2.76 5.472-6.36c0-3.816-1.584-6.12-5.256-6.12Zm-.24 2.016c2.064 0 2.544 1.944 2.544 4.344 0 2.304-.432 4.104-2.28 4.104-2.064 0-2.544-1.944-2.544-4.32 0-2.328.432-4.128 2.28-4.128ZM138.478 18V9.984c0-2.52-1.032-4.128-3.504-4.128-1.728 0-3.432.792-4.272 2.712-.264-1.704-1.176-2.592-1.176-2.592l-2.16.864s1.176 1.296 1.176 5.112V18h2.736v-5.928c0-2.52 1.464-4.056 2.904-4.056 1.152 0 1.584.888 1.584 2.232V18h2.712Zm1.7-10.008h2.16v7.416c0 1.968 1.296 2.688 3.072 2.688 1.8 0 3.096-.552 3.072-.552l-.456-1.8s-.96.336-1.872.336c-.552 0-1.08-.168-1.08-.984V7.992h2.616l.336-1.944h-2.952V2.736l-2.256.504-.48 2.808h-2.16v1.944Zm19.288-1.44c-.216-.048-2.712-.696-4.632-.696-3.408 0-5.736 2.688-5.736 6.336 0 3.6 1.416 5.952 4.416 5.952 2.04 0 3.216-.984 3.744-2.904.12 1.944 1.224 2.952 1.224 2.952l2.136-.864s-1.152-1.32-1.152-5.112V6.552Zm-5.496 9.672c-1.752 0-1.92-2.04-1.92-4.272 0-2.424.696-4.176 3.096-4.176.504 0 1.272.168 1.584.264v3.456c0 2.352-1.176 4.728-2.76 4.728Zm11.235 1.872c1.128 0 1.704-.336 1.704-.336l-.288-1.728s-.384.048-.624.048c-.456 0-.672-.216-.672-.936V6.048h-2.736v9.336c0 1.584.936 2.712 2.616 2.712ZM164.005.72c-1.104 0-1.68.72-1.68 1.704 0 .888.576 1.608 1.608 1.608 1.08 0 1.656-.72 1.656-1.68S165.013.72 164.005.72ZM178.978 18V9.984c0-2.52-1.032-4.128-3.504-4.128-1.728 0-3.432.792-4.272 2.712-.264-1.704-1.176-2.592-1.176-2.592l-2.16.864s1.176 1.296 1.176 5.112V18h2.736v-5.928c0-2.52 1.464-4.056 2.904-4.056 1.152 0 1.584.888 1.584 2.232V18h2.712Zm2.3-5.688c0 3.504 1.488 5.856 5.184 5.856 2.424 0 4.512-1.104 4.512-1.104l-.72-1.704s-2.016.84-3.408.84c-1.896 0-2.496-1.224-2.664-2.712 4.224-.048 6.888-2.016 6.888-4.32 0-1.92-1.152-3.408-4.008-3.408-3.264 0-5.784 2.28-5.784 6.552Zm5.568-4.68c.888 0 1.488.6 1.488 1.536 0 1.128-1.176 2.472-4.224 2.592.048-1.968.624-4.128 2.736-4.128Zm11.847.912c.792 0 1.2.264 1.176.264l.768-2.664c.024 0-.744-.264-1.488-.264-1.536 0-2.808.768-3.456 2.616-.288-1.656-1.152-2.52-1.152-2.52l-2.16.864s1.176 1.296 1.176 5.112V18h2.736v-6.576c0-1.704 1.248-2.88 2.4-2.88ZM30.922 90h2.856v-7.248h5.232l.36-2.16h-5.592v-4.68h6.792v-2.16h-9.648V90Zm14.143.096c1.536 0 2.52-.432 2.52-.432l-.336-1.728s-.624.192-1.272.192c-.552 0-.84-.264-.84-.984V72.576l-2.736.504v14.328c0 1.56.864 2.688 2.664 2.688Zm3.369-5.784c0 3.504 1.488 5.856 5.184 5.856 2.424 0 4.512-1.104 4.512-1.104l-.72-1.704s-2.016.84-3.408.84c-1.896 0-2.496-1.224-2.664-2.712 4.224-.048 6.888-2.016 6.888-4.32 0-1.92-1.152-3.408-4.008-3.408-3.264 0-5.784 2.28-5.784 6.552Zm5.568-4.68c.888 0 1.488.6 1.488 1.536 0 1.128-1.176 2.472-4.224 2.592.048-1.968.624-4.128 2.736-4.128ZM61.889 90l1.8-3.072.937-1.776.935 1.752L67.337 90h3.12l-3.887-6.312c.672-.744 1.44-1.728 1.968-2.688.96-1.776 1.296-2.976 1.296-2.952H67c0-.024-.312 1.104-1.08 2.52a23.77 23.77 0 0 1-1.056 1.704c-.311-.672-.671-1.44-.864-1.752l-1.512-2.472h-3.167l3.503 5.616L58.817 90h3.072Zm8.34 3.024h2.856l7.632-20.52H77.86l-7.632 20.52Zm19.061 2.328c1.968-.984 4.272-2.112 4.272-6v-7.224h-2.808v2.184c0 2.28-1.728 3.648-3.216 3.648-2.28 0-3.168-2.472-3.168-6.096 0-3.384.936-6.12 3.672-6.12 1.248 0 2.544.504 3.36 1.32l1.392-1.824c-.816-.864-2.28-1.704-4.416-1.704-4.848 0-7.104 3.576-7.104 8.568 0 4.848 1.704 8.088 5.712 8.088 1.848 0 3.336-.744 4.056-2.088v.336c0 1.56.024 3.6-2.856 5.016l1.104 1.896Zm12.278-14.808c.792 0 1.2.264 1.176.264l.768-2.664c.024 0-.744-.264-1.488-.264-1.536 0-2.808.768-3.456 2.616-.288-1.656-1.152-2.52-1.152-2.52l-2.16.864s1.176 1.296 1.176 5.112V90h2.736v-6.576c0-1.704 1.248-2.88 2.4-2.88Zm6.028 9.552c1.128 0 1.704-.336 1.704-.336l-.288-1.728s-.384.048-.624.048c-.456 0-.672-.216-.672-.936v-9.096h-2.736v9.336c0 1.584.936 2.712 2.616 2.712Zm-1.2-17.376c-1.104 0-1.68.72-1.68 1.704 0 .888.576 1.608 1.608 1.608 1.08 0 1.656-.72 1.656-1.68s-.576-1.632-1.584-1.632Zm15.62 16.608c-.072-.168-1.152-1.296-1.152-5.112V73.08l-2.736-.48v5.424c-.648-.096-1.32-.168-1.896-.168-3.408 0-5.736 2.688-5.736 6.336 0 3.6 1.416 5.952 4.416 5.952 2.04 0 3.216-.984 3.744-2.904.144 1.92 1.128 2.856 1.224 2.952l2.136-.864Zm-6.648-1.128c-1.752 0-1.92-2.016-1.92-4.248 0-2.424.696-4.176 3.096-4.176.504 0 1.272.168 1.584.264v3.456c0 2.352-1.176 4.704-2.76 4.704Zm17.353 1.896c1.128 0 1.704-.336 1.704-.336l-.288-1.728s-.384.048-.624.048c-.456 0-.672-.216-.672-.936v-9.096h-2.736v9.336c0 1.584.936 2.712 2.616 2.712Zm-1.2-17.376c-1.104 0-1.68.72-1.68 1.704 0 .888.576 1.608 1.608 1.608 1.08 0 1.656-.72 1.656-1.68s-.576-1.632-1.584-1.632Zm3.407 7.272h2.16v7.416c0 1.968 1.296 2.688 3.072 2.688 1.8 0 3.096-.552 3.072-.552l-.456-1.8s-.96.336-1.872.336c-.552 0-1.08-.168-1.08-.984v-7.104h2.616l.336-1.944h-2.952v-3.312l-2.256.504-.48 2.808h-2.16v1.944Zm8.92 4.32c0 3.504 1.488 5.856 5.184 5.856 2.424 0 4.512-1.104 4.512-1.104l-.72-1.704s-2.016.84-3.408.84c-1.896 0-2.496-1.224-2.664-2.712 4.224-.048 6.888-2.016 6.888-4.32 0-1.92-1.152-3.408-4.008-3.408-3.264 0-5.784 2.28-5.784 6.552Zm5.568-4.68c.888 0 1.488.6 1.488 1.536 0 1.128-1.176 2.472-4.224 2.592.048-1.968.624-4.128 2.736-4.128ZM172.328 90v-8.016c0-2.472-.792-4.128-3.288-4.128-1.488 0-2.952.648-3.816 2.232-.432-1.296-1.296-2.232-2.928-2.232-1.608 0-3.216.792-4.008 2.712-.288-1.704-1.176-2.592-1.176-2.592l-2.16.864s1.176 1.296 1.176 5.112V90h2.736v-5.952c0-2.52 1.32-4.056 2.616-4.056 1.032 0 1.392.84 1.392 2.184V90h2.712v-6.384c0-2.208 1.44-3.624 2.64-3.624 1.032 0 1.392.84 1.392 2.184V90h2.712ZM202.922 90h2.856v-7.248h5.232l.36-2.16h-5.592v-4.68h6.792v-2.16h-9.648V90Zm14.143.096c1.536 0 2.52-.432 2.52-.432l-.336-1.728s-.624.192-1.272.192c-.552 0-.84-.264-.84-.984V72.576l-2.736.504v14.328c0 1.56.864 2.688 2.664 2.688Zm3.369-5.784c0 3.504 1.488 5.856 5.184 5.856 2.424 0 4.512-1.104 4.512-1.104l-.72-1.704s-2.016.84-3.408.84c-1.896 0-2.496-1.224-2.664-2.712 4.224-.048 6.888-2.016 6.888-4.32 0-1.92-1.152-3.408-4.008-3.408-3.264 0-5.784 2.28-5.784 6.552Zm5.568-4.68c.888 0 1.488.6 1.488 1.536 0 1.128-1.176 2.472-4.224 2.592.048-1.968.624-4.128 2.736-4.128ZM233.89 90l1.8-3.072.936-1.776.936 1.752L239.338 90h3.12l-3.888-6.312c.672-.744 1.44-1.728 1.968-2.688.96-1.776 1.296-2.976 1.296-2.952h-2.832c0-.024-.312 1.104-1.08 2.52a23.77 23.77 0 0 1-1.056 1.704c-.312-.672-.672-1.44-.864-1.752l-1.512-2.472h-3.168l3.504 5.616L230.817 90h3.073Zm8.339 3.024h2.856l7.632-20.52h-2.856l-7.632 20.52Zm19.061 2.328c1.968-.984 4.272-2.112 4.272-6v-7.224h-2.808v2.184c0 2.28-1.728 3.648-3.216 3.648-2.28 0-3.168-2.472-3.168-6.096 0-3.384.936-6.12 3.672-6.12 1.248 0 2.544.504 3.36 1.32l1.392-1.824c-.816-.864-2.28-1.704-4.416-1.704-4.848 0-7.104 3.576-7.104 8.568 0 4.848 1.704 8.088 5.712 8.088 1.848 0 3.336-.744 4.056-2.088v.336c0 1.56.024 3.6-2.856 5.016l1.104 1.896Zm12.278-14.808c.792 0 1.2.264 1.176.264l.768-2.664c.024 0-.744-.264-1.488-.264-1.536 0-2.808.768-3.456 2.616-.288-1.656-1.152-2.52-1.152-2.52l-2.16.864s1.176 1.296 1.176 5.112V90h2.736v-6.576c0-1.704 1.248-2.88 2.4-2.88Zm6.028 9.552c1.128 0 1.704-.336 1.704-.336l-.288-1.728s-.384.048-.624.048c-.456 0-.672-.216-.672-.936v-9.096h-2.736v9.336c0 1.584.936 2.712 2.616 2.712Zm-1.2-17.376c-1.104 0-1.68.72-1.68 1.704 0 .888.576 1.608 1.608 1.608 1.08 0 1.656-.72 1.656-1.68s-.576-1.632-1.584-1.632Zm15.62 16.608c-.072-.168-1.152-1.296-1.152-5.112V73.08l-2.736-.48v5.424c-.648-.096-1.32-.168-1.896-.168-3.408 0-5.736 2.688-5.736 6.336 0 3.6 1.416 5.952 4.416 5.952 2.04 0 3.216-.984 3.744-2.904.144 1.92 1.128 2.856 1.224 2.952l2.136-.864Zm-6.648-1.128c-1.752 0-1.92-2.016-1.92-4.248 0-2.424.696-4.176 3.096-4.176.504 0 1.272.168 1.584.264v3.456c0 2.352-1.176 4.704-2.76 4.704Zm17.353 1.896c1.128 0 1.704-.336 1.704-.336l-.288-1.728s-.384.048-.624.048c-.456 0-.672-.216-.672-.936v-9.096h-2.736v9.336c0 1.584.936 2.712 2.616 2.712Zm-1.2-17.376c-1.104 0-1.68.72-1.68 1.704 0 .888.576 1.608 1.608 1.608 1.08 0 1.656-.72 1.656-1.68s-.576-1.632-1.584-1.632Zm3.407 7.272h2.16v7.416c0 1.968 1.296 2.688 3.072 2.688 1.8 0 3.096-.552 3.072-.552l-.456-1.8s-.96.336-1.872.336c-.552 0-1.08-.168-1.08-.984v-7.104h2.616l.336-1.944h-2.952v-3.312l-2.256.504-.48 2.808h-2.16v1.944Zm8.92 4.32c0 3.504 1.488 5.856 5.184 5.856 2.424 0 4.512-1.104 4.512-1.104l-.72-1.704s-2.016.84-3.408.84c-1.896 0-2.496-1.224-2.664-2.712 4.224-.048 6.888-2.016 6.888-4.32 0-1.92-1.152-3.408-4.008-3.408-3.264 0-5.784 2.28-5.784 6.552Zm5.568-4.68c.888 0 1.488.6 1.488 1.536 0 1.128-1.176 2.472-4.224 2.592.048-1.968.624-4.128 2.736-4.128ZM344.328 90v-8.016c0-2.472-.792-4.128-3.288-4.128-1.488 0-2.952.648-3.816 2.232-.432-1.296-1.296-2.232-2.928-2.232-1.608 0-3.216.792-4.008 2.712-.288-1.704-1.176-2.592-1.176-2.592l-2.16.864s1.176 1.296 1.176 5.112V90h2.736v-5.952c0-2.52 1.32-4.056 2.616-4.056 1.032 0 1.392.84 1.392 2.184V90h2.712v-6.384c0-2.208 1.44-3.624 2.64-3.624 1.032 0 1.392.84 1.392 2.184V90h2.712ZM384.922 90h2.856v-7.248h5.232l.36-2.16h-5.592v-4.68h6.792v-2.16h-9.648V90Zm14.143.096c1.536 0 2.52-.432 2.52-.432l-.336-1.728s-.624.192-1.272.192c-.552 0-.84-.264-.84-.984V72.576l-2.736.504v14.328c0 1.56.864 2.688 2.664 2.688Zm3.369-5.784c0 3.504 1.488 5.856 5.184 5.856 2.424 0 4.512-1.104 4.512-1.104l-.72-1.704s-2.016.84-3.408.84c-1.896 0-2.496-1.224-2.664-2.712 4.224-.048 6.888-2.016 6.888-4.32 0-1.92-1.152-3.408-4.008-3.408-3.264 0-5.784 2.28-5.784 6.552Zm5.568-4.68c.888 0 1.488.6 1.488 1.536 0 1.128-1.176 2.472-4.224 2.592.048-1.968.624-4.128 2.736-4.128ZM415.89 90l1.8-3.072.936-1.776.936 1.752L421.338 90h3.12l-3.888-6.312c.672-.744 1.44-1.728 1.968-2.688.96-1.776 1.296-2.976 1.296-2.952h-2.832c0-.024-.312 1.104-1.08 2.52a23.77 23.77 0 0 1-1.056 1.704c-.312-.672-.672-1.44-.864-1.752l-1.512-2.472h-3.168l3.504 5.616L412.817 90h3.073Zm8.339 3.024h2.856l7.632-20.52h-2.856l-7.632 20.52Zm19.061 2.328c1.968-.984 4.272-2.112 4.272-6v-7.224h-2.808v2.184c0 2.28-1.728 3.648-3.216 3.648-2.28 0-3.168-2.472-3.168-6.096 0-3.384.936-6.12 3.672-6.12 1.248 0 2.544.504 3.36 1.32l1.392-1.824c-.816-.864-2.28-1.704-4.416-1.704-4.848 0-7.104 3.576-7.104 8.568 0 4.848 1.704 8.088 5.712 8.088 1.848 0 3.336-.744 4.056-2.088v.336c0 1.56.024 3.6-2.856 5.016l1.104 1.896Zm12.278-14.808c.792 0 1.2.264 1.176.264l.768-2.664c.024 0-.744-.264-1.488-.264-1.536 0-2.808.768-3.456 2.616-.288-1.656-1.152-2.52-1.152-2.52l-2.16.864s1.176 1.296 1.176 5.112V90h2.736v-6.576c0-1.704 1.248-2.88 2.4-2.88Zm6.028 9.552c1.128 0 1.704-.336 1.704-.336l-.288-1.728s-.384.048-.624.048c-.456 0-.672-.216-.672-.936v-9.096h-2.736v9.336c0 1.584.936 2.712 2.616 2.712Zm-1.2-17.376c-1.104 0-1.68.72-1.68 1.704 0 .888.576 1.608 1.608 1.608 1.08 0 1.656-.72 1.656-1.68s-.576-1.632-1.584-1.632Zm15.62 16.608c-.072-.168-1.152-1.296-1.152-5.112V73.08l-2.736-.48v5.424c-.648-.096-1.32-.168-1.896-.168-3.408 0-5.736 2.688-5.736 6.336 0 3.6 1.416 5.952 4.416 5.952 2.04 0 3.216-.984 3.744-2.904.144 1.92 1.128 2.856 1.224 2.952l2.136-.864Zm-6.648-1.128c-1.752 0-1.92-2.016-1.92-4.248 0-2.424.696-4.176 3.096-4.176.504 0 1.272.168 1.584.264v3.456c0 2.352-1.176 4.704-2.76 4.704Zm17.353 1.896c1.128 0 1.704-.336 1.704-.336l-.288-1.728s-.384.048-.624.048c-.456 0-.672-.216-.672-.936v-9.096h-2.736v9.336c0 1.584.936 2.712 2.616 2.712Zm-1.2-17.376c-1.104 0-1.68.72-1.68 1.704 0 .888.576 1.608 1.608 1.608 1.08 0 1.656-.72 1.656-1.68s-.576-1.632-1.584-1.632Zm3.407 7.272h2.16v7.416c0 1.968 1.296 2.688 3.072 2.688 1.8 0 3.096-.552 3.072-.552l-.456-1.8s-.96.336-1.872.336c-.552 0-1.08-.168-1.08-.984v-7.104h2.616l.336-1.944h-2.952v-3.312l-2.256.504-.48 2.808h-2.16v1.944Zm8.92 4.32c0 3.504 1.488 5.856 5.184 5.856 2.424 0 4.512-1.104 4.512-1.104l-.72-1.704s-2.016.84-3.408.84c-1.896 0-2.496-1.224-2.664-2.712 4.224-.048 6.888-2.016 6.888-4.32 0-1.92-1.152-3.408-4.008-3.408-3.264 0-5.784 2.28-5.784 6.552Zm5.568-4.68c.888 0 1.488.6 1.488 1.536 0 1.128-1.176 2.472-4.224 2.592.048-1.968.624-4.128 2.736-4.128ZM526.328 90v-8.016c0-2.472-.792-4.128-3.288-4.128-1.488 0-2.952.648-3.816 2.232-.432-1.296-1.296-2.232-2.928-2.232-1.608 0-3.216.792-4.008 2.712-.288-1.704-1.176-2.592-1.176-2.592l-2.16.864s1.176 1.296 1.176 5.112V90h2.736v-5.952c0-2.52 1.32-4.056 2.616-4.056 1.032 0 1.392.84 1.392 2.184V90h2.712v-6.384c0-2.208 1.44-3.624 2.64-3.624 1.032 0 1.392.84 1.392 2.184V90h2.712Z"/><rect width="156" height="136" x="380.5" y="107.5" stroke="#000" stroke-linecap="round" stroke-linejoin="bevel" stroke-width="5" rx="5.5"/><rect width="156" height="136" x="203.5" y="107.5" stroke="#000" stroke-linecap="round" stroke-linejoin="bevel" stroke-width="5" rx="5.5"/></svg>
