<svg width="1025" height="1025" viewBox="0 0 1025 1025" fill="none" xmlns="http://www.w3.org/2000/svg">
<path d="M200 0H225V25H200V0ZM250 0H275V25H250V0ZM275 0H300V25H275V0ZM325 0H350V25H325V0ZM350 0H375V25H350V0ZM375 0H400V25H375V0ZM400 0H425V25H400V0ZM475 0H500V25H475V0ZM575 0H600V25H575V0ZM625 0H650V25H625V0ZM700 0H725V25H700V0ZM725 0H750V25H725V0ZM750 0H775V25H750V0ZM775 0H800V25H775V0ZM200 25H225V50H200V25ZM225 25H250V50H225V25ZM250 25H275V50H250V25ZM300 25H325V50H300V25ZM325 25H350V50H325V25ZM400 25H425V50H400V25ZM450 25H475V50H450V25ZM475 25H500V50H475V25ZM500 25H525V50H500V25ZM525 25H550V50H525V25ZM575 25H600V50H575V25ZM625 25H650V50H625V25ZM650 25H675V50H650V25ZM675 25H700V50H675V25ZM700 25H725V50H700V25ZM725 25H750V50H725V25ZM800 25H825V50H800V25ZM200 50H225V75H200V50ZM225 50H250V75H225V50ZM250 50H275V75H250V50ZM325 50H350V75H325V50ZM350 50H375V75H350V50ZM425 50H450V75H425V50ZM450 50H475V75H450V50ZM475 50H500V75H475V50ZM575 50H600V75H575V50ZM625 50H650V75H625V50ZM675 50H700V75H675V50ZM700 50H725V75H700V50ZM775 50H800V75H775V50ZM800 50H825V75H800V50ZM250 75H275V100H250V75ZM375 75H400V100H375V75ZM400 75H425V100H400V75ZM525 75H550V100H525V75ZM550 75H575V100H550V75ZM650 75H675V100H650V75ZM675 75H700V100H675V75ZM750 75H775V100H750V75ZM775 75H800V100H775V75ZM225 100H250V125H225V100ZM250 100H275V125H250V100ZM375 100H400V125H375V100ZM400 100H425V125H400V100ZM425 100H450V125H425V100ZM450 100H475V125H450V100ZM475 100H500V125H475V100ZM500 100H525V125H500V100ZM550 100H575V125H550V100ZM625 100H650V125H625V100ZM700 100H725V125H700V100ZM725 100H750V125H725V100ZM750 100H775V125H750V100ZM775 100H800V125H775V100ZM800 100H825V125H800V100ZM200 125H225V150H200V125ZM225 125H250V150H225V125ZM275 125H300V150H275V125ZM300 125H325V150H300V125ZM350 125H375V150H350V125ZM500 125H525V150H500V125ZM550 125H575V150H550V125ZM575 125H600V150H575V125ZM675 125H700V150H675V125ZM750 125H775V150H750V125ZM200 150H225V175H200V150ZM250 150H275V175H250V150ZM300 150H325V175H300V150ZM350 150H375V175H350V150ZM400 150H425V175H400V150ZM450 150H475V175H450V150ZM500 150H525V175H500V150ZM550 150H575V175H550V150ZM600 150H625V175H600V150ZM650 150H675V175H650V150ZM700 150H725V175H700V150ZM750 150H775V175H750V150ZM800 150H825V175H800V150ZM200 175H225V200H200V175ZM225 175H250V200H225V175ZM275 175H300V200H275V175ZM300 175H325V200H300V175ZM375 175H400V200H375V175ZM425 175H450V200H425V175ZM450 175H475V200H450V175ZM550 175H575V200H550V175ZM600 175H625V200H600V175ZM675 175H700V200H675V175ZM700 175H725V200H700V175ZM750 175H775V200H750V175ZM775 175H800V200H775V175ZM800 175H825V200H800V175ZM50 200H75V225H50V200ZM75 200H100V225H75V200ZM100 200H125V225H100V200ZM150 200H175V225H150V200ZM200 200H225V225H200V200ZM250 200H275V225H250V200ZM300 200H325V225H300V200ZM325 200H350V225H325V200ZM375 200H400V225H375V200ZM400 200H425V225H400V200ZM475 200H500V225H475V200ZM500 200H525V225H500V200ZM550 200H575V225H550V200ZM575 200H600V225H575V200ZM600 200H625V225H600V200ZM625 200H650V225H625V200ZM725 200H750V225H725V200ZM775 200H800V225H775V200ZM825 200H850V225H825V200ZM850 200H875V225H850V200ZM875 200H900V225H875V200ZM950 200H975V225H950V200ZM975 200H1000V225H975V200ZM1000 200H1025V225H1000V200ZM25 225H50V250H25V225ZM75 225H100V250H75V225ZM100 225H125V250H100V225ZM250 225H275V250H250V225ZM275 225H300V250H275V225ZM300 225H325V250H300V225ZM350 225H375V250H350V225ZM375 225H400V250H375V225ZM400 225H425V250H400V225ZM425 225H450V250H425V225ZM525 225H550V250H525V225ZM550 225H575V250H550V225ZM600 225H625V250H600V225ZM650 225H675V250H650V225ZM700 225H725V250H700V225ZM725 225H750V250H725V225ZM775 225H800V250H775V225ZM800 225H825V250H800V225ZM850 225H875V250H850V225ZM900 225H925V250H900V225ZM950 225H975V250H950V225ZM975 225H1000V250H975V225ZM1000 225H1025V250H1000V225ZM0 250H25V275H0V250ZM25 250H50V275H25V250ZM100 250H125V275H100V250ZM150 250H175V275H150V250ZM200 250H225V275H200V250ZM225 250H250V275H225V250ZM250 250H275V275H250V250ZM350 250H375V275H350V250ZM400 250H425V275H400V250ZM425 250H450V275H425V250ZM500 250H525V275H500V250ZM600 250H625V275H600V250ZM625 250H650V275H625V250ZM675 250H700V275H675V250ZM700 250H725V275H700V250ZM750 250H775V275H750V250ZM800 250H825V275H800V250ZM825 250H850V275H825V250ZM875 250H900V275H875V250ZM900 250H925V275H900V250ZM0 275H25V300H0V275ZM25 275H50V300H25V275ZM75 275H100V300H75V275ZM175 275H200V300H175V275ZM250 275H275V300H250V275ZM325 275H350V300H325V275ZM375 275H400V300H375V275ZM400 275H425V300H400V275ZM425 275H450V300H425V275ZM525 275H550V300H525V275ZM625 275H650V300H625V275ZM675 275H700V300H675V275ZM775 275H800V300H775V275ZM800 275H825V300H800V275ZM825 275H850V300H825V275ZM850 275H875V300H850V275ZM925 275H950V300H925V275ZM975 275H1000V300H975V275ZM0 300H25V325H0V300ZM50 300H75V325H50V300ZM100 300H125V325H100V300ZM150 300H175V325H150V300ZM200 300H225V325H200V300ZM325 300H350V325H325V300ZM350 300H375V325H350V300ZM375 300H400V325H375V300ZM425 300H450V325H425V300ZM475 300H500V325H475V300ZM500 300H525V325H500V300ZM575 300H600V325H575V300ZM650 300H675V325H650V300ZM700 300H725V325H700V300ZM725 300H750V325H725V300ZM775 300H800V325H775V300ZM825 300H850V325H825V300ZM925 300H950V325H925V300ZM950 300H975V325H950V300ZM25 325H50V350H25V325ZM50 325H75V350H50V325ZM125 325H150V350H125V325ZM175 325H200V350H175V325ZM225 325H250V350H225V325ZM250 325H275V350H250V325ZM275 325H300V350H275V325ZM300 325H325V350H300V325ZM350 325H375V350H350V325ZM400 325H425V350H400V325ZM425 325H450V350H425V325ZM475 325H500V350H475V325ZM500 325H525V350H500V325ZM525 325H550V350H525V325ZM550 325H575V350H550V325ZM650 325H675V350H650V325ZM675 325H700V350H675V325ZM725 325H750V350H725V325ZM750 325H775V350H750V325ZM775 325H800V350H775V325ZM850 325H875V350H850V325ZM875 325H900V350H875V325ZM900 325H925V350H900V325ZM925 325H950V350H925V325ZM950 325H975V350H950V325ZM975 325H1000V350H975V325ZM1000 325H1025V350H1000V325ZM0 350H25V375H0V350ZM50 350H75V375H50V350ZM100 350H125V375H100V350ZM125 350H150V375H125V350ZM150 350H175V375H150V350ZM200 350H225V375H200V350ZM225 350H250V375H225V350ZM275 350H300V375H275V350ZM375 350H400V375H375V350ZM450 350H475V375H450V350ZM500 350H525V375H500V350ZM575 350H600V375H575V350ZM600 350H625V375H600V350ZM675 350H700V375H675V350ZM700 350H725V375H700V350ZM825 350H850V375H825V350ZM900 350H925V375H900V350ZM950 350H975V375H950V350ZM125 375H150V400H125V375ZM175 375H200V400H175V375ZM225 375H250V400H225V375ZM250 375H275V400H250V375ZM300 375H325V400H300V375ZM325 375H350V400H325V375ZM350 375H375V400H350V375ZM400 375H425V400H400V375ZM475 375H500V400H475V375ZM550 375H575V400H550V375ZM575 375H600V400H575V375ZM650 375H675V400H650V375ZM675 375H700V400H675V375ZM775 375H800V400H775V375ZM850 375H875V400H850V375ZM875 375H900V400H875V375ZM900 375H925V400H900V375ZM925 375H950V400H925V375ZM975 375H1000V400H975V375ZM25 400H50V425H25V400ZM100 400H125V425H100V400ZM150 400H175V425H150V400ZM175 400H200V425H175V400ZM250 400H275V425H250V400ZM275 400H300V425H275V400ZM350 400H375V425H350V400ZM400 400H425V425H400V400ZM425 400H450V425H425V400ZM500 400H525V425H500V400ZM525 400H550V425H525V400ZM550 400H575V425H550V400ZM600 400H625V425H600V400ZM675 400H700V425H675V400ZM725 400H750V425H725V400ZM825 400H850V425H825V400ZM875 400H900V425H875V400ZM950 400H975V425H950V400ZM25 425H50V450H25V425ZM50 425H75V450H50V425ZM200 425H225V450H200V425ZM250 425H275V450H250V425ZM275 425H300V450H275V425ZM450 425H475V450H450V425ZM525 425H550V450H525V425ZM575 425H600V450H575V425ZM600 425H625V450H600V425ZM700 425H725V450H700V425ZM725 425H750V450H725V425ZM750 425H775V450H750V425ZM775 425H800V450H775V425ZM800 425H825V450H800V425ZM850 425H875V450H850V425ZM875 425H900V450H875V425ZM900 425H925V450H900V425ZM925 425H950V450H925V425ZM975 425H1000V450H975V425ZM1000 425H1025V450H1000V425ZM0 450H25V475H0V450ZM25 450H50V475H25V450ZM50 450H75V475H50V450ZM100 450H125V475H100V450ZM150 450H175V475H150V450ZM175 450H200V475H175V450ZM225 450H250V475H225V450ZM250 450H275V475H250V450ZM325 450H350V475H325V450ZM350 450H375V475H350V450ZM375 450H400V475H375V450ZM475 450H500V475H475V450ZM500 450H525V475H500V450ZM575 450H600V475H575V450ZM650 450H675V475H650V450ZM675 450H700V475H675V450ZM725 450H750V475H725V450ZM800 450H825V475H800V450ZM825 450H850V475H825V450ZM850 450H875V475H850V450ZM900 450H925V475H900V450ZM925 450H950V475H925V450ZM975 450H1000V475H975V450ZM50 475H75V500H50V475ZM125 475H150V500H125V475ZM175 475H200V500H175V475ZM225 475H250V500H225V475ZM275 475H300V500H275V475ZM375 475H400V500H375V475ZM450 475H475V500H450V475ZM525 475H550V500H525V475ZM550 475H575V500H550V475ZM575 475H600V500H575V475ZM650 475H675V500H650V475ZM675 475H700V500H675V475ZM700 475H725V500H700V475ZM725 475H750V500H725V475ZM750 475H775V500H750V475ZM825 475H850V500H825V475ZM900 475H925V500H900V475ZM925 475H950V500H925V475ZM1000 475H1025V500H1000V475ZM0 500H25V525H0V500ZM25 500H50V525H25V500ZM100 500H125V525H100V500ZM125 500H150V525H125V500ZM150 500H175V525H150V500ZM175 500H200V525H175V500ZM200 500H225V525H200V500ZM250 500H275V525H250V500ZM275 500H300V525H275V500ZM300 500H325V525H300V500ZM325 500H350V525H325V500ZM375 500H400V525H375V500ZM475 500H500V525H475V500ZM575 500H600V525H575V500ZM600 500H625V525H600V500ZM675 500H700V525H675V500ZM775 500H800V525H775V500ZM875 500H900V525H875V500ZM925 500H950V525H925V500ZM950 500H975V525H950V500ZM0 525H25V550H0V525ZM100 525H125V550H100V525ZM175 525H200V550H175V525ZM250 525H275V550H250V525ZM275 525H300V550H275V525ZM325 525H350V550H325V525ZM350 525H375V550H350V525ZM375 525H400V550H375V525ZM400 525H425V550H400V525ZM425 525H450V550H425V525ZM475 525H500V550H475V525ZM525 525H550V550H525V525ZM550 525H575V550H550V525ZM575 525H600V550H575V525ZM600 525H625V550H600V525ZM700 525H725V550H700V525ZM750 525H775V550H750V525ZM775 525H800V550H775V525ZM850 525H875V550H850V525ZM900 525H925V550H900V525ZM925 525H950V550H925V525ZM975 525H1000V550H975V525ZM1000 525H1025V550H1000V525ZM25 550H50V575H25V550ZM50 550H75V575H50V550ZM125 550H150V575H125V550ZM150 550H175V575H150V550ZM175 550H200V575H175V550ZM200 550H225V575H200V550ZM225 550H250V575H225V550ZM300 550H325V575H300V550ZM325 550H350V575H325V550ZM400 550H425V575H400V550ZM525 550H550V575H525V550ZM550 550H575V575H550V550ZM600 550H625V575H600V550ZM650 550H675V575H650V550ZM675 550H700V575H675V550ZM700 550H725V575H700V550ZM875 550H900V575H875V550ZM900 550H925V575H900V550ZM925 550H950V575H925V550ZM75 575H100V600H75V575ZM125 575H150V600H125V575ZM175 575H200V600H175V575ZM200 575H225V600H200V575ZM250 575H275V600H250V575ZM275 575H300V600H275V575ZM300 575H325V600H300V575ZM350 575H375V600H350V575ZM400 575H425V600H400V575ZM475 575H500V600H475V575ZM500 575H525V600H500V575ZM525 575H550V600H525V575ZM550 575H575V600H550V575ZM575 575H600V600H575V575ZM625 575H650V600H625V575ZM775 575H800V600H775V575ZM825 575H850V600H825V575ZM850 575H875V600H850V575ZM875 575H900V600H875V575ZM925 575H950V600H925V575ZM0 600H25V625H0V600ZM25 600H50V625H25V600ZM100 600H125V625H100V600ZM125 600H150V625H125V600ZM150 600H175V625H150V600ZM175 600H200V625H175V600ZM200 600H225V625H200V600ZM225 600H250V625H225V600ZM275 600H300V625H275V600ZM300 600H325V625H300V600ZM350 600H375V625H350V600ZM400 600H425V625H400V600ZM450 600H475V625H450V600ZM500 600H525V625H500V600ZM525 600H550V625H525V600ZM550 600H575V625H550V600ZM575 600H600V625H575V600ZM650 600H675V625H650V600ZM675 600H700V625H675V600ZM725 600H750V625H725V600ZM825 600H850V625H825V600ZM875 600H900V625H875V600ZM950 600H975V625H950V600ZM50 625H75V650H50V625ZM100 625H125V650H100V625ZM125 625H150V650H125V625ZM225 625H250V650H225V625ZM275 625H300V650H275V625ZM300 625H325V650H300V625ZM325 625H350V650H325V625ZM350 625H375V650H350V625ZM400 625H425V650H400V625ZM425 625H450V650H425V625ZM450 625H475V650H450V625ZM500 625H525V650H500V625ZM600 625H625V650H600V625ZM700 625H725V650H700V625ZM725 625H750V650H725V625ZM750 625H775V650H750V625ZM775 625H800V650H775V625ZM825 625H850V650H825V625ZM850 625H875V650H850V625ZM900 625H925V650H900V625ZM925 625H950V650H925V625ZM975 625H1000V650H975V625ZM1000 625H1025V650H1000V625ZM0 650H25V675H0V650ZM25 650H50V675H25V650ZM50 650H75V675H50V650ZM100 650H125V675H100V650ZM150 650H175V675H150V650ZM175 650H200V675H175V650ZM200 650H225V675H200V650ZM250 650H275V675H250V650ZM300 650H325V675H300V650ZM325 650H350V675H325V650ZM350 650H375V675H350V650ZM375 650H400V675H375V650ZM400 650H425V675H400V650ZM475 650H500V675H475V650ZM575 650H600V675H575V650ZM600 650H625V675H600V650ZM675 650H700V675H675V650ZM725 650H750V675H725V650ZM800 650H825V675H800V650ZM825 650H850V675H825V650ZM875 650H900V675H875V650ZM100 675H125V700H100V675ZM200 675H225V700H200V675ZM225 675H250V700H225V675ZM275 675H300V700H275V675ZM325 675H350V700H325V675ZM400 675H425V700H400V675ZM475 675H500V700H475V675ZM500 675H525V700H500V675ZM525 675H550V700H525V675ZM550 675H575V700H550V675ZM575 675H600V700H575V675ZM625 675H650V700H625V675ZM775 675H800V700H775V675ZM800 675H825V700H800V675ZM825 675H850V700H825V675ZM875 675H900V700H875V675ZM925 675H950V700H925V675ZM975 675H1000V700H975V675ZM1000 675H1025V700H1000V675ZM0 700H25V725H0V700ZM75 700H100V725H75V700ZM150 700H175V725H150V700ZM200 700H225V725H200V700ZM275 700H300V725H275V700ZM350 700H375V725H350V700ZM400 700H425V725H400V700ZM650 700H675V725H650V700ZM725 700H750V725H725V700ZM750 700H775V725H750V700ZM775 700H800V725H775V700ZM800 700H825V725H800V700ZM825 700H850V725H825V700ZM875 700H900V725H875V700ZM925 700H950V725H925V700ZM950 700H975V725H950V700ZM1000 700H1025V725H1000V700ZM0 725H25V750H0V725ZM50 725H75V750H50V725ZM75 725H100V750H75V725ZM100 725H125V750H100V725ZM175 725H200V750H175V725ZM225 725H250V750H225V725ZM275 725H300V750H275V725ZM325 725H350V750H325V725ZM400 725H425V750H400V725ZM450 725H475V750H450V725ZM475 725H500V750H475V725ZM500 725H525V750H500V725ZM525 725H550V750H525V725ZM600 725H625V750H600V725ZM625 725H650V750H625V725ZM650 725H675V750H650V725ZM675 725H700V750H675V725ZM700 725H725V750H700V725ZM750 725H775V750H750V725ZM775 725H800V750H775V725ZM850 725H875V750H850V725ZM875 725H900V750H875V725ZM900 725H925V750H900V725ZM925 725H950V750H925V725ZM975 725H1000V750H975V725ZM1000 725H1025V750H1000V725ZM0 750H25V775H0V750ZM50 750H75V775H50V750ZM75 750H100V775H75V750ZM125 750H150V775H125V750ZM150 750H175V775H150V750ZM175 750H200V775H175V750ZM250 750H275V775H250V750ZM300 750H325V775H300V750ZM325 750H350V775H325V750ZM375 750H400V775H375V750ZM425 750H450V775H425V750ZM450 750H475V775H450V750ZM475 750H500V775H475V750ZM500 750H525V775H500V750ZM575 750H600V775H575V750ZM600 750H625V775H600V750ZM625 750H650V775H625V750ZM825 750H850V775H825V750ZM850 750H875V775H850V750ZM875 750H900V775H875V750ZM900 750H925V775H900V750ZM925 750H950V775H925V750ZM950 750H975V775H950V750ZM0 775H25V800H0V775ZM125 775H150V800H125V775ZM175 775H200V800H175V775ZM200 775H225V800H200V775ZM350 775H375V800H350V775ZM375 775H400V800H375V775ZM400 775H425V800H400V775ZM475 775H500V800H475V775ZM525 775H550V800H525V775ZM550 775H575V800H550V775ZM625 775H650V800H625V775ZM650 775H675V800H650V775ZM700 775H725V800H700V775ZM775 775H800V800H775V775ZM825 775H850V800H825V775ZM850 775H875V800H850V775ZM925 775H950V800H925V775ZM0 800H25V825H0V800ZM50 800H75V825H50V800ZM150 800H175V825H150V800ZM175 800H200V825H175V800ZM200 800H225V825H200V800ZM225 800H250V825H225V800ZM250 800H275V825H250V800ZM275 800H300V825H275V800ZM300 800H325V825H300V800ZM375 800H400V825H375V800ZM425 800H450V825H425V800ZM450 800H475V825H450V800ZM475 800H500V825H475V800ZM500 800H525V825H500V800ZM550 800H575V825H550V800ZM575 800H600V825H575V800ZM625 800H650V825H625V800ZM650 800H675V825H650V800ZM700 800H725V825H700V800ZM725 800H750V825H725V800ZM800 800H825V825H800V800ZM825 800H850V825H825V800ZM850 800H875V825H850V800ZM875 800H900V825H875V800ZM900 800H925V825H900V800ZM950 800H975V825H950V800ZM975 800H1000V825H975V800ZM1000 800H1025V825H1000V800ZM200 825H225V850H200V825ZM225 825H250V850H225V825ZM250 825H275V850H250V825ZM300 825H325V850H300V825ZM375 825H400V850H375V825ZM450 825H475V850H450V825ZM525 825H550V850H525V825ZM550 825H575V850H550V825ZM600 825H625V850H600V825ZM700 825H725V850H700V825ZM800 825H825V850H800V825ZM900 825H925V850H900V825ZM975 825H1000V850H975V825ZM1000 825H1025V850H1000V825ZM375 850H400V875H375V850ZM450 850H475V875H450V850ZM475 850H500V875H475V850ZM500 850H525V875H500V850ZM550 850H575V875H550V850ZM575 850H600V875H575V850ZM650 850H675V875H650V850ZM675 850H700V875H675V850ZM750 850H775V875H750V850ZM775 850H800V875H775V850ZM800 850H825V875H800V850ZM850 850H875V875H850V850ZM900 850H925V875H900V850ZM925 850H950V875H925V850ZM950 850H975V875H950V850ZM275 875H300V900H275V875ZM300 875H325V900H300V875ZM325 875H350V900H325V875ZM400 875H425V900H400V875ZM425 875H450V900H425V875ZM450 875H475V900H450V875ZM475 875H500V900H475V875ZM600 875H625V900H600V875ZM650 875H675V900H650V875ZM675 875H700V900H675V875ZM775 875H800V900H775V875ZM800 875H825V900H800V875ZM900 875H925V900H900V875ZM975 875H1000V900H975V875ZM1000 875H1025V900H1000V875ZM200 900H225V925H200V900ZM225 900H250V925H225V900ZM275 900H300V925H275V900ZM300 900H325V925H300V900ZM325 900H350V925H325V900ZM375 900H400V925H375V900ZM400 900H425V925H400V900ZM475 900H500V925H475V900ZM525 900H550V925H525V900ZM550 900H575V925H550V900ZM600 900H625V925H600V900ZM700 900H725V925H700V900ZM750 900H775V925H750V900ZM800 900H825V925H800V900ZM825 900H850V925H825V900ZM850 900H875V925H850V900ZM875 900H900V925H875V900ZM900 900H925V925H900V900ZM950 900H975V925H950V900ZM1000 900H1025V925H1000V900ZM200 925H225V950H200V925ZM250 925H275V950H250V925ZM325 925H350V950H325V925ZM450 925H475V950H450V925ZM475 925H500V950H475V925ZM550 925H575V950H550V925ZM600 925H625V950H600V925ZM700 925H725V950H700V925ZM725 925H750V950H725V925ZM775 925H800V950H775V925ZM825 925H850V950H825V925ZM875 925H900V950H875V925ZM925 925H950V950H925V925ZM1000 925H1025V950H1000V925ZM200 950H225V975H200V950ZM225 950H250V975H225V950ZM275 950H300V975H275V950ZM300 950H325V975H300V950ZM325 950H350V975H325V950ZM375 950H400V975H375V950ZM425 950H450V975H425V950ZM500 950H525V975H500V950ZM575 950H600V975H575V950ZM625 950H650V975H625V950ZM675 950H700V975H675V950ZM700 950H725V975H700V950ZM750 950H775V975H750V950ZM775 950H800V975H775V950ZM800 950H825V975H800V950ZM825 950H850V975H825V950ZM850 950H875V975H850V950ZM875 950H900V975H875V950ZM900 950H925V975H900V950ZM975 950H1000V975H975V950ZM225 975H250V1000H225V975ZM250 975H275V1000H250V975ZM275 975H300V1000H275V975ZM325 975H350V1000H325V975ZM375 975H400V1000H375V975ZM600 975H625V1000H600V975ZM650 975H675V1000H650V975ZM700 975H725V1000H700V975ZM800 975H825V1000H800V975ZM900 975H925V1000H900V975ZM975 975H1000V1000H975V975ZM250 1000H275V1025H250V1000ZM300 1000H325V1025H300V1000ZM325 1000H350V1025H325V1000ZM375 1000H400V1025H375V1000ZM400 1000H425V1025H400V1000ZM475 1000H500V1025H475V1000ZM650 1000H675V1025H650V1000ZM725 1000H750V1025H725V1000ZM775 1000H800V1025H775V1000ZM875 1000H900V1025H875V1000ZM900 1000H925V1025H900V1000ZM950 1000H975V1025H950V1000Z" fill="black"/>
<path d="M148.75 0H0V175H175V0H148.75ZM148.75 148.75H26.25V26.25H148.75V148.75Z" fill="black"/>
<path d="M998.75 0H850V175H1025V0H998.75ZM998.75 148.75H876.25V26.25H998.75V148.75Z" fill="black"/>
<path d="M148.75 850H0V1025H175V850H148.75ZM148.75 998.75H26.25V876.25H148.75V998.75Z" fill="black"/>
<path d="M50 50H125V125H50V50Z" fill="black"/>
<path d="M900 50H975V125H900V50Z" fill="black"/>
<path d="M50 900H125V975H50V900Z" fill="black"/>
<circle cx="512.5" cy="512.5" r="162.5" fill="white"/>
<path d="M462.139 448.313H398.5L398.221 575.875L462.139 575.592V448.313Z" fill="#3D8BFB"/>
<circle cx="582.631" cy="512.501" r="66.0645" fill="#3D8BFB"/>
<path d="M505.925 434.538H519.075L485.26 590.463H472.11L505.925 434.538Z" fill="black"/>
</svg>
