<svg width="3268" height="1174" xmlns="http://www.w3.org/2000/svg"><g fill="none" fill-rule="evenodd"><path d="M1144.035 701.127H683.216c-5.09 0-9.216 4.133-9.216 9.23V1042.667c0 5.098 4.126 9.23 9.216 9.23h460.819c5.09 0 9.216-4.132 9.216-9.23V710.358c0-5.098-4.126-9.231-9.216-9.231zm-9.216 332.307H692.432v-258.46h442.386v258.46zm0-276.922H692.432v-36.924h442.386v36.924z" fill="#000" fill-rule="nonzero"/><path d="M1024.222 728.82h-18.432c-5.09 0-9.217 4.132-9.217 9.23 0 5.099 4.127 9.231 9.217 9.231h18.432c5.09 0 9.216-4.132 9.216-9.23 0-5.099-4.126-9.231-9.216-9.231zM1070.304 728.82h-18.432c-5.09 0-9.216 4.132-9.216 9.23 0 5.099 4.126 9.231 9.216 9.231h18.432c5.09 0 9.216-4.132 9.216-9.23 0-5.099-4.126-9.231-9.216-9.231zM1116.385 728.82h-18.432c-5.09 0-9.216 4.132-9.216 9.23 0 5.099 4.126 9.231 9.216 9.231h18.432c5.09 0 9.217-4.132 9.217-9.23 0-5.099-4.126-9.231-9.217-9.231z" fill="#000" fill-rule="nonzero"/><path stroke="#000" stroke-width="8" d="M722.93 795.589h381.392v251.173H722.93z"/><path d="M782.495 875.57v162.547M871.73 1003.615v36.502M871.73 796.615v78.387M963.587 1003.615v36.502M963.587 796.615v78.387M1023.446 795.878v241.239M726.56 875.57h372.432M726.56 1002.043h294.554M726.56 955.57h55.931M1025.093 955.57h75.897" stroke="#000" stroke-width="8" stroke-linecap="square"/><circle fill="#231F20" fill-rule="nonzero" cx="818.58" cy="569.622" r="33.36"/><path d="M808.74 641.262h-61a12.53 12.53 0 0 1-10.26-5.34l-1.48-2.25a21.28 21.28 0 0 1 17.38-33.48h34.83c11.325.033 20.497 9.205 20.53 20.53v20.54z" fill="#231F20" fill-rule="nonzero"/><rect fill="#231F20" fill-rule="nonzero" transform="rotate(57.78 803.172 637.659)" x="773.637" y="626.619" width="59.07" height="22.08" rx="11.04"/><rect fill="#231F20" fill-rule="nonzero" transform="rotate(57.78 754.3 642.547)" x="730.556" y="631.507" width="47.49" height="22.08" rx="11.04"/><rect fill="#231F20" fill-rule="nonzero" transform="rotate(179.87 742.559 653.69)" x="713.004" y="642.649" width="59.11" height="22.08" rx="11.04"/><path d="M1068.1 669.102c8.84 0 12.81-4.3 14.59-7.91 1.16-2.35 3.26-8.57-2.2-15.69-6.93-9-20.09-18.14-36.63-22.18a57.29 57.29 0 0 1 39-20.14 37.54 37.54 0 0 0 22.85-10.16 32.91 32.91 0 0 0 10.12-23.86 34 34 0 0 0-34.06-34.06c-15 0-40.61 13.28-55.91 42.69-15.27-29.41-40.8-42.69-55.8-42.69a34 34 0 0 0-34.06 34.06 32.88 32.88 0 0 0 10.15 23.86 37.51 37.51 0 0 0 22.85 10.16 57 57 0 0 1 38.88 20.13c-16.56 4-29.74 13.14-36.67 22.19-5.46 7.12-3.36 13.34-2.21 15.69 1.78 3.61 5.76 7.91 14.59 7.91a111.5 111.5 0 0 0 12.77-1.2 227.12 227.12 0 0 1 29.49-2.31 227 227 0 0 1 29.48 2.31 111.5 111.5 0 0 0 12.77 1.2z" fill="#3F3525" fill-rule="nonzero" opacity=".15"/><path d="M1068.1 666.262c8.84 0 12.81-4.3 14.59-7.91 1.16-2.35 3.26-8.57-2.2-15.69-6.93-9-20.09-18.13-36.63-22.18a57.29 57.29 0 0 1 39-20.14 37.54 37.54 0 0 0 22.85-10.16 32.91 32.91 0 0 0 10.14-23.86 34 34 0 0 0-34.08-34.06c-15 0-40.61 13.28-55.91 42.69-15.27-29.41-40.8-42.69-55.8-42.69a34 34 0 0 0-34.06 34.06 32.88 32.88 0 0 0 10.15 23.86 37.51 37.51 0 0 0 22.85 10.16 57 57 0 0 1 38.88 20.13c-16.56 4-29.74 13.15-36.67 22.19-5.46 7.12-3.36 13.34-2.21 15.69 1.78 3.61 5.76 7.91 14.59 7.91a111.5 111.5 0 0 0 12.77-1.2 227.12 227.12 0 0 1 29.49-2.31 227 227 0 0 1 29.48 2.31 111.5 111.5 0 0 0 12.77 1.2z" fill="#3F3525" fill-rule="nonzero"/><path d="M1070.58 650.262c-6.05-7.89-22.37-19.47-44.73-19.47-22.36 0-38.68 11.58-44.73 19.47-6.05 7.89 15.78 0 44.73 0 28.95 0 50.78 7.9 44.73 0z" fill="#514632" fill-rule="nonzero"/><path d="M1100.72 556.012a21.56 21.56 0 0 0-18.95-11.26c-14.77 0-53.37 22.51-55.92 79.99 16.28-58.7 70.51-68.07 74.87-68.73z" fill="#39B44A" fill-rule="nonzero"/><path d="M1100.72 556.012c-4.36.66-58.59 10-74.87 68.73 0 0 16.21-33.42 55.92-36.84 11.87-1 21.58-9.66 21.58-21.58a21.48 21.48 0 0 0-2.63-10.31z" fill="#6CD877" fill-rule="nonzero"/><path d="M951.08 556.062a21.52 21.52 0 0 0-2.59 10.26c0 11.92 9.7 20.56 21.57 21.58 39.74 3.42 55.79 36.84 55.79 36.84-16.97-61.17-74.76-68.68-74.77-68.68z" fill="#39B44A" fill-rule="nonzero"/><path d="M970.06 544.752a21.56 21.56 0 0 0-19 11.31s57.8 7.51 74.77 68.68c-2.52-57.48-41-79.99-55.77-79.99z" fill="#6CD877" fill-rule="nonzero"/><path d="M1003.88 646.262a1.67 1.67 0 0 1-1.67 1.67h-4.82a1.67 1.67 0 0 1-1.67-1.67 1.66 1.66 0 0 1 1.67-1.66h4.82a1.66 1.66 0 0 1 1.67 1.66zM1034 637.682a1.66 1.66 0 0 1-1.66 1.66h-4.83a1.66 1.66 0 0 1-1.66-1.66 1.66 1.66 0 0 1 1.66-1.67h4.83a1.66 1.66 0 0 1 1.66 1.67zM1061.5 647.942a1.66 1.66 0 0 1-1.67 1.66H1055a1.66 1.66 0 0 1-1.67-1.66 1.67 1.67 0 0 1 1.67-1.68h4.82c.922 0 1.67.747 1.67 1.67l.01.01z" fill="#3F3525" fill-rule="nonzero"/><text font-family="iAWriterDuospace-Bold, iA Writer Duospace" font-size="64" font-weight="bold" fill="#000"><tspan x="693" y="1160.262">HTML Tables</tspan></text><path d="M470.77 700.127H9.23a9.23 9.23 0 0 0-9.23 9.23V1041.667a9.23 9.23 0 0 0 9.23 9.23h461.54a9.23 9.23 0 0 0 9.23-9.23V709.358a9.23 9.23 0 0 0-9.23-9.231zm-9.231 332.307H18.46v-258.46h443.077v258.46zm0-276.922H18.46v-36.924h443.077v36.924z" fill="#000" fill-rule="nonzero"/><path d="M350.77 727.82h-18.462a9.23 9.23 0 0 0-9.23 9.23 9.23 9.23 0 0 0 9.23 9.231h18.461a9.23 9.23 0 0 0 9.231-9.23 9.23 9.23 0 0 0-9.23-9.231zM396.923 727.82h-18.46a9.23 9.23 0 0 0-9.231 9.23 9.23 9.23 0 0 0 9.23 9.231h18.461a9.23 9.23 0 0 0 9.231-9.23 9.23 9.23 0 0 0-9.23-9.231zM443.077 727.82h-18.462a9.23 9.23 0 0 0-9.23 9.23 9.23 9.23 0 0 0 9.23 9.231h18.462a9.23 9.23 0 0 0 9.23-9.23 9.23 9.23 0 0 0-9.23-9.231z" fill="#000" fill-rule="nonzero"/><path d="M135.47 515.262c-25.635.071-46.399 20.835-46.47 46.47v20.08l46.42 26.45 46.51-27.91v-18.62c-.071-25.631-20.829-46.393-46.46-46.47zm0 74.13a29.88 29.88 0 1 1 29.87-29.88 29.87 29.87 0 0 1-29.87 29.88z" fill="#231F20" fill-rule="nonzero"/><path d="M180.27 633.722a46.44 46.44 0 0 1-2.27 6.35l-89-50.63v32c.071 25.635 20.835 46.398 46.47 46.47 25.631-.077 46.389-20.84 46.46-46.47v-33.35l-39.88 23.89 38.22 21.74z" fill="#231F20" fill-rule="nonzero"/><path d="M348.89 621.032l.83-1.14c5-6.84 12.5-17.18 12.5-32.94 0-26.37-20.76-41.81-21.64-42.45a12.47 12.47 0 0 0-14.71 0c-.87.64-21.65 16.08-21.65 42.45 0 15.76 7.53 26.1 12.5 32.94l.83 1.14c-17.64 3.73-31.71 13.23-38.97 22.72-5.46 7.12-3.36 13.34-2.2 15.69 1.78 3.61 5.76 7.91 14.59 7.91a111.5 111.5 0 0 0 12.77-1.2 227 227 0 0 1 29.48-2.31c9.87.128 19.72.9 29.49 2.31a111.5 111.5 0 0 0 12.77 1.2c8.83 0 12.81-4.3 14.59-7.91 1.15-2.35 3.26-8.57-2.2-15.69-7.26-9.49-21.34-18.99-38.98-22.72z" fill="#3F3525" fill-rule="nonzero" opacity=".15"/><path d="M348.89 618.192l.83-1.13c5-6.85 12.5-17.18 12.5-32.95 0-26.37-20.76-41.85-21.64-42.45a12.47 12.47 0 0 0-14.71 0c-.87.6-21.65 16.08-21.65 42.45 0 15.77 7.53 26.1 12.5 32.95l.83 1.13c-17.64 3.74-31.71 13.26-39 22.72-5.43 7.12-3.33 13.35-2.17 15.69 1.78 3.66 5.76 7.91 14.62 7.91a111.5 111.5 0 0 0 12.77-1.2 227 227 0 0 1 29.48-2.31c9.87.128 19.72.9 29.49 2.31a111.5 111.5 0 0 0 12.77 1.2c8.83 0 12.81-4.3 14.59-7.91 1.15-2.34 3.26-8.57-2.2-15.69-7.29-9.46-21.37-18.99-39.01-22.72z" fill="#3F3525" fill-rule="nonzero"/><path d="M378 648.512c-6.06-7.89-22.37-19.47-44.74-19.47s-38.67 11.58-44.73 19.47c-6.06 7.89 15.79 0 44.73 0 28.94 0 50.74 7.9 44.74 0z" fill="#514632" fill-rule="nonzero"/><path d="M333.22 551.752s-16.51 12-16.51 32.36c0 16.85 11.34 25 15.22 33.63-8.68-39.48 1.29-65.99 1.29-65.99z" fill="#8CC53F" fill-rule="nonzero"/><path d="M333.22 551.752s-10 26.55-1.29 66a13.12 13.12 0 0 1 1.29 5.45c0-11.05 16.52-18.75 16.52-39.08s-16.52-32.37-16.52-32.37z" fill="#6F9B29" fill-rule="nonzero"/><path d="M311.38 640.532a1.66 1.66 0 0 1-1.66 1.67h-4.83a1.66 1.66 0 0 1-1.66-1.67 1.66 1.66 0 0 1 1.66-1.67h4.83a1.66 1.66 0 0 1 1.66 1.67zM336.54 635.932a1.66 1.66 0 0 1-1.67 1.66h-4.82a1.66 1.66 0 0 1-1.67-1.66 1.67 1.67 0 0 1 1.67-1.67h4.82c.922 0 1.67.747 1.67 1.67zM327.33 643.862a1.67 1.67 0 0 1-1.67 1.67h-4.82a1.67 1.67 0 0 1-1.67-1.67 1.66 1.66 0 0 1 1.67-1.66h4.82a1.66 1.66 0 0 1 1.67 1.66zM350.75 644.522a1.67 1.67 0 0 1-1.67 1.67h-4.82a1.67 1.67 0 0 1-1.67-1.67 1.66 1.66 0 0 1 1.67-1.66h4.82a1.66 1.66 0 0 1 1.67 1.66zM364.3 639.262a1.67 1.67 0 0 1-1.67 1.67h-4.82a1.67 1.67 0 1 1 0-3.34h4.82c.922 0 1.67.747 1.67 1.67z" fill="#3F3525" fill-rule="nonzero"/><text font-family="iAWriterDuospace-Bold, iA Writer Duospace" font-size="64" font-weight="bold" fill="#000"><tspan x="67" y="1160.262">No layout</tspan></text><rect fill="#231F20" fill-rule="nonzero" x="1394.27" y="577.542" width="25.76" height="91.17" rx="12.88"/><rect fill="#231F20" fill-rule="nonzero" x="1427.31" y="577.542" width="25.76" height="91.17" rx="12.88"/><path d="M1390.88 495.882c-7.104.022-12.858 5.775-12.88 12.88v68.8c.022 7.104 5.776 12.858 12.88 12.88v-94.56zM1456.46 495.882v94.56c7.104-.022 12.858-5.776 12.88-12.88v-68.8c-.022-7.105-5.776-12.858-12.88-12.88zM1435.19 497.472l-8.51 7.79a3.21 3.21 0 0 1-4.33 0l-8.51-7.83a6 6 0 0 0-4.06-1.59h-15.51v97.05h58.8v-97h-13.82a6 6 0 0 0-4.06 1.58z" fill="#231F20" fill-rule="nonzero"/><ellipse fill="#231F20" fill-rule="nonzero" cx="1423.67" cy="414.922" rx="5.05" ry="2.66"/><path d="M1386.54 458.892c2.15 18.88 18.127 33.141 37.13 33.141 19.003 0 34.98-14.26 37.13-33.141h-74.26zM1475.28 444.262h-15.72c-5.12-17.713-22.396-29.043-40.682-26.678-18.286 2.364-32.112 17.715-32.558 36.148h6.76c0-6.904 5.596-12.5 12.5-12.5s12.5 5.596 12.5 12.5h57.2a4.73 4.73 0 1 0 0-9.45v-.02z" fill="#231F20" fill-rule="nonzero"/><path d="M1765 661.262c1.16-2.34 3.26-8.56-2.2-15.68-7.47-9.75-22.18-19.56-40.57-23 2.9-3.58 9.1-8.49 20.39-12.25h.09c14.4-4.79 28-9.32 38.2-16.5 17.4-12.24 18.17-28 15.75-39-2.85-13-12.85-21.15-26.09-21.15-14.89 0-33.58 10.36-48.79 27a111.19 111.19 0 0 0-8 9.81c-6-25-17.37-53.07-38.74-69.83-20.1-15.86-42.18-24.56-62.12-24.56-23.25 0-42.2 11.83-50.69 31.64-6.48 15.13-5.49 30.83 2.77 44.23 11.15 18 34.39 29.72 62.16 31.31 19 1.09 52.12 7.73 67.17 39.21-18.51 3.43-33.34 13.29-40.85 23.08-5.46 7.13-3.36 13.35-2.2 15.69 1.78 3.61 5.76 7.91 14.59 7.91a111.5 111.5 0 0 0 12.77-1.2 227 227 0 0 1 29.49-2.31 227 227 0 0 1 29.48 2.31 111.5 111.5 0 0 0 12.77 1.2c8.87 0 12.85-4.3 14.62-7.91z" fill="#3F3525" fill-rule="nonzero" opacity=".15"/><path d="M1765 658.422c1.16-2.34 3.26-8.56-2.2-15.68-7.47-9.75-22.18-19.56-40.57-23 2.9-3.58 9.1-8.49 20.39-12.25h.09c14.4-4.79 28-9.32 38.2-16.5 17.4-12.24 18.17-28 15.75-39-2.85-13-12.85-21.15-26.09-21.15-14.89 0-33.58 10.37-48.79 27a111.19 111.19 0 0 0-8 9.81c-6-25-17.37-53.06-38.74-69.83-20.1-15.86-42.18-24.56-62.12-24.56-23.25 0-42.2 11.83-50.69 31.65-6.48 15.12-5.49 30.83 2.77 44.22 11.15 18 34.39 29.73 62.16 31.31 19 1.09 52.12 7.74 67.17 39.21-18.51 3.43-33.34 13.29-40.85 23.09-5.46 7.12-3.36 13.34-2.2 15.68 1.78 3.61 5.76 7.91 14.59 7.91a111.5 111.5 0 0 0 12.77-1.2 227 227 0 0 1 29.49-2.31 227 227 0 0 1 29.48 2.31 111.5 111.5 0 0 0 12.77 1.2c8.87 0 12.85-4.3 14.62-7.91z" fill="#3F3525" fill-rule="nonzero"/><path d="M1752.9 650.332c-6.05-7.89-22.37-19.47-44.73-19.47-22.36 0-38.68 11.58-44.74 19.47-6.06 7.89 15.79 0 44.74 0 28.95 0 50.83 7.93 44.73 0z" fill="#514632" fill-rule="nonzero"/><path d="M1784.47 554.562c-7.22-33-76.3 11.44-76.3 65.52a.59.59 0 0 1 0-.13c.6-2.64 12.72-54.11 76.3-65.39zM1573.71 509.822c-12.63 29.44 13.22 55.81 54.2 58.16 34.51 2 66.84 17.36 80.26 52.1-32.11-114.46-134.46-110.26-134.46-110.26z" fill="#0FBC59" fill-rule="nonzero"/><path d="M1708.19 619.952c.33-1.44 4.19-15.59 30.5-24.35 27.08-9 51-17 45.78-41-63.58 11.24-75.7 62.71-76.28 65.35zM1667.38 507.592c-40.26-31.58-81.04-27.23-93.67 2.23 0 0 102.35-4.2 134.46 110.26 0 0-.53-80.92-40.79-112.49z" fill="#04A344" fill-rule="nonzero"/><path d="M1688.83 646.342a1.67 1.67 0 0 1-1.67 1.67h-4.82a1.67 1.67 0 0 1-1.67-1.67 1.66 1.66 0 0 1 1.67-1.66h4.82a1.66 1.66 0 0 1 1.67 1.66zM1710.4 637.442a1.66 1.66 0 0 1-1.66 1.67h-4.83a1.66 1.66 0 0 1-1.66-1.67c0-.917.743-1.66 1.66-1.66h4.83c.917 0 1.66.743 1.66 1.66zM1733.29 646.342a1.66 1.66 0 0 1-1.66 1.67h-4.83a1.66 1.66 0 0 1-1.66-1.67c0-.917.743-1.66 1.66-1.66h4.83c.917 0 1.66.743 1.66 1.66zM1727.77 639.112a1.66 1.66 0 0 1-1.67 1.66h-4.82a1.66 1.66 0 0 1-1.67-1.66c0-.923.748-1.67 1.67-1.67h4.82c.922 0 1.67.747 1.67 1.67z" fill="#3F3525" fill-rule="nonzero"/><path d="M1818.035 701.127h-460.819c-5.09 0-9.216 4.133-9.216 9.23V1042.667c0 5.098 4.126 9.23 9.216 9.23h460.819c5.09 0 9.216-4.132 9.216-9.23V710.358c0-5.098-4.126-9.231-9.216-9.231zm-9.216 332.307h-442.387v-258.46h442.386v258.46zm0-276.922h-442.387v-36.924h442.386v36.924z" fill="#000" fill-rule="nonzero"/><path d="M1698.222 728.82h-18.432c-5.09 0-9.217 4.132-9.217 9.23 0 5.099 4.127 9.231 9.217 9.231h18.432c5.09 0 9.216-4.132 9.216-9.23 0-5.099-4.126-9.231-9.216-9.231zM1744.304 728.82h-18.432c-5.09 0-9.216 4.132-9.216 9.23 0 5.099 4.126 9.231 9.216 9.231h18.432c5.09 0 9.216-4.132 9.216-9.23 0-5.099-4.126-9.231-9.216-9.231zM1790.385 728.82h-18.432c-5.09 0-9.216 4.132-9.216 9.23 0 5.099 4.126 9.231 9.216 9.231h18.432c5.09 0 9.217-4.132 9.217-9.23 0-5.099-4.126-9.231-9.217-9.231z" fill="#000" fill-rule="nonzero"/><path stroke="#000" stroke-width="8" d="M1396.93 795.589h381.392v251.173H1396.93z"/><path d="M1402.446 852.879h371.421M1477.89 854.879v184.003M1663.874 854.879v184.003" stroke="#000" stroke-width="8" stroke-linecap="square"/><text font-family="iAWriterDuospace-Bold, iA Writer Duospace" font-size="64" font-weight="bold" fill="#000"><tspan x="1396" y="1160.262">CSS Floats</tspan></text><path d="M2492.035 701.127h-460.819c-5.09 0-9.216 4.133-9.216 9.23V1042.667c0 5.098 4.126 9.23 9.216 9.23h460.819c5.09 0 9.216-4.132 9.216-9.23V710.358c0-5.098-4.126-9.231-9.216-9.231zm-9.216 332.307h-442.387v-258.46h442.386v258.46zm0-276.922h-442.387v-36.924h442.386v36.924z" fill="#000" fill-rule="nonzero"/><path d="M2372.222 728.82h-18.432c-5.09 0-9.217 4.132-9.217 9.23 0 5.099 4.127 9.231 9.217 9.231h18.432c5.09 0 9.216-4.132 9.216-9.23 0-5.099-4.126-9.231-9.216-9.231zM2418.304 728.82h-18.432c-5.09 0-9.216 4.132-9.216 9.23 0 5.099 4.126 9.231 9.216 9.231h18.432c5.09 0 9.216-4.132 9.216-9.23 0-5.099-4.126-9.231-9.216-9.231zM2464.385 728.82h-18.432c-5.09 0-9.216 4.132-9.216 9.23 0 5.099 4.126 9.231 9.216 9.231h18.432c5.09 0 9.217-4.132 9.217-9.23 0-5.099-4.126-9.231-9.217-9.231z" fill="#000" fill-rule="nonzero"/><path stroke="#000" stroke-width="8" d="M2218.2 957.715h86.852v82H2218.2zM2179.303 843.715h164.645v39.884h-164.645zM2333.02 957.715h86.852v82h-86.852zM2103.379 957.715h86.852v82h-86.852z"/><path stroke="#000" stroke-width="8" d="M2070.93 795.589h381.392v251.173H2070.93z"/><path d="M2076.446 925.175h371.421" stroke="#000" stroke-width="8" stroke-linecap="square"/><rect fill="#231F20" fill-rule="nonzero" x="2062.32" y="565.742" width="29.02" height="102.69" rx="14.51"/><rect fill="#231F20" fill-rule="nonzero" x="2099.54" y="565.742" width="29.02" height="102.69" rx="14.51"/><path d="M2058.51 473.772c-7.997.022-14.477 6.493-14.51 14.49v77.5c.027 8 6.51 14.478 14.51 14.5v-106.49zM2132.37 473.772v106.49c8.005-.022 14.488-6.506 14.51-14.51v-77.49c-.033-7.997-6.513-14.468-14.51-14.49z" fill="#231F20" fill-rule="nonzero"/><circle fill="#231F20" fill-rule="nonzero" cx="2095.44" cy="427.352" r="42.09"/><path fill="#231F20" fill-rule="nonzero" d="M2121.64 473.772l-15.63 11.56-10.57-11.56-10.58 11.56-15.62-11.56h-6.92V583.072h66.23V473.772z"/><path d="M2451.58 533.392c-13.31 0-29 8.17-42.58 20.82v-35.95a41.8 41.8 0 0 0 24.56-19.86c8.62-15.58 7.13-36.06 1.22-48.24-.71-1.47-1.4-2.84-2-4.13-5.09-10.23-6-12.08-3.35-21 5.4-18.08 1.89-32.14 1.47-33.68a12.46 12.46 0 0 0-8-8.53 12.23 12.23 0 0 0-4.08-.69 12.43 12.43 0 0 0-7.45 2.47 48.58 48.58 0 0 0-7.87 7.34 54.241 54.241 0 0 0-3.56-5.14 12.48 12.48 0 0 0-19.47 0 51.59 51.59 0 0 0-3.57 5.14 48.51 48.51 0 0 0-7.9-7.37 12.43 12.43 0 0 0-7.45-2.47 12.24 12.24 0 0 0-4.09.69 12.47 12.47 0 0 0-8 8.53c-.42 1.54-3.94 15.6 1.46 33.68 2.66 8.9 1.75 10.75-3.34 21-.65 1.29-1.33 2.66-2 4.13-5.12 10.55-6.92 27.31-1.72 41.73-16.63-10.35-34-15.94-50-15.94-23.25 0-42.2 11.83-50.69 31.65-6.42 15.1-5.43 30.81 2.83 44.2 11.15 18 34.39 29.73 62.16 31.32 19 1.09 52.25 7.75 67.26 39.38-18.08 3.59-32.53 13.28-39.91 22.91-5.46 7.12-3.36 13.34-2.2 15.68 1.78 3.61 5.76 7.91 14.59 7.91a111.5 111.5 0 0 0 12.77-1.2 228.91 228.91 0 0 1 29.48-2.3c9.87.13 19.72.899 29.49 2.3a111.5 111.5 0 0 0 12.77 1.2c8.83 0 12.81-4.3 14.59-7.91 1.15-2.34 3.26-8.56-2.2-15.68-7.59-9.89-22.63-19.85-41.4-23.19 2.65-3.23 8.36-8.15 20.19-12.09h.09c14.4-4.8 28-9.33 38.2-16.51 17.39-12.24 18.17-28 15.75-39-2.81-13.1-12.81-21.2-26.05-21.2z" fill="#3F3525" fill-rule="nonzero" opacity=".15"/><path d="M2451.58 530.552c-13.31 0-29 8.17-42.58 20.82v-36a41.8 41.8 0 0 0 24.56-19.86c8.62-15.58 7.13-36.06 1.22-48.24-.71-1.46-1.4-2.83-2-4.13-5.09-10.23-6-12.08-3.35-21 5.4-18.08 1.89-32.14 1.47-33.68a12.48 12.48 0 0 0-19.5-6.75 48.58 48.58 0 0 0-7.87 7.34 54.241 54.241 0 0 0-3.56-5.14 12.48 12.48 0 0 0-19.47 0 51.59 51.59 0 0 0-3.57 5.14 48.51 48.51 0 0 0-7.93-7.32 12.48 12.48 0 0 0-19.5 6.75c-.42 1.54-3.94 15.6 1.46 33.68 2.66 8.9 1.75 10.75-3.34 21-.65 1.3-1.33 2.67-2 4.13-5.12 10.55-6.92 27.31-1.72 41.73-16.63-10.35-34-15.93-50-15.94-23.25 0-42.2 11.83-50.69 31.65-6.46 15.1-5.47 30.81 2.79 44.2 11.15 18 34.39 29.73 62.16 31.32 19 1.09 52.25 7.75 67.26 39.39-18.08 3.58-32.53 13.27-39.91 22.9-5.46 7.12-3.36 13.34-2.2 15.68 1.78 3.61 5.76 7.91 14.59 7.91 4.276-.15 8.54-.548 12.77-1.19a227 227 0 0 1 29.48-2.31c9.87.128 19.72.9 29.49 2.31 4.23.642 8.494 1.04 12.77 1.19 8.83 0 12.81-4.3 14.59-7.9 1.15-2.35 3.26-8.57-2.2-15.69-7.59-9.89-22.63-19.85-41.4-23.19 2.65-3.23 8.36-8.15 20.19-12.09h.09c14.4-4.8 28-9.33 38.2-16.51 17.39-12.23 18.17-28 15.75-39-2.81-13.1-12.81-21.2-26.05-21.2z" fill="#3F3525" fill-rule="nonzero"/><path d="M2390.19 465.422a6.32 6.32 0 0 0-6.31 6.32v134.72c2.89 3.16 5.29 13.42 5.29 13.42s-.31-2.5 3.13-7.85v-146.22a6.37 6.37 0 0 0-2.11-.39z" fill="#C3996C" fill-rule="nonzero"/><path d="M2396.51 471.742a6.29 6.29 0 0 0-4.21-5.93v146.22a51.88 51.88 0 0 1 4.21-5.57v-134.72z" fill="#A87D56" fill-rule="nonzero"/><path d="M2434.93 650.142c-6.06-7.9-22.37-19.47-44.74-19.47s-38.68 11.59-44.73 19.47c-6.05 7.88 15.79 0 44.73 0 28.94 0 50.81 7.89 44.74 0z" fill="#514632" fill-rule="nonzero"/><path d="M2465.47 554.362c-7.22-33-76.3 11.45-76.3 65.52a.59.59 0 0 1 0-.13c.6-2.64 12.72-54.11 76.3-65.39z" fill="#0FBC59" fill-rule="nonzero"/><path d="M2254.71 509.632c-12.63 29.47 13.22 55.81 54.2 58.15 34.51 2 66.84 17.37 80.26 52.1-32.11-114.46-134.46-110.25-134.46-110.25z" fill="#0FBC59" fill-rule="nonzero"/><path d="M2389.19 619.752c.33-1.43 4.19-15.58 30.5-24.34 27.08-9 51-17 45.78-41.05-63.58 11.28-75.7 62.75-76.28 65.39zM2348.38 507.392c-40.26-31.57-81-27.23-93.67 2.24 0 0 102.35-4.21 134.46 110.25 0 0-.53-80.91-40.79-112.49z" fill="#04A344" fill-rule="nonzero"/><path d="M2401.6 423.092c-.11.78-.16 1.22-.16 1.22 0-18.55-11.25-32.56-11.25-32.56s-11.25 14-11.25 32.56c0 0 0-.44-.15-1.22-.54 8.68-1.59 43 11.4 82.53 13-39.54 11.94-73.85 11.41-82.53z" fill="#EFA3DB" fill-rule="nonzero"/><path d="M2378.79 423.092c-.69-4.64-4-21.53-17.21-31.34 0 0-3.16 11.64 1.38 26.84s.59 20.32-6.12 34.14-8.09 52.89 33.35 52.89c-12.99-39.54-11.94-73.85-11.4-82.53z" fill="#E589C9" fill-rule="nonzero"/><path d="M2423.54 452.732c-6.71-13.82-10.65-18.95-6.11-34.14 4.54-15.19 1.38-26.84 1.38-26.84-13.19 9.81-16.53 26.7-17.21 31.34.53 8.68 1.59 43-11.41 82.53 41.44 0 40.06-39.08 33.35-52.89z" fill="#CC75B6" fill-rule="nonzero"/><path d="M2364.14 646.152a1.66 1.66 0 0 1-1.66 1.66h-4.83a1.66 1.66 0 0 1-1.66-1.66 1.66 1.66 0 0 1 1.66-1.67h4.83a1.66 1.66 0 0 1 1.66 1.67zM2383.88 638.912a1.67 1.67 0 0 1-1.67 1.67h-4.82a1.67 1.67 0 0 1-1.67-1.67 1.66 1.66 0 0 1 1.67-1.66h4.82a1.66 1.66 0 0 1 1.67 1.66zM2396.38 646.152a1.66 1.66 0 0 1-1.67 1.66h-4.82a1.66 1.66 0 0 1-1.67-1.66c0-.923.748-1.67 1.67-1.67h4.82a1.67 1.67 0 0 1 1.67 1.67zM2408.35 637.262a1.66 1.66 0 0 1-1.67 1.66h-4.82a1.66 1.66 0 0 1-1.67-1.66c0-.923.748-1.67 1.67-1.67h4.82c.922 0 1.67.747 1.67 1.67zM2427.32 647.812a1.67 1.67 0 0 1-1.67 1.67h-4.82a1.67 1.67 0 0 1-1.67-1.67 1.66 1.66 0 0 1 1.67-1.66h4.82a1.66 1.66 0 0 1 1.67 1.66z" fill="#3F3525" fill-rule="nonzero"/><text font-family="iAWriterDuospace-Bold, iA Writer Duospace" font-size="64" font-weight="bold" fill="#000"><tspan x="2051" y="1160.262">Frameworks</tspan></text><rect fill="#231F20" fill-rule="nonzero" x="2765.16" y="550.702" width="33.51" height="118.59" rx="16.755"/><rect fill="#231F20" fill-rule="nonzero" x="2808.14" y="550.702" width="33.51" height="118.59" rx="16.755"/><circle fill="#231F20" fill-rule="nonzero" cx="2803.41" cy="390.872" r="48.61"/><path d="M2815.62 452.412l-12.21-7.93-12.22 7.93-26-7.93v126.23h76.46v-126.23l-26.03 7.93zm-12.21-.62l12.21 7.93-6.1 7.82h-12.22l-6.11-7.82 12.22-7.93zm0 106.22l-15.52-21.42 10.38-64.77h10.27l10.38 64.77-15.51 21.42zM2862.81 461.262c-.027-9.24-7.51-16.723-16.75-16.75v96.41h16.75v-79.66zM2846.06 545.432v22.05c9.243-.028 16.728-7.517 16.75-16.76v-5.29h-16.75zM2760.76 540.892v-96.41c-9.255.022-16.749 7.525-16.76 16.78v79.66l16.76-.03zM2744 545.432v5.29c.027 9.245 7.515 16.732 16.76 16.76v-22.05H2744z" fill="#231F20" fill-rule="nonzero"/><path d="M3187.62 342.772l.27-.44a50.85 50.85 0 0 0 3.11-6.07l.17-.41c.31-.78.64-1.61.92-2.44l.06-.16.07-.21c.05-.14.1-.28.14-.42l.16-.5c0-.12.07-.23.1-.35l.2-.67.07-.26c.26-.9.41-1.57.51-2.06v-.09-.07a36.14 36.14 0 0 0-59.8-34c-.05-.19-.09-.37-.14-.55a49.83 49.83 0 0 0-2.13-6.51c0-.13-.1-.26-.16-.39-.33-.77-.69-1.59-1.08-2.39l-.16-.34c-.06-.13-.12-.25-.19-.37l-.18-.37-.08-.14-.16-.3-.13-.24-.35-.62c-.37-.67-.73-1.27-1.07-1.78l-.09-.13a36.17 36.17 0 0 0-66.39 18.17c-.15-.09-.3-.19-.45-.27a50.4 50.4 0 0 0-6.11-3.1l-.4-.17c-.82-.32-1.63-.64-2.46-.93l-.24-.08h-.11l-.36-.12-.39-.12-.17-.06-.34-.1-.91-.26c-.91-.26-1.59-.42-2.09-.52h-.21a36.17 36.17 0 0 0-34 59.81l-.51.13a50.86 50.86 0 0 0-6.54 2l-.39.16c-.78.33-1.6.69-2.4 1.08l-.27.12-.37.19-.28.15-.19.1-.36.19-.32.18-.52.28c-.78.44-1.36.8-1.76 1.06l-.22.14a36.19 36.19 0 0 0 18.22 66.38l-.27.44a50.87 50.87 0 0 0-3.09 6.1c-.06.14-.12.27-.17.41-.33.82-.64 1.62-.92 2.44l-.12.33c-.05.13-.1.29-.14.42l-.18.57-.09.3-.13.46-.14.48c-.26.9-.41 1.56-.51 2v.1a.19.19 0 0 1 0 .07 36.13 36.13 0 0 0 59.8 34c.05.19.09.38.14.56a49.64 49.64 0 0 0 2.13 6.5c0 .13.1.27.16.4.33.77.69 1.59 1.08 2.38l.06.14.08.17c.07.15.15.3.22.44v.05l.22.43.16.29v.06l.45.8c.36.66.71 1.25 1 1.75l.1.16a36.1 36.1 0 0 0 8.8 9.26v22.85a85.32 85.32 0 0 0-16.75-17.84c-20.15-15.8-42.23-24.5-62.17-24.5-23.25 0-42.2 11.83-50.69 31.65-6.42 15.11-5.43 30.81 2.83 44.21 11.15 18 34.39 29.72 62.16 31.31 19 1.09 52.1 7.73 67.15 39.18-18.58 3.41-33.46 13.3-41 23.12-5.46 7.12-3.36 13.34-2.21 15.68 1.78 3.61 5.76 7.91 14.59 7.91a111.3 111.3 0 0 0 12.77-1.2 227.12 227.12 0 0 1 29.54-2.31 227 227 0 0 1 29.48 2.31 111.5 111.5 0 0 0 12.77 1.2c8.84 0 12.81-4.3 14.59-7.91 1.16-2.34 3.26-8.56-2.2-15.68-7.44-9.71-22.08-19.49-40.37-23 2.59-3.23 8.28-8.27 20.35-12.29h.09c14.4-4.79 28-9.32 38.2-16.5 17.4-12.24 18.17-28 15.75-39-2.85-13-12.84-21.14-26.08-21.15-12.81 0-27.92 7.56-41.15 19.47v-54l1.19-.62a36.23 36.23 0 0 0 18.83-30.1l.43.26a51.9 51.9 0 0 0 6.11 3.1l.4.16c.82.33 1.63.65 2.46.93l.21.08h.12l.44.15.5.15.34.1h.07l.84.24a21.27 21.27 0 0 0 2.09.52h.19a35.79 35.79 0 0 0 7.24.74 36.16 36.16 0 0 0 26.79-60.55l.51-.12a51.17 51.17 0 0 0 6.5-2.13l.4-.17c.77-.33 1.59-.68 2.39-1.08l.27-.13.45-.23.42-.21.33-.18.36-.2.49-.27c.82-.46 1.4-.82 1.81-1.09l.19-.12a36.18 36.18 0 0 0-18.24-66.36l.06-.02z" fill="#3F3525" fill-rule="nonzero" opacity=".15"/><path d="M3187.62 339.932l.27-.44a50.85 50.85 0 0 0 3.09-6.1c.06-.14.12-.27.17-.41.31-.78.64-1.61.92-2.44l.06-.15.07-.21c.05-.14.1-.29.14-.43l.16-.5c.04-.115.073-.232.1-.35l.2-.67.07-.25c.26-.9.41-1.58.51-2.07v-.09-.06a36.14 36.14 0 0 0-59.8-34c-.05-.18-.09-.37-.14-.55a49.64 49.64 0 0 0-2.13-6.5c0-.14-.1-.27-.16-.4-.33-.77-.69-1.59-1.08-2.39l-.16-.34c-.06-.12-.12-.25-.19-.37l-.18-.36-.08-.15-.16-.3-.13-.24-.35-.62c-.37-.67-.73-1.27-1.07-1.78l-.09-.13a36.17 36.17 0 0 0-66.39 18.17l-.45-.27a51.9 51.9 0 0 0-6.11-3.1l-.4-.16c-.82-.33-1.63-.65-2.46-.93l-.2-.08h-.11l-.36-.12-.39-.12-.17-.06-.34-.1-.91-.26c-.91-.26-1.59-.42-2.09-.52h-.21a36.17 36.17 0 0 0-34 59.82l-.51.12a50.86 50.86 0 0 0-6.56 2.01l-.39.16c-.78.34-1.6.7-2.4 1.09l-.27.13-.37.18-.28.15-.19.1-.36.19-.32.18-.52.29c-.78.43-1.36.79-1.76 1.06l-.22.13a36.19 36.19 0 0 0 18.22 66.38l-.27.44a50.87 50.87 0 0 0-3.09 6.1c-.06.14-.12.27-.17.41-.33.82-.64 1.62-.92 2.44l-.12.33c-.05.13-.1.29-.14.42l-.18.57-.09.3-.13.46-.14.48c-.26.9-.41 1.57-.51 2.05v.1a.14.14 0 0 1 0 .07 36.13 36.13 0 0 0 59.8 34c.05.19.09.38.14.56a49.64 49.64 0 0 0 2.13 6.5c0 .14.1.27.16.4.33.77.69 1.59 1.08 2.39l.06.13.08.17c.07.15.15.3.22.44v.06l.22.42.16.3v.05l.45.8c.36.66.71 1.25 1 1.75l.1.16a36.1 36.1 0 0 0 8.8 9.26v22.74a85.32 85.32 0 0 0-16.75-17.84c-20.15-15.8-42.23-24.5-62.17-24.5-23.25 0-42.2 11.83-50.69 31.65-6.42 15.16-5.43 30.87 2.83 44.26 11.15 18 34.39 29.73 62.16 31.32 19 1.08 52.1 7.72 67.15 39.17-18.58 3.41-33.46 13.3-41 23.12-5.4 7.12-3.31 13.34-2.15 15.71 1.78 3.61 5.76 7.91 14.59 7.91a111.3 111.3 0 0 0 12.77-1.2 227.12 227.12 0 0 1 29.48-2.34 227 227 0 0 1 29.48 2.31 111.5 111.5 0 0 0 12.77 1.2c8.84 0 12.81-4.3 14.59-7.91 1.16-2.34 3.26-8.56-2.2-15.68-7.44-9.71-22.08-19.48-40.37-23 2.59-3.23 8.28-8.27 20.35-12.29h.09c14.4-4.79 28-9.32 38.2-16.5 17.4-12.24 18.17-28 15.75-39-2.85-13-12.84-21.14-26.08-21.14-12.81 0-27.92 7.55-41.15 19.46v-54l1.19-.62a36.2 36.2 0 0 0 18.84-30.2l.43.26a51.9 51.9 0 0 0 6.11 3.1l.4.16c.82.33 1.63.65 2.46.93l.21.08h.12l.44.15.5.15.34.11h.07l.84.24c.92.26 1.6.42 2.09.52h.19a36.18 36.18 0 0 0 34-59.82l.51-.12a51.17 51.17 0 0 0 6.5-2.13l.4-.16c.77-.34 1.59-.69 2.39-1.09l.27-.13c.15-.07.31-.14.45-.22l.42-.22.33-.18.36-.2.49-.27c.82-.45 1.4-.81 1.81-1.09l.19-.12a36.18 36.18 0 0 0-18.24-66.36l.08.08z" fill="#3F3525" fill-rule="nonzero"/><path d="M3104.64 466.432a6.32 6.32 0 0 0-6.32 6.32v134.72c0 3.48 3.87 13.29 3.87 13.29s0-4.09 3.93-8.84v-145.29a6 6 0 0 0-1.48-.2z" fill="#C3996C" fill-rule="nonzero"/><path d="M3106.12 466.632v145.29a25.37 25.37 0 0 1 4.84-4.45v-134.72a6.3 6.3 0 0 0-4.84-6.12z" fill="#A87D56" fill-rule="nonzero"/><path d="M3146.74 651.152c-6.05-7.9-22.37-19.48-44.73-19.48-22.36 0-38.68 11.59-44.73 19.48-6.05 7.89 15.78 0 44.73 0 28.95 0 50.78 7.89 44.73 0z" fill="#514632" fill-rule="nonzero"/><path d="M3117.25 284.442l.12.18s.29.45.58 1l.48.85.25.5.19.39c.27.54.54 1.18.85 1.89a39.9 39.9 0 0 1 1.63 4.92c.23.95.48 2 .69 3 .21 1 .34 2.15.53 3.3.34 2.3.57 4.75.75 7.32.18 2.57.26 5.26.14 8-.05 1.37 0 2.76-.15 4.15-.15 1.39-.25 2.79-.38 4.21s-.31 2.8-.55 4.2l-.69 4.17c-.58 2.76-1.32 5.46-2 8.07-.85 2.55-1.69 5.06-2.51 7.49l-2.82 6.66c-.9 2.09-2 4-2.92 5.69-.92 1.69-1.74 3.3-2.64 4.61l-2.21 3.4-1.93 2.91a7 7 0 0 1-12.76-4.31l.1-.78s.08-1.13.21-3.12c.07-1 .16-2.15.25-3.51.115-1.5.141-3.007.08-4.51 0-1.64.05-3.38-.12-5.23-.17-1.85-.31-3.71-.47-5.68-.16-1.97-.63-3.87-1-5.88-.51-2-.94-3.9-1.49-5.8l-.89-2.79a25.45 25.45 0 0 0-1-2.7l-1-2.57c-.34-.83-.78-1.62-1.15-2.41-.71-1.57-1.6-3-2.35-4.31-.75-1.31-1.6-2.49-2.37-3.5-.77-1.01-1.47-1.91-2.07-2.63-.26-.4-.54-.72-.76-1-.22-.28-.43-.57-.57-.79a5.27 5.27 0 0 1-.37-.53l-.07-.12v.06s.09.09 0-.11l-.11-.19-.12-.23c-6.038-11.155-2.22-25.086 8.662-31.602 10.881-6.517 24.965-3.307 31.948 7.282l.01.05z" fill="#EFA3DB" fill-rule="nonzero"/><path d="M3087.5 477.582l-.12-.18s-.29-.45-.58-1l-.47-.86c-.09-.15-.17-.32-.26-.49l-.19-.39c-.27-.54-.54-1.18-.85-1.89a39.9 39.9 0 0 1-1.63-4.92c-.23-1-.47-2-.69-3-.22-1-.34-2.15-.53-3.3-.34-2.3-.57-4.75-.75-7.32-.18-2.57-.26-5.26-.14-8 .05-1.37 0-2.76.15-4.15.15-1.39.25-2.79.38-4.21s.31-2.81.55-4.2l.69-4.17c.58-2.76 1.32-5.46 2-8.07l2.5-7.49 2.83-6.67c.9-2.08 2-3.94 2.92-5.68.92-1.74 1.74-3.3 2.64-4.61l2.21-3.41 1.93-2.91a7 7 0 0 1 12.76 4.32l-.05.75s-.08 1.13-.21 3.12c-.07 1-.16 2.15-.25 3.51a40.91 40.91 0 0 0-.08 4.51c0 1.64-.05 3.38.12 5.22.17 1.84.31 3.72.47 5.69.16 1.97.63 3.87 1 5.87.51 2 .94 3.91 1.49 5.81l.89 2.79c.28.915.614 1.813 1 2.69l1 2.57c.34.84.78 1.63 1.15 2.42.71 1.57 1.6 3 2.35 4.31.75 1.31 1.6 2.49 2.37 3.5.77 1.01 1.47 1.91 2.07 2.63.26.39.54.71.76 1 .22.29.43.58.57.8.136.167.26.344.37.53l.07.12v-.06s-.09-.09 0 .11l.11.19.12.23c6.038 11.154 2.22 25.085-8.662 31.602-10.881 6.516-24.965 3.306-31.948-7.282l-.06-.03z" fill="#CC75B6" fill-rule="nonzero"/><path d="M3199 395.892l-.18.12s-.46.29-1 .57l-.86.48-.49.26-.39.18c-.55.27-1.18.55-1.9.86a39.34 39.34 0 0 1-4.92 1.63c-.94.23-2 .47-3 .68l-3.31.53c-2.29.34-4.75.57-7.32.76-2.57.19-5.25.26-8 .14-1.38-.05-2.76 0-4.16-.16l-4.2-.38a40.08 40.08 0 0 1-4.21-.55l-4.17-.69c-2.75-.58-5.45-1.31-8.07-2l-7.48-2.5-6.67-2.82c-2.09-.9-3.94-2-5.68-2.93a52.82 52.82 0 0 1-4.61-2.64l-3.38-2.17-3-1.95a7 7 0 0 1 4.32-12.76l.75.06 3.11.21 3.51.25c1.5.104 3.006.131 4.51.08 1.65 0 3.39 0 5.23-.13l5.68-.46 5.88-1c2-.5 3.91-.94 5.8-1.48l2.8-.9a21 21 0 0 0 2.69-1l2.57-1c.84-.33 1.63-.78 2.41-1.14 1.58-.72 3-1.6 4.32-2.36 1.32-.76 2.49-1.59 3.5-2.36 1.01-.77 1.9-1.47 2.62-2.07.4-.27.72-.54 1-.77l.8-.57a3.68 3.68 0 0 1 .53-.37l.11-.07h-.06s-.09.08.12 0l.18-.1.24-.13c11.225-6.733 25.783-3.09 32.515 8.135 6.732 11.225 3.09 25.782-8.135 32.515zM3005.8 366.132l.18-.12s.46-.29 1-.57l.86-.48.49-.26.4-.19c.54-.26 1.17-.54 1.89-.85a39.34 39.34 0 0 1 4.92-1.63c.94-.23 1.95-.47 3-.69l3.31-.52c2.29-.35 4.75-.57 7.32-.76 2.57-.19 5.25-.26 8-.14 1.38 0 2.76 0 4.16.15l4.2.38c1.41.11 2.81.31 4.21.55l4.17.7c2.75.58 5.45 1.31 8.07 2l7.48 2.51 6.67 2.82c2.09.9 3.94 2 5.68 2.93a52.9 52.9 0 0 1 4.61 2.63l3.41 2.21 2.91 1.94a7 7 0 0 1-4.32 12.75h-.75l-3.11-.21-3.51-.25a40.91 40.91 0 0 0-4.51-.08c-1.65 0-3.39-.05-5.23.12l-5.68.47-5.88 1c-2 .5-3.91.93-5.8 1.48l-2.8.89a22.65 22.65 0 0 0-2.69 1l-2.57 1c-.84.34-1.63.79-2.41 1.15-1.58.71-3 1.6-4.32 2.36-1.32.76-2.49 1.59-3.5 2.36-1.01.77-1.9 1.47-2.62 2.07-.4.27-.72.54-1 .76-.28.22-.58.43-.8.57a3.58 3.58 0 0 1-.53.38l-.11.07h.06s.09-.08-.12 0l-.18.1-.23.13c-11.247 6.718-25.811 3.047-32.53-8.2-6.719-11.248-3.047-25.812 8.2-32.53z" fill="#E589C9" fill-rule="nonzero"/><path d="M3181.18 323.262v.21c0 .13-.12.53-.28 1.1l-.27.94c-.05.17-.11.35-.16.53l-.15.41c-.2.57-.45 1.22-.73 1.94a40.13 40.13 0 0 1-2.33 4.63c-.51.83-1.05 1.72-1.64 2.62l-2 2.71c-1.38 1.86-3 3.76-4.65 5.71-1.65 1.95-3.53 3.9-5.56 5.75-1 .94-2 1.93-3 2.83l-3.24 2.71c-1.07.92-2.21 1.76-3.37 2.58l-3.43 2.46c-2.37 1.54-4.79 2.93-7.11 4.31l-7.06 3.52-6.72 2.72c-2.11.84-4.22 1.35-6.08 2-1.86.65-3.56 1.11-5.13 1.4l-4 .84-3.42.69a7 7 0 0 1-6-12.07l.57-.49 2.35-2.06 2.66-2.3a43.93 43.93 0 0 0 3.24-3.13c1.13-1.2 2.43-2.36 3.61-3.79l3.72-4.42 3.47-4.84c1-1.74 2.1-3.42 3.06-5.15l1.34-2.61c.464-.833.875-1.695 1.23-2.58.36-.86.72-1.71 1.08-2.55.35-.83.6-1.71.89-2.52.61-1.62 1-3.24 1.39-4.71.39-1.47.63-2.89.8-4.15.17-1.26.31-2.39.39-3.32.079-.414.136-.83.17-1.25.05-.35.11-.71.16-1a4.43 4.43 0 0 1 .11-.64v-.13 0l.06-.21.08-.25c3.192-12.689 16.066-20.387 28.755-17.195s20.387 16.066 17.195 28.755z" fill="#CC75B6" fill-rule="nonzero"/><path d="M3023.57 438.772v-.21c0-.14.12-.52.28-1.09l.27-.94c0-.17.11-.35.16-.53l.15-.41c.2-.57.45-1.22.73-1.94a40.999 40.999 0 0 1 2.33-4.64c.51-.83 1-1.71 1.64-2.61l2-2.71c1.38-1.86 3-3.76 4.65-5.71a63.64 63.64 0 0 1 5.56-5.76c1-.93 2-1.92 3-2.83l3.24-2.7a40.41 40.41 0 0 1 3.42-2.58l3.43-2.47c2.37-1.53 4.79-2.92 7.11-4.3l7.06-3.52 6.72-2.72c2.11-.84 4.22-1.35 6.08-2a52.59 52.59 0 0 1 5.13-1.4l4-.84 3.42-.69a7 7 0 0 1 6 12.07l-.57.49-2.38 2.11-2.66 2.3a40.23 40.23 0 0 0-3.24 3.13c-1.13 1.2-2.43 2.36-3.61 3.79l-3.69 4.35-3.51 4.85c-1 1.74-2.1 3.42-3.06 5.15l-1.34 2.6c-.463.835-.87 1.7-1.22 2.59l-1.09 2.55c-.35.83-.6 1.7-.89 2.52-.61 1.62-1 3.24-1.39 4.71-.39 1.47-.63 2.89-.8 4.15-.17 1.26-.31 2.39-.39 3.32-.079.413-.136.83-.17 1.25 0 .35-.11.71-.16 1a4.43 4.43 0 0 1-.11.64v.13-.07.11l-.06.2-.07.26c-3.57 12.22-16.16 19.434-28.509 16.334-12.348-3.1-20.037-15.407-17.411-27.864l-.05-.07zM3160.14 459.822l-.21-.05a9.76 9.76 0 0 1-1.09-.28l-1-.26-.53-.17-.41-.15c-.57-.19-1.21-.44-1.94-.73a38.58 38.58 0 0 1-4.63-2.33c-.83-.5-1.72-1.05-2.61-1.64l-2.71-2c-1.87-1.38-3.76-3-5.71-4.64-1.95-1.64-3.9-3.54-5.76-5.56-.94-1-1.93-2-2.83-3l-2.7-3.24c-.92-1.07-1.77-2.2-2.59-3.36l-2.42-3.45c-1.53-2.36-2.92-4.79-4.31-7.11l-3.52-7.06c-.94-2.33-1.85-4.58-2.72-6.71-.87-2.13-1.35-4.23-2-6.09-.65-1.86-1.1-3.56-1.39-5.12-.29-1.56-.61-2.87-.85-4l-.69-3.43a7 7 0 0 1 12.07-6l.5.57 2 2.35 2.31 2.66a42.002 42.002 0 0 0 3.13 3.25c1.19 1.13 2.36 2.42 3.78 3.61l4.35 3.68 4.84 3.48c1.74 1 3.42 2.1 5.15 3l2.61 1.34a23.54 23.54 0 0 0 2.59 1.23l2.55 1.08c.83.36 1.7.6 2.51.89a47.83 47.83 0 0 0 4.72 1.39c1.49.34 2.89.64 4.15.8 1.26.16 2.38.31 3.32.4.47.09.89.12 1.24.16l1 .16c.24 0 .46.07.64.12h.13-.06s-.12 0 .11.05l.2.06.25.08c12.205 3.58 19.405 16.16 16.31 28.496-3.095 12.337-15.38 20.029-27.83 17.424l.05.1z" fill="#EFA3DB" fill-rule="nonzero"/><path d="M3044.61 302.202l.21.05c.05 0 .53.11 1.09.27l1 .27.53.17.41.14c.57.2 1.22.45 1.94.74a38.58 38.58 0 0 1 4.63 2.33c.83.5 1.72 1 2.61 1.63l2.71 2c1.87 1.38 3.76 3 5.71 4.64 1.95 1.64 3.9 3.53 5.76 5.56.94 1 1.93 2 2.83 3l2.7 3.24c.92 1.07 1.77 2.2 2.59 3.36l2.46 3.44c1.53 2.36 2.92 4.79 4.31 7.11l3.47 7.11c.94 2.33 1.85 4.58 2.72 6.71.87 2.13 1.35 4.22 2 6.08.65 1.86 1.1 3.57 1.39 5.13.29 1.56.61 2.87.85 4l.69 3.43a7 7 0 0 1-12.07 6l-.5-.57s-.74-.86-2-2.35l-2.31-2.66a42.001 42.001 0 0 0-3.13-3.25c-1.19-1.13-2.36-2.43-3.78-3.61l-4.43-3.78-4.84-3.47c-1.74-1-3.43-2.1-5.15-3l-2.61-1.35a23.46 23.46 0 0 0-2.61-1.31l-2.55-1c-.83-.36-1.7-.6-2.51-.9-1.62-.61-3.25-1-4.72-1.38-1.47-.38-2.89-.64-4.15-.81-1.26-.17-2.38-.31-3.32-.39-.46-.09-.89-.13-1.24-.17-.35-.04-.71-.1-1-.16a4.69 4.69 0 0 1-.64-.11h-.13.06s.12 0-.1-.06l-.21-.06-.25-.07c-12.689-3.198-20.383-16.077-17.185-28.765 3.198-12.689 16.076-20.383 28.765-17.185z" fill="#CC75B6" fill-rule="nonzero"/><path d="M3122.71 380.892c0 11.294-9.156 20.45-20.45 20.45-11.294 0-20.45-9.156-20.45-20.45 0-11.295 9.156-20.45 20.45-20.45 11.294 0 20.45 9.155 20.45 20.45z" fill="#FFFBCA" fill-rule="nonzero"/><path d="M3102.19 620.762c.33-1.44 4.19-15.58 30.5-24.34 27.08-9 51-17 45.78-41.05-63.58 11.28-75.7 62.75-76.28 65.39z" fill="#04A344" fill-rule="nonzero"/><path d="M2967.71 510.642c-12.63 29.47 13.22 55.8 54.2 58.15 34.51 2 66.83 17.36 80.25 52.1-32.1-114.46-134.45-110.25-134.45-110.25zM3178.47 555.372c-7.22-33-76.31 11.44-76.31 65.52v-.13c.61-2.64 12.73-54.11 76.31-65.39z" fill="#0FBC59" fill-rule="nonzero"/><path d="M3061.38 508.402c-40.26-31.58-81-27.23-93.67 2.24 0 0 102.35-4.21 134.45 110.25 0 0-.52-80.92-40.78-112.49z" fill="#04A344" fill-rule="nonzero"/><path d="M3075.56 648.822a1.66 1.66 0 0 1-1.66 1.67h-4.83a1.66 1.66 0 0 1-1.66-1.67c0-.917.743-1.66 1.66-1.66h4.83c.917 0 1.66.743 1.66 1.66zM3088.59 641.502a1.66 1.66 0 0 1-1.67 1.66h-4.82a1.66 1.66 0 0 1-1.67-1.66c0-.923.748-1.67 1.67-1.67h4.82c.922 0 1.67.747 1.67 1.67zM3110.38 638.162a1.66 1.66 0 0 1-1.67 1.67h-4.82a1.67 1.67 0 0 1-1.67-1.67 1.66 1.66 0 0 1 1.67-1.66h4.82a1.66 1.66 0 0 1 1.67 1.66zM3102 645.492a1.67 1.67 0 0 1-1.67 1.67h-4.82a1.67 1.67 0 1 1 0-3.34h4.82c.922 0 1.67.747 1.67 1.67zM3121.35 645.492a1.67 1.67 0 0 1-1.67 1.67h-4.82a1.67 1.67 0 1 1 0-3.34h4.82c.922 0 1.67.747 1.67 1.67zM3132.4 641.502a1.66 1.66 0 0 1-1.67 1.66h-4.82a1.66 1.66 0 0 1-1.67-1.66c0-.923.748-1.67 1.67-1.67h4.82c.922 0 1.67.747 1.67 1.67zM3140.56 648.822a1.67 1.67 0 0 1-1.67 1.67h-4.82a1.67 1.67 0 0 1-1.67-1.67 1.66 1.66 0 0 1 1.67-1.66h4.82a1.66 1.66 0 0 1 1.67 1.66z" fill="#3F3525" fill-rule="nonzero"/><path d="M3213.789 701.262H2753.21c-5.087 0-9.211 4.135-9.211 9.236V1043.025c0 5.101 4.124 9.237 9.211 9.237h460.578c5.087 0 9.211-4.135 9.211-9.237V710.498c0-5.101-4.124-9.236-9.211-9.236zm-9.212 332.525h-442.154v-258.63h442.153l.001 258.63zm0-277.104h-442.154v-36.948h442.153v36.948h.001z" fill="#000" fill-rule="nonzero"/><path d="M3094.75 729.262h-18.5c-5.109 0-9.25 4.029-9.25 9 0 4.97 4.141 9 9.25 9h18.5c5.109 0 9.25-4.03 9.25-9 0-4.971-4.141-9-9.25-9zM3140.75 729.262h-18.5c-5.109 0-9.25 4.029-9.25 9 0 4.97 4.141 9 9.25 9h18.5c5.109 0 9.25-4.03 9.25-9 0-4.971-4.141-9-9.25-9zM3186.75 729.262h-18.5c-5.109 0-9.25 4.029-9.25 9 0 4.97 4.141 9 9.25 9h18.5c5.109 0 9.25-4.03 9.25-9 0-4.971-4.141-9-9.25-9z" fill="#000" fill-rule="nonzero"/><path d="M3027 878.65v-11.388c-68.607 0-124 55.173-124 123h11.434c0-61.5 50.312-111.611 112.566-111.611z" fill="#F66" fill-rule="nonzero"/><path d="M2915 990.262h11.377c0-55.365 45.002-100.572 100.623-100.572v-11.428c-61.941 0-112 50.285-112 112z" fill="#FFFB80" fill-rule="nonzero"/><path d="M3027 901.625v-11.363c-55.83 0-101 44.697-101 100h11.42c0-48.99 40.095-88.637 89.58-88.637" fill="#A3E66F" fill-rule="nonzero"/><path d="M2938 990.262h11.346c.252-42.852 34.793-77.59 77.654-77.59v-11.41c-49.164 0-89 39.809-89 89z" fill="#66C2FF" fill-rule="nonzero"/><path d="M3027 924.732v-11.47c-43.192 0-78 34.921-78 78h11.433c0-36.706 29.727-66.53 66.567-66.53" fill="#9180FF" fill-rule="nonzero"/><path d="M2895.224 1016.262a19.31 19.31 0 0 1-5.319-.759c-7.092-2.276-11.905-8.852-11.905-16.187 0-4.805 2.026-9.61 5.826-12.899l3.04-2.276 1.013-4.047c2.786-9.863 12.158-16.692 22.29-16.692 1.013 0 2.026 0 3.293.253 1.013.253 1.773.253 2.786.506l.507-.76c4.052-7.334 12.158-12.14 20.517-12.14 12.918 0 23.557 10.623 23.557 23.522v2.276c1.013.506 2.026.76 3.04 1.265 6.332 3.54 10.131 10.37 10.131 17.451 0 9.358-6.586 17.452-15.704 19.728-1.52.253-3.04.506-4.56.506l-58.512.253" fill="#FFF" fill-rule="nonzero"/><path d="M2937.86 954.131c11.108 0 20.196 8.905 20.196 20.099v1.526c-4.544.255-8.835 2.29-12.117 5.089 2.524-1.527 5.301-2.29 8.33-2.29 1.01 0 2.273 0 3.282.254 1.768.255 3.535 1.018 5.05 2.036 5.049 2.798 8.33 8.396 8.33 14.502 0 7.886-5.554 14.756-13.127 16.537-1.262.254-2.525.508-3.787.508h-58.568c-1.515 0-3.03-.254-4.292-.763-5.554-1.78-9.34-6.87-9.34-12.975 0-4.07 1.766-7.887 4.796-10.431 1.262-1.272 2.777-2.035 4.544-2.544a14.195 14.195 0 0 1 4.544-.764c4.292 0 8.33 2.036 10.855 5.343-3.029-5.343-8.33-9.159-14.642-9.668 2.272-8.141 9.846-14.247 18.934-14.247 1.01 0 2.02 0 2.777.254 1.767.255 3.534.764 5.302 1.527 6.058 2.798 10.602 8.396 11.612 15.265 0-7.887-4.039-14.502-10.098-18.573 3.282-6.614 9.846-10.685 17.42-10.685zm0-6.87c-9.34 0-17.924 4.835-22.72 12.467h-.505c-1.515-.254-2.525-.254-3.787-.254-11.865 0-22.216 7.887-25.497 19.335l-.758 2.799c-.757.509-1.767 1.272-2.524 1.78a19.882 19.882 0 0 0-7.069 15.266c0 8.905 5.554 16.791 14.137 19.59 2.02.763 4.292 1.018 6.564 1.018h58.569c1.767 0 3.534-.255 5.301-.51 10.855-2.543 18.429-11.957 18.429-23.151 0-8.396-4.544-16.283-11.865-20.608-.253-.254-.758-.509-1.01-.509v-.254c-.252-15.01-12.37-26.968-27.265-26.968z" fill="#75D6FF" fill-rule="nonzero"/><path d="M2845 854.393s-3.853-24.352-3.853-26.173c0-1.82 1.813-2.958 3.853-2.958s3.853 1.365 3.853 3.186c0 1.82-3.853 25.945-3.853 25.945m0 5.69s3.853 24.351 3.853 26.172c0 1.593-1.813 3.186-3.853 3.186s-3.853-1.365-3.853-3.186c0-1.82 3.853-26.173 3.853-26.173m-2.947-2.958s-24.253 3.869-26.066 3.869c-1.587 0-3.174-1.82-3.174-3.87 0-2.047 1.36-3.868 3.174-3.868 1.813 0 26.066 3.869 26.066 3.869m5.894 0s24.253-3.87 26.066-3.87c1.587 0 3.174 1.822 3.174 3.87s-1.36 3.869-3.174 3.869c-1.813 0-26.066-3.87-26.066-3.87m-4.987-2.047s-19.947-14.566-21.08-15.704c-1.133-1.138-.907-3.414.68-5.007 1.587-1.593 3.627-1.82 4.987-.683.906 1.594 15.413 21.394 15.413 21.394m4.08 4.096s19.947 14.566 21.08 15.704c1.133 1.137.907 3.413-.68 5.006-1.587 1.594-3.627 1.821-4.987.683-.906-1.365-15.413-21.393-15.413-21.393m-4.08 0s-14.507 20.028-15.64 21.166c-1.133 1.138-3.4.91-4.987-.683-1.586-1.593-1.813-3.642-.68-5.007 1.36-.91 21.307-15.476 21.307-15.476m4.08-4.096s14.507-20.028 15.64-21.166c1.133-1.138 3.4-.91 4.987.683 1.586 1.593 1.813 3.641.68 5.007-1.36 1.138-21.307 15.476-21.307 15.476" fill="#6ADBC6" fill-rule="nonzero"/><path d="M2844.167 852.993s-20.167-39.285-21.313-42.01c-1.146-2.725-.458-5.678 1.604-6.586 2.063-.908 4.584.908 5.73 3.633 1.145 2.725 13.979 44.963 13.979 44.963m3.666 9.537s20.167 39.286 21.313 42.01c1.146 2.726.458 5.678-1.604 6.586-2.063.909-4.584-.908-5.73-3.633-1.145-2.725-13.979-44.963-13.979-44.963m-6.646-2.725s-39.645 19.984-42.395 21.12c-2.75 1.135-5.73.453-6.646-1.59-.917-2.044.916-4.542 3.666-5.677 2.98-1.136 45.376-13.853 45.376-13.853m9.624-3.86s39.646-19.983 42.396-21.119c2.75-1.135 5.73-.454 6.646 1.59.917 2.044-.916 4.542-3.666 5.677l-45.376 13.852m-9.624-.227s-42.167-13.625-45.146-14.76c-2.98-1.136-4.354-3.634-3.438-5.678.917-2.043 3.896-2.497 6.646-1.362 2.75 1.135 41.938 21.8 41.938 21.8m9.624 4.087s42.167 13.625 45.146 14.76c2.75 1.136 4.354 3.861 3.667 5.678-.917 2.044-3.896 2.498-6.646 1.362-2.979-1.135-42.166-21.8-42.166-21.8m-6.876 2.725s-13.75 41.784-14.895 44.736c-1.146 2.725-3.896 4.314-5.73 3.633-2.062-.908-2.52-3.86-1.374-6.585 1.145-2.952 22-41.784 22-41.784m4.124-9.31s13.75-41.783 14.896-44.735c1.146-2.952 3.667-4.542 5.73-3.634 2.062.909 2.52 3.86 1.374 6.586-1.145 2.952-22 41.783-22 41.783" fill="#FFCE31" fill-rule="nonzero"/><path d="M2845.5 892.03s3.882 28.484 3.882 30.535c0 2.05-1.827 3.646-3.882 3.646s-3.882-1.595-3.882-3.646c0-2.05 3.882-30.534 3.882-30.534zm0-70.867s-3.882-26.66-3.882-28.483c0-1.823 1.599-3.418 3.882-3.418 2.283 0 3.882 1.595 3.882 3.418 0 1.823-3.882 28.483-3.882 28.483zm24.432 60.841s22.833 17.318 24.431 18.686c1.37 1.367 1.37 3.873-.228 5.24-1.598 1.368-3.882 1.596-5.252.228-1.598-1.367-18.951-24.154-18.951-24.154zm-50.234-50.13s-21.691-15.952-22.833-17.319c-1.37-1.367-1.142-3.646.457-5.24 1.598-1.596 3.881-1.596 5.251-.457.914 1.368 17.125 23.015 17.125 23.015zm50.234 1.366s17.353-22.786 18.723-24.382c1.37-1.367 3.882-1.367 5.252.228 1.598 1.595 1.598 3.874.228 5.241-1.37 1.595-24.203 18.913-24.203 18.913zm-50.234 50.132s-15.983 21.647-17.353 22.786c-1.37 1.368-3.653 1.14-5.252-.455-1.598-1.595-1.826-3.646-.456-4.786 1.37-1.367 23.061-17.545 23.061-17.545zm60.28-25.75s28.542-3.873 30.597-3.873c2.055 0 3.425 1.595 3.425 3.873 0 2.051-1.598 3.874-3.653 3.874-1.827 0-30.369-3.874-30.369-3.874zm-71.011 0s-26.715 3.874-28.542 3.874c-1.827 0-3.425-1.595-3.425-3.874 0-2.278 1.598-3.873 3.425-3.873 1.827 0 28.542 3.873 28.542 3.873z" fill="#42ADE2" fill-rule="nonzero"/><ellipse fill="#42ADE2" fill-rule="nonzero" cx="2819.698" cy="796.326" rx="4.11" ry="4.102"/><ellipse fill="#42ADE2" fill-rule="nonzero" cx="2871.758" cy="796.326" rx="4.11" ry="4.102"/><ellipse fill="#42ADE2" fill-rule="nonzero" cx="2818.557" cy="919.147" rx="4.11" ry="4.102"/><ellipse fill="#42ADE2" fill-rule="nonzero" cx="2870.617" cy="919.147" rx="4.11" ry="4.102"/><ellipse fill="#42ADE2" fill-rule="nonzero" cx="2783.622" cy="883.144" rx="4.11" ry="4.102"/><ellipse fill="#42ADE2" fill-rule="nonzero" cx="2783.622" cy="831.19" rx="4.11" ry="4.102"/><ellipse fill="#42ADE2" fill-rule="nonzero" cx="2906.693" cy="884.283" rx="4.11" ry="4.102"/><ellipse fill="#42ADE2" fill-rule="nonzero" cx="2906.693" cy="832.329" rx="4.11" ry="4.102"/><path d="M3047 789.262l10.593 14c.722-1.424 1.685-2.848 2.407-4.509l-13-9.491" fill="#FF9C70" fill-rule="nonzero"/><path d="M3064.217 812.262c1.674-2.167 3.348-4.334 4.783-6.5l-8.609-6.5c-.717 1.444-1.674 2.889-2.391 4.574l6.217 8.426" fill="#FFE76E" fill-rule="nonzero"/><path d="M3070.034 820.262l7.966-8.115-9.172-6.885c-1.69 2.213-3.38 4.426-4.828 6.64l6.034 8.36" fill="#D3FF75" fill-rule="nonzero"/><path fill="#59FFBA" fill-rule="nonzero" d="M3075.667 828.262L3087 819.4l-9.208-7.138-7.792 8.123 5.667 7.877"/><path d="M3081.933 835.262c5.438-2.824 10.876-5.883 16.067-8.706l-10.135-7.294-11.865 8.47 5.933 7.53" fill="#73DEFF" fill-rule="nonzero"/><path d="M3097.931 827.262c-5.392 2.966-10.784 6.18-15.931 9.146l9.559 12.854 12.01-12.113 3.431-3.46-9.069-6.427" fill="#8387F7" fill-rule="nonzero"/><path d="M3120.145 827.036s10.161-17.224 53.71-21.348c-44.274-4.852-56.855 11.159-56.855 11.159s1.694 6.55 3.145 10.189" fill="#FF639B" fill-rule="nonzero"/><path d="M3117.242 829.462s21.774-15.284 60.726-12.615l-35.565 17.224s20.323 2.911 47.903 4.61l-28.79 9.46s10.161 6.308 28.549 12.373l-19.355 2.91s15.242.971 21.048 15.041l-13.306-.97s6.048 14.313 13.306 22.561l-12.58-7.278s7.257 12.373 12.58 24.502l-13.064-3.881c6.048 14.313 11.612 20.378 11.612 20.378-32.66-9.704-73.064-104.315-73.064-104.315" fill="#FF639B" fill-rule="nonzero"/><path d="M3113 833.424s28.837-13.09 69.55-3.878l-44.105 8.726s29.564 1.455 47.497 14.06h-28.353s17.69 4.12 25.687 17.21l-16.72-1.697s18.174 7.756 25.444 23.27l-17.69-9.211s14.055 7.514 12.116 32.481l-10.178-21.33s3.878 25.936 11.632 31.996l-10.662-.243c4.846 5.333 7.27 9.454 7.27 9.454h-26.172L3113 833.424" fill="#FCA9C9" fill-rule="nonzero"/><path d="M3110.11 830.36s-1.473-10.535 6.378-26.098c0 0 10.059 12.211 12.512 34l-18.89-7.902" fill="#B2C1C0" fill-rule="nonzero"/><path d="M3067.214 913.762c3.628 2.407 12.094-7.223 21.77-8.908 36.284-6.74 29.51-20.703 29.51-20.703 9.918 12.277-5.32 41.166-14.029 49.11H3178c-.484-96.296-60.715-104-60.715-104-1.935-17.333-16.932-26-16.932-26-4.596 10.834-2.419 30.093-2.419 30.093-7.499 13-45.717 48.87-50.071 54.167-4.354 5.296 9.191 21.185 9.191 21.185 3.629.482 8.225 3.611 10.16 5.056" fill="#EFF6F7" fill-rule="nonzero"/><path d="M3078.04 910.262c1.92-1.457 6.48-4.372 13.44-5.829 4.8-.971 9.36-2.428 13.68-4.371 4.32-1.943 8.16-4.615 10.56-8.743 2.16-3.886 2.16-8.986.48-13.357 2.64 3.885 3.6 9.471 1.2 14.328-2.16 4.857-6.72 8.015-11.28 9.957-4.56 2.186-9.36 3.4-14.4 4.129-5.76.729-11.28 2.914-13.68 3.886m-21.36-15.057c-1.2.971-4.32 1.457-5.28.242-.96-1.214.72-3.885 1.92-4.614 1.2-.971 2.88-.728 3.84.486.96 1.457.72 3.157-.48 3.886m23.28-6.558c-.24 5.586-3.12 11.172-7.44 15.058-2.16 1.942-4.8 3.642-7.44 4.614-2.64.971-5.76 1.457-8.64 1.457 5.52-1.7 10.56-4.129 14.4-7.771 1.92-1.7 3.6-3.886 5.28-6.072 1.44-2.186 2.88-4.614 3.84-7.286" fill="#B2C1C0" fill-rule="nonzero"/><path d="M3082 869.733s2.175-1.7 4.108-1.214c0 0-2.658 2.671-.725 7.043 0 0 2.175-5.1 6.042-5.343 0 0-2.658 3.643.725 7.043 0 0 .725-5.1 5.558-6.8 0 0-.725 2.671 1.692 6.071 0 0-.725-4.614 2.658-7.043 3.384-2.185 7.25-3.643 8.942-9.228 0 0-8.217 8.5-19.575 6.071-2.658-.971-7.008-1.7-9.425 3.4" fill="#3E4347" fill-rule="nonzero"/><path d="M3103.854 836.534c-4.12-5.333-1.454-20.363-.97-22.545.485-2.424 14.054 6.788 10.42 23.03-.242 1.455-.97 2.91-2.423 2.91-1.454 0-1.454-4.122-.727-6.788.727-2.667-.97 0-1.454 1.696-.727 1.94-1.212.485-.97-1.454.243-1.94-1.453 1.94-.968 4.121.242 2.182 0 2.667-2.908-.97m-49.43 49.697c-1.212.728-.97 1.213 0 .728 1.21-.485 6.541-1.697 7.026 3.878 0 0 .242 2.667.97 0 .726-2.424-.728-8.97-7.997-4.606" fill="#B2C1C0" fill-rule="nonzero"/><path d="M3097.697 828.108s6.545 26.654 32.727 40.223c0 0-64.485-14.054-32.727-40.223m19.636 1.938s16.485 43.616 50.425 55.731c-33.455-31.985-25.213-49.915-51.88-62.515 0 0 0 3.15 1.455 6.784" fill="#FF639B" fill-rule="nonzero"/><path d="M3118.899 885.262s15.096 9.848 4.073 49H3105s22.286-26.902 13.899-49" fill="#B2C1C0" fill-rule="nonzero"/><text font-family="iAWriterDuospace-Bold, iA Writer Duospace" font-size="64" font-weight="bold" fill="#000"><tspan x="2696" y="1160.262">Grid and beyond</tspan></text><g fill-rule="nonzero"><path d="M1260.931 139.313l-17.94 28.306v-47.457h-5.853v47.458l-17.94-28.307-4.944 3.133 23.339 36.824a2.926 2.926 0 0 0 4.944 0l23.338-36.824-4.944-3.133z" fill="#9AD6D4"/><path d="M1217.393 74.962c-10.558-16.706-32.66-21.691-49.367-11.133s-21.691 32.66-11.133 49.366c10.214 16.164 37.051 23.073 55.637 23.91l.174 10.787 12.081-7.657-9.676-4.759c7.22-17.146 12.498-44.35 2.284-60.514z" fill="#FFAA0E"/><path d="M1262.736 74.962c10.558-16.706 32.66-21.691 49.367-11.133 16.706 10.558 21.69 32.66 11.133 49.367-10.215 16.163-37.051 23.072-55.637 23.91l-.174 10.787-12.081-7.657 9.675-4.76c-7.22-17.146-12.498-44.35-2.283-60.514z" fill="#57BAB7"/><path d="M1166.751 109.932c-.97 0-1.917-.481-2.474-1.36-7.971-12.577-4.225-29.295 8.352-37.267a2.927 2.927 0 0 1 3.134 4.944c-9.852 6.243-12.787 19.338-6.543 29.19a2.927 2.927 0 0 1-2.469 4.493z" fill="#FFF"/><path d="M1287.211 47.317c0-26.039-21.108-47.147-47.147-47.147-26.038 0-47.146 21.108-47.146 47.147 0 25.157 24.958 51.702 45.054 65.732l-6.735 11.014h17.655l-6.734-11.014c20.095-14.03 45.053-40.575 45.053-65.732z" fill="#FF3776"/><path d="M1204.623 50.238a2.927 2.927 0 0 1-2.926-2.927c.003-21.153 17.215-38.362 38.367-38.362a2.927 2.927 0 0 1 0 5.853c-17.926 0-32.512 14.584-32.514 32.51a2.927 2.927 0 0 1-2.927 2.926z" fill="#FFF"/></g><g transform="translate(1160.744 201.442)" fill-rule="nonzero"><circle fill="#F7B239" cx="79.069" cy="79.069" r="79.069"/><path d="M37.526 120.61C9.083 92.164 6.84 47.442 30.8 16.431a79.77 79.77 0 0 0-7.642 6.726c-30.878 30.878-30.878 80.941 0 111.819 30.878 30.877 80.941 30.878 111.819 0a79.817 79.817 0 0 0 6.726-7.642c-31.01 23.96-75.733 21.718-104.177-6.726z" fill="#E09B2D"/><path d="M38.04 84.745h79.714c0 4.474-.739 8.776-2.099 12.793H40.138a39.823 39.823 0 0 1-2.098-12.793z" fill="#FFF"/><path d="M40.138 97.538h75.517c-2.68 7.917-7.78 14.712-14.419 19.515-2.79-4.701-7.916-7.85-13.782-7.85-3.583 0-6.889 1.175-9.558 3.165a15.946 15.946 0 0 0-9.561-3.166 15.997 15.997 0 0 0-13.778 7.85c-6.639-4.802-11.738-11.597-14.419-19.514z" fill="#A81004"/><path d="M87.454 109.202c5.865 0 10.992 3.15 13.782 7.85a39.656 39.656 0 0 1-23.34 7.55 39.656 39.656 0 0 1-23.34-7.55 15.998 15.998 0 0 1 13.778-7.85c3.583 0 6.893 1.176 9.562 3.166a15.938 15.938 0 0 1 9.558-3.166z" fill="#F95428"/><g fill="#4D4D4D"><path d="M44.066 73.52c5.979 0 10.843-4.864 10.843-10.843 0-5.978-4.864-10.843-10.843-10.843S33.223 56.7 33.223 62.677c0 5.98 4.864 10.844 10.843 10.844zM114.07 51.835c-5.98 0-10.843 4.864-10.843 10.843s4.864 10.843 10.843 10.843c5.978 0 10.843-4.864 10.843-10.843s-4.865-10.843-10.843-10.843z"/></g></g><g transform="translate(1827.251 201.442)" fill-rule="nonzero"><circle fill="#F7B239" cx="79.346" cy="79.346" r="79.346"/><g fill="#E09B2D"><path d="M37.658 121.032C9.114 92.49 6.865 47.61 30.908 16.49a80.05 80.05 0 0 0-7.669 6.75c-30.986 30.986-30.986 81.225 0 112.21 30.987 30.986 81.225 30.986 112.211 0a80.097 80.097 0 0 0 6.75-7.669c-31.12 24.044-75.999 21.795-104.542-6.749z"/><path d="M92.648 127.846a2.94 2.94 0 0 1-.796-.11 46.32 46.32 0 0 0-25.014 0 2.942 2.942 0 0 1-1.588-5.663 52.2 52.2 0 0 1 28.19 0 2.941 2.941 0 0 1-.792 5.773z"/></g><path d="M127.962 101.868c-.05.157-.106.318-.16.475-.04.11-.08.22-.118.33a17.246 17.246 0 0 1-9.235 9.936l-.027-.059a26.807 26.807 0 0 0-.53-.93c-4.607-7.763-13.073-12.963-22.763-12.963a26.305 26.305 0 0 0-15.783 5.227 26.33 26.33 0 0 0-15.794-5.227c-9.678 0-18.152 5.2-22.755 12.964a27.1 27.1 0 0 0-.53.929l-.027.059a17.245 17.245 0 0 1-9.235-9.937l-.117-.329c-.055-.157-.11-.314-.161-.47 1.807-5.518 6.356-10.031 12.512-11.447a161.376 161.376 0 0 1 72.21 0c6.153 1.416 10.705 5.925 12.513 11.442z" fill="#A81004"/><path d="M115.45 79.666c9.916 2.275 15.669 12.603 12.512 22.202-1.808-5.517-6.36-10.026-12.513-11.442a161.376 161.376 0 0 0-72.21 0c-6.156 1.416-10.705 5.93-12.512 11.447-3.153-9.604 2.592-19.928 12.512-22.207a161.367 161.367 0 0 1 72.21 0z" fill="#FFF"/><path d="M117.892 111.62c.18.306.36.616.53.93l.027.059v.004a17.162 17.162 0 0 1-10.826 1.05 126.555 126.555 0 0 0-56.557 0 17.16 17.16 0 0 1-10.826-1.05v-.004l.027-.06c.169-.313.35-.623.53-.929 4.603-7.764 13.077-12.963 22.755-12.963a26.33 26.33 0 0 1 15.794 5.227 26.303 26.303 0 0 1 15.783-5.227c9.69 0 18.156 5.2 22.763 12.963z" fill="#F95428"/><g fill="#4D4D4D"><path d="M61.611 61.032a2.94 2.94 0 0 0-1.05-3.286c-.488-.36-12.15-8.807-29.387-8.807a2.941 2.941 0 0 0 0 5.882c6.853 0 12.764 1.537 17.2 3.234-14.138 2.222-27.123 7.893-27.798 8.191a2.94 2.94 0 1 0 2.375 5.381c.195-.085 19.618-8.572 35.867-8.572 1.27 0 2.396-.817 2.793-2.023zM138.114 66.245c-.675-.298-13.678-5.977-27.828-8.195 4.427-1.696 10.338-3.23 17.23-3.23a2.94 2.94 0 1 0 0-5.882c-17.236 0-28.9 8.447-29.388 8.807a2.94 2.94 0 0 0 1.745 5.309c16.2 0 35.628 8.467 35.867 8.572a2.942 2.942 0 0 0 2.374-5.38z"/></g></g><g transform="translate(2537 201.442)" fill-rule="nonzero"><circle fill="#F7B239" cx="79.346" cy="79.346" r="79.346"/><path d="M37.658 121.032C9.114 92.49 6.865 47.61 30.908 16.49a80.05 80.05 0 0 0-7.669 6.75c-30.986 30.986-30.986 81.225 0 112.21 30.987 30.986 81.225 30.986 112.211 0a80.097 80.097 0 0 0 6.75-7.669c-31.12 24.044-75.999 21.795-104.542-6.749z" fill="#E09B2D"/><path d="M79.345 56.48c4.678 0 9.328-.636 13.854-1.817 17.19-4.482 36.121-1.7 47.92 1.024 6.292 1.452 9.923 8.048 7.768 14.135l-6.644 18.763a10.479 10.479 0 0 1-10.246 6.974l-30.268-1.066a11.029 11.029 0 0 1-10.423-8.84l-1.529-7.571a10.642 10.642 0 0 0-20.862.002l-1.53 7.57a11.03 11.03 0 0 1-10.422 8.84l-30.268 1.065a10.477 10.477 0 0 1-10.245-6.974L9.806 69.823C7.65 63.736 11.28 57.14 17.572 55.687c11.8-2.724 30.731-5.506 47.921-1.023 4.524 1.18 9.175 1.815 13.852 1.815z" fill="#333"/><path d="M79.432 122.933c-.873 0-1.75-.016-2.632-.05-13.806-.522-25.88-5.119-33.127-12.612a2.94 2.94 0 1 1 4.228-4.089c12.93 13.37 44.392 14.667 60.113 2.478.806-.625 2.334-2.057 2.854-2.556a2.941 2.941 0 0 1 4.071 4.245c-.214.206-2.126 2.033-3.32 2.96-7.962 6.171-19.579 9.624-32.187 9.624z" fill="#4D4D4D"/></g><text transform="rotate(-30 1386.63 158.305)" font-family="SetFiretotheRain, Set Fire to the Rain" font-size="36" fill="#000"><tspan x="1315.174" y="167.805">CSS yay!</tspan></text><text transform="rotate(-30 2091.839 116.337)" font-family="SetFiretotheRain, Set Fire to the Rain" font-size="36" fill="#000"><tspan x="1978.839" y="101.337">ZOMG,</tspan> <tspan x="1978.839" y="150.337">why so hard?!</tspan></text><text transform="rotate(-30 2798.67 137.305)" font-family="SetFiretotheRain, Set Fire to the Rain" font-size="36" fill="#000"><tspan x="2685.625" y="146.805">CSS awesome!</tspan></text></g></svg>
