<svg xmlns="http://www.w3.org/2000/svg" viewBox="0 0 1001 1279"><g fill="none" fill-rule="nonzero"><path fill="#AFB5B5" d="M499.996 528.953c0 15.633-12.67 28.302-28.298 28.302H94.365c-15.633 0-28.302-12.67-28.302-28.302V38.422c0-15.633 12.67-28.302 28.302-28.302h377.333c15.632 0 28.301 12.67 28.301 28.302v490.531h-.003z"/><path fill="#65A3DF" d="M471.698 557.255H37.765c-15.632 0-28.301-12.67-28.301-28.302v-28.301h433.932v28.301c0 15.633 12.67 28.302 28.302 28.302z"/><path fill="#F6BC0D" d="M9.464 161.053H198.13v113.202H9.464z"/><path fill="#F69A0D" d="M59.397 236.74l-18.869-18.87c-3.677-3.677-3.677-9.658 0-13.34l18.869-18.864 13.336 13.34L60.538 211.2l12.195 12.195-13.336 13.343zM148.201 236.74l-13.34-13.34 12.2-12.2-12.2-12.195 13.34-13.34 18.865 18.866c3.681 3.68 3.681 9.662 0 13.34l-18.865 18.868zM85.398 236.52l18.88-56.595 17.895 5.97-18.876 56.595z"/><path fill="#65A3DF" d="M235.864 66.72h320.734v188.667H235.864z"/><path fill="#5779A4" d="M556.598 217.655l-66.035-37.733-72.843 37.733-87.522-56.602-94.334 56.602v37.732h320.734z"/><path fill="#F2691F" d="M471.698 128.037c0 13.025-10.559 23.583-23.583 23.583-13.025 0-23.584-10.558-23.584-23.583 0-13.025 10.559-23.584 23.584-23.584 13.024 0 23.583 10.559 23.583 23.584zM103.797 311.988H339.63v113.2H103.797z"/><path fill="#BF3D75" d="M132.098 340.286h37.731v18.87H132.1zM188.698 340.286h84.9v18.87h-84.9zM292.464 340.286h18.868v18.87h-18.868zM132.098 378.02h113.2v18.87h-113.2zM264.162 378.02h47.167v18.87h-47.167z"/><path fill="#5EB3D1" d="M94.364 38.422h18.87v18.864h-18.87zM132.098 38.422h18.866v18.864h-18.866zM169.83 38.422h18.868v18.864H169.83zM94.364 76.151h113.203v18.87H94.364z"/><path fill="#F2691F" d="M377.364 349.72h179.234V462.92H377.364z"/><path fill="#BF3D75" d="M405.666 378.02h18.865v18.87h-18.865zM405.666 415.755h18.865v18.865h-18.865zM443.396 378.02h84.901v18.87h-84.9zM443.396 415.755h84.901v18.865h-84.9z"/><path fill="#71C4D1" d="M254.73 255.387H500v18.868H254.73zM396.23 462.921h103.765v18.865H396.23zM198.13 179.922v94.333H66.063v18.865H217V179.923zM339.63 330.854v94.334H122.666v18.865h235.83V330.853z"/><path fill="#000" d="M56.63 38.422v94.333H75.5V38.422c0-10.426 8.44-18.87 18.865-18.87h377.333c10.425 0 18.869 8.444 18.869 18.87h18.865c0-20.84-16.895-37.734-37.734-37.734H94.365c-20.84 0-37.734 16.894-37.734 37.734zM37.765 566.688h433.933c20.835 0 37.73-16.895 37.73-37.735v-37.73h-18.865v37.73c0 10.426-8.444 18.87-18.869 18.87-10.421 0-18.865-8.444-18.865-18.87v-28.301c0-5.207-4.226-9.433-9.433-9.433h-367.9V302.553H56.63v188.666H9.464c-5.207 0-9.433 4.23-9.433 9.433v28.301c0 20.84 16.895 37.735 37.734 37.735zm-18.869-56.6h415.068v18.865a37.473 37.473 0 0 0 5.066 18.87H37.765c-10.425 0-18.869-8.444-18.869-18.87v-18.865zM9.464 283.688H198.13c5.207 0 9.432-4.226 9.432-9.433V161.053c0-5.207-4.225-9.433-9.432-9.433H9.464c-5.207 0-9.433 4.226-9.433 9.433v113.202c0 5.207 4.226 9.433 9.433 9.433zM18.9 170.484h169.798v94.334H18.9v-94.334z"/><path fill="#000" d="M59.397 192.117l-18.869 18.869c-3.677 3.677-3.677 9.658 0 13.336l18.869 18.869 13.336-13.34-12.195-12.195 12.195-12.2-13.336-13.34zM148.201 192.117l-13.34 13.34 12.2 12.199-12.2 12.195 13.34 13.34 18.865-18.87c3.681-3.677 3.681-9.658 0-13.335l-18.865-18.87zM85.398 242.98l18.88-56.6 17.895 5.97-18.876 56.6zM556.599 57.287H235.865c-5.207 0-9.433 4.225-9.433 9.432v188.667c0 5.207 4.226 9.433 9.433 9.433h320.734c5.207 0 9.432-4.226 9.432-9.433V66.719c0-5.207-4.225-9.432-9.432-9.432zm-9.437 188.666H245.297v-22.96l84.712-50.826 82.59 53.41a9.425 9.425 0 0 0 9.432.452l68.288-35.375 56.843 32.472v22.827zm0-44.552l-51.88-29.668a9.447 9.447 0 0 0-9.019-.189l-67.987 35.216-82.92-53.629a9.43 9.43 0 0 0-9.98-.163l-80.079 48.026V76.152h301.865v125.25z"/><path fill="#000" d="M448.115 161.053c18.231 0 33.016-14.78 33.016-33.016 0-18.236-14.78-33.016-33.016-33.016-18.236 0-33.02 14.78-33.02 33.016 0 18.235 14.784 33.016 33.02 33.016zm0-47.163c7.81 0 14.15 6.336 14.15 14.147 0 7.81-6.34 14.15-14.15 14.15-7.81 0-14.151-6.34-14.151-14.15 0-7.81 6.34-14.147 14.15-14.147zM94.365 311.989v113.199c0 5.206 4.225 9.432 9.432 9.432h235.834c5.207 0 9.432-4.226 9.432-9.433V311.99c0-5.207-4.225-9.433-9.432-9.433H103.797c-5.207-.003-9.432 4.226-9.432 9.433zm18.868 9.433h216.965v94.333H113.233v-94.333z"/><path fill="#000" d="M132.098 340.286h37.731v18.87H132.1zM188.698 340.286h84.9v18.87h-84.9zM292.464 340.286h18.868v18.87h-18.868zM132.098 378.02h113.2v18.87h-113.2zM264.162 378.02h47.167v18.87h-47.167zM94.364 38.422h18.87v18.864h-18.87zM132.098 38.422h18.866v18.864h-18.866zM169.83 38.422h18.868v18.864H169.83zM94.364 76.151h113.203v18.87H94.364zM556.599 340.287H377.365c-5.207 0-9.433 4.23-9.433 9.432v113.203c0 5.207 4.226 9.432 9.433 9.432h179.234c5.207 0 9.432-4.225 9.432-9.432V349.719c0-5.207-4.225-9.432-9.432-9.432zm-9.437 113.198H386.797v-94.333h160.365v94.333z"/><path fill="#000" d="M405.666 378.02h18.865v18.87h-18.865zM405.666 415.755h18.865v18.865h-18.865zM443.396 378.02h84.901v18.87h-84.9zM443.396 415.755h84.901v18.865h-84.9zM490.563 283.688h18.87v37.733h-18.87z"/><path fill="#AFB5B5" d="M499.996 528.953c0 15.633-12.67 28.302-28.298 28.302H94.365c-15.633 0-28.302-12.67-28.302-28.302V38.422c0-15.633 12.67-28.302 28.302-28.302h377.333c15.632 0 28.301 12.67 28.301 28.302v490.531h-.003z"/><path fill="#65A3DF" d="M471.698 557.255H37.765c-15.632 0-28.301-12.67-28.301-28.302v-28.301h433.932v28.301c0 15.633 12.67 28.302 28.302 28.302z"/><path fill="#F6BC0D" d="M9.464 161.053H198.13v113.202H9.464z"/><path fill="#F69A0D" d="M59.397 236.74l-18.869-18.87c-3.677-3.677-3.677-9.658 0-13.34l18.869-18.864 13.336 13.34L60.538 211.2l12.195 12.195-13.336 13.343zM148.201 236.74l-13.34-13.34 12.2-12.2-12.2-12.195 13.34-13.34 18.865 18.866c3.681 3.68 3.681 9.662 0 13.34l-18.865 18.868zM85.398 236.52l18.88-56.595 17.895 5.97-18.876 56.595z"/><path fill="#65A3DF" d="M235.864 66.72h320.734v188.667H235.864z"/><path fill="#5779A4" d="M556.598 217.655l-66.035-37.733-72.843 37.733-87.522-56.602-94.334 56.602v37.732h320.734z"/><path fill="#F2691F" d="M471.698 128.037c0 13.025-10.559 23.583-23.583 23.583-13.025 0-23.584-10.558-23.584-23.583 0-13.025 10.559-23.584 23.584-23.584 13.024 0 23.583 10.559 23.583 23.584zM103.797 311.988H339.63v113.2H103.797z"/><path fill="#BF3D75" d="M132.098 340.286h37.731v18.87H132.1zM188.698 340.286h84.9v18.87h-84.9zM292.464 340.286h18.868v18.87h-18.868zM132.098 378.02h113.2v18.87h-113.2zM264.162 378.02h47.167v18.87h-47.167z"/><path fill="#5EB3D1" d="M94.364 38.422h18.87v18.864h-18.87zM132.098 38.422h18.866v18.864h-18.866zM169.83 38.422h18.868v18.864H169.83zM94.364 76.151h113.203v18.87H94.364z"/><path fill="#F2691F" d="M377.364 349.72h179.234V462.92H377.364z"/><path fill="#BF3D75" d="M405.666 378.02h18.865v18.87h-18.865zM405.666 415.755h18.865v18.865h-18.865zM443.396 378.02h84.901v18.87h-84.9zM443.396 415.755h84.901v18.865h-84.9z"/><path fill="#909797" d="M254.73 255.387H500v18.868H254.73zM396.23 462.921h103.765v18.865H396.23zM198.13 179.922v94.333H66.063v18.865H217V179.923zM339.63 330.854v94.334H122.666v18.865h235.83V330.853z"/><path fill="#000" d="M56.63 38.422v94.333H75.5V38.422c0-10.426 8.44-18.87 18.865-18.87h377.333c10.425 0 18.869 8.444 18.869 18.87h18.865c0-20.84-16.895-37.734-37.734-37.734H94.365c-20.84 0-37.734 16.894-37.734 37.734zM37.765 566.688h433.933c20.835 0 37.73-16.895 37.73-37.735v-37.73h-18.865v37.73c0 10.426-8.444 18.87-18.869 18.87-10.421 0-18.865-8.444-18.865-18.87v-28.301c0-5.207-4.226-9.433-9.433-9.433h-367.9V302.553H56.63v188.666H9.464c-5.207 0-9.433 4.23-9.433 9.433v28.301c0 20.84 16.895 37.735 37.734 37.735zm-18.869-56.6h415.068v18.865a37.473 37.473 0 0 0 5.066 18.87H37.765c-10.425 0-18.869-8.444-18.869-18.87v-18.865zM9.464 283.688H198.13c5.207 0 9.432-4.226 9.432-9.433V161.053c0-5.207-4.225-9.433-9.432-9.433H9.464c-5.207 0-9.433 4.226-9.433 9.433v113.202c0 5.207 4.226 9.433 9.433 9.433zM18.9 170.484h169.798v94.334H18.9v-94.334z"/><path fill="#000" d="M59.397 192.117l-18.869 18.869c-3.677 3.677-3.677 9.658 0 13.336l18.869 18.869 13.336-13.34-12.195-12.195 12.195-12.2-13.336-13.34zM148.201 192.117l-13.34 13.34 12.2 12.199-12.2 12.195 13.34 13.34 18.865-18.87c3.681-3.677 3.681-9.658 0-13.335l-18.865-18.87zM85.398 242.98l18.88-56.6 17.895 5.97-18.876 56.6zM556.599 57.287H235.865c-5.207 0-9.433 4.225-9.433 9.432v188.667c0 5.207 4.226 9.433 9.433 9.433h320.734c5.207 0 9.432-4.226 9.432-9.433V66.719c0-5.207-4.225-9.432-9.432-9.432zm-9.437 188.666H245.297v-22.96l84.712-50.826 82.59 53.41a9.425 9.425 0 0 0 9.432.452l68.288-35.375 56.843 32.472v22.827zm0-44.552l-51.88-29.668a9.447 9.447 0 0 0-9.019-.189l-67.987 35.216-82.92-53.629a9.43 9.43 0 0 0-9.98-.163l-80.079 48.026V76.152h301.865v125.25z"/><path fill="#000" d="M448.115 161.053c18.231 0 33.016-14.78 33.016-33.016 0-18.236-14.78-33.016-33.016-33.016-18.236 0-33.02 14.78-33.02 33.016 0 18.235 14.784 33.016 33.02 33.016zm0-47.163c7.81 0 14.15 6.336 14.15 14.147 0 7.81-6.34 14.15-14.15 14.15-7.81 0-14.151-6.34-14.151-14.15 0-7.81 6.34-14.147 14.15-14.147zM94.365 311.989v113.199c0 5.206 4.225 9.432 9.432 9.432h235.834c5.207 0 9.432-4.226 9.432-9.433V311.99c0-5.207-4.225-9.433-9.432-9.433H103.797c-5.207-.003-9.432 4.226-9.432 9.433zm18.868 9.433h216.965v94.333H113.233v-94.333z"/><path fill="#000" d="M132.098 340.286h37.731v18.87H132.1zM188.698 340.286h84.9v18.87h-84.9zM292.464 340.286h18.868v18.87h-18.868zM132.098 378.02h113.2v18.87h-113.2zM264.162 378.02h47.167v18.87h-47.167zM94.364 38.422h18.87v18.864h-18.87zM132.098 38.422h18.866v18.864h-18.866zM169.83 38.422h18.868v18.864H169.83zM94.364 76.151h113.203v18.87H94.364zM556.599 340.287H377.365c-5.207 0-9.433 4.23-9.433 9.432v113.203c0 5.207 4.226 9.432 9.433 9.432h179.234c5.207 0 9.432-4.225 9.432-9.432V349.719c0-5.207-4.225-9.432-9.432-9.432zm-9.437 113.198H386.797v-94.333h160.365v94.333z"/><path fill="#000" d="M405.666 378.02h18.865v18.87h-18.865zM405.666 415.755h18.865v18.865h-18.865zM443.396 378.02h84.901v18.87h-84.9zM443.396 415.755h84.901v18.865h-84.9zM490.563 283.688h18.87v37.733h-18.87z"/><g><path fill="#AFB5B5" d="M934.496 1240.39c0 15.633-12.67 28.302-28.298 28.302H528.865c-15.633 0-28.302-12.669-28.302-28.301V749.859c0-15.632 12.67-28.301 28.302-28.301h377.333c15.632 0 28.301 12.669 28.301 28.301v490.532h-.003z"/><path fill="#65A3DF" d="M906.198 1268.692H472.265c-15.632 0-28.301-12.669-28.301-28.301v-28.302h433.932v28.302c0 15.632 12.67 28.301 28.302 28.301z"/><path fill="#F6BC0D" d="M443.964 872.49H632.63v113.202H443.964z"/><path fill="#F69A0D" d="M493.897 948.177l-18.869-18.87c-3.677-3.677-3.677-9.658 0-13.339l18.869-18.865 13.336 13.34-12.195 12.195 12.195 12.195-13.336 13.344zM582.701 948.177l-13.34-13.34 12.2-12.199-12.2-12.195 13.34-13.34 18.865 18.865c3.681 3.681 3.681 9.662 0 13.34l-18.865 18.869zM519.898 947.958l18.88-56.595 17.895 5.97-18.876 56.595z"/><path fill="#65A3DF" d="M670.364 778.157h320.734v188.667H670.364z"/><path fill="#5779A4" d="M991.098 929.093l-66.035-37.734-72.843 37.734-87.522-56.603-94.334 56.603v37.731h320.734z"/><path fill="#F2691F" d="M906.198 839.474c0 13.025-10.559 23.584-23.583 23.584-13.025 0-23.584-10.559-23.584-23.584s10.559-23.583 23.584-23.583c13.024 0 23.583 10.558 23.583 23.583zM538.297 1023.426H774.13v113.199H538.297z"/><path fill="#BF3D75" d="M566.598 1051.724h37.731v18.869H566.6zM623.198 1051.724h84.9v18.869h-84.9zM726.964 1051.724h18.868v18.869h-18.868zM566.598 1089.458h113.2v18.869h-113.2zM698.662 1089.458h47.167v18.869h-47.167z"/><path fill="#5EB3D1" d="M528.864 749.859h18.87v18.865h-18.87zM566.598 749.859h18.866v18.865h-18.866zM604.33 749.859h18.868v18.865H604.33zM528.864 787.589h113.203v18.869H528.864z"/><path fill="#F2691F" d="M811.864 1061.157h179.234v113.202H811.864z"/><path fill="#BF3D75" d="M840.166 1089.458h18.865v18.869h-18.865zM840.166 1127.192h18.865v18.866h-18.865zM877.896 1089.458h84.901v18.869h-84.9zM877.896 1127.192h84.901v18.866h-84.9z"/><path fill="#71C4D1" d="M689.23 966.824H934.5v18.868H689.23zM830.73 1174.359h103.765v18.865H830.73zM632.63 891.359v94.333H500.563v18.866H651.5V891.359zM774.13 1042.292v94.333H557.166v18.865h235.83v-113.198z"/><path fill="#000" d="M491.13 749.86v94.332H510V749.86c0-10.425 8.44-18.869 18.865-18.869h377.333c10.425 0 18.869 8.444 18.869 18.87h18.865c0-20.84-16.895-37.735-37.734-37.735H528.865c-20.84 0-37.734 16.895-37.734 37.734zM472.265 1278.125h433.933c20.835 0 37.73-16.895 37.73-37.734v-37.73h-18.865v37.73c0 10.425-8.444 18.869-18.869 18.869-10.421 0-18.865-8.444-18.865-18.87v-28.3c0-5.208-4.226-9.433-9.433-9.433h-367.9V1013.99H491.13v188.667h-47.167c-5.207 0-9.433 4.23-9.433 9.432v28.302c0 20.839 16.895 37.734 37.734 37.734zm-18.869-56.6h415.068v18.866a37.473 37.473 0 0 0 5.066 18.869H472.265c-10.425 0-18.869-8.444-18.869-18.87v-18.864zM443.964 995.125H632.63c5.207 0 9.432-4.226 9.432-9.433V872.49c0-5.207-4.225-9.432-9.432-9.432H443.964c-5.207 0-9.433 4.225-9.433 9.432v113.202c0 5.207 4.226 9.433 9.433 9.433zm9.436-113.202h169.798v94.333H453.4v-94.333z"/><path fill="#000" d="M493.897 903.554l-18.869 18.87c-3.677 3.677-3.677 9.658 0 13.335l18.869 18.87 13.336-13.34-12.195-12.196 12.195-12.199-13.336-13.34zM582.701 903.554l-13.34 13.34 12.2 12.2-12.2 12.194 13.34 13.34 18.865-18.869c3.681-3.677 3.681-9.658 0-13.336l-18.865-18.869zM519.898 954.417l18.88-56.599 17.895 5.97-18.876 56.599zM991.099 768.724H670.365c-5.207 0-9.433 4.226-9.433 9.433v188.667c0 5.207 4.226 9.432 9.433 9.432h320.734c5.207 0 9.432-4.225 9.432-9.432V778.157c0-5.207-4.225-9.433-9.432-9.433zm-9.437 188.667H679.797V934.43l84.712-50.826 82.59 53.41a9.425 9.425 0 0 0 9.432.453l68.288-35.375 56.843 32.471v22.828zm0-44.552l-51.88-29.668a9.447 9.447 0 0 0-9.019-.189l-67.987 35.216-82.92-53.63a9.43 9.43 0 0 0-9.98-.162l-80.079 48.025V787.59h301.865v125.25z"/><path fill="#000" d="M882.615 872.49c18.231 0 33.016-14.78 33.016-33.016 0-18.235-14.78-33.016-33.016-33.016-18.236 0-33.02 14.78-33.02 33.016 0 18.236 14.784 33.016 33.02 33.016zm0-47.163c7.81 0 14.15 6.337 14.15 14.147 0 7.81-6.34 14.151-14.15 14.151-7.81 0-14.151-6.34-14.151-14.15 0-7.811 6.34-14.148 14.15-14.148zM528.865 1023.426v113.199c0 5.207 4.225 9.433 9.432 9.433h235.834c5.207 0 9.432-4.226 9.432-9.433v-113.199c0-5.207-4.225-9.432-9.432-9.432H538.297c-5.207-.004-9.432 4.225-9.432 9.432zm18.868 9.433h216.965v94.333H547.733v-94.333z"/><path fill="#000" d="M566.598 1051.724h37.731v18.869H566.6zM623.198 1051.724h84.9v18.869h-84.9zM726.964 1051.724h18.868v18.869h-18.868zM566.598 1089.458h113.2v18.869h-113.2zM698.662 1089.458h47.167v18.869h-47.167zM528.864 749.859h18.87v18.865h-18.87zM566.598 749.859h18.866v18.865h-18.866zM604.33 749.859h18.868v18.865H604.33zM528.864 787.589h113.203v18.869H528.864zM991.099 1051.724H811.865c-5.207 0-9.433 4.23-9.433 9.433v113.202c0 5.207 4.226 9.433 9.433 9.433h179.234c5.207 0 9.432-4.226 9.432-9.433v-113.202c0-5.207-4.225-9.433-9.432-9.433zm-9.437 113.199H821.297v-94.334h160.365v94.334z"/><path fill="#000" d="M840.166 1089.458h18.865v18.869h-18.865zM840.166 1127.192h18.865v18.866h-18.865zM877.896 1089.458h84.901v18.869h-84.9zM877.896 1127.192h84.901v18.866h-84.9z"/><path fill="#AFB5B5" d="M934.496 1240.39c0 15.633-12.67 28.302-28.298 28.302H528.865c-15.633 0-28.302-12.669-28.302-28.301V749.859c0-15.632 12.67-28.301 28.302-28.301h377.333c15.632 0 28.301 12.669 28.301 28.301v490.532h-.003z"/><path fill="#65A3DF" d="M906.198 1268.692H472.265c-15.632 0-28.301-12.669-28.301-28.301v-28.302h433.932v28.302c0 15.632 12.67 28.301 28.302 28.301z"/><path fill="#F6BC0D" d="M443.964 872.49H632.63v113.202H443.964z"/><path fill="#F69A0D" d="M493.897 948.177l-18.869-18.87c-3.677-3.677-3.677-9.658 0-13.339l18.869-18.865 13.336 13.34-12.195 12.195 12.195 12.195-13.336 13.344zM582.701 948.177l-13.34-13.34 12.2-12.199-12.2-12.195 13.34-13.34 18.865 18.865c3.681 3.681 3.681 9.662 0 13.34l-18.865 18.869zM519.898 947.958l18.88-56.595 17.895 5.97-18.876 56.595z"/><path fill="#65A3DF" d="M670.364 778.157h320.734v188.667H670.364z"/><path fill="#5779A4" d="M991.098 929.093l-66.035-37.734-72.843 37.734-87.522-56.603-94.334 56.603v37.731h320.734z"/><path fill="#F2691F" d="M906.198 839.474c0 13.025-10.559 23.584-23.583 23.584-13.025 0-23.584-10.559-23.584-23.584s10.559-23.583 23.584-23.583c13.024 0 23.583 10.558 23.583 23.583zM538.297 1023.426H774.13v132.16H538.297z"/><path fill="#5EB3D1" d="M528.864 749.859h18.87v18.865h-18.87zM566.598 749.859h18.866v18.865h-18.866zM604.33 749.859h18.868v18.865H604.33zM528.864 787.589h113.203v18.869H528.864z"/><path fill="#F2691F" d="M840.162 1007.765h150.936v166.594H840.162z"/><path fill="#909797" d="M689.23 966.824H934.5v18.868H689.23zM830.73 1174.359h103.765v18.865H830.73zM632.63 891.359v94.333H500.563v18.866H651.5V891.359zM774.13 1070.734v94.333H557.166v18.865h235.83v-113.198z"/><path fill="#000" d="M491.13 749.86v94.332H510V749.86c0-10.425 8.44-18.869 18.865-18.869h377.333c10.425 0 18.869 8.444 18.869 18.87h18.865c0-20.84-16.895-37.735-37.734-37.735H528.865c-20.84 0-37.734 16.895-37.734 37.734zM472.265 1278.125h433.933c20.835 0 37.73-16.895 37.73-37.734v-37.73h-18.865v37.73c0 10.425-8.444 18.869-18.869 18.869-10.421 0-18.865-8.444-18.865-18.87v-28.3c0-5.208-4.226-9.433-9.433-9.433h-367.9V1013.99H491.13v188.667h-47.167c-5.207 0-9.433 4.23-9.433 9.432v28.302c0 20.839 16.895 37.734 37.734 37.734zm-18.869-56.6h415.068v18.866a37.473 37.473 0 0 0 5.066 18.869H472.265c-10.425 0-18.869-8.444-18.869-18.87v-18.864zM443.964 995.125H632.63c5.207 0 9.432-4.226 9.432-9.433V872.49c0-5.207-4.225-9.432-9.432-9.432H443.964c-5.207 0-9.433 4.225-9.433 9.432v113.202c0 5.207 4.226 9.433 9.433 9.433zm9.436-113.202h169.798v94.333H453.4v-94.333z"/><path fill="#000" d="M493.897 903.554l-18.869 18.87c-3.677 3.677-3.677 9.658 0 13.335l18.869 18.87 13.336-13.34-12.195-12.196 12.195-12.199-13.336-13.34zM582.701 903.554l-13.34 13.34 12.2 12.2-12.2 12.194 13.34 13.34 18.865-18.869c3.681-3.677 3.681-9.658 0-13.336l-18.865-18.869zM519.898 954.417l18.88-56.599 17.895 5.97-18.876 56.599zM991.099 768.724H670.365c-5.207 0-9.433 4.226-9.433 9.433v188.667c0 5.207 4.226 9.432 9.433 9.432h320.734c5.207 0 9.432-4.225 9.432-9.432V778.157c0-5.207-4.225-9.433-9.432-9.433zm-9.437 188.667H679.797V934.43l84.712-50.826 82.59 53.41a9.425 9.425 0 0 0 9.432.453l68.288-35.375 56.843 32.471v22.828zm0-44.552l-51.88-29.668a9.447 9.447 0 0 0-9.019-.189l-67.987 35.216-82.92-53.63a9.43 9.43 0 0 0-9.98-.162l-80.079 48.025V787.59h301.865v125.25z"/><path fill="#000" d="M882.615 872.49c18.231 0 33.016-14.78 33.016-33.016 0-18.235-14.78-33.016-33.016-33.016-18.236 0-33.02 14.78-33.02 33.016 0 18.236 14.784 33.016 33.02 33.016zm0-47.163c7.81 0 14.15 6.337 14.15 14.147 0 7.81-6.34 14.151-14.15 14.151-7.81 0-14.151-6.34-14.151-14.15 0-7.811 6.34-14.148 14.15-14.148zM528.865 1032.907v132.16c0 5.207 4.225 9.433 9.432 9.433h235.834c5.207 0 9.432-4.226 9.432-9.433v-132.16c0-5.207-4.225-9.432-9.432-9.432H538.297c-5.207-.004-9.432 4.225-9.432 9.432zm18.868 9.433h216.965v113.295H547.733V1042.34z"/><path fill="#000" d="M726.964 1056.32h18.868v37.831h-18.868zM726.964 1104.485h18.868v37.83h-18.868zM689.041 1056.32h18.87v28.35h-18.87zM689.041 1094.243h18.87v18.869h-18.87zM689.041 1123.446h18.87v18.869h-18.87zM652.066 1056.32h18.87v47.311h-18.87zM652.066 1113.966h18.87v28.349h-18.87zM613.195 1056.32h18.87v18.869h-18.87zM613.195 1085.523h18.87v56.792h-18.87zM528.864 749.859h18.87v18.865h-18.87zM566.598 749.859h18.866v18.865h-18.866zM604.33 749.859h18.868v18.865H604.33zM528.864 787.589h113.203v18.869H528.864zM991.099 997.684H830.826c-5.207 0-9.433 4.23-9.433 9.433v167.242c0 5.207 4.226 9.433 9.433 9.433H991.1c5.207 0 9.432-4.226 9.432-9.433v-167.242c0-5.207-4.225-9.433-9.432-9.433zm-9.437 167.239H840.673v-147.93h140.99v147.93z"/><path fill="#000" d="M942.98 1032.855h18.865v18.869H942.98zM902.43 1032.855h18.865v18.866H902.43zM942.98 1061.298h18.865v89.978H942.98zM902.43 1061.298h18.865v89.961H902.43zM859.766 1032.855h18.865v18.866h-18.865zM859.766 1061.298h18.865v89.961h-18.865z"/></g></g></svg>
