<svg xmlns="http://www.w3.org/2000/svg" xmlns:xlink="http://www.w3.org/1999/xlink" width="1513" height="544"><defs><path id="a" d="M2.551 65.991c4.436-11.622 11.235-9.098 15.475-20.95 5.595-15.639 2.99-36.647 2.99-36.647s6.727-19.478 11.414 1.211C42.803 48.465 4.527 84.604 4.527 94.174.152 89.079-1.885 77.614 2.551 65.99"/><radialGradient id="c" cx="86.271%" cy="70.182%" r="184.034%" fx="86.271%" fy="70.182%" gradientTransform="matrix(-.5478 -.3036 .8366 -.19879 .748 1.103)"><stop offset="0%" stop-color="#FFEA00"/><stop offset="10.187%" stop-color="#FFEA00"/><stop offset="17.022%" stop-color="#FFEA00"/><stop offset="42.857%" stop-color="#FF8E00"/><stop offset="43.077%" stop-color="#FF8E00"/><stop offset="76.899%" stop-color="#FF272D"/><stop offset="94.873%" stop-color="#C42482"/><stop offset="100%" stop-color="#C42482"/></radialGradient><path id="d" d="M.147 81.653C.06 36.613 36.4.165 81.16.165c44.804 0 81.099 36.491 81.099 81.488s-36.295 81.489-81.056 81.489c-44.76 0-81.056-36.492-81.056-81.489"/><radialGradient id="f" cx="70.441%" cy="87.414%" r="109.275%" fx="70.441%" fy="87.414%" gradientTransform="matrix(1 0 0 .9947 0 .005)"><stop offset="0%" stop-color="#00CCDA"/><stop offset="21.961%" stop-color="#0083FF"/><stop offset="24.838%" stop-color="#0083FF"/><stop offset="33.319%" stop-color="#005FE7"/><stop offset="52.807%" stop-color="#4A1475"/><stop offset="56.589%" stop-color="#4A1475"/><stop offset="100%" stop-color="#4A1475"/></radialGradient><path id="g" d="M94.138 124.405c2.664-8.07 9.402-16.446 16.454-21.145.31-.354 4.197-4.576 6.045-14.097 1.91-9.838.906-17.514-3.022-28.864-4.62-9.958-16.455-19.802-27.537-20.81-23.691-2.152-32.364 11.895-32.364 11.895 8.465-3.384 17.825-2.676 23.518.833 5.735 3.549 9.206 6.18 12.023 5.142 2.776-1.032 4.987 1.966 3.004 5.073-1.943 3.104-7 7.548-14.507 6.317-5.742-.933-11.003-5.482-18.528-1.077-.46.277-.92.555-1.411.925-.244.16.14.044.535-.073.411-.12.836-.241.585-.053-1.465.796-4.057 2.53-4.728 3.146-.056.051.227-.048.512-.148.284-.1.568-.2.512-.148-7.036 5.794-6.157 9.708-5.936 12.163.177 1.964 1.455 4.48 3.608 5.5 1.04-.567 1.689-1 1.689-1s-.444.906-.684 1.384c.084.036.164.027.248.062.852-.41 2.736-1.479 3.728-2.131 1.292-.912 1.704-1.724 1.704-1.724s.34.187.089.982c-.092.325-.484 1.361-1.764 2.407l.08-.01c.692-.393 1.417-.88 2.168-1.505.361 1.312 1.01 2.682.868 5.132-.088 1.723-.047 2.17-.35 2.835-.273.571.151.794.623.2-.08.46-.204.88-.403 1.353l.004.045c.59 2.053 12.469 7.391 13.333 8.016 1.25.852 2.543 2.194 3.496 3.8.66 1.053 1.158 2.53 1.279 4.771.065 1.616-.687 2.692-12.699 3.95-3.285.323-5.213 2.703-6.308 4.9-.2.473-.404.902-.607 1.33-.228.613-.384 1.126-.468 1.54 1.964 5.641 5.264 10.41 10.116 14.014.132.12-.133.105-.397.09-.264-.016-.528-.032-.395.089.308.28 2.321 1.092 2.701 1.275.464.218-1.988 1.26-4.153 1.007-2.205-.249-2.673-.512-3.85-1.01.488.485 2.041 1.122 1.677 1.118-2.377-.364-5.33-1.746-7.856-3.311-.016.272.04.446.152.794-1.177-.499-4.067-2.519-4.908-4.228.036.402.052.58.048.987-.832-.718-1.673-1.526-2.41-2.525l-.044-.04c-6.825 2.75-12.832 2.928-17.914 1.694-1.112 1.117-1.655.301-4.185 5.86-.192.497-.153.229-.08-.063-4.244-3.341-9.788-7.115-12.458-9.783-1.098-.313-1.023-.965-1.19-6.852-.04-.446-.004-.946-.04-1.348-2.147-2.735-3.609-5.05-4.162-6.25-2.775-4.783-5.832-12.24-8.796-24.034 0 0 1.687 4.364 4.71 9.209C3.03 95.754.648 85.922.172 70.782c.084.487.79 4.285 2.29 9.256-.426-10.096.628-22.612 6.347-36.734 1.704-4.169 4.523-10.496 9.323-17.43C33.209 10.01 54.478.132 78.029.132c24.587 0 46.665 10.757 61.836 27.84-1.699-1.224-3.562-2.31-5.503-3.323a128.66 128.66 0 0 1 6.996 11.503c1.728 1.913 3.312 3.772 4.602 5.783a53.93 53.93 0 0 1 2.085 3.62c4.553 8.204 9.574 21.48 9.716 35.116v.033c.004.336.006.672.003 1.008.003 3.421-.307 6.845-1.044 10.185.037-.262.069-.523.102-.784-.04.201-.074.404-.118.605.067-.371.121-.73.179-1.093.93-7.895.268-15.597-3.048-21.275-.052-.083-.106-.161-.159-.242 1.72 8.63 2.294 18.158.382 27.698 0 0-.765 4.638-6.464 18.716-3.28 8.103-9.104 14.747-14.25 19.586-4.512 5.581-8.608 9.326-10.867 11.704-4.717 4.968-6.694 8.691-7.506 11.12-.704.354-9.708 9.1-10.423 9.433-3.93-6.093-16.29-25.152-10.41-42.96"/><path id="i" d="M0 11256.012h11256.012V0H0z"/><path id="k" d="M60.361.03L.135 197.041l190.923 58.365 60.227-197.013z"/><path id="l" d="M60.361.03L.135 197.041l190.923 58.365 60.227-197.013z"/><linearGradient id="m" x1="57.34%" x2="35.146%" y1="24.78%" y2="93.194%"><stop offset="0%" stop-color="#000F43"/><stop offset=".038%" stop-color="#000F43"/><stop offset="79.087%" stop-color="#002079"/><stop offset="100%" stop-color="#002079"/></linearGradient><path id="n" d="M6.472 17.464C-.09 8.384-2.961-.695 4.192.13c29.756 3.446 42.928 34.11 26.012 34.712-.1.004-.201.005-.303.005-7.484 0-17.148-8.692-23.43-17.384"/><radialGradient id="p" cx="145.458%" cy="118.654%" r="171.854%" fx="145.458%" fy="118.654%" gradientTransform="scale(-.92331 -1) rotate(37.885 3.397 -4.414)"><stop offset="0%" stop-color="#FFEA00"/><stop offset=".341%" stop-color="#FFEA00"/><stop offset="49.73%" stop-color="#FF272D"/><stop offset="100%" stop-color="#C42482"/></radialGradient><path id="q" d="M8.106 16.82C2.803 2.33-6.068-4.219 6.24 2.977c20.472 11.914 15.134 37.65 15.134 37.65s-7.9-9.178-13.268-23.809"/><radialGradient id="s" cx="132.009%" cy="149.503%" r="453.991%" fx="132.009%" fy="149.503%" gradientTransform="scale(-1 -.54148) rotate(63.456 3.442 -2.768)"><stop offset="0%" stop-color="#FFE900"/><stop offset=".341%" stop-color="#FFE900"/><stop offset="58.32%" stop-color="#FF0039"/><stop offset="100%" stop-color="#FF0039"/></radialGradient><path id="t" d="M2.909 2.25C31.45-6.858 55.983 15.627 40.86 23.136c-1.721.848-3.819 1.224-6.145 1.224C18.464 24.36-8.943 6.017 2.91 2.25"/><radialGradient id="v" cx="210.027%" cy="93.59%" r="377.62%" fx="210.027%" fy="93.59%" gradientTransform="matrix(-.48746 -.40624 .21672 -.91376 2.921 2.644)"><stop offset="0%" stop-color="#FF272D"/><stop offset=".341%" stop-color="#FF272D"/><stop offset="49.73%" stop-color="#C42482"/><stop offset="98.649%" stop-color="#620700"/><stop offset="100%" stop-color="#620700"/></radialGradient><path id="w" d="M103.407 149.447c-1.431-11.33 2.81-23.143 8.953-30.693 5.21-6.406 10.779-10.597 10.779-10.597v.005c4.64-6.664 7.194-14.888 7.194-23.734 0-22.151-17.967-40.108-40.13-40.108-3.086 0-6.09.349-8.977 1.008-10.457 1.993-16.495 7.268-19.507 10.85-1.726 2.052-2.46 3.548-2.46 3.548 9.37-3.357 19.73-2.654 26.03.825 6.348 3.52 10.189 6.129 13.306 5.1 3.073-1.024 5.52 1.95 3.325 5.031-2.15 3.078-7.746 7.485-16.055 6.264-6.356-.925-12.179-5.437-20.506-1.068-.51.275-1.019.55-1.563.918-.27.158.155.043.593-.073.455-.12.924-.24.647-.052-1.62.789-4.49 2.508-5.233 3.12-.062.05.252-.048.566-.147.315-.099.63-.197.568-.146-7.787 5.745-6.815 9.627-6.57 12.06.196 1.948 1.61 4.444 3.994 5.456 1.15-.563 1.868-.992 1.868-.992s-.491.899-.757 1.372c.093.035.182.027.275.062.943-.408 3.028-1.467 4.126-2.114 1.43-.904 1.886-1.71 1.886-1.71s.377.186.098.974c-.102.324-.535 1.35-1.952 2.387l.089-.009c.766-.39 1.567-.873 2.4-1.493.399 1.301 1.117 2.66.959 5.09-.096 1.709-.052 2.151-.388 2.811-.3.567.169.788.691.199a5.475 5.475 0 0 1-.447 1.341l.005.044c.652 2.036 13.8 7.331 14.757 7.95 1.382.845 2.814 2.176 3.869 3.77.731 1.044 1.281 2.508 1.415 4.73.045 1.001-.263 1.794-3.744 2.552-2.09.455-5.323.897-10.31 1.365-3.636.321-5.77 2.681-6.982 4.86-.221.47-.447.894-.672 1.32-.252.606-.425 1.115-.517 1.527 2.173 5.594 5.825 10.323 11.195 13.896.146.12-.146.105-.438.09-.293-.016-.585-.031-.439.088.341.278 2.57 1.083 2.99 1.264.514.217-2.2 1.25-4.596.999-2.44-.247-2.959-.507-4.261-1.002.54.482 2.26 1.114 1.856 1.11-2.63-.362-5.9-1.732-8.695-3.284-.018.27.044.443.168.788-1.302-.495-4.501-2.499-5.432-4.193.04.398.058.575.054.978-.922-.712-1.852-1.513-2.668-2.504l-.049-.04c-7.553 2.727-14.201 2.904-19.827 1.68-1.23 1.108-3.209 2.783-6.009 8.295-.095.166-.168-.006-.236-.178-.068-.172-.13-.344-.202-.18-1.089 2.524-1.746 6.658-1.638 9.509 0 0-2.25-1.026-4.113-5.31a26.601 26.601 0 0 0-.79-1.62c-.051-.062.009.3.074.66.063.353.13.706.105.664-.324-.548-1.162-1.314-1.53-2.305-.253-.735-.607-1.146-.833-2.062l-.054-.084c-.017.27.067 1.11.005.938a43.092 43.092 0 0 1-2.248-5.452c-1.003-3.297-2.17-7.785-2.356-13.623-.045-.442-.005-.938-.045-1.336-2.376-2.713-3.994-5.009-4.605-6.2C7.34 119.894 3.957 112.5.677 100.803c0 0 1.868 4.328 5.214 9.133C3.164 103.727.527 93.977 0 78.963c.093.482.875 4.249 2.534 9.179-.47-10.012.696-22.425 7.025-36.43 3.758-8.237 12.409-24.965 33.547-38.02h-.002s7.191-5.353 19.552-9.365a118.96 118.96 0 0 1 2.783-.975c-.296.12-.583.246-.86.375A88.589 88.589 0 0 1 89.936 0h.201c31.845.026 41.243 12.825 41.243 12.825l-.093-.07c.452.426.888.867 1.305 1.327-5.05-4.769-16.574-5.085-20.882-4.741 7.348 2.158 12.184 3.983 21.59 7.585 1.1.409 2.225.873 3.376 1.397l.375.17c.228.107.454.208.684.32 4.04 1.898 8.344 4.44 12.837 8.036 9.446 7.545 11.5 14.9 12.575 19.748-.15-.464-.616-1.548-.944-2.25-2.433-5.203-7.828-8.396-13.686-11.135 2.42 3.18 5.112 7.025 7.743 11.408 1.913 1.897 2.51 4.864 3.938 6.858.695.98 1.633 4.117 2.463 5.52 5.039 8.134 5.074 14.62 5.074 14.768 3.044 15.204 2.768 21.413.896 32.894-1.507 9.245-8.098 22.489-13.807 28.866-5.882 6.57-1.738 4.43-7.434 9.23-4.992 5.534-9.833 11.014-12.47 13.218-19.05 15.928-18.62 19.311-18.254 19.888a18.988 18.988 0 0 1-.268-.3c-.226.9-.386 1.656-.386 1.656s-10.413-10.414-12.606-27.77"/><radialGradient id="y" cx="76.845%" cy="60.82%" r="84.043%" fx="76.845%" fy="60.82%" gradientTransform="matrix(1 0 0 .95947 0 .025)"><stop offset="0%" stop-color="#FFEA00"/><stop offset="15.596%" stop-color="#FFEA00"/><stop offset="23.655%" stop-color="#FFEA00"/><stop offset="54.117%" stop-color="#FF8E00"/><stop offset="54.26%" stop-color="#FF8E00"/><stop offset="76.298%" stop-color="#FF272D"/><stop offset="82.334%" stop-color="#FF272D"/><stop offset="93.502%" stop-color="#B5007F"/><stop offset="100%" stop-color="#B5007F"/></radialGradient><path id="z" d="M2.316 122.199c9.198-24.66 28.038-23.756 40.5-49.489C57.482 42.429 30.95 9.384 9.01.135c1.344.299 48.775 11.032 51.268 38.163-.057-.5-1.125-8.003-14.628-14.136 3.851 4.246 7.31 9.103 9.93 14.61 6.741 14.175 17.164 37.742 8.955 62.356-6.489 19.455-15.397 30.093-26.707 40.484-18.37 16.875-23.5 24.408-23.5 28.889 0 0-21.21-23.644-12.01-48.302"/><radialGradient id="B" cx="28.74%" cy="96.645%" r="241.114%" fx="28.74%" fy="96.645%" gradientTransform="scale(1 .39649) rotate(-77.093 1.21 1.702)"><stop offset="0%" stop-color="#FFEA00"/><stop offset="27.915%" stop-color="#FFEA00"/><stop offset="38.618%" stop-color="#FFEA00"/><stop offset="85.633%" stop-color="#FF9100"/><stop offset="98.182%" stop-color="#FF4A1D"/><stop offset="99.405%" stop-color="#FF4A1D"/><stop offset="99.529%" stop-color="#FF4A1D"/><stop offset="100%" stop-color="#FF4A1D"/></radialGradient><path id="C" d="M.243 11.355C.537 7.167 3.35 2.673 4.695.034c0 0 .299.388.437.532 2.532 2.636 13.142 6.653 14.14 7.224 1.098.694 5.28 3.75 5.464 8.693.072 1.603-.76 2.679-14.01 3.922-5.451.503-7.538 5.542-8.175 7.662C.613 23.031-.188 17.747.243 11.355"/><path id="E" d="M0 11256.012h11256.012V0H0z"/><path id="G" d="M.152 31.226L28.72 35.52 33.4 4.433 4.83.137.151 31.226z"/><path id="H" d="M.152 31.226L28.72 35.52 33.4 4.433 4.83.137.151 31.226z"/><linearGradient id="I" x1="-125.269%" x2="159.765%" y1="31.591%" y2="69.215%"><stop offset="0%" stop-color="#C42482"/><stop offset="47.449%" stop-color="#FF272D"/><stop offset="91.118%" stop-color="#FFE302"/><stop offset="100%" stop-color="#FFE302"/></linearGradient><path id="J" d="M7.836 24.32c-.346-.77-.568-1.196-.789-1.62-.052-.063.008.298.073.66.063.352.131.704.105.663-.324-.549-1.161-1.314-1.525-2.261-.302-.774-.612-1.19-.843-2.15-.036-.135-.016.173.003.482.019.292.037.584.007.5C.535 12.222-.293-.437.164.098 9.386 9.946 19.955 12.28 19.955 12.28c-1.124.828-3.568 3.22-5.974 8.201-.095.166-.169-.006-.236-.178-.068-.172-.13-.344-.203-.18-1.088 2.524-1.75 6.614-1.593 9.504 0 0-2.25-1.025-4.113-5.309"/><path id="L" d="M0 11256.012h11256.012V0H0z"/><path id="N" d="M9.24.167L.004 33.3l26.563 7.403 9.234-33.135z"/><path id="O" d="M9.24.167L.004 33.3l26.563 7.403 9.234-33.135z"/><linearGradient id="P" x1="56.591%" x2="19.597%" y1="5.078%" y2="94.493%"><stop offset="0%" stop-color="#891551"/><stop offset="100%" stop-color="#C42482"/></linearGradient><path id="Q" d="M.142 32.719C-.404 15.292 14.078 7.622 26.817 2.183 30.589.552 38.884-.148 38.078.29 6.131 19.33 26.828 29.408 20.052 36.751c-4.315 4.681-2.89 9.148-2.11 11.126.739 1.582 2.823 3.066 3.603 3.256 0 0-1.658.364-4.052.364-6.055 0-16.817-2.33-17.35-18.778"/><path id="S" d="M0 11256.012h11256.012V0H0z"/><path id="U" d="M50.464 88.99l37.774-52.73L37.825.146.051 52.875z"/><path id="V" d="M50.464 88.99l37.774-52.73L37.825.146.051 52.875z"/><linearGradient id="W" x1="8.006%" x2="47.875%" y1="93.32%" y2="52.118%"><stop offset="0%" stop-color="#891551"/><stop offset=".541%" stop-color="#891551"/><stop offset="48.378%" stop-color="#FF272D"/><stop offset="100%" stop-color="#FF272D"/></linearGradient><path id="X" d="M16.451 2.112C25.484-1.03 36.008-.48 42.308 3c4.217 2.348 9.628 6.108 12.957 5.18-2.883 1.14-5.066 1.672-7.692 1.802-.447 0-.983.009-1.47.058-.895 0-1.838-.039-2.879-.158-1.625-.15-3.429-1.175-5.067-1.01-.089.009 1.59.69 1.453.658-.868-.18-1.812-.22-2.808-.343-.634-.07-1.178-.15-1.807-.176C16.18 7.415.279 19.208.279 19.208-1.075 14.649 6.339 5.633 16.45 2.112"/><path id="Z" d="M0 11256.012h11256.012V0H0z"/><path id="ab" d="M.155 5.874l2.608 25.692L60.562 25.7 57.954.007z"/><path id="ac" d="M.155 5.874l2.608 25.692L60.562 25.7 57.954.007z"/><linearGradient id="ad" x1="47.479%" x2="49.981%" y1="-2.672%" y2="68.253%"><stop offset="0%" stop-color="#C42482"/><stop offset="41.929%" stop-color="#C42482"/><stop offset="77.297%" stop-color="#C42482"/><stop offset="100%" stop-color="#C42482"/></linearGradient><path id="ae" d="M5.364 97.244c10.348-16.911 26.649-21.93 38.06-37.443C64.45 31.22 39.433.167 39.433.167c16.128 15.835 25.502 34.562 25.51 55.412v.038c0 3.74-.303 7.55-.922 11.421 0 0 1.627-13.064-4.54-26.423 2.963 13.043 3.307 29.252-4.562 46.038-10.504 22.404-27.78 34.193-34.375 39.111-9.992 7.452-14.135 15.04-14.21 16.606-2.984-6.116-12.015-27.075-.97-45.126"/><linearGradient id="ag" x1="6.334%" x2="92.351%" y1="98.352%" y2="10.539%"><stop offset="0%" stop-color="#FFF14F"/><stop offset="57.375%" stop-color="#FFF14F"/><stop offset="90.19%" stop-color="#FFA900"/><stop offset="92.783%" stop-color="#FFA900"/><stop offset="100%" stop-color="#FF9100"/></linearGradient><path id="ah" d="M65.87 92.546c6.912-7.365 17.103-25.332 9.704-47.886C61.647 2.205 5.939 22.197.099 27.813 2.462 3.242 43.59-8.516 70.364 7.418 85.602 21.842 97.93 46.362 87.03 68.878c-6.65 13.738-14.952 19.731-22.803 26.226.913-1.279 1.138-1.73 1.644-2.558"/><path id="aj" d="M0 11256.012h11256.012V0H0z"/><path id="al" d="M165.656 123.016L119.847.02.044 44.641l45.808 122.995z"/><path id="am" d="M165.656 123.016L119.847.02.044 44.641l45.808 122.995z"/><linearGradient id="an" x1="71.788%" x2="42.746%" y1="92.841%" y2="18.052%"><stop offset="0%" stop-color="#FF8E00"/><stop offset="12.859%" stop-color="#FF8E00"/><stop offset="28.223%" stop-color="#FF8E00"/><stop offset="56.288%" stop-color="#FF8E00"/><stop offset="100%" stop-color="#FF8E00"/></linearGradient><circle id="ao" cx="90.629" cy="89.951" r="89.919"/><linearGradient id="aq" x1="4.547%" x2="36.948%" y1="62.056%" y2="33.661%"><stop offset="0%" stop-color="#A52714" stop-opacity=".6"/><stop offset="66%" stop-color="#A52714" stop-opacity="0"/></linearGradient><circle id="ar" cx="90.629" cy="89.951" r="89.919"/><circle id="at" cx="90.629" cy="89.951" r="89.919"/><linearGradient id="av" x1="83.874%" x2="36.313%" y1="87.773%" y2="66.355%"><stop offset="0%" stop-color="#055524" stop-opacity=".4"/><stop offset="33%" stop-color="#055524" stop-opacity="0"/></linearGradient><circle id="aw" cx="90.629" cy="89.951" r="89.919"/><circle id="ay" cx="90.629" cy="89.951" r="89.919"/><path id="az" d="M.71 179.87h85.597l39.728-39.727v-29.755H55.233L.71 16.87z"/><linearGradient id="aB" x1="32.623%" x2="48.549%" y1="-4.841%" y2="45.414%"><stop offset="0%" stop-color="#EA6100" stop-opacity=".3"/><stop offset="66%" stop-color="#EA6100" stop-opacity="0"/></linearGradient><circle id="aC" cx="90.629" cy="89.951" r="89.919"/><circle id="aE" cx="90.629" cy="89.951" r="89.919"/><path id="aF" d="M90.629 49.079l35.406 61.309-39.728 69.483h94.241V49.079z"/><circle id="aH" cx="90.629" cy="89.951" r="89.919"/><radialGradient id="aI" cx="-4.878%" cy="-.248%" r="401.327%" fx="-4.878%" fy="-.248%" gradientTransform="matrix(.26722 0 0 1 -.036 0)"><stop offset="0%" stop-color="#3E2723" stop-opacity=".2"/><stop offset="100%" stop-color="#3E2723" stop-opacity="0"/></radialGradient><circle id="aK" cx="90.629" cy="89.951" r="89.919"/><path id="aL" d="M14.984.032v41.22l40.25 69.136 35.395-61.31h89.92V.033z"/><circle id="aN" cx="90.629" cy="89.951" r="89.919"/><radialGradient id="aO" cx="-.166%" cy=".104%" r="136.321%" fx="-.166%" fy=".104%" gradientTransform="matrix(1 0 0 .84752 0 0)"><stop offset="0%" stop-color="#3E2723" stop-opacity=".2"/><stop offset="100%" stop-color="#3E2723" stop-opacity="0"/></radialGradient><circle id="aQ" cx="90.629" cy="89.951" r="89.919"/><radialGradient id="aR" cx="10.34%" cy="-12.215%" r="226.352%" fx="10.34%" fy="-12.215%" gradientTransform="matrix(1 0 0 .49642 0 -.062)"><stop offset="0%" stop-color="#263238" stop-opacity=".2"/><stop offset="100%" stop-color="#263238" stop-opacity="0"/></radialGradient><circle id="aT" cx="90.629" cy="89.951" r="89.919"/><circle id="aV" cx="90.629" cy="89.951" r="89.919"/><circle id="aX" cx="90.629" cy="89.951" r="89.919"/><radialGradient id="aZ" cx="14.935%" cy="13.644%" r="100.424%" fx="14.935%" fy="13.644%"><stop offset="0%" stop-color="#FFF" stop-opacity=".1"/><stop offset="100%" stop-color="#FFF" stop-opacity="0"/></radialGradient><linearGradient id="ba" x1="49.994%" x2="49.994%" y1="1.631%" y2="98.543%"><stop offset="0%" stop-color="#FF1B2D"/><stop offset="30%" stop-color="#FF1B2D"/><stop offset="61%" stop-color="#FF1B2D"/><stop offset="100%" stop-color="#A70014"/></linearGradient><linearGradient id="bb" x1="50.005%" x2="50.005%" y1=".848%" y2="99.602%"><stop offset="0%" stop-color="#9C0000"/><stop offset="70%" stop-color="#FF4B4B"/><stop offset="100%" stop-color="#FF4B4B"/></linearGradient><linearGradient id="bc" x1="49.998%" x2="49.998%" y1="100%" y2="-.001%"><stop offset="0%" stop-color="#BDBDBD"/><stop offset="100%" stop-color="#FFF"/></linearGradient><radialGradient id="bd" cx="50.225%" cy="42.708%" r="54.252%" fx="50.225%" fy="42.708%" gradientTransform="matrix(.99996 0 0 1 0 0)"><stop offset="0%" stop-color="#06C2E7"/><stop offset="25%" stop-color="#0DB8EC"/><stop offset="50%" stop-color="#12AEF1"/><stop offset="75%" stop-color="#1F86F9"/><stop offset="100%" stop-color="#107DDD"/></radialGradient><radialGradient id="be" cx="49.317%" cy="41.702%" r="51.136%" fx="49.317%" fy="41.702%"><stop offset="0%" stop-color="#89EAFE"/><stop offset="26.24%" stop-color="#86E8FD"/><stop offset="43.57%" stop-color="#7DDFF9"/><stop offset="58.32%" stop-color="#6ED2F2"/><stop offset="71.63%" stop-color="#59BEE9"/><stop offset="83.97%" stop-color="#3EA5DD"/><stop offset="95.44%" stop-color="#1C87CF"/><stop offset="100%" stop-color="#0D79C8"/></radialGradient><linearGradient id="bf" x1="66.864%" x2="23.22%" y1="3.815%" y2="105.226%"><stop offset="0%" stop-color="#FFB700"/><stop offset="85.99%" stop-color="#FFB700" stop-opacity="0"/></linearGradient><linearGradient id="bg" x1="1.966%" x2="68.95%" y1="85.798%" y2="29.407%"><stop offset="0%" stop-color="#FFB700"/><stop offset="100%" stop-color="#FFB700" stop-opacity="0"/></linearGradient></defs><g fill="none" fill-rule="evenodd"><path fill="#0078D7" fill-rule="nonzero" d="M1133.336 112.875c0 4.331.647 8.269 1.969 11.813 1.406 3.487 3.234 6.609 5.568 9.337 2.335 2.728 5.063 5.063 8.27 7.031a49.003 49.003 0 0 0 10.068 4.866 61.955 61.955 0 0 0 11.11 2.869c3.852.618 7.593.928 11.39.928 4.781 0 9.225-.366 13.444-1.125a97.255 97.255 0 0 0 12.375-3.15c4.05-1.322 7.96-2.897 11.868-4.697a216.4 216.4 0 0 0 12.038-5.963v38.138a135.346 135.346 0 0 1-13.584 5.766c-4.5 1.575-9 2.953-13.585 4.05-4.584 1.125-9.225 1.968-13.978 2.475-4.753.506-9.619.787-14.681.787-6.75 0-13.275-.787-19.547-2.334-6.272-1.547-12.15-3.77-17.663-6.694a74.017 74.017 0 0 1-15.13-10.631c-4.613-4.163-8.523-8.86-11.813-14.063-3.29-5.203-5.822-10.912-7.65-17.044-1.772-6.13-2.672-12.656-2.672-19.575 0-7.397 1.012-14.428 3.037-21.15 2.053-6.75 4.95-12.88 8.775-18.506 3.797-5.625 8.438-10.631 13.922-14.99 5.485-4.36 11.644-7.932 18.506-10.688-3.74 3.74-6.665 8.156-8.718 13.303-2.11 5.119-3.432 10.266-4.022 15.413h64.069c0-6.47-.647-12.094-1.97-16.932-1.321-4.837-3.43-8.859-6.384-12.037-2.925-3.206-6.693-5.625-11.334-7.2-4.64-1.603-10.237-2.419-16.79-2.419-7.735 0-15.47 1.125-23.204 3.46-7.734 2.25-15.075 5.484-22.05 9.562a106.84 106.84 0 0 0-19.237 14.569c-5.85 5.625-10.772 11.672-14.766 18.225.844-7.594 2.531-14.907 4.866-21.853a93.025 93.025 0 0 1 9.14-19.407 87.043 87.043 0 0 1 13.05-16.143c4.979-4.838 10.491-9 16.594-12.375 6.103-3.375 12.572-6.103 19.603-7.932C1151.252 6.956 1158.733 6 1166.608 6c4.612 0 9.197.422 13.781 1.238 4.584.843 9.056 1.968 13.416 3.43 8.662 2.982 16.397 7.145 23.203 12.432 6.806 5.344 12.515 11.419 17.156 18.366 4.64 6.947 8.156 14.625 10.575 22.978 2.419 8.353 3.656 17.044 3.656 26.072v22.359h-115.06z"/><text fill="#000" font-family="SetFiretotheRain, Set Fire to the Rain" font-size="36" transform="translate(1079.6 6)"><tspan x="23.664" y="234.977">Jul 2015</tspan></text><text fill="#000" font-family="SetFiretotheRain, Set Fire to the Rain" font-size="36" transform="translate(1338 -2)"><tspan x="17.769" y="242.977">Sep 2015</tspan></text><g transform="matrix(1 0 0 -1 1474.97 111.015)"><mask id="b" fill="#fff"><use xlink:href="#a"/></mask><g fill="url(#c)" fill-rule="nonzero" mask="url(#b)"><path d="M2.551 65.991c4.436-11.622 11.235-9.098 15.475-20.95 5.595-15.639 2.99-36.647 2.99-36.647s6.727-19.478 11.414 1.211C42.803 48.465 4.527 84.604 4.527 94.174.152 89.079-1.885 77.614 2.551 65.99"/></g></g><g transform="matrix(1 0 0 -1 1344.952 178.343)"><mask id="e" fill="#fff"><use xlink:href="#d"/></mask><g fill="url(#f)" fill-rule="nonzero" mask="url(#e)"><path d="M.147 81.653C.06 36.613 36.4.165 81.16.165c44.804 0 81.099 36.491 81.099 81.488s-36.295 81.489-81.056 81.489c-44.76 0-81.056-36.492-81.056-81.489"/></g></g><g transform="matrix(1 0 0 -1 1347.013 174.908)"><mask id="h" fill="#fff"><use xlink:href="#g"/></mask><g mask="url(#h)"><g transform="translate(-5636.336 -5633.073)"><mask id="j" fill="#fff"><use xlink:href="#i"/></mask></g><path fill="url(#m)" fill-rule="nonzero" d="M94.138 124.405c2.664-8.07 9.402-16.446 16.454-21.145.31-.354 4.197-4.576 6.045-14.097 1.91-9.838.906-17.514-3.022-28.864-4.62-9.958-16.455-19.802-27.537-20.81-23.691-2.152-32.364 11.895-32.364 11.895 8.465-3.384 17.825-2.676 23.518.833 5.735 3.549 9.206 6.18 12.023 5.142 2.776-1.032 4.987 1.966 3.004 5.073-1.943 3.104-7 7.548-14.507 6.317-5.742-.933-11.003-5.482-18.528-1.077-.46.277-.92.555-1.411.925-.244.16.14.044.535-.073.411-.12.836-.241.585-.053-1.465.796-4.057 2.53-4.728 3.146-.056.051.227-.048.512-.148.284-.1.568-.2.512-.148-7.036 5.794-6.157 9.708-5.936 12.163.177 1.964 1.455 4.48 3.608 5.5 1.04-.567 1.689-1 1.689-1s-.444.906-.684 1.384c.084.036.164.027.248.062.852-.41 2.736-1.479 3.728-2.131 1.292-.912 1.704-1.724 1.704-1.724s.34.187.089.982c-.092.325-.484 1.361-1.764 2.407l.08-.01c.692-.393 1.417-.88 2.168-1.505.361 1.312 1.01 2.682.868 5.132-.088 1.723-.047 2.17-.35 2.835-.273.571.151.794.623.2-.08.46-.204.88-.403 1.353l.004.045c.59 2.053 12.469 7.391 13.333 8.016 1.25.852 2.543 2.194 3.496 3.8.66 1.053 1.158 2.53 1.279 4.771.065 1.616-.687 2.692-12.699 3.95-3.285.323-5.213 2.703-6.308 4.9-.2.473-.404.902-.607 1.33-.228.613-.384 1.126-.468 1.54 1.964 5.641 5.264 10.41 10.116 14.014.132.12-.133.105-.397.09-.264-.016-.528-.032-.395.089.308.28 2.321 1.092 2.701 1.275.464.218-1.988 1.26-4.153 1.007-2.205-.249-2.673-.512-3.85-1.01.488.485 2.041 1.122 1.677 1.118-2.377-.364-5.33-1.746-7.856-3.311-.016.272.04.446.152.794-1.177-.499-4.067-2.519-4.908-4.228.036.402.052.58.048.987-.832-.718-1.673-1.526-2.41-2.525l-.044-.04c-6.825 2.75-12.832 2.928-17.914 1.694-1.112 1.117-1.655.301-4.185 5.86-.192.497-.153.229-.08-.063-4.244-3.341-9.788-7.115-12.458-9.783-1.098-.313-1.023-.965-1.19-6.852-.04-.446-.004-.946-.04-1.348-2.147-2.735-3.609-5.05-4.162-6.25-2.775-4.783-5.832-12.24-8.796-24.034 0 0 1.687 4.364 4.71 9.209C3.03 95.754.648 85.922.172 70.782c.084.487.79 4.285 2.29 9.256-.426-10.096.628-22.612 6.347-36.734 1.704-4.169 4.523-10.496 9.323-17.43C33.209 10.01 54.478.132 78.029.132c24.587 0 46.665 10.757 61.836 27.84-1.699-1.224-3.562-2.31-5.503-3.323a128.66 128.66 0 0 1 6.996 11.503c1.728 1.913 3.312 3.772 4.602 5.783a53.93 53.93 0 0 1 2.085 3.62c4.553 8.204 9.574 21.48 9.716 35.116v.033c.004.336.006.672.003 1.008.003 3.421-.307 6.845-1.044 10.185.037-.262.069-.523.102-.784-.04.201-.074.404-.118.605.067-.371.121-.73.179-1.093.93-7.895.268-15.597-3.048-21.275-.052-.083-.106-.161-.159-.242 1.72 8.63 2.294 18.158.382 27.698 0 0-.765 4.638-6.464 18.716-3.28 8.103-9.104 14.747-14.25 19.586-4.512 5.581-8.608 9.326-10.867 11.704-4.717 4.968-6.694 8.691-7.506 11.12-.704.354-9.708 9.1-10.423 9.433-3.93-6.093-16.29-25.152-10.41-42.96"/></g></g><g transform="matrix(1 0 0 -1 1464.494 158.591)"><mask id="o" fill="#fff"><use xlink:href="#n"/></mask><g fill="url(#p)" fill-rule="nonzero" mask="url(#o)"><path d="M6.472 17.464C-.09 8.384-2.961-.695 4.192.13c29.756 3.446 42.928 34.11 26.012 34.712-.1.004-.201.005-.303.005-7.484 0-17.148-8.692-23.43-17.384"/></g></g><g transform="matrix(1 0 0 -1 1490.6 120.461)"><mask id="r" fill="#fff"><use xlink:href="#q"/></mask><g fill="url(#s)" fill-rule="nonzero" mask="url(#r)"><path d="M8.106 16.82C2.803 2.33-6.068-4.219 6.24 2.977c20.472 11.914 15.134 37.65 15.134 37.65s-7.9-9.178-13.268-23.809"/></g></g><g transform="matrix(1 0 0 -1 1428.94 175.939)"><mask id="u" fill="#fff"><use xlink:href="#t"/></mask><g fill="url(#v)" fill-rule="nonzero" mask="url(#u)"><path d="M2.909 2.25C31.45-6.858 55.983 15.627 40.86 23.136c-1.721.848-3.819 1.224-6.145 1.224C18.464 24.36-8.943 6.017 2.91 2.25"/></g></g><g transform="matrix(1 0 0 -1 1338.769 179.889)"><mask id="x" fill="#fff"><use xlink:href="#w"/></mask><g fill="url(#y)" fill-rule="nonzero" mask="url(#x)"><path d="M103.407 149.447c-1.431-11.33 2.81-23.143 8.953-30.693 5.21-6.406 10.779-10.597 10.779-10.597v.005c4.64-6.664 7.194-14.888 7.194-23.734 0-22.151-17.967-40.108-40.13-40.108-3.086 0-6.09.349-8.977 1.008-10.457 1.993-16.495 7.268-19.507 10.85-1.726 2.052-2.46 3.548-2.46 3.548 9.37-3.357 19.73-2.654 26.03.825 6.348 3.52 10.189 6.129 13.306 5.1 3.073-1.024 5.52 1.95 3.325 5.031-2.15 3.078-7.746 7.485-16.055 6.264-6.356-.925-12.179-5.437-20.506-1.068-.51.275-1.019.55-1.563.918-.27.158.155.043.593-.073.455-.12.924-.24.647-.052-1.62.789-4.49 2.508-5.233 3.12-.062.05.252-.048.566-.147.315-.099.63-.197.568-.146-7.787 5.745-6.815 9.627-6.57 12.06.196 1.948 1.61 4.444 3.994 5.456 1.15-.563 1.868-.992 1.868-.992s-.491.899-.757 1.372c.093.035.182.027.275.062.943-.408 3.028-1.467 4.126-2.114 1.43-.904 1.886-1.71 1.886-1.71s.377.186.098.974c-.102.324-.535 1.35-1.952 2.387l.089-.009c.766-.39 1.567-.873 2.4-1.493.399 1.301 1.117 2.66.959 5.09-.096 1.709-.052 2.151-.388 2.811-.3.567.169.788.691.199a5.475 5.475 0 0 1-.447 1.341l.005.044c.652 2.036 13.8 7.331 14.757 7.95 1.382.845 2.814 2.176 3.869 3.77.731 1.044 1.281 2.508 1.415 4.73.045 1.001-.263 1.794-3.744 2.552-2.09.455-5.323.897-10.31 1.365-3.636.321-5.77 2.681-6.982 4.86-.221.47-.447.894-.672 1.32-.252.606-.425 1.115-.517 1.527 2.173 5.594 5.825 10.323 11.195 13.896.146.12-.146.105-.438.09-.293-.016-.585-.031-.439.088.341.278 2.57 1.083 2.99 1.264.514.217-2.2 1.25-4.596.999-2.44-.247-2.959-.507-4.261-1.002.54.482 2.26 1.114 1.856 1.11-2.63-.362-5.9-1.732-8.695-3.284-.018.27.044.443.168.788-1.302-.495-4.501-2.499-5.432-4.193.04.398.058.575.054.978-.922-.712-1.852-1.513-2.668-2.504l-.049-.04c-7.553 2.727-14.201 2.904-19.827 1.68-1.23 1.108-3.209 2.783-6.009 8.295-.095.166-.168-.006-.236-.178-.068-.172-.13-.344-.202-.18-1.089 2.524-1.746 6.658-1.638 9.509 0 0-2.25-1.026-4.113-5.31a26.601 26.601 0 0 0-.79-1.62c-.051-.062.009.3.074.66.063.353.13.706.105.664-.324-.548-1.162-1.314-1.53-2.305-.253-.735-.607-1.146-.833-2.062l-.054-.084c-.017.27.067 1.11.005.938a43.092 43.092 0 0 1-2.248-5.452c-1.003-3.297-2.17-7.785-2.356-13.623-.045-.442-.005-.938-.045-1.336-2.376-2.713-3.994-5.009-4.605-6.2C7.34 119.894 3.957 112.5.677 100.803c0 0 1.868 4.328 5.214 9.133C3.164 103.727.527 93.977 0 78.963c.093.482.875 4.249 2.534 9.179-.47-10.012.696-22.425 7.025-36.43 3.758-8.237 12.409-24.965 33.547-38.02h-.002s7.191-5.353 19.552-9.365a118.96 118.96 0 0 1 2.783-.975c-.296.12-.583.246-.86.375A88.589 88.589 0 0 1 89.936 0h.201c31.845.026 41.243 12.825 41.243 12.825l-.093-.07c.452.426.888.867 1.305 1.327-5.05-4.769-16.574-5.085-20.882-4.741 7.348 2.158 12.184 3.983 21.59 7.585 1.1.409 2.225.873 3.376 1.397l.375.17c.228.107.454.208.684.32 4.04 1.898 8.344 4.44 12.837 8.036 9.446 7.545 11.5 14.9 12.575 19.748-.15-.464-.616-1.548-.944-2.25-2.433-5.203-7.828-8.396-13.686-11.135 2.42 3.18 5.112 7.025 7.743 11.408 1.913 1.897 2.51 4.864 3.938 6.858.695.98 1.633 4.117 2.463 5.52 5.039 8.134 5.074 14.62 5.074 14.768 3.044 15.204 2.768 21.413.896 32.894-1.507 9.245-8.098 22.489-13.807 28.866-5.882 6.57-1.738 4.43-7.434 9.23-4.992 5.534-9.833 11.014-12.47 13.218-19.05 15.928-18.62 19.311-18.254 19.888a18.988 18.988 0 0 1-.268-.3c-.226.9-.386 1.656-.386 1.656s-10.413-10.414-12.606-27.77"/></g></g><g transform="matrix(1 0 0 -1 1441.822 170.614)"><mask id="A" fill="#fff"><use xlink:href="#z"/></mask><g fill="url(#B)" fill-rule="nonzero" mask="url(#A)"><path d="M2.316 122.199c9.198-24.66 28.038-23.756 40.5-49.489C57.482 42.429 30.95 9.384 9.01.135c1.344.299 48.775 11.032 51.268 38.163-.057-.5-1.125-8.003-14.628-14.136 3.851 4.246 7.31 9.103 9.93 14.61 6.741 14.175 17.164 37.742 8.955 62.356-6.489 19.455-15.397 30.093-26.707 40.484-18.37 16.875-23.5 24.408-23.5 28.889 0 0-21.21-23.644-12.01-48.302"/></g></g><g transform="matrix(1 0 0 -1 1401.288 74.946)"><mask id="D" fill="#fff"><use xlink:href="#C"/></mask><g mask="url(#D)"><g transform="translate(-5690.61 -5733.034)"><mask id="F" fill="#fff"><use xlink:href="#E"/></mask></g><path fill="url(#I)" fill-rule="nonzero" d="M.243 11.355C.537 7.167 3.35 2.673 4.695.034c0 0 .299.388.437.532 2.532 2.636 13.142 6.653 14.14 7.224 1.098.694 5.28 3.75 5.464 8.693.072 1.603-.76 2.679-14.01 3.922-5.451.503-7.538 5.542-8.175 7.662C.613 23.031-.188 17.747.243 11.355"/></g></g><g transform="matrix(1 0 0 -1 1353.711 49.183)"><mask id="K" fill="#fff"><use xlink:href="#J"/></mask><g mask="url(#K)"><g transform="translate(-5643.034 -5758.798)"><mask id="M" fill="#fff"><use xlink:href="#L"/></mask></g><path fill="url(#P)" fill-rule="nonzero" d="M7.836 24.32c-.346-.77-.568-1.196-.789-1.62-.052-.063.008.298.073.66.063.352.131.704.105.663-.324-.549-1.161-1.314-1.525-2.261-.302-.774-.612-1.19-.843-2.15-.036-.135-.016.173.003.482.019.292.037.584.007.5C.535 12.222-.293-.437.164.098 9.386 9.946 19.955 12.28 19.955 12.28c-1.124.828-3.568 3.22-5.974 8.201-.095.166-.169-.006-.236-.178-.068-.172-.13-.344-.203-.18-1.088 2.524-1.75 6.614-1.593 9.504 0 0-2.25-1.025-4.113-5.309"/></g></g><g transform="matrix(1 0 0 -1 1375.868 133.858)"><mask id="R" fill="#fff"><use xlink:href="#Q"/></mask><g mask="url(#R)"><g transform="translate(-5665.19 -5674.122)"><mask id="T" fill="#fff"><use xlink:href="#S"/></mask></g><path fill="url(#W)" fill-rule="nonzero" d="M.142 32.719C-.404 15.292 14.078 7.622 26.817 2.183 30.589.552 38.884-.148 38.078.29 6.131 19.33 26.828 29.408 20.052 36.751c-4.315 4.681-2.89 9.148-2.11 11.126.739 1.582 2.823 3.066 3.603 3.256 0 0-1.658.364-4.052.364-6.055 0-16.817-2.33-17.35-18.778"/></g></g><g transform="matrix(1 0 0 -1 1381.707 122.35)"><mask id="Y" fill="#fff"><use xlink:href="#X"/></mask><g mask="url(#Y)"><g transform="translate(-5671.03 -5685.63)"><mask id="aa" fill="#fff"><use xlink:href="#Z"/></mask></g><path fill="url(#ad)" fill-rule="nonzero" d="M16.451 2.112C25.484-1.03 36.008-.48 42.308 3c4.217 2.348 9.628 6.108 12.957 5.18-2.883 1.14-5.066 1.672-7.692 1.802-.447 0-.983.009-1.47.058-.895 0-1.838-.039-2.879-.158-1.625-.15-3.429-1.175-5.067-1.01-.089.009 1.59.69 1.453.658-.868-.18-1.812-.22-2.808-.343-.634-.07-1.178-.15-1.807-.176C16.18 7.415.279 19.208.279 19.208-1.075 14.649 6.339 5.633 16.45 2.112"/></g></g><g transform="matrix(1 0 0 -1 1448.005 146.74)"><mask id="af" fill="#fff"><use xlink:href="#ae"/></mask><g fill="url(#ag)" fill-rule="nonzero" mask="url(#af)"><path d="M5.364 97.244c10.348-16.911 26.649-21.93 38.06-37.443C64.45 31.22 39.433.167 39.433.167c16.128 15.835 25.502 34.562 25.51 55.412v.038c0 3.74-.303 7.55-.922 11.421 0 0 1.627-13.064-4.54-26.423 2.963 13.043 3.307 29.252-4.562 46.038-10.504 22.404-27.78 34.193-34.375 39.111-9.992 7.452-14.135 15.04-14.21 16.606-2.984-6.116-12.015-27.075-.97-45.126"/></g></g><g transform="matrix(1 0 0 -1 1397.68 166.836)"><mask id="ai" fill="#fff"><use xlink:href="#ah"/></mask><g mask="url(#ai)"><g transform="translate(-5687.004 -5641.145)"><mask id="ak" fill="#fff"><use xlink:href="#aj"/></mask></g><path fill="url(#an)" fill-rule="nonzero" d="M65.87 92.546c6.912-7.365 17.103-25.332 9.704-47.886C61.647 2.205 5.939 22.197.099 27.813 2.462 3.242 43.59-8.516 70.364 7.418 85.602 21.842 97.93 46.362 87.03 68.878c-6.65 13.738-14.952 19.731-22.803 26.226.913-1.279 1.138-1.73 1.644-2.558"/></g></g><g><g transform="translate(272.85 6.977)"><mask id="ap" fill="#fff"><use xlink:href="#ao"/></mask><path fill="#DB4437" fill-rule="nonzero" d="M14.984.032v110.356h40.25l35.395-61.31h89.92V.033z" mask="url(#ap)"/><path fill="url(#aq)" fill-rule="nonzero" d="M14.984.032v110.356h40.25l35.395-61.31h89.92V.033z" mask="url(#ap)"/><mask id="as" fill="#fff"><use xlink:href="#ar"/></mask><path fill="#3E2723" fill-opacity=".15" fill-rule="nonzero" d="M56.204 110.03l-40.699-69.8-.592 1.022 40.402 69.279z" mask="url(#as)"/><mask id="au" fill="#fff"><use xlink:href="#at"/></mask><path fill="#0F9D58" fill-rule="nonzero" d="M.71 179.87h85.597l39.728-39.727v-29.755H55.233L.71 16.87z" mask="url(#au)"/><path fill="url(#av)" fill-rule="nonzero" d="M.71 179.87h85.597l39.728-39.727v-29.755H55.233L.71 16.87z" mask="url(#au)"/><mask id="ax" fill="#fff"><use xlink:href="#aw"/></mask><path fill="#263238" fill-opacity=".15" fill-rule="nonzero" d="M125.207 111.747l-.848-.491-39.228 68.615h1.176l38.93-68.094z" mask="url(#ax)"/><mask id="aA" fill="#fff"><use xlink:href="#az"/></mask><path fill="#FFCD40" fill-rule="nonzero" d="M90.629 49.079l35.406 61.309-39.728 69.483h94.241V49.079z" mask="url(#aA)"/><path fill="url(#aB)" fill-rule="nonzero" d="M90.629 49.079l35.406 61.309-39.728 69.483h94.241V49.079z" mask="url(#aA)"/><mask id="aD" fill="#fff"><use xlink:href="#aC"/></mask><path fill="#FFCD40" fill-rule="nonzero" d="M90.629 49.079l35.406 61.309-39.728 69.483h94.241V49.079z" mask="url(#aD)"/><path fill="url(#aB)" fill-rule="nonzero" d="M90.629 49.079l35.406 61.309-39.728 69.483h94.241V49.079z" mask="url(#aD)"/><mask id="aG" fill="#fff"><use xlink:href="#aF"/></mask><path fill="#DB4437" fill-rule="nonzero" d="M14.984.032v110.356h40.25l35.395-61.31h89.92V.033z" mask="url(#aG)"/><path fill="url(#aq)" fill-rule="nonzero" d="M14.984.032v110.356h40.25l35.395-61.31h89.92V.033z" mask="url(#aG)"/><mask id="aJ" fill="#fff"><use xlink:href="#aH"/></mask><path fill="url(#aI)" fill-rule="nonzero" d="M90.629 49.079v21.407l80.11-21.407z" mask="url(#aJ)"/><mask id="aM" fill="#fff"><use xlink:href="#aL"/></mask><path fill="#0F9D58" fill-rule="nonzero" d="M.71 179.87h85.597l39.728-39.727v-29.755H55.233L.71 16.87z" mask="url(#aM)"/><path fill="url(#av)" fill-rule="nonzero" d="M.71 179.87h85.597l39.728-39.727v-29.755H55.233L.71 16.87z" mask="url(#aM)"/><mask id="aP" fill="#fff"><use xlink:href="#aN"/></mask><path fill="url(#aO)" fill-rule="nonzero" d="M14.984 41.364l58.499 58.489-18.25 10.535z" mask="url(#aP)"/><mask id="aS" fill="#fff"><use xlink:href="#aQ"/></mask><path fill="url(#aR)" fill-rule="nonzero" d="M86.368 179.758l21.417-79.905 18.25 10.535z" mask="url(#aS)"/><mask id="aU" fill="#fff"><use xlink:href="#aT"/></mask><circle cx="90.629" cy="89.951" r="40.872" fill="#F1F1F1" fill-rule="nonzero" mask="url(#aU)"/><circle cx="90.629" cy="89.951" r="32.698" fill="#4285F4" fill-rule="nonzero" mask="url(#aU)"/><mask id="aW" fill="#fff"><use xlink:href="#aV"/></mask><path fill="#3E2723" fill-opacity=".2" fill-rule="nonzero" d="M90.629 48.057c-22.572 0-40.873 18.3-40.873 40.872v1.022c0-22.572 18.301-40.872 40.873-40.872h89.92v-1.022h-89.92z" mask="url(#aW)"/><path fill="#FFF" fill-opacity=".1" fill-rule="nonzero" d="M125.983 110.388c-7.07 12.2-20.242 20.436-35.354 20.436-15.123 0-28.294-8.236-35.365-20.436h-.04L.708 16.87v1.022l54.524 93.516h.041c7.071 12.2 20.242 20.437 35.365 20.437 15.113 0 28.284-8.226 35.355-20.437h.05v-1.021h-.06z" mask="url(#aW)"/><path fill="#3E2723" fill-rule="nonzero" d="M91.65 49.079c-.173 0-.337.02-.51.03 22.337.276 40.361 18.444 40.361 40.842s-18.024 40.566-40.361 40.842c.173 0 .337.03.51.03 22.572 0 40.873-18.3 40.873-40.872s-18.3-40.872-40.872-40.872z" mask="url(#aW)" opacity=".1"/><path fill="#FFF" fill-opacity=".2" fill-rule="nonzero" d="M126.392 111.747c3.474-6.009 5.487-12.957 5.487-20.396 0-4.312-.674-8.46-1.91-12.354.97 3.495 1.532 7.163 1.532 10.965 0 7.438-2.013 14.387-5.487 20.395l.02.04-39.727 69.484h1.185l38.92-68.094-.02-.04z" mask="url(#aW)"/><mask id="aY" fill="#fff"><use xlink:href="#aX"/></mask><path fill="#FFF" fill-opacity=".2" fill-rule="nonzero" d="M90.629 1.054c49.486 0 89.633 39.983 89.909 89.408 0-.174.01-.337.01-.51 0-49.66-40.26-89.92-89.92-89.92C40.969.032.71 40.292.71 89.952c0 .173.01.336.01.51C.997 41.037 41.144 1.054 90.63 1.054z" mask="url(#aY)"/><path fill="#3E2723" fill-opacity=".15" fill-rule="nonzero" d="M90.629 178.849c49.486 0 89.633-39.984 89.909-89.409 0 .174.01.338.01.511 0 49.66-40.26 89.92-89.92 89.92C40.969 179.87.71 139.61.71 89.95c0-.173.01-.337.01-.51.277 49.424 40.424 89.408 89.91 89.408z" mask="url(#aY)"/><circle cx="90.629" cy="89.951" r="89.919" fill="url(#aZ)" fill-rule="nonzero" mask="url(#aY)"/><path d="M-7.465-8.143h196.188v196.188H-7.465z" mask="url(#aY)"/></g><text fill="#000" font-family="SetFiretotheRain, Set Fire to the Rain" font-size="36" transform="translate(272.4 6)"><tspan x="20.111" y="234.977">Dec 2010</tspan></text></g><g><text fill="#000" font-family="SetFiretotheRain, Set Fire to the Rain" font-size="36" transform="translate(812.2 6)"><tspan x="27.277" y="234.977">Jul 2013</tspan></text><g fill-rule="nonzero"><path fill="url(#ba)" d="M88.906 1.324C39.936 1.324.247 41.029.247 90c0 47.559 37.447 86.365 84.459 88.57 1.412.071 2.806.106 4.218.106 22.711 0 43.411-8.54 59.1-22.57-10.395 6.9-22.553 10.853-35.542 10.853-21.123 0-40.023-10.483-52.747-27-9.811-11.559-16.164-28.677-16.588-47.877V87.9c.424-19.182 6.777-36.3 16.57-47.876C72.442 23.506 91.36 13.04 112.483 13.04c12.989 0 25.147 3.97 35.542 10.87-15.618-13.976-36.195-22.5-58.783-22.587h-.335z" transform="translate(812.86 6.977)"/><path fill="url(#bb)" d="M59.718 40.024c8.153-9.6 18.653-15.389 30.14-15.389 25.818 0 46.748 29.277 46.748 65.365 0 36.106-20.93 65.365-46.747 65.365-11.488 0-21.988-5.789-30.124-15.389 12.724 16.518 31.624 27 52.747 27 12.989 0 25.147-3.97 35.542-10.852 18.14-16.253 29.558-39.848 29.558-66.124 0-26.259-11.417-49.87-29.576-66.106-10.394-6.9-22.535-10.853-35.524-10.853-21.123 0-40.023 10.483-52.747 27" transform="translate(812.86 6.977)"/></g></g><g><text fill="#000" font-family="SetFiretotheRain, Set Fire to the Rain" font-size="36" transform="translate(542.8 6)"><tspan x="32.365" y="234.977">Jul 2011</tspan></text><g fill-rule="nonzero"><path fill="#000" d="M719.394 103.817c0 45.78-38.54 82.891-86.082 82.891-47.542 0-86.082-37.112-86.082-82.891 0-45.78 38.54-82.892 86.082-82.892 47.542 0 86.082 37.112 86.082 82.892z" opacity=".53"/><path fill="url(#bc)" stroke="#CDCDCD" stroke-linecap="round" stroke-linejoin="round" stroke-width=".093" d="M179.227 89.52c0 49.352-40.007 89.359-89.358 89.359a89.358 89.358 0 1 1 0-178.716c49.351 0 89.358 40.007 89.358 89.358z" transform="translate(543.44 6.977)"/><path fill="url(#bd)" d="M172.227 89.52a82.355 82.355 0 0 1-82.358 82.356A82.355 82.355 0 0 1 7.511 89.52c0-45.484 36.872-82.355 82.355-82.355a82.355 82.355 0 0 1 82.358 82.355h.003z" transform="translate(543.44 6.977)"/><path fill="#F4F2F3" d="M633.31 18.436a1.198 1.198 0 0 0-1.202 1.198v13.852a1.201 1.201 0 0 0 2.402 0v-13.85a1.198 1.198 0 0 0-1.2-1.2zm-7.857.496a1.198 1.198 0 0 0-1.312 1.32l.605 5.791a1.2 1.2 0 1 0 2.387-.248l-.604-5.79a1.198 1.198 0 0 0-1.076-1.073zm15.767.006a1.198 1.198 0 0 0-1.076 1.07l-.61 5.79a1.2 1.2 0 0 0 2.387.254l.61-5.794a1.198 1.198 0 0 0-1.311-1.32zm-23.837 1.16a1.198 1.198 0 0 0-1.17 1.45l2.867 13.55a1.201 1.201 0 0 0 2.351-.497l-2.867-13.55a1.198 1.198 0 0 0-1.18-.952zm31.9.012a1.198 1.198 0 0 0-1.18.95l-2.878 13.55a1.201 1.201 0 1 0 2.35.5l2.878-13.55a1.198 1.198 0 0 0-1.17-1.45zm-39.602 2.16a1.198 1.198 0 0 0-1.247 1.568l1.803 5.54a1.2 1.2 0 1 0 2.282-.742l-1.797-5.54a1.198 1.198 0 0 0-1.04-.827zm47.262.002c-.481.042-.89.368-1.038.828l-1.803 5.54a1.2 1.2 0 0 0 2.282.741l1.803-5.54a1.198 1.198 0 0 0-1.244-1.569zm-54.878 2.79a1.198 1.198 0 0 0-1.076 1.689l5.626 12.657a1.202 1.202 0 0 0 2.196-.976l-5.625-12.657a1.198 1.198 0 0 0-1.121-.713zm62.577.043a1.198 1.198 0 0 0-1.118.713l-5.642 12.649a1.201 1.201 0 0 0 2.193.978l5.643-12.648a1.198 1.198 0 0 0-1.076-1.692zm-69.64 3.694a1.198 1.198 0 0 0-1.124 1.797l2.91 5.05a1.202 1.202 0 0 0 2.082-1.202l-2.913-5.046a1.198 1.198 0 0 0-.955-.599zm76.615 0a1.195 1.195 0 0 0-.956.6l-2.912 5.045a1.201 1.201 0 0 0 2.082 1.198l2.91-5.043a1.198 1.198 0 0 0-1.124-1.797v-.003zm-83.482 4.279a1.204 1.204 0 0 0-.93 1.908l8.13 11.211a1.201 1.201 0 1 0 1.946-1.409l-8.13-11.21a1.198 1.198 0 0 0-1.016-.497v-.003zm90.434.063c-.4-.015-.781.171-1.016.496l-8.147 11.2a1.2 1.2 0 1 0 1.943 1.412l8.147-11.2a1.198 1.198 0 0 0-.927-1.908zm-96.567 5.086a1.198 1.198 0 0 0-.955 2.002l3.896 4.33a1.2 1.2 0 0 0 1.786-1.605l-3.9-4.33a1.198 1.198 0 0 0-.827-.4v.003zm102.623.009c-.317.017-.615.16-.827.396l-3.9 4.327a1.2 1.2 0 1 0 1.783 1.61l3.9-4.33a1.198 1.198 0 0 0-.956-2.003zm-108.505 5.64a1.198 1.198 0 0 0-.742 2.09l10.298 9.265a1.2 1.2 0 1 0 1.606-1.782l-10.295-9.266a1.198 1.198 0 0 0-.867-.308zm114.416.04a1.195 1.195 0 0 0-.868.307L679.37 53.48a1.2 1.2 0 0 0 1.604 1.786l10.298-9.257a1.198 1.198 0 0 0-.736-2.094zM571.23 50.161a1.198 1.198 0 0 0-.748 2.174l4.713 3.423a1.2 1.2 0 1 0 1.412-1.942l-4.713-3.424a1.198 1.198 0 0 0-.664-.23zm124.188.043a1.2 1.2 0 0 0-.664.228l-4.716 3.423a1.2 1.2 0 1 0 1.412 1.943l4.716-3.423a1.198 1.198 0 0 0-.748-2.168v-.003zM566.664 56.87a1.198 1.198 0 0 0-.514 2.24l11.993 6.922a1.2 1.2 0 1 0 1.198-2.08l-11.993-6.922a1.198 1.198 0 0 0-.684-.16zm133.297 0a1.19 1.19 0 0 0-.685.16l-11.995 6.923a1.201 1.201 0 1 0 1.198 2.082l11.998-6.926a1.198 1.198 0 0 0-.516-2.24zm-136.755 7.148a1.198 1.198 0 0 0-.513 2.3l5.323 2.37a1.2 1.2 0 0 0 .978-2.19l-5.323-2.374a1.198 1.198 0 0 0-.465-.106zm140.23.049c-.162.003-.321.04-.469.105l-5.32 2.368a1.202 1.202 0 1 0 .976 2.197l5.323-2.37a1.198 1.198 0 0 0-.51-2.3zm-143.308 7.422a1.198 1.198 0 0 0-.268 2.34l13.165 4.29a1.2 1.2 0 1 0 .744-2.282l-13.167-4.29a1.201 1.201 0 0 0-.474-.058zm146.38.052a1.164 1.164 0 0 0-.474.057l-13.17 4.279a1.201 1.201 0 1 0 .741 2.285l13.17-4.28a1.198 1.198 0 0 0-.268-2.338v-.003zm-148.3 7.793a1.198 1.198 0 0 0-.256 2.376l5.7 1.21a1.2 1.2 0 1 0 .498-2.348l-5.699-1.212a1.178 1.178 0 0 0-.243-.026zm150.205.012c-.081.001-.163.01-.243.025l-5.7 1.21a1.2 1.2 0 0 0 .5 2.347l5.7-1.21a1.198 1.198 0 0 0-.257-2.375v.003zM556.756 87.22a1.198 1.198 0 0 0-.008 2.39l13.772 1.455a1.2 1.2 0 0 0 .254-2.388L557 87.223a1.232 1.232 0 0 0-.243 0v-.002zm153.117.105a1.101 1.101 0 0 0-.242 0l-13.778 1.438a1.2 1.2 0 0 0 .25 2.388l13.779-1.438a1.198 1.198 0 0 0-.009-2.388zm-153.35 7.968a1.201 1.201 0 0 0 0 2.401h5.827a1.201 1.201 0 1 0 0-2.401h-5.827zm147.745 0a1.201 1.201 0 1 0 0 2.401h5.828a1.201 1.201 0 1 0 0-2.401h-5.828zm-133.51 6.546a1.095 1.095 0 0 0-.243 0l-13.778 1.438a1.202 1.202 0 1 0 .25 2.39l13.779-1.437a1.198 1.198 0 0 0-.009-2.39zm125.095.086a1.198 1.198 0 0 0-.009 2.39l13.773 1.455a1.2 1.2 0 0 0 .254-2.387l-13.773-1.455a1.238 1.238 0 0 0-.245-.003zm-131.962 8.11a1.227 1.227 0 0 0-.243.028l-5.7 1.21a1.2 1.2 0 1 0 .5 2.348l5.7-1.21a1.198 1.198 0 0 0-.257-2.376zm138.837.014a1.198 1.198 0 0 0-.257 2.376l5.697 1.21a1.201 1.201 0 1 0 .499-2.35l-5.7-1.21a1.178 1.178 0 0 0-.242-.029l.003.003zm-129.244 4.727a1.164 1.164 0 0 0-.473.057l-13.17 4.279a1.201 1.201 0 0 0 .74 2.285l13.171-4.28a1.198 1.198 0 0 0-.268-2.338v-.003zm119.63.043a1.198 1.198 0 0 0-.268 2.339l13.168 4.29a1.2 1.2 0 0 0 .742-2.282l-13.165-4.29a1.201 1.201 0 0 0-.477-.057zm-124.653 9.342c-.16.003-.319.038-.465.103l-5.323 2.37a1.2 1.2 0 0 0 .975 2.194l5.323-2.368a1.198 1.198 0 0 0-.51-2.299zm129.677.046a1.198 1.198 0 0 0-.514 2.296l5.32 2.373a1.201 1.201 0 1 0 .979-2.193l-5.32-2.374a1.198 1.198 0 0 0-.465-.102zm-119.314 2.601a1.19 1.19 0 0 0-.684.16l-11.996 6.92a1.202 1.202 0 1 0 1.201 2.083l11.996-6.926a1.198 1.198 0 0 0-.517-2.24v.003zm108.97 0a1.198 1.198 0 0 0-.516 2.24l11.995 6.923a1.2 1.2 0 1 0 1.198-2.08l-11.992-6.923a1.198 1.198 0 0 0-.685-.16zM575.832 136.97c-.24.008-.47.088-.665.228l-4.715 3.424a1.202 1.202 0 1 0 1.412 1.945l4.715-3.423a1.198 1.198 0 0 0-.747-2.174zm114.926.043a1.198 1.198 0 0 0-.747 2.174l4.712 3.423a1.2 1.2 0 1 0 1.412-1.943l-4.712-3.423a1.198 1.198 0 0 0-.665-.231zm-104.246.414a1.192 1.192 0 0 0-.867.308l-10.298 9.256a1.2 1.2 0 1 0 1.603 1.786l10.298-9.257a1.198 1.198 0 0 0-.736-2.093zm93.566.031a1.2 1.2 0 0 0-.742 2.094l10.295 9.265a1.2 1.2 0 1 0 1.606-1.783l-10.292-9.268a1.198 1.198 0 0 0-.867-.305v-.003zm-83.796 8.798a1.198 1.198 0 0 0-1.012.493l-8.147 11.202a1.2 1.2 0 0 0 1.94 1.412l8.15-11.2a1.198 1.198 0 0 0-.93-1.907zm73.986.05a1.201 1.201 0 0 0-.93 1.906l8.13 11.211a1.201 1.201 0 0 0 1.945-1.409l-8.133-11.21a1.198 1.198 0 0 0-1.012-.497zm-84.503 1.73a1.201 1.201 0 0 0-.828.399l-3.899 4.327a1.2 1.2 0 0 0 1.783 1.606l3.9-4.327a1.198 1.198 0 0 0-.956-2.005zm95.08.005a1.198 1.198 0 0 0-.955 2.003l3.896 4.33a1.2 1.2 0 1 0 1.786-1.606l-3.897-4.33a1.198 1.198 0 0 0-.83-.397zm-73.184 4.804a1.195 1.195 0 0 0-1.12.713l-5.643 12.646a1.202 1.202 0 1 0 2.196.978l5.64-12.648a1.198 1.198 0 0 0-1.073-1.689zm51.22.034a1.198 1.198 0 0 0-1.076 1.689l5.625 12.657a1.202 1.202 0 1 0 2.197-.976L660 153.592a1.198 1.198 0 0 0-1.12-.713zm-61.135 3.877a1.195 1.195 0 0 0-.956.599l-2.912 5.043a1.2 1.2 0 0 0 2.08 1.201l2.909-5.046a1.198 1.198 0 0 0-1.121-1.797zm71.127 0a1.198 1.198 0 0 0-1.124 1.797l2.912 5.05a1.203 1.203 0 0 0 2.083-1.205l-2.916-5.046a1.198 1.198 0 0 0-.955-.599v.003zm-48.649.18a1.198 1.198 0 0 0-1.183.952l-2.879 13.548a1.201 1.201 0 0 0 2.35.499l2.88-13.55a1.198 1.198 0 0 0-1.17-1.45h.002zm26.13.008a1.198 1.198 0 0 0-1.17 1.45l2.87 13.55a1.2 1.2 0 1 0 2.348-.5l-2.87-13.55a1.198 1.198 0 0 0-1.18-.95h.002zm-13.045 1.37a1.198 1.198 0 0 0-1.2 1.198v13.85a1.201 1.201 0 1 0 2.401 0v-13.85a1.198 1.198 0 0 0-1.2-1.198zm-22.042 4.472c-.481.042-.89.368-1.038.828l-1.8 5.54a1.2 1.2 0 1 0 2.282.741l1.803-5.54a1.198 1.198 0 0 0-1.247-1.569zm44.073 0a1.198 1.198 0 0 0-1.247 1.57l1.803 5.542a1.2 1.2 0 0 0 2.282-.742l-1.797-5.54a1.198 1.198 0 0 0-1.041-.827v-.003zm-29.567 3.09a1.198 1.198 0 0 0-1.079 1.07l-.607 5.79a1.2 1.2 0 0 0 2.387.251l.61-5.79a1.198 1.198 0 0 0-1.311-1.321zm15.024.005a1.198 1.198 0 0 0-1.312 1.321l.605 5.791a1.2 1.2 0 1 0 2.388-.251l-.605-5.79a1.198 1.198 0 0 0-1.076-1.07z"/><path fill="#000" d="M689.586 48.469l-65.694 38.168-41.537 65.39 60.766-45.008z" opacity=".409"/><path fill="#FF5150" d="M642.723 106.356l-18.827-19.72L690.692 41.7z"/><path fill="#F1F1F1" d="M642.723 106.356l-18.827-19.72-47.973 64.654z"/><path fill="#000" d="M575.926 151.29l66.797-44.934 47.972-64.655z" opacity=".243"/></g></g><g><g fill-rule="nonzero"><path fill="url(#be)" stroke="#2064A9" d="M46.8 70.24c2.08-18.64 16.8-33.6 35.12-33.6 20.56 0 34.72 14.4 36 33.6H46.8zm67.36 39.36c-5.2 10.72-16 17.68-32.32 18.08-22.64.56-34.56-18.72-35.12-35.28H163.36c.4-3.36.64-6.72.64-10.24C164 37.04 127.44.48 82.32.48 37.2.48.64 37.04.64 82.16c0 45.12 36.56 81.68 81.68 81.68 35.52 0 65.68-22.64 76.96-54.24h-45.12z" transform="translate(19.08 18.977)"/><path fill="url(#bf)" fill-opacity=".95" d="M174 38.96c-.64 2.48-1.28 4.64-1.68 6.48-.32 1.44-.48 5.68-.48 5.68s3.04-1.92 3.76-2.88c.64-.88 1.52-4.64 2.32-8.4l-3.92-.88z" transform="translate(-.12 6.977)"/><path fill="#FFB700" fill-opacity=".95" d="M177.96 46.977c.56-2.48 1.04-5.04 1.28-6.8 1.04-6.48 3.2-41.04-42.96-31.2-61.92 13.12-96.16 61.68-101.6 68.4-10.32 12.8-41.04 62.24-32.96 92.64 4.72 17.76 23.6 17.68 37.36 14.88l-.96-4.88c-23.36 3.76-26.88-14-23.68-27.84 3.92-17.28 16.64-45.68 57.76-85.68 36.48-35.52 75.2-55.36 95.36-45.52 10.72 5.2 8.64 16.48 6.32 25.12l4.08.88z"/><path fill="#FFFFA6" d="M136.28 8.977c-61.92 13.12-96.16 61.68-101.6 68.4-6.48 8-20.88 30.4-28.8 53.44-.48 1.84-1.04 3.68-1.68 5.28 25.44-65.2 88.64-111.36 134.56-127.6-.8.16-1.68.32-2.48.48z"/><path fill="url(#bg)" fill-opacity=".95" d="M39.2 177.84c7.52-1.6 13.68-4 15.04-4.72 1.28-.72 5.68-3.12 9.68-5.52l-3.52-2c-1.92.72-4.16 1.6-6.64 2.64-5.84 2.4-11.12 3.92-15.52 4.56l.96 5.04z" transform="translate(-.12 6.977)"/></g><g font-family="SetFiretotheRain, Set Fire to the Rain" font-size="36"><text fill="#000" transform="translate(21.88 188.977)"><tspan x=".111" y="51.977">Aug 2001</tspan></text><text fill="#D0021B" transform="translate(21.88 188.977)"><tspan x="144.289" y="34.973">*</tspan></text></g></g><g fill-rule="nonzero"><path fill="#FC6621" d="M237.316 539.625c-18.944-1.775-34.977-13.69-45.026-33.458-2.8-5.51-4.48-11.09-5.287-17.565-.265-2.122-.369-7.977-.184-10.308.581-7.308 2.386-14.038 5.486-20.458 3.04-6.293 6.538-11.134 16.035-22.19 5.37-6.25 7.825-9.423 10.107-13.063 1.024-1.632 2.495-4.648 3.011-6.174 1.545-4.559 1.62-10.596.189-14.928-.97-2.934-2.788-5.742-4.99-7.708-6.222-5.553-15.758-6.52-24.198-2.45-1.643.792-3.252 1.754-4.397 2.628-1.385 1.057-1.32.749.503-2.393 5.755-9.921 15.757-19.914 25.854-25.834 5.003-2.932 9.716-4.768 14.21-5.534 2.486-.424 7.574-.36 11.276.141 5.786.784 11.478 3.089 17.198 6.964 1.974 1.337 3.256 2.387 5.102 4.18 5.028 4.88 8.946 11.236 11.362 18.43 3.203 9.536 3.456 19.327.718 27.827-1.078 3.35-2.272 5.826-4.179 8.668-1.521 2.267-2.878 3.882-5.29 6.298-3.831 3.837-7.794 6.813-16.752 12.582-4.832 3.112-7.147 4.647-9.33 6.189-10.576 7.465-16.161 13.411-19.844 21.124-1.226 2.568-2.58 6.246-3.2 8.696-1.378 5.438-1.463 15.038-.189 21.117.612 2.916 2.342 8.54 3.563 11.578 3.548 8.828 8.352 14.46 16.61 19.474 3.333 2.023 4.116 2.36 10.175 4.392l5.645 1.893-6.535-.007c-3.593-.004-7.033-.053-7.643-.11zm25.027-1.826c3.995-1.34 6.188-2.142 7.06-2.582 10.999-5.536 17.78-15.434 19.453-28.397.276-2.135.37-6.574.187-8.745-.673-7.969-3.679-15.168-8.59-20.573a84.972 84.972 0 0 1-1.03-1.148c-.104-.123-.772-.74-1.484-1.37-5.392-4.776-12.037-7.793-19.48-8.844-1.796-.253-7.43-.217-9.308.06-5.227.771-9.99 2.498-14.363 5.205-1.796 1.112-3.823 2.695-5.82 4.543l-1.813 1.678.37-.894c1.718-4.142 3.963-7.53 7.01-10.578 5.454-5.454 12.705-8.91 21.109-10.06 2.078-.284 6.252-.28 8.425.01 13.65 1.815 27.404 10.481 35.134 22.138 3.164 4.771 5.223 9.682 6.41 15.288 1.865 8.806 1.17 19.128-1.916 28.395a110.136 110.136 0 0 0-.73 2.239c0 .022 1.012.065 2.25.094 2.089.049 2.368.084 3.914.49 6.572 1.723 11.52 5.189 14.968 10.481.712 1.093 1.963 3.577 2.113 4.195l.082.339-34.873-.01-34.873-.01 5.795-1.944zm-11.466-9.82c-.203-.027-.869-.112-1.48-.189-8.249-1.033-16.104-6.726-19.8-14.35-2.934-6.05-3.214-13.06-.779-19.442 2.872-7.526 9.046-13.242 16.82-15.573 6.32-1.896 12.802-1.363 18.8 1.543 7.099 3.44 12.518 9.924 14.292 17.1.535 2.165.625 2.956.618 5.462-.012 4.093-.77 7.34-2.581 11.034-3.637 7.421-10.783 12.636-19.356 14.125-1.41.245-5.532.428-6.534.29zm5.117-14.668c3.686-.861 6.853-3.515 8.078-6.77.49-1.3.686-2.456.684-4.014-.009-4.811-2.95-8.886-7.502-10.394-1.624-.537-3.176-.756-4.65-.655-7.541.515-12.278 7.537-9.91 14.689 1.264 3.82 4.654 6.59 8.918 7.289 1.178.193 3.226.125 4.382-.145zm63.616-29.408c-1.267-.12-3.084-.526-4.184-.935-1.692-.629-2.211-1.182-4.21-4.48-4.899-8.085-10.424-14.328-17.086-19.307-8.482-6.34-18.473-10.113-29.321-11.076-1.881-.167-6.822-.402-9.531-.454-.564-.01-.98-.06-.925-.109.055-.049.765-.37 1.579-.715 5.142-2.177 11.397-3.085 18.863-2.74 6.926.32 12.52 1.252 19.295 3.21 7.308 2.114 11.85 4.195 20.527 9.404 11.55 6.935 15.688 8.484 26.568 9.95 3.342.45 5.396.794 6.72 1.123 4.396 1.096 6.851 2.678 8.877 5.722 1.228 1.845 1.91 3.414 1.91 4.392 0 .751.004.751-1.916.105-2.62-.882-3.583-1.036-6.529-1.04-2.896-.003-4.162.155-6.904.86-2.178.56-4.338 1.32-7.274 2.558-4.096 1.728-6.301 2.45-9.303 3.046-2.81.559-4.902.7-7.156.486zm21-26.746c-5.25-.509-8.55-1.764-16.993-6.461-16.098-8.956-28.618-13.168-41.81-14.066-1.551-.105-3.113-.231-3.47-.28l-.651-.087 2.623-1.098c10.622-4.446 19.955-9.206 25.86-13.188 1.877-1.266 2.96-2.101 4.771-3.682l1.255-1.094.071-.764c.04-.42.129-1.568.198-2.551.582-8.253 2.596-14.71 6.098-19.547.61-.843 1.148-1.533 1.195-1.534.16-.002 2.215 2.651 2.875 3.714 1.93 3.11 3.741 7.477 4.646 11.203.205.847.45 1.688.542 1.868.234.456.819.786 2.36 1.33 4.582 1.622 8.231 3.573 11.766 6.292 1.835 1.411 5.364 4.884 6.754 6.648 4.853 6.152 7.733 13.155 8.704 21.156.116.962.223 3.183.266 5.557l.072 3.954-.945.448c-1.911.908-4.724 1.624-7.844 1.999-1.959.235-6.73.34-8.343.183z"/><g fill="#000"><path d="M900.753 400.926c0-5.834-3.572-13.219-18.586-13.219h-23.119l-6.572 30.406h24.102c18.817 0 24.175-8.907 24.175-17.187zM963.028 400.926c0-5.834-3.563-13.219-18.572-13.219h-23.123l-6.568 30.402h24.088c18.826.004 24.175-8.903 24.175-17.183zM892.413 446.687c0-5.834-3.572-13.237-18.586-13.237h-23.119l-6.572 30.425h24.092c18.822 0 24.185-8.93 24.185-17.188zM954.688 446.687c0-5.834-3.576-13.237-18.576-13.237h-23.119l-6.581 30.425h24.101c18.826 0 24.175-8.93 24.175-17.188zM1019.844 428.129c0-5.839-3.577-13.237-18.577-13.237h-23.119l-6.581 30.42h24.092c18.826 0 24.185-8.908 24.185-17.183zM1010.862 475.773c0-5.838-3.567-13.218-18.577-13.218h-23.118l-6.572 30.406h24.092c18.821 0 24.175-8.93 24.175-17.188zM945.74 494.336c0-5.861-3.564-13.26-18.564-13.26h-23.132l-6.572 30.42h24.092c18.826.005 24.175-8.903 24.175-17.16z"/></g><path fill="#7170F1" d="M587.569 539.452c-20.24-1.694-30.448-4.058-41.603-9.633-12.239-6.118-19.633-13.674-25.663-26.223-6.738-14.023-9.271-28.657-9.271-53.56 0-23.736 2.345-38.26 8.383-51.911 3.022-6.834 8.251-14.634 12.398-18.494 7.604-7.08 18.407-12.577 30.98-15.764 15.558-3.944 42.462-4.955 62.83-2.363 23.345 2.972 40.892 11.931 50.184 25.624 9.658 14.231 13.878 31 14.55 57.818.615 24.465-2.522 44.52-9.096 58.17-6.492 13.48-13.818 20.82-27.22 27.27-9.28 4.467-18.292 6.801-32.472 8.411-4.803.546-29.601 1.023-34 .655zm21.272-35.456c9.954-1.272 19.872-5.732 27.955-12.571l2.5-2.116-6.135-.1-6.134-.1-3.82 1.972c-6.41 3.307-12.17 4.95-19.275 5.493-8.733.669-19.34-2.045-27.143-6.944-7.24-4.545-11.605-9.182-16.993-18.047-.36-.594-1.672-1.536-3.227-2.32a86.196 86.196 0 0 1-4.938-2.727c-1.275-.775-2.462-1.408-2.637-1.408-.443 0 1.25 4.622 3.131 8.545 2.697 5.627 5.7 9.769 10.688 14.743 4.992 4.979 9.224 8.05 14.756 10.705 9.887 4.747 19.97 6.318 31.272 4.875zm38.91-23.377c8.162-1.414 12.951-3.463 16.578-7.093 3.19-3.192 4.102-5.48 3.886-9.75-.132-2.612-.34-3.363-1.66-6-1.663-3.322-4.843-7.197-8.35-10.174-1.798-1.526-2.313-2.195-2.461-3.202-1.14-7.726-2.858-13.75-5.33-18.68-10.091-20.126-30.832-32.001-53.077-30.391-9.55.69-18.282 3.682-26.36 9.03-3.858 2.554-10.158 8.427-12.91 12.036l-1.914 2.509-2.565.426c-13.122 2.18-20.63 9.194-19.16 17.9 1.938 11.492 18.286 23.771 44.78 33.635 14.312 5.329 31.013 9.005 47.27 10.406 3.848.331 18.121-.106 21.273-.652zm-25.273-7.7c-16.107-1.741-33.945-6.368-48.487-12.576-6.6-2.817-9.282-4.17-14.917-7.523l-4.677-2.783.24-3.273c1.583-21.58 17.343-39.146 38.568-42.986 4.424-.8 12.124-.785 16.318.033 14.593 2.847 26.727 11.81 33.288 24.59 3.524 6.863 5.121 13.553 5.121 21.454 0 7.589-1.573 14.45-4.773 20.818l-1.417 2.818-7.36-.04c-4.047-.023-9.404-.262-11.904-.532zm29.224-1.719c1.504-3.618 3.85-12.396 3.878-14.512.01-.736.177-.642 1.434.803 2.08 2.391 3.282 4.957 3.282 7.004 0 1.465-.195 1.937-1.305 3.166-1.29 1.428-3.94 2.963-6.27 3.63-.9.259-1.155.236-1.02-.091zM545.27 441.768c-3.748-4.596-4.042-8.186-.868-10.607 1.164-.888 4.348-2.45 5.967-2.926l.8-.236-.906 2.23c-1.135 2.795-2.563 8.088-2.892 10.722-.138 1.102-.383 2.086-.544 2.186-.162.1-.862-.517-1.557-1.369z"/><g fill="#A4C639"><g stroke="#FFF" stroke-width="14.4" transform="translate(1203.092 373.632)"><ellipse cx="48.176" cy="44.471" rx="48.176" ry="44.471"/><rect width="96.353" height="96.353" y="33.353" rx="22"/></g><g stroke="#FFF" stroke-width="7.2" transform="matrix(-1 0 0 1 1326.975 359.867)"><rect width="6.882" height="45.529" x="92.793" y="-.884" rx="3.441" transform="rotate(29 96.235 21.88)"/><rect width="25.412" height="70.412" y="58.235" rx="12.706"/><rect width="25.412" height="70.412" rx="12.706" transform="translate(45 109.588)"/></g><g stroke="#FFF" stroke-width="7.2" transform="translate(1175.563 359.867)"><rect width="6.882" height="45.529" x="92.793" y="-.884" rx="3.441" transform="rotate(29 96.235 21.88)"/><rect width="25.412" height="70.412" y="58.235" rx="12.706"/><rect width="25.412" height="70.412" rx="12.706" transform="translate(45 109.588)"/></g><g transform="translate(1203.092 373.632)"><ellipse cx="48.176" cy="44.471" rx="48.176" ry="44.471"/><rect width="96.353" height="96.353" y="33.353" rx="22"/></g></g><g fill="#FFF" stroke="#FFF" stroke-width="7.2" transform="translate(1200.975 394.279)"><path d="M0 25.676h100.588"/><circle cx="28.059" cy="2.118" r="2.118"/><circle cx="72.529" cy="2.118" r="2.118"/></g></g></g></svg>
