<svg xmlns="http://www.w3.org/2000/svg" fill-rule="evenodd" shape-rendering="geometricPrecision" text-rendering="geometricPrecision" image-rendering="optimizeQuality" clip-rule="evenodd" viewBox="0 0 160 220.001"><defs><linearGradient id="a" x1="74.505" x2="118.114" y1="95.473" y2="95.473" gradientUnits="userSpaceOnUse"><stop offset="0" stop-color="#fff"/><stop offset="1" stop-color="#0072B5"/></linearGradient><linearGradient id="b" x1="106.919" x2="9.42" y1="64.93" y2="64.93" gradientUnits="userSpaceOnUse"><stop offset="0" stop-color="#fff"/><stop offset="1" stop-color="#15A739"/></linearGradient><linearGradient id="c" x1="69.851" x2="69.851" y1="89.373" y2="180.437" gradientUnits="userSpaceOnUse"><stop offset="0" stop-color="#fff"/><stop offset="1" stop-color="#EA8A2F"/></linearGradient></defs><path fill="url(#a)" fill-rule="nonzero" stroke="#6FBDE4" stroke-width=".576" d="M74.505 84.437l30.002-.005 13.607 11.035-13.592 11.04-30.002.007-.015-22.077zM74.512 95.475"/><g fill="#1F1A17" font-weight="bold" font-size="37.334"><text x="80.07" y="147.334" transform="rotate(91 109.2 111.8)">Text</text><text x="80.141" y="184.668" transform="rotate(91 109.2 111.8)">Flow</text></g><path fill="url(#b)" fill-rule="nonzero" stroke="#B2D9AA" stroke-width=".576" d="M106.92 56.244H51.205v-9.956L9.42 64.93l41.786 18.642v-9.956h55.713V56.244zM106.918 64.93"/><path fill="url(#c)" fill-rule="nonzero" stroke="#F3C35C" stroke-width=".576" d="M71.043 89.373v66.016h2.913l-4.105 25.048-4.104-25.05h2.912V89.374h2.385zM69.85 89.373"/><text x="51.87" y="195.107" fill="#FFDBB7" font-size="15.999">inline</text><text x="20.447" y="212.981" fill="#FFDBB7" font-size="16">base direction</text><g><text x="60.875" y="110" fill="#D8ECFF" font-size="15.999" transform="rotate(90 113 138.5)">line</text><text x="37.66" y="127.875" fill="#D8ECFF" font-size="16" transform="rotate(90 113 138.5)">orientation</text></g><text x="55.514" y="20.036" fill="#D7FFD7" font-size="16">block</text><text x="24.918" y="37.91" fill="#D7FFD7" font-size="15.999">flow direction</text></svg>
