<svg xmlns="http://www.w3.org/2000/svg" viewBox="0 0 122 63"><path fill="#fff" fill-rule="evenodd" d="M54.636 55.16c0 1.963-.416 3.37-1.248 4.224-.832.853-2.23 1.28-4.192 1.28H5.548c-2.005 0-3.38-.427-4.128-1.28C.673 58.53.3 57.124.3 55.16V9.272c0-1.963.373-3.36 1.12-4.192.747-.832 2.123-1.248 4.128-1.248h43.648c1.963 0 3.36.416 4.192 1.248.832.832 1.248 2.23 1.248 4.192V55.16zm-4.8-45.632c0-.725-.3-1.088-.896-1.088H5.932c-.555 0-.832.363-.832 1.088v45.184c0 .768.277 1.152.832 1.152H48.94c.597 0 .896-.384.896-1.152V9.528zM42.86 19.64c0 1.92-.416 3.243-1.248 3.968-.832.725-2.208 1.088-4.128 1.088H17.772c-1.92 0-3.307-.363-4.16-1.088-.853-.725-1.28-2.048-1.28-3.968v-3.456c0-1.92.427-3.243 1.28-3.968.853-.725 2.24-1.088 4.16-1.088h19.712c1.92 0 3.296.363 4.128 1.088.832.725 1.248 2.048 1.248 3.968v3.456zm2.88 25.984c0 .81-.213 1.387-.64 1.728-.427.34-.98.512-1.664.512-.725 0-1.29-.17-1.696-.512-.405-.34-.608-.917-.608-1.728V32.248c-.085-.427-.256-.64-.512-.64h-25.6c-.128 0-.245.064-.352.192-.107.128-.16.256-.16.384V45.24c0 .81-.192 1.387-.576 1.728-.384.34-.896.512-1.536.512-.725 0-1.323-.17-1.792-.512-.47-.34-.704-.917-.704-1.728V31.992c0-.98.075-1.78.224-2.4.15-.62.405-1.1.768-1.44.363-.34.853-.576 1.472-.704.62-.128 1.397-.192 2.336-.192h26.24c1.792 0 3.02.31 3.68.928.66.62 1.035 1.91 1.12 3.872v13.568zM38.444 16.44c0-.555-.384-.832-1.152-.832H17.9c-.725 0-1.088.277-1.088.832v3.008c0 .512.363.768 1.088.768h19.392c.34 0 .62-.075.832-.224.213-.15.32-.33.32-.544V16.44zm-25.28 37.952c-.98.384-1.824.48-2.528.288s-1.227-.736-1.568-1.632c-.256-.81-.16-1.46.288-1.952.448-.49 1.1-.864 1.952-1.12 4.736-1.408 8.15-3.072 10.24-4.992s3.136-4.33 3.136-7.232v-2.816c0-1.024.17-1.74.512-2.144.34-.405.98-.608 1.92-.608s1.568.203 1.888.608c.32.405.48 1.12.48 2.144v2.944c0 2.005-.245 3.744-.736 5.216-.49 1.472-1.344 2.827-2.56 4.064s-2.88 2.432-4.992 3.584c-2.112 1.152-4.79 2.368-8.032 3.648zM33.26 43.064c1.067.725 2.07 1.387 3.008 1.984.94.597 1.856 1.184 2.752 1.76.896.576 1.803 1.163 2.72 1.76.917.597 1.888 1.237 2.912 1.92.768.555 1.195 1.163 1.28 1.824.085.66-.15 1.312-.704 1.952-.597.597-1.14.864-1.632.8-.49-.064-1.1-.33-1.824-.8-1.11-.81-2.07-1.504-2.88-2.08-.81-.576-1.6-1.14-2.368-1.696-.768-.555-1.59-1.11-2.464-1.664-.875-.555-1.91-1.195-3.104-1.92-1.835-1.152-2.283-2.325-1.344-3.52.427-.64.907-.992 1.44-1.056.533-.064 1.248.18 2.144.736h.064zm67.52 16.32c0 .896-.16 1.61-.48 2.144-.32.533-.907.8-1.76.8s-1.493-.267-1.92-.8c-.427-.533-.64-1.248-.64-2.144v-8.64H83.82c-1.877 0-2.816-.79-2.816-2.368 0-1.62.94-2.432 2.816-2.432h12.16V22.52c-2.09 4.82-4.533 9.312-7.328 13.472s-6.005 8.373-9.632 12.64c-.98 1.11-1.78 1.685-2.4 1.728-.62.043-1.312-.235-2.08-.832-.47-.47-.63-1.088-.48-1.856.15-.768.587-1.58 1.312-2.432 1.792-2.048 3.54-4.16 5.248-6.336 1.707-2.176 3.328-4.47 4.864-6.88s2.976-4.94 4.32-7.584c1.344-2.645 2.592-5.483 3.744-8.512H81.004c-1.877 0-2.816-.81-2.816-2.432 0-1.62.94-2.432 2.816-2.432H95.98V3.832c0-1.963.81-2.944 2.432-2.944.853 0 1.46.245 1.824.736.363.49.544 1.227.544 2.208v7.232h16.064c.853 0 1.536.203 2.048.608.512.405.768 1.013.768 1.824 0 .81-.256 1.42-.768 1.824-.512.405-1.195.608-2.048.608h-14.016c.98 2.603 2.048 5.088 3.2 7.456 1.152 2.368 2.453 4.715 3.904 7.04 1.45 2.325 3.072 4.672 4.864 7.04 1.792 2.368 3.82 4.853 6.08 7.456.725.81 1.11 1.61 1.152 2.4.043.79-.256 1.483-.896 2.08s-1.323.81-2.048.64c-.725-.17-1.493-.853-2.304-2.048-3.755-4.523-6.955-8.875-9.6-13.056-2.645-4.18-4.78-8.277-6.4-12.288v23.296h11.584c.853 0 1.536.192 2.048.576.512.384.768 1.003.768 1.856 0 .725-.256 1.3-.768 1.728-.512.427-1.195.64-2.048.64H100.78v8.64zm-27.84.192c0 .853-.16 1.536-.48 2.048-.32.512-.97.768-1.952.768-.725 0-1.312-.235-1.76-.704-.448-.47-.672-1.173-.672-2.112V31.288c-.427.725-.843 1.43-1.248 2.112-.405.683-.82 1.365-1.248 2.048-.64 1.024-1.3 1.643-1.984 1.856-.683.213-1.387.085-2.112-.384-.64-.47-.96-1.11-.96-1.92 0-.81.3-1.643.896-2.496 2.432-3.37 4.64-7.488 6.624-12.352s3.68-10.133 5.088-15.808c.512-2.048 1.664-2.88 3.456-2.496.81.17 1.323.597 1.536 1.28.213.683.192 1.493-.064 2.432-1.45 5.42-3.157 10.58-5.12 15.488v38.528z"/></svg>
