<svg viewBox="0 0 439 361" xmlns="http://www.w3.org/2000/svg" xmlns:xlink="http://www.w3.org/1999/xlink"><defs><path id="a" d="M0 0h439v361H0z"/></defs><g fill="none" fill-rule="evenodd"><mask id="b" fill="#fff"><use xlink:href="#a"/></mask><use fill="#D8D8D8" xlink:href="#a"/><g mask="url(#b)"><path d="M543.726 397H-103.995c-1.905-.406-1.905-.766-1.905-1.172v-2.343-10.682-13.206-15.143-16.857-19.785-19.47-22.896-25.104-26.637-28.214-31.053-31.775-33.036V67.04 35.13 2.726v-30.873-29.476-26.817-23.932-23.257-20.416-19.02-17.938-15.234-12.71-11.042-2.434c1.245-1.577 1.758-1.577 2.27-1.577H549c-.22 2.794-.22 5.994-.22 9.735V389.383c-.146 2.794-.146 5.363-.146 7.617h-4.908z" fill="#C8E9FB" fill-rule="nonzero"/><g stroke="#7C7C7A" stroke-width=".5" fill="#FFF" fill-rule="nonzero"><path d="M359.2 289.9c-.5.3-.3.6.5.7-.2-.3-.4-.5-.5-.7M360.4 271.1c-.6.2-.7 1-.5 1.5.1-.6.2-1.1.5-1.5M361.6 273.4c-.5-.1-.6.1-.1.7 0-.2.1-.5.1-.7M365.4 264.1c-.9.2-.8 2 .2 1.7.6-.1 0-1.5-.2-1.7M367.2 268.7c0 .1 0 .3-.1.4.5 0 1-.1 1.5-.3-.5 0-.9-.1-1.4-.1M369.1 261.5c0 1.1 1.9 2.6 2.7 1.3.6-.9-2.3-1.3-2.7-1.3M370 269.8c0 .2-.1.5-.1.7 1.9.1 3.5 1.1 5.3 1.5.8.2 1.6.5 2.4.3.9-.2 1.9-.8 2.8-.6-.8-1.1-2.7-1-3.9-1.2-2.2-.2-4.4-.5-6.5-.7M386.4 328.1c-.1.2-.1.5-.2.7 1.4-.5 3.1-.3 4.6-.3 1.5 0 2.3-.8 3.4-1.7.5-.4 3.3-4.3 2.6-5.1-2-2.3-3.3-2.5-6-1.3-2.7 1.3-3.4 5.1-4.4 7.7"/><path d="M395.4 328.7c.2-.1.5-.1.7-.2-.4-.7-.5-2.1-1.7-1.7-1.6.6-.2 1.8 1 1.9M393.7 314.1c.1.6.5.9 1 1.1 0-.5-.4-.9-1-1.1"/><path d="M337.7 264.6c.2-.6.1-1.1-.3-1.5 2.2-.6 4.1-.7 5.8-2.3 1.6-1.5 3.3-2.1 5.5-1.6s3.3 2.2 5.2 3c1.9.8 3.9-.3 5.7 1.1-1.4 1 0 2.4.6 3.4.8 1.4-.1 2.5-.6 3.8-1.3 3.3.7 7.2 2.2 10 .5-.7-.2-2.4.6-2.9 1.2-.8 1 2.7 1 3 0 .7.2.8.7 1.2.6.6.4 1.5.9 2.1 1.1 1.2 3.4 1.9 4.6.6.9-1 1.9-1.8 2.8-2.7 1-1 1.2-2.3 2.5-3.1 1.2-.8.8-3.5 2.3-3.6 1.8 0 2.7.2 4.3-.7 1.2-.6 1.3-1 .7-2.2-.4-.9 2.2-2.1 2.7-2.4 1.3-.7 2.6-1.2 4-.5 1.9 1 4.1 1.6 5.7 2.9 1.4 1 3 1.6 4.5 2.4 1.1.5 3.2 2.2 4.4 1.7 1.6-.6 2.2.6 3.8.6 1.7 0 2.5 1.7 4.2 1.5-.2 5-.5 10.1-.5 15.1 0 5.3.6 10.7.4 15.9-.1 1.7-1.2 2.9-1 4.6.1.7 1.1 1.1 1.1 1.6.1 1.1 0 2.3 0 3.4.1 5.3.2 10.5.2 15.8-2.3-1.1-2.9-3.6-4.7-5.1-.9-.8-4.2-2.7-2.8-4.1-.9.7-2.6.4-3.7.9-.9.4-2.7.5-2.3-1.1-.4.6-1.6 1.7-2.4 1.7-1.2 0 0-2.1.1-2.4.3-1 1.5-3.2.5-3.7-.9-.5-1.3-1.7-2.1-2.4 1.1-1 2.8.8 3.6-.8-1.5 1.6-3.8-.9-5.1-1.9 1.4-1.7 3.3.3 4.8.4-1.4-.5-2.6-1.4-3.9-2.2 1.4-.2.1-.7-.4-1.2-.7-.7-1.5-1.5-1.8-2.5-.4-1.2-1.7-3.5-.1-4.1-1.5.6-1.7-1.1-.3-1.4-.5 0-1.8.9-2.3.2-.5-.8.4-1.8 0-2.6-.3 1.8-1.9-1.1-2.5-1.4-1.1-.4-1.1-.7-1.9-1.1-.6-.3-2.1-.7-2.5-1.3-.6-.8-3.7-.9-4.7-1.5-1.6-.9-3.4-1.9-5.1-2.5-1.7-.5-4 0-5.5-.7-1.3-.6-3.1-1.5-3.7-2.9-.6-1.3 1.5-1.1 2.2-1.2-.9-.3-2-.7-2.7.2-.7 1-1.3-.5-2.1-.8.1 1.5-2.3.4-1.3-.6-1.6 0-2.2 0-2.7-1.9 0 .6-.3 1-.8.4-.7-.8-.2-1.3-.2-2.2-.1-1.5 1.4-2.4 1.4-4-.4.8-1.7 1.1-1.7 2.1 0 .9.1 2.3-1.2 2.2 1.1.5.2 1.1-.1 1.7l-.7.7v1.4c-.3 1-2.3 2.1-3.4 1.8-1-.3-1.7-2.5-1.8-3.4-.1-.6.7-.6 1.1-.8 1-.5-.6-1.8-.3-2.6-1.2.7-2.8-3.3-4.5-3.3-2.7-.1-1.3-2 .7-2.2 2-.2 3.5 1.8 4.9-.5 1-1.7 4.2-2.3 3.4.5.2-.5.4-1 .5-1.5.3 1.4 1.9-.3 1.8 1.2.2-1.2.6-.5.9.1.3-.6.3-1.4-.2-1.9.5.1 1 .1 1.5-.1-.4-.5-.4-1 .1-1.4-1.5 1.1-.4-.8-.1-1.2-1.6.1-2.5 1.2-4.3.9-1.1-.2-2.6.9-3.5.5-1.2-.4-1.7.4-2.6-.5-.3-.3-1.2.3-1.5.3-1 .1-1.8-.9-2.6-1.4.2-.2.4-.5.6-.7-.8.1-1.5-.8-1.3-1.6.1-.3.5-.7.4-1-.1-.8-1.5.5-.6-1-.7.1-.9.2-.9-.6-1 1.5-3.1-1.1-4-1.1.9 1.1-1.2 1-1.7.6-1-.7 1.8-2.6 2.1-3.6M70.4 235.4c.3.2 1.4.3 1.3-.4-.1-.4-1.3-1.1-1.6-1.4-.4-.4-.8-.7-1.4-.6.3-.8-.8-1.4-1.3-1.7-.3-.1-.5-.7-.9-.4-.7.6-.7 1.2 0 1.8 1.1 1 3.2 1 3.9 2.7M246.5 300.7c-.3 1.2.4 2.3.3 3.5 1.1-.5 1.9 1.6 3.1.7.8-.6.8-.8 1.9-.6 1 .1 1.7-1.1 2.7-.3-.2-1.7-1.6-3.1-1.1-4.9.6-2.1 1-3.5.6-5.8-.3-1.9 0-3.5.1-5.4 0-.9-.1-1.7 0-2.6.1-1.4-.5-1.4-.9-2.7-.7-2.4 3.4-4.3 5.2-3.8 1.6.5 1.1 4.2.3 5.1-2.4 2.7 1.8 5.7 4.2 7 1 .5-1.3 4.2-.2 5.7.6.8 2.4 1.2 3.3 1.4 1.1.2.7-1.6.8-2.3.2-1.4 2.2-1.2 3.2-1.6.6-.2 3.1 1 1.6-.8 1.2 1.9 2.5-1.9.5-2.4-.2 1.8-.9-.7-1.8-.6.2-.3.4-.5.5-.8-.8 0-1.8-1.1-2.3-1.6-.8-.9.2-1.7-.5-2.7.4.1.7.2 1.1.2-.8-.5-.6-1.7.4-1.7-.2-.4-.4-.7-.8-1-.6-.6-.2-1.3-.6-2-.3-.6-1.1-.6-1.4-1.1-.4-.6-.6-1.6-.9-2.2-.5-1-.9-2-2-2.5-.9-.4-1.3-2.3-2.5-1.7 0-.6.1-1.2.1-1.9 1.2 1 2.2 2 3.4.3 1.1-1.5 2.2-1.5 3.7-2.3 2.1-1.2 3.6-6 6.3-5.9.8 0 .9 2.3 1.8 1.3.5-.6 1.5-2 1-2.8-.9-1.3-4.4-.9-5.5 0 .6.1 1.1.3 1.5.7-1.4 0-5.5-.9-6 .9-.3 1.2-4 1.2-3.8-.5-1.2.8-2.5 2-3.1 3.3-.7 1.4-1 2.3-2.6 1.9-1.1-.2-2.1-.5-2.4-1.7-.2-.6-.2-1.2-.6-1.8-.6-1-1.1-.2-1.8-.7-2.2-1.6-2.4-6.7-1.4-8.9.5-1.3 1.5-2.7 2.7-3.4 1-.6 3.6.4 4.7.8.8.3 2.3-.4 3-.7 1.4-.7 1.8.4 3.2.6 1.6.2 3.6-.6 5.3-.6 2 0 3.3.2 4.9 1.3 2 1.4 8.1.5 9.7-1.4 1.1-1.3 1.5-2.7 2.8-3.9 1.4-1.3 1.4-3.5 2.9-4.6-.5-.3-.9-.9-.7-1.6-.6.1-1.4-.3-1.8.2-.7.6-.7 1.8-1.6 2.1-1.5.5-.5.9-1.2 1.9-.4.5-1.4.3-1.7 1.1-.7 1.9-3.5 2.2-5.1 1.8-1.3-.3-2.9-.6-4.3-.5-.8 0-1.5.9-2.1.6-2-.8-3.4-1.2-5.5-1.4-1.1-.1-1.7-.4-2.9-.3-1.3.1-1.7-1.7-2.4-1.7-.9 0-4.1-1.6-4.3.2-.2 2.5-2.5 4.8-4.3 2.2-.2.8-.4 1.4-1.1 2-.8.7-.7 1.9-1.5 2.6-1.6 1.3.5 3.5-1.1 4.6-.1-.6-.5-1-1.2-.8.4 1.5 1.6 1.2 1.1 2.9-.4 1.6 1 3.1.6 4.7-.3-.6-.5-1.3-1-1.8-.9 2.4-2.8 3.7-2.9 6.5-.1 1.2.1 2.6 0 3.8-.1 1.4-1.4 2.3-1.5 3.8-.1 2-3.4 2.9-2.9 4.6.3.9 1 .4.2 1.7-.7 1.2.2 3.7.7 4.8.6-.7 2.3-1 3.2-1 2-.1.5 1.8 1.2 3 1.2 1.9 1 3.6.8 5.8.2 1.4-.1 4.2-1.3 5.7M266.4 299.9c-2.3.8-.1 3.4.1 3.3.5-.6.4-2.7-.1-3.3"/><path d="M266.2 260c-.4-.7-1.4-.8-1.4.2.5.2.9.1 1.4-.2M267.3 259.2c-.5-.7-1-.6-1.5 0 .4.3 1 .3 1.5 0M270.7 303c.3-.4 1-1.2.7-1.7-.6-1 .4-1.4.6-2.3.1-.5.6-3.7-.7-3-.6.3-1.4.8-2 1.2-1 .9.6 2 0 2.9-.3.4-.9 1.6-.7 2 .4.8 1.7.5 1.6-.4.2.5.4.9.5 1.3"/><path d="M274.7 294c-1.9 0-2.3 4-2.3 5.4 0 1.5-.5 2.1-1 3.5-.6 1.7.4 1.2 1.4 2.2.4-.6.4-1.4.9-2 .4-.6 1.3-.3 1.8-.8.6-.8-.8-2.2-1.6-1.4.2-.9.1-1.8.3-2.7.1-.6 1.1-2.5 1.4-.8.7-1.3-.9-2.1-.9-3.4M276.3 270.1c0-.5 0-1 .1-1.5 2.8 1.4 2-4-.1-.6-.7-1.1.7-1.4-.7-1.8-.5-.2-1.1-.2-1.5.1-1.1.7-.8 2.4-.5 3.5.8-.4 1.3-1.2 1.6-2 .7.5 0 2.2 1.1 2.3M274.4 290.4c-.8.3-.6 1.8.2 2.2 1.3.4 1.8-2-.2-2.2"/><path d="M276.9 266.3c-.2.3-.4.2-.1.7.1-.2.1-.4.1-.7M277.3 270.6c-.3.1-.5.4-.5.7.2-.2.4-.5.5-.7M278.3 301.4c.1.5 0 .7.7.7-.3-.2-.5-.5-.7-.7M279.6 303.3c.1.4.3.6.8.6-.3-.2-.5-.4-.8-.6M281.8 306.9c-.5.5-.3.8.5.7-.1-.2-.3-.4-.5-.7M285.3 270.3c-1.2 1.8-.2 3.4 2 2.7.3-.2.7-.4 1.1-.6.4.1.8.1 1.3.1.8-.4 2.2-.1 2.5-1.1-.6.1-1-.2-1.1-.8-.9 1.4-4.4-.8-5.8-.3M293 232.1c-.7-.2-.8.1-.2.7 0-.2.1-.4.2-.7M294.7 226.9c.5-.9-.7-3.8-1.8-2.5 1.2.3.7 2 1.8 2.5M292.9 271.4c-1 1.1 1.6 1.1 2.1 1.1 1.4 0 3.5.2 4.6-.9-2.2-.3-4.6.5-6.7-.2M297 273c-1.5.3-.1 3.9.7 4.4.3-.5-.3-3.8-.7-4.4M302.2 289.1c1-.5 3.3-.9 3.9-1.9.8-1.3.4-2.2-1-2.5 1.1-1.2-1.2-1.9-2-2.1-1.5-.4-2.8.1-4.3.3-1.8.2-2.2 1.1-1.4 2.8 1 1.8 3.1 2.5 4.8 3.4M302.7 223.1c.2-.6 0-1.2-.4-1.5.1.5.2 1 .4 1.5M303 221.5c.8-.8 1.1-2.1 1-3.2-.1-.6-.5-2.2-1-.9-.4.9.6 1.6.3 2.3-.4.7-1.1 1.2-.3 1.8M306.9 258.3c-.9-.4-1.6 1.6-1 2.2 1.1.8 1.2-1.7 1-2.2M306.9 261.2c-.9.5-.4 1.8.6 1.5-.1-.5-.3-1-.6-1.5M307.6 248.5c-.2.3-.1.5.2.8-.1-.2-.1-.5-.2-.8M309.2 258.6c-.2.3-.5.6-.7.9l-.7-.7c-.6 2 .3 1.3 1 2.7.1.3-.8 1.6.2 1.4.5-.1 1.1-.4 1.3.3.2.8 3.1-.5.7-1.2-1-.3-1.2-.8-.7-1.7.2-.6-.8-1.4-1.1-1.7M308.1 252.7c-.2.3-.3.3 0 .7v-.7M308.6 268.3c-1.1.9-.5 2.4.8 2.6.6.1 1.1-.4 1.6-.4.6 0 1.2.2 1.8.2 2.1.1 0-1.9-.6-2.2-1.4-.6-2.3-1.2-3.6-.2M308.4 249.5c-.2 0-.3 0-.5-.1.1.3.3.6.5.8v-.7M310.3 255.9c.1.9-.3 1.8.4 2.6.6.7 1.3 1.1 1.6 2.1.4 1 2.3 3.3 3.2 2.7-2.6-2.7-2.9-5.9-3.5-9.3-.2-1.5-.2-2.7 1.7-1.8 1.6.8 3.9 1.3 5.6 1.4-1.1-.5-1.1-1.9-2-2.6-.9-.7-3.4-.6-2.3-2.4.7-1.2 2.7-1.3 3-2.8.2-1-.5-2.8-.1-3.5-1.9-.5-3.9 1.4-4.6 2.9 1.7.1 0 1-.4 1.2-1 .4-.6 1.5-1.1 2.3-.5.8-1.6 0-1.9-.5-.6-.9.6-1.5 1.2-2 1.3-.9 2.2-3.5 1.4-5.1-.3-.6-1.4-.9-1.1-1.8.3-.8 1.4-1.4 1.1-2.3-1.8 0-2.6 2.2-3.1 3.6-.4 1.5-1.6 4-1.3 5.5.1.7.4 1.4.8 2 .2.3.4.5.7.6-.5.6-.6 1.3-.6 2.1.1 1 .4 1.5 1 2.3.8.8.4 2 .3 2.8M309.4 266.1c-.3.2-.5.4-.8.6.5.1 1 0 1.5-.3-.2-.1-.4-.2-.7-.3M309.1 284.2c-.4.6-.2.8.6.7-.2-.2-.4-.5-.6-.7M310.2 283.2c-.2.3-.2.5-.2.9.3 0 .5 0 .8-.1-.2-.3-.4-.5-.6-.8M312 281.2c-.2.4-.5.7-.7 1.1.6-.2.9-.6.7-1.1"/><path d="M327.5 286c1.6.9 3.3 1.6 4.8 2.7 1.8 1.3 1.9-.7 1.6-2-.2-.8-1.3-1.1-1.4-1.9-.2-.8-.2-1.7-1-2.2-.7-.4-1-1-2-.8-1 .2-1.9.1-2.7-.6-.8-.6-1.8-1.1-2.8-1-1 0-1.5.8-2.3 1-.8.2-1.1-.2-1.5-.7-.1-.2-2.6.1-2.9.1-3.4-.2-6.9 2.1-5.5 5.9 0-.8 1.1-3.8 2.1-3.6-.3 1 1.5 2.6 2.3 2.8.4.1 4.4-3.3 3.4-.7.6-.1 4.4 1.4 4.6.1.2-1.2 3.1-.2 3.3.9"/><path d="M312.5 287c-.6.3-1 .8-.8 1.5.8-.1 1.4-.8 2.2-1-.7 1.3 1 .1.8-1.2-.8.1-1.4.9-2.2.7M313.5 236.1c.2-.3.4-.2.1-.7 0 .2-.1.4-.1.7M314.5 238.5c2.7-.6 3.8-2.9 2.3-5.3-.4.8-1.2 1-1.8 1.6-.9.9-1 2.5-.5 3.7M315.6 286.3c-.2.3-.2.6-.1.9.3-.1.6-.3.8-.6-.2-.1-.4-.2-.7-.3M316.7 286.1c-.3.7.4 1.4 1.1 1-.1-.5-.5-1-1.1-1M323 255.9c.4.6.9 1.2 1.7 1.4-.6-.5-1.1-1.1-1.7-1.4M327.9 273.4c.5.2 1 .3 1.5.4.6 0 .8-.5 1.4-.4-.6-.8.6-1.2 0-2.4-.7-1.3-3.5.8-4.7 1 .2.7 1 1.3 1.8 1.4M327.1 265.8c-.3.1-.6.3-.8.6.7.4.9.2.8-.6M328.8 256c.1.2.2.5.4.7.1-.6-.1-.4-.4-.7M333.5 259.7c3 .9 0-2-.7-2.7.8-.1 1.4.8 1.9 1.3.9 1 1.1.1 1.9.6 1.6.8 1.7-1.5.6-2.1-1.1-.6-6.7-1.4-6.8.7 1.4-1 .6.6-.2.3.7.9 2.3.3 2 1.9.1-.5.5-1 1-1.1.1.3.2.7.3 1.1M331.4 263.1c-.3 1.4 3.4.9 3-.5-.7.8-2 .2-3 .5"/><path d="M332.9 259.6c-.4.2-.8.5-1 .9.6.3 2-.5 1-.9M334.9 263.7c-2.7.5-1.6 2.4-.2 3.8.9.8 2.6-3.4.2-3.8M336.7 264.5c-.2.3-.5.2-.3.7.1-.2.2-.4.3-.7M337.5 291.2c.1.4.1.6.7.7-.2-.3-.5-.5-.7-.7M338.4 290.2c-.6-.1-.5.1.3.7-.1-.2-.2-.4-.3-.7M353 291.5c-.2 1 1.8 1.2 2.3 1.7-.6-.8-1.7-1-2.3-1.7M278.9 342.4c.4.3.4.6 1 .4.3 1.1-1.7 1.4-1.7 2.8.8-.3 1.7 0 2.6-.2 1.1-.2 1.9-1.4 3-1.5 1.9-.1 2.4-.6 3.6-2 .7-.9 2-2 2.2-3.1.4-1.7-.5-.3.9-.8l.8-3.8-1.7-1.3c-2.9 1.2-.5 1.9-4 2.6-.9.2 0 2.6-.6 3-.6.4-.9-.9-1.2-.4-.4.6-2-1.4-2.3-.8-.3.8-2.4 4.4-2.6 5.1M244.6 326.3c-.5.2-.6.6-.4 1.1.6-.1.7-.6.4-1.1M138.7 312.5c-.3.1-.6.3-.8.6.8.3 1 .1.8-.6M149.9 308.4c-.7-.5-3.9-1.1-4.5-.5-.2-2-1.9.6-2.2 1.3-.2.7-.1 4-1.6 2.7-.2 1.1-.8 1.9-1.1 3-.5-1-1.4-.7-2.1-.3 2.4 1.1 5.1-.2 7.2 1.2.7.5 1.6.5 2.4.8 1.2.5-.4 1.4-.5 2.2-.3 2.1 5.8 1.8 7 2 2.2.4 4.2 2 6.4 2.6.7.2 1.7.4 2.3.1.7-.4.5-1 1.5-1 2.7-.1 5.4.6 7.9 1.4 3.1 1 6.2 2.6 9.4 3.4 1.3.3 3.2 0 4.4.6 1.2.6 2.2 0 3.6.2 2.7.3 5.8 1.9 8.2.2 1.9-1.4 4.4 1.1 6.2 2 .6.3 4.2.5 4.1.9-.1.7 1.1 1.2 1.7.9.4-.2-.9-1.7-1-1.9-1.4-1.9 0-3.7 0-5.6 0-1.2-1.2-1.4-2.1-1.7-1.5-.5-1.9.2-3.3 0-1.3-.1-3.1.8-4.2.3-.8-.4-2.9-1.1-3.3-1.8-.3-.7.7-3.9-.9-2.5.3-1.1-.7-2.1-.7-3.2-.9.5-2.3.2-3.3.3-.4 0-.8-.2-1-.5-.8-.6-1.5-.2-2.3-.6-.4-.2-1.2-1.9-1.9-1.1-.6.8-2 .7-2.6-.3-1.4-2.2-2.9-2.5-3.8.3-.3.9-.8 3-2.2 2.6-.8-.3-1-.7-1.9-.6-.7 0-1.5.2-2.2.1-1.4-.3-2-.2-3.4-.1-.8 0-2.1-1-2.8-.6-2.7 1.5-3.6-2.4-4.8-4-1.1-1.4-.8-.1-1.7-.1-1.1 0-2.1-1.5-3.1-1s-1.8-.9-2.5-1.4c-1.1-.9-1.9-.5-3.1-1.2-.2.7-1.2 2-2.2.9"/><path d="M166.1 322.4c.1.8 1 .7 1.6.7-.5-.3-1.1-.5-1.6-.7M197.4 315.6c-.7-.1-2.5 1.3-1.6 2.1.9.7 2.9 1.3 2.9.1 1.3 1.4 2.7.6 4.1.1.6-.2 1.2-.4 1.8-.2-.2-1 .9-.9 1.5-1.1-.4-1.4-2.3-1.1-3.3-1-1.7.1-3.6-.5-5.4 0M195.4 305.5c-.6.1-.7.5-.5 1 .8 0 .9-.5.5-1M208 317c.1.5 0 .8.7.8-.2-.3-.5-.5-.7-.8M209.3 325.9c-.8 1.8 1.6 2.6 2.9 3.2.8.4 1.4.7 2 1.4 1 1.2-.2.9-.2 1.8 0 .6 2.2-2.1 2.3-2.1 1-.3 3.3-1.3 2-2.6-1-.9-2.8-2.3-4.1-1.5-1.4.9-3.3.9-4.9-.2M209.5 317.7c.2.2.5.2.7 0h-.7M215.4 315.1c-.6.3-.7.9-.1 1.4.5-.7 1.4-.8 2.2-.4-.4-1-1.4-1-2.1-1M217.8 332.1c.2-.4.2-.8-.1-1.2-.3.2-.5.4-.7.6.3.3.6.5.8.6M223.5 327c-1 .5-2.2 1.5-2 2.8.2 1.1-.1 2.8-1.5 1.7-1 1.7 4.8 1.2 5 1.5-.6-1.1.8-3.1 1.3-3.9.7-1.3-1.8-2.5-2.8-2.1M235.5 333.1c1.5-.8 3-1.1 3.8-2.7.4.6-.3 1.7.3 2 .6.3 1 .1 1.6-.1.7-.3 1.3.1 2 .2-.4-.5-.9-.7-1.5-.8 1.3-.8 3.4.7 3.6-1.5-1.1 1.5-1.2-1.3-1.5-1.9-.8-1.5-2.3 0-2.1 1.1-.3-1.1-1.3-2.9-2.4-1.6-.9 1-1.8-1-2.3-1.5-.8-.8-3.6-.2-2.7 1.1 1.1 1.6 2.5 2 4.1 2.8-.4.7-1.7 1-2.5 1.2-1.3.3-1.5-.9-2.1-1.7-1.4-1.9-5.3-1.2-6.6.3-.6.7.2 1.9-.4 2.6-.7 1 .8 1.8 1.6 2 .5.1.9.2 1.3-.2.7-.6.7-.2 1.8-.2 1.5-.1 2.6-1.5 4-1.1"/><path d="M232.7 328.5c.5-.6.7-1.4 1.1-2-1.6-.7-1.4 1.1-1.1 2M243.5 338.5c.8 1.8 2.5 1.7 4.1 1.9 1.9.2 3.6 2 4.9 3.4 2.4 2.6 7.2.2 4.4-2.6-.9-.9-1.6-1.6-2.8-1.6.1 0-2.1-2.3-2.3-2.5-.2-.2-3.4-.1-3.5 0-1.5.8-3.7-.8-4.8 1.4M247.4 328.9c-.4.7-.8 1.5-.1 2.2 0-1 1.9-1.5.1-2.2M248.7 330.3c.2.6.2 1.1-.1 1.6 1 .2.7-.9.9-1.4-.3-.1-.5-.1-.8-.2M251.5 332.2c.7-.4 2.3.1 3.2 0 .8-.1 2.1.1 2.9.3.9.2 1.5 1.2 2.4.7.7-.3 2.4.3 2-1.1 2.3.9 3.2.3 5.3-.5 1.4-.5 6.5.2 5.6-2.7 1 .2.8-1 1.7-1.1-.5-1.2-1.9-3-2.1-.7.4-.3.9-.3 1.4-.1-.9 1.2-2.7 1.2-3.4 2.6-.8 1.7-2.4.6-3.5-.3-1-.9-2 .6-3 .2-.5-.2-.5.2-.8.5-.5.5-1.5-.4-1.9-.6-1.3-.9-3.3-1.5-4.9-1.8-2.4-.5-3.1.3-4.9 1.3-.9.5-1.6.5-1.6 1.8.3.7.7 2.8 1.6 1.5M255 306c-1.2.4-.4 5 0 5.9.1-2 .5-3.9 0-5.9M256.4 316.7c-.2.4-.2.7.1 1.1.3-.1.5-.3.7-.6-.3-.2-.6-.4-.8-.5M257.8 318.8c.2.6 1.1.3 1.5.1-.5.1-1 0-1.5-.1M263.2 347.7c.3.1.5.1.7-.1-.2 0-.5 0-.7.1M264.7 347.2c0 .1-.1.2-.1.4.6.2 1.4.1 1.9-.3.2-.2.3-.4.1-.7-.6-1-1.4.3-1.9.6M273.3 349.1c-.3.5-.3.9 0 1.4 1.2-.7 2.9-1.9 4.2-2.2-.3-.5-.5-.9-.8-1.4-1.2.5-1.9 1.6-3.4 2.2M273.8 329.6l.3.6c.3-.5.6-1 1.1-1.3-.6 0-1.1.3-1.4.7M275.2 327.6c-.3.3-.5.6-.4 1.1.6-.1 2 .2 2.2-.6.1-1.1-1.4-.8-1.8-.5M277.7 343.8c-.5.3-.8.9-.7 1.5.9.1 1-.8.7-1.5M277.5 327.5c.2.2.4.5.6.7-.5.2-1.4.6-1.5 1.3-.2 1.1 1.8.3 2.3.6-.3-1.4 1.7-2.5 2.8-2.7-1.5-1.5-2.1.5-3 .9.3-1-.4-.9-1.2-.8M282 328.1c-.3.3-.4.7-.3 1.1.6-.1 1.2.2 1.5.7.5-.6 1.6-2.1.8-2.9-.4.7-1.3.9-2 1.1M285.7 326.3c-.4.5-.9 1.7.4.9-.7.3-1.3 1-1.3 1.9 1.8-.2 3.8 0 5.4-.8 1-.5.6-1.6-.5-1.8-.6-.1-1.1.1-1.8.1-.6 0-1.4-.4-2.2-.3M294.7 326.4c-.6-.1-.9.9-1 1.3.5-.2.9-.7 1-1.3M295.7 325.3c1.4-1.3 2.9-1 4.7-.7 1 .2 1.8-1.7 3-1.6-1.7-1.9-2.5-1.2-4.7-.4-.6.2-1.1-.3-1.6-.1-1 .4-1.3 1.8-1.4 2.8M308.1 320.9c-.3.4-.4.8-.3 1.3.6-.2.9-.7.3-1.3M310.1 326.6c-.1.9.1.9.7.2-.2-.1-.4-.2-.7-.2M311.1 326c-.2 1.3 2.2 1.7 2.3.3-.8.1-1.6-.1-2.3-.3M313.5 326.9c0 .2.1.4.1.6.3-.2.5-.4.7-.6h-.8M317.3 317.1c-.3.2-.5.5-.4.9.7 0 .9-.3.4-.9M319.2 326.8c.3.5.7.7 1.2.6-.1-.6-.6-.8-1.2-.6M325.1 323.4c-.6.6-.1 1.9.8 1.9 1.8 0 .8-2.1-.8-1.9M333.9 328.2c1.2-.4 2.2-1.1 3.1-1.9-1.3.5-2.5.4-3.1 1.9M334.5 320.8c-.1.6.2.6.7.1-.2 0-.4-.1-.7-.1M335.8 320.1l-.3.6c.6.2 1-.1 1-.6h-.7M340.4 317.5c-1.2.1-4.2 4.1-3 5.1-2.4-1.1-.3 4.8.6 2.1.4-1.2 1.7-1.8 2.2-2.9.5-.9-.4-3.1.8-3.5-.1-.3-.3-.6-.6-.8M341.2 317.5c.4.6 1.3.5 1.8 1-.1-1-1.1-1-1.8-1M348.6 305.1c-.2-.2-.4-.3-.7-.2.3.5-.1 2.1.6 2.3 1.1.3.3-1.8.1-2.1M349.1 304.2c-.6-.1-.6.1 0 .7v-.7M349.3 307.9c1.2-1 2.3-4.4 2.7-5.9-1.1.4-.9 1.5-1.2 2.3-.5 1.2-1.2 2.2-1.5 3.6M359.1 309.3c-.1.9-.2 2.1.6 2.8-1.5-.1-1.6 4.3.7 3.1 3-1.5.8-4.5-1.3-5.9M363.7 313c-.5.3-.5 1-.2 1.5.3-.5.4-1 .2-1.5M363.6 311.8c-.6.4-.5.6.3.7-.1-.3-.2-.5-.3-.7M364.6 311.9c.7-2.6-.7-.9 0 0M116.6 303.4c.2-1-1.3-2.1-2-1.1.7.3 1.1 1.5 2 1.1M62.6 205.8c1.1.3.6-1-.5-.7.1.2.3.4.5.7M79.4 210.4c-.7.4-1.5.9-2.3.7-.7-.2-.9-.9-1.8-.9-1.4 0-2.7.7-4.2.6-1.7-.2-2.8-.7-3.9-2-.8-1-3.1-2.3-4.4-1.4-4.9 3.3 6.2 12.5 7.9 14.9.7.9 1.6 1 2.6 1.1 1.7.3 2.2 2.3 3 3.5.6 1 1.7 3.4 2.8 3.9 1.8.8 1 2.5 1.5 4.2.4 1.5 2 1.1 3.2 2 .7.5 1.4 1.1 2.2 1.6.9.7 1.8 1.3 2.6 2.1 1.1 1.1.1 1.3.4 2.5.4 1.5 1.1 3 1.5 4.5.4 1.6 1.6 3.3 1.5 5-.1 1.8 1.3.7 2 1.5 1.1 1.3 2.8 1 3.1 3.2.4 2.8 4.1 4.6 4.8 7.6.1.4-.6.5-.3.9.5.6.9 1.3 1.2 2 .8 1.5 2.4 3.6 2.5 5.3.1 1.7 0 2.8 1.1 4.2.8 1.1 2 1.9 2.7 3.1.8 1.4 1.2 2.9 2.5 4 1.2 1.1 3 1.9 3.8 3.4.8 1.6.7 2.5 2.2 3.6 1.5 1.2 2.9 2.6 4.3 3.8 1.3 1.1 2.5 2.1 4 2.9 1.5.8 1.7 1.3 2.5 2.6.4.7.9 1.3 1.4 1.9.4.4.9.8 1.4 1.2.3.3 0 .6.4.8.3.2 2.8 3.3 2.8 1.7 0-1-1-1.7-1.1-2.7-.2-1.3 2 .4 2.3.6 1.9 1.6 3.6 1.6 3.3-1.4 1.2 1 2 2.9 3.6 3.2 1 .2.8-2.7.8-3.2 0-1.9.2-3.7.2-5.6 0-1 .6-2.4.1-3.4-.4-.7-.6-1.2-.4-2 .2-1 1-2.3.8-3.3-.1-.8-1-.8-.8-1.8.2-.9.7-1.7 1.2-2.5s.9-1.2.7-2.2c-.2-1-1-.6-1.6-1.2-.8-.8-2-3.4-1.5-4.5-.9-.1-5.1-1.2-5.4-.4-.1-.3-.3-.5-.4-.8-.9 1.1-1 2.7-2.4 3.5.4-.6 2.2-2.6.4-2.6 1-.4 2.1-1.2 2-2.4-.1-.9-1.1-.6-1.6-.9-.6-.3-.9-1.8-1-2.4-.4-1.7-.8-3.3-1-5-.1-1.1-3.3-1.2-4.2-1-.7.2-2.1-1.3-2.6-1.7-.9-.7-.5-2.3-.9-3.3.4.5 1 .6 1.5.2-.2-.8-1-.9-1.7-1 .6 0 1-.5 1.2-1-.5 0-1 0-1.4.1.9-.2 1.4-1 2-1.6.5-.4 1.7-.3 2-.8.5-.8-1.3-2.5-1.8-3.1-1.3-1.4-2.2-1.3-3.7-.3-1.1.8-4 2.9-5.2 1.2 2.6 1.5 7.4-3.1 2.8-4.1-.7-.2-1.5.2-2.2-.1-.8-.3-1.2-1.3-1.8-1.8-1.4-1.1-.6-3.3-2.1-4.5-.6-.4-1.1-1.1-1.7-1.4-.6-.4-1.5-.1-2.2-.4-1.1-.6-1.1-2.4-1.8-3.3-.3-.5-2.8-3-3.4-1.5-.5 1.1.9 2.5 1 3.6-.5-.5-.6-1.1-1-1.7-.6-.9-1.8-1-2.5-1.7-1.2-1.2-1.3-3.1-2.4-4.3-.4.5-.4 1-.3 1.5-.2-.4-1.4-2.8-1-.9-.8-.9.5-2.1-.7-2.9-1.1-.7-1.9-2-3-2.8-1.2-.9-2.2-2.4-3.6-3.1-.5-.2-1.1-.3-1.6-.6-.9-.4-.7-1.1-1.3-1.7-.7-.8-2.1-.9-2.8-1.6-.9-.9.4-2.5-.6-3.4-1.2-1-1.4-1-1.9-2.6-1-.6-3.2-2.4-4.3-3.4M81 250.6c1.5 1.6 2-2.9 1.3-3.8-.8-1.1-2-3.1-3.3-3.6-.9-.4-1.4.9-2.4.3.2 1.3 1.4 2.3 1.9 3.5.4.7 1.2 1 1.6 1.6.5.6.6 1.3.9 2M78.2 238.2c0-.7-.5-1.9-1.4-1.2.5.3 1 .7 1.4 1.2M87.2 260c.2-.6-.1-1.3-.6-1.7-.4.5-.7 1.4-.8 2-.2.9 1.7.9 1.4-.3M85.9 255.9c.4 1.1.9 2 1.5 3 .3-.8-.3-3.1-1.5-3"/><path d="M87.7 241.8c.1-.6-.1-.6-.7 0h.7M89.6 255.1c-.2-1-1.7-.8-2.2-.3.6.4 1.4.5 2.2.3M91.9 271.5c3-.4-1.7-6.2-1.6-7.6-.5.3-1.3.1-1.7.6-.5.7-.8 2.1-.3 2.8 1 1.4 1.6 3.8 3.6 4.2M97.5 276.5c-.2-.8-1.2-3.5-2.2-2.8-1.2.8 1.6 2.5 2.2 2.8M98.5 279.9c.2.9 1.2.5 1.5-.1.4-.8-1-2-1.6-2.4-.3.9.2 1.7.1 2.5M101.9 284.8c0-.6-.5-1-.4-1.5.1-.7.5-.5.3-1.2-.2-.5-.8-2.1-1.6-1.8-1.1.4 1.1 4 1.7 4.5M112.1 239.1c-.3-1.4-2.2-1.9-2.8-.3-.3.9.3 2.1 1.2 2.3 1.1.2 1.2-1.3 1.6-2M117.4 242.8c-1.1-.5-2.3-.4-3.3-1-.2 1.1.7 1.5 1.6 1.7.9.2 1.3 1 2 1.5-.1-.7 0-1.5-.3-2.2"/><path d="M117.6 245.5c-.4-.7-1.1-1.6-2-1.7-.2 1.3-.1 3.7 1.6 4 .2-.8.1-1.6.4-2.3M122 249.1c-.5-.9-1.5-1.6-2.5-1.9-.6-.2-1.1-1-1.4-1-.4-.1-.8 2.3-.3 2.7 1.2.8 2.9 0 4.1 1 0-.3 0-.5.1-.8"/><path d="M122.8 248.5c-.3-1.2-4.2-3.6-3.7-1.4 1.5-.7 2.2 1.9 3.7 1.4M123.9 250.8c-.1-.5-.4-.8-.9-.9-.4.5-.3 1 .2 1.4.2 0 .4-.2.7-.5M124.8 247c-.2-.3-.5-.5-.8-.6 0 .6.3.8.8.6M125.4 249.5c-.2-.6-.6-.9-1.2-.7 0 .6.4 1.1.9 1.4.1-.2.2-.4.3-.7M127.1 258.3c-.5-.4-2.5-.2-1.7.8.5.5 1.6-.3 1.7-.8M128.7 247.9c.2-.8-.1-.9-.8-.4.3.1.6.2.8.4M130.3 246.1c-.5-1.2-1.5.2-1.5.9 0 .8 1.6-.1 1.5-.9M130.5 249c.4-.7.2-1-.6-.7.3.3.4.5.6.7M134.3 247c-1-2.5-3.9-.2-2.7.3.8.3 1.2-.5 1.4.9.3 1.3 1.3-.6 1.3-1.2M131.3 249.8c0-.3-.1-.5-.2-.8.1.3.2.6.2.8M133 258.9c-.3.3-1 .4-1.4.5-.8.3.6 1.8.6 2.3.1-.7.4-.9 1-.5.2-.8.8-1.7-.2-2.3M132.5 254.5c-.4.5-.2.7.5.8-.2-.3-.3-.5-.5-.8M133.2 255.9c.1.5-.8 2.4.3 2.3.6-.1 1-.4 1.6-.1.6.3 1.1.8 1.9.4-.4-.6-3.1-2.7-3.8-2.6M133.9 249.3c-.2 0-.5 0-.7.1.2 0 .5-.1.7-.1M133.5 254.1c-.3.7.7 1.3 1.2 1.5l-1.2-1.5M139.6 270.8c.9 1.2-1.3 1.7-1.7 2.5.9.7 1.6 1.3 2.7.9.8-.3 2.1.4 2.4 1.2.2.7.8 1.6.9 2.2.3 1.5-.6 2.1 1.1 3 .7.4 4 2.9 4.8 2.2.8-.7-.4-1-.7-1.6-.4-.9.8-2.6 1.6-2.8-1.1-.7-2.7-.4-3.8-1.2-1-.8-1.3-2.8-1.2-4 .1-.7-.4-3-.9-3.5-1.3-1.6-3 .2-1.8 1.7-.5 0-3.3-3.9-3.4-.6"/><path d="M150.6 281c-.2.1-.4.1-.6.2.1.6.6.9 1.1.5-.1-.2-.3-.5-.5-.7M155.7 280.4c-.3.1-.6.3-.9.6.6.2.9 0 .9-.6M157.4 278.1c-.9 1-1.2 2.6-1.1 3.9.1 1.4 2.1 2.1 1.8.6.6 0 1.5 1.7 2.1 1.1.8-.8 1.6-2.4 1.5-3.6-.2-1.7-2.9-2.3-4.3-2M160.2 222.6c.6.1 1.2.5 1.5.9-.6-.4-1-.1-1 .6 1.8.3 2.4-1.5 1.7-2.9-1.2-2.4-2.8-.5-2.2 1.4M164.9 270.8c.3 0 .6 0 .9-.1-.3-.1-.6 0-.9.1M167.1 269.5c-.4-.3-.8-.3-1.2 0 .2.3.4.5.7.7.2-.2.4-.4.5-.7M173.2 264.9c-1.1-1.6-3.4.9-2 2.3.7-.7 2.5-1 2-2.3M222.7 284.3c-2.6-1.1-1.6 5.5-1 6.4.6-1.1 1.4-.8 1.2-2.3-.1-1.2-.6-2.9-.2-4.1M223.9 285.4c-.8.1-.7 1-.2 1.4.1-.4.2-.9.2-1.4M231.8 227.1c-.2.7.1.7.7.2-.2-.1-.4-.1-.7-.2M232.7 226.2c-.3.7.3 1.3.9 1.5.1-.6.1-1.7-.9-1.5M233.2 220.5c0 .6.3 1 1 .7-.1-.6-.4-.9-1-.7M232.8 259.1c-.2.2-.3.5-.3.8.1-.3.2-.5.3-.8M234.5 225c0 .5.3.9.8 1 0-.5-.3-.9-.8-1M240.3 235.9c0 .5.3.9.7 1.2-.2-.4-.4-.8-.7-1.2"/><path d="M166.6 248.4c.9-.6.3-1.3.5-2.1.3-1.1 1.8-1.2 2-2.4-.3.5-.7 1-1.2 1.4-.9-1.3.2-2.6 1-3.5.5-.6.7-1.2 1-2 .4-1 1.6-1.2 2.3-1.9-.2.9-1.3 2 0 2.5.2.1.7 2.2 1.1 2.6 1.1 1.2 3.1 2.1 3.8 3.7.3.6 1.5 1.1 2.1 1.4 1.1.6 2.7-.6 3.6-1 1.9-.8 3.7.3 5.7.1.8-.1 1.5-.7 2.2-1.1 1.1-.6.8-2 1.6-2.8.8-.9 5.1-1.8 5.8-.4.6 1.3 4.5 2.6 5.8 1.8 1.1-.7 1.3-1.7 2.8-1.2.7.2 1.3-.3 1.9-.6.5-.2 1.1.5 1.6.4-.3-1.4 2.6-4.4 1.9-5.3-1.3-1.5 1.9-3.5 3.1-3.9-.7-.8-1.8-4 .3-4.2 2.7-.3.7-2 2.3-3.4.6-.6-.1-2.9.1-3.9.1-.9.4-2 .8-2.9.4-.7 1.1-1 1.3-1.8 1.4.5 1.7.8 3.3.2.5-.2 1.7 1.7 1.9-.3.9.9 2.8.7 4 .6 1.6-.1 2.5 1.6 4 1.4-.5.3-1 .5-1.5.6.3.2 2.9 2.5 1.1 1.6.4.3 1.3.4 1.5.9.2.4.1.9.7 1.1-.9 1.1-2.3.4-2.6-.7.2.5.2 1 .1 1.5-.8-.5-2.1-.4-2.9-.1 1 .4 1.5 1.5 2.6 1.7-.3.6-.5 1.8-1.4 1.4.7.9 1.7 1.3 2.7 1.7-.9 1 .8 1.1-.6 1.3.5 0 .9.1 1.4.4-1.4.4.3 1.2.8 1.9.6.8 1.1 1.6 1.6 2.4.6 1.1-.8 3.1-2.1 3.1.8.3.4 1.1 1 1.6.9.8 1.8 1.5 2.8 2.2.8.6 1.2 1.5 2.1 1.9 1.2.4 2 1.6 2.8 2.6.3.4 1.2.1.6 1-.7 1.2-2 .6-3 1.1-1.7.9-3.7-1.5-5.1-2.1.6.9 1.1 2.1-.3 2.1-1.3.1-1.7 2.1-2.1 3.1-.9 2.6-1.3 5.7-1.1 8.4.4-.4.9-.7 1.4-.7-.2.6-1.1 1.3-.4 1.6-.7.4-.7 1 0 1.4-.9.3-2 1.4-2.2.1-.3 1.9-3.7 5.8-4.2 2-.7 1.3.5 2.3-1 3.4-.7.5-.3 1.2-.8 1.8-.6.7-1.6.7-2.1 1.4 2.3-.9 1.5 2.3.4 3.1.6.5 1.7-.2 2.2.4.5.6-.5 2.7-.8 3.2-.4-.5-.9-.6-1.4-.4 1.4 1.2-.4 5.2-1.4 3.2-.3.9.5 1.6.9 2.2-2 .4-1.4 3.4-3 4-1.8.7-3.6 2-5.4 2.8-.5.2-4.2 2.8-4.1 1.4.1-.9-.1-1.9-.1-2.8 0-1.3-.9-2.4-.6-3.7-1.5 1.4-2.5.9-1.4-1.1-.7 1.1-2.1 1.8-1.8-.1-.1 1.1-2.9 3.5-3.7 1.9-.3-.6.5-1 0-1.6-1-1.1-2 .9-2.3-.6.3 1.7-1.8-1.3-2-2 0 1.5-1.6 3.2-2.9 3.8-1.3.7-2.5-1.2-3.8-.3-.5.3-2.2 2.9-2.6 1.3-.4-2.1.3-3.9-.9-5.9-.9 2.2-1.2 1.2-2.8 1.1-.7 0-1.3.6-1.8.9-1 .6-1.7.1-2.7-.1.3-.4.7-.7 1.1-1-.8.1-1.1 1.2-2 1.1.4-2.2-1.8-1-2.7-.3-1.1-1.3-.2-3.5-.7-5-.3-1-.1-2.1-.3-3.2-.2-.9-1.5-1.6-1.5-2.4 0-.2.8-1.1.9-1.4.3-1 .5-1.8-.1-2.7-.4-.6-.5-1.3-.8-1.8-.4-.7-1.3-1-1.3-1.9-.2.2-.4.5-.6.7-.8-1.5-1.6-.1-2.6-.7-.6-.4-.2-1 0-1.4.3-.4 1.2.1 1.6.1-.6-.3-.9-1.1-1.5-1.2-.5-.1-1.1 0-1.4-.5-.4-.7-.7-3.3.6-2.5-.4-.9-.9-2.1.2-2.2-1-1.3-2.2-2.4-2.6-4-.7-.7-1.3-2.9-.7-3.5"/><path d="M230.2 225.4c0-.2.1-.3.1-.5.8.1 1.5.4 2.1.8-.7.1-1.4 0-2.2-.3M233.8 219.9c.9-.1 2-.3 1.8 1-.9.2-1.3-.6-1.8-1M359.9 308.1c.1.6.4 1.1.8 1.5-.2-.3 0-2.4.1-2.9.3-1.2-.9-.6-.6-1.6 1 .5 1.5-1.1 1.9-1.7.6-1 1.7 1.1 1.7 1.7.1 1.4.1 2.9.1 4.4 0 2.2-1.7 1.2-2.9.4 1.6 1.7-4-2-1.1-1.8"/><path d="M361.7 310.3c.3.2 1.4 1.4.8 1.7-1 .5-1.8-1.4-.8-1.7"/></g><g stroke="#7C7C7A" stroke-width=".5" fill="#D3D3D3" fill-rule="nonzero"><path d="M239.6 43.8c-.3.2-.6.4-1 .5.4.3.9.3 1.4.2-.1-.2-.2-.4-.4-.7M252.5 52.4c.1.7.3 1.3 0 2.1-.3.6-.6 1.2-.2 1.7.8 1 .9 2.6 1.3 3.8.5 1.5 2 1.9 2.8 3.2.2.4.4 3 1.2 2.7 1.1-.5.8-2.2.9-3 .1-1.3.6-2.3 1.6-3.4 2.3-2.6 3.5-7.3 3.9-10.3.1-.6-.2-1.6.2-2.2.3-.6.7-1 1-1.7.5-1.6.2-2.7.5-4.3.2-.8 1.1-1.4.5-2.1-.4-.4-2.3-2.2-3-1.6-1.1.9-3 1.1-3.8 2.4-.8 1.3-.8 2.1-2 3.2-1.1 1-1.6 2.5-2.2 3.7-1.1 2-2.8 3.8-2.7 5.8"/></g><g stroke="#7C7C7A" stroke-width=".5" fill="#D3D3D3" fill-rule="nonzero"><path d="M26.2 53.8c-.2 0-.4 0-.6-.1.4.3.8.5 1.2.6-.3-.2-.5-.4-.6-.5M25.8 58.5c0 .4.1.8.4 1.1 0-.6 1.1-1 1.1-.9 0-1-1-.7-1.5-.2M26.8 57.2c.2.1.4.3.5.4-.1-.1-.3-.3-.5-.4"/><path d="M26.5 60c.2.8.9 1.2 1 2 .1.5 0 1.1-.2 1.6-.1.4-1.1 2.6.2 1.1-.2.3-.3.5-.2.8 1.1.5 1.7-3.2 1.7-3.7-.1-.9-1.6-1.7-1.5-2.6.1-.7-1.1 0-1 .8"/><path d="M26.1 65.2c.2.3.6-.4.2.5.4-.4.5-.8.4-1.3-.3.2-.4.5-.6.8M27.2 62c-.1.3-.1.6 0 .9.1-.3.1-.6 0-.9M30.1 64.9c1.8-.9 1-2.6.4-3.7.1 1.1-.1 2.4-.4 3.7M33.9 62.6c.8-.7-.2-1.8-.6-2.2-.4.8-.1 1.6.6 2.2M36.6 66.3c-.2.5-.3 1-.3 1.5.2-.5.3-1 .3-1.5M36.7 70.1c1.3-.4.6-1.9-.2-2.2 0 .7 0 1.5.2 2.2"/><path d="M9.3 26.7c.1-.3.2-.6.4-.9.8.6 2.1 1 2.4 2 .2.9 1.8.9 2.6 1.2-.1-.6-.4-1.1-.8-1.5 1.3-.2 1.4.9 1.7 1.7.5 1.3 2.2 1.5 3.2 2.2.2-.7.5-1.3.2-1.9 2.3-.2 2.2 4.2 2.1 5.5-.1.9-.4 1.7.6 2.1 1.5.5 3.4 1 5.1 1 3.6 0 7.3-.3 10.8 0 1.6.2 5.9 2.9 1.9 2.6.9 2.2-2.2 4.2-2.7 6-.6-.6-1.5.5-1.9-.2 0 1.2-1.4 1-2.1.9.2 1-1.3 2.6-1.5 3.7-.3 1.5.9 3.7 1.3 5.1.2-.5.3-1 .3-1.4.7.3 1.4 4 3.1 1.9.6-.8-.2-2.2.4-3.2.6-1 .9-1.2.7-2.4.9.9 2.2-1.3 2.7.2.5 1.8.6 3.9.9 5.8.4 2.4.9 4.8 1.2 7.3.3 2.4.1 5 .7 7.3-.9.3-1.7-1.2-2.8-1.1-1.5.2-.1 4.6-.2 5.5-.6-1.1-1.6-2.4-1.8-3.6-.2-1.3-.2-2-.2-3.3 0-2.3-2.9-4.8-.8-7.2-.5.4-.9 1.1-1 1.7-.4-2-2.8-3.6-2.3-5.8-.2.9-1.3 1.3-1.9 1.9-.2.2-.3.5-.3.8-.7.2-1.2-.1-1.5-.6.1.3.1.5-.1.8-1.1.6-2.2-3.2-2.5-3.6-.2-.5-.3-1-.1-1.5.1-.9-.2-1.2-.4-1.9-.1-.6 1-.8.6-1.4-.2.6.7.3-.7.4.1-.3.2-.5.2-.8-.4.3-.8.3-1.2.1.3.2 1.4 1.8.2 1.7-.6-.1-1.6-.4-2-.5.9.6 2.3 1 2.7 2 .3.7-.5 1.2-1.1 1.4.6.9.1 1.7-.6 2.5 1.4 0 .8 1.4.6 2.3.2-.3.4-.5.7-.7 1 1 .9 3.6-1 4 .2-.5.2-1 0-1.4 0 1.2-.5 2.2-.8 3.3-.4 1.4-2 .8-1.2-.3-.2.2-.5.4-.8.6-.2-1.3 1.3-1.7 1.6-2.9-.5.7-1.2 1.2-1.8 1.7.1-.5.3-.9.6-1.4-.4.5-.8.9-1.1 1.4-.3-1.5-.3-2.7.5-4.2-1.7.6-.5 2.1-1.2 3.2-.5.8.5.8 0 1.8-.4.8-1.2.4-1.5-.1-.1.5-.2.9-.3 1.4-1.2 0 0-4.2.1-4.9-.5 1-.2 1.9-.5 2.9-.3-.8-.6-1.6-.6-2.5-.2 1.4 1 3.6-.7 5-.3-.7.2-1.6-.3-2.2.2.7-.5 2.3-1.1 2.8.3-1.4-1.1-2.4-1.1-3.9 0-1.7-.8-2.9-.9-4.6-.1-.8-.1-1.5-.3-2.3-.2-1 .2-1.5.2-2.5 0-.6-.8-.5-1.2-.6-.8-.2-.2-1.1 0-1.6.3-1.2-2-1.3-1.7-2.8.2-.8 1.1-1.1 1.3-1.8.2-.7 0-1.6-.2-2.3-.3-1.1-2.6-1.2-3.6-1.9-.6-.4-1.6-1-1.5-1.9.1-.9 1-1.5 1.1-2.4.9 2.1 2-1.9 2.4-1.9.9-.2 2.6-.3 3.3.1 1.2-1.5-.9-1-.9-2.4 0-1-1.4-.2-2.1-.6-.9-.6-1.1-1.8-2.2-2.3-2.7-1.1-.7-4.3 1.7-5.2.4-1.1-.4-1.4-1-1.4"/></g><g stroke="#7C7C7A" stroke-width=".5" fill="#0027F5" fill-rule="nonzero"><path d="M85.7 185.1c-.4 1.2-.3 2.5.1 3.7 1.1-.9 1.1-3-.1-3.7M87.5 185.8l.6 1.5c0-.7-.2-1.2-.6-1.5M91.8 191.4c-.1-.6-.3-1.1-.6-1.5 0 .5.2 1 .6 1.5M96.1 197.9c-.5.5-.6 1.3.2 1.4 0-.4-.1-.9-.2-1.4M98.6 173.1c-.5.5-.5.9 0 1.3.5-.5.5-.9 0-1.3M98.6 171.2c-.2.5.2.7.6.7-.2-.2-.4-.5-.6-.7M116.1 152.1c.2 0 .5 0 .7.1.1-.6-.3-1-.8-1.3 0 .3 0 .8.1 1.2M118.1 154.2c-.3.6-.2 1 .2 1.4.3-.5.2-1-.2-1.4"/><path d="M78.4 95.1c.4.9 2.2.8 2.9.2.8-.8-.4-2.8 0-3.8.2-.6.7-.9.8-1.5.2-.9-.5-1.5-.1-2.4.2-.6 1.7-2.7 2.1-2.6 1.2.2 2.3.8 3.7.5.6-.1 1.3-.8 1.9-.8.6 0 .8.6 1.4-.2.6-.8-.1-2.2 1.1-2.5.9-.2 4.1.4 2.6-1.8 1.3-.1 5-2.2 4.6.4.7-.2 1.1-1.2 1.9-.9.3.1 1.3 1.7 1.6 2 .6.8-.6 2-.9 2.8-.5 1.1.2 2 .9 2.7 1 .9 3-.9 4.2-.6.8.2 1.5.2.9 1.3-.6 1 .6 2.5.7 3.4 0 .8-.6 1.6-.6 2.4 0 1.1-1.1 1.7-1.2 2.6 0 .5.8.7.8 1.3 0 1 0 1.8-.5 2.8-1.2 2.3-2.1 3.5.4 4.5 1.3-1.7 4.3-3 4.6-5.2 1.2.7 1.5-1.3 2.4-1.3.7 0 1.4 1.2 2 1.5.4.2 1.5.3 1.7.8.7 1.5 2-.7 3.2-.5.6.1 1.1-2.3 2.1-2.4-1.5-1.9 3.6-.7 4.2-.5 3.1.9 3.7 5.2 6.4 6.8 2.3 1.3.6 5.7.7 7.9.1 1.3 1.2 2 1.9 3.1 1 1.7 1.6 1.7 3.4 2.4-1.8 1.1.6 1.9 1.3 2.5.8.7-1.2 3.5 0 3.3-.4.7-1.2 1.4-.8 2.2.2.5.8.7.6 1.3-.4 1.7.1 3.4-1.7 4.5-1.2.7-2 2.2-2.7.6-.7-1.6-3.5 0-4.9-.4-.9-.3-1.9.1-2.8.2-1 .1-1.4-.5-2.3-.5-1.2-.1-2.8.4-3.9.9-1.8.7-2.2 2.7-3.2 4.1-.5.6-1.6 1.2-1.6 2 0 .9-1.1.5-1.6.5.4 1.5.5 3.1.9 4.5.3 1.2.1 2.9 1.3 3.8 1.3.9.9 2 .9 3.4 0 1.7 1.8 3.2 1.4 4.9.1-.9-.6-1.4-1-2.1-.5-1.1-.3-2.4-1.7-2.8v1.3c-.3-1-3.5-1.4-1.5-2.7-.6.3-.9 0-1-.5-.1 1.6-1.8-.8-2-1.6-.1 1.4-.9-1.4-2.3-.8-.7.3-1.3.8-2.1.7-.9-.2-1.9-.7-2.9-.5-1.9.5-.7-1.5-.7-2.6v-2c0-.9.7-1.6.7-2.5-.9.6-2.9 0-3.1-.9.1 2-5.7.2-4.3 3.3.7 1.5.1 2.5-.3 4.1-.5 1.7.7 3.3.2 5-.2.7-.7 1.2-1.1 1.8-.5.7-.3 1.5-.8 2.2-1 1.3-1.3 3.3-1.8 4.8-.6 1.8-.9 3.2-1.9 4.9-.3.6.1 2.3-1 2.1 1.2 1.6-.3 4.5.4 6.4.3.9.9 1.5.4 2.4-.6 1 1.3 1.3 1.9 1 2-1 3.2-1 3.3 1.6.1.9 1 7 2.3 5 .7 1.8.7 3.7 1.2 5.5.4 1.6 1.2 3.3 1.1 5.1-1.2-.2-1.2-5.5-2.5-4.6-1 .7.3 2.7.7 3.2.4.6.9 1.1 1.4 1.6.4.4 1.1.3 1.6.7 1 1 1.1 2 2.9 2.1 1.3 0 2.7-.5 3.8.4 1.2.9 1.4 2.6 2.5 3.6 1.2 1 2 1.6 1.3 3.2-.3.8-.9 2.3-1.9 2.5-.7.2-.8-1-1.4-1.3-1.4-.6-2.4 2-3.3 2-1.8 0-1.3-1.8-.6-2.8.7-1.1-.4-2.1-1.2-2.3-1.1-.3-.6-1.9-2-2.1-1.3-.2-2.1-.2-2.9-1.3-1.1-1.5-.8 1.1-1.4 1.8 0-2-5-4-2.9-6.1-1.8 1-.9-1.6-1.8-2.2 0 1-.8.8-1.2.2-.5-.8-.3-2.1-1-2.8-.5-.5-1.4.1-1.5-.6-.1-.7.1-.9-.3-1.5-.6-.9-.5-.8-1.4-1-.6-.1-.4-1-.6-1.4-.3-.6-.5-1.6-1.4-1.4-1 .2-.6 1.1-1 1.8-2.4-.5-1.7-4.1-1.4-5.8.7-3.5 1.7-7.1 2.6-10.5.4-1.3 1.6-3.1 1.7-4.5.1-1.6.7-1.6 1.4-3 .9-1.7 5.9-6.4 4.5-8.3-.6-.8-1-3-1.1-4-.2-1.5-.8-2-1.4-3.3-.4-.7-1.2-2.8-1-3.6.6-2 .6-3.4 0-5.3-1-3.1-3.8-4.9-5.5-7.6-.7-1.2-1.5-2.3-1.5-3.8 0-.8.4-2.8 1.5-1.7-.2-1 1-.8 1.4-1.5.5-1 .1-3.4 0-4.5-.1-1.8 1.3-.9 2-1.9.5-.6.7-2 .1-2.6-.2.6-.6 1.1-1.1 1.5-1.1-1.5-1.2-3.3-1.5-5-.2-1.1-1.8-2.3-2.5-3.1-1.1-1.4-2.6-2.8-3.4-4.3-.5-.8-.1-1.6-.3-2.5-.2-.8-.9-1.4-.7-2.3-1.8.5-2.3-1.4-2.4-2.5"/></g><g stroke="#7C7C7A" stroke-width=".5" fill="#D3D3D3" fill-rule="nonzero"><path d="M432.2 331.5c.2-1.5-2.2-2.1-3.2-2.4 1.2.7 2.3 1.4 3.2 2.4M431.7 329.4c.9-1-1-1.1-1.6-.6.5.3 1.1.5 1.6.6M432.6 329c.1-.6-.3-.8-.9-.7.3.2.6.4.9.7M432.9 326c.1-.5-.2-.6-.7-.2.2.1.4.1.7.2M434.9 323.6c-.1-.4-.4-.6-.8-.7.2.3.5.5.8.7"/><path d="M412.1 334.9c-.1-4.2-.2-8.4-.2-12.6 0-1.9.3-3.8 0-5.7-.2-1.2-1.4-1.9-1.2-3.2.1-1.1.7-1.8 1.1-2.8.3-.9.1-2.1 0-3-.2-4.5 0-9-.1-13.5-.1-4.4-.1-8.9.1-13.3 0-1.3-.4-2.9 1.3-2.2 1.1.4 2.2 1 3.3 1.6 3 1.5 5.7 3.6 8.9 4.5 1.6.4 3.3.2 4.8.9 1.8.8 3 2.2 4.7 3.2 1.3.8 1.5-.1 2.5.1 1.3.2 1.4 1.6 2.6 1.9 1.4.3 1.8 1.8 2.7 2.7.9.9 2.2.6 3.3 1.5 1.1 1 2.1 2.4 2.4 3.9.3 1.3-.7 2.3-.4 3.4.3 1.6 4.2 1.9 5.4 2.3 1.2.4 2.6 1.3 3.7 1.9.5.3.8.9 1.4 1 .7.2 1.4-.2 2.2 0 1.8.5 4.8 4.5 3.5 6.2-1.1 1.4-4.2.2-5.7.3-2.4.1.4 5.1 1.2 6.2 1 1.3 2.5 2.2 3.5 3.5.7.8 2.4 2.3 3.5 1.8 0 1.2.4 3.2.9 4.3.2.6.7.8 1.2 1.1.7.4.6 1.4.8 2.1.6 2 2.2 1.7 3.7 1.1 1-.4 2.9-.5 2.3 1.1-1 2.7.2 3.5 3 3.7.5 0 2.5-.2 2.7.6.2.9-1.9 1-2.4 1.3.5.5.8 1.3 1.4 1.7.8.6 1.9.7 2.8 1.2 1.3.8 3.2 1.2 4.6.7-.7.3-1.6 1-2.5.9-.7-.1-1.4-.5-1.5.5 1.6.4 3.5 1.2 1.2 1.9-1.5.5-3.6 1.1-4.7-1 .5.1 1 0 1.3-.4-.5-.3-.9-.2-1.2.2-.2-1.5-2.5-1.4-3.5-1.5-1.8-.1-3.7-1.1-5.5-.8 0-.3.1-.5.1-.8-.7.3-1.5.6-2.4.4-.6-.1-1.9-1.1-2.4-.8-1.3.9-2.4-.9-3.2-.1-.3-.9-1.6-1.3-1.7-2.3-.1-.8-.8-1.8-1.3-2.4-.6-.7-1.5-.2-2.1-.9-.5-.6-1.6-2.1-1-2.9-2.5-.3-2.2-1.4-3-3.1-.8-1.6-2.5-5.2-4.2-5.9-.6-.2-1-.7-1.5-1-.6-.5-1.5 0-2.2-.1-1.1-.1-2.2-.8-3.3-1.1-2-.4-1.2-.7-1.6-2.1.1 1.2-1.2.6-1.5-.1 0 1.5-.9.2-.9-.4-.3.7-.5 1.3-.9 0l.3 2.1c-.4-.5-.9-.8-1.5-1 .1 3.2-4.2-1.5-4.7-1.7.7 1.6 1.9 3 2.3 4.8l-.9-.3c.6 1.9-2.7-.4-3.6-.5.4.6 2.8 2.3 1.5 2.8-.9.4-1.9.3-2.8.5-.8.1-1.5.5-2.3.2-.6-.2-1.2-.5-1.8-.3-1 .3-1.6.8-2.2-.6.1 1 .6 1.4 1.5 1.1 1.3-.3 2.3.1 3.5.8 2.3 1.4 4.3 4 1.4 5.3-1.3.6-2.6 2.1-4.1 2.2-1.4.1-2.7-1.2-4.3-1-1.7.2-3.6.6-5.3-.2-1.1-.1-1.9 1.8-3 .1"/></g><g stroke="#7C7C7A" stroke-width=".5" fill="#377D22" fill-rule="nonzero"><path d="M43.5 79c-.1.4 0 .6.4.8-.1-.2-.2-.5-.4-.8M44.6 82.9c.3.5.5 1 .7 1.5-.1-.8-.3-1.6-.9-2.2.1.2.1.4.2.7M48.3 83.3c-.3.6.3 1.2.7 1.5 0-.6-.3-1.1-.7-1.5M49.9 92.5c-.4 0-.8.1-1.1.4 2 2.7 2.4-.4 1.1-.4M52.4 88.3c-.3-.8-1.4-.9-1.8-1.6-1.2 1.1.6 3.1 1.8 1.6M57.8 115.3c-.5.5-2.5 2.2-1.6 3 .9-.8 2.1-1.8 1.6-3M59.2 118.1c-.2.3-.4.2-.1.7 0-.2.1-.4.1-.7M79.8 113.1c-.4.2-.7 1.7-.2 1.7 1 0 1.1-1.6.2-1.7M83.2 149.5c.2-.2.4-.5.4-.8-.8-.1-1 .2-.4.8M83.7 155c.1-.5-.1-1-.4-1.4.1.4.3.9.4 1.4M83.8 150.6h.4c-.2-.3-.4-.6-.6-.8.1.3.2.6.2.8M85.4 143.6c.5-.6.3-1.2-.3-1.4.1.5.2 1 .3 1.4M85.4 163.1c0-.8-.4-1.6-1.1-2.1-.2.2-.4.5-.5.7 1.1-.4 1.3.8 1.6 1.4M84.5 156.8c1.2-.1 1.3-2.3.8-3-.3 1-.5 2-.8 3M85.7 148.9c.3.5 2.2-2.7-.1-2.2.1.7.3 1.4.1 2.2M84.5 169.4c0 .2.1.5.1.7.5-.3.7-.7.7-1.2-.3.1-.6.3-.8.5M86.5 155.4c.1.4.4.6.9.6.5-2.3-2.1-2.7-.9-.6M86.7 152.1c.2.3.3.7.5 1 .3-.2.6-.4.8-.6-.6-.2-1-.6-1.4-1.1 0 .2 0 .4.1.7M86.9 148.5c.2-.4.4-.2.1-.8 0 .2-.1.5-.1.8"/><path d="M39 72.6c.1-.6.2-2 1.1-2 1.1-.1 1.5 1.4 2.6 1.1-.4-1.3-.6-2.6-.5-4 .1-.6.1-1.1.1-1.7-.1-.5.8-1.1.8-1.7.7.3.9 1.8 1.9 1.5.7-.2.6-1.5.8-2 1.4.9 1.1-1.3.9-2-.5-1.9-.2-3.3-.2-5.3 1.4 1.1 1.7-1.2 1.8-2.1.3-2.3.1-4.3-.4-6.5.4 0 .7.1.9.3.6.5.6.1 1.5 0s3.2.9 3.8 1.4c.5-3.3 6-9.2 3.8-11.8-1.2-1.4 2.1-3.3 2.6-4.6.6-1.6 1.2-2.5.7-3.9-.5-1.2-.4-3.4 1.1-4.2.4-.3 1.6.1 1.8-.6.2-.6 1.6-1.1 2.2-1.5.8-.6 1.3-1.2 1.9-2 1-1.3 2.9-1.1 4.2-1.3.6-.1 1.5-.5 1.9 0 .6.7 1 2.3 2.5 1.7 0-1.1-1-1.6-1.5-2.4-.9-1.4.1-2.6 1.5-3.6 2-1.6 1.1-1.3 1.5-3 .1-.6 1-.8 1-1.4.1-.7.5-1.3.7-2 1.1 1.5 3.8 1.7 4.5 3.6.3.7-.1 1.5.1 2.3.3 1 .8 1.8 1.1 2.7.6-.2 1-.6.9-1.2 2.8 1.4 2.2 4.5 2.3 7.4.1 1.5.2 2.7-.3 4.2-.2.6.6 2.7-.9 2.1.2.6 1.9 3-.1 2.4-.4-.1-1.3 1.4-1.3 1.7.1.9-1.1.3-1.6.3-.2.5-1 4.5-2.5 3-.1 1.3-1 2.3-.4 3.6-1.4.1-1.5 1.1-1.7 2.1-.1 1.1.8 1.1 1.1 1.9.1.4.6 1.4.3 1.8-.4.7-1.7 1.7-.9 2.5.4.3 3.2-1.6 3.7-1.8 2-1 4 .6 6-.7.1 1.1-1.5 1.6-1.3 2.7.1.6.5.9.9 1.4.5.6-.3 1.3 0 1.6.9.9.3 2.5 1.5 3.2 1.7.9 3.4-.2 3.8 1.9-1.9-.1-1.2 2.2-1.2 3.2 0 1.1-2.7 3.1-.8 3.8 1.3.4 4.2-.5 5.2.6 1.1 1.1-1 3.2 1.5 3.2-.4.5-.3 1.4 0 1.9.5.7 1.2-.8 2-.3 1.5 1 4-1.5 5.4-2.4-.1 1.3.8 2-.6 3-.6.5-1.9.8-2.3 1.3-.3.4-2.4 4.2-.8 3.3-.3 1.1-1.9.5-2.6 1-1.2.8-1.1 2.5-1.6 3.7-1.3-1.4-2.7.2-4.5.3.4.6.2 1.6-.6 2-.8.4-1.2-.5-2-.4-.9.1-1 2-1.3 2.6-.3.7-.7.6-1.1.3-.4-.3-1.9 1.1-2.5 1-.3 0-3.7-.5-3.7-.6-.2 1.2-1.2 2-1.7 3.1-.2.6.1 1.3.2 1.8.1.7-.8 1.5-1 2.2-.3.9 1 2 .3 3-.7.9-2.6 1.1-3 .1.2 1.1.6 3 2.2 2.6-.2.7.2 1.2.5 1.8.4.8 0 1.6.2 2.4.4 1.4 2.2 3.1 3.1 4.2.6.7 1.1 1.4 1.5 2.1.4.7 1.3.6 1.5 1.7.3 1.8.5 3.5 1.5 5 .5-.4.8-.9 1.1-1.5.8.7.3 2.3-.6 3-1.2.9-1.7 0-1.5 1.8.1 1.1.2 2.8-.1 3.8-.2.9-1.5.8-1.3 1.8-.6-.6-1.2-.1-1.5.6-.3 1.1.1 2.5.5 3.4 1.1 2.5 3.5 4.3 5.2 6.3 1.6 1.9 1.7 4.5 1.6 7 0 1.1-.7 1-.3 2.3.4 1.2.4 1.9 1.3 2.9.9.9.6 1.9.9 3.1.3 1.2.9 2.1 1.2 3.3.3 1.7-1.5 4-2.4 5.5-.9 1.6-2.1 3.5-3.5 4.6-1 .8 0 1.6-.6 2.5-.7 1.3-.9 2.8-1.8 4.1-.8-1.4-.3-3.3-.5-4.9-.1-.6-.4-1.2.3-1.5.8-.5.2-.7.7-1.3.9-1.2 1.2-2.7 1-4.2-.1-.7-.3-3 .9-3-.2-.3-.2-.7-.2-1.1-.4.5-.9.9-1.5 1-.1-1 1.4-1.6-.1-1.4 1.7-.8-.6-2 .8-2.8-.6.2-1.1-.2-1.2-.7.4-.1.8-.2 1.1-.4-.6-.4-1-1.1 0-1.4-.9-.3-.3-1.2-.3-2-.1-1.3-.5-2.7-.9-4-.4-1.3-1.1-2.6-1.6-3.8-.5-1.2-.4-2.7-1.1-3.8.3 1 .5 3.4-.4 4.3.4-.9-.3-1.6-.3-2.4 0-.8.1-2 0-2.7-.1-.7-2.4-5.4-.8-4.5 0-.3-.1-.5-.3-.8-.3.1-.5.3-.8.4-.9-3.1-.3-6.6-1.1-9.6-.2-.6-.7-.9-.9-1.5-.2-.5.2-1.1.2-1.6.1-.9-.4-2.8.9-3.3-.8.1-2.3.7-2.8-.1-.9-1.4-1.6-3-1.5-4.8-.8.5-.5-.6-1.1-1.1-.5-.5-1.1-.9-1.3-1.6-.2.2-.1 1.7-.1 2.1-.2 1.2.5 2.5-.3 3.7-.6.9-1.3 2.2-2.5 2.3-1.2.1-2.5-1.6-1.5-2.7-1.5.4-.4 1.4-.1 2.3.4 1.2-1 2.6-2 1.5 1.1.8-1.4 2.3-2.2 1.4.2 1.1-1.1 4.9-2.9 4.2-.9-.4.2-2.8.1-3.6-.1.1-1.4 3.5-.6 1.2-.4.6-.6 1.3-.6 1.9-.9-.4-.9-2.4-.1-3-1-.7-1.1 4.3-2.4 3.1-.6-.6.3-3.8.9-4.2-1.1.4-1.6 2.6-2.3 3.5-.3-.2-.5-.4-.7-.7.9-.4 1.1-1.3 1.5-2.1-.5.7-.8 1.8-1.8 1.9 1.3-1.5 1-3.3 1.3-5h-.4c.4 1.2-1.5 3.9-2.7 4.3-1.7.7.4-6.2.6-7 .3-.8.3-3 .8-3.4 1.2-1 .3-3.9-.1-5-.5-1.4 0-3.6-1-4.8-.4-.5-.6-1.2-.8-1.7-.3-.9-1.5-1.4-.2-1.7-.8-.6-1.8-.8-1.6-2 .1-.9.4-2.4 0-3.2 0 .7.1 2.2-1 1.4.5.7.7 2 .2 2.9-1.7-.7-2.5-2.5-3.3-4-.2-.4.7-.8 1-.3.2.4.8.6 1.2.7.9.3 2.2-.2 1.5-1.4-.4-.6-2.5-1.5-1.1-2.4-.6 0-1.2-.1-1.7-.2.2-.5.4-1 .4-1.5-.7.3-1.5-.5-1.8-.9-.6-.9-1.3-.3-2.2-.7.2.8.6 1.5.7 2.3-.2-.5-.5-1-.7-1.5-.2.5-.2 1 .1 1.4-.7-1.2-1.1-1.9-.1-3.3-.3.1-.7.1-1 .1l.9-1.5c-.1 0-.3.1-.4.2-.1-.6 0-1.1.2-1.7-.7 1.2-.8 2.6-1.5 3.7-.9-.4-.4-.9-.2-1.7.2-.9-.7-1.6-1-2.3 0 .7.4 1.5-.2 2.2-.2-1.3-1.5-2-2.1-3-.8-1.1-1.1-2.9-1.6-4.3"/></g><g stroke="#7C7C7A" stroke-width=".5" fill="#FFFD54" fill-rule="nonzero"><path d="M145.2 171.6c.2.8.6 1.6 1.4 1.8-.6-.6-1-1.2-1.4-1.8M150.3 163.6c.1.8-.5 1.6.2 2.2.5-.8.3-1.6-.2-2.2M151.4 164.9c-.1.2-.1.5-.1.7.1-.2.1-.4.1-.7M169.9 146.6c.1.3.3.6.7.6-.3-.2-.5-.4-.7-.6"/><path d="M115.1 62.1c1.4.1 1.4-1.9 2-2.7 1-1.3 3 .7 3.6 1.3 1 1.1 2 .2 2.9-1 1.2-1.6 1.5-.1 2.1.7.4-.6.6-2.2 1.5-1.2.5.6 1 1.4 1.7 1.8.4.3 1.2-2.7 2.6-2.8-.7 2 3.4.2 4.1-.4.9-.8.1-1.3.3-1.9.4-1.1 2.8-1.2 3.6-2.4.9 1.5 2 2.6 3.6 3.4 1.2.6 2.6-.6 3.4.6.8 1.1 2.5-.6 3.5.5.5.6.8 2.9-.7 2.3-.3 2 .5 3.4.8 5.3.7-.5 2.7.2 2.6 1-.2 1.2 2.3 1 2.4 2.2.3-.1.5-.3.8-.4.2 1 1 .3 2 0 1.1-.3 1.8.9 2.5 1.4-1 .8-1-.7-2 .1-.9.7-1.3 1.6-2.5 1.8-1.2.2-.4 1.2-1 2-.5.7-3 1.5-1.6.1-.7-.2-1.9 1-2.1 1.4-.6-.4-.7-1.5-1.6-1.2.2.3.5.5.9.7-.8.7-.3 1.1 0 1.9.3.7-1.2.6-1.4.5.2.7.1 2.6-.7 3.1h.3c-.2.5-2.8 3-3.2 2.4-1.3.6-2 2.4-2.3 3.6-.4 1.7.1 2.8-1 4.4-1.3 1.8.6 2.2.4 3.8.6-1.1.6.6 1 1.2.5.8 1.2 1.5 2 2.1.7.6 1.5 1.1 2.1 1.8.9 1 .3 2 .5 3.2-.4-.3-.9-.5-1.5-.6 1.8.3 2.4 2.5 3.7 3.7.9.8 4 2.4 3 4.2 1.2-.6 2.7 1.6 3.2 2.2-.3-.1-.6-.3-.9-.4 1.3.8 2.4 1.8 3.1 3.1 1.4-1.4 3.4 1.8 2.7 2.5.7-.4-.1-1.8 1.1-1.2-2.2 1.7 3.4 5.5 3.3 7 .6-1.3.8-.2 1.1.4.5.9-.4.5-.3 1.2.1 1.3 1.1 2.4 1.4 3.6.5 1.6.6 3.4 1.2 5 .2.7.5 1.3.5 2 0 .3-.1 2.2-.4.4-.1 1 .7 3.8-.3 2.1.2.6.5 1.1.9 1.5-1.4.2-.4.9-.2 1.6.2 1.1.5 1.8 1 2.8.2.4 0 2.4-.1 3-.4-.4-.6-.9-.7-1.4-1.4.8-.3 2.4 0 3.4-.4-.3-.9-.5-1.4-.6.6.6 1 3.7.5 4.5 0-.5-.1-1-.3-1.4.4.7-.1 1.5-.4 2.2.8 0 .8.6.5 1.2-.3.7-1.3 1-1.4 1.2-.5 1.4 0 1.4-1.5 2.1-.4.4-.9.7-1.4 1-.7.3-1 1.2-1.5 1.3-.8.2-1.7.6-2.5 1.1-.4.2-1 1.8-1.3 1.7-.7-.2-2 .7-2.6 1.1-.8.6-2.3 1.1-2.9 1.8-.4-1-1.8-1-1.8-2.2-.1.5-.3 1-.4 1.5-.1-.4-.2-.8-.4-1.2.3.8.2.8-.4-.1.8 0-.8-.5-.7-.5.2.9-.3 2-1.4 1.7.2.8 1.5-.4 1.6.7.3 1.5-2.3.7-2.8.7.9.7 2.4.6 2.9 1.7-.9.1-1 1.5-2 .8-.6-.5-1-1.9-1.9-2 .5.7 3.2 3 2.7 3.7-1.7-.7-2.6-2.5-4-3.6.3 1.2 5.4 4.7 2.9 6-1.6.9-4-3.3-5.1-4 .7 1.3 3.5 3.2 2.9 4.9-.4 1.3-2.7 1.7-3.8 2.2-1.8.9-1.9 2.2-3.1 3.6-.8 1-2.8 2.6-3.9 1.4.4-.5.9-.8 1.5-.9-.1-.3-.2-.6-.2-.9-.3.1-.6.3-1 .4.1-1.8-.1-3.6-.1-5.4 0-.9.2-1.8.5-2.7.2-.6 1.6-3 1.8-1.3.1-2.8-5.3-2.4-4.7-4.8-.1.4-.3.4-.6-.1.5-.2.9-.9 1.4-.9.6 0 1.2.2 1.8-.1.5-.2 1.1-.9 1.4-1.3.7-.8-.4-1.5.4-2.3 1.3 1.3 3.3-.1 4.8-.4.5-.1.8.3 1 .7.5.9 1.6.8 2.5 1.1.1-.8-.7-1.4.3-1.6-.1-1.3-1.7-1.4-2.2-2.3-.4-.8-.6-1.8-.7-2.7-.1-.8.8-.9 1.3-1.6.7-1 2.8.5 3.6.6-.4-.8.3-1.8-.3-2.6.7-.2 1.5.2 2.2-.1.6-.3 1.8-1 2.4-1.4.7-.5.9-1.1 1.7-1.3.7-.2 1.5-.1 2.1-.6 1.5-1.3-.3-4.9 0-6.5.3-1.4 1-2.4.4-3.8-.2-.4-.4-.8-.6-1.3-.3-.8 0-1.3-.2-2-.3-1-.9-.9-.8-2.2.1-1.6 1.2-2.5 1.5-3.9.1-.3.3-2.1.1-2.3-1.1-1 0-.8.6-1.8.9-1.6-.8-3.2-1.9-3.9-.5-.3-1.8-1.1-1.6-1.9.2-.9 1.8-1.3 2.3-2.2-1-.4-2.2-1.2-2.7-2.1-.4-.7-.9-.1-1.4-1-.6-1.2-1.1-.1-1.9-.6-.5-.3-.9-1.6-.9-2.2-.1-1.8-.7-3.4-2-4.7-.4-.4-1.3-.6-1.8-1.2-1-1.2-2.2-2.3-3-3.6-.5-.8-.6-1.9-1.2-2.7-.2-.3-.6-.7-1.1-.4-.4-.7-1.2-.9-1.5-1.6-.2-.5-1-1.7-.3-2.3.8-.7-2.5-1.4-2.7-1.5-2.2-.5-3.4-3.1-5.5-3.7-.6-.2-2.2-1-.7-1.6 2.1-.9-.3-1.4.2-2.4.3-.5 2.8.3 3 .3 1 .2 4.2-1.6 2.8-2 .4-.5 1.4-.7 1.5-1.4.1-.9-.7-1.7-1.6-1.5-.6.1-.6-.3-.7-.8-.2-1.1-1.4-.8-2.2-1.1.3-.8 1.4-.6 1.6-1.2.3-1.1-.9-1.5-1.5-2-.8-.6-1.2-1.3-2.4-1.1-1.9.3-1.6 1.3-2.6 2.4-.7-.5-1.8-1.4-2.7-1.3-1.1.2-2.7-1.6-3.1-2.3-.4-.8-.7-2.8-.2-3.8.8-1.8-.8-1.4-.9-2.7.1.6 0 1.1-.5 1.5-.9-.3-.9-2-1.6-2.6-1.1-.8-2.7-2.4-3.1-3.7"/><path d="M150.8 75.6c.1-.3 0-.6-.3-.7.1.2.2.4.3.7M151.5 75.7c.2.4.6.8 1.1 1 .7-1-.5-1.2-1.1-1M155.7 71.8c-.3.6-.5 1.3-.7 1.9.9-.4 1.9-1.3.7-1.9M156.4 73.9c-.4.3-.8.7-1.1 1.2.6-.2 1.1-.6 1.1-1.2M158.8 70.9c.2.1.5.1.8-.1-.3 0-.5.1-.8.1"/></g><g stroke="#7C7C7A" stroke-width=".5" fill="#D3D3D3" fill-rule="nonzero"><path d="M45.8 150.5c-.2.3-.4.2-.1.7.1-.2.1-.4.1-.7M49.8 182v0M41.6 162.6c-.1-.3-.3-.7-.5-1-.7.5-1.1 1.6-1 2.4.3 2 2.1-.1 1.5-1.4M43.6 144.4c-1.5 1.2-.4 4.8-.3 6.2-1.8-.3-2.6 5.6-.2 5.4-1-.7.1-.8.2-1.6.1-1-.4-1.9 0-2.9.3-.8 1-1.4.9-2.3-.1-1.3.4-.4.7-1.7.3-1.2-1-2.5-.6-3.5.4-.9 2.3-2.9.5-3.3.8-.6.8-1.5.3-2.2-1.9 1.4-.9 4-1.5 5.9M43 143.8h-.4c.1.3.2.5.3.8.1-.3.1-.6.1-.8M43.5 176c-.3.2-.5.4-.5.8.7.2.9-.1.5-.8M44.7 152.1c.1.3.4.4.7.4-.2-.2-.5-.3-.7-.4M48.2 186.6c-2.1.8 1.8 1.6 0 0M49.2 184.9c-1 .1-.4 1.2 0 1.5-.1-.5-.1-1 0-1.5M50.5 191.8c-.6.2-.8.9-.5 1.4.6-.3.9-.8.5-1.4M51.8 193.7c-2.6-1.3-.6 2.8-.2 3.7.9-1.8.2-2.1.2-3.7M-144.4 50.2c.1-1.7 2-1.7 3.2-1.7 1.5 0 1-2.2 1-3 1 .5 3.1.6 4.2.3 2-.6 3.3 1.9 5.3 1 .5-.2 3.6-3.3 4.2-2 1 2 2.4 1.2 4.3 0-1.6-.3.1-2.4-.4-3.4-.8-1.8-1.8-3.5-2.8-5.2-.6-.9.5-3-1.4-2.5-1.7.5-3.3-1.6-3-3.1.2-1.1.9-3.4 0-4.2-1.4-1.3-4.4-.3-4.9-2.8-.3-1.8 1.7-3.7 2.9-5 .9-1 1.4-2.1 2.2-3.1.5-.7 1.6-2.4 2.7-2.1 1.4.4.9 2.7 2.5 2.9.9.1 1.9-.6 2.8-.9 1-.4 2-.4 3.1-.5 2.4-.3 2.3-2.2 3.9-3.6 1.9-1.6 1.3-3.8 3.9-5.1 2.4-1.2 3.6-2.7 4.7-5.1.8-1.7.8-4 3.1-4.8.8-.2 1.7-.4 2.3-1.1.8-1-.6-1.3-.5-1.8.1-.6 2.3-2.9 2.8-3.4.9-1.1 2.9-1.7 3.6-2.8-1.6 0-.9-1.5-.7-2.5.2-1.3-.8-2.2-.6-3.3.4-1.9 4.4-2.3 5.7-3.5 2.3-2.1-3.1-2.3-4-2.6-.9-.3-.2-1.7-1.1-2.2-.6-.4-1.5-.4-2.1-.7.5-.8.2-1.2-.4-1.6-.7-.4-2.5-1.5-1.8-2.5.7-.9 1.3-1.8.4-2.5-.6-.4-1.5-1.3-.4-2.1.4-.3 2.9-1.7 1.1-1.9-.3 0-3.2 0-2.1-1 1.3-1.2-.1-1.1-.8-1.7-.8-.7 1.3-2.7 2.1-3.1 2-1 3.5-.2 5.2.1 1.9.4 3.8.9 5.7 1.3 1.6.4 2.9-.6 4.5-1.1 1.4-.4 2.8-.4 4.2-.8.4-.1 3.3-2.4 3.2-2.6-.3-.8 2.5-2 3.3-2.5.6-.4 1.3-.9 2-1.1.6-.2.7.3 1.2.1 1.6-.4.7 1.4 1.2 2.3.8 1.3.5 3.1 1.5 4.2 1.1 1.2 4 .8 4.9 2.8.3.5 1.1 1.1.2 1.7-1.7 1.1-1.4 1.3-1.1 3 .2 1.5.3 2.9 1.3 4.1.8.9 2.5.9 3.1 1.8.3.4 0 1.1.1 1.5.2.5.6.9.8 1.4 1 1.5-.5 1.8-1.7 2.7-1 .7-2.8 2.3-3.3.3-.4-1.5-1.5-1.7-3.3-.6.4.6.5 1.3.5 2 .1.8.8 1.2 1.3 1.8.9 1.3.3 2.7 1.2 3.8.5.7-1.1 3.4.7 3.1.8-.1.7-.8 1.3-1 1-.3 1.1.7 1.4 1.2.3.8 1.8 2.4 2.7 2.6 1.1.2 1.9-.5 2.7.5.4.6 1.4.4 1.9.9.3.3.3.9.3 1.4 0 .8.9.8 1.6 1.1 1.7.8 3.5 1.1 4.6 2.7-2.1.1-3.2 2.9-4.9 3.9-.2.1-.2 1.5-.4 1.8-.8 1.2-.1 1.7-.5 2.8-.4 1-2.4 2.1-1.4 3.3.6.7 3 2.8 3.3 1.3 1.1.8 2.4 1.8 3.7 2.3 1.5.6 2 1.9 3.4 2.7.4.3 2.4 2.1 3.1 1.9 1.6-.6 2.8.6 3.9 1.2.5.3 2.3.3 2.5.6.8 1.2.9 1.5 2.5 1.9.9.2 1.9 1.1 2.9.5 1.4-.9 2-.2 3.2.4-.5-2.3 5 0 5.3.2 1.5.5.1 2.5 1.5 2.9 1.2.3 3 .9 3.6 2 .5.9 2-.4 2.8-.4 1.9-.1.5 2.5 3.1 1.6.8-.3 3.7.8 4.4 1.2 1.6 1 2.2 0 3.9-.5 0 1.1 1.7 2.3 2.7 1.4.4-.3 3 0 3.6 0 1.2 0 1.5-.1 1.9-1.3.7-2.2-.2-3.1-.7-4.9-.3-1 .1-2.3.4-3.4.4-1.3.3-2.4.4-3.7 1.4-.1 3.2-1.2 4.5-.8 2.6.8-.5 4 .4 5.4.2.2 1.1.8.7 1.2-.6.7-1.1.6-.7 1.5.8 2.1 2.4 2 4.4 2.3 1.4.2 2 1.4 3.4 1.2.6-.1 1.5-.1 2.1-.4.6-.3 1.9-1.6 2.5-1.1 1.6 1.3 4.1.9 6.2.8.7 0 1.9-.8 2.2-.4.4.7 2.5 0 3.3-.1 2.1-.2.1-2 .6-2.9 1.5-2.9-1.9-1.7-2.9-3-.5-.7-.5-2.2.9-1.9 1.1.3 1.6-.3 2.7-.5 1.7-.4 4.4.4 4.3-2.2 0-1.1 3.5-2.2 4-3.7.7-2.4 3.7-1.2 5.4-2.6 1.4-1.1 2.3-2.4 3.8-3.4.6-.4 1.1-.8 1.7-1.1.5-.3 2.4 1.3 2.8 1.6-.4-.5-.2-.5.6 0 .7.3 1.4.8 2.3.8.9 0 .9-1 1.4-1.5.8-.9 2.8-1.5 3.9-1.9.2-.1 2 1.8 2.3 2-1.6.6-1.5.8-1.4 1.9.1.8 2.1-.6 2.5-.7-.5 1.1 1.2 1.7.7 2.6-.8 1.3-1.4 1.7-2 3-.4.9 1.7.1 2 0 1.5-.4 2.2 1 3.7.6 1.3-.4 2 1.2 1.8 2.2-.1.4.4.7.3 1-.3.7-1.6 1.5-2.2 1.9-3.1 2.4.5 3.4.4 5.7-1.8.7-1.8-1.5-3.1-1.9-1.2-.3-4.6.7-5.7 1.8-.8.8-1.5 1.5-2.4 2.1-.4-.1-.9.1-1.4 0-.5.4-.1.6-1 1.1-.9.4-1.5-.1-2 1.1-.4.8-.4 1.8-.3 2.6.1.6.5 1 .6 1.6.1.8-1 1.2-.9 2.1.3 2-3.6 3.4-3.1 5.1.2.6.9.8 1 1.5.2 1.1-.6 2.3-1.3 3.3-1.5 2.3-3 4.8-3.3 7.5-.7-.6-2.5-1.1-3.4-1.4-.5 0-.9.1-1.4.2-.6-.1-.7-.6-1.4-.5.5 2 .6 3.8.5 6-.1.9-.4 3.8-1.9 2.6 0 2-.4 3.4.2 5.3.2.7.5 2.9-.9 2-1.2 3-.7 1.2-2.6.4 0 .6-.3 1.2-.8 1.5-.5-1.5-.3-3.2-.4-4.8-.1-1.9-1.1-3.6-1.4-5.5-.2-1.5-.6-2.9-.6-4.4-.1-1.3-1.8.7-2.6 0 .1.9.4 1.5-.5 2.2-1 .8-.5 1.6-.5 2.5 0 .9-1.1 1.9-1.9 1.3-.8-.6-.3-1.8-1.3-2.3 0 .5-.1 1-.3 1.4-.4-1.5-.9-2.9-1.3-4.4-.4-1.5 1.7-3 1.5-4.4.7.1 2.1.3 2.1-.9.4.8 1.3-.4 1.9.2.5-1.9 3.6-3.8 2.7-6 .5 0 2.4 0 1.6-.9-.9-1.1-2.8-1.7-4.3-1.6-1.3 0-2.7.3-4 .1-1.7-.3-3.3.2-5 0-2.1-.3-7.7.3-6.9-2.9.3-1.4.3-5.9-1.9-5.7.3.6 0 1.2-.3 1.8-1-.6-2.3-.7-2.9-1.7-.5-.8-.6-2.4-2-2.2.4.4.7.9.8 1.5-.7-.3-1.6-.3-2.3-.7-.3-.5-.4-1.2-.8-1.5-.5-.5-1.2-.8-1.7-1.2-1 1.4.9.7 1.1 1.9-2.5.9-4.4 4.1-1.7 5.2 1.1.4 1.3 1.6 2.2 2.3.6.5 2.1-.3 2.1.6 0 1.4 2.1.9.9 2.4-.6-.3-1.7-.2-2.4-.2-.9.1-1.2.1-1.4 1-.2.9-1.3 2.4-1.9 1-.3 1.5-1.7 2.7-.3 3.9 1 .9 2.3 1.5 3.7 1.6 2.9.2-2.7 6.8.6 7 1 .1.2 1.3.4 2 0 .3.9.4 1 .4.8.2-.2 1.3-.2 1.8 0 .9.7 1.5.6 2.5-.1 1.3-.2 2 .3 3.1.5 1.2 1 2.8.2 4-.3-.2-.5-.3-.8-.5.2.5 1.6 2.4 1 2.9-.7.5-1.4-.4-1.4-1-.2.8-.9 1.5-1.3.4s.4-2.5.6-3.6c-.7.3-.1 1-1 1.7.3-.8-.1-1.5.4-2.2-1.5 1-.7 4.4-1.1 5.8-.2-1 .4-2.5-.5-3.2 0 .1-.1 2.7-.5 2.4l-.3-.6c-.7-1.2-.3 1.7-.8-.5.3.5.2 1-.1 1.6-.9-.9-.6-2.8-.6-4 .1-1.9-1.5-1.5-1.9-3 0 1.5 2.6 1.2 1.2 3.2-1.6 2.2-3 3.1-5.6 3.8-1.4.4-3.3 1.1-3.8 2.6-.3 1 .2 4.5 1 5.2-.6.4-1.4.8-1.7 1.4-.5 1 .5 1-.8 2-1.5 1.1-2.3 3.2-3.8 1 .1.8 1.1 1.2 1.7 1.6-2.3 1.1-4.7 2.1-7.1 2.4.8-.4 1.2-2.2 0-1.8-1.3.4-2.6 2.2-2.3 3.4.2-.5 1.5-2 1.8-1.2-.8.2-2.2 2.1-3 2.8-1.8 1.5-2.8 3.4-4.2 5.3-1.3 1.9-2.8 3.8-5 4.8-1.9.8-2.3 3.2-4.2 4 1.1.7-4.8 3.3-5.5 3.9-.7.6-1.4 1.4-1.8 2.1-.6 1.2 1 1.5.3 2.9-1.4 2.8-4.7 2.5-7.1 2.7-1 0-1.2.8-1.5 1.6-.3.9-1.4 2.5-1.4 3.4-.8-.4-.7-1.2-.9-1.9.3.8-.3 1.6-.6 2.3.8-2.4-2.9-1.1-3.7.1-1.1 1.7-2.5 4.4-2 6.3.4 1.6.9 3.3.8 4.9-.2 2.8.2 5 .7 7.7-.2-.5-1.1-2.7-1.2-.9-.5-1.3-.7.4-.2.7.6.4 1.2.4 1.6 1.1.7 1.3-.2 4.5-.5 5.9-.5 2.4-2.1 4.3-3 6.6-.7 1.8 0 4.4-1.4 5.8.2-.2.5-.4.8-.6.8.9.7 2.3.6 3.5-.1 1.9.2 3.8 0 5.7-.5 0-1-.1-1.5-.2 1.9.6-.1.3-.4.2-.7-.2-1.8-.6-2.2.3-.2.5-.6 1-.4 1.5.4.8-.8 1.6-1.2 2.2-.8 1.2-2.2 3.7-.3 4.6.5.2 1.2.2 1.7 0 .4-.1 1.1 1.2 1.3 1.4-1.9-2-5.3-.8-7.5.3-2.8 1.4-1.7 4-3.1 6.1-.7 1.1-2.1 1.8-3.2 2.3-1.8.8-2.8 0-4.1-1.2-.6-.6-5.1-5.5-3.6-5.9-1.3.5-1.8-2.2-2.2-3.3-.6-1.6-1.3-3.5-.7-5.2.4.6.5 1.4.5 2.1.2-1.7-.2 1.7.9 1.8-.3-.9 0-2-.4-3-.3-.8-1.1-1.2-1.1-2.2 0 1.8-.6.1-.5-.3.1-.9-.4-1.2-.8-2.2-.7-1.8-1.2-3.7-1.7-5.5-.2-.7-4-7.5-3.8-7.9-2.5-3.3-4.1-7.2-4.7-11.3-.2-1.5-.3-2.8-.7-4.1-.3-.9-.6-1.7-.9-2.6-.2-.7-1.1-2.4 0-2-1.3-.4-.9-2.3-1.5-3.2-.4-.6-2.6-1.8-.6-2.2-1.2.5-1.6-.8-1.9-1.6-.2-.6-.4-1.3-.6-1.9-.3-.6-1.3-.9 0-1.1-.6-.2-1.1-1.1-1-1.7.1-.6-.6-.8-1.1-1.5-1.1-1.7-1.7-3.7-2.2-5.7-.3-1.4-.6-2.8-.5-4.2.1-1.5-.6-2.9-.7-4.4-.1-1.4-.8-2.6-1.1-3.9-.2-.9-1.6-3.7-.2-3.2-.2-.3-2.1-2.9-.4-1.9-.2-1.1-1.4-1.7-.8-3 .2.2.5.4.7.6.1-.6-.1-1.1-.5-1.5 1.1-.4.6-1.4.5-2.2-.1.6-.4 1.2-.9 1.6-.7-1.3-.1-4.1 1.5-2.1-.2-.7-2.8-1.1-1.9-2.1.3-.3-.8-1.8-.8-2.2-.2-1.2-.2-2.3.2-3.6.6-1.9 1.9-3.9 1.4-5.8-.1-.3-.2-3.6-1.4-2.3.4-.9.2-.9-.6-.1 1-1.1-.5-1.4-.2-2.2.2-.5.4-1 .6-1.6.2-.8 2.9-1.3 3.5-2.2-2.1 1.4-6.4.3-3.2-1.8-1.1.4-2.2-.3-1.3-1.4.7-1 1.6 0 2.4-.9-1 .3-3.1-.1-3.6-1.1-.1.5-1.1.7-1.1.6-.1.5.6.5.5 1.3-.1 1-.8 1.3-1.7 1.5.2.2.3.5.5.7-.6-.2-1 .2-1.3.7 2 .6 2.8 2 1.2 3.8-.6.7-.4 1.6-1.4 2-1.2.4-2.3 1.2-3.4 1.8-1.9 1.1-4.2 2.4-6.3 1.7-2.2-.7-4.6-2.8-5.8-4.7-1.7-2.8-4.5-4.6-6.5-7.1-.5-.7-2.1-2.9 0-3.1.6-.1.5.9.9 1.2.7.4 2.2.1 2.5-.9.7 1.1 4.4-.9 5.2-1.7.7-.6.7-1.6 1.2-2.3.6-.7 1.8-1.3.9-2.2-.6.5-.1 1.7-1.2 1.7-1.1-.1-2 .1-3.1.5-.9.3-1.4 1.1-2.4 1.1-1.2-.1-2.4-.6-3.5-1.2-1-.6-2.2-1-3.1-1.7-.7-.6-.7-2-1.6-2.3-3.1-1.1.9-3.5 1.9-4.2-1.7-.2-3.1 3-4.7 2.2 0-.4.1-.9-.1-1.5"/></g><g stroke="#7C7C7A" stroke-width=".5" fill-rule="nonzero"><path d="M259.9 12.8v.4c1.5-.4.7-1.9 0-.4M231.2 50.9l.5.5c1.2-1-.2-1.4-.5-.5M249 35.4c.5 1.3 1.1-.5 1-1.1-.3 0-.6.1-.9.2.2.2.5.4.7.6-.3.2-.6.2-.8.3M245.3 30.3c.5.3.9.5 1.4.6-.7.4-1.2 0-1.4-.6M237.1 43.6c-.3.6-.2.9.5.9.2-.5.1-.9-.5-.9M202.2 63.9c.1-.1.2.4.2-.1.1.3.1.6-.1.9-.1-.4-.1-.6-.1-.8M207.1 63.1c-.1.4.1.6.5.7-.1-.3-.2-.5-.5-.7M204.4 63.9c.1-.8 1.1-.9 1.6-1.2 0 .7-.8 1.2-1.6 1.2" fill="#FDFCEC"/><path d="M205.9 61.2c.8-.3 1.6-.6 2.1.1-.3.2-.5.4-.8.6.4-.3 1-.4 1.3-.2 1 .9-1.3.1-.5 1.4-.9-.1-4-.8-2.1-1.9" fill="#FDFCEC"/><path d="M164.8 88.8c-.5.6-.1 2.9-.1 3.6 0 1.1-.3 2.7.5 3.5.9 1 2.6.8 3.7 1.5 1 .7 2.8.8 4.1.8-.3-1.4 1.7-2.2 2.1-1.3-.3-.7 2.4-2.6 2.9-3 .7-.5 1.9-3.4 1-3.8 1-.5 2.4-3 2.3-4 1.7 1.4 1.1-2.2 1-2.9-.3-1.2-3.5-2.4-2.5.2-.4-.5-2.4-1.4-1.5.1-.3-1.9-2.6-.7-3.3.1-.4-1.2-2.5-1.1-3.5-.4.1.3.3.5.4.8-.9.3-1.3-.8-2.1-.6-1.1.3-.8 1.6 0 1.8-2.1.7-3.5 2.4-5 3.6" fill="#D3D3D3"/><path d="M176.8 74.5c.8-.2 1.7-.5 2.1.4.9-1.5-1.4-1.5-2.1-.4M179.1 72.5c-.7.4-.6.6.2.7 0-.2-.1-.5-.2-.7M189 69.4c.4-.2.7-.5.8-.9-.6 0-.7.4-.8.9M195.3 68.1c-.5.1-.8.4-1 .9.7 0 1-.3 1-.9M196.4 69.3c.2-.6.1-1.1-.2-1.5 0 .5.1 1 .2 1.5M201.3 57.7c0 .2.9 1.6 1.4 1.2-.3-.5-.6-1.1-1.4-1.2M202.2 59.2c0 .4 0 .6.5.7-.2-.2-.4-.5-.5-.7" fill="#FDFCEC"/><path d="M-102.6-85.3c1.1 0 2-.5 2.1-1.6.1-1.5-.8-1.2.1-2.8.7-1.3 1.8-.8 2.9-1.2 1.3-.4 2.2-2 3.6-2-.1-.5 0-.9.2-1.4.8.2 2.2.9 3.1.3.7-.5 1.5-1.2 2.4-1.3.9-.1.7 1.9 1.1 2.3.7.8 2.9-.3 4.1-.2 2.2.2 3.2-2.7 3.9-4.2.5-1.2 1.3-1.6 2.6-1.4 1.7.2 3.4.3 5.2-.1.9-.2 2.1.1 3-.5 1-.7 1.3-2.1 2.4-2.9 2.7-2.1 6.6-2.3 9.4-4 1.2-.7 1.8-1 2.9-1.1 1.5 0 1.3-.5 1.2-1.5-.1-1.3-.2-2.4-.5-3.6-.3-1.6 1.7-1.9 3-2.2-.3-.4-.7-.7-1.2-.9.7-.7 1.9-1.6 2.7-1 1.1-1.3-.6-1.4-.3-2.5.4-1.4-.7-2.4-1.2-3.5-.6-1.5-1.3-2.9-1.4-4.7 0-1.1 1.5-3 .4-3.5-.9-.4-5.2 0-3.4-1.5 1-.9 3.6-1.1 4.8-1.4 2.2-.6 4.3-.7 6.5-1.4 2.3-.6 2.2.3 3.6.9 1.1.5 2.7-.7 3.7.1 1.1 1 1.8-.6 1.8-1.6.1-1.4-2.2-.6-2.6-1.6-.3-.9 1.1-2.6 1.5-3.6.7-1.5.9-3 1.5-4.5.6-1.4 1.9-2.9 2.1-4.3.3-1.6 1.4-2.1 2.8-1.4 1.2.6 2.1 1.1 3.5 1.5 1.8.4 4-.2 5.9-.1 1.5.1 1.3 1.9 3.1.9 1.4-.8 2.9-.9 4.3-1.7 2.5-1.5-.5-5.5-.3-7.1.1-.9 1-3.2 2.2-3.8 1.2-.6 2.3 0 3.5-.4 3.1-1 3.4-2.1 3.6-4.3.1-1.4 2-1.5 3-1.4 1.6.1 2.4.2 4.2-.3.8-.2 2.1 1 1.3 1.5-1.3.8-.3 1.6.6 1.8 1.8.4-.3 1.2.6 1.7 1.3.7 3.5.6 4.1 1.9.7 1.5 3.8 3.2 6.1 2.6 1.6-.4 3.7 2.5 4.8 1 .6.2.4.8.9 1.2.6.5 1.4.5 2 1.1 1 1.1.8 2.7 1.7 3.8.8 1 2 1.6 2.9 2.6 1.4 1.6.1 2.9 0 4.8 0 1.3 1.4 1.6-.1 3.2-1.2 1.4-2.3 2.7-1.6 3.9.5.9 1.2 2.4 2.7 2.3 1.9-.1 3.3.9 5.1 1 1.8.1 3.5.6 5.3.5 1.8-.1 3.5-.2 5.2-.1 4 .3 5.9 2.4 9 3.8 1.4.6 2.5 1.6 4 2.1 1.1.4 2.4.3 3.6.5 1.5.2-.3 1.2.6 1.9 1.2.9 2 1.2 2.4 2.7.3 1.2.7 2.4 1.3 3.5.7 1.3 2.1 1.9 3.1 3 .7.7.6 1.8 1.8 2 1.7.2 3.6-.3 5.4-.5 3.9-.3 7.3 1.3 11 1.5 1.9.1 3.9.4 5.9.3 1.9 0 4-.9 5.9-.7 2 .1 3.9.5 5.8.8 1.7.2 3.9 0 5.3.5s1.7 1.9 2.9 2.6c1.7 1 4.6 1 6.8 1.5 3.3.7 5.6 2.7 9.8 1.8 1.9-.4 2-.1 2.5 1s3.1-.1 3.5.8c-.1-.2 10.6-4.6 11.6-5 2-.8 4.4-1.1 6.3-1.3 2.3-.3 5-.8 7.2-.8 3.3-.1 6.6 1 10.3-.6 1.8-.8 4.5-1 6.1-2.1 1.5-1.1 2.4-2.7 3.8-3.8 1.3-1.1 2.8-1.6 4.2-2.2.8-.3 1.6-.8 2.3-1.4.4-.4 1.1 0 1.4-.3 1.7-2.1-3.3-4-3.5-5.6-.2-1.5 1.4-5.7 4.4-6.2 3.6-.6 6.1 1.9 9.1 2.4.6.1 2.4.7 3.3.1 1.4-.9 3.2-1.4 4.3-2.5 1-.9 1.9-2.1 3.2-2.9 1.2-.8 3.2-.1 4.1 0 2.4.2 5.5-.9 8-2.8 1.2-.9.2-2.3 1.9-3.7 1.6-1.3 2.7-1.6 4.3-1.7 1.2 0 2 .5 2.7-1.1.6-1.2 1.9-.4 2.4-.3.5.2 3.2-1.2 4.2-1.4.8-.2 1.4 0 2.1.1.4.1.9.1 1.4.1.3-.2.7-.5 1-.7.6 0 1.4.6 2 .7 1.1.2 2.2.4 3.3.5 4.3.3 2.3-3.1 1.3-4.3-2.5-2.6-5.8-5-9.3-6.8-1.6-.8-4.2-1.5-7 .6-3.4 2.7-3.9-.1-6.9 0-1 0-2.8-.3-3.9.1-1.3.4-2 1.6-3.1.9-.7-.5-3.2-2.1-1.5-3.4 1-.8 1.7-.7 1.6-1.7-.1-.9.4-1.7 1.1-2.8 2.1-3.2 3.8-6.4 5.6-9.6 2 1.1 5 1.1 7 2.1 2.2 1.2 4.2-1.1 7-2.6 2-1 4.9-.1 6.2-2.2.7-1.1.1-1.4-.9-1.6-.6-.1.2-1.1.6-1.7.6-.9 1.6-1.3 1.8-2.2 0-.4.3-.9.9-1.3 1.1-.9.9-1.5 1.6-2.4 1.5-2 1.8-3.5 5-4.8 3.6-1.5 1.4-3.4 1.6-4.7.1-1.2-.9-2.2-3-1.6-1.9.5-1.8-.5-2.1-1.3 2.9-.7 4.8-3.8 8-4.3 3.8-.6 7.7-1.6 11.1-1.4 3.3.2 7.1-.9 10-.1 1.3.3 2.3.9 3.2 1.5 1.3.8 3.5.8 4.7 1.6 1.4-1.8 6 .3 5.9 1-.1.6 2.1 1.5 2.6 1.9.4.3-.3.9 0 1.2.5.5 1.4.6 1.8 1.2.4.6 1.6 1.2 1.4 2.1-.1.6 1.8.2 1 1.1-1.1 1.4.3 2.1.9 2.7.6.6.3 2.3 1.3 2.6 1.4.4.4 2.3 1.1 3.1.7 1 1.9 1.7 2.5 2.7.5.9-.2 2.3.3 3.2.5 1 1.8.7 1.2 2.2-.9 2.6 2.5 4.8 5.8 4.3 1.4-.2 3.2-.6 4 0 1.2.9 2.9 1.1 4.3 1.8.1-1.7 1.8.6 2.4.6 1.4 0 1.8 1.9 2.6 2.5 1.2 1 3.6.2 5 .9.4.2-.9 1.6-.8 2.1.1.5.8.9 1.2 1.2 1.2 1 .1 1.8-.2 3.3-.2 1 1.6 3.5 3.1 3.4.8-.1 1.7-.4 2.4-.4 1.2 0 1.7.6 3 .5 1.4-.1 5.1.1 6.2-1.3 1.2-1.4 3.9-2.5 5.4-2.4.1 0 1.1.5 1.5.2.8-.8.9-1.1 2.2-1.3 1.1-.2 4.1-1.7 4.7-1.1.3.3 1.8.9 2.4 1-.9 1-1.1 1.8-.9 2.5.4 1 1.8 2.6-.5 4.3-.5.4-1.5.4-2 .8-1.4.8-.5 1.4-.6 2-.1.5-.6 1.1-.9 1.7-.4 1 0 1.8-.8 2.9-1 1.2.5 3-2.1 3.9.8.9-.6 1.2-1.3 2.3-.5.8.1 1.5-.6 2.3-1 1.2-2.2.7-2.5 2.4-.1.6 0 1.2-.4 1.8-.5 1.1-5.8-.6-6.7-.8-.4-.1-2.3-1.1-2.7-.8-.9.8-1.7 2.1-2.9 2.6-.9.4-2.4.4-3.2.9-.8.5.6 1.7.7 1.9.9 2.2 1 4.7.7 7.4-.2 2.2 1.2 3.7-.7 6.4-.8 1.2.1 1-1.6 1.5-1.4.4-2.5.1-3.9 1.3 1.7.5.7 1.5 1.5 2.4-.8-1.1-2.7-1.5-2.8-3.1-.1-1.3-1.2-1.6-2.9-1.6-.3.9-.3 3.5-1.5 4.4-.9.7-2 0-3 .5-1.5.8-.6 2.4-3.2 2.9-2.3.5-4.1 0-6.3.5.3 1.3 2.7 2.8 1.2 4.6-.8.9-4.5.3-5.5.1-.9-.1-1.8-.3-2.4-.8-.7-.5-.7-2.1-2.1-2-.7.1-1.3.8-2.2.8-.9 1.6-1.3 2.5-2.7 4.1-.6.7-1.3 1.9-2.2 2.3-.5.2-2.2.3-2.3.8-.2.7-.9.6-1.5 1.1-.6.3-1.1.5-1.7.6-.6.2-1.6 1.3-1.9 1.3-1.9.5-4.1 2.2-4.9 3.9-1 2.1-4.4 2.1-5.1.9-.4 1.1-1.9 1-2.6.9-.1.8-.9 1-1.6 1.1-1.4.2-2.9 1.2-4.3 1.9s-2.3 1-3 2.4c-.6 1-1.7.9-1.9 1.8-.4-.3-.9-.5-1.5-.4.3 1-4.5 3.6-4.1 1.1.2-1.3 2.9-1.3 3.4-1.6.8-.5.3-1 .5-1.5.2-.7 1.6-1 2.1-1.5-2.9 1-3.4-.5-5.4-.9.6-.5 1.4-.9 2.1-1-.5-1.9.4-1.6 2.6-3 1-.6 2.2-2.6 2.7-3.4 1.8-3.1-3.8-2.5-2.9-5.3-.6 1.8-2.3 1-3.2.7-1.1-.4-4.6.9-3 1.7-1.7.3-3.6 2.5-4.1 3.8-.4 1.1-4.5 2.3-5.6 2.8-1 .5-1.9.8-2.7 1.7-1.3 1.3-.2 2-1.1 3-2 2.4-3.8 1.6-6.3 2.7-1.7.8-2.2-1.2-3.7-1-2.3.4-2.7 3.6-2.8 4.8-.1 2.1 2.1 2.9 3.4 4.1.4.4 1.7.5 2.5.3 1.3-.4.9 1.1 1.7 1.2.5-.5.7-1 .7-1.5 1.6 0 3 1.5 3.2 2.8.2 1.8-2 3.5-.6 5 .9 1 2.5 1.3 4.3 1 1.3-.2 3-.8 2.2-1.9.8-.4 5-2.7 2.7-2.7 1.2.2 2.9-.8 4.2-1.2 1.3-.3 2.5.8 2.8 1.5.3.7.8.6 1.7.4.5-.1.7.7.8 1 .6 1 3.1-.5 3.7.6.3-.3.5-.6.8-.9 1.1 1.1 3.8.3 4.8 1.4-.4.1-.7.3-1.1.4 1.1 1.3-1.7 1.7-.6 2.7.4.4 0 1.1-1 1.4-1.7.5-1.2-.7-1.4-1.5l-1.1 1.1c.3-1.1-.5-.8-1.4-.2-.5.3-4 2.1-1.8.6-1.1.5-3.3 1.9-4.4 2.1-.7.1-2-.8-2.2.6 1.5-.9 1.9.5.9 1.4 0-.8-.9-.8-1.5.1-.5.7.2 1.2-.2 2-.2.4-1.6.9-1.9.8-1-.2 0-1.4-.8-1.9.5 1.4-.5.2-1.4.4-.4.9.3 2.3 1.4 2.2-2.3.3-2.5 3.9-4.9 3.3-.4 1-1.4 3-2.3 3.9-1.5 1.4-1.1 2.3-1.3 3.7 1.5-1 2.7.4 3.3 1 1.2 1.2 3 1.6 4.6 2.5 1.3.6 1.1 2.8 1.6 4 .7 1.8 1.3 3.9 2.6 5.4.9 1 1.5 2.5 1.1 4.1-.5 1.8 2.3 2.1 3.5 2.7 1 .5.3 1.2.6 2.1.2.7 1 .7 1.6 1 1 .6 3.1 1.8 1.8 3.4-1.5-.4-2.8-2-4.7-1.5-2.6.7-2-1-3.8-1.7-1.8-.7-3.5 1.8-5 .9-.7-.4-.9-1.2-1.2-1.9-.4-.9-1.4-.9-2.1-1.4.4.3.3.9-.1 1.4.6-.5 1-.5 1.4-.1l-.6-.6c1-.3 2.1 2 .6 1.2 1 .8 1.8 2.5 3.8 1.8.8-.3.9-.9 1.8-.9.7 0 1.6.4 1.9.9.2.4-.3.8.1 1 .7.4 1.6.5 2.4.8 1.6.7 2.7 2.3 4.2 3.2.8.5 2.3 2.5 1.8 3.7-.2.6-1.4.3-1.7.4-1.3.1-2.3 1.1-3.5 1.8-.8.4-1.6.7-2 1.5-.2.4-.5 1.2-1.1 1.2-.9.1-1.2-.8-2.3-.4-1 .3-1.9 1.1-2.7 1.6.6-.2 2.9-1.7 3.3-1.3.8.7.2 2.5 1.7 2.5-.2-.2-.5-.4-.8-.5 1.7.3 3.5-1.8 5-1.3 1.1.3 1.3 1.2 1.9 2 .6.9 2.7 1.1 3.9 1.4-1 .4-1.6 1-2.5 1.7-.3.4-.7.7-1.1 1-.6.3-1.1.2-1.7.6.1.3.2.5.3.7.7-.6 1.9-1.5 2.4-.8-.3-.4.2-1.6.9-1.1.8.5-.3 1.3-.1 2 0 0 .2 2.4-.6 1.8-.4-.3-.1-1.2-.5-1.6 0 .5-.1 1-.2 1.4-.7.2-1-.2-1-.8-.1 1.3-.3.5-.5 0-.3.6-.7 1.1-1.2 1.6 1-.2 2.2.7 2.1 1.7-.3-.5-.7-.4-1.1.1.8-.1 1.4 1 .4 1.5-1.3.7-2.5-.6-3.3-1 .4.4.5 1.2 1 1.4.8.3 1.6-.3 1.8.7.1.5 1.2 1.7.3 2.3-.8.5-1.6.5-1.5 1.6-.9-.4-.6-1.7-1.4-2.1-.4.5-.5.6-1 .8 1.4.2-2 4.4-3.6 1.6 0 1 2.5.8 1.8 2.1-.6 1-2.2 2.9-1 3.6-.9.3-1 .8-1.1 1.5-.2 1.5-1-.1-.9.9-.4-.4-.8-.9-1.1-1.3-.2.5 2 2.3-.1 1.9.1.9-.8 1.6-1.6 1.9.6 1.2.8 3.4-1.7 2.7.9-.3 1.4-1.1 1.2-1.9-.4.3-.8.6-1.1 1-.4-.4-.7-.9-.7-1.4-.5.5-1.1.9-1.6.6.3.4.3.9.1 1.4 1.3-.5 2.3 1.5.6 1.4-.1.9.9 1.4 1.4.3.7.9-.3.9-1 1.5-.8.6-1.3 1.5-1.7 2.3-.7-.7-1.8-1.1-2.8-1.4.7.5.9 1.9 2.1 1.7 1.2-.2 1.8-1.3 2.4 0-.8.3-.8 1.5-1.2 2.3-.6 1.3 1.4 1.3.6 2.6 0-1-.3-1-.8 0-.3-.7-.9-1.3-1.6-1.6-.2.6-.6 1.1-1.2 1.4.5.3 1.8.5 1.4 1.4-.6 1.3-1.3-.6-1.6 1.1 0-.7-.5-2-1.5-.9 1 .4-.2 1.8 1 1.9-.4.8-2.4 2-2.1.6-.9.6-.8.8-.2 1.2.7.5-.2 1.8-.7 2.3-.4-.4-.7-.8-1-1.3-.4.9-1.8 1.6-2.1.4-.7.8-2 .3-1.4 1.4-.5-.2-1.1-.2-1.7-.1.4.5 1.1.8 1.9.5-.3.6 0 .9.6.9-.3.5-.8.5-1.3.9-.7.5-.5 1.5-1.5 2 .5-.7.3-1-.5-.8.1.8-.5 1.5-.6 2.2.2-1.5-1.6.1-2.4.1-.2.2-1.2 2.7-1.9 1.9-.6-.7-1-1-1.4.2-.4 1.4-1.1 1.7-2.5 1.5.8.3 1.9.3 1.9 1.4-.7-1.1-1 .6-1.5-.1-.5.9-.1 2-1.4 2.4-.8.2-2.2.5-2.9.1.9 1.1-3.5 1.7-2.2-.1-.8.7-1.6.4-2.2.1 0 .6 1.6 1.4 1 2.2-.4.5-.9.1-1.2-.1-.8-.6-1.6-.5-1.3-1.5-.6.6-2.4 1.6-2.9 1.2 1.2.4.2 1.4-.5 1.2-.9-.2-.7-1.3.1-1.9-.9 0-1.7.4-2.3 1.2 1 .2-.3 1.2.8 1.4-.2.2-.5.3-.8.4-.2-1.5-3.9-1.4-4.9-.1.3-2.1-2.3-2.7-1.6-4.9-.5 1.4-.4.6-.9.1.6-.8 1.5-.9 2.4-.8-1-.8-2.2.8-3.3.3 1.5.6-.4 1.9-1.4 1.5.4.2 1.8.7 1.8 1.2-.2.1-.4.1-.6 0 .8.6 2.5 3.5 1.4 4.8-1.2 1.4-2.6-2.6-3-3.1-.3 1.3 1.1 2.4 1.5 3.5-.6.1-1 .5-1.2 1.1-.5-.3-.8-.8-.7-1.4-1.4.6-.3 2.1-1.3 3-.8-1.3-1.7-.2-2.5.7-.6.6-2-.7-.9-1.5-.7.2-1-.1-.8-.7-.3.8.2 1.7-.2 2.5-.5 1.1-3-.9-3.5-1 1 1.6-.6.9-1.6.9 1.6.6-1.3 3.1-2.1 1.6-.3.5-.7 1.1-1.3 1.3.7-1.1-.7-.4-1.5-.3-1 .2-2.3.5-3.1 1.3.2-.4.5-.8.8-1.2-.7.4-1.3 1.1-1 1.9-1.7.5-.9-.6-1.8-1.4-.5.8.5 1.4-.3 2.1-.6.5-1.8 1.1-1.5 2 .2.5 1 .6 1.4.7.7.2.2 1.8-.1.1-.1 1.3 1.6 1.9 1.3 3.2-.5 2.1-3.3 1.1-4.6 1.6.2-.7-.5-1.9.7-1.2-.1-1.2-2.4-1-1.2-2.7-1.1.1-.2-1.3-1-1.4-.5-.1-.4-2.1.1-2.4.8-.7 0-1.2 1.1-1.8 1.7-.9-.4-1.4-.9-1.9.1.3.2.5.2.8-1.2.2-1.5-1.4-1.9-2.1-.5.6-.3 1.2.3 1.4-.5.5-2.2 1.7-2.5.7-1.2 2-.9-1-1.3-1.4-.5-.4-2.5.4-1.1-1.1-.2-.1-.5-.2-.8-.2-.2.5-.1 1 .1 1.4-.9-.1-1-1.8-1.9-1.6.5-.5.4-1-.2-1.2-.3.5-.7 1.2-.6.2-.4 1.1 1.2 1.7.4 2.8-.4.5-1.2-.7-1.6-.6.2.6-.2 1.2-.8 1.5.1-.6-1.6-.9-2.4-1.2-1.1-.5-2.9 1-3.2-.2-.3.1-.5.3-.8.4-.1-1.2-1.8-1.1-2.5-1.8-.3-.3.4-.6-.1-.8-.7-.2-1.5-1.3-2.4-.6-.3-1.9-1.1-3.4-.8-5.3 1.7.6 1.7-3.8-1.1-2.6-1.1.5-1.5-.4-2.3-.8-.9-.5-1.7.9-2.6.1-1.4-1.2-2.8-1.9-3.8-3.6-.7 1.2-2.2 1.4-3.3 2.1-.7.5.3 1.5-.6 2.2-.7.6-4.8 2.4-4.1.4-1.3.1-2.1 3.1-2.6 2.8-.6-.4-1.1-1.1-1.5-1.6-1-1.2-1.1.1-1.6 1-1.2-1.6-1.3-2-2.7.1-1.3 1.9-2.5-.1-3.3-.9-1.9-1.7-2.6.8-3.7 2.1-.6.7-1.1-.1-1.7-.1-.4 0-.8.1-1.2.2-.5.1-.3-.7-.7-.7-1.9 0-1.6 3.6-1.2 4.3.4.8 1 1.5 1.1 2.5.2.3.3.6.4.9 0 .5-.5 1-.6 1.5-.1.6.9 1.7.3 2.2-.8.7-1.4-.8-2.4-.6-1.5.4-1.6.5-2-.9-.3-1.2-.9-2.4-.8-3.7-1.4.9-3.9 3.4-5.4 2.4-.7-.5-1.1.7-1.7.5-.7-.1-.6-1.6-.3-2.1-2.6 0-.3-2.5-1.6-3.2-1.4-.7-3.2-.6-4.8-.4-2.1.3 0-2.6.2-3.3.3-1-.4-4 1.5-3.9-.6-1.2-1.5-1.3-3-1.3-2 0-1.6-1.6-2.2-2.8-.1-.1-.6-.9-.5-1 .8-1-.5-1.6-.8-2.4-.5-1.2 1.3-1.7 1.2-2.9-2 1.3-4-.4-6 .7-.5.2-3.3 2.2-3.7 1.8-.8-.7.3-1.4.7-2.1.4-.7.1-1.8-.2-2.4-.5-.9-.9-.8-.9-2.1 0-1 .5-1.7 1.6-1.7-.6-1.3.3-2.3.4-3.6 1.5 1.5 2.2-2.4 2.5-3 2.5.2.9-.9 2.7-2.1.3-.2 1.1.3 1.3-.1.3-.9-.8-1.5-1-2.3 1.4.6 1.1-2.1 1.2-2.8.3-1.6.1-3.4-.1-4.9-.2-1.2-.2-2.4-.2-3.7 0-1.4-.8-1.7-2.1-2.3.2.6-.2 1-.9 1.2-.3-1-1.1-2.1-1.2-3.2-.1-1 .1-1.8-.5-2.5-1.1-1.2-3.1-1.7-4.1-2.9-.2 1-.9 3.8-2.2 2.3-.7-.9-1.4-.1-2.2-.5-.7-.4-1.6-1.1-2.5-1.1-.9 0-1.4 1.1-2.3.7-.6-.3.1-1.2.4-1.5.5-.6 1.2-1.1 1.5-1.8.5-1-1.3-1.4-.7-2.7-.7.2-1.6 1.1-2.3.9-1.6-.4.6-1.9 1.2-2.1-.5-.6-1.3-1.4-1.9-1.9-.6-.5-3.2 1.1-3.9 1.5-.7.4-.6 1.4-1.3 1.7-.6.4-1.5-.1-1.9-.3-.2-.1-2.1-1.4-1.4-.3-.6-.4-1.5-1.2-2.2-1.4-.8-.2-1.6.5-2.5.9-1.3.7-2.2 1.9-3.3 2.9-1.4 1.2-2.4 1.2-4 1.5-1.8.3-1.3 1.4-2.3 2.4-.9.9-2.6 1.4-3.2 2.5-.7 1.4-.9 2.5-3 2.6-1.3 0-2.4.8-3.7.7-.9-.1-1.6-.2-1.4-1.2.2-.9-2.1-1.6-2.9-1.7-1.2-.1-1.5 1.2-2.7.6-1.1-.6-2.3-.5-3.6-.6-1.3 0-.2-1.4-1.3-1.8-1.4-.4-2.7-.3-4.2.5-1.6.9-2.9 2.3-3.9 3.7-.8 1.1-2.2 2.8-2.5 4-2-1 0-3.3-.3-5-.5-2.7-3.5-.6-5.5-.4v.8c-1.4-.4-3.9.2-5.7.1-1.6 0-2.5-.6-3.9-1.4-.5-.3-1.3-.8-1.9-.5-.6.2-.4 1.1-1 1.2-.9.2-2.5-1.1-2.3-2-.2.2-.9 3.1-1.4 1.9-.5-1.2-2.1-2-2.3-3.4-.5 1.2-4.4.7-4.5-.3-.1-.5.7-1.5.3-2-.4-.5-2 .6-2.8.1-1.2-.8-3.9-1.7-4.2-3.2-.3-1.8-1.9-3.8-4.2-1.9-.8.7-2.6-2.3-2.9-2.7-.8-1.2-2.7-1.4-4.1-2.3-2.1-1.4-3.8-2.9-5.5-4.7-.6-.7-1.7-.6-2.6-.9-.9-.3-1.2.9-2.2.5-.2 2.6-1.8 3-3 1.3-1.1-1.5-2.7-2.2-4.6-2.7-.4-.1-1.4-.2-1.6-.6-.3-.5.7-1.4-.2-1.8-.7-.3-1.1-.4-1.6-1-.9-1-1.8-.3-2.9-.6-1.7-.5-2.1-2.4-3-3.5-1-1.2-3 2.1-3.3-.2-.1-.8.4-1.6 0-2.4-.2-.7-.3-1.3-.3-2.2 0-1-.8-1.5-1.4-2.1-.8-.9-.3-2.2-1-3.1 2.4-1.5 2.6-.4 3.5 1 .4.7 1.3.8 1.9 0 .8-.9 1.8-.9 2.6-1.7 1-1 .2-2-.3-2.7-.4-.5.2-2.1-.4-2.2-2.3-.7-2.2-.5-3.6-2.2-1.6-1.9-1.1-5.3-.9-5.8.1-.2 2.9-1 .8-1.7-1.8-.6-2.9-2-4.5-3-2.1-1.4-.5-4.7-4.1-7-2.5.1-9.8-.4-9.1-3.7-.8.2-2.1 1.3-2.7.6-.5-.5-1.9-1.4-2-2.1-.1-.6.2-1.8.2-2.5 0-1-.4-1.8-1-2.5-.9-1-2.9-.4-3.4-1.4-.5-1.1-2.6-2.4-4-.8-.3-1.7-2.8-.5-3.2-1.7-.5-1.7 2.7-1 3.2-1 2.1-.3 1.8-2.1.8-2.7-.8-.6-.3-.8-.1-1.7.1-.4-.3-1.6-.4-2-.1-.6-.9-.7-.9-1.3-.1-.8.4-1.6.5-2.4.1-1.5-2.4-1.9-3.7-2.1-1.6-.4-3.4 1.8-4.3.2-.3-.5-1.5-2.8.3-2.8-.4-.7-1-1.3-1.5-1.9-.4-.8.1-1.9.1-2.6" fill="#D3D3D3"/></g><g stroke="#7C7C7A" stroke-width=".5" fill="#FAD749" fill-rule="nonzero"><path d="M99.6 200.3c.4-.5.4-1.5.7-2.2.5-1.1 1.5 1.2 2 1.5.7.4 1.3.1 2 .3.7.2.7 1 1 1.4.6.9 2.4.7 1.8 2.6-.3.9-1.6 3.4.7 2.9 1-.2 1.3-1.9 2.5-2.1 1-.2 1.3 1.8 2.2 1.4.8-.3 2-3.5 2-4.3.9.3 1.8.4 2.3 1.2.6.8.8 1.8 1.6 2.5 2 1.7 3.8 3.2 4.9 5.6 1.1 2.4 1.9 4.9 1.7 7.7-.1 1.1-.3 2.3-.5 3.3-.3 1.5-.1 1.6.3 2.9.6 2-.7 4.4.4 6.4.9 1.6 2.9 2.4 3.4 4.3.5 2.2 2 4.1 2.5 6.4.8 3-2.7 1.4-1.1.3-.6 0-1.1-.3-1.4-.9.1.2.7 2.2-.2 1.6-.8-.6-2.8.7-3.6 1.1-.8-2.6-4-3.4-6-5-.5-.4-.9-.9-1.3-1.4-.7-.7-1.9-.7-2.8-1.3-.8-.6-2.1-1.9-2.6-2.8-.3-.6-.8-.7-1.4-.8-.9-.2-1.3-1.1-2-1.6s-.5-.6-.1-1.2c.5-.6-.1-1.8-.3-2.4-.7-1.8-2.7-3-3.3-4.8-.3-.9-2.2-1.3 0-2-1.3.2-2.5-2.5-2.1-3.4.7-1.8-.2-3.8-1.2-5.1-.9-1.2-.5-4.9-.4-6.4.3-2-1-3.8-1.7-5.7M233.8 219.9c0-.3-.1-.5-.1-.8.7-.1 1.2.4 1.8.7-.6 0-1.2 0-1.7.1M185 234.3c.1.5.1.7.7.8-.4-1 .2-2.3-.7-3-.2.7 0 1.4 0 2.2M214.5 210.2c.7.3.8 0 .3-.7-.1.3-.2.5-.3.7M227.6 193.7c.4-.2.8-.6.9-1.1-.6.2-1 .5-.9 1.1M229.4 192.8c-.3.5-.3.9 0 1.4 1.6-.6 1-2.4 0-1.4M231.2 198.2c.3.1.6 0 .8-.2-.2.1-.5.1-.8.2M239.1 215.5c.4.4.9.5 1.4.2-.4-.1-.9-.2-1.4-.2M142.1 231.3c.7-.4.8-1.3-.1-1.5.2.5.2 1 .1 1.5M165.7 230.8c.2.2.5.2.8 0-.1-.3-.2-.5-.3-.7-.2.2-.3.5-.5.7M97.5 200c-.4.4-.8.7-1.3.9.8 1.5 2.5.1 1.3-.9"/><path d="M101 208.8c-.9-.4-1 .4-1 1.1.1 1.3 1.1-.2 1-1.1M130.5 231.1c-.3.2-.5.4-.5.8.9.2 1.1-.1.5-.8M172.2 238c-.3 2.6 5.3 4.8 5.2 2.4 0 .7 1 .7 1 1-.2.8 1.4 1.2 2 1.4.9.3 1.5-.4 2.3.5.7.8 1.8.9 2.8 1-.7-1-2.2-.1-2.6-1.6-.2-1 .5-1.8 1.3-.9-.8-.5-.9-1.3-.6-2.1.2-.4.3-.8.4-1.2.3-1 .8-.6 1.4-1.2-.5.1-1 .1-1.5.1.7-.7.1-1.5.3-2.2.8 0 1.4.4 2.1.4-2.5-2 1.5-4.3 3.1-4.5 2.6-.4 6.3-.9 8.5-2.5 1.9-1.3 2.1-4 3.8-5.5 2.2-1.9 3.5-4.1 3.8-7 1.5 0 1.8.8 2.3 2 .3.7 2 2.7 2.8 2.7 1.4.1 1.9-2.8 1.3-3.6-1.2-1.9.4-2.6 1.5-3.7.3 1.8-.2 4.4 2.1 4.9.2-1.4-.1-3-.8-4.2-.8-1.6.9-.6 1.5-1.1.5-.4 2.4-1.8 1-2.4-2.1-.8.1-2.4.8-3.4-.3 1.8 2.1-.2 2.5-.9.7-1.2 1-2.5 1.6-3.7.4-.7.7-.4 1.1-.8.5-.5.9-1.4 1.4-2.1 1.1-1.4 1.1-3.3 2.5-4.6.9 1.2-.3 2.4.1 3.7.9-.5 1.8-3.7 2.8-3.5.1 0 2.2 5.6 2.7 3.1.1 1 2 1.5 1.8 2.8-.1.8-1.3.5-1.1 1.7.3 1.3.1 1.7-1.3 2.1.8-.5 1.7.1 2.5-.4.6-.3 1-1.2 1.9-.9 1.6.7 0 1.8-.8 2.1.1 1.6 1.7.1 2.3-.3 1.3-.8 2.7 1.1 2.8 2.2.9-.9 2.3.7 2.7 1.4.8-1 2.7-.2 2.7.9-.1 1.7-3.8 3-5.1 2.9-.9-.1-4.3-1.3-3.4 1.3.4 1 2.7 1.4 2.4 2.6.7-.4 1.3.2.8.9s-1.5.6-2.2.6c-2.3.2-3.2.8-5.1-.9-.2.5.1 1.6-.4 2-.8.5-1.9-.6-2.4-1-1.7-1.1-4.1.6-5.6-.9-.2 1.7-1.3.1-2.1.4-.6.2-.8-.4-1.3.3-.5.8-1.2-.3-1.8-.5-.2.8-.9 1-1.2 1.7-.5.8-.7 2-.9 2.9-.1.7-.3 1.6-.1 2.3.3 1.1-.1 1.3-.4 2.3-.5 1.7 0 2.5-1.9 2.5-2.1 0-1 3.7-.4 4.4-1.2.4-4.4 2.4-3 3.9.8.9-2.1 3.9-1.9 5.3-1.2.1-1.2-.8-2.5 0-.9.5-1.7-.3-2.6.1-1.1.6-1.4 1.6-3 1.4-1-.2-3.1-.9-3.6-1.8-.8-1.3-5.5-1.1-6.3.4-.4.7-.6 1.6-.9 2.4.1-.2-2.3 1.3-2.2 1.2-.7.1-1.4.2-2.1.2-.8.1-1.5-.5-2.4-.6-1.5-.1-2.5.7-3.7 1.3-1.7.8-1.8-.6-3.2-1-.4-.1-1.4-1.3-1.8-1.6-.5-.5-.7-1.2-1.3-1.6-.5-.5-1.2-.4-1.5-1.1-.3-.6-.2-2.1-.8-2.5-1.4-.4-.3-.9-.1-1.9M247.3 215.8c.4-.7.4-1.6 0-2.3.1.7 0 1.5 0 2.3"/></g><g stroke="#7C7C7A" stroke-width=".5" fill="#043D9D" fill-rule="nonzero"><path d="M289.7 147.2c.2.2.3.2.4-.1-.1 0-.3 0-.4.1M228.8 188.4c.5-.8.6-1.7-.2-2.3-.3.8-.3 1.6.2 2.3M240.4 195.6c.1-.8-.1-1-.8-.5.2.2.5.4.8.5M250.4 212.2c.5-.3 3.2-1.7 3.1-2-.4-1.2-1.2-.1-1.8.4-.9.6-2.1.6-1.3 1.6M255.7 200.8c-.2.4-.2.8 0 1.2.4-.5.4-.8 0-1.2M261.4 205.3c2-1-1-1.9-1.9-1.8-1 .2-1 1.5-.7 1.4.6-.4 2.3-.6 2.6.4M265.9 199.3c.1.9.9 1.4 1.7 1 .9-.4.9-1.3 1.4-1.9-.7.1-1.2-.5-1.8-.6-.7-.1-1.3.7-1.9.9.1.1.3.4.6.6M265 203.4c.2.6.5.7 1.1.5-.3-.2-.7-.4-1.1-.5M273.3 193c2.7-1.1-2.1-1.8 0 0M278.9 177.3c1.3-.1.8-1.2.3-1.8-.7.3-1.2 1.3-.3 1.8M280.2 173.4c.7 0 .9-.3.8-.7-.6-.1-.8.1-.8.7M281.6 167.3c.2-.2.4-.5.6-.7-.7 0-.6.2-.6.7M288 177.4c.4-.8-.2-1.9-1.1-1.2.1.6.5 1 1.1 1.2M292.2 209.4c.2.1.5.2.7.1-.2-.3-.4-.3-.7-.1M295.6 196.3c.3-.8.1-1.5 0-2.3-1.2.3-.2 1.5 0 2.3M230.6 181.6c-.4.7-.3 1.5-.6 2.2 2.1-2.4 5-3.2 6.9-6 .7-1 6.5-4.6 4.6-6.3 1.2.3.4-.5.5-1.2.1-.9 1.5-1 2.2-1.1 1-.1 1.3-.5 1.5-1.5.3-1.3 1.3-1 2.2-1.6 1.9-1.2.7-2.3.1-3.7-.7-1.6 1-3.9-.3-5.2-1 .8-.2 3.7-1.3 2.5.3.6.9 2.3.9 3-.7-.4-1.5-.9-1.7-1.7-.1.9.3 1.6.5 2.5.2.8-1.1 3.4-1.4 1.6-.1.6-.4.7-1 .9-.4.1-.3 1.2-.4 1.5-.2.3-.8-.1-1 .2-.3.5.4.9-.1 1.4-.1-1.7-.9.3-1.2.7-.5.8-.9 1.5-1.6 2.2-1 1-1.6 2.4-2.7 3.3-.5.4-.9.2-1.4.5-.5.4-.6 1-1.1 1.3-1.6 1.1-3 3-3.6 4.5M250.1 157.5c.3-.8 0-.9-.8-.4.3.1.5.2.8.4M251.4 149.8c-.2-.2-.4-.4-.7-.6-1.5 2.4 1.6 2.8 3.3 2.8.1-.4-.1-1-.5-1.3-.8-.4-1.3-.2-2.1-.9M252.2 136.1c.2.7.9 1.1 1.4 1.5.1-.8-.6-1.4-1.4-1.5M251.4 152.7c-.3.1-.6.1-1 .2.1.9 1.1 1 1 1.9.7-.5.1-1.5 0-2.1M251.3 164.7c0-1.3-1.7-.1-1.8.7.9.4.9-.9 1.8-.7M253.8 139.5c.1.4 1.5 1.7 1.9 2 1.5 1.3.9 2.9 2 4.3.5.6 3.3 6.9 4.5 3.2.2-.8.8-1.4 1-2.2.2-.8-.4-1.5-.4-2.2.2-1.9-.6-3-1.7-4.3-.9-1.1-6.1-2.1-7.3-.8M253.4 153.8c0-.5 0-1-.1-1.5-.3.5-.2 1 .1 1.5M250 116.3c-.6 1.6.8 1.4.8 2.3.1 1.4-.1 3.2.5 4.4.5 1.2.7 2.2.8 3.5 0 .8 1.1 2.5 1.1.8 1.3.5.2 3.1 1.7 3.6 2.2.7.8-2.3 1-3.2.6.2 5.1 1.8 3.1 3.1-.8.5-1.5 1.1-2.2 1.7-1.2.9-.4 2.8-.4 4 .6-.1.9-.4.7-1 1.3 0 1.8.7 1.4 2 .6-1.5 1.4-.2 1 .6.8-.1 1.8.3 2.5-.3.6-.5.9-1.3 1.5-1.8.2-.1 1.4-1 1.6-.8.8.7 2 1.1 2.7 1.9 1 1 2.9 2.5 3 4 0 .5.9 1.3 1.2.4.1-.5 0-.9-.2-1.4-.1-.2-1-1.7-.4-1.5-1.1-.7-.5-2.3-1.2-3.2 1.6-.2 2.8 1.6 3.4 2.7.8 1.4 2.5 1.5 3.2 3.3.2.5-.5 1.4.2 1.5.7.2 1.3.7 1.9 1 .5.3.9 1 1.6.7.5-.2 1.2-.9 1.8-.8-.2.9-1.9 1.3-1.3 2.3.1.2 1.3 2.1 1.7 1.2.7-1.5.7-6.6-2.3-4.7-.2-.6.1-1 .1-1.6-.1-.8-1-1.8-1.6-2.2-1.6-1 2.2-2 3.1-1.4 0-1.1-1.7-1.5-2.6-1.6-1.5-.1-1.5-1.4-2.8-1.6-.4 1 1.2 2.5-.4 3-1.2.4-1.2-2.3-1.6-3.2-.8-1.8-5-3.3-5.3 0-.1-.3-.3-.6-.5-.9-1.1.9.8 1.5.2 2.1-1.1 1.1-2.8-.4-3.4-1.1-.5-.6-2.6-5.1-.6-5.3-1.6-1.2-3-4.8-1.9-6.8.7-1.4.2-2.7.9-3.9.8-1.5 2.9-1.6 4.1-2.7-.2.4-.4.8-.5 1.2 1-1 .9-2.1 1.5-3.3.9-1.8 2-3.7 1.9-5.6-1.1.5-.4-.9-.7-1.4-.7-1.3-1.8-1.3-2.1-3.1-.3-1.8-.1-3.2.9-4.9.5-.9-.3-3.3-1.3-2-.4.5-.6 1.6-1.5 1.5-.5-.1-1.6-.7-2.1-.1-.2-.6-.7-1-1.2-1.4-1-.7-2.3-1.7-3.7-1.3-.6.2-1.2-.1-1.7-.2-.5 0-.2.7-.7.7-1.4 0-.6.8-.8 1.6-.3 1.5-1 3.3-1.4 4.8-.8 2.7 1 5.1 0 8-.8 2.3-.1 4.1-.1 6.2 0 2.7-3.6-.9-3.8-2-1 .5-1.1 1.4-.8 2.2M261.7 88.4c.2.5.6.8 1.2.9.4-.8-.4-1.3-1.2-.9M261.5 92.9c.3 0 .5 0 .8-.1-.4-.2-.5-.3-.8.1M266.4 79.9c.3-.4.5-.7.6-1.2-.5.3-.7.7-.6 1.2M265.5 93.1c.6-.4.9-.9.8-1.5-.5.4-.8.9-.8 1.5"/><path d="M265.5 126.1c.1.9.4 2.6 1.3 3 .6-1.1.7-4.5-1.3-3M268.1 134.8c-.1-.9-1.2-1.5-1.9-1.7.4.8 1.2 1.2 1.9 1.7M265.3 139.6c-.2 1.6 2.1 2.8 2.5.5.2-1.2-2-1.8-2.5-.5M268.7 128.6c.3-.7.1-.9-.6-.6l.6.6M265.6 154.1c2.3.4 1.6 2.2 1.3 4-.2 1.3-.1 2.2-.5 3.5-.5 1.4.1 2.6-.5 4 1.3.3 2.4-2 3.9-2 1 0 2.9-1.4 2.7-2.3-.2-.8 2.9-1.1 2.6-2.3-.4-1.6 1-3.7-1.8-1.9.7-.7-.1-1.6-.9-1.4-.7.2-1.2 1-1.8.4-.6-.7-1-1.5-1.9-1.9-.8-.4-1.9-.6-2.4-1.4-.3.2-.6.7-.7 1.3M266.8 147.7c-.2 1.3-.9 2.4 0 3.5.3-1.5.6-3 1.1-4.4.3-.8-1.7-.2-1.1.9M269.3 128.9c.2 0 .5 0 .7-.1-.2 0-.5.1-.7.1M268.8 147.7c.6.1.6-.1-.1-.7 0 .3 0 .5.1.7M266.2 194c-.5 2 2.2 2.9 2.6.5.1-.9.7-3.3 1.3-3.5.5-.2 1.1-3.4 2.3-2.4.8.7.4 2.1 1 2.9.3-1.3.7-.7 1 0 .3-.8.2-1.9 1.2-2.2.4.5.3 1.1-.3 1.6 1 0 1.5 1.3 2.5 1.1-.3-.4-.6-1-.6-1.6 0-.3.7-.3.8-.6.3-.8-.6-.6.4-1.4.6-.5 1.2.4 1.7.6 1.5 1 3 1.3 3.4 3.4.2 1.1-1.4 2.2-1.6 3.4-.2 1.2.4 2.9.5 4.1.3 1.9 1.8 3 3.4 3.8.7.4 3.2 2.1 4 1.4.7-.6.4-1.9 1.6-1.8.1 0-.6 5.6 1.2 4.4 1.2-.8 2.4-3.6 2.4-5-.1-1.9-1.5-2.7-2.2-4.3-.4-.9 2.2-6.2 3-5.8.6.3 1.8 3.3 2 4 .2.7 0 1.4 0 2.2 0 1.1.8 1.8.9 2.8.1-1.7 1-3.8-.2-5.3.6-.3 1.1.1 1.3.6-1-1 .6-1.9 1.2-2.6 1.1-1.4.5-3.4.3-4.9-.1-1.2-1.7-1.2-1-2.5.4-.8.6-2.7-.8-2.1 2.5-2-1.8-2.6-1.6-3.7.1-.6 1.3-.9 1.5-1.5.5-1.1-.7-1.5-.9-2.3-.1-.4.4-2.3-.3-1.9-.9.5-1.1.1-1.5-.6-.5-.8.1-1.3-1.2-1.7-1.4-.4-1.6-1.7-2.8-2.2-.9 1.6.3 3.8.7 5.3.1.4.5 1.6-.1 1.8-.9.2-2 0-2.3-.9-.8 2.1-.1 2.3-2 .9-1.8-1.3-.5 3.8-2.1 4-1 .1-1.1-1.1-2.1-.7-1 .4-.8 2.2-1.2 3-.4 1-1.8.5-2.6 1.1-.4.3-1.2 1.1-1.8 1.2-.6 0 .8-.9.7-.8.8-.5 1-.8.8-1.7-.1-.7-.9-4.3-2.2-2.6-.1-.6-.5-1.3-1.2-1.3.3 2-2.1 1.2-2.8 2.3-.8 1.3-.3 2.4-1.9 3-1.6.5-4 .1-4.9 2.1-.4.9-.2 1.9-.4 2.8.2 1.4-.5 2.6-1.1 3.6M270.7 147.7c-.3.2-.5.4-.8.6.6.5 1.1 1 1.7 1.5.8-.9.3-2.1-.9-2.1M271.3 174.3c.7.5 1.6.5 2.2 1.2.4.6.1 1.5.7 2 .8.7 1.9-.1 2.3-.8.8-1.3-.5-2.2-.8-3.3-.5-2.1.5-5.2 1.3-7.2.7-1.6 2.5-3.6.5-4.8-.7-.4-1.6-.5-2.4-.2-1.4.6-.9 1.7-1.4 2.8-.3.7-1 .9-.8 1.7.2.9.5 1.9.1 2.9-.6 1.4-3.2.5-3.3 2.1-.1 1.2.9 2.6 1.6 3.6M270.7 165.9c.7-.3 2.4-2.3 1.1-2.6-1-.3-1.5 2-1.1 2.6M277.2 146.1c-.7-1.3-1.5-3.2-2.9-3.8-1 1.2 2.4 3 2.9 3.8M275.7 152.1c-.1.3-.1.5-.2.8 1.1-.7 2.1-3.4 3.2-2 .4.6.9 1.1 1.3 1.7.5.8 1.6.8 2.1 1.6 1.3-2.1-1.5-3.5-2.3-4.6-.4-.5-1-1.1-1.5-1.5-.3-.3-1.9-1.1-2.3-1.1.2.7-.2 2.5 0 2.9.8 1-.1 1.1-.3 2.2M279.4 147.7c.2.5.5 1 .9 1.4 0-1-.2-2.2-1.1-2.7-.2.5-.1 1 .2 1.3"/><path d="M277.4 169.4c0 1.5-.6 3-.8 4.5 2 .5 1.9-4.4 2.8-5.3 1.1-1.2 2.3-2.2 2.6-3.9.4-2 0-4 .3-5.9-1 .2-1.6 3.3-1.9 4.1-.7 2.2-2.3 4.2-3 6.5M282.1 141.5c.2-.5 0-.6-.7-.3.3.1.5.2.7.3M283.6 139c2-1.3 2.1-4.1-.2-4.6-1 1.4-.8 3.5.2 4.6M283.6 142c-.2-.2-.5-.2-.8-.1.3 0 .6 0 .8.1M280.9 171.9c-.3 2.8 4.9-.4 5.5-.1-.3-1.4-.2-4.3-2.8-3.6-.9.2-3.9 2.9-2.7 3.7M284.2 147.7c.4 1.5.9 2.8 2.1 3.9.7.6 2.6 2.9 3.6 2.5-.4.7-.5 1.7-1.4 1.9.4.4.7.8.9 1.3-.7-.8-1.2.2-1.9.6-1 .6-2.4-1-2.7-1.7-.8.9.1 5.2 1.1 5.6 0-1.9 2 .6 2 1.5-.1 2.5-.7 4.4 1.9 5.7-.1-.8-.4-1.5-.4-2.2.4.5 1.9.5 2.1-.3.1-.4-.8-2.5-1-3-.5-1-.7-.9-.7-2.3 0-.9.4-2.3-.3-3 .6-.2 2.1 1.5 2.2 1.5.7-.8 3.1.2 3.8.6-.5-.6-.8-1.5-1.6-1.8 1.2-.9-.8-3.4-.8-4.5s.6-2 .1-3c-.3-.6 1.1-.4 0-1.1-.6-.4-1.4-.1-1.3-1.1.2-1.3-.9-1.3-1.8-1.5-1-.2-1.3-.2-2.3.1-1.3.6-2.5-.5-3.6.3"/><path d="M285.7 156.7c1.3.2.6-2.8-1-1.9.3.7.4 1.5 1 1.9M291.1 169.4c.3.2.5.5.8.7-.1-.7-.4-1.8-1.4-1.5.2.3.4.6.6.8M294 169.4c.6.4.6 1 .1 1.5 1.1.2.9-1.4.8-2-.1-.6-.5-1.2-.5-1.8-.1-.6.4-1 .2-1.6-1.5.6-.4 1.8-1.3 2.7.5.2.9.6.7 1.2M296.9 173.2c.5-.5.2-1.2-.3-1.5-.1.6 0 1.1.3 1.5M297.5 169.4c-.4.5-.8 2.5.3 2.3 1.3-.3.5-2.1-.3-2.3M284.3 164.4c0-.3 0-.5-.1-.8.9.1.9.4.1.8M289.4 157.4c.1.3.1.6 0 .9 0-.3-.1-.6 0-.9M278.9 160.5c-.3-2.8 3.4-1.4 0 0"/></g><g stroke="#7C7C7A" stroke-width=".5" fill="#EC3223" fill-rule="nonzero"><path d="M129.2 165.6c-.3.5-.8.7-1.4.7.9.7 1 2 1.7 3-.3-1.3.8-2.7-.3-3.7M121.7 157.2h-.4c.1.3.3.6.5.8 0-.2-.1-.5-.1-.8M123.5 163.6c.4-.6.2-.8-.6-.7.2.2.4.4.6.7"/><path d="M116.5 140.8c.1-.8.1-1.5 0-2.2 2.4.1 3.8-3.4 4.7-5.1 1-1.9 5.1-3 6.6-2 .8.5 2.1.3 3 0 1.2-.4 2 .3 3.3-.2 2.3-.9 3.2 2.4 4.4.5-.2 3 3.7.9 4.6 2.9.5 1 2.5 1 2.5-.5 0-.8-1.7-1.8-.5-2.6.5-.3.9.3 1.1-.4.2-.6.7-.4 1.2-.4.6-.1.6-.9 1.1-.9.7-.1 1.2.9 1.7 1.2 1.9 1.5 5-.7 6.2-2.4-.1.6 0 1.2-.3 1.7-.3.6-1.2.9-1.1 1.6.1.7-.1 1.5 0 2.2.1.8.6 1.6.8 2.4.5 1.8 1.5 2.5.7 4.7-.4 1-1 1.9-.7 2.9.2.8.7 1.5.7 2.4 0 .8-.5 2-.9 2.7-.5 1-.7-.3-1.5.1-1 .5-1.7 1.5-2.7 2-1.4.8-2.4.7-3.9 1.1.6.8-.1 1.8.3 2.6-.8-.2-2.8-1.6-3.6-.6-.5.7-1.4.8-1.3 1.6.1.9.3 1.9.7 2.7.5.9 2.1 1 2.2 2.3-1 .1-.2.8-.3 1.6-.7-.2-1.4-.2-2-.6-.5-.3-.6-1.4-1.4-1.2-1.5.3-3.6 1.7-4.8.4-.8.8 0 1.9-1.1 2.8-1 1-1.9.5-3 .9-.9.3-1 .9-2 .4-1-.4-3-.7-3.4-1.7.2 1.1-1.4 1.8-2.1 1.1-.9-.9 0-1.1.7-1.8.8-.7.1-2.7-.5-3.2-1.1-.9-1.4 1.5-1.7 2.1-.7-.6-1.2.3-1.8 0-1-.5-.2-2.1-.4-2.9-.2-.7.7-1.8-.1-2.3-.5-.4-1.5-1.7-.2-1.9-.5-.3-1 0-1.1.6.3-1.2-.7-2.3-1-3.4-.4-1.2.4-2.9-.3-3.9-1.1-2.4-2.1-4.6-2.8-7.3"/></g><path d="M99.3 79.8c.5-1.2.3-2.8 1.6-3.7.7-.5 2.4.1 2.6-1-1.6.9 0-1.8.2-2.2.4-.8.5-1.2 1.4-1.6.8-.3 2.3-1.1 2.3-2.1 1.2.7-.4 4 1.9 3.1 1.4-.5 1.3.1 2.4.5 1.5.6.4-1.3.3-1.4-.2-1 .5-1.7.6-2.6 0-.9-.6-1.8-1.1-2.5-.5-.8-.9-1.6-.8-2.6 0-.2 1.2-2.8 1.6-2.3.4.5.2.8 1.2.6 1.6-.4 1.6.7 2.3 1.5.8.9 1.7 1.7 2.5 2.6.6.7.3 2.1 1.3 2.4.5-.4.7-.9.5-1.5.1.9 1.2.7 1.2 1.7.1 1-.8 2.2-.6 3.3.4 3.4 4 3.5 6.3 5.1.8-.8.7-1.6 1.9-2.1 1.4-.5 2.4 0 3.4.7.6.5 1.4 1 1.4 1.8s-1.4.7-1.7 1.5c.6.3 1.9.1 2.1.9.1.7.6.6 1.1.9 2 1.2 1.2 1.4-.2 3 1.4.4-1.7 2.2-2.8 2-.3 0-2.8-.8-3-.3-.3.5.7 1.4.4 2.3-.9 0-1.9.9-.7 1.3 1.9.6 3.8 2.5 5.4 3.7.6.5 4 .6 3.7 1.8-.2.9-.8 1.2-.1 2.1.5.7 1.5 1.7 2.2 1.7.8 0 1.1 1.3 1.3 1.9.5 1.2 1.2 2.1 2.1 3.1.5.6 2.1 3.2 3 3 .8-.2 1.2 2.4 1.9 2.7.9.4.3 2.3.8 3.1.2.3.5 1.2.9 1.3.4.1.9-.4 1.3-.1.8.5.4 1.3 1.5 1.6 1 .2 1.9 1.8 3 2.2-.5.9-1.7 1.2-2.1 2.1-.5 1 2.1 2.2 2.4 2.9.5 1.1 1.7 1.1.9 2.6-.2.5-.8 1-.9 1.5-.1.5.4.8.4 1.4-.2 1.6-.6 1.9-2 2.2-1.2.3-1.7 1.8-3.2 1.8-1.5 0-1.6-2-2.5-2.1-.6-.1-.4.8-.8.9-.4.1-.9.2-1.4.3-.5.1-2.1.9-1.8 1.5.4.8 1.4 1.8.4 2.7-1.2 1.2-3.2-2.1-4.9-1.5-1 .3-2.3-1.3-1.3-2.1.8-.6 2.1-1.1 2.1-2.2 0-1 .6-2.4.5-3.3-.1-.6-1-.6-.9-1.3.1-.6.6-1.1.9-1.6-.3.1-.6.1-.8 0-.1-.8 2-1.9.9-3.1-.6-.7-3.2-1.5-1.3-2.6-2.7-1.1-5.3-3-5.4-6.2 0-2.6 1.3-6.1-1.2-7.7-2.5-1.6-3-5.4-6.1-6.1-.4-.1-5.6-1.6-4 .3-1.3.2-1.1 2-1.8 2.5-.2.2-1.5.2-2.1.7-.9.7-1.1-.1-1.6-.5-.9-.7-2.3-1.7-3.3-2-1.1-.3-1.4 1.9-2.6 1.1-.3 2-2.9 3.4-4.2 4.7-.6.6-1.3.3-1.8-.3-.6-.7.1-1.9.5-2.6.6-1.1.8-1.8.8-3 0-.7-.6-1.9-.4-2.5.2-.4.5-.7.8-1 .4-.6.1-.6.2-1.3.3-1.4.9-2.1.4-3.5-.7-1.8.7-4.6-2.6-3.8-.4 0-.7.1-.9.4-.4.7-.4.1-1 .2-1.1.2-1.5-.2-1.9-1.2-.5-1.4 1.7-3.1 1-4.2-.3-.4-1.1-1.8-1.5-2-.9-.4-1.2.6-2 .9-.5.1-.5-.1-.5-.4" stroke="#7C7C7A" stroke-width=".5" fill="#001085" fill-rule="nonzero"/><path d="M-53.6 5.2c.6-1.2 1.7-1.8 1.3-3-.2-.8 0-1.1.7-1.9.8-.9.1-1.6 1.1-2.5 1.4-1.3 2.9-3.8 4.5-2.5.3.2.5 1.2 1.1.8 1-.6 1.4-1.8 1.5-2.7.9.3 1.3-.7 1.9-.5 1 .3 2.6-.1 3.1 1 1 1.9 3.9 3.7 5.8 4.8 1.6.9 2.8 1 3.8 2.4s1.5 2.8 3.5 1.8c1-.5 2-.2 2.6.5.7.7.4 2.2 1.1 2.7 1.3.8 3.1 2.7 4.8 2.5.9-.1 1.5-.4 1.9.3.3.6-1 1-.2 1.8.6.5 3.6 1.6 4.2.1.2 1.4 1.7 2 2.2 3.3.6 1.6 1.1-1.5 1.5-1.8-.1.9 1.8 2.9 2.7 1.6.3-.5.4-1.3 1.1-.9.7.4 1.1.6 1.9.8.8.3 1.1.8 1.8 1.2.6.3 1.5-.1 2.2.2 1.4.7 3.6-.9 5-.3 1.4.6-.7 4.4-.8 5.6-.2 2.3 1.8 3.2.8 5.7-.7 2.1-2.3 1.1-4.3 1.3-1.5.2-3.7.6-3.7-1.4-1.4.5-2.1 1.6-3.5.7-.7-.4-3.9-1.6-4.8-1.3-1.7.6-1.3-.2-2-1-1.1-1.3-2.2.3-3.6 0-1-.2-1.6-1.6-2.7-1.9-1.5-.4-1.2-.9-1.6-2.2-.4-1.2-6.6-3.1-6.2-1.1-.8-.4-1.8-1.3-2.9-.9-1.5.7-1.9.8-3.3.1-.8-.4-2-.4-2.3-1.4-.3-1.4-1.6-.4-2.7-1.1-1-.6-1.7-1.2-3-1.4-1.8-.2-2.7-1.2-4.2-1.9-1.3-.6-1.8-2-3-2.8-1.2-.8-2.7-1.4-3.9-2.2-.2 1.3-1.5.1-2.3-.4-.5-.3-1.8-1.2-1.1-2.1M12.5 21.1c.1-.6.5-.6.9-.9.7-.5.3-1.5 1-1.9 1.5-.9 2.5-3.1 3.6-4.4 1.3-1.4 3-2.7 4.9-2.7.5 0 2 .2 2.1.7.1.5-.5 1.1.1 1.4 1.1.4 2.5.2 3.7.2.7 0 .9 1.1 1.8.4.8-.6 1-.8 1.9-.5 1.2.4 2.6.7 2.3 2.1-.4 1.6-.7 3.2 1.6 3.1 2.1-.1 1.1 1.7 1 2.9 0 .5.9 1.8.3 2.1-1.5.7-2.9.8-4.1.3-.5-.2-1.9.5-2.6.6-1 .1-2.1.1-3.1.1-1.5 0-2.4-1.4-4-.6-1.2.6-3 1.7-4.3 1.2-1.1-.4-1.6-1.4-3.1-1.3-2.6-.1-2.3-1.9-4-2.8" stroke="#7C7C7A" stroke-width=".5" fill="#D3D3D3" fill-rule="nonzero"/><g fill="#BF4233" fill-rule="nonzero" stroke="#7C7C7A" stroke-width=".5"><path d="M290.4 335.8c.3 2.7.9 1.4 2.4.4 1.5-1 3.9-1.5 5.6-2.2 2.8-1.1 6.8-2.2 8.5-4.7 1-1.5-2-1.2-2.7-1-1.7.5-3.3.8-5.1 1.1-1.9.3-3.8.3-5.7.7-.7.2-1.8.1-2.4.6-.6.5-.7 1.5-1.3 2 1.7.8 1.4 1.4.7 2.8M281.6 337.3c1.3-1 2.8-1.6 4.4-2-.2 1.2-1.2 1.8-1.2 2.9l-.6-.9c-.7 1.1-1.8.3-2.6 0"/></g><g fill="#000" fill-rule="nonzero" stroke="#7C7C7A" stroke-width=".5"><path d="M206.3 216.2c2.9-.1 4-2.6 6.5-3.6 1.1-.4.5 1 .1 1.4-1.1.9-1.3 1-1.2 2.5 0 .1.5 5.6-1.2 4.4-.6-.5-2.1-1.5-2.5-2.2-.6-1-.2-2.2-1.7-2.5M213.4 215c-.1-1.3.5-.4.9-1.5 1 1.3 1.4 3.3 1.2 5-1.7-.4-2.1-2-2.1-3.5"/></g><path d="M210.1 223.4c7.7 0 8.3-12 .5-12-7.7-.1-8.2 12-.5 12" fill="none"/><path d="M127.3 243.6c-1 .3.5 2.1 1.8.4-.6-.3-1.2-.5-1.8-.4" stroke="#7C7C7A" stroke-width=".5" fill="#FDFCEC" fill-rule="nonzero"/><path d="M128.9 250.5c7.7 0 7.7-12 0-12-7.7-.1-7.7 12 0 12M298.6 339.1c7.8 0 6.8-12-1-12s-6.8 12 1 12" fill="none"/></g><text mask="url(#b)" font-family="AppleColorEmoji, Apple Color Emoji" font-size="12" fill="#000"><tspan x="128" y="151"></tspan></text><text mask="url(#b)" font-family="AppleColorEmoji, Apple Color Emoji" font-size="12" fill="#000"><tspan x="201" y="218"></tspan></text><text mask="url(#b)" font-family="AppleColorEmoji, Apple Color Emoji" font-size="12" fill="#000"><tspan x="269" y="160"></tspan></text><text mask="url(#b)" font-family="AppleColorEmoji, Apple Color Emoji" font-size="12" fill="#000"><tspan x="153" y="159"></tspan></text><text mask="url(#b)" font-family="AppleColorEmoji, Apple Color Emoji" font-size="12" fill="#000"><tspan x="104" y="123"></tspan></text><text mask="url(#b)" font-family="AppleColorEmoji, Apple Color Emoji" font-size="12" fill="#000"><tspan x="107" y="226"></tspan></text><text mask="url(#b)" font-family="AppleColorEmoji, Apple Color Emoji" font-size="12" fill="#000"><tspan x="125" y="254"></tspan></text><text mask="url(#b)" font-family="AppleColorEmoji, Apple Color Emoji" font-size="12" fill="#000"><tspan x="294" y="340"></tspan></text><text mask="url(#b)" font-family="AppleColorEmoji, Apple Color Emoji" font-size="12" fill="#000"><tspan x="111" y="89"></tspan></text><text mask="url(#b)" font-family="AppleColorEmoji, Apple Color Emoji" font-size="12" fill="#000"><tspan x="208" y="281"></tspan></text><text mask="url(#b)" font-family="AppleColorEmoji, Apple Color Emoji" font-size="12" fill="#000"><tspan x="61" y="78"></tspan></text><path d="M199 87l-59.5-2.5" stroke="#000" stroke-width="2" stroke-linecap="square" mask="url(#b)"/><path d="M150.416 81.956L139.5 84.5l10.665 3.45" stroke="#000" stroke-width="2" stroke-linecap="square"/><path d="M210 100l-61.5 39.5" stroke="#000" stroke-width="2" stroke-linecap="square" mask="url(#b)"/><path d="M155.966 131.14l-7.466 8.36 10.708-3.312" stroke="#000" stroke-width="2" stroke-linecap="square"/><path d="M227.084 100.729c-2.66 12.026-7.884 22.085-15.672 30.177-7.788 8.093-20.065 15.263-36.832 21.512" stroke="#000" stroke-width="2" stroke-linecap="square" mask="url(#b)"/><path d="M183.652 145.835l-9.072 6.583 11.168-.96" stroke="#000" stroke-width="2" stroke-linecap="square"/><path d="M324.775 109L290 143.266" stroke="#000" stroke-width="2" stroke-linecap="square" mask="url(#b)"/><path d="M295.587 133.549L290 143.266l9.799-5.444" stroke="#000" stroke-width="2" stroke-linecap="square"/><path d="M257 238l-30 32" stroke="#000" stroke-width="2" stroke-linecap="square" mask="url(#b)"/><path d="M232.198 260.07L227 270l9.575-5.827" stroke="#000" stroke-width="2" stroke-linecap="square"/><path d="M211 346l76-9" stroke="#000" stroke-width="2" stroke-linecap="square" mask="url(#b)"/><path d="M276.628 341.25L287 337l-11.078-1.71" stroke="#000" stroke-width="2" stroke-linecap="square"/><path d="M60 211l38.5 7.5" stroke="#000" stroke-width="2" stroke-linecap="square" mask="url(#b)"/><path d="M87.326 219.38l11.174-.88-10.027-5.01" stroke="#000" stroke-width="2" stroke-linecap="square"/><path d="M57 195.496C80.206 187.166 103.372 183 126.5 183s46.294 7.165 69.5 21.496" stroke="#000" stroke-width="2" stroke-linecap="square" mask="url(#b)"/><path d="M185.235 201.374L196 204.496l-7.613-8.227" stroke="#000" stroke-width="2" stroke-linecap="square"/><path d="M37 222c10.697 15.598 21.293 25.598 31.79 30 10.495 4.402 26.899 4.402 49.21 0" stroke="#000" stroke-width="2" stroke-linecap="square" mask="url(#b)"/><path d="M107.985 257.034L118 252l-11.176-.853" stroke="#000" stroke-width="2" stroke-linecap="square"/><path d="M33.489 191.5c-1.176-22.731-.23-40.135 2.836-52.212C39.392 127.21 46.783 111.78 58.5 93" stroke="#000" stroke-width="2" stroke-linecap="square" mask="url(#b)"/><path d="M55.329 103.751L58.5 93l-8.262 7.575" stroke="#000" stroke-width="2" stroke-linecap="square"/><path d="M8.504 212v-10.88h3.312c2.416 0 3.264 1.12 3.264 2.848v.448c0 .832-.384 1.504-1.088 1.936 1.024.4 1.568 1.2 1.568 2.256v.448c0 1.776-.88 2.944-3.344 2.944H8.504zm3.312-9.12h-1.392v2.72h1.392c.848 0 1.296-.416 1.296-1.104v-.528c0-.672-.448-1.088-1.296-1.088zm.4 4.48h-1.792v2.88h1.792c.896 0 1.376-.448 1.376-1.184v-.528c0-.72-.48-1.168-1.376-1.168zm9.984-1.792c-1.008 0-1.904.304-2.736.976V212h-1.84v-8.112h1.744v1.248c1.088-1.024 1.856-1.408 2.832-1.408v1.84zm3.504-3.216h-1.936v-1.904h1.936v1.904zM25.656 212h-1.84v-8.112h1.84V212zm7.408-.272a5.156 5.156 0 0 1-2.064.432c-1.872 0-2.544-1.248-2.544-3.024v-3.648h-1.312v-1.6h1.312v-2.112h1.84v2.112h2.528v1.6h-2.528v3.648c0 .992.384 1.296 1.088 1.296.336 0 .72-.064 1.216-.256l.464 1.552zm3.36-9.376h-1.936v-1.904h1.936v1.904zM36.376 212h-1.84v-8.112h1.84V212zm4.8-1.44c.784 0 1.36-.256 1.36-.8 0-.464-.288-.688-1.136-.912l-.912-.24c-1.408-.368-2.064-1.248-2.064-2.432 0-1.376.928-2.448 2.944-2.448.816 0 1.712.176 2.688.608l-.528 1.568c-.896-.432-1.616-.576-2.176-.576-.736 0-1.136.24-1.136.768 0 .4.208.608.944.8l.912.24c1.552.416 2.24 1.232 2.24 2.496 0 1.488-.976 2.528-3.152 2.528-.928 0-1.888-.208-2.928-.64l.496-1.52c1.008.4 1.808.56 2.448.56zm8.992-5.12c-.544 0-1.184.208-2.128.944V212H46.2v-11.84h1.84v4.736c.976-.832 1.792-1.168 2.688-1.168 1.552 0 2.384 1.04 2.384 2.832V212h-1.84v-5.216c0-.912-.352-1.344-1.104-1.344zM264.504 234v-10.88h3.68c2.592 0 4 1.472 4 4.288v2.288c0 2.832-1.408 4.304-4 4.304h-3.68zm3.6-9.04h-1.68v7.2h1.68c1.504 0 2.112-.672 2.112-2.464v-2.288c0-1.776-.608-2.448-2.112-2.448zM279.32 234v-1.072c-.992.864-1.792 1.232-2.672 1.232-1.456 0-2.272-1.04-2.272-2.832v-5.44h1.84v5.216c0 .912.336 1.344.992 1.344.528 0 1.12-.208 2.016-.928v-5.632h1.84V234h-1.744zm9.152-.272a5.156 5.156 0 0 1-2.064.432c-1.872 0-2.544-1.248-2.544-3.024v-3.648h-1.312v-1.6h1.312v-2.112h1.84v2.112h2.528v1.6h-2.528v3.648c0 .992.384 1.296 1.088 1.296.336 0 .72-.064 1.216-.256l.464 1.552zm2.88-4.256v.944c0 1.376.464 2.048 1.552 2.048.528 0 1.2-.128 2-.432l.528 1.552c-.96.384-1.792.576-2.624.576-2.144 0-3.296-1.472-3.296-3.744v-.944c0-2.272 1.152-3.744 3.296-3.744.8 0 1.616.192 2.544.56l-.528 1.584c-.784-.304-1.408-.448-1.92-.448-1.088 0-1.552.672-1.552 2.048zm9.728-2.032c-.544 0-1.184.208-2.128.944V234h-1.84v-11.84h1.84v4.736c.976-.832 1.792-1.168 2.688-1.168 1.552 0 2.384 1.04 2.384 2.832V234h-1.84v-5.216c0-.912-.352-1.344-1.104-1.344zM122.504 350v-10.88h3.584c2.288 0 3.424 1.248 3.424 3.168v.848c0 1.92-1.136 3.184-3.424 3.184h-1.664V350h-1.92zm3.584-9.04h-1.664v3.52h1.664c.944 0 1.456-.496 1.456-1.344v-.848c0-.832-.512-1.328-1.456-1.328zm11.84 4.496v.96c0 2.272-1.296 3.744-3.552 3.744-2.272 0-3.552-1.472-3.552-3.744v-.96c0-2.256 1.264-3.728 3.552-3.728 2.272 0 3.552 1.472 3.552 3.728zm-1.888 0c0-1.296-.592-2.08-1.664-2.08s-1.664.784-1.664 2.08v.96c0 1.296.592 2.096 1.664 2.096s1.664-.8 1.664-2.096v-.96zm8.528-1.888c-1.008 0-1.904.304-2.736.976V350h-1.84v-8.112h1.744v1.248c1.088-1.024 1.856-1.408 2.832-1.408v1.84zm6.496 6.16a5.156 5.156 0 0 1-2.064.432c-1.872 0-2.544-1.248-2.544-3.024v-3.648h-1.312v-1.6h1.312v-2.112h1.84v2.112h2.528v1.6h-2.528v3.648c0 .992.384 1.296 1.088 1.296.336 0 .72-.064 1.216-.256l.464 1.552zm6.304.272v-1.072c-.992.864-1.792 1.232-2.672 1.232-1.456 0-2.272-1.04-2.272-2.832v-5.44h1.84v5.216c0 .912.336 1.344.992 1.344.528 0 1.12-.208 2.016-.928v-5.632h1.84V350h-1.744zm11.008.816c0 1.728-1.44 2.752-3.84 2.752-1.136 0-2.48-.24-3.536-.832l.528-1.456a6.616 6.616 0 0 0 2.992.72c1.344 0 2.064-.384 2.064-.992 0-.432-.256-.688-.816-.688h-1.92c-1.568 0-2.192-.88-2.192-1.776 0-.608.288-1.152.752-1.632-.768-.464-1.264-1.264-1.264-2.368 0-1.872 1.328-2.816 3.04-2.816h.272c.416 0 .832.048 1.2.16h2.896v1.568l-1.6-.256c.32.352.512.832.512 1.552 0 1.648-1.344 2.608-3.008 2.608h-.272c-.208 0-.416-.016-.608-.048-.24.256-.336.528-.336.768 0 .352.224.56.72.56h1.952c1.472 0 2.464.784 2.464 2.176zm-3.92-4.96c.656 0 1.248-.464 1.248-1.312 0-.848-.592-1.312-1.248-1.312h-.272c-.688 0-1.264.464-1.264 1.312 0 .848.576 1.312 1.264 1.312h.272zM174.968 350v-1.072c-.992.864-1.792 1.232-2.672 1.232-1.456 0-2.272-1.04-2.272-2.832v-5.44h1.84v5.216c0 .912.336 1.344.992 1.344.528 0 1.12-.208 2.016-.928v-5.632h1.84V350h-1.744zm10.432-.464c-1.12.448-2.08.624-2.96.624-2.416 0-3.664-1.472-3.664-3.744v-.96c0-2.256 1.312-3.728 3.408-3.728 1.68 0 3.28 1.008 3.28 3.28 0 .448-.064.96-.208 1.504h-4.704c.032 1.328.624 1.984 1.984 1.984.72 0 1.504-.16 2.336-.512l.528 1.552zm-3.216-6.256c-.976 0-1.536.656-1.616 1.824h3.072c.016-.096.016-.192.016-.288 0-1.024-.656-1.536-1.472-1.536zm7.664 5.28c.784 0 1.36-.256 1.36-.8 0-.464-.288-.688-1.136-.912l-.912-.24c-1.408-.368-2.064-1.248-2.064-2.432 0-1.376.928-2.448 2.944-2.448.816 0 1.712.176 2.688.608l-.528 1.568c-.896-.432-1.616-.576-2.176-.576-.736 0-1.136.24-1.136.768 0 .4.208.608.944.8l.912.24c1.552.416 2.24 1.232 2.24 2.496 0 1.488-.976 2.528-3.152 2.528-.928 0-1.888-.208-2.928-.64l.496-1.52c1.008.4 1.808.56 2.448.56zm11.184.976c-1.12.448-2.08.624-2.96.624-2.416 0-3.664-1.472-3.664-3.744v-.96c0-2.256 1.312-3.728 3.408-3.728 1.68 0 3.28 1.008 3.28 3.28 0 .448-.064.96-.208 1.504h-4.704c.032 1.328.624 1.984 1.984 1.984.72 0 1.504-.16 2.336-.512l.528 1.552zm-3.216-6.256c-.976 0-1.536.656-1.616 1.824h3.072c.016-.096.016-.192.016-.288 0-1.024-.656-1.536-1.472-1.536zM335.872 96.384c1.232 0 1.856-.432 1.856-1.376 0-.736-.32-1.12-1.312-1.44l-1.312-.432c-1.568-.512-2.352-1.52-2.352-3.088 0-1.792 1.088-3.088 3.472-3.088 1.008 0 1.952.224 3.056.704l-.592 1.648c-1.024-.4-1.664-.576-2.4-.576-.992 0-1.584.304-1.584 1.216 0 .688.352 1.088 1.28 1.392l1.312.432c1.584.528 2.384 1.504 2.384 3.168 0 1.92-1.184 3.216-3.776 3.216-1.024 0-2.096-.224-3.392-.816l.592-1.648c1.2.512 1.952.688 2.768.688zm9.152 1.776a4.9 4.9 0 0 1-1.632-.304v3.552h-1.84v-11.52h1.744v1.104c.992-.992 1.616-1.264 2.384-1.264 1.76 0 2.768 1.392 2.768 3.776v.864c0 2.32-1.2 3.792-3.424 3.792zm.16-6.72c-.496 0-.992.224-1.792 1.04v3.712c.544.224.992.32 1.44.32 1.232 0 1.728-.816 1.728-2.144v-.864c0-1.424-.496-2.064-1.376-2.064zm11.536 6.64c-1.088 0-1.728-.512-2.016-1.168-.912.848-1.728 1.248-2.704 1.248-1.424 0-2.08-1.024-2.08-2.432s.688-2.384 2.8-2.384c.56 0 1.152.08 1.76.192v-.944c0-.896-.528-1.168-1.36-1.168-.64 0-1.408.16-2.272.528l-.528-1.568c1.104-.448 2.048-.656 2.928-.656 2.368 0 2.992 1.36 2.992 2.864v3.12c0 .32.144.672.672.672h.176v1.696h-.368zm-5.024-2.384c0 .576.256.928.752.928.48 0 1.056-.144 2.032-1.088v-.688a9.654 9.654 0 0 0-1.632-.144c-.832 0-1.152.352-1.152.992zm10.96-4.256c-.544 0-1.184.208-2.128.944V98h-1.84v-8.112h1.744v1.088c1.008-.88 1.856-1.248 2.784-1.248 1.552 0 2.384 1.04 2.384 2.832V98h-1.84v-5.216c0-.912-.352-1.344-1.104-1.344zm7.264-3.088h-1.936v-1.904h1.936v1.904zM369.872 98h-1.84v-8.112h1.84V98zm4.8-1.44c.784 0 1.36-.256 1.36-.8 0-.464-.288-.688-1.136-.912l-.912-.24c-1.408-.368-2.064-1.248-2.064-2.432 0-1.376.928-2.448 2.944-2.448.816 0 1.712.176 2.688.608l-.528 1.568c-.896-.432-1.616-.576-2.176-.576-.736 0-1.136.24-1.136.768 0 .4.208.608.944.8l.912.24c1.552.416 2.24 1.232 2.24 2.496 0 1.488-.976 2.528-3.152 2.528-.928 0-1.888-.208-2.928-.64l.496-1.52c1.008.4 1.808.56 2.448.56zm8.992-5.12c-.544 0-1.184.208-2.128.944V98h-1.84V86.16h1.84v4.736c.976-.832 1.792-1.168 2.688-1.168 1.552 0 2.384 1.04 2.384 2.832V98h-1.84v-5.216c0-.912-.352-1.344-1.104-1.344zm6.608 4.656v.304c0 1.792-.32 3.344-1.472 5.168l-1.152-.624c.704-1.312.832-2.56.832-4.848h1.792zM339.296 117l-.672-2.128h-3.728l-.672 2.128h-1.904l3.632-10.88h1.696l3.648 10.88h-2zm-3.36-5.456l-.496 1.568h2.624l-.496-1.568-.8-2.752-.832 2.752zm8.624-.16V117h-1.84v-8.112h1.744v1.072c.992-.864 1.808-1.232 2.704-1.232.992 0 1.68.464 2.032 1.312 1.056-.928 1.936-1.312 2.88-1.312 1.488 0 2.304 1.04 2.304 2.832V117h-1.84v-5.216c0-.912-.336-1.344-1.024-1.344-.528 0-1.136.208-2.048.944V117h-1.84v-5.216c0-.912-.336-1.344-1.024-1.344-.528 0-1.136.208-2.048.944zm18.416 5.152c-1.12.448-2.08.624-2.96.624-2.416 0-3.664-1.472-3.664-3.744v-.96c0-2.256 1.312-3.728 3.408-3.728 1.68 0 3.28 1.008 3.28 3.28 0 .448-.064.96-.208 1.504h-4.704c.032 1.328.624 1.984 1.984 1.984.72 0 1.504-.16 2.336-.512l.528 1.552zm-3.216-6.256c-.976 0-1.536.656-1.616 1.824h3.072c.016-.096.016-.192.016-.288 0-1.024-.656-1.536-1.472-1.536zm9.968.288c-1.008 0-1.904.304-2.736.976V117h-1.84v-8.112h1.744v1.248c1.088-1.024 1.856-1.408 2.832-1.408v1.84zm3.504-3.216h-1.936v-1.904h1.936v1.904zm-.048 9.648h-1.84v-8.112h1.84V117zm3.936-4.528v.944c0 1.376.464 2.048 1.552 2.048.528 0 1.2-.128 2-.432l.528 1.552c-.96.384-1.792.576-2.624.576-2.144 0-3.296-1.472-3.296-3.744v-.944c0-2.272 1.152-3.744 3.296-3.744.8 0 1.616.192 2.544.56l-.528 1.584c-.784-.304-1.408-.448-1.92-.448-1.088 0-1.552.672-1.552 2.048zm11.904 4.608c-1.088 0-1.728-.512-2.016-1.168-.912.848-1.728 1.248-2.704 1.248-1.424 0-2.08-1.024-2.08-2.432s.688-2.384 2.8-2.384c.56 0 1.152.08 1.76.192v-.944c0-.896-.528-1.168-1.36-1.168-.64 0-1.408.16-2.272.528l-.528-1.568c1.104-.448 2.048-.656 2.928-.656 2.368 0 2.992 1.36 2.992 2.864v3.12c0 .32.144.672.672.672h.176v1.696h-.368zM384 114.696c0 .576.256.928.752.928.48 0 1.056-.144 2.032-1.088v-.688a9.654 9.654 0 0 0-1.632-.144c-.832 0-1.152.352-1.152.992zm10.96-4.256c-.544 0-1.184.208-2.128.944V117h-1.84v-8.112h1.744v1.088c1.008-.88 1.856-1.248 2.784-1.248 1.552 0 2.384 1.04 2.384 2.832V117h-1.84v-5.216c0-.912-.352-1.344-1.104-1.344zM212.072 86.824h-3.648V91h-1.92V80.12h6.048v1.84h-4.128v3.024h3.648v1.84zm6.528-2.256c-1.008 0-1.904.304-2.736.976V91h-1.84v-8.112h1.744v1.248c1.088-1.024 1.856-1.408 2.832-1.408v1.84zm7.776 5.968c-1.12.448-2.08.624-2.96.624-2.416 0-3.664-1.472-3.664-3.744v-.96c0-2.256 1.312-3.728 3.408-3.728 1.68 0 3.28 1.008 3.28 3.28 0 .448-.064.96-.208 1.504h-4.704c.032 1.328.624 1.984 1.984 1.984.72 0 1.504-.16 2.336-.512l.528 1.552zm-3.216-6.256c-.976 0-1.536.656-1.616 1.824h3.072c.016-.096.016-.192.016-.288 0-1.024-.656-1.536-1.472-1.536zm9.36.16c-.544 0-1.184.208-2.128.944V91h-1.84v-8.112h1.744v1.088c1.008-.88 1.856-1.248 2.784-1.248 1.552 0 2.384 1.04 2.384 2.832V91h-1.84v-5.216c0-.912-.352-1.344-1.104-1.344zm6.784 2.032v.944c0 1.376.464 2.048 1.552 2.048.528 0 1.2-.128 2-.432l.528 1.552c-.96.384-1.792.576-2.624.576-2.144 0-3.296-1.472-3.296-3.744v-.944c0-2.272 1.152-3.744 3.296-3.744.8 0 1.616.192 2.544.56l-.528 1.584c-.784-.304-1.408-.448-1.92-.448-1.088 0-1.552.672-1.552 2.048zm9.728-2.032c-.544 0-1.184.208-2.128.944V91h-1.84V79.16h1.84v4.736c.976-.832 1.792-1.168 2.688-1.168 1.552 0 2.384 1.04 2.384 2.832V91h-1.84v-5.216c0-.912-.352-1.344-1.104-1.344z" fill="#000" mask="url(#b)"/></g></svg>
