<svg xmlns="http://www.w3.org/2000/svg" viewBox="0 0 1292 598.667"><path fill="#bfe6fb" d="M937.333 592.895c-.55-.223-1.15-.592-1.333-.82-.183-.227-1.083-.783-2-1.235-.917-.452-3.167-1.72-5-2.818-1.833-1.097-4.083-2.365-5-2.817-.917-.452-1.817-.979-2-1.17-.183-.19-1.683-1.04-3.333-1.887-1.65-.847-4.35-2.398-6-3.447-1.65-1.049-3.375-1.93-3.834-1.96-.458-.028-.833-.352-.833-.719 0-.366-.275-.666-.612-.666-.336 0-2.895-1.35-5.685-3-2.791-1.65-5.238-3-5.436-3-.2 0-.79-.429-1.315-.953-.792-.792-.952-5.25-.952-26.527v-25.574l5.372-3.14c2.955-1.727 5.655-3.14 6-3.14.346 0 .628-.3.628-.666 0-.367.333-.667.74-.667.408 0 3.225-1.5 6.26-3.333 3.035-1.834 5.852-3.334 6.26-3.334.407 0 .74-.3.74-.666 0-.367.276-.667.612-.667.337 0 3.562-1.726 7.167-3.837 11.768-6.888 11.04-6.625 14.17-5.125 1.486.713 2.706 1.52 2.71 1.795.007.275.33.5.725.5.394 0 2.72 1.167 5.166 2.592 2.448 1.425 5.5 3.176 6.783 3.89l5.667 3.152c1.833 1.02 4.13 2.419 5.103 3.11.973.691 1.954 1.256 2.18 1.256.226 0 3.554 1.874 7.397 4.165l6.987 4.164v25.55c0 21.254-.16 25.71-.953 26.502-.524.524-1.113.953-1.31.953-.196 0-3.354 1.8-7.017 4-3.663 2.2-6.852 4-7.087 4-.235 0-1.224.565-2.197 1.256-1.54 1.093-6.367 3.892-9.436 5.472-.55.283-3.592 2.035-6.76 3.893-3.167 1.858-6.067 3.379-6.444 3.379-.377 0-.785.293-.907.651-.28.817-3.885 1.43-5.223.888zm1.323-25.706c-.007-12.558-.23-23.158-.5-23.555-.592-.873-8.636-5.612-9.525-5.612-.347 0-.634-.225-.637-.5-.007-.275-1.354-1.092-3-1.816-1.647-.724-2.995-1.474-2.996-1.666 0-.193-1.727-1.25-3.834-2.35s-3.93-2.226-4.053-2.5c-.122-.276-.518-.5-.88-.5s-2.882-1.35-5.6-3c-2.718-1.65-5.103-3-5.3-3-.196 0-1.552-.755-3.01-1.676l-2.654-1.675v23.39c0 17.847.197 23.575.833 24.175.458.432 2.483 1.661 4.5 2.731 2.017 1.07 4.711 2.644 5.988 3.5 1.277.854 2.58 1.554 2.897 1.554.317 0 1.372.565 2.345 1.255 1.835 1.302 4.509 2.853 10.77 6.247 2.017 1.093 4.463 2.552 5.436 3.243.974.69 2.099 1.255 2.5 1.255.402 0 .73.276.73.614 0 .337.9.811 2 1.053 1.1.241 2 .715 2 1.053 0 .337.45.613 1 .613.87 0 1-2.977.99-22.833zm5.01 21.492c1.1-.53 2.15-1.143 2.334-1.361.183-.219 1.683-1.125 3.333-2.014 1.65-.89 3.15-1.767 3.334-1.95.183-.184 1.533-.93 3-1.657 1.466-.728 4.227-2.303 6.134-3.5 1.908-1.197 3.758-2.177 4.111-2.177.354 0 .743-.225.866-.5.122-.275 1.422-1.097 2.889-1.827 1.466-.73 2.816-1.482 3-1.671.183-.19 1.983-1.213 4-2.273 2.016-1.06 4.041-2.22 4.5-2.576.638-.498.833-6.158.833-24.243V519.34l-2.653 1.675c-1.46.921-2.8 1.675-2.977 1.675-.178 0-3.32 1.8-6.983 4s-6.855 4-7.093 4c-.239 0-1.677.825-3.197 1.833-1.52 1.009-3.964 2.434-5.43 3.167-1.467.733-2.817 1.483-3 1.667-.437.437-5.086 3.1-7.834 4.486l-2.166 1.094v23.599c0 12.98.225 23.489.5 23.355l2.5-1.209zM940 540.855c0-.276 1.425-1.248 3.167-2.16 1.741-.911 6.095-3.386 9.674-5.498 3.58-2.113 6.644-3.841 6.81-3.841.166 0 3.299-1.8 6.962-4s6.973-4 7.357-4c.383 0 .7-.225.703-.5.01-.275 1.353-1.092 3-1.816 1.646-.724 2.988-1.474 2.982-1.667-.016-.472-5.677-4.06-8.988-5.698-1.467-.726-2.767-1.544-2.89-1.82-.122-.274-.472-.5-.778-.5-.307 0-3.606-1.8-7.332-4-3.727-2.2-6.876-4-7-4-.123 0-2.507-1.35-5.298-3-2.79-1.65-5.34-3-5.666-3-.326 0-.709-.35-.851-.777-.338-1.013-4.7-1.013-5.037 0-.143.428-.51.778-.816.778-.306 0-3.606 1.8-7.332 4-3.727 2.2-6.876 4-7 4-.123 0-2.507 1.35-5.298 3-2.79 1.65-5.365 3-5.722 3a.66.66 0 0 0-.647.666c0 .367-.327.667-.728.667-.855 0-11.276 6.16-11.264 6.66.007.187 1.279.936 2.833 1.663 1.554.728 2.976 1.48 3.159 1.672.183.192 1.983 1.222 4 2.289 2.017 1.067 4.711 2.64 5.988 3.495 1.277.855 2.702 1.554 3.167 1.554.465 0 .845.3.845.667a.66.66 0 0 0 .647.667c.357 0 2.832 1.29 5.5 2.866 2.67 1.577 5.303 3.08 5.853 3.338.55.26 2.2 1.232 3.667 2.162 1.466.93 3.191 1.863 3.833 2.073.642.21 1.167.648 1.167.972 0 .324.3.589.666.589.367 0 .667-.226.667-.501zm157.661-32.6c-1.83-.973-4.447-2.473-5.815-3.334-1.367-.86-2.618-1.565-2.778-1.565-.161 0-3.342-1.8-7.068-4-3.726-2.2-7.051-4-7.388-4-.337 0-.612-.3-.612-.667 0-.367-.38-.667-.842-.667-.464 0-2.339-.983-4.167-2.185-1.828-1.202-4.524-2.777-5.991-3.5-1.467-.723-2.817-1.465-3-1.649-.183-.184-1.158-.76-2.167-1.28l-1.833-.944V434.855l-6.167-3.583a919.196 919.196 0 0 1-7.5-4.39 55.948 55.948 0 0 0-3-1.653c-.916-.465-1.817-1.002-2-1.193-.184-.19-1.384-.919-2.667-1.617-9.663-5.262-10.902-5.963-11.333-6.407-.183-.189-1.605-.939-3.159-1.666-1.554-.728-2.829-1.549-2.833-1.824-.01-.275-.336-.5-.738-.5-.402 0-1.602-.62-2.667-1.378l-1.936-1.38V357.68l2.833-1.671c1.559-.92 4.034-2.267 5.5-2.995 1.467-.728 2.817-1.477 3-1.663.845-.86 8.616-5.328 9.267-5.328.403 0 .733-.3.733-.666 0-.367.342-.667.76-.667s3.006-1.35 5.751-3c2.745-1.65 5.137-3 5.314-3 .178 0 2.807-1.5 5.842-3.333 3.035-1.834 5.897-3.334 6.36-3.334.463 0 3.183-1.35 6.043-3 2.861-1.65 5.515-3 5.9-3 .383 0 .697-.3.697-.666 0-.367.45-.667 1-.667s1-.3 1-.667c0-.366.343-.666.762-.666.42 0 3.255-1.5 6.301-3.334 3.046-1.833 5.828-3.333 6.182-3.333.354 0 .744-.225.866-.5s1.122-.973 2.222-1.55c1.1-.578 4.435-2.47 7.411-4.205l5.412-3.155 2.422 1.372c1.332.754 3.547 2.003 4.922 2.774 1.375.772 4.942 2.872 7.926 4.667s5.76 3.264 6.166 3.264c.408 0 .741.234.741.52 0 .287.825.868 1.834 1.293 1.008.424 3.333 1.686 5.166 2.804 1.834 1.118 4.084 2.405 5 2.86.917.456 1.817.985 2 1.176.184.19 1.534.944 3 1.674 1.467.73 2.817 1.48 3 1.666.184.187.934.673 1.667 1.08 1.32.731 1.335 1.518 1.503 75.877.134 59.55-.01 75.309-.667 75.957-1.282 1.255-8.914 5.76-9.757 5.76-.41 0-.746.3-.746.666a.68.68 0 0 1-.689.667c-.379 0-3.669 1.8-7.31 4-3.643 2.2-6.758 4-6.923 4-.166 0-2.584 1.35-5.375 3s-5.366 3-5.722 3a.66.66 0 0 0-.647.666c0 .367-.38.667-.846.667-.465 0-1.949.75-3.298 1.667-1.349.916-2.696 1.666-2.993 1.666-.297 0-2.038-.795-3.869-1.767zm3.006-24.418c0-25.805.467-23.563-5.552-26.65-1.53-.784-2.932-1.598-3.115-1.809-.183-.21-1.083-.74-2-1.178-.917-.437-3.467-1.867-5.667-3.178-2.2-1.311-4.525-2.557-5.166-2.77-.642-.212-1.17-.575-1.173-.807-.01-.233-1.354-1.015-3-1.739-1.647-.724-2.994-1.549-2.994-1.833 0-.285-.333-.517-.74-.517-.408 0-3.225-1.5-6.26-3.334-3.035-1.833-5.702-3.333-5.926-3.333-.224 0-.407 10.478-.407 23.285v23.285l2.666 1.177c1.467.647 2.667 1.419 2.667 1.715 0 .296.291.538.647.538.357 0 2.931 1.35 5.722 3 2.791 1.65 5.175 3 5.298 3 .124 0 3.273 1.8 7 4 3.726 2.2 7.05 4 7.387 4 .337 0 .613.234.613.52 0 .287.825.872 1.833 1.3 1.008.429 3.033 1.524 4.5 2.434 1.467.91 2.892 1.674 3.167 1.7.275.025.5-10.237.5-22.806zm4 21.519c0-.367.333-.667.74-.667.408 0 3.224-1.5 6.26-3.333 3.035-1.834 5.851-3.334 6.259-3.334.407 0 .74-.265.74-.589 0-.323.526-.757 1.167-.963 1.158-.372 7.889-4.11 9.167-5.092.367-.282 2.4-1.466 4.518-2.63a347.574 347.574 0 0 0 7-3.969l3.149-1.85.175-23.12c.096-12.716.01-23.12-.201-23.12-.68 0-5.969 2.988-6.197 3.5-.122.275-.486.5-.81.5-.323 0-3.584 1.8-7.247 4s-6.799 4-6.968 4c-.17 0-2.592 1.35-5.383 3s-5.366 3-5.722 3a.66.66 0 0 0-.647.667c0 .366-.375.672-.834.68-.458.006-2.258.907-4 2l-3.166 1.989v22.999c0 19.999.13 22.998 1 22.998.55 0 1-.3 1-.666zm-4-71.276v-23.276l-4.726-2.724c-2.599-1.498-4.999-2.724-5.333-2.724-.334 0-.608-.3-.608-.667 0-.367-.315-.667-.7-.667-.384 0-3.19-1.5-6.237-3.333-3.046-1.833-5.856-3.333-6.245-3.333-.389 0-.807-.225-.93-.5-.121-.275-1.421-1.097-2.888-1.827-1.467-.73-2.817-1.494-3-1.699-.32-.357-3.554-2.268-8.833-5.22l-2.5-1.398V433.73l1.833.77c1.914.805 8.679 4.6 9.833 5.517.664.527 1.74 1.14 9.334 5.323 2.2 1.212 4.796 2.761 5.77 3.442.972.682 2.072 1.24 2.444 1.24.37 0 .774.224.897.5.122.274 1.672 1.25 3.445 2.166 4.615 2.386 5.793 3.083 6.633 3.923.41.409.984.744 1.277.744.294 0 .534-10.474.534-23.276zm4.833 21.532c.642-.227 1.167-.677 1.167-1 0-.325.343-.59.762-.59.42 0 3.255-1.5 6.301-3.333 3.046-1.833 5.853-3.333 6.237-3.333.385 0 .7-.3.7-.667 0-.367.275-.667.612-.667.337 0 3.661-1.8 7.388-4 3.726-2.2 6.879-4 7.006-4 .127 0 2.053-1.085 4.28-2.41L1144 433.2V386.75l-2.167 1.136c-1.191.624-2.266 1.36-2.389 1.635-.122.275-.472.5-.778.5-.306 0-2.84 1.35-5.63 3-2.791 1.65-5.188 3-5.327 3-.138 0-3.283 1.8-6.988 4-3.705 2.2-7.033 4-7.396 4-.362 0-.658.3-.658.667 0 .367-.32.667-.712.667-.391 0-2.636 1.125-4.987 2.5l-4.276 2.5-.013 23.222c-.01 18.344.162 23.14.82 22.834a27.366 27.366 0 0 1 2-.8zm-50.991-71.749c-.83-.648-2.184-1.36-3.01-1.582-.824-.222-1.5-.636-1.5-.92 0-.284-.524-.683-1.166-.886-1.169-.371-4.874-2.481-5.5-3.133-.183-.19-1.083-.705-2-1.143-.916-.438-3.166-1.657-5-2.71a1266.037 1266.037 0 0 0-5-2.857c-.916-.518-1.816-1.093-2-1.276-.183-.184-1.533-.93-3-1.66-1.466-.73-2.816-1.48-3-1.667-.183-.187-1.983-1.216-4-2.287-2.016-1.071-3.887-2.271-4.156-2.667-.27-.396-.495 10.136-.5 23.402l-.01 24.122 1.447.46c.796.252 3.046 1.482 5.002 2.733 1.955 1.25 4.078 2.463 4.72 2.694.64.23 1.914.936 2.83 1.567 1.677 1.153 2.978 1.903 10.334 5.955 2.2 1.212 4.796 2.76 5.77 3.442.973.682 2.073 1.24 2.444 1.24s.775.224.897.5c.122.274 1.64 1.192 3.374 2.038 1.733.847 3.383 1.897 3.667 2.334.283.436.594-9.852.69-22.864l.176-23.657-1.51-1.178zm46 .094l-.176-23.399-3-1.671c-1.65-.92-5.441-3.14-8.426-4.935-2.984-1.794-5.759-3.263-6.166-3.263-.408 0-.741-.3-.741-.667 0-.366-.315-.666-.7-.666-.384 0-3.19-1.5-6.237-3.334-3.046-1.833-5.881-3.333-6.3-3.333-.42 0-.763-.265-.763-.589 0-.324-.525-.757-1.167-.963-.641-.206-2.741-1.283-4.666-2.393l-3.5-2.018v23.488c0 21.65.09 23.544 1.166 24.208.642.396 2.667 1.548 4.5 2.56a256.579 256.579 0 0 1 7.087 4.107c2.065 1.247 4.09 2.267 4.5 2.267.41 0 .747.3.747.666 0 .367.33.667.732.667.761 0 8.676 4.644 9.274 5.441.187.25 1.162.66 2.167.912s1.827.726 1.827 1.053c0 .327.285.594.633.594.348 0 2.373 1.05 4.5 2.332 2.127 1.282 4.095 2.332 4.375 2.333.28 0 .43-10.528.333-23.397zm4.158 22.047c0-.298.9-.74 2-.982 1.1-.241 2-.65 2-.906 0-.258.825-.829 1.833-1.27 1.008-.441 3.333-1.717 5.167-2.836 1.833-1.118 4.083-2.391 5-2.83.916-.438 1.816-.953 2-1.144.183-.19 1.083-.776 2-1.3 7.986-4.564 11.562-6.58 15-8.452l4-2.178.175-23.691c.165-22.388.11-23.667-1-23.257-.647.239-1.325.606-1.509.816-.362.415-2.515 1.682-5.666 3.333-1.1.577-2.15 1.202-2.333 1.388-.184.187-1.534.937-3 1.667-1.467.73-2.817 1.502-3 1.716-.184.214-2.284 1.456-4.667 2.76-2.384 1.305-6.667 3.754-9.52 5.445-2.852 1.69-5.477 3.073-5.833 3.073-.356 0-.647.234-.647.52 0 .286-.9.86-2 1.276l-2 .755v23.703c0 20.796.122 23.657 1 23.32.55-.21 1-.628 1-.926zM1056 358.252c0-21.929-.06-23.054-1.167-22.13-.641.534-2.438 1.555-3.992 2.27-1.554.713-2.83 1.522-2.833 1.797-.01.275-.351.5-.77.5-.42 0-3.255 1.5-6.301 3.333-3.047 1.834-5.854 3.334-6.238 3.334-.384 0-.7.3-.7.666 0 .367-.333.667-.742.667s-3.634 1.727-7.167 3.838c-3.533 2.111-7.248 4.262-8.257 4.78-2.207 1.133-2.317 1.805-.393 2.416.791.251 4.102 2.071 7.356 4.045 3.255 1.973 6.136 3.588 6.403 3.588.267 0 2.045 1.05 3.95 2.333 1.906 1.283 3.752 2.333 4.102 2.333.351 0 .738.225.86.5.202.455 2.206 1.574 11.222 6.271 1.65.86 3.1 1.788 3.222 2.063 1.131 2.544 1.445-2.364 1.445-22.604zm48.382-1.956c1.786-.95 4.005-2.237 4.932-2.861.927-.624 2.886-1.723 4.353-2.44 1.466-.719 2.816-1.492 3-1.719.183-.226 1.833-1.215 3.666-2.196 8.427-4.509 10.015-5.424 10.222-5.89.123-.276.519-.5.88-.5.362 0 1.912-.826 3.445-1.834 1.533-1.009 3.912-2.406 5.287-3.105 2.762-1.406 3.084-2.041 1.333-2.636-1.826-.619-14.053-7.538-14.833-8.394-.184-.2-1.534-.957-3-1.68a79.485 79.485 0 0 1-5.21-2.869c-2.636-1.611-4.044-2.413-10.79-6.144-2.2-1.217-4.6-2.583-5.334-3.035-1.165-.718-2.13-.331-7.666 3.07-3.484 2.14-6.709 3.907-7.167 3.925-.458.019-.833.334-.833.701 0 .367-.343.667-.763.667s-3.255 1.5-6.3 3.333c-3.047 1.833-5.854 3.333-6.238 3.333-.385 0-.7.3-.7.667a.66.66 0 0 1-.647.667c-.356 0-2.93 1.35-5.722 3-2.79 1.65-5.35 3-5.685 3-1.573 0-.234 1.271 3.888 3.691 2.475 1.453 4.8 2.76 5.167 2.906.366.146 3.098 1.72 6.07 3.5 2.973 1.78 5.748 3.236 6.167 3.236.42 0 .763.3.763.667 0 .366.33.666.732.666.652 0 8.423 4.468 9.268 5.328.183.186 2.133 1.297 4.333 2.467 2.2 1.17 4.03 2.145 4.067 2.166.037.022 1.529-.738 3.315-1.687zM48 504.972c-9.635-1.646-16.063-4.324-22.187-9.24-12.75-10.237-19.223-29.585-15.445-46.168 3.819-16.766 17.75-30.287 34.299-33.287 6.43-1.166 16.224-.869 21.666.656 10.733 3.008 19.923 10.394 24.725 19.87 5.127 10.118 4.846 26.108-.623 35.44-2.432 4.15-8.447 9.431-12.197 10.709-6.176 2.104-13.032 1.167-16.574-2.266l-2.09-2.025-4.229 2.18c-7.366 3.799-15.82 2.744-20.769-2.59-5.53-5.962-6.468-16.8-2.255-26.04 6.218-13.64 24.613-19.95 33.556-11.511 1.759 1.659 1.72 1.674 2.585-1.01.621-1.929.805-2.008 5.091-2.198 2.446-.108 4.447.066 4.447.389 0 .322-2.119 7.61-4.709 16.197-5.453 18.082-6.05 21.527-4.143 23.882 3.729 4.603 14.284-1.662 18.643-11.064 2.05-4.423 3.067-10.75 2.49-15.49-2.318-19.032-16.822-31.339-36.974-31.374-10.378-.018-19.093 3.349-26.457 10.22-7.5 6.997-11.784 15.244-13.024 25.067-2.572 20.372 11.882 40.98 31.384 44.747 9.598 1.854 22.464-.635 29.957-5.796l3.579-2.465 1.46 1.485 1.46 1.485-2 1.663c-2.92 2.428-10.436 6.121-14.734 7.24-3.886 1.013-14.04 1.789-16.932 1.294zm5.399-28.05c1.785-.971 3.675-2.421 4.2-3.222 1.646-2.513 7.224-23.63 6.745-25.539-1.277-5.088-5.838-8.015-10.535-6.76-9.458 2.53-17.152 22.857-12.443 32.875 2.237 4.76 6.448 5.686 12.033 2.647zm354.086 11.6l.182-12.166 4.919-.198c4.455-.179 4.89-.084 4.61 1-.169.659-1.465 6.223-2.88 12.364l-2.57 11.167h-4.442zm-86.834-.189c-3.235-.997-6.723-3.97-8.532-7.27-.96-1.749-1.148-4.781-1.323-21.207l-.204-19.167h8.741l.015 17.167c.013 15.485.14 17.443 1.295 19.986 1.646 3.626 4.68 5.508 8.884 5.511 4.157.003 7.921-1.951 9.906-5.143 1.514-2.435 1.578-3.11 1.9-19.854l.334-17.334 4.5-.197 4.5-.197v47.394h-9.334v-4.657l-3.015 2.301c-4.874 3.72-11.168 4.67-17.667 2.667zm51.682.095c-6.95-2.187-10.82-5.954-11.888-11.572l-.412-2.167h3.578c3.23 0 3.617.157 3.983 1.615 1.086 4.328 6.968 8.343 12.26 8.37 5.826.03 9.661-2.875 9.661-7.318 0-4.407-2.156-6.087-11.65-9.078-7.336-2.311-9.823-3.643-12.653-6.776-6.095-6.746-2.538-18.295 6.406-20.8 10.79-3.02 23.715 2.405 23.715 9.954 0 1.171-.42 1.366-2.945 1.366-2.725 0-3.036-.182-4.166-2.447-1.61-3.224-4.86-4.887-9.545-4.883-5.725.004-9.344 2.88-9.344 7.425 0 2.664 3.382 4.884 11.854 7.781 12.3 4.206 15.416 6.732 16.403 13.295 1.033 6.868-2.976 13.137-9.674 15.126-4.142 1.23-11.848 1.284-15.583.109zm276.84-.02c-5.595-1.998-8.693-5.672-9.828-11.659-.373-1.966-.678-10.884-.678-19.818V440.69H648v17.7c0 18.977.104 19.647 3.538 22.855 3.268 3.052 10.286 2.73 14.136-.65 3.78-3.32 4.326-6.394 4.326-24.36V440.69h8.667v47.333h-8.587l-.206-2.436-.207-2.437-2.1 1.772c-4.942 4.174-12.47 5.6-18.394 3.486zm50.918.075c-8.086-3.07-12.472-12.288-9.749-20.487 3.754-11.3 17.804-15.554 28.226-8.545l2.902 1.952-.455-4.19c-.994-9.165-2.856-12.118-8.14-12.91-5.497-.825-10.494 1.865-14.34 7.72l-1.094 1.666-2.887-2.877-2.887-2.877 3.175-2.905c4.141-3.79 8.176-5.101 15.767-5.123 9.207-.027 13.937 2.116 16.897 7.654 1.43 2.675 1.503 3.601 1.699 21.628l.204 18.833h-4.038c-3.897 0-4.038-.06-4.038-1.722 0-.947-.225-1.608-.5-1.468-6.926 3.521-8.764 4.107-13.486 4.299-2.957.12-5.934-.146-7.256-.648zm13.442-4.87c4.93-2.487 7.8-6.506 7.8-10.924 0-3.39-1.24-5.861-4.28-8.531-5.68-4.987-13.017-3.717-16.913 2.927-1.234 2.103-1.486 3.38-1.31 6.633.263 4.914 2.143 7.902 6.104 9.7 3.38 1.536 5.831 1.591 8.6.195zm119.892 4.87c-8.087-3.07-12.473-12.288-9.75-20.487 3.754-11.3 17.804-15.554 28.227-8.545l2.901 1.952-.454-4.19c-.994-9.165-2.856-12.118-8.14-12.91-5.498-.825-10.494 1.865-14.34 7.72l-1.095 1.666-2.887-2.877-2.887-2.877 3.175-2.906c4.141-3.79 8.177-5.1 15.767-5.122 9.207-.027 13.937 2.116 16.897 7.654 1.43 2.675 1.503 3.601 1.7 21.628l.204 18.833h-4.038c-3.898 0-4.038-.06-4.038-1.722 0-.947-.225-1.608-.5-1.468-6.926 3.521-8.765 4.107-13.487 4.299-2.956.12-5.933-.146-7.255-.648zm13.441-4.87c4.93-2.487 7.8-6.506 7.8-10.924 0-3.39-1.24-5.861-4.28-8.531-5.68-4.987-13.017-3.717-16.913 2.927-1.233 2.103-1.485 3.38-1.31 6.633.264 4.914 2.144 7.902 6.104 9.7 3.38 1.536 5.831 1.591 8.6.195zm-730.719-27.818c-7.414-17.724-13.48-32.586-13.48-33.026 0-.573 1.532-.745 5.378-.607l5.379.194 10.677 25.666c5.873 14.117 10.893 25.892 11.155 26.167.263.275 5.253-11.35 11.09-25.833l10.612-26.334h2.903c2.068 0 2.841.253 2.688.88-.119.483-6.066 15.329-13.216 32.99l-13 32.112-3.352.009-3.353.009zm59.186 8.56V440.69H184v47.333h-8.667zm27.334-9.333v-33h8.666v66h-8.666zm24.666 9.334v-23.667h9.253l.207 2.437.207 2.437 2.107-1.78c1.159-.978 3.259-2.265 4.667-2.859 3.375-1.424 11.06-1.357 14.771.128 3.557 1.423 7.098 5.515 8.052 9.305.444 1.76.736 9.832.736 20.294v17.371h-8.666l-.004-16.5c-.002-9.838-.297-17.555-.73-19.114-2.532-9.119-15.233-9.38-19.767-.406-1.435 2.842-1.5 3.682-1.5 19.495v16.525h-9.333zm57.334 0v-23.667h8.666v47.333h-8.666zm184.827-9.167l.173-32.833H479l.174 29.833.173 29.833h33.32v6H469.32zm55.476 31.996c-.177-.461-.242-11.036-.146-23.5l.176-22.663 4.5-.197 4.5-.197v47.394h-4.354c-2.88 0-4.463-.283-4.676-.837zm36.697-.273c-3.154-1.666-4.425-3.002-5.92-6.223-1.267-2.728-1.415-4.464-1.63-19.167l-.238-16.166H546v-4.667h7.955l.19-7.167.188-7.166H563l.19 7.166.188 7.167H574.751l-.209 2.167-.209 2.166-5.5.194-5.5.194v17.006c0 19.204.333 20.94 4.017 20.94 1.997 0 3.473-1.079 5.317-3.885l1-1.522 2.64 2.709 2.64 2.709-1.575 1.16c-3.799 2.8-5.74 3.495-9.695 3.469-2.326-.016-4.85-.47-6.01-1.084zM586 455.022v-33h8.667v24.25l1.833-1.756c4.79-4.587 14.435-6.096 20.427-3.196 3.148 1.524 6.038 5.094 7.088 8.756.359 1.249.652 10.298.652 20.109v17.837H616.078l-.205-18.166c-.189-16.64-.316-18.348-1.51-20.323-3.749-6.197-13.817-5.16-17.696 1.823-1.636 2.943-1.671 3.318-1.884 19.833l-.217 16.833H586zm157.333 9.334v-23.667h9.253l.207 2.437.207 2.437 2.107-1.78c1.159-.978 3.259-2.265 4.667-2.859 3.375-1.424 11.06-1.357 14.771.128 3.557 1.423 7.098 5.515 8.052 9.305.444 1.76.736 9.832.736 20.294v17.371h-8.666l-.007-16.5c0-9.838-.297-17.555-.73-19.114-2.532-9.119-15.233-9.38-19.767-.406-1.435 2.842-1.5 3.682-1.5 19.495v16.525h-9.333v-23.666zm57.334 0v-23.667h8.666v47.333h-8.666zm-623.758-33.088c-1.547-.777-2.909-3.23-2.909-5.24 0-.695.711-2.091 1.58-3.102 1.999-2.323 5.747-2.54 7.835-.452 1.789 1.789 1.87 5.894.15 7.614-1.548 1.547-4.784 2.12-6.656 1.18zm108.662-.826c-3.828-3.292-1.606-9.353 3.429-9.353 2.831 0 4.791 1.723 5.395 4.742.36 1.797.105 2.461-1.6 4.165-2.453 2.454-4.727 2.594-7.224.446zM527 431.28c-2.094-1.189-3.002-2.677-2.979-4.885.04-3.88 3.546-6.252 7.301-4.943 5.04 1.756 4.307 9.335-.989 10.242-1.1.189-2.6.002-3.333-.414zm274.57-.838c-3.827-3.292-1.605-9.353 3.43-9.353 2.831 0 4.791 1.723 5.395 4.742.36 1.797.105 2.461-1.6 4.165-2.453 2.454-4.727 2.594-7.224.446zm-771.5-64.141c-10.837-2.914-18.724-11.153-21.731-22.7-1.302-4.997-1.294-15.524.015-20.55 3.759-14.432 16.156-23.731 31.57-23.684 9.355.03 18.876 3.912 24.091 9.824 3.203 3.631 6.333 9.457 7.005 13.04l.462 2.458-8.908-.002-8.907-.002-1.334-2.423c-.733-1.333-2.625-3.348-4.205-4.479-3.918-2.804-10.56-3.305-15.045-1.134-5.583 2.702-8.5 8.435-8.5 16.706 0 11.342 5.61 18.096 15.028 18.096 5.823 0 9.77-2.134 12.817-6.929l1.589-2.5h8.658c10.1 0 9.842-.27 6.825 7.148-3.405 8.371-12.07 15.44-21.366 17.43-4.794 1.025-13.685.878-18.064-.3zm64.193-.369c-7.57-2.54-13.746-8.793-15.943-16.138-.572-1.915-1.035-5.985-1.044-9.185-.027-9.928 3.524-17.568 10.332-22.228 4.625-3.166 8.42-4.41 14.752-4.835 12.85-.864 22.106 4.251 27.188 15.023 1.966 4.166 2.1 4.926 2.081 11.787-.024 8.886-1.443 13.166-6.075 18.318-5.568 6.192-11.772 8.681-21.554 8.645-3.897-.014-6.938-.447-9.737-1.387zm15.077-14.743c3.478-2.367 4.731-4.557 5.131-8.967.742-8.187-3.552-14.2-10.143-14.2-2.384 0-6.576 2.262-7.88 4.253-1.597 2.436-2.563 7.528-2.062 10.867 1.16 7.741 9.115 12.021 14.954 8.047zm142.492 15.176c-3.817-1.05-9.198-4.397-11.534-7.173-7.018-8.34-8.291-22.728-2.94-33.218 6.973-13.669 29.295-16.984 41.871-6.22 4.992 4.273 8.697 14.59 7.7 21.435l-.414 2.833H250.5l.424 2.167c1.629 8.315 12.973 10.456 16.746 3.16l1.03-1.993h8.65c8.53 0 8.65.02 8.635 1.5-.04 4.094-5.277 11.349-10.716 14.846-5.417 3.483-16.062 4.692-23.437 2.663zm17.92-32.51c-.541-2.824-4.291-6.29-7.447-6.882-4.9-.919-9.712 2.302-11.28 7.55l-.448 1.5h19.59zm80.581 32.604c-8.711-2.871-14.092-8.483-16.685-17.402-1.474-5.07-1.079-15.218.772-19.818 3.9-9.696 11.543-14.997 22.656-15.712 12.017-.773 21.38 4.15 26.052 13.697 1.53 3.128 1.88 4.842 2.098 10.276l.262 6.522h-18.077c-17.75 0-18.078.025-18.078 1.36 0 .748.592 2.52 1.316 3.938 1.793 3.515 5.852 5.157 9.992 4.043 2.872-.774 6.026-3.445 6.026-5.105 0-.714 1.876-.902 9-.902 10.048 0 9.678-.229 7.929 4.905-1.545 4.533-6.743 9.925-12.122 12.573-4.037 1.987-5.035 2.191-11.448 2.34-4.45.104-8.004-.159-9.693-.715zm18.027-32.27c-1.509-6.138-7.317-8.908-13.211-6.301-3.17 1.402-4.749 3.208-5.51 6.301l-.45 1.833h19.622zm102.806 32.176c-3.818-1.05-9.199-4.397-11.535-7.173-8.808-10.467-8.26-29.208 1.13-38.596 7.729-7.73 22.46-9.546 32.765-4.04 5.755 3.076 11.346 10.79 11.934 16.466l.207 2-8.392.186-8.39.186-1.894-2.995c-3.967-6.277-11.923-5.674-15.015 1.137-1.42 3.13-1.697 8.73-.623 12.598 1.009 3.631 4.655 6.556 8.17 6.553 3.505-.003 6.647-1.856 7.778-4.586l.86-2.079h8.92c5.27 0 8.919.263 8.919.642 0 1.247-2.899 8.385-4.206 10.358-2.43 3.668-7.863 7.635-12.357 9.023-4.943 1.526-13.351 1.674-18.271.32zm57.333 0c-3.817-1.05-9.198-4.397-11.534-7.173-7.018-8.34-8.292-22.728-2.94-33.218 6.973-13.669 29.295-16.984 41.871-6.22 4.991 4.273 8.697 14.59 7.699 21.435l-.413 2.833h-36.015l.424 2.167c1.629 8.315 12.973 10.456 16.746 3.16l1.03-1.993h8.65c8.53 0 8.65.02 8.635 1.5-.04 4.094-5.277 11.349-10.716 14.846-5.418 3.483-16.062 4.692-23.437 2.663zm17.92-32.51c-.541-2.824-4.292-6.29-7.447-6.882-4.9-.919-9.712 2.302-11.28 7.55l-.449 1.5h19.59zm-407.086 6.5v-26.333H156v7.755l3.291-3.172c5.104-4.92 12.323-6.48 19.76-4.271 5.2 1.544 8.589 4.46 11.095 9.547l2.187 4.441.205 19.184.204 19.183H176l-.015-15.5c-.013-13.769-.155-15.81-1.277-18.281-1.682-3.705-4.016-5.143-8.41-5.185-4.051-.039-6.475 1.375-8.631 5.036-1.213 2.058-1.354 3.703-1.562 18.097l-.228 15.833h-16.544zm64.667 7v-19.333h-6v-14h2.929c3.218 0 3.738-.595 3.738-4.281 0-1.195.909-3.992 2.02-6.215 3.377-6.759 8.166-9.447 17.813-9.999l6.167-.353v14.848h-2.612c-3.543 0-4.601.5-5.746 2.715-1.577 3.048-1.31 3.285 3.691 3.285h4.667v14h-9.334v38.667H204zm90.667-7v-26.333h16.666v8.439l3.095-2.965c3.508-3.362 7.377-5.29 11.845-5.902l3.06-.42v18.01l-5.24.304c-5.762.333-8.661 1.582-11.023 4.748-1.306 1.75-1.418 2.867-1.617 16.167l-.215 14.286H294.667zm98 0v-26.333H410v7.436l1.612-1.915c.886-1.054 3.21-2.795 5.166-3.87 3.135-1.722 4.225-1.955 9.222-1.968 4.98-.014 6.151.226 9.667 1.984 4.778 2.39 7.82 6.098 9.468 11.544.957 3.162 1.151 6.714 1.173 21.456l.025 17.667-8.5.186-8.5.187v-15.853c-.002-17.439-.29-18.928-4.217-21.806-2.624-1.923-8.112-1.853-10.91.139-3.905 2.78-4.206 4.336-4.206 21.747v15.733h-17.333zm841.666-10.748c-3.3-1.987-6.45-3.81-7-4.05-.55-.24-1.15-.61-1.333-.82-.183-.21-1.53-.981-2.994-1.715-1.463-.733-4.157-2.308-5.985-3.5-1.828-1.191-3.68-2.166-4.117-2.166-.436 0-.893-.225-1.015-.5-.122-.275-1.422-1.093-2.89-1.817a63.982 63.982 0 0 1-5.14-2.906c-1.362-.873-3.462-2.08-4.667-2.683l-2.192-1.094v-26.26c0-22.647.138-26.34 1-26.83.55-.311 4-2.295 7.667-4.408 3.666-2.113 7.866-4.44 9.333-5.172 1.467-.732 2.817-1.483 3-1.67.567-.577 8.512-5.327 8.91-5.327.207 0 3.373-1.8 7.036-4 3.663-2.2 7.158-4 7.766-4 .973 0 6.059 2.438 6.955 3.333.183.184 1.533.934 3 1.667 1.466.733 3.91 2.158 5.43 3.167 1.52 1.008 2.979 1.833 3.243 1.833.263 0 3.459 1.8 7.1 4 3.642 2.2 6.76 4 6.93 4 .17 0 3.16 1.692 6.644 3.76l6.335 3.761-.175 25.975-.174 25.976-2.667 1.43c-1.466.788-2.766 1.656-2.889 1.931-.122.275-.472.5-.778.5-.306 0-2.84 1.35-5.63 3-2.791 1.65-5.366 3-5.722 3a.66.66 0 0 0-.647.667c0 .367-.334.667-.741.667-.408 0-3.224 1.5-6.26 3.333-3.035 1.833-5.851 3.333-6.259 3.333-.407 0-.743.225-.747.5-.01.275-1.353 1.093-3 1.816-1.646.724-2.993 1.55-2.993 1.834 0 .284-.375.524-.834.532-.458.008-1.583.601-2.5 1.318-2.51 1.964-4.426 1.543-11-2.415zm7-22.507v-23.588l-4.048-2.412c-2.226-1.326-4.151-2.41-4.279-2.41-.127 0-3.28-1.8-7.006-4-3.726-2.2-7.026-4-7.332-4-.306 0-.657-.226-.78-.5-.121-.276-1.421-1.086-2.888-1.801-1.467-.715-3.117-1.656-3.667-2.091-.55-.435-2.65-1.665-4.666-2.734-2.017-1.07-4.492-2.488-5.5-3.153l-1.834-1.209v23.806c0 23.245.031 23.814 1.334 24.155.733.191 1.333.613 1.333.937 0 .324.333.59.74.59.408 0 3.225 1.5 6.26 3.332 3.035 1.834 5.852 3.334 6.26 3.334.407 0 .74.3.74.666a.66.66 0 0 0 .647.667c.357 0 2.832 1.29 5.5 2.867 2.67 1.576 5.303 3.078 5.853 3.338.55.259 2.2 1.225 3.667 2.147 1.466.922 3.116 1.873 3.666 2.114.55.24 1.15.609 1.334.819.267.306 3.836 2.411 4.5 2.654.092.034.166-10.554.166-23.528zm7.364 19.94c2-1.274 3.85-2.324 4.113-2.334.262-.009 2.7-1.367 5.417-3.017 2.718-1.65 5.279-3 5.69-3 .413 0 .75-.3.75-.667 0-.366.333-.666.74-.666.408 0 3.224-1.5 6.26-3.334 3.035-1.833 5.826-3.333 6.203-3.333.377 0 .785-.225.908-.5.122-.275 1.422-1.159 2.889-1.964l2.666-1.464.175-23.69.175-23.69-3.37 1.987c-1.855 1.093-3.659 1.988-4.01 1.988-.35 0-.636.28-.636.621 0 .342-.62.82-1.379 1.06-.758.24-3.617 1.76-6.352 3.378-2.736 1.617-5.266 2.94-5.622 2.94a.66.66 0 0 0-.647.667c0 .367-.315.667-.7.667-.384 0-3.19 1.5-6.237 3.333-3.046 1.834-5.882 3.334-6.301 3.334-.42 0-.766.225-.77.5-.01.275-1.13 1.037-2.5 1.693l-2.492 1.192v23.308c0 15.781.225 23.307.697 23.307.384 0 2.334-1.043 4.333-2.317zm-2.439-48.618a352.59 352.59 0 0 0 7.63-4.334c1.927-1.136 3.79-2.066 4.141-2.066.35 0 .638-.225.64-.5 0-.275 1.8-1.377 4-2.45 2.198-1.071 3.998-2.13 3.998-2.35 0-.22 1.347-.993 2.993-1.717 1.647-.724 2.997-1.54 3-1.816.01-.275.318-.5.698-.5 1.187 0 9.254-4.962 9.282-5.71.015-.39-1.098-1.323-2.473-2.072-1.375-.75-3.55-1.93-4.834-2.624-1.283-.693-2.433-1.486-2.555-1.76-.123-.276-.53-.5-.908-.5-.377 0-3.168-1.5-6.203-3.334-3.036-1.833-5.852-3.333-6.26-3.333-.407 0-.74-.3-.74-.667a.66.66 0 0 0-.648-.667c-.356 0-2.93-1.35-5.722-3-2.79-1.65-5.312-3-5.604-3-.291 0-.879-.42-1.306-.934-1.847-2.226-3.953-1.883-9.684 1.579-3.055 1.845-5.888 3.355-6.296 3.355-.407 0-.74.3-.74.667a.665.665 0 0 1-.66.667c-.362 0-3.69 1.8-7.395 4-3.705 2.2-6.85 4-6.988 4-.139 0-2.536 1.35-5.327 3-2.79 1.65-5.29 3-5.552 3-.263 0-.834.355-1.269.79-.61.61-.144 1.22 2.034 2.664 1.553 1.03 3.198 1.875 3.657 1.876.458.001.833.303.833.67 0 .366.29.666.646.666.355 0 3.186 1.5 6.29 3.334 3.104 1.833 5.963 3.333 6.354 3.333.39 0 .71.3.71.667a.66.66 0 0 0 .647.666c.357 0 2.931 1.35 5.722 3 2.791 1.65 5.325 3 5.63 3 .306 0 .656.225.779.5.192.433 6.48 4.095 7.121 4.148.128.01 2.09-1.001 4.359-2.248zm-148.281-8.468c-1.27-.661-2.612-1.441-2.98-1.733-.37-.293-2.02-1.26-3.668-2.149-1.648-.89-3.146-1.79-3.33-2-.182-.21-1.532-.98-3-1.71-1.466-.73-2.816-1.48-3-1.667-.183-.186-1.233-.811-2.333-1.388-2.9-1.52-5.283-2.902-5.666-3.285-.183-.183-1.533-.93-3-1.66-1.467-.73-2.817-1.482-3-1.672-.183-.19-1.833-1.14-3.667-2.113a1251.568 1251.568 0 0 1-11.666-6.284c-1.284-.699-2.434-1.496-2.556-1.77-.122-.276-.489-.5-.814-.5-.326 0-2.875-1.35-5.666-3-2.791-1.65-5.175-3-5.299-3-.123 0-3.272-1.8-6.999-4-3.726-2.2-7.05-4-7.387-4-.337 0-.613-.235-.613-.521 0-.286-.825-.87-1.833-1.3-1.008-.427-3.12-1.545-4.693-2.483l-2.86-1.706-2.807 1.626a282.25 282.25 0 0 1-6.14 3.424c-1.833.989-3.483 1.989-3.667 2.222-.183.233-1.605 1.02-3.159 1.747-1.554.728-2.829 1.549-2.833 1.824-.01.275-.341.5-.748.5-.408 0-3.225 1.5-6.26 3.333-3.035 1.833-5.852 3.333-6.259 3.333-.407 0-.74.3-.74.667 0 .367-.323.667-.718.667-.394 0-2.808 1.243-5.365 2.762-4.356 2.587-4.763 2.703-6.45 1.834-.99-.51-1.951-1.078-2.134-1.262-.184-.184-1.834-1.113-3.667-2.066-1.833-.952-6.001-3.277-9.262-5.166-3.261-1.89-6.088-3.436-6.281-3.436-.194 0-.826-.416-1.405-.924-.578-.508-2.852-1.899-5.052-3.09-8.255-4.47-10.008-5.471-11.75-6.712-.984-.7-2.121-1.274-2.527-1.274-.53 0-.69-7.431-.564-26.381l.174-26.382 3.667-2.021a412.872 412.872 0 0 0 7.536-4.285c2.128-1.245 3.99-2.264 4.136-2.264.147 0 3.745-2.1 7.995-4.667 4.25-2.566 7.896-4.666 8.104-4.666.207 0 2.86-1.5 5.896-3.334 3.035-1.833 5.851-3.333 6.259-3.333.407 0 .744-.225.748-.5.01-.275 1.28-1.095 2.834-1.823s2.975-1.487 3.159-1.687c.416-.455 8.667-5.323 9.021-5.323.143 0 3.01-1.65 6.371-3.667 3.361-2.017 6.238-3.667 6.392-3.667.154 0 2.773-1.5 5.819-3.333 3.046-1.833 5.856-3.333 6.245-3.333.389 0 .827-.36.974-.8.581-1.745 4.849-.74 10.03 2.362 2.852 1.707 5.477 3.104 5.833 3.104.357 0 .648.3.648.667 0 .367.315.667.699.667.384 0 3.191 1.5 6.237 3.333 3.047 1.833 5.882 3.333 6.301 3.333.42 0 .763.3.763.667 0 .367.288.667.64.667.353 0 3.391 1.65 6.752 3.666 3.362 2.017 6.223 3.667 6.36 3.667.136 0 .248-10.729.248-23.842V95.004l5.411-3.157c2.976-1.737 5.676-3.158 6-3.158.324 0 .589-.3.589-.667 0-.366.343-.666.762-.666.42 0 3.255-1.5 6.301-3.334 3.046-1.833 5.853-3.333 6.238-3.333.384 0 .699-.3.699-.667 0-.366.333-.666.74-.666.408 0 3.225-1.5 6.26-3.334 3.035-1.833 5.827-3.333 6.204-3.333.376 0 .785-.225.907-.5s1.18-1.032 2.353-1.683c2.117-1.175 2.15-1.17 5.407.834 1.802 1.108 3.618 2.016 4.036 2.016.418 0 .76.3.76.666 0 .367.337.667.749.667.411 0 2.972 1.35 5.69 3 2.718 1.65 5.094 3 5.281 3 .187 0 3.337 1.8 7 4s6.95 4 7.303 4c.354 0 .643.3.643.667 0 .366.313.666.696.666.383 0 2.633 1.114 5 2.476l4.304 2.475v75.525c0 66.688-.117 75.524-1 75.524-.55 0-1.002.225-1.005.5 0 .275-.678.83-1.5 1.232-.822.403-3.445 1.873-5.828 3.267a351.653 351.653 0 0 1-7.314 4.161c-1.64.895-3.786 2.2-4.77 2.9-.984.7-1.963 1.274-2.176 1.274-.213 0-1.816.87-3.563 1.935-6.137 3.738-9.188 5.46-10.344 5.838-.641.21-1.166.623-1.166.918 0 .295-.9.734-2 .975-1.1.242-2 .68-2 .976 0 1.13-2.478 1.107-4.69-.044zm8.022-4.648c.184-.21 1.684-1.11 3.334-2 1.65-.89 3.1-1.842 3.222-2.117.123-.275.54-.5.93-.5.388 0 3.199-1.5 6.245-3.333 3.046-1.834 5.853-3.334 6.237-3.334.385 0 .703-.225.707-.5.01-.275 1.28-1.095 2.834-1.823s2.975-1.513 3.159-1.745c.183-.232 2.508-1.557 5.166-2.945l4.834-2.524-.02-23.731c-.012-14.086-.26-23.325-.61-22.732-.325.55-1.963 1.6-3.64 2.334-1.678.733-3.054 1.558-3.057 1.833-.01.275-.282.5-.618.5s-2.895 1.35-5.686 3c-2.79 1.65-5.366 3-5.722 3a.66.66 0 0 0-.647.667c0 .366-.333.666-.74.666-.408 0-3.225 1.5-6.26 3.334-3.035 1.833-5.827 3.333-6.204 3.333-.377 0-.785.225-.907.5-.123.275-1.4 1.1-2.84 1.833-4.642 2.365-4.382.826-4.382 26.017v22.921l2.166-1.135c1.191-.625 2.316-1.308 2.5-1.519zm-6.666-21.27v-23.322l-1.666-.418c-.917-.23-1.667-.686-1.667-1.013 0-.326-.333-.594-.74-.594-.408 0-3.225-1.5-6.26-3.333-3.035-1.834-5.852-3.334-6.26-3.334-.407 0-.74-.3-.74-.666 0-.367-.314-.667-.697-.667-.383 0-3.694-1.8-7.357-4-3.663-2.2-6.794-4-6.958-4-.164 0-2.257-1.199-4.652-2.665l-4.353-2.664.175 23.444.175 23.445 2.667 1.424c1.467.783 3.936 2.232 5.487 3.22 1.55.988 2.933 1.796 3.07 1.796.139 0 2.77 1.45 5.847 3.222a2061.76 2061.76 0 0 0 7.263 4.166c.916.52 1.816 1.095 2 1.279.183.183 1.533.93 3 1.66 1.466.73 4.438 2.455 6.603 3.833 2.165 1.379 4.19 2.507 4.5 2.507.31 0 .563-10.495.563-23.32zm-130.666-24.291v-23.61l-2-.886c-1.1-.487-2-1.112-2-1.39 0-.277-.342-.503-.76-.503s-2.977-1.333-5.687-2.962c-2.71-1.629-5.518-3.149-6.24-3.378-.723-.23-1.313-.697-1.313-1.039 0-.341-.337-.621-.75-.621-.411 0-2.972-1.35-5.69-3-2.717-1.65-5.056-3-5.196-3-.14 0-2.538-1.35-5.328-3-2.791-1.65-5.216-3-5.389-3-.524 0-.33 45.616.197 46.333.27.367 1.39 1.138 2.49 1.715 2.957 1.55 5.288 2.906 5.666 3.295.183.189 1.605.939 3.159 1.667 1.554.728 2.829 1.548 2.833 1.823.007.275.322.5.707.5.384 0 3.191 1.5 6.237 3.333 3.046 1.834 5.882 3.334 6.301 3.334.42 0 .765.225.768.5 0 .275.678.813 1.5 1.196 3.95 1.84 8.883 4.723 9.361 5.47.293.459.668.834.833.834.166 0 .3-10.625.3-23.611zM980 238.485c2.017-1.092 5.82-3.293 8.453-4.89 2.633-1.599 4.953-2.906 5.155-2.906.203 0 2.249-1.15 4.547-2.556a268.199 268.199 0 0 1 8.178-4.772c2.2-1.22 4.525-2.541 5.167-2.938 1.075-.665 1.167-2.544 1.167-23.894 0-15.005-.235-23.173-.667-23.173-.367 0-.667.3-.667.666 0 .367-.33.667-.732.667-.403 0-3.281 1.5-6.396 3.333-3.115 1.834-5.775 3.334-5.91 3.334-.137 0-3.245 1.8-6.908 4-3.663 2.2-6.973 4-7.357 4-.383 0-.697.3-.697.666 0 .367-.327.667-.727.667-.4 0-3.1 1.422-6 3.16l-5.273 3.16v46.479l2.5-1.508c1.375-.829 4.15-2.401 6.167-3.494zm76-18.736v-22.94l-4.167-2.587c-2.291-1.423-5.591-3.324-7.333-4.225-1.742-.902-3.167-1.864-3.167-2.14s-.309-.501-.687-.501c-.594 0-2.73-1.143-11.313-6.048-.916-.524-1.816-1.107-2-1.296-.183-.189-1.605-.939-3.159-1.666-1.554-.728-2.829-1.549-2.833-1.824-.01-.275-.417-.5-.918-.5-.5 0-1.673-.6-2.605-1.333-.932-.733-2.027-1.333-2.432-1.333-.527 0-.687 6.578-.561 23.12l.175 23.12 3.148 1.85a415.526 415.526 0 0 0 7 3.99 471.727 471.727 0 0 1 8.74 5.031c2.689 1.589 5.164 2.889 5.5 2.889.337 0 .612.3.612.666 0 .367.314.667.699.667.384 0 3.31 1.523 6.5 3.385 3.19 1.861 6.25 3.644 6.8 3.96.55.317 1.226.594 1.5.616.276.021.5-10.284.5-22.901zm43.333-24.955v-23.228l-2.5-1.272c-1.375-.7-2.6-1.497-2.722-1.772-.122-.275-.527-.5-.9-.5-.72 0-8.645-4.677-9.218-5.44-.187-.25-1.162-.66-2.166-.912-1.005-.253-1.827-.726-1.827-1.053a.609.609 0 0 0-.619-.595c-.6 0-8.708-4.595-9.381-5.316-.183-.196-2.658-1.522-5.5-2.945-2.842-1.423-5.167-2.847-5.167-3.163 0-.317-.3-.576-.666-.576-.432 0-.667 8.223-.667 23.334 0 20.296.13 23.333 1 23.333.55 0 1 .3 1 .667 0 .366.329.666.73.666.402 0 1.527.553 2.5 1.229.974.675 3.42 2.098 5.437 3.161 2.016 1.064 3.816 2.115 4 2.336.183.22 1.14.823 2.126 1.338.986.515 3.686 2.02 6 3.344a868.828 868.828 0 0 0 7.54 4.262c1.834 1.02 4.13 2.411 5.103 3.092.973.681 2.098 1.238 2.5 1.238.402 0 .73.278.73.618 0 .34.526.755 1.167.923.642.168 1.242.34 1.334.382.092.043.166-10.375.166-23.151zm8.334 19.895c3.035-1.833 5.851-3.333 6.259-3.333.407 0 .74-.3.74-.667 0-.367.344-.667.763-.667.42 0 3.255-1.5 6.301-3.333 3.046-1.833 5.853-3.333 6.237-3.333.385 0 .7-.233.7-.518 0-.284 1.347-1.109 2.993-1.833 1.647-.724 2.997-1.54 3-1.816.01-.275.327-.5.72-.5.392 0 2.004-.888 3.582-1.974 1.577-1.085 3.056-1.785 3.286-1.555.23.23.419-10.329.419-23.463 0-22.683-.06-23.83-1.167-22.876-.642.554-2.067 1.455-3.167 2.003-3.425 1.708-6.65 3.515-7 3.92-.303.356-5.425 3.235-11.333 6.373-1.283.681-2.483 1.411-2.666 1.622-.184.21-1.684 1.11-3.334 2-1.65.89-3.1 1.842-3.222 2.117-.123.275-.533.5-.913.5s-2.455 1.071-4.611 2.381l-3.92 2.382v22.952c0 12.623.183 22.951.407 22.951.224 0 2.89-1.5 5.926-3.333zm-131.369-23.667c2.718-1.65 5.263-3 5.655-3 .393 0 .714-.3.714-.666 0-.367.333-.667.74-.667.408 0 3.224-1.5 6.26-3.333 3.035-1.834 5.851-3.334 6.259-3.334.407 0 .74-.3.74-.666a.66.66 0 0 1 .648-.667c.356 0 2.831-1.275 5.5-2.833 2.669-1.559 5.678-3.26 6.686-3.78 2.121-1.094 2.308-1.738.667-2.291-.642-.216-2.067-.93-3.167-1.585-1.1-.656-3.8-2.24-6-3.519s-4.6-2.697-5.333-3.151c-.734-.455-2.159-1.196-3.167-1.647-1.008-.45-1.833-1.054-1.833-1.34 0-.286-.315-.52-.7-.52-.384 0-3.19-1.5-6.237-3.334-3.046-1.833-5.857-3.333-6.245-3.333-.39 0-.807-.225-.93-.5-.122-.275-1.651-1.199-3.398-2.052l-3.177-1.552-5.624 3.385c-3.094 1.862-5.751 3.385-5.906 3.385-.155 0-2.527 1.35-5.272 3-2.746 1.65-5.334 3-5.752 3-.417 0-.76.3-.76.667 0 .367-.378.667-.842.667-.463 0-2.338.983-4.166 2.185-1.829 1.203-4.525 2.778-5.991 3.5-1.467.723-2.817 1.487-3 1.697-.184.21-.859.575-1.5.812-.642.237-1.167.701-1.167 1.032 0 .622 9.061 6.107 10.088 6.107.318 0 .579.3.579.667 0 .366.333.666.74.666.408 0 3.224 1.5 6.26 3.334 3.035 1.833 5.852 3.333 6.259 3.333.407 0 .74.3.74.667a.66.66 0 0 0 .648.666c.356 0 2.886 1.324 5.622 2.941 2.735 1.618 5.594 3.138 6.352 3.378.758.241 1.379.718 1.379 1.06 0 1.381 2.953.461 7.631-2.379zM1056 170.69c0-21.41-.236-24.278-1.8-21.833-.293.458-2.633 1.883-5.2 3.166-2.567 1.284-4.817 2.493-5 2.687-.682.724-8.785 5.313-9.381 5.313-.34 0-.62.3-.62.667 0 .367-.342.667-.762.667-.419 0-3.254 1.5-6.3 3.333-3.047 1.833-5.779 3.34-6.071 3.348-.293.008-1.283.608-2.2 1.334l-1.666 1.318 1.667 1.297c.916.714 2.716 1.867 4 2.564 8.65 4.698 10.525 5.765 12.102 6.884.974.69 2.074 1.255 2.445 1.255s.775.225.897.5 1.422 1.097 2.889 1.827c1.467.73 2.817 1.48 3 1.667.448.456 3.697 2.292 7.175 4.054 1.563.792 3.006 1.705 3.206 2.03 1.359 2.198 1.619-1.348 1.619-22.078zm-39.22-3.167c1.22-.641 2.32-1.391 2.442-1.666.122-.275.47-.5.77-.5.302 0 3.098-1.5 6.213-3.334 3.115-1.833 5.993-3.333 6.396-3.333.403 0 .732-.265.732-.589 0-.324.525-.755 1.167-.959 1.169-.37 4.874-2.48 5.5-3.132.183-.191 1.083-.705 2-1.143 5.402-2.58 14.133-8.177 12.755-8.177-.488 0-3.435-1.5-6.55-3.333-3.115-1.834-5.936-3.334-6.268-3.334-.332 0-.604-.3-.604-.666 0-.367-.314-.667-.699-.667-.384 0-3.191-1.5-6.237-3.333-3.047-1.834-5.882-3.334-6.301-3.334-.42 0-.763-.3-.763-.666 0-.367-.314-.667-.699-.667-.384 0-3.2-1.505-6.258-3.345-6.187-3.724-5.897-3.725-12.043.015-1.833 1.116-4.083 2.39-5 2.833-.916.442-1.816.96-2 1.15-.183.191-2.057 1.247-4.164 2.347-2.107 1.1-3.832 2.158-3.833 2.35 0 .193-1.35.943-2.996 1.667-1.647.724-2.997 1.541-3 1.816-.01.275-.279.5-.61.5-.333 0-3.153 1.5-6.268 3.334-3.115 1.833-5.993 3.333-6.396 3.333-1.48 0-.667 1.122 1.767 2.44 8.519 4.616 10.685 5.847 12.27 6.971.973.69 2.098 1.256 2.5 1.256.402 0 .73.276.73.613 0 .338.9.812 2 1.053 1.1.242 2 .716 2 1.053 0 .338.321.614.713.614.393 0 2.022.9 3.62 2 1.6 1.1 3.207 2 3.573 2 .366 0 1.07.375 1.564.833.943.876 8.542 5.061 9.31 5.128.245.022 1.445-.486 2.666-1.128zm80.737-46.663c-1.018-.823-2.09-1.498-2.383-1.5-.293-.002-3.025-1.503-6.07-3.337-3.047-1.833-5.882-3.333-6.302-3.333-.419 0-.762-.3-.762-.667 0-.366-.33-.666-.733-.666-.76 0-8.675-4.644-9.274-5.441-.187-.25-1.162-.66-2.166-.912-1.005-.252-1.827-.726-1.827-1.053 0-.327-.285-.594-.633-.594-.349 0-2.374-1.05-4.5-2.332-2.127-1.282-4.092-2.332-4.367-2.333-.275 0-.5 10.498-.5 23.331 0 14.482.243 23.334.64 23.334.353 0 3.391 1.65 6.753 3.666 3.36 2.017 6.237 3.667 6.391 3.667.154 0 2.773 1.5 5.82 3.333 3.045 1.834 5.88 3.334 6.3 3.334.42 0 .763.3.763.666 0 .367.375.682.833.701.458.019 3.683 1.767 7.167 3.886l6.333 3.85.183-23.051.184-23.052zm5.15 47.163c0-.366.333-.666.74-.666.408 0 3.224-1.5 6.26-3.334 3.035-1.833 5.851-3.333 6.259-3.333.407 0 .74-.267.74-.594 0-.327.823-.801 1.827-1.053 1.005-.252 1.98-.663 2.167-.912.598-.797 8.513-5.44 9.274-5.44.403 0 .733-.3.733-.668 0-.366.282-.666.627-.666.346 0 3.046-1.413 6-3.14l5.373-3.14-.01-23.693c-.01-13.032-.231-23.379-.5-22.994-.555.793-5.826 4.002-9.824 5.98-1.466.726-2.816 1.486-3 1.69-.28.31-14.72 8.602-19 10.91-.733.396-1.483.87-1.666 1.053-.184.184-1.834 1.142-3.667 2.13l-3.333 1.795-.175 23.371c-.116 15.448.054 23.371.5 23.371.37 0 .675-.3.675-.667zm2-50.779c1.65-.95 5.152-2.962 7.783-4.473 2.63-1.511 5.105-2.748 5.5-2.748.394 0 .717-.234.717-.52 0-.286.825-.882 1.833-1.323 1.008-.441 3.333-1.725 5.167-2.853 1.833-1.129 4.158-2.4 5.166-2.824 1.009-.424 1.834-1.006 1.834-1.292 0-.287.276-.52.613-.52.774 0 8.027-4.218 8.027-4.668 0-.45-7.253-4.666-8.027-4.666-.337 0-.613-.3-.613-.667 0-.367-.334-.667-.741-.667-.408 0-3.224-1.5-6.26-3.333-3.035-1.833-5.851-3.333-6.259-3.333-.407 0-.74-.3-.74-.667 0-.367-.334-.667-.741-.667-.408 0-3.224-1.5-6.26-3.333-3.035-1.833-5.851-3.333-6.259-3.333-.407 0-.74-.227-.74-.504s-.926-.914-2.057-1.415c-1.896-.839-2.354-.76-5.834 1.004-2.077 1.053-3.926 2.067-4.11 2.254-.844.86-8.615 5.327-9.267 5.327-.403 0-.732.3-.732.667 0 .367-.334.667-.741.667-.408 0-3.224 1.5-6.26 3.333-3.035 1.833-5.851 3.333-6.259 3.333-.407 0-.74.3-.74.667 0 .367-.273.667-.607.667-.847 0-8.06 4.19-8.06 4.683 0 .222 1.125 1.006 2.5 1.743 3.752 2.012 5.795 3.2 6.167 3.587.183.191 1.083.706 2 1.144.916.439 3.166 1.713 5 2.83 1.833 1.119 4.158 2.395 5.166 2.836 1.009.441 1.834 1.037 1.834 1.323 0 .286.314.52.699.52.384 0 3.191 1.5 6.237 3.334 3.046 1.833 5.882 3.333 6.301 3.333.42 0 .763.229.763.509 0 .692 2.765 1.982 4 1.866.55-.052 2.35-.871 4-1.82zM68.263 253.933c-7.57-2.542-13.746-8.794-15.943-16.14-.572-1.914-1.035-5.984-1.044-9.184-.027-9.928 3.524-17.568 10.332-22.228 4.625-3.166 8.42-4.41 14.752-4.835 12.85-.864 22.106 4.251 27.188 15.023 1.966 4.166 2.1 4.926 2.081 11.787-.024 8.886-1.443 13.166-6.075 18.318-5.568 6.192-11.772 8.681-21.554 8.645-3.897-.014-6.938-.447-9.737-1.387zm15.077-14.744c3.478-2.367 4.731-4.557 5.131-8.967.742-8.187-3.552-14.2-10.143-14.2-2.384 0-6.576 2.262-7.88 4.253-1.597 2.436-2.563 7.528-2.062 10.867 1.16 7.741 9.115 12.021 14.954 8.047zm103.03 14.795c-2.18-.77-5.252-2.324-6.827-3.455-12.327-8.853-13.563-31.489-2.295-42.029 4.042-3.78 7.298-5.458 12.637-6.508 16.802-3.306 30.682 5.933 32.53 21.653.232 1.978.22 4.671-.027 5.986l-.448 2.391h-36.085l.455 1.834c1.339 5.39 4.218 7.856 9.09 7.784 3.692-.055 6.38-1.609 7.803-4.51l.87-1.774h17.952l-.441 1.833c-1.57 6.514-6.624 12.541-13.25 15.802-3.522 1.733-4.838 1.994-11 2.18-5.778.175-7.693-.033-10.964-1.187zm18.96-31.462c-.006-4.415-5.962-8.488-11.022-7.539-3 .563-6.8 3.996-7.607 6.873l-.608 2.166h9.62c9.533 0 9.62-.013 9.618-1.5zm151.834 32.145c-7.344-1.833-13.406-6.86-16.73-13.877-1.994-4.21-2.1-4.84-2.1-12.448 0-7.707.083-8.185 2.182-12.448 2.836-5.761 7.874-10.432 13.591-12.601 3.567-1.354 5.37-1.598 11.56-1.566 9.027.047 13.28 1.489 18.526 6.283 6.383 5.833 8.887 12.675 8.314 22.716-.591 10.371-5.555 18.016-14.401 22.179-3.986 1.876-5.154 2.104-11.44 2.237-3.85.082-8.126-.132-9.502-.475zm12.846-15.214c1.278-.68 3.01-2.405 3.848-3.833 1.296-2.207 1.496-3.368 1.33-7.72-.208-5.5-1.118-7.437-4.778-10.17-2.515-1.877-7.639-1.877-10.153 0-3.66 2.733-4.57 4.67-4.779 10.17-.165 4.352.035 5.513 1.33 7.72 1.783 3.036 5.202 5.07 8.525 5.07 1.295 0 3.4-.557 4.677-1.237zM517 254.456c-10.075-3.328-16.47-11.193-17.544-21.577-1.864-18.015 7.253-30.083 23.676-31.342 5.487-.421 11.925.644 15.78 2.61 4.363 2.226 8.746 6.853 10.785 11.386 1.583 3.516 1.878 5.08 1.92 10.156l.05 6-18.094.177-18.095.178.49 2.171c1.137 5.041 3.932 7.393 8.787 7.396 3.552.002 6.183-1.45 7.809-4.308l1.103-1.939 8.833-.004c5.218-.003 8.833.259 8.833.638 0 .353-.616 2.288-1.369 4.3-1.888 5.046-6.216 9.643-11.698 12.426-4.182 2.122-5.008 2.297-11.552 2.45-4.48.104-8.019-.157-9.714-.717zm17.667-32.382c0-5.789-8.858-9.212-14.532-5.617-1.807 1.145-4.129 4.74-4.133 6.399-.002 1.055.886 1.166 9.331 1.166h9.334zm99.521 31.875c-6.636-2.55-11.814-9.38-13.59-17.924-1.11-5.341-.423-15.485 1.366-20.167 1.927-5.046 6.938-10.512 11.523-12.57 2.85-1.28 4.646-1.58 9.513-1.584 6.707-.006 9.652 1.092 13.333 4.97l2 2.107.334-11.88.333-11.879h16.667l.172 34.834.173 34.833h-17.345v-6.667l-2.572 2.572c-1.446 1.446-3.978 3.05-5.785 3.667-4.441 1.513-11.742 1.372-16.122-.312zm20.023-15.455c3.078-2.347 4.458-5.527 4.445-10.239-.02-7.118-4.26-11.822-10.656-11.822-3.514 0-6.816 1.636-8.873 4.395-1.485 1.993-2.232 7.651-1.514 11.477.533 2.842 3.26 6.23 6.02 7.483 3.019 1.37 7.863.777 10.578-1.294zM9.333 221.356v-33.334H26v54h21.333v12.667h-38zm116.393 28.5c-.958-2.659-5.15-14.434-9.315-26.167l-7.574-21.333 8.695-.187c4.782-.103 8.914.047 9.182.333.269.286 2.821 7.945 5.672 17.02 2.851 9.075 5.355 16.497 5.565 16.492.21-.005 2.013-5.33 4.005-11.833 1.992-6.504 4.336-14.15 5.209-16.992l1.586-5.167h9.03c6.934 0 8.96.194 8.736.834l-9.238 26.323-8.946 25.49-10.432.01-10.432.01zm122.94-28.5v-33.334h44v13.334h-27.333v14h21.334v12.666h-21.334v26.667h-16.666zm51.334 7v-26.334h16.667v8.617l3.166-3.083c3.565-3.47 7.265-5.344 11.773-5.962l3.06-.42v18.006l-4.89.314c-5.963.383-9.592 2.033-11.424 5.195-1.215 2.097-1.376 3.734-1.586 16.167l-.234 13.833H300zm100 0v-26.334h17.333v7.436l1.612-1.915c.886-1.054 3.211-2.795 5.167-3.87 3.135-1.722 4.224-1.955 9.221-1.968 4.98-.014 6.151.226 9.667 1.984 4.778 2.39 7.82 6.098 9.468 11.544.957 3.162 1.151 6.714 1.173 21.456l.026 17.667-8.5.186-8.5.187-.001-15.853c-.001-17.439-.29-18.928-4.217-21.806-2.623-1.923-8.112-1.853-10.91.139-3.905 2.78-4.205 4.336-4.205 21.747v15.733H400zm78.662 25.71c-2.894-.88-6.118-2.775-7.842-4.608-3.36-3.574-3.766-5.512-4.139-19.769l-.348-13.333-3.5-.202-3.5-.201V202.022h7.334v-12.666h16.666v12.666H494v14h-10.667v10.897c0 12.825.04 12.909 6.344 13.232l3.99.205.189 7.166.19 7.167-6.857-.057c-3.77-.032-7.608-.286-8.527-.566zm80.671-25.71v-26.334h17.334v7.436l1.611-1.915c.887-1.054 3.212-2.795 5.167-3.87 3.135-1.722 4.224-1.955 9.222-1.968 4.98-.014 6.15.226 9.666 1.984 4.779 2.39 7.82 6.098 9.469 11.544.957 3.162 1.15 6.714 1.172 21.456l.026 17.667-8.5.186-8.5.187-.001-15.853c-.001-17.439-.29-18.928-4.216-21.806-2.624-1.923-8.113-1.853-10.91.139-3.905 2.78-4.206 4.336-4.206 21.747v15.733h-17.334zm-472-86.25c-9.805-3.151-15.826-10.508-17.512-21.4-2.273-14.687 6.231-27.67 20.045-30.6 13.423-2.849 26.345 2.41 31.462 12.804 6.477 13.157 2.381 30.087-8.871 36.668-6.567 3.841-17.586 4.95-25.124 2.528zm15.243-15.247c3.16-2.354 4.424-5.357 4.424-10.503 0-7.78-3.517-12-10-12-5.864 0-9.423 3.704-10.129 10.543-.603 5.85 1.797 10.942 6.072 12.879 2.666 1.207 7.384.757 9.633-.919zm40.814 15.352c-3.65-1.29-8.31-5.856-10.235-10.033-1.371-2.973-1.469-4.283-1.684-22.656l-.228-19.5H148l.001 15.834c0 13.743.155 16.14 1.167 18.153 3.423 6.813 12.822 7.103 16.836.52 1.225-2.01 1.325-3.384 1.327-18.34l.002-16.167h17.334v52.667h-17.334V135.752l-2.547 2.487c-4.88 4.766-14.233 6.502-21.396 3.972zm92.61.413c-4.158-.812-10.558-4.082-14.061-7.183-13.366-11.835-14.022-37.812-1.277-50.556 12.05-12.05 34.734-12.77 46.971-1.489 3.18 2.932 6.68 8.994 7.385 12.793l.464 2.5h-9.074c-5.101 0-9.075-.27-9.075-.615 0-1.122-4.107-4.745-6.572-5.798-1.71-.73-3.824-.952-7.152-.752-6.025.362-9.736 2.694-12.626 7.933-1.787 3.24-1.968 4.144-1.975 9.899-.007 5.575.212 6.782 1.832 10.08 2.935 5.975 7.73 8.685 15.493 8.755 6.722.061 11.516-2.713 14.408-8.335l1.286-2.5H242v-12.689l17.167.177 17.166.178.188 8.195c.182 7.985.134 8.306-1.899 12.565-3.76 7.879-11.627 14.29-20.312 16.552-4.232 1.102-13.407 1.247-18.31.29zm65.164.043c-7.344-1.833-13.406-6.86-16.73-13.877-1.994-4.21-2.1-4.84-2.1-12.448 0-7.707.083-8.185 2.182-12.448 2.836-5.761 7.874-10.432 13.591-12.601 3.567-1.354 5.37-1.598 11.56-1.566 9.027.047 13.28 1.49 18.526 6.283 6.383 5.834 8.887 12.675 8.314 22.716-.591 10.371-5.555 18.016-14.401 22.179-3.986 1.876-5.154 2.104-11.44 2.237-3.85.082-8.126-.132-9.502-.475zm12.846-15.214c1.278-.68 3.01-2.405 3.848-3.833 1.296-2.207 1.496-3.368 1.33-7.72-.208-5.5-1.118-7.437-4.778-10.17-2.515-1.877-7.639-1.877-10.153 0-3.66 2.733-4.57 4.67-4.779 10.17-.165 4.352.035 5.513 1.33 7.72 1.783 3.036 5.202 5.07 8.525 5.07 1.295 0 3.4-.557 4.677-1.237zm119.792 14.941c-10.945-3.904-16.44-15.179-15.038-30.857.528-5.917 3.334-12.28 7.055-16 7.901-7.901 22.363-8.307 29.13-.817l2.384 2.64v-7.338H474v52.667h-16.667v-6.79l-3.265 2.936c-1.796 1.615-4.456 3.292-5.91 3.728-3.504 1.05-11.193.96-14.356-.169zm17.528-15.205c7.525-3.832 8.115-16.28 1-21.095-3.101-2.099-8.893-2.235-11.543-.272-4.243 3.142-6.028 8.331-4.78 13.896.93 4.156 2.249 5.962 5.539 7.59 3.585 1.775 6.125 1.744 9.784-.119zm-423.997 4.735V121.16l-10.255-19.735c-5.64-10.854-10.896-21.01-11.68-22.568l-1.425-2.834h19.419l4.965 10.5c2.731 5.775 5.507 11.66 6.17 13.079l1.203 2.579 6.07-12.912 6.07-12.912 9.398-.185c6.593-.13 9.399.037 9.399.56 0 .41-5.1 10.565-11.334 22.567L44 121.119v21.57H27.333zm331.996 10.142c-2.894-.88-6.118-2.775-7.842-4.608-3.361-3.574-3.767-5.512-4.139-19.769L347 104.356l-3.5-.202-3.5-.201V90.022h7.333V77.356H364v12.666h10.667v14H364v10.897c0 12.825.04 12.909 6.344 13.232l3.99.205.189 7.166.189 7.167-6.856-.057c-3.77-.032-7.608-.286-8.527-.566zm37.338-.476c-9.06-3.128-11.319-8.657-11.329-27.734l-.005-9.834h-6.666v-14h6.666V77.356h17.334v12.666h10v14h-10v10.953c0 12.977.032 13.047 6.047 13.047h3.953v14.667l-6.5-.032c-4.067-.02-7.623-.42-9.5-1.067zm455.666-33.764c-1.466-.809-2.766-1.695-2.888-1.97-.123-.275-.535-.5-.916-.5s-2.917-1.35-5.635-3-5.094-3-5.281-3c-.187 0-3.337-1.8-7-4s-6.95-4-7.303-4a.657.657 0 0 1-.643-.667c0-.367-.328-.667-.728-.667-.4 0-3.1-1.421-6-3.16l-5.272-3.159V31.24l2-.755c1.1-.415 2-.99 2-1.275 0-.287.294-.521.653-.521.36 0 2.235-.986 4.167-2.19 1.932-1.205 4.713-2.78 6.18-3.5 1.466-.72 2.816-1.474 3-1.675.376-.413 5.649-3.507 9.666-5.674 4.534-2.444 7.928-4.402 9.667-5.574.917-.618 3.052-1.836 4.744-2.707l3.078-1.583 2.59 1.555c2.34 1.406 6.432 3.787 12.921 7.52 1.284.738 3.984 2.236 6 3.33 2.017 1.093 4.463 2.552 5.437 3.243.973.69 2.073 1.255 2.444 1.255s.775.225.897.5 1.422 1.087 2.889 1.805c1.467.718 4.198 2.293 6.069 3.5 1.871 1.207 3.714 2.195 4.095 2.195.381 0 .89.51 1.129 1.135.498 1.298.514 50.391.017 51.683-.18.467-2.048 1.749-4.152 2.849-2.103 1.1-3.925 2.225-4.047 2.5-.122.275-.473.5-.779.5-.306 0-3.606 1.8-7.332 4s-6.89 4-7.03 4c-.141 0-3.253 1.8-6.916 4-3.663 2.2-6.855 4-7.094 4-.238 0-1.767.9-3.397 2-3.5 2.362-3.767 2.38-7.23.47zm2.325-25.304l-.008-23.5-5.125-3c-2.819-1.65-5.44-3.119-5.825-3.264-.385-.146-3.635-2.02-7.223-4.167-3.588-2.146-6.639-3.902-6.779-3.902-.14 0-2.454-1.3-5.143-2.888-6.354-3.754-11.19-6.445-11.579-6.445-.17 0-.31 10.482-.31 23.294v23.295l5.73 3.372c3.151 1.855 6.001 3.372 6.333 3.372.333 0 .604.3.604.667 0 .366.33.666.733.666.403 0 3.28 1.5 6.396 3.334 3.115 1.833 5.935 3.333 6.267 3.333.333 0 .604.3.604.667 0 .366.315.666.7.666.384 0 3.19 1.5 6.237 3.334 3.046 1.833 5.882 3.333 6.3 3.333.42 0 .763.3.763.667 0 .366.3.666.667.666.432 0 .664-8.272.658-23.5zm5.894 21.5c.43 0 .781-.3.781-.666 0-.367.334-.667.741-.667s3.224-1.5 6.26-3.333c3.035-1.834 5.851-3.334 6.259-3.334.407 0 .74-.3.74-.666 0-.367.276-.667.612-.667.336 0 2.811-1.294 5.5-2.876 2.689-1.582 5.338-3.086 5.888-3.342.55-.257 2.5-1.372 4.334-2.48 1.833-1.107 4.008-2.352 4.833-2.765l1.5-.751v-23.56c0-12.957-.112-23.56-.249-23.56s-2.495 1.35-5.24 3-5.333 3-5.751 3c-.418 0-.76.3-.76.667 0 .367-.29.667-.643.667-.354 0-3.64 1.8-7.303 4s-6.813 4-7 4c-.187 0-3.062 1.65-6.387 3.667-3.326 2.016-6.337 3.666-6.69 3.666-.402 0-.644 9.065-.644 24.104 0 23.308.04 24.067 1.22 23 .67-.607 1.57-1.104 2-1.104zm1.845-51.333c3.046-1.833 5.853-3.333 6.237-3.333.385 0 .7-.3.7-.667 0-.367.314-.667.698-.667.385 0 3.192-1.5 6.238-3.333 3.046-1.833 5.882-3.333 6.3-3.333.42 0 .763-.3.763-.667 0-.367.272-.667.604-.667.333 0 3.183-1.517 6.334-3.372 5.646-3.323 6.854-4.782 4.562-5.509-1.142-.362-4.84-2.46-5.5-3.119-.183-.183-2.283-1.359-4.666-2.612-2.384-1.254-5.05-2.829-5.924-3.5-.874-.672-1.974-1.22-2.444-1.22s-.955-.226-1.077-.5c-.122-.276-1.422-1.098-2.889-1.828-1.466-.73-2.816-1.48-3-1.667-.183-.186-.933-.661-1.666-1.055-3.738-2.007-6.034-3.318-6.334-3.618-.928-.928-4.69-2.666-5.77-2.665-.676.001-2.97 1.051-5.096 2.334-2.127 1.282-4.152 2.331-4.5 2.331-.349 0-.637.225-.64.5-.007.275-1.353 1.093-3 1.816-1.647.724-2.994 1.514-2.994 1.756s-.525.612-1.166.822c-.642.21-2.367 1.13-3.834 2.045-1.466.913-4.016 2.351-5.666 3.194-1.65.843-3.15 1.71-3.334 1.925-.183.216-2.573 1.61-5.31 3.1-5.286 2.875-6.218 3.893-4.245 4.634.672.253 4.133 2.203 7.692 4.334 3.558 2.13 6.783 3.874 7.166 3.874.384 0 .697.3.697.667 0 .367.334.667.741.667s3.224 1.5 6.26 3.333c3.035 1.833 5.851 3.333 6.259 3.333.407 0 .74.3.74.667 0 .367.285.667.634.667.348 0 2.373 1.049 4.5 2.331 2.126 1.283 4.434 2.333 5.129 2.334.694 0 3.755-1.499 6.8-3.332z"/></svg>