<svg xmlns="http://www.w3.org/2000/svg" viewBox="0 0 591 399"><g fill="none" fill-rule="evenodd"><path fill="#000" fill-rule="nonzero" d="M87.103 309.904H38.85l-8.457 19.67c-2.083 4.84-3.125 8.455-3.125 10.844 0 1.9.89 3.585 2.666 5.055 1.838 1.41 5.76 2.33 11.764 2.758v3.41H2.452v-3.4c5.208-.92 8.578-2.11 10.11-3.58 3.125-2.94 6.587-8.91 10.386-17.92L66.79 224.15h3.217l43.382 103.676c3.49 8.334 6.64 13.757 9.46 16.27 2.88 2.45 6.86 3.828 11.95 4.135v3.41H85.63v-3.4c4.963-.24 8.303-1.07 10.018-2.48 1.777-1.41 2.666-3.12 2.666-5.14 0-2.69-1.226-6.95-3.677-12.77L87.1 309.91m-2.574-6.8l-21.14-50.367-21.692 50.36h42.83M246.387 227v3.4c-4.412.797-7.752 2.206-10.02 4.228-3.246 3.002-6.126 7.598-8.638 13.787L184.25 354.48h-3.4l-46.69-107.443c-2.388-5.515-4.073-8.885-5.054-10.11-1.532-1.9-3.43-3.37-5.698-4.412-2.206-1.103-5.21-1.808-9.008-2.114V227h50.92v3.4c-5.76.552-9.498 1.532-11.214 2.94-1.715 1.41-2.573 3.218-2.573 5.424 0 3.064 1.41 7.843 4.228 14.338l31.71 73.07 29.42-72.15c2.88-7.108 4.32-12.04 4.32-14.8 0-1.775-.89-3.46-2.66-5.054-1.77-1.654-4.78-2.818-9-3.492-.3-.06-.82-.153-1.56-.276V227h38.42m266.09 0v3.4c-3.24 0-5.88.582-7.9 1.746-2.02 1.165-3.95 3.34-5.79 6.526-1.22 2.145-3.15 7.26-5.79 15.35L458.24 354.48h-3.676l-28.4-79.69-28.218 79.69h-3.31L357.6 250.987c-2.756-7.72-4.503-12.285-5.238-13.695-1.225-2.328-2.91-4.044-5.055-5.147-2.083-1.164-4.933-1.746-8.548-1.746V227h46.14v3.4h-2.21c-3.25 0-5.73.735-7.45 2.206-1.72 1.47-2.58 3.248-2.58 5.33 0 2.145 1.35 7.078 4.04 14.8l24.54 69.943 20.68-59.47-3.68-10.48-2.94-8.37c-1.29-3.07-2.73-5.76-4.32-8.09-.8-1.17-1.78-2.15-2.94-2.94-1.54-1.11-3.07-1.9-4.6-2.39-1.17-.37-3.01-.55-5.52-.55V227h48.53v3.4h-3.31c-3.43 0-5.95.735-7.54 2.206-1.6 1.47-2.39 3.462-2.39 5.974 0 3.125 1.38 8.58 4.13 16.36l23.893 67.74 23.713-68.66c2.693-7.597 4.04-12.866 4.04-15.808 0-1.41-.46-2.726-1.38-3.952-.857-1.225-1.96-2.083-3.31-2.573-2.326-.858-5.36-1.287-9.1-1.287V227h37.23m39.52 112.5c-8.64 6.678-14.06 10.538-16.268 11.58-3.31 1.532-6.833 2.298-10.57 2.298-5.82 0-10.63-1.992-14.43-5.974-3.74-3.983-5.608-9.222-5.608-15.717 0-4.106.92-7.66 2.76-10.662 2.51-4.167 6.86-8.088 13.05-11.765 6.25-3.676 16.61-8.15 31.07-13.42v-3.308c0-8.394-1.35-14.154-4.047-17.28-2.635-3.124-6.495-4.687-11.58-4.687-3.86 0-6.925 1.042-9.19 3.125-2.33 2.084-3.494 4.474-3.494 7.17l.187 5.33c0 2.82-.734 4.994-2.204 6.526-1.41 1.532-3.28 2.298-5.61 2.298-2.267 0-4.136-.797-5.607-2.39-1.41-1.593-2.115-3.768-2.115-6.526 0-5.27 2.7-10.11 8.09-14.522 5.39-4.41 12.96-6.617 22.7-6.617 7.48 0 13.608 1.25 18.387 3.76 3.61 1.9 6.28 4.87 7.993 8.91 1.105 2.63 1.657 8.02 1.657 16.17v28.59c0 8.02.157 12.96.46 14.79.31 1.77.8 2.97 1.47 3.58.74.61 1.566.92 2.486.92.98 0 1.84-.22 2.57-.65 1.29-.8 3.77-3.04 7.45-6.71v5.14c-6.86 9.19-13.42 13.79-19.67 13.79-3 0-5.39-1.04-7.163-3.127-1.78-2.084-2.7-5.638-2.76-10.66m0-5.977v-32.07c-9.25 3.674-15.227 6.28-17.92 7.81-4.84 2.695-8.306 5.514-10.39 8.455-2.083 2.94-3.124 6.16-3.124 9.65 0 4.416 1.31 8.09 3.95 11.03 2.63 2.88 5.67 4.32 9.1 4.32 4.66 0 10.78-3.06 18.38-9.19M87.102 86.373H38.85l-8.457 19.67c-2.083 4.84-3.125 8.46-3.125 10.85 0 1.9.89 3.58 2.666 5.05 1.838 1.41 5.76 2.33 11.764 2.76v3.4H2.452v-3.4c5.208-.92 8.578-2.11 10.11-3.58 3.125-2.94 6.587-8.92 10.386-17.926L66.79.62h3.217l43.382 103.677c3.49 8.333 6.64 13.756 9.46 16.268 2.88 2.45 6.86 3.83 11.95 4.136v3.41H85.63v-3.4c4.963-.24 8.303-1.07 10.018-2.48 1.777-1.41 2.666-3.12 2.666-5.14 0-2.69-1.226-6.95-3.677-12.77L87.1 86.38m-2.574-6.8l-21.14-50.37-21.692 50.37h42.83M266.97 3.47v3.4c-4.413.797-7.752 2.207-10.02 4.23-3.247 3-6.127 7.597-8.64 13.785L204.838 130.95h-3.4L154.744 23.508c-2.39-5.515-4.075-8.885-5.055-10.11-1.54-1.9-3.44-3.37-5.7-4.412-2.21-1.103-5.21-1.808-9.01-2.114v-3.4h50.92v3.4c-5.76.552-9.5 1.533-11.22 2.942-1.72 1.41-2.58 3.217-2.58 5.423 0 3.063 1.41 7.843 4.23 14.338l31.71 73.07 29.41-72.15c2.88-7.11 4.32-12.04 4.32-14.8 0-1.776-.89-3.46-2.67-5.054-1.78-1.65-4.78-2.82-9.01-3.49-.31-.06-.83-.15-1.57-.27v-3.4h38.42m245.66 0v3.4c-3.25 0-5.89.59-7.91 1.75-2.02 1.17-3.95 3.34-5.79 6.53-1.23 2.15-3.16 7.26-5.79 15.35L458.4 130.95h-3.675l-28.4-79.686-28.218 79.687h-3.31l-37.04-103.49c-2.756-7.72-4.503-12.28-5.238-13.69-1.23-2.33-2.92-4.04-5.06-5.14-2.09-1.16-4.94-1.74-8.55-1.74v-3.4h46.14v3.4h-2.21c-3.25 0-5.73.74-7.45 2.21-1.72 1.47-2.58 3.25-2.58 5.33 0 2.15 1.35 7.08 4.04 14.8l24.54 69.94 20.68-59.46-3.68-10.48-2.94-8.36c-1.29-3.06-2.73-5.76-4.32-8.08-.8-1.165-1.78-2.15-2.95-2.94-1.53-1.105-3.06-1.9-4.596-2.39-1.164-.37-3.003-.553-5.515-.553V3.5h48.53v3.4h-3.31c-3.43 0-5.944.735-7.537 2.205s-2.39 3.466-2.39 5.978c0 3.125 1.38 8.58 4.14 16.36l23.9 67.74 23.71-68.66c2.694-7.598 4.042-12.868 4.042-15.81 0-1.408-.46-2.726-1.38-3.95-.857-1.227-1.96-2.084-3.308-2.575-2.33-.853-5.36-1.282-9.1-1.282V3.5h37.23m48.33 112.47c-8.64 6.68-14.06 10.54-16.27 11.58-3.305 1.54-6.83 2.3-10.57 2.3-5.82 0-10.63-1.99-14.43-5.97-3.734-3.98-5.603-9.22-5.603-15.715 0-4.11.92-7.66 2.76-10.665 2.51-4.164 6.86-8.085 13.05-11.762 6.25-3.674 16.606-8.147 31.067-13.417V69c0-8.393-1.35-14.153-4.043-17.28-2.63-3.123-6.49-4.685-11.58-4.686-3.86 0-6.92 1.04-9.19 3.12-2.33 2.085-3.49 4.475-3.49 7.17l.18 5.33c0 2.82-.734 4.995-2.21 6.527-1.41 1.53-3.273 2.3-5.6 2.3-2.27 0-4.14-.79-5.61-2.39-1.41-1.59-2.11-3.76-2.11-6.52 0-5.27 2.695-10.11 8.09-14.52 5.39-4.41 12.96-6.61 22.7-6.61 7.474 0 13.6 1.26 18.38 3.77 3.62 1.9 6.28 4.87 8 8.92 1.1 2.63 1.65 8.026 1.65 16.175v28.58c0 8.03.15 12.96.46 14.8.304 1.776.795 2.97 1.47 3.584.734.61 1.56.92 2.48.92.98 0 1.84-.22 2.574-.648 1.29-.8 3.77-3.036 7.45-6.71v5.144c-6.86 9.19-13.42 13.788-19.67 13.788-3 0-5.39-1.05-7.17-3.13-1.774-2.08-2.693-5.64-2.754-10.66m0-5.98V77.9c-9.258 3.675-15.23 6.28-17.93 7.81-4.84 2.697-8.3 5.516-10.38 8.457-2.083 2.94-3.13 6.158-3.13 9.65 0 4.413 1.32 8.09 3.95 11.03 2.64 2.88 5.67 4.32 9.1 4.32 4.66 0 10.79-3.064 18.38-9.19"/><path stroke="#0097FF" stroke-width=".5" d="M114.647 226.937V351.74m20.06-124.803V351.74m378.016-124.69v124.8M134.935 3.117v124.8M512.5 3.493v124.802"/><text fill="navy" font-size="30" transform="translate(-2)"><tspan x="1" y="168">No kerning</tspan></text><text fill="navy" font-size="30" transform="translate(-2)"><tspan x=".935" y="391.043">Kerning applied</tspan></text></g></svg>
