<svg xmlns="http://www.w3.org/2000/svg" xmlns:xlink="http://www.w3.org/1999/xlink" viewBox="0 0 330 82"><text y="75" fill-opacity="0" font-family="Trebuchet" font-size="83" letter-spacing="-12">W3C</text><text x="180" y="75" fill-opacity="0" font-family="Trebuchet" font-size="83" font-weight="bold">SVG</text><defs><g id="c" fill="#005A9C"><path d="M5.482 31.319A18.27 18.27 0 01.109 18.358C.109 8.232 8.322.024 18.443.024c10.126 0 18.339 8.208 18.339 18.334h-10.74c0-4.194-3.404-7.593-7.599-7.593a7.592 7.592 0 00-5.373 12.956h.005c1.375 1.38 2.52 1.779 5.368 2.231 5.066.527 9.648 2.054 12.966 5.372a18.275 18.275 0 015.373 12.962c0 10.126-8.213 18.339-18.339 18.339C8.322 62.625.109 54.412.109 44.286H10.85c0 4.194 3.399 7.598 7.593 7.598a7.601 7.601 0 007.599-7.598 7.574 7.574 0 00-2.221-5.363h-.005c-1.375-1.375-3.348-1.849-5.373-2.226v-.005c-4.91-.753-9.643-2.054-12.961-5.373zM73.452.024l-12.97 62.601h-10.74L36.782.024h10.74l7.6 36.663L62.712.024h10.74zM91.792 25.952h18.334v18.334h.005c0 10.127-8.213 18.34-18.339 18.34-10.127 0-18.334-8.213-18.334-18.34V18.359h-.005C73.453 8.233 81.665.025 91.792.025c10.121 0 18.334 8.208 18.334 18.334H99.385a7.599 7.599 0 00-7.593-7.594 7.596 7.596 0 00-7.594 7.594v25.927a7.593 7.593 0 0015.187.005v-7.593h-7.593V25.952z"/></g></defs><g image-rendering="optimizeQuality" shape-rendering="geometricPrecision" text-rendering="geometricPrecision"><path fill="#005A9C" d="M33.695 10.802l12.062 41.016 12.067-41.016h8.731L46.587 78.188h-.831l-12.48-41.759-12.479 41.759h-.832L0 10.802h8.736l12.061 41.016L28.951 24.2l-3.993-13.397h8.737z"/><path fill="#005A9C" d="M91.355 56.557c0 6.104-1.624 11.234-4.862 15.394-3.248 4.158-7.45 6.237-12.607 6.237-3.882 0-7.263-1.238-10.148-3.702-2.885-2.47-5.02-5.812-6.406-10.022l6.82-2.829c1.001 2.552 2.317 4.562 3.953 6.028 1.636 1.469 3.56 2.207 5.781 2.207 2.329 0 4.3-1.306 5.909-3.911 1.609-2.606 2.411-5.738 2.411-9.401 0-4.049-.861-7.179-2.582-9.399-1.995-2.604-5.129-3.912-9.397-3.912H66.9v-3.991l11.646-20.133H64.484l-3.911 6.655H58.08V10.802h32.441v4.075l-12.31 21.217c4.324 1.385 7.596 3.911 9.815 7.571 2.22 3.659 3.329 7.953 3.329 12.892z"/><g><path fill="#221B0A" d="M125.211 10.425l1.414 8.6-5.008 9.583s-1.924-4.064-5.117-6.314c-2.693-1.899-4.447-2.309-7.186-1.746-3.527.73-7.516 4.938-9.258 10.13-2.084 6.21-2.104 9.218-2.178 11.978-.115 4.428.58 7.043.58 7.043s-3.04-5.626-3.011-13.866c.018-5.882.947-11.218 3.666-16.479 2.396-4.627 5.95-7.404 9.109-7.728 3.264-.343 5.848 1.229 7.841 2.938 2.089 1.788 4.213 5.698 4.213 5.698l4.935-9.837zM125.823 59.099s-2.208 3.957-3.589 5.48c-1.379 1.524-3.849 4.209-6.896 5.555-3.049 1.343-4.646 1.598-7.661 1.306-3.01-.29-5.807-2.032-6.786-2.764-.979-.722-3.486-2.864-4.897-4.854-1.42-2-3.634-5.995-3.634-5.995s1.233 4.001 2.007 5.699c.442.977 1.81 3.965 3.749 6.572 1.805 2.425 5.315 6.604 10.652 7.545 5.336.945 9.002-1.449 9.907-2.031.907-.578 2.819-2.178 4.032-3.475 1.264-1.351 2.459-3.079 3.116-4.108.487-.758 1.276-2.286 1.276-2.286l-1.276-6.644z"/></g><g><path fill="#221B0A" d="M132.592 5.201c2.493 0 4.485 2.032 4.485 4.525 0 2.533-1.992 4.543-4.505 4.543a4.523 4.523 0 01-4.524-4.543 4.533 4.533 0 014.524-4.525h.02zm-.038.906c-1.889 0-3.417 1.629-3.417 3.639 0 2.029 1.528 3.619 3.436 3.619 1.912.019 3.46-1.59 3.46-3.619 0-2.01-1.548-3.639-3.46-3.639h-.019zm-.763 6.254h-1.067V7.332c.401-.058.846-.141 1.61-.141.862 0 1.387.141 1.726.404.28.221.445.563.445 1.085 0 .603-.423 1.024-.966 1.166v.042c.441.078.724.479.801 1.226.103.783.203 1.085.284 1.247h-1.104c-.123-.183-.203-.625-.305-1.31-.077-.542-.4-.763-.942-.763h-.481v2.073zm0-2.898h.5c.624 0 1.105-.199 1.105-.723 0-.421-.301-.744-1.025-.744-.261 0-.441 0-.58.021v1.446z"/></g><g transform="matrix(.24 0 0 .24 132 8.4)"><g stroke="#000" stroke-width="38.009"><g id="b" transform="translate(150 150)"><path id="a" fill="#EDA921" d="M-84.149-15.851a22.417 22.417 0 100 31.702H84.15a22.417 22.417 0 100-31.702z"/><use transform="rotate(45)" xlink:href="#a"/><use transform="rotate(90)" xlink:href="#a"/><use transform="rotate(135)" xlink:href="#a"/></g></g><use xlink:href="#b"/></g><g><use transform="matrix(1.08 0 0 1.08 210.6 10.8)" xlink:href="#c"/></g></g></svg>