<svg xmlns="http://www.w3.org/2000/svg" viewBox="0 0 750 500"><defs><linearGradient id="a" x1="94.375" x2="125.5" gradientUnits="userSpaceOnUse"><stop offset="0%" stop-color="#00f"/><stop offset="100%" stop-color="#00f"/></linearGradient><linearGradient id="b" x1="156.625" x2="187.75" gradientUnits="userSpaceOnUse"><stop offset="0%" stop-color="#00f"/><stop offset="56.25%" stop-color="#00f"/><stop offset="56.25%" stop-color="orange"/><stop offset="100%" stop-color="orange"/></linearGradient><linearGradient id="X" x1="156.625" x2="187.75" gradientUnits="userSpaceOnUse"><stop offset="0%" stop-color="#fff"/><stop offset="56.25%" stop-color="#fff"/><stop offset="56.25%"/><stop offset="100%"/></linearGradient><linearGradient id="c" x1="218.875" x2="250" gradientUnits="userSpaceOnUse"><stop offset="0%" stop-color="orange"/><stop offset="50%" stop-color="orange"/><stop offset="50%" stop-color="#006400"/><stop offset="75%" stop-color="#006400"/><stop offset="75%" stop-color="#90ee90"/><stop offset="100%" stop-color="#90ee90"/></linearGradient><linearGradient id="Y" x1="218.875" x2="250" gradientUnits="userSpaceOnUse"><stop offset="0%"/><stop offset="50%"/><stop offset="50%" stop-color="#fff"/><stop offset="75%" stop-color="#fff"/><stop offset="75%"/><stop offset="100%"/></linearGradient><linearGradient id="d" x1="250" x2="281.125" gradientUnits="userSpaceOnUse"><stop offset="0%" stop-color="orange"/><stop offset="43.75%" stop-color="orange"/><stop offset="43.75%" stop-color="#fff"/><stop offset="62.5%" stop-color="#fff"/><stop offset="62.5%" stop-color="orange"/><stop offset="100%" stop-color="orange"/></linearGradient><linearGradient id="e" x1="281.125" x2="312.25" gradientUnits="userSpaceOnUse"><stop offset="0%" stop-color="#006400"/><stop offset="100%" stop-color="#006400"/></linearGradient><linearGradient id="f" x1="436.75" x2="467.875" gradientUnits="userSpaceOnUse"><stop offset="0%" stop-color="purple"/><stop offset="100%" stop-color="purple"/></linearGradient><linearGradient id="g" x1="467.875" x2="499" gradientUnits="userSpaceOnUse"><stop offset="0%" stop-color="#006400"/><stop offset="100%" stop-color="#006400"/></linearGradient><linearGradient id="h" x1="1" x2="32.125" gradientUnits="userSpaceOnUse"><stop offset="0%" stop-color="purple"/><stop offset="62.5%" stop-color="purple"/><stop offset="62.5%" stop-color="#00f"/><stop offset="100%" stop-color="#00f"/></linearGradient><linearGradient id="i" x1="32.125" x2="63.25" gradientUnits="userSpaceOnUse"><stop offset="0%" stop-color="#dc143c"/><stop offset="100%" stop-color="#dc143c"/></linearGradient><linearGradient id="j" x1="63.25" x2="94.375" gradientUnits="userSpaceOnUse"><stop offset="0%" stop-color="#90ee90"/><stop offset="100%" stop-color="#90ee90"/></linearGradient><linearGradient id="k" x1="94.375" x2="125.5" gradientUnits="userSpaceOnUse"><stop offset="0%" stop-color="#90ee90"/><stop offset="62.5%" stop-color="#90ee90"/><stop offset="62.5%" stop-color="#ff0"/><stop offset="100%" stop-color="#ff0"/></linearGradient><linearGradient id="l" x1="187.75" x2="218.875" gradientUnits="userSpaceOnUse"><stop offset="0%" stop-color="#ff0"/><stop offset="50%" stop-color="#ff0"/><stop offset="50%" stop-color="#00f"/><stop offset="100%" stop-color="#00f"/></linearGradient><linearGradient id="Z" x1="187.75" x2="218.875" gradientUnits="userSpaceOnUse"><stop offset="0%"/><stop offset="50%"/><stop offset="50%" stop-color="#fff"/><stop offset="100%" stop-color="#fff"/></linearGradient><linearGradient id="m" x1="218.875" x2="250" gradientUnits="userSpaceOnUse"><stop offset="0%" stop-color="sienna"/><stop offset="50%" stop-color="sienna"/><stop offset="50%" stop-color="purple"/><stop offset="100%" stop-color="purple"/></linearGradient><linearGradient id="n" x1="250" x2="281.125" gradientUnits="userSpaceOnUse"><stop offset="0%" stop-color="#006400"/><stop offset="68.75%" stop-color="#006400"/><stop offset="68.75%" stop-color="#ff0"/><stop offset="100%" stop-color="#ff0"/></linearGradient><linearGradient id="aa" x1="250" x2="281.125" gradientUnits="userSpaceOnUse"><stop offset="0%" stop-color="#fff"/><stop offset="68.75%" stop-color="#fff"/><stop offset="68.75%"/><stop offset="100%"/></linearGradient><linearGradient id="o" x1="281.125" x2="312.25" gradientUnits="userSpaceOnUse"><stop offset="0%" stop-color="#006400"/><stop offset="31.25%" stop-color="#006400"/><stop offset="31.25%" stop-color="purple"/><stop offset="100%" stop-color="purple"/></linearGradient><linearGradient id="p" x1="312.25" x2="343.375" gradientUnits="userSpaceOnUse"><stop offset="0%" stop-color="sienna"/><stop offset="12.5%" stop-color="sienna"/><stop offset="12.5%" stop-color="purple"/><stop offset="68.75%" stop-color="purple"/><stop offset="68.75%" stop-color="#00f"/><stop offset="100%" stop-color="#00f"/></linearGradient><linearGradient id="q" x1="343.375" x2="374.5" gradientUnits="userSpaceOnUse"><stop offset="0%" stop-color="sienna"/><stop offset="100%" stop-color="sienna"/></linearGradient><linearGradient id="r" x1="374.5" x2="405.625" gradientUnits="userSpaceOnUse"><stop offset="0%" stop-color="#006400"/><stop offset="50%" stop-color="#006400"/><stop offset="50%" stop-color="#00f"/><stop offset="75%" stop-color="#00f"/><stop offset="75%" stop-color="sienna"/><stop offset="81.25%" stop-color="sienna"/><stop offset="81.25%" stop-color="#006400"/><stop offset="100%" stop-color="#006400"/></linearGradient><linearGradient id="s" x1="405.625" x2="436.75" gradientUnits="userSpaceOnUse"><stop offset="0%"/><stop offset="75%"/><stop offset="75%" stop-color="#00f"/><stop offset="100%" stop-color="#00f"/></linearGradient><linearGradient id="t" x1="436.75" x2="467.875" gradientUnits="userSpaceOnUse"><stop offset="0%"/><stop offset="100%"/></linearGradient><linearGradient id="u" x1="467.875" x2="499" gradientUnits="userSpaceOnUse"><stop offset="0%" stop-color="#00f"/><stop offset="100%" stop-color="#00f"/></linearGradient><linearGradient id="v" x1="1" x2="32.125" gradientUnits="userSpaceOnUse"><stop offset="0%" stop-color="#00f"/><stop offset="43.75%" stop-color="#00f"/><stop offset="43.75%" stop-color="orchid"/><stop offset="100%" stop-color="orchid"/></linearGradient><linearGradient id="ab" x1="1" x2="32.125" gradientUnits="userSpaceOnUse"><stop offset="0%" stop-color="#fff"/><stop offset="43.75%" stop-color="#fff"/><stop offset="43.75%"/><stop offset="100%"/></linearGradient><linearGradient id="w" x1="250" x2="281.125" gradientUnits="userSpaceOnUse"><stop offset="0%" stop-color="#0ff"/><stop offset="100%" stop-color="#0ff"/></linearGradient><linearGradient id="x" x1="281.125" x2="312.25" gradientUnits="userSpaceOnUse"><stop offset="0%" stop-color="orchid"/><stop offset="100%" stop-color="orchid"/></linearGradient><linearGradient id="y" x1="374.5" x2="405.625" gradientUnits="userSpaceOnUse"><stop offset="0%" stop-color="#00f"/><stop offset="37.5%" stop-color="#00f"/><stop offset="37.5%"/><stop offset="50%"/><stop offset="50%" stop-color="#00f"/><stop offset="100%" stop-color="#00f"/></linearGradient><linearGradient id="z" x1="405.625" x2="436.75" gradientUnits="userSpaceOnUse"><stop offset="0%" stop-color="#00f"/><stop offset="18.75%" stop-color="#00f"/><stop offset="18.75%" stop-color="#90ee90"/><stop offset="87.5%" stop-color="#90ee90"/><stop offset="87.5%" stop-color="#00f"/><stop offset="100%" stop-color="#00f"/></linearGradient><linearGradient id="ac" x1="405.625" x2="436.75" gradientUnits="userSpaceOnUse"><stop offset="0%" stop-color="#fff"/><stop offset="18.75%" stop-color="#fff"/><stop offset="18.75%"/><stop offset="87.5%"/><stop offset="87.5%" stop-color="#fff"/><stop offset="100%" stop-color="#fff"/></linearGradient><linearGradient id="A" x1="436.75" x2="467.875" gradientUnits="userSpaceOnUse"><stop offset="0%" stop-color="orchid"/><stop offset="50%" stop-color="orchid"/><stop offset="50%" stop-color="salmon"/><stop offset="100%" stop-color="salmon"/></linearGradient><linearGradient id="B" x1="467.875" x2="499" gradientUnits="userSpaceOnUse"><stop offset="0%" stop-color="salmon"/><stop offset="87.5%" stop-color="salmon"/><stop offset="87.5%" stop-color="#fff"/><stop offset="93.75%" stop-color="#fff"/><stop offset="93.75%" stop-color="salmon"/><stop offset="100%" stop-color="salmon"/></linearGradient><linearGradient id="C" x1="1" x2="32.125" gradientUnits="userSpaceOnUse"><stop offset="0%" stop-color="#dc143c"/><stop offset="100%" stop-color="#dc143c"/></linearGradient><linearGradient id="D" x1="32.125" x2="63.25" gradientUnits="userSpaceOnUse"><stop offset="0%" stop-color="#dc143c"/><stop offset="75%" stop-color="#dc143c"/><stop offset="75%" stop-color="salmon"/><stop offset="93.75%" stop-color="salmon"/><stop offset="93.75%" stop-color="#dc143c"/><stop offset="100%" stop-color="#dc143c"/></linearGradient><linearGradient id="E" x1="63.25" x2="94.375" gradientUnits="userSpaceOnUse"><stop offset="0%" stop-color="orchid"/><stop offset="100%" stop-color="orchid"/></linearGradient><linearGradient id="F" x1="125.5" x2="156.625" gradientUnits="userSpaceOnUse"><stop offset="0%" stop-color="salmon"/><stop offset="100%" stop-color="salmon"/></linearGradient><linearGradient id="G" x1="405.625" x2="436.75" gradientUnits="userSpaceOnUse"><stop offset="0%" stop-color="salmon"/><stop offset="75%" stop-color="salmon"/><stop offset="75%" stop-color="orchid"/><stop offset="100%" stop-color="orchid"/></linearGradient><linearGradient id="H" x1="436.75" x2="467.875" gradientUnits="userSpaceOnUse"><stop offset="0%" stop-color="salmon"/><stop offset="100%" stop-color="salmon"/></linearGradient><linearGradient id="I" x1="1" x2="32.125" gradientUnits="userSpaceOnUse"><stop offset="0%" stop-color="#dc143c"/><stop offset="100%" stop-color="#dc143c"/></linearGradient><linearGradient id="J" x1="156.625" x2="187.75" gradientUnits="userSpaceOnUse"><stop offset="0%" stop-color="#90ee90"/><stop offset="100%" stop-color="#90ee90"/></linearGradient><linearGradient id="K" x1="187.75" x2="218.875" gradientUnits="userSpaceOnUse"><stop offset="0%" stop-color="#90ee90"/><stop offset="25%" stop-color="#90ee90"/><stop offset="25%" stop-color="#00f"/><stop offset="62.5%" stop-color="#00f"/><stop offset="62.5%" stop-color="#90ee90"/><stop offset="100%" stop-color="#90ee90"/></linearGradient><linearGradient id="ad" x1="187.75" x2="218.875" gradientUnits="userSpaceOnUse"><stop offset="0%"/><stop offset="25%"/><stop offset="25%" stop-color="#fff"/><stop offset="62.5%" stop-color="#fff"/><stop offset="62.5%"/><stop offset="100%"/></linearGradient><linearGradient id="L" x1="218.875" x2="250" gradientUnits="userSpaceOnUse"><stop offset="0%" stop-color="#dc143c"/><stop offset="12.5%" stop-color="#dc143c"/><stop offset="12.5%"/><stop offset="100%"/></linearGradient><linearGradient id="ae" x1="218.875" x2="250" gradientUnits="userSpaceOnUse"><stop offset="0%"/><stop offset="12.5%"/><stop offset="12.5%" stop-color="#fff"/><stop offset="100%" stop-color="#fff"/></linearGradient><linearGradient id="M" x1="250" x2="281.125" gradientUnits="userSpaceOnUse"><stop offset="0%" stop-color="#006400"/><stop offset="18.75%" stop-color="#006400"/><stop offset="18.75%" stop-color="orchid"/><stop offset="25%" stop-color="orchid"/><stop offset="25%" stop-color="#006400"/><stop offset="100%" stop-color="#006400"/></linearGradient><linearGradient id="af" x1="250" x2="281.125" gradientUnits="userSpaceOnUse"><stop offset="0%" stop-color="#fff"/><stop offset="18.75%" stop-color="#fff"/><stop offset="18.75%"/><stop offset="25%"/><stop offset="25%" stop-color="#fff"/><stop offset="100%" stop-color="#fff"/></linearGradient><linearGradient id="N" x1="281.125" x2="312.25" gradientUnits="userSpaceOnUse"><stop offset="0%" stop-color="purple"/><stop offset="18.75%" stop-color="purple"/><stop offset="18.75%" stop-color="sienna"/><stop offset="37.5%" stop-color="sienna"/><stop offset="37.5%" stop-color="#dc143c"/><stop offset="50%" stop-color="#dc143c"/><stop offset="50%" stop-color="sienna"/><stop offset="87.5%" stop-color="sienna"/><stop offset="87.5%" stop-color="purple"/><stop offset="100%" stop-color="purple"/></linearGradient><linearGradient id="ag" x1="281.125" x2="312.25" gradientUnits="userSpaceOnUse"><stop offset="0%" stop-color="#fff"/><stop offset="37.5%" stop-color="#fff"/><stop offset="37.5%"/><stop offset="50%"/><stop offset="50%" stop-color="#fff"/><stop offset="100%" stop-color="#fff"/></linearGradient><linearGradient id="O" x1="312.25" x2="343.375" gradientUnits="userSpaceOnUse"><stop offset="0%" stop-color="purple"/><stop offset="87.5%" stop-color="purple"/><stop offset="87.5%" stop-color="#006400"/><stop offset="100%" stop-color="#006400"/></linearGradient><linearGradient id="P" x1="343.375" x2="374.5" gradientUnits="userSpaceOnUse"><stop offset="0%" stop-color="#90ee90"/><stop offset="18.75%" stop-color="#90ee90"/><stop offset="18.75%"/><stop offset="43.75%"/><stop offset="43.75%" stop-color="#ff0"/><stop offset="75%" stop-color="#ff0"/><stop offset="75%" stop-color="#006400"/><stop offset="100%" stop-color="#006400"/></linearGradient><linearGradient id="ah" x1="343.375" x2="374.5" gradientUnits="userSpaceOnUse"><stop offset="0%"/><stop offset="18.75%"/><stop offset="18.75%" stop-color="#fff"/><stop offset="43.75%" stop-color="#fff"/><stop offset="43.75%"/><stop offset="75%"/><stop offset="75%" stop-color="#fff"/><stop offset="100%" stop-color="#fff"/></linearGradient><linearGradient id="Q" x1="374.5" x2="405.625" gradientUnits="userSpaceOnUse"><stop offset="0%" stop-color="#dc143c"/><stop offset="100%" stop-color="#dc143c"/></linearGradient><linearGradient id="R" x1="250" x2="281.125" gradientUnits="userSpaceOnUse"><stop offset="0%" stop-color="#d3d3d3"/><stop offset="100%" stop-color="#d3d3d3"/></linearGradient><linearGradient id="S" x1="1" x2="32.125" gradientUnits="userSpaceOnUse"><stop offset="0%" stop-color="#a9a9a9"/><stop offset="100%" stop-color="#a9a9a9"/></linearGradient><linearGradient id="T" x1="281.125" x2="312.25" gradientUnits="userSpaceOnUse"><stop offset="0%" stop-color="salmon"/><stop offset="100%" stop-color="salmon"/></linearGradient><linearGradient id="U" x1="343.375" x2="374.5" gradientUnits="userSpaceOnUse"><stop offset="0%"/><stop offset="6.25%"/><stop offset="6.25%" stop-color="#00f"/><stop offset="12.5%" stop-color="#00f"/><stop offset="12.5%" stop-color="orange"/><stop offset="100%" stop-color="orange"/></linearGradient><linearGradient id="ai" x1="343.375" x2="374.5" gradientUnits="userSpaceOnUse"><stop offset="0%" stop-color="#fff"/><stop offset="12.5%" stop-color="#fff"/><stop offset="12.5%"/><stop offset="100%"/></linearGradient><linearGradient id="V" x1="436.75" x2="467.875" gradientUnits="userSpaceOnUse"><stop offset="0%" stop-color="#bdb76b"/><stop offset="6.25%" stop-color="#bdb76b"/><stop offset="6.25%" stop-color="#dc143c"/><stop offset="12.5%" stop-color="#dc143c"/><stop offset="12.5%" stop-color="#00f"/><stop offset="18.75%" stop-color="#00f"/><stop offset="18.75%" stop-color="#dc143c"/><stop offset="43.75%" stop-color="#dc143c"/><stop offset="43.75%" stop-color="orange"/><stop offset="100%" stop-color="orange"/></linearGradient><linearGradient id="aj" x1="436.75" x2="467.875" gradientUnits="userSpaceOnUse"><stop offset="0%"/><stop offset="12.5%"/><stop offset="12.5%" stop-color="#fff"/><stop offset="18.75%" stop-color="#fff"/><stop offset="18.75%"/><stop offset="100%"/></linearGradient><linearGradient id="W" x1="467.875" x2="499" gradientUnits="userSpaceOnUse"><stop offset="0%" stop-color="#dc143c"/><stop offset="93.75%" stop-color="#dc143c"/><stop offset="93.75%" stop-color="pink"/><stop offset="100%" stop-color="pink"/></linearGradient></defs><path fill="#fff" d="M0 0h750v500H0z"/><g stroke="#dcdcdc" stroke-width="2"><path d="M1 1h31.125v31.125H1zM32.125 1H63.25v31.125H32.125zM63.25 1h31.125v31.125H63.25z"/><path fill="url(#a)" d="M94.375 1H125.5v31.125H94.375z"/><path fill="#00f" d="M125.5 1h31.125v31.125H125.5z"/><path fill="url(#b)" d="M156.625 1h31.125v31.125h-31.125z"/><path fill="orange" d="M187.75 1h31.125v31.125H187.75z"/><path fill="url(#c)" d="M218.875 1H250v31.125h-31.125z"/><path fill="url(#d)" d="M250 1h31.125v31.125H250z"/><path fill="url(#e)" d="M281.125 1h31.125v31.125h-31.125z"/><path fill="#006400" d="M312.25 1h31.125v31.125H312.25zM343.375 1H374.5v31.125h-31.125zM374.5 1h31.125v31.125H374.5zM405.625 1h31.125v31.125h-31.125z"/><path fill="url(#f)" d="M436.75 1h31.125v31.125H436.75z"/><path fill="url(#g)" d="M467.875 1H499v31.125h-31.125z"/><path fill="url(#h)" d="M1 32.125h31.125V63.25H1z"/><path fill="url(#i)" d="M32.125 32.125H63.25V63.25H32.125z"/><path fill="url(#j)" d="M63.25 32.125h31.125V63.25H63.25z"/><path fill="url(#k)" d="M94.375 32.125H125.5V63.25H94.375z"/><path fill="#ff0" d="M125.5 32.125h31.125V63.25H125.5zM156.625 32.125h31.125V63.25h-31.125z"/><path fill="url(#l)" d="M187.75 32.125h31.125V63.25H187.75z"/><path fill="url(#m)" d="M218.875 32.125H250V63.25h-31.125z"/><path fill="url(#n)" d="M250 32.125h31.125V63.25H250z"/><path fill="url(#o)" d="M281.125 32.125h31.125V63.25h-31.125z"/><path fill="url(#p)" d="M312.25 32.125h31.125V63.25H312.25z"/><path fill="url(#q)" d="M343.375 32.125H374.5V63.25h-31.125z"/><path fill="url(#r)" d="M374.5 32.125h31.125V63.25H374.5z"/><path fill="url(#s)" d="M405.625 32.125h31.125V63.25h-31.125z"/><path fill="url(#t)" d="M436.75 32.125h31.125V63.25H436.75z"/><path fill="url(#u)" d="M467.875 32.125H499V63.25h-31.125z"/><path fill="url(#v)" d="M1 63.25h31.125v31.125H1z"/><path fill="orchid" d="M32.125 63.25H63.25v31.125H32.125zM63.25 63.25h31.125v31.125H63.25zM94.375 63.25H125.5v31.125H94.375zM125.5 63.25h31.125v31.125H125.5zM156.625 63.25h31.125v31.125h-31.125zM187.75 63.25h31.125v31.125H187.75zM218.875 63.25H250v31.125h-31.125z"/><path fill="url(#w)" d="M250 63.25h31.125v31.125H250z"/><path fill="url(#x)" d="M281.125 63.25h31.125v31.125h-31.125z"/><path fill="orchid" d="M312.25 63.25h31.125v31.125H312.25zM343.375 63.25H374.5v31.125h-31.125z"/><path fill="url(#y)" d="M374.5 63.25h31.125v31.125H374.5z"/><path fill="url(#z)" d="M405.625 63.25h31.125v31.125h-31.125z"/><path fill="url(#A)" d="M436.75 63.25h31.125v31.125H436.75z"/><path fill="url(#B)" d="M467.875 63.25H499v31.125h-31.125z"/><path fill="url(#C)" d="M1 94.375h31.125V125.5H1z"/><path fill="url(#D)" d="M32.125 94.375H63.25V125.5H32.125z"/><path fill="url(#E)" d="M63.25 94.375h31.125V125.5H63.25z"/><path fill="orchid" d="M94.375 94.375H125.5V125.5H94.375z"/><path fill="url(#F)" d="M125.5 94.375h31.125V125.5H125.5z"/><path fill="salmon" d="M156.625 94.375h31.125V125.5h-31.125zM187.75 94.375h31.125V125.5H187.75zM218.875 94.375H250V125.5h-31.125zM250 94.375h31.125V125.5H250zM281.125 94.375h31.125V125.5h-31.125zM312.25 94.375h31.125V125.5H312.25zM343.375 94.375H374.5V125.5h-31.125zM374.5 94.375h31.125V125.5H374.5zM405.625 94.375h31.125V125.5h-31.125zM436.75 94.375h31.125V125.5H436.75zM467.875 94.375H499V125.5h-31.125zM1 125.5h31.125v31.125H1zM32.125 125.5H63.25v31.125H32.125zM63.25 125.5h31.125v31.125H63.25zM94.375 125.5H125.5v31.125H94.375zM125.5 125.5h31.125v31.125H125.5zM156.625 125.5h31.125v31.125h-31.125zM187.75 125.5h31.125v31.125H187.75zM218.875 125.5H250v31.125h-31.125zM250 125.5h31.125v31.125H250zM281.125 125.5h31.125v31.125h-31.125zM312.25 125.5h31.125v31.125H312.25zM343.375 125.5H374.5v31.125h-31.125zM374.5 125.5h31.125v31.125H374.5z"/><path fill="url(#G)" d="M405.625 125.5h31.125v31.125h-31.125z"/><path fill="url(#H)" d="M436.75 125.5h31.125v31.125H436.75z"/><path fill="salmon" d="M467.875 125.5H499v31.125h-31.125zM1 156.625h31.125v31.125H1zM32.125 156.625H63.25v31.125H32.125zM63.25 156.625h31.125v31.125H63.25zM94.375 156.625H125.5v31.125H94.375zM125.5 156.625h31.125v31.125H125.5zM156.625 156.625h31.125v31.125h-31.125zM187.75 156.625h31.125v31.125H187.75zM218.875 156.625H250v31.125h-31.125zM250 156.625h31.125v31.125H250zM281.125 156.625h31.125v31.125h-31.125zM312.25 156.625h31.125v31.125H312.25zM343.375 156.625H374.5v31.125h-31.125zM374.5 156.625h31.125v31.125H374.5zM405.625 156.625h31.125v31.125h-31.125zM436.75 156.625h31.125v31.125H436.75zM467.875 156.625H499v31.125h-31.125zM1 187.75h31.125v31.125H1zM32.125 187.75H63.25v31.125H32.125zM63.25 187.75h31.125v31.125H63.25zM94.375 187.75H125.5v31.125H94.375zM125.5 187.75h31.125v31.125H125.5zM156.625 187.75h31.125v31.125h-31.125zM187.75 187.75h31.125v31.125H187.75zM218.875 187.75H250v31.125h-31.125zM250 187.75h31.125v31.125H250zM281.125 187.75h31.125v31.125h-31.125zM312.25 187.75h31.125v31.125H312.25zM343.375 187.75H374.5v31.125h-31.125zM374.5 187.75h31.125v31.125H374.5zM405.625 187.75h31.125v31.125h-31.125zM436.75 187.75h31.125v31.125H436.75zM467.875 187.75H499v31.125h-31.125zM1 218.875h31.125V250H1zM32.125 218.875H63.25V250H32.125zM63.25 218.875h31.125V250H63.25zM94.375 218.875H125.5V250H94.375zM125.5 218.875h31.125V250H125.5zM156.625 218.875h31.125V250h-31.125zM187.75 218.875h31.125V250H187.75zM218.875 218.875H250V250h-31.125zM250 218.875h31.125V250H250zM281.125 218.875h31.125V250h-31.125zM312.25 218.875h31.125V250H312.25zM343.375 218.875H374.5V250h-31.125zM374.5 218.875h31.125V250H374.5zM405.625 218.875h31.125V250h-31.125zM436.75 218.875h31.125V250H436.75zM467.875 218.875H499V250h-31.125zM1 250h31.125v31.125H1zM32.125 250H63.25v31.125H32.125zM63.25 250h31.125v31.125H63.25zM94.375 250H125.5v31.125H94.375zM125.5 250h31.125v31.125H125.5zM156.625 250h31.125v31.125h-31.125zM187.75 250h31.125v31.125H187.75zM218.875 250H250v31.125h-31.125zM250 250h31.125v31.125H250zM281.125 250h31.125v31.125h-31.125zM312.25 250h31.125v31.125H312.25zM343.375 250H374.5v31.125h-31.125zM374.5 250h31.125v31.125H374.5zM405.625 250h31.125v31.125h-31.125zM436.75 250h31.125v31.125H436.75zM467.875 250H499v31.125h-31.125zM1 281.125h31.125v31.125H1zM32.125 281.125H63.25v31.125H32.125zM63.25 281.125h31.125v31.125H63.25zM94.375 281.125H125.5v31.125H94.375zM125.5 281.125h31.125v31.125H125.5zM156.625 281.125h31.125v31.125h-31.125zM187.75 281.125h31.125v31.125H187.75zM218.875 281.125H250v31.125h-31.125zM250 281.125h31.125v31.125H250zM281.125 281.125h31.125v31.125h-31.125zM312.25 281.125h31.125v31.125H312.25zM343.375 281.125H374.5v31.125h-31.125zM374.5 281.125h31.125v31.125H374.5zM405.625 281.125h31.125v31.125h-31.125zM436.75 281.125h31.125v31.125H436.75zM467.875 281.125H499v31.125h-31.125z"/><path fill="url(#I)" d="M1 312.25h31.125v31.125H1z"/><path fill="#dc143c" d="M32.125 312.25H63.25v31.125H32.125zM63.25 312.25h31.125v31.125H63.25zM94.375 312.25H125.5v31.125H94.375zM125.5 312.25h31.125v31.125H125.5z"/><path fill="url(#J)" d="M156.625 312.25h31.125v31.125h-31.125z"/><path fill="url(#K)" d="M187.75 312.25h31.125v31.125H187.75z"/><path fill="url(#L)" d="M218.875 312.25H250v31.125h-31.125z"/><path fill="url(#M)" d="M250 312.25h31.125v31.125H250z"/><path fill="url(#N)" d="M281.125 312.25h31.125v31.125h-31.125z"/><path fill="url(#O)" d="M312.25 312.25h31.125v31.125H312.25z"/><path fill="url(#P)" d="M343.375 312.25H374.5v31.125h-31.125z"/><path fill="url(#Q)" d="M374.5 312.25h31.125v31.125H374.5z"/><path fill="#dc143c" d="M405.625 312.25h31.125v31.125h-31.125zM436.75 312.25h31.125v31.125H436.75zM467.875 312.25H499v31.125h-31.125zM1 343.375h31.125V374.5H1zM32.125 343.375H63.25V374.5H32.125zM63.25 343.375h31.125V374.5H63.25zM94.375 343.375H125.5V374.5H94.375zM125.5 343.375h31.125V374.5H125.5zM156.625 343.375h31.125V374.5h-31.125zM187.75 343.375h31.125V374.5H187.75zM218.875 343.375H250V374.5h-31.125zM250 343.375h31.125V374.5H250zM281.125 343.375h31.125V374.5h-31.125zM312.25 343.375h31.125V374.5H312.25zM343.375 343.375H374.5V374.5h-31.125zM374.5 343.375h31.125V374.5H374.5zM405.625 343.375h31.125V374.5h-31.125zM436.75 343.375h31.125V374.5H436.75zM467.875 343.375H499V374.5h-31.125zM1 374.5h31.125v31.125H1zM32.125 374.5H63.25v31.125H32.125zM63.25 374.5h31.125v31.125H63.25zM94.375 374.5H125.5v31.125H94.375zM125.5 374.5h31.125v31.125H125.5zM156.625 374.5h31.125v31.125h-31.125zM187.75 374.5h31.125v31.125H187.75zM218.875 374.5H250v31.125h-31.125zM250 374.5h31.125v31.125H250zM281.125 374.5h31.125v31.125h-31.125zM312.25 374.5h31.125v31.125H312.25zM343.375 374.5H374.5v31.125h-31.125zM374.5 374.5h31.125v31.125H374.5zM405.625 374.5h31.125v31.125h-31.125zM436.75 374.5h31.125v31.125H436.75zM467.875 374.5H499v31.125h-31.125zM1 405.625h31.125v31.125H1zM32.125 405.625H63.25v31.125H32.125zM63.25 405.625h31.125v31.125H63.25zM94.375 405.625H125.5v31.125H94.375zM125.5 405.625h31.125v31.125H125.5zM156.625 405.625h31.125v31.125h-31.125zM187.75 405.625h31.125v31.125H187.75zM218.875 405.625H250v31.125h-31.125z"/><path fill="url(#R)" d="M250 405.625h31.125v31.125H250z"/><path fill="#d3d3d3" d="M281.125 405.625h31.125v31.125h-31.125zM312.25 405.625h31.125v31.125H312.25zM343.375 405.625H374.5v31.125h-31.125zM374.5 405.625h31.125v31.125H374.5zM405.625 405.625h31.125v31.125h-31.125zM436.75 405.625h31.125v31.125H436.75zM467.875 405.625H499v31.125h-31.125z"/><path fill="url(#S)" d="M1 436.75h31.125v31.125H1z"/><path fill="#a9a9a9" d="M32.125 436.75H63.25v31.125H32.125zM63.25 436.75h31.125v31.125H63.25zM94.375 436.75H125.5v31.125H94.375zM125.5 436.75h31.125v31.125H125.5zM156.625 436.75h31.125v31.125h-31.125zM187.75 436.75h31.125v31.125H187.75zM218.875 436.75H250v31.125h-31.125zM250 436.75h31.125v31.125H250zM281.125 436.75h31.125v31.125h-31.125zM312.25 436.75h31.125v31.125H312.25zM343.375 436.75H374.5v31.125h-31.125zM374.5 436.75h31.125v31.125H374.5zM405.625 436.75h31.125v31.125h-31.125zM436.75 436.75h31.125v31.125H436.75zM467.875 436.75H499v31.125h-31.125zM1 467.875h31.125V499H1zM32.125 467.875H63.25V499H32.125zM63.25 467.875h31.125V499H63.25zM94.375 467.875H125.5V499H94.375zM125.5 467.875h31.125V499H125.5zM156.625 467.875h31.125V499h-31.125zM187.75 467.875h31.125V499H187.75zM218.875 467.875H250V499h-31.125zM250 467.875h31.125V499H250z"/><path fill="url(#T)" d="M281.125 467.875h31.125V499h-31.125z"/><path fill="salmon" d="M312.25 467.875h31.125V499H312.25z"/><path fill="url(#U)" d="M343.375 467.875H374.5V499h-31.125z"/><path fill="orange" d="M374.5 467.875h31.125V499H374.5zM405.625 467.875h31.125V499h-31.125z"/><path fill="url(#V)" d="M436.75 467.875h31.125V499H436.75z"/><path fill="url(#W)" d="M467.875 467.875H499V499h-31.125z"/></g><g font-family="'DejaVu Sans', sans-serif" font-size="14.1" text-anchor="middle"><text x="16.563" y="21.75" fill="#fff">00</text><text x="47.688" y="21.75" fill="#fff">01</text><text x="78.813" y="21.75" fill="#fff">02</text><text x="109.938" y="21.75" fill="#fff">03</text><text x="141.063" y="21.75" fill="#fff">04</text><text x="172.188" y="21.75" fill="url(#X)">05</text><text x="203.313" y="21.75">06</text><text x="234.438" y="21.75" fill="url(#Y)">07</text><text x="265.563" y="21.75">08</text><text x="296.688" y="21.75" fill="#fff">09</text><text x="327.813" y="21.75" fill="#fff">0A</text><text x="358.938" y="21.75" fill="#fff">0B</text><text x="390.063" y="21.75" fill="#fff">0C</text><text x="421.188" y="21.75" fill="#fff">0D</text><text x="452.313" y="21.75" fill="#fff">0E</text><text x="483.438" y="21.75" fill="#fff">0F</text><text x="16.563" y="52.875" fill="#fff">10</text><text x="47.688" y="52.875">11</text><text x="78.813" y="52.875">12</text><text x="109.938" y="52.875">13</text><text x="141.063" y="52.875">14</text><text x="172.188" y="52.875">15</text><text x="203.313" y="52.875" fill="url(#Z)">16</text><text x="234.438" y="52.875" fill="#fff">17</text><text x="265.563" y="52.875" fill="url(#aa)">18</text><text x="296.688" y="52.875" fill="#fff">19</text><text x="327.813" y="52.875" fill="#fff">1A</text><text x="358.938" y="52.875" fill="#fff">1B</text><text x="390.063" y="52.875" fill="#fff">1C</text><text x="421.188" y="52.875" fill="#fff">1D</text><text x="452.313" y="52.875" fill="#fff">1E</text><text x="483.438" y="52.875" fill="#fff">1F</text><text x="16.563" y="84" fill="url(#ab)">20</text><text x="47.688" y="84">21</text><text x="78.813" y="84">22</text><text x="109.938" y="84">23</text><text x="141.063" y="84">24</text><text x="172.188" y="84">25</text><text x="203.313" y="84">26</text><text x="234.438" y="84">27</text><text x="265.563" y="84">28</text><text x="296.688" y="84">29</text><text x="327.813" y="84">2A</text><text x="358.938" y="84">2B</text><text x="390.063" y="84" fill="#fff">2C</text><text x="421.188" y="84" fill="url(#ac)">2D</text><text x="452.313" y="84">2E</text><text x="483.438" y="84">2F</text><text x="16.563" y="115.125">30</text><text x="47.688" y="115.125">31</text><text x="78.813" y="115.125">32</text><text x="109.938" y="115.125">33</text><text x="141.063" y="115.125">34</text><text x="172.188" y="115.125">35</text><text x="203.313" y="115.125">36</text><text x="234.438" y="115.125">37</text><text x="265.563" y="115.125">38</text><text x="296.688" y="115.125">39</text><text x="327.813" y="115.125">3A</text><text x="358.938" y="115.125">3B</text><text x="390.063" y="115.125">3C</text><text x="421.188" y="115.125">3D</text><text x="452.313" y="115.125">3E</text><text x="483.438" y="115.125">3F</text><text x="16.563" y="146.25">40</text><text x="47.688" y="146.25">41</text><text x="78.813" y="146.25">42</text><text x="109.938" y="146.25">43</text><text x="141.063" y="146.25">44</text><text x="172.188" y="146.25">45</text><text x="203.313" y="146.25">46</text><text x="234.438" y="146.25">47</text><text x="265.563" y="146.25">48</text><text x="296.688" y="146.25">49</text><text x="327.813" y="146.25">4A</text><text x="358.938" y="146.25">4B</text><text x="390.063" y="146.25">4C</text><text x="421.188" y="146.25">4D</text><text x="452.313" y="146.25">4E</text><text x="483.438" y="146.25">4F</text><text x="16.563" y="177.375">50</text><text x="47.688" y="177.375">51</text><text x="78.813" y="177.375">52</text><text x="109.938" y="177.375">53</text><text x="141.063" y="177.375">54</text><text x="172.188" y="177.375">55</text><text x="203.313" y="177.375">56</text><text x="234.438" y="177.375">57</text><text x="265.563" y="177.375">58</text><text x="296.688" y="177.375">59</text><text x="327.813" y="177.375">5A</text><text x="358.938" y="177.375">5B</text><text x="390.063" y="177.375">5C</text><text x="421.188" y="177.375">5D</text><text x="452.313" y="177.375">5E</text><text x="483.438" y="177.375">5F</text><text x="16.563" y="208.5">60</text><text x="47.688" y="208.5">61</text><text x="78.813" y="208.5">62</text><text x="109.938" y="208.5">63</text><text x="141.063" y="208.5">64</text><text x="172.188" y="208.5">65</text><text x="203.313" y="208.5">66</text><text x="234.438" y="208.5">67</text><text x="265.563" y="208.5">68</text><text x="296.688" y="208.5">69</text><text x="327.813" y="208.5">6A</text><text x="358.938" y="208.5">6B</text><text x="390.063" y="208.5">6C</text><text x="421.188" y="208.5">6D</text><text x="452.313" y="208.5">6E</text><text x="483.438" y="208.5">6F</text><text x="16.563" y="239.625">70</text><text x="47.688" y="239.625">71</text><text x="78.813" y="239.625">72</text><text x="109.938" y="239.625">73</text><text x="141.063" y="239.625">74</text><text x="172.188" y="239.625">75</text><text x="203.313" y="239.625">76</text><text x="234.438" y="239.625">77</text><text x="265.563" y="239.625">78</text><text x="296.688" y="239.625">79</text><text x="327.813" y="239.625">7A</text><text x="358.938" y="239.625">7B</text><text x="390.063" y="239.625">7C</text><text x="421.188" y="239.625">7D</text><text x="452.313" y="239.625">7E</text><text x="483.438" y="239.625">7F</text><text x="16.563" y="270.75">80</text><text x="47.688" y="270.75">81</text><text x="78.813" y="270.75">82</text><text x="109.938" y="270.75">83</text><text x="141.063" y="270.75">84</text><text x="172.188" y="270.75">85</text><text x="203.313" y="270.75">86</text><text x="234.438" y="270.75">87</text><text x="265.563" y="270.75">88</text><text x="296.688" y="270.75">89</text><text x="327.813" y="270.75">8A</text><text x="358.938" y="270.75">8B</text><text x="390.063" y="270.75">8C</text><text x="421.188" y="270.75">8D</text><text x="452.313" y="270.75">8E</text><text x="483.438" y="270.75">8F</text><text x="16.563" y="301.875">90</text><text x="47.688" y="301.875">91</text><text x="78.813" y="301.875">92</text><text x="109.938" y="301.875">93</text><text x="141.063" y="301.875">94</text><text x="172.188" y="301.875">95</text><text x="203.313" y="301.875">96</text><text x="234.438" y="301.875">97</text><text x="265.563" y="301.875">98</text><text x="296.688" y="301.875">99</text><text x="327.813" y="301.875">9A</text><text x="358.938" y="301.875">9B</text><text x="390.063" y="301.875">9C</text><text x="421.188" y="301.875">9D</text><text x="452.313" y="301.875">9E</text><text x="483.438" y="301.875">9F</text><text x="16.563" y="333">A0</text><text x="47.688" y="333">A1</text><text x="78.813" y="333">A2</text><text x="109.938" y="333">A3</text><text x="141.063" y="333">A4</text><text x="172.188" y="333">A5</text><text x="203.313" y="333" fill="url(#ad)">A6</text><text x="234.438" y="333" fill="url(#ae)">A7</text><text x="265.563" y="333" fill="url(#af)">A8</text><text x="296.688" y="333" fill="url(#ag)">A9</text><text x="327.813" y="333" fill="#fff">AA</text><text x="358.938" y="333" fill="url(#ah)">AB</text><text x="390.063" y="333">AC</text><text x="421.188" y="333">AD</text><text x="452.313" y="333">AE</text><text x="483.438" y="333">AF</text><text x="16.563" y="364.125">B0</text><text x="47.688" y="364.125">B1</text><text x="78.813" y="364.125">B2</text><text x="109.938" y="364.125">B3</text><text x="141.063" y="364.125">B4</text><text x="172.188" y="364.125">B5</text><text x="203.313" y="364.125">B6</text><text x="234.438" y="364.125">B7</text><text x="265.563" y="364.125">B8</text><text x="296.688" y="364.125">B9</text><text x="327.813" y="364.125">BA</text><text x="358.938" y="364.125">BB</text><text x="390.063" y="364.125">BC</text><text x="421.188" y="364.125">BD</text><text x="452.313" y="364.125">BE</text><text x="483.438" y="364.125">BF</text><text x="16.563" y="395.25">C0</text><text x="47.688" y="395.25">C1</text><text x="78.813" y="395.25">C2</text><text x="109.938" y="395.25">C3</text><text x="141.063" y="395.25">C4</text><text x="172.188" y="395.25">C5</text><text x="203.313" y="395.25">C6</text><text x="234.438" y="395.25">C7</text><text x="265.563" y="395.25">C8</text><text x="296.688" y="395.25">C9</text><text x="327.813" y="395.25">CA</text><text x="358.938" y="395.25">CB</text><text x="390.063" y="395.25">CC</text><text x="421.188" y="395.25">CD</text><text x="452.313" y="395.25">CE</text><text x="483.438" y="395.25">CF</text><text x="16.563" y="426.375">D0</text><text x="47.688" y="426.375">D1</text><text x="78.813" y="426.375">D2</text><text x="109.938" y="426.375">D3</text><text x="141.063" y="426.375">D4</text><text x="172.188" y="426.375">D5</text><text x="203.313" y="426.375">D6</text><text x="234.438" y="426.375">D7</text><text x="265.563" y="426.375">D8</text><text x="296.688" y="426.375">D9</text><text x="327.813" y="426.375">DA</text><text x="358.938" y="426.375">DB</text><text x="390.063" y="426.375">DC</text><text x="421.188" y="426.375">DD</text><text x="452.313" y="426.375">DE</text><text x="483.438" y="426.375">DF</text><text x="16.563" y="457.5" fill="#fff">E0</text><text x="47.688" y="457.5" fill="#fff">E1</text><text x="78.813" y="457.5" fill="#fff">E2</text><text x="109.938" y="457.5" fill="#fff">E3</text><text x="141.063" y="457.5" fill="#fff">E4</text><text x="172.188" y="457.5" fill="#fff">E5</text><text x="203.313" y="457.5" fill="#fff">E6</text><text x="234.438" y="457.5" fill="#fff">E7</text><text x="265.563" y="457.5" fill="#fff">E8</text><text x="296.688" y="457.5" fill="#fff">E9</text><text x="327.813" y="457.5" fill="#fff">EA</text><text x="358.938" y="457.5" fill="#fff">EB</text><text x="390.063" y="457.5" fill="#fff">EC</text><text x="421.188" y="457.5" fill="#fff">ED</text><text x="452.313" y="457.5" fill="#fff">EE</text><text x="483.438" y="457.5" fill="#fff">EF</text><text x="16.563" y="488.625" fill="#fff">F0</text><text x="47.688" y="488.625" fill="#fff">F1</text><text x="78.813" y="488.625" fill="#fff">F2</text><text x="109.938" y="488.625" fill="#fff">F3</text><text x="141.063" y="488.625" fill="#fff">F4</text><text x="172.188" y="488.625" fill="#fff">F5</text><text x="203.313" y="488.625" fill="#fff">F6</text><text x="234.438" y="488.625" fill="#fff">F7</text><text x="265.563" y="488.625" fill="#fff">F8</text><text x="296.688" y="488.625">F9</text><text x="327.813" y="488.625">FA</text><text x="358.938" y="488.625" fill="url(#ai)">FB</text><text x="390.063" y="488.625">FC</text><text x="421.188" y="488.625">FD</text><text x="452.313" y="488.625" fill="url(#aj)">FE</text><text x="483.438" y="488.625">FF</text></g><g stroke="#dcdcdc" stroke-width="2"><path d="M518 17h25v13h-25z"/><path fill="#00f" d="M518 43.25h25v13h-25z"/><path fill="#90ee90" d="M518 69.5h25v13h-25z"/><path fill="orange" d="M518 95.75h25v13h-25z"/><path fill="#006400" d="M518 138.25h25v13h-25z"/><path fill="purple" d="M518 180.75h25v13h-25z"/><path fill="#dc143c" d="M518 207h25v13h-25z"/><path fill="salmon" d="M518 233.25h25v13h-25z"/><path fill="sienna" d="M518 259.5h25v13h-25z"/><path fill="#ff0" d="M518 302h25v13h-25z"/><path fill="#0ff" d="M518 328.25h25v13h-25z"/><path fill="orchid" d="M518 354.5h25v13h-25z"/><path fill="#a9a9a9" d="M518 380.75h25v13h-25z"/><path fill="#d3d3d3" d="M518 407h25v13h-25z"/><path fill="#fff" d="M518 433.25h25v13h-25z"/></g><g font-family="'DejaVu Sans', sans-serif" font-size="13" xml:lang="en"><text x="553" y="27">Latin script</text><text x="553" y="53.25">Non-Latin European scripts</text><text x="553" y="79.5">African scripts</text><text x="553" y="105.75">Middle Eastern and</text><text x="553" y="122">Southwest Asian scripts</text><text x="553" y="148.25">South and</text><text x="553" y="164.5">Central Asian scripts</text><text x="553" y="190.75">Southeast Asian scripts</text><text x="553" y="217">East Asian scripts</text><text x="553" y="243.25">CJK characters</text><text x="553" y="269.5">Indonesian and</text><text x="553" y="285.75">Oceanic scripts</text><text x="553" y="312">American scripts</text><text x="553" y="338.25">Notational systems</text><text x="553" y="364.5">Symbols</text><text x="553" y="390.75">Private use</text><text x="553" y="417">UTF-16 surrogates</text><text x="553" y="443.25">Unallocated code points</text><text x="528" y="479.5">As of Unicode 12.0</text></g></svg>