<svg xmlns="http://www.w3.org/2000/svg" viewBox="0 0 770 192"><g fill="none" fill-rule="evenodd"><path fill="#FFF" stroke="#1D877A" stroke-linecap="square" stroke-width="3" d="M755.667 111.49c.822-.879-8.563-19.796-10.14-20.974-1.577-1.178-91.65-1.374-93.136 0-.72.666 2.683 5.223 5.506 10.144 3.003 5.235 4.552 10.83 5.21 10.83 1.277 0 91.737.879 92.56 0z"/><path stroke="#000" stroke-linecap="round" stroke-width="5" d="M756.777 138.21c5.063 1.836 8.161 4.643 9.295 8.419 1.134 3.776 1.134 9.368 0 16.777M697.938 169.44c-3.575 2.25-5.873 4.37-6.895 6.359-1.022 1.988-1.35 5.307-.987 9.955l-7.646 2.822M712.684 169.44c3.574 2.25 5.872 4.37 6.894 6.359 1.022 1.988 1.35 5.307.987 9.955l7.646 2.822"/><path fill="#FFF" stroke="#1D877A" stroke-width="3" d="M755.556 111.827c-.074-.006-.145-.017-.183-.02a67.407 67.407 0 0 0-3.038-.21c-2.562-.134-6.2-.258-10.697-.366-8.762-.21-20.393-.353-32.116-.394-12.285-.043-23.74.028-32.233.21-4.578.1-8.242.23-10.837.388-1.34.082-2.384.172-3.11.267-.355.046-.732.137-.5-.098.167-.168.1.029.043.296-.107.506-.22 1.23-.33 2.148-.224 1.832-.442 4.386-.64 7.487-.4 6.236-.699 14.296-.82 22.244-.13 8.614-.046 16.52.267 22.477.322 6.112.966 10.249 1.39 10.612 1.337 1.144 22.428 2.139 46.755 2.139 11.734 0 23.016-.219 31.52-.623 4.47-.213 8.1-.473 10.715-.773 1.335-.153 2.393-.315 3.147-.482.552-.122.894-.25.82-.173.355-.362.886-4.586 1.13-10.772.236-5.97.276-13.897.14-22.649-.122-7.87-.382-15.968-.708-22.294-.158-3.076-.326-5.618-.492-7.424a38.38 38.38 0 0 0-.223-1.99z"/><path stroke="#000" stroke-linecap="round" stroke-width="4" d="M697.777 155.008c4.819 3.098 8.514 4.646 11.085 4.646 2.572 0 6.267-1.548 11.085-4.646M695.938 137.96v4.5M721.447 137.96v4.5"/><path fill="#FFF" stroke="#1D877A" stroke-linecap="square" stroke-width="3" d="M651.816 90.688c-1.456.626-1.456 23.736 0 69.328 6.395 11.86 9.918 17.316 10.569 16.366.976-1.423 0-12.136 0-30.174 0-12.025.314-23.541.943-34.548-6.218-14.608-10.055-21.598-11.512-20.972z"/><path stroke="#1D877A" stroke-linecap="square" stroke-width="3" d="M658.781 99.946h90.09"/><path stroke="#000" stroke-linecap="round" stroke-width="5" d="M655.218 133.597c-5.509 2.048-9.49 4.724-11.944 8.03-2.453 3.304-3.98 8.539-4.582 15.704"/><g><path fill="#FFF" stroke="#1D877A" stroke-linecap="square" stroke-width="3" d="M449.903 108.49c.822-.879-6.161-19.6-10.14-20.974-3.978-1.374-141.65-1.374-143.136 0-.72.666 2.683 5.223 5.506 10.144 3.003 5.235 4.552 10.83 5.21 10.83 1.278 0 141.737.879 142.56 0z"/><path stroke="#000" stroke-linecap="round" stroke-width="5" d="M452.793 142.464c5.062-1.837 8.16-4.644 9.295-8.42 1.134-3.776 1.134-9.368 0-16.777M369.174 169.44c-3.575 2.25-5.873 4.37-6.895 6.359-1.021 1.988-1.35 5.307-.987 9.955l-7.646 2.822M383.92 169.44c3.575 2.25 5.873 4.37 6.894 6.359 1.022 1.988 1.351 5.307.987 9.955l7.646 2.822"/><path fill="#FFF" stroke="#1D877A" stroke-width="3" d="M449.947 173.953c.356-.38.884-4.598 1.128-10.77.236-5.969.276-13.896.14-22.648-.122-7.87-.382-15.968-.708-22.294-.158-3.076-.326-5.618-.491-7.424a38.57 38.57 0 0 0-.223-1.982c-.24.026-.604-.018-.695-.024a150.856 150.856 0 0 0-4.648-.214c-3.905-.134-9.474-.258-16.376-.366-13.424-.21-31.297-.353-49.314-.394-18.874-.043-36.455.028-49.434.211-7.006.099-12.59.229-16.52.389-2.043.083-3.63.174-4.728.271-.521.046-1.277.176-1-.104.167-.168.1.029.043.296-.107.506-.219 1.23-.33 2.148-.224 1.832-.441 4.386-.64 7.487-.4 6.236-.698 14.296-.819 22.244-.13 8.614-.046 16.52.267 22.477.321 6.112.965 10.249 1.39 10.612.487.417 9.63 1.106 22.908 1.515 13.145.405 30.66.624 48.847.624 18.186 0 35.661-.22 48.73-.624 6.894-.214 12.455-.475 16.413-.777 2.042-.156 3.644-.322 4.774-.495.812-.124 1.406-.286 1.286-.158z"/><path stroke="#000" stroke-linecap="round" stroke-width="4" d="M367.014 152.404c4.818 3.098 8.513 4.647 11.085 4.647 2.571 0 6.266-1.549 11.085-4.647M365.174 135.356v4.5M390.684 135.356v4.5"/><path fill="#FFF" stroke="#1D877A" stroke-linecap="square" stroke-width="3" d="M296.053 87.688c-1.457.626-1.457 23.736 0 69.328 6.395 11.86 9.917 17.316 10.568 16.366.976-1.423 0-12.136 0-30.174 0-12.025.315-23.541.943-34.548-6.218-14.608-10.055-21.598-11.511-20.972z"/><path stroke="#1D877A" stroke-linecap="square" stroke-width="3" d="M303.018 96.946h141.14"/><path stroke="#000" stroke-linecap="round" stroke-width="5" d="M299.262 139.356c-5.508-2.049-9.49-4.725-11.943-8.03-2.454-3.304-3.981-8.54-4.582-15.705"/></g><g><path stroke="#979797" stroke-linecap="square" stroke-width="3" d="M516.281 105.96l-9-20"/><path fill="#FFF" stroke="#1D877A" stroke-linecap="square" stroke-width="3" d="M609.667 105.99c.822-.879-36.162-70.6-40.14-71.974-3.978-1.374-91.65-1.374-93.136 0-.72.666 32.683 56.223 35.506 61.144 3.003 5.235 4.552 10.83 5.21 10.83 1.277 0 91.737.879 92.56 0z"/><path stroke="#000" stroke-linecap="round" stroke-width="5" d="M594.773 124.808c15.385 4.576 23.767 8.77 25.147 12.582 1.38 3.812.147 9.926-3.699 18.343M517.328 143.126c-4.501 3.997-7.395 7.76-8.682 11.29-1.286 3.531-1.7 9.423-1.242 17.677l-9.629 5.01M555.816 164.96c3.575 2.25 5.873 4.37 6.895 6.358 1.022 1.989 1.35 5.307.987 9.956l8.063 6.295"/><path fill="#FFF" stroke="#1D877A" stroke-width="3" d="M609.556 106.327c-.074-.006-.145-.017-.183-.02a67.407 67.407 0 0 0-3.038-.21c-2.562-.134-6.2-.258-10.697-.366-8.762-.21-20.393-.353-32.116-.394-12.285-.043-23.74.028-32.233.21-4.578.1-8.242.23-10.837.388-1.34.082-2.384.172-3.11.267-.355.046-.732.137-.5-.098.167-.168.1.029.043.296-.107.506-.22 1.23-.33 2.148-.224 1.832-.442 4.386-.64 7.487-.4 6.236-.699 14.296-.82 22.244-.13 8.614-.046 16.52.267 22.477.322 6.112.966 10.249 1.39 10.612 1.337 1.144 22.428 2.139 46.755 2.139 11.734 0 23.016-.219 31.52-.623 4.47-.213 8.1-.473 10.715-.773 1.335-.153 2.393-.315 3.147-.482.552-.122.894-.25.82-.173.355-.362.886-4.586 1.13-10.772.236-5.97.276-13.897.14-22.649-.122-7.87-.382-15.968-.708-22.294-.158-3.076-.326-5.618-.492-7.424a38.38 38.38 0 0 0-.223-1.99z"/><path stroke="#000" stroke-linecap="round" stroke-width="4" d="M552.495 148.554c4.818 3.097 8.513 4.646 11.085 4.646 2.572 0 6.267-1.549 11.085-4.646M550.655 131.505v4.5M576.165 131.505v4.5"/><path fill="#FFF" stroke="#1D877A" stroke-linecap="square" stroke-width="3" d="M475.816 35.188c-1.456.626-1.456 23.736 0 69.328 26.395 45.193 39.918 67.316 40.569 66.366.976-1.423 0-12.136 0-30.174 0-12.025.314-23.541.943-34.548-26.218-47.941-40.055-71.598-41.512-70.972z"/><path stroke="#1D877A" stroke-linecap="square" stroke-width="3" d="M497.438 68.683h91"/><path stroke="#000" stroke-linecap="round" stroke-width="5" d="M497.229 111.393c-5.509-2.049-9.49-4.725-11.944-8.03-2.454-3.304-3.981-8.54-4.582-15.705"/></g><g><path fill="#FFF" stroke="#1D877A" stroke-linecap="square" stroke-width="3" d="M130.667 90.49c.822-.879-24.198-38.01-28.177-39.384-3.978-1.375-86.045-1.375-87.531 0-.72.665 9.413 14.451 12.236 19.372C30.198 75.713 37.45 90.49 38.107 90.49c1.277 0 91.737.879 92.56 0z"/><path stroke="#000" stroke-linecap="round" stroke-width="5" d="M133.556 116.078c5.063-1.837 8.161-4.644 9.295-8.42 1.134-3.776 1.134-9.368 0-16.777M70.31 151.44c-3.575 2.25-5.873 4.37-6.894 6.359-1.022 1.988-1.351 5.307-.987 9.955l-7.646 2.822M90.056 151.44c3.575 2.25 5.873 4.37 6.895 6.359 1.021 1.988 1.35 5.307.987 9.955l7.646 2.822"/><path fill="#FFF" stroke="#1D877A" stroke-width="3" d="M130.708 155.956c.356-.363.887-4.587 1.13-10.772.237-5.97.277-13.897.14-22.649-.121-7.87-.381-15.968-.707-22.294-.158-3.076-.326-5.618-.492-7.424a38.38 38.38 0 0 0-.223-1.99c-.074-.006-.145-.017-.182-.02a67.357 67.357 0 0 0-3.037-.21c-2.561-.134-6.198-.258-10.694-.366-8.758-.21-20.384-.353-32.102-.394-12.28-.043-23.73.028-32.221.21-4.576.1-8.238.23-10.832.388-1.339.082-2.383.172-3.11.266-.354.047-.731.138-.499-.097.167-.168.1.029.043.296-.107.506-.219 1.23-.33 2.148-.224 1.832-.441 4.386-.64 7.487-.4 6.236-.699 14.296-.82 22.244-.13 8.614-.046 16.52.268 22.477.321 6.112.965 10.249 1.39 10.612 1.336 1.144 22.418 2.139 46.736 2.139 11.729 0 23.006-.219 31.506-.623 4.468-.213 8.097-.473 10.712-.773 1.334-.153 2.391-.315 3.145-.482.552-.122.894-.249.82-.173z"/><path stroke="#000" stroke-linecap="round" stroke-width="4" d="M73.15 133.127c4.818 3.097 8.513 4.646 11.085 4.646 2.572 0 6.267-1.549 11.085-4.646M71.31 116.078v4.5M96.82 116.078v4.5"/><path fill="#FFF" stroke="#1D877A" stroke-linecap="square" stroke-width="3" d="M14.984 52.746c-1.456.626-1.456 22.82 0 66.578 14.283 24.988 21.75 37.008 22.4 36.058.977-1.423 0-12.136 0-30.174 0-12.025.315-23.541.944-34.548-14.106-25.902-21.887-38.54-23.344-37.914z"/><path stroke="#1D877A" stroke-linecap="square" stroke-width="3" d="M26.299 69.623h90.527"/><path stroke="#000" stroke-linecap="round" stroke-width="5" d="M25.164 109.982c-5.509-2.048-9.49-4.724-11.943-8.03-2.454-3.304-5.988-7.846-10.6-13.627"/></g><g><path stroke="#979797" stroke-linecap="square" stroke-width="3" d="M179.018 93.46l-9-20"/><path fill="#FFF" stroke="#1D877A" stroke-linecap="square" stroke-width="3" d="M250.334 26.929c.823-.879-7.917-22.919-11.803-24.293-3.885-1.374-68.123-1.374-69.61 0-.72.666 2.89 7.103 5.712 12.024 3.003 5.235 4.552 10.83 5.21 10.83 1.278 0 69.668 2.318 70.491 1.439z"/><path stroke="#000" stroke-linecap="round" stroke-width="5" d="M252.514 118.21c5.062 1.836 8.16 4.643 9.295 8.419 1.134 3.776 1.134 9.368 0 16.777M206.674 151.44c-3.575 2.25-5.873 4.37-6.895 6.359-1.021 1.988-1.35 5.307-.987 9.955l-7.646 2.822M221.42 151.44c3.575 2.25 5.873 4.37 6.894 6.359 1.022 1.988 1.351 5.307.987 9.955l7.646 2.822"/><path fill="#FFF" stroke="#1D877A" stroke-width="3" d="M179.375 26.59c-.606 2.486-1.367 32.804-1.556 64.183-.22 36.306.352 63.638 1.552 66.224.377.81 4.643 2.017 11.245 2.8 6.609.785 15.35 1.21 24.413 1.21 9.062 0 17.772-.425 24.322-1.21 6.483-.775 10.655-1.98 10.943-2.715 1.02-2.608 1.445-29.717 1.216-66.786-.19-30.754-.84-62.624-1.214-63.806.19.495.113.46.052.444-.5-.127-1.255-.26-2.237-.388-1.96-.257-4.76-.497-8.225-.706-6.776-.41-15.779-.688-24.854-.768-9.508-.083-18.372.055-24.935.41-3.52.191-6.33.442-8.303.746-.989.153-1.75.317-2.253.482-.16.052-.228.084-.196-.048zm-.03.072c.01-.04.03-.098.061-.175a.821.821 0 0 0-.03.103z"/><path stroke="#000" stroke-linecap="round" stroke-width="4" d="M205.514 100.508c4.818 3.098 8.513 4.646 11.085 4.646 2.571 0 6.266-1.548 11.085-4.646M203.674 83.46v4.5M229.184 83.46v4.5"/><path fill="#FFF" stroke="#1D877A" stroke-linecap="square" stroke-width="3" d="M168.553 2.688c-1.457.626-1.457 47.069 0 139.328 6.395 11.86 9.917 17.316 10.568 16.366.976-1.423 0-12.136 0-30.174 0-12.025.315-46.874.943-104.548-6.218-14.608-10.055-21.598-11.511-20.972z"/><path stroke="#1D877A" stroke-linecap="square" stroke-width="3" d="M177.742 12.96h67.103"/><path stroke="#000" stroke-linecap="round" stroke-width="5" d="M171.954 115.597c-5.508 2.048-9.49 4.724-11.943 8.03-2.454 3.304-3.981 8.539-4.582 15.704"/></g></g></svg>
