<svg xmlns="http://www.w3.org/2000/svg" viewBox="0 0 459 128"><g fill="none" fill-rule="evenodd"><path fill="#FFF" stroke="#1D877A" stroke-linecap="square" stroke-width="3" d="M442.794 45.406c.823-.879-24.198-38.01-28.176-39.385-3.978-1.374-86.045-1.374-87.531 0-.72.666 9.413 14.452 12.236 19.373 3.003 5.235 10.253 20.012 10.912 20.012 1.277 0 91.737.879 92.56 0z"/><path stroke="#000" stroke-linecap="round" stroke-width="5" d="M445.684 70.994c5.063-1.837 8.16-4.644 9.295-8.42 1.134-3.776 1.134-9.368 0-16.777M382.438 106.355c-3.575 2.252-5.873 4.372-6.895 6.36-1.021 1.988-1.35 5.306-.986 9.955l-7.646 2.822M402.184 106.355c3.575 2.252 5.873 4.372 6.895 6.36 1.021 1.988 1.35 5.306.986 9.955l7.646 2.822"/><path fill="#FFF" stroke="#1D877A" stroke-width="3" d="M442.836 110.872c.356-.363.886-4.587 1.13-10.772.236-5.97.277-13.897.14-22.649-.121-7.87-.382-15.968-.707-22.294-.158-3.076-.327-5.618-.492-7.424a38.38 38.38 0 0 0-.223-1.99c-.074-.006-.145-.017-.183-.02a67.357 67.357 0 0 0-3.037-.21c-2.56-.134-6.197-.258-10.693-.366-8.758-.21-20.384-.353-32.102-.394-12.28-.043-23.73.028-32.221.21-4.576.1-8.238.23-10.832.388-1.34.082-2.384.172-3.11.266-.354.047-.731.138-.499-.097.167-.168.1.029.043.295-.107.507-.22 1.231-.331 2.15-.223 1.83-.44 4.385-.64 7.485-.399 6.237-.698 14.297-.818 22.245-.131 8.614-.047 16.52.266 22.477.322 6.112.966 10.249 1.39 10.612 1.337 1.144 22.42 2.139 46.737 2.139 11.729 0 23.006-.219 31.506-.623 4.468-.213 8.097-.473 10.712-.773 1.334-.153 2.391-.315 3.145-.482.552-.122.893-.25.82-.173z"/><path stroke="#000" stroke-linecap="round" stroke-width="4" d="M385.278 88.043c4.818 3.097 8.513 4.646 11.085 4.646 2.571 0 6.266-1.549 11.085-4.646M383.438 70.994v4.5M408.948 70.994v4.5"/><path fill="#FFF" stroke="#1D877A" stroke-linecap="square" stroke-width="3" d="M327.112 7.662c-1.456.626-1.456 22.82 0 66.578 14.283 24.988 21.75 37.008 22.4 36.058.977-1.423 0-12.136 0-30.174 0-12.025.315-23.541.944-34.548-14.106-25.902-21.887-38.54-23.344-37.914z"/><path stroke="#1D877A" stroke-linecap="square" stroke-width="3" d="M338.427 24.54h90.527"/><path stroke="#000" stroke-linecap="round" stroke-width="5" d="M337.292 64.898c-5.509-2.048-9.49-4.724-11.944-8.03-2.453-3.304-5.987-7.847-10.6-13.627"/><g><path fill="#FFF" stroke="#1D877A" stroke-linecap="square" stroke-width="3" d="M286.992 43.699c.822-.879-24.198-38.01-28.176-39.385-3.979-1.374-86.046-1.374-87.532 0-.72.666 9.414 14.452 12.237 19.372 3.003 5.235 10.253 20.013 10.911 20.013 1.278 0 91.737.878 92.56 0z"/><path stroke="#000" stroke-linecap="round" stroke-width="5" d="M289.882 69.286c5.062-1.837 8.16-4.643 9.294-8.42 1.135-3.775 1.135-9.368 0-16.777M226.635 104.648c-3.574 2.251-5.872 4.371-6.894 6.36-1.022 1.988-1.35 5.306-.987 9.954l-7.646 2.823M246.381 104.648c3.575 2.251 5.873 4.371 6.895 6.36 1.022 1.988 1.35 5.306.987 9.954l7.646 2.823"/><path fill="#FFF" stroke="#1D877A" stroke-width="3" d="M287.034 109.164c.355-.362.886-4.586 1.13-10.772.236-5.97.276-13.896.14-22.648-.122-7.871-.382-15.969-.708-22.295-.158-3.076-.326-5.617-.491-7.424a38.38 38.38 0 0 0-.224-1.99c-.074-.005-.145-.016-.182-.02a67.357 67.357 0 0 0-3.037-.21c-2.561-.134-6.198-.257-10.693-.366-8.759-.21-20.384-.353-32.103-.394-12.28-.042-23.73.028-32.22.211-4.577.099-8.239.229-10.833.388-1.339.082-2.383.171-3.11.266-.353.046-.731.137-.498-.097.166-.168.099.028.042.295-.107.506-.219 1.23-.33 2.149-.224 1.831-.441 4.386-.64 7.486-.4 6.237-.698 14.297-.819 22.244-.13 8.614-.046 16.52.267 22.477.321 6.113.965 10.25 1.39 10.613 1.337 1.144 22.419 2.138 46.736 2.138 11.73 0 23.006-.218 31.506-.623 4.468-.212 8.098-.472 10.712-.773 1.335-.153 2.392-.315 3.146-.482.551-.122.893-.249.819-.173z"/><path stroke="#000" stroke-linecap="round" stroke-width="4" d="M229.475 86.335c4.819 3.098 8.514 4.647 11.085 4.647 2.572 0 6.267-1.549 11.085-4.647M227.635 69.286v4.5M253.145 69.286v4.5"/><path fill="#FFF" stroke="#1D877A" stroke-linecap="square" stroke-width="3" d="M171.31 5.955c-1.457.626-1.457 22.819 0 66.578 14.283 24.988 21.75 37.007 22.4 36.058.976-1.424 0-12.137 0-30.174 0-12.025.314-23.542.943-34.549-14.106-25.902-21.887-38.54-23.343-37.913z"/><path stroke="#1D877A" stroke-linecap="square" stroke-width="3" d="M182.624 22.832h90.527"/><path stroke="#000" stroke-linecap="round" stroke-width="5" d="M181.49 63.19c-5.51-2.048-9.49-4.724-11.944-8.029-2.454-3.304-5.987-7.847-10.6-13.628"/></g><g><path fill="#FFF" stroke="#1D877A" stroke-linecap="square" stroke-width="3" d="M130.729 42.699c.823-.879-24.198-38.01-28.176-39.385-3.979-1.374-86.046-1.374-87.532 0-.72.666 9.414 14.452 12.237 19.372C30.26 27.921 37.51 42.7 38.169 42.7c1.278 0 91.737.878 92.56 0z"/><path stroke="#000" stroke-linecap="round" stroke-width="5" d="M133.619 68.286c5.062-1.837 8.16-4.643 9.295-8.42 1.134-3.775 1.134-9.368 0-16.777M70.373 103.648c-3.575 2.251-5.873 4.371-6.895 6.36-1.022 1.988-1.35 5.306-.987 9.954l-7.646 2.823M90.119 103.648c3.574 2.251 5.873 4.371 6.894 6.36 1.022 1.988 1.35 5.306.987 9.954l7.646 2.823"/><path fill="#FFF" stroke="#1D877A" stroke-width="3" d="M130.77 108.164c.357-.362.887-4.586 1.131-10.772.236-5.97.276-13.896.14-22.648-.122-7.871-.382-15.969-.707-22.295-.159-3.076-.327-5.617-.492-7.424a38.38 38.38 0 0 0-.224-1.99c-.073-.005-.145-.016-.182-.02a67.357 67.357 0 0 0-3.037-.21c-2.561-.134-6.198-.257-10.693-.366-8.758-.21-20.384-.353-32.103-.394-12.28-.042-23.73.028-32.22.211-4.577.099-8.239.229-10.833.388-1.339.082-2.383.171-3.11.266-.353.046-.73.137-.498-.097.166-.168.099.028.042.295-.107.506-.219 1.23-.33 2.149-.223 1.831-.44 4.386-.64 7.486-.4 6.237-.698 14.297-.819 22.244-.13 8.614-.046 16.52.267 22.477.321 6.113.965 10.25 1.39 10.613 1.337 1.144 22.419 2.138 46.736 2.138 11.73 0 23.006-.218 31.507-.623 4.468-.212 8.097-.472 10.712-.773 1.334-.153 2.391-.315 3.145-.482.551-.122.893-.249.819-.173z"/><path stroke="#000" stroke-linecap="round" stroke-width="4" d="M73.212 85.335c4.819 3.098 8.514 4.647 11.085 4.647 2.572 0 6.267-1.549 11.085-4.647M71.373 68.286v4.5M96.882 68.286v4.5"/><path fill="#FFF" stroke="#1D877A" stroke-linecap="square" stroke-width="3" d="M15.047 4.955c-1.457.626-1.457 22.819 0 66.578 14.283 24.988 21.75 37.007 22.4 36.058.976-1.424 0-12.137 0-30.174 0-12.025.315-23.542.944-34.549C24.285 16.966 16.503 4.328 15.047 4.955z"/><path stroke="#1D877A" stroke-linecap="square" stroke-width="3" d="M26.361 21.832h90.528"/><path stroke="#000" stroke-linecap="round" stroke-width="5" d="M25.226 62.19c-5.508-2.048-9.49-4.724-11.943-8.029-2.454-3.304-5.987-7.847-10.6-13.628"/></g></g></svg>
