<svg xmlns="http://www.w3.org/2000/svg" viewBox="0 0 454 337"><g fill="none" fill-rule="evenodd"><path fill="#BA111D" d="M23.838 190.708S8.04 47.91 14.999 21.375c6.946-26.54 48.645-34.124 84.665 17.691 36.011 51.809 72.653 136.479 72.653 136.479L23.838 190.708z"/><path fill="#E7E7E7" d="M453.495 207.136s4.415 53.075-115.631 72.026c-120.057 18.956-358.795-46.07-336.1-100.119 22.705-54.045 125.692 19.874 204.041 5.978 78.347-13.9 171.865-17.696 247.69 22.115"/><path fill="#CDCDCD" d="M453.495 207.136S433.902 94.668 341.647 93.402c-92.233-1.261-104.247 41.071-190.173 49.28-85.928 8.215-119.427-5.05-141.542 22.751-22.103 27.803 3.804 23.377 13.905 25.274 10.113 1.898 429.658 16.429 429.658 16.429"/><path fill="#FDA529" d="M156.967 142.103c-1.801.209-3.631.401-5.494.58-2.38.228-13.084 1.463-30.942 2.184C107.184 114.457 13.034 28.868 14.999 21.376c6.947-26.542 48.645-34.124 84.665 17.69 21.525 30.968 52.534 70.73 57.303 103.037zM335.962 187.172c-6.256 0-11.374-5.117-11.374-11.373v-35.65c0-6.255 5.118-11.372 11.374-11.372h24.21c6.256 0 11.374 5.117 11.374 11.373v35.649c0 6.256-5.118 11.373-11.374 11.373h-24.21zM288.12 187.172H273.86c-3.683 0-6.694-3.01-6.694-6.692v-20.991c0-3.684 3.011-6.7 6.694-6.7h14.261c3.683 0 6.694 3.016 6.694 6.7v20.99c0 3.682-3.011 6.693-6.694 6.693M247.044 187.172h-14.252c-3.682 0-6.703-3.01-6.703-6.692v-20.991c0-3.684 3.02-6.7 6.703-6.7h14.252c3.692 0 6.703 3.016 6.703 6.7v20.99c0 3.682-3.01 6.693-6.703 6.693M205.978 187.172h-14.251c-3.693 0-6.705-3.01-6.705-6.692v-20.991c0-3.684 3.012-6.7 6.705-6.7h14.251c3.681 0 6.702 3.016 6.702 6.7v20.99c0 3.682-3.02 6.693-6.702 6.693M164.911 187.172H150.65c-3.683 0-6.695-3.01-6.695-6.692v-20.991c0-3.684 3.012-6.7 6.695-6.7h14.261c3.682 0 6.692 3.016 6.692 6.7v20.99c0 3.682-3.01 6.693-6.692 6.693"/><path fill="#021456" d="M178.919 286.99c90.83-72.2 100.82-91.944 24.892-97.793-75.927-5.854-98.256 6.546-113.159 84.594-14.892 78.05-2.563 85.4 88.267 13.2"/><path fill="#FFF" d="M13.717 179.954s10.111-24.327 66.975-27.8c56.865-3.475 57.495-3.475 57.495-3.475s-90.667 12.64-124.47 31.275M248.447 120.877s59.388-29.062 110.565-17.688c51.18 11.372 82.46 92.563 82.46 92.563s-49.917-124.476-193.025-74.875"/><path fill="#FBAA19" d="M188.42 193.54s-54.963-5.365-77.708 33.81c-22.745 39.168-18.961 98.56-18.961 98.56s-3.784-120.682 96.668-132.37"/><path fill="#FFF" d="M443.68 216.922s-45.208 47.286-115.307 55.918c-70.109 8.627-117.207-5.057-117.207-5.057s140.268 18.328 232.513-50.86M21.762 68.118s-.314 72.032 13.58 73.61c13.907 1.58 51.81-3.476 78.992 0 0 0-9.796-9.477-44.231-10.743-34.444-1.263-33.814-2.844-48.34-62.867"/><path fill="#021456" d="M75.838 88.881c.235.505-2.597-2.36-2.57-2.419.043-.09-30.46-79.264-31.313-80.717-.165-.28-2.088-4.842-2.026-4.848.062-.006 5.121-.668 10.746.517C56.3 2.598 60.077 4 61.503 4.8c1.426.801 5.704 26.039 8.526 38.254l4.864 22.351-.075 9.201c.016 5.063.929 14.079 1.02 14.274zm65.332 43.523c-6.267 1.18-11.93 2.198-12.64 2.267-.71.07-3.205-.24-5.563-.688-2.379-.448-4.475-.804-4.64-.795-.181.01-.234-.098-.134-.275.091-.16 2.175-2.464 4.7-5.122l4.789-4.848 9.876-5.406c9.046-4.736 9.4-5.113 9.548-4.738.093.238 1.667 3.119 4.312 9.54l2.767 7.732a861.24 861.24 0 0 0-13.015 2.333zm-18.47-11.948c-2.503.494-4.911.94-5.36.993l-.814.095.429-.607c.237-.334 2.337-3.055 4.737-6.052l4.567-5.465 7.237-5.57c4.157-3.078 6.51-4.4 6.605-4.407.301-.02 5.784 10.323 5.784 10.707 0 .385-3.959 1.683-9.29 4.433l-9.315 4.972-4.58.901zm-2.925-12.034c-3.073 1.145-5.792 2.11-6.074 2.145-.466.06-.256-.407 2.382-5.138a549.513 549.513 0 0 1 4.415-7.462c.757-1.236 3.662-5.04 6.532-8.463l4.466-4.246 1.634 2.495a400.264 400.264 0 0 1 3.735 6.02 194.636 194.636 0 0 0 2.182 3.673c-1.981.617-4.26 1.87-6.839 3.759l-6.757 5.127-5.676 2.09zm-5.455-11.019c-3.25 2.345-5.877 4.215-5.912 4.16-.035-.053 1.2-3.951 2.82-8.667 2.874-7.858 3.465-9.187 6.9-15.539 2.17-3.832 3.997-5.949 4.092-6.097.13-.204 6.28 9.175 7.603 11.327.166.275-.233-.263-4.343 4.457l-5.045 6.076-6.115 4.283zm-12.511-3.798c-.088-.34 2.108-17.397 2.422-18.608.18-.688 5.455-13.164 6.979-16.294l.883-1.98 4.055 5.69a361.452 361.452 0 0 1 3.783 5.559c-1.005 2.099-2.221 4.411-3.649 6.937l-3.696 6.867-5.523 6.078c-2.89 3.33-5.212 5.914-5.254 5.751zm-3.968-12.87l-3.619 7.706-1.039-10.82-1.088-10.8.343-13.156c.257-7.236 2.758-20.519 2.804-20.586.111-.162 4.146 5.016 9.22 12.669l5.925 8.53-1.65 2.414c-6.428 15.146-6.927 16.28-10.896 24.043zm-11.01-4.453c-1.138 4.729-2.044 8.556-2.084 8.509-.04-.048-1.515-4.391-3.345-9.642l-3.514-9.511-4.124-20.616c-2.388-11.278-4.475-21.05-4.562-21.76L66.453 7.133c4.282 2.458 8.118 5.078 11.508 7.86 5.085 4.17 11.08 10.484 11.146 10.642.066.157.4 18.853.2 27.077l-.2 14.956-2.276 8.613zm69.2 61.245c.471 2.355.803 4.408.774 4.561-.02.106-17.058 2.052-36.25 2.828l-.82-1.761c1.277-.678 2.231-1.284 3.644-2.21l3.934-2.527 12.7-2.43c7.095-1.347 13.43-2.52 14.008-2.599l1.05-.144.96 4.282z"/><path fill="#FFF" d="M58.326 70.662C28.82 40.178 14.377 23.749 15 21.376c2.794-10.672 11.205-18.28 22.607-20.192.28-.047 1.06-.047 2.343 0a884.73 884.73 0 0 1 11.266 25.982c3.549 8.563 10.841 28.237 21.878 59.02L58.326 70.661z"/></g></svg>
