<svg xmlns="http://www.w3.org/2000/svg" viewBox="0 0 480 480"><g fill="none"><circle cx="240" cy="240" r="240" fill="#FF5108"/><path fill="#F7FF3F" d="M152 356h244v32H152z"/><path fill="#BEC42D" d="M152 372h244v16H152z"/><path fill="#FFF8E6" d="M408 164.004v160c0 5.416-2.584 8-8 8H152c-5.416 0-8-2.584-8-8v-224c0-5.416 2.584-8 8-8l184 .228 72 71.772z"/><path fill="#FFF" d="M336 92.232v63.772c0 5.416 2.584 8 8 8h63.472L336 92.232z"/><path fill="#FFFDF8" d="M124 310.152c0 5.436-4.412 9.852-9.852 9.852H81.852c-5.44 0-9.852-4.416-9.852-9.852V121.856c0-5.436 4.412-9.852 9.852-9.852h32.296c5.436 0 9.852 4.416 9.852 9.852v188.296z"/><path fill="#B3B3B3" d="M72 132h16v4H72zm0 40h16v4H72zm0-32h8v4h-8zm0 8h8v4h-8zm0 8h8v4h-8zm0 8h8v4h-8zm0 48h16v4H72zm0-32h8v4h-8zm0 8h8v4h-8zm0 8h8v4h-8zm0 8h8v4h-8zm0 48h16v4H72zm0-32h8v4h-8zm0 8h8v4h-8zm0 8h8v4h-8zm0 8h8v4h-8z"/><path fill="#FFF1CC" d="M160 372.004c0-4.42-3.58-8-8-8 2.212 0 4-1.788 4-4 0-2.212-1.788-4-4-4l-36 16 36 16c2.212 0 4-1.788 4-4 0-2.212-1.788-4-4-4 4.42 0 8-3.58 8-8z"/><path fill="#242424" d="M130.172 378.304c1.14-1.836 1.828-3.98 1.828-6.3s-.688-4.464-1.828-6.3l-14.172 6.3 14.172 6.3z"/></g></svg>
