<svg xmlns="http://www.w3.org/2000/svg" viewBox="0 0 168 235"><g fill="none" fill-rule="evenodd"><path stroke="#000" stroke-linecap="round" stroke-width="5" d="M39.179 157.485c-6.774-4.07-11.818-8.529-15.132-13.378-3.313-4.849-4.91-13.017-4.792-24.506"/><path fill="#FFF" stroke="#1D877A" stroke-linecap="square" stroke-width="3" d="M24.652 145.95c0-3.854 34.466-24.25 39.014-24.25 4.548 0 59.81 19.197 61.362 22.407 1.034 2.14-12.43 10.546-40.396 25.216"/><path stroke="#000" stroke-linecap="round" stroke-width="5" d="M55.512 204.392c-4.005 3.252-6.519 5.872-7.54 7.86-1.022 1.988-1.718 5.614-2.09 10.879l-8.877-3.429M77.994 214.186c.785 1.54 1.767 3.261 2.945 5.161 1.178 1.9 3.684 4.018 7.517 6.355l-7.511 5.844"/><path stroke="#1D877A" stroke-linecap="square" stroke-width="3" d="M44.337 132.793l62.582 23.869"/><path fill="#FFF" stroke="#1D877A" stroke-width="3" d="M24.782 146.516c-.823.963-2.074 13.022-2.28 25.484-.23 14.096.805 25.558 2.417 26.905 2.909 2.431 23.515 9.972 60.84 22.179 1.016-32.002.999-50.042.13-51.58.062.11-.129-.045-.446-.245a26.73 26.73 0 0 0-2-1.107c-1.696-.865-4.075-1.966-6.998-3.241-5.707-2.488-13.235-5.529-20.87-8.43-7.958-3.026-15.453-5.68-21.118-7.464-3.028-.953-5.492-1.645-7.286-2.04-.902-.199-1.62-.32-2.13-.36-.219-.016-.349-.01-.291-.078zm-.032.023a.433.433 0 0 1 .075-.063.24.24 0 0 0-.043.04z"/><path fill="#FFF" stroke="#1D877A" stroke-width="3" d="M84.758 221.729h-.011c.01 0 .023-.001.039-.004zm.597-.16c.45-.157 1.043-.416 1.768-.776 1.852-.92 4.485-2.46 7.884-4.614 6.75-4.277 16.483-10.949 29.19-20.012 1.288-16.78 1.932-29.59 1.932-38.423 0-8.216-.658-13.093-1.294-13.497-.928-.59-9.53 3.85-19.806 10.56-9.148 5.975-18.618 13.008-19.386 14.243-.627 1.007-1.263 13.476-1.313 27.13-.026 6.802.087 13.212.328 18.002.127 2.534.287 4.576.477 6.03.07.545.145 1 .22 1.357z"/><path stroke="#000" stroke-linecap="round" stroke-width="5" d="M105.227 184.898c6.683-1.093 11.806-4.21 15.367-9.351 3.562-5.14 5.966-10.166 7.211-15.074"/><path stroke="#000" stroke-linecap="round" stroke-width="4" d="M45.258 174.724v3M64.143 181.377v3"/><path stroke="#000" stroke-linecap="round" stroke-width="3" d="M46.258 191.302c1.723 2.752 3.379 4.38 4.966 4.883 1.588.503 4.2.228 7.837-.824"/><path stroke="#000" stroke-linecap="round" stroke-width="2" d="M162.295 68.944l3.891-3.234"/><path fill="#FFF" stroke="#000" stroke-width="2" d="M1.169 5.296c-.006.157-.012.331-.017.52a281.322 281.322 0 0 0-.085 5.038C1.023 15.312 1 21.95 1 30.768c0 17.526.089 43.658.267 78.398l161.003 63.017V68.328C108.434 47.033 67.986 31.102 40.927 20.536 27.346 15.233 17.138 11.28 10.305 8.68A519.21 519.21 0 0 0 2.595 5.8a92.239 92.239 0 0 0-1.426-.504zm-.418-.14a22.094 22.094 0 0 0 .028.009z"/><path fill="#000" d="M117.144 125.505a7.26 7.26 0 0 1-1.543-3.31 13.648 13.648 0 0 1-.175-3.785c.117-1.286.327-2.559.631-3.818s.56-2.408.771-3.446c.21-1.04.304-1.925.28-2.66-.023-.733-.291-1.202-.806-1.405l-2.804-.758c-1.73-1.666-2.875-3.089-3.436-4.27-.561-1.18-.608-2.016-.14-2.509.467-.493 1.425-.605 2.874-.336 1.45.27 3.32 1.02 5.61 2.254.234-.375.432-.87.596-1.483.164-.613.362-1.586.596-2.92.234-1.333.538-3.141.912-5.424.374-2.283.911-5.273 1.613-8.97.327-2.114.876-3.603 1.647-4.466.772-.864 1.66-1.25 2.665-1.156 1.005.094 2.045.564 3.12 1.41 1.076.845 2.104 1.906 3.086 3.183a23.71 23.71 0 0 1 2.56 4.167c.724 1.502 1.226 2.94 1.507 4.313.14.382.35 1.097.63 2.143.281 1.045.574 2.224.877 3.537.304 1.312.632 2.703.982 4.174.35 1.471.69 2.868 1.017 4.189.327 1.321.62 2.489.876 3.502.258 1.013.456 1.735.596 2.164.281.111.76.207 1.438.288.678.081 1.437.206 2.279.375.841.17 1.66.388 2.454.655a5.258 5.258 0 0 1 2.034 1.225c.56.549.9 1.256 1.016 2.12.117.864-.105 1.957-.666 3.278l-6.872-1.035 2.875 19.72c.047.298-.198.458-.736.48-.538.02-1.18-.058-1.928-.237a8.69 8.69 0 0 1-2.21-.873c-.724-.404-1.25-.88-1.577-1.43-.327-.971-.608-2.274-.841-3.91a138.414 138.414 0 0 1-.631-5.122c-.187-1.78-.374-3.55-.561-5.306-.187-1.757-.398-3.266-.631-4.527l-.421-.587a19.556 19.556 0 0 0-2.875-1.277 73.748 73.748 0 0 0-2.875-.927 48.995 48.995 0 0 0-3.156-.826 67.907 67.907 0 0 1-3.646-.951l-2.384 15.676c-.14.365-.386.595-.736.69-.351.095-.76.086-1.228-.029a4.234 4.234 0 0 1-1.402-.66 6.894 6.894 0 0 1-1.262-1.13zm8.344-21.243a92.948 92.948 0 0 0 4.734 1.731c1.519.507 3.12 1.047 4.803 1.619v-.42a28.979 28.979 0 0 1-1.403-5.043 585.113 585.113 0 0 0-1.016-5.346 65.76 65.76 0 0 0-1.262-5.302 18.582 18.582 0 0 0-2.14-4.843c-.326.292-.63.873-.91 1.743-.281.871-.55 1.875-.807 3.012a46.636 46.636 0 0 0-.666 3.664 582.788 582.788 0 0 0-.526 3.754 450.428 450.428 0 0 1-.456 3.255c-.14.973-.257 1.699-.35 2.176zM74.1 108.189c-1.916-1.6-3.213-3.106-3.891-4.519-.678-1.413-.97-2.768-.877-4.063a8.062 8.062 0 0 1 1.192-3.666 26.525 26.525 0 0 1 2.384-3.3 247.656 247.656 0 0 1 2.63-3.062c.865-.99 1.508-1.963 1.928-2.919-2.992-4.408-4.908-8.24-5.75-11.494-.841-3.255-.958-5.954-.35-8.098.607-2.144 1.753-3.76 3.436-4.847 1.683-1.088 3.54-1.685 5.574-1.793 2.034-.107 4.067.264 6.101 1.115a12.266 12.266 0 0 1 5.049 3.855c1.332 1.718 2.127 3.868 2.384 6.447.257 2.58-.386 5.527-1.928 8.844l-6.662 8.235c.187.448.654 1.194 1.402 2.237a114.258 114.258 0 0 0 2.49 3.334c.911 1.178 1.823 2.31 2.734 3.395.912 1.085 1.625 1.87 2.14 2.353.513-.03.887-.338 1.121-.923.234-.586.42-1.283.561-2.093.14-.809.269-1.635.386-2.477.117-.842.292-1.532.526-2.07.233-.54.56-.854.981-.945.421-.09 1.005.222 1.753.939.655.399 1.087.99 1.298 1.775.21.784.292 1.658.245 2.621a23.75 23.75 0 0 1-.35 3.017 63.252 63.252 0 0 1-.597 2.955c-.21.922-.385 1.74-.525 2.457-.14.716-.14 1.218 0 1.507l4.698 7.468c.28.765.28 1.338 0 1.718-.28.38-.666.636-1.157.77-.491.132-.982.16-1.473.083-.49-.077-.806-.19-.947-.34-.093-.13-.292-.465-.596-1.006a37.48 37.48 0 0 0-1.051-1.748 39.726 39.726 0 0 0-1.228-1.818c-.42-.587-.794-1.015-1.121-1.285-.187-.167-.632-.133-1.333.104s-1.59.517-2.664.84c-1.076.323-2.314.604-3.717.845-1.402.24-2.898.291-4.488.154-1.59-.138-3.26-.553-5.013-1.247-1.753-.693-3.518-1.811-5.295-3.355zm7.503-16.597c-2.57 2.022-4.382 3.912-5.434 5.67-1.052 1.757-1.52 3.314-1.402 4.669.116 1.355.724 2.484 1.823 3.386 1.098.901 2.49 1.521 4.172 1.86 1.683.338 3.576.385 5.68.142 2.104-.244 4.207-.838 6.31-1.782a337.368 337.368 0 0 1-5.574-6.727c-1.8-2.231-3.658-4.637-5.575-7.218zM79.5 79.962c.14.242.479.738 1.017 1.488.537.75.9 1.232 1.086 1.447 2.899-1.893 4.897-3.709 5.996-5.448 1.098-1.74 1.601-3.318 1.508-4.734-.094-1.416-.632-2.622-1.613-3.617a8.635 8.635 0 0 0-3.401-2.152c-1.286-.438-2.571-.56-3.857-.367-1.285.192-2.267.798-2.945 1.815-.678 1.018-.912 2.468-.701 4.351.21 1.883 1.18 4.288 2.91 7.216zM19.54 82.72c-2.664-2.223-4.64-4.745-5.925-7.568-1.286-2.822-2.034-5.724-2.244-8.706-.21-2.981.082-5.95.877-8.91.794-2.957 1.94-5.683 3.436-8.177 1.496-2.494 3.284-4.662 5.364-6.504 2.08-1.842 4.324-3.14 6.732-3.895 2.407-.754 4.908-.875 7.503-.364 2.594.512 5.177 1.884 7.748 4.116a83.68 83.68 0 0 1 6.942 9.406c2.104 3.31 3.717 6.682 4.839 10.117 1.121 3.436 1.624 6.884 1.507 10.344-.117 3.46-1.11 6.783-2.98 9.97l8.765 9.847c.795.922 1.38 2.03 1.753 3.323.374 1.293.468 2.44.28 3.442-.186 1.001-.689 1.714-1.507 2.138-.818.425-2.022.206-3.611-.656-.468-.232-.947-.702-1.438-1.41a49.066 49.066 0 0 1-1.577-2.447 1391.08 1391.08 0 0 1-1.789-2.95 25.835 25.835 0 0 0-2.033-2.909 13.568 13.568 0 0 0-2.35-2.296c-.84-.636-1.729-1.023-2.664-1.159a22.047 22.047 0 0 1-6.802 2.01 24.2 24.2 0 0 1-7.082-.172c-2.384-.405-4.733-1.158-7.047-2.26-2.314-1.102-4.546-2.546-6.697-4.33zm3.506-5.206c1.122 1.005 2.466 1.922 4.032 2.751a23.134 23.134 0 0 0 4.839 1.913c1.66.446 3.295.626 4.908.539 1.613-.087 3.05-.582 4.313-1.486.28-.216.082-.785-.596-1.708-.678-.922-1.555-2.005-2.63-3.248-1.075-1.244-2.22-2.573-3.436-3.989-1.215-1.415-2.185-2.722-2.91-3.92-.724-1.198-1.087-2.218-1.087-3.06 0-.84.655-1.33 1.964-1.467 1.449-.128 2.734.065 3.856.578a10.99 10.99 0 0 1 3.05 2.083 19.666 19.666 0 0 1 2.49 2.913 145.076 145.076 0 0 1 2.069 3.026c.63.951 1.227 1.748 1.788 2.39.56.643 1.145.99 1.753 1.044.748-1.34 1.133-3.058 1.157-5.152.023-2.095-.246-4.234-.807-6.42a28.293 28.293 0 0 0-2.419-6.25c-1.052-1.982-2.279-3.531-3.681-4.647a32.468 32.468 0 0 1-2.034-1.084c-.794-.455-1.39-.97-1.788-1.549-.397-.577-.467-1.178-.21-1.8.257-.624 1.133-1.27 2.63-1.941-.281-.672-.643-1.13-1.088-1.377a6.317 6.317 0 0 0-1.577-.588c-2.478-.746-4.85-.726-7.118.06-2.267.787-4.289 2.068-6.065 3.843-1.777 1.775-3.237 3.92-4.383 6.436-1.145 2.516-1.846 5.102-2.103 7.758-.258 2.657 0 5.248.77 7.773.772 2.526 2.21 4.719 4.313 6.579z"/><path stroke="#000" stroke-linecap="round" stroke-width="2" d="M161.867 68.719c-.129 68.586.11 103.157.714 103.712.906.832 4.13-2.636 4.13-3.386V65.46C59.255 22.712 5.344 1.338 4.976 1.338c-.553 0-4.228 3.188-3.846 3.607.254.28 53.833 21.538 160.737 63.774z"/></g></svg>
