<svg xmlns="http://www.w3.org/2000/svg" viewBox="0 0 786 534"><g fill="none" fill-rule="evenodd"><path fill="#FFF" stroke="#1D877A" stroke-linecap="square" stroke-width="3" d="M203.252 59.531c.823-.879-24.198-38.01-28.176-39.385-3.978-1.374-86.045-1.374-87.531 0-.72.666 9.413 14.452 12.236 19.373 3.003 5.235 10.253 20.012 10.912 20.012 1.277 0 91.737.879 92.56 0z"/><path stroke="#000" stroke-linecap="round" stroke-width="5" d="M206.142 85.119c5.063-1.837 8.161-4.644 9.295-8.42 1.134-3.776 1.134-9.368 0-16.777M142.896 120.48c-3.575 2.252-5.873 4.372-6.894 6.36-1.022 1.988-1.351 5.306-.987 9.955l-7.646 2.822M162.642 120.48c3.575 2.252 5.873 4.372 6.895 6.36 1.021 1.988 1.35 5.306.986 9.955l7.646 2.822"/><path fill="#FFF" stroke="#1D877A" stroke-width="3" d="M203.294 124.997c.356-.363.886-4.587 1.13-10.772.237-5.97.277-13.897.14-22.649-.121-7.87-.381-15.968-.707-22.294-.158-3.076-.326-5.618-.492-7.424a38.38 38.38 0 0 0-.223-1.99c-.074-.006-.145-.017-.182-.02a67.357 67.357 0 0 0-3.037-.21c-2.562-.134-6.198-.258-10.694-.366-8.758-.21-20.384-.353-32.102-.394-12.28-.043-23.73.028-32.221.21-4.576.1-8.238.23-10.832.388-1.34.082-2.383.172-3.11.266-.354.047-.731.138-.499-.097.167-.168.1.029.043.295-.107.507-.22 1.231-.33 2.15-.224 1.83-.441 4.385-.64 7.485-.4 6.237-.699 14.297-.82 22.245-.13 8.614-.046 16.52.267 22.477.322 6.112.966 10.249 1.39 10.612 1.337 1.144 22.42 2.139 46.737 2.139 11.729 0 23.006-.219 31.506-.623 4.468-.213 8.097-.473 10.712-.773 1.334-.153 2.391-.315 3.145-.482.552-.122.893-.25.82-.173z"/><path stroke="#000" stroke-linecap="round" stroke-width="4" d="M145.736 102.168c4.818 3.097 8.513 4.646 11.085 4.646 2.572 0 6.267-1.549 11.085-4.646M143.896 85.119v4.5M169.406 85.119v4.5"/><path fill="#FFF" stroke="#1D877A" stroke-linecap="square" stroke-width="3" d="M87.57 21.787c-1.456.626-1.456 22.82 0 66.578 14.283 24.988 21.75 37.008 22.4 36.058.977-1.423 0-12.136 0-30.174 0-12.025.315-23.541.944-34.548C96.808 33.799 89.027 21.16 87.57 21.787z"/><path stroke="#1D877A" stroke-linecap="square" stroke-width="3" d="M98.885 38.664h90.527"/><path stroke="#000" stroke-linecap="round" stroke-width="5" d="M97.75 79.023c-5.509-2.048-9.49-4.724-11.943-8.03-2.454-3.304-5.988-7.847-10.6-13.627"/><path fill="#FFF" stroke="#1D877A" stroke-linecap="square" stroke-width="3" d="M361.987 59.531c.822-.879-24.198-38.01-28.176-39.385-3.979-1.374-86.046-1.374-87.532 0-.72.666 9.414 14.452 12.237 19.373 3.003 5.235 10.253 20.012 10.911 20.012 1.278 0 91.737.879 92.56 0z"/><path stroke="#000" stroke-linecap="round" stroke-width="5" d="M364.877 85.119c5.062-1.837 8.16-4.644 9.295-8.42 1.134-3.776 1.134-9.368 0-16.777M301.63 120.48c-3.574 2.252-5.872 4.372-6.894 6.36-1.022 1.988-1.35 5.306-.987 9.955l-7.646 2.822M321.377 120.48c3.574 2.252 5.872 4.372 6.894 6.36 1.022 1.988 1.35 5.306.987 9.955l7.646 2.822"/><path fill="#FFF" stroke="#1D877A" stroke-width="3" d="M362.029 124.997c.356-.363.886-4.587 1.13-10.772.236-5.97.276-13.897.14-22.649-.122-7.87-.382-15.968-.708-22.294-.158-3.076-.326-5.618-.491-7.424a38.38 38.38 0 0 0-.224-1.99c-.074-.006-.145-.017-.182-.02a67.357 67.357 0 0 0-3.037-.21c-2.561-.134-6.198-.258-10.693-.366-8.759-.21-20.384-.353-32.103-.394-12.28-.043-23.73.028-32.22.21-4.577.1-8.239.23-10.833.388-1.339.082-2.383.172-3.11.266-.353.047-.731.138-.498-.097.166-.168.099.029.042.295-.107.507-.219 1.231-.33 2.15-.223 1.83-.441 4.385-.64 7.485-.4 6.237-.698 14.297-.819 22.245-.13 8.614-.046 16.52.267 22.477.321 6.112.965 10.249 1.39 10.612 1.337 1.144 22.419 2.139 46.736 2.139 11.73 0 23.006-.219 31.506-.623 4.468-.213 8.098-.473 10.712-.773 1.335-.153 2.392-.315 3.146-.482.551-.122.893-.25.819-.173z"/><path stroke="#000" stroke-linecap="round" stroke-width="4" d="M304.47 102.168c4.819 3.097 8.514 4.646 11.085 4.646 2.572 0 6.267-1.549 11.085-4.646M302.63 85.119v4.5M328.14 85.119v4.5"/><path fill="#FFF" stroke="#1D877A" stroke-linecap="square" stroke-width="3" d="M246.305 21.787c-1.457.626-1.457 22.82 0 66.578 14.283 24.988 21.75 37.008 22.4 36.058.976-1.423 0-12.136 0-30.174 0-12.025.315-23.541.943-34.548-14.106-25.902-21.887-38.54-23.343-37.914z"/><path stroke="#1D877A" stroke-linecap="square" stroke-width="3" d="M257.62 38.664h90.526"/><path stroke="#000" stroke-linecap="round" stroke-width="5" d="M256.484 79.023c-5.508-2.048-9.49-4.724-11.943-8.03-2.454-3.304-5.987-7.847-10.6-13.627"/><g><path fill="#FFF" stroke="#1D877A" stroke-linecap="square" stroke-width="3" d="M532.877 450.031c.823-.879-24.198-38.01-28.176-39.385-3.978-1.374-86.045-1.374-87.531 0-.72.666 9.413 14.452 12.236 19.373 3.003 5.235 10.253 20.012 10.912 20.012 1.277 0 91.737.879 92.56 0z"/><path stroke="#000" stroke-linecap="round" stroke-width="5" d="M535.767 475.619c5.063-1.837 8.161-4.644 9.295-8.42 1.134-3.776 1.134-9.368 0-16.777M472.521 510.98c-3.575 2.252-5.873 4.372-6.894 6.36-1.022 1.988-1.351 5.306-.987 9.955l-7.646 2.822M492.267 510.98c3.575 2.252 5.873 4.372 6.895 6.36 1.021 1.988 1.35 5.306.986 9.955l7.646 2.822"/><path fill="#FFF" stroke="#1D877A" stroke-width="3" d="M532.92 515.497c.355-.363.885-4.587 1.13-10.772.236-5.97.276-13.897.14-22.649-.122-7.87-.382-15.968-.708-22.294-.158-3.076-.326-5.618-.492-7.424a38.38 38.38 0 0 0-.223-1.99c-.074-.006-.145-.017-.182-.02a67.357 67.357 0 0 0-3.037-.21c-2.562-.134-6.198-.258-10.694-.366-8.758-.21-20.384-.353-32.102-.394-12.28-.043-23.73.028-32.221.21-4.576.1-8.238.23-10.832.388-1.34.082-2.383.172-3.11.266-.354.047-.731.138-.499-.097.167-.168.1.029.043.295-.107.507-.22 1.231-.33 2.15-.224 1.83-.441 4.385-.64 7.485-.4 6.237-.699 14.297-.82 22.245-.13 8.614-.046 16.52.267 22.477.322 6.112.966 10.249 1.39 10.612 1.337 1.144 22.42 2.139 46.737 2.139 11.729 0 23.006-.219 31.506-.623 4.468-.213 8.097-.473 10.712-.773 1.334-.153 2.391-.315 3.145-.482.552-.122.893-.25.82-.173z"/><path stroke="#000" stroke-linecap="round" stroke-width="4" d="M475.36 492.668c4.82 3.097 8.514 4.646 11.086 4.646 2.572 0 6.267-1.549 11.085-4.646M473.521 475.619v4.5M499.03 475.619v4.5"/><path fill="#FFF" stroke="#1D877A" stroke-linecap="square" stroke-width="3" d="M417.195 412.287c-1.456.626-1.456 22.82 0 66.578 14.283 24.988 21.75 37.008 22.4 36.058.977-1.423 0-12.136 0-30.174 0-12.025.315-23.541.944-34.548-14.106-25.902-21.887-38.54-23.344-37.914z"/><path stroke="#1D877A" stroke-linecap="square" stroke-width="3" d="M428.51 429.164h90.527"/><path stroke="#000" stroke-linecap="round" stroke-width="5" d="M427.375 469.523c-5.509-2.048-9.49-4.724-11.943-8.03-2.454-3.304-5.988-7.847-10.6-13.627"/></g><g><path fill="#FFF" stroke="#1D877A" stroke-linecap="square" stroke-width="3" d="M691.612 450.031c.822-.879-24.198-38.01-28.176-39.385-3.979-1.374-86.046-1.374-87.532 0-.72.666 9.414 14.452 12.237 19.373 3.003 5.235 10.253 20.012 10.911 20.012 1.278 0 91.737.879 92.56 0z"/><path stroke="#000" stroke-linecap="round" stroke-width="5" d="M694.502 475.619c5.062-1.837 8.16-4.644 9.295-8.42 1.134-3.776 1.134-9.368 0-16.777M631.255 510.98c-3.574 2.252-5.872 4.372-6.894 6.36-1.022 1.988-1.35 5.306-.987 9.955l-7.646 2.822M651.002 510.98c3.574 2.252 5.872 4.372 6.894 6.36 1.022 1.988 1.35 5.306.987 9.955l7.646 2.822"/><path fill="#FFF" stroke="#1D877A" stroke-width="3" d="M691.654 515.497c.356-.363.886-4.587 1.13-10.772.236-5.97.276-13.897.14-22.649-.122-7.87-.382-15.968-.708-22.294-.158-3.076-.326-5.618-.491-7.424a38.38 38.38 0 0 0-.224-1.99c-.074-.006-.145-.017-.182-.02a67.357 67.357 0 0 0-3.037-.21c-2.561-.134-6.198-.258-10.693-.366-8.759-.21-20.384-.353-32.103-.394-12.28-.043-23.73.028-32.22.21-4.577.1-8.239.23-10.833.388-1.339.082-2.383.172-3.11.266-.353.047-.731.138-.498-.097.166-.168.099.029.042.295-.107.507-.219 1.231-.33 2.15-.223 1.83-.441 4.385-.64 7.485-.4 6.237-.698 14.297-.819 22.245-.13 8.614-.046 16.52.267 22.477.321 6.112.965 10.249 1.39 10.612 1.337 1.144 22.419 2.139 46.736 2.139 11.73 0 23.006-.219 31.506-.623 4.468-.213 8.098-.473 10.712-.773 1.335-.153 2.392-.315 3.146-.482.551-.122.893-.25.819-.173z"/><path stroke="#000" stroke-linecap="round" stroke-width="4" d="M634.095 492.668c4.819 3.097 8.514 4.646 11.085 4.646 2.572 0 6.267-1.549 11.085-4.646M632.255 475.619v4.5M657.765 475.619v4.5"/><path fill="#FFF" stroke="#1D877A" stroke-linecap="square" stroke-width="3" d="M575.93 412.287c-1.457.626-1.457 22.82 0 66.578 14.283 24.988 21.75 37.008 22.4 36.058.976-1.423 0-12.136 0-30.174 0-12.025.315-23.541.943-34.548-14.106-25.902-21.887-38.54-23.343-37.914z"/><path stroke="#1D877A" stroke-linecap="square" stroke-width="3" d="M587.244 429.164h90.527"/><path stroke="#000" stroke-linecap="round" stroke-width="5" d="M586.11 469.523c-5.51-2.048-9.49-4.724-11.944-8.03-2.454-3.304-5.987-7.847-10.6-13.627"/></g><g><path fill="#FFF" stroke="#1D877A" stroke-linecap="square" stroke-width="3" d="M520.877 59.531c.823-.879-24.198-38.01-28.176-39.385-3.978-1.374-86.045-1.374-87.531 0-.72.666 9.413 14.452 12.236 19.373 3.003 5.235 10.253 20.012 10.912 20.012 1.277 0 91.737.879 92.56 0z"/><path stroke="#000" stroke-linecap="round" stroke-width="5" d="M523.767 85.119c5.063-1.837 8.161-4.644 9.295-8.42 1.134-3.776 1.134-9.368 0-16.777M460.521 120.48c-3.575 2.252-5.873 4.372-6.894 6.36-1.022 1.988-1.351 5.306-.987 9.955l-7.646 2.822M480.267 120.48c3.575 2.252 5.873 4.372 6.895 6.36 1.021 1.988 1.35 5.306.986 9.955l7.646 2.822"/><path fill="#FFF" stroke="#1D877A" stroke-width="3" d="M520.92 124.997c.355-.363.885-4.587 1.13-10.772.236-5.97.276-13.897.14-22.649-.122-7.87-.382-15.968-.708-22.294-.158-3.076-.326-5.618-.492-7.424a38.38 38.38 0 0 0-.223-1.99c-.074-.006-.145-.017-.182-.02a67.357 67.357 0 0 0-3.037-.21c-2.562-.134-6.198-.258-10.694-.366-8.758-.21-20.384-.353-32.102-.394-12.28-.043-23.73.028-32.221.21-4.576.1-8.238.23-10.832.388-1.34.082-2.383.172-3.11.266-.354.047-.731.138-.499-.097.167-.168.1.029.043.295-.107.507-.22 1.231-.33 2.15-.224 1.83-.441 4.385-.64 7.485-.4 6.237-.699 14.297-.82 22.245-.13 8.614-.046 16.52.267 22.477.322 6.112.966 10.249 1.39 10.612 1.337 1.144 22.42 2.139 46.737 2.139 11.729 0 23.006-.219 31.506-.623 4.468-.213 8.097-.473 10.712-.773 1.334-.153 2.391-.315 3.145-.482.552-.122.893-.25.82-.173z"/><path stroke="#000" stroke-linecap="round" stroke-width="4" d="M463.36 102.168c4.82 3.097 8.514 4.646 11.086 4.646 2.572 0 6.267-1.549 11.085-4.646M461.521 85.119v4.5M487.03 85.119v4.5"/><path fill="#FFF" stroke="#1D877A" stroke-linecap="square" stroke-width="3" d="M405.195 21.787c-1.456.626-1.456 22.82 0 66.578 14.283 24.988 21.75 37.008 22.4 36.058.977-1.423 0-12.136 0-30.174 0-12.025.315-23.541.944-34.548-14.106-25.902-21.887-38.54-23.344-37.914z"/><path stroke="#1D877A" stroke-linecap="square" stroke-width="3" d="M416.51 38.664h90.527"/><path stroke="#000" stroke-linecap="round" stroke-width="5" d="M415.375 79.023c-5.509-2.048-9.49-4.724-11.943-8.03-2.454-3.304-5.988-7.847-10.6-13.627"/></g><g><path fill="#FFF" stroke="#1D877A" stroke-linecap="square" stroke-width="3" d="M678.877 59.531c.823-.879-24.198-38.01-28.176-39.385-3.978-1.374-86.045-1.374-87.531 0-.72.666 9.413 14.452 12.236 19.373 3.003 5.235 10.253 20.012 10.912 20.012 1.277 0 91.737.879 92.56 0z"/><path stroke="#000" stroke-linecap="round" stroke-width="5" d="M681.767 85.119c5.063-1.837 8.161-4.644 9.295-8.42 1.134-3.776 1.134-9.368 0-16.777M618.521 120.48c-3.575 2.252-5.873 4.372-6.894 6.36-1.022 1.988-1.351 5.306-.987 9.955l-7.646 2.822M638.267 120.48c3.575 2.252 5.873 4.372 6.895 6.36 1.021 1.988 1.35 5.306.986 9.955l7.646 2.822"/><path fill="#FFF" stroke="#1D877A" stroke-width="3" d="M678.92 124.997c.355-.363.885-4.587 1.13-10.772.236-5.97.276-13.897.14-22.649-.122-7.87-.382-15.968-.708-22.294-.158-3.076-.326-5.618-.492-7.424a38.38 38.38 0 0 0-.223-1.99c-.074-.006-.145-.017-.182-.02a67.357 67.357 0 0 0-3.037-.21c-2.562-.134-6.198-.258-10.694-.366-8.758-.21-20.384-.353-32.102-.394-12.28-.043-23.73.028-32.221.21-4.576.1-8.238.23-10.832.388-1.34.082-2.383.172-3.11.266-.354.047-.731.138-.499-.097.167-.168.1.029.043.295-.107.507-.22 1.231-.33 2.15-.224 1.83-.441 4.385-.64 7.485-.4 6.237-.699 14.297-.82 22.245-.13 8.614-.046 16.52.267 22.477.322 6.112.966 10.249 1.39 10.612 1.337 1.144 22.42 2.139 46.737 2.139 11.729 0 23.006-.219 31.506-.623 4.468-.213 8.097-.473 10.712-.773 1.334-.153 2.391-.315 3.145-.482.552-.122.893-.25.82-.173z"/><path stroke="#000" stroke-linecap="round" stroke-width="4" d="M621.36 102.168c4.82 3.097 8.514 4.646 11.086 4.646 2.572 0 6.267-1.549 11.085-4.646M619.521 85.119v4.5M645.03 85.119v4.5"/><path fill="#FFF" stroke="#1D877A" stroke-linecap="square" stroke-width="3" d="M563.195 21.787c-1.456.626-1.456 22.82 0 66.578 14.283 24.988 21.75 37.008 22.4 36.058.977-1.423 0-12.136 0-30.174 0-12.025.315-23.541.944-34.548-14.106-25.902-21.887-38.54-23.344-37.914z"/><path stroke="#1D877A" stroke-linecap="square" stroke-width="3" d="M574.51 38.664h90.527"/><path stroke="#000" stroke-linecap="round" stroke-width="5" d="M573.375 79.023c-5.509-2.048-9.49-4.724-11.943-8.03-2.454-3.304-5.988-7.847-10.6-13.627"/></g><g><path fill="#FFF" stroke="#1D877A" stroke-linecap="square" stroke-width="3" d="M212.065 255.031c.823-.879-24.198-38.01-28.176-39.385-3.979-1.374-86.046-1.374-87.532 0-.72.666 9.414 14.452 12.237 19.373 3.003 5.235 10.253 20.012 10.911 20.012 1.278 0 91.737.879 92.56 0z"/><path stroke="#000" stroke-linecap="round" stroke-width="5" d="M214.955 280.619c5.062-1.837 8.16-4.644 9.295-8.42 1.134-3.776 1.134-9.368 0-16.777M151.709 315.98c-3.575 2.252-5.873 4.372-6.895 6.36-1.022 1.988-1.35 5.306-.987 9.955l-7.646 2.822M171.455 315.98c3.574 2.252 5.872 4.372 6.894 6.36 1.022 1.988 1.35 5.306.987 9.955l7.646 2.822"/><path fill="#FFF" stroke="#1D877A" stroke-width="3" d="M212.107 320.497c.356-.363.886-4.587 1.13-10.772.236-5.97.276-13.897.14-22.649-.122-7.87-.382-15.968-.707-22.294-.159-3.076-.327-5.618-.492-7.424a38.38 38.38 0 0 0-.224-1.99c-.073-.006-.145-.017-.182-.02a67.357 67.357 0 0 0-3.037-.21c-2.561-.134-6.198-.258-10.693-.366-8.758-.21-20.384-.353-32.103-.394-12.28-.043-23.73.028-32.22.21-4.577.1-8.239.23-10.833.388-1.339.082-2.383.172-3.11.266-.353.047-.73.138-.498-.097.166-.168.099.029.042.295-.107.507-.219 1.231-.33 2.15-.223 1.83-.441 4.385-.64 7.485-.4 6.237-.698 14.297-.819 22.245-.13 8.614-.046 16.52.267 22.477.321 6.112.965 10.249 1.39 10.612 1.337 1.144 22.419 2.139 46.736 2.139 11.73 0 23.006-.219 31.506-.623 4.468-.213 8.098-.473 10.712-.773 1.335-.153 2.392-.315 3.146-.482.551-.122.893-.25.819-.173z"/><path stroke="#000" stroke-linecap="round" stroke-width="4" d="M154.548 297.668c4.819 3.097 8.514 4.646 11.085 4.646 2.572 0 6.267-1.549 11.085-4.646M152.709 280.619v4.5M178.218 280.619v4.5"/><path fill="#FFF" stroke="#1D877A" stroke-linecap="square" stroke-width="3" d="M96.383 217.287c-1.457.626-1.457 22.82 0 66.578 14.283 24.988 21.75 37.008 22.4 36.058.976-1.423 0-12.136 0-30.174 0-12.025.315-23.541.944-34.548-14.107-25.902-21.888-38.54-23.344-37.914z"/><path stroke="#1D877A" stroke-linecap="square" stroke-width="3" d="M107.697 234.164h90.528"/><path stroke="#000" stroke-linecap="round" stroke-width="5" d="M106.562 274.523c-5.508-2.048-9.49-4.724-11.943-8.03-2.454-3.304-5.987-7.847-10.6-13.627"/></g><g><path fill="#FFF" stroke="#1D877A" stroke-linecap="square" stroke-width="3" d="M370.8 255.031c.822-.879-24.199-38.01-28.177-39.385-3.978-1.374-86.045-1.374-87.531 0-.72.666 9.413 14.452 12.236 19.373 3.003 5.235 10.253 20.012 10.912 20.012 1.277 0 91.737.879 92.56 0z"/><path stroke="#000" stroke-linecap="round" stroke-width="5" d="M373.69 280.619c5.062-1.837 8.16-4.644 9.294-8.42 1.134-3.776 1.134-9.368 0-16.777M310.443 315.98c-3.575 2.252-5.873 4.372-6.895 6.36-1.021 1.988-1.35 5.306-.986 9.955l-7.646 2.822M330.189 315.98c3.575 2.252 5.873 4.372 6.895 6.36 1.021 1.988 1.35 5.306.986 9.955l7.646 2.822"/><path fill="#FFF" stroke="#1D877A" stroke-width="3" d="M370.841 320.497c.356-.363.886-4.587 1.13-10.772.236-5.97.277-13.897.14-22.649-.121-7.87-.382-15.968-.707-22.294-.158-3.076-.327-5.618-.492-7.424a38.38 38.38 0 0 0-.223-1.99c-.074-.006-.145-.017-.183-.02a67.357 67.357 0 0 0-3.037-.21c-2.56-.134-6.197-.258-10.693-.366-8.758-.21-20.384-.353-32.102-.394-12.28-.043-23.73.028-32.221.21-4.576.1-8.238.23-10.832.388-1.34.082-2.384.172-3.11.266-.354.047-.731.138-.499-.097.167-.168.1.029.043.295-.107.507-.22 1.231-.331 2.15-.223 1.83-.44 4.385-.64 7.485-.399 6.237-.698 14.297-.818 22.245-.131 8.614-.047 16.52.266 22.477.322 6.112.966 10.249 1.39 10.612 1.337 1.144 22.42 2.139 46.737 2.139 11.729 0 23.006-.219 31.506-.623 4.468-.213 8.097-.473 10.712-.773 1.334-.153 2.391-.315 3.145-.482.552-.122.893-.25.82-.173z"/><path stroke="#000" stroke-linecap="round" stroke-width="4" d="M313.283 297.668c4.818 3.097 8.513 4.646 11.085 4.646 2.571 0 6.266-1.549 11.085-4.646M311.443 280.619v4.5M336.953 280.619v4.5"/><path fill="#FFF" stroke="#1D877A" stroke-linecap="square" stroke-width="3" d="M255.117 217.287c-1.456.626-1.456 22.82 0 66.578 14.283 24.988 21.75 37.008 22.4 36.058.977-1.423 0-12.136 0-30.174 0-12.025.315-23.541.944-34.548-14.106-25.902-21.887-38.54-23.344-37.914z"/><path stroke="#1D877A" stroke-linecap="square" stroke-width="3" d="M266.432 234.164h90.527"/><path stroke="#000" stroke-linecap="round" stroke-width="5" d="M265.297 274.523c-5.509-2.048-9.49-4.724-11.944-8.03-2.453-3.304-5.987-7.847-10.6-13.627"/></g><g><path fill="#FFF" stroke="#1D877A" stroke-linecap="square" stroke-width="3" d="M529.69 255.031c.823-.879-24.198-38.01-28.176-39.385-3.979-1.374-86.046-1.374-87.532 0-.72.666 9.414 14.452 12.237 19.373 3.003 5.235 10.253 20.012 10.911 20.012 1.278 0 91.737.879 92.56 0z"/><path stroke="#000" stroke-linecap="round" stroke-width="5" d="M532.58 280.619c5.062-1.837 8.16-4.644 9.295-8.42 1.134-3.776 1.134-9.368 0-16.777M469.334 315.98c-3.575 2.252-5.873 4.372-6.895 6.36-1.022 1.988-1.35 5.306-.987 9.955l-7.646 2.822M489.08 315.98c3.574 2.252 5.872 4.372 6.894 6.36 1.022 1.988 1.35 5.306.987 9.955l7.646 2.822"/><path fill="#FFF" stroke="#1D877A" stroke-width="3" d="M529.732 320.497c.356-.363.886-4.587 1.13-10.772.236-5.97.276-13.897.14-22.649-.122-7.87-.382-15.968-.707-22.294-.159-3.076-.327-5.618-.492-7.424a38.38 38.38 0 0 0-.224-1.99c-.073-.006-.145-.017-.182-.02a67.357 67.357 0 0 0-3.037-.21c-2.561-.134-6.198-.258-10.693-.366-8.758-.21-20.384-.353-32.103-.394-12.28-.043-23.73.028-32.22.21-4.577.1-8.239.23-10.833.388-1.339.082-2.383.172-3.11.266-.353.047-.73.138-.498-.097.166-.168.099.029.042.295-.107.507-.219 1.231-.33 2.15-.223 1.83-.441 4.385-.64 7.485-.4 6.237-.698 14.297-.819 22.245-.13 8.614-.046 16.52.267 22.477.321 6.112.965 10.249 1.39 10.612 1.337 1.144 22.419 2.139 46.736 2.139 11.73 0 23.006-.219 31.506-.623 4.468-.213 8.098-.473 10.712-.773 1.335-.153 2.392-.315 3.146-.482.551-.122.893-.25.819-.173z"/><path stroke="#000" stroke-linecap="round" stroke-width="4" d="M472.173 297.668c4.819 3.097 8.514 4.646 11.085 4.646 2.572 0 6.267-1.549 11.085-4.646M470.334 280.619v4.5M495.843 280.619v4.5"/><path fill="#FFF" stroke="#1D877A" stroke-linecap="square" stroke-width="3" d="M414.008 217.287c-1.457.626-1.457 22.82 0 66.578 14.283 24.988 21.75 37.008 22.4 36.058.976-1.423 0-12.136 0-30.174 0-12.025.315-23.541.944-34.548-14.107-25.902-21.888-38.54-23.344-37.914z"/><path stroke="#1D877A" stroke-linecap="square" stroke-width="3" d="M425.322 234.164h90.528"/><path stroke="#000" stroke-linecap="round" stroke-width="5" d="M424.187 274.523c-5.508-2.048-9.49-4.724-11.943-8.03-2.454-3.304-5.987-7.847-10.6-13.627"/></g><g><path fill="#FFF" stroke="#1D877A" stroke-linecap="square" stroke-width="3" d="M687.69 255.031c.823-.879-24.198-38.01-28.176-39.385-3.979-1.374-86.046-1.374-87.532 0-.72.666 9.414 14.452 12.237 19.373 3.003 5.235 10.253 20.012 10.911 20.012 1.278 0 91.737.879 92.56 0z"/><path stroke="#000" stroke-linecap="round" stroke-width="5" d="M690.58 280.619c5.062-1.837 8.16-4.644 9.295-8.42 1.134-3.776 1.134-9.368 0-16.777M627.334 315.98c-3.575 2.252-5.873 4.372-6.895 6.36-1.022 1.988-1.35 5.306-.987 9.955l-7.646 2.822M647.08 315.98c3.574 2.252 5.872 4.372 6.894 6.36 1.022 1.988 1.35 5.306.987 9.955l7.646 2.822"/><path fill="#FFF" stroke="#1D877A" stroke-width="3" d="M687.732 320.497c.356-.363.886-4.587 1.13-10.772.236-5.97.276-13.897.14-22.649-.122-7.87-.382-15.968-.707-22.294-.159-3.076-.327-5.618-.492-7.424a38.38 38.38 0 0 0-.224-1.99c-.073-.006-.145-.017-.182-.02a67.357 67.357 0 0 0-3.037-.21c-2.561-.134-6.198-.258-10.693-.366-8.758-.21-20.384-.353-32.103-.394-12.28-.043-23.73.028-32.22.21-4.577.1-8.239.23-10.833.388-1.339.082-2.383.172-3.11.266-.353.047-.73.138-.498-.097.166-.168.099.029.042.295-.107.507-.219 1.231-.33 2.15-.223 1.83-.441 4.385-.64 7.485-.4 6.237-.698 14.297-.819 22.245-.13 8.614-.046 16.52.267 22.477.321 6.112.965 10.249 1.39 10.612 1.337 1.144 22.419 2.139 46.736 2.139 11.73 0 23.006-.219 31.506-.623 4.468-.213 8.098-.473 10.712-.773 1.335-.153 2.392-.315 3.146-.482.551-.122.893-.25.819-.173z"/><path stroke="#000" stroke-linecap="round" stroke-width="4" d="M630.173 297.668c4.819 3.097 8.514 4.646 11.085 4.646 2.572 0 6.267-1.549 11.085-4.646M628.334 280.619v4.5M653.843 280.619v4.5"/><path fill="#FFF" stroke="#1D877A" stroke-linecap="square" stroke-width="3" d="M572.008 217.287c-1.457.626-1.457 22.82 0 66.578 14.283 24.988 21.75 37.008 22.4 36.058.976-1.423 0-12.136 0-30.174 0-12.025.315-23.541.944-34.548-14.107-25.902-21.888-38.54-23.344-37.914z"/><path stroke="#1D877A" stroke-linecap="square" stroke-width="3" d="M583.322 234.164h90.528"/><path stroke="#000" stroke-linecap="round" stroke-width="5" d="M582.187 274.523c-5.508-2.048-9.49-4.724-11.943-8.03-2.454-3.304-5.987-7.847-10.6-13.627"/></g><g><path fill="#FFF" stroke="#1D877A" stroke-linecap="square" stroke-width="3" d="M222.877 450.031c.823-.879-24.198-38.01-28.176-39.385-3.978-1.374-86.045-1.374-87.531 0-.72.666 9.413 14.452 12.236 19.373 3.003 5.235 10.253 20.012 10.912 20.012 1.277 0 91.737.879 92.56 0z"/><path stroke="#000" stroke-linecap="round" stroke-width="5" d="M225.767 475.619c5.063-1.837 8.161-4.644 9.295-8.42 1.134-3.776 1.134-9.368 0-16.777M162.521 510.98c-3.575 2.252-5.873 4.372-6.894 6.36-1.022 1.988-1.351 5.306-.987 9.955l-7.646 2.822M182.267 510.98c3.575 2.252 5.873 4.372 6.895 6.36 1.021 1.988 1.35 5.306.986 9.955l7.646 2.822"/><path fill="#FFF" stroke="#1D877A" stroke-width="3" d="M222.92 515.497c.355-.363.885-4.587 1.13-10.772.236-5.97.276-13.897.14-22.649-.122-7.87-.382-15.968-.708-22.294-.158-3.076-.326-5.618-.492-7.424a38.38 38.38 0 0 0-.223-1.99c-.074-.006-.145-.017-.182-.02a67.357 67.357 0 0 0-3.037-.21c-2.562-.134-6.198-.258-10.694-.366-8.758-.21-20.384-.353-32.102-.394-12.28-.043-23.73.028-32.221.21-4.576.1-8.238.23-10.832.388-1.34.082-2.383.172-3.11.266-.354.047-.731.138-.499-.097.167-.168.1.029.043.295-.107.507-.22 1.231-.33 2.15-.224 1.83-.441 4.385-.64 7.485-.4 6.237-.699 14.297-.82 22.245-.13 8.614-.046 16.52.267 22.477.322 6.112.966 10.249 1.39 10.612 1.337 1.144 22.42 2.139 46.737 2.139 11.729 0 23.006-.219 31.506-.623 4.468-.213 8.097-.473 10.712-.773 1.334-.153 2.391-.315 3.145-.482.552-.122.893-.25.82-.173z"/><path stroke="#000" stroke-linecap="round" stroke-width="4" d="M165.36 492.668c4.82 3.097 8.514 4.646 11.086 4.646 2.572 0 6.267-1.549 11.085-4.646M163.521 475.619v4.5M189.03 475.619v4.5"/><path fill="#FFF" stroke="#1D877A" stroke-linecap="square" stroke-width="3" d="M107.195 412.287c-1.456.626-1.456 22.82 0 66.578 14.283 24.988 21.75 37.008 22.4 36.058.977-1.423 0-12.136 0-30.174 0-12.025.315-23.541.944-34.548-14.106-25.902-21.887-38.54-23.344-37.914z"/><path stroke="#1D877A" stroke-linecap="square" stroke-width="3" d="M118.51 429.164h90.527"/><path stroke="#000" stroke-linecap="round" stroke-width="5" d="M117.375 469.523c-5.509-2.048-9.49-4.724-11.943-8.03-2.454-3.304-5.988-7.847-10.6-13.627"/></g><g><path fill="#FFF" stroke="#1D877A" stroke-linecap="square" stroke-width="3" d="M378.877 450.031c.823-.879-24.198-38.01-28.176-39.385-3.978-1.374-86.045-1.374-87.531 0-.72.666 9.413 14.452 12.236 19.373 3.003 5.235 10.253 20.012 10.912 20.012 1.277 0 91.737.879 92.56 0z"/><path stroke="#000" stroke-linecap="round" stroke-width="5" d="M381.767 475.619c5.063-1.837 8.161-4.644 9.295-8.42 1.134-3.776 1.134-9.368 0-16.777M318.521 510.98c-3.575 2.252-5.873 4.372-6.894 6.36-1.022 1.988-1.351 5.306-.987 9.955l-7.646 2.822M338.267 510.98c3.575 2.252 5.873 4.372 6.895 6.36 1.021 1.988 1.35 5.306.986 9.955l7.646 2.822"/><path fill="#FFF" stroke="#1D877A" stroke-width="3" d="M378.92 515.497c.355-.363.885-4.587 1.13-10.772.236-5.97.276-13.897.14-22.649-.122-7.87-.382-15.968-.708-22.294-.158-3.076-.326-5.618-.492-7.424a38.38 38.38 0 0 0-.223-1.99c-.074-.006-.145-.017-.182-.02a67.357 67.357 0 0 0-3.037-.21c-2.562-.134-6.198-.258-10.694-.366-8.758-.21-20.384-.353-32.102-.394-12.28-.043-23.73.028-32.221.21-4.576.1-8.238.23-10.832.388-1.34.082-2.383.172-3.11.266-.354.047-.731.138-.499-.097.167-.168.1.029.043.295-.107.507-.22 1.231-.33 2.15-.224 1.83-.441 4.385-.64 7.485-.4 6.237-.699 14.297-.82 22.245-.13 8.614-.046 16.52.267 22.477.322 6.112.966 10.249 1.39 10.612 1.337 1.144 22.42 2.139 46.737 2.139 11.729 0 23.006-.219 31.506-.623 4.468-.213 8.097-.473 10.712-.773 1.334-.153 2.391-.315 3.145-.482.552-.122.893-.25.82-.173z"/><path stroke="#000" stroke-linecap="round" stroke-width="4" d="M321.36 492.668c4.82 3.097 8.514 4.646 11.086 4.646 2.572 0 6.267-1.549 11.085-4.646M319.521 475.619v4.5M345.03 475.619v4.5"/><path fill="#FFF" stroke="#1D877A" stroke-linecap="square" stroke-width="3" d="M263.195 412.287c-1.456.626-1.456 22.82 0 66.578 14.283 24.988 21.75 37.008 22.4 36.058.977-1.423 0-12.136 0-30.174 0-12.025.315-23.541.944-34.548-14.106-25.902-21.887-38.54-23.344-37.914z"/><path stroke="#1D877A" stroke-linecap="square" stroke-width="3" d="M274.51 429.164h90.527"/><path stroke="#000" stroke-linecap="round" stroke-width="5" d="M273.375 469.523c-5.509-2.048-9.49-4.724-11.943-8.03-2.454-3.304-5.988-7.847-10.6-13.627"/></g><path stroke="#AF1C1C" stroke-dasharray="18" stroke-linecap="square" stroke-width="6" d="M720.777 138.855H65.289V3h656.5"/><g stroke="#AF1C1C" stroke-dasharray="18" stroke-linecap="square" stroke-width="6"><path d="M63.898 200h656.5M63.898 335h656.5"/></g><path stroke="#AF1C1C" stroke-dasharray="18" stroke-linecap="square" stroke-width="6" d="M66.301 531H721.79V395.145H65.29"/><g><path stroke="#000" stroke-linecap="square" stroke-width="6" d="M725.313 72h21c34.914 0 34.914 12.25 34.914 43.922 0 31.672 0 55.07-34.914 55.07-24.079 0-630.153-5.044-710.602 0-32.36.117-32.36 16.64-32.36 47.836 0 31.195 0 51.39 32.36 51.39H56.43"/><path fill="#000" d="M35.673 236.71l31.07 31.072-31.07 31.07z"/></g><g><path stroke="#000" stroke-linecap="square" stroke-width="6" d="M726.563 267.5h21c34.914 0 34.914 12.25 34.914 43.922 0 31.672 0 55.07-34.914 55.07-24.079 0-630.153-5.044-710.602 0-32.36.117-32.36 16.64-32.36 47.836 0 31.195 0 51.39 32.36 51.39H57.68"/><path fill="#000" d="M36.923 432.21l31.07 31.072-31.07 31.07z"/></g></g></svg>
