<svg xmlns="http://www.w3.org/2000/svg" viewBox="0 0 786 525"><g fill="none" fill-rule="evenodd"><path fill="#FFF" stroke="#1D877A" stroke-linecap="square" stroke-width="3" d="M212.19 245.031c.823-.879-24.198-38.01-28.176-39.385-3.979-1.374-86.046-1.374-87.532 0-.72.666 9.414 14.452 12.237 19.373 3.003 5.235 10.253 20.012 10.911 20.012 1.278 0 91.737.879 92.56 0z"/><path stroke="#000" stroke-linecap="round" stroke-width="5" d="M215.08 270.619c5.062-1.837 8.16-4.644 9.295-8.42 1.134-3.776 1.134-9.368 0-16.777M151.834 305.98c-3.575 2.252-5.873 4.372-6.895 6.36-1.022 1.988-1.35 5.306-.987 9.955l-7.646 2.822M171.58 305.98c3.574 2.252 5.872 4.372 6.894 6.36 1.022 1.988 1.35 5.306.987 9.955l7.646 2.822"/><path fill="#FFF" stroke="#1D877A" stroke-width="3" d="M212.232 310.497c.356-.363.886-4.587 1.13-10.772.236-5.97.276-13.897.14-22.649-.122-7.87-.382-15.968-.707-22.294-.159-3.076-.327-5.618-.492-7.424a38.38 38.38 0 0 0-.224-1.99c-.073-.006-.145-.017-.182-.02a67.357 67.357 0 0 0-3.037-.21c-2.561-.134-6.198-.258-10.693-.366-8.758-.21-20.384-.353-32.103-.394-12.28-.043-23.73.028-32.22.21-4.577.1-8.239.23-10.833.388-1.339.082-2.383.172-3.11.266-.353.047-.73.138-.498-.097.166-.168.099.029.042.295-.107.507-.219 1.231-.33 2.15-.223 1.83-.441 4.385-.64 7.485-.4 6.237-.698 14.297-.819 22.245-.13 8.614-.046 16.52.267 22.477.321 6.112.965 10.249 1.39 10.612 1.337 1.144 22.419 2.139 46.736 2.139 11.73 0 23.006-.219 31.506-.623 4.469-.213 8.098-.473 10.712-.773 1.335-.153 2.392-.315 3.146-.482.551-.122.893-.25.819-.173z"/><path stroke="#000" stroke-linecap="round" stroke-width="4" d="M154.673 287.668c4.819 3.097 8.514 4.646 11.085 4.646 2.572 0 6.267-1.549 11.085-4.646M152.834 270.619v4.5M178.343 270.619v4.5"/><path fill="#FFF" stroke="#1D877A" stroke-linecap="square" stroke-width="3" d="M96.508 207.287c-1.457.626-1.457 22.82 0 66.578 14.283 24.988 21.75 37.008 22.4 36.058.976-1.423 0-12.136 0-30.174 0-12.025.315-23.541.944-34.548-14.107-25.902-21.888-38.54-23.344-37.914z"/><path stroke="#1D877A" stroke-linecap="square" stroke-width="3" d="M107.822 224.164h90.528"/><path stroke="#000" stroke-linecap="round" stroke-width="5" d="M106.687 264.523c-5.508-2.048-9.49-4.724-11.943-8.03-2.454-3.304-5.987-7.847-10.6-13.627"/><path fill="#FFF" stroke="#1D877A" stroke-linecap="square" stroke-width="3" d="M370.924 245.031c.823-.879-24.198-38.01-28.176-39.385-3.978-1.374-86.045-1.374-87.531 0-.72.666 9.413 14.452 12.236 19.373 3.003 5.235 10.253 20.012 10.912 20.012 1.277 0 91.737.879 92.56 0z"/><path stroke="#000" stroke-linecap="round" stroke-width="5" d="M373.814 270.619c5.063-1.837 8.16-4.644 9.295-8.42 1.134-3.776 1.134-9.368 0-16.777M310.568 305.98c-3.575 2.252-5.873 4.372-6.895 6.36-1.021 1.988-1.35 5.306-.986 9.955l-7.646 2.822M330.314 305.98c3.575 2.252 5.873 4.372 6.895 6.36 1.021 1.988 1.35 5.306.986 9.955l7.646 2.822"/><path fill="#FFF" stroke="#1D877A" stroke-width="3" d="M370.966 310.497c.356-.363.886-4.587 1.13-10.772.236-5.97.277-13.897.14-22.649-.121-7.87-.382-15.968-.707-22.294-.158-3.076-.327-5.618-.492-7.424a38.38 38.38 0 0 0-.223-1.99c-.074-.006-.145-.017-.183-.02a67.357 67.357 0 0 0-3.037-.21c-2.56-.134-6.197-.258-10.693-.366-8.758-.21-20.384-.353-32.102-.394-12.28-.043-23.73.028-32.221.21-4.576.1-8.238.23-10.832.388-1.34.082-2.384.172-3.11.266-.354.047-.731.138-.499-.097.167-.168.1.029.043.295-.107.507-.22 1.231-.331 2.15-.223 1.83-.44 4.385-.64 7.485-.399 6.237-.698 14.297-.818 22.245-.131 8.614-.047 16.52.266 22.477.322 6.112.966 10.249 1.39 10.612 1.337 1.144 22.42 2.139 46.737 2.139 11.729 0 23.006-.219 31.506-.623 4.468-.213 8.097-.473 10.712-.773 1.334-.153 2.391-.315 3.145-.482.552-.122.893-.25.82-.173z"/><path stroke="#000" stroke-linecap="round" stroke-width="4" d="M313.408 287.668c4.818 3.097 8.513 4.646 11.085 4.646 2.571 0 6.266-1.549 11.085-4.646M311.568 270.619v4.5M337.078 270.619v4.5"/><path fill="#FFF" stroke="#1D877A" stroke-linecap="square" stroke-width="3" d="M255.242 207.287c-1.456.626-1.456 22.82 0 66.578 14.283 24.988 21.75 37.008 22.4 36.058.977-1.423 0-12.136 0-30.174 0-12.025.315-23.541.944-34.548-14.106-25.902-21.887-38.54-23.344-37.914z"/><path stroke="#1D877A" stroke-linecap="square" stroke-width="3" d="M266.557 224.164h90.527"/><path stroke="#000" stroke-linecap="round" stroke-width="5" d="M265.422 264.523c-5.509-2.048-9.49-4.724-11.944-8.03-2.453-3.304-5.987-7.847-10.6-13.627"/><g><path fill="#FFF" stroke="#1D877A" stroke-linecap="square" stroke-width="3" d="M529.815 245.031c.823-.879-24.198-38.01-28.176-39.385-3.979-1.374-86.046-1.374-87.532 0-.72.666 9.414 14.452 12.237 19.373 3.003 5.235 10.253 20.012 10.911 20.012 1.278 0 91.737.879 92.56 0z"/><path stroke="#000" stroke-linecap="round" stroke-width="5" d="M532.705 270.619c5.062-1.837 8.16-4.644 9.295-8.42 1.134-3.776 1.134-9.368 0-16.777M469.459 305.98c-3.575 2.252-5.873 4.372-6.895 6.36-1.022 1.988-1.35 5.306-.987 9.955l-7.646 2.822M489.205 305.98c3.574 2.252 5.872 4.372 6.894 6.36 1.022 1.988 1.35 5.306.987 9.955l7.646 2.822"/><path fill="#FFF" stroke="#1D877A" stroke-width="3" d="M529.857 310.497c.356-.363.886-4.587 1.13-10.772.236-5.97.276-13.897.14-22.649-.122-7.87-.382-15.968-.707-22.294-.159-3.076-.327-5.618-.492-7.424a38.38 38.38 0 0 0-.224-1.99c-.073-.006-.145-.017-.182-.02a67.357 67.357 0 0 0-3.037-.21c-2.561-.134-6.198-.258-10.693-.366-8.758-.21-20.384-.353-32.103-.394-12.28-.043-23.73.028-32.22.21-4.577.1-8.239.23-10.833.388-1.339.082-2.383.172-3.11.266-.353.047-.73.138-.498-.097.166-.168.099.029.042.295-.107.507-.219 1.231-.33 2.15-.223 1.83-.441 4.385-.64 7.485-.4 6.237-.698 14.297-.819 22.245-.13 8.614-.046 16.52.267 22.477.321 6.112.965 10.249 1.39 10.612 1.337 1.144 22.419 2.139 46.736 2.139 11.73 0 23.006-.219 31.506-.623 4.469-.213 8.098-.473 10.712-.773 1.335-.153 2.392-.315 3.146-.482.551-.122.893-.25.819-.173z"/><path stroke="#000" stroke-linecap="round" stroke-width="4" d="M472.298 287.668c4.819 3.097 8.514 4.646 11.085 4.646 2.572 0 6.267-1.549 11.085-4.646M470.459 270.619v4.5M495.968 270.619v4.5"/><path fill="#FFF" stroke="#1D877A" stroke-linecap="square" stroke-width="3" d="M414.133 207.287c-1.457.626-1.457 22.82 0 66.578 14.283 24.988 21.75 37.008 22.4 36.058.976-1.423 0-12.136 0-30.174 0-12.025.315-23.541.944-34.548-14.107-25.902-21.888-38.54-23.344-37.914z"/><path stroke="#1D877A" stroke-linecap="square" stroke-width="3" d="M425.447 224.164h90.528"/><path stroke="#000" stroke-linecap="round" stroke-width="5" d="M424.312 264.523c-5.508-2.048-9.49-4.724-11.943-8.03-2.454-3.304-5.987-7.847-10.6-13.627"/></g><g><path fill="#FFF" stroke="#1D877A" stroke-linecap="square" stroke-width="3" d="M687.815 245.031c.823-.879-24.198-38.01-28.176-39.385-3.979-1.374-86.046-1.374-87.532 0-.72.666 9.414 14.452 12.237 19.373 3.003 5.235 10.253 20.012 10.911 20.012 1.278 0 91.737.879 92.56 0z"/><path stroke="#000" stroke-linecap="round" stroke-width="5" d="M690.705 270.619c5.062-1.837 8.16-4.644 9.295-8.42 1.134-3.776 1.134-9.368 0-16.777M627.459 305.98c-3.575 2.252-5.873 4.372-6.895 6.36-1.022 1.988-1.35 5.306-.987 9.955l-7.646 2.822M647.205 305.98c3.574 2.252 5.872 4.372 6.894 6.36 1.022 1.988 1.35 5.306.987 9.955l7.646 2.822"/><path fill="#FFF" stroke="#1D877A" stroke-width="3" d="M687.857 310.497c.356-.363.886-4.587 1.13-10.772.236-5.97.276-13.897.14-22.649-.122-7.87-.382-15.968-.707-22.294-.159-3.076-.327-5.618-.492-7.424a38.38 38.38 0 0 0-.224-1.99c-.073-.006-.145-.017-.182-.02a67.357 67.357 0 0 0-3.037-.21c-2.561-.134-6.198-.258-10.693-.366-8.758-.21-20.384-.353-32.103-.394-12.28-.043-23.73.028-32.22.21-4.577.1-8.239.23-10.833.388-1.339.082-2.383.172-3.11.266-.353.047-.73.138-.498-.097.166-.168.099.029.042.295-.107.507-.219 1.231-.33 2.15-.223 1.83-.441 4.385-.64 7.485-.4 6.237-.698 14.297-.819 22.245-.13 8.614-.046 16.52.267 22.477.321 6.112.965 10.249 1.39 10.612 1.337 1.144 22.419 2.139 46.736 2.139 11.73 0 23.006-.219 31.506-.623 4.469-.213 8.098-.473 10.712-.773 1.335-.153 2.392-.315 3.146-.482.551-.122.893-.25.819-.173z"/><path stroke="#000" stroke-linecap="round" stroke-width="4" d="M630.298 287.668c4.819 3.097 8.514 4.646 11.085 4.646 2.572 0 6.267-1.549 11.085-4.646M628.459 270.619v4.5M653.968 270.619v4.5"/><path fill="#FFF" stroke="#1D877A" stroke-linecap="square" stroke-width="3" d="M572.133 207.287c-1.457.626-1.457 22.82 0 66.578 14.283 24.988 21.75 37.008 22.4 36.058.976-1.423 0-12.136 0-30.174 0-12.025.315-23.541.944-34.548-14.107-25.902-21.888-38.54-23.344-37.914z"/><path stroke="#1D877A" stroke-linecap="square" stroke-width="3" d="M583.447 224.164h90.528"/><path stroke="#000" stroke-linecap="round" stroke-width="5" d="M582.312 264.523c-5.508-2.048-9.49-4.724-11.943-8.03-2.454-3.304-5.987-7.847-10.6-13.627"/></g><g><path fill="#FFF" stroke="#1D877A" stroke-linecap="square" stroke-width="3" d="M203.377 441.531c.823-.879-24.198-38.01-28.176-39.385-3.978-1.374-86.045-1.374-87.531 0-.72.666 9.413 14.452 12.236 19.373 3.003 5.235 10.253 20.012 10.912 20.012 1.277 0 91.737.879 92.56 0z"/><path stroke="#000" stroke-linecap="round" stroke-width="5" d="M206.267 467.119c5.063-1.837 8.161-4.644 9.295-8.42 1.134-3.776 1.134-9.368 0-16.777M143.021 502.48c-3.575 2.252-5.873 4.372-6.894 6.36-1.022 1.988-1.351 5.306-.987 9.955l-7.646 2.822M162.767 502.48c3.575 2.252 5.873 4.372 6.895 6.36 1.021 1.988 1.35 5.306.986 9.955l7.646 2.822"/><path fill="#FFF" stroke="#1D877A" stroke-width="3" d="M203.42 506.997c.355-.363.885-4.587 1.13-10.772.236-5.97.276-13.897.14-22.649-.122-7.87-.382-15.968-.708-22.294-.158-3.076-.326-5.618-.492-7.424a38.38 38.38 0 0 0-.223-1.99c-.074-.006-.145-.017-.182-.02a67.357 67.357 0 0 0-3.037-.21c-2.562-.134-6.198-.258-10.694-.366-8.758-.21-20.384-.353-32.102-.394-12.28-.043-23.73.028-32.221.21-4.576.1-8.238.23-10.832.388-1.34.082-2.383.172-3.11.266-.354.047-.731.138-.499-.097.167-.168.1.029.043.295-.107.507-.22 1.231-.33 2.15-.224 1.83-.441 4.385-.64 7.485-.4 6.237-.699 14.297-.82 22.245-.13 8.614-.046 16.52.267 22.477.322 6.112.966 10.249 1.39 10.612 1.337 1.144 22.42 2.139 46.737 2.139 11.729 0 23.006-.219 31.506-.623 4.468-.213 8.097-.473 10.712-.773 1.334-.153 2.391-.315 3.145-.482.552-.122.893-.25.82-.173z"/><path stroke="#000" stroke-linecap="round" stroke-width="4" d="M145.86 484.168c4.82 3.097 8.514 4.646 11.086 4.646 2.572 0 6.267-1.549 11.085-4.646M144.021 467.119v4.5M169.53 467.119v4.5"/><path fill="#FFF" stroke="#1D877A" stroke-linecap="square" stroke-width="3" d="M87.695 403.787c-1.456.626-1.456 22.82 0 66.578 14.283 24.988 21.75 37.008 22.4 36.058.977-1.423 0-12.136 0-30.174 0-12.025.315-23.541.944-34.548-14.106-25.902-21.887-38.54-23.344-37.914z"/><path stroke="#1D877A" stroke-linecap="square" stroke-width="3" d="M99.01 420.664h90.527"/><path stroke="#000" stroke-linecap="round" stroke-width="5" d="M97.875 461.023c-5.509-2.048-9.49-4.724-11.943-8.03-2.454-3.304-5.988-7.847-10.6-13.627"/></g><g><path fill="#FFF" stroke="#1D877A" stroke-linecap="square" stroke-width="3" d="M362.112 441.531c.822-.879-24.198-38.01-28.176-39.385-3.979-1.374-86.046-1.374-87.532 0-.72.666 9.414 14.452 12.237 19.373 3.003 5.235 10.253 20.012 10.911 20.012 1.278 0 91.737.879 92.56 0z"/><path stroke="#000" stroke-linecap="round" stroke-width="5" d="M365.002 467.119c5.062-1.837 8.16-4.644 9.295-8.42 1.134-3.776 1.134-9.368 0-16.777M301.755 502.48c-3.574 2.252-5.872 4.372-6.894 6.36-1.022 1.988-1.35 5.306-.987 9.955l-7.646 2.822M321.502 502.48c3.574 2.252 5.872 4.372 6.894 6.36 1.022 1.988 1.35 5.306.987 9.955l7.646 2.822"/><path fill="#FFF" stroke="#1D877A" stroke-width="3" d="M362.154 506.997c.356-.363.886-4.587 1.13-10.772.236-5.97.276-13.897.14-22.649-.122-7.87-.382-15.968-.708-22.294-.158-3.076-.326-5.618-.491-7.424a38.38 38.38 0 0 0-.224-1.99c-.074-.006-.145-.017-.182-.02a67.357 67.357 0 0 0-3.037-.21c-2.561-.134-6.198-.258-10.693-.366-8.759-.21-20.384-.353-32.103-.394-12.28-.043-23.73.028-32.22.21-4.577.1-8.239.23-10.833.388-1.339.082-2.383.172-3.11.266-.353.047-.731.138-.498-.097.166-.168.099.029.042.295-.107.507-.219 1.231-.33 2.15-.223 1.83-.441 4.385-.64 7.485-.4 6.237-.698 14.297-.819 22.245-.13 8.614-.046 16.52.267 22.477.321 6.112.965 10.249 1.39 10.612 1.337 1.144 22.419 2.139 46.736 2.139 11.73 0 23.006-.219 31.506-.623 4.468-.213 8.098-.473 10.712-.773 1.335-.153 2.392-.315 3.146-.482.551-.122.893-.25.819-.173z"/><path stroke="#000" stroke-linecap="round" stroke-width="4" d="M304.595 484.168c4.819 3.097 8.514 4.646 11.085 4.646 2.572 0 6.267-1.549 11.085-4.646M302.755 467.119v4.5M328.265 467.119v4.5"/><path fill="#FFF" stroke="#1D877A" stroke-linecap="square" stroke-width="3" d="M246.43 403.787c-1.457.626-1.457 22.82 0 66.578 14.283 24.988 21.75 37.008 22.4 36.058.976-1.423 0-12.136 0-30.174 0-12.025.315-23.541.943-34.548-14.106-25.902-21.887-38.54-23.343-37.914z"/><path stroke="#1D877A" stroke-linecap="square" stroke-width="3" d="M257.744 420.664h90.527"/><path stroke="#000" stroke-linecap="round" stroke-width="5" d="M256.61 461.023c-5.51-2.048-9.49-4.724-11.944-8.03-2.454-3.304-5.987-7.847-10.6-13.627"/></g><g><path fill="#FFF" stroke="#1D877A" stroke-linecap="square" stroke-width="3" d="M521.002 441.531c.823-.879-24.198-38.01-28.176-39.385-3.978-1.374-86.045-1.374-87.531 0-.72.666 9.413 14.452 12.236 19.373 3.003 5.235 10.253 20.012 10.912 20.012 1.277 0 91.737.879 92.56 0z"/><path stroke="#000" stroke-linecap="round" stroke-width="5" d="M523.892 467.119c5.063-1.837 8.161-4.644 9.295-8.42 1.134-3.776 1.134-9.368 0-16.777M460.646 502.48c-3.575 2.252-5.873 4.372-6.894 6.36-1.022 1.988-1.351 5.306-.987 9.955l-7.646 2.822M480.392 502.48c3.575 2.252 5.873 4.372 6.895 6.36 1.021 1.988 1.35 5.306.986 9.955l7.646 2.822"/><path fill="#FFF" stroke="#1D877A" stroke-width="3" d="M521.044 506.997c.356-.363.886-4.587 1.13-10.772.237-5.97.277-13.897.14-22.649-.121-7.87-.381-15.968-.707-22.294-.158-3.076-.326-5.618-.492-7.424a38.38 38.38 0 0 0-.223-1.99c-.074-.006-.145-.017-.182-.02a67.357 67.357 0 0 0-3.037-.21c-2.562-.134-6.198-.258-10.694-.366-8.758-.21-20.384-.353-32.102-.394-12.28-.043-23.73.028-32.221.21-4.576.1-8.238.23-10.832.388-1.34.082-2.383.172-3.11.266-.354.047-.731.138-.499-.097.167-.168.1.029.043.295-.107.507-.22 1.231-.33 2.15-.224 1.83-.441 4.385-.64 7.485-.4 6.237-.699 14.297-.82 22.245-.13 8.614-.046 16.52.267 22.477.322 6.112.966 10.249 1.39 10.612 1.337 1.144 22.42 2.139 46.737 2.139 11.729 0 23.006-.219 31.506-.623 4.468-.213 8.097-.473 10.712-.773 1.334-.153 2.391-.315 3.145-.482.552-.122.893-.25.82-.173z"/><path stroke="#000" stroke-linecap="round" stroke-width="4" d="M463.486 484.168c4.818 3.097 8.513 4.646 11.085 4.646 2.572 0 6.267-1.549 11.085-4.646M461.646 467.119v4.5M487.156 467.119v4.5"/><path fill="#FFF" stroke="#1D877A" stroke-linecap="square" stroke-width="3" d="M405.32 403.787c-1.456.626-1.456 22.82 0 66.578 14.283 24.988 21.75 37.008 22.4 36.058.977-1.423 0-12.136 0-30.174 0-12.025.315-23.541.944-34.548-14.106-25.902-21.887-38.54-23.344-37.914z"/><path stroke="#1D877A" stroke-linecap="square" stroke-width="3" d="M416.635 420.664h90.527"/><path stroke="#000" stroke-linecap="round" stroke-width="5" d="M415.5 461.023c-5.509-2.048-9.49-4.724-11.943-8.03-2.454-3.304-5.988-7.847-10.6-13.627"/></g><g><path fill="#FFF" stroke="#1D877A" stroke-linecap="square" stroke-width="3" d="M679.002 441.531c.823-.879-24.198-38.01-28.176-39.385-3.978-1.374-86.045-1.374-87.531 0-.72.666 9.413 14.452 12.236 19.373 3.003 5.235 10.253 20.012 10.912 20.012 1.277 0 91.737.879 92.56 0z"/><path stroke="#000" stroke-linecap="round" stroke-width="5" d="M681.892 467.119c5.063-1.837 8.161-4.644 9.295-8.42 1.134-3.776 1.134-9.368 0-16.777M618.646 502.48c-3.575 2.252-5.873 4.372-6.894 6.36-1.022 1.988-1.351 5.306-.987 9.955l-7.646 2.822M638.392 502.48c3.575 2.252 5.873 4.372 6.895 6.36 1.021 1.988 1.35 5.306.986 9.955l7.646 2.822"/><path fill="#FFF" stroke="#1D877A" stroke-width="3" d="M679.044 506.997c.356-.363.886-4.587 1.13-10.772.237-5.97.277-13.897.14-22.649-.121-7.87-.381-15.968-.707-22.294-.158-3.076-.326-5.618-.492-7.424a38.38 38.38 0 0 0-.223-1.99c-.074-.006-.145-.017-.182-.02a67.357 67.357 0 0 0-3.037-.21c-2.562-.134-6.198-.258-10.694-.366-8.758-.21-20.384-.353-32.102-.394-12.28-.043-23.73.028-32.221.21-4.576.1-8.238.23-10.832.388-1.34.082-2.383.172-3.11.266-.354.047-.731.138-.499-.097.167-.168.1.029.043.295-.107.507-.22 1.231-.33 2.15-.224 1.83-.441 4.385-.64 7.485-.4 6.237-.699 14.297-.82 22.245-.13 8.614-.046 16.52.267 22.477.322 6.112.966 10.249 1.39 10.612 1.337 1.144 22.42 2.139 46.737 2.139 11.729 0 23.006-.219 31.506-.623 4.468-.213 8.097-.473 10.712-.773 1.334-.153 2.391-.315 3.145-.482.552-.122.893-.25.82-.173z"/><path stroke="#000" stroke-linecap="round" stroke-width="4" d="M621.486 484.168c4.818 3.097 8.513 4.646 11.085 4.646 2.572 0 6.267-1.549 11.085-4.646M619.646 467.119v4.5M645.156 467.119v4.5"/><path fill="#FFF" stroke="#1D877A" stroke-linecap="square" stroke-width="3" d="M563.32 403.787c-1.456.626-1.456 22.82 0 66.578 14.283 24.988 21.75 37.008 22.4 36.058.977-1.423 0-12.136 0-30.174 0-12.025.315-23.541.944-34.548-14.106-25.902-21.887-38.54-23.344-37.914z"/><path stroke="#1D877A" stroke-linecap="square" stroke-width="3" d="M574.635 420.664h90.527"/><path stroke="#000" stroke-linecap="round" stroke-width="5" d="M573.5 461.023c-5.509-2.048-9.49-4.724-11.943-8.03-2.454-3.304-5.988-7.847-10.6-13.627"/></g><path stroke="#AF1C1C" stroke-dasharray="18" stroke-linecap="square" stroke-width="6" d="M720.902 520.855H65.414V385h656.5"/><g stroke="#AF1C1C" stroke-dasharray="18" stroke-linecap="square" stroke-width="6"><path d="M64.023 190h656.5M64.023 325h656.5"/></g><g><path fill="#FFF" stroke="#1D877A" stroke-linecap="square" stroke-width="3" d="M533.002 58.031c.823-.879-24.198-38.01-28.176-39.385-3.978-1.374-86.045-1.374-87.531 0-.72.666 9.413 14.452 12.236 19.373 3.003 5.235 10.253 20.012 10.912 20.012 1.277 0 91.737.879 92.56 0z"/><path stroke="#000" stroke-linecap="round" stroke-width="5" d="M535.892 83.619c5.063-1.837 8.161-4.644 9.295-8.42 1.134-3.776 1.134-9.368 0-16.777M472.646 118.98c-3.575 2.252-5.873 4.372-6.894 6.36-1.022 1.988-1.351 5.306-.987 9.955l-7.646 2.822M492.392 118.98c3.575 2.252 5.873 4.372 6.895 6.36 1.021 1.988 1.35 5.306.986 9.955l7.646 2.822"/><path fill="#FFF" stroke="#1D877A" stroke-width="3" d="M533.044 123.497c.356-.363.886-4.587 1.13-10.772.237-5.97.277-13.897.14-22.649-.121-7.87-.381-15.968-.707-22.294-.158-3.076-.326-5.618-.492-7.424a38.38 38.38 0 0 0-.223-1.99c-.074-.006-.145-.017-.182-.02a67.357 67.357 0 0 0-3.037-.21c-2.562-.134-6.198-.258-10.694-.366-8.758-.21-20.384-.353-32.102-.394-12.28-.043-23.73.028-32.221.21-4.576.1-8.238.23-10.832.388-1.34.082-2.383.172-3.11.266-.354.047-.731.138-.499-.097.167-.168.1.029.043.295-.107.507-.22 1.231-.33 2.15-.224 1.83-.441 4.385-.64 7.485-.4 6.237-.699 14.297-.82 22.245-.13 8.614-.046 16.52.267 22.477.322 6.112.966 10.249 1.39 10.612 1.337 1.144 22.42 2.139 46.737 2.139 11.729 0 23.006-.219 31.506-.623 4.468-.213 8.097-.473 10.712-.773 1.334-.153 2.391-.315 3.145-.482.552-.122.893-.25.82-.173z"/><path stroke="#000" stroke-linecap="round" stroke-width="4" d="M475.486 100.668c4.818 3.097 8.513 4.646 11.085 4.646 2.572 0 6.267-1.549 11.085-4.646M473.646 83.619v4.5M499.156 83.619v4.5"/><path fill="#FFF" stroke="#1D877A" stroke-linecap="square" stroke-width="3" d="M417.32 20.287c-1.456.626-1.456 22.82 0 66.578 14.283 24.988 21.75 37.008 22.4 36.058.977-1.423 0-12.136 0-30.174 0-12.025.315-23.541.944-34.548-14.106-25.902-21.887-38.54-23.344-37.914z"/><path stroke="#1D877A" stroke-linecap="square" stroke-width="3" d="M428.635 37.164h90.527"/><path stroke="#000" stroke-linecap="round" stroke-width="5" d="M427.5 77.523c-5.509-2.048-9.49-4.724-11.943-8.03-2.454-3.304-5.988-7.847-10.6-13.627"/></g><g><path fill="#FFF" stroke="#1D877A" stroke-linecap="square" stroke-width="3" d="M691.737 58.031c.822-.879-24.198-38.01-28.176-39.385-3.979-1.374-86.046-1.374-87.532 0-.72.666 9.414 14.452 12.237 19.373 3.003 5.235 10.253 20.012 10.911 20.012 1.278 0 91.737.879 92.56 0z"/><path stroke="#000" stroke-linecap="round" stroke-width="5" d="M694.627 83.619c5.062-1.837 8.16-4.644 9.295-8.42 1.134-3.776 1.134-9.368 0-16.777M631.38 118.98c-3.574 2.252-5.872 4.372-6.894 6.36-1.022 1.988-1.35 5.306-.987 9.955l-7.646 2.822M651.127 118.98c3.574 2.252 5.872 4.372 6.894 6.36 1.022 1.988 1.35 5.306.987 9.955l7.646 2.822"/><path fill="#FFF" stroke="#1D877A" stroke-width="3" d="M691.779 123.497c.356-.363.886-4.587 1.13-10.772.236-5.97.276-13.897.14-22.649-.122-7.87-.382-15.968-.708-22.294-.158-3.076-.326-5.618-.491-7.424a38.38 38.38 0 0 0-.224-1.99c-.074-.006-.145-.017-.182-.02a67.357 67.357 0 0 0-3.037-.21c-2.561-.134-6.198-.258-10.693-.366-8.759-.21-20.384-.353-32.103-.394-12.28-.043-23.73.028-32.22.21-4.577.1-8.239.23-10.833.388-1.339.082-2.383.172-3.11.266-.353.047-.731.138-.498-.097.166-.168.099.029.042.295-.107.507-.219 1.231-.33 2.15-.223 1.83-.441 4.385-.64 7.485-.4 6.237-.698 14.297-.819 22.245-.13 8.614-.046 16.52.267 22.477.321 6.112.965 10.249 1.39 10.612 1.337 1.144 22.419 2.139 46.736 2.139 11.73 0 23.006-.219 31.506-.623 4.468-.213 8.098-.473 10.712-.773 1.335-.153 2.392-.315 3.146-.482.551-.122.893-.25.819-.173z"/><path stroke="#000" stroke-linecap="round" stroke-width="4" d="M634.22 100.668c4.819 3.097 8.514 4.646 11.085 4.646 2.572 0 6.267-1.549 11.085-4.646M632.38 83.619v4.5M657.89 83.619v4.5"/><path fill="#FFF" stroke="#1D877A" stroke-linecap="square" stroke-width="3" d="M576.055 20.287c-1.457.626-1.457 22.82 0 66.578 14.283 24.988 21.75 37.008 22.4 36.058.976-1.423 0-12.136 0-30.174 0-12.025.315-23.541.943-34.548-14.106-25.902-21.887-38.54-23.343-37.914z"/><path stroke="#1D877A" stroke-linecap="square" stroke-width="3" d="M587.37 37.164h90.526"/><path stroke="#000" stroke-linecap="round" stroke-width="5" d="M586.234 77.523c-5.508-2.048-9.49-4.724-11.943-8.03-2.454-3.304-5.987-7.847-10.6-13.627"/></g><g><path fill="#FFF" stroke="#1D877A" stroke-linecap="square" stroke-width="3" d="M223.002 58.031c.823-.879-24.198-38.01-28.176-39.385-3.978-1.374-86.045-1.374-87.531 0-.72.666 9.413 14.452 12.236 19.373 3.003 5.235 10.253 20.012 10.912 20.012 1.277 0 91.737.879 92.56 0z"/><path stroke="#000" stroke-linecap="round" stroke-width="5" d="M225.892 83.619c5.063-1.837 8.161-4.644 9.295-8.42 1.134-3.776 1.134-9.368 0-16.777M162.646 118.98c-3.575 2.252-5.873 4.372-6.894 6.36-1.022 1.988-1.351 5.306-.987 9.955l-7.646 2.822M182.392 118.98c3.575 2.252 5.873 4.372 6.895 6.36 1.021 1.988 1.35 5.306.986 9.955l7.646 2.822"/><path fill="#FFF" stroke="#1D877A" stroke-width="3" d="M223.044 123.497c.356-.363.886-4.587 1.13-10.772.237-5.97.277-13.897.14-22.649-.121-7.87-.381-15.968-.707-22.294-.158-3.076-.326-5.618-.492-7.424a38.38 38.38 0 0 0-.223-1.99c-.074-.006-.145-.017-.182-.02a67.357 67.357 0 0 0-3.037-.21c-2.562-.134-6.198-.258-10.694-.366-8.758-.21-20.384-.353-32.102-.394-12.28-.043-23.73.028-32.221.21-4.576.1-8.238.23-10.832.388-1.34.082-2.383.172-3.11.266-.354.047-.731.138-.499-.097.167-.168.1.029.043.295-.107.507-.22 1.231-.33 2.15-.224 1.83-.441 4.385-.64 7.485-.4 6.237-.699 14.297-.82 22.245-.13 8.614-.046 16.52.267 22.477.322 6.112.966 10.249 1.39 10.612 1.337 1.144 22.42 2.139 46.737 2.139 11.729 0 23.006-.219 31.506-.623 4.468-.213 8.097-.473 10.712-.773 1.334-.153 2.391-.315 3.145-.482.552-.122.893-.25.82-.173z"/><path stroke="#000" stroke-linecap="round" stroke-width="4" d="M165.486 100.668c4.818 3.097 8.513 4.646 11.085 4.646 2.572 0 6.267-1.549 11.085-4.646M163.646 83.619v4.5M189.156 83.619v4.5"/><path fill="#FFF" stroke="#1D877A" stroke-linecap="square" stroke-width="3" d="M107.32 20.287c-1.456.626-1.456 22.82 0 66.578 14.283 24.988 21.75 37.008 22.4 36.058.977-1.423 0-12.136 0-30.174 0-12.025.315-23.541.944-34.548-14.106-25.902-21.887-38.54-23.344-37.914z"/><path stroke="#1D877A" stroke-linecap="square" stroke-width="3" d="M118.635 37.164h90.527"/><path stroke="#000" stroke-linecap="round" stroke-width="5" d="M117.5 77.523c-5.509-2.048-9.49-4.724-11.943-8.03-2.454-3.304-5.988-7.847-10.6-13.627"/></g><g><path fill="#FFF" stroke="#1D877A" stroke-linecap="square" stroke-width="3" d="M379.002 58.031c.823-.879-24.198-38.01-28.176-39.385-3.978-1.374-86.045-1.374-87.531 0-.72.666 9.413 14.452 12.236 19.373 3.003 5.235 10.253 20.012 10.912 20.012 1.277 0 91.737.879 92.56 0z"/><path stroke="#000" stroke-linecap="round" stroke-width="5" d="M381.892 83.619c5.063-1.837 8.161-4.644 9.295-8.42 1.134-3.776 1.134-9.368 0-16.777M318.646 118.98c-3.575 2.252-5.873 4.372-6.894 6.36-1.022 1.988-1.351 5.306-.987 9.955l-7.646 2.822M338.392 118.98c3.575 2.252 5.873 4.372 6.895 6.36 1.021 1.988 1.35 5.306.986 9.955l7.646 2.822"/><path fill="#FFF" stroke="#1D877A" stroke-width="3" d="M379.044 123.497c.356-.363.886-4.587 1.13-10.772.237-5.97.277-13.897.14-22.649-.121-7.87-.381-15.968-.707-22.294-.158-3.076-.326-5.618-.492-7.424a38.38 38.38 0 0 0-.223-1.99c-.074-.006-.145-.017-.182-.02a67.357 67.357 0 0 0-3.037-.21c-2.562-.134-6.198-.258-10.694-.366-8.758-.21-20.384-.353-32.102-.394-12.28-.043-23.73.028-32.221.21-4.576.1-8.238.23-10.832.388-1.34.082-2.383.172-3.11.266-.354.047-.731.138-.499-.097.167-.168.1.029.043.295-.107.507-.22 1.231-.33 2.15-.224 1.83-.441 4.385-.64 7.485-.4 6.237-.699 14.297-.82 22.245-.13 8.614-.046 16.52.267 22.477.322 6.112.966 10.249 1.39 10.612 1.337 1.144 22.42 2.139 46.737 2.139 11.729 0 23.006-.219 31.506-.623 4.468-.213 8.097-.473 10.712-.773 1.334-.153 2.391-.315 3.145-.482.552-.122.893-.25.82-.173z"/><path stroke="#000" stroke-linecap="round" stroke-width="4" d="M321.486 100.668c4.818 3.097 8.513 4.646 11.085 4.646 2.572 0 6.267-1.549 11.085-4.646M319.646 83.619v4.5M345.156 83.619v4.5"/><path fill="#FFF" stroke="#1D877A" stroke-linecap="square" stroke-width="3" d="M263.32 20.287c-1.456.626-1.456 22.82 0 66.578 14.283 24.988 21.75 37.008 22.4 36.058.977-1.423 0-12.136 0-30.174 0-12.025.315-23.541.944-34.548-14.106-25.902-21.887-38.54-23.344-37.914z"/><path stroke="#1D877A" stroke-linecap="square" stroke-width="3" d="M274.635 37.164h90.527"/><path stroke="#000" stroke-linecap="round" stroke-width="5" d="M273.5 77.523c-5.509-2.048-9.49-4.724-11.943-8.03-2.454-3.304-5.988-7.847-10.6-13.627"/></g><path stroke="#AF1C1C" stroke-dasharray="18" stroke-linecap="square" stroke-width="6" d="M66.426 139h655.488V3.145h-656.5"/><g><path stroke="#000" stroke-linecap="square" stroke-width="6" d="M725.438 262h21c34.914 0 34.914-12.25 34.914-43.922 0-31.672 0-55.07-34.914-55.07-24.079 0-630.153 5.044-710.602 0-32.36-.117-32.36-16.64-32.36-47.836 0-31.195 0-51.39 32.36-51.39h20.719"/><path fill="#000" d="M35.798 97.29l31.07-31.072-31.07-31.07z"/></g><g><path stroke="#000" stroke-linecap="square" stroke-width="6" d="M726.688 455.5h21c34.914 0 34.914-12.25 34.914-43.922 0-31.672 0-55.07-34.914-55.07-24.079 0-630.153 5.044-710.602 0-32.36-.117-32.36-16.64-32.36-47.836 0-31.195 0-51.39 32.36-51.39h20.719"/><path fill="#000" d="M37.048 290.79l31.07-31.072-31.07-31.07z"/></g></g></svg>
